G04*
G04 #@! TF.GenerationSoftware,Altium Limited,Altium Designer,20.0.13 (296)*
G04*
G04 Layer_Physical_Order=4*
G04 Layer_Color=6736896*
%FSLAX25Y25*%
%MOIN*%
G70*
G01*
G75*
%ADD19C,0.00600*%
%ADD134C,0.01968*%
%ADD168C,0.06000*%
%ADD169C,0.05512*%
%ADD186C,0.02165*%
%ADD187C,0.01900*%
%ADD201C,0.00400*%
%ADD202C,0.00613*%
G36*
X65219Y774485D02*
X65109Y774590D01*
X64900Y774767D01*
X64800Y774839D01*
X64704Y774900D01*
X64610Y774950D01*
X64521Y774989D01*
X64434Y775016D01*
X64351Y775033D01*
X64271Y775038D01*
X64266Y775438D01*
X64347Y775444D01*
X64430Y775461D01*
X64517Y775489D01*
X64606Y775528D01*
X64698Y775579D01*
X64793Y775641D01*
X64890Y775714D01*
X64991Y775798D01*
X65200Y776000D01*
X65219Y774485D01*
D02*
G37*
G36*
X520466Y727875D02*
X520537Y727828D01*
X520617Y727787D01*
X520708Y727751D01*
X520809Y727721D01*
X520920Y727697D01*
X521041Y727678D01*
X521172Y727666D01*
X521464Y727657D01*
X520393Y726586D01*
X520391Y726737D01*
X520372Y727009D01*
X520353Y727130D01*
X520329Y727241D01*
X520299Y727342D01*
X520263Y727433D01*
X520222Y727514D01*
X520175Y727584D01*
X520122Y727645D01*
X520405Y727928D01*
X520466Y727875D01*
D02*
G37*
G36*
X518793Y727645D02*
X518740Y727584D01*
X518693Y727514D01*
X518652Y727433D01*
X518616Y727342D01*
X518586Y727241D01*
X518562Y727130D01*
X518544Y727009D01*
X518531Y726878D01*
X518523Y726586D01*
X517451Y727657D01*
X517602Y727659D01*
X517874Y727678D01*
X517995Y727697D01*
X518106Y727721D01*
X518207Y727751D01*
X518298Y727787D01*
X518379Y727828D01*
X518449Y727875D01*
X518510Y727928D01*
X518793Y727645D01*
D02*
G37*
G36*
X508656Y727875D02*
X508727Y727828D01*
X508807Y727787D01*
X508898Y727751D01*
X508999Y727721D01*
X509110Y727697D01*
X509231Y727678D01*
X509362Y727666D01*
X509655Y727657D01*
X508583Y726586D01*
X508581Y726737D01*
X508562Y727009D01*
X508543Y727130D01*
X508519Y727241D01*
X508489Y727342D01*
X508453Y727433D01*
X508412Y727514D01*
X508365Y727584D01*
X508312Y727645D01*
X508595Y727928D01*
X508656Y727875D01*
D02*
G37*
G36*
X506983Y727645D02*
X506930Y727584D01*
X506883Y727514D01*
X506842Y727433D01*
X506806Y727342D01*
X506776Y727241D01*
X506752Y727130D01*
X506734Y727009D01*
X506721Y726878D01*
X506712Y726586D01*
X505641Y727657D01*
X505792Y727659D01*
X506064Y727678D01*
X506185Y727697D01*
X506296Y727721D01*
X506397Y727751D01*
X506488Y727787D01*
X506569Y727828D01*
X506639Y727875D01*
X506700Y727928D01*
X506983Y727645D01*
D02*
G37*
G36*
X496825Y727875D02*
X496896Y727828D01*
X496977Y727787D01*
X497067Y727751D01*
X497168Y727721D01*
X497279Y727697D01*
X497400Y727678D01*
X497532Y727666D01*
X497824Y727657D01*
X496752Y726586D01*
X496751Y726737D01*
X496731Y727009D01*
X496712Y727130D01*
X496688Y727241D01*
X496658Y727342D01*
X496623Y727433D01*
X496581Y727514D01*
X496534Y727584D01*
X496482Y727645D01*
X496764Y727928D01*
X496825Y727875D01*
D02*
G37*
G36*
X495152Y727645D02*
X495100Y727584D01*
X495052Y727514D01*
X495011Y727433D01*
X494976Y727342D01*
X494946Y727241D01*
X494921Y727130D01*
X494903Y727009D01*
X494890Y726878D01*
X494882Y726586D01*
X493810Y727657D01*
X493961Y727659D01*
X494234Y727678D01*
X494354Y727697D01*
X494465Y727721D01*
X494566Y727751D01*
X494657Y727787D01*
X494738Y727828D01*
X494809Y727875D01*
X494870Y727928D01*
X495152Y727645D01*
D02*
G37*
G36*
X527534Y724253D02*
X527604Y724206D01*
X527685Y724165D01*
X527776Y724129D01*
X527877Y724099D01*
X527988Y724075D01*
X528109Y724056D01*
X528240Y724044D01*
X528533Y724035D01*
X527461Y722964D01*
X527459Y723115D01*
X527440Y723387D01*
X527421Y723508D01*
X527397Y723619D01*
X527367Y723720D01*
X527331Y723811D01*
X527290Y723892D01*
X527243Y723962D01*
X527190Y724023D01*
X527473Y724306D01*
X527534Y724253D01*
D02*
G37*
G36*
X525861Y724023D02*
X525808Y723962D01*
X525761Y723892D01*
X525720Y723811D01*
X525684Y723720D01*
X525654Y723619D01*
X525630Y723508D01*
X525612Y723387D01*
X525599Y723256D01*
X525591Y722964D01*
X524519Y724035D01*
X524670Y724037D01*
X524942Y724056D01*
X525063Y724075D01*
X525174Y724099D01*
X525275Y724129D01*
X525366Y724165D01*
X525447Y724206D01*
X525518Y724253D01*
X525578Y724306D01*
X525861Y724023D01*
D02*
G37*
G36*
X503912Y724253D02*
X503982Y724206D01*
X504063Y724165D01*
X504154Y724129D01*
X504255Y724099D01*
X504366Y724075D01*
X504487Y724056D01*
X504618Y724044D01*
X504910Y724035D01*
X503839Y722964D01*
X503837Y723115D01*
X503818Y723387D01*
X503799Y723508D01*
X503775Y723619D01*
X503745Y723720D01*
X503709Y723811D01*
X503668Y723892D01*
X503621Y723962D01*
X503568Y724023D01*
X503851Y724306D01*
X503912Y724253D01*
D02*
G37*
G36*
X502239Y724023D02*
X502186Y723962D01*
X502139Y723892D01*
X502098Y723811D01*
X502062Y723720D01*
X502032Y723619D01*
X502008Y723508D01*
X501990Y723387D01*
X501977Y723256D01*
X501968Y722964D01*
X500897Y724035D01*
X501048Y724037D01*
X501320Y724056D01*
X501441Y724075D01*
X501552Y724099D01*
X501653Y724129D01*
X501744Y724165D01*
X501825Y724206D01*
X501895Y724253D01*
X501956Y724306D01*
X502239Y724023D01*
D02*
G37*
G36*
X492102Y724253D02*
X492172Y724206D01*
X492253Y724165D01*
X492344Y724129D01*
X492445Y724099D01*
X492556Y724075D01*
X492677Y724056D01*
X492808Y724044D01*
X493100Y724035D01*
X492029Y722964D01*
X492027Y723115D01*
X492008Y723387D01*
X491989Y723508D01*
X491965Y723619D01*
X491935Y723720D01*
X491899Y723811D01*
X491858Y723892D01*
X491811Y723962D01*
X491758Y724023D01*
X492041Y724306D01*
X492102Y724253D01*
D02*
G37*
G36*
X490429Y724023D02*
X490376Y723962D01*
X490329Y723892D01*
X490288Y723811D01*
X490252Y723720D01*
X490222Y723619D01*
X490198Y723508D01*
X490179Y723387D01*
X490167Y723256D01*
X490158Y722964D01*
X489087Y724035D01*
X489238Y724037D01*
X489510Y724056D01*
X489631Y724075D01*
X489742Y724099D01*
X489843Y724129D01*
X489934Y724165D01*
X490015Y724206D01*
X490085Y724253D01*
X490146Y724306D01*
X490429Y724023D01*
D02*
G37*
G36*
X521628Y712915D02*
X521699Y712867D01*
X521780Y712826D01*
X521871Y712790D01*
X521972Y712760D01*
X522083Y712736D01*
X522203Y712718D01*
X522335Y712705D01*
X522627Y712697D01*
X521555Y711625D01*
X521554Y711776D01*
X521534Y712048D01*
X521516Y712170D01*
X521491Y712280D01*
X521461Y712381D01*
X521426Y712472D01*
X521384Y712553D01*
X521337Y712624D01*
X521285Y712684D01*
X521567Y712967D01*
X521628Y712915D01*
D02*
G37*
G36*
X519955Y712684D02*
X519903Y712624D01*
X519856Y712553D01*
X519814Y712472D01*
X519779Y712381D01*
X519749Y712280D01*
X519725Y712170D01*
X519706Y712048D01*
X519693Y711917D01*
X519685Y711625D01*
X518613Y712697D01*
X518764Y712698D01*
X519037Y712718D01*
X519158Y712736D01*
X519269Y712760D01*
X519370Y712790D01*
X519460Y712826D01*
X519541Y712867D01*
X519612Y712915D01*
X519673Y712967D01*
X519955Y712684D01*
D02*
G37*
G36*
X509762Y711143D02*
X509833Y711096D01*
X509914Y711054D01*
X510005Y711019D01*
X510105Y710989D01*
X510216Y710965D01*
X510337Y710946D01*
X510468Y710933D01*
X510761Y710925D01*
X509689Y709853D01*
X509688Y710005D01*
X509668Y710277D01*
X509650Y710398D01*
X509625Y710509D01*
X509595Y710610D01*
X509560Y710701D01*
X509518Y710781D01*
X509471Y710852D01*
X509418Y710913D01*
X509701Y711196D01*
X509762Y711143D01*
D02*
G37*
G36*
X508196Y710913D02*
X508144Y710852D01*
X508097Y710781D01*
X508055Y710701D01*
X508020Y710610D01*
X507990Y710509D01*
X507966Y710398D01*
X507947Y710277D01*
X507934Y710146D01*
X507926Y709853D01*
X506854Y710925D01*
X507005Y710926D01*
X507278Y710946D01*
X507399Y710965D01*
X507510Y710989D01*
X507611Y711019D01*
X507701Y711054D01*
X507782Y711096D01*
X507853Y711143D01*
X507914Y711196D01*
X508196Y710913D01*
D02*
G37*
G36*
X516805Y708682D02*
X516876Y708635D01*
X516957Y708594D01*
X517048Y708558D01*
X517149Y708528D01*
X517260Y708504D01*
X517381Y708486D01*
X517512Y708473D01*
X517804Y708464D01*
X516732Y707393D01*
X516731Y707544D01*
X516711Y707816D01*
X516693Y707937D01*
X516669Y708048D01*
X516639Y708149D01*
X516603Y708240D01*
X516562Y708321D01*
X516515Y708392D01*
X516462Y708452D01*
X516745Y708735D01*
X516805Y708682D01*
D02*
G37*
G36*
X515133Y708452D02*
X515080Y708392D01*
X515033Y708321D01*
X514991Y708240D01*
X514956Y708149D01*
X514926Y708048D01*
X514902Y707937D01*
X514883Y707816D01*
X514871Y707685D01*
X514862Y707393D01*
X513790Y708464D01*
X513942Y708466D01*
X514214Y708486D01*
X514335Y708504D01*
X514446Y708528D01*
X514547Y708558D01*
X514638Y708594D01*
X514718Y708635D01*
X514789Y708682D01*
X514850Y708735D01*
X515133Y708452D01*
D02*
G37*
G36*
X1123199Y701451D02*
X1123133Y701422D01*
X1123074Y701385D01*
X1123023Y701340D01*
X1122980Y701287D01*
X1122945Y701226D01*
X1122918Y701157D01*
X1122898Y701080D01*
X1122887Y700995D01*
X1122883Y700903D01*
X1122483D01*
X1122479Y700995D01*
X1122467Y701080D01*
X1122448Y701157D01*
X1122420Y701226D01*
X1122385Y701287D01*
X1122342Y701340D01*
X1122292Y701385D01*
X1122233Y701422D01*
X1122167Y701451D01*
X1122093Y701472D01*
X1123273D01*
X1123199Y701451D01*
D02*
G37*
G36*
X1122887Y699341D02*
X1122898Y699256D01*
X1122918Y699179D01*
X1122945Y699110D01*
X1122980Y699049D01*
X1123023Y698996D01*
X1123074Y698951D01*
X1123133Y698914D01*
X1123199Y698885D01*
X1123273Y698864D01*
X1122093D01*
X1122167Y698885D01*
X1122233Y698914D01*
X1122292Y698951D01*
X1122342Y698996D01*
X1122385Y699049D01*
X1122420Y699110D01*
X1122448Y699179D01*
X1122467Y699256D01*
X1122479Y699341D01*
X1122483Y699434D01*
X1122883D01*
X1122887Y699341D01*
D02*
G37*
G36*
X1087802Y698204D02*
X1087814Y698136D01*
X1087834Y698076D01*
X1087838Y698069D01*
X1087966D01*
X1087934Y698052D01*
X1087905Y698031D01*
X1087880Y698004D01*
X1087880Y698003D01*
X1087898Y697980D01*
X1087942Y697944D01*
X1087994Y697916D01*
X1088054Y697896D01*
X1088122Y697884D01*
X1088198Y697880D01*
X1087598Y697480D01*
X1086998Y697880D01*
X1087074Y697884D01*
X1087142Y697896D01*
X1087202Y697916D01*
X1087254Y697944D01*
X1087298Y697980D01*
X1087317Y698003D01*
X1087317Y698004D01*
X1087292Y698031D01*
X1087263Y698052D01*
X1087231Y698069D01*
X1087358D01*
X1087362Y698076D01*
X1087382Y698136D01*
X1087394Y698204D01*
X1087398Y698280D01*
X1087798D01*
X1087802Y698204D01*
D02*
G37*
G36*
X1133199Y697475D02*
X1133132Y697446D01*
X1133074Y697409D01*
X1133023Y697364D01*
X1132980Y697311D01*
X1132945Y697250D01*
X1132918Y697181D01*
X1132898Y697104D01*
X1132887Y697019D01*
X1132883Y696926D01*
X1132483D01*
X1132479Y697019D01*
X1132467Y697104D01*
X1132448Y697181D01*
X1132420Y697250D01*
X1132385Y697311D01*
X1132342Y697364D01*
X1132292Y697409D01*
X1132233Y697446D01*
X1132167Y697475D01*
X1132093Y697496D01*
X1133273D01*
X1133199Y697475D01*
D02*
G37*
G36*
X1087800Y696616D02*
X1087801Y696613D01*
X1088198Y696480D01*
X1088122Y696476D01*
X1088054Y696464D01*
X1087994Y696444D01*
X1087942Y696416D01*
X1087898Y696380D01*
X1087878Y696355D01*
X1087891Y696337D01*
X1087919Y696308D01*
X1087951Y696284D01*
X1087987Y696264D01*
X1087828D01*
X1087814Y696224D01*
X1087802Y696156D01*
X1087798Y696080D01*
X1087398D01*
X1087394Y696156D01*
X1087382Y696224D01*
X1087369Y696264D01*
X1087210D01*
X1087246Y696284D01*
X1087278Y696308D01*
X1087306Y696337D01*
X1087319Y696355D01*
X1087298Y696380D01*
X1087254Y696416D01*
X1087202Y696444D01*
X1087142Y696464D01*
X1087074Y696476D01*
X1086998Y696480D01*
X1087396Y696613D01*
X1087397Y696616D01*
X1087398Y696680D01*
X1087798D01*
X1087800Y696616D01*
D02*
G37*
G36*
X1132887Y695365D02*
X1132898Y695280D01*
X1132918Y695203D01*
X1132945Y695134D01*
X1132980Y695073D01*
X1133023Y695020D01*
X1133074Y694975D01*
X1133132Y694938D01*
X1133199Y694909D01*
X1133273Y694888D01*
X1132093D01*
X1132167Y694909D01*
X1132233Y694938D01*
X1132292Y694975D01*
X1132342Y695020D01*
X1132385Y695073D01*
X1132420Y695134D01*
X1132448Y695203D01*
X1132467Y695280D01*
X1132479Y695365D01*
X1132483Y695458D01*
X1132883D01*
X1132887Y695365D01*
D02*
G37*
G36*
X564989Y692684D02*
X564838Y692683D01*
X564566Y692663D01*
X564445Y692645D01*
X564334Y692620D01*
X564233Y692590D01*
X564142Y692555D01*
X564061Y692513D01*
X563990Y692466D01*
X563930Y692414D01*
X563647Y692696D01*
X563700Y692757D01*
X563747Y692828D01*
X563788Y692909D01*
X563824Y692999D01*
X563854Y693100D01*
X563878Y693211D01*
X563896Y693332D01*
X563909Y693464D01*
X563917Y693756D01*
X564989Y692684D01*
D02*
G37*
G36*
X562459Y693605D02*
X562479Y693332D01*
X562497Y693211D01*
X562521Y693100D01*
X562551Y692999D01*
X562587Y692909D01*
X562628Y692828D01*
X562675Y692757D01*
X562728Y692696D01*
X562445Y692414D01*
X562385Y692466D01*
X562314Y692513D01*
X562233Y692555D01*
X562142Y692590D01*
X562041Y692620D01*
X561930Y692645D01*
X561809Y692663D01*
X561678Y692676D01*
X561386Y692684D01*
X562458Y693756D01*
X562459Y693605D01*
D02*
G37*
G36*
X591114Y692672D02*
X590963Y692671D01*
X590691Y692651D01*
X590570Y692632D01*
X590459Y692608D01*
X590358Y692578D01*
X590267Y692543D01*
X590186Y692501D01*
X590115Y692454D01*
X590055Y692402D01*
X589772Y692684D01*
X589825Y692745D01*
X589872Y692816D01*
X589913Y692897D01*
X589949Y692987D01*
X589979Y693088D01*
X590003Y693199D01*
X590021Y693320D01*
X590034Y693451D01*
X590042Y693744D01*
X591114Y692672D01*
D02*
G37*
G36*
X588584Y693593D02*
X588604Y693320D01*
X588622Y693199D01*
X588646Y693088D01*
X588676Y692987D01*
X588712Y692897D01*
X588753Y692816D01*
X588800Y692745D01*
X588853Y692684D01*
X588570Y692402D01*
X588510Y692454D01*
X588439Y692501D01*
X588358Y692543D01*
X588267Y692578D01*
X588166Y692608D01*
X588055Y692632D01*
X587934Y692651D01*
X587803Y692664D01*
X587511Y692672D01*
X588583Y693744D01*
X588584Y693593D01*
D02*
G37*
G36*
X1085440Y692197D02*
X1085452Y692129D01*
X1085472Y692069D01*
X1085489Y692037D01*
X1085585D01*
X1085556Y692023D01*
X1085531Y692004D01*
X1085520Y691992D01*
X1085536Y691973D01*
X1085580Y691937D01*
X1085632Y691909D01*
X1085692Y691889D01*
X1085760Y691877D01*
X1085836Y691873D01*
X1085438Y691740D01*
X1085438Y691732D01*
X1085436Y691673D01*
X1085036D01*
X1085035Y691732D01*
X1085034Y691740D01*
X1084636Y691873D01*
X1084712Y691877D01*
X1084780Y691889D01*
X1084840Y691909D01*
X1084892Y691937D01*
X1084936Y691973D01*
X1084952Y691992D01*
X1084941Y692004D01*
X1084916Y692023D01*
X1084888Y692037D01*
X1084983D01*
X1085000Y692069D01*
X1085020Y692129D01*
X1085032Y692197D01*
X1085036Y692273D01*
X1085436D01*
X1085440Y692197D01*
D02*
G37*
G36*
X484717Y692455D02*
X484640Y692366D01*
X484572Y692276D01*
X484513Y692185D01*
X484464Y692094D01*
X484423Y692002D01*
X484391Y691910D01*
X484369Y691817D01*
X484355Y691723D01*
X484351Y691629D01*
X483738D01*
X483734Y691723D01*
X483720Y691817D01*
X483698Y691910D01*
X483666Y692002D01*
X483625Y692094D01*
X483576Y692185D01*
X483517Y692276D01*
X483449Y692366D01*
X483372Y692455D01*
X483287Y692544D01*
X484802D01*
X484717Y692455D01*
D02*
G37*
G36*
X1085438Y690612D02*
X1085438Y690605D01*
X1085836Y690473D01*
X1085760Y690469D01*
X1085692Y690457D01*
X1085632Y690437D01*
X1085580Y690409D01*
X1085536Y690373D01*
X1085518Y690351D01*
X1085539Y690329D01*
X1085567Y690308D01*
X1085597Y690292D01*
X1085481D01*
X1085472Y690277D01*
X1085452Y690217D01*
X1085440Y690149D01*
X1085436Y690073D01*
X1085036D01*
X1085032Y690149D01*
X1085020Y690217D01*
X1085000Y690277D01*
X1084992Y690292D01*
X1084875D01*
X1084906Y690308D01*
X1084933Y690329D01*
X1084954Y690351D01*
X1084936Y690373D01*
X1084892Y690409D01*
X1084840Y690437D01*
X1084780Y690457D01*
X1084712Y690469D01*
X1084636Y690473D01*
X1085034Y690605D01*
X1085035Y690612D01*
X1085036Y690673D01*
X1085436D01*
X1085438Y690612D01*
D02*
G37*
G36*
X503411Y690477D02*
X503334Y690387D01*
X503266Y690297D01*
X503207Y690206D01*
X503158Y690115D01*
X503117Y690024D01*
X503086Y689931D01*
X503063Y689838D01*
X503050Y689745D01*
X503045Y689650D01*
X502432D01*
X502428Y689745D01*
X502414Y689838D01*
X502392Y689931D01*
X502360Y690024D01*
X502319Y690115D01*
X502270Y690206D01*
X502211Y690297D01*
X502143Y690387D01*
X502067Y690477D01*
X501981Y690565D01*
X503497D01*
X503411Y690477D01*
D02*
G37*
G36*
X496503D02*
X496427Y690387D01*
X496359Y690297D01*
X496300Y690206D01*
X496251Y690115D01*
X496210Y690024D01*
X496178Y689931D01*
X496156Y689838D01*
X496142Y689745D01*
X496138Y689650D01*
X495525D01*
X495521Y689745D01*
X495507Y689838D01*
X495485Y689931D01*
X495453Y690024D01*
X495412Y690115D01*
X495363Y690206D01*
X495304Y690297D01*
X495236Y690387D01*
X495159Y690477D01*
X495074Y690565D01*
X496589D01*
X496503Y690477D01*
D02*
G37*
G36*
X477607D02*
X477531Y690387D01*
X477463Y690297D01*
X477404Y690206D01*
X477355Y690115D01*
X477314Y690024D01*
X477282Y689931D01*
X477260Y689838D01*
X477246Y689745D01*
X477242Y689650D01*
X476629D01*
X476625Y689745D01*
X476611Y689838D01*
X476589Y689931D01*
X476557Y690024D01*
X476516Y690115D01*
X476467Y690206D01*
X476408Y690297D01*
X476340Y690387D01*
X476263Y690477D01*
X476178Y690565D01*
X477693D01*
X477607Y690477D01*
D02*
G37*
G36*
X385488D02*
X385411Y690387D01*
X385344Y690297D01*
X385285Y690206D01*
X385235Y690115D01*
X385194Y690024D01*
X385163Y689931D01*
X385140Y689838D01*
X385127Y689745D01*
X385122Y689650D01*
X384510D01*
X384505Y689745D01*
X384492Y689838D01*
X384469Y689931D01*
X384437Y690024D01*
X384397Y690115D01*
X384347Y690206D01*
X384288Y690297D01*
X384221Y690387D01*
X384144Y690477D01*
X384058Y690565D01*
X385574D01*
X385488Y690477D01*
D02*
G37*
G36*
X378402D02*
X378325Y690387D01*
X378257Y690297D01*
X378199Y690206D01*
X378149Y690115D01*
X378108Y690024D01*
X378077Y689931D01*
X378054Y689838D01*
X378040Y689745D01*
X378036Y689650D01*
X377423D01*
X377419Y689745D01*
X377405Y689838D01*
X377383Y689931D01*
X377351Y690024D01*
X377310Y690115D01*
X377261Y690206D01*
X377202Y690297D01*
X377134Y690387D01*
X377058Y690477D01*
X376972Y690565D01*
X378487D01*
X378402Y690477D01*
D02*
G37*
G36*
X371317D02*
X371240Y690387D01*
X371172Y690297D01*
X371113Y690206D01*
X371064Y690115D01*
X371023Y690024D01*
X370991Y689931D01*
X370969Y689838D01*
X370955Y689745D01*
X370951Y689650D01*
X370338D01*
X370334Y689745D01*
X370320Y689838D01*
X370298Y689931D01*
X370266Y690024D01*
X370225Y690115D01*
X370176Y690206D01*
X370117Y690297D01*
X370049Y690387D01*
X369972Y690477D01*
X369887Y690565D01*
X371402D01*
X371317Y690477D01*
D02*
G37*
G36*
X574364Y689862D02*
X574213Y689861D01*
X573941Y689841D01*
X573820Y689823D01*
X573709Y689798D01*
X573608Y689769D01*
X573517Y689733D01*
X573436Y689692D01*
X573365Y689644D01*
X573305Y689592D01*
X573022Y689875D01*
X573075Y689935D01*
X573122Y690006D01*
X573163Y690087D01*
X573199Y690178D01*
X573229Y690279D01*
X573253Y690390D01*
X573271Y690511D01*
X573284Y690642D01*
X573292Y690934D01*
X574364Y689862D01*
D02*
G37*
G36*
X571834Y690783D02*
X571854Y690511D01*
X571872Y690390D01*
X571896Y690279D01*
X571926Y690178D01*
X571962Y690087D01*
X572003Y690006D01*
X572050Y689935D01*
X572103Y689875D01*
X571820Y689592D01*
X571760Y689644D01*
X571689Y689692D01*
X571608Y689733D01*
X571517Y689769D01*
X571416Y689798D01*
X571305Y689823D01*
X571184Y689841D01*
X571053Y689854D01*
X570761Y689862D01*
X571833Y690934D01*
X571834Y690783D01*
D02*
G37*
G36*
X488368Y690333D02*
X488291Y690244D01*
X488224Y690154D01*
X488165Y690063D01*
X488115Y689972D01*
X488075Y689880D01*
X488043Y689788D01*
X488020Y689695D01*
X488007Y689601D01*
X488002Y689507D01*
X487390D01*
X487385Y689601D01*
X487372Y689695D01*
X487349Y689788D01*
X487318Y689880D01*
X487277Y689972D01*
X487227Y690063D01*
X487169Y690154D01*
X487101Y690244D01*
X487024Y690333D01*
X486938Y690422D01*
X488454D01*
X488368Y690333D01*
D02*
G37*
G36*
X581489Y687894D02*
X581338Y687892D01*
X581066Y687873D01*
X580945Y687854D01*
X580834Y687830D01*
X580733Y687800D01*
X580642Y687765D01*
X580561Y687723D01*
X580490Y687676D01*
X580430Y687623D01*
X580147Y687906D01*
X580200Y687967D01*
X580247Y688037D01*
X580288Y688118D01*
X580324Y688209D01*
X580354Y688310D01*
X580378Y688421D01*
X580396Y688542D01*
X580409Y688673D01*
X580417Y688966D01*
X581489Y687894D01*
D02*
G37*
G36*
X578959Y688814D02*
X578979Y688542D01*
X578997Y688421D01*
X579021Y688310D01*
X579051Y688209D01*
X579087Y688118D01*
X579128Y688037D01*
X579175Y687967D01*
X579228Y687906D01*
X578945Y687623D01*
X578885Y687676D01*
X578814Y687723D01*
X578733Y687765D01*
X578642Y687800D01*
X578541Y687830D01*
X578430Y687854D01*
X578309Y687873D01*
X578178Y687885D01*
X577886Y687894D01*
X578958Y688966D01*
X578959Y688814D01*
D02*
G37*
G36*
X498865Y687327D02*
X498788Y687238D01*
X498721Y687148D01*
X498662Y687057D01*
X498612Y686966D01*
X498572Y686874D01*
X498540Y686782D01*
X498518Y686689D01*
X498504Y686595D01*
X498499Y686501D01*
X497887D01*
X497882Y686595D01*
X497869Y686689D01*
X497846Y686782D01*
X497815Y686874D01*
X497774Y686966D01*
X497724Y687057D01*
X497666Y687148D01*
X497598Y687238D01*
X497521Y687327D01*
X497435Y687416D01*
X498951D01*
X498865Y687327D01*
D02*
G37*
G36*
X479969D02*
X479892Y687238D01*
X479825Y687148D01*
X479766Y687057D01*
X479716Y686966D01*
X479676Y686874D01*
X479644Y686782D01*
X479622Y686689D01*
X479608Y686595D01*
X479603Y686501D01*
X478991D01*
X478986Y686595D01*
X478973Y686689D01*
X478950Y686782D01*
X478919Y686874D01*
X478878Y686966D01*
X478828Y687057D01*
X478770Y687148D01*
X478702Y687238D01*
X478625Y687327D01*
X478539Y687416D01*
X480055D01*
X479969Y687327D01*
D02*
G37*
G36*
X472883D02*
X472807Y687238D01*
X472739Y687148D01*
X472680Y687057D01*
X472630Y686966D01*
X472590Y686874D01*
X472558Y686782D01*
X472536Y686689D01*
X472522Y686595D01*
X472517Y686501D01*
X471905D01*
X471900Y686595D01*
X471887Y686689D01*
X471864Y686782D01*
X471833Y686874D01*
X471792Y686966D01*
X471742Y687057D01*
X471684Y687148D01*
X471616Y687238D01*
X471539Y687327D01*
X471453Y687416D01*
X472969D01*
X472883Y687327D01*
D02*
G37*
G36*
X390212D02*
X390136Y687238D01*
X390068Y687148D01*
X390009Y687057D01*
X389960Y686966D01*
X389919Y686874D01*
X389887Y686782D01*
X389865Y686689D01*
X389851Y686595D01*
X389847Y686501D01*
X389234D01*
X389230Y686595D01*
X389216Y686689D01*
X389194Y686782D01*
X389162Y686874D01*
X389121Y686966D01*
X389071Y687057D01*
X389013Y687148D01*
X388945Y687238D01*
X388868Y687327D01*
X388783Y687416D01*
X390298D01*
X390212Y687327D01*
D02*
G37*
G36*
X383126D02*
X383049Y687238D01*
X382981Y687148D01*
X382923Y687057D01*
X382873Y686966D01*
X382832Y686874D01*
X382801Y686782D01*
X382778Y686689D01*
X382765Y686595D01*
X382760Y686501D01*
X382148D01*
X382143Y686595D01*
X382129Y686689D01*
X382107Y686782D01*
X382075Y686874D01*
X382035Y686966D01*
X381985Y687057D01*
X381926Y687148D01*
X381858Y687238D01*
X381782Y687327D01*
X381696Y687416D01*
X383212D01*
X383126Y687327D01*
D02*
G37*
G36*
X376041D02*
X375964Y687238D01*
X375896Y687148D01*
X375837Y687057D01*
X375788Y686966D01*
X375747Y686874D01*
X375715Y686782D01*
X375693Y686689D01*
X375679Y686595D01*
X375675Y686501D01*
X375062D01*
X375058Y686595D01*
X375044Y686689D01*
X375022Y686782D01*
X374990Y686874D01*
X374949Y686966D01*
X374900Y687057D01*
X374841Y687148D01*
X374773Y687238D01*
X374696Y687327D01*
X374611Y687416D01*
X376126D01*
X376041Y687327D01*
D02*
G37*
G36*
X368979D02*
X368902Y687238D01*
X368835Y687148D01*
X368776Y687057D01*
X368726Y686966D01*
X368686Y686874D01*
X368654Y686782D01*
X368631Y686689D01*
X368618Y686595D01*
X368613Y686501D01*
X368001D01*
X367996Y686595D01*
X367983Y686689D01*
X367960Y686782D01*
X367929Y686874D01*
X367888Y686966D01*
X367838Y687057D01*
X367779Y687148D01*
X367712Y687238D01*
X367635Y687327D01*
X367549Y687416D01*
X369065D01*
X368979Y687327D01*
D02*
G37*
G36*
X1133199Y681491D02*
X1133132Y681461D01*
X1133074Y681424D01*
X1133023Y681379D01*
X1132980Y681326D01*
X1132945Y681265D01*
X1132918Y681197D01*
X1132898Y681120D01*
X1132887Y681035D01*
X1132883Y680942D01*
X1132483D01*
X1132479Y681035D01*
X1132467Y681120D01*
X1132448Y681197D01*
X1132420Y681265D01*
X1132385Y681326D01*
X1132342Y681379D01*
X1132292Y681424D01*
X1132233Y681461D01*
X1132167Y681491D01*
X1132093Y681512D01*
X1133273D01*
X1133199Y681491D01*
D02*
G37*
G36*
X1087802Y680968D02*
X1087814Y680900D01*
X1087834Y680840D01*
X1087860Y680792D01*
X1087934D01*
X1087908Y680780D01*
X1087885Y680762D01*
X1087884Y680761D01*
X1087898Y680744D01*
X1087942Y680708D01*
X1087994Y680680D01*
X1088054Y680660D01*
X1088122Y680648D01*
X1088198Y680644D01*
X1087998Y680244D01*
X1087598D01*
X1086998Y680644D01*
X1087074Y680648D01*
X1087142Y680660D01*
X1087202Y680680D01*
X1087254Y680708D01*
X1087298Y680744D01*
X1087313Y680761D01*
X1087312Y680762D01*
X1087289Y680780D01*
X1087263Y680792D01*
X1087337D01*
X1087362Y680840D01*
X1087382Y680900D01*
X1087394Y680968D01*
X1087398Y681044D01*
X1087798D01*
X1087802Y680968D01*
D02*
G37*
G36*
X1132887Y679380D02*
X1132898Y679295D01*
X1132918Y679219D01*
X1132945Y679150D01*
X1132980Y679089D01*
X1133023Y679036D01*
X1133074Y678991D01*
X1133132Y678954D01*
X1133199Y678925D01*
X1133273Y678903D01*
X1132093D01*
X1132167Y678925D01*
X1132233Y678954D01*
X1132292Y678991D01*
X1132342Y679036D01*
X1132385Y679089D01*
X1132420Y679150D01*
X1132448Y679219D01*
X1132467Y679295D01*
X1132479Y679380D01*
X1132483Y679473D01*
X1132883D01*
X1132887Y679380D01*
D02*
G37*
G36*
X1088198Y679244D02*
X1088122Y679240D01*
X1088054Y679228D01*
X1087994Y679208D01*
X1087942Y679180D01*
X1087898Y679144D01*
X1087879Y679120D01*
X1087884Y679114D01*
X1087910Y679086D01*
X1087939Y679064D01*
X1087973Y679046D01*
X1087834D01*
X1087814Y678988D01*
X1087802Y678920D01*
X1087798Y678844D01*
X1087398D01*
X1087394Y678920D01*
X1087382Y678988D01*
X1087363Y679046D01*
X1087224D01*
X1087257Y679064D01*
X1087287Y679086D01*
X1087313Y679114D01*
X1087318Y679120D01*
X1087298Y679144D01*
X1087254Y679180D01*
X1087202Y679208D01*
X1087142Y679228D01*
X1087074Y679240D01*
X1086998Y679244D01*
X1087598Y679644D01*
X1088198Y679244D01*
D02*
G37*
G36*
X1123199Y677514D02*
X1123133Y677485D01*
X1123074Y677448D01*
X1123023Y677403D01*
X1122980Y677350D01*
X1122945Y677289D01*
X1122918Y677220D01*
X1122898Y677143D01*
X1122887Y677058D01*
X1122883Y676966D01*
X1122483D01*
X1122479Y677058D01*
X1122467Y677143D01*
X1122448Y677220D01*
X1122420Y677289D01*
X1122385Y677350D01*
X1122342Y677403D01*
X1122292Y677448D01*
X1122233Y677485D01*
X1122167Y677514D01*
X1122093Y677535D01*
X1123273D01*
X1123199Y677514D01*
D02*
G37*
G36*
X1122887Y675404D02*
X1122898Y675319D01*
X1122918Y675242D01*
X1122945Y675173D01*
X1122980Y675112D01*
X1123023Y675059D01*
X1123074Y675014D01*
X1123133Y674977D01*
X1123199Y674948D01*
X1123273Y674927D01*
X1122093D01*
X1122167Y674948D01*
X1122233Y674977D01*
X1122292Y675014D01*
X1122342Y675059D01*
X1122385Y675112D01*
X1122420Y675173D01*
X1122448Y675242D01*
X1122467Y675319D01*
X1122479Y675404D01*
X1122483Y675497D01*
X1122883D01*
X1122887Y675404D01*
D02*
G37*
G36*
X1085440Y675102D02*
X1085450Y675045D01*
X1085663D01*
X1085620Y675020D01*
X1085581Y674990D01*
X1085547Y674955D01*
X1085518Y674916D01*
X1085513Y674906D01*
X1085536Y674878D01*
X1085580Y674842D01*
X1085632Y674814D01*
X1085692Y674794D01*
X1085760Y674782D01*
X1085836Y674778D01*
X1085439Y674645D01*
X1085436Y674578D01*
X1085036D01*
X1085034Y674645D01*
X1084636Y674778D01*
X1084712Y674782D01*
X1084780Y674794D01*
X1084840Y674814D01*
X1084892Y674842D01*
X1084936Y674878D01*
X1084960Y674906D01*
X1084955Y674916D01*
X1084925Y674955D01*
X1084891Y674990D01*
X1084853Y675020D01*
X1084809Y675045D01*
X1085022D01*
X1085032Y675102D01*
X1085036Y675178D01*
X1085436D01*
X1085440Y675102D01*
D02*
G37*
G36*
X1085836Y673378D02*
X1085760Y673374D01*
X1085692Y673362D01*
X1085632Y673342D01*
X1085580Y673314D01*
X1085536Y673278D01*
X1085511Y673247D01*
X1085532Y673211D01*
X1085567Y673166D01*
X1085606Y673125D01*
X1085652Y673088D01*
X1085702Y673056D01*
X1085441D01*
X1085440Y673054D01*
X1085436Y672978D01*
X1085036D01*
X1085032Y673054D01*
X1085032Y673056D01*
X1084770D01*
X1084821Y673088D01*
X1084866Y673125D01*
X1084906Y673166D01*
X1084940Y673211D01*
X1084961Y673247D01*
X1084936Y673278D01*
X1084892Y673314D01*
X1084840Y673342D01*
X1084780Y673362D01*
X1084712Y673374D01*
X1084636Y673378D01*
X1085236Y673778D01*
X1085836Y673378D01*
D02*
G37*
G36*
X825567Y659412D02*
X825656Y659336D01*
X825746Y659268D01*
X825837Y659209D01*
X825928Y659159D01*
X826020Y659119D01*
X826112Y659087D01*
X826205Y659064D01*
X826299Y659051D01*
X826393Y659046D01*
Y658434D01*
X826299Y658429D01*
X826205Y658416D01*
X826112Y658393D01*
X826020Y658362D01*
X825928Y658321D01*
X825837Y658271D01*
X825746Y658213D01*
X825656Y658145D01*
X825567Y658068D01*
X825478Y657982D01*
Y659498D01*
X825567Y659412D01*
D02*
G37*
G36*
X822780Y656158D02*
X822870Y656081D01*
X822960Y656013D01*
X823050Y655955D01*
X823141Y655905D01*
X823233Y655864D01*
X823326Y655833D01*
X823419Y655810D01*
X823512Y655797D01*
X823606Y655792D01*
Y655180D01*
X823512Y655175D01*
X823419Y655162D01*
X823326Y655139D01*
X823233Y655107D01*
X823141Y655067D01*
X823050Y655017D01*
X822960Y654958D01*
X822870Y654890D01*
X822780Y654814D01*
X822691Y654728D01*
Y656244D01*
X822780Y656158D01*
D02*
G37*
G36*
X465233Y608345D02*
X465201Y608391D01*
X465162Y608433D01*
X465116Y608469D01*
X465064Y608501D01*
X465006Y608528D01*
X464940Y608550D01*
X464868Y608567D01*
X464789Y608579D01*
X464704Y608586D01*
X464611Y608589D01*
Y609201D01*
X464704Y609204D01*
X464789Y609211D01*
X464868Y609223D01*
X464940Y609240D01*
X465006Y609262D01*
X465064Y609289D01*
X465116Y609320D01*
X465162Y609357D01*
X465201Y609398D01*
X465233Y609445D01*
Y608345D01*
D02*
G37*
G36*
X482980Y597129D02*
X483070Y597052D01*
X483160Y596984D01*
X483250Y596925D01*
X483341Y596876D01*
X483433Y596835D01*
X483526Y596804D01*
X483618Y596781D01*
X483712Y596768D01*
X483806Y596763D01*
Y596150D01*
X483712Y596146D01*
X483618Y596132D01*
X483526Y596110D01*
X483433Y596078D01*
X483341Y596037D01*
X483250Y595988D01*
X483160Y595929D01*
X483070Y595861D01*
X482980Y595785D01*
X482891Y595699D01*
Y597215D01*
X482980Y597129D01*
D02*
G37*
G36*
X454185Y572239D02*
X454108Y572149D01*
X454040Y572059D01*
X453982Y571969D01*
X453932Y571877D01*
X453891Y571786D01*
X453860Y571693D01*
X453837Y571600D01*
X453824Y571507D01*
X453819Y571413D01*
X453207D01*
X453202Y571507D01*
X453189Y571600D01*
X453166Y571693D01*
X453134Y571786D01*
X453094Y571877D01*
X453044Y571969D01*
X452985Y572059D01*
X452918Y572149D01*
X452841Y572239D01*
X452755Y572327D01*
X454271D01*
X454185Y572239D01*
D02*
G37*
G36*
X497804Y556914D02*
X497727Y556824D01*
X497659Y556734D01*
X497601Y556643D01*
X497551Y556552D01*
X497510Y556461D01*
X497479Y556368D01*
X497456Y556275D01*
X497442Y556182D01*
X497438Y556087D01*
X496826D01*
X496821Y556182D01*
X496807Y556275D01*
X496785Y556368D01*
X496753Y556461D01*
X496712Y556552D01*
X496663Y556643D01*
X496604Y556734D01*
X496536Y556824D01*
X496460Y556914D01*
X496374Y557002D01*
X497890D01*
X497804Y556914D01*
D02*
G37*
G36*
X543258Y469416D02*
X543271Y469323D01*
X543294Y469230D01*
X543326Y469137D01*
X543366Y469046D01*
X543416Y468955D01*
X543475Y468864D01*
X543542Y468774D01*
X543619Y468684D01*
X543705Y468596D01*
X542189D01*
X542275Y468684D01*
X542352Y468774D01*
X542419Y468864D01*
X542478Y468955D01*
X542528Y469046D01*
X542569Y469137D01*
X542600Y469230D01*
X542623Y469323D01*
X542636Y469416D01*
X542641Y469511D01*
X543253D01*
X543258Y469416D01*
D02*
G37*
G36*
X548074Y468728D02*
X548088Y468634D01*
X548111Y468541D01*
X548142Y468449D01*
X548183Y468357D01*
X548233Y468266D01*
X548291Y468175D01*
X548359Y468085D01*
X548436Y467996D01*
X548522Y467907D01*
X547006D01*
X547092Y467996D01*
X547168Y468085D01*
X547236Y468175D01*
X547295Y468266D01*
X547345Y468357D01*
X547385Y468449D01*
X547417Y468541D01*
X547439Y468634D01*
X547453Y468728D01*
X547458Y468822D01*
X548070D01*
X548074Y468728D01*
D02*
G37*
G36*
X553783Y466180D02*
X553873Y466103D01*
X553963Y466035D01*
X554053Y465977D01*
X554144Y465927D01*
X554236Y465886D01*
X554329Y465855D01*
X554422Y465832D01*
X554515Y465819D01*
X554609Y465814D01*
X554609Y465202D01*
X554515Y465197D01*
X554422Y465184D01*
X554329Y465161D01*
X554236Y465129D01*
X554144Y465089D01*
X554053Y465039D01*
X553963Y464980D01*
X553873Y464913D01*
X553783Y464836D01*
X553694Y464750D01*
X553694Y466266D01*
X553783Y466180D01*
D02*
G37*
G36*
X550282Y464913D02*
X550295Y464819D01*
X550318Y464726D01*
X550350Y464634D01*
X550390Y464542D01*
X550440Y464451D01*
X550499Y464360D01*
X550566Y464270D01*
X550643Y464181D01*
X550729Y464092D01*
X549213D01*
X549299Y464181D01*
X549376Y464270D01*
X549444Y464360D01*
X549502Y464451D01*
X549552Y464542D01*
X549593Y464634D01*
X549624Y464726D01*
X549647Y464819D01*
X549660Y464913D01*
X549665Y465007D01*
X550278D01*
X550282Y464913D01*
D02*
G37*
G36*
X545662Y464895D02*
X545676Y464802D01*
X545698Y464709D01*
X545730Y464617D01*
X545771Y464525D01*
X545820Y464434D01*
X545879Y464343D01*
X545947Y464253D01*
X546023Y464164D01*
X546109Y464075D01*
X544593D01*
X544679Y464164D01*
X544756Y464253D01*
X544824Y464343D01*
X544882Y464434D01*
X544932Y464525D01*
X544973Y464617D01*
X545004Y464709D01*
X545027Y464802D01*
X545041Y464895D01*
X545045Y464990D01*
X545657D01*
X545662Y464895D01*
D02*
G37*
G36*
X556500Y463062D02*
X556589Y462985D01*
X556679Y462917D01*
X556770Y462859D01*
X556861Y462809D01*
X556953Y462768D01*
X557045Y462737D01*
X557138Y462714D01*
X557232Y462701D01*
X557326Y462696D01*
Y462083D01*
X557232Y462079D01*
X557138Y462066D01*
X557045Y462043D01*
X556953Y462011D01*
X556861Y461971D01*
X556770Y461921D01*
X556679Y461862D01*
X556589Y461795D01*
X556500Y461718D01*
X556411Y461632D01*
Y463148D01*
X556500Y463062D01*
D02*
G37*
G36*
X514563Y432301D02*
X514577Y432207D01*
X514599Y432114D01*
X514631Y432022D01*
X514672Y431930D01*
X514721Y431839D01*
X514780Y431748D01*
X514848Y431658D01*
X514924Y431569D01*
X515010Y431480D01*
X513495D01*
X513580Y431569D01*
X513657Y431658D01*
X513725Y431748D01*
X513784Y431839D01*
X513833Y431930D01*
X513874Y432022D01*
X513905Y432114D01*
X513928Y432207D01*
X513942Y432301D01*
X513946Y432395D01*
X514559D01*
X514563Y432301D01*
D02*
G37*
G36*
X481754Y429799D02*
X481666Y429885D01*
X481576Y429962D01*
X481486Y430029D01*
X481395Y430088D01*
X481304Y430138D01*
X481213Y430178D01*
X481120Y430210D01*
X481027Y430233D01*
X480934Y430246D01*
X480839Y430251D01*
Y430863D01*
X480934Y430868D01*
X481027Y430881D01*
X481120Y430904D01*
X481213Y430935D01*
X481304Y430976D01*
X481395Y431026D01*
X481486Y431085D01*
X481576Y431152D01*
X481666Y431229D01*
X481754Y431315D01*
Y429799D01*
D02*
G37*
G36*
X511597Y427124D02*
X511508Y427209D01*
X511419Y427286D01*
X511329Y427354D01*
X511238Y427413D01*
X511147Y427462D01*
X511055Y427503D01*
X510963Y427535D01*
X510870Y427557D01*
X510776Y427571D01*
X510682Y427575D01*
Y428188D01*
X510776Y428192D01*
X510870Y428206D01*
X510963Y428228D01*
X511055Y428260D01*
X511147Y428301D01*
X511238Y428350D01*
X511329Y428409D01*
X511419Y428477D01*
X511508Y428553D01*
X511597Y428639D01*
X511597Y427124D01*
D02*
G37*
G36*
X481754Y424698D02*
X481666Y424784D01*
X481576Y424861D01*
X481486Y424929D01*
X481395Y424987D01*
X481304Y425037D01*
X481213Y425078D01*
X481120Y425109D01*
X481027Y425132D01*
X480934Y425145D01*
X480839Y425150D01*
Y425763D01*
X480934Y425767D01*
X481027Y425780D01*
X481120Y425803D01*
X481213Y425835D01*
X481304Y425875D01*
X481395Y425925D01*
X481486Y425984D01*
X481576Y426052D01*
X481666Y426128D01*
X481754Y426214D01*
Y424698D01*
D02*
G37*
G36*
X260905Y422631D02*
X260827Y422541D01*
X260758Y422450D01*
X260698Y422359D01*
X260648Y422267D01*
X260607Y422175D01*
X260575Y422083D01*
X260552Y421990D01*
X260538Y421898D01*
X260534Y421804D01*
X259934D01*
X259929Y421898D01*
X259915Y421990D01*
X259892Y422083D01*
X259860Y422175D01*
X259819Y422267D01*
X259769Y422359D01*
X259709Y422450D01*
X259641Y422541D01*
X259563Y422631D01*
X259476Y422721D01*
X260992D01*
X260905Y422631D01*
D02*
G37*
G36*
X256537D02*
X256459Y422541D01*
X256391Y422450D01*
X256331Y422359D01*
X256281Y422267D01*
X256239Y422175D01*
X256207Y422083D01*
X256184Y421990D01*
X256171Y421898D01*
X256166Y421804D01*
X255566D01*
X255561Y421898D01*
X255548Y421990D01*
X255525Y422083D01*
X255493Y422175D01*
X255452Y422267D01*
X255401Y422359D01*
X255342Y422450D01*
X255273Y422541D01*
X255195Y422631D01*
X255108Y422721D01*
X256624D01*
X256537Y422631D01*
D02*
G37*
G36*
X481754Y420171D02*
X481666Y420257D01*
X481576Y420333D01*
X481486Y420401D01*
X481395Y420460D01*
X481304Y420509D01*
X481213Y420550D01*
X481120Y420582D01*
X481027Y420604D01*
X480934Y420618D01*
X480839Y420622D01*
Y421235D01*
X480934Y421239D01*
X481027Y421253D01*
X481120Y421276D01*
X481213Y421307D01*
X481304Y421348D01*
X481395Y421397D01*
X481486Y421456D01*
X481576Y421524D01*
X481666Y421601D01*
X481754Y421687D01*
Y420171D01*
D02*
G37*
G36*
Y416228D02*
X481666Y416314D01*
X481576Y416391D01*
X481486Y416458D01*
X481395Y416517D01*
X481304Y416567D01*
X481213Y416608D01*
X481120Y416639D01*
X481027Y416662D01*
X480934Y416675D01*
X480839Y416680D01*
Y417292D01*
X480934Y417297D01*
X481027Y417310D01*
X481120Y417333D01*
X481213Y417365D01*
X481304Y417405D01*
X481395Y417455D01*
X481486Y417514D01*
X481576Y417581D01*
X481666Y417658D01*
X481754Y417744D01*
Y416228D01*
D02*
G37*
G36*
Y410447D02*
X481666Y410533D01*
X481576Y410610D01*
X481486Y410677D01*
X481395Y410736D01*
X481304Y410786D01*
X481213Y410826D01*
X481120Y410858D01*
X481027Y410881D01*
X480934Y410894D01*
X480839Y410899D01*
Y411511D01*
X480934Y411516D01*
X481027Y411529D01*
X481120Y411552D01*
X481213Y411583D01*
X481304Y411624D01*
X481395Y411674D01*
X481486Y411732D01*
X481576Y411800D01*
X481666Y411877D01*
X481754Y411963D01*
Y410447D01*
D02*
G37*
G36*
Y405920D02*
X481666Y406005D01*
X481576Y406082D01*
X481486Y406150D01*
X481395Y406209D01*
X481304Y406258D01*
X481213Y406299D01*
X481120Y406330D01*
X481027Y406353D01*
X480934Y406367D01*
X480839Y406371D01*
Y406984D01*
X480934Y406988D01*
X481027Y407002D01*
X481120Y407024D01*
X481213Y407056D01*
X481304Y407096D01*
X481395Y407146D01*
X481486Y407205D01*
X481576Y407273D01*
X481666Y407349D01*
X481754Y407435D01*
Y405920D01*
D02*
G37*
G36*
X481606Y397055D02*
X481570Y397104D01*
X481528Y397149D01*
X481480Y397188D01*
X481425Y397222D01*
X481363Y397251D01*
X481295Y397274D01*
X481221Y397292D01*
X481140Y397305D01*
X481052Y397313D01*
X480958Y397316D01*
Y397929D01*
X481052Y397931D01*
X481140Y397939D01*
X481221Y397952D01*
X481295Y397970D01*
X481363Y397994D01*
X481425Y398023D01*
X481480Y398057D01*
X481528Y398096D01*
X481570Y398140D01*
X481606Y398190D01*
Y397055D01*
D02*
G37*
G36*
X483200Y392229D02*
X483123Y392139D01*
X483055Y392049D01*
X482996Y391959D01*
X482947Y391867D01*
X482906Y391776D01*
X482874Y391683D01*
X482852Y391590D01*
X482838Y391497D01*
X482834Y391403D01*
X482221D01*
X482217Y391497D01*
X482203Y391590D01*
X482181Y391683D01*
X482149Y391776D01*
X482108Y391867D01*
X482059Y391959D01*
X482000Y392049D01*
X481932Y392139D01*
X481855Y392229D01*
X481770Y392318D01*
X483285D01*
X483200Y392229D01*
D02*
G37*
G36*
X547291Y371484D02*
X547305Y371390D01*
X547327Y371297D01*
X547359Y371205D01*
X547400Y371113D01*
X547449Y371022D01*
X547508Y370931D01*
X547576Y370841D01*
X547652Y370752D01*
X547738Y370663D01*
X546222D01*
X546308Y370752D01*
X546385Y370841D01*
X546453Y370931D01*
X546512Y371022D01*
X546561Y371113D01*
X546602Y371205D01*
X546633Y371297D01*
X546656Y371390D01*
X546669Y371484D01*
X546674Y371578D01*
X547287D01*
X547291Y371484D01*
D02*
G37*
G36*
X543534Y369756D02*
X543542Y369638D01*
X543558Y369526D01*
X543581Y369421D01*
X543610Y369321D01*
X543646Y369228D01*
X543689Y369140D01*
X543739Y369058D01*
X543796Y368982D01*
X543859Y368913D01*
X543426Y368480D01*
X543356Y368543D01*
X543280Y368600D01*
X543199Y368649D01*
X543111Y368692D01*
X543017Y368728D01*
X542918Y368758D01*
X542812Y368780D01*
X542701Y368796D01*
X542583Y368805D01*
X542460Y368807D01*
X543531Y369879D01*
X543534Y369756D01*
D02*
G37*
G36*
X538593Y369028D02*
X538517Y368938D01*
X538449Y368848D01*
X538390Y368758D01*
X538340Y368667D01*
X538300Y368575D01*
X538268Y368482D01*
X538246Y368389D01*
X538232Y368296D01*
X538228Y368202D01*
X537615D01*
X537610Y368296D01*
X537597Y368389D01*
X537574Y368482D01*
X537543Y368575D01*
X537502Y368667D01*
X537452Y368758D01*
X537394Y368848D01*
X537326Y368938D01*
X537249Y369028D01*
X537163Y369117D01*
X538679D01*
X538593Y369028D01*
D02*
G37*
G36*
X534066D02*
X533989Y368938D01*
X533921Y368848D01*
X533862Y368758D01*
X533813Y368667D01*
X533772Y368575D01*
X533741Y368482D01*
X533718Y368389D01*
X533705Y368296D01*
X533700Y368202D01*
X533087D01*
X533083Y368296D01*
X533069Y368389D01*
X533047Y368482D01*
X533015Y368575D01*
X532974Y368667D01*
X532925Y368758D01*
X532866Y368848D01*
X532798Y368938D01*
X532722Y369028D01*
X532636Y369117D01*
X534152D01*
X534066Y369028D01*
D02*
G37*
G36*
X529538D02*
X529461Y368938D01*
X529394Y368848D01*
X529335Y368758D01*
X529285Y368667D01*
X529245Y368575D01*
X529213Y368482D01*
X529190Y368389D01*
X529177Y368296D01*
X529172Y368202D01*
X528560D01*
X528555Y368296D01*
X528542Y368389D01*
X528519Y368482D01*
X528488Y368575D01*
X528447Y368667D01*
X528397Y368758D01*
X528339Y368848D01*
X528271Y368938D01*
X528194Y369028D01*
X528108Y369117D01*
X529624D01*
X529538Y369028D01*
D02*
G37*
G36*
X524967D02*
X524891Y368938D01*
X524823Y368848D01*
X524764Y368758D01*
X524714Y368667D01*
X524674Y368575D01*
X524642Y368482D01*
X524620Y368389D01*
X524606Y368296D01*
X524602Y368202D01*
X523989D01*
X523984Y368296D01*
X523971Y368389D01*
X523948Y368482D01*
X523917Y368575D01*
X523876Y368667D01*
X523826Y368758D01*
X523768Y368848D01*
X523700Y368938D01*
X523623Y369028D01*
X523537Y369117D01*
X525053D01*
X524967Y369028D01*
D02*
G37*
G36*
X520282D02*
X520205Y368938D01*
X520138Y368848D01*
X520079Y368758D01*
X520029Y368667D01*
X519989Y368575D01*
X519957Y368482D01*
X519935Y368389D01*
X519921Y368296D01*
X519916Y368202D01*
X519304D01*
X519300Y368296D01*
X519286Y368389D01*
X519263Y368482D01*
X519232Y368575D01*
X519191Y368667D01*
X519141Y368758D01*
X519083Y368848D01*
X519015Y368938D01*
X518938Y369028D01*
X518852Y369117D01*
X520368D01*
X520282Y369028D01*
D02*
G37*
G36*
X515475D02*
X515398Y368938D01*
X515331Y368848D01*
X515272Y368758D01*
X515222Y368667D01*
X515182Y368575D01*
X515150Y368482D01*
X515128Y368389D01*
X515114Y368296D01*
X515109Y368202D01*
X514497D01*
X514492Y368296D01*
X514479Y368389D01*
X514456Y368482D01*
X514425Y368575D01*
X514384Y368667D01*
X514334Y368758D01*
X514276Y368848D01*
X514208Y368938D01*
X514131Y369028D01*
X514045Y369117D01*
X515561D01*
X515475Y369028D01*
D02*
G37*
G36*
X510904D02*
X510828Y368938D01*
X510760Y368848D01*
X510701Y368758D01*
X510651Y368667D01*
X510611Y368575D01*
X510579Y368482D01*
X510557Y368389D01*
X510543Y368296D01*
X510538Y368202D01*
X509926D01*
X509922Y368296D01*
X509908Y368389D01*
X509885Y368482D01*
X509854Y368575D01*
X509813Y368667D01*
X509763Y368758D01*
X509705Y368848D01*
X509637Y368938D01*
X509560Y369028D01*
X509474Y369117D01*
X510990D01*
X510904Y369028D01*
D02*
G37*
G36*
X506377D02*
X506300Y368938D01*
X506232Y368848D01*
X506174Y368758D01*
X506124Y368667D01*
X506083Y368575D01*
X506052Y368482D01*
X506029Y368389D01*
X506015Y368296D01*
X506011Y368202D01*
X505399D01*
X505394Y368296D01*
X505380Y368389D01*
X505358Y368482D01*
X505326Y368575D01*
X505286Y368667D01*
X505236Y368758D01*
X505177Y368848D01*
X505109Y368938D01*
X505033Y369028D01*
X504947Y369117D01*
X506463D01*
X506377Y369028D01*
D02*
G37*
G36*
X341015Y367944D02*
X340925Y368031D01*
X340834Y368109D01*
X340744Y368177D01*
X340653Y368237D01*
X340561Y368287D01*
X340469Y368328D01*
X340377Y368360D01*
X340284Y368383D01*
X340191Y368397D01*
X340098Y368402D01*
Y369002D01*
X340191Y369006D01*
X340284Y369020D01*
X340377Y369043D01*
X340469Y369075D01*
X340561Y369116D01*
X340653Y369166D01*
X340744Y369226D01*
X340834Y369295D01*
X340925Y369373D01*
X341015Y369460D01*
Y367944D01*
D02*
G37*
G36*
X343727Y365042D02*
X343637Y365129D01*
X343547Y365207D01*
X343456Y365275D01*
X343365Y365335D01*
X343274Y365385D01*
X343182Y365426D01*
X343090Y365458D01*
X342997Y365481D01*
X342904Y365495D01*
X342811Y365500D01*
Y366100D01*
X342904Y366104D01*
X342997Y366118D01*
X343090Y366141D01*
X343182Y366173D01*
X343274Y366214D01*
X343365Y366265D01*
X343456Y366324D01*
X343547Y366393D01*
X343637Y366471D01*
X343727Y366558D01*
Y365042D01*
D02*
G37*
G36*
X294678Y358104D02*
X294596Y358193D01*
X294512Y358272D01*
X294426Y358342D01*
X294339Y358403D01*
X294251Y358455D01*
X294161Y358497D01*
X294070Y358529D01*
X293978Y358553D01*
X293884Y358567D01*
X293789Y358572D01*
X293824Y359184D01*
X293917Y359188D01*
X294010Y359201D01*
X294103Y359223D01*
X294197Y359253D01*
X294290Y359292D01*
X294384Y359340D01*
X294478Y359396D01*
X294573Y359461D01*
X294667Y359535D01*
X294762Y359617D01*
X294678Y358104D01*
D02*
G37*
G36*
X378023Y357427D02*
X378027Y357334D01*
X378040Y357240D01*
X378062Y357147D01*
X378093Y357054D01*
X378132Y356961D01*
X378181Y356868D01*
X378238Y356775D01*
X378304Y356682D01*
X378378Y356589D01*
X378462Y356496D01*
X376947Y356554D01*
X377035Y356638D01*
X377114Y356724D01*
X377183Y356811D01*
X377243Y356899D01*
X377294Y356988D01*
X377336Y357079D01*
X377368Y357170D01*
X377392Y357263D01*
X377405Y357357D01*
X377410Y357452D01*
X378023Y357427D01*
D02*
G37*
G36*
X290960Y355943D02*
X290855Y356018D01*
X290651Y356146D01*
X290552Y356198D01*
X290454Y356242D01*
X290357Y356277D01*
X290262Y356305D01*
X290169Y356325D01*
X290077Y356337D01*
X289986Y356341D01*
X289892Y356954D01*
X289989Y356959D01*
X290083Y356973D01*
X290175Y356998D01*
X290263Y357032D01*
X290349Y357076D01*
X290433Y357130D01*
X290513Y357193D01*
X290591Y357266D01*
X290666Y357349D01*
X290739Y357442D01*
X290960Y355943D01*
D02*
G37*
G36*
X348472Y357134D02*
X348564Y357058D01*
X348656Y356992D01*
X348748Y356934D01*
X348840Y356885D01*
X348933Y356845D01*
X349026Y356814D01*
X349119Y356792D01*
X349213Y356779D01*
X349306Y356774D01*
X349322Y356162D01*
X349228Y356157D01*
X349134Y356143D01*
X349041Y356120D01*
X348949Y356088D01*
X348859Y356047D01*
X348769Y355996D01*
X348680Y355937D01*
X348592Y355868D01*
X348505Y355790D01*
X348419Y355703D01*
X348380Y357218D01*
X348472Y357134D01*
D02*
G37*
G36*
X353991Y357071D02*
X354080Y356994D01*
X354170Y356927D01*
X354261Y356868D01*
X354352Y356818D01*
X354444Y356778D01*
X354536Y356746D01*
X354629Y356723D01*
X354723Y356710D01*
X354817Y356705D01*
Y356093D01*
X354723Y356088D01*
X354629Y356075D01*
X354536Y356052D01*
X354444Y356021D01*
X354352Y355980D01*
X354261Y355930D01*
X354170Y355872D01*
X354080Y355804D01*
X353991Y355727D01*
X353902Y355641D01*
Y357157D01*
X353991Y357071D01*
D02*
G37*
G36*
X296001Y353741D02*
X295962Y353705D01*
X295928Y353662D01*
X295898Y353612D01*
X295873Y353555D01*
X295852Y353492D01*
X295836Y353422D01*
X295825Y353345D01*
X295818Y353261D01*
X295816Y353170D01*
X295203D01*
X295201Y353261D01*
X295194Y353345D01*
X295183Y353422D01*
X295167Y353492D01*
X295146Y353555D01*
X295121Y353612D01*
X295091Y353662D01*
X295057Y353705D01*
X295018Y353741D01*
X294974Y353771D01*
X296045D01*
X296001Y353741D01*
D02*
G37*
G36*
X274719Y350786D02*
X274630Y350872D01*
X274541Y350948D01*
X274451Y351016D01*
X274360Y351075D01*
X274269Y351125D01*
X274177Y351165D01*
X274085Y351197D01*
X273992Y351219D01*
X273898Y351233D01*
X273804Y351237D01*
Y351850D01*
X273898Y351854D01*
X273992Y351868D01*
X274085Y351891D01*
X274177Y351922D01*
X274269Y351963D01*
X274360Y352012D01*
X274451Y352071D01*
X274541Y352139D01*
X274630Y352216D01*
X274719Y352302D01*
Y350786D01*
D02*
G37*
G36*
X353128Y351905D02*
X353217Y351828D01*
X353307Y351760D01*
X353397Y351701D01*
X353488Y351652D01*
X353580Y351611D01*
X353672Y351579D01*
X353765Y351557D01*
X353859Y351543D01*
X353953Y351538D01*
X353951Y350926D01*
X353857Y350922D01*
X353763Y350908D01*
X353670Y350886D01*
X353578Y350854D01*
X353486Y350813D01*
X353394Y350764D01*
X353304Y350705D01*
X353213Y350638D01*
X353123Y350561D01*
X353034Y350476D01*
X353040Y351991D01*
X353128Y351905D01*
D02*
G37*
G36*
X354102Y344903D02*
X354183Y344822D01*
X354266Y344751D01*
X354350Y344689D01*
X354437Y344637D01*
X354525Y344594D01*
X354615Y344561D01*
X354708Y344537D01*
X354802Y344523D01*
X354898Y344518D01*
X354841Y343905D01*
X354749Y343901D01*
X354656Y343888D01*
X354562Y343867D01*
X354468Y343838D01*
X354374Y343800D01*
X354278Y343754D01*
X354182Y343699D01*
X354085Y343636D01*
X353987Y343564D01*
X353889Y343484D01*
X354023Y344994D01*
X354102Y344903D01*
D02*
G37*
G36*
X374445Y343244D02*
X374534Y343167D01*
X374624Y343099D01*
X374715Y343041D01*
X374806Y342991D01*
X374898Y342950D01*
X374990Y342919D01*
X375083Y342896D01*
X375177Y342883D01*
X375271Y342878D01*
Y342266D01*
X375177Y342261D01*
X375083Y342248D01*
X374990Y342225D01*
X374898Y342193D01*
X374806Y342153D01*
X374715Y342103D01*
X374624Y342044D01*
X374534Y341977D01*
X374445Y341900D01*
X374356Y341814D01*
Y343330D01*
X374445Y343244D01*
D02*
G37*
G36*
X355256Y339463D02*
X355346Y339386D01*
X355436Y339318D01*
X355526Y339260D01*
X355617Y339210D01*
X355709Y339169D01*
X355802Y339138D01*
X355894Y339115D01*
X355988Y339102D01*
X356082Y339097D01*
Y338485D01*
X355988Y338480D01*
X355894Y338467D01*
X355802Y338444D01*
X355709Y338412D01*
X355617Y338372D01*
X355526Y338322D01*
X355436Y338263D01*
X355346Y338196D01*
X355256Y338119D01*
X355167Y338033D01*
Y339549D01*
X355256Y339463D01*
D02*
G37*
G36*
X378641Y335366D02*
X378690Y335316D01*
X378745Y335271D01*
X378805Y335233D01*
X378872Y335200D01*
X378946Y335173D01*
X379025Y335153D01*
X379110Y335138D01*
X379201Y335129D01*
X379298Y335126D01*
Y334513D01*
X379201Y334510D01*
X379110Y334502D01*
X379025Y334487D01*
X378946Y334466D01*
X378872Y334439D01*
X378805Y334406D01*
X378745Y334368D01*
X378690Y334323D01*
X378641Y334273D01*
X378598Y334216D01*
Y335423D01*
X378641Y335366D01*
D02*
G37*
G36*
X290121Y334081D02*
X290032Y334167D01*
X289942Y334243D01*
X289852Y334311D01*
X289762Y334370D01*
X289670Y334419D01*
X289579Y334460D01*
X289486Y334492D01*
X289393Y334514D01*
X289300Y334528D01*
X289206Y334532D01*
Y335145D01*
X289300Y335149D01*
X289393Y335163D01*
X289486Y335186D01*
X289579Y335217D01*
X289670Y335258D01*
X289762Y335307D01*
X289852Y335366D01*
X289942Y335434D01*
X290032Y335511D01*
X290121Y335596D01*
Y334081D01*
D02*
G37*
G36*
Y330451D02*
X290032Y330537D01*
X289942Y330613D01*
X289852Y330681D01*
X289762Y330740D01*
X289670Y330789D01*
X289579Y330830D01*
X289486Y330862D01*
X289393Y330884D01*
X289300Y330898D01*
X289206Y330902D01*
Y331515D01*
X289300Y331519D01*
X289393Y331533D01*
X289486Y331556D01*
X289579Y331587D01*
X289670Y331628D01*
X289762Y331678D01*
X289852Y331736D01*
X289942Y331804D01*
X290032Y331881D01*
X290121Y331966D01*
Y330451D01*
D02*
G37*
G36*
X290868Y326113D02*
X290791Y326023D01*
X290723Y325933D01*
X290665Y325843D01*
X290615Y325752D01*
X290574Y325660D01*
X290543Y325567D01*
X290520Y325474D01*
X290507Y325381D01*
X290502Y325287D01*
X289889D01*
X289885Y325381D01*
X289871Y325474D01*
X289849Y325567D01*
X289817Y325660D01*
X289776Y325752D01*
X289727Y325843D01*
X289668Y325933D01*
X289600Y326023D01*
X289524Y326113D01*
X289438Y326202D01*
X290954D01*
X290868Y326113D01*
D02*
G37*
G36*
X449419Y307266D02*
X449509Y307189D01*
X449599Y307121D01*
X449689Y307063D01*
X449781Y307013D01*
X449872Y306972D01*
X449965Y306941D01*
X450058Y306918D01*
X450151Y306905D01*
X450246Y306900D01*
Y306287D01*
X450151Y306283D01*
X450058Y306269D01*
X449965Y306247D01*
X449872Y306215D01*
X449781Y306174D01*
X449689Y306125D01*
X449599Y306066D01*
X449509Y305998D01*
X449419Y305922D01*
X449331Y305836D01*
Y307352D01*
X449419Y307266D01*
D02*
G37*
G36*
X457288Y293746D02*
X457296Y293658D01*
X457309Y293577D01*
X457328Y293502D01*
X457351Y293433D01*
X457381Y293371D01*
X457415Y293315D01*
X457455Y293266D01*
X457501Y293223D01*
X457551Y293186D01*
X456406D01*
X456457Y293223D01*
X456502Y293266D01*
X456542Y293315D01*
X456577Y293371D01*
X456606Y293433D01*
X456630Y293502D01*
X456648Y293577D01*
X456662Y293658D01*
X456670Y293746D01*
X456672Y293841D01*
X457285D01*
X457288Y293746D01*
D02*
G37*
G36*
X1153650Y243091D02*
X1153664Y242997D01*
X1153687Y242904D01*
X1153718Y242812D01*
X1153760Y242721D01*
X1153810Y242630D01*
X1153869Y242541D01*
X1153937Y242452D01*
X1154015Y242364D01*
X1154101Y242276D01*
X1153333Y241493D01*
X1154101Y240709D01*
X1154015Y240621D01*
X1153937Y240533D01*
X1153869Y240444D01*
X1153810Y240355D01*
X1153760Y240264D01*
X1153718Y240173D01*
X1153687Y240081D01*
X1153664Y239988D01*
X1153650Y239895D01*
X1153646Y239800D01*
X1153033Y239809D01*
X1153029Y239903D01*
X1153015Y239996D01*
X1152993Y240089D01*
X1152962Y240182D01*
X1152921Y240274D01*
X1152872Y240366D01*
X1152814Y240458D01*
X1152747Y240549D01*
X1152671Y240640D01*
X1152586Y240730D01*
X1153333Y241493D01*
X1152586Y242255D01*
X1152671Y242345D01*
X1152747Y242436D01*
X1152814Y242527D01*
X1152872Y242619D01*
X1152921Y242711D01*
X1152962Y242803D01*
X1152993Y242896D01*
X1153015Y242989D01*
X1153029Y243082D01*
X1153033Y243176D01*
X1153646Y243185D01*
X1153650Y243091D01*
D02*
G37*
G36*
X37663Y240338D02*
X37752Y240262D01*
X37842Y240194D01*
X37933Y240135D01*
X38024Y240085D01*
X38116Y240045D01*
X38208Y240013D01*
X38301Y239990D01*
X38395Y239977D01*
X38489Y239972D01*
Y239360D01*
X38395Y239355D01*
X38301Y239342D01*
X38208Y239319D01*
X38116Y239288D01*
X38024Y239247D01*
X37933Y239197D01*
X37842Y239139D01*
X37752Y239071D01*
X37663Y238994D01*
X37574Y238908D01*
Y240424D01*
X37663Y240338D01*
D02*
G37*
G36*
X21695Y239997D02*
X21784Y239920D01*
X21874Y239853D01*
X21965Y239794D01*
X22056Y239744D01*
X22148Y239704D01*
X22240Y239672D01*
X22333Y239649D01*
X22427Y239636D01*
X22521Y239631D01*
Y239019D01*
X22427Y239014D01*
X22333Y239001D01*
X22240Y238978D01*
X22148Y238947D01*
X22056Y238906D01*
X21965Y238856D01*
X21874Y238798D01*
X21784Y238730D01*
X21695Y238653D01*
X21606Y238567D01*
Y240083D01*
X21695Y239997D01*
D02*
G37*
G36*
X1159410Y236674D02*
X1159424Y236580D01*
X1159448Y236488D01*
X1159481Y236398D01*
X1159524Y236309D01*
X1159576Y236222D01*
X1159637Y236137D01*
X1159708Y236053D01*
X1159789Y235971D01*
X1159879Y235891D01*
X1159065Y235061D01*
X1159879Y234230D01*
X1159789Y234150D01*
X1159708Y234068D01*
X1159637Y233984D01*
X1159576Y233899D01*
X1159524Y233812D01*
X1159481Y233723D01*
X1159448Y233633D01*
X1159424Y233541D01*
X1159410Y233447D01*
X1159405Y233351D01*
X1158793Y233401D01*
X1158788Y233494D01*
X1158776Y233587D01*
X1158754Y233680D01*
X1158725Y233774D01*
X1158686Y233869D01*
X1158640Y233964D01*
X1158584Y234059D01*
X1158449Y234252D01*
X1158368Y234349D01*
X1159065Y235061D01*
X1158368Y235771D01*
X1158449Y235869D01*
X1158584Y236062D01*
X1158640Y236157D01*
X1158686Y236252D01*
X1158725Y236347D01*
X1158754Y236441D01*
X1158776Y236534D01*
X1158788Y236627D01*
X1158793Y236719D01*
X1159405Y236770D01*
X1159410Y236674D01*
D02*
G37*
G36*
X1005224Y228883D02*
X1005238Y228789D01*
X1005260Y228696D01*
X1005292Y228604D01*
X1005333Y228512D01*
X1005382Y228421D01*
X1005441Y228330D01*
X1005509Y228240D01*
X1005585Y228151D01*
X1005671Y228062D01*
X1004156D01*
X1004241Y228151D01*
X1004318Y228240D01*
X1004386Y228330D01*
X1004445Y228421D01*
X1004494Y228512D01*
X1004535Y228604D01*
X1004566Y228696D01*
X1004589Y228789D01*
X1004603Y228883D01*
X1004607Y228977D01*
X1005220D01*
X1005224Y228883D01*
D02*
G37*
G36*
X1000224Y228785D02*
X1000238Y228692D01*
X1000260Y228599D01*
X1000292Y228506D01*
X1000333Y228415D01*
X1000382Y228323D01*
X1000441Y228233D01*
X1000509Y228143D01*
X1000585Y228053D01*
X1000671Y227964D01*
X999156D01*
X999241Y228053D01*
X999318Y228143D01*
X999386Y228233D01*
X999445Y228323D01*
X999494Y228415D01*
X999535Y228506D01*
X999566Y228599D01*
X999589Y228692D01*
X999603Y228785D01*
X999607Y228879D01*
X1000220D01*
X1000224Y228785D01*
D02*
G37*
G36*
X1139554Y217051D02*
X1139649Y216978D01*
X1139744Y216913D01*
X1139838Y216857D01*
X1139932Y216809D01*
X1140026Y216771D01*
X1140120Y216740D01*
X1140213Y216719D01*
X1140306Y216706D01*
X1140399Y216702D01*
X1140437Y216089D01*
X1140342Y216084D01*
X1140248Y216070D01*
X1140156Y216047D01*
X1140065Y216014D01*
X1139975Y215972D01*
X1139887Y215920D01*
X1139801Y215859D01*
X1139716Y215789D01*
X1139632Y215709D01*
X1139550Y215620D01*
X1138732Y216422D01*
X1137915Y215620D01*
X1137833Y215709D01*
X1137749Y215789D01*
X1137664Y215859D01*
X1137577Y215920D01*
X1137489Y215972D01*
X1137400Y216014D01*
X1137309Y216047D01*
X1137216Y216070D01*
X1137123Y216084D01*
X1137027Y216089D01*
X1137066Y216702D01*
X1137158Y216706D01*
X1137252Y216719D01*
X1137345Y216740D01*
X1137438Y216771D01*
X1137532Y216809D01*
X1137627Y216857D01*
X1137721Y216913D01*
X1137816Y216978D01*
X1137911Y217051D01*
X1138006Y217133D01*
X1138732Y216422D01*
X1139458Y217133D01*
X1139554Y217051D01*
D02*
G37*
G36*
X1142070Y213833D02*
X1142270Y213702D01*
X1142368Y213649D01*
X1142465Y213604D01*
X1142560Y213567D01*
X1142655Y213539D01*
X1142749Y213518D01*
X1142841Y213506D01*
X1142932Y213502D01*
X1143009Y212889D01*
X1142913Y212885D01*
X1142819Y212870D01*
X1142727Y212846D01*
X1142637Y212812D01*
X1142550Y212769D01*
X1142465Y212716D01*
X1142383Y212653D01*
X1142303Y212580D01*
X1142225Y212498D01*
X1142150Y212406D01*
X1141291Y213247D01*
X1141968Y213911D01*
X1142070Y213833D01*
D02*
G37*
G36*
X1141291Y213247D02*
X1140433Y212406D01*
X1140358Y212498D01*
X1140280Y212580D01*
X1140200Y212653D01*
X1140117Y212716D01*
X1140032Y212769D01*
X1139945Y212812D01*
X1139856Y212846D01*
X1139764Y212870D01*
X1139670Y212885D01*
X1139574Y212889D01*
X1139651Y213502D01*
X1139742Y213506D01*
X1139834Y213518D01*
X1139928Y213539D01*
X1140022Y213567D01*
X1140118Y213604D01*
X1140215Y213649D01*
X1140313Y213702D01*
X1140513Y213833D01*
X1140614Y213911D01*
X1141291Y213247D01*
D02*
G37*
G36*
X1056413Y212303D02*
X1056494Y212222D01*
X1056578Y212151D01*
X1056663Y212089D01*
X1056750Y212037D01*
X1056838Y211994D01*
X1056929Y211961D01*
X1057021Y211937D01*
X1057115Y211923D01*
X1057211Y211918D01*
X1057159Y211306D01*
X1057067Y211302D01*
X1056974Y211289D01*
X1056880Y211268D01*
X1056786Y211238D01*
X1056692Y211200D01*
X1056597Y211153D01*
X1056501Y211098D01*
X1056404Y211035D01*
X1056308Y210963D01*
X1056210Y210882D01*
X1056333Y212393D01*
X1056413Y212303D01*
D02*
G37*
G36*
X1058866Y209085D02*
X1058955Y209008D01*
X1059045Y208940D01*
X1059136Y208881D01*
X1059227Y208832D01*
X1059319Y208791D01*
X1059411Y208759D01*
X1059504Y208737D01*
X1059597Y208723D01*
X1059692Y208719D01*
X1059692Y208106D01*
X1059597Y208102D01*
X1059504Y208088D01*
X1059411Y208066D01*
X1059319Y208034D01*
X1059227Y207993D01*
X1059136Y207944D01*
X1059045Y207885D01*
X1058955Y207817D01*
X1058866Y207740D01*
X1058777Y207655D01*
X1058777Y209171D01*
X1058866Y209085D01*
D02*
G37*
G36*
X405171Y181739D02*
X405184Y181646D01*
X405207Y181553D01*
X405239Y181460D01*
X405279Y181368D01*
X405329Y181277D01*
X405388Y181187D01*
X405455Y181096D01*
X405532Y181007D01*
X405618Y180918D01*
X404102D01*
X404188Y181007D01*
X404265Y181096D01*
X404332Y181187D01*
X404391Y181277D01*
X404441Y181368D01*
X404482Y181460D01*
X404513Y181553D01*
X404536Y181646D01*
X404549Y181739D01*
X404554Y181833D01*
X405166D01*
X405171Y181739D01*
D02*
G37*
G36*
X452751Y178625D02*
X452765Y178532D01*
X452787Y178439D01*
X452819Y178347D01*
X452860Y178255D01*
X452910Y178164D01*
X452968Y178073D01*
X453036Y177983D01*
X453113Y177893D01*
X453198Y177805D01*
X451683D01*
X451769Y177893D01*
X451845Y177983D01*
X451913Y178073D01*
X451972Y178164D01*
X452022Y178255D01*
X452062Y178347D01*
X452094Y178439D01*
X452116Y178532D01*
X452130Y178625D01*
X452134Y178720D01*
X452747D01*
X452751Y178625D01*
D02*
G37*
G36*
X251848Y176883D02*
X251759Y176969D01*
X251670Y177045D01*
X251579Y177113D01*
X251489Y177172D01*
X251398Y177221D01*
X251306Y177262D01*
X251214Y177294D01*
X251120Y177316D01*
X251027Y177330D01*
X250933Y177334D01*
Y177947D01*
X251027Y177951D01*
X251120Y177965D01*
X251214Y177988D01*
X251306Y178019D01*
X251398Y178060D01*
X251489Y178109D01*
X251579Y178168D01*
X251670Y178236D01*
X251759Y178313D01*
X251848Y178399D01*
Y176883D01*
D02*
G37*
G36*
X503977Y178082D02*
X504189Y177962D01*
X504291Y177913D01*
X504391Y177871D01*
X504489Y177837D01*
X504585Y177811D01*
X504678Y177792D01*
X504769Y177781D01*
X504858Y177777D01*
X504986Y177165D01*
X504889Y177160D01*
X504795Y177145D01*
X504704Y177120D01*
X504617Y177085D01*
X504533Y177040D01*
X504452Y176986D01*
X504375Y176921D01*
X504302Y176846D01*
X504232Y176762D01*
X504165Y176667D01*
X503867Y178153D01*
X503977Y178082D01*
D02*
G37*
G36*
X200900Y176606D02*
X200811Y176691D01*
X200722Y176768D01*
X200632Y176836D01*
X200541Y176895D01*
X200450Y176944D01*
X200358Y176985D01*
X200266Y177017D01*
X200173Y177039D01*
X200079Y177053D01*
X199985Y177057D01*
Y177670D01*
X200079Y177674D01*
X200173Y177688D01*
X200266Y177710D01*
X200358Y177742D01*
X200450Y177783D01*
X200541Y177832D01*
X200632Y177891D01*
X200722Y177959D01*
X200811Y178036D01*
X200900Y178121D01*
Y176606D01*
D02*
G37*
G36*
X150952Y176604D02*
X150863Y176690D01*
X150774Y176766D01*
X150684Y176834D01*
X150593Y176893D01*
X150502Y176943D01*
X150410Y176983D01*
X150318Y177015D01*
X150225Y177037D01*
X150131Y177051D01*
X150037Y177055D01*
Y177668D01*
X150131Y177673D01*
X150225Y177686D01*
X150318Y177709D01*
X150410Y177740D01*
X150502Y177781D01*
X150593Y177831D01*
X150684Y177889D01*
X150774Y177957D01*
X150863Y178034D01*
X150952Y178120D01*
Y176604D01*
D02*
G37*
G36*
X301840Y176356D02*
X301752Y176442D01*
X301662Y176519D01*
X301572Y176586D01*
X301482Y176645D01*
X301391Y176695D01*
X301299Y176735D01*
X301206Y176767D01*
X301113Y176790D01*
X301020Y176803D01*
X300926Y176808D01*
Y177420D01*
X301020Y177425D01*
X301113Y177438D01*
X301206Y177461D01*
X301299Y177492D01*
X301391Y177533D01*
X301482Y177583D01*
X301572Y177641D01*
X301662Y177709D01*
X301752Y177786D01*
X301840Y177872D01*
Y176356D01*
D02*
G37*
G36*
X353480Y177704D02*
X353570Y177627D01*
X353660Y177559D01*
X353750Y177500D01*
X353841Y177451D01*
X353933Y177410D01*
X354026Y177378D01*
X354118Y177356D01*
X354212Y177342D01*
X354306Y177338D01*
Y176725D01*
X354212Y176721D01*
X354118Y176707D01*
X354026Y176685D01*
X353933Y176653D01*
X353841Y176612D01*
X353750Y176563D01*
X353660Y176504D01*
X353570Y176436D01*
X353480Y176359D01*
X353391Y176274D01*
Y177789D01*
X353480Y177704D01*
D02*
G37*
G36*
X188225Y169724D02*
X188136Y169809D01*
X188047Y169886D01*
X187956Y169954D01*
X187866Y170013D01*
X187775Y170062D01*
X187683Y170103D01*
X187591Y170135D01*
X187497Y170157D01*
X187404Y170171D01*
X187310Y170175D01*
Y170788D01*
X187404Y170792D01*
X187497Y170806D01*
X187591Y170828D01*
X187683Y170860D01*
X187775Y170901D01*
X187866Y170950D01*
X187956Y171009D01*
X188047Y171077D01*
X188136Y171154D01*
X188225Y171239D01*
Y169724D01*
D02*
G37*
G36*
X286482Y169677D02*
X286393Y169763D01*
X286304Y169839D01*
X286214Y169907D01*
X286123Y169966D01*
X286032Y170016D01*
X285941Y170056D01*
X285848Y170088D01*
X285755Y170110D01*
X285662Y170124D01*
X285567Y170128D01*
Y170741D01*
X285662Y170746D01*
X285755Y170759D01*
X285848Y170782D01*
X285941Y170813D01*
X286032Y170854D01*
X286123Y170904D01*
X286214Y170962D01*
X286304Y171030D01*
X286393Y171107D01*
X286482Y171193D01*
Y169677D01*
D02*
G37*
G36*
X138916Y169605D02*
X138827Y169691D01*
X138738Y169767D01*
X138648Y169835D01*
X138557Y169894D01*
X138466Y169943D01*
X138374Y169984D01*
X138282Y170016D01*
X138189Y170038D01*
X138095Y170052D01*
X138001Y170056D01*
Y170669D01*
X138095Y170674D01*
X138189Y170687D01*
X138282Y170710D01*
X138374Y170741D01*
X138466Y170782D01*
X138557Y170832D01*
X138648Y170890D01*
X138738Y170958D01*
X138827Y171035D01*
X138916Y171121D01*
Y169605D01*
D02*
G37*
G36*
X237237Y170396D02*
X237250Y170302D01*
X237273Y170209D01*
X237304Y170117D01*
X237345Y170025D01*
X237395Y169934D01*
X237454Y169843D01*
X237521Y169753D01*
X237598Y169664D01*
X237684Y169575D01*
X236168D01*
X236254Y169664D01*
X236331Y169753D01*
X236398Y169843D01*
X236457Y169934D01*
X236507Y170025D01*
X236547Y170117D01*
X236579Y170209D01*
X236602Y170302D01*
X236615Y170396D01*
X236620Y170490D01*
X237232D01*
X237237Y170396D01*
D02*
G37*
G36*
X389106Y169604D02*
X389029Y169515D01*
X388962Y169424D01*
X388903Y169334D01*
X388853Y169243D01*
X388812Y169151D01*
X388781Y169059D01*
X388758Y168966D01*
X388745Y168872D01*
X388740Y168778D01*
X388128D01*
X388123Y168872D01*
X388110Y168966D01*
X388087Y169059D01*
X388055Y169151D01*
X388015Y169243D01*
X387965Y169334D01*
X387906Y169424D01*
X387839Y169515D01*
X387762Y169604D01*
X387676Y169693D01*
X389192D01*
X389106Y169604D01*
D02*
G37*
G36*
X488424Y169551D02*
X488347Y169461D01*
X488280Y169371D01*
X488221Y169281D01*
X488171Y169189D01*
X488131Y169098D01*
X488099Y169005D01*
X488076Y168912D01*
X488063Y168819D01*
X488058Y168725D01*
X487446D01*
X487441Y168819D01*
X487428Y168912D01*
X487405Y169005D01*
X487374Y169098D01*
X487333Y169189D01*
X487283Y169281D01*
X487225Y169371D01*
X487157Y169461D01*
X487080Y169551D01*
X486994Y169639D01*
X488510D01*
X488424Y169551D01*
D02*
G37*
G36*
X437335Y168461D02*
X437258Y168371D01*
X437191Y168281D01*
X437132Y168191D01*
X437082Y168100D01*
X437042Y168008D01*
X437010Y167915D01*
X436987Y167822D01*
X436974Y167729D01*
X436969Y167635D01*
X436357D01*
X436352Y167729D01*
X436339Y167822D01*
X436316Y167915D01*
X436285Y168008D01*
X436244Y168100D01*
X436194Y168191D01*
X436135Y168281D01*
X436068Y168371D01*
X435991Y168461D01*
X435905Y168550D01*
X437421D01*
X437335Y168461D01*
D02*
G37*
G36*
X337981Y168023D02*
X337905Y167933D01*
X337837Y167843D01*
X337778Y167752D01*
X337729Y167661D01*
X337688Y167569D01*
X337656Y167477D01*
X337634Y167384D01*
X337620Y167291D01*
X337615Y167196D01*
X337003D01*
X336999Y167291D01*
X336985Y167384D01*
X336962Y167477D01*
X336931Y167569D01*
X336890Y167661D01*
X336841Y167752D01*
X336782Y167843D01*
X336714Y167933D01*
X336637Y168023D01*
X336551Y168111D01*
X338067D01*
X337981Y168023D01*
D02*
G37*
D19*
X332667Y364324D02*
X334143Y365800D01*
X311208Y364324D02*
X332667D01*
X294306Y381226D02*
X311208Y364324D01*
X334143Y365800D02*
X344500D01*
X331917Y368702D02*
X341788D01*
X330532Y367316D02*
X331917Y368702D01*
X313804Y367316D02*
X330532D01*
X295714Y385406D02*
X313804Y367316D01*
X262411Y385406D02*
X295714D01*
X256614Y391204D02*
X262411Y385406D01*
X256614Y402569D02*
X256614Y391204D01*
X256614Y402569D02*
X260234Y406189D01*
Y423494D01*
X255866Y408099D02*
Y423494D01*
X251555Y403789D02*
X255866Y408099D01*
X251555Y403789D02*
X251555Y389832D01*
X260161Y381226D01*
X294306D01*
D134*
X274882Y284070D02*
X287058Y271894D01*
X118792Y348434D02*
X183156Y284070D01*
X274882D01*
X324162Y271937D02*
X345387D01*
X190898Y554919D02*
Y568358D01*
X180196Y544217D02*
X190898Y554919D01*
X171979Y544217D02*
X180196D01*
X115136Y487375D02*
X171979Y544217D01*
X355454Y270726D02*
X359858D01*
X354243Y271937D02*
X355454Y270726D01*
X352571Y271937D02*
X354243D01*
X361330Y272199D02*
Y274221D01*
X359858Y270726D02*
X361330Y272199D01*
X345387Y271937D02*
X352571D01*
X323059Y270833D02*
X324162Y271937D01*
X118792Y348434D02*
Y383505D01*
X115136Y387161D02*
X118792Y383505D01*
X115136Y387161D02*
Y487375D01*
X287058Y271894D02*
X294422D01*
X315509Y270833D02*
X323059D01*
X307805D02*
X315509D01*
X304049D02*
X307805D01*
X300641Y271894D02*
X300737Y271989D01*
X294422Y271894D02*
X300641D01*
X300737Y271989D02*
X302893D01*
X304049Y270833D01*
D168*
X153744Y814961D02*
D03*
X67130D02*
D03*
X59256D02*
D03*
X75004D02*
D03*
X82878D02*
D03*
X90752D02*
D03*
X98626D02*
D03*
X106500D02*
D03*
X114374D02*
D03*
X122248D02*
D03*
X130122D02*
D03*
X137996D02*
D03*
X145870D02*
D03*
X161618D02*
D03*
X169492D02*
D03*
X177366D02*
D03*
X185240D02*
D03*
X193114D02*
D03*
X200988D02*
D03*
X208862D02*
D03*
D169*
X1122683Y696172D02*
D03*
Y704164D02*
D03*
X1132683Y700188D02*
D03*
Y692196D02*
D03*
X1122683Y680227D02*
D03*
X1132683Y676212D02*
D03*
Y684204D02*
D03*
X1122683Y672235D02*
D03*
D186*
X108450Y788175D02*
D03*
X65982Y775252D02*
D03*
X60783Y785626D02*
D03*
X81190Y778146D02*
D03*
X76560Y788374D02*
D03*
X97615Y774803D02*
D03*
X92327Y785653D02*
D03*
X113801Y778161D02*
D03*
X128608Y775440D02*
D03*
X123626Y785653D02*
D03*
X144466Y778172D02*
D03*
X139172Y788175D02*
D03*
X160648Y774979D02*
D03*
X154913Y785634D02*
D03*
X176043Y778138D02*
D03*
X171054Y788835D02*
D03*
X191369Y774559D02*
D03*
X186463Y785738D02*
D03*
X207303Y778256D02*
D03*
X202113Y788374D02*
D03*
X581500Y688976D02*
D03*
X577875D02*
D03*
X591125Y693755D02*
D03*
X587500D02*
D03*
X565000Y693767D02*
D03*
X561375D02*
D03*
X570750Y690945D02*
D03*
X574375D02*
D03*
X1159184Y235061D02*
D03*
X1153355Y241493D02*
D03*
X482019Y726575D02*
D03*
X486054D02*
D03*
X500886Y722953D02*
D03*
X504921D02*
D03*
X506843Y709842D02*
D03*
X510772D02*
D03*
X295510Y354712D02*
D03*
X275492Y351544D02*
D03*
X295492Y358818D02*
D03*
X260234Y423494D02*
D03*
X255866D02*
D03*
X341788Y368702D02*
D03*
X344500Y365800D02*
D03*
X549971Y463319D02*
D03*
X497132Y557776D02*
D03*
X522638Y711614D02*
D03*
X518602D02*
D03*
X552921Y465508D02*
D03*
X1004913Y227289D02*
D03*
X487696Y691195D02*
D03*
X484045Y693317D02*
D03*
X545351Y463302D02*
D03*
X547764Y467134D02*
D03*
X352264Y351236D02*
D03*
X377699Y334820D02*
D03*
X188998Y170482D02*
D03*
X361330Y274221D02*
D03*
X330158Y270882D02*
D03*
X345387Y271937D02*
D03*
X352571D02*
D03*
X448558Y306594D02*
D03*
X404860Y180145D02*
D03*
X436663Y169323D02*
D03*
X542947Y467823D02*
D03*
X368307Y688189D02*
D03*
X495831Y691339D02*
D03*
X487752Y170413D02*
D03*
X388434Y170466D02*
D03*
X337309Y168885D02*
D03*
X287256Y170435D02*
D03*
X236926Y168802D02*
D03*
X453513Y573101D02*
D03*
X377675Y355752D02*
D03*
X353129Y356399D02*
D03*
X353186Y344307D02*
D03*
X354394Y338791D02*
D03*
X373583Y342572D02*
D03*
X347627Y356441D02*
D03*
X302614Y177114D02*
D03*
X252621Y177641D02*
D03*
X151725Y177362D02*
D03*
X139689Y170363D02*
D03*
X482528Y430557D02*
D03*
Y425456D02*
D03*
Y416986D02*
D03*
Y406677D02*
D03*
Y420929D02*
D03*
Y411205D02*
D03*
X512370Y427881D02*
D03*
X307805Y270833D02*
D03*
X300641Y271894D02*
D03*
X502739Y691339D02*
D03*
X498193Y688189D02*
D03*
X456979Y292267D02*
D03*
X517815Y707382D02*
D03*
X513779D02*
D03*
X528543Y722953D02*
D03*
X524508D02*
D03*
X521475Y726575D02*
D03*
X517440D02*
D03*
X509665D02*
D03*
X505630D02*
D03*
X497835D02*
D03*
X493799D02*
D03*
X493111Y722953D02*
D03*
X489076D02*
D03*
X290196Y326975D02*
D03*
X323059Y270833D02*
D03*
X315509D02*
D03*
X294422Y271894D02*
D03*
X824705Y658740D02*
D03*
X290894Y334839D02*
D03*
Y331209D02*
D03*
X452441Y177032D02*
D03*
X352618D02*
D03*
X999913Y227191D02*
D03*
X1058004Y208413D02*
D03*
X1055501Y211700D02*
D03*
X1141291Y213066D02*
D03*
X1138732Y216330D02*
D03*
X821918Y655486D02*
D03*
X482118Y596457D02*
D03*
X466165Y608895D02*
D03*
X389540Y688189D02*
D03*
X384816Y691339D02*
D03*
X382454Y688189D02*
D03*
X479297D02*
D03*
X476935Y691339D02*
D03*
X514252Y430707D02*
D03*
X36801Y239666D02*
D03*
X20833Y239325D02*
D03*
X503258Y177258D02*
D03*
X201673Y177364D02*
D03*
X482528Y393091D02*
D03*
Y397622D02*
D03*
X190898Y568358D02*
D03*
X546980Y369890D02*
D03*
X542449D02*
D03*
X537921D02*
D03*
X533394D02*
D03*
X528866D02*
D03*
X514803D02*
D03*
X519610D02*
D03*
X524295D02*
D03*
X291614Y356805D02*
D03*
X555638Y462390D02*
D03*
X505705Y369890D02*
D03*
X510232D02*
D03*
X472211Y688189D02*
D03*
X375368D02*
D03*
X370644Y691339D02*
D03*
X377730D02*
D03*
D187*
X1085236Y692921D02*
D03*
Y689413D02*
D03*
X1087598Y698945D02*
D03*
Y695397D02*
D03*
Y678173D02*
D03*
Y681681D02*
D03*
X1085236Y672228D02*
D03*
Y675894D02*
D03*
D201*
X849876Y683982D02*
G03*
X852076Y681781I2200J0D01*
G01*
X849876Y683982D02*
G03*
X847476Y683982I-1200J0D01*
G01*
X843076Y682281D02*
G03*
X847476Y682281I2200J0D01*
G01*
X843076Y683982D02*
G03*
X840676Y683982I-1200J0D01*
G01*
X838476Y681781D02*
G03*
X840676Y683982I0J2200D01*
G01*
X850876D02*
G03*
X852076Y682782I1200J0D01*
G01*
X850876Y683982D02*
G03*
X846476Y683982I-2200J0D01*
G01*
X844076Y682281D02*
G03*
X846476Y682281I1200J0D01*
G01*
X844076Y683982D02*
G03*
X839676Y683982I-2200J0D01*
G01*
X838476Y682782D02*
G03*
X839676Y683982I0J1200D01*
G01*
X835911Y691578D02*
G03*
X834711Y690378I0J-1200D01*
G01*
X830311Y689925D02*
G03*
X834711Y689925I2200J0D01*
G01*
X830311Y692740D02*
G03*
X827911Y692740I-1200J0D01*
G01*
X823511Y689925D02*
G03*
X827911Y689925I2200J0D01*
G01*
X823511Y692740D02*
G03*
X821111Y692740I-1200J0D01*
G01*
X816711Y689925D02*
G03*
X821111Y689925I2200J0D01*
G01*
X816711Y690378D02*
G03*
X815511Y691578I-1200J0D01*
G01*
X835911Y692578D02*
G03*
X833711Y690378I0J-2200D01*
G01*
X831311Y689925D02*
G03*
X833711Y689925I1200J0D01*
G01*
X831311Y692740D02*
G03*
X826911Y692740I-2200J0D01*
G01*
X824511Y689925D02*
G03*
X826911Y689925I1200J0D01*
G01*
X824511Y692740D02*
G03*
X820111Y692740I-2200J0D01*
G01*
X817711Y689925D02*
G03*
X820111Y689925I1200J0D01*
G01*
X817711Y690378D02*
G03*
X815511Y692578I-2200J0D01*
G01*
X126685Y775373D02*
Y811524D01*
X125685Y785598D02*
Y811524D01*
X141839Y742806D02*
X142253D01*
X125685Y775373D02*
Y785598D01*
X142253Y742806D02*
X142253Y742806D01*
X323910D01*
X126685Y759374D02*
X142253Y743806D01*
X125685Y758960D02*
X141839Y742806D01*
X125685Y758960D02*
Y775373D01*
X142253Y743806D02*
X323496D01*
X126685Y759374D02*
Y775373D01*
X109937Y788175D02*
Y792975D01*
Y771381D02*
Y788175D01*
X108450D02*
X109937D01*
X205439Y778270D02*
X207320D01*
X202113Y788360D02*
X204411D01*
X189691Y774573D02*
X191572D01*
X186463Y785710D02*
X188663D01*
X173943Y778165D02*
X176043D01*
X171034Y788821D02*
X172915D01*
X158195Y774959D02*
X160648D01*
X155285Y785724D02*
X157167D01*
X142446Y778152D02*
X144328D01*
X139537Y788162D02*
X141419D01*
X126699Y775373D02*
X128608D01*
X123626Y785598D02*
X125671D01*
X110951Y778175D02*
X113801D01*
X95202Y774817D02*
X97084D01*
X92293Y785612D02*
X94175D01*
X79454Y778152D02*
X81336D01*
X76545Y788360D02*
X78427D01*
X63693Y775239D02*
Y811524D01*
Y745047D02*
Y775239D01*
X65969D01*
X60783Y785626D02*
X60811Y785653D01*
X62693D01*
Y811524D01*
Y744632D02*
Y785653D01*
X60783Y785626D02*
X61041Y785368D01*
X206595Y772775D02*
X258923D01*
X288570Y802422D01*
X494737D01*
X258509Y773775D02*
X288156Y803422D01*
X207009Y773775D02*
X258509D01*
X288156Y803422D02*
X495151D01*
X526026Y724471D02*
Y771133D01*
X527026Y724471D02*
Y771548D01*
X204425Y774945D02*
X206595Y772775D01*
X205425Y775360D02*
X207009Y773775D01*
X78441Y774167D02*
X78441Y746200D01*
X79441Y774167D02*
X79441Y746614D01*
X63693Y745047D02*
X95222Y713518D01*
X62693Y744632D02*
X94807Y712518D01*
X95222Y713518D02*
X268874Y713518D01*
X94807Y712518D02*
X268459Y712518D01*
X268874Y713518D02*
X280590Y701801D01*
X268459Y712518D02*
X280176Y700801D01*
X78441Y746200D02*
X106602Y718038D01*
X79441Y746614D02*
X107016Y719038D01*
X273561Y719038D01*
X106602Y718038D02*
X273147Y718038D01*
X273561Y719038D02*
X284999Y707601D01*
X273147Y718038D02*
X284584Y706601D01*
X357456Y707601D02*
X366387Y716532D01*
X284584Y706601D02*
X357871Y706601D01*
X284999Y707601D02*
X357456Y707601D01*
X358163Y706894D02*
X358163D01*
X369767Y718497D01*
X357871Y706601D02*
X358163Y706894D01*
X369379Y701801D02*
X381376Y713798D01*
X280176Y700801D02*
X369793Y700801D01*
X381790Y712798D01*
X280590Y701801D02*
X369379Y701801D01*
X142433Y760421D02*
Y811524D01*
Y760421D02*
X154240Y748614D01*
X141433Y760007D02*
X153826Y747614D01*
X154240Y748614D02*
X307059Y748614D01*
X153826Y747614D02*
X307473Y747614D01*
X173296Y752524D02*
X297178D01*
X286792Y757302D02*
X313453Y783963D01*
X172929Y766297D02*
X181631Y757595D01*
X173003Y752817D02*
X173003D01*
X182338Y758302D02*
X286378D01*
X181923Y757302D02*
X286792D01*
X297178Y752524D02*
X321633Y776979D01*
X286378Y758302D02*
X313039Y784963D01*
X173929Y766711D02*
X182338Y758302D01*
X157181Y768639D02*
X173003Y752817D01*
X158181Y769053D02*
X173710Y753524D01*
X296763D01*
X321219Y777979D01*
X181631Y757595D02*
X181631D01*
X181923Y757302D01*
X173003Y752817D02*
X173296Y752524D01*
X236131Y761830D02*
X236131Y761830D01*
X188677Y769593D02*
X196148Y762122D01*
X196148D01*
X258049Y761830D02*
X289466Y793247D01*
X189677Y770007D02*
X196855Y762829D01*
X196148Y762122D02*
X196440Y761830D01*
X236545Y762829D02*
X257635D01*
X289052Y794246D01*
X236545Y762829D02*
X236545Y762829D01*
X236131Y761830D02*
X258049D01*
X196855Y762829D02*
X236545D01*
X196440Y761830D02*
X236131D01*
X307059Y748614D02*
X330993Y772548D01*
X307473Y747614D02*
X331407Y771548D01*
X321633Y776979D02*
X478482D01*
X321219Y777979D02*
X478897D01*
X313039Y784963D02*
X483318D01*
X313453Y783963D02*
X482904D01*
X289466Y793247D02*
X485155D01*
X289052Y794246D02*
X485569D01*
X482904Y783963D02*
X507148Y759720D01*
Y728092D02*
Y759720D01*
X483318Y784963D02*
X508148Y760134D01*
Y728092D02*
Y760134D01*
X478482Y776979D02*
X502403Y753058D01*
Y724471D02*
Y753058D01*
X503404Y724471D02*
Y753472D01*
X478897Y777979D02*
X503404Y753472D01*
X330993Y772548D02*
X474195Y772548D01*
X331407Y771548D02*
X473781Y771548D01*
X495444Y803129D02*
X527026Y771548D01*
X495151Y803422D02*
X495444Y803129D01*
X485155Y793247D02*
X518958Y759444D01*
X485569Y794246D02*
X519958Y759858D01*
X494737Y802422D02*
X526026Y771133D01*
X495444Y803129D02*
X495444D01*
X474195Y772548D02*
X496317Y750426D01*
X473781Y771548D02*
X495317Y750011D01*
X109937Y754511D02*
X110230Y754218D01*
X109937Y770967D02*
X109937Y770967D01*
X110937Y754925D02*
Y770818D01*
X110937Y771796D02*
X110937Y771795D01*
X109937Y771381D02*
X109937Y771381D01*
X110937Y771381D02*
Y771795D01*
X110937Y771796D02*
Y793389D01*
X110230Y754218D02*
Y754218D01*
X109937Y770967D02*
Y771381D01*
X126259Y738188D02*
X126259D01*
X110230Y754218D02*
X126259Y738188D01*
X110937Y754925D02*
X126673Y739188D01*
X109937Y754511D02*
Y770404D01*
X109937Y770404D02*
Y770967D01*
X110937Y770818D02*
X110937Y770818D01*
X110937Y770818D02*
Y771381D01*
X109937Y770404D02*
X109937Y770404D01*
X110937Y771381D02*
X110937Y771381D01*
X109937Y792975D02*
Y811524D01*
X94189Y743469D02*
Y791650D01*
X95189Y743883D02*
X114867Y724204D01*
X94189Y743469D02*
X114453Y723205D01*
X381790Y713798D02*
X508343D01*
X381790Y713798D02*
X381790Y713798D01*
Y712798D02*
X507929D01*
X381376Y713798D02*
X381790D01*
X366387Y716532D02*
X369353Y719497D01*
X473147Y719204D02*
X475526Y716825D01*
X473147Y719204D02*
X473147D01*
X472854Y719497D02*
X473147Y719204D01*
X369353Y719497D02*
X472854D01*
X369767Y718497D02*
X472440D01*
X475112Y715825D01*
X516297Y708900D02*
Y712494D01*
X511966Y716825D02*
X516297Y712494D01*
X511552Y715825D02*
X515297Y712080D01*
Y708900D02*
Y712080D01*
X475112Y715825D02*
X511552D01*
X475526Y716825D02*
X511966D01*
X366387Y716532D02*
X366387D01*
X508343Y713798D02*
X509307Y712833D01*
X507929Y712798D02*
X508308Y712419D01*
X478039Y719381D02*
X478332Y719088D01*
X474216Y723205D02*
X478039Y719381D01*
X478746Y720088D02*
X516857D01*
X517150Y719795D02*
X521120Y715825D01*
X516442Y719088D02*
X520120Y715411D01*
X478039Y719381D02*
X478039D01*
X478332Y719088D02*
X516442D01*
X517150Y719795D02*
X517150D01*
X474630Y724204D02*
X478746Y720088D01*
X516857D02*
X517150Y719795D01*
X508308Y711307D02*
Y712419D01*
X59256Y814961D02*
X62693Y811524D01*
X63693D02*
X67130Y814961D01*
X78441Y774167D02*
Y794649D01*
X78441Y794649D02*
X78441Y794649D01*
X78441Y794649D02*
Y811524D01*
X75004Y814961D02*
X78441Y811524D01*
X79441Y774167D02*
Y795064D01*
X79441Y795064D02*
X79441Y795064D01*
X79441Y795064D02*
Y811524D01*
X82878Y814961D01*
X94189Y791650D02*
X94189Y791650D01*
X94189Y791650D02*
Y811524D01*
X90752Y814961D02*
X94189Y811524D01*
X95189Y743883D02*
Y792065D01*
X95189Y792065D02*
X95189Y792065D01*
X95189Y792065D02*
Y811524D01*
X98626Y814961D01*
X109937Y792975D02*
X109937Y792975D01*
X106500Y814961D02*
X109937Y811524D01*
X110937Y793389D02*
X110937Y793389D01*
X110937Y793389D02*
Y811524D01*
X114374Y814961D01*
X122248D02*
X125685Y811524D01*
X126685D02*
X130122Y814961D01*
X141433Y760007D02*
Y811524D01*
X137996Y814961D02*
X141433Y811524D01*
X142433D02*
X145870Y814961D01*
X157181Y768639D02*
Y811524D01*
X153744Y814961D02*
X157181Y811524D01*
X158181Y769053D02*
Y811524D01*
X161618Y814961D01*
X172929Y766297D02*
Y792348D01*
X172929Y792348D02*
X172929Y792348D01*
X172929Y792348D02*
Y811524D01*
X169492Y814961D02*
X172929Y811524D01*
X173929Y766711D02*
Y792762D01*
X173929Y792762D02*
X173929Y792762D01*
X173929Y792762D02*
Y811524D01*
X177366Y814961D01*
X188677Y769593D02*
Y790952D01*
X189677Y770007D02*
Y791367D01*
X188677Y790952D02*
X188677Y790952D01*
X188677Y790952D02*
Y811524D01*
X185240Y814961D02*
X188677Y811524D01*
X189677Y791367D02*
X189677Y791367D01*
X189677Y791367D02*
Y811524D01*
X193114Y814961D01*
X204425Y774945D02*
Y793603D01*
X205425Y775360D02*
Y794017D01*
X204425Y793603D02*
X204425Y793603D01*
X204425Y793603D02*
Y811524D01*
X200988Y814961D02*
X204425Y811524D01*
X205425Y794017D02*
X205425Y794017D01*
X205425Y794017D02*
Y811524D01*
X208862Y814961D01*
X323910Y742806D02*
X347347Y766243D01*
X126673Y739188D02*
X344879Y739188D01*
X126259Y738188D02*
X345293Y738188D01*
X344879Y739188D02*
X365676Y759986D01*
X345293Y738188D02*
X366090Y758986D01*
X323496Y743806D02*
X346933Y767243D01*
X347347Y766243D02*
X347347D01*
X346933Y767243D02*
X470082D01*
X347347Y766243D02*
X469667Y766243D01*
X365676Y759986D02*
X461170Y759986D01*
X366090Y758986D02*
X460756Y758986D01*
X475334Y744408D01*
X461170Y759986D02*
X475748Y745408D01*
X470082Y767243D02*
X491594Y745731D01*
X469667Y766243D02*
X490593Y745317D01*
X480565Y744408D02*
X483536Y741437D01*
X475334Y744408D02*
X480565D01*
X480979Y745408D02*
X484536Y741851D01*
X475748Y745408D02*
X480979D01*
X482019Y726575D02*
X483536Y728092D01*
Y741437D01*
X484536Y728092D02*
X486054Y726575D01*
X484536Y728092D02*
Y741851D01*
X114867Y724204D02*
X474630Y724204D01*
X114453Y723205D02*
X474216Y723205D01*
X509307Y712035D02*
Y712833D01*
X509307Y711307D02*
Y712035D01*
X509307Y712035D01*
X506843Y709842D02*
X508308Y711307D01*
X509307Y711307D02*
X510772Y709842D01*
X518958Y728092D02*
Y759444D01*
X519958Y728092D02*
Y759858D01*
X513779Y707382D02*
X515297Y708900D01*
X516297D02*
X517815Y707382D01*
X518602Y711614D02*
X520120Y713132D01*
Y715411D01*
X521120Y713132D02*
X522638Y711614D01*
X521120Y713132D02*
Y715825D01*
X489076Y722953D02*
X490593Y724471D01*
Y745317D01*
X491594Y724471D02*
X493111Y722953D01*
X491594Y724471D02*
Y745731D01*
X493799Y726575D02*
X495317Y728092D01*
Y750011D01*
X496317Y728092D02*
X497835Y726575D01*
X496317Y728092D02*
Y750426D01*
X500886Y722953D02*
X502403Y724471D01*
X503404D02*
X504921Y722953D01*
X505630Y726575D02*
X507148Y728092D01*
X508148D02*
X509665Y726575D01*
X517440D02*
X518958Y728092D01*
X519958D02*
X521475Y726575D01*
X524508Y722953D02*
X526026Y724471D01*
X527026D02*
X528543Y722953D01*
X1085236Y672313D02*
Y673578D01*
X855397Y681781D02*
X881566D01*
X855397Y682782D02*
X881980D01*
X852076Y681781D02*
X855397D01*
X849876Y683982D02*
Y683982D01*
X847476Y682281D02*
Y683982D01*
X843076Y682281D02*
Y683982D01*
X840676Y683982D02*
Y683982D01*
X837776Y681781D02*
X838476D01*
X852076Y682782D02*
X855397D01*
X850876Y683982D02*
Y683982D01*
X846476Y682281D02*
Y683982D01*
X844076Y682281D02*
Y683982D01*
X839676Y683982D02*
Y683982D01*
X837776Y682782D02*
X838476D01*
X810374Y681781D02*
X837776D01*
X809960Y682782D02*
X837776D01*
X835911Y691578D02*
X857032D01*
X834711Y689925D02*
Y690378D01*
X830311Y689925D02*
Y692740D01*
X827911Y689925D02*
Y692740D01*
X823511Y689925D02*
Y692740D01*
X821111Y689925D02*
Y692740D01*
X816711Y689925D02*
Y690378D01*
X811411Y691578D02*
X815511D01*
X835911Y692578D02*
X857032D01*
X833711Y689925D02*
Y690378D01*
X831311Y689925D02*
Y692740D01*
X826911Y689925D02*
Y692740D01*
X824511Y689925D02*
Y692740D01*
X820111Y689925D02*
Y692740D01*
X817711Y689925D02*
Y690378D01*
X811411Y692578D02*
X815511D01*
X857032Y691578D02*
X881761D01*
X804427D02*
X811411D01*
X804013Y692578D02*
X811411D01*
X944388Y690673D02*
X1085236D01*
X933159Y679444D02*
X944388Y690673D01*
X744281Y679490D02*
X808083D01*
X736501Y671710D02*
X744281Y679490D01*
X643830Y671710D02*
X736501D01*
X641228Y669108D02*
X643830Y671710D01*
X640814Y670108D02*
X643416Y672710D01*
X736087D01*
X744281Y680490D02*
X744281Y680490D01*
X806599D01*
X932745Y680444D02*
X943974Y691673D01*
X1085236D01*
X1132683Y696926D02*
Y700188D01*
X1132448Y696692D02*
X1132683Y696926D01*
X1129470Y696692D02*
X1132448D01*
X1124451Y691673D02*
X1129470Y696692D01*
X1085236Y691673D02*
X1124451Y691673D01*
X1085236Y691673D02*
Y692921D01*
X881980Y682782D02*
X884318Y680444D01*
X932745D01*
X580188Y687664D02*
X581500Y688976D01*
X580188Y682283D02*
Y687664D01*
X744281Y680490D02*
X744281Y680490D01*
X743867Y680490D02*
X744281D01*
X736087Y672710D02*
X743867Y680490D01*
X586732Y675738D02*
X623249D01*
X628879Y670108D01*
X580188Y682283D02*
X586732Y675738D01*
X628879Y670108D02*
X640814D01*
X1129884Y695692D02*
X1132448D01*
X1132683Y695458D01*
X1124865Y690673D02*
X1129884Y695692D01*
X1132683Y692196D02*
Y695458D01*
X1085236Y690673D02*
X1124865Y690673D01*
X1085236Y689413D02*
Y690673D01*
X881566Y681781D02*
X883904Y679444D01*
X933159D01*
X579187Y681869D02*
Y687664D01*
X577875Y688976D02*
X579187Y687664D01*
X586318Y674738D02*
X622835D01*
X579187Y681869D02*
X586318Y674738D01*
X628465Y669108D02*
X641228D01*
X622835Y674738D02*
X628465Y669108D01*
X807669Y680490D02*
X809960Y682782D01*
X808083Y679490D02*
X810374Y681781D01*
X806599Y680490D02*
X806599Y680490D01*
X807669D01*
X857032Y692578D02*
X882176D01*
X798586Y685737D02*
X804427Y691578D01*
X881761D02*
X885676Y687664D01*
X882176Y692578D02*
X882469Y692285D01*
X882469D02*
X888098Y686655D01*
X882469Y692285D02*
X882469D01*
X798172Y686737D02*
X804013Y692578D01*
X885676Y687664D02*
X887684Y685655D01*
X885676Y687664D02*
X885676D01*
X733538Y686737D02*
X798172D01*
X733952Y685737D02*
X798586D01*
X1087598Y695415D02*
Y696680D01*
X927258Y686030D02*
X937908Y696680D01*
X589813Y692442D02*
X591125Y693755D01*
X667095Y686182D02*
X676116Y677160D01*
X723961D02*
X733538Y686737D01*
X623901Y679791D02*
X630291Y686182D01*
X676116Y677160D02*
X723961D01*
X630291Y686182D02*
X667095D01*
X623901Y679791D02*
Y679791D01*
X589813Y684684D02*
X594705Y679791D01*
X589813Y684684D02*
Y692442D01*
X594705Y679791D02*
X623901D01*
X594705Y679791D02*
X594705Y679791D01*
X1122683Y700903D02*
Y704164D01*
X1122448Y700668D02*
X1122683Y700903D01*
X1118783Y700668D02*
X1122448D01*
X1115795Y697680D02*
X1118783Y700668D01*
X1087598Y697680D02*
Y698945D01*
X937494Y697680D02*
X1087598D01*
X1115795D01*
X926551Y686737D02*
X926551Y686737D01*
X937494Y697680D01*
X724668Y676453D02*
X733952Y685737D01*
X630705Y685182D02*
X666680D01*
X588812Y684270D02*
Y692442D01*
X587500Y693755D02*
X588812Y692442D01*
X724668Y676453D02*
X724668D01*
X724375Y676160D02*
X724668Y676453D01*
X666680Y685182D02*
X675409Y676453D01*
X675409D02*
X675702Y676160D01*
X724375D01*
X675409Y676453D02*
X675409D01*
X624315Y678791D02*
X630705Y685182D01*
X624315Y678791D02*
Y678791D01*
X588812Y684270D02*
X594291Y678791D01*
X594291Y678791D02*
X624315D01*
X594291Y678791D02*
X594291Y678791D01*
X1119197Y699668D02*
X1122448D01*
X1122683Y699434D01*
X1116209Y696680D02*
X1119197Y699668D01*
X1087598Y696680D02*
X1116209Y696680D01*
X1122683Y696172D02*
Y699434D01*
X937908Y696680D02*
X1087598D01*
X926480Y686737D02*
X926551D01*
X927187Y686030D02*
X927258D01*
X888098Y686655D02*
X926398D01*
X887684Y685655D02*
X926813D01*
X926398Y686655D02*
X926480Y686737D01*
X926813Y685655D02*
X927187Y686030D01*
X1085236Y674578D02*
Y675843D01*
X1087598Y678179D02*
Y679444D01*
Y680444D02*
Y681709D01*
X562687Y681180D02*
Y692454D01*
Y681180D02*
X579063Y664805D01*
X616567D01*
X579477Y665804D02*
X616982D01*
X563688Y681594D02*
Y692454D01*
Y681594D02*
X579477Y665804D01*
X1132683Y680942D02*
Y684204D01*
X1124094Y685919D02*
X1129305Y680708D01*
X1132448D02*
X1132683Y680942D01*
X1104862Y685919D02*
X1124094D01*
X1099387Y680444D02*
X1104862Y685919D01*
X1129305Y680708D02*
X1132448D01*
X945561Y680444D02*
X1099387Y680444D01*
X939695Y674578D02*
X945561Y680444D01*
X749703Y674578D02*
X939695Y674578D01*
X743330Y668206D02*
X749703Y674578D01*
X647181Y668206D02*
X743330Y668206D01*
X645228Y666253D02*
X647181Y668206D01*
X625873Y666253D02*
X645228D01*
X573063Y681169D02*
X582870Y671361D01*
X620765D02*
X625873Y666253D01*
X582870Y671361D02*
X620765D01*
X1105276Y684919D02*
X1123680D01*
X1128891Y679708D01*
X1099801Y679444D02*
X1105276Y684919D01*
X1132448Y679708D02*
X1132683Y679473D01*
X1128891Y679708D02*
X1132448D01*
X945975Y679444D02*
X1099801Y679444D01*
X1132683Y676212D02*
Y679473D01*
X940109Y673578D02*
X945975Y679444D01*
X750117Y673578D02*
X940109Y673578D01*
X743745Y667206D02*
X750117Y673578D01*
X647595Y667206D02*
X743745Y667206D01*
X645935Y665546D02*
X647595Y667206D01*
X645935Y665546D02*
X645935D01*
X645642Y665253D02*
X645935Y665546D01*
X625459Y665253D02*
X645642D01*
X582456Y670361D02*
X620351D01*
X625166Y665546D01*
X572062Y680755D02*
X582456Y670361D01*
X625166Y665546D02*
X625459Y665253D01*
X625166Y665546D02*
X625166D01*
X573063Y689632D02*
X574375Y690945D01*
X573063Y681169D02*
Y689632D01*
X570750Y690945D02*
X572062Y689632D01*
Y680755D02*
Y689632D01*
X1122683Y676966D02*
Y680227D01*
X1119254Y676731D02*
X1122448D01*
X1122683Y676966D01*
X1116855Y679130D02*
X1119254Y676731D01*
X1106350Y679130D02*
X1116855D01*
X1101798Y674578D02*
X1106350Y679130D01*
X954483Y674578D02*
X1101798Y674578D01*
X947774Y667869D02*
X954483Y674578D01*
X828115Y667869D02*
X947774Y667869D01*
X825868Y665622D02*
X828115Y667869D01*
X811411Y665622D02*
X825868D01*
X752319Y668682D02*
X808352D01*
X808644Y668389D01*
X808644D02*
X811411Y665622D01*
X741352Y657714D02*
X752319Y668682D01*
X808644Y668389D02*
X808644D01*
X709765Y657714D02*
X741352D01*
X616982Y665804D02*
X620651Y662135D01*
X705345D02*
X709765Y657714D01*
X620651Y662135D02*
X705345Y662135D01*
X1106765Y678130D02*
X1116441D01*
X1118840Y675731D01*
X1102212Y673578D02*
X1106765Y678130D01*
X1118840Y675731D02*
X1122448D01*
X1122683Y675497D01*
X954897Y673578D02*
X1102212Y673578D01*
X1122683Y672235D02*
Y675497D01*
X948188Y666869D02*
X954897Y673578D01*
X828529Y666869D02*
X948188Y666869D01*
X826283Y664622D02*
X828529Y666869D01*
X810997Y664622D02*
X826283D01*
X752734Y667682D02*
X807937D01*
X810997Y664622D01*
X741766Y656714D02*
X752734Y667682D01*
X704930Y661135D02*
X709351Y656714D01*
X741766D01*
X620237Y661135D02*
X704930Y661135D01*
X616567Y664805D02*
X620237Y661135D01*
X563688Y692454D02*
X565000Y693767D01*
X561375D02*
X562687Y692454D01*
D202*
X1159099Y224240D02*
Y311183D01*
X1153339Y225745D02*
Y309433D01*
X377716Y355752D02*
Y360203D01*
X353186Y344212D02*
X356386D01*
X503258Y177471D02*
X518101D01*
X352264Y351232D02*
X361143D01*
X1132347Y213196D02*
X1148055D01*
X1131022Y216395D02*
X1143990D01*
X1055501Y211612D02*
X1126239Y211612D01*
X475177Y335319D02*
X502091Y362233D01*
X475177Y306692D02*
Y335319D01*
X466583Y298098D02*
X475177Y306692D01*
X480363Y333962D02*
X510232Y363831D01*
X480363Y306768D02*
Y333962D01*
X470525Y296930D02*
X480363Y306768D01*
X266529Y179990D02*
X276083Y170435D01*
X266529Y179990D02*
Y210023D01*
X163997Y179781D02*
X173296Y170482D01*
X163997Y179781D02*
Y194515D01*
X780527Y262123D02*
X802936Y239714D01*
X785152Y264039D02*
X804438Y244753D01*
X780527Y262123D02*
Y312424D01*
X785152Y264039D02*
Y314340D01*
X754144Y338807D02*
X780527Y312424D01*
X758770Y340723D02*
X785152Y314340D01*
X754144Y338807D02*
X754144Y455971D01*
X758770Y340723D02*
X758770Y457887D01*
X751149Y465508D02*
X758770Y457887D01*
X749233Y460882D02*
X754144Y455971D01*
X278962Y355422D02*
X282023Y352361D01*
X174364Y355422D02*
X278962D01*
X153950Y375836D02*
X174364Y355422D01*
X282023Y352361D02*
X294700D01*
X295510Y353170D02*
Y354712D01*
X294700Y352361D02*
X295510Y353170D01*
X288520Y364012D02*
X293654Y358878D01*
X295433D01*
X283081Y356647D02*
X291457D01*
X280350Y359379D02*
X283081Y356647D01*
X176338Y359379D02*
X280350D01*
X291457Y356647D02*
X291614Y356805D01*
X180142Y364012D02*
X288520D01*
X271488Y351544D02*
X275492D01*
X270397Y350453D02*
X271488Y351544D01*
X172875Y350453D02*
X270397D01*
X295433Y358878D02*
X295492Y358818D01*
X535955Y516334D02*
X549971Y502318D01*
X528365Y516334D02*
X535955D01*
X503042Y541657D02*
X528365Y516334D01*
X497132Y555158D02*
X503042Y549248D01*
Y541657D02*
Y549248D01*
X494208Y551786D02*
X499048Y546946D01*
Y538803D02*
Y546946D01*
Y538803D02*
X525084Y512767D01*
X533227D02*
X546233Y499761D01*
X525084Y512767D02*
X533227D01*
X494208Y551786D02*
Y593869D01*
X546233Y479325D02*
Y499761D01*
X549971Y463319D02*
Y502318D01*
X497132Y555158D02*
Y557774D01*
X995975Y244753D02*
X1004913Y235815D01*
X804438Y244753D02*
X995975D01*
X557583Y465508D02*
X751149Y465508D01*
X552921Y465508D02*
X557583D01*
X1004913Y227289D02*
Y235815D01*
X368307Y669628D02*
Y688189D01*
X405131Y260424D02*
Y303518D01*
X407187Y305574D01*
X490017Y676628D02*
Y685400D01*
X487696Y687722D02*
X490017Y685400D01*
X487696Y687722D02*
Y691195D01*
X472936Y659547D02*
X490017Y676628D01*
X484045Y676651D02*
Y693317D01*
X471928Y664535D02*
X484045Y676651D01*
X436698Y664535D02*
X471928D01*
X466165Y608895D02*
X466167D01*
X464611D02*
X466165D01*
X545351Y463302D02*
Y473581D01*
X545683Y473912D01*
X547764Y467134D02*
Y477794D01*
X524548Y495047D02*
X545683Y473912D01*
X546233Y479325D02*
X547764Y477794D01*
X120458Y229684D02*
X147844Y257070D01*
X120458Y173106D02*
Y229684D01*
Y173106D02*
X123202Y170363D01*
X283581Y177114D02*
X302614D01*
X277639Y183056D02*
X283581Y177114D01*
X277639Y183056D02*
Y213317D01*
X464264Y356557D02*
Y361913D01*
X445128Y337421D02*
X464264Y356557D01*
X443784Y337421D02*
X445128D01*
X505705Y367937D02*
Y369890D01*
X502091Y364324D02*
X505705Y367937D01*
X502091Y362233D02*
Y364324D01*
X474854Y345574D02*
X504771Y375491D01*
X474854Y342317D02*
Y345574D01*
X468798Y336261D02*
X474854Y342317D01*
X504771Y375491D02*
X543229D01*
X546980Y371740D01*
X161468Y480021D02*
X198522Y517075D01*
X161468Y382686D02*
Y480021D01*
Y382686D02*
X180142Y364012D01*
X337309Y165651D02*
Y168885D01*
X361143Y351232D02*
X402901Y392989D01*
X500821Y427881D02*
X502440D01*
X495349Y433354D02*
X500821Y427881D01*
X502440D02*
X512370Y427881D01*
X142049Y373938D02*
Y489802D01*
X140504Y372393D02*
X142049Y373938D01*
X140504Y362366D02*
Y372393D01*
X142049Y353099D02*
Y360821D01*
X140504Y362366D02*
X142049Y360821D01*
Y353099D02*
X154053Y341095D01*
X142049Y489802D02*
X188104Y535857D01*
X533394Y360952D02*
Y369890D01*
X514917Y342476D02*
X533394Y360952D01*
X514917Y238610D02*
Y342476D01*
X528866Y363034D02*
Y369890D01*
X505169Y339337D02*
X528866Y363034D01*
X505169Y273657D02*
Y339337D01*
X511119Y438870D02*
X514252Y435736D01*
X472830Y438870D02*
X511119D01*
X514252Y430707D02*
Y435736D01*
X446724Y412764D02*
X472830Y438870D01*
X446724Y394318D02*
Y412764D01*
X387052Y334647D02*
X446724Y394318D01*
X384922Y334647D02*
X387052D01*
X378066Y327791D02*
X384922Y334647D01*
X378066Y326121D02*
Y327791D01*
X365479Y313533D02*
X378066Y326121D01*
X390405Y331787D02*
X450446Y391828D01*
X387900Y331787D02*
X390405D01*
X381606Y325492D02*
X387900Y331787D01*
X381606Y323170D02*
Y325492D01*
X369244Y310809D02*
X381606Y323170D01*
X373798Y309395D02*
X385797Y321394D01*
X373798Y270290D02*
Y309395D01*
X385797Y321394D02*
Y324709D01*
X369244Y270732D02*
Y310809D01*
X450446Y391828D02*
Y410937D01*
X392380Y327664D02*
X453950Y389234D01*
X388752Y327664D02*
X392380D01*
X385797Y324709D02*
X388752Y327664D01*
X404381Y319978D02*
X409156Y324752D01*
X400544Y319978D02*
X404381D01*
X385077Y304511D02*
X400544Y319978D01*
X453950Y389234D02*
Y409613D01*
X377699Y307529D02*
X457767Y387597D01*
X377699Y268546D02*
Y307529D01*
X457767Y387597D02*
Y408240D01*
X461436Y386214D02*
Y406359D01*
X381420Y306199D02*
X461436Y386214D01*
X381420Y266606D02*
Y306199D01*
X385077Y264817D02*
Y304511D01*
X409156Y324752D02*
Y327943D01*
X406190Y316158D02*
X412695Y322662D01*
X402264Y316158D02*
X406190D01*
X388678Y302572D02*
X402264Y316158D01*
X388678Y262849D02*
Y302572D01*
X412695Y326014D02*
X418638Y331957D01*
X412695Y322662D02*
Y326014D01*
X421959Y331957D02*
X445753Y355751D01*
X418638Y331957D02*
X421959D01*
X398305Y306517D02*
X404919Y313131D01*
X398305Y281358D02*
Y306517D01*
X404919Y313131D02*
X408757D01*
X416031Y320405D01*
Y324243D02*
X419250Y327463D01*
X416031Y320405D02*
Y324243D01*
X419250Y327463D02*
X422664D01*
X411937Y305574D02*
X443784Y337421D01*
X407187Y305574D02*
X411937D01*
X455122Y357323D02*
Y362709D01*
X449108Y351309D02*
X455122Y357323D01*
X446510Y351309D02*
X449108D01*
X459625Y356471D02*
Y362158D01*
X449556Y346402D02*
X459625Y356471D01*
X447617Y346402D02*
X449556D01*
X410796Y309581D02*
X447617Y346402D01*
X406584Y309581D02*
X410796D01*
X402034Y305031D02*
X406584Y309581D01*
X409156Y327943D02*
X464970Y383758D01*
Y405930D01*
X459625Y362158D02*
X479613Y382146D01*
X464264Y361913D02*
X482528Y380176D01*
X472840Y380428D02*
Y402712D01*
X455122Y362709D02*
X472840Y380428D01*
X445753Y355751D02*
Y359072D01*
X469330Y382648D01*
X422664Y327463D02*
X446510Y351309D01*
X402034Y280530D02*
Y305031D01*
X397736Y276232D02*
X402034Y280530D01*
X392803Y275856D02*
X398305Y281358D01*
X348156Y356468D02*
X349569Y356468D01*
X348129Y356441D02*
X348156Y356468D01*
X349569Y356468D02*
X393311Y400209D01*
X158053Y377663D02*
X176338Y359379D01*
X150113Y373215D02*
X172875Y350453D01*
X472651Y653704D02*
X495831Y676884D01*
X435816Y653704D02*
X472651D01*
X391282Y609170D02*
X435816Y653704D01*
X473934Y649927D02*
X498193Y674186D01*
X436444Y649927D02*
X473934D01*
X395765Y609248D02*
X436444Y649927D01*
X437081Y659547D02*
X472936D01*
X387546Y610012D02*
X437081Y659547D01*
X383590Y611427D02*
X436698Y664535D01*
X471725Y668812D02*
X479297Y676384D01*
X435931Y668812D02*
X471725D01*
X380472Y613353D02*
X435931Y668812D01*
X468161Y672018D02*
X476935Y680792D01*
X434746Y672018D02*
X468161D01*
X377000Y614272D02*
X434746Y672018D01*
X466523Y676008D02*
X472211Y681696D01*
X429272Y676008D02*
X466523D01*
X355252Y601988D02*
X429272Y676008D01*
X502739Y672675D02*
Y691339D01*
X476363Y646299D02*
X502739Y672675D01*
X453923Y646299D02*
X476363D01*
X498193Y674186D02*
Y688189D01*
X495831Y676884D02*
Y691339D01*
X476935Y680792D02*
Y691339D01*
X479297Y676384D02*
Y688189D01*
X472211Y681696D02*
Y687895D01*
X153950Y375836D02*
Y484455D01*
X154053Y341095D02*
X215541D01*
X150775Y337526D02*
X212674D01*
X136907Y351395D02*
X150775Y337526D01*
X136907Y490634D02*
X136907Y351395D01*
X157056Y344663D02*
X217405D01*
X146294Y355425D02*
X157056Y344663D01*
X146294Y355425D02*
Y488410D01*
X469205Y192961D02*
X474133Y197889D01*
X469205Y170708D02*
Y192961D01*
X458965Y160468D02*
X469205Y170708D01*
X360577Y257070D02*
X373798Y270290D01*
X147844Y257070D02*
X360577Y257070D01*
X360030Y261518D02*
X369244Y270732D01*
X186992Y261518D02*
X360030Y261518D01*
X365479Y272001D02*
Y313533D01*
X358366Y264889D02*
X365479Y272001D01*
X190446Y264889D02*
X358366Y264889D01*
X461436Y406359D02*
X476005Y420929D01*
X457767Y408240D02*
X474983Y425456D01*
X395765Y586419D02*
Y609248D01*
X377699Y334820D02*
X379298D01*
X173296Y170482D02*
X188998D01*
X368003Y202608D02*
X419909Y254514D01*
X368003Y178267D02*
Y202608D01*
X419909Y254514D02*
X441567D01*
X842119Y654164D02*
X993956D01*
X837543Y658740D02*
X842119Y654164D01*
X824705Y658740D02*
X837543D01*
X993956Y654164D02*
X1099181Y548939D01*
X1093429Y369342D02*
X1093429Y545910D01*
X989566Y649773D02*
X1093429Y545910D01*
X841243Y649773D02*
X989566D01*
X1099181Y371101D02*
X1099181Y548939D01*
X1099181Y371101D02*
X1159099Y311183D01*
X1148055Y213196D02*
X1159099Y224240D01*
X121735Y333599D02*
X190446Y264889D01*
X68988Y333599D02*
X121735D01*
X119299Y329211D02*
X186992Y261518D01*
X70742Y329211D02*
X119299D01*
X60157Y318627D02*
X70742Y329211D01*
X60157Y242133D02*
Y318627D01*
X55886Y320498D02*
X68988Y333599D01*
X55886Y244672D02*
Y320498D01*
X54835Y243620D02*
X55886Y244672D01*
X35346Y243620D02*
X54835D01*
X31051Y239325D02*
X35346Y243620D01*
X237702Y312497D02*
X279324D01*
X212674Y337526D02*
X237702Y312497D01*
X279324D02*
X290196Y323369D01*
X150113Y373215D02*
Y487107D01*
X370644Y664673D02*
Y691339D01*
X241829Y535857D02*
X370644Y664673D01*
X188104Y535857D02*
X241829D01*
X238633Y539954D02*
X368307Y669628D01*
X186227Y539954D02*
X238633D01*
X123202Y170363D02*
X139689D01*
X163997Y194515D02*
X171647Y202165D01*
Y241892D02*
X179103Y249348D01*
X171647Y202165D02*
Y241892D01*
X182718Y245639D02*
X365899Y245639D01*
X177276Y240197D02*
X182718Y245639D01*
X177276Y181761D02*
Y240197D01*
X231692Y242804D02*
X368633Y242804D01*
X219681Y230793D02*
X231692Y242804D01*
X219681Y197753D02*
Y230793D01*
X368633Y242804D02*
X388678Y262849D01*
X364162Y249348D02*
X381420Y266606D01*
X179103Y249348D02*
X364162Y249348D01*
X365899Y245639D02*
X385077Y264817D01*
X392803Y261033D02*
Y275856D01*
X371294Y239524D02*
X392803Y261033D01*
X235169Y239524D02*
X371294Y239524D01*
X217405Y344663D02*
X242591Y319476D01*
X215541Y341095D02*
X240527Y316109D01*
X359291Y347117D02*
X374819D01*
X356386Y344212D02*
X359291Y347117D01*
X379298Y334820D02*
X424866Y380387D01*
X380118Y520522D02*
X416311Y484330D01*
X416311Y383455D02*
X416311Y484330D01*
X375427Y342572D02*
X416311Y383455D01*
X384174Y523066D02*
X420588Y486652D01*
Y382982D02*
Y486652D01*
X376397Y338791D02*
X420588Y382982D01*
X388559Y524593D02*
X424866Y488286D01*
X424866Y380387D02*
X424866Y488286D01*
X380118Y520522D02*
Y576508D01*
X384174Y523066D02*
Y574828D01*
X388559Y524593D02*
Y573012D01*
X402901Y392989D02*
X402901Y477388D01*
X367613Y512675D02*
X402901Y477388D01*
X367613Y512675D02*
Y586012D01*
X397539Y398127D02*
X397539Y475874D01*
X362252Y511161D02*
X397539Y475874D01*
X362252Y511161D02*
Y587376D01*
X393311Y400209D02*
X393311Y472814D01*
X355252Y510873D02*
X393311Y472814D01*
X355252Y510873D02*
Y601988D01*
X387546Y591426D02*
Y610012D01*
X376524Y580405D02*
X387546Y591426D01*
X391282Y587672D02*
Y609170D01*
X380118Y576508D02*
X391282Y587672D01*
X384174Y574828D02*
X395765Y586419D01*
X400677Y593052D02*
X453923Y646299D01*
X400677Y585129D02*
Y593052D01*
X388559Y573012D02*
X400677Y585129D01*
X376524Y517507D02*
Y580405D01*
X383590Y594089D02*
Y611427D01*
X372034Y582533D02*
X383590Y594089D01*
X372034Y515647D02*
Y582533D01*
X380472Y598871D02*
Y613353D01*
X367613Y586012D02*
X380472Y598871D01*
X377000Y602124D02*
Y614272D01*
X362252Y587376D02*
X377000Y602124D01*
X273924Y316109D02*
X289023Y331209D01*
X240527Y316109D02*
X273924D01*
X289023Y331209D02*
X290894D01*
X290196Y323369D02*
Y326975D01*
X242591Y319476D02*
X273063D01*
X158053Y377663D02*
Y482241D01*
X153950Y484455D02*
X194216Y524721D01*
X136907Y490634D02*
X186227Y539954D01*
X158053Y482241D02*
X196644Y520831D01*
X198522Y517075D02*
X256653D01*
X196644Y520831D02*
X254355D01*
X194216Y524721D02*
X251588D01*
X191180Y528173D02*
X248893D01*
X150113Y487107D02*
X191180Y528173D01*
X189643Y531759D02*
X245478D01*
X146294Y488410D02*
X189643Y531759D01*
X254355Y520831D02*
X384816Y651293D01*
X248893Y528173D02*
X377730Y657011D01*
X245478Y531759D02*
X375368Y661650D01*
X256653Y517075D02*
X389540Y649962D01*
X384816Y651293D02*
Y691339D01*
X382454Y655588D02*
Y688189D01*
X251588Y524721D02*
X382454Y655588D01*
X375368Y661650D02*
Y688189D01*
X377730Y657011D02*
Y691339D01*
X448558Y306594D02*
X453124D01*
X453218Y306500D01*
X422180Y203427D02*
Y212015D01*
X404860Y186107D02*
X422180Y203427D01*
X404860Y180145D02*
Y186107D01*
X436663Y164231D02*
Y169323D01*
Y164231D02*
X440426Y160468D01*
X458965D01*
X542947Y467823D02*
Y471575D01*
X522874Y491648D02*
X542947Y471575D01*
X477794Y491648D02*
X522874D01*
X479028Y495047D02*
X524548D01*
X542947Y467823D02*
X542970Y467799D01*
X562029Y460882D02*
X749233Y460882D01*
X560522Y462390D02*
X562029Y460882D01*
X555638Y462390D02*
X560522D01*
X802936Y239714D02*
X995503D01*
X999913Y227191D02*
Y235303D01*
X995503Y239714D02*
X999913Y235303D01*
X389540Y649962D02*
Y688189D01*
X495831Y691339D02*
Y691532D01*
X466583Y279530D02*
Y298098D01*
X441567Y254514D02*
X466583Y279530D01*
X470525Y277635D02*
Y296930D01*
X443444Y250554D02*
X470525Y277635D01*
X474133Y197889D02*
Y242621D01*
X469562Y202018D02*
Y244741D01*
X452441Y184897D02*
X469562Y202018D01*
X452441Y177032D02*
Y184897D01*
X366768Y177032D02*
X368003Y178267D01*
X552158Y381988D02*
X556629Y377517D01*
Y367981D02*
Y377517D01*
X554400Y365752D02*
X556629Y367981D01*
X472863Y433354D02*
X495349D01*
X450446Y410937D02*
X472863Y433354D01*
X368079Y223372D02*
X405131Y260424D01*
X469330Y382648D02*
Y405097D01*
X482528Y380176D02*
Y393091D01*
X479613Y382146D02*
Y396277D01*
X397736Y259587D02*
Y276232D01*
X368425Y230277D02*
X397736Y259587D01*
X362400Y253248D02*
X377699Y268546D01*
X487752Y165408D02*
Y170413D01*
X492413Y282248D02*
Y341779D01*
X422180Y212015D02*
X492413Y282248D01*
X496130Y279092D02*
Y341453D01*
X427917Y210879D02*
X496130Y279092D01*
X427917Y180476D02*
Y210879D01*
X388434Y167628D02*
Y170466D01*
X396794Y159268D02*
X406709D01*
X388434Y167628D02*
X396794Y159268D01*
X287693Y223372D02*
X368079Y223372D01*
X286782Y230277D02*
X368425Y230277D01*
X224923Y229278D02*
X235169Y239524D01*
X276083Y170435D02*
X287256D01*
X266529Y210023D02*
X286782Y230277D01*
X277639Y213317D02*
X287693Y223372D01*
X236926Y168802D02*
Y180508D01*
X219681Y197753D02*
X236926Y180508D01*
X246575Y177641D02*
X252621D01*
X236436Y187779D02*
X246575Y177641D01*
X236436Y187779D02*
Y197011D01*
X224923Y208524D02*
X236436Y197011D01*
X224923Y208524D02*
Y229278D01*
X453513Y515929D02*
X477794Y491648D01*
X453513Y515929D02*
Y573101D01*
X491621Y596457D02*
X494208Y593869D01*
X482118Y596457D02*
X491621D01*
X463024Y596279D02*
Y607307D01*
X464611Y608895D01*
X462669Y511406D02*
X479028Y495047D01*
X462669Y511406D02*
Y547957D01*
X458697Y551929D02*
X462669Y547957D01*
X458697Y551929D02*
Y591953D01*
X463024Y596279D01*
X474895Y430557D02*
X482528D01*
X453950Y409613D02*
X474895Y430557D01*
X474983Y425456D02*
X482528D01*
X476005Y420929D02*
X482528D01*
X476026Y416986D02*
X482528D01*
X464970Y405930D02*
X476026Y416986D01*
X373583Y342572D02*
X375427D01*
X354394Y338791D02*
X376397D01*
X355812Y356399D02*
X397539Y398127D01*
X353129Y356399D02*
X355812D01*
X353129Y356181D02*
Y356399D01*
X374819Y347117D02*
X411812Y384109D01*
X347970Y356282D02*
X348129Y356441D01*
X411812Y384109D02*
X411812Y482220D01*
X347627Y356441D02*
X348129D01*
X493251Y159909D02*
X508320D01*
X487752Y165408D02*
X493251Y159909D01*
X136166Y177362D02*
X151725D01*
X476806Y406677D02*
X482528D01*
X475437Y411205D02*
X482528D01*
X472840Y402712D02*
X476806Y406677D01*
X469330Y405097D02*
X475437Y411205D01*
X20833Y239325D02*
X31051D01*
X57690Y239666D02*
X60157Y242133D01*
X36801Y239666D02*
X57690D01*
X130862Y182666D02*
X136166Y177362D01*
X130862Y182666D02*
Y234683D01*
X149427Y253248D01*
X181673Y177364D02*
X201673D01*
X177276Y181761D02*
X181673Y177364D01*
X149427Y253248D02*
X362400Y253248D01*
X407321Y389808D02*
Y393337D01*
X377716Y360203D02*
X407321Y389808D01*
X479613Y396277D02*
X480958Y397622D01*
X482528D01*
X519811Y242247D02*
X528753Y233305D01*
X528753Y180343D02*
X528753Y233305D01*
X508320Y159909D02*
X528753Y180343D01*
X514917Y238610D02*
X522023Y231504D01*
X522023Y181393D02*
X522023Y231504D01*
X518101Y177471D02*
X522023Y181393D01*
X463167Y341201D02*
X503955Y381988D01*
X463167Y316450D02*
Y341201D01*
X542449Y369890D02*
X546586Y365752D01*
X453218Y306500D02*
X463167Y316450D01*
X503955Y381988D02*
X552158D01*
X546586Y365752D02*
X554400D01*
X468798Y305661D02*
Y336261D01*
X456979Y293841D02*
X468798Y305661D01*
X546980Y369890D02*
Y371740D01*
X456979Y292267D02*
Y293841D01*
X352500Y177032D02*
X352618D01*
X366768D01*
X420895Y250554D02*
X443444D01*
X337309Y165651D02*
X343362Y159599D01*
X510232Y363831D02*
Y369890D01*
X343362Y159599D02*
X360237Y159598D01*
X377130Y176491D02*
Y206789D01*
X420895Y250554D01*
X360237Y159598D02*
X377130Y176491D01*
X519811Y340697D02*
X537921Y358807D01*
Y369890D01*
X519811Y242247D02*
X519811Y340697D01*
X496130Y341453D02*
X519610Y364933D01*
Y369890D01*
X406709Y159268D02*
X427917Y180476D01*
X474133Y242621D02*
X505169Y273657D01*
X500689Y340531D02*
X524295Y364138D01*
X500689Y275868D02*
Y340531D01*
X524295Y364138D02*
Y369890D01*
X469562Y244741D02*
X500689Y275868D01*
X514803Y364169D02*
Y369890D01*
X492413Y341779D02*
X514803Y364169D01*
X407321Y393337D02*
X407321Y480360D01*
X288425Y334839D02*
X290894D01*
X273063Y319476D02*
X288425Y334839D01*
X376524Y517507D02*
X411812Y482220D01*
X372034Y515647D02*
X407321Y480360D01*
X835530Y655486D02*
X841243Y649773D01*
X821918Y655486D02*
X835530D01*
X1058004Y208413D02*
X1127564Y208413D01*
X1132347Y213196D01*
X1126239Y211612D02*
X1131022Y216395D01*
X1143990D02*
X1153339Y225745D01*
X1093429Y369342D02*
X1153339Y309433D01*
M02*
