G04*
G04 #@! TF.GenerationSoftware,Altium Limited,Altium Designer,20.0.13 (296)*
G04*
G04 Layer_Physical_Order=4*
G04 Layer_Color=6736896*
%FSLAX25Y25*%
%MOIN*%
G70*
G01*
G75*
%ADD18C,0.00500*%
%ADD19C,0.00600*%
%ADD21C,0.00598*%
%ADD134C,0.01968*%
%ADD168C,0.06000*%
%ADD169C,0.05512*%
%ADD186C,0.02165*%
%ADD187C,0.01900*%
%ADD198C,0.00980*%
%ADD200C,0.00400*%
%ADD201C,0.00400*%
G36*
X208832Y811961D02*
X208321Y811960D01*
X207040Y811889D01*
X206697Y811841D01*
X206396Y811782D01*
X206138Y811712D01*
X205921Y811629D01*
X205747Y811535D01*
X205614Y811430D01*
X205331Y811713D01*
X205437Y811845D01*
X205531Y812020D01*
X205613Y812236D01*
X205684Y812495D01*
X205743Y812796D01*
X205790Y813139D01*
X205849Y813951D01*
X205862Y814931D01*
X208832Y811961D01*
D02*
G37*
G36*
X203988Y814420D02*
X204060Y813139D01*
X204107Y812796D01*
X204166Y812495D01*
X204237Y812236D01*
X204319Y812020D01*
X204413Y811845D01*
X204519Y811713D01*
X204236Y811430D01*
X204103Y811535D01*
X203929Y811629D01*
X203712Y811712D01*
X203453Y811782D01*
X203153Y811841D01*
X202810Y811889D01*
X201998Y811948D01*
X201018Y811961D01*
X203988Y814931D01*
X203988Y814420D01*
D02*
G37*
G36*
X193084Y811961D02*
X192573Y811960D01*
X191292Y811889D01*
X190949Y811841D01*
X190648Y811782D01*
X190390Y811712D01*
X190173Y811629D01*
X189998Y811535D01*
X189866Y811430D01*
X189583Y811713D01*
X189689Y811845D01*
X189783Y812020D01*
X189865Y812236D01*
X189936Y812495D01*
X189995Y812796D01*
X190042Y813139D01*
X190101Y813951D01*
X190114Y814931D01*
X193084Y811961D01*
D02*
G37*
G36*
X188240Y814420D02*
X188312Y813139D01*
X188359Y812796D01*
X188418Y812495D01*
X188489Y812236D01*
X188571Y812020D01*
X188665Y811845D01*
X188771Y811713D01*
X188488Y811430D01*
X188355Y811535D01*
X188181Y811629D01*
X187964Y811712D01*
X187705Y811782D01*
X187405Y811841D01*
X187062Y811889D01*
X186250Y811948D01*
X185270Y811961D01*
X188240Y814931D01*
X188240Y814420D01*
D02*
G37*
G36*
X177336Y811961D02*
X176825Y811960D01*
X175544Y811889D01*
X175201Y811841D01*
X174900Y811782D01*
X174642Y811712D01*
X174425Y811629D01*
X174250Y811535D01*
X174118Y811430D01*
X173835Y811713D01*
X173941Y811845D01*
X174035Y812020D01*
X174117Y812236D01*
X174188Y812495D01*
X174247Y812796D01*
X174294Y813139D01*
X174353Y813951D01*
X174366Y814931D01*
X177336Y811961D01*
D02*
G37*
G36*
X172492Y814420D02*
X172564Y813139D01*
X172611Y812796D01*
X172670Y812495D01*
X172741Y812236D01*
X172823Y812020D01*
X172917Y811845D01*
X173023Y811713D01*
X172740Y811430D01*
X172607Y811535D01*
X172433Y811629D01*
X172216Y811712D01*
X171957Y811782D01*
X171657Y811841D01*
X171314Y811889D01*
X170502Y811948D01*
X169522Y811961D01*
X172492Y814931D01*
X172492Y814420D01*
D02*
G37*
G36*
X161588Y811961D02*
X161077Y811960D01*
X159796Y811889D01*
X159453Y811841D01*
X159152Y811782D01*
X158894Y811712D01*
X158677Y811629D01*
X158502Y811535D01*
X158370Y811430D01*
X158087Y811713D01*
X158193Y811845D01*
X158287Y812020D01*
X158369Y812236D01*
X158440Y812495D01*
X158499Y812796D01*
X158546Y813139D01*
X158605Y813951D01*
X158618Y814931D01*
X161588Y811961D01*
D02*
G37*
G36*
X156744Y814420D02*
X156816Y813139D01*
X156863Y812796D01*
X156922Y812495D01*
X156993Y812236D01*
X157075Y812020D01*
X157169Y811845D01*
X157275Y811713D01*
X156992Y811430D01*
X156859Y811535D01*
X156685Y811629D01*
X156468Y811712D01*
X156209Y811782D01*
X155909Y811841D01*
X155566Y811889D01*
X154754Y811948D01*
X153774Y811961D01*
X156744Y814931D01*
X156744Y814420D01*
D02*
G37*
G36*
X145840Y811961D02*
X145329Y811960D01*
X144048Y811889D01*
X143705Y811841D01*
X143404Y811782D01*
X143146Y811712D01*
X142929Y811629D01*
X142754Y811535D01*
X142622Y811430D01*
X142339Y811713D01*
X142445Y811845D01*
X142539Y812020D01*
X142621Y812236D01*
X142692Y812495D01*
X142751Y812796D01*
X142798Y813139D01*
X142857Y813951D01*
X142870Y814931D01*
X145840Y811961D01*
D02*
G37*
G36*
X140996Y814420D02*
X141068Y813139D01*
X141115Y812796D01*
X141174Y812495D01*
X141245Y812236D01*
X141327Y812020D01*
X141421Y811845D01*
X141526Y811713D01*
X141244Y811430D01*
X141111Y811535D01*
X140937Y811629D01*
X140720Y811712D01*
X140461Y811782D01*
X140160Y811841D01*
X139818Y811889D01*
X139006Y811948D01*
X138026Y811961D01*
X140996Y814931D01*
X140996Y814420D01*
D02*
G37*
G36*
X130092Y811961D02*
X129581Y811960D01*
X128300Y811889D01*
X127957Y811841D01*
X127656Y811782D01*
X127398Y811712D01*
X127181Y811629D01*
X127006Y811535D01*
X126874Y811430D01*
X126591Y811713D01*
X126697Y811845D01*
X126791Y812020D01*
X126873Y812236D01*
X126944Y812495D01*
X127002Y812796D01*
X127050Y813139D01*
X127109Y813951D01*
X127122Y814931D01*
X130092Y811961D01*
D02*
G37*
G36*
X125248Y814420D02*
X125320Y813139D01*
X125367Y812796D01*
X125426Y812495D01*
X125497Y812236D01*
X125579Y812020D01*
X125673Y811845D01*
X125778Y811713D01*
X125496Y811430D01*
X125363Y811535D01*
X125189Y811629D01*
X124972Y811712D01*
X124713Y811782D01*
X124412Y811841D01*
X124070Y811889D01*
X123258Y811948D01*
X122278Y811961D01*
X125248Y814931D01*
X125248Y814420D01*
D02*
G37*
G36*
X114344Y811961D02*
X113833Y811960D01*
X112552Y811889D01*
X112209Y811841D01*
X111908Y811782D01*
X111650Y811712D01*
X111433Y811629D01*
X111258Y811535D01*
X111126Y811430D01*
X110843Y811713D01*
X110949Y811845D01*
X111042Y812020D01*
X111125Y812236D01*
X111196Y812495D01*
X111254Y812796D01*
X111302Y813139D01*
X111361Y813951D01*
X111374Y814931D01*
X114344Y811961D01*
D02*
G37*
G36*
X109500Y814420D02*
X109572Y813139D01*
X109619Y812796D01*
X109678Y812495D01*
X109748Y812236D01*
X109831Y812020D01*
X109925Y811845D01*
X110030Y811713D01*
X109748Y811430D01*
X109615Y811535D01*
X109441Y811629D01*
X109224Y811712D01*
X108965Y811782D01*
X108664Y811841D01*
X108322Y811889D01*
X107510Y811948D01*
X106530Y811961D01*
X109500Y814931D01*
X109500Y814420D01*
D02*
G37*
G36*
X98596Y811961D02*
X98085Y811960D01*
X96804Y811889D01*
X96461Y811841D01*
X96160Y811782D01*
X95902Y811712D01*
X95685Y811629D01*
X95510Y811535D01*
X95378Y811430D01*
X95095Y811713D01*
X95201Y811845D01*
X95294Y812020D01*
X95377Y812236D01*
X95447Y812495D01*
X95506Y812796D01*
X95554Y813139D01*
X95613Y813951D01*
X95626Y814931D01*
X98596Y811961D01*
D02*
G37*
G36*
X93752Y814420D02*
X93824Y813139D01*
X93871Y812796D01*
X93930Y812495D01*
X94001Y812236D01*
X94083Y812020D01*
X94177Y811845D01*
X94283Y811713D01*
X94000Y811430D01*
X93867Y811535D01*
X93692Y811629D01*
X93476Y811712D01*
X93217Y811782D01*
X92916Y811841D01*
X92573Y811889D01*
X91762Y811948D01*
X90782Y811961D01*
X93752Y814931D01*
X93752Y814420D01*
D02*
G37*
G36*
X82848Y811961D02*
X82337Y811960D01*
X81056Y811889D01*
X80713Y811841D01*
X80412Y811782D01*
X80154Y811712D01*
X79937Y811629D01*
X79762Y811535D01*
X79630Y811430D01*
X79347Y811713D01*
X79453Y811845D01*
X79546Y812020D01*
X79629Y812236D01*
X79699Y812495D01*
X79758Y812796D01*
X79806Y813139D01*
X79865Y813951D01*
X79878Y814931D01*
X82848Y811961D01*
D02*
G37*
G36*
X78004Y814420D02*
X78076Y813139D01*
X78123Y812796D01*
X78182Y812495D01*
X78253Y812236D01*
X78335Y812020D01*
X78429Y811845D01*
X78534Y811713D01*
X78252Y811430D01*
X78119Y811535D01*
X77944Y811629D01*
X77728Y811712D01*
X77469Y811782D01*
X77168Y811841D01*
X76825Y811889D01*
X76014Y811948D01*
X75034Y811961D01*
X78004Y814931D01*
X78004Y814420D01*
D02*
G37*
G36*
X67100Y811961D02*
X66588Y811960D01*
X65308Y811889D01*
X64965Y811841D01*
X64664Y811782D01*
X64405Y811712D01*
X64189Y811629D01*
X64014Y811535D01*
X63882Y811430D01*
X63599Y811713D01*
X63705Y811845D01*
X63798Y812020D01*
X63881Y812236D01*
X63951Y812495D01*
X64010Y812796D01*
X64058Y813139D01*
X64117Y813951D01*
X64130Y814931D01*
X67100Y811961D01*
D02*
G37*
G36*
X62256Y814420D02*
X62328Y813139D01*
X62375Y812796D01*
X62434Y812495D01*
X62504Y812236D01*
X62587Y812020D01*
X62681Y811845D01*
X62786Y811713D01*
X62503Y811430D01*
X62371Y811535D01*
X62196Y811629D01*
X61980Y811712D01*
X61721Y811782D01*
X61420Y811841D01*
X61077Y811889D01*
X60266Y811948D01*
X59286Y811961D01*
X62255Y814931D01*
X62256Y814420D01*
D02*
G37*
G36*
X171934Y789487D02*
X172141Y789309D01*
X172240Y789236D01*
X172335Y789175D01*
X172428Y789124D01*
X172517Y789085D01*
X172604Y789057D01*
X172687Y789041D01*
X172767Y789035D01*
Y788635D01*
X172687Y788629D01*
X172604Y788613D01*
X172517Y788585D01*
X172428Y788546D01*
X172335Y788496D01*
X172240Y788434D01*
X172141Y788362D01*
X172039Y788278D01*
X171827Y788077D01*
Y789593D01*
X171934Y789487D01*
D02*
G37*
G36*
X204675Y788374D02*
X204275Y787774D01*
X204271Y787850D01*
X204259Y787918D01*
X204239Y787978D01*
X204211Y788029D01*
X204175Y788073D01*
X204131Y788109D01*
X204079Y788137D01*
X204019Y788158D01*
X203951Y788169D01*
X203875Y788173D01*
Y788574D01*
X203951Y788578D01*
X204019Y788589D01*
X204079Y788610D01*
X204131Y788637D01*
X204175Y788673D01*
X204211Y788718D01*
X204239Y788769D01*
X204259Y788830D01*
X204271Y788898D01*
X204275Y788974D01*
X204675Y788374D01*
D02*
G37*
G36*
X77441Y789026D02*
X77648Y788847D01*
X77746Y788775D01*
X77842Y788713D01*
X77934Y788663D01*
X78024Y788624D01*
X78110Y788596D01*
X78193Y788579D01*
X78274Y788574D01*
Y788174D01*
X78193Y788168D01*
X78110Y788152D01*
X78024Y788124D01*
X77934Y788085D01*
X77842Y788034D01*
X77746Y787973D01*
X77648Y787900D01*
X77546Y787817D01*
X77333Y787616D01*
Y789132D01*
X77441Y789026D01*
D02*
G37*
G36*
X202994Y789025D02*
X203201Y788847D01*
X203299Y788774D01*
X203395Y788713D01*
X203487Y788663D01*
X203577Y788624D01*
X203663Y788596D01*
X203747Y788579D01*
X203827Y788574D01*
Y788173D01*
X203747Y788168D01*
X203663Y788151D01*
X203577Y788123D01*
X203487Y788084D01*
X203395Y788034D01*
X203299Y787973D01*
X203201Y787900D01*
X203099Y787816D01*
X202886Y787616D01*
Y789131D01*
X202994Y789025D01*
D02*
G37*
G36*
X140053Y788827D02*
X140260Y788649D01*
X140358Y788576D01*
X140454Y788515D01*
X140547Y788465D01*
X140636Y788426D01*
X140722Y788398D01*
X140806Y788381D01*
X140886Y788376D01*
Y787976D01*
X140806Y787970D01*
X140722Y787953D01*
X140636Y787925D01*
X140547Y787886D01*
X140454Y787836D01*
X140358Y787775D01*
X140260Y787702D01*
X140158Y787618D01*
X139945Y787418D01*
Y788933D01*
X140053Y788827D01*
D02*
G37*
G36*
X187344Y786389D02*
X187550Y786211D01*
X187649Y786138D01*
X187744Y786077D01*
X187837Y786027D01*
X187926Y785988D01*
X188013Y785960D01*
X188096Y785943D01*
X188176Y785938D01*
Y785538D01*
X188096Y785532D01*
X188013Y785515D01*
X187926Y785487D01*
X187837Y785448D01*
X187744Y785398D01*
X187649Y785337D01*
X187550Y785264D01*
X187449Y785181D01*
X187236Y784980D01*
Y786495D01*
X187344Y786389D01*
D02*
G37*
G36*
X124507Y786305D02*
X124714Y786127D01*
X124812Y786054D01*
X124908Y785993D01*
X125000Y785943D01*
X125090Y785904D01*
X125176Y785876D01*
X125259Y785859D01*
X125340Y785853D01*
Y785454D01*
X125259Y785448D01*
X125176Y785431D01*
X125090Y785403D01*
X125000Y785364D01*
X124908Y785314D01*
X124812Y785253D01*
X124714Y785180D01*
X124612Y785097D01*
X124399Y784896D01*
Y786411D01*
X124507Y786305D01*
D02*
G37*
G36*
X93208Y786305D02*
X93414Y786127D01*
X93513Y786054D01*
X93608Y785993D01*
X93701Y785943D01*
X93790Y785904D01*
X93877Y785876D01*
X93960Y785859D01*
X94040Y785853D01*
Y785454D01*
X93960Y785448D01*
X93877Y785431D01*
X93790Y785403D01*
X93701Y785364D01*
X93608Y785314D01*
X93513Y785253D01*
X93414Y785180D01*
X93313Y785097D01*
X93100Y784896D01*
Y786411D01*
X93208Y786305D01*
D02*
G37*
G36*
X105175Y786293D02*
X105382Y786115D01*
X105480Y786042D01*
X105576Y785981D01*
X105668Y785931D01*
X105758Y785892D01*
X105844Y785864D01*
X105928Y785847D01*
X106008Y785841D01*
Y785441D01*
X105928Y785436D01*
X105844Y785419D01*
X105758Y785391D01*
X105668Y785352D01*
X105576Y785302D01*
X105480Y785241D01*
X105382Y785168D01*
X105280Y785084D01*
X105068Y784883D01*
Y786399D01*
X105175Y786293D01*
D02*
G37*
G36*
X155794Y786286D02*
X156001Y786107D01*
X156099Y786035D01*
X156195Y785973D01*
X156288Y785923D01*
X156377Y785884D01*
X156463Y785856D01*
X156547Y785839D01*
X156627Y785834D01*
Y785434D01*
X156547Y785428D01*
X156463Y785412D01*
X156377Y785384D01*
X156288Y785345D01*
X156195Y785294D01*
X156099Y785233D01*
X156001Y785160D01*
X155899Y785077D01*
X155687Y784876D01*
Y786392D01*
X155794Y786286D01*
D02*
G37*
G36*
X61664Y786278D02*
X61871Y786099D01*
X61970Y786027D01*
X62065Y785965D01*
X62158Y785915D01*
X62247Y785876D01*
X62334Y785848D01*
X62417Y785832D01*
X62497Y785826D01*
Y785426D01*
X62417Y785420D01*
X62334Y785404D01*
X62247Y785376D01*
X62158Y785337D01*
X62065Y785287D01*
X61970Y785225D01*
X61871Y785153D01*
X61769Y785069D01*
X61557Y784868D01*
Y786384D01*
X61664Y786278D01*
D02*
G37*
G36*
X80304Y777523D02*
X80243Y777603D01*
X80180Y777675D01*
X80113Y777739D01*
X80044Y777794D01*
X79973Y777840D01*
X79898Y777878D01*
X79821Y777908D01*
X79741Y777929D01*
X79659Y777941D01*
X79573Y777946D01*
Y778346D01*
X79659Y778350D01*
X79741Y778363D01*
X79821Y778384D01*
X79898Y778413D01*
X79973Y778451D01*
X80044Y778498D01*
X80113Y778553D01*
X80180Y778616D01*
X80243Y778688D01*
X80304Y778768D01*
Y777523D01*
D02*
G37*
G36*
X206530Y777498D02*
X206422Y777604D01*
X206216Y777783D01*
X206117Y777855D01*
X206021Y777917D01*
X205929Y777967D01*
X205839Y778006D01*
X205753Y778034D01*
X205670Y778051D01*
X205589Y778056D01*
Y778456D01*
X205670Y778462D01*
X205753Y778478D01*
X205839Y778506D01*
X205929Y778546D01*
X206021Y778596D01*
X206117Y778657D01*
X206216Y778730D01*
X206317Y778813D01*
X206530Y779014D01*
Y777498D01*
D02*
G37*
G36*
X143693Y777414D02*
X143585Y777520D01*
X143379Y777699D01*
X143280Y777771D01*
X143184Y777833D01*
X143092Y777883D01*
X143002Y777922D01*
X142916Y777950D01*
X142833Y777967D01*
X142753Y777972D01*
Y778372D01*
X142833Y778378D01*
X142916Y778395D01*
X143002Y778422D01*
X143092Y778461D01*
X143184Y778512D01*
X143280Y778573D01*
X143379Y778646D01*
X143480Y778729D01*
X143693Y778930D01*
Y777414D01*
D02*
G37*
G36*
X113028Y777403D02*
X112920Y777509D01*
X112713Y777688D01*
X112615Y777760D01*
X112519Y777822D01*
X112426Y777872D01*
X112337Y777911D01*
X112251Y777939D01*
X112167Y777955D01*
X112087Y777961D01*
Y778361D01*
X112167Y778367D01*
X112251Y778383D01*
X112337Y778411D01*
X112426Y778450D01*
X112519Y778501D01*
X112615Y778562D01*
X112713Y778634D01*
X112815Y778718D01*
X113028Y778919D01*
Y777403D01*
D02*
G37*
G36*
X175270Y777380D02*
X175162Y777486D01*
X174956Y777664D01*
X174857Y777737D01*
X174762Y777798D01*
X174669Y777848D01*
X174580Y777888D01*
X174493Y777915D01*
X174410Y777932D01*
X174330Y777938D01*
Y778338D01*
X174410Y778343D01*
X174493Y778360D01*
X174580Y778388D01*
X174669Y778427D01*
X174762Y778477D01*
X174857Y778539D01*
X174956Y778611D01*
X175057Y778695D01*
X175270Y778896D01*
Y777380D01*
D02*
G37*
G36*
X127834Y774682D02*
X127727Y774788D01*
X127520Y774967D01*
X127421Y775039D01*
X127326Y775101D01*
X127233Y775151D01*
X127144Y775190D01*
X127058Y775218D01*
X126974Y775235D01*
X126894Y775240D01*
Y775640D01*
X126974Y775646D01*
X127058Y775663D01*
X127144Y775691D01*
X127233Y775730D01*
X127326Y775780D01*
X127421Y775841D01*
X127520Y775914D01*
X127622Y775997D01*
X127834Y776198D01*
Y774682D01*
D02*
G37*
G36*
X65209Y774494D02*
X65101Y774600D01*
X64895Y774779D01*
X64796Y774852D01*
X64701Y774913D01*
X64608Y774963D01*
X64519Y775002D01*
X64432Y775030D01*
X64349Y775047D01*
X64269Y775052D01*
Y775452D01*
X64349Y775458D01*
X64432Y775475D01*
X64519Y775502D01*
X64608Y775542D01*
X64701Y775592D01*
X64796Y775653D01*
X64895Y775726D01*
X64997Y775809D01*
X65209Y776010D01*
Y774494D01*
D02*
G37*
G36*
X159874Y774221D02*
X159767Y774327D01*
X159560Y774506D01*
X159462Y774578D01*
X159366Y774639D01*
X159274Y774690D01*
X159184Y774729D01*
X159098Y774757D01*
X159014Y774773D01*
X158934Y774779D01*
Y775179D01*
X159014Y775184D01*
X159098Y775201D01*
X159184Y775229D01*
X159274Y775268D01*
X159366Y775318D01*
X159462Y775380D01*
X159560Y775452D01*
X159662Y775536D01*
X159874Y775737D01*
Y774221D01*
D02*
G37*
G36*
X96842Y774045D02*
X96734Y774151D01*
X96528Y774330D01*
X96429Y774402D01*
X96334Y774464D01*
X96241Y774514D01*
X96152Y774553D01*
X96065Y774581D01*
X95982Y774597D01*
X95902Y774603D01*
Y775003D01*
X95982Y775009D01*
X96065Y775025D01*
X96152Y775053D01*
X96241Y775092D01*
X96334Y775142D01*
X96429Y775204D01*
X96528Y775276D01*
X96630Y775360D01*
X96842Y775561D01*
Y774045D01*
D02*
G37*
G36*
X190508Y773903D02*
X190438Y773990D01*
X190366Y774067D01*
X190292Y774136D01*
X190216Y774195D01*
X190138Y774245D01*
X190059Y774286D01*
X189978Y774318D01*
X189895Y774341D01*
X189811Y774355D01*
X189724Y774359D01*
Y774759D01*
X189811Y774764D01*
X189895Y774778D01*
X189978Y774800D01*
X190059Y774832D01*
X190138Y774873D01*
X190216Y774924D01*
X190292Y774983D01*
X190366Y775051D01*
X190438Y775129D01*
X190508Y775215D01*
Y773903D01*
D02*
G37*
G36*
X385487Y690475D02*
X385409Y690385D01*
X385340Y690294D01*
X385281Y690203D01*
X385230Y690112D01*
X385189Y690020D01*
X385157Y689928D01*
X385134Y689835D01*
X385121Y689742D01*
X385116Y689649D01*
X384516D01*
X384511Y689742D01*
X384498Y689835D01*
X384475Y689928D01*
X384443Y690020D01*
X384401Y690112D01*
X384351Y690203D01*
X384292Y690294D01*
X384223Y690385D01*
X384145Y690475D01*
X384058Y690565D01*
X385574D01*
X385487Y690475D01*
D02*
G37*
G36*
X378401D02*
X378323Y690385D01*
X378254Y690294D01*
X378194Y690203D01*
X378144Y690112D01*
X378103Y690020D01*
X378071Y689928D01*
X378048Y689835D01*
X378034Y689742D01*
X378030Y689649D01*
X377430D01*
X377425Y689742D01*
X377411Y689835D01*
X377389Y689928D01*
X377356Y690020D01*
X377315Y690112D01*
X377265Y690203D01*
X377205Y690294D01*
X377137Y690385D01*
X377059Y690475D01*
X376972Y690565D01*
X378487D01*
X378401Y690475D01*
D02*
G37*
G36*
X371315D02*
X371237Y690385D01*
X371169Y690294D01*
X371109Y690203D01*
X371059Y690112D01*
X371018Y690020D01*
X370986Y689928D01*
X370963Y689835D01*
X370949Y689742D01*
X370944Y689649D01*
X370344D01*
X370340Y689742D01*
X370326Y689835D01*
X370303Y689928D01*
X370271Y690020D01*
X370230Y690112D01*
X370180Y690203D01*
X370120Y690294D01*
X370051Y690385D01*
X369974Y690475D01*
X369887Y690565D01*
X371402D01*
X371315Y690475D01*
D02*
G37*
G36*
X390211Y687326D02*
X390133Y687235D01*
X390065Y687145D01*
X390005Y687054D01*
X389955Y686962D01*
X389914Y686870D01*
X389882Y686778D01*
X389859Y686686D01*
X389845Y686592D01*
X389840Y686499D01*
X389240D01*
X389236Y686592D01*
X389222Y686686D01*
X389199Y686778D01*
X389167Y686870D01*
X389126Y686962D01*
X389075Y687054D01*
X389016Y687145D01*
X388947Y687235D01*
X388870Y687326D01*
X388783Y687416D01*
X390298D01*
X390211Y687326D01*
D02*
G37*
G36*
X383125D02*
X383047Y687235D01*
X382978Y687145D01*
X382919Y687054D01*
X382868Y686962D01*
X382827Y686870D01*
X382795Y686778D01*
X382772Y686686D01*
X382758Y686592D01*
X382754Y686499D01*
X382154D01*
X382149Y686592D01*
X382135Y686686D01*
X382113Y686778D01*
X382081Y686870D01*
X382039Y686962D01*
X381989Y687054D01*
X381929Y687145D01*
X381861Y687235D01*
X381783Y687326D01*
X381696Y687416D01*
X383212D01*
X383125Y687326D01*
D02*
G37*
G36*
X376039D02*
X375961Y687235D01*
X375893Y687145D01*
X375833Y687054D01*
X375783Y686962D01*
X375742Y686870D01*
X375710Y686778D01*
X375687Y686686D01*
X375673Y686592D01*
X375669Y686499D01*
X375068D01*
X375064Y686592D01*
X375050Y686686D01*
X375027Y686778D01*
X374995Y686870D01*
X374954Y686962D01*
X374904Y687054D01*
X374844Y687145D01*
X374775Y687235D01*
X374698Y687326D01*
X374611Y687416D01*
X376126D01*
X376039Y687326D01*
D02*
G37*
G36*
X368978D02*
X368900Y687235D01*
X368831Y687145D01*
X368772Y687054D01*
X368722Y686962D01*
X368680Y686870D01*
X368648Y686778D01*
X368625Y686686D01*
X368612Y686592D01*
X368607Y686499D01*
X368007D01*
X368003Y686592D01*
X367989Y686686D01*
X367966Y686778D01*
X367934Y686870D01*
X367893Y686962D01*
X367842Y687054D01*
X367783Y687145D01*
X367714Y687235D01*
X367636Y687326D01*
X367549Y687416D01*
X369065D01*
X368978Y687326D01*
D02*
G37*
G36*
X454220Y572272D02*
X454174Y572210D01*
X454134Y572141D01*
X454099Y572067D01*
X454070Y571986D01*
X454046Y571898D01*
X454027Y571805D01*
X454014Y571705D01*
X454006Y571598D01*
X454003Y571486D01*
X453023D01*
X453020Y571598D01*
X452999Y571805D01*
X452980Y571898D01*
X452956Y571986D01*
X452926Y572067D01*
X452892Y572141D01*
X452851Y572210D01*
X452806Y572272D01*
X452755Y572327D01*
X454271D01*
X454220Y572272D01*
D02*
G37*
G36*
X260905Y422631D02*
X260827Y422541D01*
X260758Y422450D01*
X260698Y422359D01*
X260648Y422267D01*
X260607Y422175D01*
X260575Y422083D01*
X260552Y421990D01*
X260538Y421898D01*
X260534Y421804D01*
X259934D01*
X259929Y421898D01*
X259915Y421990D01*
X259892Y422083D01*
X259860Y422175D01*
X259819Y422267D01*
X259769Y422359D01*
X259709Y422450D01*
X259641Y422541D01*
X259563Y422631D01*
X259476Y422721D01*
X260992D01*
X260905Y422631D01*
D02*
G37*
G36*
X256537D02*
X256459Y422541D01*
X256391Y422450D01*
X256331Y422359D01*
X256281Y422267D01*
X256239Y422175D01*
X256207Y422083D01*
X256184Y421990D01*
X256171Y421898D01*
X256166Y421804D01*
X255566D01*
X255561Y421898D01*
X255548Y421990D01*
X255525Y422083D01*
X255493Y422175D01*
X255452Y422267D01*
X255401Y422359D01*
X255342Y422450D01*
X255273Y422541D01*
X255195Y422631D01*
X255108Y422721D01*
X256624D01*
X256537Y422631D01*
D02*
G37*
G36*
X341015Y367944D02*
X340925Y368031D01*
X340834Y368109D01*
X340744Y368177D01*
X340653Y368237D01*
X340561Y368287D01*
X340469Y368328D01*
X340377Y368360D01*
X340284Y368383D01*
X340191Y368397D01*
X340098Y368402D01*
Y369002D01*
X340191Y369006D01*
X340284Y369020D01*
X340377Y369043D01*
X340469Y369075D01*
X340561Y369116D01*
X340653Y369166D01*
X340744Y369226D01*
X340834Y369295D01*
X340925Y369373D01*
X341015Y369460D01*
Y367944D01*
D02*
G37*
G36*
X343727Y365042D02*
X343637Y365129D01*
X343547Y365207D01*
X343456Y365275D01*
X343365Y365335D01*
X343274Y365385D01*
X343182Y365426D01*
X343090Y365458D01*
X342997Y365481D01*
X342904Y365495D01*
X342811Y365500D01*
Y366100D01*
X342904Y366104D01*
X342997Y366118D01*
X343090Y366141D01*
X343182Y366173D01*
X343274Y366214D01*
X343365Y366265D01*
X343456Y366324D01*
X343547Y366393D01*
X343637Y366471D01*
X343727Y366558D01*
Y365042D01*
D02*
G37*
G36*
X294678Y358104D02*
X294595Y358194D01*
X294510Y358275D01*
X294424Y358346D01*
X294336Y358407D01*
X294248Y358459D01*
X294158Y358502D01*
X294067Y358535D01*
X293975Y358559D01*
X293882Y358573D01*
X293787Y358578D01*
X293822Y359178D01*
X293914Y359182D01*
X294006Y359195D01*
X294099Y359217D01*
X294193Y359248D01*
X294286Y359288D01*
X294381Y359336D01*
X294475Y359393D01*
X294570Y359459D01*
X294666Y359534D01*
X294762Y359617D01*
X294678Y358104D01*
D02*
G37*
G36*
X378016Y357429D02*
X378021Y357337D01*
X378034Y357244D01*
X378056Y357151D01*
X378088Y357058D01*
X378128Y356965D01*
X378177Y356871D01*
X378235Y356778D01*
X378301Y356684D01*
X378377Y356590D01*
X378462Y356496D01*
X376947Y356554D01*
X377036Y356640D01*
X377116Y356726D01*
X377186Y356814D01*
X377247Y356902D01*
X377299Y356992D01*
X377341Y357082D01*
X377374Y357173D01*
X377397Y357266D01*
X377412Y357359D01*
X377416Y357453D01*
X378016Y357429D01*
D02*
G37*
G36*
X290960Y355943D02*
X290854Y356020D01*
X290648Y356149D01*
X290547Y356202D01*
X290449Y356246D01*
X290352Y356283D01*
X290257Y356311D01*
X290164Y356331D01*
X290073Y356343D01*
X289983Y356347D01*
X289891Y356947D01*
X289987Y356952D01*
X290081Y356967D01*
X290172Y356992D01*
X290261Y357027D01*
X290347Y357071D01*
X290430Y357126D01*
X290511Y357190D01*
X290590Y357264D01*
X290666Y357348D01*
X290739Y357442D01*
X290960Y355943D01*
D02*
G37*
G36*
X348473Y357132D02*
X348566Y357056D01*
X348659Y356988D01*
X348752Y356929D01*
X348845Y356880D01*
X348937Y356839D01*
X349030Y356808D01*
X349123Y356785D01*
X349216Y356772D01*
X349308Y356767D01*
X349324Y356169D01*
X349230Y356164D01*
X349137Y356150D01*
X349045Y356127D01*
X348953Y356094D01*
X348862Y356052D01*
X348772Y356001D01*
X348683Y355940D01*
X348594Y355870D01*
X348506Y355791D01*
X348419Y355703D01*
X348380Y357218D01*
X348473Y357132D01*
D02*
G37*
G36*
X353992Y357070D02*
X354082Y356992D01*
X354173Y356924D01*
X354264Y356864D01*
X354356Y356814D01*
X354448Y356772D01*
X354540Y356740D01*
X354632Y356717D01*
X354726Y356704D01*
X354819Y356699D01*
Y356099D01*
X354726Y356095D01*
X354632Y356081D01*
X354540Y356058D01*
X354448Y356026D01*
X354356Y355985D01*
X354264Y355934D01*
X354173Y355875D01*
X354082Y355806D01*
X353992Y355728D01*
X353902Y355641D01*
Y357157D01*
X353992Y357070D01*
D02*
G37*
G36*
X296000Y353741D02*
X295960Y353704D01*
X295925Y353660D01*
X295894Y353610D01*
X295868Y353554D01*
X295847Y353490D01*
X295831Y353420D01*
X295819Y353344D01*
X295812Y353260D01*
X295810Y353170D01*
X295210D01*
X295207Y353260D01*
X295200Y353344D01*
X295188Y353420D01*
X295172Y353490D01*
X295151Y353554D01*
X295125Y353610D01*
X295094Y353660D01*
X295059Y353704D01*
X295019Y353741D01*
X294974Y353771D01*
X296045D01*
X296000Y353741D01*
D02*
G37*
G36*
X274719Y350786D02*
X274629Y350873D01*
X274539Y350951D01*
X274448Y351019D01*
X274357Y351079D01*
X274265Y351129D01*
X274173Y351170D01*
X274081Y351203D01*
X273989Y351225D01*
X273896Y351239D01*
X273802Y351244D01*
Y351844D01*
X273896Y351848D01*
X273989Y351862D01*
X274081Y351885D01*
X274173Y351917D01*
X274265Y351958D01*
X274357Y352009D01*
X274448Y352068D01*
X274539Y352137D01*
X274629Y352215D01*
X274719Y352302D01*
Y350786D01*
D02*
G37*
G36*
X353129Y351904D02*
X353219Y351826D01*
X353310Y351757D01*
X353400Y351697D01*
X353492Y351647D01*
X353584Y351606D01*
X353676Y351574D01*
X353768Y351551D01*
X353861Y351537D01*
X353955Y351532D01*
X353953Y350932D01*
X353859Y350928D01*
X353766Y350914D01*
X353674Y350891D01*
X353581Y350859D01*
X353489Y350818D01*
X353398Y350768D01*
X353306Y350709D01*
X353215Y350640D01*
X353125Y350562D01*
X353034Y350476D01*
X353040Y351991D01*
X353129Y351904D01*
D02*
G37*
G36*
X354103Y344902D02*
X354185Y344820D01*
X354268Y344748D01*
X354353Y344685D01*
X354440Y344632D01*
X354528Y344589D01*
X354618Y344555D01*
X354710Y344531D01*
X354804Y344516D01*
X354899Y344512D01*
X354843Y343912D01*
X354752Y343907D01*
X354660Y343894D01*
X354567Y343873D01*
X354473Y343843D01*
X354378Y343805D01*
X354282Y343758D01*
X354185Y343702D01*
X354087Y343638D01*
X353989Y343565D01*
X353889Y343484D01*
X354023Y344994D01*
X354103Y344902D01*
D02*
G37*
G36*
X374446Y343243D02*
X374536Y343165D01*
X374627Y343096D01*
X374718Y343037D01*
X374809Y342986D01*
X374901Y342945D01*
X374993Y342913D01*
X375086Y342890D01*
X375179Y342877D01*
X375272Y342872D01*
Y342272D01*
X375179Y342267D01*
X375086Y342254D01*
X374993Y342231D01*
X374901Y342199D01*
X374809Y342157D01*
X374718Y342107D01*
X374627Y342048D01*
X374536Y341979D01*
X374446Y341901D01*
X374356Y341814D01*
Y343330D01*
X374446Y343243D01*
D02*
G37*
G36*
X355257Y339462D02*
X355348Y339384D01*
X355438Y339315D01*
X355529Y339256D01*
X355621Y339205D01*
X355713Y339164D01*
X355805Y339132D01*
X355898Y339109D01*
X355991Y339095D01*
X356084Y339091D01*
Y338491D01*
X355991Y338486D01*
X355898Y338473D01*
X355805Y338450D01*
X355713Y338418D01*
X355621Y338376D01*
X355529Y338326D01*
X355438Y338266D01*
X355348Y338198D01*
X355257Y338120D01*
X355167Y338033D01*
Y339549D01*
X355257Y339462D01*
D02*
G37*
G36*
X378641Y335365D02*
X378691Y335314D01*
X378746Y335268D01*
X378807Y335229D01*
X378875Y335195D01*
X378948Y335168D01*
X379027Y335147D01*
X379111Y335132D01*
X379202Y335123D01*
X379298Y335120D01*
Y334520D01*
X379202Y334517D01*
X379111Y334507D01*
X379027Y334492D01*
X378948Y334471D01*
X378875Y334444D01*
X378807Y334411D01*
X378746Y334371D01*
X378691Y334326D01*
X378641Y334274D01*
X378598Y334216D01*
Y335423D01*
X378641Y335365D01*
D02*
G37*
G36*
X290121Y334081D02*
X290031Y334168D01*
X289940Y334245D01*
X289849Y334314D01*
X289758Y334374D01*
X289667Y334424D01*
X289575Y334465D01*
X289483Y334497D01*
X289390Y334520D01*
X289297Y334534D01*
X289204Y334539D01*
Y335139D01*
X289297Y335143D01*
X289390Y335157D01*
X289483Y335180D01*
X289575Y335212D01*
X289667Y335253D01*
X289758Y335303D01*
X289849Y335363D01*
X289940Y335432D01*
X290031Y335509D01*
X290121Y335596D01*
Y334081D01*
D02*
G37*
G36*
Y330451D02*
X290031Y330538D01*
X289940Y330616D01*
X289849Y330684D01*
X289758Y330744D01*
X289667Y330794D01*
X289575Y330835D01*
X289483Y330867D01*
X289390Y330890D01*
X289297Y330904D01*
X289204Y330909D01*
Y331509D01*
X289297Y331513D01*
X289390Y331527D01*
X289483Y331550D01*
X289575Y331582D01*
X289667Y331623D01*
X289758Y331674D01*
X289849Y331733D01*
X289940Y331802D01*
X290031Y331879D01*
X290121Y331966D01*
Y330451D01*
D02*
G37*
G36*
X290867Y326112D02*
X290789Y326021D01*
X290720Y325931D01*
X290661Y325839D01*
X290610Y325748D01*
X290569Y325656D01*
X290537Y325564D01*
X290514Y325471D01*
X290500Y325378D01*
X290496Y325285D01*
X289896D01*
X289891Y325378D01*
X289877Y325471D01*
X289855Y325564D01*
X289822Y325656D01*
X289781Y325748D01*
X289731Y325839D01*
X289671Y325931D01*
X289603Y326021D01*
X289525Y326112D01*
X289438Y326202D01*
X290954D01*
X290867Y326112D01*
D02*
G37*
G36*
X449421Y307264D02*
X449511Y307187D01*
X449602Y307118D01*
X449693Y307058D01*
X449785Y307008D01*
X449877Y306966D01*
X449969Y306934D01*
X450061Y306911D01*
X450154Y306897D01*
X450248Y306893D01*
Y306294D01*
X450154Y306290D01*
X450061Y306276D01*
X449969Y306253D01*
X449877Y306221D01*
X449785Y306180D01*
X449693Y306129D01*
X449602Y306070D01*
X449511Y306001D01*
X449421Y305923D01*
X449331Y305836D01*
Y307352D01*
X449421Y307264D01*
D02*
G37*
G36*
X37664Y240337D02*
X37755Y240259D01*
X37845Y240190D01*
X37936Y240130D01*
X38028Y240080D01*
X38120Y240039D01*
X38212Y240007D01*
X38305Y239984D01*
X38398Y239970D01*
X38491Y239965D01*
Y239367D01*
X38398Y239362D01*
X38305Y239349D01*
X38212Y239326D01*
X38120Y239294D01*
X38028Y239252D01*
X37936Y239202D01*
X37845Y239142D01*
X37755Y239073D01*
X37664Y238996D01*
X37574Y238908D01*
Y240424D01*
X37664Y240337D01*
D02*
G37*
G36*
X21696Y239996D02*
X21787Y239918D01*
X21877Y239849D01*
X21969Y239789D01*
X22060Y239739D01*
X22152Y239698D01*
X22244Y239666D01*
X22337Y239643D01*
X22430Y239629D01*
X22523Y239624D01*
Y239026D01*
X22430Y239021D01*
X22337Y239007D01*
X22244Y238985D01*
X22152Y238952D01*
X22060Y238911D01*
X21969Y238861D01*
X21877Y238801D01*
X21787Y238732D01*
X21696Y238654D01*
X21606Y238567D01*
Y240083D01*
X21696Y239996D01*
D02*
G37*
G36*
X405164Y181742D02*
X405178Y181649D01*
X405201Y181556D01*
X405233Y181464D01*
X405274Y181372D01*
X405324Y181281D01*
X405384Y181190D01*
X405453Y181099D01*
X405531Y181008D01*
X405618Y180918D01*
X404102D01*
X404189Y181008D01*
X404267Y181099D01*
X404336Y181190D01*
X404396Y181281D01*
X404446Y181372D01*
X404488Y181464D01*
X404520Y181556D01*
X404542Y181649D01*
X404556Y181742D01*
X404561Y181835D01*
X405159D01*
X405164Y181742D01*
D02*
G37*
G36*
X452744Y178628D02*
X452758Y178535D01*
X452781Y178443D01*
X452813Y178351D01*
X452854Y178259D01*
X452905Y178167D01*
X452965Y178076D01*
X453033Y177985D01*
X453111Y177895D01*
X453198Y177805D01*
X451683D01*
X451770Y177895D01*
X451848Y177985D01*
X451917Y178076D01*
X451976Y178167D01*
X452027Y178259D01*
X452068Y178351D01*
X452100Y178443D01*
X452123Y178535D01*
X452137Y178628D01*
X452141Y178722D01*
X452740D01*
X452744Y178628D01*
D02*
G37*
G36*
X251848Y176883D02*
X251758Y176970D01*
X251667Y177048D01*
X251576Y177117D01*
X251485Y177176D01*
X251394Y177227D01*
X251302Y177268D01*
X251210Y177300D01*
X251117Y177323D01*
X251024Y177337D01*
X250931Y177341D01*
Y177940D01*
X251024Y177944D01*
X251117Y177958D01*
X251210Y177981D01*
X251302Y178013D01*
X251394Y178054D01*
X251485Y178105D01*
X251576Y178165D01*
X251667Y178233D01*
X251758Y178311D01*
X251848Y178399D01*
Y176883D01*
D02*
G37*
G36*
X200900Y176606D02*
X200810Y176693D01*
X200719Y176771D01*
X200629Y176840D01*
X200537Y176899D01*
X200446Y176950D01*
X200354Y176991D01*
X200262Y177023D01*
X200169Y177046D01*
X200076Y177060D01*
X199983Y177064D01*
Y177663D01*
X200076Y177667D01*
X200169Y177681D01*
X200262Y177704D01*
X200354Y177736D01*
X200446Y177777D01*
X200537Y177828D01*
X200629Y177887D01*
X200719Y177956D01*
X200810Y178034D01*
X200900Y178121D01*
Y176606D01*
D02*
G37*
G36*
X150952Y176604D02*
X150862Y176691D01*
X150771Y176769D01*
X150681Y176838D01*
X150590Y176897D01*
X150498Y176948D01*
X150406Y176989D01*
X150314Y177021D01*
X150221Y177044D01*
X150128Y177058D01*
X150035Y177062D01*
Y177661D01*
X150128Y177665D01*
X150221Y177679D01*
X150314Y177702D01*
X150406Y177734D01*
X150498Y177776D01*
X150590Y177826D01*
X150681Y177886D01*
X150771Y177954D01*
X150862Y178032D01*
X150952Y178120D01*
Y176604D01*
D02*
G37*
G36*
X301840Y176356D02*
X301750Y176443D01*
X301660Y176521D01*
X301569Y176590D01*
X301478Y176650D01*
X301386Y176700D01*
X301295Y176741D01*
X301202Y176773D01*
X301110Y176796D01*
X301017Y176810D01*
X300924Y176815D01*
Y177413D01*
X301017Y177418D01*
X301110Y177431D01*
X301202Y177454D01*
X301295Y177487D01*
X301386Y177528D01*
X301478Y177578D01*
X301569Y177638D01*
X301660Y177707D01*
X301750Y177785D01*
X301840Y177872D01*
Y176356D01*
D02*
G37*
G36*
X353481Y177702D02*
X353572Y177624D01*
X353663Y177556D01*
X353754Y177496D01*
X353845Y177445D01*
X353937Y177404D01*
X354029Y177372D01*
X354122Y177349D01*
X354215Y177335D01*
X354308Y177331D01*
Y176732D01*
X354215Y176728D01*
X354122Y176714D01*
X354029Y176691D01*
X353937Y176659D01*
X353845Y176618D01*
X353754Y176567D01*
X353663Y176507D01*
X353572Y176439D01*
X353481Y176361D01*
X353391Y176274D01*
Y177789D01*
X353481Y177702D01*
D02*
G37*
G36*
X188225Y169724D02*
X188135Y169811D01*
X188044Y169889D01*
X187953Y169958D01*
X187862Y170017D01*
X187771Y170068D01*
X187679Y170109D01*
X187587Y170141D01*
X187494Y170164D01*
X187401Y170178D01*
X187308Y170182D01*
Y170781D01*
X187401Y170785D01*
X187494Y170799D01*
X187587Y170822D01*
X187679Y170854D01*
X187771Y170896D01*
X187862Y170946D01*
X187953Y171006D01*
X188044Y171074D01*
X188135Y171152D01*
X188225Y171239D01*
Y169724D01*
D02*
G37*
G36*
X286482Y169677D02*
X286392Y169764D01*
X286302Y169842D01*
X286211Y169911D01*
X286120Y169970D01*
X286028Y170021D01*
X285936Y170062D01*
X285844Y170094D01*
X285752Y170117D01*
X285659Y170131D01*
X285565Y170135D01*
Y170734D01*
X285659Y170738D01*
X285752Y170752D01*
X285844Y170775D01*
X285936Y170807D01*
X286028Y170849D01*
X286120Y170899D01*
X286211Y170959D01*
X286302Y171028D01*
X286392Y171105D01*
X286482Y171193D01*
Y169677D01*
D02*
G37*
G36*
X138916Y169605D02*
X138826Y169692D01*
X138736Y169770D01*
X138645Y169839D01*
X138554Y169898D01*
X138462Y169949D01*
X138370Y169990D01*
X138278Y170022D01*
X138185Y170045D01*
X138093Y170059D01*
X137999Y170063D01*
Y170662D01*
X138093Y170667D01*
X138185Y170680D01*
X138278Y170703D01*
X138370Y170735D01*
X138462Y170777D01*
X138554Y170827D01*
X138645Y170887D01*
X138736Y170956D01*
X138826Y171033D01*
X138916Y171121D01*
Y169605D01*
D02*
G37*
G36*
X237230Y170398D02*
X237244Y170306D01*
X237266Y170213D01*
X237298Y170121D01*
X237340Y170029D01*
X237390Y169937D01*
X237450Y169846D01*
X237519Y169755D01*
X237597Y169665D01*
X237684Y169575D01*
X236168D01*
X236255Y169665D01*
X236333Y169755D01*
X236402Y169846D01*
X236462Y169937D01*
X236512Y170029D01*
X236553Y170121D01*
X236585Y170213D01*
X236608Y170306D01*
X236622Y170398D01*
X236627Y170492D01*
X237225D01*
X237230Y170398D01*
D02*
G37*
G36*
X389105Y169603D02*
X389027Y169512D01*
X388958Y169422D01*
X388898Y169330D01*
X388848Y169239D01*
X388807Y169147D01*
X388774Y169055D01*
X388752Y168962D01*
X388738Y168869D01*
X388733Y168776D01*
X388135D01*
X388130Y168869D01*
X388116Y168962D01*
X388093Y169055D01*
X388061Y169147D01*
X388020Y169239D01*
X387970Y169330D01*
X387910Y169422D01*
X387841Y169512D01*
X387763Y169603D01*
X387676Y169693D01*
X389192D01*
X389105Y169603D01*
D02*
G37*
G36*
X437334Y168459D02*
X437256Y168369D01*
X437187Y168278D01*
X437127Y168187D01*
X437077Y168096D01*
X437036Y168004D01*
X437004Y167912D01*
X436981Y167819D01*
X436967Y167726D01*
X436962Y167633D01*
X436364D01*
X436359Y167726D01*
X436345Y167819D01*
X436323Y167912D01*
X436291Y168004D01*
X436249Y168096D01*
X436199Y168187D01*
X436139Y168278D01*
X436070Y168369D01*
X435992Y168459D01*
X435905Y168550D01*
X437421D01*
X437334Y168459D01*
D02*
G37*
G36*
X337980Y168021D02*
X337902Y167931D01*
X337833Y167840D01*
X337774Y167749D01*
X337723Y167657D01*
X337682Y167565D01*
X337650Y167473D01*
X337627Y167381D01*
X337613Y167288D01*
X337609Y167194D01*
X337010D01*
X337005Y167288D01*
X336992Y167381D01*
X336969Y167473D01*
X336937Y167565D01*
X336895Y167657D01*
X336845Y167749D01*
X336785Y167840D01*
X336717Y167931D01*
X336639Y168021D01*
X336551Y168111D01*
X338067D01*
X337980Y168021D01*
D02*
G37*
G36*
X520466Y727875D02*
X520537Y727828D01*
X520617Y727787D01*
X520708Y727751D01*
X520809Y727721D01*
X520920Y727697D01*
X521041Y727678D01*
X521172Y727666D01*
X521464Y727657D01*
X520393Y726586D01*
X520391Y726737D01*
X520372Y727009D01*
X520353Y727130D01*
X520329Y727241D01*
X520299Y727342D01*
X520263Y727433D01*
X520222Y727514D01*
X520175Y727584D01*
X520122Y727645D01*
X520405Y727928D01*
X520466Y727875D01*
D02*
G37*
G36*
X518793Y727645D02*
X518740Y727584D01*
X518693Y727514D01*
X518652Y727433D01*
X518616Y727342D01*
X518586Y727241D01*
X518562Y727130D01*
X518544Y727009D01*
X518531Y726878D01*
X518523Y726586D01*
X517451Y727657D01*
X517602Y727659D01*
X517874Y727678D01*
X517995Y727697D01*
X518106Y727721D01*
X518207Y727751D01*
X518298Y727787D01*
X518379Y727828D01*
X518449Y727875D01*
X518510Y727928D01*
X518793Y727645D01*
D02*
G37*
G36*
X508656Y727875D02*
X508727Y727828D01*
X508807Y727787D01*
X508898Y727751D01*
X508999Y727721D01*
X509110Y727697D01*
X509231Y727678D01*
X509362Y727666D01*
X509655Y727657D01*
X508583Y726586D01*
X508581Y726737D01*
X508562Y727009D01*
X508543Y727130D01*
X508519Y727241D01*
X508489Y727342D01*
X508453Y727433D01*
X508412Y727514D01*
X508365Y727584D01*
X508312Y727645D01*
X508595Y727928D01*
X508656Y727875D01*
D02*
G37*
G36*
X506983Y727645D02*
X506930Y727584D01*
X506883Y727514D01*
X506842Y727433D01*
X506806Y727342D01*
X506776Y727241D01*
X506752Y727130D01*
X506734Y727009D01*
X506721Y726878D01*
X506712Y726586D01*
X505641Y727657D01*
X505792Y727659D01*
X506064Y727678D01*
X506185Y727697D01*
X506296Y727721D01*
X506397Y727751D01*
X506488Y727787D01*
X506569Y727828D01*
X506639Y727875D01*
X506700Y727928D01*
X506983Y727645D01*
D02*
G37*
G36*
X496825Y727875D02*
X496896Y727828D01*
X496977Y727787D01*
X497067Y727751D01*
X497168Y727721D01*
X497279Y727697D01*
X497400Y727678D01*
X497532Y727666D01*
X497824Y727657D01*
X496752Y726586D01*
X496751Y726737D01*
X496731Y727009D01*
X496712Y727130D01*
X496688Y727241D01*
X496658Y727342D01*
X496623Y727433D01*
X496581Y727514D01*
X496534Y727584D01*
X496482Y727645D01*
X496764Y727928D01*
X496825Y727875D01*
D02*
G37*
G36*
X495152Y727645D02*
X495100Y727584D01*
X495052Y727514D01*
X495011Y727433D01*
X494976Y727342D01*
X494946Y727241D01*
X494921Y727130D01*
X494903Y727009D01*
X494890Y726878D01*
X494882Y726586D01*
X493810Y727657D01*
X493961Y727659D01*
X494234Y727678D01*
X494354Y727697D01*
X494465Y727721D01*
X494566Y727751D01*
X494657Y727787D01*
X494738Y727828D01*
X494809Y727875D01*
X494870Y727928D01*
X495152Y727645D01*
D02*
G37*
G36*
X485044Y727875D02*
X485115Y727828D01*
X485196Y727787D01*
X485287Y727751D01*
X485388Y727721D01*
X485499Y727697D01*
X485620Y727678D01*
X485751Y727666D01*
X486043Y727657D01*
X484972Y726586D01*
X484970Y726737D01*
X484950Y727009D01*
X484932Y727130D01*
X484908Y727241D01*
X484878Y727342D01*
X484842Y727433D01*
X484801Y727514D01*
X484754Y727584D01*
X484701Y727645D01*
X484984Y727928D01*
X485044Y727875D01*
D02*
G37*
G36*
X483372Y727645D02*
X483319Y727584D01*
X483272Y727514D01*
X483231Y727433D01*
X483195Y727342D01*
X483165Y727241D01*
X483141Y727130D01*
X483122Y727009D01*
X483110Y726878D01*
X483101Y726586D01*
X482029Y727657D01*
X482181Y727659D01*
X482453Y727678D01*
X482574Y727697D01*
X482685Y727721D01*
X482786Y727751D01*
X482877Y727787D01*
X482958Y727828D01*
X483028Y727875D01*
X483089Y727928D01*
X483372Y727645D01*
D02*
G37*
G36*
X527534Y724253D02*
X527604Y724206D01*
X527685Y724165D01*
X527776Y724129D01*
X527877Y724099D01*
X527988Y724075D01*
X528109Y724056D01*
X528240Y724044D01*
X528533Y724035D01*
X527461Y722964D01*
X527459Y723115D01*
X527440Y723387D01*
X527421Y723508D01*
X527397Y723619D01*
X527367Y723720D01*
X527331Y723811D01*
X527290Y723892D01*
X527243Y723962D01*
X527190Y724023D01*
X527473Y724306D01*
X527534Y724253D01*
D02*
G37*
G36*
X525861Y724023D02*
X525808Y723962D01*
X525761Y723892D01*
X525720Y723811D01*
X525684Y723720D01*
X525654Y723619D01*
X525630Y723508D01*
X525612Y723387D01*
X525599Y723256D01*
X525591Y722964D01*
X524519Y724035D01*
X524670Y724037D01*
X524942Y724056D01*
X525063Y724075D01*
X525174Y724099D01*
X525275Y724129D01*
X525366Y724165D01*
X525447Y724206D01*
X525518Y724253D01*
X525578Y724306D01*
X525861Y724023D01*
D02*
G37*
G36*
X503912Y724253D02*
X503982Y724206D01*
X504063Y724165D01*
X504154Y724129D01*
X504255Y724099D01*
X504366Y724075D01*
X504487Y724056D01*
X504618Y724044D01*
X504910Y724035D01*
X503839Y722964D01*
X503837Y723115D01*
X503818Y723387D01*
X503799Y723508D01*
X503775Y723619D01*
X503745Y723720D01*
X503709Y723811D01*
X503668Y723892D01*
X503621Y723962D01*
X503568Y724023D01*
X503851Y724306D01*
X503912Y724253D01*
D02*
G37*
G36*
X502239Y724023D02*
X502186Y723962D01*
X502139Y723892D01*
X502098Y723811D01*
X502062Y723720D01*
X502032Y723619D01*
X502008Y723508D01*
X501990Y723387D01*
X501977Y723256D01*
X501968Y722964D01*
X500897Y724035D01*
X501048Y724037D01*
X501320Y724056D01*
X501441Y724075D01*
X501552Y724099D01*
X501653Y724129D01*
X501744Y724165D01*
X501825Y724206D01*
X501895Y724253D01*
X501956Y724306D01*
X502239Y724023D01*
D02*
G37*
G36*
X492102Y724253D02*
X492172Y724206D01*
X492253Y724165D01*
X492344Y724129D01*
X492445Y724099D01*
X492556Y724075D01*
X492677Y724056D01*
X492808Y724044D01*
X493100Y724035D01*
X492029Y722964D01*
X492027Y723115D01*
X492008Y723387D01*
X491989Y723508D01*
X491965Y723619D01*
X491935Y723720D01*
X491899Y723811D01*
X491858Y723892D01*
X491811Y723962D01*
X491758Y724023D01*
X492041Y724306D01*
X492102Y724253D01*
D02*
G37*
G36*
X490429Y724023D02*
X490376Y723962D01*
X490329Y723892D01*
X490288Y723811D01*
X490252Y723720D01*
X490222Y723619D01*
X490198Y723508D01*
X490179Y723387D01*
X490167Y723256D01*
X490158Y722964D01*
X489087Y724035D01*
X489238Y724037D01*
X489510Y724056D01*
X489631Y724075D01*
X489742Y724099D01*
X489843Y724129D01*
X489934Y724165D01*
X490015Y724206D01*
X490085Y724253D01*
X490146Y724306D01*
X490429Y724023D01*
D02*
G37*
G36*
X521628Y712915D02*
X521699Y712867D01*
X521780Y712826D01*
X521871Y712790D01*
X521972Y712760D01*
X522083Y712736D01*
X522203Y712718D01*
X522335Y712705D01*
X522627Y712697D01*
X521555Y711625D01*
X521554Y711776D01*
X521534Y712048D01*
X521516Y712170D01*
X521491Y712280D01*
X521461Y712381D01*
X521426Y712472D01*
X521384Y712553D01*
X521337Y712624D01*
X521285Y712684D01*
X521567Y712967D01*
X521628Y712915D01*
D02*
G37*
G36*
X519955Y712684D02*
X519903Y712624D01*
X519856Y712553D01*
X519814Y712472D01*
X519779Y712381D01*
X519749Y712280D01*
X519725Y712170D01*
X519706Y712048D01*
X519693Y711917D01*
X519685Y711625D01*
X518613Y712697D01*
X518764Y712698D01*
X519037Y712718D01*
X519158Y712736D01*
X519269Y712760D01*
X519370Y712790D01*
X519460Y712826D01*
X519541Y712867D01*
X519612Y712915D01*
X519673Y712967D01*
X519955Y712684D01*
D02*
G37*
G36*
X509762Y711143D02*
X509833Y711096D01*
X509914Y711054D01*
X510005Y711019D01*
X510105Y710989D01*
X510216Y710965D01*
X510337Y710946D01*
X510468Y710933D01*
X510761Y710925D01*
X509689Y709853D01*
X509688Y710005D01*
X509668Y710277D01*
X509650Y710398D01*
X509625Y710509D01*
X509595Y710610D01*
X509560Y710701D01*
X509518Y710781D01*
X509471Y710852D01*
X509418Y710913D01*
X509701Y711196D01*
X509762Y711143D01*
D02*
G37*
G36*
X508196Y710913D02*
X508144Y710852D01*
X508097Y710781D01*
X508055Y710701D01*
X508020Y710610D01*
X507990Y710509D01*
X507966Y710398D01*
X507947Y710277D01*
X507934Y710146D01*
X507926Y709853D01*
X506854Y710925D01*
X507005Y710926D01*
X507278Y710946D01*
X507399Y710965D01*
X507510Y710989D01*
X507611Y711019D01*
X507701Y711054D01*
X507782Y711096D01*
X507853Y711143D01*
X507914Y711196D01*
X508196Y710913D01*
D02*
G37*
G36*
X516805Y708682D02*
X516876Y708635D01*
X516957Y708594D01*
X517048Y708558D01*
X517149Y708528D01*
X517260Y708504D01*
X517381Y708486D01*
X517512Y708473D01*
X517804Y708464D01*
X516732Y707393D01*
X516731Y707544D01*
X516711Y707816D01*
X516693Y707937D01*
X516669Y708048D01*
X516639Y708149D01*
X516603Y708240D01*
X516562Y708321D01*
X516515Y708392D01*
X516462Y708452D01*
X516745Y708735D01*
X516805Y708682D01*
D02*
G37*
G36*
X515133Y708452D02*
X515080Y708392D01*
X515033Y708321D01*
X514991Y708240D01*
X514956Y708149D01*
X514926Y708048D01*
X514902Y707937D01*
X514883Y707816D01*
X514871Y707685D01*
X514862Y707393D01*
X513790Y708464D01*
X513942Y708466D01*
X514214Y708486D01*
X514335Y708504D01*
X514446Y708528D01*
X514547Y708558D01*
X514638Y708594D01*
X514718Y708635D01*
X514789Y708682D01*
X514850Y708735D01*
X515133Y708452D01*
D02*
G37*
G36*
X1122655Y701408D02*
X1122190Y701408D01*
X1121022Y701340D01*
X1120709Y701296D01*
X1120433Y701241D01*
X1120196Y701174D01*
X1119996Y701097D01*
X1119835Y701009D01*
X1119711Y700910D01*
X1119429Y701193D01*
X1119528Y701316D01*
X1119616Y701478D01*
X1119693Y701677D01*
X1119759Y701915D01*
X1119814Y702190D01*
X1119859Y702503D01*
X1119915Y703244D01*
X1119927Y704137D01*
X1122655Y701408D01*
D02*
G37*
G36*
X1088040Y698098D02*
X1088000Y698062D01*
X1087964Y698020D01*
X1087933Y697973D01*
X1087907Y697921D01*
X1087886Y697863D01*
X1087870Y697800D01*
X1087858Y697731D01*
X1087851Y697658D01*
X1087848Y697578D01*
X1087348D01*
X1087346Y697658D01*
X1087339Y697731D01*
X1087327Y697800D01*
X1087311Y697863D01*
X1087289Y697921D01*
X1087263Y697973D01*
X1087233Y698020D01*
X1087197Y698062D01*
X1087157Y698098D01*
X1087112Y698129D01*
X1088084D01*
X1088040Y698098D01*
D02*
G37*
G36*
X1132655Y697432D02*
X1132190Y697432D01*
X1131022Y697364D01*
X1130709Y697320D01*
X1130433Y697264D01*
X1130196Y697198D01*
X1129996Y697121D01*
X1129835Y697033D01*
X1129711Y696934D01*
X1129428Y697217D01*
X1129528Y697340D01*
X1129616Y697502D01*
X1129693Y697701D01*
X1129759Y697938D01*
X1129815Y698214D01*
X1129859Y698527D01*
X1129915Y699268D01*
X1129927Y700160D01*
X1132655Y697432D01*
D02*
G37*
G36*
X1087849Y696528D02*
X1087861Y696321D01*
X1087864Y696312D01*
X1087868Y696308D01*
X1087329D01*
X1087333Y696312D01*
X1087336Y696321D01*
X1087339Y696335D01*
X1087341Y696354D01*
X1087345Y696408D01*
X1087348Y696578D01*
X1087848D01*
X1087849Y696528D01*
D02*
G37*
G36*
X1119835Y699327D02*
X1119996Y699239D01*
X1120196Y699162D01*
X1120433Y699096D01*
X1120709Y699040D01*
X1121022Y698996D01*
X1121763Y698940D01*
X1122655Y698928D01*
X1119927Y696200D01*
X1119926Y696665D01*
X1119859Y697833D01*
X1119814Y698146D01*
X1119759Y698422D01*
X1119693Y698659D01*
X1119616Y698858D01*
X1119528Y699020D01*
X1119429Y699144D01*
X1119711Y699426D01*
X1119835Y699327D01*
D02*
G37*
G36*
X564989Y692684D02*
X564838Y692683D01*
X564566Y692663D01*
X564445Y692645D01*
X564334Y692620D01*
X564233Y692590D01*
X564142Y692555D01*
X564061Y692513D01*
X563990Y692466D01*
X563930Y692414D01*
X563647Y692696D01*
X563700Y692757D01*
X563747Y692828D01*
X563788Y692909D01*
X563824Y692999D01*
X563854Y693100D01*
X563878Y693211D01*
X563896Y693332D01*
X563909Y693464D01*
X563917Y693756D01*
X564989Y692684D01*
D02*
G37*
G36*
X562459Y693605D02*
X562479Y693332D01*
X562497Y693211D01*
X562521Y693100D01*
X562551Y692999D01*
X562587Y692909D01*
X562628Y692828D01*
X562675Y692757D01*
X562728Y692696D01*
X562445Y692414D01*
X562385Y692466D01*
X562314Y692513D01*
X562233Y692555D01*
X562142Y692590D01*
X562041Y692620D01*
X561930Y692645D01*
X561809Y692663D01*
X561678Y692676D01*
X561386Y692684D01*
X562458Y693756D01*
X562459Y693605D01*
D02*
G37*
G36*
X591114Y692672D02*
X590963Y692671D01*
X590691Y692651D01*
X590570Y692632D01*
X590459Y692608D01*
X590358Y692578D01*
X590267Y692543D01*
X590186Y692501D01*
X590115Y692454D01*
X590055Y692402D01*
X589772Y692684D01*
X589825Y692745D01*
X589872Y692816D01*
X589913Y692897D01*
X589949Y692987D01*
X589979Y693088D01*
X590003Y693199D01*
X590021Y693320D01*
X590034Y693451D01*
X590042Y693744D01*
X591114Y692672D01*
D02*
G37*
G36*
X588584Y693593D02*
X588604Y693320D01*
X588622Y693199D01*
X588646Y693088D01*
X588676Y692987D01*
X588712Y692897D01*
X588753Y692816D01*
X588800Y692745D01*
X588853Y692684D01*
X588570Y692402D01*
X588510Y692454D01*
X588439Y692501D01*
X588358Y692543D01*
X588267Y692578D01*
X588166Y692608D01*
X588055Y692632D01*
X587934Y692651D01*
X587803Y692664D01*
X587511Y692672D01*
X588583Y693744D01*
X588584Y693593D01*
D02*
G37*
G36*
X1129835Y695351D02*
X1129996Y695263D01*
X1130196Y695186D01*
X1130433Y695119D01*
X1130709Y695064D01*
X1131022Y695020D01*
X1131763Y694964D01*
X1132655Y694951D01*
X1129927Y692223D01*
X1129926Y692689D01*
X1129859Y693856D01*
X1129815Y694170D01*
X1129759Y694445D01*
X1129693Y694683D01*
X1129616Y694882D01*
X1129528Y695044D01*
X1129428Y695167D01*
X1129711Y695450D01*
X1129835Y695351D01*
D02*
G37*
G36*
X1085562Y692025D02*
X1085546Y692009D01*
X1085532Y691988D01*
X1085520Y691961D01*
X1085509Y691928D01*
X1085501Y691889D01*
X1085495Y691845D01*
X1085490Y691794D01*
X1085486Y691677D01*
X1084986D01*
X1084985Y691739D01*
X1084978Y691845D01*
X1084971Y691889D01*
X1084963Y691928D01*
X1084953Y691961D01*
X1084941Y691988D01*
X1084927Y692009D01*
X1084911Y692025D01*
X1084893Y692035D01*
X1085579D01*
X1085562Y692025D01*
D02*
G37*
G36*
X484715Y692454D02*
X484637Y692364D01*
X484569Y692273D01*
X484509Y692182D01*
X484459Y692091D01*
X484418Y691999D01*
X484386Y691906D01*
X484363Y691814D01*
X484349Y691721D01*
X484344Y691627D01*
X483744D01*
X483740Y691721D01*
X483726Y691814D01*
X483703Y691906D01*
X483671Y691999D01*
X483630Y692091D01*
X483580Y692182D01*
X483520Y692273D01*
X483452Y692364D01*
X483374Y692454D01*
X483287Y692544D01*
X484802D01*
X484715Y692454D01*
D02*
G37*
G36*
X1085487Y690612D02*
X1085497Y690500D01*
X1085505Y690453D01*
X1085515Y690411D01*
X1085528Y690375D01*
X1085543Y690345D01*
X1085561Y690321D01*
X1085580Y690303D01*
X1085602Y690290D01*
X1084870D01*
X1084892Y690303D01*
X1084912Y690321D01*
X1084929Y690345D01*
X1084945Y690375D01*
X1084957Y690411D01*
X1084968Y690453D01*
X1084976Y690500D01*
X1084982Y690553D01*
X1084986Y690677D01*
X1085486D01*
X1085487Y690612D01*
D02*
G37*
G36*
X503410Y690475D02*
X503332Y690385D01*
X503263Y690294D01*
X503203Y690203D01*
X503153Y690112D01*
X503112Y690020D01*
X503080Y689928D01*
X503057Y689835D01*
X503043Y689742D01*
X503039Y689649D01*
X502439D01*
X502434Y689742D01*
X502420Y689835D01*
X502397Y689928D01*
X502365Y690020D01*
X502324Y690112D01*
X502274Y690203D01*
X502214Y690294D01*
X502146Y690385D01*
X502068Y690475D01*
X501981Y690565D01*
X503497D01*
X503410Y690475D01*
D02*
G37*
G36*
X496502D02*
X496424Y690385D01*
X496356Y690294D01*
X496296Y690203D01*
X496246Y690112D01*
X496205Y690020D01*
X496173Y689928D01*
X496150Y689835D01*
X496136Y689742D01*
X496132Y689649D01*
X495532D01*
X495527Y689742D01*
X495513Y689835D01*
X495490Y689928D01*
X495458Y690020D01*
X495417Y690112D01*
X495367Y690203D01*
X495307Y690294D01*
X495238Y690385D01*
X495161Y690475D01*
X495074Y690565D01*
X496589D01*
X496502Y690475D01*
D02*
G37*
G36*
X477606D02*
X477528Y690385D01*
X477460Y690294D01*
X477400Y690203D01*
X477350Y690112D01*
X477309Y690020D01*
X477277Y689928D01*
X477254Y689835D01*
X477240Y689742D01*
X477236Y689649D01*
X476636D01*
X476631Y689742D01*
X476617Y689835D01*
X476594Y689928D01*
X476562Y690020D01*
X476521Y690112D01*
X476471Y690203D01*
X476411Y690294D01*
X476342Y690385D01*
X476265Y690475D01*
X476178Y690565D01*
X477693D01*
X477606Y690475D01*
D02*
G37*
G36*
X574364Y689862D02*
X574213Y689861D01*
X573941Y689841D01*
X573820Y689823D01*
X573709Y689798D01*
X573608Y689769D01*
X573517Y689733D01*
X573436Y689692D01*
X573365Y689644D01*
X573305Y689592D01*
X573022Y689875D01*
X573075Y689935D01*
X573122Y690006D01*
X573163Y690087D01*
X573199Y690178D01*
X573229Y690279D01*
X573253Y690390D01*
X573271Y690511D01*
X573284Y690642D01*
X573292Y690934D01*
X574364Y689862D01*
D02*
G37*
G36*
X571834Y690783D02*
X571854Y690511D01*
X571872Y690390D01*
X571896Y690279D01*
X571926Y690178D01*
X571962Y690087D01*
X572003Y690006D01*
X572050Y689935D01*
X572103Y689875D01*
X571820Y689592D01*
X571760Y689644D01*
X571689Y689692D01*
X571608Y689733D01*
X571517Y689769D01*
X571416Y689798D01*
X571305Y689823D01*
X571184Y689841D01*
X571053Y689854D01*
X570761Y689862D01*
X571833Y690934D01*
X571834Y690783D01*
D02*
G37*
G36*
X488367Y690332D02*
X488289Y690242D01*
X488221Y690151D01*
X488161Y690060D01*
X488111Y689968D01*
X488069Y689877D01*
X488037Y689784D01*
X488014Y689692D01*
X488001Y689599D01*
X487996Y689505D01*
X487396D01*
X487392Y689599D01*
X487378Y689692D01*
X487355Y689784D01*
X487323Y689877D01*
X487282Y689968D01*
X487231Y690060D01*
X487172Y690151D01*
X487103Y690242D01*
X487025Y690332D01*
X486938Y690422D01*
X488454D01*
X488367Y690332D01*
D02*
G37*
G36*
X581489Y687894D02*
X581338Y687892D01*
X581066Y687873D01*
X580945Y687854D01*
X580834Y687830D01*
X580733Y687800D01*
X580642Y687765D01*
X580561Y687723D01*
X580490Y687676D01*
X580430Y687623D01*
X580147Y687906D01*
X580200Y687967D01*
X580247Y688037D01*
X580288Y688118D01*
X580324Y688209D01*
X580354Y688310D01*
X580378Y688421D01*
X580396Y688542D01*
X580409Y688673D01*
X580417Y688966D01*
X581489Y687894D01*
D02*
G37*
G36*
X578959Y688814D02*
X578979Y688542D01*
X578997Y688421D01*
X579021Y688310D01*
X579051Y688209D01*
X579087Y688118D01*
X579128Y688037D01*
X579175Y687967D01*
X579228Y687906D01*
X578945Y687623D01*
X578885Y687676D01*
X578814Y687723D01*
X578733Y687765D01*
X578642Y687800D01*
X578541Y687830D01*
X578430Y687854D01*
X578309Y687873D01*
X578178Y687885D01*
X577886Y687894D01*
X578958Y688966D01*
X578959Y688814D01*
D02*
G37*
G36*
X498864Y687326D02*
X498786Y687235D01*
X498717Y687145D01*
X498658Y687054D01*
X498608Y686962D01*
X498566Y686870D01*
X498534Y686778D01*
X498512Y686686D01*
X498498Y686592D01*
X498493Y686499D01*
X497893D01*
X497889Y686592D01*
X497875Y686686D01*
X497852Y686778D01*
X497820Y686870D01*
X497779Y686962D01*
X497728Y687054D01*
X497669Y687145D01*
X497600Y687235D01*
X497522Y687326D01*
X497435Y687416D01*
X498951D01*
X498864Y687326D01*
D02*
G37*
G36*
X479968D02*
X479890Y687235D01*
X479821Y687145D01*
X479762Y687054D01*
X479712Y686962D01*
X479670Y686870D01*
X479638Y686778D01*
X479615Y686686D01*
X479602Y686592D01*
X479597Y686499D01*
X478997D01*
X478993Y686592D01*
X478979Y686686D01*
X478956Y686778D01*
X478924Y686870D01*
X478883Y686962D01*
X478832Y687054D01*
X478773Y687145D01*
X478704Y687235D01*
X478626Y687326D01*
X478539Y687416D01*
X480055D01*
X479968Y687326D01*
D02*
G37*
G36*
X472882Y687326D02*
X472804Y687235D01*
X472735Y687144D01*
X472676Y687053D01*
X472625Y686962D01*
X472584Y686870D01*
X472552Y686778D01*
X472529Y686685D01*
X472515Y686592D01*
X472510Y686499D01*
X471912D01*
X471907Y686592D01*
X471894Y686685D01*
X471871Y686778D01*
X471839Y686870D01*
X471797Y686962D01*
X471747Y687053D01*
X471687Y687144D01*
X471618Y687235D01*
X471540Y687326D01*
X471453Y687416D01*
X472969D01*
X472882Y687326D01*
D02*
G37*
G36*
X1132655Y681448D02*
X1132190Y681447D01*
X1131022Y681380D01*
X1130709Y681335D01*
X1130433Y681280D01*
X1130196Y681214D01*
X1129996Y681137D01*
X1129835Y681048D01*
X1129711Y680949D01*
X1129428Y681232D01*
X1129528Y681356D01*
X1129616Y681517D01*
X1129693Y681717D01*
X1129759Y681954D01*
X1129815Y682230D01*
X1129859Y682543D01*
X1129915Y683284D01*
X1129927Y684176D01*
X1132655Y681448D01*
D02*
G37*
G36*
X1087931Y680788D02*
X1087914Y680771D01*
X1087899Y680748D01*
X1087885Y680720D01*
X1087874Y680686D01*
X1087865Y680646D01*
X1087858Y680601D01*
X1087852Y680549D01*
X1087848Y680429D01*
X1087348D01*
X1087347Y680492D01*
X1087339Y680601D01*
X1087332Y680646D01*
X1087323Y680686D01*
X1087312Y680720D01*
X1087298Y680748D01*
X1087283Y680771D01*
X1087265Y680788D01*
X1087246Y680799D01*
X1087951D01*
X1087931Y680788D01*
D02*
G37*
G36*
X1087850Y679366D02*
X1087858Y679256D01*
X1087866Y679210D01*
X1087875Y679169D01*
X1087887Y679135D01*
X1087901Y679106D01*
X1087917Y679082D01*
X1087935Y679065D01*
X1087955Y679054D01*
X1087242D01*
X1087262Y679065D01*
X1087280Y679082D01*
X1087296Y679106D01*
X1087310Y679135D01*
X1087322Y679169D01*
X1087331Y679210D01*
X1087339Y679256D01*
X1087344Y679308D01*
X1087348Y679429D01*
X1087848D01*
X1087850Y679366D01*
D02*
G37*
G36*
X1122655Y677471D02*
X1122190Y677471D01*
X1121022Y677403D01*
X1120709Y677359D01*
X1120433Y677304D01*
X1120196Y677237D01*
X1119996Y677160D01*
X1119835Y677072D01*
X1119711Y676973D01*
X1119429Y677256D01*
X1119528Y677379D01*
X1119616Y677541D01*
X1119693Y677740D01*
X1119759Y677978D01*
X1119814Y678253D01*
X1119859Y678567D01*
X1119915Y679307D01*
X1119927Y680200D01*
X1122655Y677471D01*
D02*
G37*
G36*
X1129835Y679367D02*
X1129996Y679279D01*
X1130196Y679201D01*
X1130433Y679135D01*
X1130709Y679080D01*
X1131022Y679035D01*
X1131763Y678979D01*
X1132655Y678967D01*
X1129927Y676239D01*
X1129926Y676704D01*
X1129859Y677872D01*
X1129815Y678186D01*
X1129759Y678461D01*
X1129693Y678698D01*
X1129616Y678898D01*
X1129528Y679059D01*
X1129428Y679183D01*
X1129711Y679466D01*
X1129835Y679367D01*
D02*
G37*
G36*
X1085682Y675049D02*
X1085641Y675012D01*
X1085605Y674969D01*
X1085573Y674921D01*
X1085547Y674868D01*
X1085525Y674810D01*
X1085508Y674746D01*
X1085496Y674677D01*
X1085489Y674602D01*
X1085486Y674522D01*
X1084986D01*
X1084984Y674602D01*
X1084976Y674677D01*
X1084964Y674746D01*
X1084947Y674810D01*
X1084926Y674868D01*
X1084899Y674921D01*
X1084868Y674969D01*
X1084832Y675012D01*
X1084790Y675049D01*
X1084744Y675081D01*
X1085728D01*
X1085682Y675049D01*
D02*
G37*
G36*
X1085488Y673453D02*
X1085500Y673331D01*
X1085510Y673279D01*
X1085524Y673233D01*
X1085541Y673193D01*
X1085560Y673158D01*
X1085583Y673129D01*
X1085609Y673106D01*
X1085637Y673090D01*
X1084835D01*
X1084864Y673106D01*
X1084890Y673129D01*
X1084912Y673158D01*
X1084932Y673193D01*
X1084948Y673233D01*
X1084962Y673279D01*
X1084973Y673331D01*
X1084980Y673389D01*
X1084985Y673453D01*
X1084986Y673522D01*
X1085486D01*
X1085488Y673453D01*
D02*
G37*
G36*
X1119835Y675390D02*
X1119996Y675302D01*
X1120196Y675225D01*
X1120433Y675159D01*
X1120709Y675103D01*
X1121022Y675059D01*
X1121763Y675003D01*
X1122655Y674991D01*
X1119927Y672263D01*
X1119926Y672728D01*
X1119859Y673896D01*
X1119814Y674209D01*
X1119759Y674485D01*
X1119693Y674722D01*
X1119616Y674922D01*
X1119528Y675083D01*
X1119429Y675207D01*
X1119711Y675489D01*
X1119835Y675390D01*
D02*
G37*
G36*
X825568Y659411D02*
X825658Y659333D01*
X825749Y659265D01*
X825840Y659205D01*
X825931Y659155D01*
X826023Y659113D01*
X826116Y659081D01*
X826208Y659059D01*
X826301Y659045D01*
X826395Y659040D01*
Y658440D01*
X826301Y658436D01*
X826208Y658422D01*
X826116Y658399D01*
X826023Y658367D01*
X825931Y658326D01*
X825840Y658275D01*
X825749Y658216D01*
X825658Y658147D01*
X825568Y658069D01*
X825478Y657982D01*
Y659498D01*
X825568Y659411D01*
D02*
G37*
G36*
X822781Y656157D02*
X822872Y656079D01*
X822962Y656010D01*
X823053Y655951D01*
X823145Y655900D01*
X823237Y655859D01*
X823329Y655827D01*
X823422Y655804D01*
X823515Y655790D01*
X823608Y655786D01*
Y655186D01*
X823515Y655181D01*
X823422Y655167D01*
X823329Y655145D01*
X823237Y655113D01*
X823145Y655071D01*
X823053Y655021D01*
X822962Y654961D01*
X822872Y654893D01*
X822781Y654815D01*
X822691Y654728D01*
Y656244D01*
X822781Y656157D01*
D02*
G37*
G36*
X465233Y608345D02*
X465220Y608356D01*
X465197Y608367D01*
X465162Y608376D01*
X465116Y608383D01*
X465060Y608390D01*
X464824Y608402D01*
X464611Y608405D01*
Y609385D01*
X464723Y609385D01*
X465162Y609414D01*
X465197Y609423D01*
X465220Y609433D01*
X465233Y609445D01*
Y608345D01*
D02*
G37*
G36*
X482947Y597164D02*
X483009Y597118D01*
X483077Y597078D01*
X483152Y597043D01*
X483233Y597014D01*
X483320Y596989D01*
X483414Y596971D01*
X483514Y596957D01*
X483621Y596949D01*
X483733Y596947D01*
Y595967D01*
X483621Y595964D01*
X483414Y595943D01*
X483320Y595924D01*
X483233Y595900D01*
X483152Y595870D01*
X483077Y595835D01*
X483009Y595795D01*
X482947Y595750D01*
X482891Y595699D01*
Y597215D01*
X482947Y597164D01*
D02*
G37*
G36*
X497839Y556947D02*
X497793Y556885D01*
X497753Y556816D01*
X497718Y556742D01*
X497689Y556661D01*
X497665Y556573D01*
X497646Y556480D01*
X497632Y556380D01*
X497624Y556273D01*
X497622Y556160D01*
X496642D01*
X496639Y556273D01*
X496618Y556480D01*
X496599Y556573D01*
X496575Y556661D01*
X496545Y556742D01*
X496510Y556816D01*
X496470Y556885D01*
X496425Y556947D01*
X496374Y557002D01*
X497890D01*
X497839Y556947D01*
D02*
G37*
G36*
X543440Y469325D02*
X543461Y469118D01*
X543480Y469025D01*
X543504Y468937D01*
X543534Y468856D01*
X543568Y468782D01*
X543609Y468713D01*
X543654Y468651D01*
X543705Y468596D01*
X542189D01*
X542240Y468651D01*
X542286Y468713D01*
X542326Y468782D01*
X542361Y468856D01*
X542390Y468937D01*
X542414Y469025D01*
X542433Y469118D01*
X542446Y469218D01*
X542454Y469325D01*
X542457Y469438D01*
X543437D01*
X543440Y469325D01*
D02*
G37*
G36*
X548256Y468636D02*
X548278Y468430D01*
X548297Y468336D01*
X548321Y468249D01*
X548350Y468168D01*
X548385Y468093D01*
X548425Y468025D01*
X548471Y467963D01*
X548522Y467907D01*
X547006D01*
X547057Y467963D01*
X547102Y468025D01*
X547143Y468093D01*
X547177Y468168D01*
X547207Y468249D01*
X547231Y468336D01*
X547250Y468430D01*
X547263Y468530D01*
X547271Y468636D01*
X547274Y468749D01*
X548254D01*
X548256Y468636D01*
D02*
G37*
G36*
X553750Y466215D02*
X553812Y466169D01*
X553881Y466129D01*
X553955Y466094D01*
X554036Y466065D01*
X554123Y466041D01*
X554217Y466022D01*
X554317Y466009D01*
X554424Y466001D01*
X554536Y465998D01*
X554536Y465018D01*
X554424Y465015D01*
X554217Y464994D01*
X554123Y464975D01*
X554036Y464951D01*
X553955Y464921D01*
X553881Y464887D01*
X553812Y464846D01*
X553750Y464801D01*
X553694Y464750D01*
X553694Y466266D01*
X553750Y466215D01*
D02*
G37*
G36*
X550464Y464821D02*
X550485Y464615D01*
X550504Y464521D01*
X550528Y464434D01*
X550558Y464353D01*
X550593Y464278D01*
X550633Y464210D01*
X550678Y464148D01*
X550729Y464092D01*
X549213D01*
X549264Y464148D01*
X549310Y464210D01*
X549350Y464278D01*
X549385Y464353D01*
X549414Y464434D01*
X549438Y464521D01*
X549457Y464615D01*
X549471Y464715D01*
X549478Y464821D01*
X549481Y464934D01*
X550461D01*
X550464Y464821D01*
D02*
G37*
G36*
X545844Y464804D02*
X545865Y464598D01*
X545884Y464504D01*
X545908Y464417D01*
X545938Y464335D01*
X545973Y464261D01*
X546013Y464192D01*
X546058Y464130D01*
X546109Y464075D01*
X544593D01*
X544644Y464130D01*
X544690Y464192D01*
X544730Y464261D01*
X544765Y464335D01*
X544794Y464417D01*
X544818Y464504D01*
X544837Y464598D01*
X544851Y464698D01*
X544859Y464804D01*
X544861Y464917D01*
X545841D01*
X545844Y464804D01*
D02*
G37*
G36*
X556467Y463097D02*
X556529Y463051D01*
X556597Y463011D01*
X556672Y462976D01*
X556753Y462947D01*
X556840Y462923D01*
X556934Y462904D01*
X557034Y462890D01*
X557140Y462882D01*
X557253Y462880D01*
Y461900D01*
X557140Y461897D01*
X556934Y461876D01*
X556840Y461857D01*
X556753Y461833D01*
X556672Y461803D01*
X556597Y461768D01*
X556529Y461728D01*
X556467Y461683D01*
X556411Y461632D01*
Y463148D01*
X556467Y463097D01*
D02*
G37*
G36*
X514556Y432304D02*
X514570Y432211D01*
X514593Y432118D01*
X514625Y432026D01*
X514666Y431934D01*
X514717Y431843D01*
X514776Y431751D01*
X514845Y431661D01*
X514923Y431570D01*
X515010Y431480D01*
X513495D01*
X513582Y431570D01*
X513660Y431661D01*
X513729Y431751D01*
X513788Y431843D01*
X513839Y431934D01*
X513880Y432026D01*
X513912Y432118D01*
X513935Y432211D01*
X513949Y432304D01*
X513953Y432397D01*
X514552D01*
X514556Y432304D01*
D02*
G37*
G36*
X481754Y429799D02*
X481664Y429886D01*
X481574Y429964D01*
X481483Y430033D01*
X481392Y430093D01*
X481300Y430143D01*
X481209Y430184D01*
X481116Y430217D01*
X481024Y430239D01*
X480931Y430253D01*
X480837Y430258D01*
Y430856D01*
X480931Y430861D01*
X481024Y430875D01*
X481116Y430898D01*
X481209Y430930D01*
X481300Y430971D01*
X481392Y431021D01*
X481483Y431081D01*
X481574Y431150D01*
X481664Y431228D01*
X481754Y431315D01*
Y429799D01*
D02*
G37*
G36*
X511597Y427124D02*
X511507Y427211D01*
X511416Y427289D01*
X511326Y427357D01*
X511234Y427417D01*
X511143Y427468D01*
X511051Y427509D01*
X510959Y427541D01*
X510866Y427564D01*
X510773Y427578D01*
X510680Y427582D01*
Y428181D01*
X510773Y428185D01*
X510866Y428199D01*
X510959Y428222D01*
X511051Y428254D01*
X511143Y428295D01*
X511234Y428346D01*
X511326Y428405D01*
X511416Y428474D01*
X511507Y428552D01*
X511597Y428639D01*
X511597Y427124D01*
D02*
G37*
G36*
X481754Y424698D02*
X481664Y424786D01*
X481574Y424863D01*
X481483Y424932D01*
X481392Y424992D01*
X481300Y425042D01*
X481209Y425084D01*
X481116Y425116D01*
X481024Y425139D01*
X480931Y425152D01*
X480837Y425157D01*
Y425755D01*
X480931Y425760D01*
X481024Y425774D01*
X481116Y425797D01*
X481209Y425829D01*
X481300Y425870D01*
X481392Y425921D01*
X481483Y425980D01*
X481574Y426049D01*
X481664Y426127D01*
X481754Y426214D01*
Y424698D01*
D02*
G37*
G36*
Y420171D02*
X481664Y420258D01*
X481574Y420336D01*
X481483Y420405D01*
X481392Y420464D01*
X481300Y420515D01*
X481209Y420556D01*
X481116Y420588D01*
X481024Y420611D01*
X480931Y420625D01*
X480837Y420629D01*
Y421228D01*
X480931Y421233D01*
X481024Y421246D01*
X481116Y421269D01*
X481209Y421301D01*
X481300Y421343D01*
X481392Y421393D01*
X481483Y421453D01*
X481574Y421521D01*
X481664Y421599D01*
X481754Y421687D01*
Y420171D01*
D02*
G37*
G36*
Y416228D02*
X481664Y416315D01*
X481574Y416393D01*
X481483Y416462D01*
X481392Y416522D01*
X481300Y416572D01*
X481209Y416613D01*
X481116Y416645D01*
X481024Y416668D01*
X480931Y416682D01*
X480837Y416687D01*
Y417285D01*
X480931Y417290D01*
X481024Y417304D01*
X481116Y417326D01*
X481209Y417359D01*
X481300Y417400D01*
X481392Y417450D01*
X481483Y417510D01*
X481574Y417579D01*
X481664Y417657D01*
X481754Y417744D01*
Y416228D01*
D02*
G37*
G36*
Y410447D02*
X481664Y410534D01*
X481574Y410612D01*
X481483Y410681D01*
X481392Y410741D01*
X481300Y410791D01*
X481209Y410832D01*
X481116Y410864D01*
X481024Y410887D01*
X480931Y410901D01*
X480837Y410906D01*
Y411504D01*
X480931Y411509D01*
X481024Y411522D01*
X481116Y411545D01*
X481209Y411578D01*
X481300Y411619D01*
X481392Y411669D01*
X481483Y411729D01*
X481574Y411798D01*
X481664Y411876D01*
X481754Y411963D01*
Y410447D01*
D02*
G37*
G36*
Y405920D02*
X481664Y406007D01*
X481574Y406085D01*
X481483Y406153D01*
X481392Y406213D01*
X481300Y406263D01*
X481209Y406305D01*
X481116Y406337D01*
X481024Y406360D01*
X480931Y406374D01*
X480837Y406378D01*
Y406977D01*
X480931Y406981D01*
X481024Y406995D01*
X481116Y407018D01*
X481209Y407050D01*
X481300Y407091D01*
X481392Y407142D01*
X481483Y407201D01*
X481574Y407270D01*
X481664Y407348D01*
X481754Y407435D01*
Y405920D01*
D02*
G37*
G36*
X481606Y397055D02*
X481569Y397106D01*
X481527Y397151D01*
X481478Y397192D01*
X481423Y397226D01*
X481361Y397256D01*
X481293Y397280D01*
X481219Y397299D01*
X481139Y397312D01*
X481052Y397320D01*
X480958Y397323D01*
Y397921D01*
X481052Y397924D01*
X481139Y397932D01*
X481219Y397946D01*
X481293Y397964D01*
X481361Y397989D01*
X481423Y398018D01*
X481478Y398053D01*
X481527Y398093D01*
X481569Y398139D01*
X481606Y398190D01*
Y397055D01*
D02*
G37*
G36*
X483198Y392227D02*
X483120Y392137D01*
X483051Y392046D01*
X482992Y391955D01*
X482941Y391863D01*
X482900Y391772D01*
X482868Y391679D01*
X482845Y391587D01*
X482831Y391494D01*
X482827Y391401D01*
X482228D01*
X482224Y391494D01*
X482210Y391587D01*
X482187Y391679D01*
X482155Y391772D01*
X482114Y391863D01*
X482063Y391955D01*
X482004Y392046D01*
X481935Y392137D01*
X481857Y392227D01*
X481770Y392318D01*
X483285D01*
X483198Y392227D01*
D02*
G37*
G36*
X547284Y371487D02*
X547298Y371394D01*
X547321Y371301D01*
X547353Y371209D01*
X547394Y371117D01*
X547445Y371025D01*
X547504Y370934D01*
X547573Y370844D01*
X547651Y370753D01*
X547738Y370663D01*
X546222D01*
X546310Y370753D01*
X546388Y370844D01*
X546456Y370934D01*
X546516Y371025D01*
X546566Y371117D01*
X546608Y371209D01*
X546640Y371301D01*
X546663Y371394D01*
X546676Y371487D01*
X546681Y371580D01*
X547280D01*
X547284Y371487D01*
D02*
G37*
G36*
X543534Y369754D02*
X543542Y369635D01*
X543558Y369522D01*
X543580Y369415D01*
X543609Y369315D01*
X543645Y369220D01*
X543687Y369133D01*
X543737Y369051D01*
X543793Y368975D01*
X543855Y368906D01*
X543432Y368483D01*
X543363Y368546D01*
X543288Y368602D01*
X543206Y368651D01*
X543118Y368694D01*
X543024Y368729D01*
X542923Y368758D01*
X542817Y368781D01*
X542704Y368796D01*
X542585Y368805D01*
X542460Y368807D01*
X543531Y369879D01*
X543534Y369754D01*
D02*
G37*
G36*
X538592Y369026D02*
X538514Y368936D01*
X538445Y368845D01*
X538386Y368754D01*
X538335Y368663D01*
X538294Y368571D01*
X538262Y368478D01*
X538239Y368386D01*
X538225Y368293D01*
X538221Y368200D01*
X537622D01*
X537617Y368293D01*
X537604Y368386D01*
X537581Y368478D01*
X537549Y368571D01*
X537507Y368663D01*
X537457Y368754D01*
X537397Y368845D01*
X537328Y368936D01*
X537251Y369026D01*
X537163Y369117D01*
X538679D01*
X538592Y369026D01*
D02*
G37*
G36*
X534064D02*
X533987Y368936D01*
X533918Y368845D01*
X533858Y368754D01*
X533808Y368663D01*
X533766Y368571D01*
X533734Y368478D01*
X533711Y368386D01*
X533698Y368293D01*
X533693Y368200D01*
X533095D01*
X533090Y368293D01*
X533076Y368386D01*
X533053Y368478D01*
X533021Y368571D01*
X532980Y368663D01*
X532929Y368754D01*
X532870Y368845D01*
X532801Y368936D01*
X532723Y369026D01*
X532636Y369117D01*
X534152D01*
X534064Y369026D01*
D02*
G37*
G36*
X529537D02*
X529459Y368936D01*
X529390Y368845D01*
X529330Y368754D01*
X529280Y368663D01*
X529239Y368571D01*
X529207Y368478D01*
X529184Y368386D01*
X529170Y368293D01*
X529165Y368200D01*
X528567D01*
X528562Y368293D01*
X528549Y368386D01*
X528526Y368478D01*
X528493Y368571D01*
X528452Y368663D01*
X528402Y368754D01*
X528342Y368845D01*
X528273Y368936D01*
X528195Y369026D01*
X528108Y369117D01*
X529624D01*
X529537Y369026D01*
D02*
G37*
G36*
X524966D02*
X524888Y368936D01*
X524819Y368845D01*
X524760Y368754D01*
X524709Y368663D01*
X524668Y368571D01*
X524636Y368478D01*
X524613Y368386D01*
X524599Y368293D01*
X524594Y368200D01*
X523996D01*
X523991Y368293D01*
X523978Y368386D01*
X523955Y368478D01*
X523923Y368571D01*
X523881Y368663D01*
X523831Y368754D01*
X523771Y368845D01*
X523702Y368936D01*
X523625Y369026D01*
X523537Y369117D01*
X525053D01*
X524966Y369026D01*
D02*
G37*
G36*
X520281D02*
X520203Y368936D01*
X520134Y368845D01*
X520075Y368754D01*
X520024Y368663D01*
X519983Y368571D01*
X519951Y368478D01*
X519928Y368386D01*
X519914Y368293D01*
X519909Y368200D01*
X519311D01*
X519306Y368293D01*
X519293Y368386D01*
X519270Y368478D01*
X519238Y368571D01*
X519196Y368663D01*
X519146Y368754D01*
X519086Y368845D01*
X519018Y368936D01*
X518939Y369026D01*
X518852Y369117D01*
X520368D01*
X520281Y369026D01*
D02*
G37*
G36*
X515474D02*
X515396Y368936D01*
X515327Y368845D01*
X515268Y368754D01*
X515217Y368663D01*
X515176Y368571D01*
X515144Y368478D01*
X515121Y368386D01*
X515107Y368293D01*
X515102Y368200D01*
X514504D01*
X514499Y368293D01*
X514486Y368386D01*
X514463Y368478D01*
X514431Y368571D01*
X514389Y368663D01*
X514339Y368754D01*
X514279Y368845D01*
X514210Y368936D01*
X514132Y369026D01*
X514045Y369117D01*
X515561D01*
X515474Y369026D01*
D02*
G37*
G36*
X510903D02*
X510825Y368936D01*
X510756Y368845D01*
X510697Y368754D01*
X510646Y368663D01*
X510605Y368571D01*
X510573Y368478D01*
X510550Y368386D01*
X510536Y368293D01*
X510532Y368200D01*
X509933D01*
X509929Y368293D01*
X509915Y368386D01*
X509892Y368478D01*
X509860Y368571D01*
X509818Y368663D01*
X509768Y368754D01*
X509708Y368845D01*
X509640Y368936D01*
X509561Y369026D01*
X509474Y369117D01*
X510990D01*
X510903Y369026D01*
D02*
G37*
G36*
X506376D02*
X506297Y368936D01*
X506229Y368845D01*
X506169Y368754D01*
X506119Y368663D01*
X506077Y368571D01*
X506045Y368478D01*
X506022Y368386D01*
X506008Y368293D01*
X506004Y368200D01*
X505406D01*
X505401Y368293D01*
X505387Y368386D01*
X505364Y368478D01*
X505332Y368571D01*
X505291Y368663D01*
X505240Y368754D01*
X505181Y368845D01*
X505112Y368936D01*
X505034Y369026D01*
X504947Y369117D01*
X506463D01*
X506376Y369026D01*
D02*
G37*
G36*
X457281Y293747D02*
X457289Y293660D01*
X457303Y293579D01*
X457322Y293504D01*
X457346Y293435D01*
X457376Y293373D01*
X457412Y293317D01*
X457453Y293267D01*
X457499Y293224D01*
X457551Y293186D01*
X456406D01*
X456458Y293224D01*
X456505Y293267D01*
X456546Y293317D01*
X456581Y293373D01*
X456611Y293435D01*
X456636Y293504D01*
X456655Y293579D01*
X456669Y293660D01*
X456677Y293747D01*
X456679Y293841D01*
X457278D01*
X457281Y293747D01*
D02*
G37*
G36*
X1153644Y243093D02*
X1153658Y243000D01*
X1153681Y242907D01*
X1153713Y242815D01*
X1153755Y242724D01*
X1153806Y242633D01*
X1153866Y242543D01*
X1153935Y242454D01*
X1154014Y242365D01*
X1154101Y242276D01*
X1153333Y241493D01*
X1154101Y240709D01*
X1154014Y240620D01*
X1153935Y240531D01*
X1153866Y240442D01*
X1153806Y240352D01*
X1153755Y240261D01*
X1153713Y240170D01*
X1153681Y240078D01*
X1153658Y239985D01*
X1153644Y239892D01*
X1153639Y239798D01*
X1153039Y239807D01*
X1153035Y239900D01*
X1153021Y239993D01*
X1152999Y240086D01*
X1152967Y240178D01*
X1152926Y240271D01*
X1152876Y240363D01*
X1152817Y240455D01*
X1152749Y240547D01*
X1152672Y240639D01*
X1152586Y240730D01*
X1153333Y241493D01*
X1152586Y242255D01*
X1152672Y242346D01*
X1152749Y242438D01*
X1152817Y242530D01*
X1152876Y242622D01*
X1152926Y242714D01*
X1152967Y242807D01*
X1152999Y242899D01*
X1153021Y242992D01*
X1153035Y243085D01*
X1153039Y243178D01*
X1153639Y243187D01*
X1153644Y243093D01*
D02*
G37*
G36*
X1159404Y236676D02*
X1159418Y236583D01*
X1159442Y236491D01*
X1159476Y236401D01*
X1159519Y236312D01*
X1159572Y236225D01*
X1159634Y236139D01*
X1159706Y236055D01*
X1159788Y235972D01*
X1159879Y235891D01*
X1159065Y235061D01*
X1159879Y234230D01*
X1159788Y234149D01*
X1159706Y234066D01*
X1159634Y233982D01*
X1159572Y233896D01*
X1159519Y233809D01*
X1159476Y233720D01*
X1159442Y233630D01*
X1159418Y233538D01*
X1159404Y233445D01*
X1159399Y233350D01*
X1158799Y233399D01*
X1158795Y233491D01*
X1158782Y233583D01*
X1158760Y233676D01*
X1158730Y233770D01*
X1158691Y233864D01*
X1158644Y233960D01*
X1158588Y234056D01*
X1158450Y234251D01*
X1158368Y234349D01*
X1159065Y235061D01*
X1158368Y235771D01*
X1158450Y235870D01*
X1158588Y236065D01*
X1158644Y236161D01*
X1158691Y236257D01*
X1158730Y236351D01*
X1158760Y236445D01*
X1158782Y236538D01*
X1158795Y236630D01*
X1158799Y236722D01*
X1159399Y236771D01*
X1159404Y236676D01*
D02*
G37*
G36*
X1005406Y228791D02*
X1005427Y228585D01*
X1005446Y228491D01*
X1005470Y228404D01*
X1005500Y228323D01*
X1005535Y228248D01*
X1005575Y228180D01*
X1005620Y228118D01*
X1005671Y228062D01*
X1004156D01*
X1004206Y228118D01*
X1004252Y228180D01*
X1004292Y228248D01*
X1004327Y228323D01*
X1004356Y228404D01*
X1004381Y228491D01*
X1004399Y228585D01*
X1004413Y228685D01*
X1004421Y228791D01*
X1004423Y228904D01*
X1005403D01*
X1005406Y228791D01*
D02*
G37*
G36*
X1000406Y228694D02*
X1000428Y228487D01*
X1000446Y228394D01*
X1000470Y228306D01*
X1000500Y228225D01*
X1000535Y228151D01*
X1000575Y228082D01*
X1000620Y228020D01*
X1000671Y227964D01*
X999156D01*
X999206Y228020D01*
X999252Y228082D01*
X999292Y228151D01*
X999327Y228225D01*
X999356Y228306D01*
X999380Y228394D01*
X999399Y228487D01*
X999413Y228587D01*
X999421Y228694D01*
X999423Y228806D01*
X1000403D01*
X1000406Y228694D01*
D02*
G37*
G36*
X1139555Y217050D02*
X1139747Y216910D01*
X1139842Y216853D01*
X1139936Y216805D01*
X1140030Y216765D01*
X1140124Y216735D01*
X1140217Y216713D01*
X1140309Y216700D01*
X1140401Y216695D01*
X1140439Y216095D01*
X1140344Y216090D01*
X1140251Y216076D01*
X1140159Y216053D01*
X1140068Y216019D01*
X1139978Y215977D01*
X1139890Y215924D01*
X1139803Y215862D01*
X1139717Y215791D01*
X1139633Y215710D01*
X1139550Y215620D01*
X1138732Y216422D01*
X1139458Y217133D01*
X1139555Y217050D01*
D02*
G37*
G36*
X1138732Y216422D02*
X1137915Y215620D01*
X1137832Y215710D01*
X1137747Y215791D01*
X1137661Y215862D01*
X1137574Y215924D01*
X1137486Y215977D01*
X1137397Y216019D01*
X1137306Y216053D01*
X1137214Y216076D01*
X1137120Y216090D01*
X1137026Y216095D01*
X1137064Y216695D01*
X1137156Y216700D01*
X1137248Y216713D01*
X1137341Y216735D01*
X1137434Y216765D01*
X1137528Y216805D01*
X1137623Y216853D01*
X1137718Y216910D01*
X1137910Y217050D01*
X1138006Y217133D01*
X1138732Y216422D01*
D02*
G37*
G36*
X1142071Y213832D02*
X1142273Y213699D01*
X1142372Y213645D01*
X1142469Y213599D01*
X1142565Y213562D01*
X1142660Y213533D01*
X1142753Y213512D01*
X1142844Y213500D01*
X1142935Y213496D01*
X1143010Y212896D01*
X1142914Y212891D01*
X1142821Y212876D01*
X1142729Y212852D01*
X1142640Y212817D01*
X1142553Y212773D01*
X1142468Y212719D01*
X1142385Y212656D01*
X1142305Y212582D01*
X1142226Y212499D01*
X1142150Y212406D01*
X1141291Y213247D01*
X1140433Y212406D01*
X1140357Y212499D01*
X1140278Y212582D01*
X1140197Y212656D01*
X1140115Y212719D01*
X1140030Y212773D01*
X1139943Y212817D01*
X1139853Y212852D01*
X1139762Y212876D01*
X1139668Y212891D01*
X1139573Y212896D01*
X1139648Y213496D01*
X1139738Y213500D01*
X1139830Y213512D01*
X1139923Y213533D01*
X1140018Y213562D01*
X1140114Y213599D01*
X1140211Y213645D01*
X1140310Y213699D01*
X1140511Y213832D01*
X1140614Y213911D01*
X1141291Y213247D01*
X1141968Y213911D01*
X1142071Y213832D01*
D02*
G37*
G36*
X1056414Y212301D02*
X1056496Y212220D01*
X1056580Y212148D01*
X1056666Y212085D01*
X1056753Y212032D01*
X1056841Y211989D01*
X1056932Y211955D01*
X1057024Y211931D01*
X1057117Y211917D01*
X1057212Y211912D01*
X1057161Y211312D01*
X1057070Y211308D01*
X1056978Y211295D01*
X1056885Y211274D01*
X1056791Y211243D01*
X1056696Y211205D01*
X1056600Y211157D01*
X1056504Y211101D01*
X1056407Y211037D01*
X1056309Y210964D01*
X1056210Y210882D01*
X1056333Y212393D01*
X1056414Y212301D01*
D02*
G37*
G36*
X1058867Y209084D02*
X1058957Y209006D01*
X1059048Y208937D01*
X1059139Y208877D01*
X1059230Y208827D01*
X1059322Y208786D01*
X1059414Y208754D01*
X1059507Y208731D01*
X1059600Y208717D01*
X1059693Y208713D01*
X1059693Y208113D01*
X1059600Y208108D01*
X1059507Y208094D01*
X1059414Y208071D01*
X1059322Y208039D01*
X1059230Y207998D01*
X1059139Y207948D01*
X1059048Y207888D01*
X1058957Y207820D01*
X1058867Y207742D01*
X1058777Y207655D01*
X1058777Y209171D01*
X1058867Y209084D01*
D02*
G37*
G36*
X503979Y178080D02*
X504193Y177958D01*
X504297Y177908D01*
X504397Y177866D01*
X504496Y177831D01*
X504591Y177805D01*
X504684Y177786D01*
X504774Y177774D01*
X504862Y177770D01*
X504987Y177172D01*
X504890Y177167D01*
X504797Y177152D01*
X504706Y177126D01*
X504619Y177091D01*
X504535Y177046D01*
X504455Y176990D01*
X504377Y176924D01*
X504303Y176849D01*
X504233Y176763D01*
X504165Y176667D01*
X503867Y178153D01*
X503979Y178080D01*
D02*
G37*
G36*
X488423Y169549D02*
X488345Y169459D01*
X488276Y169368D01*
X488216Y169277D01*
X488166Y169185D01*
X488125Y169094D01*
X488093Y169001D01*
X488070Y168909D01*
X488056Y168816D01*
X488051Y168722D01*
X487453D01*
X487448Y168816D01*
X487435Y168909D01*
X487412Y169001D01*
X487380Y169094D01*
X487338Y169185D01*
X487288Y169277D01*
X487228Y169368D01*
X487159Y169459D01*
X487081Y169549D01*
X486994Y169639D01*
X488510D01*
X488423Y169549D01*
D02*
G37*
D18*
X1085236Y674522D02*
Y675697D01*
Y672347D02*
Y673522D01*
X1087598Y678253D02*
Y679429D01*
Y680429D02*
Y681602D01*
Y695397D02*
Y696578D01*
X1085236Y691677D02*
Y692841D01*
Y689492D02*
Y690677D01*
X1087598Y697578D02*
Y698746D01*
D19*
X1159099Y224240D02*
Y311183D01*
X1153339Y225745D02*
Y309433D01*
X377716Y355752D02*
Y360203D01*
X353186Y344212D02*
X356386D01*
X352264Y351232D02*
X361143D01*
X1132347Y213196D02*
X1148055D01*
X1131022Y216395D02*
X1143990D01*
X1055501Y211612D02*
X1126239Y211612D01*
X278962Y355422D02*
X282023Y352361D01*
X174364Y355422D02*
X278962D01*
X153950Y375836D02*
X174364Y355422D01*
X282023Y352361D02*
X294700D01*
X295510Y353170D02*
Y354712D01*
X294700Y352361D02*
X295510Y353170D01*
X288520Y364012D02*
X293654Y358878D01*
X295433D01*
X283081Y356647D02*
X291457D01*
X280350Y359379D02*
X283081Y356647D01*
X176338Y359379D02*
X280350D01*
X291457Y356647D02*
X291614Y356805D01*
X180142Y364012D02*
X288520D01*
X271488Y351544D02*
X275492D01*
X270397Y350453D02*
X271488Y351544D01*
X172875Y350453D02*
X270397D01*
X295433Y358878D02*
X295492Y358818D01*
X332667Y364324D02*
X334143Y365800D01*
X311208Y364324D02*
X332667D01*
X294306Y381226D02*
X311208Y364324D01*
X334143Y365800D02*
X344500D01*
X331917Y368702D02*
X341788D01*
X330532Y367316D02*
X331917Y368702D01*
X313804Y367316D02*
X330532D01*
X295714Y385406D02*
X313804Y367316D01*
X262411Y385406D02*
X295714D01*
X256614Y391204D02*
X262411Y385406D01*
X256614Y402569D02*
X256614Y391204D01*
X256614Y402569D02*
X260234Y406189D01*
Y423494D01*
X255866Y408099D02*
Y423494D01*
X251555Y403789D02*
X255866Y408099D01*
X251555Y403789D02*
X251555Y389832D01*
X260161Y381226D01*
X294306D01*
X368307Y669628D02*
Y688189D01*
X490017Y676628D02*
Y685400D01*
X487696Y687722D02*
X490017Y685400D01*
X487696Y687722D02*
Y691195D01*
X472936Y659547D02*
X490017Y676628D01*
X484045Y676651D02*
Y693317D01*
X471928Y664535D02*
X484045Y676651D01*
X436698Y664535D02*
X471928D01*
X161468Y480021D02*
X198522Y517075D01*
X161468Y382686D02*
Y480021D01*
Y382686D02*
X180142Y364012D01*
X361143Y351232D02*
X402901Y392989D01*
X142049Y373938D02*
Y489802D01*
X140504Y372393D02*
X142049Y373938D01*
X140504Y362366D02*
Y372393D01*
X142049Y353099D02*
Y360821D01*
X140504Y362366D02*
X142049Y360821D01*
Y353099D02*
X154053Y341095D01*
X142049Y489802D02*
X188104Y535857D01*
X158053Y377663D02*
X176338Y359379D01*
X150113Y373215D02*
X172875Y350453D01*
X472651Y653704D02*
X495831Y676884D01*
X435816Y653704D02*
X472651D01*
X391282Y609170D02*
X435816Y653704D01*
X473934Y649927D02*
X498193Y674186D01*
X436444Y649927D02*
X473934D01*
X395765Y609248D02*
X436444Y649927D01*
X437081Y659547D02*
X472936D01*
X387546Y610012D02*
X437081Y659547D01*
X383590Y611427D02*
X436698Y664535D01*
X471725Y668812D02*
X479297Y676384D01*
X435931Y668812D02*
X471725D01*
X380472Y613353D02*
X435931Y668812D01*
X468161Y672018D02*
X476935Y680792D01*
X434746Y672018D02*
X468161D01*
X377000Y614272D02*
X434746Y672018D01*
X502739Y672675D02*
Y691339D01*
X476363Y646299D02*
X502739Y672675D01*
X453923Y646299D02*
X476363D01*
X498193Y674186D02*
Y688189D01*
X495831Y676884D02*
Y691339D01*
X476935Y680792D02*
Y691339D01*
X479297Y676384D02*
Y688189D01*
X153950Y375836D02*
Y484455D01*
X154053Y341095D02*
X215541D01*
X150775Y337526D02*
X212674D01*
X136907Y351395D02*
X150775Y337526D01*
X136907Y490634D02*
X136907Y351395D01*
X157056Y344663D02*
X217405D01*
X146294Y355425D02*
X157056Y344663D01*
X146294Y355425D02*
Y488410D01*
X395765Y586419D02*
Y609248D01*
X377699Y334820D02*
X379298D01*
X842119Y654164D02*
X993956D01*
X837543Y658740D02*
X842119Y654164D01*
X824705Y658740D02*
X837543D01*
X993956Y654164D02*
X1099181Y548939D01*
X1093429Y369342D02*
X1093429Y545910D01*
X989566Y649773D02*
X1093429Y545910D01*
X841243Y649773D02*
X989566D01*
X1099181Y371101D02*
X1099181Y548939D01*
X1099181Y371101D02*
X1159099Y311183D01*
X1148055Y213196D02*
X1159099Y224240D01*
X237702Y312497D02*
X279324D01*
X212674Y337526D02*
X237702Y312497D01*
X279324D02*
X290196Y323369D01*
X150113Y373215D02*
Y487107D01*
X370644Y664673D02*
Y691339D01*
X241829Y535857D02*
X370644Y664673D01*
X188104Y535857D02*
X241829D01*
X238633Y539954D02*
X368307Y669628D01*
X186227Y539954D02*
X238633D01*
X217405Y344663D02*
X242591Y319476D01*
X215541Y341095D02*
X240527Y316109D01*
X359291Y347117D02*
X374819D01*
X356386Y344212D02*
X359291Y347117D01*
X379298Y334820D02*
X424866Y380387D01*
X380118Y520522D02*
X416311Y484330D01*
X416311Y383455D02*
X416311Y484330D01*
X375427Y342572D02*
X416311Y383455D01*
X384174Y523066D02*
X420588Y486652D01*
Y382982D02*
Y486652D01*
X376397Y338791D02*
X420588Y382982D01*
X388559Y524593D02*
X424866Y488286D01*
X424866Y380387D02*
X424866Y488286D01*
X380118Y520522D02*
Y576508D01*
X384174Y523066D02*
Y574828D01*
X388559Y524593D02*
Y573012D01*
X402901Y392989D02*
X402901Y477388D01*
X367613Y512675D02*
X402901Y477388D01*
X367613Y512675D02*
Y586012D01*
X397539Y398127D02*
X397539Y475874D01*
X362252Y511161D02*
X397539Y475874D01*
X362252Y511161D02*
Y587376D01*
X387546Y591426D02*
Y610012D01*
X376524Y580405D02*
X387546Y591426D01*
X391282Y587672D02*
Y609170D01*
X380118Y576508D02*
X391282Y587672D01*
X384174Y574828D02*
X395765Y586419D01*
X400677Y593052D02*
X453923Y646299D01*
X400677Y585129D02*
Y593052D01*
X388559Y573012D02*
X400677Y585129D01*
X376524Y517507D02*
Y580405D01*
X383590Y594089D02*
Y611427D01*
X372034Y582533D02*
X383590Y594089D01*
X372034Y515647D02*
Y582533D01*
X380472Y598871D02*
Y613353D01*
X367613Y586012D02*
X380472Y598871D01*
X377000Y602124D02*
Y614272D01*
X362252Y587376D02*
X377000Y602124D01*
X273924Y316109D02*
X289023Y331209D01*
X240527Y316109D02*
X273924D01*
X289023Y331209D02*
X290894D01*
X290196Y323369D02*
Y326975D01*
X242591Y319476D02*
X273063D01*
X158053Y377663D02*
Y482241D01*
X153950Y484455D02*
X194216Y524721D01*
X136907Y490634D02*
X186227Y539954D01*
X158053Y482241D02*
X196644Y520831D01*
X198522Y517075D02*
X256653D01*
X196644Y520831D02*
X254355D01*
X194216Y524721D02*
X251588D01*
X191180Y528173D02*
X248893D01*
X150113Y487107D02*
X191180Y528173D01*
X189643Y531759D02*
X245478D01*
X146294Y488410D02*
X189643Y531759D01*
X254355Y520831D02*
X384816Y651293D01*
X248893Y528173D02*
X377730Y657011D01*
X245478Y531759D02*
X375368Y661650D01*
X256653Y517075D02*
X389540Y649962D01*
X384816Y651293D02*
Y691339D01*
X382454Y655588D02*
Y688189D01*
X251588Y524721D02*
X382454Y655588D01*
X375368Y661650D02*
Y688189D01*
X377730Y657011D02*
Y691339D01*
X389540Y649962D02*
Y688189D01*
X495831Y691339D02*
Y691532D01*
X373583Y342572D02*
X375427D01*
X354394Y338791D02*
X376397D01*
X355812Y356399D02*
X397539Y398127D01*
X353129Y356399D02*
X355812D01*
X353129Y356181D02*
Y356399D01*
X374819Y347117D02*
X411812Y384109D01*
X411812Y482220D01*
X407321Y389808D02*
Y393337D01*
X377716Y360203D02*
X407321Y389808D01*
Y393337D02*
X407321Y480360D01*
X288425Y334839D02*
X290894D01*
X273063Y319476D02*
X288425Y334839D01*
X376524Y517507D02*
X411812Y482220D01*
X372034Y515647D02*
X407321Y480360D01*
X835530Y655486D02*
X841243Y649773D01*
X821918Y655486D02*
X835530D01*
X1058004Y208413D02*
X1127564Y208413D01*
X1132347Y213196D01*
X1126239Y211612D02*
X1131022Y216395D01*
X1143990D02*
X1153339Y225745D01*
X1093429Y369342D02*
X1153339Y309433D01*
D21*
X503258Y177471D02*
X518101D01*
X475177Y335319D02*
X502091Y362233D01*
X475177Y306692D02*
Y335319D01*
X466583Y298098D02*
X475177Y306692D01*
X480363Y333962D02*
X510232Y363831D01*
X480363Y306768D02*
Y333962D01*
X470525Y296930D02*
X480363Y306768D01*
X266529Y179990D02*
X276083Y170435D01*
X266529Y179990D02*
Y210023D01*
X163997Y179781D02*
X173296Y170482D01*
X163997Y179781D02*
Y194515D01*
X405131Y260424D02*
Y303518D01*
X407187Y305574D01*
X120458Y229684D02*
X147844Y257070D01*
X120458Y173106D02*
Y229684D01*
Y173106D02*
X123202Y170363D01*
X283581Y177114D02*
X302614D01*
X277639Y183056D02*
X283581Y177114D01*
X277639Y183056D02*
Y213317D01*
X464264Y356557D02*
Y361913D01*
X445128Y337421D02*
X464264Y356557D01*
X443784Y337421D02*
X445128D01*
X505705Y367937D02*
Y369890D01*
X502091Y364324D02*
X505705Y367937D01*
X502091Y362233D02*
Y364324D01*
X474854Y345574D02*
X504771Y375491D01*
X474854Y342317D02*
Y345574D01*
X468798Y336261D02*
X474854Y342317D01*
X504771Y375491D02*
X543229D01*
X546980Y371740D01*
X337309Y165651D02*
Y168885D01*
X500821Y427881D02*
X502440D01*
X495349Y433354D02*
X500821Y427881D01*
X502440D02*
X512370Y427881D01*
X533394Y360952D02*
Y369890D01*
X514917Y342476D02*
X533394Y360952D01*
X514917Y238610D02*
Y342476D01*
X528866Y363034D02*
Y369890D01*
X505169Y339337D02*
X528866Y363034D01*
X505169Y273657D02*
Y339337D01*
X511119Y438870D02*
X514252Y435736D01*
X472830Y438870D02*
X511119D01*
X514252Y430707D02*
Y435736D01*
X446724Y412764D02*
X472830Y438870D01*
X446724Y394318D02*
Y412764D01*
X387052Y334647D02*
X446724Y394318D01*
X384922Y334647D02*
X387052D01*
X378066Y327791D02*
X384922Y334647D01*
X378066Y326121D02*
Y327791D01*
X365479Y313533D02*
X378066Y326121D01*
X390405Y331787D02*
X450446Y391828D01*
X387900Y331787D02*
X390405D01*
X381606Y325492D02*
X387900Y331787D01*
X381606Y323170D02*
Y325492D01*
X369244Y310809D02*
X381606Y323170D01*
X373798Y309395D02*
X385797Y321394D01*
X373798Y270290D02*
Y309395D01*
X385797Y321394D02*
Y324709D01*
X369244Y270732D02*
Y310809D01*
X450446Y391828D02*
Y410937D01*
X392380Y327664D02*
X453950Y389234D01*
X388752Y327664D02*
X392380D01*
X385797Y324709D02*
X388752Y327664D01*
X404381Y319978D02*
X409156Y324752D01*
X400544Y319978D02*
X404381D01*
X385077Y304511D02*
X400544Y319978D01*
X453950Y389234D02*
Y409613D01*
X377699Y307529D02*
X457767Y387597D01*
X377699Y268546D02*
Y307529D01*
X457767Y387597D02*
Y408240D01*
X461436Y386214D02*
Y406359D01*
X381420Y306199D02*
X461436Y386214D01*
X381420Y266606D02*
Y306199D01*
X385077Y264817D02*
Y304511D01*
X409156Y324752D02*
Y327943D01*
X406190Y316158D02*
X412695Y322662D01*
X402264Y316158D02*
X406190D01*
X388678Y302572D02*
X402264Y316158D01*
X388678Y262849D02*
Y302572D01*
X412695Y326014D02*
X418638Y331957D01*
X412695Y322662D02*
Y326014D01*
X421959Y331957D02*
X445753Y355751D01*
X418638Y331957D02*
X421959D01*
X398305Y306517D02*
X404919Y313131D01*
X398305Y281358D02*
Y306517D01*
X404919Y313131D02*
X408757D01*
X416031Y320405D01*
Y324243D02*
X419250Y327463D01*
X416031Y320405D02*
Y324243D01*
X419250Y327463D02*
X422664D01*
X411937Y305574D02*
X443784Y337421D01*
X407187Y305574D02*
X411937D01*
X455122Y357323D02*
Y362709D01*
X449108Y351309D02*
X455122Y357323D01*
X446510Y351309D02*
X449108D01*
X459625Y356471D02*
Y362158D01*
X449556Y346402D02*
X459625Y356471D01*
X447617Y346402D02*
X449556D01*
X410796Y309581D02*
X447617Y346402D01*
X406584Y309581D02*
X410796D01*
X402034Y305031D02*
X406584Y309581D01*
X409156Y327943D02*
X464970Y383758D01*
Y405930D01*
X459625Y362158D02*
X479613Y382146D01*
X464264Y361913D02*
X482528Y380176D01*
X472840Y380428D02*
Y402712D01*
X455122Y362709D02*
X472840Y380428D01*
X445753Y355751D02*
Y359072D01*
X469330Y382648D01*
X422664Y327463D02*
X446510Y351309D01*
X402034Y280530D02*
Y305031D01*
X397736Y276232D02*
X402034Y280530D01*
X392803Y275856D02*
X398305Y281358D01*
X348156Y356468D02*
X349569Y356468D01*
X348129Y356441D02*
X348156Y356468D01*
X349569Y356468D02*
X393311Y400209D01*
X466523Y676008D02*
X472211Y681696D01*
X429272Y676008D02*
X466523D01*
X355252Y601988D02*
X429272Y676008D01*
X472211Y681696D02*
Y687895D01*
X469205Y192961D02*
X474133Y197889D01*
X469205Y170708D02*
Y192961D01*
X458965Y160468D02*
X469205Y170708D01*
X360577Y257070D02*
X373798Y270290D01*
X147844Y257070D02*
X360577Y257070D01*
X360030Y261518D02*
X369244Y270732D01*
X186992Y261518D02*
X360030Y261518D01*
X365479Y272001D02*
Y313533D01*
X358366Y264889D02*
X365479Y272001D01*
X190446Y264889D02*
X358366Y264889D01*
X461436Y406359D02*
X476005Y420929D01*
X457767Y408240D02*
X474983Y425456D01*
X173296Y170482D02*
X188998D01*
X368003Y202608D02*
X419909Y254514D01*
X368003Y178267D02*
Y202608D01*
X419909Y254514D02*
X441567D01*
X121735Y333599D02*
X190446Y264889D01*
X68988Y333599D02*
X121735D01*
X119299Y329211D02*
X186992Y261518D01*
X70742Y329211D02*
X119299D01*
X60157Y318627D02*
X70742Y329211D01*
X60157Y242133D02*
Y318627D01*
X55886Y320498D02*
X68988Y333599D01*
X55886Y244672D02*
Y320498D01*
X54835Y243620D02*
X55886Y244672D01*
X35346Y243620D02*
X54835D01*
X31051Y239325D02*
X35346Y243620D01*
X123202Y170363D02*
X139689D01*
X163997Y194515D02*
X171647Y202165D01*
Y241892D02*
X179103Y249348D01*
X171647Y202165D02*
Y241892D01*
X182718Y245639D02*
X365899Y245639D01*
X177276Y240197D02*
X182718Y245639D01*
X177276Y181761D02*
Y240197D01*
X231692Y242804D02*
X368633Y242804D01*
X219681Y230793D02*
X231692Y242804D01*
X219681Y197753D02*
Y230793D01*
X368633Y242804D02*
X388678Y262849D01*
X364162Y249348D02*
X381420Y266606D01*
X179103Y249348D02*
X364162Y249348D01*
X365899Y245639D02*
X385077Y264817D01*
X392803Y261033D02*
Y275856D01*
X371294Y239524D02*
X392803Y261033D01*
X235169Y239524D02*
X371294Y239524D01*
X393311Y400209D02*
X393311Y472814D01*
X355252Y510873D02*
X393311Y472814D01*
X355252Y510873D02*
Y601988D01*
X448558Y306594D02*
X453124D01*
X453218Y306500D01*
X422180Y203427D02*
Y212015D01*
X404860Y186107D02*
X422180Y203427D01*
X404860Y180145D02*
Y186107D01*
X436663Y164231D02*
Y169323D01*
Y164231D02*
X440426Y160468D01*
X458965D01*
X466583Y279530D02*
Y298098D01*
X441567Y254514D02*
X466583Y279530D01*
X470525Y277635D02*
Y296930D01*
X443444Y250554D02*
X470525Y277635D01*
X474133Y197889D02*
Y242621D01*
X469562Y202018D02*
Y244741D01*
X452441Y184897D02*
X469562Y202018D01*
X452441Y177032D02*
Y184897D01*
X366768Y177032D02*
X368003Y178267D01*
X552158Y381988D02*
X556629Y377517D01*
Y367981D02*
Y377517D01*
X554400Y365752D02*
X556629Y367981D01*
X472863Y433354D02*
X495349D01*
X450446Y410937D02*
X472863Y433354D01*
X368079Y223372D02*
X405131Y260424D01*
X469330Y382648D02*
Y405097D01*
X482528Y380176D02*
Y393091D01*
X479613Y382146D02*
Y396277D01*
X397736Y259587D02*
Y276232D01*
X368425Y230277D02*
X397736Y259587D01*
X362400Y253248D02*
X377699Y268546D01*
X487752Y165408D02*
Y170413D01*
X492413Y282248D02*
Y341779D01*
X422180Y212015D02*
X492413Y282248D01*
X496130Y279092D02*
Y341453D01*
X427917Y210879D02*
X496130Y279092D01*
X427917Y180476D02*
Y210879D01*
X388434Y167628D02*
Y170466D01*
X396794Y159268D02*
X406709D01*
X388434Y167628D02*
X396794Y159268D01*
X287693Y223372D02*
X368079Y223372D01*
X286782Y230277D02*
X368425Y230277D01*
X224923Y229278D02*
X235169Y239524D01*
X276083Y170435D02*
X287256D01*
X266529Y210023D02*
X286782Y230277D01*
X277639Y213317D02*
X287693Y223372D01*
X236926Y168802D02*
Y180508D01*
X219681Y197753D02*
X236926Y180508D01*
X246575Y177641D02*
X252621D01*
X236436Y187779D02*
X246575Y177641D01*
X236436Y187779D02*
Y197011D01*
X224923Y208524D02*
X236436Y197011D01*
X224923Y208524D02*
Y229278D01*
X474895Y430557D02*
X482528D01*
X453950Y409613D02*
X474895Y430557D01*
X474983Y425456D02*
X482528D01*
X476005Y420929D02*
X482528D01*
X476026Y416986D02*
X482528D01*
X464970Y405930D02*
X476026Y416986D01*
X347970Y356282D02*
X348129Y356441D01*
X347627D02*
X348129D01*
X493251Y159909D02*
X508320D01*
X487752Y165408D02*
X493251Y159909D01*
X136166Y177362D02*
X151725D01*
X476806Y406677D02*
X482528D01*
X475437Y411205D02*
X482528D01*
X472840Y402712D02*
X476806Y406677D01*
X469330Y405097D02*
X475437Y411205D01*
X20833Y239325D02*
X31051D01*
X57690Y239666D02*
X60157Y242133D01*
X36801Y239666D02*
X57690D01*
X130862Y182666D02*
X136166Y177362D01*
X130862Y182666D02*
Y234683D01*
X149427Y253248D01*
X181673Y177364D02*
X201673D01*
X177276Y181761D02*
X181673Y177364D01*
X149427Y253248D02*
X362400Y253248D01*
X479613Y396277D02*
X480958Y397622D01*
X482528D01*
X519811Y242247D02*
X528753Y233305D01*
X528753Y180343D02*
X528753Y233305D01*
X508320Y159909D02*
X528753Y180343D01*
X514917Y238610D02*
X522023Y231504D01*
X522023Y181393D02*
X522023Y231504D01*
X518101Y177471D02*
X522023Y181393D01*
X463167Y341201D02*
X503955Y381988D01*
X463167Y316450D02*
Y341201D01*
X542449Y369890D02*
X546586Y365752D01*
X453218Y306500D02*
X463167Y316450D01*
X503955Y381988D02*
X552158D01*
X546586Y365752D02*
X554400D01*
X468798Y305661D02*
Y336261D01*
X456979Y293841D02*
X468798Y305661D01*
X546980Y369890D02*
Y371740D01*
X456979Y292267D02*
Y293841D01*
X352500Y177032D02*
X352618D01*
X366768D01*
X420895Y250554D02*
X443444D01*
X337309Y165651D02*
X343362Y159599D01*
X510232Y363831D02*
Y369890D01*
X343362Y159599D02*
X360237Y159598D01*
X377130Y176491D02*
Y206789D01*
X420895Y250554D01*
X360237Y159598D02*
X377130Y176491D01*
X519811Y340697D02*
X537921Y358807D01*
Y369890D01*
X519811Y242247D02*
X519811Y340697D01*
X496130Y341453D02*
X519610Y364933D01*
Y369890D01*
X406709Y159268D02*
X427917Y180476D01*
X474133Y242621D02*
X505169Y273657D01*
X500689Y340531D02*
X524295Y364138D01*
X500689Y275868D02*
Y340531D01*
X524295Y364138D02*
Y369890D01*
X469562Y244741D02*
X500689Y275868D01*
X514803Y364169D02*
Y369890D01*
X492413Y341779D02*
X514803Y364169D01*
D134*
X274882Y284070D02*
X287058Y271894D01*
X118792Y348434D02*
X183156Y284070D01*
X274882D01*
X324162Y271937D02*
X345387D01*
X190898Y554919D02*
Y568358D01*
X180196Y544217D02*
X190898Y554919D01*
X171979Y544217D02*
X180196D01*
X115136Y487375D02*
X171979Y544217D01*
X355454Y270726D02*
X359858D01*
X354243Y271937D02*
X355454Y270726D01*
X352571Y271937D02*
X354243D01*
X361330Y272199D02*
Y274221D01*
X359858Y270726D02*
X361330Y272199D01*
X345387Y271937D02*
X352571D01*
X323059Y270833D02*
X324162Y271937D01*
X118792Y348434D02*
Y383505D01*
X115136Y387161D02*
X118792Y383505D01*
X115136Y387161D02*
Y487375D01*
X287058Y271894D02*
X294422D01*
X315509Y270833D02*
X323059D01*
X307805D02*
X315509D01*
X304049D02*
X307805D01*
X300641Y271894D02*
X300737Y271989D01*
X294422Y271894D02*
X300641D01*
X300737Y271989D02*
X302893D01*
X304049Y270833D01*
D168*
X153744Y814961D02*
D03*
X67130D02*
D03*
X59256D02*
D03*
X75004D02*
D03*
X82878D02*
D03*
X90752D02*
D03*
X98626D02*
D03*
X106500D02*
D03*
X114374D02*
D03*
X122248D02*
D03*
X130122D02*
D03*
X137996D02*
D03*
X145870D02*
D03*
X161618D02*
D03*
X169492D02*
D03*
X177366D02*
D03*
X185240D02*
D03*
X193114D02*
D03*
X200988D02*
D03*
X208862D02*
D03*
D169*
X1122683Y696172D02*
D03*
Y704164D02*
D03*
X1132683Y700188D02*
D03*
Y692196D02*
D03*
X1122683Y680227D02*
D03*
X1132683Y676212D02*
D03*
Y684204D02*
D03*
X1122683Y672235D02*
D03*
D186*
X565000Y693767D02*
D03*
X561375D02*
D03*
X570750Y690945D02*
D03*
X1159184Y235061D02*
D03*
X1153355Y241493D02*
D03*
X577875Y688976D02*
D03*
X581500D02*
D03*
X587500Y693755D02*
D03*
X139172Y788175D02*
D03*
X160648Y774979D02*
D03*
X154913Y785634D02*
D03*
X144466Y778172D02*
D03*
X482019Y726575D02*
D03*
X486054D02*
D03*
X128608Y775440D02*
D03*
X500886Y722953D02*
D03*
X504921D02*
D03*
X191369Y774559D02*
D03*
X207303Y778256D02*
D03*
X97615Y774803D02*
D03*
X92327Y785653D02*
D03*
X506843Y709842D02*
D03*
X510772D02*
D03*
X202113Y788374D02*
D03*
X186463Y785738D02*
D03*
X176043Y778138D02*
D03*
X171054Y788835D02*
D03*
X123626Y785653D02*
D03*
X113801Y778161D02*
D03*
X104294Y785641D02*
D03*
X81190Y778146D02*
D03*
X76560Y788374D02*
D03*
X60783Y785626D02*
D03*
X65982Y775252D02*
D03*
X574375Y690945D02*
D03*
X591125Y693755D02*
D03*
X295510Y354712D02*
D03*
X275492Y351544D02*
D03*
X295492Y358818D02*
D03*
X260234Y423494D02*
D03*
X255866D02*
D03*
X341788Y368702D02*
D03*
X344500Y365800D02*
D03*
X549971Y463319D02*
D03*
X497132Y557776D02*
D03*
X522638Y711614D02*
D03*
X518602D02*
D03*
X552921Y465508D02*
D03*
X1004913Y227289D02*
D03*
X487696Y691195D02*
D03*
X484045Y693317D02*
D03*
X545351Y463302D02*
D03*
X547764Y467134D02*
D03*
X352264Y351236D02*
D03*
X377699Y334820D02*
D03*
X188998Y170482D02*
D03*
X361330Y274221D02*
D03*
X330158Y270882D02*
D03*
X345387Y271937D02*
D03*
X352571D02*
D03*
X448558Y306594D02*
D03*
X404860Y180145D02*
D03*
X436663Y169323D02*
D03*
X542947Y467823D02*
D03*
X368307Y688189D02*
D03*
X495831Y691339D02*
D03*
X487752Y170413D02*
D03*
X388434Y170466D02*
D03*
X337309Y168885D02*
D03*
X287256Y170435D02*
D03*
X236926Y168802D02*
D03*
X453513Y573101D02*
D03*
X377675Y355752D02*
D03*
X353129Y356399D02*
D03*
X353186Y344307D02*
D03*
X354394Y338791D02*
D03*
X373583Y342572D02*
D03*
X347627Y356441D02*
D03*
X302614Y177114D02*
D03*
X252621Y177641D02*
D03*
X151725Y177362D02*
D03*
X139689Y170363D02*
D03*
X482528Y430557D02*
D03*
Y425456D02*
D03*
Y416986D02*
D03*
Y406677D02*
D03*
Y420929D02*
D03*
Y411205D02*
D03*
X512370Y427881D02*
D03*
X307805Y270833D02*
D03*
X300641Y271894D02*
D03*
X502739Y691339D02*
D03*
X498193Y688189D02*
D03*
X456979Y292267D02*
D03*
X517815Y707382D02*
D03*
X513779D02*
D03*
X528543Y722953D02*
D03*
X524508D02*
D03*
X521475Y726575D02*
D03*
X517440D02*
D03*
X509665D02*
D03*
X505630D02*
D03*
X497835D02*
D03*
X493799D02*
D03*
X493111Y722953D02*
D03*
X489076D02*
D03*
X290196Y326975D02*
D03*
X323059Y270833D02*
D03*
X315509D02*
D03*
X294422Y271894D02*
D03*
X824705Y658740D02*
D03*
X290894Y334839D02*
D03*
Y331209D02*
D03*
X452441Y177032D02*
D03*
X352618D02*
D03*
X999913Y227191D02*
D03*
X1058004Y208413D02*
D03*
X1055501Y211700D02*
D03*
X1141291Y213066D02*
D03*
X1138732Y216330D02*
D03*
X821918Y655486D02*
D03*
X482118Y596457D02*
D03*
X466165Y608895D02*
D03*
X389540Y688189D02*
D03*
X384816Y691339D02*
D03*
X382454Y688189D02*
D03*
X479297D02*
D03*
X476935Y691339D02*
D03*
X514252Y430707D02*
D03*
X36801Y239666D02*
D03*
X20833Y239325D02*
D03*
X503258Y177258D02*
D03*
X201673Y177364D02*
D03*
X482528Y393091D02*
D03*
Y397622D02*
D03*
X190898Y568358D02*
D03*
X546980Y369890D02*
D03*
X542449D02*
D03*
X537921D02*
D03*
X533394D02*
D03*
X528866D02*
D03*
X514803D02*
D03*
X519610D02*
D03*
X524295D02*
D03*
X291614Y356805D02*
D03*
X555638Y462390D02*
D03*
X505705Y369890D02*
D03*
X510232D02*
D03*
X472211Y688189D02*
D03*
X375368D02*
D03*
X370644Y691339D02*
D03*
X377730D02*
D03*
D187*
X1087598Y678173D02*
D03*
Y681681D02*
D03*
X1085236Y675894D02*
D03*
Y672228D02*
D03*
Y689413D02*
D03*
Y692921D02*
D03*
X1087598Y698945D02*
D03*
Y695397D02*
D03*
D198*
X780527Y262123D02*
X802936Y239714D01*
X785152Y264039D02*
X804438Y244753D01*
X780527Y262123D02*
Y312424D01*
X785152Y264039D02*
Y314340D01*
X754144Y338807D02*
X780527Y312424D01*
X758770Y340723D02*
X785152Y314340D01*
X754144Y338807D02*
X754144Y455971D01*
X758770Y340723D02*
X758770Y457887D01*
X751149Y465508D02*
X758770Y457887D01*
X749233Y460882D02*
X754144Y455971D01*
X535955Y516334D02*
X549971Y502318D01*
X528365Y516334D02*
X535955D01*
X503042Y541657D02*
X528365Y516334D01*
X497132Y555158D02*
X503042Y549248D01*
Y541657D02*
Y549248D01*
X494208Y551786D02*
X499048Y546946D01*
Y538803D02*
Y546946D01*
Y538803D02*
X525084Y512767D01*
X533227D02*
X546233Y499761D01*
X525084Y512767D02*
X533227D01*
X494208Y551786D02*
Y593869D01*
X546233Y479325D02*
Y499761D01*
X549971Y463319D02*
Y502318D01*
X497132Y555158D02*
Y557774D01*
X995975Y244753D02*
X1004913Y235815D01*
X804438Y244753D02*
X995975D01*
X557583Y465508D02*
X751149Y465508D01*
X552921Y465508D02*
X557583D01*
X1004913Y227289D02*
Y235815D01*
X466165Y608895D02*
X466167D01*
X464611D02*
X466165D01*
X545351Y463302D02*
Y473581D01*
X545683Y473912D01*
X547764Y467134D02*
Y477794D01*
X524548Y495047D02*
X545683Y473912D01*
X546233Y479325D02*
X547764Y477794D01*
X542947Y467823D02*
Y471575D01*
X522874Y491648D02*
X542947Y471575D01*
X477794Y491648D02*
X522874D01*
X479028Y495047D02*
X524548D01*
X542947Y467823D02*
X542970Y467799D01*
X562029Y460882D02*
X749233Y460882D01*
X560522Y462390D02*
X562029Y460882D01*
X555638Y462390D02*
X560522D01*
X802936Y239714D02*
X995503D01*
X999913Y227191D02*
Y235303D01*
X995503Y239714D02*
X999913Y235303D01*
X453513Y515929D02*
X477794Y491648D01*
X453513Y515929D02*
Y573101D01*
X491621Y596457D02*
X494208Y593869D01*
X482118Y596457D02*
X491621D01*
X463024Y596279D02*
Y607307D01*
X464611Y608895D01*
X462669Y511406D02*
X479028Y495047D01*
X462669Y511406D02*
Y547957D01*
X458697Y551929D02*
X462669Y547957D01*
X458697Y551929D02*
Y591953D01*
X463024Y596279D01*
D200*
X776614Y674772D02*
G03*
X777832Y673927I1218J455D01*
G01*
X776587Y674927D02*
G03*
X776614Y674772I450J-0D01*
G01*
X773157Y674766D02*
G03*
X773187Y674927I-420J161D01*
G01*
X771941Y673927D02*
G03*
X773156Y674765I0J1300D01*
G01*
X777480Y675037D02*
G03*
X777832Y674827I352J190D01*
G01*
X777480Y675037D02*
G03*
X776587Y675827I-893J-110D01*
G01*
X773187D02*
G03*
X772293Y675037I0J-900D01*
G01*
X771941Y674827D02*
G03*
X772293Y675037I0J400D01*
G01*
X868545Y682922D02*
G03*
X869763Y682077I1218J455D01*
G01*
X868517Y683077D02*
G03*
X868545Y682922I450J-0D01*
G01*
X864217Y681977D02*
G03*
X865117Y682877I0J900D01*
G01*
X859917D02*
G03*
X860817Y681977I900J0D01*
G01*
X855617D02*
G03*
X856517Y682877I0J900D01*
G01*
X851317D02*
G03*
X852217Y681977I900J0D01*
G01*
X847017D02*
G03*
X847917Y682877I0J900D01*
G01*
X842717D02*
G03*
X843617Y681977I900J0D01*
G01*
X838417D02*
G03*
X839317Y682877I0J900D01*
G01*
X834117D02*
G03*
X835017Y681977I900J0D01*
G01*
X829817D02*
G03*
X830717Y682877I0J900D01*
G01*
X825517D02*
G03*
X826417Y681977I900J0D01*
G01*
X821217D02*
G03*
X822117Y682877I0J900D01*
G01*
X816917D02*
G03*
X817817Y681977I900J0D01*
G01*
X812617D02*
G03*
X813517Y682877I0J900D01*
G01*
X808317D02*
G03*
X809217Y681977I900J0D01*
G01*
X804017D02*
G03*
X804917Y682877I0J900D01*
G01*
X799717D02*
G03*
X800617Y681977I900J0D01*
G01*
X795417D02*
G03*
X796317Y682877I0J900D01*
G01*
X791117D02*
G03*
X792017Y681977I900J0D01*
G01*
X786817D02*
G03*
X787717Y682877I0J900D01*
G01*
X782517D02*
G03*
X783417Y681977I900J0D01*
G01*
X779087Y682916D02*
G03*
X779117Y683077I-420J161D01*
G01*
X777872Y682077D02*
G03*
X779087Y682915I0J1300D01*
G01*
X869411Y683187D02*
G03*
X869763Y682977I352J190D01*
G01*
X869411Y683187D02*
G03*
X868517Y683977I-893J-110D01*
G01*
X865117D02*
G03*
X864217Y683077I0J-900D01*
G01*
X860817Y682877D02*
G03*
X859917Y683777I-900J0D01*
G01*
X856517D02*
G03*
X855617Y682877I0J-900D01*
G01*
X852217Y682909D02*
G03*
X851317Y683809I-900J0D01*
G01*
X847917D02*
G03*
X847017Y682909I0J-900D01*
G01*
X843617Y683077D02*
G03*
X842717Y683977I-900J0D01*
G01*
X839317D02*
G03*
X838417Y683077I0J-900D01*
G01*
X835017D02*
G03*
X834117Y683977I-900J0D01*
G01*
X830717D02*
G03*
X829817Y683077I0J-900D01*
G01*
X826417D02*
G03*
X825517Y683977I-900J0D01*
G01*
X822117D02*
G03*
X821217Y683077I0J-900D01*
G01*
X817817D02*
G03*
X816917Y683977I-900J0D01*
G01*
X813517D02*
G03*
X812617Y683077I0J-900D01*
G01*
X809217D02*
G03*
X808317Y683977I-900J0D01*
G01*
X804917D02*
G03*
X804017Y683077I0J-900D01*
G01*
X800617D02*
G03*
X799717Y683977I-900J0D01*
G01*
X796317D02*
G03*
X795417Y683077I0J-900D01*
G01*
X792017D02*
G03*
X791117Y683977I-900J0D01*
G01*
X787717D02*
G03*
X786817Y683077I0J-900D01*
G01*
X783417D02*
G03*
X782517Y683977I-900J0D01*
G01*
X779117D02*
G03*
X778224Y683187I0J-900D01*
G01*
X777872Y682977D02*
G03*
X778224Y683187I0J400D01*
G01*
X1005966Y688792D02*
G03*
X1007183Y687947I1218J455D01*
G01*
X1005938Y688947D02*
G03*
X1005966Y688792I450J-0D01*
G01*
X1001638Y687847D02*
G03*
X1002538Y688747I0J900D01*
G01*
X997338D02*
G03*
X998238Y687847I900J0D01*
G01*
X993038D02*
G03*
X993938Y688747I0J900D01*
G01*
X988738D02*
G03*
X989638Y687847I900J0D01*
G01*
X984438D02*
G03*
X985338Y688747I0J900D01*
G01*
X980138D02*
G03*
X981038Y687847I900J0D01*
G01*
X975838D02*
G03*
X976738Y688747I0J900D01*
G01*
X971538D02*
G03*
X972438Y687847I900J0D01*
G01*
X967238D02*
G03*
X968138Y688747I0J900D01*
G01*
X962938D02*
G03*
X963838Y687847I900J0D01*
G01*
X958638D02*
G03*
X959538Y688747I0J900D01*
G01*
X954338D02*
G03*
X955238Y687847I900J0D01*
G01*
X950038D02*
G03*
X950938Y688747I0J900D01*
G01*
X945738D02*
G03*
X946638Y687847I900J0D01*
G01*
X941438D02*
G03*
X942338Y688747I0J900D01*
G01*
X937138D02*
G03*
X938038Y687847I900J0D01*
G01*
X933708Y688786D02*
G03*
X933738Y688947I-420J161D01*
G01*
X932492Y687947D02*
G03*
X933707Y688785I0J1300D01*
G01*
X911365Y688792D02*
G03*
X912583Y687947I1218J455D01*
G01*
X911337Y688947D02*
G03*
X911365Y688792I450J-0D01*
G01*
X907038Y687847D02*
G03*
X907938Y688747I0J900D01*
G01*
X902738D02*
G03*
X903638Y687847I900J0D01*
G01*
X898437D02*
G03*
X899337Y688747I0J900D01*
G01*
X894137D02*
G03*
X895037Y687847I900J0D01*
G01*
X889837D02*
G03*
X890737Y688747I0J900D01*
G01*
X885537D02*
G03*
X886437Y687847I900J0D01*
G01*
X881237D02*
G03*
X882137Y688747I0J900D01*
G01*
X876937D02*
G03*
X877837Y687847I900J0D01*
G01*
X872637D02*
G03*
X873537Y688747I0J900D01*
G01*
X868337D02*
G03*
X869237Y687847I900J0D01*
G01*
X864037D02*
G03*
X864937Y688747I0J900D01*
G01*
X859737D02*
G03*
X860637Y687847I900J0D01*
G01*
X855437D02*
G03*
X856337Y688747I0J900D01*
G01*
X851137D02*
G03*
X852037Y687847I900J0D01*
G01*
X846837D02*
G03*
X847737Y688747I0J900D01*
G01*
X842537D02*
G03*
X843437Y687847I900J0D01*
G01*
X838237D02*
G03*
X839137Y688747I0J900D01*
G01*
X833937D02*
G03*
X834837Y687847I900J0D01*
G01*
X829637D02*
G03*
X830537Y688747I0J900D01*
G01*
X825337D02*
G03*
X826237Y687847I900J0D01*
G01*
X821037D02*
G03*
X821937Y688747I0J900D01*
G01*
X816737D02*
G03*
X817637Y687847I900J0D01*
G01*
X812437D02*
G03*
X813337Y688747I0J900D01*
G01*
X808137D02*
G03*
X809037Y687847I900J0D01*
G01*
X803837D02*
G03*
X804737Y688747I0J900D01*
G01*
X799537D02*
G03*
X800437Y687847I900J0D01*
G01*
X796107Y688786D02*
G03*
X796137Y688947I-420J161D01*
G01*
X794892Y687947D02*
G03*
X796107Y688785I0J1300D01*
G01*
X1006831Y689057D02*
G03*
X1007183Y688847I352J190D01*
G01*
X1006831Y689057D02*
G03*
X1005938Y689847I-893J-110D01*
G01*
X1002538D02*
G03*
X1001638Y688947I0J-900D01*
G01*
X998238D02*
G03*
X997338Y689847I-900J0D01*
G01*
X993938D02*
G03*
X993038Y688947I0J-900D01*
G01*
X989638D02*
G03*
X988738Y689847I-900J0D01*
G01*
X985338D02*
G03*
X984438Y688947I0J-900D01*
G01*
X981038D02*
G03*
X980138Y689847I-900J0D01*
G01*
X976738D02*
G03*
X975838Y688947I0J-900D01*
G01*
X972438D02*
G03*
X971538Y689847I-900J0D01*
G01*
X968138D02*
G03*
X967238Y688947I0J-900D01*
G01*
X963838D02*
G03*
X962938Y689847I-900J0D01*
G01*
X959538D02*
G03*
X958638Y688947I0J-900D01*
G01*
X955238D02*
G03*
X954338Y689847I-900J0D01*
G01*
X950938D02*
G03*
X950038Y688947I0J-900D01*
G01*
X946638D02*
G03*
X945738Y689847I-900J0D01*
G01*
X942338D02*
G03*
X941438Y688947I0J-900D01*
G01*
X938038D02*
G03*
X937138Y689847I-900J0D01*
G01*
X933738D02*
G03*
X932844Y689057I0J-900D01*
G01*
X932492Y688847D02*
G03*
X932844Y689057I0J400D01*
G01*
X912231Y689057D02*
G03*
X912583Y688847I352J190D01*
G01*
X912231Y689057D02*
G03*
X911337Y689847I-893J-110D01*
G01*
X907938D02*
G03*
X907038Y688947I0J-900D01*
G01*
X903638D02*
G03*
X902738Y689847I-900J0D01*
G01*
X899337D02*
G03*
X898437Y688947I0J-900D01*
G01*
X895037D02*
G03*
X894137Y689847I-900J0D01*
G01*
X890737D02*
G03*
X889837Y688947I0J-900D01*
G01*
X886437D02*
G03*
X885537Y689847I-900J0D01*
G01*
X882137D02*
G03*
X881237Y688947I0J-900D01*
G01*
X877837D02*
G03*
X876937Y689847I-900J0D01*
G01*
X873537D02*
G03*
X872637Y688947I0J-900D01*
G01*
X869237D02*
G03*
X868337Y689847I-900J0D01*
G01*
X864937D02*
G03*
X864037Y688947I0J-900D01*
G01*
X860637D02*
G03*
X859737Y689847I-900J0D01*
G01*
X856337D02*
G03*
X855437Y688947I0J-900D01*
G01*
X852037D02*
G03*
X851137Y689847I-900J0D01*
G01*
X847737D02*
G03*
X846837Y688947I0J-900D01*
G01*
X843437D02*
G03*
X842537Y689847I-900J0D01*
G01*
X839137D02*
G03*
X838237Y688947I0J-900D01*
G01*
X834837D02*
G03*
X833937Y689847I-900J0D01*
G01*
X830537D02*
G03*
X829637Y688947I0J-900D01*
G01*
X826237D02*
G03*
X825337Y689847I-900J0D01*
G01*
X821937D02*
G03*
X821037Y688947I0J-900D01*
G01*
X817637D02*
G03*
X816737Y689847I-900J0D01*
G01*
X813337D02*
G03*
X812437Y688947I0J-900D01*
G01*
X809037D02*
G03*
X808137Y689847I-900J0D01*
G01*
X804737D02*
G03*
X803837Y688947I0J-900D01*
G01*
X800437D02*
G03*
X799537Y689847I-900J0D01*
G01*
X796137D02*
G03*
X795244Y689057I0J-900D01*
G01*
X794892Y688847D02*
G03*
X795244Y689057I0J400D01*
G01*
X79391Y731934D02*
Y777963D01*
X78491Y731561D02*
Y788332D01*
X205540Y778256D02*
X207303D01*
X172979Y791789D02*
Y805017D01*
Y791126D02*
Y791789D01*
Y788864D02*
Y791126D01*
X173879Y791789D02*
Y805390D01*
Y791126D02*
Y791789D01*
Y778082D02*
Y791126D01*
X157231Y791789D02*
Y811474D01*
Y791126D02*
Y791789D01*
Y785586D02*
Y791126D01*
X158131Y791789D02*
Y811474D01*
Y791126D02*
Y791789D01*
Y774900D02*
Y791126D01*
X142383Y791789D02*
Y811474D01*
Y791126D02*
Y791789D01*
Y778242D02*
Y791126D01*
X141483Y791789D02*
Y811474D01*
Y791126D02*
Y791789D01*
Y788258D02*
Y791126D01*
X204475Y791789D02*
Y804499D01*
X204475Y804499D02*
X204475Y804499D01*
X204475Y804499D02*
Y811474D01*
X200988Y814961D02*
X204475Y811474D01*
X205375Y777099D02*
Y804872D01*
X205375Y804872D02*
X205375Y804872D01*
X205375Y804872D02*
Y811474D01*
X208862Y814961D01*
X188727Y791789D02*
Y804499D01*
X189627Y774657D02*
Y804872D01*
X188727Y804499D02*
X188727Y804499D01*
X188727Y804499D02*
Y811474D01*
X185240Y814961D02*
X188727Y811474D01*
X189627Y804872D02*
X189627Y804872D01*
X189627Y804872D02*
Y811474D01*
X193114Y814961D01*
X172979Y805017D02*
X172979Y805017D01*
X172979Y805017D02*
Y811474D01*
X169492Y814961D02*
X172979Y811474D01*
X173879Y805390D02*
X173879Y805390D01*
X173879Y805390D02*
Y811474D01*
X177366Y814961D01*
X153744D02*
X157231Y811474D01*
X158131D02*
X161618Y814961D01*
X137996D02*
X141483Y811474D01*
X142383D02*
X145870Y814961D01*
X125735Y785489D02*
Y811474D01*
X122248Y814961D02*
X125735Y811474D01*
X126635Y775322D02*
Y811474D01*
X130122Y814961D01*
X109987Y791789D02*
Y806295D01*
X109987Y806295D02*
X109987Y806295D01*
X109987Y806295D02*
Y811474D01*
X106500Y814961D02*
X109987Y811474D01*
X110887Y744949D02*
Y806668D01*
X110887Y806668D02*
X110887Y806668D01*
X110887Y806668D02*
Y811474D01*
X114374Y814961D01*
X95139Y774537D02*
Y805590D01*
X94239Y791789D02*
Y805217D01*
X94239Y805217D02*
X94239Y805217D01*
X94239Y805217D02*
Y811474D01*
X90752Y814961D02*
X94239Y811474D01*
X95139Y805590D02*
X95139Y805590D01*
X95139Y805590D02*
Y811474D01*
X98626Y814961D01*
X79391Y777963D02*
Y806108D01*
X78491Y791789D02*
Y805735D01*
X78491Y805735D02*
X78491Y805735D01*
X78491Y805735D02*
Y811474D01*
X75004Y814961D02*
X78491Y811474D01*
X79391Y806108D02*
X79391Y806108D01*
X79391Y806108D02*
Y811474D01*
X82878Y814961D01*
X62743Y785674D02*
Y811474D01*
X59256Y814961D02*
X62743Y811474D01*
X63643D02*
X67130Y814961D01*
X63643Y775274D02*
Y811474D01*
X786657Y673927D02*
X787307D01*
X777832Y673927D02*
X786657Y673927D01*
X773187Y674927D02*
X776587D01*
X773156Y674765D02*
X773157Y674766D01*
X771237Y673927D02*
X771941D01*
X786657Y674827D02*
X787307D01*
X777832Y674827D02*
X786657D01*
X773187Y675827D02*
X776587D01*
X771237Y674827D02*
X771941D01*
X787307Y673927D02*
X1032618D01*
X754738D02*
X771237D01*
X787307Y674827D02*
X1032212D01*
X754365D02*
X771237D01*
X1038137Y679479D02*
Y679479D01*
X1032601Y673944D02*
X1038137Y679479D01*
X744723Y663911D02*
X754738Y673927D01*
X744723Y663911D02*
Y663911D01*
X705175Y663911D02*
X744723D01*
X705175Y663911D02*
X705175Y663911D01*
X700338Y659074D02*
X705175Y663911D01*
X700338Y659074D02*
Y659074D01*
X700338Y659074D02*
X700338Y659074D01*
X629428Y659074D02*
X700338D01*
X618341Y670162D02*
X629428Y659074D01*
X618341Y670162D02*
X618341D01*
X592983D02*
X618341D01*
X592983Y670162D02*
X592983Y670162D01*
X578426Y670162D02*
X592983D01*
X578426Y670162D02*
X578426Y670162D01*
X572113Y676475D02*
X578426Y670162D01*
X572113Y676475D02*
X572113D01*
X573012Y676848D02*
X573012D01*
X578799Y671062D01*
X578799Y671062D01*
X592983D01*
X592983Y671062D01*
X618713D01*
X618714D01*
X629801Y659974D01*
X629801Y659974D01*
X699965D01*
Y659975D01*
X704802Y664812D01*
X704802Y664812D01*
X744350D01*
Y664812D01*
X754365Y674827D01*
X1038137Y679479D02*
X1087598D01*
X1092295D01*
X1037764Y680379D02*
X1087598D01*
X1091922D01*
X876023Y682077D02*
Y682077D01*
X875373Y682077D02*
X876023D01*
X869763Y682077D02*
X875373Y682077D01*
X865117Y683077D02*
X868517D01*
X865117Y682877D02*
Y683077D01*
X860817Y681977D02*
X864217D01*
X859917Y682877D02*
Y682877D01*
X856517D02*
X859917D01*
X856517Y682877D02*
Y682877D01*
X852217Y681977D02*
X855617D01*
X851317Y682877D02*
Y682909D01*
X847917D02*
X851317D01*
X847917Y682877D02*
Y682909D01*
X843617Y681977D02*
X847017D01*
X842717Y682877D02*
Y683077D01*
X839317D02*
X842717D01*
X839317Y682877D02*
Y683077D01*
X835017Y681977D02*
X838417D01*
X834117Y682877D02*
Y683077D01*
X830717D02*
X834117D01*
X830717Y682877D02*
Y683077D01*
X826417Y681977D02*
X829817D01*
X825517Y682877D02*
Y683077D01*
X822117D02*
X825517D01*
X822117Y682877D02*
Y683077D01*
X817817Y681977D02*
X821217D01*
X816917Y682877D02*
Y683077D01*
X813517D02*
X816917D01*
X813517Y682877D02*
Y683077D01*
X809217Y681977D02*
X812617D01*
X808317Y682877D02*
Y683077D01*
X804917D02*
X808317D01*
X804917Y682877D02*
Y683077D01*
X800617Y681977D02*
X804017D01*
X799717Y682877D02*
Y683077D01*
X796317D02*
X799717D01*
X796317Y682877D02*
Y683077D01*
X792017Y681977D02*
X795417D01*
X791117Y682877D02*
Y683077D01*
X787717D02*
X791117D01*
X787717Y682877D02*
Y683077D01*
X783417Y681977D02*
X786817D01*
X782517Y682877D02*
Y683077D01*
X779117D02*
X782517D01*
X779087Y682915D02*
X779087Y682916D01*
X777167Y682077D02*
X777872D01*
X777167D02*
Y682077D01*
X875373Y682977D02*
X876023D01*
X869763Y682977D02*
X875373D01*
X865117Y683977D02*
X868517D01*
X864217Y682877D02*
Y683077D01*
X860817Y682877D02*
X864217D01*
X860817D02*
Y682877D01*
X856517Y683777D02*
X859917D01*
X855617Y682877D02*
Y682877D01*
X852217Y682877D02*
X855617D01*
X852217D02*
Y682909D01*
X847917Y683809D02*
X851317D01*
X847017Y682877D02*
Y682909D01*
X843617Y682877D02*
X847017D01*
X843617D02*
Y683077D01*
X839317Y683977D02*
X842717D01*
X838417Y682877D02*
Y683077D01*
X835017Y682877D02*
X838417D01*
X835017D02*
Y683077D01*
X830717Y683977D02*
X834117D01*
X829817Y682877D02*
Y683077D01*
X826417Y682877D02*
X829817D01*
X826417D02*
Y683077D01*
X822117Y683977D02*
X825517D01*
X821217Y682877D02*
Y683077D01*
X817817Y682877D02*
X821217D01*
X817817D02*
Y683077D01*
X813517Y683977D02*
X816917D01*
X812617Y682877D02*
Y683077D01*
X809217Y682877D02*
X812617D01*
X809217D02*
Y683077D01*
X804917Y683977D02*
X808317D01*
X804017Y682877D02*
Y683077D01*
X800617Y682877D02*
X804017D01*
X800617D02*
Y683077D01*
X796317Y683977D02*
X799717D01*
X795417Y682877D02*
Y683077D01*
X792017Y682877D02*
X795417D01*
X792017D02*
Y683077D01*
X787717Y683977D02*
X791117D01*
X786817Y682877D02*
Y683077D01*
X783417Y682877D02*
X786817D01*
X783417D02*
Y683077D01*
X779117Y683977D02*
X782517D01*
X777167Y682977D02*
X777872D01*
X876023Y682077D02*
X1026016D01*
X755686D02*
X777167D01*
X876023Y682977D02*
X1025643D01*
X755313D02*
X777167D01*
X702969Y669237D02*
X742846D01*
X702969Y669237D02*
X702969Y669237D01*
X698063Y664331D02*
X702969Y669237D01*
X698063Y664331D02*
Y664331D01*
X698063Y664331D02*
X698063Y664331D01*
X632811Y664331D02*
X698063D01*
X621708Y675434D02*
X632811Y664331D01*
X621708Y675434D02*
X621708D01*
X620908D02*
X621708D01*
X620908Y675434D02*
X620908Y675434D01*
X588087Y675434D02*
X620908D01*
X588087Y676334D02*
X588087Y676334D01*
X622081D01*
X622081D01*
X633184Y665231D01*
X633184Y665231D01*
X697690D01*
Y665231D01*
X702596Y670137D01*
X702596Y670137D01*
X742473D01*
X1034667Y690727D02*
X1085236D01*
X1089083D01*
X1034294Y691627D02*
X1085236D01*
X1089456D01*
X1010619Y687947D02*
Y687947D01*
X1009969Y687947D02*
X1010619D01*
X1007183Y687947D02*
X1009969Y687947D01*
X1002538Y688947D02*
X1005938D01*
X1002538Y688747D02*
Y688947D01*
X998238Y687847D02*
X1001638D01*
X997338Y688747D02*
Y688947D01*
X993938D02*
X997338D01*
X993938Y688747D02*
Y688947D01*
X989638Y687847D02*
X993038D01*
X988738Y688747D02*
Y688947D01*
X985338D02*
X988738D01*
X985338Y688747D02*
Y688947D01*
X981038Y687847D02*
X984438D01*
X980138Y688747D02*
Y688947D01*
X976738D02*
X980138D01*
X976738Y688747D02*
Y688947D01*
X972438Y687847D02*
X975838D01*
X971538Y688747D02*
Y688947D01*
X968138D02*
X971538D01*
X968138Y688747D02*
Y688947D01*
X963838Y687847D02*
X967238D01*
X962938Y688747D02*
Y688947D01*
X959538D02*
X962938D01*
X959538Y688747D02*
Y688947D01*
X955238Y687847D02*
X958638D01*
X954338Y688747D02*
Y688947D01*
X950938D02*
X954338D01*
X950938Y688747D02*
Y688947D01*
X946638Y687847D02*
X950038D01*
X945738Y688747D02*
Y688947D01*
X942338D02*
X945738D01*
X942338Y688747D02*
Y688947D01*
X938038Y687847D02*
X941438D01*
X937138Y688747D02*
Y688947D01*
X933738D02*
X937138D01*
X933707Y688785D02*
X933708Y688786D01*
X912583Y687947D02*
X932492Y687947D01*
X907938Y688947D02*
X911337D01*
X907938Y688747D02*
Y688947D01*
X903638Y687847D02*
X907038D01*
X902738Y688747D02*
Y688947D01*
X899337D02*
X902738D01*
X899337Y688747D02*
Y688947D01*
X895037Y687847D02*
X898437D01*
X894137Y688747D02*
Y688947D01*
X890737D02*
X894137D01*
X890737Y688747D02*
Y688947D01*
X886437Y687847D02*
X889837D01*
X885537Y688747D02*
Y688947D01*
X882137D02*
X885537D01*
X882137Y688747D02*
Y688947D01*
X877837Y687847D02*
X881237D01*
X876937Y688747D02*
Y688947D01*
X873537D02*
X876937D01*
X873537Y688747D02*
Y688947D01*
X869237Y687847D02*
X872637D01*
X868337Y688747D02*
Y688947D01*
X864937D02*
X868337D01*
X864937Y688747D02*
Y688947D01*
X860637Y687847D02*
X864037D01*
X859737Y688747D02*
Y688947D01*
X856337D02*
X859737D01*
X856337Y688747D02*
Y688947D01*
X852037Y687847D02*
X855437D01*
X851137Y688747D02*
Y688947D01*
X847737D02*
X851137D01*
X847737Y688747D02*
Y688947D01*
X843437Y687847D02*
X846837D01*
X842537Y688747D02*
Y688947D01*
X839137D02*
X842537D01*
X839137Y688747D02*
Y688947D01*
X834837Y687847D02*
X838237D01*
X833937Y688747D02*
Y688947D01*
X830537D02*
X833937D01*
X830537Y688747D02*
Y688947D01*
X826237Y687847D02*
X829637D01*
X825337Y688747D02*
Y688947D01*
X821937D02*
X825337D01*
X821937Y688747D02*
Y688947D01*
X817637Y687847D02*
X821037D01*
X816737Y688747D02*
Y688947D01*
X813337D02*
X816737D01*
X813337Y688747D02*
Y688947D01*
X809037Y687847D02*
X812437D01*
X808137Y688747D02*
Y688947D01*
X804737D02*
X808137D01*
X804737Y688747D02*
Y688947D01*
X800437Y687847D02*
X803837D01*
X799537Y688747D02*
Y688947D01*
X796137D02*
X799537D01*
X796107Y688785D02*
X796107Y688786D01*
X794187Y687947D02*
X794892D01*
X1009969Y688847D02*
X1010619D01*
X1007183Y688847D02*
X1009969D01*
X1002538Y689847D02*
X1005938D01*
X1001638Y688747D02*
Y688947D01*
X998238Y688747D02*
X1001638D01*
X998238D02*
Y688947D01*
X993938Y689847D02*
X997338D01*
X993038Y688747D02*
Y688947D01*
X989638Y688747D02*
X993038D01*
X989638D02*
Y688947D01*
X985338Y689847D02*
X988738D01*
X984438Y688747D02*
Y688947D01*
X981038Y688747D02*
X984438D01*
X981038D02*
Y688947D01*
X976738Y689847D02*
X980138D01*
X975838Y688747D02*
Y688947D01*
X972438Y688747D02*
X975838D01*
X972438D02*
Y688947D01*
X968138Y689847D02*
X971538D01*
X967238Y688747D02*
Y688947D01*
X963838Y688747D02*
X967238D01*
X963838D02*
Y688947D01*
X959538Y689847D02*
X962938D01*
X958638Y688747D02*
Y688947D01*
X955238Y688747D02*
X958638D01*
X955238D02*
Y688947D01*
X950938Y689847D02*
X954338D01*
X950038Y688747D02*
Y688947D01*
X946638Y688747D02*
X950038D01*
X946638D02*
Y688947D01*
X942338Y689847D02*
X945738D01*
X941438Y688747D02*
Y688947D01*
X938038Y688747D02*
X941438D01*
X938038D02*
Y688947D01*
X933738Y689847D02*
X937138D01*
X912583Y688847D02*
X932492D01*
X907938Y689847D02*
X911337D01*
X907038Y688747D02*
Y688947D01*
X903638Y688747D02*
X907038D01*
X903638D02*
Y688947D01*
X899337Y689847D02*
X902738D01*
X898437Y688747D02*
Y688947D01*
X895037Y688747D02*
X898437D01*
X895037D02*
Y688947D01*
X890737Y689847D02*
X894137D01*
X889837Y688747D02*
Y688947D01*
X886437Y688747D02*
X889837D01*
X886437D02*
Y688947D01*
X882137Y689847D02*
X885537D01*
X881237Y688747D02*
Y688947D01*
X877837Y688747D02*
X881237D01*
X877837D02*
Y688947D01*
X873537Y689847D02*
X876937D01*
X872637Y688747D02*
Y688947D01*
X869237Y688747D02*
X872637D01*
X869237D02*
Y688947D01*
X864937Y689847D02*
X868337D01*
X864037Y688747D02*
Y688947D01*
X860637Y688747D02*
X864037D01*
X860637D02*
Y688947D01*
X856337Y689847D02*
X859737D01*
X855437Y688747D02*
Y688947D01*
X852037Y688747D02*
X855437D01*
X852037D02*
Y688947D01*
X847737Y689847D02*
X851137D01*
X846837Y688747D02*
Y688947D01*
X843437Y688747D02*
X846837D01*
X843437D02*
Y688947D01*
X839137Y689847D02*
X842537D01*
X838237Y688747D02*
Y688947D01*
X834837Y688747D02*
X838237D01*
X834837D02*
Y688947D01*
X830537Y689847D02*
X833937D01*
X829637Y688747D02*
Y688947D01*
X826237Y688747D02*
X829637D01*
X826237D02*
Y688947D01*
X821937Y689847D02*
X825337D01*
X821037Y688747D02*
Y688947D01*
X817637Y688747D02*
X821037D01*
X817637D02*
Y688947D01*
X813337Y689847D02*
X816737D01*
X812437Y688747D02*
Y688947D01*
X809037Y688747D02*
X812437D01*
X809037D02*
Y688947D01*
X804737Y689847D02*
X808137D01*
X803837Y688747D02*
Y688947D01*
X800437Y688747D02*
X803837D01*
X800437D02*
Y688947D01*
X796137Y689847D02*
X799537D01*
X794187Y688847D02*
X794892D01*
X1010619Y687947D02*
X1013636D01*
X735260Y687947D02*
X794187D01*
X1010619Y688847D02*
X1013264D01*
X734888D02*
X794187D01*
X1013636Y687947D02*
X1022318Y696628D01*
X1013264Y688847D02*
X1021681Y697265D01*
X735260Y687947D02*
Y687947D01*
X722116Y674803D02*
X735260Y687947D01*
X722116Y674803D02*
X722116Y674803D01*
X677595Y674803D02*
X722116D01*
X666751Y685647D02*
X677595Y674803D01*
X666751Y685647D02*
X666751D01*
X629895D02*
X666751D01*
X629895Y685647D02*
X629895Y685647D01*
X623303Y679055D02*
X629895Y685647D01*
X623303Y679055D02*
Y679055D01*
X612264Y679055D02*
X623303D01*
X612264Y679055D02*
X612264Y679055D01*
X612264Y679955D02*
X612264Y679955D01*
X622930D01*
Y679955D01*
X629522Y686547D01*
X629522Y686547D01*
X667124D01*
X667124D01*
X677968Y675703D01*
X677968Y675703D01*
X721744D01*
X734361Y688320D01*
Y688320D01*
X734888Y688847D01*
X1022318Y696628D02*
X1087598D01*
X1100976D01*
X1021945Y697528D02*
X1087598D01*
X1101349D01*
X1021681Y697265D02*
X1021945Y697528D01*
X1021681Y697265D02*
X1021681D01*
X336000Y741550D02*
X343710Y733840D01*
X125735Y752007D02*
Y785489D01*
X125735Y752007D02*
X136192Y741550D01*
X336372Y742450D02*
X344083Y734739D01*
X136565Y742450D02*
X336372D01*
X126635Y752380D02*
X136565Y742450D01*
X136192Y741550D02*
X336000D01*
X152374Y748986D02*
X397096D01*
X142119Y759240D02*
X142119D01*
X141483Y759877D02*
X142119Y759240D01*
X397468Y749886D02*
X404335Y743019D01*
X397096Y748986D02*
X403962Y742119D01*
X491781D01*
X141483Y759877D02*
Y788258D01*
X404335Y743019D02*
X492154D01*
X142383Y760250D02*
X152746Y749886D01*
X491781Y742119D02*
X491781Y742119D01*
X142119Y759240D02*
X152374Y748986D01*
X152746Y749886D02*
X397468D01*
X623471Y655678D02*
X704844Y655679D01*
X615600Y663549D02*
X623471Y655678D01*
X578933Y663549D02*
X615600Y663549D01*
X704844Y655679D02*
X707489Y658323D01*
X1044572Y674472D02*
X1095584D01*
X1119137Y676681D02*
X1122683Y680227D01*
X1118464Y676681D02*
X1119137D01*
X1117552Y677594D02*
X1118464Y676681D01*
X1115678Y681873D02*
X1117552Y679999D01*
Y677594D02*
Y679999D01*
X1102984Y681873D02*
X1115678D01*
X1095584Y674472D02*
X1102984Y681873D01*
X1038115Y668015D02*
X1044572Y674472D01*
X1036934Y666833D02*
X1038115Y668015D01*
X948979Y666833D02*
X1036934Y666833D01*
X754703Y666833D02*
X948979Y666833D01*
X563637Y692404D02*
X565000Y693767D01*
X746193Y658324D02*
X754703Y666833D01*
X707489Y658323D02*
X746193Y658324D01*
X563637Y677492D02*
X577580Y663549D01*
X563637Y677492D02*
Y692404D01*
X577580Y663549D02*
X578933D01*
X1116652Y677221D02*
Y679626D01*
Y677221D02*
X1118091Y675781D01*
X1115305Y680972D02*
X1116652Y679626D01*
X1118091Y675781D02*
X1119137D01*
X1103357Y680972D02*
X1115305D01*
X1095956Y673572D02*
X1103357Y680972D01*
X1044945Y673572D02*
X1095956D01*
X1119137Y675781D02*
X1122683Y672235D01*
X1038752Y667379D02*
X1044945Y673572D01*
X1037306Y665934D02*
X1038752Y667379D01*
X755076Y665934D02*
X1037306Y665934D01*
X746566Y657424D02*
X755076Y665934D01*
X707862Y657424D02*
X746566Y657424D01*
X615228Y662649D02*
X623098Y654778D01*
X578933Y662649D02*
X615228Y662649D01*
X705217Y654778D02*
X707862Y657424D01*
X623098Y654778D02*
X705217Y654778D01*
X562738Y681906D02*
Y692404D01*
X562738Y677119D02*
Y681906D01*
X561375Y693767D02*
X562738Y692404D01*
X577208Y662649D02*
X578933D01*
X562738Y677119D02*
X577208Y662649D01*
X573012Y676848D02*
Y684271D01*
X570750Y690945D02*
X572113Y689582D01*
X572113Y676475D02*
Y684271D01*
X582536Y676334D02*
X588087D01*
X582163Y675434D02*
X588087D01*
X595785Y679955D02*
X612264D01*
X595412Y679055D02*
X612264D01*
X1089456Y691627D02*
X1090567Y690516D01*
X1089083Y690727D02*
X1090194Y689616D01*
X1124690D01*
X1090567Y690516D02*
X1124318D01*
X742846Y669237D02*
X755686Y682077D01*
X1124690Y689616D02*
X1127664Y692589D01*
X1128588Y695742D02*
X1129137D01*
X1132683Y692196D01*
X1127664Y694817D02*
X1128588Y695742D01*
X1127664Y692589D02*
Y694817D01*
X1026016Y682077D02*
X1034667Y690727D01*
X579238Y678359D02*
Y687614D01*
X577875Y688976D02*
X579238Y687614D01*
Y678359D02*
X582163Y675434D01*
X1129137Y696642D02*
X1132683Y700188D01*
X1128216Y696642D02*
X1129137D01*
X1126764Y695190D02*
X1128216Y696642D01*
X1126764Y692962D02*
Y695190D01*
X1124318Y690516D02*
X1126764Y692962D01*
X1025643Y682977D02*
X1034294Y691627D01*
X742473Y670137D02*
X755313Y682977D01*
X580137Y687614D02*
X581500Y688976D01*
X580137Y678732D02*
Y687614D01*
Y678732D02*
X582536Y676334D01*
X1119137Y699718D02*
X1122683Y696172D01*
X1118411Y699718D02*
X1119137D01*
X1116894Y698201D02*
X1118411Y699718D01*
X1116894Y696547D02*
Y698201D01*
X1115035Y694688D02*
X1116894Y696547D01*
X1100976Y696628D02*
X1102917Y694688D01*
X1115035D01*
X587500Y693755D02*
X588863Y692392D01*
Y689699D02*
Y692392D01*
X588863Y685604D02*
Y689699D01*
Y685604D02*
X595412Y679055D01*
X1032212Y674827D02*
X1037764Y680379D01*
X1032212Y674827D02*
X1032245D01*
X1092295Y679479D02*
X1097054Y684238D01*
X1091922Y680379D02*
X1096681Y685138D01*
X1103290Y695587D02*
X1103290D01*
X1101349Y697528D02*
X1103290Y695587D01*
X1096681Y685138D02*
X1125339D01*
X589762Y685977D02*
X595785Y679955D01*
X204475Y788374D02*
Y791789D01*
Y776726D02*
Y788374D01*
X206935Y774266D02*
X214252D01*
X207308Y775167D02*
X213879D01*
X204475Y776726D02*
X206935Y774266D01*
X205375Y777099D02*
X207308Y775167D01*
X202113Y788374D02*
X204475D01*
X189627Y773539D02*
Y774657D01*
X189724Y774559D01*
X191369D01*
X188727Y785776D02*
Y791789D01*
Y773166D02*
Y785776D01*
X188689Y785738D02*
X188727Y785776D01*
X186463Y785738D02*
X188689D01*
X173879Y770697D02*
Y778082D01*
X173935Y778138D01*
X176043D01*
X172979Y770324D02*
Y788864D01*
X172950Y788835D02*
X172979Y788864D01*
X171054Y788835D02*
X172950D01*
X158131Y771573D02*
Y774900D01*
X158209Y774979D01*
X160648D01*
X157231Y767710D02*
Y785586D01*
X157183Y785634D02*
X157231Y785586D01*
X154913Y785634D02*
X157183D01*
X142383Y760250D02*
Y778242D01*
X142453Y778172D01*
X144466D01*
X141400Y788175D02*
X141483Y788258D01*
X139172Y788175D02*
X141400D01*
X126635Y752380D02*
Y775322D01*
X126753Y775440D01*
X128608D01*
X125570Y785653D02*
X125735Y785489D01*
X123626Y785653D02*
X125570D01*
X110971Y778161D02*
X113801D01*
X109987Y785594D02*
Y791789D01*
Y744576D02*
Y785594D01*
X109940Y785641D02*
X109987Y785594D01*
X104294Y785641D02*
X109940D01*
X95139Y739582D02*
Y774537D01*
X95404Y774803D01*
X97615D01*
X94239Y785556D02*
Y791789D01*
Y739210D02*
Y785556D01*
X94141Y785653D02*
X94239Y785556D01*
X92327Y785653D02*
X94141D01*
X79391Y777963D02*
X79573Y778146D01*
X81190D01*
X78491Y788332D02*
Y791789D01*
X78449Y788374D02*
X78491Y788332D01*
X76560Y788374D02*
X78449D01*
X63643Y725727D02*
Y775274D01*
X63664Y775252D01*
X65982D01*
X62743Y725354D02*
Y785674D01*
X62695Y785626D02*
X62743Y785674D01*
X60783Y785626D02*
X62695D01*
X283893Y703869D02*
X404286D01*
X283520Y702969D02*
X404659D01*
X293822Y708191D02*
X347542D01*
X293449Y707291D02*
X347915D01*
X277012Y710750D02*
X283893Y703869D01*
X276640Y709850D02*
X283520Y702969D01*
X358595Y719244D02*
X472633D01*
X358968Y718344D02*
X472260D01*
X472633Y719244D02*
X475389Y716488D01*
X472260Y718344D02*
X475017Y715588D01*
X480950Y719432D02*
X516837D01*
X480578Y718532D02*
X516464D01*
X516837Y719432D02*
X521070Y715199D01*
X516464Y718532D02*
X520170Y714826D01*
X476028Y724354D02*
X480950Y719432D01*
X475656Y723454D02*
X480578Y718532D01*
X475389Y716488D02*
X511545D01*
X475017Y715588D02*
X511173D01*
X511545Y716488D02*
X516247Y711786D01*
X511173Y715588D02*
X515347Y711413D01*
X414061Y713645D02*
X416329D01*
X414434Y712745D02*
X416329D01*
Y713645D02*
X508269Y713645D01*
X416329Y712745D02*
X507896Y712745D01*
X508269Y713645D02*
X509258Y712656D01*
X507896Y712745D02*
X508357Y712283D01*
X347542Y708191D02*
X358595Y719244D01*
X347915Y707291D02*
X358968Y718344D01*
X284090Y717923D02*
X293822Y708191D01*
X283717Y717023D02*
X293449Y707291D01*
X516247Y708950D02*
Y711786D01*
X515347Y708950D02*
Y711413D01*
X508357Y711357D02*
Y712283D01*
X158131Y768083D02*
Y771573D01*
Y768083D02*
X169925Y756289D01*
X157231Y767710D02*
X169553Y755389D01*
X169925Y756289D02*
X355912Y756289D01*
X169553Y755389D02*
X356285Y755389D01*
X355912Y756289D02*
X371540Y771916D01*
X356285Y755389D02*
X371913Y771017D01*
X356494Y792367D02*
X378140D01*
X351518Y787391D02*
X356494Y792367D01*
X351891Y786491D02*
X356867Y791467D01*
X356256Y804024D02*
X378140D01*
X346890Y794658D02*
X356256Y804024D01*
X347263Y793758D02*
X356628Y803124D01*
X233371Y794658D02*
X346890D01*
X233744Y793758D02*
X347263D01*
X238505Y787391D02*
X351518D01*
X238878Y786491D02*
X351891D01*
X213879Y775167D02*
X233371Y794658D01*
X214252Y774266D02*
X233744Y793758D01*
X223120Y772006D02*
X238505Y787391D01*
X223493Y771106D02*
X238878Y786491D01*
X351487Y773247D02*
X358680Y780440D01*
X351860Y772347D02*
X359052Y779540D01*
X238520Y773247D02*
X351487D01*
X238893Y772347D02*
X351860D01*
X233178Y766632D02*
X238893Y772347D01*
X232805Y767532D02*
X238520Y773247D01*
X371540Y771916D02*
X476620Y771916D01*
X358680Y780440D02*
X480151D01*
X359052Y779540D02*
X479778D01*
X378140Y792367D02*
X485091D01*
X356867Y791467D02*
X484719D01*
X378140Y804024D02*
X489920D01*
X356628Y803124D02*
X489547D01*
X371913Y771017D02*
X476248Y771017D01*
X485091Y792367D02*
X519908Y757551D01*
X484719Y791467D02*
X519008Y757178D01*
X489920Y804024D02*
X526976Y766968D01*
X489547Y803124D02*
X526076Y766596D01*
X476620Y771916D02*
X503354Y745183D01*
X476248Y771017D02*
X502454Y744810D01*
X479778Y779540D02*
X507198Y752120D01*
X480151Y780440D02*
X508098Y752493D01*
X177043Y767532D02*
X232805D01*
X173879Y770697D02*
X177043Y767532D01*
X176671Y766632D02*
X233178D01*
X172979Y770324D02*
X176671Y766632D01*
X508098Y728142D02*
Y752493D01*
Y728142D02*
X509665Y726575D01*
X507198Y728142D02*
Y752120D01*
X505630Y726575D02*
X507198Y728142D01*
X503354Y724520D02*
Y745183D01*
Y724520D02*
X504921Y722953D01*
X502454Y724520D02*
Y744810D01*
X500886Y722953D02*
X502454Y724520D01*
X492154Y743019D02*
X496267Y738906D01*
X491781Y742119D02*
X495367Y738533D01*
X496267Y728142D02*
Y738906D01*
Y728142D02*
X497835Y726575D01*
X495367Y728142D02*
Y738533D01*
X493799Y726575D02*
X495367Y728142D01*
X344083Y734739D02*
X486469Y734739D01*
X343710Y733840D02*
X486096Y733840D01*
X332324Y737204D02*
X338465Y731063D01*
X331951Y736304D02*
X338092Y730163D01*
X190787Y771106D02*
X223493D01*
X191160Y772006D02*
X223120D01*
X188727Y773166D02*
X190787Y771106D01*
X189627Y773539D02*
X191160Y772006D01*
X118259Y736304D02*
X331951D01*
X118632Y737204D02*
X332324D01*
X109987Y744576D02*
X118259Y736304D01*
X110887Y744949D02*
X118632Y737204D01*
X109995Y723454D02*
X475656D01*
X110367Y724354D02*
X476028D01*
X94239Y739210D02*
X109995Y723454D01*
X95139Y739582D02*
X110367Y724354D01*
X486469Y734739D02*
X491543Y729665D01*
X486096Y733840D02*
X490644Y729292D01*
X338465Y731063D02*
X483399D01*
X338092Y730163D02*
X483026D01*
X483399Y731063D02*
X484486Y729975D01*
X483026Y730163D02*
X483586Y729602D01*
X484486Y728142D02*
Y729975D01*
Y728142D02*
X486054Y726575D01*
X483586Y728142D02*
Y729602D01*
X482019Y726575D02*
X483586Y728142D01*
X491543Y724520D02*
Y729665D01*
Y724520D02*
X493111Y722953D01*
X490644Y724520D02*
Y729292D01*
X489076Y722953D02*
X490644Y724520D01*
X519908Y728142D02*
Y757551D01*
Y728142D02*
X521475Y726575D01*
X519008Y728142D02*
Y757178D01*
X517440Y726575D02*
X519008Y728142D01*
X526976Y724520D02*
Y766968D01*
Y724520D02*
X528543Y722953D01*
X526076Y724520D02*
Y766596D01*
X524508Y722953D02*
X526076Y724520D01*
X521070Y713182D02*
Y715199D01*
Y713182D02*
X522638Y711614D01*
X520170Y713182D02*
Y714826D01*
X518602Y711614D02*
X520170Y713182D01*
X78620Y710750D02*
X277012D01*
X404286Y703869D02*
X414061Y713645D01*
X63643Y725727D02*
X78620Y710750D01*
X404659Y702969D02*
X414434Y712745D01*
X62743Y725354D02*
X78247Y709850D01*
X276640D01*
X509258Y711357D02*
Y712656D01*
Y711357D02*
X510772Y709842D01*
X506843D02*
X508357Y711357D01*
X79391Y731934D02*
X93402Y717923D01*
X284090D01*
X78491Y731561D02*
X93029Y717023D01*
X283717D01*
X516247Y708950D02*
X517815Y707382D01*
X513779D02*
X515347Y708950D01*
X1118038Y700618D02*
X1119137D01*
X1115994Y698574D02*
X1118038Y700618D01*
X1115994Y696920D02*
Y698574D01*
X1114662Y695587D02*
X1115994Y696920D01*
X1103290Y695587D02*
X1114662D01*
X589762Y685977D02*
Y692392D01*
X1119137Y700618D02*
X1122683Y704164D01*
X589762Y692392D02*
X591125Y693755D01*
X1097054Y684238D02*
X1125915D01*
X572113Y684271D02*
Y689582D01*
X573012Y684271D02*
Y689582D01*
X1129137Y679758D02*
X1132683Y676212D01*
X1128163Y679758D02*
X1129137D01*
X1126717Y681204D02*
X1128163Y679758D01*
X1126717Y681204D02*
Y683436D01*
X1125915Y684238D02*
X1126717Y683436D01*
X573012Y689582D02*
X574375Y690945D01*
X1125339Y685138D02*
X1125339Y685138D01*
X1126288D01*
X1127617Y683809D01*
Y681576D02*
Y683809D01*
Y681576D02*
X1128536Y680658D01*
X1129137D01*
X1132683Y684204D01*
D201*
X786657Y674827D02*
D03*
X875373Y682977D02*
D03*
X1009969Y688847D02*
D03*
X932492D02*
D03*
M02*
