G04*
G04 #@! TF.GenerationSoftware,Altium Limited,Altium Designer,22.10.1 (41)*
G04*
G04 Layer_Color=0*
%FSLAX25Y25*%
%MOIN*%
G70*
G04*
G04 #@! TF.SameCoordinates,72A4C529-D447-4618-9FEB-1D22E0D21F89*
G04*
G04*
G04 #@! TF.FilePolarity,Positive*
G04*
G01*
G75*
%ADD13C,0.00394*%
D13*
X143032Y518000D02*
X146968D01*
X145000Y516032D02*
Y519969D01*
X197213Y521500D02*
X201150D01*
X199181Y519531D02*
Y523468D01*
X210032Y518000D02*
X213968D01*
X212000Y516032D02*
Y519969D01*
X199031Y462000D02*
X202969D01*
X201000Y460032D02*
Y463969D01*
X210531Y461000D02*
X214469D01*
X212500Y459031D02*
Y462968D01*
X224031Y458000D02*
X227969D01*
X226000Y456032D02*
Y459969D01*
X218531Y483000D02*
X222468D01*
X220500Y481032D02*
Y484969D01*
X221031Y510500D02*
X224969D01*
X223000Y508532D02*
Y512468D01*
X223532Y523500D02*
X227468D01*
X225500Y521531D02*
Y525468D01*
X175031Y499000D02*
X178969D01*
X177000Y497031D02*
Y500969D01*
X218937Y261417D02*
Y265354D01*
X216968Y263386D02*
X220905D01*
X351500Y270031D02*
Y273969D01*
X349532Y272000D02*
X353468D01*
X1188031Y456201D02*
X1191969D01*
X1190000Y454232D02*
Y458169D01*
X221299Y630732D02*
Y634669D01*
X219331Y632701D02*
X223268D01*
X279532Y254075D02*
X283469D01*
X281500Y252106D02*
Y256043D01*
X443500Y622555D02*
Y626492D01*
X441532Y624524D02*
X445469D01*
X211032Y449000D02*
X214968D01*
X213000Y447031D02*
Y450969D01*
X147752Y653500D02*
X151689D01*
X149721Y651532D02*
Y655469D01*
X207252Y653500D02*
X211189D01*
X209221Y651532D02*
Y655469D01*
X140761Y631756D02*
Y635693D01*
X138793Y633724D02*
X142730D01*
X198291D02*
X202228D01*
X200260Y631756D02*
Y635693D01*
X161800Y630732D02*
Y634669D01*
X159832Y632701D02*
X163768D01*
X984000Y368032D02*
Y371969D01*
X982032Y370000D02*
X985968D01*
X1098032Y363000D02*
X1101968D01*
X1100000Y361032D02*
Y364968D01*
X982032Y240000D02*
X985968D01*
X984000Y238032D02*
Y241968D01*
X1098032Y240000D02*
X1101968D01*
X1100000Y238032D02*
Y241968D01*
Y163031D02*
Y166969D01*
X1098032Y165000D02*
X1101968D01*
X982032D02*
X985968D01*
X984000Y163031D02*
Y166969D01*
X550236Y194748D02*
X554173D01*
X552205Y192780D02*
Y196716D01*
X335032Y353500D02*
X338968D01*
X337000Y351532D02*
Y355469D01*
X132531Y384500D02*
X136469D01*
X134500Y382531D02*
Y386469D01*
X1100000Y306102D02*
Y310039D01*
X1098032Y308071D02*
X1101968D01*
X984000Y306102D02*
Y310039D01*
X982032Y308071D02*
X985968D01*
X436531Y448000D02*
X440469D01*
X438500Y446032D02*
Y449968D01*
X515531Y474500D02*
X519468D01*
X517500Y472532D02*
Y476469D01*
X423531Y504000D02*
X427468D01*
X425500Y502032D02*
Y505969D01*
X520000Y547031D02*
Y550969D01*
X518032Y549000D02*
X521969D01*
X603386Y528719D02*
Y532655D01*
X601417Y530687D02*
X605354D01*
X851000Y278532D02*
Y282469D01*
X849032Y280500D02*
X852969D01*
X1042000Y270532D02*
Y274468D01*
X1040032Y272500D02*
X1043968D01*
X182000Y221031D02*
Y224969D01*
X180032Y223000D02*
X183968D01*
X532000Y183031D02*
Y186969D01*
X530031Y185000D02*
X533968D01*
X335032Y367000D02*
X338968D01*
X337000Y365032D02*
Y368969D01*
X127532Y370000D02*
X131468D01*
X129500Y368032D02*
Y371969D01*
X476031Y427000D02*
X479969D01*
X478000Y425032D02*
Y428968D01*
X870000Y227532D02*
Y231469D01*
X868032Y229500D02*
X871968D01*
X426031Y298000D02*
X429969D01*
X428000Y296031D02*
Y299969D01*
X124031Y518000D02*
X127969D01*
X126000Y516032D02*
Y519969D01*
X210531Y533500D02*
X214469D01*
X212500Y531531D02*
Y535468D01*
X240531Y454000D02*
X244468D01*
X242500Y452032D02*
Y455969D01*
X173031Y486000D02*
X176969D01*
X175000Y484031D02*
Y487968D01*
M02*
