M48
;Layer_Color=9474304
;FILE_FORMAT=2:3
INCH,LZ
;TYPE=PLATED
T5F00S00C0.022
T7F00S00C0.033
T10F00S00C0.039
T13F00S00C0.043
;TYPE=NON_PLATED
%
G90
G05
T05
G00X12418Y06427
M15
G01X12393
M16
G00X12418Y06733
M15
G01X12393
M16
T07
G00X12267Y06433
M15
G01X12245
M16
G00X12267Y06727
M15
G01X12245
M16
T10
G00X12189Y04323
M15
G01X12131
M16
G00X12364Y04295
M15
G01X12306
M16
G00X12364Y04705
M15
G01X12306
M16
G00X12189Y04677
M15
G01X12131
M16
T13
G00X08184Y06767
M15
G01Y06767
M16
G00X08184Y07161
M15
G01Y07161
M16
M17
M30
