G04*
G04 #@! TF.GenerationSoftware,Altium Limited,Altium Designer,22.10.1 (41)*
G04*
G04 Layer_Color=2752767*
%FSLAX25Y25*%
%MOIN*%
G70*
G04*
G04 #@! TF.SameCoordinates,72A4C529-D447-4618-9FEB-1D22E0D21F89*
G04*
G04*
G04 #@! TF.FilePolarity,Positive*
G04*
G01*
G75*
%ADD387C,0.00200*%
%ADD388C,0.00267*%
%ADD389C,0.00133*%
D387*
X569882Y287704D02*
X569082Y289304D01*
X570682D01*
X569882Y287704D01*
X625000Y142035D02*
X624200Y143635D01*
X625800D01*
X625000Y142035D01*
X1240543Y675255D02*
Y673256D01*
X1241543D01*
X1241876Y673589D01*
Y674922D01*
X1241543Y675255D01*
X1240543D01*
Y644743D02*
Y642744D01*
X1241543D01*
X1241876Y643077D01*
Y644410D01*
X1241543Y644743D01*
X1240543D01*
X1226916Y674665D02*
X1225583D01*
Y672665D01*
X1226916D01*
X1225583Y673665D02*
X1226249D01*
X1226916Y645334D02*
X1225583D01*
Y643335D01*
X1226916D01*
X1225583Y644334D02*
X1226249D01*
X1231049Y650157D02*
X1229716D01*
Y649157D01*
X1230383D01*
X1229716D01*
Y648158D01*
X1231049Y669842D02*
X1229716D01*
Y668842D01*
X1230383D01*
X1229716D01*
Y667842D01*
X399450Y105949D02*
Y103950D01*
Y104950D01*
X400783D01*
Y105949D01*
Y103950D01*
X399450Y109049D02*
Y107050D01*
Y108050D01*
X400783D01*
Y109049D01*
Y107050D01*
X402550Y105949D02*
Y103950D01*
Y104950D01*
X403883D01*
Y105949D01*
Y103950D01*
X402550Y109049D02*
Y107050D01*
Y108050D01*
X403883D01*
Y109049D01*
Y107050D01*
X527550Y109049D02*
Y107050D01*
Y108050D01*
X528883D01*
Y109049D01*
Y107050D01*
X527550Y105949D02*
Y103950D01*
Y104950D01*
X528883D01*
Y105949D01*
Y103950D01*
X524450Y109049D02*
Y107050D01*
Y108050D01*
X525783D01*
Y109049D01*
Y107050D01*
X524450Y105949D02*
Y103950D01*
Y104950D01*
X525783D01*
Y105949D01*
Y103950D01*
X750189Y737236D02*
X750855D01*
X750522D01*
Y735236D01*
X750189D01*
X750855D01*
X951772Y547546D02*
X950972Y549147D01*
X952572D01*
X951772Y547546D01*
X239600Y636907D02*
Y636507D01*
X240400D01*
Y636907D01*
X240800D01*
Y637707D01*
X240400D01*
Y638107D01*
X239600D01*
Y637707D01*
X239200D01*
Y636907D01*
X239600D01*
X239800Y637107D02*
Y636907D01*
X240200D01*
Y637107D01*
X240400D01*
Y637507D01*
X240200D01*
Y637707D01*
X239800D01*
Y637507D01*
X239600D01*
Y637107D01*
X239800D01*
X239600Y646907D02*
Y646507D01*
X240400D01*
Y646907D01*
X240800D01*
Y647707D01*
X240400D01*
Y648107D01*
X239600D01*
Y647707D01*
X239200D01*
Y646907D01*
X239600D01*
X239800Y647107D02*
Y646907D01*
X240200D01*
Y647107D01*
X240400D01*
Y647507D01*
X240200D01*
Y647707D01*
X239800D01*
Y647507D01*
X239600D01*
Y647107D01*
X239800D01*
X1193600Y274600D02*
Y274200D01*
X1194400D01*
Y274600D01*
X1194800D01*
Y275400D01*
X1194400D01*
Y275800D01*
X1193600D01*
Y275400D01*
X1193200D01*
Y274600D01*
X1193600D01*
Y291135D02*
Y290735D01*
X1194400D01*
Y291135D01*
X1194800D01*
Y291935D01*
X1194400D01*
Y292335D01*
X1193600D01*
Y291935D01*
X1193200D01*
Y291135D01*
X1193600D01*
Y307671D02*
Y307271D01*
X1194400D01*
Y307671D01*
X1194800D01*
Y308471D01*
X1194400D01*
Y308871D01*
X1193600D01*
Y308471D01*
X1193200D01*
Y307671D01*
X1193600D01*
Y324206D02*
Y323806D01*
X1194400D01*
Y324206D01*
X1194800D01*
Y325006D01*
X1194400D01*
Y325406D01*
X1193600D01*
Y325006D01*
X1193200D01*
Y324206D01*
X1193600D01*
X1171947D02*
Y323806D01*
X1172746D01*
Y324206D01*
X1173147D01*
Y325006D01*
X1172746D01*
Y325406D01*
X1171947D01*
Y325006D01*
X1171546D01*
Y324206D01*
X1171947D01*
Y307671D02*
Y307271D01*
X1172746D01*
Y307671D01*
X1173147D01*
Y308471D01*
X1172746D01*
Y308871D01*
X1171947D01*
Y308471D01*
X1171546D01*
Y307671D01*
X1171947D01*
Y291135D02*
Y290735D01*
X1172746D01*
Y291135D01*
X1173147D01*
Y291935D01*
X1172746D01*
Y292335D01*
X1171947D01*
Y291935D01*
X1171546D01*
Y291135D01*
X1171947D01*
Y274600D02*
Y274200D01*
X1172746D01*
Y274600D01*
X1173147D01*
Y275400D01*
X1172746D01*
Y275800D01*
X1171947D01*
Y275400D01*
X1171546D01*
Y274600D01*
X1171947D01*
X818386Y676693D02*
Y678692D01*
X819052Y678026D01*
X819719Y678692D01*
Y676693D01*
X818386Y716063D02*
Y718062D01*
X819052Y717396D01*
X819719Y718062D01*
Y716063D01*
X1196000Y221700D02*
X1195200Y223300D01*
X1196800D01*
X1196000Y221700D01*
Y222100D02*
X1195600Y222900D01*
X1196400D01*
X1196000Y222100D01*
X452700Y623724D02*
X453100Y624524D01*
X452700Y625324D01*
X453500Y624924D01*
X454300Y625324D01*
X453900Y624524D01*
X454300Y623724D01*
X453500Y624124D01*
X452700Y623724D01*
X453100Y624124D02*
X453300Y624524D01*
X453100Y624924D01*
X453500Y624724D01*
X453900Y624924D01*
X453700Y624524D01*
X453900Y624124D01*
X453500Y624324D01*
X453100Y624124D01*
X442700Y623724D02*
X443100Y624524D01*
X442700Y625324D01*
X443500Y624924D01*
X444300Y625324D01*
X443900Y624524D01*
X444300Y623724D01*
X443500Y624124D01*
X442700Y623724D01*
X443100Y624124D02*
X443300Y624524D01*
X443100Y624924D01*
X443500Y624724D01*
X443900Y624924D01*
X443700Y624524D01*
X443900Y624124D01*
X443500Y624324D01*
X443100Y624124D01*
X432700Y623724D02*
X433100Y624524D01*
X432700Y625324D01*
X433500Y624924D01*
X434300Y625324D01*
X433900Y624524D01*
X434300Y623724D01*
X433500Y624124D01*
X432700Y623724D01*
X433100Y624124D02*
X433300Y624524D01*
X433100Y624924D01*
X433500Y624724D01*
X433900Y624924D01*
X433700Y624524D01*
X433900Y624124D01*
X433500Y624324D01*
X433100Y624124D01*
X213000Y448200D02*
X213400Y448600D01*
X213800D01*
X213400Y449000D01*
X213800Y449400D01*
X213400D01*
X213000Y449800D01*
X212600Y449400D01*
X212200D01*
X212600Y449000D01*
X212200Y448600D01*
X212600D01*
X213000Y448200D01*
Y448600D02*
X213200Y448800D01*
X213400D01*
X213200Y449000D01*
X213400Y449200D01*
X213200D01*
X213000Y449400D01*
X212800Y449200D01*
X212600D01*
X212800Y449000D01*
X212600Y448800D01*
X212800D01*
X213000Y448600D01*
X755696Y624200D02*
X756096D01*
X756496Y624600D01*
X756896Y624200D01*
X757296D01*
Y624600D01*
X756896Y625000D01*
X757296Y625400D01*
Y625800D01*
X756896D01*
X756496Y625400D01*
X756096Y625800D01*
X755696D01*
Y625400D01*
X756096Y625000D01*
X755696Y624600D01*
Y624200D01*
X492696Y625000D02*
X493496Y625800D01*
X494296Y625000D01*
X493496Y624200D01*
X492696Y625000D01*
X1148126Y562019D02*
Y560020D01*
X1149126D01*
X1149459Y560353D01*
Y560686D01*
X1149126Y561019D01*
X1148126D01*
X1149126D01*
X1149459Y561353D01*
Y561686D01*
X1149126Y562019D01*
X1148126D01*
Y601980D02*
Y599980D01*
X1149126D01*
X1149459Y600314D01*
Y600647D01*
X1149126Y600980D01*
X1148126D01*
X1149126D01*
X1149459Y601313D01*
Y601646D01*
X1149126Y601980D01*
X1148126D01*
Y593988D02*
Y591988D01*
X1149126D01*
X1149459Y592321D01*
Y592655D01*
X1149126Y592988D01*
X1148126D01*
X1149126D01*
X1149459Y593321D01*
Y593654D01*
X1149126Y593988D01*
X1148126D01*
Y570011D02*
Y568012D01*
X1149126D01*
X1149459Y568345D01*
Y568678D01*
X1149126Y569011D01*
X1148126D01*
X1149126D01*
X1149459Y569345D01*
Y569678D01*
X1149126Y570011D01*
X1148126D01*
Y578003D02*
Y576004D01*
X1149126D01*
X1149459Y576337D01*
Y576670D01*
X1149126Y577004D01*
X1148126D01*
X1149126D01*
X1149459Y577337D01*
Y577670D01*
X1149126Y578003D01*
X1148126D01*
Y585995D02*
Y583996D01*
X1149126D01*
X1149459Y584329D01*
Y584662D01*
X1149126Y584996D01*
X1148126D01*
X1149126D01*
X1149459Y585329D01*
Y585662D01*
X1149126Y585995D01*
X1148126D01*
X1138126Y558043D02*
Y556043D01*
X1139126D01*
X1139459Y556377D01*
Y556710D01*
X1139126Y557043D01*
X1138126D01*
X1139126D01*
X1139459Y557376D01*
Y557709D01*
X1139126Y558043D01*
X1138126D01*
Y605956D02*
Y603957D01*
X1139126D01*
X1139459Y604290D01*
Y604623D01*
X1139126Y604956D01*
X1138126D01*
X1139126D01*
X1139459Y605290D01*
Y605623D01*
X1139126Y605956D01*
X1138126D01*
Y566035D02*
Y564035D01*
X1139126D01*
X1139459Y564369D01*
Y564702D01*
X1139126Y565035D01*
X1138126D01*
X1139126D01*
X1139459Y565368D01*
Y565702D01*
X1139126Y566035D01*
X1138126D01*
Y597964D02*
Y595965D01*
X1139126D01*
X1139459Y596298D01*
Y596631D01*
X1139126Y596964D01*
X1138126D01*
X1139126D01*
X1139459Y597297D01*
Y597631D01*
X1139126Y597964D01*
X1138126D01*
Y574027D02*
Y572028D01*
X1139126D01*
X1139459Y572361D01*
Y572694D01*
X1139126Y573027D01*
X1138126D01*
X1139126D01*
X1139459Y573360D01*
Y573694D01*
X1139126Y574027D01*
X1138126D01*
Y589972D02*
Y587972D01*
X1139126D01*
X1139459Y588306D01*
Y588639D01*
X1139126Y588972D01*
X1138126D01*
X1139126D01*
X1139459Y589305D01*
Y589639D01*
X1139126Y589972D01*
X1138126D01*
X1128126Y556024D02*
Y557357D01*
X1128792Y558023D01*
X1129459Y557357D01*
Y556024D01*
Y557023D01*
X1128126D01*
Y603976D02*
Y605309D01*
X1128792Y605976D01*
X1129459Y605309D01*
Y603976D01*
Y604976D01*
X1128126D01*
Y566024D02*
Y567356D01*
X1128792Y568023D01*
X1129459Y567356D01*
Y566024D01*
Y567023D01*
X1128126D01*
Y593976D02*
Y595309D01*
X1128792Y595976D01*
X1129459Y595309D01*
Y593976D01*
Y594976D01*
X1128126D01*
X1220646Y547448D02*
X1221046Y547848D01*
X1221446D01*
X1221046Y548248D01*
X1221446Y548648D01*
X1221046D01*
X1220646Y549048D01*
X1220246Y548648D01*
X1219846D01*
X1220246Y548248D01*
X1219846Y547848D01*
X1220246D01*
X1220646Y547448D01*
Y547848D02*
X1220846Y548048D01*
X1221046D01*
X1220846Y548248D01*
X1221046Y548448D01*
X1220846D01*
X1220646Y548648D01*
X1220446Y548448D01*
X1220246D01*
X1220446Y548248D01*
X1220246Y548048D01*
X1220446D01*
X1220646Y547848D01*
Y610952D02*
X1221046Y611352D01*
X1221446D01*
X1221046Y611752D01*
X1221446Y612152D01*
X1221046D01*
X1220646Y612552D01*
X1220246Y612152D01*
X1219846D01*
X1220246Y611752D01*
X1219846Y611352D01*
X1220246D01*
X1220646Y610952D01*
Y611352D02*
X1220846Y611552D01*
X1221046D01*
X1220846Y611752D01*
X1221046Y611952D01*
X1220846D01*
X1220646Y612152D01*
X1220446Y611952D01*
X1220246D01*
X1220446Y611752D01*
X1220246Y611552D01*
X1220446D01*
X1220646Y611352D01*
X1207326Y604200D02*
X1207726D01*
X1208126Y604600D01*
X1208526Y604200D01*
X1208926D01*
Y604600D01*
X1208526Y605000D01*
X1208926Y605400D01*
Y605800D01*
X1208526D01*
X1208126Y605400D01*
X1207726Y605800D01*
X1207326D01*
Y605400D01*
X1207726Y605000D01*
X1207326Y604600D01*
Y604200D01*
X1207726Y604600D02*
X1207926D01*
X1208126Y604800D01*
X1208326Y604600D01*
X1208526D01*
Y604800D01*
X1208326Y605000D01*
X1208526Y605200D01*
Y605400D01*
X1208326D01*
X1208126Y605200D01*
X1207926Y605400D01*
X1207726D01*
Y605200D01*
X1207926Y605000D01*
X1207726Y604800D01*
Y604600D01*
X1207326Y554200D02*
X1207726D01*
X1208126Y554600D01*
X1208526Y554200D01*
X1208926D01*
Y554600D01*
X1208526Y555000D01*
X1208926Y555400D01*
Y555800D01*
X1208526D01*
X1208126Y555400D01*
X1207726Y555800D01*
X1207326D01*
Y555400D01*
X1207726Y555000D01*
X1207326Y554600D01*
Y554200D01*
X1207726Y554600D02*
X1207926D01*
X1208126Y554800D01*
X1208326Y554600D01*
X1208526D01*
Y554800D01*
X1208326Y555000D01*
X1208526Y555200D01*
Y555400D01*
X1208326D01*
X1208126Y555200D01*
X1207926Y555400D01*
X1207726D01*
Y555200D01*
X1207926Y555000D01*
X1207726Y554800D01*
Y554600D01*
X1234833Y86166D02*
X1234500Y86499D01*
X1233833D01*
X1233500Y86166D01*
Y84833D01*
X1233833Y84500D01*
X1234500D01*
X1234833Y84833D01*
Y117166D02*
X1234500Y117499D01*
X1233833D01*
X1233500Y117166D01*
Y115833D01*
X1233833Y115500D01*
X1234500D01*
X1234833Y115833D01*
X1198700Y89200D02*
X1199100Y90000D01*
X1198700Y90800D01*
X1199500Y90400D01*
X1200300Y90800D01*
X1199900Y90000D01*
X1200300Y89200D01*
X1199500Y89600D01*
X1198700Y89200D01*
X1199100Y89600D02*
X1199300Y90000D01*
X1199100Y90400D01*
X1199500Y90200D01*
X1199900Y90400D01*
X1199700Y90000D01*
X1199900Y89600D01*
X1199500Y89800D01*
X1199100Y89600D01*
X1198700Y99200D02*
X1199100Y100000D01*
X1198700Y100800D01*
X1199500Y100400D01*
X1200300Y100800D01*
X1199900Y100000D01*
X1200300Y99200D01*
X1199500Y99600D01*
X1198700Y99200D01*
X1199100Y99600D02*
X1199300Y100000D01*
X1199100Y100400D01*
X1199500Y100200D01*
X1199900Y100400D01*
X1199700Y100000D01*
X1199900Y99600D01*
X1199500Y99800D01*
X1199100Y99600D01*
X1198700Y109200D02*
X1199100Y110000D01*
X1198700Y110800D01*
X1199500Y110400D01*
X1200300Y110800D01*
X1199900Y110000D01*
X1200300Y109200D01*
X1199500Y109600D01*
X1198700Y109200D01*
X1199100Y109600D02*
X1199300Y110000D01*
X1199100Y110400D01*
X1199500Y110200D01*
X1199900Y110400D01*
X1199700Y110000D01*
X1199900Y109600D01*
X1199500Y109800D01*
X1199100Y109600D01*
X1216775Y457468D02*
X1217175Y458268D01*
X1216775Y459068D01*
X1217575Y458668D01*
X1218375Y459068D01*
X1217975Y458268D01*
X1218375Y457468D01*
X1217575Y457868D01*
X1216775Y457468D01*
Y440932D02*
X1217175Y441732D01*
X1216775Y442532D01*
X1217575Y442132D01*
X1218375Y442532D01*
X1217975Y441732D01*
X1218375Y440932D01*
X1217575Y441332D01*
X1216775Y440932D01*
X1216000Y466900D02*
X1216400Y467300D01*
X1216800D01*
X1216400Y467700D01*
X1216800Y468100D01*
X1216400D01*
X1216000Y468500D01*
X1215600Y468100D01*
X1215200D01*
X1215600Y467700D01*
X1215200Y467300D01*
X1215600D01*
X1216000Y466900D01*
Y431500D02*
X1216400Y431900D01*
X1216800D01*
X1216400Y432300D01*
X1216800Y432700D01*
X1216400D01*
X1216000Y433100D01*
X1215600Y432700D01*
X1215200D01*
X1215600Y432300D01*
X1215200Y431900D01*
X1215600D01*
X1216000Y431500D01*
X1233500Y428700D02*
X1233900Y429100D01*
X1234300D01*
X1233900Y429500D01*
X1234300Y429900D01*
X1233900D01*
X1233500Y430300D01*
X1233100Y429900D01*
X1232700D01*
X1233100Y429500D01*
X1232700Y429100D01*
X1233100D01*
X1233500Y428700D01*
Y469700D02*
X1233900Y470100D01*
X1234300D01*
X1233900Y470500D01*
X1234300Y470900D01*
X1233900D01*
X1233500Y471300D01*
X1233100Y470900D01*
X1232700D01*
X1233100Y470500D01*
X1232700Y470100D01*
X1233100D01*
X1233500Y469700D01*
X180100Y636907D02*
Y636507D01*
X180900D01*
Y636907D01*
X181300D01*
Y637707D01*
X180900D01*
Y638107D01*
X180100D01*
Y637707D01*
X179700D01*
Y636907D01*
X180100D01*
X180300Y637107D02*
Y636907D01*
X180700D01*
Y637107D01*
X180900D01*
Y637507D01*
X180700D01*
Y637707D01*
X180300D01*
Y637507D01*
X180100D01*
Y637107D01*
X180300D01*
X180100Y646907D02*
Y646507D01*
X180900D01*
Y646907D01*
X181300D01*
Y647707D01*
X180900D01*
Y648107D01*
X180100D01*
Y647707D01*
X179700D01*
Y646907D01*
X180100D01*
X180300Y647107D02*
Y646907D01*
X180700D01*
Y647107D01*
X180900D01*
Y647507D01*
X180700D01*
Y647707D01*
X180300D01*
Y647507D01*
X180100D01*
Y647107D01*
X180300D01*
X1234833Y151166D02*
X1234500Y151499D01*
X1233833D01*
X1233500Y151166D01*
Y149833D01*
X1233833Y149500D01*
X1234500D01*
X1234833Y149833D01*
Y182166D02*
X1234500Y182499D01*
X1233833D01*
X1233500Y182166D01*
Y180833D01*
X1233833Y180500D01*
X1234500D01*
X1234833Y180833D01*
X1198700Y154200D02*
X1199100Y155000D01*
X1198700Y155800D01*
X1199500Y155400D01*
X1200300Y155800D01*
X1199900Y155000D01*
X1200300Y154200D01*
X1199500Y154600D01*
X1198700Y154200D01*
X1199100Y154600D02*
X1199300Y155000D01*
X1199100Y155400D01*
X1199500Y155200D01*
X1199900Y155400D01*
X1199700Y155000D01*
X1199900Y154600D01*
X1199500Y154800D01*
X1199100Y154600D01*
X1198700Y164200D02*
X1199100Y165000D01*
X1198700Y165800D01*
X1199500Y165400D01*
X1200300Y165800D01*
X1199900Y165000D01*
X1200300Y164200D01*
X1199500Y164600D01*
X1198700Y164200D01*
X1199100Y164600D02*
X1199300Y165000D01*
X1199100Y165400D01*
X1199500Y165200D01*
X1199900Y165400D01*
X1199700Y165000D01*
X1199900Y164600D01*
X1199500Y164800D01*
X1199100Y164600D01*
X1198700Y174200D02*
X1199100Y175000D01*
X1198700Y175800D01*
X1199500Y175400D01*
X1200300Y175800D01*
X1199900Y175000D01*
X1200300Y174200D01*
X1199500Y174600D01*
X1198700Y174200D01*
X1199100Y174600D02*
X1199300Y175000D01*
X1199100Y175400D01*
X1199500Y175200D01*
X1199900Y175400D01*
X1199700Y175000D01*
X1199900Y174600D01*
X1199500Y174800D01*
X1199100Y174600D01*
X34449Y43609D02*
X33649Y45209D01*
X35249D01*
X34449Y43609D01*
X1215551D02*
X1214751Y45209D01*
X1216351D01*
X1215551Y43609D01*
X34449Y705027D02*
X33649Y706627D01*
X35249D01*
X34449Y705027D01*
X176181Y177468D02*
X175381Y179068D01*
X176981D01*
X176181Y177468D01*
X1006890Y216838D02*
X1006090Y218438D01*
X1007690D01*
X1006890Y216838D01*
X152559Y350696D02*
X151759Y352296D01*
X153359D01*
X152559Y350696D01*
X1128937Y362507D02*
X1128137Y364107D01*
X1129737D01*
X1128937Y362507D01*
X373031Y535735D02*
X372232Y537335D01*
X373832D01*
X373031Y535735D01*
X414950Y204049D02*
Y202050D01*
Y203050D01*
X416283D01*
Y204049D01*
Y202050D01*
X418050Y204049D02*
Y202050D01*
Y203050D01*
X419383D01*
Y204049D01*
Y202050D01*
X414950Y200949D02*
Y198950D01*
Y199950D01*
X416283D01*
Y200949D01*
Y198950D01*
X418050Y200949D02*
Y198950D01*
Y199950D01*
X419383D01*
Y200949D01*
Y198950D01*
X90050Y109049D02*
Y107050D01*
Y108050D01*
X91383D01*
Y109049D01*
Y107050D01*
X90050Y105949D02*
Y103950D01*
Y104950D01*
X91383D01*
Y105949D01*
Y103950D01*
X86950Y109049D02*
Y107050D01*
Y108050D01*
X88283D01*
Y109049D01*
Y107050D01*
X86950Y105949D02*
Y103950D01*
Y104950D01*
X88283D01*
Y105949D01*
Y103950D01*
X149450Y105949D02*
Y103950D01*
Y104950D01*
X150783D01*
Y105949D01*
Y103950D01*
X149450Y109049D02*
Y107050D01*
Y108050D01*
X150783D01*
Y109049D01*
Y107050D01*
X152550Y105949D02*
Y103950D01*
Y104950D01*
X153883D01*
Y105949D01*
Y103950D01*
X152550Y109049D02*
Y107050D01*
Y108050D01*
X153883D01*
Y109049D01*
Y107050D01*
X211950Y105949D02*
Y103950D01*
Y104950D01*
X213283D01*
Y105949D01*
Y103950D01*
X211950Y109049D02*
Y107050D01*
Y108050D01*
X213283D01*
Y109049D01*
Y107050D01*
X215050Y105949D02*
Y103950D01*
Y104950D01*
X216383D01*
Y105949D01*
Y103950D01*
X215050Y109049D02*
Y107050D01*
Y108050D01*
X216383D01*
Y109049D01*
Y107050D01*
X274450Y105949D02*
Y103950D01*
Y104950D01*
X275783D01*
Y105949D01*
Y103950D01*
X274450Y109049D02*
Y107050D01*
Y108050D01*
X275783D01*
Y109049D01*
Y107050D01*
X277550Y105949D02*
Y103950D01*
Y104950D01*
X278883D01*
Y105949D01*
Y103950D01*
X277550Y109049D02*
Y107050D01*
Y108050D01*
X278883D01*
Y109049D01*
Y107050D01*
X340050Y109049D02*
Y107050D01*
Y108050D01*
X341383D01*
Y109049D01*
Y107050D01*
X340050Y105949D02*
Y103950D01*
Y104950D01*
X341383D01*
Y105949D01*
Y103950D01*
X336950Y109049D02*
Y107050D01*
Y108050D01*
X338283D01*
Y109049D01*
Y107050D01*
X336950Y105949D02*
Y103950D01*
Y104950D01*
X338283D01*
Y105949D01*
Y103950D01*
X465050Y109049D02*
Y107050D01*
Y108050D01*
X466383D01*
Y109049D01*
Y107050D01*
X465050Y105949D02*
Y103950D01*
Y104950D01*
X466383D01*
Y105949D01*
Y103950D01*
X461950Y109049D02*
Y107050D01*
Y108050D01*
X463283D01*
Y109049D01*
Y107050D01*
X461950Y105949D02*
Y103950D01*
Y104950D01*
X463283D01*
Y105949D01*
Y103950D01*
X1185000Y211700D02*
X1184200Y213300D01*
X1185800D01*
X1185000Y211700D01*
Y212100D02*
X1184600Y212900D01*
X1185400D01*
X1185000Y212100D01*
Y221700D02*
X1184200Y223300D01*
X1185800D01*
X1185000Y221700D01*
Y222100D02*
X1184600Y222900D01*
X1185400D01*
X1185000Y222100D01*
X1042000Y271700D02*
X1042400Y272100D01*
X1042800D01*
X1042400Y272500D01*
X1042800Y272900D01*
X1042400D01*
X1042000Y273300D01*
X1041600Y272900D01*
X1041200D01*
X1041600Y272500D01*
X1041200Y272100D01*
X1041600D01*
X1042000Y271700D01*
Y272100D02*
X1042200Y272300D01*
X1042400D01*
X1042200Y272500D01*
X1042400Y272700D01*
X1042200D01*
X1042000Y272900D01*
X1041800Y272700D01*
X1041600D01*
X1041800Y272500D01*
X1041600Y272300D01*
X1041800D01*
X1042000Y272100D01*
X182000Y222200D02*
X182400Y222600D01*
X182800D01*
X182400Y223000D01*
X182800Y223400D01*
X182400D01*
X182000Y223800D01*
X181600Y223400D01*
X181200D01*
X181600Y223000D01*
X181200Y222600D01*
X181600D01*
X182000Y222200D01*
Y222600D02*
X182200Y222800D01*
X182400D01*
X182200Y223000D01*
X182400Y223200D01*
X182200D01*
X182000Y223400D01*
X181800Y223200D01*
X181600D01*
X181800Y223000D01*
X181600Y222800D01*
X181800D01*
X182000Y222600D01*
X532000Y184200D02*
X532400Y184600D01*
X532800D01*
X532400Y185000D01*
X532800Y185400D01*
X532400D01*
X532000Y185800D01*
X531600Y185400D01*
X531200D01*
X531600Y185000D01*
X531200Y184600D01*
X531600D01*
X532000Y184200D01*
Y184600D02*
X532200Y184800D01*
X532400D01*
X532200Y185000D01*
X532400Y185200D01*
X532200D01*
X532000Y185400D01*
X531800Y185200D01*
X531600D01*
X531800Y185000D01*
X531600Y184800D01*
X531800D01*
X532000Y184600D01*
X337000Y366200D02*
X337400Y366600D01*
X337800D01*
X337400Y367000D01*
X337800Y367400D01*
X337400D01*
X337000Y367800D01*
X336600Y367400D01*
X336200D01*
X336600Y367000D01*
X336200Y366600D01*
X336600D01*
X337000Y366200D01*
Y366600D02*
X337200Y366800D01*
X337400D01*
X337200Y367000D01*
X337400Y367200D01*
X337200D01*
X337000Y367400D01*
X336800Y367200D01*
X336600D01*
X336800Y367000D01*
X336600Y366800D01*
X336800D01*
X337000Y366600D01*
X129500Y369200D02*
X129900Y369600D01*
X130300D01*
X129900Y370000D01*
X130300Y370400D01*
X129900D01*
X129500Y370800D01*
X129100Y370400D01*
X128700D01*
X129100Y370000D01*
X128700Y369600D01*
X129100D01*
X129500Y369200D01*
Y369600D02*
X129700Y369800D01*
X129900D01*
X129700Y370000D01*
X129900Y370200D01*
X129700D01*
X129500Y370400D01*
X129300Y370200D01*
X129100D01*
X129300Y370000D01*
X129100Y369800D01*
X129300D01*
X129500Y369600D01*
X478000Y426200D02*
X478400Y426600D01*
X478800D01*
X478400Y427000D01*
X478800Y427400D01*
X478400D01*
X478000Y427800D01*
X477600Y427400D01*
X477200D01*
X477600Y427000D01*
X477200Y426600D01*
X477600D01*
X478000Y426200D01*
Y426600D02*
X478200Y426800D01*
X478400D01*
X478200Y427000D01*
X478400Y427200D01*
X478200D01*
X478000Y427400D01*
X477800Y427200D01*
X477600D01*
X477800Y427000D01*
X477600Y426800D01*
X477800D01*
X478000Y426600D01*
X870000Y228700D02*
X870400Y229100D01*
X870800D01*
X870400Y229500D01*
X870800Y229900D01*
X870400D01*
X870000Y230300D01*
X869600Y229900D01*
X869200D01*
X869600Y229500D01*
X869200Y229100D01*
X869600D01*
X870000Y228700D01*
Y229100D02*
X870200Y229300D01*
X870400D01*
X870200Y229500D01*
X870400Y229700D01*
X870200D01*
X870000Y229900D01*
X869800Y229700D01*
X869600D01*
X869800Y229500D01*
X869600Y229300D01*
X869800D01*
X870000Y229100D01*
X428000Y297200D02*
X428400Y297600D01*
X428800D01*
X428400Y298000D01*
X428800Y298400D01*
X428400D01*
X428000Y298800D01*
X427600Y298400D01*
X427200D01*
X427600Y298000D01*
X427200Y297600D01*
X427600D01*
X428000Y297200D01*
Y297600D02*
X428200Y297800D01*
X428400D01*
X428200Y298000D01*
X428400Y298200D01*
X428200D01*
X428000Y298400D01*
X427800Y298200D01*
X427600D01*
X427800Y298000D01*
X427600Y297800D01*
X427800D01*
X428000Y297600D01*
X1196000Y211700D02*
X1195200Y213300D01*
X1196800D01*
X1196000Y211700D01*
Y212100D02*
X1195600Y212900D01*
X1196400D01*
X1196000Y212100D01*
X126000Y517200D02*
X126400Y517600D01*
X126800D01*
X126400Y518000D01*
X126800Y518400D01*
X126400D01*
X126000Y518800D01*
X125600Y518400D01*
X125200D01*
X125600Y518000D01*
X125200Y517600D01*
X125600D01*
X126000Y517200D01*
Y517600D02*
X126200Y517800D01*
X126400D01*
X126200Y518000D01*
X126400Y518200D01*
X126200D01*
X126000Y518400D01*
X125800Y518200D01*
X125600D01*
X125800Y518000D01*
X125600Y517800D01*
X125800D01*
X126000Y517600D01*
X212500Y532700D02*
X212900Y533100D01*
X213300D01*
X212900Y533500D01*
X213300Y533900D01*
X212900D01*
X212500Y534300D01*
X212100Y533900D01*
X211700D01*
X212100Y533500D01*
X211700Y533100D01*
X212100D01*
X212500Y532700D01*
Y533100D02*
X212700Y533300D01*
X212900D01*
X212700Y533500D01*
X212900Y533700D01*
X212700D01*
X212500Y533900D01*
X212300Y533700D01*
X212100D01*
X212300Y533500D01*
X212100Y533300D01*
X212300D01*
X212500Y533100D01*
X242500Y453200D02*
X242900Y453600D01*
X243300D01*
X242900Y454000D01*
X243300Y454400D01*
X242900D01*
X242500Y454800D01*
X242100Y454400D01*
X241700D01*
X242100Y454000D01*
X241700Y453600D01*
X242100D01*
X242500Y453200D01*
Y453600D02*
X242700Y453800D01*
X242900D01*
X242700Y454000D01*
X242900Y454200D01*
X242700D01*
X242500Y454400D01*
X242300Y454200D01*
X242100D01*
X242300Y454000D01*
X242100Y453800D01*
X242300D01*
X242500Y453600D01*
X175000Y485200D02*
X175400Y485600D01*
X175800D01*
X175400Y486000D01*
X175800Y486400D01*
X175400D01*
X175000Y486800D01*
X174600Y486400D01*
X174200D01*
X174600Y486000D01*
X174200Y485600D01*
X174600D01*
X175000Y485200D01*
Y485600D02*
X175200Y485800D01*
X175400D01*
X175200Y486000D01*
X175400Y486200D01*
X175200D01*
X175000Y486400D01*
X174800Y486200D01*
X174600D01*
X174800Y486000D01*
X174600Y485800D01*
X174800D01*
X175000Y485600D01*
X499795Y737236D02*
X500462D01*
X500129D01*
Y735236D01*
X499795D01*
X500462D01*
X695850Y653043D02*
Y651043D01*
Y652043D01*
X697183D01*
Y653043D01*
Y651043D01*
X679008Y528415D02*
Y526416D01*
Y527416D01*
X680341D01*
Y528415D01*
Y526416D01*
X687583Y616362D02*
Y614363D01*
Y615362D01*
X688916D01*
Y616362D01*
Y614363D01*
X558514Y467568D02*
Y465569D01*
Y466569D01*
X559847D01*
Y467568D01*
Y465569D01*
X562450Y467568D02*
Y465569D01*
Y466569D01*
X563782D01*
Y467568D01*
Y465569D01*
X509400Y443999D02*
Y442000D01*
Y443000D01*
X510733D01*
Y443999D01*
Y442000D01*
X990091Y233641D02*
Y231642D01*
Y232641D01*
X991424D01*
Y233641D01*
Y231642D01*
X1105945Y397708D02*
Y395709D01*
Y396708D01*
X1107278D01*
Y397708D01*
Y395709D01*
X1105945Y381881D02*
Y379882D01*
Y380882D01*
X1107278D01*
Y381881D01*
Y379882D01*
X1117520Y397590D02*
Y395590D01*
Y396590D01*
X1118853D01*
Y397590D01*
Y395590D01*
X296800Y204806D02*
Y202807D01*
Y203807D01*
X298133D01*
Y204806D01*
Y202807D01*
X300200Y204806D02*
Y202807D01*
Y203807D01*
X301533D01*
Y204806D01*
Y202807D01*
X289300Y204806D02*
Y202807D01*
Y203807D01*
X290633D01*
Y204806D01*
Y202807D01*
X292700Y204806D02*
Y202807D01*
Y203807D01*
X294033D01*
Y204806D01*
Y202807D01*
X335500Y176613D02*
Y174614D01*
Y175614D01*
X336833D01*
Y176613D01*
Y174614D01*
X331000Y172621D02*
Y170622D01*
Y171622D01*
X332333D01*
Y172621D01*
Y170622D01*
X354291Y176448D02*
Y174449D01*
Y175449D01*
X355624D01*
Y176448D01*
Y174449D01*
X353000Y181312D02*
Y179313D01*
Y180312D01*
X354333D01*
Y181312D01*
Y179313D01*
X348000Y172621D02*
Y170622D01*
Y171622D01*
X349333D01*
Y172621D01*
Y170622D01*
X339500Y172621D02*
Y170622D01*
Y171622D01*
X340833D01*
Y172621D01*
Y170622D01*
X313307Y372275D02*
Y370276D01*
Y371275D01*
X314640D01*
Y372275D01*
Y370276D01*
X318386Y372275D02*
Y370276D01*
Y371275D01*
X319719D01*
Y372275D01*
Y370276D01*
X323465Y372275D02*
Y370276D01*
Y371275D01*
X324798D01*
Y372275D01*
Y370276D01*
X346799Y369169D02*
Y367169D01*
Y368169D01*
X348132D01*
Y369169D01*
Y367169D01*
X313307Y366575D02*
Y364576D01*
Y365575D01*
X314640D01*
Y366575D01*
Y364576D01*
X318386Y366574D02*
Y364575D01*
Y365575D01*
X319719D01*
Y366574D01*
Y364575D01*
X323465Y366574D02*
Y364575D01*
Y365575D01*
X324798D01*
Y366574D01*
Y364575D01*
X391653Y364165D02*
Y362165D01*
X392986D01*
X410114Y342230D02*
Y340231D01*
X411447D01*
X413189Y338574D02*
Y336575D01*
X414522D01*
X350500Y328315D02*
Y326316D01*
Y327316D01*
X351833D01*
Y328315D01*
Y326316D01*
X385984Y327787D02*
Y325787D01*
Y326787D01*
X387317D01*
Y327787D01*
Y325787D01*
X346799Y363871D02*
Y361872D01*
Y362871D01*
X348132D01*
Y363871D01*
Y361872D01*
X335543Y344725D02*
Y342725D01*
Y343725D01*
X336876D01*
Y344725D01*
Y342725D01*
X386304Y346430D02*
Y344431D01*
Y345431D01*
X387637D01*
Y346430D01*
Y344431D01*
X344500Y347495D02*
Y345496D01*
Y346496D01*
X345833D01*
Y347495D01*
Y345496D01*
X381619Y346430D02*
Y344431D01*
Y345431D01*
X382952D01*
Y346430D01*
Y344431D01*
X407035Y345886D02*
Y343886D01*
X408368D01*
X339000Y347495D02*
Y345496D01*
Y346496D01*
X340333D01*
Y347495D01*
Y345496D01*
X347685Y331251D02*
Y329252D01*
Y330252D01*
X349018D01*
Y331251D01*
Y329252D01*
X262732Y406929D02*
Y404930D01*
Y405929D01*
X264065D01*
Y406929D01*
Y404930D01*
X439670Y397467D02*
Y395468D01*
Y396468D01*
X441003D01*
Y397467D01*
Y395468D01*
X485851Y562861D02*
Y560862D01*
Y561862D01*
X487183D01*
Y562861D01*
Y560862D01*
X506991Y562861D02*
Y560862D01*
Y561862D01*
X508324D01*
Y562861D01*
Y560862D01*
X489500Y565902D02*
Y563902D01*
Y564902D01*
X490833D01*
Y565902D01*
Y563902D01*
X511531Y566142D02*
Y564142D01*
Y565142D01*
X512864D01*
Y566142D01*
Y564142D01*
X784685Y587472D02*
Y585472D01*
Y586472D01*
X786018D01*
Y587472D01*
Y585472D01*
X211833Y641099D02*
X211500Y641432D01*
X210833D01*
X210500Y641099D01*
Y639766D01*
X210833Y639433D01*
X211500D01*
X211833Y639766D01*
Y640433D01*
X211166D01*
X211833Y645233D02*
X211500Y645566D01*
X210833D01*
X210500Y645233D01*
Y643900D01*
X210833Y643567D01*
X211500D01*
X211833Y643900D01*
Y644567D01*
X211166D01*
X208290Y643166D02*
X207956Y643499D01*
X207290D01*
X206957Y643166D01*
Y641833D01*
X207290Y641500D01*
X207956D01*
X208290Y641833D01*
Y642500D01*
X207623D01*
X215376Y643166D02*
X215043Y643499D01*
X214376D01*
X214043Y643166D01*
Y641833D01*
X214376Y641500D01*
X215043D01*
X215376Y641833D01*
Y642500D01*
X214710D01*
X486661Y502161D02*
Y500161D01*
Y501161D01*
X487994D01*
Y502161D01*
Y500161D01*
X486661Y497830D02*
Y495831D01*
Y496830D01*
X487994D01*
Y497830D01*
Y495831D01*
X486661Y493499D02*
Y491500D01*
Y492500D01*
X487994D01*
Y493499D01*
Y491500D01*
X486661Y489169D02*
Y487169D01*
Y488169D01*
X487994D01*
Y489169D01*
Y487169D01*
X486661Y484838D02*
Y482839D01*
Y483838D01*
X487994D01*
Y484838D01*
Y482839D01*
X482331Y502161D02*
Y500161D01*
Y501161D01*
X483664D01*
Y502161D01*
Y500161D01*
X482331Y497830D02*
Y495831D01*
Y496830D01*
X483664D01*
Y497830D01*
Y495831D01*
X482331Y493499D02*
Y491500D01*
Y492500D01*
X483664D01*
Y493499D01*
Y491500D01*
X482331Y489169D02*
Y487169D01*
Y488169D01*
X483664D01*
Y489169D01*
Y487169D01*
X482331Y484838D02*
Y482839D01*
Y483838D01*
X483664D01*
Y484838D01*
Y482839D01*
X478000Y502161D02*
Y500161D01*
Y501161D01*
X479333D01*
Y502161D01*
Y500161D01*
X478000Y497830D02*
Y495831D01*
Y496830D01*
X479333D01*
Y497830D01*
Y495831D01*
X478000Y493499D02*
Y491500D01*
Y492500D01*
X479333D01*
Y493499D01*
Y491500D01*
X478000Y489169D02*
Y487169D01*
Y488169D01*
X479333D01*
Y489169D01*
Y487169D01*
X478000Y484838D02*
Y482839D01*
Y483838D01*
X479333D01*
Y484838D01*
Y482839D01*
X473669Y502161D02*
Y500161D01*
Y501161D01*
X475002D01*
Y502161D01*
Y500161D01*
X473669Y497830D02*
Y495831D01*
Y496830D01*
X475002D01*
Y497830D01*
Y495831D01*
X473669Y493499D02*
Y491500D01*
Y492500D01*
X475002D01*
Y493499D01*
Y491500D01*
X473669Y489169D02*
Y487169D01*
Y488169D01*
X475002D01*
Y489169D01*
Y487169D01*
X473669Y484838D02*
Y482839D01*
Y483838D01*
X475002D01*
Y484838D01*
Y482839D01*
X469339Y502161D02*
Y500161D01*
Y501161D01*
X470672D01*
Y502161D01*
Y500161D01*
X469339Y497830D02*
Y495831D01*
Y496830D01*
X470672D01*
Y497830D01*
Y495831D01*
X469339Y493499D02*
Y491500D01*
Y492500D01*
X470672D01*
Y493499D01*
Y491500D01*
X469339Y489169D02*
Y487169D01*
Y488169D01*
X470672D01*
Y489169D01*
Y487169D01*
X469339Y484838D02*
Y482839D01*
Y483838D01*
X470672D01*
Y484838D01*
Y482839D01*
X576364Y195698D02*
X576031Y196031D01*
X575365D01*
X575032Y195698D01*
Y194365D01*
X575365Y194032D01*
X576031D01*
X576364Y194365D01*
Y195031D01*
X575698D01*
X580301Y195698D02*
X579968Y196031D01*
X579302D01*
X578968Y195698D01*
Y194365D01*
X579302Y194032D01*
X579968D01*
X580301Y194365D01*
Y195031D01*
X579635D01*
X576364Y199635D02*
X576031Y199968D01*
X575365D01*
X575032Y199635D01*
Y198302D01*
X575365Y197968D01*
X576031D01*
X576364Y198302D01*
Y198968D01*
X575698D01*
X580301Y199635D02*
X579968Y199968D01*
X579302D01*
X578968Y199635D01*
Y198302D01*
X579302Y197968D01*
X579968D01*
X580301Y198302D01*
Y198968D01*
X579635D01*
X885668Y613832D02*
X885334Y614165D01*
X884668D01*
X884335Y613832D01*
Y612499D01*
X884668Y612165D01*
X885334D01*
X885668Y612499D01*
Y613165D01*
X885001D01*
X885668Y609501D02*
X885334Y609834D01*
X884668D01*
X884335Y609501D01*
Y608168D01*
X884668Y607835D01*
X885334D01*
X885668Y608168D01*
Y608834D01*
X885001D01*
X889998Y613832D02*
X889665Y614165D01*
X888999D01*
X888665Y613832D01*
Y612499D01*
X888999Y612165D01*
X889665D01*
X889998Y612499D01*
Y613165D01*
X889332D01*
X889998Y609501D02*
X889665Y609834D01*
X888999D01*
X888665Y609501D01*
Y608168D01*
X888999Y607835D01*
X889665D01*
X889998Y608168D01*
Y608834D01*
X889332D01*
X956349Y512927D02*
X956016Y513260D01*
X955349D01*
X955016Y512927D01*
Y511594D01*
X955349Y511261D01*
X956016D01*
X956349Y511594D01*
Y512260D01*
X955683D01*
X960680Y512927D02*
X960347Y513260D01*
X959680D01*
X959347Y512927D01*
Y511594D01*
X959680Y511261D01*
X960347D01*
X960680Y511594D01*
Y512260D01*
X960013D01*
X956349Y508596D02*
X956016Y508929D01*
X955349D01*
X955016Y508596D01*
Y507263D01*
X955349Y506930D01*
X956016D01*
X956349Y507263D01*
Y507930D01*
X955683D01*
X960680Y508596D02*
X960347Y508929D01*
X959680D01*
X959347Y508596D01*
Y507263D01*
X959680Y506930D01*
X960347D01*
X960680Y507263D01*
Y507930D01*
X960013D01*
X1039164Y655383D02*
X1038830Y655716D01*
X1038164D01*
X1037831Y655383D01*
Y654050D01*
X1038164Y653717D01*
X1038830D01*
X1039164Y654050D01*
Y654716D01*
X1038497D01*
X1039164Y659713D02*
X1038830Y660047D01*
X1038164D01*
X1037831Y659713D01*
Y658381D01*
X1038164Y658047D01*
X1038830D01*
X1039164Y658381D01*
Y659047D01*
X1038497D01*
X1039164Y664044D02*
X1038830Y664377D01*
X1038164D01*
X1037831Y664044D01*
Y662711D01*
X1038164Y662378D01*
X1038830D01*
X1039164Y662711D01*
Y663378D01*
X1038497D01*
X1034833Y655383D02*
X1034500Y655716D01*
X1033833D01*
X1033500Y655383D01*
Y654050D01*
X1033833Y653717D01*
X1034500D01*
X1034833Y654050D01*
Y654716D01*
X1034167D01*
X1034833Y659713D02*
X1034500Y660047D01*
X1033833D01*
X1033500Y659713D01*
Y658381D01*
X1033833Y658047D01*
X1034500D01*
X1034833Y658381D01*
Y659047D01*
X1034167D01*
X1034833Y664044D02*
X1034500Y664377D01*
X1033833D01*
X1033500Y664044D01*
Y662711D01*
X1033833Y662378D01*
X1034500D01*
X1034833Y662711D01*
Y663378D01*
X1034167D01*
X1030502Y655383D02*
X1030169Y655716D01*
X1029502D01*
X1029169Y655383D01*
Y654050D01*
X1029502Y653717D01*
X1030169D01*
X1030502Y654050D01*
Y654716D01*
X1029836D01*
X1030502Y659713D02*
X1030169Y660047D01*
X1029502D01*
X1029169Y659713D01*
Y658381D01*
X1029502Y658047D01*
X1030169D01*
X1030502Y658381D01*
Y659047D01*
X1029836D01*
X1030502Y664044D02*
X1030169Y664377D01*
X1029502D01*
X1029169Y664044D01*
Y662711D01*
X1029502Y662378D01*
X1030169D01*
X1030502Y662711D01*
Y663378D01*
X1029836D01*
X326494Y257328D02*
X326161Y257661D01*
X325495D01*
X325161Y257328D01*
Y255995D01*
X325495Y255661D01*
X326161D01*
X326494Y255995D01*
Y256661D01*
X325828D01*
X326494Y252997D02*
X326161Y253330D01*
X325495D01*
X325161Y252997D01*
Y251664D01*
X325495Y251331D01*
X326161D01*
X326494Y251664D01*
Y252330D01*
X325828D01*
X326494Y248666D02*
X326161Y248999D01*
X325495D01*
X325161Y248666D01*
Y247333D01*
X325495Y247000D01*
X326161D01*
X326494Y247333D01*
Y248000D01*
X325828D01*
X326494Y244335D02*
X326161Y244669D01*
X325495D01*
X325161Y244335D01*
Y243003D01*
X325495Y242669D01*
X326161D01*
X326494Y243003D01*
Y243669D01*
X325828D01*
X326494Y240005D02*
X326161Y240338D01*
X325495D01*
X325161Y240005D01*
Y238672D01*
X325495Y238339D01*
X326161D01*
X326494Y238672D01*
Y239338D01*
X325828D01*
X322164Y257328D02*
X321830Y257661D01*
X321164D01*
X320831Y257328D01*
Y255995D01*
X321164Y255661D01*
X321830D01*
X322164Y255995D01*
Y256661D01*
X321497D01*
X322164Y252997D02*
X321830Y253330D01*
X321164D01*
X320831Y252997D01*
Y251664D01*
X321164Y251331D01*
X321830D01*
X322164Y251664D01*
Y252330D01*
X321497D01*
X322164Y248666D02*
X321830Y248999D01*
X321164D01*
X320831Y248666D01*
Y247333D01*
X321164Y247000D01*
X321830D01*
X322164Y247333D01*
Y248000D01*
X321497D01*
X322164Y244335D02*
X321830Y244669D01*
X321164D01*
X320831Y244335D01*
Y243003D01*
X321164Y242669D01*
X321830D01*
X322164Y243003D01*
Y243669D01*
X321497D01*
X322164Y240005D02*
X321830Y240338D01*
X321164D01*
X320831Y240005D01*
Y238672D01*
X321164Y238339D01*
X321830D01*
X322164Y238672D01*
Y239338D01*
X321497D01*
X317833Y257328D02*
X317500Y257661D01*
X316833D01*
X316500Y257328D01*
Y255995D01*
X316833Y255661D01*
X317500D01*
X317833Y255995D01*
Y256661D01*
X317166D01*
X317833Y252997D02*
X317500Y253330D01*
X316833D01*
X316500Y252997D01*
Y251664D01*
X316833Y251331D01*
X317500D01*
X317833Y251664D01*
Y252330D01*
X317166D01*
X317833Y248666D02*
X317500Y248999D01*
X316833D01*
X316500Y248666D01*
Y247333D01*
X316833Y247000D01*
X317500D01*
X317833Y247333D01*
Y248000D01*
X317166D01*
X317833Y244335D02*
X317500Y244669D01*
X316833D01*
X316500Y244335D01*
Y243003D01*
X316833Y242669D01*
X317500D01*
X317833Y243003D01*
Y243669D01*
X317166D01*
X317833Y240005D02*
X317500Y240338D01*
X316833D01*
X316500Y240005D01*
Y238672D01*
X316833Y238339D01*
X317500D01*
X317833Y238672D01*
Y239338D01*
X317166D01*
X313502Y257328D02*
X313169Y257661D01*
X312503D01*
X312169Y257328D01*
Y255995D01*
X312503Y255661D01*
X313169D01*
X313502Y255995D01*
Y256661D01*
X312836D01*
X313502Y252997D02*
X313169Y253330D01*
X312503D01*
X312169Y252997D01*
Y251664D01*
X312503Y251331D01*
X313169D01*
X313502Y251664D01*
Y252330D01*
X312836D01*
X313502Y248666D02*
X313169Y248999D01*
X312503D01*
X312169Y248666D01*
Y247333D01*
X312503Y247000D01*
X313169D01*
X313502Y247333D01*
Y248000D01*
X312836D01*
X313502Y244335D02*
X313169Y244669D01*
X312503D01*
X312169Y244335D01*
Y243003D01*
X312503Y242669D01*
X313169D01*
X313502Y243003D01*
Y243669D01*
X312836D01*
X313502Y240005D02*
X313169Y240338D01*
X312503D01*
X312169Y240005D01*
Y238672D01*
X312503Y238339D01*
X313169D01*
X313502Y238672D01*
Y239338D01*
X312836D01*
X309172Y257328D02*
X308838Y257661D01*
X308172D01*
X307839Y257328D01*
Y255995D01*
X308172Y255661D01*
X308838D01*
X309172Y255995D01*
Y256661D01*
X308505D01*
X309172Y252997D02*
X308838Y253330D01*
X308172D01*
X307839Y252997D01*
Y251664D01*
X308172Y251331D01*
X308838D01*
X309172Y251664D01*
Y252330D01*
X308505D01*
X309172Y248666D02*
X308838Y248999D01*
X308172D01*
X307839Y248666D01*
Y247333D01*
X308172Y247000D01*
X308838D01*
X309172Y247333D01*
Y248000D01*
X308505D01*
X309172Y244335D02*
X308838Y244669D01*
X308172D01*
X307839Y244335D01*
Y243003D01*
X308172Y242669D01*
X308838D01*
X309172Y243003D01*
Y243669D01*
X308505D01*
X309172Y240005D02*
X308838Y240338D01*
X308172D01*
X307839Y240005D01*
Y238672D01*
X308172Y238339D01*
X308838D01*
X309172Y238672D01*
Y239338D01*
X308505D01*
X152333Y641099D02*
X152000Y641432D01*
X151333D01*
X151000Y641099D01*
Y639766D01*
X151333Y639433D01*
X152000D01*
X152333Y639766D01*
Y640433D01*
X151666D01*
X152333Y645233D02*
X152000Y645566D01*
X151333D01*
X151000Y645233D01*
Y643900D01*
X151333Y643567D01*
X152000D01*
X152333Y643900D01*
Y644567D01*
X151666D01*
X148790Y643166D02*
X148456Y643499D01*
X147790D01*
X147457Y643166D01*
Y641833D01*
X147790Y641500D01*
X148456D01*
X148790Y641833D01*
Y642500D01*
X148123D01*
X155876Y643166D02*
X155543Y643499D01*
X154876D01*
X154543Y643166D01*
Y641833D01*
X154876Y641500D01*
X155543D01*
X155876Y641833D01*
Y642500D01*
X155210D01*
X882849Y512927D02*
X882516Y513260D01*
X881849D01*
X881516Y512927D01*
Y511594D01*
X881849Y511261D01*
X882516D01*
X882849Y511594D01*
Y512260D01*
X882183D01*
X887180Y512927D02*
X886847Y513260D01*
X886180D01*
X885847Y512927D01*
Y511594D01*
X886180Y511261D01*
X886847D01*
X887180Y511594D01*
Y512260D01*
X886513D01*
X882849Y508596D02*
X882516Y508929D01*
X881849D01*
X881516Y508596D01*
Y507263D01*
X881849Y506930D01*
X882516D01*
X882849Y507263D01*
Y507930D01*
X882183D01*
X887180Y508596D02*
X886847Y508929D01*
X886180D01*
X885847Y508596D01*
Y507263D01*
X886180Y506930D01*
X886847D01*
X887180Y507263D01*
Y507930D01*
X886513D01*
X226000Y465211D02*
Y463211D01*
Y464211D01*
X227333D01*
Y465211D01*
Y463211D01*
X1085461Y35999D02*
Y34000D01*
Y35000D01*
X1086794D01*
Y35999D01*
Y34000D01*
X403961Y349541D02*
Y347542D01*
X405294D01*
X400882Y353197D02*
Y351198D01*
X402215D01*
X397807Y356853D02*
Y354854D01*
X399140D01*
X394728Y360509D02*
Y358509D01*
X396061D01*
X188110Y333725D02*
Y331726D01*
X189443D01*
X184744Y329126D02*
Y327127D01*
X186077D01*
X181378Y324528D02*
Y322528D01*
X182711D01*
X178012Y319929D02*
Y317930D01*
X179345D01*
X174646Y315331D02*
Y313331D01*
X175979D01*
X171280Y310732D02*
Y308733D01*
X172612D01*
X167913Y306133D02*
Y304134D01*
X169246D01*
X1137256Y261212D02*
Y259213D01*
Y260212D01*
X1138589D01*
Y261212D01*
Y259213D01*
X1137256Y278810D02*
Y276811D01*
Y277811D01*
X1138589D01*
Y278810D01*
Y276811D01*
X1137256Y310267D02*
Y308268D01*
Y309267D01*
X1138589D01*
Y310267D01*
Y308268D01*
X1137256Y326645D02*
Y324646D01*
Y325645D01*
X1138589D01*
Y326645D01*
Y324646D01*
X1137256Y291055D02*
Y289055D01*
Y290055D01*
X1138589D01*
Y291055D01*
Y289055D01*
X1099791Y319598D02*
Y317598D01*
Y318598D01*
X1101124D01*
Y319598D01*
Y317598D01*
X1099791Y298732D02*
Y296732D01*
Y297732D01*
X1101124D01*
Y298732D01*
Y296732D01*
X1105512Y166999D02*
Y165000D01*
Y166000D01*
X1106845D01*
Y166999D01*
Y165000D01*
X1109528Y162629D02*
Y160630D01*
Y161630D01*
X1110861D01*
Y162629D01*
Y160630D01*
X1118661Y162629D02*
Y160630D01*
Y161630D01*
X1119994D01*
Y162629D01*
Y160630D01*
X1127795Y162629D02*
Y160630D01*
Y161630D01*
X1129128D01*
Y162629D01*
Y160630D01*
X1105669Y241999D02*
Y240000D01*
Y241000D01*
X1107002D01*
Y241999D01*
Y240000D01*
X1105945Y364999D02*
Y363000D01*
Y364000D01*
X1107278D01*
Y364999D01*
Y363000D01*
X122244Y297432D02*
Y295433D01*
Y296433D01*
X123577D01*
Y297432D01*
Y295433D01*
X337700Y204806D02*
Y202807D01*
Y203807D01*
X339033D01*
Y204806D01*
Y202807D01*
X334300Y204806D02*
Y202807D01*
Y203807D01*
X335633D01*
Y204806D01*
Y202807D01*
X330200Y204806D02*
Y202807D01*
Y203807D01*
X331533D01*
Y204806D01*
Y202807D01*
X326800Y204806D02*
Y202807D01*
Y203807D01*
X328133D01*
Y204806D01*
Y202807D01*
X322700Y204806D02*
Y202807D01*
Y203807D01*
X324033D01*
Y204806D01*
Y202807D01*
X319300Y204806D02*
Y202807D01*
Y203807D01*
X320633D01*
Y204806D01*
Y202807D01*
X311800Y204806D02*
Y202807D01*
Y203807D01*
X313133D01*
Y204806D01*
Y202807D01*
X315200Y204806D02*
Y202807D01*
Y203807D01*
X316533D01*
Y204806D01*
Y202807D01*
X304300Y204806D02*
Y202807D01*
Y203807D01*
X305633D01*
Y204806D01*
Y202807D01*
X307700Y204806D02*
Y202807D01*
Y203807D01*
X309033D01*
Y204806D01*
Y202807D01*
X294750Y212834D02*
Y210835D01*
Y211834D01*
X296083D01*
Y212834D01*
Y210835D01*
X303269Y235226D02*
Y233227D01*
Y234227D01*
X304601D01*
Y235226D01*
Y233227D01*
X322798Y262860D02*
Y260861D01*
Y261860D01*
X324131D01*
Y262860D01*
Y260861D01*
X308625Y262860D02*
Y260861D01*
Y261860D01*
X309958D01*
Y262860D01*
Y260861D01*
X303078Y240727D02*
Y238727D01*
Y239727D01*
X304411D01*
Y240727D01*
Y238727D01*
X303078Y259161D02*
Y257161D01*
Y258161D01*
X304411D01*
Y259161D01*
Y257161D01*
X303078Y244274D02*
Y242274D01*
Y243274D01*
X304411D01*
Y244274D01*
Y242274D01*
X330062Y263011D02*
Y261011D01*
Y262011D01*
X331395D01*
Y263011D01*
Y261011D01*
X338184Y240322D02*
Y238322D01*
Y239322D01*
X339516D01*
Y240322D01*
Y238322D01*
X333155Y231775D02*
Y229776D01*
Y230775D01*
X334487D01*
Y231775D01*
Y229776D01*
X337731Y256113D02*
Y254114D01*
Y255113D01*
X339064D01*
Y256113D01*
Y254114D01*
X303078Y253724D02*
Y251724D01*
Y252724D01*
X304411D01*
Y253724D01*
Y251724D01*
X302250Y212834D02*
Y210835D01*
Y211834D01*
X303583D01*
Y212834D01*
Y210835D01*
X341800Y204806D02*
Y202807D01*
Y203807D01*
X343133D01*
Y204806D01*
Y202807D01*
X345200Y204806D02*
Y202807D01*
Y203807D01*
X346533D01*
Y204806D01*
Y202807D01*
X327000Y176613D02*
Y174614D01*
Y175614D01*
X328333D01*
Y176613D01*
Y174614D01*
X293000Y176613D02*
Y174614D01*
Y175614D01*
X294333D01*
Y176613D01*
Y174614D01*
X284500Y176615D02*
Y174616D01*
Y175616D01*
X285833D01*
Y176615D01*
Y174616D01*
X288500Y172621D02*
Y170622D01*
Y171622D01*
X289833D01*
Y172621D01*
Y170622D01*
X239606Y203736D02*
Y201736D01*
Y202736D01*
X240939D01*
Y203736D01*
Y201736D01*
X255567Y203736D02*
Y201736D01*
Y202736D01*
X256900D01*
Y203736D01*
Y201736D01*
X224972Y203736D02*
Y201736D01*
Y202736D01*
X226305D01*
Y203736D01*
Y201736D01*
X83465Y133999D02*
Y132000D01*
Y133000D01*
X84798D01*
Y133999D01*
Y132000D01*
X339000Y224598D02*
Y222598D01*
Y223598D01*
X340333D01*
Y224598D01*
Y222598D01*
X339750Y212834D02*
Y210835D01*
Y211834D01*
X341083D01*
Y212834D01*
Y210835D01*
X397244Y688720D02*
Y686721D01*
Y687720D01*
X398577D01*
Y688720D01*
Y686721D01*
X496811Y422157D02*
Y420157D01*
Y421157D01*
X498144D01*
Y422157D01*
Y420157D01*
X371356Y688708D02*
Y686708D01*
Y687708D01*
X372688D01*
Y688708D01*
Y686708D01*
X344500Y224598D02*
Y222598D01*
Y223598D01*
X345833D01*
Y224598D01*
Y222598D01*
X440197Y220228D02*
Y218228D01*
Y219228D01*
X441530D01*
Y220228D01*
Y218228D01*
X438622Y227086D02*
Y225087D01*
Y226086D01*
X439955D01*
Y227086D01*
Y225087D01*
X365039Y227086D02*
Y225087D01*
Y226086D01*
X366372D01*
Y227086D01*
Y225087D01*
X358000Y222299D02*
Y220300D01*
Y221299D01*
X359333D01*
Y222299D01*
Y220300D01*
X287250Y212834D02*
Y210835D01*
Y211834D01*
X288583D01*
Y212834D01*
Y210835D01*
X347250Y212834D02*
Y210835D01*
Y211834D01*
X348583D01*
Y212834D01*
Y210835D01*
X332250Y212834D02*
Y210835D01*
Y211834D01*
X333583D01*
Y212834D01*
Y210835D01*
X324750Y212834D02*
Y210835D01*
Y211834D01*
X326083D01*
Y212834D01*
Y210835D01*
X317250Y212834D02*
Y210835D01*
Y211834D01*
X318583D01*
Y212834D01*
Y210835D01*
X309750Y212834D02*
Y210835D01*
Y211834D01*
X311083D01*
Y212834D01*
Y210835D01*
X963504Y603102D02*
Y601102D01*
Y602102D01*
X964837D01*
Y603102D01*
Y601102D01*
X1049323Y653207D02*
Y651208D01*
Y652207D01*
X1050656D01*
Y653207D01*
Y651208D01*
X1046295Y654338D02*
Y652338D01*
Y653338D01*
X1047628D01*
Y654338D01*
Y652338D01*
X1046295Y657881D02*
Y655882D01*
Y656881D01*
X1047628D01*
Y657881D01*
Y655882D01*
X1049323Y659302D02*
Y657303D01*
Y658302D01*
X1050656D01*
Y659302D01*
Y657303D01*
X1083300Y659064D02*
Y657065D01*
Y658064D01*
X1084633D01*
Y659064D01*
Y657065D01*
X1073100Y659064D02*
Y657065D01*
Y658064D01*
X1074433D01*
Y659064D01*
Y657065D01*
X1066800Y659064D02*
Y657065D01*
Y658064D01*
X1068133D01*
Y659064D01*
Y657065D01*
X689213Y210228D02*
Y208228D01*
Y209228D01*
X690546D01*
Y210228D01*
Y208228D01*
X677362Y224047D02*
Y222047D01*
Y223047D01*
X678695D01*
Y224047D01*
Y222047D01*
X701929Y196133D02*
Y194134D01*
Y195133D01*
X703262D01*
Y196133D01*
Y194134D01*
X664449Y209401D02*
Y207402D01*
Y208401D01*
X665782D01*
Y209401D01*
Y207402D01*
X672756Y202866D02*
Y200866D01*
Y201866D01*
X674089D01*
Y202866D01*
Y200866D01*
X664567Y202629D02*
Y200630D01*
Y201630D01*
X665900D01*
Y202629D01*
Y200630D01*
X678346Y195346D02*
Y193347D01*
Y194346D01*
X679679D01*
Y195346D01*
Y193347D01*
X672953Y195385D02*
Y193386D01*
Y194386D01*
X674286D01*
Y195385D01*
Y193386D01*
X510512Y603181D02*
Y601181D01*
Y602181D01*
X511845D01*
Y603181D01*
Y601181D01*
X433228Y483299D02*
Y481299D01*
Y482299D01*
X434561D01*
Y483299D01*
Y481299D01*
X483000Y480188D02*
Y478189D01*
Y479189D01*
X484333D01*
Y480188D01*
Y478189D01*
X469172Y480209D02*
Y478210D01*
Y479210D01*
X470505D01*
Y480209D01*
Y478210D01*
X644441Y362153D02*
Y360154D01*
Y361153D01*
X645774D01*
Y362153D01*
Y360154D01*
X951528Y694410D02*
Y692411D01*
Y693411D01*
X952861D01*
Y694410D01*
Y692411D01*
X951528Y689480D02*
Y687481D01*
Y688481D01*
X952861D01*
Y689480D01*
Y687481D01*
X1092598Y646409D02*
Y644410D01*
Y645409D01*
X1093931D01*
Y646409D01*
Y644410D01*
X1190748Y664047D02*
Y662047D01*
Y663047D01*
X1192081D01*
Y664047D01*
Y662047D01*
X1135984Y663850D02*
Y661850D01*
Y662850D01*
X1137317D01*
Y663850D01*
Y661850D01*
X1109134Y663377D02*
Y661378D01*
Y662378D01*
X1110467D01*
Y663377D01*
Y661378D01*
X1070158Y646409D02*
Y644410D01*
Y645409D01*
X1071490D01*
Y646409D01*
Y644410D01*
X836181Y597826D02*
Y595827D01*
Y596827D01*
X837514D01*
Y597826D01*
Y595827D01*
X558976Y437826D02*
Y435827D01*
Y436827D01*
X560309D01*
Y437826D01*
Y435827D01*
X638504Y409125D02*
Y407126D01*
Y408126D01*
X639837D01*
Y409125D01*
Y407126D01*
X663110Y446173D02*
Y444173D01*
Y445173D01*
X664443D01*
Y446173D01*
Y444173D01*
X94528Y247354D02*
Y245354D01*
Y246354D01*
X95860D01*
Y247354D01*
Y245354D01*
X93898Y272393D02*
Y270394D01*
Y271393D01*
X95231D01*
Y272393D01*
Y270394D01*
X94016Y297432D02*
Y295433D01*
Y296433D01*
X95349D01*
Y297432D01*
Y295433D01*
X93858Y322472D02*
Y320472D01*
Y321472D01*
X95191D01*
Y322472D01*
Y320472D01*
X122087Y322472D02*
Y320472D01*
Y321472D01*
X123419D01*
Y322472D01*
Y320472D01*
X122126Y272393D02*
Y270394D01*
Y271393D01*
X123459D01*
Y272393D01*
Y270394D01*
X122756Y247354D02*
Y245354D01*
Y246354D01*
X124089D01*
Y247354D01*
Y245354D01*
X239606Y212865D02*
Y210866D01*
Y211866D01*
X240939D01*
Y212865D01*
Y210866D01*
X224972Y212865D02*
Y210866D01*
Y211866D01*
X226305D01*
Y212865D01*
Y210866D01*
X255567Y212865D02*
Y210866D01*
Y211866D01*
X256900D01*
Y212865D01*
Y210866D01*
X1154882Y266606D02*
Y264606D01*
Y265606D01*
X1156215D01*
Y266606D01*
Y264606D01*
X1164095Y266527D02*
Y264528D01*
Y265527D01*
X1165427D01*
Y266527D01*
Y264528D01*
X1109528Y171842D02*
Y169843D01*
Y170842D01*
X1110861D01*
Y171842D01*
Y169843D01*
X1118661Y171842D02*
Y169843D01*
Y170842D01*
X1119994D01*
Y171842D01*
Y169843D01*
X1127795Y171842D02*
Y169843D01*
Y170842D01*
X1129128D01*
Y171842D01*
Y169843D01*
X1145827Y235443D02*
Y233444D01*
Y234443D01*
X1147160D01*
Y235443D01*
Y233444D01*
X1137256Y179101D02*
Y177102D01*
Y178102D01*
X1138589D01*
Y179101D01*
Y177102D01*
X1145827Y187949D02*
Y185950D01*
Y186949D01*
X1147160D01*
Y187949D01*
Y185950D01*
X1137256Y195524D02*
Y193524D01*
Y194524D01*
X1138589D01*
Y195524D01*
Y193524D01*
X1145827Y203780D02*
Y201781D01*
Y202781D01*
X1147160D01*
Y203780D01*
Y201781D01*
X1137256Y211946D02*
Y209946D01*
Y210946D01*
X1138589D01*
Y211946D01*
Y209946D01*
X1145827Y219612D02*
Y217612D01*
Y218612D01*
X1147160D01*
Y219612D01*
Y217612D01*
X1137256Y228368D02*
Y226369D01*
Y227368D01*
X1138589D01*
Y228368D01*
Y226369D01*
X1137256Y244790D02*
Y242791D01*
Y243791D01*
X1138589D01*
Y244790D01*
Y242791D01*
X1145827Y172117D02*
Y170118D01*
Y171118D01*
X1147160D01*
Y172117D01*
Y170118D01*
X1113898Y232157D02*
Y230157D01*
Y231157D01*
X1115230D01*
Y232157D01*
Y230157D01*
X1099724Y232157D02*
Y230157D01*
Y231157D01*
X1101057D01*
Y232157D01*
Y230157D01*
X1113819Y243800D02*
Y241801D01*
Y242801D01*
X1115152D01*
Y243800D01*
Y241801D01*
X1113661Y278732D02*
Y276732D01*
Y277732D01*
X1114994D01*
Y278732D01*
Y276732D01*
X1128110Y278810D02*
Y276811D01*
Y277811D01*
X1129443D01*
Y278810D01*
Y276811D01*
X1128110Y291055D02*
Y289055D01*
Y290055D01*
X1129443D01*
Y291055D01*
Y289055D01*
X1113425Y255444D02*
Y253445D01*
Y254445D01*
X1114758D01*
Y255444D01*
Y253445D01*
X1113425Y267088D02*
Y265089D01*
Y266088D01*
X1114758D01*
Y267088D01*
Y265089D01*
X1099791Y255444D02*
Y253445D01*
Y254445D01*
X1101124D01*
Y255444D01*
Y253445D01*
X1099791Y267086D02*
Y265087D01*
Y266086D01*
X1101124D01*
Y267086D01*
Y265087D01*
X1128110Y310267D02*
Y308268D01*
Y309267D01*
X1129443D01*
Y310267D01*
Y308268D01*
X1107018Y310070D02*
Y308071D01*
Y309071D01*
X1108350D01*
Y310070D01*
Y308071D01*
X1111917Y314679D02*
Y312680D01*
Y313680D01*
X1113250D01*
Y314679D01*
Y312680D01*
X1107018Y305284D02*
Y303285D01*
Y304285D01*
X1108350D01*
Y305284D01*
Y303285D01*
X1107018Y314679D02*
Y312680D01*
Y313680D01*
X1108350D01*
Y314679D01*
Y312680D01*
X1111917Y305284D02*
Y303285D01*
Y304285D01*
X1113250D01*
Y305284D01*
Y303285D01*
X1128110Y326645D02*
Y324646D01*
Y325645D01*
X1129443D01*
Y326645D01*
Y324646D01*
X1128110Y342275D02*
Y340276D01*
Y341275D01*
X1129443D01*
Y342275D01*
Y340276D01*
X1095748Y355543D02*
Y353543D01*
Y354543D01*
X1097081D01*
Y355543D01*
Y353543D01*
X1096181Y381921D02*
Y379921D01*
Y380921D01*
X1097514D01*
Y381921D01*
Y379921D01*
X1095276Y397708D02*
Y395709D01*
Y396708D01*
X1096609D01*
Y397708D01*
Y395709D01*
X1166457Y386133D02*
Y384134D01*
Y385134D01*
X1167790D01*
Y386133D01*
Y384134D01*
X1155079Y398692D02*
Y396693D01*
Y397693D01*
X1156412D01*
Y398692D01*
Y396693D01*
X1159055Y342236D02*
Y340236D01*
Y341236D01*
X1160388D01*
Y342236D01*
Y340236D01*
X1159055Y357354D02*
Y355354D01*
Y356354D01*
X1160388D01*
Y357354D01*
Y355354D01*
X1159055Y372472D02*
Y370472D01*
Y371472D01*
X1160388D01*
Y372472D01*
Y370472D01*
X1169409Y372472D02*
Y370472D01*
Y371472D01*
X1170742D01*
Y372472D01*
Y370472D01*
X1169409Y357354D02*
Y355354D01*
Y356354D01*
X1170742D01*
Y357354D01*
Y355354D01*
X1169409Y342236D02*
Y340236D01*
Y341236D01*
X1170742D01*
Y342236D01*
Y340236D01*
X1179764Y342236D02*
Y340236D01*
Y341236D01*
X1181097D01*
Y342236D01*
Y340236D01*
X1179764Y357354D02*
Y355354D01*
Y356354D01*
X1181097D01*
Y357354D01*
Y355354D01*
X1179764Y372472D02*
Y370472D01*
Y371472D01*
X1181097D01*
Y372472D01*
Y370472D01*
X433228Y487918D02*
Y485919D01*
Y486919D01*
X434561D01*
Y487918D01*
Y485919D01*
X50315Y458653D02*
Y456653D01*
Y457653D01*
X51648D01*
Y458653D01*
Y456653D01*
X50315Y483692D02*
Y481693D01*
Y482693D01*
X51648D01*
Y483692D01*
Y481693D01*
X74606Y458653D02*
Y456654D01*
Y457653D01*
X75939D01*
Y458653D01*
Y456654D01*
X74606Y483692D02*
Y481693D01*
Y482693D01*
X75939D01*
Y483692D01*
Y481693D01*
X35866Y397590D02*
Y395590D01*
Y396590D01*
X37199D01*
Y397590D01*
Y395590D01*
X35866Y422629D02*
Y420630D01*
Y421630D01*
X37199D01*
Y422629D01*
Y420630D01*
X35866Y372551D02*
Y370551D01*
Y371551D01*
X37199D01*
Y372551D01*
Y370551D01*
X35866Y347511D02*
Y345512D01*
Y346512D01*
X37199D01*
Y347511D01*
Y345512D01*
X35866Y322472D02*
Y320472D01*
Y321472D01*
X37199D01*
Y322472D01*
Y320472D01*
X35866Y297432D02*
Y295433D01*
Y296433D01*
X37199D01*
Y297432D01*
Y295433D01*
X35866Y272393D02*
Y270394D01*
Y271393D01*
X37199D01*
Y272393D01*
Y270394D01*
X68110Y272393D02*
Y270394D01*
Y271393D01*
X69443D01*
Y272393D01*
Y270394D01*
X68110Y297432D02*
Y295433D01*
Y296432D01*
X69443D01*
Y297432D01*
Y295433D01*
X68110Y322471D02*
Y320472D01*
Y321472D01*
X69443D01*
Y322471D01*
Y320472D01*
X68110Y347511D02*
Y345511D01*
Y346511D01*
X69443D01*
Y347511D01*
Y345511D01*
X68110Y372550D02*
Y370550D01*
Y371550D01*
X69443D01*
Y372550D01*
Y370550D01*
X68110Y422628D02*
Y420628D01*
Y421628D01*
X69443D01*
Y422628D01*
Y420628D01*
X68110Y397589D02*
Y395589D01*
Y396589D01*
X69443D01*
Y397589D01*
Y395589D01*
X345887Y463990D02*
Y461991D01*
Y462991D01*
X347220D01*
Y463990D01*
Y461991D01*
X357777Y463990D02*
Y461991D01*
Y462991D01*
X359110D01*
Y463990D01*
Y461991D01*
X352087Y455149D02*
Y453150D01*
Y454149D01*
X353419D01*
Y455149D01*
Y453150D01*
X628150Y247393D02*
Y245394D01*
Y246393D01*
X629483D01*
Y247393D01*
Y245394D01*
X601378Y140779D02*
Y138779D01*
Y139779D01*
X602711D01*
Y140779D01*
Y138779D01*
X605433Y110149D02*
Y108150D01*
Y109149D01*
X606766D01*
Y110149D01*
Y108150D01*
X695197Y224755D02*
Y222756D01*
Y223756D01*
X696530D01*
Y224755D01*
Y222756D01*
X636063Y175346D02*
Y173346D01*
Y174346D01*
X637396D01*
Y175346D01*
Y173346D01*
X553110Y273692D02*
Y271693D01*
Y272693D01*
X554443D01*
Y273692D01*
Y271693D01*
X590276Y327236D02*
Y325236D01*
Y326236D01*
X591608D01*
Y327236D01*
Y325236D01*
X561063Y366369D02*
Y364370D01*
Y365370D01*
X562396D01*
Y366369D01*
Y364370D01*
X716260Y461055D02*
Y459055D01*
Y460055D01*
X717593D01*
Y461055D01*
Y459055D01*
X621378Y467984D02*
Y465984D01*
Y466984D01*
X622711D01*
Y467984D01*
Y465984D01*
X253620Y360486D02*
Y358487D01*
Y359486D01*
X254953D01*
Y360486D01*
Y358487D01*
X260343Y372507D02*
Y370508D01*
Y371508D01*
X261676D01*
Y372507D01*
Y370508D01*
X247012Y360572D02*
Y358573D01*
Y359573D01*
X248344D01*
Y360572D01*
Y358573D01*
X244215Y359584D02*
Y357585D01*
Y358584D01*
X245548D01*
Y359584D01*
Y357585D01*
X990787Y48373D02*
Y46374D01*
Y47374D01*
X992120D01*
Y48373D01*
Y46374D01*
X934449Y69578D02*
Y67579D01*
Y68578D01*
X935782D01*
Y69578D01*
Y67579D01*
X938386Y69204D02*
Y67205D01*
Y68204D01*
X939719D01*
Y69204D01*
Y67205D01*
X952142Y78712D02*
Y76713D01*
Y77712D01*
X953475D01*
Y78712D01*
Y76713D01*
X960079Y75188D02*
Y73189D01*
Y74189D01*
X961412D01*
Y75188D01*
Y73189D01*
X929291Y35582D02*
Y33583D01*
Y34582D01*
X930624D01*
Y35582D01*
Y33583D01*
X934050Y32467D02*
Y30467D01*
Y31467D01*
X935383D01*
Y32467D01*
Y30467D01*
X970354Y37669D02*
Y35669D01*
Y36669D01*
X971687D01*
Y37669D01*
Y35669D01*
X977756Y43653D02*
Y41653D01*
Y42653D01*
X979089D01*
Y43653D01*
Y41653D01*
X963929Y48141D02*
Y46142D01*
Y47141D01*
X965262D01*
Y48141D01*
Y46142D01*
X963929Y60188D02*
Y58189D01*
Y59189D01*
X965262D01*
Y60188D01*
Y58189D01*
X956705Y67413D02*
Y65413D01*
Y66413D01*
X958038D01*
Y67413D01*
Y65413D01*
X947579Y67413D02*
Y65413D01*
Y66413D01*
X948912D01*
Y67413D01*
Y65413D01*
X947579Y41869D02*
Y39870D01*
Y40870D01*
X948912D01*
Y41869D01*
Y39870D01*
X956705Y41869D02*
Y39870D01*
Y40870D01*
X958038D01*
Y41869D01*
Y39870D01*
X938386Y49094D02*
Y47095D01*
Y48094D01*
X939719D01*
Y49094D01*
Y47095D01*
X938386Y58220D02*
Y56221D01*
Y57220D01*
X939719D01*
Y58220D01*
Y56221D01*
X967717Y59480D02*
Y57480D01*
Y58480D01*
X969049D01*
Y59480D01*
Y57480D01*
X956079Y49720D02*
Y47721D01*
Y48720D01*
X957412D01*
Y49720D01*
Y47721D01*
X946236Y49720D02*
Y47721D01*
Y48720D01*
X947569D01*
Y49720D01*
Y47721D01*
X956079Y59562D02*
Y57563D01*
Y58563D01*
X957412D01*
Y59562D01*
Y57563D01*
X946236Y59562D02*
Y57563D01*
Y58563D01*
X947569D01*
Y59562D01*
Y57563D01*
X946236Y54641D02*
Y52642D01*
Y53641D01*
X947569D01*
Y54641D01*
Y52642D01*
X956079Y54641D02*
Y52642D01*
Y53641D01*
X957412D01*
Y54641D01*
Y52642D01*
X951157Y54641D02*
Y52642D01*
Y53641D01*
X952490D01*
Y54641D01*
Y52642D01*
X951157Y59562D02*
Y57563D01*
Y58563D01*
X952490D01*
Y59562D01*
Y57563D01*
X951157Y49720D02*
Y47721D01*
Y48720D01*
X952490D01*
Y49720D01*
Y47721D01*
X839000Y248014D02*
Y246015D01*
Y247015D01*
X840333D01*
Y248014D01*
Y246015D01*
X851000Y245200D02*
Y243201D01*
Y244200D01*
X852333D01*
Y245200D01*
Y243201D01*
X866000Y245200D02*
Y243201D01*
Y244200D01*
X867333D01*
Y245200D01*
Y243201D01*
X663965Y605025D02*
Y603026D01*
Y604025D01*
X665298D01*
Y605025D01*
Y603026D01*
X294090Y252631D02*
Y250632D01*
Y251632D01*
X295423D01*
Y252631D01*
Y250632D01*
X976417Y628598D02*
Y626598D01*
Y627598D01*
X977750D01*
Y628598D01*
Y626598D01*
X970980Y633535D02*
Y631535D01*
Y632535D01*
X972313D01*
Y633535D01*
Y631535D01*
X393937Y255503D02*
Y253504D01*
Y254170D01*
X395270Y255503D01*
X394270Y254504D01*
X395270Y253504D01*
X402137Y255503D02*
Y253504D01*
Y254170D01*
X403470Y255503D01*
X402470Y254504D01*
X403470Y253504D01*
X397837Y249603D02*
Y247604D01*
Y248270D01*
X399170Y249603D01*
X398170Y248604D01*
X399170Y247604D01*
X1041395Y647736D02*
Y645737D01*
Y646736D01*
X1042728D01*
Y647736D01*
Y645737D01*
X356701Y207611D02*
Y205611D01*
Y206611D01*
X358034D01*
Y207611D01*
Y205611D01*
X353201Y207611D02*
Y205611D01*
Y206611D01*
X354534D01*
Y207611D01*
Y205611D01*
X562441Y206291D02*
Y204291D01*
Y205291D01*
X563774D01*
Y206291D01*
Y204291D01*
X705715Y159713D02*
Y157714D01*
Y158713D01*
X707048D01*
Y159713D01*
Y157714D01*
X561000Y186372D02*
Y184373D01*
Y185372D01*
X562333D01*
Y186372D01*
Y184373D01*
X546465Y196747D02*
Y194748D01*
Y195748D01*
X547797D01*
Y196747D01*
Y194748D01*
X270000Y279908D02*
Y277909D01*
Y278908D01*
X271333D01*
Y279908D01*
Y277909D01*
X277500Y277482D02*
Y275482D01*
Y276482D01*
X278833D01*
Y277482D01*
Y275482D01*
X283500Y277088D02*
Y275088D01*
Y276088D01*
X284833D01*
Y277088D01*
Y275088D01*
X289000Y277088D02*
Y275088D01*
Y276088D01*
X290333D01*
Y277088D01*
Y275088D01*
X294500Y277088D02*
Y275088D01*
Y276088D01*
X295833D01*
Y277088D01*
Y275088D01*
X105390Y394499D02*
Y392500D01*
Y393500D01*
X106722D01*
Y394499D01*
Y392500D01*
X180354Y399944D02*
Y397945D01*
Y398945D01*
X181687D01*
Y399944D01*
Y397945D01*
X221250Y402178D02*
Y400179D01*
Y401178D01*
X222583D01*
Y402178D01*
Y400179D01*
X224750Y402178D02*
Y400179D01*
Y401178D01*
X226083D01*
Y402178D01*
Y400179D01*
X228250Y402178D02*
Y400179D01*
Y401178D01*
X229583D01*
Y402178D01*
Y400179D01*
X231750Y402178D02*
Y400179D01*
Y401178D01*
X233083D01*
Y402178D01*
Y400179D01*
X676598Y628850D02*
Y626850D01*
Y627850D01*
X677931D01*
Y628850D01*
Y626850D01*
X676598Y633023D02*
Y631024D01*
Y632023D01*
X677931D01*
Y633023D01*
Y631024D01*
X689134Y633023D02*
Y631024D01*
Y632023D01*
X690466D01*
Y633023D01*
Y631024D01*
X689134Y628850D02*
Y626850D01*
Y627850D01*
X690467D01*
Y628850D01*
Y626850D01*
X1005887Y654999D02*
Y653000D01*
Y654000D01*
X1007220D01*
Y654999D01*
Y653000D01*
X1012690Y662999D02*
Y661000D01*
Y662000D01*
X1014023D01*
Y662999D01*
Y661000D01*
X1009000Y670499D02*
Y668500D01*
Y669500D01*
X1010333D01*
Y670499D01*
Y668500D01*
X873577Y584476D02*
Y582477D01*
Y583476D01*
X874910D01*
Y584476D01*
Y582477D01*
X868870Y584476D02*
Y582477D01*
Y583476D01*
X870203D01*
Y584476D01*
Y582477D01*
X769662Y594066D02*
Y592067D01*
Y593067D01*
X770995D01*
Y594066D01*
Y592067D01*
X845661Y594519D02*
Y592520D01*
Y593519D01*
X846994D01*
Y594519D01*
Y592520D01*
X837956Y604519D02*
Y602520D01*
Y603519D01*
X839289D01*
Y604519D01*
Y602520D01*
X834156Y607846D02*
Y605846D01*
Y606846D01*
X835489D01*
Y607846D01*
Y605846D01*
X777083Y697499D02*
Y695500D01*
Y696500D01*
X778416D01*
Y697499D01*
Y695500D01*
X777083Y703499D02*
Y701500D01*
Y702500D01*
X778416D01*
Y703499D01*
Y701500D01*
X802327Y682649D02*
Y680650D01*
Y681649D01*
X803660D01*
Y682649D01*
Y680650D01*
X889500Y668507D02*
Y666507D01*
Y667507D01*
X890833D01*
Y668507D01*
Y666507D01*
X890234Y596921D02*
Y594922D01*
Y595921D01*
X891567D01*
Y596921D01*
Y594922D01*
X893980Y604534D02*
Y602535D01*
Y603535D01*
X895313D01*
Y604534D01*
Y602535D01*
X900023Y607625D02*
Y605626D01*
Y606626D01*
X901356D01*
Y607625D01*
Y605626D01*
X902633Y610389D02*
Y608390D01*
Y609389D01*
X903966D01*
Y610389D01*
Y608390D01*
X902668Y615894D02*
Y613895D01*
Y614894D01*
X904001D01*
Y615894D01*
Y613895D01*
X899947Y617972D02*
Y615972D01*
Y616972D01*
X901280D01*
Y617972D01*
Y615972D01*
X892958Y623038D02*
Y621039D01*
Y622039D01*
X894291D01*
Y623038D01*
Y621039D01*
X887484Y623158D02*
Y621159D01*
Y622158D01*
X888817D01*
Y623158D01*
Y621159D01*
X871811Y611016D02*
Y609017D01*
Y610016D01*
X873144D01*
Y611016D01*
Y609017D01*
X874563Y614952D02*
Y612953D01*
Y613952D01*
X875896D01*
Y614952D01*
Y612953D01*
X691127Y653043D02*
Y651043D01*
Y652043D01*
X692460D01*
Y653043D01*
Y651043D01*
X160276Y490306D02*
Y488307D01*
Y489307D01*
X161609D01*
Y490306D01*
Y488307D01*
X434234Y414196D02*
Y412196D01*
Y413196D01*
X435567D01*
Y414196D01*
Y412196D01*
X434450Y430217D02*
Y428218D01*
Y429218D01*
X435783D01*
Y430217D01*
Y428218D01*
X434450Y420717D02*
Y418718D01*
Y419718D01*
X435783D01*
Y420717D01*
Y418718D01*
X439670Y409467D02*
Y407468D01*
Y408468D01*
X441003D01*
Y409467D01*
Y407468D01*
X199528Y296106D02*
Y294106D01*
Y295106D01*
X200861D01*
Y296106D01*
Y294106D01*
X344000Y176613D02*
Y174614D01*
Y175614D01*
X345333D01*
Y176613D01*
Y174614D01*
X258236Y406929D02*
Y404930D01*
Y405929D01*
X259569D01*
Y406929D01*
Y404930D01*
X240250Y406929D02*
Y404930D01*
Y405929D01*
X241583D01*
Y406929D01*
Y404930D01*
X207927Y380749D02*
Y378750D01*
Y379750D01*
X209260D01*
Y380749D01*
Y378750D01*
X578909Y598259D02*
Y596260D01*
Y597260D01*
X580242D01*
Y598259D01*
Y596260D01*
X207927Y376249D02*
Y374250D01*
Y375250D01*
X209260D01*
Y376249D01*
Y374250D01*
X275307Y384999D02*
Y383000D01*
Y384000D01*
X276640D01*
Y384999D01*
Y383000D01*
X278099Y378249D02*
Y376250D01*
Y377250D01*
X279432D01*
Y378249D01*
Y376250D01*
X275307Y380499D02*
Y378500D01*
Y379500D01*
X276640D01*
Y380499D01*
Y378500D01*
X278099Y373749D02*
Y371750D01*
Y372750D01*
X279432D01*
Y373749D01*
Y371750D01*
X600536Y552338D02*
Y550339D01*
Y551339D01*
X601868D01*
Y552338D01*
Y550339D01*
X600536Y547247D02*
Y545248D01*
Y546248D01*
X601868D01*
Y547247D01*
Y545248D01*
X609154Y540995D02*
Y538996D01*
Y539996D01*
X610486D01*
Y540995D01*
Y538996D01*
X600535Y540995D02*
Y538996D01*
Y539996D01*
X601868D01*
Y540995D01*
Y538996D01*
X720616Y596588D02*
Y594589D01*
Y595588D01*
X721949D01*
Y596588D01*
Y594589D01*
X890004Y564179D02*
Y562180D01*
Y563180D01*
X891337D01*
Y564179D01*
Y562180D01*
X884246Y563338D02*
Y561339D01*
Y562339D01*
X885579D01*
Y563338D01*
Y561339D01*
X877547Y563338D02*
Y561339D01*
Y562339D01*
X878880D01*
Y563338D01*
Y561339D01*
X101185Y672397D02*
Y670397D01*
Y671397D01*
X102518D01*
Y672397D01*
Y670397D01*
X96017Y682739D02*
Y680740D01*
Y681740D01*
X97350D01*
Y682739D01*
Y680740D01*
X658441Y619882D02*
Y617882D01*
Y618882D01*
X659774D01*
Y619882D01*
Y617882D01*
X662369Y619882D02*
Y617882D01*
Y618882D01*
X663702D01*
Y619882D01*
Y617882D01*
X509276Y649330D02*
Y647331D01*
Y648330D01*
X510608D01*
Y649330D01*
Y647331D01*
X502189Y649330D02*
Y647331D01*
Y648330D01*
X503522D01*
Y649330D01*
Y647331D01*
X516362Y649330D02*
Y647331D01*
Y648330D01*
X517695D01*
Y649330D01*
Y647331D01*
X116423Y675259D02*
Y673260D01*
Y674260D01*
X117756D01*
Y675259D01*
Y673260D01*
X111815Y685487D02*
Y683488D01*
Y684488D01*
X113148D01*
Y685487D01*
Y683488D01*
X665377Y617421D02*
Y615422D01*
Y616421D01*
X666709D01*
Y617421D01*
Y615422D01*
X669412Y617421D02*
Y615422D01*
Y616421D01*
X670745D01*
Y617421D01*
Y615422D01*
X457261Y643499D02*
Y641500D01*
Y642500D01*
X458594D01*
Y643499D01*
Y641500D01*
X159697Y606198D02*
Y604198D01*
Y605198D01*
X161030D01*
Y606198D01*
Y604198D01*
X128017Y682739D02*
Y680740D01*
Y681740D01*
X129350D01*
Y682739D01*
Y680740D01*
X133185Y672397D02*
Y670397D01*
Y671397D01*
X134518D01*
Y672397D01*
Y670397D01*
X670199Y621653D02*
Y619654D01*
Y620654D01*
X671532D01*
Y621653D01*
Y619654D01*
X674234Y621653D02*
Y619654D01*
Y620654D01*
X675567D01*
Y621653D01*
Y619654D01*
X656519Y632992D02*
Y630993D01*
Y631992D01*
X657852D01*
Y632992D01*
Y630993D01*
X652484Y632992D02*
Y630993D01*
Y631992D01*
X653817D01*
Y632992D01*
Y630993D01*
X482655Y643499D02*
Y641500D01*
Y642500D01*
X483988D01*
Y643499D01*
Y641500D01*
X547043Y637067D02*
Y635068D01*
Y636068D01*
X548376D01*
Y637067D01*
Y635068D01*
X148423Y675259D02*
Y673260D01*
Y674260D01*
X149756D01*
Y675259D01*
Y673260D01*
X633616Y636614D02*
Y634615D01*
Y635614D01*
X634949D01*
Y636614D01*
Y634615D01*
X143815Y685487D02*
Y683488D01*
Y684488D01*
X145148D01*
Y685487D01*
Y683488D01*
X639184Y648785D02*
Y646785D01*
Y647785D01*
X640516D01*
Y648785D01*
Y646785D01*
X632099Y649331D02*
Y647331D01*
Y648331D01*
X633432D01*
Y649331D01*
Y647331D01*
X633664Y659519D02*
Y657520D01*
Y658519D01*
X634997D01*
Y659519D01*
Y657520D01*
X165185Y672397D02*
Y670397D01*
Y671397D01*
X166518D01*
Y672397D01*
Y670397D01*
X160017Y682739D02*
Y680740D01*
Y681740D01*
X161350D01*
Y682739D01*
Y680740D01*
X645427Y636614D02*
Y634615D01*
Y635614D01*
X646759D01*
Y636614D01*
Y634615D01*
X639161Y664095D02*
Y662096D01*
Y663095D01*
X640494D01*
Y664095D01*
Y662096D01*
X649462Y636614D02*
Y634615D01*
Y635614D01*
X650795D01*
Y636614D01*
Y634615D01*
X644709Y632992D02*
Y630993D01*
Y631992D01*
X646042D01*
Y632992D01*
Y630993D01*
X640674Y632992D02*
Y630993D01*
Y631992D01*
X642007D01*
Y632992D01*
Y630993D01*
X228793Y615668D02*
Y613668D01*
Y614668D01*
X230126D01*
Y615668D01*
Y613668D01*
X191200Y609999D02*
Y608000D01*
Y609000D01*
X192533D01*
Y609999D01*
Y608000D01*
X198000Y610459D02*
Y608460D01*
Y609460D01*
X199333D01*
Y610459D01*
Y608460D01*
X180423Y675259D02*
Y673260D01*
Y674260D01*
X181756D01*
Y675259D01*
Y673260D01*
X175815Y685487D02*
Y683488D01*
Y684488D01*
X177148D01*
Y685487D01*
Y683488D01*
X651246Y649331D02*
Y647331D01*
Y648331D01*
X652579D01*
Y649331D01*
Y647331D01*
X197185Y672397D02*
Y670397D01*
Y671397D01*
X198518D01*
Y672397D01*
Y670397D01*
X192017Y682739D02*
Y680740D01*
Y681740D01*
X193350D01*
Y682739D01*
Y680740D01*
X657236Y636614D02*
Y634615D01*
Y635614D01*
X658569D01*
Y636614D01*
Y634615D01*
X212423Y675259D02*
Y673260D01*
Y674260D01*
X213756D01*
Y675259D01*
Y673260D01*
X661272Y636614D02*
Y634615D01*
Y635614D01*
X662605D01*
Y636614D01*
Y634615D01*
X207815Y685487D02*
Y683488D01*
Y684488D01*
X209148D01*
Y685487D01*
Y683488D01*
X662807Y648787D02*
Y646788D01*
Y647788D01*
X664139D01*
Y648787D01*
Y646788D01*
X662783Y662633D02*
Y660634D01*
Y661633D01*
X664116D01*
Y662633D01*
Y660634D01*
X672998Y652182D02*
Y650182D01*
Y651182D01*
X674331D01*
Y652182D01*
Y650182D01*
X229185Y672397D02*
Y670397D01*
Y671397D01*
X230518D01*
Y672397D01*
Y670397D01*
X669070Y652182D02*
Y650182D01*
Y651182D01*
X670403D01*
Y652182D01*
Y650182D01*
X224017Y682739D02*
Y680740D01*
Y681740D01*
X225350D01*
Y682739D01*
Y680740D01*
X666515Y658247D02*
Y656248D01*
Y657248D01*
X667848D01*
Y658247D01*
Y656248D01*
X676104Y653953D02*
Y651954D01*
Y652954D01*
X677437D01*
Y653953D01*
Y651954D01*
X680139Y653953D02*
Y651954D01*
Y652954D01*
X681472D01*
Y653953D01*
Y651954D01*
X225500Y658099D02*
Y656100D01*
Y657100D01*
X226833D01*
Y658099D01*
Y656100D01*
X235818Y678999D02*
Y677000D01*
Y678000D01*
X237151D01*
Y678999D01*
Y677000D01*
X244423Y675259D02*
Y673260D01*
Y674260D01*
X245756D01*
Y675259D01*
Y673260D01*
X239815Y685487D02*
Y683488D01*
Y684488D01*
X241148D01*
Y685487D01*
Y683488D01*
X580699Y617016D02*
Y615016D01*
Y616016D01*
X582032D01*
Y617016D01*
Y615016D01*
X575975Y617016D02*
Y615016D01*
Y616016D01*
X577308D01*
Y617016D01*
Y615016D01*
X569507Y616991D02*
Y614991D01*
Y615991D01*
X570840D01*
Y616991D01*
Y614991D01*
X581272Y601409D02*
Y599409D01*
Y600409D01*
X582605D01*
Y601409D01*
Y599409D01*
X583634Y598259D02*
Y596260D01*
Y597260D01*
X584967D01*
Y598259D01*
Y596260D01*
X586016Y601409D02*
Y599409D01*
Y600409D01*
X587349D01*
Y601409D01*
Y599409D01*
X588401Y616583D02*
Y614584D01*
Y615584D01*
X589734D01*
Y616583D01*
Y614584D01*
X590740Y598228D02*
Y596229D01*
Y597228D01*
X592072D01*
Y598228D01*
Y596229D01*
X593102Y601378D02*
Y599378D01*
Y600378D01*
X594435D01*
Y601378D01*
Y599378D01*
X595464Y598544D02*
Y596545D01*
Y597544D01*
X596797D01*
Y598544D01*
Y596545D01*
X597826Y601378D02*
Y599378D01*
Y600378D01*
X599159D01*
Y601378D01*
Y599378D01*
X602551Y598228D02*
Y596229D01*
Y597228D01*
X603884D01*
Y598228D01*
Y596229D01*
X604913Y601378D02*
Y599378D01*
Y600378D01*
X606246D01*
Y601378D01*
Y599378D01*
X607275Y598228D02*
Y596229D01*
Y597228D01*
X608608D01*
Y598228D01*
Y596229D01*
X609637Y601378D02*
Y599378D01*
Y600378D01*
X610970D01*
Y601378D01*
Y599378D01*
X612000Y616674D02*
Y614674D01*
Y615674D01*
X613333D01*
Y616674D01*
Y614674D01*
X675500Y593195D02*
Y591195D01*
Y592195D01*
X676833D01*
Y593195D01*
Y591195D01*
X682881Y604539D02*
Y602540D01*
Y603540D01*
X684214D01*
Y604539D01*
Y602540D01*
X680496Y601453D02*
Y599454D01*
Y600454D01*
X681829D01*
Y601453D01*
Y599454D01*
X685220Y601444D02*
Y599445D01*
Y600445D01*
X686553D01*
Y601444D01*
Y599445D01*
X689968Y604539D02*
Y602540D01*
Y603540D01*
X691301D01*
Y604539D01*
Y602540D01*
X692307Y601444D02*
Y599445D01*
Y600445D01*
X693640D01*
Y601444D01*
Y599445D01*
X694692Y604539D02*
Y602540D01*
Y603540D01*
X696025D01*
Y604539D01*
Y602540D01*
X697031Y601472D02*
Y599472D01*
Y600472D01*
X698364D01*
Y601472D01*
Y599472D01*
X699417Y604539D02*
Y602540D01*
Y603540D01*
X700750D01*
Y604539D01*
Y602540D01*
X711205Y616803D02*
Y614804D01*
Y615803D01*
X712538D01*
Y616803D01*
Y614804D01*
X637652Y636614D02*
Y634615D01*
Y635614D01*
X638985D01*
Y636614D01*
Y634615D01*
X446514Y601747D02*
Y599748D01*
Y600748D01*
X447847D01*
Y601747D01*
Y599748D01*
X400358Y608755D02*
Y606756D01*
Y607756D01*
X401691D01*
Y608755D01*
Y606756D01*
X379947Y605968D02*
Y603968D01*
Y604968D01*
X381280D01*
Y605968D01*
Y603968D01*
X383750Y599296D02*
Y597296D01*
Y598296D01*
X385083D01*
Y599296D01*
Y597296D01*
X446514Y595247D02*
Y593248D01*
Y594248D01*
X447847D01*
Y595247D01*
Y593248D01*
X438486Y595251D02*
Y593252D01*
Y594252D01*
X439819D01*
Y595251D01*
Y593252D01*
X442500Y612823D02*
Y610824D01*
Y611824D01*
X443833D01*
Y612823D01*
Y610824D01*
X451834Y588499D02*
Y586500D01*
Y587500D01*
X453167D01*
Y588499D01*
Y586500D01*
X451834Y608499D02*
Y606500D01*
Y607500D01*
X453167D01*
Y608499D01*
Y606500D01*
X834445Y721999D02*
Y720000D01*
Y721000D01*
X835778D01*
Y721999D01*
Y720000D01*
X247480Y607468D02*
Y605469D01*
Y606468D01*
X248813D01*
Y607468D01*
Y605469D01*
X675796Y616533D02*
Y614534D01*
Y615533D01*
X677129D01*
Y616533D01*
Y614534D01*
X624992Y662633D02*
Y660634D01*
Y661633D01*
X626325D01*
Y662633D01*
Y660634D01*
X628724Y658247D02*
Y656248D01*
Y657248D01*
X630057D01*
Y658247D01*
Y656248D01*
X625015Y648787D02*
Y646788D01*
Y647788D01*
X626348D01*
Y648787D01*
Y646788D01*
X610819Y662633D02*
Y660634D01*
Y661633D01*
X612152D01*
Y662633D01*
Y660634D01*
X610842Y648787D02*
Y646788D01*
Y647788D01*
X612175D01*
Y648787D01*
Y646788D01*
X614551Y658247D02*
Y656248D01*
Y657248D01*
X615884D01*
Y658247D01*
Y656248D01*
X433500Y643500D02*
Y641501D01*
Y642500D01*
X434833D01*
Y643500D01*
Y641501D01*
X530532Y649330D02*
Y647331D01*
Y648330D01*
X531864D01*
Y649330D01*
Y647331D01*
X532871Y652003D02*
Y650004D01*
Y651004D01*
X534204D01*
Y652003D01*
Y650004D01*
X698235Y649331D02*
Y647331D01*
Y648331D01*
X699568D01*
Y649331D01*
Y647331D01*
X674615Y649331D02*
Y647331D01*
Y648331D01*
X675948D01*
Y649331D01*
Y647331D01*
X617927Y649331D02*
Y647331D01*
Y648331D01*
X619260D01*
Y649331D01*
Y647331D01*
X599031Y649331D02*
Y647331D01*
Y648331D01*
X600364D01*
Y649331D01*
Y647331D01*
X575411Y649331D02*
Y647331D01*
Y648331D01*
X576744D01*
Y649331D01*
Y647331D01*
X220878Y675267D02*
Y673268D01*
Y674267D01*
X222211D01*
Y675267D01*
Y673268D01*
X220878Y678732D02*
Y676732D01*
Y677732D01*
X222211D01*
Y678732D01*
Y676732D01*
X188878Y675267D02*
Y673268D01*
Y674267D01*
X190211D01*
Y675267D01*
Y673268D01*
X188878Y678732D02*
Y676732D01*
Y677732D01*
X190211D01*
Y678732D01*
Y676732D01*
X203818Y678999D02*
Y677000D01*
Y678000D01*
X205151D01*
Y678999D01*
Y677000D01*
X156878Y675267D02*
Y673268D01*
Y674267D01*
X158211D01*
Y675267D01*
Y673268D01*
X156878Y678732D02*
Y676732D01*
Y677732D01*
X158211D01*
Y678732D01*
Y676732D01*
X171818Y678999D02*
Y677000D01*
Y678000D01*
X173151D01*
Y678999D01*
Y677000D01*
X124878Y675267D02*
Y673268D01*
Y674267D01*
X126211D01*
Y675267D01*
Y673268D01*
X124878Y678732D02*
Y676732D01*
Y677732D01*
X126211D01*
Y678732D01*
Y676732D01*
X139818Y678999D02*
Y677000D01*
Y678000D01*
X141151D01*
Y678999D01*
Y677000D01*
X107818Y678999D02*
Y677000D01*
Y678000D01*
X109151D01*
Y678999D01*
Y677000D01*
X92878Y678732D02*
Y676732D01*
Y677732D01*
X94211D01*
Y678732D01*
Y676732D01*
X92878Y675267D02*
Y673268D01*
Y674267D01*
X94211D01*
Y675267D01*
Y673268D01*
X1158607Y326606D02*
Y324606D01*
Y325606D01*
X1159940D01*
Y326606D01*
Y324606D01*
X1158607Y310070D02*
Y308071D01*
Y309071D01*
X1159940D01*
Y310070D01*
Y308071D01*
X1158607Y293535D02*
Y291535D01*
Y292535D01*
X1159940D01*
Y293535D01*
Y291535D01*
X1158607Y276999D02*
Y275000D01*
Y276000D01*
X1159940D01*
Y276999D01*
Y275000D01*
X413379Y462999D02*
Y461000D01*
Y462000D01*
X414712D01*
Y462999D01*
Y461000D01*
X864332Y507098D02*
Y505099D01*
Y506099D01*
X865664D01*
Y507098D01*
Y505099D01*
X258776Y363121D02*
Y361121D01*
Y362121D01*
X260109D01*
Y363121D01*
Y361121D01*
X283300Y350153D02*
Y348153D01*
Y349153D01*
X284633D01*
Y350153D01*
Y348153D01*
X224209Y363820D02*
Y361820D01*
Y362820D01*
X225542D01*
Y363820D01*
Y361820D01*
X234866Y363889D02*
Y361890D01*
Y362889D01*
X236199D01*
Y363889D01*
Y361890D01*
X222860Y360464D02*
Y358465D01*
Y359464D01*
X224193D01*
Y360464D01*
Y358465D01*
X226024Y357679D02*
Y355680D01*
Y356679D01*
X227357D01*
Y357679D01*
Y355680D01*
X229488Y357679D02*
Y355680D01*
Y356679D01*
X230821D01*
Y357679D01*
Y355680D01*
X233782Y371423D02*
Y369424D01*
Y370423D01*
X235115D01*
Y371423D01*
Y369424D01*
X229524Y367818D02*
Y365819D01*
Y366819D01*
X230856D01*
Y367818D01*
Y365819D01*
X678465Y376307D02*
Y374307D01*
Y375307D01*
X679798D01*
Y376307D01*
Y374307D01*
X950833Y524575D02*
Y522576D01*
Y523575D01*
X952166D01*
Y524575D01*
Y522576D01*
X940843Y512953D02*
Y510953D01*
Y511953D01*
X942176D01*
Y512953D01*
Y510953D01*
X971980Y597338D02*
Y595339D01*
Y596338D01*
X973313D01*
Y597338D01*
Y595339D01*
X967996Y597289D02*
Y595289D01*
Y596289D01*
X969329D01*
Y597289D01*
Y595289D01*
X938976Y596291D02*
Y594291D01*
Y595291D01*
X940309D01*
Y596291D01*
Y594291D01*
X943866Y596291D02*
Y594291D01*
Y595291D01*
X945199D01*
Y596291D01*
Y594291D01*
X936417Y517139D02*
Y515139D01*
Y516139D01*
X937750D01*
Y517139D01*
Y515139D01*
X940433Y520721D02*
Y518722D01*
Y519722D01*
X941766D01*
Y520721D01*
Y518722D01*
X1090000Y54023D02*
Y52024D01*
Y53023D01*
X1091333D01*
Y54023D01*
Y52024D01*
X684539Y637076D02*
Y635077D01*
Y636076D01*
X685872D01*
Y637076D01*
Y635077D01*
X681193Y637076D02*
Y635077D01*
Y636076D01*
X682526D01*
Y637076D01*
Y635077D01*
X974917Y604086D02*
Y602087D01*
Y603086D01*
X976250D01*
Y604086D01*
Y602087D01*
X982404Y608023D02*
Y606024D01*
Y607023D01*
X983737D01*
Y608023D01*
Y606024D01*
X977404Y612070D02*
Y610071D01*
Y611071D01*
X978737D01*
Y612070D01*
Y610071D01*
X947819Y597827D02*
Y595827D01*
Y596827D01*
X949152D01*
Y597827D01*
Y595827D01*
X945260Y606706D02*
Y604707D01*
Y605707D01*
X946593D01*
Y606706D01*
Y604707D01*
X939118Y623174D02*
Y621175D01*
Y622175D01*
X940451D01*
Y623174D01*
Y621175D01*
X935863Y619570D02*
Y617571D01*
Y618571D01*
X937196D01*
Y619570D01*
Y617571D01*
X956835Y619570D02*
Y617571D01*
Y618571D01*
X958167D01*
Y619570D01*
Y617571D01*
X1183799Y432747D02*
Y430748D01*
Y431748D01*
X1185132D01*
Y432747D01*
Y430748D01*
X1183799Y435897D02*
Y433898D01*
Y434897D01*
X1185132D01*
Y435897D01*
Y433898D01*
X1142712Y434323D02*
Y432324D01*
Y433323D01*
X1144044D01*
Y434323D01*
Y432324D01*
X515787Y514747D02*
Y512748D01*
Y513748D01*
X517120D01*
Y514747D01*
Y512748D01*
X351500Y281187D02*
Y279187D01*
Y280187D01*
X352833D01*
Y281187D01*
Y279187D01*
X713187Y166755D02*
Y164756D01*
Y165755D01*
X714520D01*
Y166755D01*
Y164756D01*
X1103202Y130118D02*
Y128118D01*
Y129118D01*
X1104535D01*
Y130118D01*
Y128118D01*
X1080000Y193712D02*
Y191712D01*
Y192712D01*
X1081333D01*
Y193712D01*
Y191712D01*
X971775Y233478D02*
Y231479D01*
Y232479D01*
X973108D01*
Y233478D01*
Y231479D01*
X971775Y237415D02*
Y235416D01*
Y236416D01*
X973108D01*
Y237415D01*
Y235416D01*
X989500Y198657D02*
Y196657D01*
Y197657D01*
X990833D01*
Y198657D01*
Y196657D01*
X974500Y198657D02*
Y196657D01*
Y197657D01*
X975833D01*
Y198657D01*
Y196657D01*
X966717Y193413D02*
Y191413D01*
Y192413D01*
X968050D01*
Y193413D01*
Y191413D01*
X984000Y173199D02*
Y171200D01*
Y172200D01*
X985333D01*
Y173199D01*
Y171200D01*
X994098Y503417D02*
Y501417D01*
Y502417D01*
X995431D01*
Y503417D01*
Y501417D01*
X951614Y349440D02*
Y347441D01*
Y348441D01*
X952947D01*
Y349440D01*
Y347441D01*
X1108500Y635653D02*
Y633653D01*
Y634653D01*
X1109833D01*
Y635653D01*
Y633653D01*
X738916Y603792D02*
Y601793D01*
Y602793D01*
X740249D01*
Y603792D01*
Y601793D01*
X742541Y603792D02*
Y601793D01*
Y602793D01*
X743874D01*
Y603792D01*
Y601793D01*
X1101750Y587335D02*
X1101084D01*
X1101417D01*
Y585669D01*
X1101084Y585336D01*
X1100750D01*
X1100417Y585669D01*
X1092877Y587335D02*
X1092210D01*
X1092544D01*
Y585669D01*
X1092210Y585336D01*
X1091877D01*
X1091544Y585669D01*
X1075385Y587335D02*
X1074719D01*
X1075052D01*
Y585669D01*
X1074719Y585336D01*
X1074386D01*
X1074053Y585669D01*
X1104112Y588968D02*
X1103446D01*
X1103779D01*
Y587302D01*
X1103446Y586969D01*
X1103113D01*
X1102779Y587302D01*
X1104112Y593279D02*
X1103446D01*
X1103779D01*
Y591613D01*
X1103446Y591279D01*
X1103113D01*
X1102779Y591613D01*
X729468Y599015D02*
Y597016D01*
Y598015D01*
X730801D01*
Y599015D01*
Y597016D01*
X733093Y599015D02*
Y597016D01*
Y598015D01*
X734426D01*
Y599015D01*
Y597016D01*
X901801Y581999D02*
Y580000D01*
Y581000D01*
X903134D01*
Y581999D01*
Y580000D01*
X722382Y600984D02*
Y598984D01*
Y599984D01*
X723715D01*
Y600984D01*
Y598984D01*
X726007Y600984D02*
Y598984D01*
Y599984D01*
X727340D01*
Y600984D01*
Y598984D01*
X1101750Y569897D02*
X1101084D01*
X1101417D01*
Y568230D01*
X1101084Y567897D01*
X1100750D01*
X1100417Y568230D01*
X1092877Y573163D02*
X1092210D01*
X1092544D01*
Y571497D01*
X1092210Y571163D01*
X1091877D01*
X1091544Y571497D01*
X1075385Y573163D02*
X1074719D01*
X1075052D01*
Y571497D01*
X1074719Y571163D01*
X1074386D01*
X1074053Y571497D01*
X1104112Y571530D02*
X1103446D01*
X1103779D01*
Y569864D01*
X1103446Y569530D01*
X1103113D01*
X1102779Y569864D01*
X1104112Y576030D02*
X1103446D01*
X1103779D01*
Y574364D01*
X1103446Y574030D01*
X1103113D01*
X1102779Y574364D01*
X718325Y598956D02*
Y596957D01*
Y597956D01*
X719658D01*
Y598956D01*
Y596957D01*
X712934Y603806D02*
Y601807D01*
Y602807D01*
X714267D01*
Y603806D01*
Y601807D01*
X716559Y603806D02*
Y601807D01*
Y602807D01*
X717892D01*
Y603806D01*
Y601807D01*
X727736Y604826D02*
Y602827D01*
Y603827D01*
X729069D01*
Y604826D01*
Y602827D01*
X745460Y601332D02*
Y599333D01*
Y600333D01*
X746793D01*
Y601332D01*
Y599333D01*
X1101750Y565885D02*
X1101084D01*
X1101417D01*
Y564219D01*
X1101084Y563886D01*
X1100750D01*
X1100417Y564219D01*
X497936Y475853D02*
Y473853D01*
Y474853D01*
X499269D01*
Y475853D01*
Y473853D01*
X458858Y460251D02*
Y458252D01*
Y459252D01*
X460191D01*
Y460251D01*
Y458252D01*
X434234Y436739D02*
Y434739D01*
Y435739D01*
X435567D01*
Y436739D01*
Y434739D01*
X448323Y467251D02*
Y465252D01*
Y466252D01*
X449656D01*
Y467251D01*
Y465252D01*
X498260Y433399D02*
Y431400D01*
Y432400D01*
X499593D01*
Y433399D01*
Y431400D01*
X971793Y48417D02*
Y46417D01*
Y47417D01*
X973126D01*
Y48417D01*
Y46417D01*
X386102Y62708D02*
Y60709D01*
Y61708D01*
X387435D01*
Y62708D01*
Y60709D01*
X530300Y93999D02*
Y92000D01*
Y93000D01*
X531633D01*
Y93999D01*
Y92000D01*
X522100Y90699D02*
Y88700D01*
Y89700D01*
X523433D01*
Y90699D01*
Y88700D01*
X519500Y54999D02*
Y53000D01*
Y54000D01*
X520833D01*
Y54999D01*
Y53000D01*
X511102Y62708D02*
Y60709D01*
Y61708D01*
X512435D01*
Y62708D01*
Y60709D01*
X821413Y77047D02*
Y75047D01*
Y76047D01*
X822746D01*
Y77047D01*
Y75047D01*
X826878Y62797D02*
Y60797D01*
Y61797D01*
X828211D01*
Y62797D01*
Y60797D01*
X815000Y91299D02*
Y89299D01*
Y90299D01*
X816333D01*
Y91299D01*
Y89299D01*
X821413Y88047D02*
Y86047D01*
Y87047D01*
X822746D01*
Y88047D01*
Y86047D01*
X826878Y69318D02*
Y67319D01*
Y68319D01*
X828211D01*
Y69318D01*
Y67319D01*
X826878Y53297D02*
Y51297D01*
Y52297D01*
X828211D01*
Y53297D01*
Y51297D01*
X826878Y46775D02*
Y44776D01*
Y45775D01*
X828211D01*
Y46775D01*
Y44776D01*
X690378Y69318D02*
Y67319D01*
Y68319D01*
X691711D01*
Y69318D01*
Y67319D01*
X690378Y62797D02*
Y60797D01*
Y61797D01*
X691711D01*
Y62797D01*
Y60797D01*
X684913Y77047D02*
Y75047D01*
Y76047D01*
X686246D01*
Y77047D01*
Y75047D01*
X665413Y77047D02*
Y75047D01*
Y76047D01*
X666746D01*
Y77047D01*
Y75047D01*
X670878Y62797D02*
Y60797D01*
Y61797D01*
X672211D01*
Y62797D01*
Y60797D01*
X670878Y69318D02*
Y67319D01*
Y68319D01*
X672211D01*
Y69318D01*
Y67319D01*
X748878Y62797D02*
Y60797D01*
Y61797D01*
X750211D01*
Y62797D01*
Y60797D01*
X709878Y62797D02*
Y60797D01*
Y61797D01*
X711211D01*
Y62797D01*
Y60797D01*
X709878Y69318D02*
Y67319D01*
Y68319D01*
X711211D01*
Y69318D01*
Y67319D01*
X729378Y69318D02*
Y67319D01*
Y68319D01*
X730711D01*
Y69318D01*
Y67319D01*
X729378Y62797D02*
Y60797D01*
Y61797D01*
X730711D01*
Y62797D01*
Y60797D01*
X748878Y69318D02*
Y67319D01*
Y68319D01*
X750211D01*
Y69318D01*
Y67319D01*
X670878Y53297D02*
Y51297D01*
Y52297D01*
X672211D01*
Y53297D01*
Y51297D01*
X729378Y53297D02*
Y51297D01*
Y52297D01*
X730711D01*
Y53297D01*
Y51297D01*
X743413Y77047D02*
Y75047D01*
Y76047D01*
X744746D01*
Y77047D01*
Y75047D01*
X704413Y77047D02*
Y75047D01*
Y76047D01*
X705746D01*
Y77047D01*
Y75047D01*
X723913Y77047D02*
Y75047D01*
Y76047D01*
X725246D01*
Y77047D01*
Y75047D01*
X748878Y53297D02*
Y51297D01*
Y52297D01*
X750211D01*
Y53297D01*
Y51297D01*
X709878Y53297D02*
Y51297D01*
Y52297D01*
X711211D01*
Y53297D01*
Y51297D01*
X690378Y53297D02*
Y51297D01*
Y52297D01*
X691711D01*
Y53297D01*
Y51297D01*
X768378Y69318D02*
Y67319D01*
Y68319D01*
X769711D01*
Y69318D01*
Y67319D01*
X787878Y53297D02*
Y51297D01*
Y52297D01*
X789211D01*
Y53297D01*
Y51297D01*
X787878Y46775D02*
Y44776D01*
Y45775D01*
X789211D01*
Y46775D01*
Y44776D01*
X768378Y62797D02*
Y60797D01*
Y61797D01*
X769711D01*
Y62797D01*
Y60797D01*
X787878Y69318D02*
Y67319D01*
Y68319D01*
X789211D01*
Y69318D01*
Y67319D01*
X787878Y62797D02*
Y60797D01*
Y61797D01*
X789211D01*
Y62797D01*
Y60797D01*
X768378Y53297D02*
Y51297D01*
Y52297D01*
X769711D01*
Y53297D01*
Y51297D01*
X762913Y77047D02*
Y75047D01*
Y76047D01*
X764246D01*
Y77047D01*
Y75047D01*
X807378Y69318D02*
Y67319D01*
Y68319D01*
X808711D01*
Y69318D01*
Y67319D01*
X807378Y62797D02*
Y60797D01*
Y61797D01*
X808711D01*
Y62797D01*
Y60797D01*
X807378Y53297D02*
Y51297D01*
Y52297D01*
X808711D01*
Y53297D01*
Y51297D01*
X801913Y77047D02*
Y75047D01*
Y76047D01*
X803246D01*
Y77047D01*
Y75047D01*
X782413Y77047D02*
Y75047D01*
Y76047D01*
X783746D01*
Y77047D01*
Y75047D01*
X748878Y46775D02*
Y44776D01*
Y45775D01*
X750211D01*
Y46775D01*
Y44776D01*
X768378Y46775D02*
Y44776D01*
Y45775D01*
X769711D01*
Y46775D01*
Y44776D01*
X690378Y46775D02*
Y44776D01*
Y45775D01*
X691711D01*
Y46775D01*
Y44776D01*
X670878Y46775D02*
Y44776D01*
Y45775D01*
X672211D01*
Y46775D01*
Y44776D01*
X709878Y46775D02*
Y44776D01*
Y45775D01*
X711211D01*
Y46775D01*
Y44776D01*
X729378Y46775D02*
Y44776D01*
Y45775D01*
X730711D01*
Y46775D01*
Y44776D01*
X807378Y46775D02*
Y44776D01*
Y45775D01*
X808711D01*
Y46775D01*
Y44776D01*
X723913Y88047D02*
Y86047D01*
Y87047D01*
X725246D01*
Y88047D01*
Y86047D01*
X717500Y91299D02*
Y89299D01*
Y90299D01*
X718833D01*
Y91299D01*
Y89299D01*
X704413Y88047D02*
Y86047D01*
Y87047D01*
X705746D01*
Y88047D01*
Y86047D01*
X743413Y88047D02*
Y86047D01*
Y87047D01*
X744746D01*
Y88047D01*
Y86047D01*
X678500Y91299D02*
Y89299D01*
Y90299D01*
X679833D01*
Y91299D01*
Y89299D01*
X698000Y91299D02*
Y89299D01*
Y90299D01*
X699333D01*
Y91299D01*
Y89299D01*
X659000Y91299D02*
Y89299D01*
Y90299D01*
X660333D01*
Y91299D01*
Y89299D01*
X665413Y88047D02*
Y86047D01*
Y87047D01*
X666746D01*
Y88047D01*
Y86047D01*
X684913Y88047D02*
Y86047D01*
Y87047D01*
X686246D01*
Y88047D01*
Y86047D01*
X782413Y88047D02*
Y86047D01*
Y87047D01*
X783746D01*
Y88047D01*
Y86047D01*
X776000Y91299D02*
Y89299D01*
Y90299D01*
X777333D01*
Y91299D01*
Y89299D01*
X756500Y91299D02*
Y89299D01*
Y90299D01*
X757833D01*
Y91299D01*
Y89299D01*
X737000Y91299D02*
Y89299D01*
Y90299D01*
X738333D01*
Y91299D01*
Y89299D01*
X762913Y88047D02*
Y86047D01*
Y87047D01*
X764246D01*
Y88047D01*
Y86047D01*
X801913Y88047D02*
Y86047D01*
Y87047D01*
X803246D01*
Y88047D01*
Y86047D01*
X795500Y91299D02*
Y89299D01*
Y90299D01*
X796833D01*
Y91299D01*
Y89299D01*
X976727Y73066D02*
Y71067D01*
Y72067D01*
X978060D01*
Y73066D01*
Y71067D01*
X972043Y73066D02*
Y71067D01*
Y72067D01*
X973376D01*
Y73066D01*
Y71067D01*
X995158Y41641D02*
Y39642D01*
Y40641D01*
X996490D01*
Y41641D01*
Y39642D01*
X1014657Y59712D02*
Y57713D01*
Y58712D01*
X1015990D01*
Y59712D01*
Y57713D01*
X1019874Y47413D02*
Y45413D01*
Y46413D01*
X1021207D01*
Y47413D01*
Y45413D01*
X1019874Y59712D02*
Y57713D01*
Y58712D01*
X1021207D01*
Y59712D01*
Y57713D01*
X1019874Y42719D02*
Y40720D01*
Y41719D01*
X1021207D01*
Y42719D01*
Y40720D01*
X1019874Y53869D02*
Y51870D01*
Y52870D01*
X1021207D01*
Y53869D01*
Y51870D01*
X1017688Y34873D02*
Y32873D01*
Y33873D01*
X1019021D01*
Y34873D01*
Y32873D01*
X401500Y513848D02*
Y511849D01*
Y512849D01*
X402833D01*
Y513848D01*
Y511849D01*
X519905Y598228D02*
Y596229D01*
Y597228D01*
X521238D01*
Y598228D01*
Y596229D01*
X415500Y522590D02*
Y520590D01*
Y521590D01*
X416833D01*
Y522590D01*
Y520590D01*
X401500Y506386D02*
Y504387D01*
Y505386D01*
X402833D01*
Y506386D01*
Y504387D01*
X177563Y277858D02*
Y275858D01*
Y276858D01*
X178896D01*
Y277858D01*
Y275858D01*
X313379Y277699D02*
Y275699D01*
Y276699D01*
X314711D01*
Y277699D01*
Y275699D01*
X320599Y277902D02*
Y275903D01*
Y276903D01*
X321932D01*
Y277902D01*
Y275903D01*
X269081Y253504D02*
Y251504D01*
Y252504D01*
X270414D01*
Y253504D01*
Y251504D01*
X281500Y261251D02*
Y259252D01*
Y260252D01*
X282833D01*
Y261251D01*
Y259252D01*
X253740Y406929D02*
Y404930D01*
Y405929D01*
X255073D01*
Y406929D01*
Y404930D01*
X249244Y406929D02*
Y404930D01*
Y405929D01*
X250577D01*
Y406929D01*
Y404930D01*
X244750Y406929D02*
Y404930D01*
Y405929D01*
X246083D01*
Y406929D01*
Y404930D01*
X289731Y256837D02*
Y254838D01*
Y255837D01*
X291064D01*
Y256837D01*
Y254838D01*
X285835Y258930D02*
Y256931D01*
Y257931D01*
X287168D01*
Y258930D01*
Y256931D01*
X289714Y260944D02*
Y258944D01*
Y259944D01*
X291047D01*
Y260944D01*
Y258944D01*
X295074Y262446D02*
Y260447D01*
Y261447D01*
X296407D01*
Y262446D01*
Y260447D01*
X299198Y266003D02*
Y264003D01*
Y265003D01*
X300531D01*
Y266003D01*
Y264003D01*
X422685Y481247D02*
Y479248D01*
Y480248D01*
X424018D01*
Y481247D01*
Y479248D01*
X365000Y264525D02*
Y262526D01*
Y263525D01*
X366333D01*
Y264525D01*
Y262526D01*
X623809Y598228D02*
Y596229D01*
Y597228D01*
X625142D01*
Y598228D01*
Y596229D01*
X374961Y257873D02*
Y255874D01*
Y256874D01*
X376293D01*
Y257873D01*
Y255874D01*
X621448Y601378D02*
Y599378D01*
Y600378D01*
X622781D01*
Y601378D01*
Y599378D01*
X626170Y616752D02*
Y614753D01*
Y615753D01*
X627503D01*
Y616752D01*
Y614753D01*
X628533Y601378D02*
Y599378D01*
Y600378D01*
X629866D01*
Y601378D01*
Y599378D01*
X630895Y598259D02*
Y596260D01*
Y597260D01*
X632228D01*
Y598259D01*
Y596260D01*
X586615Y520292D02*
Y518292D01*
Y519292D01*
X587948D01*
Y520292D01*
Y518292D01*
X585215Y524691D02*
Y522692D01*
Y523692D01*
X586548D01*
Y524691D01*
Y522692D01*
X599908Y523814D02*
Y521815D01*
Y522814D01*
X601241D01*
Y523814D01*
Y521815D01*
X599954Y519788D02*
Y517788D01*
Y518788D01*
X601286D01*
Y519788D01*
Y517788D01*
X604040Y523814D02*
Y521815D01*
Y522814D01*
X605373D01*
Y523814D01*
Y521815D01*
X604039Y519788D02*
Y517788D01*
Y518788D01*
X605372D01*
Y519788D01*
Y517788D01*
X649153Y598866D02*
Y596867D01*
Y597867D01*
X650486D01*
Y598866D01*
Y596867D01*
X554212Y536247D02*
Y534248D01*
Y535248D01*
X555545D01*
Y536247D01*
Y534248D01*
X558500Y540440D02*
Y538441D01*
Y539441D01*
X559833D01*
Y540440D01*
Y538441D01*
X534573Y536247D02*
Y534248D01*
Y535248D01*
X535905D01*
Y536247D01*
Y534248D01*
X530500Y540126D02*
Y538126D01*
Y539126D01*
X531833D01*
Y540126D01*
Y538126D01*
X544500Y525999D02*
Y524000D01*
Y525000D01*
X545833D01*
Y525999D01*
Y524000D01*
X544500Y522259D02*
Y520260D01*
Y521259D01*
X545833D01*
Y522259D01*
Y520260D01*
X544500Y529740D02*
Y527740D01*
Y528740D01*
X545833D01*
Y529740D01*
Y527740D01*
X558500Y511487D02*
Y509488D01*
Y510488D01*
X559833D01*
Y511487D01*
Y509488D01*
X626000Y509661D02*
Y507661D01*
Y508661D01*
X627333D01*
Y509661D01*
Y507661D01*
X630118Y509661D02*
Y507661D01*
Y508661D01*
X631451D01*
Y509661D01*
Y507661D01*
X655016Y552338D02*
Y550339D01*
Y551338D01*
X656349D01*
Y552338D01*
Y550339D01*
X655016Y547247D02*
Y545248D01*
Y546248D01*
X656349D01*
Y547247D01*
Y545248D01*
X666575Y547247D02*
Y545248D01*
Y546248D01*
X667908D01*
Y547247D01*
Y545248D01*
X666575Y552338D02*
Y550339D01*
Y551338D01*
X667908D01*
Y552338D01*
Y550339D01*
X655015Y524707D02*
Y522707D01*
Y523707D01*
X656347D01*
Y524707D01*
Y522707D01*
X655015Y529247D02*
Y527248D01*
Y528248D01*
X656347D01*
Y529247D01*
Y527248D01*
X655015Y533816D02*
Y531817D01*
Y532817D01*
X656347D01*
Y533816D01*
Y531817D01*
X658950Y524707D02*
Y522707D01*
Y523707D01*
X660282D01*
Y524707D01*
Y522707D01*
X658950Y529247D02*
Y527248D01*
Y528248D01*
X660282D01*
Y529247D01*
Y527248D01*
X658950Y533816D02*
Y531817D01*
Y532817D01*
X660282D01*
Y533816D01*
Y531817D01*
X639521Y529247D02*
Y527248D01*
Y528248D01*
X640854D01*
Y529247D01*
Y527248D01*
X620604Y535253D02*
Y533254D01*
Y534254D01*
X621937D01*
Y535253D01*
Y533254D01*
X626000Y530116D02*
Y528116D01*
Y529116D01*
X627333D01*
Y530116D01*
Y528116D01*
X620604Y530116D02*
Y528116D01*
Y529116D01*
X621937D01*
Y530116D01*
Y528116D01*
X615972Y530116D02*
Y528116D01*
Y529116D01*
X617305D01*
Y530116D01*
Y528116D01*
X615971Y535253D02*
Y533254D01*
Y534254D01*
X617303D01*
Y535253D01*
Y533254D01*
X611337Y530116D02*
Y528116D01*
Y529116D01*
X612670D01*
Y530116D01*
Y528116D01*
X611337Y535253D02*
Y533254D01*
Y534254D01*
X612670D01*
Y535253D01*
Y533254D01*
X622244Y540995D02*
Y538996D01*
Y539996D01*
X623577D01*
Y540995D01*
Y538996D01*
X624686Y547247D02*
Y545248D01*
Y546248D01*
X626019D01*
Y547247D01*
Y545248D01*
X608172Y523814D02*
Y521815D01*
Y522814D01*
X609505D01*
Y523814D01*
Y521815D01*
X608172Y519788D02*
Y517788D01*
Y518788D01*
X609505D01*
Y519788D01*
Y517788D01*
X582415Y521291D02*
Y519292D01*
Y520292D01*
X583748D01*
Y521291D01*
Y519292D01*
X580915Y525092D02*
Y523092D01*
Y524092D01*
X582248D01*
Y525092D01*
Y523092D01*
X578690Y528392D02*
Y526392D01*
Y527392D01*
X580023D01*
Y528392D01*
Y526392D01*
X583015Y528392D02*
Y526392D01*
Y527392D01*
X584348D01*
Y528392D01*
Y526392D01*
X518100Y541388D02*
Y539388D01*
Y540388D01*
X519432D01*
Y541388D01*
Y539388D01*
X522126Y537278D02*
Y535279D01*
Y536279D01*
X523459D01*
Y537278D01*
Y535279D01*
X518100Y537278D02*
Y535279D01*
Y536279D01*
X519432D01*
Y537278D01*
Y535279D01*
X522126Y541410D02*
Y539411D01*
Y540411D01*
X523459D01*
Y541410D01*
Y539411D01*
X522126Y545543D02*
Y543543D01*
Y544543D01*
X523459D01*
Y545543D01*
Y543543D01*
X518100Y545497D02*
Y543498D01*
Y544497D01*
X519432D01*
Y545497D01*
Y543498D01*
X453963Y492515D02*
Y490516D01*
Y491515D01*
X455296D01*
Y492515D01*
Y490516D01*
X464643Y498376D02*
Y496376D01*
Y497376D01*
X465976D01*
Y498376D01*
Y496376D01*
X464153Y504326D02*
Y502327D01*
Y503327D01*
X465486D01*
Y504326D01*
Y502327D01*
X449508Y506295D02*
Y504295D01*
Y505295D01*
X450841D01*
Y506295D01*
Y504295D01*
X456651Y508945D02*
Y506946D01*
Y507945D01*
X457984D01*
Y508945D01*
Y506946D01*
X447559Y512039D02*
Y510039D01*
Y511039D01*
X448892D01*
Y512039D01*
Y510039D01*
X543475Y462999D02*
Y461000D01*
Y462000D01*
X544807D01*
Y462999D01*
Y461000D01*
X562450Y462999D02*
Y461000D01*
Y462000D01*
X563782D01*
Y462999D01*
Y461000D01*
X562450Y458459D02*
Y456459D01*
Y457459D01*
X563782D01*
Y458459D01*
Y456459D01*
X558514Y458459D02*
Y456459D01*
Y457459D01*
X559847D01*
Y458459D01*
Y456459D01*
X558514Y462999D02*
Y461000D01*
Y462000D01*
X559847D01*
Y462999D01*
Y461000D01*
X495157Y456574D02*
Y454575D01*
Y455575D01*
X496490D01*
Y456574D01*
Y454575D01*
X495157Y460779D02*
Y458779D01*
Y459779D01*
X496490D01*
Y460779D01*
Y458779D01*
X498898Y456574D02*
Y454575D01*
Y455575D01*
X500231D01*
Y456574D01*
Y454575D01*
X498898Y460779D02*
Y458779D01*
Y459779D01*
X500231D01*
Y460779D01*
Y458779D01*
X511142Y456574D02*
Y454575D01*
Y455575D01*
X512475D01*
Y456574D01*
Y454575D01*
X511142Y460779D02*
Y458779D01*
Y459779D01*
X512475D01*
Y460779D01*
Y458779D01*
X521323Y466732D02*
Y464732D01*
Y465732D01*
X522656D01*
Y466732D01*
Y464732D01*
X521323Y470936D02*
Y468937D01*
Y469937D01*
X522656D01*
Y470936D01*
Y468937D01*
X517520Y466732D02*
Y464732D01*
Y465732D01*
X518853D01*
Y466732D01*
Y464732D01*
X513717Y466732D02*
Y464732D01*
Y465732D01*
X515049D01*
Y466732D01*
Y464732D01*
X517520Y470936D02*
Y468937D01*
Y469937D01*
X518853D01*
Y470936D01*
Y468937D01*
X513717Y470936D02*
Y468937D01*
Y469937D01*
X515049D01*
Y470936D01*
Y468937D01*
X542362Y486290D02*
Y484291D01*
Y485290D01*
X543695D01*
Y486290D01*
Y484291D01*
X545285Y482999D02*
Y481000D01*
Y482000D01*
X546618D01*
Y482999D01*
Y481000D01*
X526209Y475747D02*
Y473748D01*
Y474748D01*
X527542D01*
Y475747D01*
Y473748D01*
X529500Y478671D02*
Y476671D01*
Y477671D01*
X530833D01*
Y478671D01*
Y476671D01*
X529500Y441498D02*
Y439499D01*
Y440498D01*
X530833D01*
Y441498D01*
Y439499D01*
X359655Y504558D02*
Y502559D01*
Y503559D01*
X360988D01*
Y504558D01*
Y502559D01*
X359610Y508585D02*
Y506586D01*
Y507585D01*
X360943D01*
Y508585D01*
Y506586D01*
X363742Y508585D02*
Y506586D01*
Y507585D01*
X365075D01*
Y508585D01*
Y506586D01*
X367874Y504558D02*
Y502559D01*
Y503559D01*
X369207D01*
Y504558D01*
Y502559D01*
X367874Y508585D02*
Y506586D01*
Y507585D01*
X369207D01*
Y508585D01*
Y506586D01*
X363765Y504558D02*
Y502559D01*
Y503559D01*
X365098D01*
Y504558D01*
Y502559D01*
X379500Y520247D02*
Y518248D01*
Y519248D01*
X380833D01*
Y520247D01*
Y518248D01*
X431653Y505999D02*
Y504000D01*
Y505000D01*
X432986D01*
Y505999D01*
Y504000D01*
X440103Y516751D02*
Y514752D01*
Y515752D01*
X441436D01*
Y516751D01*
Y514752D01*
X456285Y516751D02*
Y514752D01*
Y515752D01*
X457618D01*
Y516751D01*
Y514752D01*
X466417Y515208D02*
Y513209D01*
Y514208D01*
X467750D01*
Y515208D01*
Y513209D01*
X393550Y467540D02*
Y465541D01*
Y466540D01*
X394883D01*
Y467540D01*
Y465541D01*
X397485Y467540D02*
Y465541D01*
Y466540D01*
X398818D01*
Y467540D01*
Y465541D01*
X397485Y458430D02*
Y456431D01*
Y457431D01*
X398818D01*
Y458430D01*
Y456431D01*
X393550Y458430D02*
Y456431D01*
Y457431D01*
X394883D01*
Y458430D01*
Y456431D01*
X393550Y462999D02*
Y461000D01*
Y462000D01*
X394883D01*
Y462999D01*
Y461000D01*
X397485Y462999D02*
Y461000D01*
Y462000D01*
X398818D01*
Y462999D01*
Y461000D01*
X410215Y444960D02*
Y442961D01*
Y443960D01*
X411548D01*
Y444960D01*
Y442961D01*
X413187Y441709D02*
Y439710D01*
Y440709D01*
X414520D01*
Y441709D01*
Y439710D01*
X430344Y481247D02*
Y479248D01*
Y480248D01*
X431677D01*
Y481247D01*
Y479248D01*
X445761Y474019D02*
Y472020D01*
Y473019D01*
X447094D01*
Y474019D01*
Y472020D01*
X445761Y469819D02*
Y467820D01*
Y468819D01*
X447094D01*
Y469819D01*
Y467820D01*
X444085Y464334D02*
Y462335D01*
Y463334D01*
X445418D01*
Y464334D01*
Y462335D01*
X434000Y464334D02*
Y462334D01*
Y463334D01*
X435333D01*
Y464334D01*
Y462334D01*
X439043Y464334D02*
Y462335D01*
Y463334D01*
X440376D01*
Y464334D01*
Y462335D01*
X429790Y450801D02*
Y448801D01*
Y449801D01*
X431123D01*
Y450801D01*
Y448801D01*
X426539Y447828D02*
Y445829D01*
Y446828D01*
X427872D01*
Y447828D01*
Y445829D01*
X430917Y454735D02*
Y452735D01*
Y453735D01*
X432250D01*
Y454735D01*
Y452735D01*
X430917Y458451D02*
Y456452D01*
Y457452D01*
X432250D01*
Y458451D01*
Y456452D01*
X449760Y485531D02*
Y483532D01*
Y484531D01*
X451093D01*
Y485531D01*
Y483532D01*
X464882Y485531D02*
Y483532D01*
Y484531D01*
X466215D01*
Y485531D01*
Y483532D01*
X465504Y480777D02*
Y478778D01*
Y479777D01*
X466837D01*
Y480777D01*
Y478778D01*
X483000Y466291D02*
Y464291D01*
Y465291D01*
X484333D01*
Y466291D01*
Y464291D01*
X490000Y466291D02*
Y464291D01*
Y465291D01*
X491333D01*
Y466291D01*
Y464291D01*
X490000Y480188D02*
Y478189D01*
Y479189D01*
X491333D01*
Y480188D01*
Y478189D01*
X505385Y484499D02*
Y482500D01*
Y483500D01*
X506718D01*
Y484499D01*
Y482500D01*
X490949Y484499D02*
Y482500D01*
Y483500D01*
X492282D01*
Y484499D01*
Y482500D01*
X505850Y494499D02*
Y492500D01*
Y493500D01*
X507183D01*
Y494499D01*
Y492500D01*
X509642Y494499D02*
Y492500D01*
Y493500D01*
X510975D01*
Y494499D01*
Y492500D01*
X490949Y494499D02*
Y492500D01*
Y493500D01*
X492282D01*
Y494499D01*
Y492500D01*
X490949Y500499D02*
Y498500D01*
Y499500D01*
X492282D01*
Y500499D01*
Y498500D01*
X650500Y373904D02*
Y371904D01*
Y372904D01*
X651833D01*
Y373904D01*
Y371904D01*
X652855Y308185D02*
Y306185D01*
Y307185D01*
X654188D01*
Y308185D01*
Y306185D01*
X635619Y603387D02*
Y601388D01*
Y602388D01*
X636952D01*
Y603387D01*
Y601388D01*
X639271Y601265D02*
Y599266D01*
Y600266D01*
X640604D01*
Y601265D01*
Y599266D01*
X647429Y601378D02*
Y599378D01*
Y600378D01*
X648762D01*
Y601378D01*
Y599378D01*
X656877Y604339D02*
Y602340D01*
Y603340D01*
X658210D01*
Y604339D01*
Y602340D01*
X654515Y601556D02*
Y599557D01*
Y600557D01*
X655848D01*
Y601556D01*
Y599557D01*
X644541Y604822D02*
Y602823D01*
Y603823D01*
X645873D01*
Y604822D01*
Y602823D01*
X652153Y604854D02*
Y602854D01*
Y603854D01*
X653486D01*
Y604854D01*
Y602854D01*
X369013Y271140D02*
Y269141D01*
Y270140D01*
X370346D01*
Y271140D01*
Y269141D01*
X346702Y269473D02*
Y267473D01*
Y268473D01*
X348035D01*
Y269473D01*
Y267473D01*
X330256Y255779D02*
Y253780D01*
Y254779D01*
X331589D01*
Y255779D01*
Y253780D01*
X330256Y250188D02*
Y248189D01*
Y249189D01*
X331589D01*
Y250188D01*
Y248189D01*
X330256Y244676D02*
Y242677D01*
Y243677D01*
X331589D01*
Y244676D01*
Y242677D01*
X336035Y270822D02*
Y268823D01*
Y269822D01*
X337368D01*
Y270822D01*
Y268823D01*
X338748Y267920D02*
Y265921D01*
Y266920D01*
X340081D01*
Y267920D01*
Y265921D01*
X341874Y258448D02*
Y256449D01*
Y257449D01*
X343207D01*
Y258448D01*
Y256449D01*
X347350Y258810D02*
Y256811D01*
Y257811D01*
X348683D01*
Y258810D01*
Y256811D01*
X346535Y253692D02*
Y251693D01*
Y252693D01*
X347868D01*
Y253692D01*
Y251693D01*
X349500Y256482D02*
Y254482D01*
Y255482D01*
X350833D01*
Y256482D01*
Y254482D01*
X369635Y253745D02*
Y251745D01*
Y252745D01*
X370968D01*
Y253745D01*
Y251745D01*
X370477Y259596D02*
Y257596D01*
Y258596D01*
X371810D01*
Y259596D01*
Y257596D01*
X368307Y244676D02*
Y242677D01*
Y243677D01*
X369640D01*
Y244676D01*
Y242677D01*
X347275Y246291D02*
Y244291D01*
Y245291D01*
X348608D01*
Y246291D01*
Y244291D01*
X364475Y246251D02*
Y244251D01*
Y245251D01*
X365808D01*
Y246251D01*
Y244251D01*
X348641Y240911D02*
Y238912D01*
Y239912D01*
X349974D01*
Y240911D01*
Y238912D01*
X365315Y236842D02*
Y234842D01*
Y235842D01*
X366648D01*
Y236842D01*
Y234842D01*
X341772Y239755D02*
Y237756D01*
Y238756D01*
X343105D01*
Y239755D01*
Y237756D01*
X445484Y258340D02*
Y256340D01*
Y257340D01*
X446817D01*
Y258340D01*
Y256340D01*
X129628Y75999D02*
Y74000D01*
Y75000D01*
X130961D01*
Y75999D01*
Y74000D01*
X129628Y84499D02*
Y82500D01*
Y83500D01*
X130961D01*
Y84499D01*
Y82500D01*
X208465Y133999D02*
Y132000D01*
Y133000D01*
X209798D01*
Y133999D01*
Y132000D01*
X460500Y251999D02*
Y250000D01*
Y251000D01*
X461833D01*
Y251999D01*
Y250000D01*
X641539Y315998D02*
Y313999D01*
Y314999D01*
X642872D01*
Y315998D01*
Y313999D01*
X641539Y321001D02*
Y319002D01*
Y320002D01*
X642872D01*
Y321001D01*
Y319002D01*
X220000Y79399D02*
Y77400D01*
Y78400D01*
X221333D01*
Y79399D01*
Y77400D01*
X192128Y75999D02*
Y74000D01*
Y75000D01*
X193461D01*
Y75999D01*
Y74000D01*
X444000Y225499D02*
Y223500D01*
Y224500D01*
X445333D01*
Y225499D01*
Y223500D01*
X460394Y226291D02*
Y224291D01*
Y225291D01*
X461727D01*
Y226291D01*
Y224291D01*
X270965Y133999D02*
Y132000D01*
Y133000D01*
X272298D01*
Y133999D01*
Y132000D01*
X360898Y135999D02*
Y134000D01*
Y135000D01*
X362231D01*
Y135999D01*
Y134000D01*
X387634Y182960D02*
Y180961D01*
Y181961D01*
X388967D01*
Y182960D01*
Y180961D01*
X391142Y196734D02*
Y194735D01*
Y195735D01*
X392475D01*
Y196734D01*
Y194735D01*
X460500Y238899D02*
Y236900D01*
Y237900D01*
X461833D01*
Y238899D01*
Y236900D01*
X476500Y60347D02*
Y58348D01*
Y59348D01*
X477833D01*
Y60347D01*
Y58348D01*
X685000Y288861D02*
Y286862D01*
Y287862D01*
X686333D01*
Y288861D01*
Y286862D01*
X593679Y188751D02*
Y186752D01*
Y187752D01*
X595011D01*
Y188751D01*
Y186752D01*
X680000Y288861D02*
Y286862D01*
Y287862D01*
X681333D01*
Y288861D01*
Y286862D01*
X670000Y288860D02*
Y286860D01*
Y287860D01*
X671333D01*
Y288860D01*
Y286860D01*
X675000Y288861D02*
Y286862D01*
Y287862D01*
X676333D01*
Y288861D01*
Y286862D01*
X361000Y89285D02*
Y87285D01*
Y88285D01*
X362333D01*
Y89285D01*
Y87285D01*
X486500Y200029D02*
Y198029D01*
Y199029D01*
X487833D01*
Y200029D01*
Y198029D01*
X463000Y471251D02*
Y469252D01*
Y470252D01*
X464333D01*
Y471251D01*
Y469252D01*
X435823Y458451D02*
Y456452D01*
Y457452D01*
X437156D01*
Y458451D01*
Y456452D01*
X440728Y458451D02*
Y456452D01*
Y457452D01*
X442061D01*
Y458451D01*
Y456452D01*
X435823Y454735D02*
Y452735D01*
Y453735D01*
X437156D01*
Y454735D01*
Y452735D01*
X440728Y454735D02*
Y452735D01*
Y453735D01*
X442061D01*
Y454735D01*
Y452735D01*
X253161Y90499D02*
Y88500D01*
Y89500D01*
X254494D01*
Y90499D01*
Y88500D01*
X440661Y90499D02*
Y88500D01*
Y89500D01*
X441994D01*
Y90499D01*
Y88500D01*
X212573Y283208D02*
Y281209D01*
Y282208D01*
X213906D01*
Y283208D01*
Y281209D01*
X198713Y263610D02*
Y261610D01*
Y262610D01*
X200045D01*
Y263610D01*
Y261610D01*
X218973Y270858D02*
Y268858D01*
Y269858D01*
X220306D01*
Y270858D01*
Y268858D01*
X195280Y256858D02*
Y254858D01*
Y255858D01*
X196613D01*
Y256858D01*
Y254858D01*
X229772Y333070D02*
Y331071D01*
Y332070D01*
X231105D01*
Y333070D01*
Y331071D01*
X198091Y324976D02*
Y322976D01*
Y323976D01*
X199424D01*
Y324976D01*
Y322976D01*
X205676Y325826D02*
Y323827D01*
Y324826D01*
X207009D01*
Y325826D01*
Y323827D01*
X198091Y328646D02*
Y326647D01*
Y327646D01*
X199424D01*
Y328646D01*
Y326647D01*
X229773Y328625D02*
Y326626D01*
Y327626D01*
X231106D01*
Y328625D01*
Y326626D01*
X197500Y320905D02*
Y318905D01*
Y319905D01*
X198833D01*
Y320905D01*
Y318905D01*
X158670Y273289D02*
Y271289D01*
Y272289D01*
X160003D01*
Y273289D01*
Y271289D01*
X163356Y282398D02*
Y280399D01*
Y281399D01*
X164689D01*
Y282398D01*
Y280399D01*
X163356Y273289D02*
Y271289D01*
Y272289D01*
X164689D01*
Y273289D01*
Y271289D01*
X163356Y277858D02*
Y275858D01*
Y276858D01*
X164689D01*
Y277858D01*
Y275858D01*
X158670Y282398D02*
Y280399D01*
Y281399D01*
X160003D01*
Y282398D01*
Y280399D01*
X158670Y277858D02*
Y275858D01*
Y276858D01*
X160003D01*
Y277858D01*
Y275858D01*
X397603Y171499D02*
Y169500D01*
Y170500D01*
X398936D01*
Y171499D01*
Y169500D01*
X451903Y170749D02*
Y168750D01*
Y169750D01*
X453236D01*
Y170749D01*
Y168750D01*
X446240Y170749D02*
Y168750D01*
Y169750D01*
X447573D01*
Y170749D01*
Y168750D01*
X515180Y604687D02*
Y602688D01*
Y603687D01*
X516513D01*
Y604687D01*
Y602688D01*
X504506Y619319D02*
Y617320D01*
Y618320D01*
X505839D01*
Y619319D01*
Y617320D01*
X203000Y600838D02*
Y598839D01*
Y599838D01*
X204333D01*
Y600838D01*
Y598839D01*
X154050Y596781D02*
Y594781D01*
Y595781D01*
X155383D01*
Y596781D01*
Y594781D01*
X166886Y590385D02*
Y588386D01*
Y589385D01*
X168219D01*
Y590385D01*
Y588386D01*
X128500Y598279D02*
Y596279D01*
Y597279D01*
X129833D01*
Y598279D01*
Y596279D01*
X123500Y607900D02*
Y605901D01*
Y606901D01*
X124833D01*
Y607900D01*
Y605901D01*
X116471Y609999D02*
Y608000D01*
Y609000D01*
X117804D01*
Y609999D01*
Y608000D01*
X92386Y590385D02*
Y588386D01*
Y589385D01*
X93719D01*
Y590385D01*
Y588386D01*
X87256Y605000D02*
Y603000D01*
Y604000D01*
X88589D01*
Y605000D01*
Y603000D01*
X79550Y596781D02*
Y594781D01*
Y595781D01*
X80883D01*
Y596781D01*
Y594781D01*
X226000Y634700D02*
Y632701D01*
Y633701D01*
X227333D01*
Y634700D01*
Y632701D01*
X209221Y660199D02*
Y658200D01*
Y659200D01*
X210553D01*
Y660199D01*
Y658200D01*
X201800Y649306D02*
Y647307D01*
Y648307D01*
X203133D01*
Y649306D01*
Y647307D01*
X200261Y631024D02*
Y629024D01*
Y630024D01*
X201594D01*
Y631024D01*
Y629024D01*
X214339Y634699D02*
Y632700D01*
Y633700D01*
X215671D01*
Y634699D01*
Y632700D01*
X209221Y631023D02*
Y629024D01*
Y630023D01*
X210553D01*
Y631023D01*
Y629024D01*
X149721Y631023D02*
Y629024D01*
Y630023D01*
X151053D01*
Y631023D01*
Y629024D01*
X154839Y634699D02*
Y632700D01*
Y633700D01*
X156172D01*
Y634699D01*
Y632700D01*
X140761Y631024D02*
Y629024D01*
Y630024D01*
X142094D01*
Y631024D01*
Y629024D01*
X142300Y649306D02*
Y647307D01*
Y648307D01*
X143633D01*
Y649306D01*
Y647307D01*
X166000Y658099D02*
Y656100D01*
Y657100D01*
X167333D01*
Y658099D01*
Y656100D01*
X149721Y660199D02*
Y658200D01*
Y659200D01*
X151053D01*
Y660199D01*
Y658200D01*
X166500Y634700D02*
Y632701D01*
Y633701D01*
X167833D01*
Y634700D01*
Y632701D01*
X1009043Y658914D02*
Y656914D01*
Y657914D01*
X1010376D01*
Y658914D01*
Y656914D01*
X1014556Y651060D02*
Y649061D01*
Y650060D01*
X1015889D01*
Y651060D01*
Y649061D01*
X1014556Y658939D02*
Y656939D01*
Y657939D01*
X1015889D01*
Y658939D01*
Y656939D01*
X1009500Y632299D02*
Y630300D01*
Y631300D01*
X1010833D01*
Y632299D01*
Y630300D01*
X1013900Y632299D02*
Y630300D01*
Y631300D01*
X1015233D01*
Y632299D01*
Y630300D01*
X1022500Y645499D02*
Y643500D01*
Y644500D01*
X1023833D01*
Y645499D01*
Y643500D01*
X1046240Y679843D02*
Y677843D01*
Y678843D01*
X1047573D01*
Y679843D01*
Y677843D01*
X1021434Y675999D02*
Y674000D01*
Y675000D01*
X1022767D01*
Y675999D01*
Y674000D01*
X1032508Y671784D02*
Y669785D01*
Y670785D01*
X1033841D01*
Y671784D01*
Y669785D01*
X1019800Y670499D02*
Y668500D01*
Y669500D01*
X1021133D01*
Y670499D01*
Y668500D01*
X1022244Y655125D02*
Y653126D01*
Y654126D01*
X1023577D01*
Y655125D01*
Y653126D01*
X1026610Y648791D02*
Y646791D01*
Y647791D01*
X1027943D01*
Y648791D01*
Y646791D01*
X1036500Y634251D02*
Y632252D01*
Y633252D01*
X1037833D01*
Y634251D01*
Y632252D01*
X1039790Y638267D02*
Y636268D01*
Y637267D01*
X1041123D01*
Y638267D01*
Y636268D01*
X1039791Y641732D02*
Y639732D01*
Y640732D01*
X1041124D01*
Y641732D01*
Y639732D01*
X1032200Y648078D02*
Y646079D01*
Y647078D01*
X1033533D01*
Y648078D01*
Y646079D01*
X1053686Y649969D02*
Y647970D01*
Y648970D01*
X1055019D01*
Y649969D01*
Y647970D01*
X102003Y473468D02*
Y471468D01*
Y472468D01*
X103336D01*
Y473468D01*
Y471468D01*
X91182Y394499D02*
Y392500D01*
Y393500D01*
X92515D01*
Y394499D01*
Y392500D01*
X86497Y394499D02*
Y392500D01*
Y393500D01*
X87830D01*
Y394499D01*
Y392500D01*
X86497Y389930D02*
Y387931D01*
Y388931D01*
X87830D01*
Y389930D01*
Y387931D01*
X86497Y399040D02*
Y397041D01*
Y398040D01*
X87830D01*
Y399040D01*
Y397041D01*
X91182Y389930D02*
Y387931D01*
Y388931D01*
X92515D01*
Y389930D01*
Y387931D01*
X91182Y399040D02*
Y397041D01*
Y398040D01*
X92515D01*
Y399040D01*
Y397041D01*
X124213Y414747D02*
Y412748D01*
Y413748D01*
X125546D01*
Y414747D01*
Y412748D01*
X121000Y417683D02*
Y415684D01*
Y416684D01*
X122333D01*
Y417683D01*
Y415684D01*
X132500Y398999D02*
Y397000D01*
Y398000D01*
X133833D01*
Y398999D01*
Y397000D01*
X107146Y372366D02*
Y370367D01*
Y371367D01*
X108479D01*
Y372366D01*
Y370367D01*
X103537Y376018D02*
Y374018D01*
Y375018D01*
X104869D01*
Y376018D01*
Y374018D01*
X120995Y379040D02*
Y377041D01*
Y378041D01*
X122328D01*
Y379040D01*
Y377041D01*
X124512Y382251D02*
Y380252D01*
Y381252D01*
X125845D01*
Y382251D01*
Y380252D01*
X128556Y386499D02*
Y384500D01*
Y385500D01*
X129889D01*
Y386499D01*
Y384500D01*
X262500Y348099D02*
Y346100D01*
Y347100D01*
X263833D01*
Y348099D01*
Y346100D01*
X272500Y346699D02*
Y344700D01*
Y345700D01*
X273833D01*
Y346699D01*
Y344700D01*
X267000Y346700D02*
Y344701D01*
Y345701D01*
X268333D01*
Y346700D01*
Y344701D01*
X278500Y345815D02*
Y343816D01*
Y344816D01*
X279833D01*
Y345815D01*
Y343816D01*
X386304Y355540D02*
Y353541D01*
Y354540D01*
X387637D01*
Y355540D01*
Y353541D01*
X381619Y355540D02*
Y353541D01*
Y354540D01*
X382952D01*
Y355540D01*
Y353541D01*
X381619Y350999D02*
Y349000D01*
Y350000D01*
X382952D01*
Y350999D01*
Y349000D01*
X386304Y350999D02*
Y349000D01*
Y350000D01*
X387637D01*
Y350999D01*
Y349000D01*
X366501Y350999D02*
Y349000D01*
Y350000D01*
X367834D01*
Y350999D01*
Y349000D01*
X343500Y358999D02*
Y357000D01*
Y358000D01*
X344833D01*
Y358999D01*
Y357000D01*
X505524Y308099D02*
Y306100D01*
Y307100D01*
X506856D01*
Y308099D01*
Y306100D01*
X505473Y312031D02*
Y310032D01*
Y311031D01*
X506806D01*
Y312031D01*
Y310032D01*
X493633Y306781D02*
Y304782D01*
Y305781D01*
X494966D01*
Y306781D01*
Y304782D01*
X473302Y304621D02*
Y302621D01*
Y303621D01*
X474634D01*
Y304621D01*
Y302621D01*
X477274Y304608D02*
Y302609D01*
Y303609D01*
X478607D01*
Y304608D01*
Y302609D01*
X473302Y309232D02*
Y307232D01*
Y308232D01*
X474634D01*
Y309232D01*
Y307232D01*
X477274Y309232D02*
Y307232D01*
Y308232D01*
X478607D01*
Y309232D01*
Y307232D01*
X497717Y312031D02*
Y310032D01*
Y311031D01*
X499049D01*
Y312031D01*
Y310032D01*
X297000Y172621D02*
Y170622D01*
Y171622D01*
X298333D01*
Y172621D01*
Y170622D01*
X301500Y176613D02*
Y174614D01*
Y175614D01*
X302833D01*
Y176613D01*
Y174614D01*
X305500Y172621D02*
Y170622D01*
Y171622D01*
X306833D01*
Y172621D01*
Y170622D01*
X310000Y176613D02*
Y174614D01*
Y175614D01*
X311333D01*
Y176613D01*
Y174614D01*
X314000Y172621D02*
Y170622D01*
Y171622D01*
X315333D01*
Y172621D01*
Y170622D01*
X318500Y176613D02*
Y174614D01*
Y175614D01*
X319833D01*
Y176613D01*
Y174614D01*
X322500Y172621D02*
Y170622D01*
Y171622D01*
X323833D01*
Y172621D01*
Y170622D01*
X348651Y201968D02*
Y199969D01*
Y200968D01*
X349984D01*
Y201968D01*
Y199969D01*
X450200Y187499D02*
Y185500D01*
Y186500D01*
X451533D01*
Y187499D01*
Y185500D01*
X413539Y171499D02*
Y169500D01*
Y170500D01*
X414872D01*
Y171499D01*
Y169500D01*
X387634Y189762D02*
Y187762D01*
Y188762D01*
X388967D01*
Y189762D01*
Y187762D01*
X108161Y116499D02*
Y114500D01*
Y115500D01*
X109494D01*
Y116499D01*
Y114500D01*
X108161Y120999D02*
Y119000D01*
Y120000D01*
X109494D01*
Y120999D01*
Y119000D01*
X110898Y127499D02*
Y125500D01*
Y126500D01*
X112231D01*
Y127499D01*
Y125500D01*
X110898Y135999D02*
Y134000D01*
Y135000D01*
X112231D01*
Y135999D01*
Y134000D01*
X170661Y116499D02*
Y114500D01*
Y115500D01*
X171994D01*
Y116499D01*
Y114500D01*
X170661Y120999D02*
Y119000D01*
Y120000D01*
X171994D01*
Y120999D01*
Y119000D01*
X173398Y127499D02*
Y125500D01*
Y126500D01*
X174731D01*
Y127499D01*
Y125500D01*
X173398Y135999D02*
Y134000D01*
Y135000D01*
X174731D01*
Y135999D01*
Y134000D01*
X145965Y133999D02*
Y132000D01*
Y133000D01*
X147298D01*
Y133999D01*
Y132000D01*
X233161Y116499D02*
Y114500D01*
Y115500D01*
X234494D01*
Y116499D01*
Y114500D01*
X233161Y120999D02*
Y119000D01*
Y120000D01*
X234494D01*
Y120999D01*
Y119000D01*
X235898Y127499D02*
Y125500D01*
Y126500D01*
X237231D01*
Y127499D01*
Y125500D01*
X235898Y135999D02*
Y134000D01*
Y135000D01*
X237231D01*
Y135999D01*
Y134000D01*
X295661Y116499D02*
Y114500D01*
Y115500D01*
X296994D01*
Y116499D01*
Y114500D01*
X295661Y120999D02*
Y119000D01*
Y120000D01*
X296994D01*
Y120999D01*
Y119000D01*
X298398Y127499D02*
Y125500D01*
Y126500D01*
X299731D01*
Y127499D01*
Y125500D01*
X298398Y135999D02*
Y134000D01*
Y135000D01*
X299731D01*
Y135999D01*
Y134000D01*
X358161Y116499D02*
Y114500D01*
Y115500D01*
X359494D01*
Y116499D01*
Y114500D01*
X358161Y120999D02*
Y119000D01*
Y120000D01*
X359494D01*
Y120999D01*
Y119000D01*
X360898Y127499D02*
Y125500D01*
Y126500D01*
X362231D01*
Y127499D01*
Y125500D01*
X333465Y133999D02*
Y132000D01*
Y133000D01*
X334798D01*
Y133999D01*
Y132000D01*
X420661Y116499D02*
Y114500D01*
Y115500D01*
X421994D01*
Y116499D01*
Y114500D01*
X420661Y120999D02*
Y119000D01*
Y120000D01*
X421994D01*
Y120999D01*
Y119000D01*
X423398Y127499D02*
Y125500D01*
Y126500D01*
X424731D01*
Y127499D01*
Y125500D01*
X423398Y135999D02*
Y134000D01*
Y135000D01*
X424731D01*
Y135999D01*
Y134000D01*
X395965Y133999D02*
Y132000D01*
Y133000D01*
X397298D01*
Y133999D01*
Y132000D01*
X483161Y116499D02*
Y114500D01*
Y115500D01*
X484494D01*
Y116499D01*
Y114500D01*
X483161Y120999D02*
Y119000D01*
Y120000D01*
X484494D01*
Y120999D01*
Y119000D01*
X485898Y127499D02*
Y125500D01*
Y126500D01*
X487231D01*
Y127499D01*
Y125500D01*
X485898Y135999D02*
Y134000D01*
Y135000D01*
X487231D01*
Y135999D01*
Y134000D01*
X458465Y133999D02*
Y132000D01*
Y133000D01*
X459797D01*
Y133999D01*
Y132000D01*
X520965Y133999D02*
Y132000D01*
Y133000D01*
X522297D01*
Y133999D01*
Y132000D01*
X548398Y135999D02*
Y134000D01*
Y135000D01*
X549731D01*
Y135999D01*
Y134000D01*
X548398Y127499D02*
Y125500D01*
Y126500D01*
X549731D01*
Y127499D01*
Y125500D01*
X545661Y120999D02*
Y119000D01*
Y120000D01*
X546994D01*
Y120999D01*
Y119000D01*
X545661Y116499D02*
Y114500D01*
Y115500D01*
X546994D01*
Y116499D01*
Y114500D01*
X108500Y60262D02*
Y58263D01*
Y59262D01*
X109833D01*
Y60262D01*
Y58263D01*
X101500Y60347D02*
Y58348D01*
Y59348D01*
X102833D01*
Y60347D01*
Y58348D01*
X111000Y89285D02*
Y87285D01*
Y88285D01*
X112333D01*
Y89285D01*
Y87285D01*
X104000Y87694D02*
Y85694D01*
Y86694D01*
X105333D01*
Y87694D01*
Y85694D01*
X99000Y87694D02*
Y85694D01*
Y86694D01*
X100333D01*
Y87694D01*
Y85694D01*
X82000Y58531D02*
Y56532D01*
Y57532D01*
X83333D01*
Y58531D01*
Y56532D01*
X73602Y62708D02*
Y60709D01*
Y61708D01*
X74935D01*
Y62708D01*
Y60709D01*
X67128Y75999D02*
Y74000D01*
Y75000D01*
X68461D01*
Y75999D01*
Y74000D01*
X67128Y84499D02*
Y82500D01*
Y83500D01*
X68461D01*
Y84499D01*
Y82500D01*
X70913Y94643D02*
Y92643D01*
Y93643D01*
X72246D01*
Y94643D01*
Y92643D01*
X70961Y98499D02*
Y96500D01*
Y97500D01*
X72294D01*
Y98499D01*
Y96500D01*
X171000Y60262D02*
Y58263D01*
Y59262D01*
X172333D01*
Y60262D01*
Y58263D01*
X164000Y60347D02*
Y58348D01*
Y59348D01*
X165333D01*
Y60347D01*
Y58348D01*
X173500Y89285D02*
Y87285D01*
Y88285D01*
X174833D01*
Y89285D01*
Y87285D01*
X166500Y87694D02*
Y85694D01*
Y86694D01*
X167833D01*
Y87694D01*
Y85694D01*
X161500Y87694D02*
Y85694D01*
Y86694D01*
X162833D01*
Y87694D01*
Y85694D01*
X144500Y58531D02*
Y56532D01*
Y57532D01*
X145833D01*
Y58531D01*
Y56532D01*
X136102Y62708D02*
Y60709D01*
Y61708D01*
X137435D01*
Y62708D01*
Y60709D01*
X133413Y94643D02*
Y92643D01*
Y93643D01*
X134746D01*
Y94643D01*
Y92643D01*
X133461Y98499D02*
Y96500D01*
Y97500D01*
X134793D01*
Y98499D01*
Y96500D01*
X233500Y60262D02*
Y58263D01*
Y59262D01*
X234833D01*
Y60262D01*
Y58263D01*
X226500Y60347D02*
Y58348D01*
Y59348D01*
X227833D01*
Y60347D01*
Y58348D01*
X236000Y89285D02*
Y87285D01*
Y88285D01*
X237333D01*
Y89285D01*
Y87285D01*
X229000Y87694D02*
Y85694D01*
Y86694D01*
X230333D01*
Y87694D01*
Y85694D01*
X224000Y87694D02*
Y85694D01*
Y86694D01*
X225333D01*
Y87694D01*
Y85694D01*
X207000Y58531D02*
Y56532D01*
Y57532D01*
X208333D01*
Y58531D01*
Y56532D01*
X198602Y62708D02*
Y60709D01*
Y61708D01*
X199935D01*
Y62708D01*
Y60709D01*
X192128Y84499D02*
Y82500D01*
Y83500D01*
X193461D01*
Y84499D01*
Y82500D01*
X195913Y94643D02*
Y92643D01*
Y93643D01*
X197246D01*
Y94643D01*
Y92643D01*
X195961Y98499D02*
Y96500D01*
Y97500D01*
X197293D01*
Y98499D01*
Y96500D01*
X296000Y60262D02*
Y58263D01*
Y59262D01*
X297333D01*
Y60262D01*
Y58263D01*
X289000Y60347D02*
Y58348D01*
Y59348D01*
X290333D01*
Y60347D01*
Y58348D01*
X298500Y89285D02*
Y87285D01*
Y88285D01*
X299833D01*
Y89285D01*
Y87285D01*
X291500Y87694D02*
Y85694D01*
Y86694D01*
X292833D01*
Y87694D01*
Y85694D01*
X286500Y87694D02*
Y85694D01*
Y86694D01*
X287833D01*
Y87694D01*
Y85694D01*
X269500Y58531D02*
Y56532D01*
Y57532D01*
X270833D01*
Y58531D01*
Y56532D01*
X261102Y62708D02*
Y60709D01*
Y61708D01*
X262435D01*
Y62708D01*
Y60709D01*
X254628Y75999D02*
Y74000D01*
Y75000D01*
X255961D01*
Y75999D01*
Y74000D01*
X254628Y84499D02*
Y82500D01*
Y83500D01*
X255961D01*
Y84499D01*
Y82500D01*
X258413Y94643D02*
Y92643D01*
Y93643D01*
X259746D01*
Y94643D01*
Y92643D01*
X258461Y98499D02*
Y96500D01*
Y97500D01*
X259793D01*
Y98499D01*
Y96500D01*
X358500Y60262D02*
Y58263D01*
Y59262D01*
X359833D01*
Y60262D01*
Y58263D01*
X351500Y60347D02*
Y58348D01*
Y59348D01*
X352833D01*
Y60347D01*
Y58348D01*
X354000Y87694D02*
Y85694D01*
Y86694D01*
X355333D01*
Y87694D01*
Y85694D01*
X349000Y87694D02*
Y85694D01*
Y86694D01*
X350333D01*
Y87694D01*
Y85694D01*
X332000Y58531D02*
Y56532D01*
Y57532D01*
X333333D01*
Y58531D01*
Y56532D01*
X323602Y62708D02*
Y60709D01*
Y61708D01*
X324935D01*
Y62708D01*
Y60709D01*
X317128Y75999D02*
Y74000D01*
Y75000D01*
X318461D01*
Y75999D01*
Y74000D01*
X317128Y84499D02*
Y82500D01*
Y83500D01*
X318461D01*
Y84499D01*
Y82500D01*
X320913Y94643D02*
Y92643D01*
Y93643D01*
X322246D01*
Y94643D01*
Y92643D01*
X320961Y98499D02*
Y96500D01*
Y97500D01*
X322293D01*
Y98499D01*
Y96500D01*
X421000Y60262D02*
Y58263D01*
Y59262D01*
X422333D01*
Y60262D01*
Y58263D01*
X414000Y60347D02*
Y58348D01*
Y59348D01*
X415333D01*
Y60347D01*
Y58348D01*
X423500Y89285D02*
Y87285D01*
Y88285D01*
X424833D01*
Y89285D01*
Y87285D01*
X416500Y87694D02*
Y85694D01*
Y86694D01*
X417833D01*
Y87694D01*
Y85694D01*
X411500Y87694D02*
Y85694D01*
Y86694D01*
X412833D01*
Y87694D01*
Y85694D01*
X394500Y58531D02*
Y56532D01*
Y57532D01*
X395833D01*
Y58531D01*
Y56532D01*
X379628Y75999D02*
Y74000D01*
Y75000D01*
X380961D01*
Y75999D01*
Y74000D01*
X379628Y84499D02*
Y82500D01*
Y83500D01*
X380961D01*
Y84499D01*
Y82500D01*
X383413Y94643D02*
Y92643D01*
Y93643D01*
X384746D01*
Y94643D01*
Y92643D01*
X383461Y98499D02*
Y96500D01*
Y97500D01*
X384793D01*
Y98499D01*
Y96500D01*
X483500Y60262D02*
Y58263D01*
Y59262D01*
X484833D01*
Y60262D01*
Y58263D01*
X486000Y89285D02*
Y87285D01*
Y88285D01*
X487333D01*
Y89285D01*
Y87285D01*
X479000Y87694D02*
Y85694D01*
Y86694D01*
X480333D01*
Y87694D01*
Y85694D01*
X474000Y87694D02*
Y85694D01*
Y86694D01*
X475333D01*
Y87694D01*
Y85694D01*
X457000Y58531D02*
Y56532D01*
Y57532D01*
X458333D01*
Y58531D01*
Y56532D01*
X448602Y62708D02*
Y60709D01*
Y61708D01*
X449935D01*
Y62708D01*
Y60709D01*
X442128Y75999D02*
Y74000D01*
Y75000D01*
X443461D01*
Y75999D01*
Y74000D01*
X442128Y84499D02*
Y82500D01*
Y83500D01*
X443461D01*
Y84499D01*
Y82500D01*
X445913Y94643D02*
Y92643D01*
Y93643D01*
X447246D01*
Y94643D01*
Y92643D01*
X445961Y98499D02*
Y96500D01*
Y97500D01*
X447294D01*
Y98499D01*
Y96500D01*
X65661Y90499D02*
Y88500D01*
Y89500D01*
X66994D01*
Y90499D01*
Y88500D01*
X128161Y90499D02*
Y88500D01*
Y89500D01*
X129494D01*
Y90499D01*
Y88500D01*
X190661Y90499D02*
Y88500D01*
Y89500D01*
X191994D01*
Y90499D01*
Y88500D01*
X315661Y90499D02*
Y88500D01*
Y89500D01*
X316994D01*
Y90499D01*
Y88500D01*
X378161Y90499D02*
Y88500D01*
Y89500D01*
X379494D01*
Y90499D01*
Y88500D01*
X503161Y90499D02*
Y88500D01*
Y89500D01*
X504494D01*
Y90499D01*
Y88500D01*
X508461Y98499D02*
Y96500D01*
Y97500D01*
X509794D01*
Y98499D01*
Y96500D01*
X508413Y94643D02*
Y92643D01*
Y93643D01*
X509746D01*
Y94643D01*
Y92643D01*
X504628Y84499D02*
Y82500D01*
Y83500D01*
X505961D01*
Y84499D01*
Y82500D01*
X504628Y75999D02*
Y74000D01*
Y75000D01*
X505961D01*
Y75999D01*
Y74000D01*
X82300Y70499D02*
Y68500D01*
Y69500D01*
X83633D01*
Y70499D01*
Y68500D01*
X144800Y70499D02*
Y68500D01*
Y69500D01*
X146133D01*
Y70499D01*
Y68500D01*
X207300Y70499D02*
Y68500D01*
Y69500D01*
X208633D01*
Y70499D01*
Y68500D01*
X269800Y70499D02*
Y68500D01*
Y69500D01*
X271133D01*
Y70499D01*
Y68500D01*
X332300Y70499D02*
Y68500D01*
Y69500D01*
X333633D01*
Y70499D01*
Y68500D01*
X394800Y70499D02*
Y68500D01*
Y69500D01*
X396133D01*
Y70499D01*
Y68500D01*
X457300Y70499D02*
Y68500D01*
Y69500D01*
X458633D01*
Y70499D01*
Y68500D01*
X519800Y70499D02*
Y68500D01*
Y69500D01*
X521133D01*
Y70499D01*
Y68500D01*
X519500Y58531D02*
Y56532D01*
Y57532D01*
X520833D01*
Y58531D01*
Y56532D01*
X536500Y87694D02*
Y85694D01*
Y86694D01*
X537833D01*
Y87694D01*
Y85694D01*
X541500Y87694D02*
Y85694D01*
Y86694D01*
X542833D01*
Y87694D01*
Y85694D01*
X548500Y89285D02*
Y87285D01*
Y88285D01*
X549833D01*
Y89285D01*
Y87285D01*
X539000Y60347D02*
Y58348D01*
Y59348D01*
X540333D01*
Y60347D01*
Y58348D01*
X546000Y60262D02*
Y58263D01*
Y59262D01*
X547333D01*
Y60262D01*
Y58263D01*
X700500Y674174D02*
Y672174D01*
Y673174D01*
X701833D01*
Y674174D01*
Y672174D01*
X690133Y658247D02*
Y656248D01*
Y657248D01*
X691466D01*
Y658247D01*
Y656248D01*
X686402Y662633D02*
Y660634D01*
Y661633D01*
X687735D01*
Y662633D01*
Y660634D01*
X686425Y648787D02*
Y646788D01*
Y647788D01*
X687757D01*
Y648787D01*
Y646788D01*
X590929Y658247D02*
Y656248D01*
Y657248D01*
X592262D01*
Y658247D01*
Y656248D01*
X587197Y662633D02*
Y660634D01*
Y661633D01*
X588530D01*
Y662633D01*
Y660634D01*
X587220Y648787D02*
Y646788D01*
Y647788D01*
X588553D01*
Y648787D01*
Y646788D01*
X488499Y605909D02*
Y603910D01*
Y604910D01*
X489832D01*
Y605909D01*
Y603910D01*
X488499Y621279D02*
Y619279D01*
Y620279D01*
X489832D01*
Y621279D01*
Y619279D01*
X497000Y605543D02*
Y603543D01*
Y604543D01*
X498333D01*
Y605543D01*
Y603543D01*
X497000Y621279D02*
Y619279D01*
Y620279D01*
X498333D01*
Y621279D01*
Y619279D01*
X504500Y605257D02*
Y603258D01*
Y604257D01*
X505833D01*
Y605257D01*
Y603258D01*
X570075Y604826D02*
Y602827D01*
Y603827D01*
X571408D01*
Y604826D01*
Y602827D01*
X576571Y604826D02*
Y602827D01*
Y603827D01*
X577904D01*
Y604826D01*
Y602827D01*
X593752Y617003D02*
Y615004D01*
Y616004D01*
X595085D01*
Y617003D01*
Y615004D01*
X600248Y617003D02*
Y615004D01*
Y616004D01*
X601581D01*
Y617003D01*
Y615004D01*
X617708Y616975D02*
Y614976D01*
Y615976D01*
X619041D01*
Y616975D01*
Y614976D01*
X633252Y617412D02*
Y615412D01*
Y616412D01*
X634585D01*
Y617412D01*
Y615412D01*
X640343Y616752D02*
Y614753D01*
Y615753D01*
X641675D01*
Y616752D01*
Y614753D01*
X667310Y604510D02*
Y602510D01*
Y603510D01*
X668643D01*
Y604510D01*
Y602510D01*
X753248Y598701D02*
Y596702D01*
Y597701D01*
X754581D01*
Y598701D01*
Y596702D01*
X749400Y602002D02*
Y600003D01*
Y601003D01*
X750733D01*
Y602002D01*
Y600003D01*
X761252Y598701D02*
Y596702D01*
Y597701D01*
X762585D01*
Y598701D01*
Y596702D01*
X749398Y617091D02*
Y615092D01*
Y616091D01*
X750731D01*
Y617091D01*
Y615092D01*
X756998Y602040D02*
Y600041D01*
Y601040D01*
X758331D01*
Y602040D01*
Y600041D01*
X757000Y617026D02*
Y615027D01*
Y616027D01*
X758333D01*
Y617026D01*
Y615027D01*
X765500Y601807D02*
Y599808D01*
Y600808D01*
X766833D01*
Y601807D01*
Y599808D01*
X765500Y616794D02*
Y614794D01*
Y615794D01*
X766833D01*
Y616794D01*
Y614794D01*
X588500Y185121D02*
Y183121D01*
Y184121D01*
X589833D01*
Y185121D01*
Y183121D01*
X976598Y399070D02*
Y397071D01*
Y398070D01*
X977931D01*
Y399070D01*
Y397071D01*
X968815Y393828D02*
Y391828D01*
Y392828D01*
X970148D01*
Y393828D01*
Y391828D01*
X991598Y399070D02*
Y397071D01*
Y398070D01*
X992931D01*
Y399070D01*
Y397071D01*
X999383Y393826D02*
Y391827D01*
Y392827D01*
X1000716D01*
Y393826D01*
Y391827D01*
X1096050Y330575D02*
Y328575D01*
Y329575D01*
X1097383D01*
Y330575D01*
Y328575D01*
X972272Y371999D02*
Y370000D01*
Y371000D01*
X973605D01*
Y371999D01*
Y370000D01*
X972272Y367578D02*
Y365579D01*
Y366578D01*
X973605D01*
Y367578D01*
Y365579D01*
X972272Y376633D02*
Y374634D01*
Y375634D01*
X973605D01*
Y376633D01*
Y374634D01*
X996181Y371999D02*
Y370000D01*
Y371000D01*
X997514D01*
Y371999D01*
Y370000D01*
X996181Y367578D02*
Y365579D01*
Y366578D01*
X997514D01*
Y367578D01*
Y365579D01*
X996181Y376633D02*
Y374634D01*
Y375634D01*
X997514D01*
Y376633D01*
Y374634D01*
X977886Y376633D02*
Y374634D01*
Y375634D01*
X979219D01*
Y376633D01*
Y374634D01*
X990091Y376633D02*
Y374634D01*
Y375634D01*
X991424D01*
Y376633D01*
Y374634D01*
X990091Y367578D02*
Y365579D01*
Y366578D01*
X991424D01*
Y367578D01*
Y365579D01*
X977886Y367578D02*
Y365579D01*
Y366578D01*
X979219D01*
Y367578D01*
Y365579D01*
X984000Y367578D02*
Y365579D01*
Y366578D01*
X985333D01*
Y367578D01*
Y365579D01*
X984000Y376633D02*
Y374634D01*
Y375634D01*
X985333D01*
Y376633D01*
Y374634D01*
X990091Y371999D02*
Y370000D01*
Y371000D01*
X991424D01*
Y371999D01*
Y370000D01*
X977886Y371999D02*
Y370000D01*
Y371000D01*
X979219D01*
Y371999D01*
Y370000D01*
X1103639Y334468D02*
Y332469D01*
Y333468D01*
X1104972D01*
Y334468D01*
Y332469D01*
X1103320Y331214D02*
Y329215D01*
Y330215D01*
X1104653D01*
Y331214D01*
Y329215D01*
X1113359Y336436D02*
Y334437D01*
Y335437D01*
X1114692D01*
Y336436D01*
Y334437D01*
X1075178Y321637D02*
Y319638D01*
Y320637D01*
X1076511D01*
Y321637D01*
Y319638D01*
X1079000Y318348D02*
Y316349D01*
Y317348D01*
X1080333D01*
Y318348D01*
Y316349D01*
X1064538Y326361D02*
Y324362D01*
Y325362D01*
X1065871D01*
Y326361D01*
Y324362D01*
X963200Y370399D02*
Y368400D01*
Y369400D01*
X964533D01*
Y370399D01*
Y368400D01*
X959800Y370399D02*
Y368400D01*
Y369400D01*
X961133D01*
Y370399D01*
Y368400D01*
X963300Y358130D02*
Y356131D01*
Y357130D01*
X964633D01*
Y358130D01*
Y356131D01*
X959800Y359499D02*
Y357500D01*
Y358500D01*
X961133D01*
Y359499D01*
Y357500D01*
X960100Y352699D02*
Y350700D01*
Y351700D01*
X961433D01*
Y352699D01*
Y350700D01*
X956600Y352699D02*
Y350700D01*
Y351700D01*
X957933D01*
Y352699D01*
Y350700D01*
X957900Y347665D02*
Y345666D01*
Y346666D01*
X959233D01*
Y347665D01*
Y345666D01*
X976500Y348999D02*
Y347000D01*
Y348000D01*
X977833D01*
Y348999D01*
Y347000D01*
X1003300Y353299D02*
Y351300D01*
Y352300D01*
X1004633D01*
Y353299D01*
Y351300D01*
X998500Y353299D02*
Y351300D01*
Y352300D01*
X999833D01*
Y353299D01*
Y351300D01*
X1033400Y346199D02*
Y344200D01*
Y345200D01*
X1034733D01*
Y346199D01*
Y344200D01*
X1023000Y324999D02*
Y323000D01*
Y324000D01*
X1024333D01*
Y324999D01*
Y323000D01*
X997525Y325368D02*
Y323369D01*
Y324368D01*
X998858D01*
Y325368D01*
Y323369D01*
X993225Y325368D02*
Y323369D01*
Y324368D01*
X994558D01*
Y325368D01*
Y323369D01*
X988156Y333199D02*
Y331200D01*
Y332200D01*
X989489D01*
Y333199D01*
Y331200D01*
X991600Y333199D02*
Y331200D01*
Y332200D01*
X992933D01*
Y333199D01*
Y331200D01*
X980700Y339899D02*
Y337900D01*
Y338900D01*
X982033D01*
Y339899D01*
Y337900D01*
X983000Y327799D02*
Y325800D01*
Y326800D01*
X984333D01*
Y327799D01*
Y325800D01*
X981100Y324199D02*
Y322200D01*
Y323200D01*
X982433D01*
Y324199D01*
Y322200D01*
X995900Y306999D02*
Y305000D01*
Y306000D01*
X997233D01*
Y306999D01*
Y305000D01*
X995900Y312699D02*
Y310700D01*
Y311700D01*
X997233D01*
Y312699D01*
Y310700D01*
X995900Y301099D02*
Y299100D01*
Y300100D01*
X997233D01*
Y301099D01*
Y299100D01*
X991000Y310033D02*
Y308033D01*
Y309033D01*
X992333D01*
Y310033D01*
Y308033D01*
X991000Y315499D02*
Y313500D01*
Y314500D01*
X992333D01*
Y315499D01*
Y313500D01*
X991000Y304566D02*
Y302567D01*
Y303566D01*
X992333D01*
Y304566D01*
Y302567D01*
X991000Y299099D02*
Y297100D01*
Y298100D01*
X992333D01*
Y299099D01*
Y297100D01*
X970000Y310033D02*
Y308033D01*
Y309033D01*
X971333D01*
Y310033D01*
Y308033D01*
X970000Y315499D02*
Y313500D01*
Y314500D01*
X971333D01*
Y315499D01*
Y313500D01*
X970000Y304566D02*
Y302567D01*
Y303566D01*
X971333D01*
Y304566D01*
Y302567D01*
X970000Y299099D02*
Y297100D01*
Y298100D01*
X971333D01*
Y299099D01*
Y297100D01*
X984000Y315499D02*
Y313500D01*
Y314500D01*
X985333D01*
Y315499D01*
Y313500D01*
X984000Y304566D02*
Y302567D01*
Y303566D01*
X985333D01*
Y304566D01*
Y302567D01*
X984000Y299099D02*
Y297100D01*
Y298100D01*
X985333D01*
Y299099D01*
Y297100D01*
X977000Y299099D02*
Y297100D01*
Y298100D01*
X978333D01*
Y299099D01*
Y297100D01*
X977000Y304566D02*
Y302567D01*
Y303566D01*
X978333D01*
Y304566D01*
Y302567D01*
X977000Y315499D02*
Y313500D01*
Y314500D01*
X978333D01*
Y315499D01*
Y313500D01*
X977000Y310033D02*
Y308033D01*
Y309033D01*
X978333D01*
Y310033D01*
Y308033D01*
X1103202Y133419D02*
Y131419D01*
Y132419D01*
X1104535D01*
Y133419D01*
Y131419D01*
X1108760Y141416D02*
Y139417D01*
Y140416D01*
X1110093D01*
Y141416D01*
Y139417D01*
X1113359Y138936D02*
Y136937D01*
Y137937D01*
X1114692D01*
Y138936D01*
Y136937D01*
X1103202Y136968D02*
Y134968D01*
Y135968D01*
X1104535D01*
Y136968D01*
Y134968D01*
X1095975Y133033D02*
Y131033D01*
Y132033D01*
X1097308D01*
Y133033D01*
Y131033D01*
X1079000Y120900D02*
Y118901D01*
Y119900D01*
X1080333D01*
Y120900D01*
Y118901D01*
X1075386Y124137D02*
Y122138D01*
Y123137D01*
X1076719D01*
Y124137D01*
Y122138D01*
X1064788Y128862D02*
Y126862D01*
Y127862D01*
X1066121D01*
Y128862D01*
Y126862D01*
X962900Y182586D02*
Y180587D01*
Y181586D01*
X964233D01*
Y182586D01*
Y180587D01*
X959102Y155300D02*
Y153301D01*
Y154300D01*
X960435D01*
Y155300D01*
Y153301D01*
X959102Y161269D02*
Y159269D01*
Y160269D01*
X960435D01*
Y161269D01*
Y159269D01*
X959102Y167233D02*
Y165234D01*
Y166234D01*
X960435D01*
Y167233D01*
Y165234D01*
X959100Y173202D02*
Y171202D01*
Y172202D01*
X960433D01*
Y173202D01*
Y171202D01*
X967402Y155299D02*
Y153300D01*
Y154300D01*
X968734D01*
Y155299D01*
Y153300D01*
X967402Y161268D02*
Y159268D01*
Y160268D01*
X968734D01*
Y161268D01*
Y159268D01*
X967402Y167232D02*
Y165233D01*
Y166233D01*
X968734D01*
Y167232D01*
Y165233D01*
X967400Y173201D02*
Y171202D01*
Y172201D01*
X968733D01*
Y173201D01*
Y171202D01*
X975700Y173200D02*
Y171201D01*
Y172201D01*
X977033D01*
Y173200D01*
Y171201D01*
X975702Y167232D02*
Y165232D01*
Y166232D01*
X977034D01*
Y167232D01*
Y165232D01*
X975702Y161267D02*
Y159268D01*
Y160267D01*
X977034D01*
Y161267D01*
Y159268D01*
X975702Y155299D02*
Y153299D01*
Y154299D01*
X977034D01*
Y155299D01*
Y153299D01*
X997299Y161267D02*
Y159268D01*
Y160267D01*
X998632D01*
Y161267D01*
Y159268D01*
X997300Y173199D02*
Y171200D01*
Y172200D01*
X998633D01*
Y173199D01*
Y171200D01*
X997300Y167232D02*
Y165232D01*
Y166232D01*
X998633D01*
Y167232D01*
Y165232D01*
X991902Y155299D02*
Y153300D01*
Y154300D01*
X993235D01*
Y155299D01*
Y153300D01*
X991902Y161266D02*
Y159267D01*
Y160266D01*
X993235D01*
Y161266D01*
Y159267D01*
X991902Y167233D02*
Y165233D01*
Y166233D01*
X993235D01*
Y167233D01*
Y165233D01*
X991900Y173199D02*
Y171200D01*
Y172200D01*
X993233D01*
Y173199D01*
Y171200D01*
X984000Y155299D02*
Y153299D01*
Y154299D01*
X985333D01*
Y155299D01*
Y153299D01*
X984000Y161267D02*
Y159268D01*
Y160267D01*
X985333D01*
Y161267D01*
Y159268D01*
X997283Y193413D02*
Y191413D01*
Y192413D01*
X998616D01*
Y193413D01*
Y191413D01*
X1113359Y203436D02*
Y201437D01*
Y202437D01*
X1114692D01*
Y203436D01*
Y201437D01*
X1108760Y205916D02*
Y203917D01*
Y204916D01*
X1110093D01*
Y205916D01*
Y203917D01*
X1102883Y198131D02*
Y196131D01*
Y197131D01*
X1104216D01*
Y198131D01*
Y196131D01*
X1102883Y194376D02*
Y192377D01*
Y193376D01*
X1104216D01*
Y194376D01*
Y192377D01*
X1103202Y201468D02*
Y199469D01*
Y200468D01*
X1104535D01*
Y201468D01*
Y199469D01*
X1076653Y190732D02*
Y188732D01*
Y189732D01*
X1077986D01*
Y190732D01*
Y188732D01*
X1076385Y187267D02*
Y185268D01*
Y186267D01*
X1077718D01*
Y187267D01*
Y185268D01*
X1080000Y184413D02*
Y182413D01*
Y183413D01*
X1081333D01*
Y184413D01*
Y182413D01*
X1096202Y197485D02*
Y195486D01*
Y196485D01*
X1097534D01*
Y197485D01*
Y195486D01*
X977886Y233641D02*
Y231642D01*
Y232641D01*
X979219D01*
Y233641D01*
Y231642D01*
X984000Y233641D02*
Y231642D01*
Y232641D01*
X985333D01*
Y233641D01*
Y231642D01*
X990091Y250570D02*
Y248571D01*
Y249571D01*
X991424D01*
Y250570D01*
Y248571D01*
X984000Y250570D02*
Y248571D01*
Y249571D01*
X985333D01*
Y250570D01*
Y248571D01*
X977886Y250570D02*
Y248571D01*
Y249571D01*
X979219D01*
Y250570D01*
Y248571D01*
X977886Y246633D02*
Y244634D01*
Y245634D01*
X979219D01*
Y246633D01*
Y244634D01*
X990091Y246633D02*
Y244634D01*
Y245634D01*
X991424D01*
Y246633D01*
Y244634D01*
X990091Y237578D02*
Y235579D01*
Y236578D01*
X991424D01*
Y237578D01*
Y235579D01*
X977886Y237578D02*
Y235579D01*
Y236578D01*
X979219D01*
Y237578D01*
Y235579D01*
X984000Y237578D02*
Y235579D01*
Y236578D01*
X985333D01*
Y237578D01*
Y235579D01*
X984000Y246633D02*
Y244634D01*
Y245634D01*
X985333D01*
Y246633D01*
Y244634D01*
X990091Y241999D02*
Y240000D01*
Y241000D01*
X991424D01*
Y241999D01*
Y240000D01*
X977886Y241999D02*
Y240000D01*
Y241000D01*
X979219D01*
Y241999D01*
Y240000D01*
X971775Y241837D02*
Y239837D01*
Y240837D01*
X973108D01*
Y241837D01*
Y239837D01*
X971775Y246470D02*
Y244471D01*
Y245471D01*
X973108D01*
Y246470D01*
Y244471D01*
X971775Y250407D02*
Y248408D01*
Y249408D01*
X973108D01*
Y250407D01*
Y248408D01*
X989500Y277046D02*
Y275046D01*
Y276046D01*
X990833D01*
Y277046D01*
Y275046D01*
X997423Y282173D02*
Y280173D01*
Y281173D01*
X998756D01*
Y282173D01*
Y280173D01*
X974500Y276959D02*
Y274960D01*
Y275959D01*
X975833D01*
Y276959D01*
Y274960D01*
X966600Y282086D02*
Y280087D01*
Y281086D01*
X967933D01*
Y282086D01*
Y280087D01*
X997400Y267913D02*
Y265913D01*
Y266913D01*
X998733D01*
Y267913D01*
Y265913D01*
X989500Y273040D02*
Y271040D01*
Y272040D01*
X990833D01*
Y273040D01*
Y271040D01*
X966576Y267913D02*
Y265913D01*
Y266913D01*
X967909D01*
Y267913D01*
Y265913D01*
X974500Y273040D02*
Y271040D01*
Y272040D01*
X975833D01*
Y273040D01*
Y271040D01*
X867887Y269982D02*
Y267983D01*
Y268983D01*
X869220D01*
Y269982D01*
Y267983D01*
X873978Y269982D02*
Y267983D01*
Y268983D01*
X875311D01*
Y269982D01*
Y267983D01*
X861773Y269982D02*
Y267983D01*
Y268983D01*
X863106D01*
Y269982D01*
Y267983D01*
X861773Y273919D02*
Y271920D01*
Y272920D01*
X863106D01*
Y273919D01*
Y271920D01*
X867887Y273919D02*
Y271920D01*
Y272920D01*
X869220D01*
Y273919D01*
Y271920D01*
X873978Y273919D02*
Y271920D01*
Y272920D01*
X875311D01*
Y273919D01*
Y271920D01*
X873925Y277842D02*
Y275843D01*
Y276842D01*
X875258D01*
Y277842D01*
Y275843D01*
X867834Y277842D02*
Y275843D01*
Y276842D01*
X869167D01*
Y277842D01*
Y275843D01*
X861720Y277842D02*
Y275843D01*
Y276842D01*
X863053D01*
Y277842D01*
Y275843D01*
X849516Y277842D02*
Y275843D01*
Y276842D01*
X850849D01*
Y277842D01*
Y275843D01*
X855630Y277842D02*
Y275843D01*
Y276842D01*
X856963D01*
Y277842D01*
Y275843D01*
X855683Y273919D02*
Y271920D01*
Y272920D01*
X857016D01*
Y273919D01*
Y271920D01*
X849569Y273919D02*
Y271920D01*
Y272920D01*
X850902D01*
Y273919D01*
Y271920D01*
X849569Y269982D02*
Y267983D01*
Y268983D01*
X850902D01*
Y269982D01*
Y267983D01*
X855683Y269982D02*
Y267983D01*
Y268983D01*
X857016D01*
Y269982D01*
Y267983D01*
X837311Y277842D02*
Y275843D01*
Y276842D01*
X838644D01*
Y277842D01*
Y275843D01*
X843425Y277842D02*
Y275843D01*
Y276842D01*
X844758D01*
Y277842D01*
Y275843D01*
X843478Y273919D02*
Y271920D01*
Y272920D01*
X844811D01*
Y273919D01*
Y271920D01*
X837364Y273919D02*
Y271920D01*
Y272920D01*
X838697D01*
Y273919D01*
Y271920D01*
X837364Y269982D02*
Y267983D01*
Y268983D01*
X838697D01*
Y269982D01*
Y267983D01*
X843478Y269982D02*
Y267983D01*
Y268983D01*
X844811D01*
Y269982D01*
Y267983D01*
X854175Y289098D02*
Y287099D01*
Y288099D01*
X855508D01*
Y289098D01*
Y287099D01*
X856000Y306748D02*
Y304749D01*
Y305748D01*
X857333D01*
Y306748D01*
Y304749D01*
X863500Y306748D02*
Y304749D01*
Y305748D01*
X864833D01*
Y306748D01*
Y304749D01*
X848500Y306748D02*
Y304749D01*
Y305748D01*
X849833D01*
Y306748D01*
Y304749D01*
X840000Y306750D02*
Y304750D01*
Y305750D01*
X841333D01*
Y306750D01*
Y304750D01*
X906000Y307723D02*
Y305724D01*
Y306724D01*
X907333D01*
Y307723D01*
Y305724D01*
X909234Y303299D02*
Y301299D01*
Y302299D01*
X910567D01*
Y303299D01*
Y301299D01*
X713187Y163393D02*
Y161393D01*
Y162393D01*
X714520D01*
Y163393D01*
Y161393D01*
X685274Y152608D02*
Y150609D01*
Y151609D01*
X686607D01*
Y152608D01*
Y150609D01*
X681301Y152621D02*
Y150621D01*
Y151621D01*
X682634D01*
Y152621D01*
Y150621D01*
X685274Y157232D02*
Y155232D01*
Y156232D01*
X686607D01*
Y157232D01*
Y155232D01*
X681301Y157232D02*
Y155232D01*
Y156232D01*
X682634D01*
Y157232D01*
Y155232D01*
X584695Y198984D02*
Y196984D01*
Y197984D01*
X586028D01*
Y198984D01*
Y196984D01*
X794240Y701392D02*
Y699393D01*
Y700392D01*
X795573D01*
Y701392D01*
Y699393D01*
X786667Y691358D02*
Y689359D01*
Y690358D01*
X788000D01*
Y691358D01*
Y689359D01*
X790500Y692257D02*
Y690258D01*
Y691257D01*
X791833D01*
Y692257D01*
Y690258D01*
X794000Y712043D02*
Y710043D01*
Y711043D01*
X795333D01*
Y712043D01*
Y710043D01*
X790505Y712480D02*
Y710480D01*
Y711480D01*
X791837D01*
Y712480D01*
Y710480D01*
X786764Y702707D02*
Y700708D01*
Y701708D01*
X788097D01*
Y702707D01*
Y700708D01*
X899540Y655739D02*
Y653740D01*
Y654740D01*
X900873D01*
Y655739D01*
Y653740D01*
X898760Y648259D02*
Y646260D01*
Y647260D01*
X900093D01*
Y648259D01*
Y646260D01*
X890613Y651999D02*
Y650000D01*
Y651000D01*
X891946D01*
Y651999D01*
Y650000D01*
X880028Y648259D02*
Y646260D01*
Y647260D01*
X881361D01*
Y648259D01*
Y646260D01*
X880028Y655739D02*
Y653740D01*
Y654740D01*
X881361D01*
Y655739D01*
Y653740D01*
X1101750Y582885D02*
X1101084D01*
X1101417D01*
Y581219D01*
X1101084Y580886D01*
X1100750D01*
X1100417Y581219D01*
X496564Y662464D02*
Y660464D01*
Y661464D01*
X497897D01*
Y662464D01*
Y660464D01*
X493176Y600071D02*
Y598071D01*
Y599071D01*
X494509D01*
Y600071D01*
Y598071D01*
X84036Y467562D02*
Y465563D01*
Y466563D01*
X85369D01*
Y467562D01*
Y465563D01*
X94653Y472917D02*
Y470917D01*
Y471917D01*
X95986D01*
Y472917D01*
Y470917D01*
X94634Y476314D02*
Y474315D01*
Y475315D01*
X95967D01*
Y476314D01*
Y474315D01*
X122248Y480712D02*
Y478713D01*
Y479712D01*
X123581D01*
Y480712D01*
Y478713D01*
X126098Y480712D02*
Y478713D01*
Y479712D01*
X127431D01*
Y480712D01*
Y478713D01*
X122250Y476267D02*
Y474268D01*
Y475267D01*
X123582D01*
Y476267D01*
Y474268D01*
X126100Y476267D02*
Y474268D01*
Y475267D01*
X127433D01*
Y476267D01*
Y474268D01*
X179500Y519021D02*
Y517021D01*
Y518021D01*
X180833D01*
Y519021D01*
Y517021D01*
X179500Y514336D02*
Y512336D01*
Y513336D01*
X180833D01*
Y514336D01*
Y512336D01*
X179500Y528371D02*
Y526372D01*
Y527372D01*
X180833D01*
Y528371D01*
Y526372D01*
X179500Y523686D02*
Y521687D01*
Y522686D01*
X180833D01*
Y523686D01*
Y521687D01*
X77157Y542146D02*
Y540147D01*
Y541147D01*
X78490D01*
Y542146D01*
Y540147D01*
X86960Y542146D02*
Y540147D01*
Y541147D01*
X88293D01*
Y542146D01*
Y540147D01*
X95458Y542146D02*
Y540147D01*
Y541147D01*
X96791D01*
Y542146D01*
Y540147D01*
X104844Y542146D02*
Y540147D01*
Y541147D01*
X106177D01*
Y542146D01*
Y540147D01*
X115245Y542146D02*
Y540147D01*
Y541147D01*
X116577D01*
Y542146D01*
Y540147D01*
X123933Y542146D02*
Y540147D01*
Y541147D01*
X125266D01*
Y542146D01*
Y540147D01*
X133383Y542146D02*
Y540147D01*
Y541147D01*
X134716D01*
Y542146D01*
Y540147D01*
X141817Y542146D02*
Y540147D01*
Y541147D01*
X143150D01*
Y542146D01*
Y540147D01*
X150886Y542146D02*
Y540147D01*
Y541147D01*
X152219D01*
Y542146D01*
Y540147D01*
X159131Y542146D02*
Y540147D01*
Y541147D01*
X160464D01*
Y542146D01*
Y540147D01*
X167819Y542146D02*
Y540147D01*
Y541147D01*
X169152D01*
Y542146D01*
Y540147D01*
X177269Y542146D02*
Y540147D01*
Y541147D01*
X178602D01*
Y542146D01*
Y540147D01*
X186021Y542146D02*
Y540147D01*
Y541147D01*
X187354D01*
Y542146D01*
Y540147D01*
X207583Y542146D02*
Y540147D01*
Y541147D01*
X208916D01*
Y542146D01*
Y540147D01*
X140995Y530222D02*
Y528223D01*
Y529223D01*
X142327D01*
Y530222D01*
Y528223D01*
X154398Y535412D02*
Y533413D01*
Y534413D01*
X155731D01*
Y535412D01*
Y533413D01*
X139444Y520499D02*
Y518500D01*
Y519500D01*
X140777D01*
Y520499D01*
Y518500D01*
X142617Y524278D02*
Y522279D01*
Y523278D01*
X143949D01*
Y524278D01*
Y522279D01*
X148942Y523865D02*
Y521866D01*
Y522865D01*
X150274D01*
Y523865D01*
Y521866D01*
X148256Y513653D02*
Y511654D01*
Y512653D01*
X149589D01*
Y513653D01*
Y511654D01*
X154000Y508915D02*
Y506916D01*
Y507915D01*
X155333D01*
Y508915D01*
Y506916D01*
X259058Y522431D02*
Y520432D01*
Y521431D01*
X260391D01*
Y522431D01*
Y520432D01*
X252349Y525553D02*
Y523553D01*
Y524553D01*
X253682D01*
Y525553D01*
Y523553D01*
X255653Y525553D02*
Y523553D01*
Y524553D01*
X256985D01*
Y525553D01*
Y523553D01*
X259058Y525553D02*
Y523553D01*
Y524553D01*
X260391D01*
Y525553D01*
Y523553D01*
X275435Y514530D02*
Y512531D01*
Y513530D01*
X276768D01*
Y514530D01*
Y512531D01*
X279002Y508450D02*
Y506451D01*
Y507450D01*
X280335D01*
Y508450D01*
Y506451D01*
X259490Y508450D02*
Y506451D01*
Y507450D01*
X260823D01*
Y508450D01*
Y506451D01*
X263959Y514530D02*
Y512531D01*
Y513530D01*
X265292D01*
Y514530D01*
Y512531D01*
X267758Y514530D02*
Y512531D01*
Y513530D01*
X269091D01*
Y514530D01*
Y512531D01*
X271558Y514530D02*
Y512531D01*
Y513530D01*
X272891D01*
Y514530D01*
Y512531D01*
X281973Y475089D02*
Y473090D01*
Y474090D01*
X283306D01*
Y475089D01*
Y473090D01*
X272900Y460699D02*
Y458700D01*
Y459700D01*
X274233D01*
Y460699D01*
Y458700D01*
X253969Y464596D02*
Y462596D01*
Y463596D01*
X255302D01*
Y464596D01*
Y462596D01*
X267215Y460699D02*
Y458700D01*
Y459700D01*
X268548D01*
Y460699D01*
Y458700D01*
X261713Y460699D02*
Y458700D01*
Y459700D01*
X263045D01*
Y460699D01*
Y458700D01*
X256500Y460699D02*
Y458700D01*
Y459700D01*
X257833D01*
Y460699D01*
Y458700D01*
X225500Y519497D02*
Y517498D01*
Y518497D01*
X226833D01*
Y519497D01*
Y517498D01*
X215260Y488599D02*
Y486600D01*
Y487600D01*
X216593D01*
Y488599D01*
Y486600D01*
X215258Y491753D02*
Y489753D01*
Y490753D01*
X216591D01*
Y491753D01*
Y489753D01*
X218758Y491714D02*
Y489715D01*
Y490715D01*
X220091D01*
Y491714D01*
Y489715D01*
X211794Y491753D02*
Y489753D01*
Y490753D01*
X213126D01*
Y491753D01*
Y489753D01*
X206920Y495499D02*
Y493500D01*
Y494500D01*
X208253D01*
Y495499D01*
Y493500D01*
X212000Y516096D02*
Y514097D01*
Y515097D01*
X213333D01*
Y516096D01*
Y514097D01*
X212661Y467399D02*
Y465400D01*
Y466400D01*
X213994D01*
Y467399D01*
Y465400D01*
X216500Y507472D02*
Y505473D01*
Y506473D01*
X217833D01*
Y507472D01*
Y505473D01*
X210674Y485095D02*
Y483096D01*
Y484096D01*
X212007D01*
Y485095D01*
Y483096D01*
X202727Y512046D02*
Y510047D01*
Y511047D01*
X204060D01*
Y512046D01*
Y510047D01*
X197900Y498751D02*
Y496752D01*
Y497752D01*
X199233D01*
Y498751D01*
Y496752D01*
X194494Y498751D02*
Y496752D01*
Y497752D01*
X195827D01*
Y498751D01*
Y496752D01*
X191191Y495630D02*
Y493630D01*
Y494630D01*
X192524D01*
Y495630D01*
Y493630D01*
X194494Y495630D02*
Y493630D01*
Y494630D01*
X195827D01*
Y495630D01*
Y493630D01*
X197900Y495630D02*
Y493630D01*
Y494630D01*
X199233D01*
Y495630D01*
Y493630D01*
X191191Y492347D02*
Y490348D01*
Y491348D01*
X192524D01*
Y492347D01*
Y490348D01*
X194494Y492347D02*
Y490348D01*
Y491348D01*
X195827D01*
Y492347D01*
Y490348D01*
X197900Y492347D02*
Y490348D01*
Y491348D01*
X199233D01*
Y492347D01*
Y490348D01*
X191191Y498751D02*
Y496752D01*
Y497752D01*
X192524D01*
Y498751D01*
Y496752D01*
X199179Y518772D02*
Y516773D01*
Y517773D01*
X200512D01*
Y518772D01*
Y516773D01*
X194331Y509722D02*
Y507722D01*
Y508722D01*
X195664D01*
Y509722D01*
Y507722D01*
X194251Y506739D02*
Y504740D01*
Y505739D01*
X195583D01*
Y506739D01*
Y504740D01*
X188451Y502987D02*
Y500988D01*
Y501988D01*
X189784D01*
Y502987D01*
Y500988D01*
X203287Y459283D02*
Y457283D01*
Y458283D01*
X204620D01*
Y459283D01*
Y457283D01*
X198602Y459283D02*
Y457283D01*
Y458283D01*
X199935D01*
Y459283D01*
Y457283D01*
X188691Y474448D02*
Y472449D01*
Y473449D01*
X190024D01*
Y474448D01*
Y472449D01*
X203164Y468388D02*
Y466389D01*
Y467389D01*
X204497D01*
Y468388D01*
Y466389D01*
X194080Y484443D02*
Y482443D01*
Y483443D01*
X195413D01*
Y484443D01*
Y482443D01*
X188451Y488011D02*
Y486012D01*
Y487011D01*
X189784D01*
Y488011D01*
Y486012D01*
X182740Y497468D02*
Y495469D01*
Y496468D01*
X184073D01*
Y497468D01*
Y495469D01*
X430976Y688000D02*
Y686001D01*
Y687001D01*
X432309D01*
Y688000D01*
Y686001D01*
X430974Y693499D02*
Y691500D01*
Y692500D01*
X432307D01*
Y693499D01*
Y691500D01*
X456939Y687999D02*
Y686000D01*
Y687000D01*
X458272D01*
Y687999D01*
Y686000D01*
X456859Y693499D02*
Y691500D01*
Y692500D01*
X458192D01*
Y693499D01*
Y691500D01*
X545885Y604783D02*
Y602784D01*
Y603784D01*
X547218D01*
Y604783D01*
Y602784D01*
X543587Y601378D02*
Y599378D01*
Y600378D01*
X544920D01*
Y601378D01*
Y599378D01*
X541138Y598228D02*
Y596229D01*
Y597228D01*
X542471D01*
Y598228D01*
Y596229D01*
X538799Y604783D02*
Y602784D01*
Y603784D01*
X540132D01*
Y604783D01*
Y602784D01*
X536414Y601378D02*
Y599378D01*
Y600378D01*
X537747D01*
Y601378D01*
Y599378D01*
X534052Y598228D02*
Y596229D01*
Y597228D01*
X535385D01*
Y598228D01*
Y596229D01*
X531712Y604783D02*
Y602784D01*
Y603784D01*
X533045D01*
Y604783D01*
Y602784D01*
X529327Y601378D02*
Y599378D01*
Y600378D01*
X530660D01*
Y601378D01*
Y599378D01*
X526966Y598228D02*
Y596229D01*
Y597228D01*
X528299D01*
Y598228D01*
Y596229D01*
X524625Y604814D02*
Y602815D01*
Y603815D01*
X525958D01*
Y604814D01*
Y602815D01*
X522242Y601378D02*
Y599378D01*
Y600378D01*
X523575D01*
Y601378D01*
Y599378D01*
X517543Y617774D02*
Y615775D01*
Y616775D01*
X518876D01*
Y617774D01*
Y615775D01*
X481858Y605311D02*
Y603311D01*
Y604311D01*
X483191D01*
Y605311D01*
Y603311D01*
X481858Y600071D02*
Y598071D01*
Y599071D01*
X483191D01*
Y600071D01*
Y598071D01*
X500913Y600070D02*
Y598071D01*
Y599071D01*
X502246D01*
Y600070D01*
Y598071D01*
X544704Y649331D02*
Y647331D01*
Y648331D01*
X546037D01*
Y649331D01*
Y647331D01*
X537595Y649341D02*
Y647342D01*
Y648341D01*
X538928D01*
Y649341D01*
Y647342D01*
X523449Y649330D02*
Y647331D01*
Y648330D01*
X524782D01*
Y649330D01*
Y647331D01*
X490219Y662464D02*
Y660464D01*
Y661464D01*
X491552D01*
Y662464D01*
Y660464D01*
X503994Y662464D02*
Y660464D01*
Y661464D01*
X505327D01*
Y662464D01*
Y660464D01*
X237089Y249999D02*
Y248000D01*
Y249000D01*
X238422D01*
Y249999D01*
Y248000D01*
X250149Y244499D02*
Y242500D01*
Y243500D01*
X251481D01*
Y244499D01*
Y242500D01*
X291135Y243260D02*
Y241260D01*
Y242260D01*
X292468D01*
Y243260D01*
Y241260D01*
X295116Y243396D02*
Y241397D01*
Y242396D01*
X296449D01*
Y243396D01*
Y241397D01*
X275429Y231999D02*
Y230000D01*
Y231000D01*
X276762D01*
Y231999D01*
Y230000D01*
X275429Y235999D02*
Y234000D01*
Y235000D01*
X276762D01*
Y235999D01*
Y234000D01*
X279669Y241125D02*
Y239126D01*
Y240126D01*
X281002D01*
Y241125D01*
Y239126D01*
X295847Y232281D02*
Y230281D01*
Y231281D01*
X297180D01*
Y232281D01*
Y230281D01*
X294940Y228868D02*
Y226868D01*
Y227868D01*
X296273D01*
Y228868D01*
Y226868D01*
X285114Y227999D02*
Y226000D01*
Y227000D01*
X286447D01*
Y227999D01*
Y226000D01*
X285115Y235999D02*
Y234000D01*
Y235000D01*
X286448D01*
Y235999D01*
Y234000D01*
X285115Y231999D02*
Y230000D01*
Y231000D01*
X286448D01*
Y231999D01*
Y230000D01*
X219500Y391099D02*
Y389100D01*
Y390100D01*
X220833D01*
Y391099D01*
Y389100D01*
X231140Y387120D02*
Y385121D01*
Y386121D01*
X232473D01*
Y387120D01*
Y385121D01*
X238175Y382989D02*
Y380990D01*
Y381990D01*
X239508D01*
Y382989D01*
Y380990D01*
X226500Y391098D02*
Y389098D01*
Y390098D01*
X227833D01*
Y391098D01*
Y389098D01*
X212681Y373999D02*
Y372000D01*
Y373000D01*
X214014D01*
Y373999D01*
Y372000D01*
X212681Y378499D02*
Y376500D01*
Y377500D01*
X214014D01*
Y378499D01*
Y376500D01*
X212681Y382999D02*
Y381000D01*
Y382000D01*
X214014D01*
Y382999D01*
Y381000D01*
X212681Y387499D02*
Y385500D01*
Y386500D01*
X214014D01*
Y387499D01*
Y385500D01*
X207927Y385249D02*
Y383250D01*
Y384250D01*
X209260D01*
Y385249D01*
Y383250D01*
X260500Y403818D02*
Y401819D01*
Y402818D01*
X261833D01*
Y403818D01*
Y401819D01*
X256000Y403818D02*
Y401819D01*
Y402818D01*
X257333D01*
Y403818D01*
Y401819D01*
X251500Y403818D02*
Y401819D01*
Y402818D01*
X252833D01*
Y403818D01*
Y401819D01*
X247000Y403818D02*
Y401819D01*
Y402818D01*
X248333D01*
Y403818D01*
Y401819D01*
X242500Y403818D02*
Y401819D01*
Y402818D01*
X243833D01*
Y403818D01*
Y401819D01*
X238000Y403818D02*
Y401819D01*
Y402818D01*
X239333D01*
Y403818D01*
Y401819D01*
X243839Y378031D02*
Y376032D01*
Y377031D01*
X245172D01*
Y378031D01*
Y376032D01*
X248103Y378031D02*
Y376032D01*
Y377031D01*
X249435D01*
Y378031D01*
Y376032D01*
X252453Y373716D02*
Y371717D01*
Y372716D01*
X253786D01*
Y373716D01*
Y371717D01*
X252453Y378031D02*
Y376032D01*
Y377031D01*
X253786D01*
Y378031D01*
Y376032D01*
X252453Y369561D02*
Y367562D01*
Y368561D01*
X253786D01*
Y369561D01*
Y367562D01*
X246500Y356499D02*
Y354500D01*
Y355500D01*
X247833D01*
Y356499D01*
Y354500D01*
X243071Y385921D02*
Y383922D01*
Y384922D01*
X244404D01*
Y385921D01*
Y383922D01*
X278099Y382749D02*
Y380750D01*
Y381750D01*
X279432D01*
Y382749D01*
Y380750D01*
X275307Y375999D02*
Y374000D01*
Y375000D01*
X276640D01*
Y375999D01*
Y374000D01*
X275307Y371499D02*
Y369500D01*
Y370500D01*
X276640D01*
Y371499D01*
Y369500D01*
X257228Y360486D02*
Y358487D01*
Y359486D01*
X258561D01*
Y360486D01*
Y358487D01*
X267000Y360947D02*
Y358948D01*
Y359947D01*
X268333D01*
Y360947D01*
Y358948D01*
X272500Y360947D02*
Y358948D01*
Y359947D01*
X273833D01*
Y360947D01*
Y358948D01*
X278500Y360947D02*
Y358948D01*
Y359947D01*
X279833D01*
Y360947D01*
Y358948D01*
X254232Y322950D02*
Y320951D01*
Y321950D01*
X255565D01*
Y322950D01*
Y320951D01*
X250768Y322950D02*
Y320951D01*
Y321950D01*
X252101D01*
Y322950D01*
Y320951D01*
X261788Y338999D02*
Y337000D01*
Y338000D01*
X263120D01*
Y338999D01*
Y337000D01*
X243126Y338999D02*
Y337000D01*
Y338000D01*
X244459D01*
Y338999D01*
Y337000D01*
X224000Y343199D02*
Y341200D01*
Y342200D01*
X225333D01*
Y343199D01*
Y341200D01*
X229500Y344772D02*
Y342773D01*
Y343772D01*
X230833D01*
Y344772D01*
Y342773D01*
X234500Y349243D02*
Y347243D01*
Y348243D01*
X235833D01*
Y349243D01*
Y347243D01*
X248103Y373716D02*
Y371717D01*
Y372716D01*
X249435D01*
Y373716D01*
Y371717D01*
X243839Y373716D02*
Y371717D01*
Y372716D01*
X245172D01*
Y373716D01*
Y371717D01*
X248103Y369561D02*
Y367562D01*
Y368561D01*
X249435D01*
Y369561D01*
Y367562D01*
X243839Y369561D02*
Y367562D01*
Y368561D01*
X245172D01*
Y369561D01*
Y367562D01*
X874483Y598281D02*
Y596281D01*
Y597281D01*
X875816D01*
Y598281D01*
Y596281D01*
X881732Y598899D02*
Y596899D01*
Y597899D01*
X883065D01*
Y598899D01*
Y596899D01*
X896000Y620438D02*
Y618439D01*
Y619438D01*
X897333D01*
Y620438D01*
Y618439D01*
X890325Y624740D02*
Y622741D01*
Y623741D01*
X891658D01*
Y624740D01*
Y622741D01*
X899946Y613267D02*
Y611268D01*
Y612267D01*
X901279D01*
Y613267D01*
Y611268D01*
X961106Y657299D02*
Y655300D01*
Y656300D01*
X962439D01*
Y657299D01*
Y655300D01*
X952000Y682399D02*
Y680400D01*
Y681400D01*
X953333D01*
Y682399D01*
Y680400D01*
X918193Y658759D02*
Y656760D01*
Y657760D01*
X919526D01*
Y658759D01*
Y656760D01*
X922793Y658759D02*
Y656760D01*
Y657760D01*
X924126D01*
Y658759D01*
Y656760D01*
X935728Y664999D02*
Y663000D01*
Y664000D01*
X937061D01*
Y664999D01*
Y663000D01*
X940100Y680362D02*
Y678362D01*
Y679362D01*
X941433D01*
Y680362D01*
Y678362D01*
X943017Y699255D02*
Y697256D01*
Y698256D01*
X944349D01*
Y699255D01*
Y697256D01*
X939000Y702851D02*
Y700851D01*
Y701851D01*
X940333D01*
Y702851D01*
Y700851D01*
X910109Y689758D02*
Y687758D01*
Y688758D01*
X911442D01*
Y689758D01*
Y687758D01*
X914709Y689758D02*
Y687758D01*
Y688758D01*
X916042D01*
Y689758D01*
Y687758D01*
X898248Y679224D02*
Y677224D01*
Y678224D01*
X899581D01*
Y679224D01*
Y677224D01*
X893917Y679224D02*
Y677224D01*
Y678224D01*
X895250D01*
Y679224D01*
Y677224D01*
X885256Y679224D02*
Y677224D01*
Y678224D01*
X886589D01*
Y679224D01*
Y677224D01*
X872264Y679224D02*
Y677224D01*
Y678224D01*
X873597D01*
Y679224D01*
Y677224D01*
X902579Y679224D02*
Y677224D01*
Y678224D01*
X903912D01*
Y679224D01*
Y677224D01*
X880925Y679224D02*
Y677224D01*
Y678224D01*
X882258D01*
Y679224D01*
Y677224D01*
X876595Y679224D02*
Y677224D01*
Y678224D01*
X877927D01*
Y679224D01*
Y677224D01*
X911450Y673495D02*
Y671496D01*
Y672496D01*
X912783D01*
Y673495D01*
Y671496D01*
X917067Y667174D02*
Y665175D01*
Y666174D01*
X918400D01*
Y667174D01*
Y665175D01*
X922359Y673495D02*
Y671496D01*
Y672496D01*
X923692D01*
Y673495D01*
Y671496D01*
X911450Y706173D02*
Y704173D01*
Y705173D01*
X912783D01*
Y706173D01*
Y704173D01*
X917067Y699851D02*
Y697852D01*
Y698852D01*
X918400D01*
Y699851D01*
Y697852D01*
X922359Y706173D02*
Y704173D01*
Y705173D01*
X923692D01*
Y706173D01*
Y704173D01*
X857317Y673495D02*
Y671496D01*
Y672496D01*
X858650D01*
Y673495D01*
Y671496D01*
X862933Y667174D02*
Y665175D01*
Y666174D01*
X864266D01*
Y667174D01*
Y665175D01*
X868225Y673495D02*
Y671496D01*
Y672496D01*
X869558D01*
Y673495D01*
Y671496D01*
X868225Y706173D02*
Y704173D01*
Y705173D01*
X869558D01*
Y706173D01*
Y704173D01*
X862933Y699851D02*
Y697852D01*
Y698852D01*
X864266D01*
Y699851D01*
Y697852D01*
X857317Y706173D02*
Y704173D01*
Y705173D01*
X858650D01*
Y706173D01*
Y704173D01*
X726578Y649331D02*
Y647331D01*
Y648331D01*
X727911D01*
Y649331D01*
Y647331D01*
X717133Y649331D02*
Y647331D01*
Y648331D01*
X718466D01*
Y649331D01*
Y647331D01*
X743094Y637754D02*
Y635754D01*
Y636754D01*
X744427D01*
Y637754D01*
Y635754D01*
X738389Y649084D02*
Y647085D01*
Y648085D01*
X739722D01*
Y649084D01*
Y647085D01*
X748722Y659606D02*
Y657606D01*
Y658606D01*
X750055D01*
Y659606D01*
Y657606D01*
X761450Y659606D02*
Y657606D01*
Y658606D01*
X762783D01*
Y659606D01*
Y657606D01*
X755479Y659606D02*
Y657606D01*
Y658606D01*
X756812D01*
Y659606D01*
Y657606D01*
X745453Y650326D02*
Y648327D01*
Y649327D01*
X746786D01*
Y650326D01*
Y648327D01*
X700575Y653043D02*
Y651043D01*
Y652043D01*
X701908D01*
Y653043D01*
Y651043D01*
X779750Y712499D02*
Y710500D01*
Y711500D01*
X781083D01*
Y712499D01*
Y710500D01*
X779750Y706499D02*
Y704500D01*
Y705500D01*
X781083D01*
Y706499D01*
Y704500D01*
X779750Y700499D02*
Y698500D01*
Y699500D01*
X781083D01*
Y700499D01*
Y698500D01*
X777083Y709499D02*
Y707500D01*
Y708500D01*
X778416D01*
Y709499D01*
Y707500D01*
X777459Y715499D02*
Y713500D01*
Y714500D01*
X778792D01*
Y715499D01*
Y713500D01*
X798500Y730936D02*
Y728937D01*
Y729937D01*
X799833D01*
Y730936D01*
Y728937D01*
X774055Y730937D02*
Y728938D01*
Y729938D01*
X775388D01*
Y730937D01*
Y728938D01*
X802327Y690503D02*
Y688504D01*
Y689504D01*
X803660D01*
Y690503D01*
Y688504D01*
X802327Y698377D02*
Y696378D01*
Y697378D01*
X803660D01*
Y698377D01*
Y696378D01*
X802327Y706251D02*
Y704252D01*
Y705252D01*
X803660D01*
Y706251D01*
Y704252D01*
X797604Y677148D02*
Y675149D01*
Y676149D01*
X798937D01*
Y677148D01*
Y675149D01*
X834445Y714125D02*
Y712126D01*
Y713126D01*
X835778D01*
Y714125D01*
Y712126D01*
X834445Y706251D02*
Y704252D01*
Y705252D01*
X835778D01*
Y706251D01*
Y704252D01*
X834445Y698377D02*
Y696378D01*
Y697378D01*
X835778D01*
Y698377D01*
Y696378D01*
X834445Y690503D02*
Y688504D01*
Y689504D01*
X835778D01*
Y690503D01*
Y688504D01*
X834445Y682629D02*
Y680630D01*
Y681630D01*
X835778D01*
Y682629D01*
Y680630D01*
X834445Y674755D02*
Y672756D01*
Y673756D01*
X835778D01*
Y674755D01*
Y672756D01*
X787000Y641405D02*
Y639406D01*
Y640405D01*
X788333D01*
Y641405D01*
Y639406D01*
X943779Y475472D02*
Y473472D01*
Y474472D01*
X945112D01*
Y475472D01*
Y473472D01*
X970823Y475472D02*
Y473472D01*
Y474472D01*
X972156D01*
Y475472D01*
Y473472D01*
X994098Y518492D02*
Y516492D01*
Y517492D01*
X995431D01*
Y518492D01*
Y516492D01*
X957938Y524695D02*
Y522695D01*
Y523695D01*
X959271D01*
Y524695D01*
Y522695D01*
X960725Y527949D02*
Y525950D01*
Y526949D01*
X962058D01*
Y527949D01*
Y525950D01*
X957780Y521053D02*
Y519054D01*
Y520053D01*
X959113D01*
Y521053D01*
Y519054D01*
X967787Y518463D02*
Y516463D01*
Y517463D01*
X969120D01*
Y518463D01*
Y516463D01*
X972995Y518499D02*
Y516500D01*
Y517500D01*
X974328D01*
Y518499D01*
Y516500D01*
X975638Y514499D02*
Y512500D01*
Y513500D01*
X976971D01*
Y514499D01*
Y512500D01*
X972937Y510499D02*
Y508500D01*
Y509500D01*
X974270D01*
Y510499D01*
Y508500D01*
X976008Y506499D02*
Y504500D01*
Y505500D01*
X977341D01*
Y506499D01*
Y504500D01*
X972937Y502499D02*
Y500500D01*
Y501500D01*
X974270D01*
Y502499D01*
Y500500D01*
X964622Y493098D02*
Y491098D01*
Y492098D01*
X965955D01*
Y493098D01*
Y491098D01*
X961000Y495599D02*
Y493600D01*
Y494600D01*
X962333D01*
Y495599D01*
Y493600D01*
X882398Y500399D02*
Y498400D01*
Y499400D01*
X883731D01*
Y500399D01*
Y498400D01*
X958166Y493134D02*
Y491134D01*
Y492134D01*
X959499D01*
Y493134D01*
Y491134D01*
X955898Y500399D02*
Y498400D01*
Y499400D01*
X957230D01*
Y500399D01*
Y498400D01*
X953000Y494399D02*
Y492400D01*
Y493400D01*
X954333D01*
Y494399D01*
Y492400D01*
X949000Y490901D02*
Y488902D01*
Y489901D01*
X950333D01*
Y490901D01*
Y488902D01*
X920250Y521499D02*
Y519500D01*
Y520500D01*
X921583D01*
Y521499D01*
Y519500D01*
X920252Y497395D02*
Y495395D01*
Y496395D01*
X921585D01*
Y497395D01*
Y495395D01*
X938760Y509499D02*
Y507500D01*
Y508500D01*
X940093D01*
Y509499D01*
Y507500D01*
X941536Y506614D02*
Y504615D01*
Y505614D01*
X942869D01*
Y506614D01*
Y504615D01*
X937544Y503929D02*
Y501930D01*
Y502930D01*
X938877D01*
Y503929D01*
Y501930D01*
X884304Y525225D02*
Y523226D01*
Y524226D01*
X885637D01*
Y525225D01*
Y523226D01*
X886544Y527643D02*
Y525643D01*
Y526643D01*
X887877D01*
Y527643D01*
Y525643D01*
X884455Y521319D02*
Y519320D01*
Y520319D01*
X885787D01*
Y521319D01*
Y519320D01*
X877333Y524575D02*
Y522576D01*
Y523575D01*
X878666D01*
Y524575D01*
Y522576D01*
X894626Y518344D02*
Y516345D01*
Y517345D01*
X895959D01*
Y518344D01*
Y516345D01*
X896753Y514717D02*
Y512717D01*
Y513717D01*
X898086D01*
Y514717D01*
Y512717D01*
X902910Y512079D02*
Y510079D01*
Y511079D01*
X904243D01*
Y512079D01*
Y510079D01*
X895217Y509378D02*
Y507379D01*
Y508378D01*
X896550D01*
Y509378D01*
Y507379D01*
X899009Y506374D02*
Y504375D01*
Y505374D01*
X900342D01*
Y506374D01*
Y504375D01*
X893985Y503362D02*
Y501363D01*
Y502363D01*
X895318D01*
Y503362D01*
Y501363D01*
X846382Y520999D02*
Y519000D01*
Y520000D01*
X847715D01*
Y520999D01*
Y519000D01*
X846382Y516865D02*
Y514866D01*
Y515866D01*
X847715D01*
Y516865D01*
Y514866D01*
X864009Y516941D02*
Y514941D01*
Y515941D01*
X865341D01*
Y516941D01*
Y514941D01*
X866950Y514795D02*
Y512796D01*
Y513795D01*
X868283D01*
Y514795D01*
Y512796D01*
X863911Y512079D02*
Y510079D01*
Y511079D01*
X865244D01*
Y512079D01*
Y510079D01*
X867206Y509527D02*
Y507528D01*
Y508528D01*
X868538D01*
Y509527D01*
Y507528D01*
X867237Y504582D02*
Y502583D01*
Y503583D01*
X868570D01*
Y504582D01*
Y502583D01*
X906855Y475752D02*
Y473753D01*
Y474753D01*
X908188D01*
Y475752D01*
Y473753D01*
X906860Y472115D02*
Y470115D01*
Y471115D01*
X908193D01*
Y472115D01*
Y470115D01*
X891122Y493098D02*
Y491098D01*
Y492098D01*
X892455D01*
Y493098D01*
Y491098D01*
X887500Y495599D02*
Y493600D01*
Y494600D01*
X888833D01*
Y495599D01*
Y493600D01*
X884700Y493099D02*
Y491100D01*
Y492100D01*
X886033D01*
Y493099D01*
Y491100D01*
X879500Y494399D02*
Y492400D01*
Y493400D01*
X880833D01*
Y494399D01*
Y492400D01*
X877000Y490899D02*
Y488900D01*
Y489900D01*
X878333D01*
Y490899D01*
Y488900D01*
X738728Y314248D02*
Y312249D01*
Y313249D01*
X740061D01*
Y314248D01*
Y312249D01*
X727724Y300991D02*
Y298992D01*
Y299991D01*
X729057D01*
Y300991D01*
Y298992D01*
X755900Y341177D02*
Y339177D01*
Y340177D01*
X757233D01*
Y341177D01*
Y339177D01*
X759868Y341177D02*
Y339177D01*
Y340177D01*
X761201D01*
Y341177D01*
Y339177D01*
X751565Y341177D02*
Y339177D01*
Y340177D01*
X752898D01*
Y341177D01*
Y339177D01*
X737500Y348440D02*
Y346441D01*
Y347441D01*
X738833D01*
Y348440D01*
Y346441D01*
X742500Y348440D02*
Y346441D01*
Y347441D01*
X743833D01*
Y348440D01*
Y346441D01*
X747500Y348441D02*
Y346441D01*
Y347441D01*
X748833D01*
Y348441D01*
Y346441D01*
X743104Y331220D02*
Y329220D01*
Y330220D01*
X744437D01*
Y331220D01*
Y329220D01*
X725839Y346094D02*
Y344095D01*
Y345095D01*
X727172D01*
Y346094D01*
Y344095D01*
X705026Y393909D02*
Y391910D01*
Y392909D01*
X706359D01*
Y393909D01*
Y391910D01*
X709842Y393220D02*
Y391221D01*
Y392221D01*
X711175D01*
Y393220D01*
Y391221D01*
X707430Y389388D02*
Y387389D01*
Y388388D01*
X708763D01*
Y389388D01*
Y387389D01*
X712050Y389405D02*
Y387406D01*
Y388406D01*
X713383D01*
Y389405D01*
Y387406D01*
X705841Y376913D02*
Y374914D01*
Y375914D01*
X707174D01*
Y376913D01*
Y374914D01*
X709778Y376866D02*
Y374867D01*
Y375866D01*
X711111D01*
Y376866D01*
Y374867D01*
X715683Y376943D02*
Y374944D01*
Y375944D01*
X717016D01*
Y376943D01*
Y374944D01*
X707809Y374328D02*
Y372329D01*
Y373329D01*
X709142D01*
Y374328D01*
Y372329D01*
X690499Y411485D02*
Y409486D01*
Y410486D01*
X691832D01*
Y411485D01*
Y409486D01*
X695499Y411485D02*
Y409486D01*
Y410486D01*
X696832D01*
Y411485D01*
Y409486D01*
X696071Y387468D02*
Y385468D01*
Y386468D01*
X697404D01*
Y387468D01*
Y385468D01*
X674616Y371684D02*
Y369685D01*
Y370685D01*
X675949D01*
Y371684D01*
Y369685D01*
X663000Y374271D02*
Y372272D01*
Y373271D01*
X664333D01*
Y374271D01*
Y372272D01*
X644441Y368846D02*
Y366846D01*
Y367846D01*
X645774D01*
Y368846D01*
Y366846D01*
X673951Y359873D02*
Y357874D01*
Y358874D01*
X675284D01*
Y359873D01*
Y357874D01*
X676331Y356793D02*
Y354794D01*
Y355793D01*
X677664D01*
Y356793D01*
Y354794D01*
X674449Y353968D02*
Y351969D01*
Y352968D01*
X675782D01*
Y353968D01*
Y351969D01*
X641539Y355999D02*
Y354000D01*
Y355000D01*
X642872D01*
Y355999D01*
Y354000D01*
X637458Y353499D02*
Y351500D01*
Y352500D01*
X638791D01*
Y353499D01*
Y351500D01*
X641539Y350999D02*
Y349000D01*
Y350000D01*
X642872D01*
Y350999D01*
Y349000D01*
X641539Y346000D02*
Y344001D01*
Y345001D01*
X642872D01*
Y346000D01*
Y344001D01*
X637441Y348499D02*
Y346500D01*
Y347500D01*
X638774D01*
Y348499D01*
Y346500D01*
X641539Y341123D02*
Y339124D01*
Y340123D01*
X642872D01*
Y341123D01*
Y339124D01*
X637441Y338499D02*
Y336500D01*
Y337500D01*
X638774D01*
Y338499D01*
Y336500D01*
X641539Y335998D02*
Y333999D01*
Y334999D01*
X642872D01*
Y335998D01*
Y333999D01*
X641539Y330999D02*
Y329000D01*
Y330000D01*
X642872D01*
Y330999D01*
Y329000D01*
X641316Y325999D02*
Y324000D01*
Y325000D01*
X642649D01*
Y325999D01*
Y324000D01*
X637441Y328499D02*
Y326500D01*
Y327500D01*
X638774D01*
Y328499D01*
Y326500D01*
X644495Y312663D02*
Y310664D01*
Y311663D01*
X645828D01*
Y312663D01*
Y310664D01*
X666855Y318932D02*
Y316932D01*
Y317932D01*
X668188D01*
Y318932D01*
Y316932D01*
X690000Y288861D02*
Y286862D01*
Y287862D01*
X691333D01*
Y288861D01*
Y286862D01*
X695000Y288861D02*
Y286862D01*
Y287862D01*
X696333D01*
Y288861D01*
Y286862D01*
X700000Y288861D02*
Y286862D01*
Y287862D01*
X701333D01*
Y288861D01*
Y286862D01*
X705000Y288861D02*
Y286862D01*
Y287862D01*
X706333D01*
Y288861D01*
Y286862D01*
X712500Y292838D02*
Y290839D01*
Y291838D01*
X713833D01*
Y292838D01*
Y290839D01*
X715185Y295419D02*
Y293419D01*
Y294419D01*
X716518D01*
Y295419D01*
Y293419D01*
X707500Y292838D02*
Y290839D01*
Y291838D01*
X708833D01*
Y292838D01*
Y290839D01*
X702500Y292838D02*
Y290839D01*
Y291838D01*
X703833D01*
Y292838D01*
Y290839D01*
X697500Y292838D02*
Y290839D01*
Y291838D01*
X698833D01*
Y292838D01*
Y290839D01*
X692500Y292838D02*
Y290839D01*
Y291838D01*
X693833D01*
Y292838D01*
Y290839D01*
X687500Y292838D02*
Y290839D01*
Y291838D01*
X688833D01*
Y292838D01*
Y290839D01*
X682500Y292838D02*
Y290839D01*
Y291838D01*
X683833D01*
Y292838D01*
Y290839D01*
X677500Y292838D02*
Y290839D01*
Y291838D01*
X678833D01*
Y292838D01*
Y290839D01*
X672500Y292838D02*
Y290839D01*
Y291838D01*
X673833D01*
Y292838D01*
Y290839D01*
X667500Y292838D02*
Y290839D01*
Y291838D01*
X668833D01*
Y292838D01*
Y290839D01*
X703937Y325839D02*
Y323840D01*
Y324840D01*
X705270D01*
Y325839D01*
Y323840D01*
X330256Y237976D02*
Y235976D01*
Y236976D01*
X331588D01*
Y237976D01*
Y235976D01*
X332551Y274267D02*
Y272268D01*
Y273267D01*
X333884D01*
Y274267D01*
Y272268D01*
X332608Y277732D02*
Y275732D01*
Y276732D01*
X333941D01*
Y277732D01*
Y275732D01*
X329500Y281076D02*
Y279077D01*
Y280077D01*
X330833D01*
Y281076D01*
Y279077D01*
X499465Y518554D02*
Y516555D01*
Y517555D01*
X500798D01*
Y518554D01*
Y516555D01*
X487762Y507690D02*
Y505690D01*
Y506690D01*
X489095D01*
Y507690D01*
Y505690D01*
X507660Y525444D02*
Y523445D01*
Y524445D01*
X508993D01*
Y525444D01*
Y523445D01*
X499302Y525581D02*
Y523582D01*
Y524582D01*
X500635D01*
Y525581D01*
Y523582D01*
X507920Y540699D02*
Y538700D01*
Y539700D01*
X509253D01*
Y540699D01*
Y538700D01*
X511200Y540699D02*
Y538700D01*
Y539700D01*
X512533D01*
Y540699D01*
Y538700D01*
X494507Y541499D02*
Y539500D01*
Y540500D01*
X495840D01*
Y541499D01*
Y539500D01*
X482922Y514534D02*
Y512535D01*
Y513534D01*
X484255D01*
Y514534D01*
Y512535D01*
X484455Y517311D02*
Y515312D01*
Y516311D01*
X485788D01*
Y517311D01*
Y515312D01*
X466969Y526972D02*
Y524973D01*
Y525972D01*
X468302D01*
Y526972D01*
Y524973D01*
X466969Y530382D02*
Y528383D01*
Y529383D01*
X468302D01*
Y530382D01*
Y528383D01*
X474000Y524399D02*
Y522400D01*
Y523400D01*
X475333D01*
Y524399D01*
Y522400D01*
X464590Y540232D02*
Y538232D01*
Y539232D01*
X465923D01*
Y540232D01*
Y538232D01*
X491657Y538734D02*
Y536735D01*
Y537735D01*
X492990D01*
Y538734D01*
Y536735D01*
X410701Y196699D02*
Y194700D01*
Y195700D01*
X412034D01*
Y196699D01*
Y194700D01*
X410701Y208299D02*
Y206299D01*
Y207299D01*
X412034D01*
Y208299D01*
Y206299D01*
X94232Y113299D02*
Y111300D01*
Y112300D01*
X95565D01*
Y113299D01*
Y111300D01*
X82768Y113299D02*
Y111300D01*
Y112300D01*
X84101D01*
Y113299D01*
Y111300D01*
X156732Y113299D02*
Y111300D01*
Y112300D01*
X158065D01*
Y113299D01*
Y111300D01*
X145268Y113299D02*
Y111300D01*
Y112300D01*
X146601D01*
Y113299D01*
Y111300D01*
X219232Y113299D02*
Y111300D01*
Y112300D01*
X220565D01*
Y113299D01*
Y111300D01*
X207768Y113299D02*
Y111300D01*
Y112300D01*
X209101D01*
Y113299D01*
Y111300D01*
X281732Y113299D02*
Y111300D01*
Y112300D01*
X283065D01*
Y113299D01*
Y111300D01*
X270268Y113299D02*
Y111300D01*
Y112300D01*
X271601D01*
Y113299D01*
Y111300D01*
X344232Y113299D02*
Y111300D01*
Y112300D01*
X345565D01*
Y113299D01*
Y111300D01*
X332768Y113299D02*
Y111300D01*
Y112300D01*
X334101D01*
Y113299D01*
Y111300D01*
X406732Y113299D02*
Y111300D01*
Y112300D01*
X408065D01*
Y113299D01*
Y111300D01*
X395268Y113299D02*
Y111300D01*
Y112300D01*
X396601D01*
Y113299D01*
Y111300D01*
X469232Y113299D02*
Y111300D01*
Y112300D01*
X470565D01*
Y113299D01*
Y111300D01*
X457768Y113299D02*
Y111300D01*
Y112300D01*
X459101D01*
Y113299D01*
Y111300D01*
X520268Y113299D02*
Y111300D01*
Y112300D01*
X521601D01*
Y113299D01*
Y111300D01*
X531732Y113299D02*
Y111300D01*
Y112300D01*
X533065D01*
Y113299D01*
Y111300D01*
X1119502Y639297D02*
Y637298D01*
Y638298D01*
X1120835D01*
Y639297D01*
Y637298D01*
X1137897Y626999D02*
Y625000D01*
Y626000D01*
X1139229D01*
Y626999D01*
Y625000D01*
X1141268Y623728D02*
Y621728D01*
Y622728D01*
X1142601D01*
Y623728D01*
Y621728D01*
X1152897Y626999D02*
Y625000D01*
Y626000D01*
X1154230D01*
Y626999D01*
Y625000D01*
X1156268Y623728D02*
Y621728D01*
Y622728D01*
X1157601D01*
Y623728D01*
Y621728D01*
X1167897Y626999D02*
Y625000D01*
Y626000D01*
X1169230D01*
Y626999D01*
Y625000D01*
X1171268Y623728D02*
Y621728D01*
Y622728D01*
X1172601D01*
Y623728D01*
Y621728D01*
X1186268Y623728D02*
Y621728D01*
Y622728D01*
X1187601D01*
Y623728D01*
Y621728D01*
X1182897Y626999D02*
Y625000D01*
Y626000D01*
X1184229D01*
Y626999D01*
Y625000D01*
X1133996Y633283D02*
Y631284D01*
Y632283D01*
X1135329D01*
Y633283D01*
Y631284D01*
X1148996Y633283D02*
Y631284D01*
Y632283D01*
X1150329D01*
Y633283D01*
Y631284D01*
X1163996Y633283D02*
Y631284D01*
Y632283D01*
X1165329D01*
Y633283D01*
Y631284D01*
X1178996Y633283D02*
Y631284D01*
Y632283D01*
X1180329D01*
Y633283D01*
Y631284D01*
X1083709Y623985D02*
Y621985D01*
Y622985D01*
X1085042D01*
Y623985D01*
Y621985D01*
X1083886Y540105D02*
Y538105D01*
Y539105D01*
X1085219D01*
Y540105D01*
Y538105D01*
X1117000Y605597D02*
Y603597D01*
Y604597D01*
X1118333D01*
Y605597D01*
Y603597D01*
X1112875Y601455D02*
Y599456D01*
Y600456D01*
X1114208D01*
Y601455D01*
Y599456D01*
X1111153Y552444D02*
Y550444D01*
Y551444D01*
X1112486D01*
Y552444D01*
Y550444D01*
X1116929Y547751D02*
Y545752D01*
Y546751D01*
X1118262D01*
Y547751D01*
Y545752D01*
X1103300Y641243D02*
Y639244D01*
Y640244D01*
X1104633D01*
Y641243D01*
Y639244D01*
X1103300Y646755D02*
Y644756D01*
Y645756D01*
X1104633D01*
Y646755D01*
Y644756D01*
X1107000Y649999D02*
Y648000D01*
Y649000D01*
X1108333D01*
Y649999D01*
Y648000D01*
X1125000Y652499D02*
Y650500D01*
Y651500D01*
X1126333D01*
Y652499D01*
Y650500D01*
X1121300Y649255D02*
Y647256D01*
Y648256D01*
X1122633D01*
Y649255D01*
Y647256D01*
X1183000Y455400D02*
Y457000D01*
X1184600D01*
Y455400D01*
X1183000D01*
X1168000Y176999D02*
Y175000D01*
Y176000D01*
X1169333D01*
Y176999D01*
Y175000D01*
X1162000Y224499D02*
Y222500D01*
Y223500D01*
X1163333D01*
Y224499D01*
Y222500D01*
X1168000Y214499D02*
Y212500D01*
Y213500D01*
X1169333D01*
Y214499D01*
Y212500D01*
X1162000Y166999D02*
Y165000D01*
Y166000D01*
X1163333D01*
Y166999D01*
Y165000D01*
X1168000Y91999D02*
Y90000D01*
Y91000D01*
X1169333D01*
Y91999D01*
Y90000D01*
X1162000Y101999D02*
Y100000D01*
Y101000D01*
X1163333D01*
Y101999D01*
Y100000D01*
X1209500Y653999D02*
Y652000D01*
Y653000D01*
X1210833D01*
Y653999D01*
Y652000D01*
X1209500Y650099D02*
Y648100D01*
Y649100D01*
X1210833D01*
Y650099D01*
Y648100D01*
X1209500Y627699D02*
Y625700D01*
Y626700D01*
X1210833D01*
Y627699D01*
Y625700D01*
X1209500Y633999D02*
Y632000D01*
Y633000D01*
X1210833D01*
Y633999D01*
Y632000D01*
X1209500Y640499D02*
Y638500D01*
Y639500D01*
X1210833D01*
Y640499D01*
Y638500D01*
X1205000Y641604D02*
Y639604D01*
Y640604D01*
X1206333D01*
Y641604D01*
Y639604D01*
X1198252Y624499D02*
Y622500D01*
Y623500D01*
X1199585D01*
Y624499D01*
Y622500D01*
X1198154Y642699D02*
Y640700D01*
Y641700D01*
X1199487D01*
Y642699D01*
Y640700D01*
X1219400Y665118D02*
Y663118D01*
Y664118D01*
X1220733D01*
Y665118D01*
Y663118D01*
X455200Y251999D02*
Y250000D01*
Y251000D01*
X456533D01*
Y251999D01*
Y250000D01*
X434300Y217071D02*
Y215072D01*
Y216071D01*
X435633D01*
Y217071D01*
Y215072D01*
X436000Y197999D02*
Y196000D01*
Y197000D01*
X437333D01*
Y197999D01*
Y196000D01*
X442665Y186499D02*
Y184500D01*
Y185500D01*
X443998D01*
Y186499D01*
Y184500D01*
X407700Y200499D02*
Y198500D01*
Y199500D01*
X409033D01*
Y200499D01*
Y198500D01*
X407700Y204499D02*
Y202500D01*
Y203500D01*
X409033D01*
Y204499D01*
Y202500D01*
X425300Y200499D02*
Y198500D01*
Y199500D01*
X426633D01*
Y200499D01*
Y198500D01*
X425300Y204499D02*
Y202500D01*
Y203500D01*
X426633D01*
Y204499D01*
Y202500D01*
X402500Y202499D02*
Y200500D01*
Y201500D01*
X403833D01*
Y202499D01*
Y200500D01*
X443461Y208799D02*
Y206800D01*
Y207800D01*
X444794D01*
Y208799D01*
Y206800D01*
X451661Y195499D02*
Y193500D01*
Y194500D01*
X452994D01*
Y195499D01*
Y193500D01*
X473700Y202599D02*
Y200600D01*
Y201600D01*
X475033D01*
Y202599D01*
Y200600D01*
X474000Y192899D02*
Y190900D01*
Y191900D01*
X475333D01*
Y192899D01*
Y190900D01*
X470500Y194799D02*
Y192800D01*
Y193800D01*
X471833D01*
Y194799D01*
Y192800D01*
X453400Y209638D02*
Y207639D01*
Y208638D01*
X454733D01*
Y209638D01*
Y207639D01*
X453400Y205438D02*
Y203439D01*
Y204438D01*
X454733D01*
Y205438D01*
Y203439D01*
X457600Y209638D02*
Y207639D01*
Y208638D01*
X458933D01*
Y209638D01*
Y207639D01*
X457600Y205438D02*
Y203439D01*
Y204438D01*
X458933D01*
Y205438D01*
Y203439D01*
X1106732Y26467D02*
Y24468D01*
Y25467D01*
X1108065D01*
Y26467D01*
Y24468D01*
X1073332Y26467D02*
Y24468D01*
Y25467D01*
X1074665D01*
Y26467D01*
Y24468D01*
X89000Y42099D02*
Y40100D01*
Y41100D01*
X90333D01*
Y42099D01*
Y40100D01*
X80800Y26499D02*
Y24500D01*
Y25500D01*
X82133D01*
Y26499D01*
Y24500D01*
X114200Y26499D02*
Y24500D01*
Y25500D01*
X115533D01*
Y26499D01*
Y24500D01*
X82000Y54999D02*
Y53000D01*
Y54000D01*
X83333D01*
Y54999D01*
Y53000D01*
X101800Y75799D02*
Y73800D01*
Y74800D01*
X103133D01*
Y75799D01*
Y73800D01*
X105500Y75799D02*
Y73800D01*
Y74800D01*
X106833D01*
Y75799D01*
Y73800D01*
X95000Y79399D02*
Y77400D01*
Y78400D01*
X96333D01*
Y79399D01*
Y77400D01*
X91600Y66399D02*
Y64400D01*
Y65400D01*
X92933D01*
Y66399D01*
Y64400D01*
X95800Y66399D02*
Y64400D01*
Y65400D01*
X97133D01*
Y66399D01*
Y64400D01*
X86500Y29899D02*
Y27900D01*
Y28900D01*
X87833D01*
Y29899D01*
Y27900D01*
X91600Y70599D02*
Y68600D01*
Y69600D01*
X92933D01*
Y70599D01*
Y68600D01*
X95800Y70599D02*
Y68600D01*
Y69600D01*
X97133D01*
Y70599D01*
Y68600D01*
X526500Y42099D02*
Y40100D01*
Y41100D01*
X527833D01*
Y42099D01*
Y40100D01*
X518300Y26499D02*
Y24500D01*
Y25500D01*
X519633D01*
Y26499D01*
Y24500D01*
X551700Y26499D02*
Y24500D01*
Y25500D01*
X553033D01*
Y26499D01*
Y24500D01*
X539300Y75799D02*
Y73800D01*
Y74800D01*
X540633D01*
Y75799D01*
Y73800D01*
X543000Y75799D02*
Y73800D01*
Y74800D01*
X544333D01*
Y75799D01*
Y73800D01*
X532500Y79399D02*
Y77400D01*
Y78400D01*
X533833D01*
Y79399D01*
Y77400D01*
X529100Y66399D02*
Y64400D01*
Y65400D01*
X530433D01*
Y66399D01*
Y64400D01*
X533300Y66399D02*
Y64400D01*
Y65400D01*
X534633D01*
Y66399D01*
Y64400D01*
X524000Y29899D02*
Y27900D01*
Y28900D01*
X525333D01*
Y29899D01*
Y27900D01*
X529100Y70599D02*
Y68600D01*
Y69600D01*
X530433D01*
Y70599D01*
Y68600D01*
X533300Y70599D02*
Y68600D01*
Y69600D01*
X534633D01*
Y70599D01*
Y68600D01*
X464000Y42099D02*
Y40100D01*
Y41100D01*
X465333D01*
Y42099D01*
Y40100D01*
X455800Y26499D02*
Y24500D01*
Y25500D01*
X457133D01*
Y26499D01*
Y24500D01*
X489200Y26499D02*
Y24500D01*
Y25500D01*
X490533D01*
Y26499D01*
Y24500D01*
X457000Y54999D02*
Y53000D01*
Y54000D01*
X458333D01*
Y54999D01*
Y53000D01*
X476800Y75799D02*
Y73800D01*
Y74800D01*
X478133D01*
Y75799D01*
Y73800D01*
X480500Y75799D02*
Y73800D01*
Y74800D01*
X481833D01*
Y75799D01*
Y73800D01*
X470000Y79399D02*
Y77400D01*
Y78400D01*
X471333D01*
Y79399D01*
Y77400D01*
X466600Y66399D02*
Y64400D01*
Y65400D01*
X467933D01*
Y66399D01*
Y64400D01*
X470800Y66399D02*
Y64400D01*
Y65400D01*
X472133D01*
Y66399D01*
Y64400D01*
X461500Y29899D02*
Y27900D01*
Y28900D01*
X462833D01*
Y29899D01*
Y27900D01*
X466600Y70599D02*
Y68600D01*
Y69600D01*
X467933D01*
Y70599D01*
Y68600D01*
X470800Y70599D02*
Y68600D01*
Y69600D01*
X472133D01*
Y70599D01*
Y68600D01*
X401500Y42099D02*
Y40100D01*
Y41100D01*
X402833D01*
Y42099D01*
Y40100D01*
X393300Y26499D02*
Y24500D01*
Y25500D01*
X394633D01*
Y26499D01*
Y24500D01*
X426700Y26499D02*
Y24500D01*
Y25500D01*
X428033D01*
Y26499D01*
Y24500D01*
X394500Y54999D02*
Y53000D01*
Y54000D01*
X395833D01*
Y54999D01*
Y53000D01*
X414300Y75799D02*
Y73800D01*
Y74800D01*
X415633D01*
Y75799D01*
Y73800D01*
X418000Y75799D02*
Y73800D01*
Y74800D01*
X419333D01*
Y75799D01*
Y73800D01*
X407500Y79399D02*
Y77400D01*
Y78400D01*
X408833D01*
Y79399D01*
Y77400D01*
X404100Y66399D02*
Y64400D01*
Y65400D01*
X405433D01*
Y66399D01*
Y64400D01*
X408300Y66399D02*
Y64400D01*
Y65400D01*
X409633D01*
Y66399D01*
Y64400D01*
X399000Y29899D02*
Y27900D01*
Y28900D01*
X400333D01*
Y29899D01*
Y27900D01*
X404100Y70599D02*
Y68600D01*
Y69600D01*
X405433D01*
Y70599D01*
Y68600D01*
X408300Y70599D02*
Y68600D01*
Y69600D01*
X409633D01*
Y70599D01*
Y68600D01*
X339000Y42099D02*
Y40100D01*
Y41100D01*
X340333D01*
Y42099D01*
Y40100D01*
X330800Y26499D02*
Y24500D01*
Y25500D01*
X332133D01*
Y26499D01*
Y24500D01*
X364200Y26499D02*
Y24500D01*
Y25500D01*
X365533D01*
Y26499D01*
Y24500D01*
X332000Y54999D02*
Y53000D01*
Y54000D01*
X333333D01*
Y54999D01*
Y53000D01*
X351800Y75799D02*
Y73800D01*
Y74800D01*
X353133D01*
Y75799D01*
Y73800D01*
X355500Y75799D02*
Y73800D01*
Y74800D01*
X356833D01*
Y75799D01*
Y73800D01*
X345000Y79399D02*
Y77400D01*
Y78400D01*
X346333D01*
Y79399D01*
Y77400D01*
X341600Y66399D02*
Y64400D01*
Y65400D01*
X342933D01*
Y66399D01*
Y64400D01*
X345800Y66399D02*
Y64400D01*
Y65400D01*
X347133D01*
Y66399D01*
Y64400D01*
X336500Y29899D02*
Y27900D01*
Y28900D01*
X337833D01*
Y29899D01*
Y27900D01*
X341600Y70599D02*
Y68600D01*
Y69600D01*
X342933D01*
Y70599D01*
Y68600D01*
X345800Y70599D02*
Y68600D01*
Y69600D01*
X347133D01*
Y70599D01*
Y68600D01*
X276500Y42099D02*
Y40100D01*
Y41100D01*
X277833D01*
Y42099D01*
Y40100D01*
X268300Y26499D02*
Y24500D01*
Y25500D01*
X269633D01*
Y26499D01*
Y24500D01*
X301700Y26499D02*
Y24500D01*
Y25500D01*
X303033D01*
Y26499D01*
Y24500D01*
X269500Y54999D02*
Y53000D01*
Y54000D01*
X270833D01*
Y54999D01*
Y53000D01*
X289300Y75799D02*
Y73800D01*
Y74800D01*
X290633D01*
Y75799D01*
Y73800D01*
X293000Y75799D02*
Y73800D01*
Y74800D01*
X294333D01*
Y75799D01*
Y73800D01*
X282500Y79399D02*
Y77400D01*
Y78400D01*
X283833D01*
Y79399D01*
Y77400D01*
X279100Y66399D02*
Y64400D01*
Y65400D01*
X280433D01*
Y66399D01*
Y64400D01*
X283300Y66399D02*
Y64400D01*
Y65400D01*
X284633D01*
Y66399D01*
Y64400D01*
X274000Y29899D02*
Y27900D01*
Y28900D01*
X275333D01*
Y29899D01*
Y27900D01*
X279100Y70599D02*
Y68600D01*
Y69600D01*
X280433D01*
Y70599D01*
Y68600D01*
X283300Y70599D02*
Y68600D01*
Y69600D01*
X284633D01*
Y70599D01*
Y68600D01*
X158300Y70599D02*
Y68600D01*
Y69600D01*
X159633D01*
Y70599D01*
Y68600D01*
X154100Y70599D02*
Y68600D01*
Y69600D01*
X155433D01*
Y70599D01*
Y68600D01*
X149000Y29899D02*
Y27900D01*
Y28900D01*
X150333D01*
Y29899D01*
Y27900D01*
X158300Y66399D02*
Y64400D01*
Y65400D01*
X159633D01*
Y66399D01*
Y64400D01*
X154100Y66399D02*
Y64400D01*
Y65400D01*
X155433D01*
Y66399D01*
Y64400D01*
X157500Y79399D02*
Y77400D01*
Y78400D01*
X158833D01*
Y79399D01*
Y77400D01*
X168000Y75799D02*
Y73800D01*
Y74800D01*
X169333D01*
Y75799D01*
Y73800D01*
X164300Y75799D02*
Y73800D01*
Y74800D01*
X165633D01*
Y75799D01*
Y73800D01*
X144500Y54999D02*
Y53000D01*
Y54000D01*
X145833D01*
Y54999D01*
Y53000D01*
X176700Y26499D02*
Y24500D01*
Y25500D01*
X178033D01*
Y26499D01*
Y24500D01*
X143300Y26499D02*
Y24500D01*
Y25500D01*
X144633D01*
Y26499D01*
Y24500D01*
X151500Y42099D02*
Y40100D01*
Y41100D01*
X152833D01*
Y42099D01*
Y40100D01*
X214000Y42099D02*
Y40100D01*
Y41100D01*
X215333D01*
Y42099D01*
Y40100D01*
X205800Y26499D02*
Y24500D01*
Y25500D01*
X207133D01*
Y26499D01*
Y24500D01*
X239200Y26499D02*
Y24500D01*
Y25500D01*
X240533D01*
Y26499D01*
Y24500D01*
X207000Y54999D02*
Y53000D01*
Y54000D01*
X208333D01*
Y54999D01*
Y53000D01*
X226800Y75799D02*
Y73800D01*
Y74800D01*
X228133D01*
Y75799D01*
Y73800D01*
X230500Y75799D02*
Y73800D01*
Y74800D01*
X231833D01*
Y75799D01*
Y73800D01*
X216600Y66399D02*
Y64400D01*
Y65400D01*
X217933D01*
Y66399D01*
Y64400D01*
X220800Y66399D02*
Y64400D01*
Y65400D01*
X222133D01*
Y66399D01*
Y64400D01*
X211500Y29899D02*
Y27900D01*
Y28900D01*
X212833D01*
Y29899D01*
Y27900D01*
X216600Y70599D02*
Y68600D01*
Y69600D01*
X217933D01*
Y70599D01*
Y68600D01*
X220800Y70599D02*
Y68600D01*
Y69600D01*
X222133D01*
Y70599D01*
Y68600D01*
X405300Y93999D02*
Y92000D01*
Y93000D01*
X406633D01*
Y93999D01*
Y92000D01*
X84600Y90699D02*
Y88700D01*
Y89700D01*
X85933D01*
Y90699D01*
Y88700D01*
X92800Y93999D02*
Y92000D01*
Y93000D01*
X94133D01*
Y93999D01*
Y92000D01*
X86200Y122699D02*
Y120700D01*
Y121700D01*
X87533D01*
Y122699D01*
Y120700D01*
X90800Y122699D02*
Y120700D01*
Y121700D01*
X92133D01*
Y122699D01*
Y120700D01*
X86500Y116299D02*
Y114300D01*
Y115300D01*
X87833D01*
Y116299D01*
Y114300D01*
X90500Y116299D02*
Y114300D01*
Y115300D01*
X91833D01*
Y116299D01*
Y114300D01*
X86500Y98699D02*
Y96700D01*
Y97700D01*
X87833D01*
Y98699D01*
Y96700D01*
X90500Y98699D02*
Y96700D01*
Y97700D01*
X91833D01*
Y98699D01*
Y96700D01*
X465500Y98699D02*
Y96700D01*
Y97700D01*
X466833D01*
Y98699D01*
Y96700D01*
X461500Y98699D02*
Y96700D01*
Y97700D01*
X462833D01*
Y98699D01*
Y96700D01*
X465500Y116299D02*
Y114300D01*
Y115300D01*
X466833D01*
Y116299D01*
Y114300D01*
X461500Y116299D02*
Y114300D01*
Y115300D01*
X462833D01*
Y116299D01*
Y114300D01*
X465800Y122699D02*
Y120700D01*
Y121700D01*
X467133D01*
Y122699D01*
Y120700D01*
X461200Y122699D02*
Y120700D01*
Y121700D01*
X462533D01*
Y122699D01*
Y120700D01*
X467800Y93999D02*
Y92000D01*
Y93000D01*
X469133D01*
Y93999D01*
Y92000D01*
X459600Y90699D02*
Y88700D01*
Y89700D01*
X460933D01*
Y90699D01*
Y88700D01*
X528000Y98699D02*
Y96700D01*
Y97700D01*
X529333D01*
Y98699D01*
Y96700D01*
X524000Y98699D02*
Y96700D01*
Y97700D01*
X525333D01*
Y98699D01*
Y96700D01*
X528000Y116299D02*
Y114300D01*
Y115300D01*
X529333D01*
Y116299D01*
Y114300D01*
X524000Y116299D02*
Y114300D01*
Y115300D01*
X525333D01*
Y116299D01*
Y114300D01*
X528300Y122699D02*
Y120700D01*
Y121700D01*
X529633D01*
Y122699D01*
Y120700D01*
X523700Y122699D02*
Y120700D01*
Y121700D01*
X525033D01*
Y122699D01*
Y120700D01*
X403000Y98699D02*
Y96700D01*
Y97700D01*
X404333D01*
Y98699D01*
Y96700D01*
X399000Y98699D02*
Y96700D01*
Y97700D01*
X400333D01*
Y98699D01*
Y96700D01*
X403000Y116299D02*
Y114300D01*
Y115300D01*
X404333D01*
Y116299D01*
Y114300D01*
X399000Y116299D02*
Y114300D01*
Y115300D01*
X400333D01*
Y116299D01*
Y114300D01*
X403300Y122699D02*
Y120700D01*
Y121700D01*
X404633D01*
Y122699D01*
Y120700D01*
X398700Y122699D02*
Y120700D01*
Y121700D01*
X400033D01*
Y122699D01*
Y120700D01*
X397100Y90699D02*
Y88700D01*
Y89700D01*
X398433D01*
Y90699D01*
Y88700D01*
X340500Y98699D02*
Y96700D01*
Y97700D01*
X341833D01*
Y98699D01*
Y96700D01*
X336500Y98699D02*
Y96700D01*
Y97700D01*
X337833D01*
Y98699D01*
Y96700D01*
X340500Y116299D02*
Y114300D01*
Y115300D01*
X341833D01*
Y116299D01*
Y114300D01*
X336500Y116299D02*
Y114300D01*
Y115300D01*
X337833D01*
Y116299D01*
Y114300D01*
X340800Y122699D02*
Y120700D01*
Y121700D01*
X342133D01*
Y122699D01*
Y120700D01*
X336200Y122699D02*
Y120700D01*
Y121700D01*
X337533D01*
Y122699D01*
Y120700D01*
X342800Y93999D02*
Y92000D01*
Y93000D01*
X344133D01*
Y93999D01*
Y92000D01*
X334600Y90699D02*
Y88700D01*
Y89700D01*
X335933D01*
Y90699D01*
Y88700D01*
X278000Y98699D02*
Y96700D01*
Y97700D01*
X279333D01*
Y98699D01*
Y96700D01*
X274000Y98699D02*
Y96700D01*
Y97700D01*
X275333D01*
Y98699D01*
Y96700D01*
X278000Y116299D02*
Y114300D01*
Y115300D01*
X279333D01*
Y116299D01*
Y114300D01*
X274000Y116299D02*
Y114300D01*
Y115300D01*
X275333D01*
Y116299D01*
Y114300D01*
X278300Y122699D02*
Y120700D01*
Y121700D01*
X279633D01*
Y122699D01*
Y120700D01*
X273700Y122699D02*
Y120700D01*
Y121700D01*
X275033D01*
Y122699D01*
Y120700D01*
X280300Y93999D02*
Y92000D01*
Y93000D01*
X281633D01*
Y93999D01*
Y92000D01*
X272100Y90699D02*
Y88700D01*
Y89700D01*
X273433D01*
Y90699D01*
Y88700D01*
X209600Y90699D02*
Y88700D01*
Y89700D01*
X210933D01*
Y90699D01*
Y88700D01*
X217800Y93999D02*
Y92000D01*
Y93000D01*
X219133D01*
Y93999D01*
Y92000D01*
X211200Y122699D02*
Y120700D01*
Y121700D01*
X212533D01*
Y122699D01*
Y120700D01*
X215800Y122699D02*
Y120700D01*
Y121700D01*
X217133D01*
Y122699D01*
Y120700D01*
X211500Y116299D02*
Y114300D01*
Y115300D01*
X212833D01*
Y116299D01*
Y114300D01*
X215500Y116299D02*
Y114300D01*
Y115300D01*
X216833D01*
Y116299D01*
Y114300D01*
X211500Y98699D02*
Y96700D01*
Y97700D01*
X212833D01*
Y98699D01*
Y96700D01*
X215500Y98699D02*
Y96700D01*
Y97700D01*
X216833D01*
Y98699D01*
Y96700D01*
X153000Y116299D02*
Y114300D01*
Y115300D01*
X154333D01*
Y116299D01*
Y114300D01*
X149000Y116299D02*
Y114300D01*
Y115300D01*
X150333D01*
Y116299D01*
Y114300D01*
X149000Y98699D02*
Y96700D01*
Y97700D01*
X150333D01*
Y98699D01*
Y96700D01*
X153000Y98699D02*
Y96700D01*
Y97700D01*
X154333D01*
Y98699D01*
Y96700D01*
X147100Y90699D02*
Y88700D01*
Y89700D01*
X148433D01*
Y90699D01*
Y88700D01*
X155300Y93999D02*
Y92000D01*
Y93000D01*
X156633D01*
Y93999D01*
Y92000D01*
X148700Y122699D02*
Y120700D01*
Y121700D01*
X150033D01*
Y122699D01*
Y120700D01*
X153300Y122699D02*
Y120700D01*
Y121700D01*
X154633D01*
Y122699D01*
Y120700D01*
X1173000Y171999D02*
Y170000D01*
Y171000D01*
X1174333D01*
Y171999D01*
Y170000D01*
X1173000Y96999D02*
Y95000D01*
Y96000D01*
X1174333D01*
Y96999D01*
Y95000D01*
X1237500Y741999D02*
Y740000D01*
Y741000D01*
X1238833D01*
Y741999D01*
Y740000D01*
X1237500Y692999D02*
Y691000D01*
Y692000D01*
X1238833D01*
Y692999D01*
Y691000D01*
X1196500Y691999D02*
Y690000D01*
Y691000D01*
X1197833D01*
Y691999D01*
Y690000D01*
X1237500Y717999D02*
Y716000D01*
Y717000D01*
X1238833D01*
Y717999D01*
Y716000D01*
X1196500Y718499D02*
Y716500D01*
Y717500D01*
X1197833D01*
Y718499D01*
Y716500D01*
X1196500Y741999D02*
Y740000D01*
Y741000D01*
X1197833D01*
Y741999D01*
Y740000D01*
X1155500Y718999D02*
Y717000D01*
Y718000D01*
X1156833D01*
Y718999D01*
Y717000D01*
X1155500Y741999D02*
Y740000D01*
Y741000D01*
X1156833D01*
Y741999D01*
Y740000D01*
X1242500Y427499D02*
Y425500D01*
Y426500D01*
X1243833D01*
Y427499D01*
Y425500D01*
X1218500Y480499D02*
Y478500D01*
Y479500D01*
X1219833D01*
Y480499D01*
Y478500D01*
X1242500Y512999D02*
Y511000D01*
Y512000D01*
X1243833D01*
Y512999D01*
Y511000D01*
X1242500Y595499D02*
Y593500D01*
Y594500D01*
X1243833D01*
Y595499D01*
Y593500D01*
X1218500Y562499D02*
Y560500D01*
Y561500D01*
X1219833D01*
Y562499D01*
Y560500D01*
X1218500Y634291D02*
Y632291D01*
Y633291D01*
X1219833D01*
Y634291D01*
Y632291D01*
D388*
X95800Y710000D02*
G03*
X95800Y710000I-800J0D01*
G01*
Y720000D02*
G03*
X95800Y720000I-800J0D01*
G01*
X105800Y710000D02*
G03*
X105800Y710000I-800J0D01*
G01*
Y720000D02*
G03*
X105800Y720000I-800J0D01*
G01*
X115800Y710000D02*
G03*
X115800Y710000I-800J0D01*
G01*
Y720000D02*
G03*
X115800Y720000I-800J0D01*
G01*
X125800Y710000D02*
G03*
X125800Y710000I-800J0D01*
G01*
Y720000D02*
G03*
X125800Y720000I-800J0D01*
G01*
X135800Y710000D02*
G03*
X135800Y710000I-800J0D01*
G01*
Y720000D02*
G03*
X135800Y720000I-800J0D01*
G01*
X145800Y710000D02*
G03*
X145800Y710000I-800J0D01*
G01*
Y720000D02*
G03*
X145800Y720000I-800J0D01*
G01*
X155800Y710000D02*
G03*
X155800Y710000I-800J0D01*
G01*
Y720000D02*
G03*
X155800Y720000I-800J0D01*
G01*
X165800Y710000D02*
G03*
X165800Y710000I-800J0D01*
G01*
Y720000D02*
G03*
X165800Y720000I-800J0D01*
G01*
X175800Y710000D02*
G03*
X175800Y710000I-800J0D01*
G01*
Y720000D02*
G03*
X175800Y720000I-800J0D01*
G01*
X185800Y710000D02*
G03*
X185800Y710000I-800J0D01*
G01*
Y720000D02*
G03*
X185800Y720000I-800J0D01*
G01*
X195800Y710000D02*
G03*
X195800Y710000I-800J0D01*
G01*
Y720000D02*
G03*
X195800Y720000I-800J0D01*
G01*
X205800Y710000D02*
G03*
X205800Y710000I-800J0D01*
G01*
Y720000D02*
G03*
X205800Y720000I-800J0D01*
G01*
X215800Y710000D02*
G03*
X215800Y710000I-800J0D01*
G01*
Y720000D02*
G03*
X215800Y720000I-800J0D01*
G01*
X225800Y710000D02*
G03*
X225800Y710000I-800J0D01*
G01*
Y720000D02*
G03*
X225800Y720000I-800J0D01*
G01*
X235800Y710000D02*
G03*
X235800Y710000I-800J0D01*
G01*
Y720000D02*
G03*
X235800Y720000I-800J0D01*
G01*
X245800Y710000D02*
G03*
X245800Y710000I-800J0D01*
G01*
Y720000D02*
G03*
X245800Y720000I-800J0D01*
G01*
X255800Y710000D02*
G03*
X255800Y710000I-800J0D01*
G01*
Y720000D02*
G03*
X255800Y720000I-800J0D01*
G01*
X265800Y710000D02*
G03*
X265800Y710000I-800J0D01*
G01*
Y720000D02*
G03*
X265800Y720000I-800J0D01*
G01*
X275800Y710000D02*
G03*
X275800Y710000I-800J0D01*
G01*
Y720000D02*
G03*
X275800Y720000I-800J0D01*
G01*
X285800Y710000D02*
G03*
X285800Y710000I-800J0D01*
G01*
Y720000D02*
G03*
X285800Y720000I-800J0D01*
G01*
X295800Y710000D02*
G03*
X295800Y710000I-800J0D01*
G01*
Y720000D02*
G03*
X295800Y720000I-800J0D01*
G01*
X305800Y710000D02*
G03*
X305800Y710000I-800J0D01*
G01*
Y720000D02*
G03*
X305800Y720000I-800J0D01*
G01*
X1165170Y690079D02*
G03*
X1165170Y690079I-800J0D01*
G01*
D389*
X95400Y710000D02*
G03*
X95400Y710000I-400J0D01*
G01*
Y720000D02*
G03*
X95400Y720000I-400J0D01*
G01*
X105400Y710000D02*
G03*
X105400Y710000I-400J0D01*
G01*
Y720000D02*
G03*
X105400Y720000I-400J0D01*
G01*
X115400Y710000D02*
G03*
X115400Y710000I-400J0D01*
G01*
Y720000D02*
G03*
X115400Y720000I-400J0D01*
G01*
X125400Y710000D02*
G03*
X125400Y710000I-400J0D01*
G01*
Y720000D02*
G03*
X125400Y720000I-400J0D01*
G01*
X135400Y710000D02*
G03*
X135400Y710000I-400J0D01*
G01*
Y720000D02*
G03*
X135400Y720000I-400J0D01*
G01*
X145400Y710000D02*
G03*
X145400Y710000I-400J0D01*
G01*
Y720000D02*
G03*
X145400Y720000I-400J0D01*
G01*
X155400Y710000D02*
G03*
X155400Y710000I-400J0D01*
G01*
Y720000D02*
G03*
X155400Y720000I-400J0D01*
G01*
X165400Y710000D02*
G03*
X165400Y710000I-400J0D01*
G01*
Y720000D02*
G03*
X165400Y720000I-400J0D01*
G01*
X175400Y710000D02*
G03*
X175400Y710000I-400J0D01*
G01*
Y720000D02*
G03*
X175400Y720000I-400J0D01*
G01*
X185400Y710000D02*
G03*
X185400Y710000I-400J0D01*
G01*
Y720000D02*
G03*
X185400Y720000I-400J0D01*
G01*
X195400Y710000D02*
G03*
X195400Y710000I-400J0D01*
G01*
Y720000D02*
G03*
X195400Y720000I-400J0D01*
G01*
X205400Y710000D02*
G03*
X205400Y710000I-400J0D01*
G01*
Y720000D02*
G03*
X205400Y720000I-400J0D01*
G01*
X215400Y710000D02*
G03*
X215400Y710000I-400J0D01*
G01*
Y720000D02*
G03*
X215400Y720000I-400J0D01*
G01*
X225400Y710000D02*
G03*
X225400Y710000I-400J0D01*
G01*
Y720000D02*
G03*
X225400Y720000I-400J0D01*
G01*
X235400Y710000D02*
G03*
X235400Y710000I-400J0D01*
G01*
Y720000D02*
G03*
X235400Y720000I-400J0D01*
G01*
X245400Y710000D02*
G03*
X245400Y710000I-400J0D01*
G01*
Y720000D02*
G03*
X245400Y720000I-400J0D01*
G01*
X255400Y710000D02*
G03*
X255400Y710000I-400J0D01*
G01*
Y720000D02*
G03*
X255400Y720000I-400J0D01*
G01*
X265400Y710000D02*
G03*
X265400Y710000I-400J0D01*
G01*
Y720000D02*
G03*
X265400Y720000I-400J0D01*
G01*
X275400Y710000D02*
G03*
X275400Y710000I-400J0D01*
G01*
Y720000D02*
G03*
X275400Y720000I-400J0D01*
G01*
X285400Y710000D02*
G03*
X285400Y710000I-400J0D01*
G01*
Y720000D02*
G03*
X285400Y720000I-400J0D01*
G01*
X295400Y710000D02*
G03*
X295400Y710000I-400J0D01*
G01*
Y720000D02*
G03*
X295400Y720000I-400J0D01*
G01*
X305400Y710000D02*
G03*
X305400Y710000I-400J0D01*
G01*
Y720000D02*
G03*
X305400Y720000I-400J0D01*
G01*
M02*
