G04*
G04 #@! TF.GenerationSoftware,Altium Limited,Altium Designer,22.7.1 (60)*
G04*
G04 Layer_Color=16711935*
%FSLAX24Y24*%
%MOIN*%
G70*
G04*
G04 #@! TF.SameCoordinates,20297B29-E809-46B4-992E-B8ACDD00FD55*
G04*
G04*
G04 #@! TF.FilePolarity,Positive*
G04*
G01*
G75*
%ADD13C,0.0039*%
%ADD21C,0.0020*%
%ADD384C,0.0024*%
D13*
X110550Y13476D02*
Y13246D01*
X110504Y13200D01*
X110412D01*
X110366Y13246D01*
Y13476D01*
X110274Y13430D02*
X110229Y13476D01*
X110137D01*
X110091Y13430D01*
Y13384D01*
X110137Y13338D01*
X110183D01*
X110137D01*
X110091Y13292D01*
Y13246D01*
X110137Y13200D01*
X110229D01*
X110274Y13246D01*
X109999Y13430D02*
X109953Y13476D01*
X109861D01*
X109815Y13430D01*
Y13384D01*
X109861Y13338D01*
X109907D01*
X109861D01*
X109815Y13292D01*
Y13246D01*
X109861Y13200D01*
X109953D01*
X109999Y13246D01*
X10650Y39415D02*
Y39152D01*
X10598Y39100D01*
X10493D01*
X10440Y39152D01*
Y39415D01*
X10178Y39100D02*
Y39415D01*
X10335Y39257D01*
X10125D01*
X63950Y52560D02*
Y52822D01*
X64002Y52875D01*
X64107D01*
X64160Y52822D01*
Y52560D01*
X64265Y52875D02*
X64370D01*
X64317D01*
Y52560D01*
X64265Y52612D01*
X64527D02*
X64580Y52560D01*
X64685D01*
X64737Y52612D01*
Y52822D01*
X64685Y52875D01*
X64580D01*
X64527Y52822D01*
Y52612D01*
X17400Y51814D02*
Y52011D01*
X17439Y52050D01*
X17518D01*
X17557Y52011D01*
Y51814D01*
X17754Y52050D02*
Y51814D01*
X17636Y51932D01*
X17794D01*
X18030Y51814D02*
X17872D01*
Y51932D01*
X17951Y51893D01*
X17990D01*
X18030Y51932D01*
Y52011D01*
X17990Y52050D01*
X17912D01*
X17872Y52011D01*
X17867Y27751D02*
Y27488D01*
X17815Y27436D01*
X17710D01*
X17657Y27488D01*
Y27751D01*
X17552Y27436D02*
X17448D01*
X17500D01*
Y27751D01*
X17552Y27698D01*
X41300Y46265D02*
Y46002D01*
X41248Y45950D01*
X41143D01*
X41090Y46002D01*
Y46265D01*
X40775D02*
X40880Y46212D01*
X40985Y46107D01*
Y46002D01*
X40933Y45950D01*
X40828D01*
X40775Y46002D01*
Y46055D01*
X40828Y46107D01*
X40985D01*
X54300Y45935D02*
Y46198D01*
X54352Y46250D01*
X54457D01*
X54510Y46198D01*
Y45935D01*
X54615D02*
X54825D01*
Y45988D01*
X54615Y46198D01*
Y46250D01*
X110550Y19926D02*
Y19696D01*
X110504Y19650D01*
X110412D01*
X110366Y19696D01*
Y19926D01*
X110274Y19650D02*
X110183D01*
X110229D01*
Y19926D01*
X110274Y19880D01*
X110045Y19650D02*
X109953D01*
X109999D01*
Y19926D01*
X110045Y19880D01*
X19617Y32010D02*
Y32240D01*
X19663Y32286D01*
X19755D01*
X19801Y32240D01*
Y32010D01*
X20076Y32286D02*
X19893D01*
X20076Y32102D01*
Y32056D01*
X20031Y32010D01*
X19939D01*
X19893Y32056D01*
X20168D02*
X20214Y32010D01*
X20306D01*
X20352Y32056D01*
Y32240D01*
X20306Y32286D01*
X20214D01*
X20168Y32240D01*
Y32056D01*
X71550Y16176D02*
Y15946D01*
X71504Y15900D01*
X71412D01*
X71366Y15946D01*
Y16176D01*
X71091Y15900D02*
X71274D01*
X71091Y16084D01*
Y16130D01*
X71137Y16176D01*
X71229D01*
X71274Y16130D01*
X70999Y15900D02*
X70907D01*
X70953D01*
Y16176D01*
X70999Y16130D01*
X50750Y31376D02*
Y31146D01*
X50704Y31100D01*
X50612D01*
X50566Y31146D01*
Y31376D01*
X50291Y31100D02*
X50475D01*
X50291Y31284D01*
Y31330D01*
X50337Y31376D01*
X50429D01*
X50475Y31330D01*
X50015Y31376D02*
X50199D01*
Y31238D01*
X50107Y31284D01*
X50061D01*
X50015Y31238D01*
Y31146D01*
X50061Y31100D01*
X50153D01*
X50199Y31146D01*
X9250Y46775D02*
Y47004D01*
X9296Y47050D01*
X9388D01*
X9434Y47004D01*
Y46775D01*
X9709Y47050D02*
X9525D01*
X9709Y46866D01*
Y46820D01*
X9663Y46775D01*
X9571D01*
X9525Y46820D01*
X9985Y46775D02*
X9893Y46820D01*
X9801Y46912D01*
Y47004D01*
X9847Y47050D01*
X9939D01*
X9985Y47004D01*
Y46958D01*
X9939Y46912D01*
X9801D01*
X110550Y33226D02*
Y32996D01*
X110504Y32950D01*
X110412D01*
X110366Y32996D01*
Y33226D01*
X110274Y33180D02*
X110229Y33226D01*
X110137D01*
X110091Y33180D01*
Y33134D01*
X110137Y33088D01*
X110183D01*
X110137D01*
X110091Y33042D01*
Y32996D01*
X110137Y32950D01*
X110229D01*
X110274Y32996D01*
X109815Y32950D02*
X109999D01*
X109815Y33134D01*
Y33180D01*
X109861Y33226D01*
X109953D01*
X109999Y33180D01*
D21*
X50282Y51800D02*
X50380D01*
X50400Y51820D01*
Y51859D01*
X50380Y51879D01*
X50282D01*
X50302Y51918D02*
X50282Y51938D01*
Y51977D01*
X50302Y51997D01*
X50321D01*
X50341Y51977D01*
Y51957D01*
Y51977D01*
X50361Y51997D01*
X50380D01*
X50400Y51977D01*
Y51938D01*
X50380Y51918D01*
X50282Y52115D02*
X50302Y52076D01*
X50341Y52036D01*
X50380D01*
X50400Y52056D01*
Y52095D01*
X50380Y52115D01*
X50361D01*
X50341Y52095D01*
Y52036D01*
X31500Y27268D02*
Y27170D01*
X31520Y27150D01*
X31559D01*
X31579Y27170D01*
Y27268D01*
X31697Y27150D02*
X31618D01*
X31697Y27229D01*
Y27248D01*
X31677Y27268D01*
X31638D01*
X31618Y27248D01*
X31815Y27150D02*
X31736D01*
X31815Y27229D01*
Y27248D01*
X31795Y27268D01*
X31756D01*
X31736Y27248D01*
X23020Y36782D02*
X22922D01*
X22902Y36762D01*
Y36723D01*
X22922Y36703D01*
X23020D01*
X22902Y36585D02*
Y36664D01*
X22981Y36585D01*
X23001D01*
X23020Y36605D01*
Y36644D01*
X23001Y36664D01*
X22902Y36487D02*
X23020D01*
X22961Y36546D01*
Y36467D01*
D384*
X117950Y17057D02*
Y16926D01*
X117976Y16900D01*
X118029D01*
X118055Y16926D01*
Y17057D01*
X118186Y16900D02*
Y17057D01*
X118107Y16979D01*
X118212D01*
X118265Y17057D02*
X118370D01*
Y17031D01*
X118265Y16926D01*
Y16900D01*
X39900Y50743D02*
Y50874D01*
X39926Y50900D01*
X39979D01*
X40005Y50874D01*
Y50743D01*
X40057Y50769D02*
X40084Y50743D01*
X40136D01*
X40162Y50769D01*
Y50795D01*
X40136Y50821D01*
X40162Y50848D01*
Y50874D01*
X40136Y50900D01*
X40084D01*
X40057Y50874D01*
Y50848D01*
X40084Y50821D01*
X40057Y50795D01*
Y50769D01*
X40084Y50821D02*
X40136D01*
X54700Y52457D02*
Y52326D01*
X54674Y52300D01*
X54621D01*
X54595Y52326D01*
Y52457D01*
X54543Y52326D02*
X54516Y52300D01*
X54464D01*
X54438Y52326D01*
Y52431D01*
X54464Y52457D01*
X54516D01*
X54543Y52431D01*
Y52405D01*
X54516Y52379D01*
X54438D01*
X78950Y63893D02*
Y64024D01*
X78924Y64050D01*
X78871D01*
X78845Y64024D01*
Y63893D01*
X78714Y64050D02*
Y63893D01*
X78793Y63971D01*
X78688D01*
X78530Y64050D02*
X78635D01*
X78530Y63945D01*
Y63919D01*
X78556Y63893D01*
X78609D01*
X78635Y63919D01*
X117950Y9557D02*
Y9426D01*
X117976Y9400D01*
X118029D01*
X118055Y9426D01*
Y9557D01*
X118186Y9400D02*
Y9557D01*
X118107Y9479D01*
X118212D01*
X118370Y9557D02*
X118317Y9531D01*
X118265Y9479D01*
Y9426D01*
X118291Y9400D01*
X118344D01*
X118370Y9426D01*
Y9452D01*
X118344Y9479D01*
X118265D01*
M02*
