G04*
G04 #@! TF.GenerationSoftware,Altium Limited,Altium Designer,22.6.1 (34)*
G04*
G04 Layer_Physical_Order=3*
G04 Layer_Color=16440176*
%FSLAX23Y23*%
%MOIN*%
G70*
G04*
G04 #@! TF.SameCoordinates,48DA0B1C-91FB-4976-8A67-4949CEA53551*
G04*
G04*
G04 #@! TF.FilePolarity,Positive*
G04*
G01*
G75*
%ADD20C,0.016*%
%ADD220C,0.009*%
%ADD270C,0.022*%
%ADD277C,0.005*%
%ADD278C,0.007*%
%ADD279C,0.010*%
G36*
X9011Y6778D02*
X9010Y6772D01*
X9011Y6766D01*
X9014Y6761D01*
X9018Y6758D01*
Y6571D01*
X9000Y6553D01*
X8995Y6554D01*
X8989Y6552D01*
X8984Y6549D01*
X8980Y6544D01*
X8980Y6542D01*
X8975Y6543D01*
Y6551D01*
X8988Y6563D01*
X8989Y6566D01*
X8990Y6569D01*
X8990Y6569D01*
Y6758D01*
X8994Y6761D01*
X8997Y6766D01*
X8999Y6772D01*
X8998Y6778D01*
X9000Y6783D01*
X9008D01*
X9011Y6778D01*
D02*
G37*
G36*
X8751D02*
X8750Y6772D01*
X8751Y6766D01*
X8755Y6761D01*
X8758Y6758D01*
Y6725D01*
X8758D01*
X8759Y6720D01*
X8762Y6716D01*
X8762Y6715D01*
X8758Y6711D01*
X8753Y6710D01*
X8748Y6706D01*
X8744Y6702D01*
X8743Y6696D01*
Y6696D01*
Y6696D01*
X8743D01*
X8744Y6690D01*
X8748Y6685D01*
X8749Y6684D01*
Y6678D01*
X8748Y6677D01*
X8744Y6672D01*
X8743Y6666D01*
Y6666D01*
Y6666D01*
X8743D01*
X8744Y6660D01*
X8748Y6656D01*
X8753Y6652D01*
X8758Y6651D01*
X8758Y6651D01*
X8758Y6651D01*
Y6625D01*
X8759Y6622D01*
X8761Y6619D01*
X8824Y6556D01*
Y6497D01*
X8805Y6478D01*
X8800Y6479D01*
X8794Y6478D01*
X8789Y6474D01*
X8785Y6469D01*
X8784Y6463D01*
X8785Y6456D01*
X8789Y6451D01*
X8794Y6448D01*
X8800Y6446D01*
X8805Y6447D01*
X8822Y6431D01*
Y6358D01*
X8822Y6355D01*
X8824Y6353D01*
X8837Y6340D01*
X8840Y6336D01*
X8840Y6336D01*
X8845Y6333D01*
X8850Y6332D01*
X8851Y6329D01*
X8852Y6327D01*
X8844Y6320D01*
X8844Y6320D01*
X8841Y6315D01*
X8840Y6309D01*
X8841Y6304D01*
X8844Y6299D01*
X8844Y6299D01*
X8844Y6299D01*
X8849Y6295D01*
X8855Y6294D01*
X8861Y6295D01*
X8864Y6294D01*
X8865Y6292D01*
X8866Y6287D01*
X8870Y6282D01*
X8870Y6282D01*
X8870Y6282D01*
X8875Y6279D01*
X8880Y6278D01*
X8886Y6279D01*
X8891Y6282D01*
X8892Y6282D01*
X8896Y6281D01*
X8922Y6255D01*
Y6237D01*
X8917Y6235D01*
X8915Y6239D01*
X8909Y6242D01*
X8903Y6244D01*
X8897Y6242D01*
X8892Y6239D01*
X8888Y6234D01*
X8887Y6228D01*
X8884Y6226D01*
X8882Y6226D01*
X8881Y6226D01*
X8875Y6228D01*
X8869Y6226D01*
X8863Y6223D01*
X8861Y6219D01*
X8825D01*
X8756Y6289D01*
Y6335D01*
X8756D01*
X8755Y6341D01*
X8752Y6345D01*
X8753Y6349D01*
X8754Y6350D01*
X8761D01*
Y6350D01*
X8767Y6351D01*
X8772Y6354D01*
X8775Y6359D01*
X8776Y6365D01*
Y6365D01*
Y6365D01*
X8776D01*
X8775Y6371D01*
X8772Y6376D01*
X8770Y6377D01*
Y6383D01*
X8772Y6384D01*
X8775Y6389D01*
X8776Y6395D01*
Y6395D01*
Y6395D01*
X8776D01*
X8775Y6400D01*
X8772Y6405D01*
X8769Y6407D01*
X8769Y6413D01*
X8770Y6414D01*
X8774Y6418D01*
X8775Y6424D01*
Y6424D01*
Y6424D01*
X8775D01*
X8774Y6430D01*
X8770Y6435D01*
X8765Y6438D01*
X8760Y6439D01*
X8760Y6439D01*
X8756Y6441D01*
Y6482D01*
X8769Y6496D01*
X8796Y6522D01*
X8800Y6521D01*
X8806Y6522D01*
X8812Y6526D01*
X8815Y6531D01*
X8816Y6537D01*
X8815Y6544D01*
X8812Y6549D01*
X8806Y6552D01*
X8800Y6554D01*
X8796Y6553D01*
X8718Y6631D01*
Y6752D01*
X8723Y6756D01*
X8729Y6757D01*
X8734Y6761D01*
X8738Y6766D01*
X8739Y6772D01*
X8738Y6778D01*
X8740Y6783D01*
X8748D01*
X8751Y6778D01*
D02*
G37*
G36*
X8980Y6531D02*
X8984Y6526D01*
X8989Y6522D01*
X8995Y6521D01*
X9000Y6522D01*
X9075Y6447D01*
Y6406D01*
X9070Y6403D01*
X9070Y6403D01*
X9065Y6404D01*
X9064Y6404D01*
X9064Y6404D01*
Y6415D01*
X9064Y6415D01*
X9064Y6417D01*
X9062Y6420D01*
X9062Y6420D01*
X9034Y6447D01*
X9032Y6449D01*
X9029Y6450D01*
X9011D01*
X9003Y6458D01*
X9004Y6463D01*
X9003Y6469D01*
X8999Y6474D01*
X8995Y6477D01*
Y6497D01*
X8995Y6500D01*
X8993Y6502D01*
X8975Y6520D01*
Y6532D01*
X8980Y6532D01*
X8980Y6531D01*
D02*
G37*
G36*
X8837Y6778D02*
X8836Y6772D01*
X8838Y6766D01*
X8841Y6761D01*
X8845Y6758D01*
Y6705D01*
X8845Y6705D01*
X8845Y6704D01*
X8839Y6703D01*
X8834Y6700D01*
X8831Y6695D01*
X8830Y6689D01*
Y6689D01*
Y6689D01*
X8830D01*
X8831Y6684D01*
X8834Y6679D01*
X8836Y6678D01*
Y6672D01*
X8834Y6671D01*
X8831Y6666D01*
X8830Y6660D01*
Y6660D01*
Y6660D01*
X8830D01*
X8831Y6654D01*
X8834Y6649D01*
X8836Y6648D01*
Y6642D01*
X8834Y6641D01*
X8831Y6636D01*
X8830Y6630D01*
Y6630D01*
Y6630D01*
X8830D01*
X8831Y6624D01*
X8834Y6620D01*
X8836Y6618D01*
Y6612D01*
X8834Y6611D01*
X8831Y6606D01*
X8830Y6601D01*
Y6601D01*
Y6601D01*
X8830D01*
X8831Y6595D01*
X8834Y6590D01*
X8839Y6587D01*
X8845Y6586D01*
X8845Y6585D01*
X8845Y6585D01*
Y6505D01*
X8846Y6502D01*
X8847Y6499D01*
X8911Y6435D01*
Y6335D01*
X8912Y6332D01*
X8913Y6329D01*
X8992Y6251D01*
Y6174D01*
X8988Y6171D01*
X8986Y6169D01*
X8678D01*
X8674Y6172D01*
X8675Y6783D01*
X8705D01*
X8708Y6778D01*
X8707Y6772D01*
X8707Y6768D01*
X8705Y6765D01*
X8703Y6763D01*
X8703Y6760D01*
Y6627D01*
X8703Y6625D01*
X8705Y6622D01*
X8785Y6542D01*
X8784Y6537D01*
X8785Y6533D01*
X8759Y6506D01*
X8743Y6490D01*
X8741Y6488D01*
X8740Y6485D01*
Y6439D01*
X8740D01*
X8741Y6433D01*
X8744Y6429D01*
X8744Y6428D01*
X8740Y6424D01*
X8735Y6423D01*
X8730Y6420D01*
X8727Y6415D01*
X8725Y6409D01*
Y6409D01*
Y6409D01*
X8725D01*
X8727Y6404D01*
X8730Y6399D01*
X8731Y6398D01*
Y6392D01*
X8730Y6390D01*
X8727Y6386D01*
X8725Y6380D01*
Y6380D01*
Y6380D01*
X8725D01*
X8727Y6374D01*
X8730Y6369D01*
X8731Y6368D01*
Y6362D01*
X8730Y6361D01*
X8727Y6356D01*
X8725Y6350D01*
Y6350D01*
Y6350D01*
X8725D01*
X8727Y6344D01*
X8730Y6339D01*
X8735Y6336D01*
X8740Y6335D01*
X8740Y6335D01*
X8740Y6335D01*
Y6286D01*
X8741Y6283D01*
X8743Y6280D01*
X8817Y6206D01*
X8819Y6205D01*
X8822Y6204D01*
X8861D01*
X8863Y6200D01*
X8869Y6197D01*
X8875Y6195D01*
X8881Y6197D01*
X8886Y6200D01*
X8890Y6205D01*
X8891Y6211D01*
X8894Y6213D01*
X8896Y6213D01*
X8897Y6213D01*
X8903Y6211D01*
X8909Y6212D01*
X8911Y6212D01*
X8914Y6209D01*
X8915Y6204D01*
X8918Y6199D01*
X8923Y6195D01*
X8930Y6194D01*
X8936Y6195D01*
X8941Y6199D01*
X8944Y6204D01*
X8946Y6210D01*
X8944Y6217D01*
X8941Y6222D01*
X8937Y6224D01*
Y6258D01*
X8937Y6261D01*
X8935Y6263D01*
X8907Y6291D01*
X8903Y6295D01*
X8903Y6295D01*
X8898Y6298D01*
X8895Y6299D01*
X8893Y6304D01*
X8895Y6307D01*
X8895Y6307D01*
X8898Y6312D01*
X8899Y6317D01*
X8898Y6323D01*
X8895Y6328D01*
X8895Y6328D01*
X8895Y6328D01*
X8890Y6331D01*
X8884Y6332D01*
X8882Y6332D01*
X8878Y6336D01*
X8878Y6338D01*
X8877Y6344D01*
X8874Y6349D01*
X8874Y6349D01*
X8874Y6349D01*
X8869Y6352D01*
X8863Y6353D01*
X8857Y6352D01*
X8852Y6349D01*
X8848Y6350D01*
X8837Y6361D01*
Y6434D01*
X8836Y6437D01*
X8834Y6439D01*
X8816Y6458D01*
X8816Y6463D01*
X8816Y6467D01*
X8837Y6488D01*
X8837Y6488D01*
X8838Y6491D01*
X8839Y6494D01*
X8839Y6494D01*
Y6559D01*
X8838Y6562D01*
X8837Y6564D01*
X8773Y6628D01*
Y6651D01*
X8774D01*
X8772Y6657D01*
X8770Y6661D01*
X8770Y6662D01*
X8774Y6666D01*
X8779Y6667D01*
X8784Y6670D01*
X8787Y6675D01*
X8789Y6681D01*
Y6681D01*
Y6681D01*
X8789D01*
X8787Y6687D01*
X8784Y6692D01*
X8783Y6693D01*
Y6699D01*
X8784Y6700D01*
X8787Y6705D01*
X8789Y6711D01*
Y6711D01*
Y6711D01*
X8789D01*
X8787Y6716D01*
X8784Y6721D01*
X8779Y6725D01*
X8774Y6726D01*
X8774Y6726D01*
X8773Y6726D01*
Y6758D01*
X8777Y6761D01*
X8781Y6766D01*
X8782Y6772D01*
X8781Y6778D01*
X8784Y6783D01*
X8835D01*
X8837Y6778D01*
D02*
G37*
G36*
X9134Y6169D02*
X9090D01*
Y6450D01*
X9090Y6453D01*
X9088Y6455D01*
X9011Y6533D01*
X9012Y6537D01*
X9011Y6542D01*
X9031Y6562D01*
X9033Y6565D01*
X9033Y6568D01*
Y6758D01*
X9037Y6761D01*
X9041Y6766D01*
X9042Y6772D01*
X9041Y6778D01*
X9043Y6783D01*
X9134D01*
Y6169D01*
D02*
G37*
G36*
X8967Y6778D02*
X8966Y6772D01*
X8968Y6766D01*
X8971Y6761D01*
X8975Y6758D01*
Y6572D01*
X8962Y6559D01*
X8961Y6557D01*
X8960Y6554D01*
Y6517D01*
X8961Y6514D01*
X8962Y6512D01*
X8980Y6494D01*
Y6477D01*
X8976Y6474D01*
X8973Y6469D01*
X8971Y6463D01*
X8973Y6456D01*
X8976Y6451D01*
X8981Y6448D01*
X8988Y6446D01*
X8992Y6447D01*
X9003Y6437D01*
X9005Y6435D01*
X9008Y6435D01*
X9026D01*
X9049Y6411D01*
Y6404D01*
X9049D01*
X9050Y6398D01*
X9051Y6396D01*
X9050Y6391D01*
X9048Y6389D01*
Y6389D01*
X9042Y6388D01*
X9037Y6385D01*
X9034Y6380D01*
X9033Y6374D01*
Y6374D01*
Y6374D01*
X9033D01*
X9034Y6369D01*
X9037Y6364D01*
X9042Y6360D01*
X9048Y6359D01*
Y6359D01*
X9050Y6358D01*
X9051Y6352D01*
X9050Y6350D01*
X9049Y6345D01*
X9049D01*
Y6331D01*
Y6169D01*
X9034D01*
Y6278D01*
X9034Y6281D01*
X9032Y6284D01*
X8982Y6333D01*
Y6429D01*
X8982Y6432D01*
X8980Y6434D01*
X8947Y6468D01*
Y6570D01*
X8947D01*
X8946Y6576D01*
X8943Y6580D01*
X8944Y6581D01*
X8947Y6585D01*
X8953Y6586D01*
X8957Y6589D01*
X8961Y6594D01*
X8962Y6600D01*
Y6600D01*
Y6600D01*
X8962D01*
X8961Y6606D01*
X8957Y6610D01*
X8956Y6612D01*
Y6618D01*
X8957Y6619D01*
X8961Y6624D01*
X8962Y6629D01*
Y6629D01*
Y6629D01*
X8962D01*
X8961Y6635D01*
X8957Y6640D01*
X8956Y6641D01*
Y6647D01*
X8957Y6648D01*
X8961Y6653D01*
X8962Y6659D01*
Y6659D01*
Y6659D01*
X8962D01*
X8961Y6665D01*
X8957Y6670D01*
X8952Y6673D01*
X8947Y6674D01*
X8947Y6674D01*
X8947Y6674D01*
Y6694D01*
Y6758D01*
X8951Y6761D01*
X8954Y6766D01*
X8955Y6772D01*
X8954Y6778D01*
X8957Y6783D01*
X8965D01*
X8967Y6778D01*
D02*
G37*
G36*
X8924D02*
X8923Y6772D01*
X8924Y6766D01*
X8928Y6761D01*
X8932Y6758D01*
Y6694D01*
Y6674D01*
X8931D01*
X8933Y6668D01*
X8935Y6664D01*
X8935Y6663D01*
X8932Y6659D01*
X8926Y6658D01*
X8921Y6655D01*
X8918Y6650D01*
X8917Y6644D01*
Y6644D01*
Y6644D01*
X8917D01*
X8918Y6638D01*
X8921Y6633D01*
X8923Y6632D01*
Y6626D01*
X8921Y6625D01*
X8918Y6620D01*
X8916Y6615D01*
Y6615D01*
Y6615D01*
X8916D01*
X8918Y6609D01*
X8921Y6604D01*
X8923Y6603D01*
Y6597D01*
X8921Y6596D01*
X8918Y6591D01*
X8916Y6585D01*
Y6585D01*
Y6585D01*
X8916D01*
X8918Y6579D01*
X8921Y6574D01*
X8926Y6571D01*
X8931Y6570D01*
X8931Y6570D01*
X8932Y6570D01*
Y6465D01*
X8932Y6462D01*
X8934Y6459D01*
X8967Y6426D01*
Y6330D01*
X8968Y6327D01*
X8969Y6325D01*
X9019Y6275D01*
Y6169D01*
X9013D01*
X9011Y6171D01*
X9007Y6174D01*
Y6254D01*
X9006Y6257D01*
X9005Y6259D01*
X8926Y6338D01*
Y6439D01*
X8925Y6441D01*
X8924Y6444D01*
X8860Y6508D01*
Y6586D01*
X8860D01*
X8859Y6592D01*
X8857Y6596D01*
X8857Y6597D01*
X8860Y6600D01*
X8866Y6602D01*
X8871Y6605D01*
X8874Y6610D01*
X8875Y6615D01*
Y6615D01*
Y6615D01*
X8875D01*
X8874Y6621D01*
X8871Y6626D01*
X8869Y6627D01*
Y6633D01*
X8871Y6634D01*
X8874Y6639D01*
X8875Y6645D01*
Y6645D01*
Y6645D01*
X8875D01*
X8874Y6651D01*
X8871Y6656D01*
X8869Y6657D01*
Y6663D01*
X8870Y6664D01*
X8874Y6669D01*
X8875Y6675D01*
Y6675D01*
Y6675D01*
X8875D01*
X8874Y6680D01*
X8870Y6685D01*
X8866Y6689D01*
X8860Y6690D01*
X8857Y6694D01*
X8857Y6695D01*
X8859Y6699D01*
X8860Y6704D01*
X8860D01*
Y6758D01*
X8864Y6761D01*
X8867Y6766D01*
X8869Y6772D01*
X8868Y6778D01*
X8870Y6783D01*
X8922D01*
X8924Y6778D01*
D02*
G37*
G36*
X8268Y5996D02*
X8184Y5911D01*
X8182Y5909D01*
X8181Y5906D01*
Y5795D01*
X8148Y5761D01*
X7789D01*
X7744Y5807D01*
X7741Y5809D01*
X7738Y5809D01*
X6905D01*
X6905Y5809D01*
Y5865D01*
X6910Y5867D01*
X6939Y5838D01*
X6941Y5836D01*
X6944Y5836D01*
X7784D01*
X7831Y5789D01*
X7834Y5787D01*
X7837Y5787D01*
X7837Y5787D01*
X7860D01*
X7863Y5783D01*
X7868Y5779D01*
X7874Y5778D01*
X7880Y5779D01*
X7885Y5783D01*
X7889Y5788D01*
X7890Y5794D01*
X7889Y5800D01*
X7885Y5806D01*
X7880Y5809D01*
X7874Y5810D01*
X7868Y5809D01*
X7863Y5806D01*
X7860Y5802D01*
X7840D01*
X7793Y5849D01*
X7790Y5850D01*
X7787Y5851D01*
X6947D01*
X6907Y5891D01*
Y5943D01*
X6916D01*
Y5902D01*
X6916Y5899D01*
X6918Y5897D01*
X6949Y5866D01*
X6951Y5864D01*
X6954Y5864D01*
X7601Y5864D01*
X7604Y5864D01*
X7606Y5866D01*
X7653Y5913D01*
X7683D01*
X7685Y5909D01*
X7690Y5906D01*
X7697Y5905D01*
X7703Y5906D01*
X7708Y5909D01*
X7712Y5914D01*
X7713Y5921D01*
X7712Y5927D01*
X7708Y5932D01*
X7703Y5936D01*
X7697Y5937D01*
X7690Y5936D01*
X7685Y5932D01*
X7683Y5928D01*
X7650D01*
X7650Y5928D01*
X7647Y5928D01*
X7645Y5926D01*
X7645Y5926D01*
X7598Y5879D01*
X6957Y5879D01*
X6931Y5905D01*
Y5943D01*
X7191D01*
X7191Y5940D01*
X7195Y5934D01*
X7200Y5931D01*
X7206Y5930D01*
X7212Y5931D01*
X7218Y5934D01*
X7221Y5940D01*
X7222Y5943D01*
X8187D01*
X8245Y6000D01*
X8266D01*
X8268Y5996D01*
D02*
G37*
G36*
X8339D02*
X8232Y5888D01*
X8230Y5886D01*
X8230Y5883D01*
Y5790D01*
X8163Y5723D01*
X7765D01*
X7716Y5771D01*
X7714Y5773D01*
X7711Y5774D01*
X6905Y5774D01*
Y5794D01*
X7735D01*
X7780Y5749D01*
X7783Y5747D01*
X7786Y5746D01*
X8151D01*
X8154Y5747D01*
X8156Y5749D01*
X8194Y5787D01*
X8196Y5789D01*
X8197Y5792D01*
Y5903D01*
X8294Y6000D01*
X8338D01*
X8339Y5996D01*
D02*
G37*
G36*
X8364Y5994D02*
X8417Y5939D01*
Y5933D01*
X8346D01*
X8343Y5932D01*
X8341Y5931D01*
X8275Y5864D01*
X8273Y5862D01*
X8272Y5859D01*
Y5763D01*
X8192Y5682D01*
X7744D01*
X7688Y5739D01*
X7686Y5740D01*
X7683Y5741D01*
X6905D01*
Y5759D01*
X7708Y5759D01*
X7756Y5710D01*
X7759Y5708D01*
X7762Y5707D01*
X8166D01*
X8169Y5708D01*
X8171Y5710D01*
X8243Y5781D01*
X8244Y5784D01*
X8245Y5787D01*
Y5880D01*
X8359Y5994D01*
X8364Y5994D01*
D02*
G37*
G36*
X8417Y5644D02*
X7717D01*
X7658Y5704D01*
X7655Y5705D01*
X7652Y5706D01*
X6905D01*
Y5726D01*
X7680D01*
X7736Y5669D01*
X7738Y5668D01*
X7741Y5667D01*
X8195D01*
X8198Y5668D01*
X8200Y5669D01*
X8285Y5755D01*
X8287Y5757D01*
X8287Y5760D01*
Y5856D01*
X8349Y5918D01*
X8417D01*
Y5644D01*
D02*
G37*
G36*
X7709Y5631D02*
X7709Y5631D01*
X7711Y5630D01*
X7714Y5629D01*
X7714Y5629D01*
X8417D01*
Y5595D01*
X6905D01*
Y5691D01*
X7649D01*
X7709Y5631D01*
D02*
G37*
D20*
X11033Y6334D02*
X11054Y6313D01*
X11033Y6334D02*
Y6392D01*
X11640Y6313D02*
X11790D01*
X11490D02*
X11640D01*
X11340D02*
X11490D01*
X11054D02*
X11340D01*
D220*
X11521Y3500D02*
Y3864D01*
X11322Y1004D02*
Y3300D01*
X11521Y3500D01*
X6694Y6818D02*
X7314Y7438D01*
X9728D01*
X9993Y6057D02*
Y7174D01*
X5329Y6500D02*
Y6546D01*
X9728Y7438D02*
X9993Y7174D01*
X11118Y4267D02*
X11521Y3864D01*
X11118Y4267D02*
Y4931D01*
X5329Y6546D02*
X5601Y6818D01*
X6694Y6818D01*
X9993Y6057D02*
X11118Y4931D01*
X10900Y582D02*
X11322Y1004D01*
X10900Y520D02*
Y582D01*
D270*
X9004Y6405D02*
D03*
X8944Y6404D02*
D03*
X8893Y6403D02*
D03*
X8854Y6403D02*
D03*
X8804Y6402D02*
D03*
X8802Y6273D02*
D03*
X8756Y6234D02*
D03*
X7010Y5628D02*
D03*
X8145Y5918D02*
D03*
X8343Y5827D02*
D03*
X8341Y5731D02*
D03*
X8362Y5958D02*
D03*
X8062Y5867D02*
D03*
X7951Y5866D02*
D03*
X7698Y5868D02*
D03*
X7517Y5899D02*
D03*
Y5637D02*
D03*
X7354Y5902D02*
D03*
Y5823D02*
D03*
X7346Y5670D02*
D03*
X7011Y5899D02*
D03*
X6931Y5823D02*
D03*
X7086Y5821D02*
D03*
X7088Y5672D02*
D03*
X6929Y5671D02*
D03*
X7874Y5794D02*
D03*
X7697Y5921D02*
D03*
X8457Y5925D02*
D03*
X8380Y6025D02*
D03*
X8342Y6058D02*
D03*
X7771Y6955D02*
D03*
Y7015D02*
D03*
X8023Y6806D02*
D03*
X9046Y6733D02*
D03*
Y6658D02*
D03*
X9003D02*
D03*
X8959Y6733D02*
D03*
X8895Y6665D02*
D03*
X9000Y6056D02*
D03*
X9026Y6084D02*
D03*
X9027Y6139D02*
D03*
X8999Y6160D02*
D03*
X8930Y6210D02*
D03*
X8875Y6212D02*
D03*
X8718Y6090D02*
D03*
X6755Y5912D02*
D03*
X6829Y6025D02*
D03*
X6805Y5995D02*
D03*
X6852Y5994D02*
D03*
X6900Y6025D02*
D03*
X6923Y5994D02*
D03*
X5329Y6500D02*
D03*
X8643Y5051D02*
D03*
X2242Y3618D02*
D03*
X2349Y3619D02*
D03*
X2338Y3694D02*
D03*
X6785Y3743D02*
D03*
X9408Y5110D02*
D03*
X9720Y5953D02*
D03*
X9680Y5953D02*
D03*
X9390Y5943D02*
D03*
X9439D02*
D03*
X9364Y5151D02*
D03*
X9404Y5187D02*
D03*
X10900Y520D02*
D03*
X7132Y1648D02*
D03*
X11032Y1281D02*
D03*
X9516Y3474D02*
D03*
X3134Y2757D02*
D03*
X3206Y2759D02*
D03*
X4495Y5043D02*
D03*
X4476Y5100D02*
D03*
X1981Y3230D02*
D03*
X1981Y3266D02*
D03*
X5055Y3061D02*
D03*
X5055Y3100D02*
D03*
X11036Y3325D02*
D03*
X11033Y3292D02*
D03*
X9579Y3457D02*
D03*
X11032Y1314D02*
D03*
X11029Y1961D02*
D03*
Y1924D02*
D03*
X7132Y1614D02*
D03*
X7942Y6994D02*
D03*
X7867Y6894D02*
D03*
X7940Y7100D02*
D03*
X7868Y7007D02*
D03*
X9068Y6503D02*
D03*
X8995Y6537D02*
D03*
X8988Y6463D02*
D03*
X9028Y6473D02*
D03*
X8906Y6500D02*
D03*
X8800Y6463D02*
D03*
Y6537D02*
D03*
X8807Y6665D02*
D03*
X8720Y6581D02*
D03*
X8738Y6740D02*
D03*
X9003Y6733D02*
D03*
X947Y4709D02*
D03*
X946Y4743D02*
D03*
X1943Y5047D02*
D03*
X1941Y4824D02*
D03*
X8960Y6184D02*
D03*
X8982Y6772D02*
D03*
X8939D02*
D03*
X8853D02*
D03*
X8723D02*
D03*
X9026D02*
D03*
X8809D02*
D03*
X8766D02*
D03*
X9115Y6715D02*
D03*
X8682D02*
D03*
X7771Y7075D02*
D03*
X7775Y7135D02*
D03*
X8023Y6885D02*
D03*
Y6964D02*
D03*
Y7043D02*
D03*
X9730Y5165D02*
D03*
X9756Y5125D02*
D03*
X9729Y5085D02*
D03*
X9760Y5045D02*
D03*
X9729Y5005D02*
D03*
X9646Y4911D02*
D03*
X9610Y4936D02*
D03*
X9582Y4911D02*
D03*
X9530Y4924D02*
D03*
X9490Y4889D02*
D03*
X9388Y5075D02*
D03*
X9415Y5046D02*
D03*
X9375Y5019D02*
D03*
X8968Y5127D02*
D03*
X9029Y5101D02*
D03*
X8952Y5074D02*
D03*
X8990Y5044D02*
D03*
X8940Y5014D02*
D03*
X8640Y5149D02*
D03*
X8669Y5128D02*
D03*
X8639Y5101D02*
D03*
X8672Y5075D02*
D03*
X8672Y5026D02*
D03*
X8911Y4911D02*
D03*
X8875Y4936D02*
D03*
X8847Y4911D02*
D03*
X8795Y4924D02*
D03*
X8770Y4889D02*
D03*
X6746Y3697D02*
D03*
X4995Y5166D02*
D03*
X5077Y5234D02*
D03*
X4993Y5236D02*
D03*
X11340Y6313D02*
D03*
X11490D02*
D03*
X11640D02*
D03*
X11790D02*
D03*
X11033Y6392D02*
D03*
D277*
X8496Y5681D02*
G03*
X8496Y5692I-5J5D01*
G01*
X8496Y5702D02*
G03*
X8496Y5692I5J-5D01*
G01*
X8506Y5702D02*
G03*
X8496Y5702I-5J-5D01*
G01*
X8515Y5694D02*
G03*
X8525Y5694I5J5D01*
G01*
D02*
G03*
X8525Y5704I-5J5D01*
G01*
X8517Y5723D02*
G03*
X8517Y5713I5J-5D01*
G01*
X8527Y5723D02*
G03*
X8517Y5723I-5J-5D01*
G01*
X8538Y5713D02*
G03*
X8548Y5713I5J5D01*
G01*
X8548Y5713D02*
G03*
X8548Y5723I-5J5D01*
G01*
X8548Y5734D02*
G03*
X8548Y5723I5J-5D01*
G01*
X9064Y6352D02*
G03*
X9057Y6345I0J-7D01*
G01*
X9064Y6352D02*
G03*
X9071Y6359I0J7D01*
G01*
Y6359D02*
G03*
X9064Y6367I-7J0D01*
G01*
X9040Y6374D02*
G03*
X9048Y6367I7J0D01*
G01*
Y6382D02*
G03*
X9040Y6374I0J-7D01*
G01*
X9064Y6382D02*
G03*
X9072Y6389I0J7D01*
G01*
Y6389D02*
G03*
X9064Y6396I-7J0D01*
G01*
X9057Y6404D02*
G03*
X9064Y6396I7J0D01*
G01*
X8939Y6674D02*
G03*
X8947Y6666I7J0D01*
G01*
X8954Y6659D02*
G03*
X8947Y6666I-7J0D01*
G01*
Y6652D02*
G03*
X8954Y6659I0J7D01*
G01*
X8932Y6652D02*
G03*
X8925Y6644I0J-7D01*
G01*
Y6644D02*
G03*
X8932Y6637I7J0D01*
G01*
X8954Y6629D02*
G03*
X8947Y6637I-7J0D01*
G01*
Y6622D02*
G03*
X8954Y6629I0J7D01*
G01*
X8932Y6622D02*
G03*
X8924Y6615I0J-7D01*
G01*
Y6615D02*
G03*
X8932Y6607I7J0D01*
G01*
X8954Y6600D02*
G03*
X8947Y6607I-7J0D01*
G01*
Y6592D02*
G03*
X8954Y6600I0J7D01*
G01*
X8932Y6592D02*
G03*
X8924Y6585I0J-7D01*
G01*
Y6585D02*
G03*
X8932Y6578I7J0D01*
G01*
X8939Y6570D02*
G03*
X8932Y6578I-7J0D01*
G01*
X8898Y6289D02*
G03*
X8887Y6289I-5J-5D01*
G01*
X8875Y6288D02*
G03*
X8886Y6288I5J5D01*
G01*
X8875Y6298D02*
G03*
X8875Y6288I5J-5D01*
G01*
X8889Y6312D02*
G03*
X8889Y6323I-5J5D01*
G01*
D02*
G03*
X8879Y6323I-5J-5D01*
G01*
X8850Y6304D02*
G03*
X8860Y6304I5J5D01*
G01*
X8850Y6315D02*
G03*
X8850Y6304I5J-5D01*
G01*
X8868Y6333D02*
G03*
X8868Y6343I-5J5D01*
G01*
X8868Y6343D02*
G03*
X8858Y6343I-5J-5D01*
G01*
X8846Y6342D02*
G03*
X8856Y6342I5J5D01*
G01*
X8766Y6725D02*
G03*
X8773Y6718I7J0D01*
G01*
X8781Y6711D02*
G03*
X8774Y6718I-7J0D01*
G01*
Y6703D02*
G03*
X8781Y6711I0J7D01*
G01*
X8758Y6703D02*
G03*
X8751Y6696I0J-7D01*
G01*
Y6696D02*
G03*
X8758Y6688I7J0D01*
G01*
X8781Y6681D02*
G03*
X8774Y6688I-7J0D01*
G01*
Y6674D02*
G03*
X8781Y6681I0J7D01*
G01*
X8758Y6674D02*
G03*
X8751Y6666I0J-7D01*
G01*
Y6666D02*
G03*
X8758Y6659I7J0D01*
G01*
X8766Y6651D02*
G03*
X8759Y6659I-7J0D01*
G01*
X8748Y6439D02*
G03*
X8755Y6432I7J0D01*
G01*
X8767Y6424D02*
G03*
X8760Y6432I-7J0D01*
G01*
Y6417D02*
G03*
X8767Y6424I0J7D01*
G01*
X8740Y6417D02*
G03*
X8733Y6409I0J-7D01*
G01*
Y6409D02*
G03*
X8740Y6402I7J0D01*
G01*
X8768Y6395D02*
G03*
X8761Y6402I-7J0D01*
G01*
Y6387D02*
G03*
X8768Y6395I0J7D01*
G01*
X8740Y6387D02*
G03*
X8733Y6380I0J-7D01*
G01*
Y6380D02*
G03*
X8740Y6372I7J0D01*
G01*
X8768Y6365D02*
G03*
X8761Y6372I-7J0D01*
G01*
Y6358D02*
G03*
X8768Y6365I0J7D01*
G01*
X8740Y6358D02*
G03*
X8733Y6350I0J-7D01*
G01*
Y6350D02*
G03*
X8740Y6343I7J0D01*
G01*
X8748Y6335D02*
G03*
X8741Y6343I-7J0D01*
G01*
X8845Y6697D02*
G03*
X8853Y6704I0J7D01*
G01*
X8845Y6697D02*
G03*
X8838Y6689I0J-7D01*
G01*
Y6689D02*
G03*
X8845Y6682I7J0D01*
G01*
X8867Y6675D02*
G03*
X8860Y6682I-7J0D01*
G01*
Y6667D02*
G03*
X8867Y6675I0J7D01*
G01*
X8845Y6667D02*
G03*
X8838Y6660I0J-7D01*
G01*
Y6660D02*
G03*
X8845Y6652I7J0D01*
G01*
X8868Y6645D02*
G03*
X8860Y6652I-7J0D01*
G01*
Y6638D02*
G03*
X8868Y6645I0J7D01*
G01*
X8845Y6638D02*
G03*
X8838Y6630I0J-7D01*
G01*
Y6630D02*
G03*
X8845Y6623I7J0D01*
G01*
X8868Y6615D02*
G03*
X8860Y6623I-7J0D01*
G01*
Y6608D02*
G03*
X8868Y6615I0J7D01*
G01*
X8845Y6608D02*
G03*
X8838Y6601I0J-7D01*
G01*
Y6601D02*
G03*
X8845Y6593I7J0D01*
G01*
X8853Y6586D02*
G03*
X8845Y6593I-7J0D01*
G01*
X7652Y5698D02*
X7714Y5637D01*
X6857Y5698D02*
X7652D01*
X6755Y5801D02*
X6857Y5698D01*
X8451Y5637D02*
X8484Y5669D01*
X8496Y5681D01*
X8496Y5692D02*
X8496Y5692D01*
X8496Y5702D02*
X8496Y5702D01*
X8506Y5702D02*
X8515Y5694D01*
X8517Y5713D02*
X8525Y5704D01*
X8517Y5713D02*
X8517Y5713D01*
X8527Y5723D02*
X8527Y5723D01*
X8538Y5713D01*
X8538Y5713D02*
X8538Y5713D01*
X8548Y5713D02*
X8548Y5713D01*
X8548Y5723D02*
X8548Y5723D01*
X8548Y5723D02*
X8548Y5723D01*
X8548Y5723D02*
X8548Y5723D01*
Y5734D02*
X8550Y5735D01*
X8613Y5799D01*
X9057Y6331D02*
Y6345D01*
X9064Y6352D02*
X9064D01*
X9071Y6359D02*
Y6359D01*
X9048Y6367D02*
X9064D01*
X9040Y6374D02*
Y6374D01*
X9048Y6382D02*
X9064D01*
X9072Y6389D02*
Y6389D01*
X9064Y6396D02*
X9064D01*
X9057Y6404D02*
Y6406D01*
Y6114D02*
Y6331D01*
Y6406D02*
Y6415D01*
X8939Y6674D02*
Y6694D01*
X8947Y6666D02*
X8947D01*
X8954Y6659D02*
Y6659D01*
X8932Y6652D02*
X8947D01*
X8925Y6644D02*
Y6644D01*
X8932Y6637D02*
X8947D01*
X8954Y6629D02*
Y6629D01*
X8932Y6622D02*
X8947D01*
X8924Y6615D02*
Y6615D01*
X8932Y6607D02*
X8947D01*
X8954Y6600D02*
Y6600D01*
X8932Y6592D02*
X8947D01*
X8924Y6585D02*
Y6585D01*
X8932Y6578D02*
X8932D01*
X8939Y6568D02*
Y6570D01*
Y6694D02*
Y6772D01*
Y6465D02*
Y6568D01*
X8829Y6358D02*
X8844Y6344D01*
X8898Y6289D02*
X8914Y6273D01*
X8886Y6288D02*
X8887Y6289D01*
X8875Y6288D02*
X8875Y6288D01*
Y6298D02*
X8889Y6312D01*
Y6312D02*
Y6312D01*
X8860Y6304D02*
X8879Y6323D01*
X8860Y6304D02*
Y6304D01*
X8850Y6315D02*
X8868Y6333D01*
Y6333D02*
Y6333D01*
X8868Y6343D02*
X8868Y6343D01*
X8868Y6343D01*
X8868Y6343D02*
X8868Y6343D01*
X8856Y6342D02*
X8858Y6343D01*
X8846Y6342D02*
X8846Y6342D01*
X8844Y6344D02*
X8846Y6342D01*
X8914Y6273D02*
X8930Y6258D01*
X8766Y6725D02*
Y6736D01*
X8773Y6718D02*
X8774D01*
X8781Y6711D02*
Y6711D01*
X8758Y6703D02*
X8774D01*
X8751Y6696D02*
Y6696D01*
X8758Y6688D02*
X8774D01*
X8781Y6681D02*
Y6681D01*
X8758Y6674D02*
X8774D01*
X8751Y6666D02*
Y6666D01*
X8758Y6659D02*
X8759D01*
X8766Y6649D02*
Y6651D01*
Y6625D02*
Y6649D01*
X8764Y6501D02*
X8800Y6537D01*
X8748Y6485D02*
X8764Y6501D01*
X8748Y6439D02*
Y6485D01*
X8755Y6432D02*
X8760D01*
X8767Y6424D02*
Y6424D01*
X8740Y6417D02*
X8760D01*
X8733Y6409D02*
Y6409D01*
X8740Y6402D02*
X8761D01*
X8768Y6395D02*
Y6395D01*
X8740Y6387D02*
X8761D01*
X8733Y6380D02*
Y6380D01*
X8740Y6372D02*
X8761D01*
X8768Y6365D02*
Y6365D01*
X8740Y6358D02*
X8761D01*
X8733Y6350D02*
Y6350D01*
X8740Y6343D02*
X8741D01*
X8748Y6333D02*
Y6335D01*
Y6286D02*
Y6333D01*
X8853Y6704D02*
Y6717D01*
X8845Y6697D02*
X8845D01*
X8838Y6689D02*
Y6689D01*
X8845Y6682D02*
X8860D01*
X8867Y6675D02*
Y6675D01*
X8845Y6667D02*
X8860D01*
X8838Y6660D02*
Y6660D01*
X8845Y6652D02*
X8860D01*
X8868Y6645D02*
Y6645D01*
X8845Y6638D02*
X8860D01*
X8838Y6630D02*
Y6630D01*
X8845Y6623D02*
X8860D01*
X8868Y6615D02*
Y6615D01*
X8845Y6608D02*
X8860D01*
X8838Y6601D02*
Y6601D01*
X8845Y6593D02*
X8845D01*
X8853Y6583D02*
Y6586D01*
Y6717D02*
Y6772D01*
Y6505D02*
Y6583D01*
Y6505D02*
X8919Y6439D01*
Y6335D02*
Y6439D01*
Y6335D02*
X8999Y6254D01*
X8766Y6736D02*
Y6772D01*
X8748Y6286D02*
X8822Y6212D01*
X6755Y5801D02*
Y5912D01*
X7714Y5637D02*
X8451D01*
X8613Y5799D02*
Y5985D01*
X8718Y6090D01*
X6805Y5797D02*
Y5995D01*
Y5797D02*
X6869Y5733D01*
X7683D01*
X7741Y5675D01*
X8195D01*
X8280Y5760D01*
Y5859D01*
X8346Y5925D02*
X8457D01*
X8280Y5859D02*
X8346Y5925D01*
X6829Y5816D02*
Y6025D01*
X6879Y5766D02*
X7711Y5766D01*
X6829Y5816D02*
X6879Y5766D01*
X7711Y5766D02*
X7762Y5715D01*
X8166D01*
X8237Y5787D01*
Y5883D01*
X8380Y6025D01*
X8189Y5906D02*
X8342Y6058D01*
X6852Y5852D02*
Y5994D01*
Y5852D02*
X6902Y5802D01*
X7738D01*
X7786Y5754D01*
X8151D01*
X8189Y5792D01*
Y5906D01*
X7787Y5843D02*
X7837Y5794D01*
X6900Y5888D02*
X6944Y5843D01*
X7787D01*
X6900Y5888D02*
Y6025D01*
X6954Y5871D02*
X7601Y5871D01*
X6923Y5902D02*
X6954Y5871D01*
X7837Y5794D02*
X7874D01*
X6923Y5902D02*
Y5994D01*
X7601Y5871D02*
X7650Y5921D01*
X7697D01*
X9000Y6056D02*
X9001Y6056D01*
X9066D01*
X9083Y6072D01*
X8995Y6537D02*
X9083Y6450D01*
Y6072D02*
Y6450D01*
X8995Y6537D02*
X9026Y6568D01*
Y6772D01*
X8968Y6554D02*
X8982Y6569D01*
Y6772D01*
X9026Y6084D02*
X9057Y6114D01*
X9029Y6442D02*
X9057Y6415D01*
X8988Y6463D02*
X9008Y6442D01*
X9029D01*
X8968Y6517D02*
X8988Y6497D01*
Y6463D02*
Y6497D01*
X8968Y6517D02*
Y6554D01*
X9027Y6139D02*
Y6278D01*
X8975Y6330D02*
X9027Y6278D01*
X8975Y6330D02*
Y6429D01*
X8939Y6465D02*
X8975Y6429D01*
X8999Y6160D02*
Y6254D01*
X8930Y6210D02*
Y6258D01*
X8800Y6463D02*
X8829Y6434D01*
Y6358D02*
Y6434D01*
X8822Y6212D02*
X8875D01*
X8831Y6494D02*
Y6559D01*
X8800Y6463D02*
X8831Y6494D01*
X8766Y6625D02*
X8831Y6559D01*
X8710Y6627D02*
X8800Y6537D01*
X8710Y6760D02*
X8723Y6772D01*
X8710Y6627D02*
Y6760D01*
X8723Y6772D02*
Y6772D01*
D278*
X3154Y3850D02*
X3750D01*
X4348Y3252D02*
X5349D01*
X3750Y3850D02*
X4348Y3252D01*
X4367Y3281D02*
X5330D01*
X3772Y3876D02*
X4367Y3281D01*
X3169Y3876D02*
X3772D01*
X9326Y4128D02*
X9554Y4356D01*
X9326Y1585D02*
Y4128D01*
Y1585D02*
X9554Y1357D01*
X5433Y4996D02*
X8398D01*
X5165Y5264D02*
X5433Y4996D01*
X5048Y5264D02*
X5165D01*
X4993Y5236D02*
X5020D01*
X5048Y5264D01*
X5421Y4970D02*
X8408Y4970D01*
X5077Y5234D02*
X5157D01*
X5421Y4970D01*
X8398Y4996D02*
X8551Y5149D01*
X8408Y4970D02*
X8566Y5128D01*
X8669D01*
X8474Y4642D02*
Y4996D01*
X8579Y5101D01*
X8639D01*
X8551Y5149D02*
X8640D01*
X5077Y5190D02*
Y5234D01*
X4995Y5166D02*
X5052D01*
X5077Y5190D01*
X4461Y5043D02*
X4495D01*
X4407Y4988D02*
X4461Y5043D01*
X4407Y4787D02*
Y4988D01*
X4226Y4606D02*
X4407Y4787D01*
X4226Y3965D02*
Y4606D01*
Y3965D02*
X4358Y3833D01*
X4184Y3950D02*
X4335Y3800D01*
X4358Y3833D02*
X5325D01*
X5334Y3800D02*
X6054Y4519D01*
X8401D01*
X5325Y3833D02*
X6043Y4551D01*
X8383D01*
X8474Y4642D01*
X4433Y5100D02*
X4476D01*
X4369Y5036D02*
X4433Y5100D01*
X4369Y4806D02*
Y5036D01*
X4184Y4621D02*
X4369Y4806D01*
X4184Y3950D02*
Y4621D01*
X4335Y3800D02*
X5334D01*
X8401Y4519D02*
X8514Y4632D01*
Y4988D01*
X8601Y5075D02*
X8672D01*
X8514Y4988D02*
X8601Y5075D01*
X8643Y4449D02*
Y5051D01*
X4376Y3476D02*
X5212D01*
X3246Y4054D02*
X3798D01*
X4376Y3476D01*
X4361Y3441D02*
X4361D01*
X5224Y3441D01*
X3784Y4018D02*
X4361Y3441D01*
X3222Y4018D02*
X3784D01*
X1844Y4449D02*
Y4733D01*
Y4449D02*
X1962Y4331D01*
X2969D01*
X1897Y4787D02*
X1963D01*
X1844Y4733D02*
X1897Y4787D01*
X1943Y5047D02*
X1989D01*
X2007Y5030D01*
Y4831D02*
Y5030D01*
X1963Y4787D02*
X2007Y4831D01*
X1809Y4431D02*
Y4746D01*
X2969Y4331D02*
X3246Y4054D01*
X5224Y3441D02*
X6118Y4335D01*
X8567Y4335D01*
X5212Y3476D02*
X6101Y4365D01*
X8559D01*
X8643Y4449D01*
X1888Y4824D02*
X1941D01*
X1809Y4746D02*
X1888Y4824D01*
X1809Y4431D02*
X1945Y4295D01*
X2944Y4295D01*
X3222Y4018D01*
X8567Y4335D02*
X8672Y4440D01*
Y5026D01*
X5330Y3281D02*
X6276Y4226D01*
X8702D02*
X8770Y4295D01*
X6276Y4226D02*
X8702D01*
X8744Y4151D02*
X8847Y4254D01*
X6346Y4151D02*
X8744D01*
X5367Y3172D02*
X6346Y4151D01*
X6300Y4204D02*
X8716D01*
X8795Y4282D01*
X5349Y3252D02*
X6300Y4204D01*
X947Y4709D02*
X961D01*
X969Y4700D01*
Y4561D02*
Y4700D01*
Y4561D02*
X1034Y4496D01*
X1285D01*
X1576Y4206D01*
X2839D02*
X3169Y3876D01*
X1576Y4206D02*
X2839D01*
X2828Y4176D02*
X3154Y3850D01*
X1552Y4176D02*
X2828D01*
X8770Y4295D02*
Y4889D01*
X1008Y4458D02*
X1270D01*
X1552Y4176D01*
X917Y4733D02*
X928Y4743D01*
X917Y4549D02*
X1008Y4458D01*
X917Y4549D02*
Y4733D01*
X928Y4743D02*
X946D01*
X3441Y3206D02*
X5363D01*
X6337Y4180D01*
X8736D01*
X8795Y4282D02*
Y4924D01*
X2364Y3644D02*
X2831D01*
X2924Y3551D01*
X2338Y3670D02*
X2364Y3644D01*
X2338Y3670D02*
Y3694D01*
X2929Y3546D02*
X3101D01*
X2924Y3550D02*
X2929Y3546D01*
X2924Y3550D02*
Y3551D01*
X3101Y3546D02*
X3441Y3206D01*
X3080Y3512D02*
X3419Y3172D01*
X2456Y3512D02*
X3080Y3512D01*
X3419Y3172D02*
X5367Y3172D01*
X8820Y4264D02*
Y4928D01*
X8736Y4180D02*
X8820Y4264D01*
Y4928D02*
X8850Y4958D01*
X8869D02*
X8875Y4952D01*
X8850Y4958D02*
X8869D01*
X8875Y4936D02*
Y4952D01*
X8875Y4936D02*
X8875Y4936D01*
X2242Y3619D02*
X2348D01*
X2349Y3619D01*
X2242Y3618D02*
X2242Y3619D01*
X2349Y3619D02*
X2456Y3512D01*
X8847Y4254D02*
Y4911D01*
X5425Y3100D02*
X6321Y3996D01*
X8684D01*
X6346Y3965D02*
X8695D01*
X5442Y3061D02*
X6346Y3965D01*
X8684Y3996D02*
X8911Y4223D01*
X5055Y3100D02*
X5425D01*
X8911Y4223D02*
Y4911D01*
X5055Y3061D02*
X5442D01*
X8695Y3965D02*
X8940Y4210D01*
Y5014D01*
X2122Y3101D02*
X3822D01*
X4037Y2885D01*
X5328Y2885D01*
X3806Y3073D02*
X4028Y2851D01*
X5350Y2851D01*
X6262Y3819D02*
X8752D01*
X5328Y2885D02*
X6262Y3819D01*
X6283Y3785D02*
X8757Y3785D01*
X5350Y2851D02*
X6283Y3785D01*
X1981Y3266D02*
X2019D01*
X2029Y3257D01*
Y3194D02*
Y3257D01*
Y3194D02*
X2122Y3101D01*
X2009Y3182D02*
X2118Y3073D01*
X8979Y4047D02*
Y5015D01*
X8752Y3819D02*
X8979Y4047D01*
X8952Y5042D02*
Y5074D01*
Y5042D02*
X8979Y5015D01*
X1981Y3230D02*
X1999D01*
X2009Y3220D01*
Y3182D02*
Y3220D01*
X2118Y3073D02*
X3806D01*
X8757Y3785D02*
X9004Y4032D01*
X6785Y3743D02*
X6862Y3666D01*
X9004Y4032D02*
Y5027D01*
X6862Y3666D02*
X8791D01*
X6812Y3631D02*
X8805D01*
X9065Y3891D01*
X8791Y3666D02*
X9030Y3904D01*
Y5045D01*
X9065Y3891D02*
Y4628D01*
X9113Y4676D01*
X8990Y5042D02*
Y5044D01*
Y5042D02*
X9004Y5027D01*
X9535Y5300D02*
X9680Y5445D01*
X9485Y5300D02*
X9535D01*
X9680Y5445D02*
Y5953D01*
X9720Y5438D02*
Y5953D01*
X9498Y5273D02*
X9555D01*
X9720Y5438D01*
X9430Y5075D02*
X9459Y5105D01*
Y5234D01*
X9498Y5273D01*
X9408Y5110D02*
X9438Y5139D01*
Y5254D01*
X9485Y5300D01*
X9316Y5276D02*
X9404Y5187D01*
X9316Y5276D02*
Y5729D01*
X9439Y5852D01*
Y5943D01*
X9278Y5269D02*
X9364Y5183D01*
Y5151D02*
Y5183D01*
X9278Y5269D02*
Y5742D01*
X9390Y5854D01*
Y5943D01*
X9388Y5075D02*
X9430D01*
X9113Y4676D02*
Y4997D01*
X9029Y5081D02*
X9113Y4997D01*
X6746Y3697D02*
X6812Y3631D01*
X8968Y5108D02*
X9030Y5045D01*
X8968Y5108D02*
Y5127D01*
X9029Y5081D02*
Y5101D01*
X3134Y2757D02*
Y2833D01*
X3169Y2868D01*
X3800D01*
X3859Y2809D01*
X4609D01*
X3841Y2762D02*
X4589Y2762D01*
X3235Y2839D02*
X3765D01*
X3841Y2762D01*
X4609Y2809D02*
X5095Y2323D01*
X6583D01*
X5069Y2282D02*
X6560Y2282D01*
X7118Y1725D01*
X7142Y1765D02*
X9010D01*
X6583Y2323D02*
X7142Y1765D01*
X9010D02*
X9185Y1941D01*
Y4183D01*
X9343Y4340D01*
Y4791D01*
X9375Y4824D01*
Y5019D01*
X9415Y4815D02*
Y5046D01*
X3206Y2809D02*
X3206Y2759D01*
X3206Y2809D02*
X3235Y2839D01*
X4589Y2762D02*
X5069Y2282D01*
X7118Y1725D02*
X9029Y1725D01*
X7075Y1685D02*
X9043D01*
X7057Y1668D02*
X7075Y1685D01*
X9029Y1725D02*
X9214Y1910D01*
Y4162D01*
X9246Y4151D02*
X9408Y4312D01*
X9246Y1889D02*
Y4151D01*
X9214Y4162D02*
X9376Y4324D01*
Y4776D01*
X9415Y4815D01*
X7057Y1630D02*
X7073Y1614D01*
X7132D01*
X7057Y1630D02*
Y1668D01*
X7132Y1648D02*
X9061D01*
X9043Y1685D02*
X9246Y1889D01*
X9408Y4312D02*
Y4769D01*
X9490Y4851D02*
Y4889D01*
X9408Y4769D02*
X9490Y4851D01*
X9061Y1648D02*
X9280Y1866D01*
Y4128D01*
X9508Y4356D01*
Y4830D01*
X9530Y4852D02*
Y4924D01*
X9508Y4830D02*
X9530Y4852D01*
X11056Y1261D02*
Y1308D01*
X10894Y1281D02*
X11032D01*
Y1314D02*
X11050D01*
X10857Y1252D02*
X11046D01*
X11056Y1261D01*
X11050Y1314D02*
X11056Y1308D01*
X10753Y1357D02*
X10857Y1252D01*
X9554Y1357D02*
X10753D01*
X9554Y4356D02*
Y4837D01*
X9582Y4865D02*
Y4911D01*
X9554Y4837D02*
X9582Y4865D01*
X10775Y1400D02*
X10894Y1281D01*
X9591Y1400D02*
X10775D01*
X9365Y1626D02*
X9591Y1400D01*
X9365Y1626D02*
Y4112D01*
X9592Y4339D01*
Y4832D01*
X9610Y4850D01*
Y4936D01*
X9646Y4853D02*
Y4911D01*
Y4853D02*
X9665Y4833D01*
X9409Y4099D02*
X9665Y4355D01*
X9409Y2505D02*
X9904Y2010D01*
X9409Y2505D02*
Y4099D01*
X9904Y2010D02*
X10774D01*
X10896Y1889D01*
X11040D01*
X11029Y1961D02*
X11048D01*
X11054Y1956D01*
Y1902D02*
Y1956D01*
X11040Y1889D02*
X11054Y1902D01*
X9451Y4091D02*
X9785Y4425D01*
X9451Y2526D02*
X9931Y2046D01*
X9451Y2526D02*
Y4091D01*
X9665Y4355D02*
Y4833D01*
X10915Y1924D02*
X11029D01*
X10793Y2046D02*
X10915Y1924D01*
X9931Y2046D02*
X10793D01*
X9729Y5005D02*
X9785Y4949D01*
Y4425D02*
Y4949D01*
X9489Y3501D02*
X9516Y3474D01*
X9489Y3501D02*
Y4067D01*
X9579Y4157D01*
X10023D01*
X10255Y4389D01*
Y4917D01*
X10111Y5061D02*
X10255Y4917D01*
X9859Y5061D02*
X10111D01*
X9843Y5045D02*
X9859Y5061D01*
X9760Y5045D02*
X9843D01*
X9528Y3508D02*
X9579Y3457D01*
X9528Y4047D02*
X9594Y4113D01*
X9528Y3508D02*
Y4047D01*
X9594Y4113D02*
X10030D01*
X10287Y4370D01*
Y4936D01*
X10121Y5102D02*
X10287Y4936D01*
X9840Y5102D02*
X10121D01*
X9823Y5085D02*
X9840Y5102D01*
X9729Y5085D02*
X9823D01*
X10881Y3444D02*
Y4630D01*
Y3444D02*
X11033Y3292D01*
X10326Y5237D02*
X10913Y4650D01*
X10913Y3448D02*
X10913Y4650D01*
X9854Y5237D02*
X10326D01*
X10913Y3448D02*
X11036Y3325D01*
X10310Y5201D02*
X10881Y4630D01*
X9873Y5201D02*
X10310D01*
X9756Y5125D02*
X9797D01*
X9873Y5201D01*
X9782Y5165D02*
X9854Y5237D01*
X9730Y5165D02*
X9782D01*
D279*
X7881Y6806D02*
X8023D01*
X7867Y6821D02*
X7881Y6806D01*
X7867Y6821D02*
Y6894D01*
Y6916D01*
X7857Y6925D02*
X7867Y6916D01*
X7731Y6931D02*
X7737Y6925D01*
X7857D01*
X7731Y6931D02*
Y7009D01*
X7738Y7015D02*
X7771D01*
X7731Y7009D02*
X7738Y7015D01*
X7942Y6994D02*
X7967D01*
X7877Y6955D02*
X7916Y6994D01*
X7967D02*
X7998Y6964D01*
X7916Y6994D02*
X7942D01*
X7998Y6964D02*
X8023D01*
X7771Y6955D02*
X7877D01*
X7868Y7007D02*
X7868Y7007D01*
X7868Y7007D02*
X7868Y7007D01*
X7886D01*
X7836Y7007D02*
X7868D01*
X7886Y7007D02*
X7922Y7043D01*
X8023D01*
X7826Y7017D02*
X7836Y7007D01*
X7826Y7017D02*
Y7063D01*
X7771Y7075D02*
X7815D01*
X7826Y7063D01*
X8023Y6885D02*
X8154D01*
X8178Y6909D01*
Y7082D01*
X8159Y7100D02*
X8178Y7082D01*
X7940Y7100D02*
X8159D01*
X7911Y7071D02*
X7940Y7100D01*
X7882Y7071D02*
X7911D01*
X7819Y7135D02*
X7882Y7071D01*
X7775Y7135D02*
X7819D01*
M02*
