G04*
G04 #@! TF.GenerationSoftware,Altium Limited,Altium Designer,22.10.1 (41)*
G04*
G04 Layer_Color=8388736*
%FSLAX25Y25*%
%MOIN*%
G70*
G04*
G04 #@! TF.SameCoordinates,72A4C529-D447-4618-9FEB-1D22E0D21F89*
G04*
G04*
G04 #@! TF.FilePolarity,Negative*
G04*
G01*
G75*
%ADD31R,0.07087X0.03937*%
%ADD34R,0.05118X0.01772*%
%ADD36R,0.02600X0.00900*%
%ADD39R,0.00984X0.00591*%
%ADD40R,0.00984X0.01968*%
%ADD41R,0.02362X0.03150*%
%ADD42R,0.01968X0.01968*%
%ADD46R,0.05200X0.02300*%
%ADD47R,0.04375X0.02365*%
%ADD50R,0.00100X0.00100*%
%ADD51R,0.01200X0.03200*%
%ADD52R,0.03200X0.01200*%
%ADD63R,0.05709X0.07874*%
%ADD64R,0.03150X0.05906*%
%ADD74R,0.05339X0.04152*%
%ADD75R,0.02362X0.02362*%
%ADD76R,0.01073X0.01860*%
%ADD77R,0.02047X0.02047*%
%ADD83R,0.01400X0.07900*%
%ADD85R,0.01535X0.03956*%
%ADD86R,0.03956X0.01535*%
%ADD93R,0.02200X0.02000*%
%ADD95R,0.03850X0.02200*%
%ADD98R,0.03543X0.02953*%
%ADD99R,0.01860X0.01073*%
%ADD107R,0.02953X0.03543*%
%ADD110R,0.00100X0.00100*%
%ADD113R,0.02000X0.02200*%
%ADD116R,0.12524X0.12492*%
%ADD117R,0.05906X0.20472*%
%ADD118R,0.06299X0.19291*%
%ADD119R,0.03162X0.05524*%
%ADD120R,0.05524X0.04737*%
%ADD121R,0.02965X0.04540*%
G04:AMPARAMS|DCode=122|XSize=15.87mil|YSize=25.72mil|CornerRadius=5.97mil|HoleSize=0mil|Usage=FLASHONLY|Rotation=180.000|XOffset=0mil|YOffset=0mil|HoleType=Round|Shape=RoundedRectangle|*
%AMROUNDEDRECTD122*
21,1,0.01587,0.01378,0,0,180.0*
21,1,0.00394,0.02572,0,0,180.0*
1,1,0.01194,-0.00197,0.00689*
1,1,0.01194,0.00197,0.00689*
1,1,0.01194,0.00197,-0.00689*
1,1,0.01194,-0.00197,-0.00689*
%
%ADD122ROUNDEDRECTD122*%
%ADD123R,0.05131X0.03162*%
%ADD124R,0.05721X0.07690*%
%ADD125R,0.02178X0.03556*%
%ADD126R,0.10052X0.07021*%
%ADD127O,0.01784X0.04343*%
%ADD128O,0.04343X0.01784*%
%ADD129R,0.21272X0.21272*%
%ADD130R,0.03950X0.04540*%
%ADD131R,0.03162X0.03359*%
%ADD132R,0.04343X0.04737*%
%ADD133R,0.03556X0.04343*%
%ADD134R,0.02965X0.02572*%
%ADD135R,0.04147X0.04343*%
%ADD136R,0.03162X0.02965*%
%ADD137R,0.02965X0.04540*%
%ADD138R,0.01863X0.01784*%
%ADD139R,0.01600X0.01000*%
%ADD140R,0.01000X0.01600*%
%ADD141R,0.13200X0.13200*%
%ADD142R,0.05906X0.02165*%
%ADD143R,0.01883X0.01784*%
%ADD144R,0.01784X0.01883*%
%ADD145R,0.05328X0.06509*%
%ADD146R,0.01981X0.03556*%
%ADD147R,0.02769X0.02178*%
%ADD148R,0.02178X0.02769*%
%ADD149R,0.09068X0.09068*%
%ADD150R,0.01981X0.06706*%
%ADD151R,0.06706X0.01981*%
%ADD152R,0.11627X0.04737*%
%ADD153R,0.03123X0.03241*%
%ADD154R,0.22453X0.22453*%
%ADD155O,0.04343X0.01587*%
%ADD156O,0.01587X0.04343*%
%ADD157O,0.05787X0.01654*%
%ADD158R,0.18500X0.18900*%
G04:AMPARAMS|DCode=159|XSize=29.65mil|YSize=39.5mil|CornerRadius=5.95mil|HoleSize=0mil|Usage=FLASHONLY|Rotation=90.000|XOffset=0mil|YOffset=0mil|HoleType=Round|Shape=RoundedRectangle|*
%AMROUNDEDRECTD159*
21,1,0.02965,0.02760,0,0,90.0*
21,1,0.01776,0.03950,0,0,90.0*
1,1,0.01190,0.01380,0.00888*
1,1,0.01190,0.01380,-0.00888*
1,1,0.01190,-0.01380,-0.00888*
1,1,0.01190,-0.01380,0.00888*
%
%ADD159ROUNDEDRECTD159*%
%ADD160R,0.12800X0.12800*%
%ADD161R,0.09449X0.09449*%
%ADD162R,0.06272X0.04383*%
%ADD163R,0.04343X0.03556*%
%ADD164R,0.03084X0.03398*%
%ADD165R,0.03635X0.02847*%
%ADD166R,0.03241X0.03398*%
%ADD167R,0.04737X0.04934*%
%ADD168R,0.03162X0.04540*%
%ADD169R,0.06312X0.01981*%
%ADD170R,0.04540X0.03950*%
%ADD171R,0.05328X0.06312*%
%ADD172R,0.03753X0.04501*%
%ADD173R,0.03398X0.03241*%
%ADD174R,0.06312X0.05328*%
%ADD175R,0.04540X0.02965*%
%ADD176R,0.05131X0.04737*%
%ADD177R,0.02847X0.03635*%
%ADD178R,0.03556X0.01981*%
%ADD179R,0.03241X0.03123*%
%ADD180R,0.02572X0.02965*%
%ADD181R,0.02965X0.03162*%
%ADD182R,0.05721X0.03162*%
G04:AMPARAMS|DCode=183|XSize=15.87mil|YSize=25.72mil|CornerRadius=5.97mil|HoleSize=0mil|Usage=FLASHONLY|Rotation=90.000|XOffset=0mil|YOffset=0mil|HoleType=Round|Shape=RoundedRectangle|*
%AMROUNDEDRECTD183*
21,1,0.01587,0.01378,0,0,90.0*
21,1,0.00394,0.02572,0,0,90.0*
1,1,0.01194,0.00689,0.00197*
1,1,0.01194,0.00689,-0.00197*
1,1,0.01194,-0.00689,-0.00197*
1,1,0.01194,-0.00689,0.00197*
%
%ADD183ROUNDEDRECTD183*%
%ADD184R,0.09449X0.09449*%
%ADD185C,0.02965*%
%ADD186C,0.10800*%
G04:AMPARAMS|DCode=187|XSize=45.28mil|YSize=70.87mil|CornerRadius=22.64mil|HoleSize=0mil|Usage=FLASHONLY|Rotation=90.000|XOffset=0mil|YOffset=0mil|HoleType=Round|Shape=RoundedRectangle|*
%AMROUNDEDRECTD187*
21,1,0.04528,0.02559,0,0,90.0*
21,1,0.00000,0.07087,0,0,90.0*
1,1,0.04528,0.01280,0.00000*
1,1,0.04528,0.01280,0.00000*
1,1,0.04528,-0.01280,0.00000*
1,1,0.04528,-0.01280,0.00000*
%
%ADD187ROUNDEDRECTD187*%
G04:AMPARAMS|DCode=188|XSize=57.09mil|YSize=78.74mil|CornerRadius=28.54mil|HoleSize=0mil|Usage=FLASHONLY|Rotation=90.000|XOffset=0mil|YOffset=0mil|HoleType=Round|Shape=RoundedRectangle|*
%AMROUNDEDRECTD188*
21,1,0.05709,0.02165,0,0,90.0*
21,1,0.00000,0.07874,0,0,90.0*
1,1,0.05709,0.01083,0.00000*
1,1,0.05709,0.01083,0.00000*
1,1,0.05709,-0.01083,0.00000*
1,1,0.05709,-0.01083,0.00000*
%
%ADD188ROUNDEDRECTD188*%
%ADD189C,0.03150*%
%ADD190R,0.07296X0.07296*%
%ADD191C,0.07296*%
%ADD192C,0.02800*%
%ADD193C,0.30800*%
%ADD194C,0.06800*%
%ADD195C,0.08674*%
%ADD196C,0.11800*%
%ADD197C,0.03800*%
%ADD198R,0.07591X0.07591*%
%ADD199C,0.05469*%
%ADD200R,0.05469X0.05469*%
%ADD201C,0.09646*%
%ADD202C,0.06300*%
%ADD203C,0.09100*%
%ADD204C,0.06312*%
G04:AMPARAMS|DCode=205|XSize=63.12mil|YSize=63.12mil|CornerRadius=17.78mil|HoleSize=0mil|Usage=FLASHONLY|Rotation=270.000|XOffset=0mil|YOffset=0mil|HoleType=Round|Shape=RoundedRectangle|*
%AMROUNDEDRECTD205*
21,1,0.06312,0.02756,0,0,270.0*
21,1,0.02756,0.06312,0,0,270.0*
1,1,0.03556,-0.01378,-0.01378*
1,1,0.03556,-0.01378,0.01378*
1,1,0.03556,0.01378,0.01378*
1,1,0.03556,0.01378,-0.01378*
%
%ADD205ROUNDEDRECTD205*%
%ADD206C,0.06784*%
%ADD207C,0.10249*%
%ADD208C,0.13202*%
%ADD209C,0.16200*%
%ADD210C,0.05500*%
%ADD211C,0.03654*%
G04:AMPARAMS|DCode=212|XSize=70.99mil|YSize=128.08mil|CornerRadius=19.75mil|HoleSize=0mil|Usage=FLASHONLY|Rotation=90.000|XOffset=0mil|YOffset=0mil|HoleType=Round|Shape=RoundedRectangle|*
%AMROUNDEDRECTD212*
21,1,0.07099,0.08858,0,0,90.0*
21,1,0.03150,0.12808,0,0,90.0*
1,1,0.03950,0.04429,0.01575*
1,1,0.03950,0.04429,-0.01575*
1,1,0.03950,-0.04429,-0.01575*
1,1,0.03950,-0.04429,0.01575*
%
%ADD212ROUNDEDRECTD212*%
%ADD213C,0.03300*%
%ADD214C,0.02769*%
%ADD215C,0.04800*%
%ADD216C,0.02700*%
%ADD217C,0.03556*%
G36*
X661028Y533280D02*
X661027Y520972D01*
X653040D01*
Y533619D01*
X660674Y533633D01*
X661028Y533280D01*
D02*
G37*
G36*
X564528Y467032D02*
X564528Y454724D01*
X556539D01*
Y467371D01*
X564174Y467385D01*
X564528Y467032D01*
D02*
G37*
G36*
X399567Y454627D02*
X392126Y454614D01*
X391772Y454967D01*
X391772Y467002D01*
X399567Y467002D01*
Y454627D01*
D02*
G37*
G36*
X93157Y386129D02*
X85248Y386114D01*
X84894Y386468D01*
X84894Y398502D01*
X93157Y398502D01*
Y386129D01*
D02*
G37*
G36*
X387913Y342628D02*
X380157Y342614D01*
X379803Y342967D01*
X379803Y355002D01*
X387913D01*
Y342628D01*
D02*
G37*
G36*
X165331Y269486D02*
X157421Y269472D01*
X157067Y269825D01*
X157067Y281860D01*
X165331Y281860D01*
Y269486D01*
D02*
G37*
G36*
X420000Y202837D02*
Y201263D01*
Y199737D01*
Y197000D01*
X413000D01*
Y199737D01*
Y201263D01*
Y202837D01*
Y204000D01*
X420000D01*
Y202837D01*
D02*
G37*
G36*
X580593Y191093D02*
X573639Y191081D01*
X573285Y191434D01*
Y200903D01*
X580593D01*
X580593Y191093D01*
D02*
G37*
G36*
X529500Y107837D02*
Y106263D01*
Y104737D01*
Y102000D01*
X522500D01*
Y103163D01*
Y104737D01*
Y106263D01*
Y107837D01*
Y109000D01*
X529500D01*
Y107837D01*
D02*
G37*
G36*
X467000D02*
Y106263D01*
Y104737D01*
Y102000D01*
X460000D01*
Y103163D01*
Y104737D01*
Y106263D01*
Y107837D01*
Y109000D01*
X467000D01*
Y107837D01*
D02*
G37*
G36*
X404500D02*
Y106263D01*
Y104737D01*
Y102000D01*
X397500D01*
Y103163D01*
Y104737D01*
Y106263D01*
Y107837D01*
Y109000D01*
X404500D01*
Y107837D01*
D02*
G37*
G36*
X342000D02*
Y106263D01*
Y104737D01*
Y102000D01*
X335000D01*
Y104737D01*
Y106263D01*
Y107837D01*
Y109000D01*
X342000D01*
Y107837D01*
D02*
G37*
G36*
X279500D02*
Y106263D01*
Y104737D01*
Y102000D01*
X272500D01*
Y103163D01*
Y104737D01*
Y106263D01*
Y107837D01*
Y109000D01*
X279500D01*
Y107837D01*
D02*
G37*
G36*
X217000D02*
Y106263D01*
Y104737D01*
Y102000D01*
X210000D01*
Y103163D01*
Y104737D01*
Y106263D01*
Y107837D01*
Y109000D01*
X217000D01*
Y107837D01*
D02*
G37*
G36*
X154500D02*
Y106263D01*
Y104737D01*
Y102000D01*
X147500D01*
Y104737D01*
Y106263D01*
Y107837D01*
Y109000D01*
X154500D01*
Y107837D01*
D02*
G37*
G36*
X92000D02*
Y106263D01*
Y104737D01*
Y102000D01*
X85000D01*
Y104737D01*
Y106263D01*
Y107837D01*
Y109000D01*
X92000D01*
Y107837D01*
D02*
G37*
%LPC*%
G36*
X418837Y202837D02*
X417263D01*
Y201263D01*
X418837D01*
Y202837D01*
D02*
G37*
G36*
X415737D02*
X414163D01*
Y201263D01*
X415737D01*
Y202837D01*
D02*
G37*
G36*
X418837Y199737D02*
X417263D01*
Y198163D01*
X418837D01*
Y199737D01*
D02*
G37*
G36*
X415737D02*
X414163D01*
Y198163D01*
X415737D01*
Y199737D01*
D02*
G37*
G36*
X528337Y107837D02*
X526763D01*
Y106263D01*
X528337D01*
Y107837D01*
D02*
G37*
G36*
X525237D02*
X523663D01*
Y106263D01*
X525237D01*
Y107837D01*
D02*
G37*
G36*
X528337Y104737D02*
X526763D01*
Y103163D01*
X528337D01*
Y104737D01*
D02*
G37*
G36*
X525237D02*
X523663D01*
Y103163D01*
X525237D01*
Y104737D01*
D02*
G37*
G36*
X465837Y107837D02*
X464263D01*
Y106263D01*
X465837D01*
Y107837D01*
D02*
G37*
G36*
X462737D02*
X461163D01*
Y106263D01*
X462737D01*
Y107837D01*
D02*
G37*
G36*
X465837Y104737D02*
X464263D01*
Y103163D01*
X465837D01*
Y104737D01*
D02*
G37*
G36*
X462737D02*
X461163D01*
Y103163D01*
X462737D01*
Y104737D01*
D02*
G37*
G36*
X403337Y107837D02*
X401763D01*
Y106263D01*
X403337D01*
Y107837D01*
D02*
G37*
G36*
X400237D02*
X398663D01*
Y106263D01*
X400237D01*
Y107837D01*
D02*
G37*
G36*
X403337Y104737D02*
X401763D01*
Y103163D01*
X403337D01*
Y104737D01*
D02*
G37*
G36*
X400237D02*
X398663D01*
Y103163D01*
X400237D01*
Y104737D01*
D02*
G37*
G36*
X340837Y107837D02*
X339263D01*
Y106263D01*
X340837D01*
Y107837D01*
D02*
G37*
G36*
X337737D02*
X336163D01*
Y106263D01*
X337737D01*
Y107837D01*
D02*
G37*
G36*
X340837Y104737D02*
X339263D01*
Y103163D01*
X340837D01*
Y104737D01*
D02*
G37*
G36*
X337737D02*
X336163D01*
Y103163D01*
X337737D01*
Y104737D01*
D02*
G37*
G36*
X278337Y107837D02*
X276763D01*
Y106263D01*
X278337D01*
Y107837D01*
D02*
G37*
G36*
X275237D02*
X273663D01*
Y106263D01*
X275237D01*
Y107837D01*
D02*
G37*
G36*
X278337Y104737D02*
X276763D01*
Y103163D01*
X278337D01*
Y104737D01*
D02*
G37*
G36*
X275237D02*
X273663D01*
Y103163D01*
X275237D01*
Y104737D01*
D02*
G37*
G36*
X215837Y107837D02*
X214263D01*
Y106263D01*
X215837D01*
Y107837D01*
D02*
G37*
G36*
X212737D02*
X211163D01*
Y106263D01*
X212737D01*
Y107837D01*
D02*
G37*
G36*
X215837Y104737D02*
X214263D01*
Y103163D01*
X215837D01*
Y104737D01*
D02*
G37*
G36*
X212737D02*
X211163D01*
Y103163D01*
X212737D01*
Y104737D01*
D02*
G37*
G36*
X153337Y107837D02*
X151763D01*
Y106263D01*
X153337D01*
Y107837D01*
D02*
G37*
G36*
X150237D02*
X148663D01*
Y106263D01*
X150237D01*
Y107837D01*
D02*
G37*
G36*
X153337Y104737D02*
X151763D01*
Y103163D01*
X153337D01*
Y104737D01*
D02*
G37*
G36*
X150237D02*
X148663D01*
Y103163D01*
X150237D01*
Y104737D01*
D02*
G37*
G36*
X90837Y107837D02*
X89263D01*
Y106263D01*
X90837D01*
Y107837D01*
D02*
G37*
G36*
X87737D02*
X86163D01*
Y106263D01*
X87737D01*
Y107837D01*
D02*
G37*
G36*
X90837Y104737D02*
X89263D01*
Y103163D01*
X90837D01*
Y104737D01*
D02*
G37*
G36*
X87737D02*
X86163D01*
Y103163D01*
X87737D01*
Y104737D01*
D02*
G37*
%LPD*%
D31*
X145000Y518000D02*
D03*
X199181Y521500D02*
D03*
X212000Y518000D02*
D03*
X201000Y462000D02*
D03*
X212500Y461000D02*
D03*
X226000Y458000D02*
D03*
X220500Y483095D02*
D03*
X223000Y510500D02*
D03*
X225500Y523500D02*
D03*
X177000Y499000D02*
D03*
X218972Y263386D02*
D03*
X984000Y370000D02*
D03*
X1100000Y363000D02*
D03*
X984000Y240000D02*
D03*
X1100000D02*
D03*
Y165000D02*
D03*
X984000D02*
D03*
X552205Y194748D02*
D03*
X337000Y353500D02*
D03*
X134500Y384500D02*
D03*
X1100000Y308071D02*
D03*
X984000D02*
D03*
X438500Y448000D02*
D03*
X517500Y474500D02*
D03*
X425500Y504000D02*
D03*
X520000Y549000D02*
D03*
X603386Y530687D02*
D03*
X851000Y280500D02*
D03*
D34*
X1225583Y663118D02*
D03*
Y660559D02*
D03*
Y658000D02*
D03*
Y655441D02*
D03*
Y652882D02*
D03*
D36*
X1119250Y643713D02*
D03*
Y641744D02*
D03*
Y639776D02*
D03*
X1112750D02*
D03*
Y641744D02*
D03*
Y643713D02*
D03*
X237250Y605469D02*
D03*
Y603500D02*
D03*
Y601532D02*
D03*
X243750D02*
D03*
Y603500D02*
D03*
Y605469D02*
D03*
D39*
X921220Y651189D02*
D03*
Y649811D02*
D03*
D40*
X923779Y650500D02*
D03*
D41*
X1002902Y51642D02*
D03*
X1008413D02*
D03*
X503256Y556000D02*
D03*
X497744D02*
D03*
D42*
X717500Y67319D02*
D03*
Y63776D02*
D03*
Y57819D02*
D03*
Y54276D02*
D03*
X447000Y434772D02*
D03*
Y431228D02*
D03*
Y421728D02*
D03*
Y425272D02*
D03*
Y412228D02*
D03*
Y415772D02*
D03*
X795500Y48319D02*
D03*
Y44776D02*
D03*
Y57819D02*
D03*
Y54276D02*
D03*
Y67319D02*
D03*
Y63776D02*
D03*
X698000Y48319D02*
D03*
Y44776D02*
D03*
Y57819D02*
D03*
Y54276D02*
D03*
Y67319D02*
D03*
Y63776D02*
D03*
X776000Y48319D02*
D03*
Y44776D02*
D03*
Y57819D02*
D03*
Y54276D02*
D03*
Y67319D02*
D03*
Y63776D02*
D03*
X678500Y48319D02*
D03*
Y44776D02*
D03*
Y57819D02*
D03*
Y54276D02*
D03*
Y67319D02*
D03*
Y63776D02*
D03*
X756500Y48319D02*
D03*
Y44776D02*
D03*
Y57819D02*
D03*
Y54276D02*
D03*
Y67319D02*
D03*
Y63776D02*
D03*
X659000Y48319D02*
D03*
Y44776D02*
D03*
Y57819D02*
D03*
Y54276D02*
D03*
Y67319D02*
D03*
Y63776D02*
D03*
X737000Y48319D02*
D03*
Y44776D02*
D03*
Y57819D02*
D03*
Y54276D02*
D03*
Y67319D02*
D03*
Y63776D02*
D03*
X815000Y48319D02*
D03*
Y44776D02*
D03*
Y57819D02*
D03*
Y54276D02*
D03*
Y67319D02*
D03*
Y63776D02*
D03*
X717500Y48319D02*
D03*
Y44776D02*
D03*
D46*
X1017000Y639000D02*
D03*
X1009000Y635260D02*
D03*
Y642740D02*
D03*
D47*
X1114791Y538000D02*
D03*
X1101209D02*
D03*
X1114791Y622000D02*
D03*
X1101209D02*
D03*
D50*
X401000Y105500D02*
D03*
X526000D02*
D03*
X88500D02*
D03*
X151000D02*
D03*
X213500D02*
D03*
X276000D02*
D03*
X338500D02*
D03*
X463500D02*
D03*
D51*
X403953Y99700D02*
D03*
X401984D02*
D03*
X400016D02*
D03*
X398047D02*
D03*
Y111300D02*
D03*
X400016D02*
D03*
X401984D02*
D03*
X403953D02*
D03*
X528953D02*
D03*
X526984D02*
D03*
X525016D02*
D03*
X523047D02*
D03*
Y99700D02*
D03*
X525016D02*
D03*
X526984D02*
D03*
X528953D02*
D03*
X254890Y380950D02*
D03*
X252921D02*
D03*
X250953D02*
D03*
X248984D02*
D03*
X247016D02*
D03*
X245047D02*
D03*
X243079D02*
D03*
X241110D02*
D03*
Y362050D02*
D03*
X243079D02*
D03*
X245047D02*
D03*
X247016D02*
D03*
X248984D02*
D03*
X250953D02*
D03*
X252921D02*
D03*
X254890D02*
D03*
X419453Y206300D02*
D03*
X417484D02*
D03*
X415516D02*
D03*
X413547D02*
D03*
Y194700D02*
D03*
X415516D02*
D03*
X417484D02*
D03*
X419453D02*
D03*
X91453Y111300D02*
D03*
X89484D02*
D03*
X87516D02*
D03*
X85547D02*
D03*
Y99700D02*
D03*
X87516D02*
D03*
X89484D02*
D03*
X91453D02*
D03*
X153953D02*
D03*
X151984D02*
D03*
X150016D02*
D03*
X148047D02*
D03*
Y111300D02*
D03*
X150016D02*
D03*
X151984D02*
D03*
X153953D02*
D03*
X216453Y99700D02*
D03*
X214484D02*
D03*
X212516D02*
D03*
X210547D02*
D03*
Y111300D02*
D03*
X212516D02*
D03*
X214484D02*
D03*
X216453D02*
D03*
X278953Y99700D02*
D03*
X276984D02*
D03*
X275016D02*
D03*
X273047D02*
D03*
Y111300D02*
D03*
X275016D02*
D03*
X276984D02*
D03*
X278953D02*
D03*
X341453D02*
D03*
X339484D02*
D03*
X337516D02*
D03*
X335547D02*
D03*
Y99700D02*
D03*
X337516D02*
D03*
X339484D02*
D03*
X341453D02*
D03*
X466453Y111300D02*
D03*
X464484D02*
D03*
X462516D02*
D03*
X460547D02*
D03*
Y99700D02*
D03*
X462516D02*
D03*
X464484D02*
D03*
X466453D02*
D03*
D52*
X395200Y102547D02*
D03*
Y104516D02*
D03*
Y106484D02*
D03*
Y108453D02*
D03*
X406800D02*
D03*
Y106484D02*
D03*
Y104516D02*
D03*
Y102547D02*
D03*
X531800D02*
D03*
Y104516D02*
D03*
Y106484D02*
D03*
Y108453D02*
D03*
X520200D02*
D03*
Y106484D02*
D03*
Y104516D02*
D03*
Y102547D02*
D03*
X257450Y364610D02*
D03*
Y366579D02*
D03*
Y368547D02*
D03*
Y370516D02*
D03*
Y372484D02*
D03*
Y374453D02*
D03*
Y376421D02*
D03*
Y378390D02*
D03*
X238550D02*
D03*
Y376421D02*
D03*
Y374453D02*
D03*
Y372484D02*
D03*
Y370516D02*
D03*
Y368547D02*
D03*
Y366579D02*
D03*
Y364610D02*
D03*
X410700Y203453D02*
D03*
Y201484D02*
D03*
Y199516D02*
D03*
Y197547D02*
D03*
X422300D02*
D03*
Y199516D02*
D03*
Y201484D02*
D03*
Y203453D02*
D03*
X94300Y102547D02*
D03*
Y104516D02*
D03*
Y106484D02*
D03*
Y108453D02*
D03*
X82700D02*
D03*
Y106484D02*
D03*
Y104516D02*
D03*
Y102547D02*
D03*
X145200D02*
D03*
Y104516D02*
D03*
Y106484D02*
D03*
Y108453D02*
D03*
X156800D02*
D03*
Y106484D02*
D03*
Y104516D02*
D03*
Y102547D02*
D03*
X207700D02*
D03*
Y104516D02*
D03*
Y106484D02*
D03*
Y108453D02*
D03*
X219300D02*
D03*
Y106484D02*
D03*
Y104516D02*
D03*
Y102547D02*
D03*
X270200D02*
D03*
Y104516D02*
D03*
Y106484D02*
D03*
Y108453D02*
D03*
X281800D02*
D03*
Y106484D02*
D03*
Y104516D02*
D03*
Y102547D02*
D03*
X344300D02*
D03*
Y104516D02*
D03*
Y106484D02*
D03*
Y108453D02*
D03*
X332700D02*
D03*
Y106484D02*
D03*
Y104516D02*
D03*
Y102547D02*
D03*
X469300D02*
D03*
Y104516D02*
D03*
Y106484D02*
D03*
Y108453D02*
D03*
X457700D02*
D03*
Y106484D02*
D03*
Y104516D02*
D03*
Y102547D02*
D03*
D63*
X862933Y671496D02*
D03*
Y704173D02*
D03*
X917067D02*
D03*
Y671496D02*
D03*
D64*
X902618Y681732D02*
D03*
X898287D02*
D03*
X893957D02*
D03*
X889626D02*
D03*
X885295D02*
D03*
X880965D02*
D03*
X876634D02*
D03*
X872303D02*
D03*
D74*
X351500Y269143D02*
D03*
Y274857D02*
D03*
D75*
X1192067Y456201D02*
D03*
X1187933D02*
D03*
D76*
X219331Y632701D02*
D03*
X223268D02*
D03*
X159832D02*
D03*
X163768D02*
D03*
D77*
X281500Y255650D02*
D03*
Y252500D02*
D03*
D83*
X750176Y641150D02*
D03*
X748995Y608850D02*
D03*
X747814Y641150D02*
D03*
X746633Y608850D02*
D03*
X745452Y641150D02*
D03*
X744271Y608850D02*
D03*
X743090Y641150D02*
D03*
X741909Y608850D02*
D03*
X740728Y641150D02*
D03*
X739547Y608850D02*
D03*
X738366Y641150D02*
D03*
X737185Y608850D02*
D03*
X736004Y641150D02*
D03*
X734823Y608850D02*
D03*
X733642Y641150D02*
D03*
X732461Y608850D02*
D03*
X731280Y641150D02*
D03*
X730099Y608850D02*
D03*
X728918Y641150D02*
D03*
X727737Y608850D02*
D03*
X726556Y641150D02*
D03*
X725375Y608850D02*
D03*
X724194Y641150D02*
D03*
X723013Y608850D02*
D03*
X721832Y641150D02*
D03*
X720651Y608850D02*
D03*
X719470Y641150D02*
D03*
X718289Y608850D02*
D03*
X717108Y641150D02*
D03*
X715927Y608850D02*
D03*
X714746Y641150D02*
D03*
X713565Y608850D02*
D03*
X712384Y641150D02*
D03*
X711203Y608850D02*
D03*
X710022Y641150D02*
D03*
X708841Y608850D02*
D03*
X707660Y641150D02*
D03*
X706479Y608850D02*
D03*
X705298Y641150D02*
D03*
X704117Y608850D02*
D03*
X702936Y641150D02*
D03*
X701755Y608850D02*
D03*
X700574Y641150D02*
D03*
X699393Y608850D02*
D03*
X698212Y641150D02*
D03*
X697031Y608850D02*
D03*
X695850Y641150D02*
D03*
X694669Y608850D02*
D03*
X693488Y641150D02*
D03*
X692307Y608850D02*
D03*
X691126Y641150D02*
D03*
X689945Y608850D02*
D03*
X688764Y641150D02*
D03*
X687583Y608850D02*
D03*
X686402Y641150D02*
D03*
X685221Y608850D02*
D03*
X684040Y641150D02*
D03*
X682859Y608850D02*
D03*
X681678Y641150D02*
D03*
X680497Y608850D02*
D03*
X679316Y641150D02*
D03*
X678135Y608850D02*
D03*
X676954Y641150D02*
D03*
X675773Y608850D02*
D03*
X674592Y641150D02*
D03*
X673411Y608850D02*
D03*
X672230Y641150D02*
D03*
X671049Y608850D02*
D03*
X669868Y641150D02*
D03*
X668687Y608850D02*
D03*
X667506Y641150D02*
D03*
X666325Y608850D02*
D03*
X665144Y641150D02*
D03*
X663963Y608850D02*
D03*
X662782Y641150D02*
D03*
X661601Y608850D02*
D03*
X660420Y641150D02*
D03*
X659239Y608850D02*
D03*
X658058Y641150D02*
D03*
X656877Y608850D02*
D03*
X655696Y641150D02*
D03*
X654515Y608850D02*
D03*
X653334Y641150D02*
D03*
X652153Y608850D02*
D03*
X650972Y641150D02*
D03*
X649791Y608850D02*
D03*
X648610Y641150D02*
D03*
X647429Y608850D02*
D03*
X646248Y641150D02*
D03*
X645067Y608850D02*
D03*
X643886Y641150D02*
D03*
X642705Y608850D02*
D03*
X641524Y641150D02*
D03*
X640343Y608850D02*
D03*
X639162Y641150D02*
D03*
X637981Y608850D02*
D03*
X636800Y641150D02*
D03*
X635619Y608850D02*
D03*
X634438Y641150D02*
D03*
X633257Y608850D02*
D03*
X632076Y641150D02*
D03*
X630895Y608850D02*
D03*
X629714Y641150D02*
D03*
X628533Y608850D02*
D03*
X627352Y641150D02*
D03*
X626171Y608850D02*
D03*
X624990Y641150D02*
D03*
X623809Y608850D02*
D03*
X622628Y641150D02*
D03*
X621447Y608850D02*
D03*
X620266Y641150D02*
D03*
X617904D02*
D03*
X616723Y608850D02*
D03*
X615542Y641150D02*
D03*
X614361Y608850D02*
D03*
X613180Y641150D02*
D03*
X611999Y608850D02*
D03*
X610818Y641150D02*
D03*
X609637Y608850D02*
D03*
X608456Y641150D02*
D03*
X607275Y608850D02*
D03*
X606094Y641150D02*
D03*
X604913Y608850D02*
D03*
X603732Y641150D02*
D03*
X602551Y608850D02*
D03*
X601370Y641150D02*
D03*
X600189Y608850D02*
D03*
X599008Y641150D02*
D03*
X597827Y608850D02*
D03*
X596646Y641150D02*
D03*
X595465Y608850D02*
D03*
X594284Y641150D02*
D03*
X593103Y608850D02*
D03*
X591922Y641150D02*
D03*
X590741Y608850D02*
D03*
X589560Y641150D02*
D03*
X588379Y608850D02*
D03*
X587198Y641150D02*
D03*
X586017Y608850D02*
D03*
X584836Y641150D02*
D03*
X583655Y608850D02*
D03*
X582474Y641150D02*
D03*
X581293Y608850D02*
D03*
X580112Y641150D02*
D03*
X578931Y608850D02*
D03*
X577750Y641150D02*
D03*
X576569Y608850D02*
D03*
X575388Y641150D02*
D03*
X574207Y608850D02*
D03*
X573026Y641150D02*
D03*
X571845Y608850D02*
D03*
X570664Y641150D02*
D03*
X569483Y608850D02*
D03*
X568302Y641150D02*
D03*
X567121Y608850D02*
D03*
X565940Y641150D02*
D03*
X564759Y608850D02*
D03*
X563578Y641150D02*
D03*
X562397Y608850D02*
D03*
X547043Y641150D02*
D03*
X545862Y608850D02*
D03*
X544681Y641150D02*
D03*
X543500Y608850D02*
D03*
X542319Y641150D02*
D03*
X541138Y608850D02*
D03*
X539957Y641150D02*
D03*
X538776Y608850D02*
D03*
X537595Y641150D02*
D03*
X536414Y608850D02*
D03*
X535233Y641150D02*
D03*
X534052Y608850D02*
D03*
X532871Y641150D02*
D03*
X531690Y608850D02*
D03*
X530509Y641150D02*
D03*
X529328Y608850D02*
D03*
X528147Y641150D02*
D03*
X526966Y608850D02*
D03*
X525785Y641150D02*
D03*
X524604Y608850D02*
D03*
X523423Y641150D02*
D03*
X522242Y608850D02*
D03*
X521061Y641150D02*
D03*
X519880Y608850D02*
D03*
X518699Y641150D02*
D03*
X517518Y608850D02*
D03*
X516337Y641150D02*
D03*
X515156Y608850D02*
D03*
X513975Y641150D02*
D03*
X512794Y608850D02*
D03*
X511613Y641150D02*
D03*
X510432Y608850D02*
D03*
X509251Y641150D02*
D03*
X508070Y608850D02*
D03*
X506889Y641150D02*
D03*
X505708Y608850D02*
D03*
X504527Y641150D02*
D03*
X503346Y608850D02*
D03*
X502165Y641150D02*
D03*
X500984Y608850D02*
D03*
X619085D02*
D03*
D85*
X535000Y73793D02*
D03*
X532441D02*
D03*
X529882D02*
D03*
X527323D02*
D03*
Y59207D02*
D03*
X529882D02*
D03*
X532441D02*
D03*
X535000D02*
D03*
X451661Y198207D02*
D03*
X454220D02*
D03*
X456779D02*
D03*
X459339D02*
D03*
Y212793D02*
D03*
X456779D02*
D03*
X454220D02*
D03*
X451661D02*
D03*
X97500Y73793D02*
D03*
X94941D02*
D03*
X92382D02*
D03*
X89823D02*
D03*
Y59207D02*
D03*
X92382D02*
D03*
X94941D02*
D03*
X97500D02*
D03*
X160000D02*
D03*
X157441D02*
D03*
X154882D02*
D03*
X152323D02*
D03*
Y73793D02*
D03*
X154882D02*
D03*
X157441D02*
D03*
X160000D02*
D03*
X222500Y59207D02*
D03*
X219941D02*
D03*
X217382D02*
D03*
X214823D02*
D03*
Y73793D02*
D03*
X217382D02*
D03*
X219941D02*
D03*
X222500D02*
D03*
X285000Y59207D02*
D03*
X282441D02*
D03*
X279882D02*
D03*
X277323D02*
D03*
Y73793D02*
D03*
X279882D02*
D03*
X282441D02*
D03*
X285000D02*
D03*
X347500Y59207D02*
D03*
X344941D02*
D03*
X342382D02*
D03*
X339823D02*
D03*
Y73793D02*
D03*
X342382D02*
D03*
X344941D02*
D03*
X347500D02*
D03*
X410000Y59207D02*
D03*
X407441D02*
D03*
X404882D02*
D03*
X402323D02*
D03*
Y73793D02*
D03*
X404882D02*
D03*
X407441D02*
D03*
X410000D02*
D03*
X472500D02*
D03*
X469941D02*
D03*
X467382D02*
D03*
X464823D02*
D03*
Y59207D02*
D03*
X467382D02*
D03*
X469941D02*
D03*
X472500D02*
D03*
D86*
X523869Y70339D02*
D03*
Y67779D02*
D03*
Y65220D02*
D03*
Y62661D02*
D03*
X538454D02*
D03*
Y65220D02*
D03*
Y67779D02*
D03*
Y70339D02*
D03*
X448207Y209339D02*
D03*
Y206780D02*
D03*
Y204221D02*
D03*
Y201661D02*
D03*
X462793D02*
D03*
Y204221D02*
D03*
Y206780D02*
D03*
Y209339D02*
D03*
X86369Y70339D02*
D03*
Y67779D02*
D03*
Y65220D02*
D03*
Y62661D02*
D03*
X100954D02*
D03*
Y65220D02*
D03*
Y67779D02*
D03*
Y70339D02*
D03*
X163454D02*
D03*
Y67779D02*
D03*
Y65220D02*
D03*
Y62661D02*
D03*
X148869D02*
D03*
Y65220D02*
D03*
Y67779D02*
D03*
Y70339D02*
D03*
X225954D02*
D03*
Y67779D02*
D03*
Y65220D02*
D03*
Y62661D02*
D03*
X211368D02*
D03*
Y65220D02*
D03*
Y67779D02*
D03*
Y70339D02*
D03*
X288454D02*
D03*
Y67779D02*
D03*
Y65220D02*
D03*
Y62661D02*
D03*
X273868D02*
D03*
Y65220D02*
D03*
Y67779D02*
D03*
Y70339D02*
D03*
X350954D02*
D03*
Y67779D02*
D03*
Y65220D02*
D03*
Y62661D02*
D03*
X336368D02*
D03*
Y65220D02*
D03*
Y67779D02*
D03*
Y70339D02*
D03*
X413454D02*
D03*
Y67779D02*
D03*
Y65220D02*
D03*
Y62661D02*
D03*
X398868D02*
D03*
Y65220D02*
D03*
Y67779D02*
D03*
Y70339D02*
D03*
X461369D02*
D03*
Y67779D02*
D03*
Y65220D02*
D03*
Y62661D02*
D03*
X475954D02*
D03*
Y65220D02*
D03*
Y67779D02*
D03*
Y70339D02*
D03*
D93*
X963909Y28980D02*
D03*
Y32980D02*
D03*
X940370Y28980D02*
D03*
Y32980D02*
D03*
X948217Y28980D02*
D03*
Y32980D02*
D03*
X956063Y28980D02*
D03*
Y32980D02*
D03*
D95*
X940375Y659260D02*
D03*
Y663000D02*
D03*
X929625Y666740D02*
D03*
Y663000D02*
D03*
Y659260D02*
D03*
X940375Y666740D02*
D03*
D98*
X166000Y652032D02*
D03*
Y647307D02*
D03*
X225500Y652032D02*
D03*
Y647307D02*
D03*
X489500Y556138D02*
D03*
Y560862D02*
D03*
X511500D02*
D03*
Y556138D02*
D03*
X932500Y673638D02*
D03*
Y678362D02*
D03*
D99*
X149721Y651532D02*
D03*
Y655469D02*
D03*
X209221Y651532D02*
D03*
Y655469D02*
D03*
X140761Y631756D02*
D03*
Y635693D02*
D03*
X200260D02*
D03*
Y631756D02*
D03*
D107*
X939118Y617571D02*
D03*
X943843D02*
D03*
X503638Y533500D02*
D03*
X508362D02*
D03*
D110*
X416500Y200500D02*
D03*
D113*
X935740Y72402D02*
D03*
X931740D02*
D03*
X927496Y63429D02*
D03*
X931496D02*
D03*
Y55581D02*
D03*
X927496D02*
D03*
X931496Y47734D02*
D03*
X927496D02*
D03*
Y39886D02*
D03*
X931496D02*
D03*
D116*
X1033475Y658001D02*
D03*
D117*
X97500Y10986D02*
D03*
X1090000D02*
D03*
X160000D02*
D03*
X222500D02*
D03*
X285000D02*
D03*
X347500D02*
D03*
X410000D02*
D03*
X472500D02*
D03*
X535000D02*
D03*
D118*
X114232Y11576D02*
D03*
X80768D02*
D03*
X1106732D02*
D03*
X1073268D02*
D03*
X143268D02*
D03*
X176732D02*
D03*
X205768D02*
D03*
X239232D02*
D03*
X268268D02*
D03*
X301732D02*
D03*
X330768D02*
D03*
X364232D02*
D03*
X393268D02*
D03*
X426732D02*
D03*
X489232D02*
D03*
X455768D02*
D03*
X551732D02*
D03*
X518268D02*
D03*
D119*
X1137260Y631579D02*
D03*
X1144740D02*
D03*
X1141000Y641421D02*
D03*
X1152260Y631579D02*
D03*
X1159740D02*
D03*
X1156000Y641421D02*
D03*
X1167260Y631579D02*
D03*
X1174740D02*
D03*
X1171000Y641421D02*
D03*
X1182260Y631579D02*
D03*
X1189740D02*
D03*
X1186000Y641421D02*
D03*
D120*
X975158Y51642D02*
D03*
Y66996D02*
D03*
X995158D02*
D03*
Y51642D02*
D03*
D121*
X224000Y349764D02*
D03*
Y345236D02*
D03*
D122*
X501532Y523445D02*
D03*
X503500D02*
D03*
X505469D02*
D03*
Y516555D02*
D03*
X503500D02*
D03*
X501532D02*
D03*
X231492Y369264D02*
D03*
X229524D02*
D03*
X227555D02*
D03*
Y362374D02*
D03*
X229524D02*
D03*
X231492D02*
D03*
D123*
X885276Y572740D02*
D03*
Y569000D02*
D03*
Y565260D02*
D03*
X894724D02*
D03*
Y572740D02*
D03*
D124*
X478942Y538232D02*
D03*
X469257D02*
D03*
X478942Y554374D02*
D03*
X469257D02*
D03*
D125*
X214339Y647307D02*
D03*
X211779D02*
D03*
X209221D02*
D03*
X206661D02*
D03*
Y635693D02*
D03*
X209221D02*
D03*
X211779D02*
D03*
X214339D02*
D03*
X154839Y647307D02*
D03*
X152279D02*
D03*
X149721D02*
D03*
X147161D02*
D03*
Y635693D02*
D03*
X149721D02*
D03*
X152279D02*
D03*
X154839D02*
D03*
D126*
X210500Y641500D02*
D03*
X151000D02*
D03*
D127*
X492764Y508724D02*
D03*
X490795D02*
D03*
X488827D02*
D03*
X486858D02*
D03*
X484890D02*
D03*
X482921D02*
D03*
X480953D02*
D03*
X478984D02*
D03*
X477016D02*
D03*
X475047D02*
D03*
X473079D02*
D03*
X471110D02*
D03*
X469142D02*
D03*
X467173D02*
D03*
X465205D02*
D03*
X463236D02*
D03*
Y474276D02*
D03*
X465205D02*
D03*
X467173D02*
D03*
X469142D02*
D03*
X471110D02*
D03*
X473079D02*
D03*
X475047D02*
D03*
X477016D02*
D03*
X478984D02*
D03*
X480953D02*
D03*
X482921D02*
D03*
X484890D02*
D03*
X486858D02*
D03*
X488827D02*
D03*
X490795D02*
D03*
X492764D02*
D03*
D128*
X460776Y506264D02*
D03*
Y504295D02*
D03*
Y502327D02*
D03*
Y500358D02*
D03*
Y498390D02*
D03*
Y496421D02*
D03*
Y494453D02*
D03*
Y492484D02*
D03*
Y490516D02*
D03*
Y488547D02*
D03*
Y486579D02*
D03*
Y484610D02*
D03*
Y482642D02*
D03*
Y480673D02*
D03*
Y478705D02*
D03*
Y476736D02*
D03*
X495224D02*
D03*
Y478705D02*
D03*
Y480673D02*
D03*
Y482642D02*
D03*
Y484610D02*
D03*
Y486579D02*
D03*
Y488547D02*
D03*
Y490516D02*
D03*
Y492484D02*
D03*
Y494453D02*
D03*
Y496421D02*
D03*
Y498390D02*
D03*
Y500358D02*
D03*
Y502327D02*
D03*
Y504295D02*
D03*
Y506264D02*
D03*
D129*
X478000Y491500D02*
D03*
D130*
X486342Y524000D02*
D03*
X491657D02*
D03*
X376039Y686721D02*
D03*
X382535D02*
D03*
X434252Y686000D02*
D03*
X440748D02*
D03*
X247748Y248000D02*
D03*
X241252D02*
D03*
X891752Y580000D02*
D03*
X898248D02*
D03*
X104752Y608000D02*
D03*
X111248D02*
D03*
X1198252Y627000D02*
D03*
X1204748D02*
D03*
X434252Y691500D02*
D03*
X440748D02*
D03*
D131*
X675500Y595327D02*
D03*
Y598673D02*
D03*
D132*
X505150Y442000D02*
D03*
X498850D02*
D03*
D133*
X1008413Y57142D02*
D03*
X1002902D02*
D03*
X258756Y242500D02*
D03*
X253244D02*
D03*
X1009044Y653000D02*
D03*
X1014556D02*
D03*
X451756Y691500D02*
D03*
X446244D02*
D03*
X446244Y686000D02*
D03*
X451756D02*
D03*
X388231Y686721D02*
D03*
X393743D02*
D03*
X258756Y248000D02*
D03*
X253244D02*
D03*
D134*
X1090000Y48772D02*
D03*
Y45228D02*
D03*
X511500Y510976D02*
D03*
Y514520D02*
D03*
X473079Y469272D02*
D03*
Y465728D02*
D03*
X506500Y503114D02*
D03*
Y499571D02*
D03*
X663000Y365728D02*
D03*
Y369272D02*
D03*
X288500Y246228D02*
D03*
Y249772D02*
D03*
X351500Y264272D02*
D03*
Y260728D02*
D03*
X347500D02*
D03*
Y264272D02*
D03*
X254232Y327272D02*
D03*
Y323728D02*
D03*
X250768D02*
D03*
Y327272D02*
D03*
X397000Y189528D02*
D03*
Y193072D02*
D03*
Y211472D02*
D03*
Y207928D02*
D03*
X430500Y215072D02*
D03*
Y211528D02*
D03*
X447000Y403272D02*
D03*
Y399728D02*
D03*
X77500Y92272D02*
D03*
Y88728D02*
D03*
X140000D02*
D03*
Y92272D02*
D03*
X202500Y88728D02*
D03*
Y92272D02*
D03*
X265000Y88728D02*
D03*
Y92272D02*
D03*
X327500Y88728D02*
D03*
Y92272D02*
D03*
X390000Y88728D02*
D03*
Y92272D02*
D03*
X452500D02*
D03*
Y88728D02*
D03*
X515000Y92272D02*
D03*
Y88728D02*
D03*
X81500Y92272D02*
D03*
Y88728D02*
D03*
X144000D02*
D03*
Y92272D02*
D03*
X206500Y88728D02*
D03*
Y92272D02*
D03*
X269000Y88728D02*
D03*
Y92272D02*
D03*
X331500Y88728D02*
D03*
Y92272D02*
D03*
X394000Y88728D02*
D03*
Y92272D02*
D03*
X456500D02*
D03*
Y88728D02*
D03*
X519000Y92272D02*
D03*
Y88728D02*
D03*
X77500Y96228D02*
D03*
Y99772D02*
D03*
X140000D02*
D03*
Y96228D02*
D03*
X202500Y99772D02*
D03*
Y96228D02*
D03*
X265000Y99772D02*
D03*
Y96228D02*
D03*
X327500Y99772D02*
D03*
Y96228D02*
D03*
X390000Y99772D02*
D03*
Y96228D02*
D03*
X452500D02*
D03*
Y99772D02*
D03*
X515000Y96228D02*
D03*
Y99772D02*
D03*
X99500Y96228D02*
D03*
Y99772D02*
D03*
X162000D02*
D03*
Y96228D02*
D03*
X224500Y99772D02*
D03*
Y96228D02*
D03*
X287000Y99772D02*
D03*
Y96228D02*
D03*
X349500Y99772D02*
D03*
Y96228D02*
D03*
X412000Y99772D02*
D03*
Y96228D02*
D03*
X474500D02*
D03*
Y99772D02*
D03*
X537000Y96228D02*
D03*
Y99772D02*
D03*
X99500Y103728D02*
D03*
Y107272D02*
D03*
X162000D02*
D03*
Y103728D02*
D03*
X224500Y107272D02*
D03*
Y103728D02*
D03*
X287000Y107272D02*
D03*
Y103728D02*
D03*
X349500Y107272D02*
D03*
Y103728D02*
D03*
X412000Y107272D02*
D03*
Y103728D02*
D03*
X474500D02*
D03*
Y107272D02*
D03*
X537000Y103728D02*
D03*
Y107272D02*
D03*
X77500Y103728D02*
D03*
Y107272D02*
D03*
X140000D02*
D03*
Y103728D02*
D03*
X202500Y107272D02*
D03*
Y103728D02*
D03*
X265000Y107272D02*
D03*
Y103728D02*
D03*
X327500Y107272D02*
D03*
Y103728D02*
D03*
X390000Y107272D02*
D03*
Y103728D02*
D03*
X452500D02*
D03*
Y107272D02*
D03*
X515000Y103728D02*
D03*
Y107272D02*
D03*
X795500Y82319D02*
D03*
Y78776D02*
D03*
X698000Y82319D02*
D03*
Y78776D02*
D03*
X776000Y82319D02*
D03*
Y78776D02*
D03*
X678500Y82319D02*
D03*
Y78776D02*
D03*
X756500Y82319D02*
D03*
Y78776D02*
D03*
X659000Y82319D02*
D03*
Y78776D02*
D03*
X737000Y82319D02*
D03*
Y78776D02*
D03*
X815000Y82319D02*
D03*
Y78776D02*
D03*
X717500Y82319D02*
D03*
Y78776D02*
D03*
X875500Y476728D02*
D03*
Y480272D02*
D03*
X879500Y476728D02*
D03*
Y480272D02*
D03*
X883500Y476728D02*
D03*
Y480272D02*
D03*
X887500Y476728D02*
D03*
Y480272D02*
D03*
X891500Y476728D02*
D03*
Y480272D02*
D03*
X949000Y476728D02*
D03*
Y480272D02*
D03*
X953000Y476728D02*
D03*
Y480272D02*
D03*
X957000Y476728D02*
D03*
Y480272D02*
D03*
X961000Y476728D02*
D03*
Y480272D02*
D03*
X965000Y476728D02*
D03*
Y480272D02*
D03*
D135*
X497449Y549000D02*
D03*
X503551D02*
D03*
D136*
X812673Y643000D02*
D03*
X809327D02*
D03*
X1112327Y633500D02*
D03*
X1115673D02*
D03*
X1088327Y622000D02*
D03*
X1091673D02*
D03*
X1088327Y538000D02*
D03*
X1091673D02*
D03*
X649673Y354000D02*
D03*
X646327D02*
D03*
X649673Y349000D02*
D03*
X646327D02*
D03*
X649673Y344000D02*
D03*
X646327D02*
D03*
X649673Y339000D02*
D03*
X646327D02*
D03*
X649673Y334000D02*
D03*
X646327D02*
D03*
X649673Y329000D02*
D03*
X646327D02*
D03*
X649673Y319000D02*
D03*
X646327D02*
D03*
X649673Y314000D02*
D03*
X646327D02*
D03*
Y324000D02*
D03*
X649673D02*
D03*
X285673Y239126D02*
D03*
X282327D02*
D03*
X267327Y369500D02*
D03*
X270673D02*
D03*
X267327Y374000D02*
D03*
X270673D02*
D03*
X267327Y378500D02*
D03*
X270673D02*
D03*
X267327Y383000D02*
D03*
X270673D02*
D03*
X221173Y385500D02*
D03*
X217827D02*
D03*
Y381000D02*
D03*
X221173D02*
D03*
X217827Y376500D02*
D03*
X221173D02*
D03*
X217827Y372000D02*
D03*
X221173D02*
D03*
X812673Y635500D02*
D03*
X809327D02*
D03*
D137*
X478854Y641500D02*
D03*
X473146D02*
D03*
X467854D02*
D03*
X462146D02*
D03*
D138*
X1090000Y34000D02*
D03*
X1088327D02*
D03*
D139*
X960803Y51657D02*
D03*
X941512Y57564D02*
D03*
Y53626D02*
D03*
Y49688D02*
D03*
Y45750D02*
D03*
X960803D02*
D03*
Y47719D02*
D03*
Y49688D02*
D03*
Y53626D02*
D03*
Y55595D02*
D03*
Y57564D02*
D03*
Y59533D02*
D03*
X941512D02*
D03*
Y55595D02*
D03*
Y51657D02*
D03*
Y47719D02*
D03*
D140*
X946235Y62287D02*
D03*
Y42996D02*
D03*
X950173D02*
D03*
X954111D02*
D03*
X958049D02*
D03*
Y62287D02*
D03*
X956080D02*
D03*
X954111D02*
D03*
X952142D02*
D03*
X950173D02*
D03*
X948204D02*
D03*
X944266D02*
D03*
Y42996D02*
D03*
X948204D02*
D03*
X952142D02*
D03*
X956080D02*
D03*
D141*
X951157Y52642D02*
D03*
D142*
X166886Y598839D02*
D03*
Y596279D02*
D03*
Y593720D02*
D03*
Y591161D02*
D03*
X190114Y598839D02*
D03*
Y596279D02*
D03*
Y593720D02*
D03*
Y591161D02*
D03*
X92386Y598839D02*
D03*
Y596279D02*
D03*
Y593720D02*
D03*
Y591161D02*
D03*
X115614Y598839D02*
D03*
Y596279D02*
D03*
Y593720D02*
D03*
Y591161D02*
D03*
D143*
X971982Y600118D02*
D03*
Y602087D02*
D03*
Y604055D02*
D03*
Y606024D02*
D03*
X965978D02*
D03*
Y604055D02*
D03*
Y602087D02*
D03*
Y600118D02*
D03*
D144*
X969965Y606073D02*
D03*
X967997D02*
D03*
Y600069D02*
D03*
X969965D02*
D03*
D145*
X970980Y626598D02*
D03*
Y617543D02*
D03*
D146*
X523941Y37150D02*
D03*
X526500D02*
D03*
X529059D02*
D03*
Y30850D02*
D03*
X526500D02*
D03*
X523941D02*
D03*
X86441D02*
D03*
X89000D02*
D03*
X91559D02*
D03*
Y37150D02*
D03*
X89000D02*
D03*
X86441D02*
D03*
X148941D02*
D03*
X151500D02*
D03*
X154059D02*
D03*
Y30850D02*
D03*
X151500D02*
D03*
X148941D02*
D03*
X211441Y37150D02*
D03*
X214000D02*
D03*
X216559D02*
D03*
Y30850D02*
D03*
X214000D02*
D03*
X211441D02*
D03*
X273941Y37150D02*
D03*
X276500D02*
D03*
X279059D02*
D03*
Y30850D02*
D03*
X276500D02*
D03*
X273941D02*
D03*
X336441Y37150D02*
D03*
X339000D02*
D03*
X341559D02*
D03*
Y30850D02*
D03*
X339000D02*
D03*
X336441D02*
D03*
X398941Y37150D02*
D03*
X401500D02*
D03*
X404059D02*
D03*
Y30850D02*
D03*
X401500D02*
D03*
X398941D02*
D03*
X461441D02*
D03*
X464000D02*
D03*
X466559D02*
D03*
Y37150D02*
D03*
X464000D02*
D03*
X461441D02*
D03*
D147*
X950095Y514016D02*
D03*
Y512048D02*
D03*
Y510079D02*
D03*
Y508111D02*
D03*
Y506143D02*
D03*
Y504174D02*
D03*
X964268D02*
D03*
Y506143D02*
D03*
Y508111D02*
D03*
Y510079D02*
D03*
Y512048D02*
D03*
Y514016D02*
D03*
X876595D02*
D03*
Y512048D02*
D03*
Y510079D02*
D03*
Y508111D02*
D03*
Y506143D02*
D03*
Y504174D02*
D03*
X890768D02*
D03*
Y506143D02*
D03*
Y508111D02*
D03*
Y510079D02*
D03*
Y512048D02*
D03*
Y514016D02*
D03*
D148*
X952260Y502009D02*
D03*
X954229D02*
D03*
X956197D02*
D03*
X958166D02*
D03*
X960134D02*
D03*
X962103D02*
D03*
Y516182D02*
D03*
X960134D02*
D03*
X958166D02*
D03*
X956197D02*
D03*
X954229D02*
D03*
X952260D02*
D03*
X947819Y599071D02*
D03*
X945260D02*
D03*
X942701D02*
D03*
X940142D02*
D03*
Y607071D02*
D03*
X942701D02*
D03*
X945260D02*
D03*
X947819D02*
D03*
X878760Y502009D02*
D03*
X880729D02*
D03*
X882697D02*
D03*
X884666D02*
D03*
X886634D02*
D03*
X888603D02*
D03*
Y516182D02*
D03*
X886634D02*
D03*
X884666D02*
D03*
X882697D02*
D03*
X880729D02*
D03*
X878760D02*
D03*
D149*
X957181Y509095D02*
D03*
X883681D02*
D03*
D150*
X723622Y380512D02*
D03*
X721654D02*
D03*
X719685D02*
D03*
X717717D02*
D03*
X715748D02*
D03*
X713779D02*
D03*
X711811D02*
D03*
X709842D02*
D03*
X707874D02*
D03*
X705905D02*
D03*
X703937D02*
D03*
X701968D02*
D03*
X700000D02*
D03*
X698032D02*
D03*
X696063D02*
D03*
X694095D02*
D03*
X692126D02*
D03*
X690158D02*
D03*
X688189D02*
D03*
X686221D02*
D03*
X684252D02*
D03*
X682283D02*
D03*
X680315D02*
D03*
X678346D02*
D03*
X676378D02*
D03*
Y319488D02*
D03*
X678346D02*
D03*
X680315D02*
D03*
X682283D02*
D03*
X684252D02*
D03*
X686221D02*
D03*
X688189D02*
D03*
X690158D02*
D03*
X692126D02*
D03*
X694095D02*
D03*
X696063D02*
D03*
X698032D02*
D03*
X700000D02*
D03*
X701968D02*
D03*
X703937D02*
D03*
X705905D02*
D03*
X707874D02*
D03*
X709842D02*
D03*
X711811D02*
D03*
X713779D02*
D03*
X715748D02*
D03*
X717717D02*
D03*
X719685D02*
D03*
X721654D02*
D03*
X723622D02*
D03*
D151*
X669488Y373622D02*
D03*
Y371654D02*
D03*
Y369685D02*
D03*
Y367717D02*
D03*
Y365748D02*
D03*
Y363779D02*
D03*
Y361811D02*
D03*
Y359842D02*
D03*
Y357874D02*
D03*
Y355906D02*
D03*
Y353937D02*
D03*
Y351969D02*
D03*
Y350000D02*
D03*
Y348031D02*
D03*
Y346063D02*
D03*
Y344094D02*
D03*
Y342126D02*
D03*
Y340158D02*
D03*
Y338189D02*
D03*
Y336221D02*
D03*
Y334252D02*
D03*
Y332283D02*
D03*
Y330315D02*
D03*
Y328346D02*
D03*
Y326378D02*
D03*
X730512D02*
D03*
Y328346D02*
D03*
Y330315D02*
D03*
Y332283D02*
D03*
Y334252D02*
D03*
Y336221D02*
D03*
Y338189D02*
D03*
Y340158D02*
D03*
Y342126D02*
D03*
Y344094D02*
D03*
Y346063D02*
D03*
Y348031D02*
D03*
Y350000D02*
D03*
Y351969D02*
D03*
Y353937D02*
D03*
Y355906D02*
D03*
Y357874D02*
D03*
Y359842D02*
D03*
Y361811D02*
D03*
Y363779D02*
D03*
Y365748D02*
D03*
Y367717D02*
D03*
Y369685D02*
D03*
Y371654D02*
D03*
Y373622D02*
D03*
D152*
X810000Y720000D02*
D03*
Y712126D02*
D03*
Y704252D02*
D03*
Y696378D02*
D03*
Y688504D02*
D03*
Y680630D02*
D03*
Y672756D02*
D03*
X826772D02*
D03*
Y680630D02*
D03*
Y688504D02*
D03*
Y696378D02*
D03*
Y704252D02*
D03*
Y712126D02*
D03*
Y720000D02*
D03*
D153*
X358709Y269142D02*
D03*
X362291D02*
D03*
X947791Y690000D02*
D03*
X944209D02*
D03*
X726291Y60797D02*
D03*
X722709D02*
D03*
X441791Y428250D02*
D03*
X438209D02*
D03*
Y418750D02*
D03*
X441791D02*
D03*
X804291Y51297D02*
D03*
X800709D02*
D03*
X804291Y60797D02*
D03*
X800709D02*
D03*
X706791Y51297D02*
D03*
X703209D02*
D03*
X706791Y60797D02*
D03*
X703209D02*
D03*
X784791Y51297D02*
D03*
X781209D02*
D03*
X784791Y60797D02*
D03*
X781209D02*
D03*
X687291Y51297D02*
D03*
X683709D02*
D03*
X687291Y60797D02*
D03*
X683709D02*
D03*
X765291Y51297D02*
D03*
X761709D02*
D03*
X765291Y60797D02*
D03*
X761709D02*
D03*
X667791Y51297D02*
D03*
X664209D02*
D03*
X667791Y60797D02*
D03*
X664209D02*
D03*
X745791Y51297D02*
D03*
X742209D02*
D03*
X745791Y60797D02*
D03*
X742209D02*
D03*
X823791Y51297D02*
D03*
X820209D02*
D03*
X823791Y60797D02*
D03*
X820209D02*
D03*
X726291Y51297D02*
D03*
X722709D02*
D03*
X954272Y617571D02*
D03*
X950689D02*
D03*
X498209Y539500D02*
D03*
X501791D02*
D03*
X959398Y617571D02*
D03*
X962980D02*
D03*
D154*
X316500Y247000D02*
D03*
D155*
X299276Y232827D02*
D03*
Y234402D02*
D03*
Y235976D02*
D03*
Y237551D02*
D03*
Y239126D02*
D03*
Y240701D02*
D03*
Y242276D02*
D03*
Y243850D02*
D03*
Y245425D02*
D03*
Y247000D02*
D03*
Y248575D02*
D03*
Y250150D02*
D03*
Y251724D02*
D03*
Y253299D02*
D03*
Y254874D02*
D03*
Y256449D02*
D03*
Y258024D02*
D03*
Y259598D02*
D03*
Y261173D02*
D03*
X333724D02*
D03*
Y259598D02*
D03*
Y258024D02*
D03*
Y256449D02*
D03*
Y254874D02*
D03*
Y253299D02*
D03*
Y251724D02*
D03*
Y250150D02*
D03*
Y248575D02*
D03*
Y247000D02*
D03*
Y245425D02*
D03*
Y243850D02*
D03*
Y242276D02*
D03*
Y240701D02*
D03*
Y239126D02*
D03*
Y237551D02*
D03*
Y235976D02*
D03*
Y234402D02*
D03*
Y232827D02*
D03*
D156*
X302327Y264224D02*
D03*
X303902D02*
D03*
X305476D02*
D03*
X307051D02*
D03*
X308626D02*
D03*
X310201D02*
D03*
X311776D02*
D03*
X313350D02*
D03*
X314925D02*
D03*
X316500D02*
D03*
X318075D02*
D03*
X319650D02*
D03*
X321224D02*
D03*
X322799D02*
D03*
X324374D02*
D03*
X325949D02*
D03*
X327524D02*
D03*
X329098D02*
D03*
X330673D02*
D03*
Y229776D02*
D03*
X329098D02*
D03*
X327524D02*
D03*
X325949D02*
D03*
X324374D02*
D03*
X322799D02*
D03*
X321224D02*
D03*
X319650D02*
D03*
X318075D02*
D03*
X316500D02*
D03*
X314925D02*
D03*
X313350D02*
D03*
X311776D02*
D03*
X310201D02*
D03*
X308626D02*
D03*
X307051D02*
D03*
X305476D02*
D03*
X303902D02*
D03*
X302327D02*
D03*
D157*
X1078760Y653128D02*
D03*
Y655096D02*
D03*
Y657065D02*
D03*
Y659033D02*
D03*
Y661002D02*
D03*
X1061240Y653128D02*
D03*
Y655096D02*
D03*
Y657065D02*
D03*
Y659033D02*
D03*
Y661002D02*
D03*
D158*
X753150Y672244D02*
D03*
X496850D02*
D03*
D159*
X1187020Y173740D02*
D03*
Y166260D02*
D03*
X1176980D02*
D03*
Y170000D02*
D03*
Y173740D02*
D03*
X792020Y635760D02*
D03*
Y639500D02*
D03*
Y643240D02*
D03*
X781980D02*
D03*
Y635760D02*
D03*
X1187020Y98740D02*
D03*
Y91260D02*
D03*
X1176980D02*
D03*
Y95000D02*
D03*
Y98740D02*
D03*
D160*
X248000Y371500D02*
D03*
D161*
X531161Y66500D02*
D03*
X93661D02*
D03*
X156161D02*
D03*
X218661D02*
D03*
X281161D02*
D03*
X343661D02*
D03*
X406161D02*
D03*
X468661D02*
D03*
D162*
X1014657Y51870D02*
D03*
Y45413D02*
D03*
D163*
X939000Y697256D02*
D03*
Y691744D02*
D03*
X433500Y637429D02*
D03*
Y631917D02*
D03*
X505150Y453756D02*
D03*
Y448244D02*
D03*
X1117000Y593944D02*
D03*
Y599456D02*
D03*
X1117000Y550444D02*
D03*
Y555956D02*
D03*
X1107000Y644756D02*
D03*
Y639244D02*
D03*
X1125000Y641744D02*
D03*
Y647256D02*
D03*
X789500Y724256D02*
D03*
Y718744D02*
D03*
X776500Y724256D02*
D03*
Y718744D02*
D03*
X796000Y724256D02*
D03*
Y718744D02*
D03*
X783000Y724256D02*
D03*
Y718744D02*
D03*
X952000Y664756D02*
D03*
Y659244D02*
D03*
Y676756D02*
D03*
Y671244D02*
D03*
D164*
X722492Y67319D02*
D03*
X726508D02*
D03*
X442008Y434772D02*
D03*
X437992D02*
D03*
X442008Y412228D02*
D03*
X437992D02*
D03*
X800492Y44776D02*
D03*
X804508D02*
D03*
X800492Y67319D02*
D03*
X804508D02*
D03*
X702992Y44776D02*
D03*
X707008D02*
D03*
X702992Y67319D02*
D03*
X707008D02*
D03*
X780992Y44776D02*
D03*
X785008D02*
D03*
X780992Y67319D02*
D03*
X785008D02*
D03*
X683492Y44776D02*
D03*
X687508D02*
D03*
X683492Y67319D02*
D03*
X687508D02*
D03*
X761492Y44776D02*
D03*
X765508D02*
D03*
X761492Y67319D02*
D03*
X765508D02*
D03*
X663992Y44776D02*
D03*
X668008D02*
D03*
X663992Y67319D02*
D03*
X668008D02*
D03*
X741992Y44776D02*
D03*
X746008D02*
D03*
X741992Y67319D02*
D03*
X746008D02*
D03*
X819992Y44776D02*
D03*
X824008D02*
D03*
X819992Y67319D02*
D03*
X824008D02*
D03*
X722492Y44776D02*
D03*
X726508D02*
D03*
D165*
X537000Y114335D02*
D03*
Y118665D02*
D03*
X470500Y197335D02*
D03*
Y201665D02*
D03*
X97500Y44835D02*
D03*
Y49165D02*
D03*
X160000D02*
D03*
Y44835D02*
D03*
X222500Y49165D02*
D03*
Y44835D02*
D03*
X285000Y49165D02*
D03*
Y44835D02*
D03*
X347500Y49165D02*
D03*
Y44835D02*
D03*
X410000Y49165D02*
D03*
Y44835D02*
D03*
X472500D02*
D03*
Y49165D02*
D03*
X535000Y44835D02*
D03*
Y49165D02*
D03*
X92500Y80835D02*
D03*
Y85165D02*
D03*
X155000D02*
D03*
Y80835D02*
D03*
X217500Y85165D02*
D03*
Y80835D02*
D03*
X280000D02*
D03*
Y85165D02*
D03*
X342500D02*
D03*
Y80835D02*
D03*
X405000Y85165D02*
D03*
Y80835D02*
D03*
X467500D02*
D03*
Y85165D02*
D03*
X530000Y80835D02*
D03*
Y85165D02*
D03*
X77500Y114335D02*
D03*
Y118665D02*
D03*
X140000D02*
D03*
Y114335D02*
D03*
X202500Y118665D02*
D03*
Y114335D02*
D03*
X265000Y118665D02*
D03*
Y114335D02*
D03*
X327500Y118665D02*
D03*
Y114335D02*
D03*
X390000Y118665D02*
D03*
Y114335D02*
D03*
X452500D02*
D03*
Y118665D02*
D03*
X515000Y114335D02*
D03*
Y118665D02*
D03*
X99500Y114335D02*
D03*
Y118665D02*
D03*
X162000D02*
D03*
Y114335D02*
D03*
X224500Y118665D02*
D03*
Y114335D02*
D03*
X287000Y118665D02*
D03*
Y114335D02*
D03*
X349500Y118665D02*
D03*
Y114335D02*
D03*
X412000Y118665D02*
D03*
Y114335D02*
D03*
X474500D02*
D03*
Y118665D02*
D03*
D166*
X473000Y529732D02*
D03*
Y526268D02*
D03*
X474000Y519732D02*
D03*
Y516268D02*
D03*
X478984Y519732D02*
D03*
Y516268D02*
D03*
X491657Y530268D02*
D03*
Y533732D02*
D03*
X1130000Y641768D02*
D03*
Y645232D02*
D03*
X657500Y364732D02*
D03*
Y361268D02*
D03*
X747500Y342732D02*
D03*
Y339268D02*
D03*
X742500Y342732D02*
D03*
Y339268D02*
D03*
X737500Y342732D02*
D03*
Y339268D02*
D03*
X353000Y254482D02*
D03*
Y251018D02*
D03*
X358000Y254482D02*
D03*
Y251018D02*
D03*
X329500Y272268D02*
D03*
Y275732D02*
D03*
X324500Y272268D02*
D03*
Y275732D02*
D03*
X234500Y350768D02*
D03*
Y354232D02*
D03*
X229500Y346768D02*
D03*
Y350232D02*
D03*
X402500Y206732D02*
D03*
Y203268D02*
D03*
Y194268D02*
D03*
Y197732D02*
D03*
X896000Y611268D02*
D03*
Y614732D02*
D03*
X934000Y691768D02*
D03*
Y695232D02*
D03*
X929000Y691768D02*
D03*
Y695232D02*
D03*
X924000Y691768D02*
D03*
Y695232D02*
D03*
X995158Y46374D02*
D03*
Y42909D02*
D03*
D167*
X198000Y598839D02*
D03*
Y604744D02*
D03*
X123500Y596279D02*
D03*
Y602185D02*
D03*
D168*
X505740Y434626D02*
D03*
X498260D02*
D03*
X502000Y425374D02*
D03*
D169*
X1205370Y464075D02*
D03*
Y462106D02*
D03*
Y460138D02*
D03*
Y458169D02*
D03*
Y456201D02*
D03*
Y435925D02*
D03*
Y437894D02*
D03*
Y439862D02*
D03*
Y441831D02*
D03*
Y443799D02*
D03*
D170*
X878000Y579248D02*
D03*
Y572752D02*
D03*
X133500Y602776D02*
D03*
Y596279D02*
D03*
X208000Y605335D02*
D03*
Y598839D02*
D03*
X478984Y530657D02*
D03*
Y525343D02*
D03*
D171*
X179154Y608000D02*
D03*
X185846D02*
D03*
X1204846Y635000D02*
D03*
X1198153D02*
D03*
D172*
X533744Y510000D02*
D03*
X539256D02*
D03*
X533744Y515500D02*
D03*
X539256D02*
D03*
D173*
X511268Y503547D02*
D03*
X514732D02*
D03*
X511268Y499138D02*
D03*
X514732D02*
D03*
X1186268Y625000D02*
D03*
X1189732D02*
D03*
X1171268D02*
D03*
X1174732D02*
D03*
X1156268D02*
D03*
X1159732D02*
D03*
X1141268D02*
D03*
X1144732D02*
D03*
X360807Y244291D02*
D03*
X357343D02*
D03*
X258732Y337000D02*
D03*
X255268D02*
D03*
X246268D02*
D03*
X249732D02*
D03*
X254232Y332000D02*
D03*
X250768D02*
D03*
X229488Y358465D02*
D03*
X226024D02*
D03*
X243232Y354500D02*
D03*
X239768D02*
D03*
X243232Y349500D02*
D03*
X239768D02*
D03*
X452232Y221000D02*
D03*
X448768D02*
D03*
X452232Y226500D02*
D03*
X448768D02*
D03*
X82768Y117500D02*
D03*
X86232D02*
D03*
X148732D02*
D03*
X145268D02*
D03*
X211232D02*
D03*
X207768D02*
D03*
X273732D02*
D03*
X270268D02*
D03*
X336232D02*
D03*
X332768D02*
D03*
X398732D02*
D03*
X395268D02*
D03*
X457768D02*
D03*
X461232D02*
D03*
X520268D02*
D03*
X523732D02*
D03*
X94232D02*
D03*
X90768D02*
D03*
X153268D02*
D03*
X156732D02*
D03*
X215768D02*
D03*
X219232D02*
D03*
X278268D02*
D03*
X281732D02*
D03*
X340768D02*
D03*
X344232D02*
D03*
X403268D02*
D03*
X406732D02*
D03*
X469232D02*
D03*
X465768D02*
D03*
X531732D02*
D03*
X528268D02*
D03*
X943213Y611071D02*
D03*
X939748D02*
D03*
X979213Y606024D02*
D03*
X975748D02*
D03*
X504268Y527500D02*
D03*
X507732D02*
D03*
X974213Y610071D02*
D03*
X970748D02*
D03*
X878268Y593000D02*
D03*
X881732D02*
D03*
D174*
X650500Y366846D02*
D03*
Y360154D02*
D03*
X365000Y257596D02*
D03*
Y250904D02*
D03*
D175*
X243764Y344000D02*
D03*
X239236D02*
D03*
D176*
X449646Y233500D02*
D03*
X455354D02*
D03*
X449646Y241000D02*
D03*
X455354D02*
D03*
D177*
X438335Y189500D02*
D03*
X442665D02*
D03*
X473665Y209339D02*
D03*
X469335D02*
D03*
X435835Y204221D02*
D03*
X440165D02*
D03*
X406665Y189500D02*
D03*
X402335D02*
D03*
X406665Y211500D02*
D03*
X402335D02*
D03*
X73165Y88500D02*
D03*
X68835D02*
D03*
X131335D02*
D03*
X135665D02*
D03*
X193835D02*
D03*
X198165D02*
D03*
X256335D02*
D03*
X260665D02*
D03*
X318835D02*
D03*
X323165D02*
D03*
X381335D02*
D03*
X385665D02*
D03*
X448165D02*
D03*
X443835D02*
D03*
X510665D02*
D03*
X506335D02*
D03*
X85335Y53000D02*
D03*
X89665D02*
D03*
X152165D02*
D03*
X147835D02*
D03*
X214665D02*
D03*
X210335D02*
D03*
X277165D02*
D03*
X272835D02*
D03*
X339665D02*
D03*
X335335D02*
D03*
X402165D02*
D03*
X397835D02*
D03*
X460335D02*
D03*
X464665D02*
D03*
X527165D02*
D03*
X522835D02*
D03*
D178*
X483150Y197941D02*
D03*
Y200500D02*
D03*
Y203059D02*
D03*
X476850D02*
D03*
Y200500D02*
D03*
Y197941D02*
D03*
D179*
X445484Y248949D02*
D03*
Y252532D02*
D03*
X1205000Y647791D02*
D03*
Y644209D02*
D03*
D180*
X455772Y478705D02*
D03*
X452228D02*
D03*
X276772Y252500D02*
D03*
X273228D02*
D03*
X281272Y230000D02*
D03*
X277728D02*
D03*
X281272Y234000D02*
D03*
X277728D02*
D03*
X349803Y244291D02*
D03*
X353346D02*
D03*
X292772Y207000D02*
D03*
X289228D02*
D03*
X300272D02*
D03*
X296728D02*
D03*
X307772D02*
D03*
X304228D02*
D03*
X315272D02*
D03*
X311728D02*
D03*
X322772D02*
D03*
X319228D02*
D03*
X330272D02*
D03*
X326728D02*
D03*
X337772D02*
D03*
X334228D02*
D03*
X345272D02*
D03*
X341728D02*
D03*
X353179Y210500D02*
D03*
X356722D02*
D03*
X429728Y196000D02*
D03*
X433272D02*
D03*
X429728Y189500D02*
D03*
X433272D02*
D03*
X425772D02*
D03*
X422228D02*
D03*
X425772Y211500D02*
D03*
X422228D02*
D03*
X418272D02*
D03*
X414728D02*
D03*
X418272Y189500D02*
D03*
X414728D02*
D03*
X443428Y407500D02*
D03*
X446972D02*
D03*
X443428Y395500D02*
D03*
X446972D02*
D03*
X77728Y123000D02*
D03*
X81272D02*
D03*
X143772D02*
D03*
X140228D02*
D03*
X206272D02*
D03*
X202728D02*
D03*
X268772D02*
D03*
X265228D02*
D03*
X331272D02*
D03*
X327728D02*
D03*
X393772D02*
D03*
X390228D02*
D03*
X452728D02*
D03*
X456272D02*
D03*
X515228D02*
D03*
X518772D02*
D03*
X99272D02*
D03*
X95728D02*
D03*
X161772D02*
D03*
X158228D02*
D03*
X220728D02*
D03*
X224272D02*
D03*
X283228D02*
D03*
X286772D02*
D03*
X345728D02*
D03*
X349272D02*
D03*
X408228D02*
D03*
X411772D02*
D03*
X474272D02*
D03*
X470728D02*
D03*
X536772D02*
D03*
X533228D02*
D03*
X99272Y92000D02*
D03*
X95728D02*
D03*
X161772D02*
D03*
X158228D02*
D03*
X224272D02*
D03*
X220728D02*
D03*
X286772D02*
D03*
X283228D02*
D03*
X349272D02*
D03*
X345728D02*
D03*
X411772D02*
D03*
X408228D02*
D03*
X470728D02*
D03*
X474272D02*
D03*
X533228D02*
D03*
X536772D02*
D03*
X773772Y701500D02*
D03*
X770228D02*
D03*
X773772Y713500D02*
D03*
X770228D02*
D03*
X773772Y695500D02*
D03*
X770228D02*
D03*
X773772Y707500D02*
D03*
X770228D02*
D03*
X1171728Y212500D02*
D03*
X1175272D02*
D03*
X1169272Y222500D02*
D03*
X1165728D02*
D03*
X795500Y75047D02*
D03*
X799043D02*
D03*
X795500Y86047D02*
D03*
X799043D02*
D03*
X698000Y75047D02*
D03*
X701543D02*
D03*
X698000Y86047D02*
D03*
X701543D02*
D03*
X776000Y75047D02*
D03*
X779543D02*
D03*
X776000Y86047D02*
D03*
X779543D02*
D03*
X678500D02*
D03*
X682043D02*
D03*
X678500Y75047D02*
D03*
X682043D02*
D03*
X756500D02*
D03*
X760043D02*
D03*
X756500Y86047D02*
D03*
X760043D02*
D03*
X659000D02*
D03*
X662543D02*
D03*
X659000Y75047D02*
D03*
X662543D02*
D03*
X737000D02*
D03*
X740543D02*
D03*
X737000Y86047D02*
D03*
X740543D02*
D03*
X815000Y75047D02*
D03*
X818543D02*
D03*
X815000Y86047D02*
D03*
X818543D02*
D03*
X717500Y75047D02*
D03*
X721043D02*
D03*
X717500Y86047D02*
D03*
X721043D02*
D03*
X964886Y51657D02*
D03*
X968429D02*
D03*
X851228Y519000D02*
D03*
X854772D02*
D03*
X851228Y515000D02*
D03*
X854772D02*
D03*
X851228Y511000D02*
D03*
X854772D02*
D03*
X851228Y507000D02*
D03*
X854772D02*
D03*
X851228Y503000D02*
D03*
X854772D02*
D03*
X851228Y499000D02*
D03*
X854772D02*
D03*
X915772Y515000D02*
D03*
X912228D02*
D03*
X915772Y511000D02*
D03*
X912228D02*
D03*
X915772Y507000D02*
D03*
X912228D02*
D03*
X915772Y503000D02*
D03*
X912228D02*
D03*
X915772Y499000D02*
D03*
X912228D02*
D03*
X928272Y519500D02*
D03*
X924728D02*
D03*
Y515500D02*
D03*
X928272D02*
D03*
X924728Y511500D02*
D03*
X928272D02*
D03*
X924728Y507500D02*
D03*
X928272D02*
D03*
X924728Y503500D02*
D03*
X928272D02*
D03*
Y499500D02*
D03*
X924728D02*
D03*
X989272Y516500D02*
D03*
X985728D02*
D03*
X989272Y512500D02*
D03*
X985728D02*
D03*
X989272Y508500D02*
D03*
X985728D02*
D03*
X989272Y504500D02*
D03*
X985728D02*
D03*
X989272Y500500D02*
D03*
X985728D02*
D03*
D181*
X672500Y299673D02*
D03*
Y296327D02*
D03*
X667500Y299673D02*
D03*
Y296327D02*
D03*
X682500Y299673D02*
D03*
Y296327D02*
D03*
X677500Y299673D02*
D03*
Y296327D02*
D03*
X692500Y299673D02*
D03*
Y296327D02*
D03*
X687500Y299673D02*
D03*
Y296327D02*
D03*
X702500Y299673D02*
D03*
Y296327D02*
D03*
X697500Y299673D02*
D03*
Y296327D02*
D03*
X712500Y299673D02*
D03*
Y296327D02*
D03*
X707500Y299673D02*
D03*
Y296327D02*
D03*
X695500Y403673D02*
D03*
Y400327D02*
D03*
X690500Y403673D02*
D03*
Y400327D02*
D03*
X260500Y396673D02*
D03*
Y393327D02*
D03*
X256000Y396673D02*
D03*
Y393327D02*
D03*
X251500Y396673D02*
D03*
Y393327D02*
D03*
X247000Y396673D02*
D03*
Y393327D02*
D03*
X242500Y396673D02*
D03*
Y393327D02*
D03*
X238000Y396673D02*
D03*
Y393327D02*
D03*
D182*
X527634Y509010D02*
D03*
Y516490D02*
D03*
X519366Y512750D02*
D03*
D183*
X313555Y273969D02*
D03*
Y272000D02*
D03*
Y270031D02*
D03*
X320445D02*
D03*
Y272000D02*
D03*
Y273969D02*
D03*
D184*
X455500Y205500D02*
D03*
D185*
X479943Y278758D02*
D03*
X306819Y312772D02*
D03*
X306819Y315921D02*
D03*
X300394Y391260D02*
D03*
X356484Y491898D02*
D03*
X356485Y495047D02*
D03*
X1169909Y441240D02*
D03*
X1169911Y444390D02*
D03*
X695850Y651043D02*
D03*
X679008Y526416D02*
D03*
X687583Y614363D02*
D03*
X558514Y465569D02*
D03*
X562450D02*
D03*
X509400Y442000D02*
D03*
X990091Y231642D02*
D03*
X1105945Y395709D02*
D03*
Y379882D02*
D03*
X1117520Y395590D02*
D03*
X296800Y202807D02*
D03*
X300200D02*
D03*
X289300D02*
D03*
X292700D02*
D03*
X335500Y174614D02*
D03*
X331000Y170622D02*
D03*
X354291Y174449D02*
D03*
X353000Y179313D02*
D03*
X348000Y170622D02*
D03*
X339500D02*
D03*
X313307Y370276D02*
D03*
X318386D02*
D03*
X323465D02*
D03*
X346799Y367169D02*
D03*
X313307Y364576D02*
D03*
X318386Y364575D02*
D03*
X323465D02*
D03*
X350500Y326316D02*
D03*
X385984Y325787D02*
D03*
X346799Y361872D02*
D03*
X335543Y342725D02*
D03*
X386304Y344431D02*
D03*
X344500Y345496D02*
D03*
X381619Y344431D02*
D03*
X339000Y345496D02*
D03*
X347685Y329252D02*
D03*
X262732Y404930D02*
D03*
X439670Y395468D02*
D03*
X485851Y560862D02*
D03*
X506991D02*
D03*
X489500Y563902D02*
D03*
X511531Y564142D02*
D03*
X784685Y585472D02*
D03*
X486661Y500161D02*
D03*
Y495831D02*
D03*
Y491500D02*
D03*
Y487169D02*
D03*
Y482839D02*
D03*
X482331Y500161D02*
D03*
Y495831D02*
D03*
Y491500D02*
D03*
Y487169D02*
D03*
Y482839D02*
D03*
X478000Y500161D02*
D03*
Y495831D02*
D03*
Y491500D02*
D03*
Y487169D02*
D03*
Y482839D02*
D03*
X473669Y500161D02*
D03*
Y495831D02*
D03*
Y491500D02*
D03*
Y487169D02*
D03*
Y482839D02*
D03*
X469339Y500161D02*
D03*
Y495831D02*
D03*
Y491500D02*
D03*
Y487169D02*
D03*
Y482839D02*
D03*
X226000Y463211D02*
D03*
X1085461Y34000D02*
D03*
X1137256Y259213D02*
D03*
Y276811D02*
D03*
Y308268D02*
D03*
Y324646D02*
D03*
Y289055D02*
D03*
X1099791Y317598D02*
D03*
Y296732D02*
D03*
X1105512Y165000D02*
D03*
X1109528Y160630D02*
D03*
X1118661D02*
D03*
X1127795D02*
D03*
X1105669Y240000D02*
D03*
X1105945Y363000D02*
D03*
X122244Y295433D02*
D03*
X337700Y202807D02*
D03*
X334300D02*
D03*
X330200D02*
D03*
X326800D02*
D03*
X322700D02*
D03*
X319300D02*
D03*
X311800D02*
D03*
X315200D02*
D03*
X304300D02*
D03*
X307700D02*
D03*
X294750Y210835D02*
D03*
X303269Y233227D02*
D03*
X322798Y260861D02*
D03*
X308625D02*
D03*
X303078Y238727D02*
D03*
Y257161D02*
D03*
Y242274D02*
D03*
X330062Y261011D02*
D03*
X338184Y238322D02*
D03*
X333155Y229776D02*
D03*
X337731Y254114D02*
D03*
X303078Y251724D02*
D03*
X302250Y210835D02*
D03*
X341800Y202807D02*
D03*
X345200D02*
D03*
X327000Y174614D02*
D03*
X293000D02*
D03*
X284500Y174616D02*
D03*
X288500Y170622D02*
D03*
X239606Y201736D02*
D03*
X255567D02*
D03*
X224972D02*
D03*
X83465Y132000D02*
D03*
X339000Y222598D02*
D03*
X339750Y210835D02*
D03*
X397244Y686721D02*
D03*
X496811Y420157D02*
D03*
X371356Y686708D02*
D03*
X344500Y222598D02*
D03*
X440197Y218228D02*
D03*
X438622Y225087D02*
D03*
X365039D02*
D03*
X358000Y220300D02*
D03*
X287250Y210835D02*
D03*
X347250D02*
D03*
X332250D02*
D03*
X324750D02*
D03*
X317250D02*
D03*
X309750D02*
D03*
X963504Y601102D02*
D03*
X1049323Y651208D02*
D03*
X1046295Y652338D02*
D03*
Y655882D02*
D03*
X1049323Y657303D02*
D03*
X1083300Y657065D02*
D03*
X1073100D02*
D03*
X1066800D02*
D03*
X689213Y208228D02*
D03*
X677362Y222047D02*
D03*
X701929Y194134D02*
D03*
X664449Y207402D02*
D03*
X672756Y200866D02*
D03*
X664567Y200630D02*
D03*
X678346Y193347D02*
D03*
X672953Y193386D02*
D03*
X510512Y601181D02*
D03*
X433228Y481299D02*
D03*
X483000Y478189D02*
D03*
X469172Y478210D02*
D03*
X644441Y360154D02*
D03*
X951528Y692411D02*
D03*
Y687481D02*
D03*
X1092598Y644410D02*
D03*
X1190748Y662047D02*
D03*
X1135984Y661850D02*
D03*
X1109134Y661378D02*
D03*
X1070158Y644410D02*
D03*
X836181Y595827D02*
D03*
X558976Y435827D02*
D03*
X638504Y407126D02*
D03*
X663110Y444173D02*
D03*
X94528Y245354D02*
D03*
X93898Y270394D02*
D03*
X94016Y295433D02*
D03*
X93858Y320472D02*
D03*
X122087D02*
D03*
X122126Y270394D02*
D03*
X122756Y245354D02*
D03*
X239606Y210866D02*
D03*
X224972D02*
D03*
X255567D02*
D03*
X1154882Y264606D02*
D03*
X1164095Y264528D02*
D03*
X1109528Y169843D02*
D03*
X1118661D02*
D03*
X1127795D02*
D03*
X1145827Y233444D02*
D03*
X1137256Y177102D02*
D03*
X1145827Y185950D02*
D03*
X1137256Y193524D02*
D03*
X1145827Y201781D02*
D03*
X1137256Y209946D02*
D03*
X1145827Y217612D02*
D03*
X1137256Y226369D02*
D03*
Y242791D02*
D03*
X1145827Y170118D02*
D03*
X1113898Y230157D02*
D03*
X1099724D02*
D03*
X1113819Y241801D02*
D03*
X1113661Y276732D02*
D03*
X1128110Y276811D02*
D03*
Y289055D02*
D03*
X1113425Y253445D02*
D03*
Y265089D02*
D03*
X1099791Y253445D02*
D03*
Y265087D02*
D03*
X1128110Y308268D02*
D03*
X1107018Y308071D02*
D03*
X1111917Y312680D02*
D03*
X1107018Y303285D02*
D03*
Y312680D02*
D03*
X1111917Y303285D02*
D03*
X1128110Y324646D02*
D03*
Y340276D02*
D03*
X1095748Y353543D02*
D03*
X1096181Y379921D02*
D03*
X1095276Y395709D02*
D03*
X1166457Y384134D02*
D03*
X1155079Y396693D02*
D03*
X1159055Y340236D02*
D03*
Y355354D02*
D03*
Y370472D02*
D03*
X1169409D02*
D03*
Y355354D02*
D03*
Y340236D02*
D03*
X1179764D02*
D03*
Y355354D02*
D03*
Y370472D02*
D03*
X433228Y485919D02*
D03*
X50315Y456653D02*
D03*
Y481693D02*
D03*
X74606Y456654D02*
D03*
Y481693D02*
D03*
X35866Y395590D02*
D03*
Y420630D02*
D03*
Y370551D02*
D03*
Y345512D02*
D03*
Y320472D02*
D03*
Y295433D02*
D03*
Y270394D02*
D03*
X68110D02*
D03*
Y295433D02*
D03*
Y320472D02*
D03*
Y345511D02*
D03*
Y370550D02*
D03*
Y420628D02*
D03*
Y395589D02*
D03*
X345887Y461991D02*
D03*
X357777D02*
D03*
X352087Y453150D02*
D03*
X628150Y245394D02*
D03*
X601378Y138779D02*
D03*
X605433Y108150D02*
D03*
X695197Y222756D02*
D03*
X636063Y173346D02*
D03*
X553110Y271693D02*
D03*
X590276Y325236D02*
D03*
X561063Y364370D02*
D03*
X716260Y459055D02*
D03*
X621378Y465984D02*
D03*
X253620Y358487D02*
D03*
X260343Y370508D02*
D03*
X247012Y358573D02*
D03*
X244215Y357585D02*
D03*
X990787Y46374D02*
D03*
X934449Y67579D02*
D03*
X938386Y67205D02*
D03*
X952142Y76713D02*
D03*
X960079Y73189D02*
D03*
X929291Y33583D02*
D03*
X934050Y30467D02*
D03*
X970354Y35669D02*
D03*
X977756Y41653D02*
D03*
X963929Y46142D02*
D03*
Y58189D02*
D03*
X956705Y65413D02*
D03*
X947579D02*
D03*
X947579Y39870D02*
D03*
X956705D02*
D03*
X938386Y47095D02*
D03*
Y56221D02*
D03*
X967717Y57480D02*
D03*
X956079Y47721D02*
D03*
X946236Y47721D02*
D03*
X956079Y57563D02*
D03*
X946236Y57563D02*
D03*
Y52642D02*
D03*
X956079Y52642D02*
D03*
X951157Y52642D02*
D03*
Y57563D02*
D03*
Y47721D02*
D03*
X839000Y246015D02*
D03*
X851000Y243201D02*
D03*
X866000D02*
D03*
X663965Y603026D02*
D03*
X294090Y250632D02*
D03*
X976417Y626598D02*
D03*
X970980Y631535D02*
D03*
X1041395Y645737D02*
D03*
X356701Y205611D02*
D03*
X353201D02*
D03*
X562441Y204291D02*
D03*
X705715Y157714D02*
D03*
X561000Y184373D02*
D03*
X546465Y194748D02*
D03*
X270000Y277909D02*
D03*
X277500Y275482D02*
D03*
X283500Y275088D02*
D03*
X289000D02*
D03*
X294500D02*
D03*
X105390Y392500D02*
D03*
X180354Y397945D02*
D03*
X221250Y400179D02*
D03*
X224750D02*
D03*
X228250D02*
D03*
X231750D02*
D03*
X676598Y626850D02*
D03*
X676598Y631024D02*
D03*
X689134D02*
D03*
X689134Y626850D02*
D03*
X1005887Y653000D02*
D03*
X1012690Y661000D02*
D03*
X1009000Y668500D02*
D03*
X873577Y582477D02*
D03*
X868870D02*
D03*
X769662Y592067D02*
D03*
X845661Y592520D02*
D03*
X837956Y602520D02*
D03*
X834156Y605846D02*
D03*
X777083Y695500D02*
D03*
Y701500D02*
D03*
X802327Y680650D02*
D03*
X889500Y666507D02*
D03*
X890234Y594922D02*
D03*
X893980Y602535D02*
D03*
X900023Y605626D02*
D03*
X902633Y608390D02*
D03*
X902668Y613895D02*
D03*
X899947Y615972D02*
D03*
X892958Y621039D02*
D03*
X887484Y621159D02*
D03*
X871811Y609017D02*
D03*
X874563Y612953D02*
D03*
X691127Y651043D02*
D03*
X160276Y488307D02*
D03*
X434234Y412196D02*
D03*
X434450Y428218D02*
D03*
Y418718D02*
D03*
X439670Y407468D02*
D03*
X199528Y294106D02*
D03*
X344000Y174614D02*
D03*
X258236Y404930D02*
D03*
X240250D02*
D03*
X207927Y378750D02*
D03*
X578909Y596260D02*
D03*
X207927Y374250D02*
D03*
X275307Y383000D02*
D03*
X278099Y376250D02*
D03*
X275307Y378500D02*
D03*
X278099Y371750D02*
D03*
X600536Y550339D02*
D03*
Y545248D02*
D03*
X609154Y538996D02*
D03*
X600535D02*
D03*
X720616Y594589D02*
D03*
X890004Y562180D02*
D03*
X884246Y561339D02*
D03*
X877547D02*
D03*
X101185Y670397D02*
D03*
X96017Y680740D02*
D03*
X658441Y617882D02*
D03*
X662369D02*
D03*
X509276Y647331D02*
D03*
X502189D02*
D03*
X516362D02*
D03*
X116423Y673260D02*
D03*
X111815Y683488D02*
D03*
X665377Y615422D02*
D03*
X669412D02*
D03*
X457261Y641500D02*
D03*
X159697Y604198D02*
D03*
X128017Y680740D02*
D03*
X133185Y670397D02*
D03*
X670199Y619654D02*
D03*
X674234D02*
D03*
X656519Y630993D02*
D03*
X652484D02*
D03*
X482655Y641500D02*
D03*
X547043Y635068D02*
D03*
X148423Y673260D02*
D03*
X633616Y634615D02*
D03*
X143815Y683488D02*
D03*
X639184Y646785D02*
D03*
X632099Y647331D02*
D03*
X633664Y657520D02*
D03*
X165185Y670397D02*
D03*
X160017Y680740D02*
D03*
X645427Y634615D02*
D03*
X639161Y662096D02*
D03*
X649462Y634615D02*
D03*
X644709Y630993D02*
D03*
X640674D02*
D03*
X228793Y613668D02*
D03*
X191200Y608000D02*
D03*
X198000Y608460D02*
D03*
X180423Y673260D02*
D03*
X175815Y683488D02*
D03*
X651246Y647331D02*
D03*
X197185Y670397D02*
D03*
X192017Y680740D02*
D03*
X657236Y634615D02*
D03*
X212423Y673260D02*
D03*
X661272Y634615D02*
D03*
X207815Y683488D02*
D03*
X662807Y646788D02*
D03*
X662783Y660634D02*
D03*
X672998Y650182D02*
D03*
X229185Y670397D02*
D03*
X669070Y650182D02*
D03*
X224017Y680740D02*
D03*
X666515Y656248D02*
D03*
X676104Y651954D02*
D03*
X680139D02*
D03*
X225500Y656100D02*
D03*
X235818Y677000D02*
D03*
X244423Y673260D02*
D03*
X239815Y683488D02*
D03*
X580699Y615016D02*
D03*
X575975D02*
D03*
X569507Y614991D02*
D03*
X581272Y599409D02*
D03*
X583634Y596260D02*
D03*
X586016Y599409D02*
D03*
X588401Y614584D02*
D03*
X590740Y596229D02*
D03*
X593102Y599378D02*
D03*
X595464Y596545D02*
D03*
X597826Y599378D02*
D03*
X602551Y596229D02*
D03*
X604913Y599378D02*
D03*
X607275Y596229D02*
D03*
X609637Y599378D02*
D03*
X612000Y614674D02*
D03*
X675500Y591195D02*
D03*
X682881Y602540D02*
D03*
X680496Y599454D02*
D03*
X685220Y599445D02*
D03*
X689968Y602540D02*
D03*
X692307Y599445D02*
D03*
X694692Y602540D02*
D03*
X697031Y599472D02*
D03*
X699417Y602540D02*
D03*
X711205Y614804D02*
D03*
X637652Y634615D02*
D03*
X446514Y599748D02*
D03*
X400358Y606756D02*
D03*
X379947Y603968D02*
D03*
X383750Y597296D02*
D03*
X446514Y593248D02*
D03*
X438486Y593252D02*
D03*
X442500Y610824D02*
D03*
X451834Y586500D02*
D03*
Y606500D02*
D03*
X834445Y720000D02*
D03*
X247480Y605469D02*
D03*
X675796Y614534D02*
D03*
X624992Y660634D02*
D03*
X628724Y656248D02*
D03*
X625015Y646788D02*
D03*
X610819Y660634D02*
D03*
X610842Y646788D02*
D03*
X614551Y656248D02*
D03*
X433500Y641501D02*
D03*
X530532Y647331D02*
D03*
X532871Y650004D02*
D03*
X698235Y647331D02*
D03*
X674615D02*
D03*
X617927D02*
D03*
X599031D02*
D03*
X575411D02*
D03*
X220878Y673268D02*
D03*
Y676732D02*
D03*
X188878Y673268D02*
D03*
Y676732D02*
D03*
X203818Y677000D02*
D03*
X156878Y673268D02*
D03*
Y676732D02*
D03*
X171818Y677000D02*
D03*
X124878Y673268D02*
D03*
Y676732D02*
D03*
X139818Y677000D02*
D03*
X107818D02*
D03*
X92878Y676732D02*
D03*
Y673268D02*
D03*
X1158607Y324606D02*
D03*
Y308071D02*
D03*
Y291535D02*
D03*
Y275000D02*
D03*
X413379Y461000D02*
D03*
X864332Y505099D02*
D03*
X258776Y361121D02*
D03*
X283300Y348153D02*
D03*
X224209Y361820D02*
D03*
X234866Y361890D02*
D03*
X222860Y358465D02*
D03*
X226024Y355680D02*
D03*
X229488D02*
D03*
X233782Y369424D02*
D03*
X229524Y365819D02*
D03*
X678465Y374307D02*
D03*
X950833Y522576D02*
D03*
X940843Y510953D02*
D03*
X971980Y595339D02*
D03*
X967996Y595289D02*
D03*
X938976Y594291D02*
D03*
X943866D02*
D03*
X936417Y515139D02*
D03*
X940433Y518722D02*
D03*
X1090000Y52024D02*
D03*
X684539Y635077D02*
D03*
X681193D02*
D03*
X974917Y602087D02*
D03*
X982404Y606024D02*
D03*
X977404Y610071D02*
D03*
X947819Y595827D02*
D03*
X945260Y604707D02*
D03*
X939118Y621175D02*
D03*
X935863Y617571D02*
D03*
X956835D02*
D03*
X1183799Y430748D02*
D03*
Y433898D02*
D03*
X1142712Y432324D02*
D03*
X515787Y512748D02*
D03*
X351500Y279187D02*
D03*
X713187Y164756D02*
D03*
X1103202Y128118D02*
D03*
X1080000Y191712D02*
D03*
X971775Y231479D02*
D03*
Y235416D02*
D03*
X989500Y196657D02*
D03*
X974500D02*
D03*
X966717Y191413D02*
D03*
X984000Y171200D02*
D03*
X994098Y501417D02*
D03*
X951614Y347441D02*
D03*
X1108500Y633653D02*
D03*
X738916Y601793D02*
D03*
X742541D02*
D03*
X729468Y597016D02*
D03*
X733093D02*
D03*
X901801Y580000D02*
D03*
X722382Y598984D02*
D03*
X726007D02*
D03*
X718325Y596957D02*
D03*
X712934Y601807D02*
D03*
X716559D02*
D03*
X727736Y602827D02*
D03*
X745460Y599333D02*
D03*
X497936Y473853D02*
D03*
X458858Y458252D02*
D03*
X434234Y434739D02*
D03*
X448323Y465252D02*
D03*
X498260Y431400D02*
D03*
X971793Y46417D02*
D03*
X386102Y60709D02*
D03*
X530300Y92000D02*
D03*
X522100Y88700D02*
D03*
X519500Y53000D02*
D03*
X511102Y60709D02*
D03*
X821413Y75047D02*
D03*
X826878Y60797D02*
D03*
X815000Y89299D02*
D03*
X821413Y86047D02*
D03*
X826878Y67319D02*
D03*
Y51297D02*
D03*
Y44776D02*
D03*
X690378Y67319D02*
D03*
Y60797D02*
D03*
X684913Y75047D02*
D03*
X665413D02*
D03*
X670878Y60797D02*
D03*
Y67319D02*
D03*
X748878Y60797D02*
D03*
X709878D02*
D03*
Y67319D02*
D03*
X729378D02*
D03*
Y60797D02*
D03*
X748878Y67319D02*
D03*
X670878Y51297D02*
D03*
X729378D02*
D03*
X743413Y75047D02*
D03*
X704413D02*
D03*
X723913D02*
D03*
X748878Y51297D02*
D03*
X709878D02*
D03*
X690378D02*
D03*
X768378Y67319D02*
D03*
X787878Y51297D02*
D03*
Y44776D02*
D03*
X768378Y60797D02*
D03*
X787878Y67319D02*
D03*
Y60797D02*
D03*
X768378Y51297D02*
D03*
X762913Y75047D02*
D03*
X807378Y67319D02*
D03*
Y60797D02*
D03*
Y51297D02*
D03*
X801913Y75047D02*
D03*
X782413D02*
D03*
X748878Y44776D02*
D03*
X768378D02*
D03*
X690378D02*
D03*
X670878D02*
D03*
X709878D02*
D03*
X729378D02*
D03*
X807378D02*
D03*
X723913Y86047D02*
D03*
X717500Y89299D02*
D03*
X704413Y86047D02*
D03*
X743413D02*
D03*
X678500Y89299D02*
D03*
X698000D02*
D03*
X659000D02*
D03*
X665413Y86047D02*
D03*
X684913D02*
D03*
X782413D02*
D03*
X776000Y89299D02*
D03*
X756500D02*
D03*
X737000D02*
D03*
X762913Y86047D02*
D03*
X801913D02*
D03*
X795500Y89299D02*
D03*
X976727Y71067D02*
D03*
X972043D02*
D03*
X995158Y39642D02*
D03*
X1014657Y57713D02*
D03*
X1019874Y45413D02*
D03*
Y57713D02*
D03*
Y40720D02*
D03*
Y51870D02*
D03*
X1017688Y32873D02*
D03*
X401500Y511849D02*
D03*
X519905Y596229D02*
D03*
X415500Y520590D02*
D03*
X401500Y504387D02*
D03*
X177563Y275858D02*
D03*
X313379Y275699D02*
D03*
X320599Y275903D02*
D03*
X269081Y251504D02*
D03*
X281500Y259252D02*
D03*
X253740Y404930D02*
D03*
X249244D02*
D03*
X244750D02*
D03*
X289731Y254838D02*
D03*
X285835Y256931D02*
D03*
X289714Y258944D02*
D03*
X295074Y260447D02*
D03*
X299198Y264003D02*
D03*
X422685Y479248D02*
D03*
X365000Y262526D02*
D03*
X623809Y596229D02*
D03*
X374961Y255874D02*
D03*
X621448Y599378D02*
D03*
X626170Y614753D02*
D03*
X628533Y599378D02*
D03*
X630895Y596260D02*
D03*
X586615Y518292D02*
D03*
X585215Y522692D02*
D03*
X599908Y521815D02*
D03*
X599954Y517788D02*
D03*
X604040Y521815D02*
D03*
X604039Y517788D02*
D03*
X649153Y596867D02*
D03*
X554212Y534248D02*
D03*
X558500Y538441D02*
D03*
X534573Y534248D02*
D03*
X530500Y538126D02*
D03*
X544500Y524000D02*
D03*
Y520260D02*
D03*
Y527740D02*
D03*
X558500Y509488D02*
D03*
X626000Y507661D02*
D03*
X630118D02*
D03*
X655016Y550339D02*
D03*
Y545248D02*
D03*
X666575D02*
D03*
Y550339D02*
D03*
X655015Y522707D02*
D03*
Y527248D02*
D03*
Y531817D02*
D03*
X658950Y522707D02*
D03*
Y527248D02*
D03*
Y531817D02*
D03*
X639521Y527248D02*
D03*
X620604Y533254D02*
D03*
X626000Y528116D02*
D03*
X620604D02*
D03*
X615972D02*
D03*
X615971Y533254D02*
D03*
X611337Y528116D02*
D03*
Y533254D02*
D03*
X622244Y538996D02*
D03*
X624686Y545248D02*
D03*
X608172Y521815D02*
D03*
Y517788D02*
D03*
X582415Y519292D02*
D03*
X580915Y523092D02*
D03*
X578690Y526392D02*
D03*
X583015D02*
D03*
X518100Y539388D02*
D03*
X522126Y535279D02*
D03*
X518100D02*
D03*
X522126Y539411D02*
D03*
Y543543D02*
D03*
X518100Y543498D02*
D03*
X453963Y490516D02*
D03*
X464643Y496376D02*
D03*
X464153Y502327D02*
D03*
X449508Y504295D02*
D03*
X456651Y506946D02*
D03*
X447559Y510039D02*
D03*
X543475Y461000D02*
D03*
X562450D02*
D03*
Y456459D02*
D03*
X558514D02*
D03*
Y461000D02*
D03*
X495157Y454575D02*
D03*
Y458779D02*
D03*
X498898Y454575D02*
D03*
Y458779D02*
D03*
X511142Y454575D02*
D03*
Y458779D02*
D03*
X521323Y464732D02*
D03*
X521323Y468937D02*
D03*
X517520Y464732D02*
D03*
X513717D02*
D03*
X517520Y468937D02*
D03*
X513717D02*
D03*
X542362Y484291D02*
D03*
X545285Y481000D02*
D03*
X526209Y473748D02*
D03*
X529500Y476671D02*
D03*
Y439499D02*
D03*
X359655Y502559D02*
D03*
X359610Y506586D02*
D03*
X363742D02*
D03*
X367874Y502559D02*
D03*
Y506586D02*
D03*
X363765Y502559D02*
D03*
X379500Y518248D02*
D03*
X431653Y504000D02*
D03*
X440103Y514752D02*
D03*
X456285D02*
D03*
X466417Y513209D02*
D03*
X393550Y465541D02*
D03*
X397485D02*
D03*
Y456431D02*
D03*
X393550D02*
D03*
Y461000D02*
D03*
X397485D02*
D03*
X410215Y442961D02*
D03*
X413187Y439710D02*
D03*
X430344Y479248D02*
D03*
X445761Y472020D02*
D03*
Y467820D02*
D03*
X444085Y462335D02*
D03*
X434000Y462334D02*
D03*
X439043Y462335D02*
D03*
X429790Y448801D02*
D03*
X426539Y445829D02*
D03*
X430917Y452735D02*
D03*
Y456452D02*
D03*
X449760Y483532D02*
D03*
X464882D02*
D03*
X465504Y478778D02*
D03*
X483000Y464291D02*
D03*
X490000D02*
D03*
Y478189D02*
D03*
X505385Y482500D02*
D03*
X490949D02*
D03*
X505850Y492500D02*
D03*
X509642D02*
D03*
X490949D02*
D03*
X490949Y498500D02*
D03*
X650500Y371904D02*
D03*
X652855Y306185D02*
D03*
X635619Y601388D02*
D03*
X639271Y599266D02*
D03*
X647429Y599378D02*
D03*
X656877Y602340D02*
D03*
X654515Y599557D02*
D03*
X644541Y602823D02*
D03*
X652153Y602854D02*
D03*
X369013Y269141D02*
D03*
X346702Y267473D02*
D03*
X330256Y253780D02*
D03*
Y248189D02*
D03*
Y242677D02*
D03*
X336035Y268823D02*
D03*
X338748Y265921D02*
D03*
X341874Y256449D02*
D03*
X347350Y256811D02*
D03*
X346535Y251693D02*
D03*
X349500Y254482D02*
D03*
X369635Y251745D02*
D03*
X370477Y257596D02*
D03*
X368307Y242677D02*
D03*
X347275Y244291D02*
D03*
X364475Y244251D02*
D03*
X348641Y238912D02*
D03*
X365315Y234842D02*
D03*
X341772Y237756D02*
D03*
X445484Y256340D02*
D03*
X129628Y74000D02*
D03*
Y82500D02*
D03*
X208465Y132000D02*
D03*
X460500Y250000D02*
D03*
X641539Y313999D02*
D03*
Y319002D02*
D03*
X220000Y77400D02*
D03*
X192128Y74000D02*
D03*
X444000Y223500D02*
D03*
X460394Y224291D02*
D03*
X270965Y132000D02*
D03*
X360898Y134000D02*
D03*
X387634Y180961D02*
D03*
X391142Y194735D02*
D03*
X460500Y236900D02*
D03*
X476500Y58348D02*
D03*
X685000Y286862D02*
D03*
X593679Y186752D02*
D03*
X680000Y286862D02*
D03*
X670000Y286860D02*
D03*
X675000Y286862D02*
D03*
X361000Y87285D02*
D03*
X486500Y198029D02*
D03*
X463000Y469252D02*
D03*
X435823Y456452D02*
D03*
X440728D02*
D03*
X435823Y452735D02*
D03*
X440728D02*
D03*
X253161Y88500D02*
D03*
X440661D02*
D03*
X212573Y281209D02*
D03*
X198713Y261610D02*
D03*
X218973Y268858D02*
D03*
X195280Y254858D02*
D03*
X229772Y331071D02*
D03*
X198091Y322976D02*
D03*
X205676Y323827D02*
D03*
X198091Y326647D02*
D03*
X229773Y326626D02*
D03*
X197500Y318905D02*
D03*
X158670Y271289D02*
D03*
X163356Y280399D02*
D03*
Y271289D02*
D03*
Y275858D02*
D03*
X158670Y280399D02*
D03*
Y275858D02*
D03*
X397603Y169500D02*
D03*
X451903Y168750D02*
D03*
X446240D02*
D03*
X515180Y602688D02*
D03*
X504506Y617320D02*
D03*
X203000Y598839D02*
D03*
X154050Y594781D02*
D03*
X166886Y588386D02*
D03*
X128500Y596279D02*
D03*
X123500Y605901D02*
D03*
X116471Y608000D02*
D03*
X92386Y588386D02*
D03*
X87256Y603000D02*
D03*
X79550Y594781D02*
D03*
X226000Y632701D02*
D03*
X209221Y658200D02*
D03*
X201800Y647307D02*
D03*
X200261Y629024D02*
D03*
X214339Y632700D02*
D03*
X209221Y629024D02*
D03*
X149721D02*
D03*
X154839Y632700D02*
D03*
X140761Y629024D02*
D03*
X142300Y647307D02*
D03*
X166000Y656100D02*
D03*
X149721Y658200D02*
D03*
X166500Y632701D02*
D03*
X1009043Y656914D02*
D03*
X1014556Y649061D02*
D03*
Y656939D02*
D03*
X1009500Y630300D02*
D03*
X1013900D02*
D03*
X1022500Y643500D02*
D03*
X1046240Y677843D02*
D03*
X1021434Y674000D02*
D03*
X1032508Y669785D02*
D03*
X1019800Y668500D02*
D03*
X1022244Y653126D02*
D03*
X1026610Y646791D02*
D03*
X1036500Y632252D02*
D03*
X1039790Y636268D02*
D03*
X1039791Y639732D02*
D03*
X1032200Y646079D02*
D03*
X1053686Y647970D02*
D03*
X102003Y471468D02*
D03*
X91182Y392500D02*
D03*
X86497D02*
D03*
Y387931D02*
D03*
Y397041D02*
D03*
X91182Y387931D02*
D03*
Y397041D02*
D03*
X124213Y412748D02*
D03*
X121000Y415684D02*
D03*
X132500Y397000D02*
D03*
X107146Y370367D02*
D03*
X103537Y374018D02*
D03*
X120995Y377041D02*
D03*
X124512Y380252D02*
D03*
X128556Y384500D02*
D03*
X262500Y346100D02*
D03*
X272500Y344700D02*
D03*
X267000Y344701D02*
D03*
X278500Y343816D02*
D03*
X386304Y353541D02*
D03*
X381619D02*
D03*
Y349000D02*
D03*
X386304D02*
D03*
X366501D02*
D03*
X343500Y357000D02*
D03*
X505524Y306100D02*
D03*
X505473Y310032D02*
D03*
X493633Y304782D02*
D03*
X473302Y302621D02*
D03*
X477274Y302609D02*
D03*
X473302Y307232D02*
D03*
X477274D02*
D03*
X497717Y310032D02*
D03*
X297000Y170622D02*
D03*
X301500Y174614D02*
D03*
X305500Y170622D02*
D03*
X310000Y174614D02*
D03*
X314000Y170622D02*
D03*
X318500Y174614D02*
D03*
X322500Y170622D02*
D03*
X348651Y199969D02*
D03*
X450200Y185500D02*
D03*
X413539Y169500D02*
D03*
X387634Y187762D02*
D03*
X108161Y114500D02*
D03*
Y119000D02*
D03*
X110898Y125500D02*
D03*
Y134000D02*
D03*
X170661Y114500D02*
D03*
Y119000D02*
D03*
X173398Y125500D02*
D03*
Y134000D02*
D03*
X145965Y132000D02*
D03*
X233161Y114500D02*
D03*
Y119000D02*
D03*
X235898Y125500D02*
D03*
Y134000D02*
D03*
X295661Y114500D02*
D03*
Y119000D02*
D03*
X298398Y125500D02*
D03*
Y134000D02*
D03*
X358161Y114500D02*
D03*
Y119000D02*
D03*
X360898Y125500D02*
D03*
X333465Y132000D02*
D03*
X420661Y114500D02*
D03*
Y119000D02*
D03*
X423398Y125500D02*
D03*
Y134000D02*
D03*
X395965Y132000D02*
D03*
X483161Y114500D02*
D03*
Y119000D02*
D03*
X485898Y125500D02*
D03*
Y134000D02*
D03*
X458465Y132000D02*
D03*
X520965D02*
D03*
X548398Y134000D02*
D03*
Y125500D02*
D03*
X545661Y119000D02*
D03*
Y114500D02*
D03*
X108500Y58263D02*
D03*
X101500Y58348D02*
D03*
X111000Y87285D02*
D03*
X104000Y85694D02*
D03*
X99000D02*
D03*
X82000Y56532D02*
D03*
X73602Y60709D02*
D03*
X67128Y74000D02*
D03*
Y82500D02*
D03*
X70913Y92643D02*
D03*
X70961Y96500D02*
D03*
X171000Y58263D02*
D03*
X164000Y58348D02*
D03*
X173500Y87285D02*
D03*
X166500Y85694D02*
D03*
X161500D02*
D03*
X144500Y56532D02*
D03*
X136102Y60709D02*
D03*
X133413Y92643D02*
D03*
X133461Y96500D02*
D03*
X233500Y58263D02*
D03*
X226500Y58348D02*
D03*
X236000Y87285D02*
D03*
X229000Y85694D02*
D03*
X224000D02*
D03*
X207000Y56532D02*
D03*
X198602Y60709D02*
D03*
X192128Y82500D02*
D03*
X195913Y92643D02*
D03*
X195961Y96500D02*
D03*
X296000Y58263D02*
D03*
X289000Y58348D02*
D03*
X298500Y87285D02*
D03*
X291500Y85694D02*
D03*
X286500D02*
D03*
X269500Y56532D02*
D03*
X261102Y60709D02*
D03*
X254628Y74000D02*
D03*
Y82500D02*
D03*
X258413Y92643D02*
D03*
X258461Y96500D02*
D03*
X358500Y58263D02*
D03*
X351500Y58348D02*
D03*
X354000Y85694D02*
D03*
X349000D02*
D03*
X332000Y56532D02*
D03*
X323602Y60709D02*
D03*
X317128Y74000D02*
D03*
Y82500D02*
D03*
X320913Y92643D02*
D03*
X320961Y96500D02*
D03*
X421000Y58263D02*
D03*
X414000Y58348D02*
D03*
X423500Y87285D02*
D03*
X416500Y85694D02*
D03*
X411500D02*
D03*
X394500Y56532D02*
D03*
X379628Y74000D02*
D03*
Y82500D02*
D03*
X383413Y92643D02*
D03*
X383461Y96500D02*
D03*
X483500Y58263D02*
D03*
X486000Y87285D02*
D03*
X479000Y85694D02*
D03*
X474000D02*
D03*
X457000Y56532D02*
D03*
X448602Y60709D02*
D03*
X442128Y74000D02*
D03*
Y82500D02*
D03*
X445913Y92643D02*
D03*
X445961Y96500D02*
D03*
X65661Y88500D02*
D03*
X128161D02*
D03*
X190661D02*
D03*
X315661D02*
D03*
X378161D02*
D03*
X503161D02*
D03*
X508461Y96500D02*
D03*
X508413Y92643D02*
D03*
X504628Y82500D02*
D03*
Y74000D02*
D03*
X82300Y68500D02*
D03*
X144800D02*
D03*
X207300D02*
D03*
X269800D02*
D03*
X332300D02*
D03*
X394800D02*
D03*
X457300D02*
D03*
X519800D02*
D03*
X519500Y56532D02*
D03*
X536500Y85694D02*
D03*
X541500D02*
D03*
X548500Y87285D02*
D03*
X539000Y58348D02*
D03*
X546000Y58263D02*
D03*
X700500Y672174D02*
D03*
X690133Y656248D02*
D03*
X686402Y660634D02*
D03*
X686425Y646788D02*
D03*
X590929Y656248D02*
D03*
X587197Y660634D02*
D03*
X587220Y646788D02*
D03*
X488499Y603910D02*
D03*
Y619279D02*
D03*
X497000Y603543D02*
D03*
Y619279D02*
D03*
X504500Y603258D02*
D03*
X570075Y602827D02*
D03*
X576571D02*
D03*
X593752Y615004D02*
D03*
X600248D02*
D03*
X617708Y614976D02*
D03*
X633252Y615412D02*
D03*
X640343Y614753D02*
D03*
X667310Y602510D02*
D03*
X753248Y596702D02*
D03*
X749400Y600003D02*
D03*
X761252Y596702D02*
D03*
X749398Y615092D02*
D03*
X756998Y600041D02*
D03*
X757000Y615027D02*
D03*
X765500Y599808D02*
D03*
Y614794D02*
D03*
X588500Y183121D02*
D03*
X976598Y397071D02*
D03*
X968815Y391828D02*
D03*
X991598Y397071D02*
D03*
X999383Y391827D02*
D03*
X1096050Y328575D02*
D03*
X972272Y370000D02*
D03*
Y365579D02*
D03*
Y374634D02*
D03*
X996181Y370000D02*
D03*
Y365579D02*
D03*
Y374634D02*
D03*
X977886D02*
D03*
X990091D02*
D03*
Y365579D02*
D03*
X977886D02*
D03*
X984000D02*
D03*
Y374634D02*
D03*
X990091Y370000D02*
D03*
X977886D02*
D03*
X1103639Y332469D02*
D03*
X1103320Y329215D02*
D03*
X1113359Y334437D02*
D03*
X1075178Y319638D02*
D03*
X1079000Y316349D02*
D03*
X1064538Y324362D02*
D03*
X963200Y368400D02*
D03*
X959800D02*
D03*
X963300Y356131D02*
D03*
X959800Y357500D02*
D03*
X960100Y350700D02*
D03*
X956600D02*
D03*
X957900Y345666D02*
D03*
X976500Y347000D02*
D03*
X1003300Y351300D02*
D03*
X998500D02*
D03*
X1033400Y344200D02*
D03*
X1023000Y323000D02*
D03*
X997525Y323369D02*
D03*
X993225D02*
D03*
X988156Y331200D02*
D03*
X991600D02*
D03*
X980700Y337900D02*
D03*
X983000Y325800D02*
D03*
X981100Y322200D02*
D03*
X995900Y305000D02*
D03*
Y310700D02*
D03*
Y299100D02*
D03*
X991000Y308033D02*
D03*
Y313500D02*
D03*
Y302567D02*
D03*
Y297100D02*
D03*
X970000Y308033D02*
D03*
Y313500D02*
D03*
Y302567D02*
D03*
Y297100D02*
D03*
X984000Y313500D02*
D03*
Y302567D02*
D03*
Y297100D02*
D03*
X977000D02*
D03*
Y302567D02*
D03*
Y313500D02*
D03*
Y308033D02*
D03*
X1103202Y131419D02*
D03*
X1108760Y139417D02*
D03*
X1113359Y136937D02*
D03*
X1103202Y134968D02*
D03*
X1095975Y131033D02*
D03*
X1079000Y118901D02*
D03*
X1075386Y122138D02*
D03*
X1064788Y126862D02*
D03*
X962900Y180587D02*
D03*
X959102Y153301D02*
D03*
Y159269D02*
D03*
Y165234D02*
D03*
X959100Y171202D02*
D03*
X967402Y153300D02*
D03*
Y159268D02*
D03*
Y165233D02*
D03*
X967400Y171202D02*
D03*
X975700Y171201D02*
D03*
X975702Y165232D02*
D03*
Y159268D02*
D03*
Y153299D02*
D03*
X997299Y159268D02*
D03*
X997300Y171200D02*
D03*
Y165232D02*
D03*
X991902Y153300D02*
D03*
Y159267D02*
D03*
Y165233D02*
D03*
X991900Y171200D02*
D03*
X984000Y153299D02*
D03*
Y159268D02*
D03*
X997283Y191413D02*
D03*
X1113359Y201437D02*
D03*
X1108760Y203917D02*
D03*
X1102883Y196131D02*
D03*
Y192377D02*
D03*
X1103202Y199469D02*
D03*
X1076653Y188732D02*
D03*
X1076385Y185268D02*
D03*
X1080000Y182413D02*
D03*
X1096202Y195486D02*
D03*
X977886Y231642D02*
D03*
X984000D02*
D03*
X990091Y248571D02*
D03*
X984000D02*
D03*
X977886D02*
D03*
Y244634D02*
D03*
X990091D02*
D03*
Y235579D02*
D03*
X977886D02*
D03*
X984000D02*
D03*
Y244634D02*
D03*
X990091Y240000D02*
D03*
X977886D02*
D03*
X971775Y239837D02*
D03*
Y244471D02*
D03*
Y248408D02*
D03*
X989500Y275046D02*
D03*
X997423Y280173D02*
D03*
X974500Y274960D02*
D03*
X966600Y280087D02*
D03*
X997400Y265913D02*
D03*
X989500Y271040D02*
D03*
X966576Y265913D02*
D03*
X974500Y271040D02*
D03*
X867887Y267983D02*
D03*
X873978D02*
D03*
X861773D02*
D03*
Y271920D02*
D03*
X867887D02*
D03*
X873978D02*
D03*
X873925Y275843D02*
D03*
X867834D02*
D03*
X861720D02*
D03*
X849516D02*
D03*
X855630D02*
D03*
X855683Y271920D02*
D03*
X849569D02*
D03*
Y267983D02*
D03*
X855683D02*
D03*
X837311Y275843D02*
D03*
X843425D02*
D03*
X843478Y271920D02*
D03*
X837364D02*
D03*
Y267983D02*
D03*
X843478D02*
D03*
X854175Y287099D02*
D03*
X856000Y304749D02*
D03*
X863500D02*
D03*
X848500D02*
D03*
X840000Y304750D02*
D03*
X906000Y305724D02*
D03*
X909234Y301299D02*
D03*
X713187Y161393D02*
D03*
X685274Y150609D02*
D03*
X681301Y150621D02*
D03*
X685274Y155232D02*
D03*
X681301D02*
D03*
X584695Y196984D02*
D03*
X794240Y699393D02*
D03*
X786667Y689359D02*
D03*
X790500Y690258D02*
D03*
X794000Y710043D02*
D03*
X790505Y710480D02*
D03*
X786764Y700708D02*
D03*
X899540Y653740D02*
D03*
X898760Y646260D02*
D03*
X890613Y650000D02*
D03*
X880028Y646260D02*
D03*
Y653740D02*
D03*
X496564Y660464D02*
D03*
X493176Y598071D02*
D03*
X84036Y465563D02*
D03*
X94653Y470917D02*
D03*
X94634Y474315D02*
D03*
X122248Y478713D02*
D03*
X126098D02*
D03*
X122250Y474268D02*
D03*
X126100D02*
D03*
X179500Y517021D02*
D03*
Y512336D02*
D03*
Y526372D02*
D03*
Y521687D02*
D03*
X77157Y540147D02*
D03*
X86960D02*
D03*
X95458D02*
D03*
X104844D02*
D03*
X115245D02*
D03*
X123933D02*
D03*
X133383D02*
D03*
X141817D02*
D03*
X150886D02*
D03*
X159131D02*
D03*
X167819D02*
D03*
X177269D02*
D03*
X186021D02*
D03*
X207583D02*
D03*
X140995Y528223D02*
D03*
X154398Y533413D02*
D03*
X139444Y518500D02*
D03*
X142617Y522279D02*
D03*
X148942Y521866D02*
D03*
X148256Y511654D02*
D03*
X154000Y506916D02*
D03*
X259058Y520432D02*
D03*
X252349Y523553D02*
D03*
X255653D02*
D03*
X259058D02*
D03*
X275435Y512531D02*
D03*
X279002Y506451D02*
D03*
X259490D02*
D03*
X263959Y512531D02*
D03*
X267758D02*
D03*
X271558D02*
D03*
X281973Y473090D02*
D03*
X272900Y458700D02*
D03*
X253969Y462596D02*
D03*
X267215Y458700D02*
D03*
X261713D02*
D03*
X256500D02*
D03*
X225500Y517498D02*
D03*
X215260Y486600D02*
D03*
X215258Y489753D02*
D03*
X218758Y489715D02*
D03*
X211794Y489753D02*
D03*
X206920Y493500D02*
D03*
X212000Y514097D02*
D03*
X212661Y465400D02*
D03*
X216500Y505473D02*
D03*
X210674Y483096D02*
D03*
X202727Y510047D02*
D03*
X197900Y496752D02*
D03*
X194494D02*
D03*
X191191Y493630D02*
D03*
X194494D02*
D03*
X197900D02*
D03*
X191191Y490348D02*
D03*
X194494D02*
D03*
X197900D02*
D03*
X191191Y496752D02*
D03*
X199179Y516773D02*
D03*
X194331Y507722D02*
D03*
X194251Y504740D02*
D03*
X188451Y500988D02*
D03*
X203287Y457283D02*
D03*
X198602D02*
D03*
X188691Y472449D02*
D03*
X203164Y466389D02*
D03*
X194080Y482443D02*
D03*
X188451Y486012D02*
D03*
X182740Y495469D02*
D03*
X430976Y686001D02*
D03*
X430974Y691500D02*
D03*
X456939Y686000D02*
D03*
X456859Y691500D02*
D03*
X545885Y602784D02*
D03*
X543587Y599378D02*
D03*
X541138Y596229D02*
D03*
X538799Y602784D02*
D03*
X536414Y599378D02*
D03*
X534052Y596229D02*
D03*
X531712Y602784D02*
D03*
X529327Y599378D02*
D03*
X526966Y596229D02*
D03*
X524625Y602815D02*
D03*
X522242Y599378D02*
D03*
X517543Y615775D02*
D03*
X481858Y603311D02*
D03*
Y598071D02*
D03*
X500913Y598071D02*
D03*
X544704Y647331D02*
D03*
X537595Y647342D02*
D03*
X523449Y647331D02*
D03*
X490219Y660464D02*
D03*
X503994D02*
D03*
X237089Y248000D02*
D03*
X250149Y242500D02*
D03*
X291135Y241260D02*
D03*
X295116Y241397D02*
D03*
X275429Y230000D02*
D03*
Y234000D02*
D03*
X279669Y239126D02*
D03*
X295847Y230281D02*
D03*
X294940Y226868D02*
D03*
X285114Y226000D02*
D03*
X285115Y234000D02*
D03*
Y230000D02*
D03*
X219500Y389100D02*
D03*
X231140Y385121D02*
D03*
X238175Y380990D02*
D03*
X226500Y389098D02*
D03*
X212681Y372000D02*
D03*
Y376500D02*
D03*
Y381000D02*
D03*
Y385500D02*
D03*
X207927Y383250D02*
D03*
X260500Y401819D02*
D03*
X256000D02*
D03*
X251500D02*
D03*
X247000D02*
D03*
X242500D02*
D03*
X238000D02*
D03*
X243839Y376032D02*
D03*
X248103D02*
D03*
X252453Y371717D02*
D03*
Y376032D02*
D03*
Y367562D02*
D03*
X246500Y354500D02*
D03*
X243071Y383922D02*
D03*
X278099Y380750D02*
D03*
X275307Y374000D02*
D03*
Y369500D02*
D03*
X257228Y358487D02*
D03*
X267000Y358948D02*
D03*
X272500D02*
D03*
X278500D02*
D03*
X254232Y320951D02*
D03*
X250768D02*
D03*
X261788Y337000D02*
D03*
X243126D02*
D03*
X224000Y341200D02*
D03*
X229500Y342773D02*
D03*
X234500Y347243D02*
D03*
X248103Y371717D02*
D03*
X243839D02*
D03*
X248103Y367562D02*
D03*
X243839D02*
D03*
X874483Y596281D02*
D03*
X881732Y596899D02*
D03*
X896000Y618439D02*
D03*
X890325Y622741D02*
D03*
X899946Y611268D02*
D03*
X961106Y655300D02*
D03*
X952000Y680400D02*
D03*
X918193Y656760D02*
D03*
X922793D02*
D03*
X935728Y663000D02*
D03*
X940100Y678362D02*
D03*
X943017Y697256D02*
D03*
X939000Y700851D02*
D03*
X910109Y687758D02*
D03*
X914709D02*
D03*
X898248Y677224D02*
D03*
X893917D02*
D03*
X885256D02*
D03*
X872264D02*
D03*
X902579D02*
D03*
X880925D02*
D03*
X876595D02*
D03*
X911450Y671496D02*
D03*
X917067Y665175D02*
D03*
X922359Y671496D02*
D03*
X911450Y704173D02*
D03*
X917067Y697852D02*
D03*
X922359Y704173D02*
D03*
X857317Y671496D02*
D03*
X862933Y665175D02*
D03*
X868225Y671496D02*
D03*
Y704173D02*
D03*
X862933Y697852D02*
D03*
X857317Y704173D02*
D03*
X726578Y647331D02*
D03*
X717133D02*
D03*
X743094Y635754D02*
D03*
X738389Y647085D02*
D03*
X748722Y657606D02*
D03*
X761450D02*
D03*
X755479D02*
D03*
X745453Y648327D02*
D03*
X700575Y651043D02*
D03*
X779750Y710500D02*
D03*
Y704500D02*
D03*
Y698500D02*
D03*
X777083Y707500D02*
D03*
X777459Y713500D02*
D03*
X798500Y728937D02*
D03*
X774055Y728938D02*
D03*
X802327Y688504D02*
D03*
Y696378D02*
D03*
Y704252D02*
D03*
X834445Y712126D02*
D03*
Y704252D02*
D03*
Y696378D02*
D03*
Y688504D02*
D03*
Y680630D02*
D03*
Y672756D02*
D03*
X787000Y639406D02*
D03*
X943779Y473472D02*
D03*
X970823D02*
D03*
X994098Y516492D02*
D03*
X957938Y522695D02*
D03*
X960725Y525950D02*
D03*
X957780Y519054D02*
D03*
X967787Y516463D02*
D03*
X972995Y516500D02*
D03*
X975638Y512500D02*
D03*
X972937Y508500D02*
D03*
X976008Y504500D02*
D03*
X972937Y500500D02*
D03*
X964622Y491098D02*
D03*
X961000Y493600D02*
D03*
X882398Y498400D02*
D03*
X958166Y491134D02*
D03*
X955898Y498400D02*
D03*
X953000Y492400D02*
D03*
X949000Y488902D02*
D03*
X920250Y519500D02*
D03*
X920252Y495395D02*
D03*
X938760Y507500D02*
D03*
X941536Y504615D02*
D03*
X937544Y501930D02*
D03*
X884304Y523226D02*
D03*
X886544Y525643D02*
D03*
X884455Y519320D02*
D03*
X877333Y522576D02*
D03*
X894626Y516345D02*
D03*
X896753Y512717D02*
D03*
X902910Y510079D02*
D03*
X895217Y507379D02*
D03*
X899009Y504375D02*
D03*
X893985Y501363D02*
D03*
X846382Y519000D02*
D03*
Y514866D02*
D03*
X864009Y514941D02*
D03*
X866950Y512796D02*
D03*
X863911Y510079D02*
D03*
X867206Y507528D02*
D03*
X867237Y502583D02*
D03*
X906855Y473753D02*
D03*
X906860Y470115D02*
D03*
X891122Y491098D02*
D03*
X887500Y493600D02*
D03*
X884700Y491100D02*
D03*
X879500Y492400D02*
D03*
X877000Y488900D02*
D03*
X738728Y312249D02*
D03*
X727724Y298992D02*
D03*
X755900Y339177D02*
D03*
X759868D02*
D03*
X751565D02*
D03*
X737500Y346441D02*
D03*
X742500D02*
D03*
X747500Y346441D02*
D03*
X743104Y329220D02*
D03*
X725839Y344095D02*
D03*
X705026Y391910D02*
D03*
X709842Y391221D02*
D03*
X707430Y387389D02*
D03*
X712050Y387406D02*
D03*
X705841Y374914D02*
D03*
X709778Y374867D02*
D03*
X715683Y374944D02*
D03*
X707809Y372329D02*
D03*
X690499Y409486D02*
D03*
X695499D02*
D03*
X696071Y385468D02*
D03*
X674616Y369685D02*
D03*
X663000Y372272D02*
D03*
X644441Y366846D02*
D03*
X673951Y357874D02*
D03*
X676331Y354794D02*
D03*
X674449Y351969D02*
D03*
X641539Y354000D02*
D03*
X637458Y351500D02*
D03*
X641539Y349000D02*
D03*
Y344001D02*
D03*
X637441Y346500D02*
D03*
X641539Y339124D02*
D03*
X637441Y336500D02*
D03*
X641539Y333999D02*
D03*
Y329000D02*
D03*
X641316Y324000D02*
D03*
X637441Y326500D02*
D03*
X644495Y310664D02*
D03*
X666855Y316932D02*
D03*
X690000Y286862D02*
D03*
X695000D02*
D03*
X700000D02*
D03*
X705000D02*
D03*
X712500Y290839D02*
D03*
X715185Y293419D02*
D03*
X707500Y290839D02*
D03*
X702500D02*
D03*
X697500D02*
D03*
X692500D02*
D03*
X687500D02*
D03*
X682500D02*
D03*
X677500D02*
D03*
X672500D02*
D03*
X667500D02*
D03*
X703937Y323840D02*
D03*
X330256Y235976D02*
D03*
X332551Y272268D02*
D03*
X332608Y275732D02*
D03*
X329500Y279077D02*
D03*
X499465Y516555D02*
D03*
X487762Y505690D02*
D03*
X507660Y523445D02*
D03*
X499302Y523582D02*
D03*
X507920Y538700D02*
D03*
X511200D02*
D03*
X494507Y539500D02*
D03*
X482922Y512535D02*
D03*
X484455Y515312D02*
D03*
X466969Y524973D02*
D03*
Y528383D02*
D03*
X474000Y522400D02*
D03*
X464590Y538232D02*
D03*
X491657Y536735D02*
D03*
X410701Y194700D02*
D03*
Y206299D02*
D03*
X94232Y111300D02*
D03*
X82768D02*
D03*
X156732D02*
D03*
X145268D02*
D03*
X219232D02*
D03*
X207768D02*
D03*
X281732D02*
D03*
X270268D02*
D03*
X344232D02*
D03*
X332768D02*
D03*
X406732D02*
D03*
X395268D02*
D03*
X469232D02*
D03*
X457768D02*
D03*
X520268D02*
D03*
X531732D02*
D03*
X1119502Y637298D02*
D03*
X1137897Y625000D02*
D03*
X1141268Y621728D02*
D03*
X1152897Y625000D02*
D03*
X1156268Y621728D02*
D03*
X1167897Y625000D02*
D03*
X1171268Y621728D02*
D03*
X1186268D02*
D03*
X1182897Y625000D02*
D03*
X1133996Y631284D02*
D03*
X1148996D02*
D03*
X1163996D02*
D03*
X1178996D02*
D03*
X1083709Y621985D02*
D03*
X1083886Y538105D02*
D03*
X1117000Y603597D02*
D03*
X1112875Y599456D02*
D03*
X1111153Y550444D02*
D03*
X1116929Y545752D02*
D03*
X1103300Y639244D02*
D03*
Y644756D02*
D03*
X1107000Y648000D02*
D03*
X1125000Y650500D02*
D03*
X1121300Y647256D02*
D03*
X1168000Y175000D02*
D03*
X1162000Y222500D02*
D03*
X1168000Y212500D02*
D03*
X1162000Y165000D02*
D03*
X1168000Y90000D02*
D03*
X1162000Y100000D02*
D03*
X1209500Y652000D02*
D03*
Y648100D02*
D03*
Y625700D02*
D03*
Y632000D02*
D03*
Y638500D02*
D03*
X1205000Y639604D02*
D03*
X1198252Y622500D02*
D03*
X1198154Y640700D02*
D03*
X1219400Y663118D02*
D03*
X455200Y250000D02*
D03*
X434300Y215072D02*
D03*
X436000Y196000D02*
D03*
X442665Y184500D02*
D03*
X407700Y198500D02*
D03*
Y202500D02*
D03*
X425300Y198500D02*
D03*
Y202500D02*
D03*
X402500Y200500D02*
D03*
X443461Y206800D02*
D03*
X451661Y193500D02*
D03*
X473700Y200600D02*
D03*
X474000Y190900D02*
D03*
X470500Y192800D02*
D03*
X453400Y207639D02*
D03*
Y203439D02*
D03*
X457600Y207639D02*
D03*
Y203439D02*
D03*
X1106732Y24468D02*
D03*
X1073332D02*
D03*
X89000Y40100D02*
D03*
X80800Y24500D02*
D03*
X114200D02*
D03*
X82000Y53000D02*
D03*
X101800Y73800D02*
D03*
X105500D02*
D03*
X95000Y77400D02*
D03*
X91600Y64400D02*
D03*
X95800D02*
D03*
X86500Y27900D02*
D03*
X91600Y68600D02*
D03*
X95800D02*
D03*
X526500Y40100D02*
D03*
X518300Y24500D02*
D03*
X551700D02*
D03*
X539300Y73800D02*
D03*
X543000D02*
D03*
X532500Y77400D02*
D03*
X529100Y64400D02*
D03*
X533300D02*
D03*
X524000Y27900D02*
D03*
X529100Y68600D02*
D03*
X533300D02*
D03*
X464000Y40100D02*
D03*
X455800Y24500D02*
D03*
X489200D02*
D03*
X457000Y53000D02*
D03*
X476800Y73800D02*
D03*
X480500D02*
D03*
X470000Y77400D02*
D03*
X466600Y64400D02*
D03*
X470800D02*
D03*
X461500Y27900D02*
D03*
X466600Y68600D02*
D03*
X470800D02*
D03*
X401500Y40100D02*
D03*
X393300Y24500D02*
D03*
X426700D02*
D03*
X394500Y53000D02*
D03*
X414300Y73800D02*
D03*
X418000D02*
D03*
X407500Y77400D02*
D03*
X404100Y64400D02*
D03*
X408300D02*
D03*
X399000Y27900D02*
D03*
X404100Y68600D02*
D03*
X408300D02*
D03*
X339000Y40100D02*
D03*
X330800Y24500D02*
D03*
X364200D02*
D03*
X332000Y53000D02*
D03*
X351800Y73800D02*
D03*
X355500D02*
D03*
X345000Y77400D02*
D03*
X341600Y64400D02*
D03*
X345800D02*
D03*
X336500Y27900D02*
D03*
X341600Y68600D02*
D03*
X345800D02*
D03*
X276500Y40100D02*
D03*
X268300Y24500D02*
D03*
X301700D02*
D03*
X269500Y53000D02*
D03*
X289300Y73800D02*
D03*
X293000D02*
D03*
X282500Y77400D02*
D03*
X279100Y64400D02*
D03*
X283300D02*
D03*
X274000Y27900D02*
D03*
X279100Y68600D02*
D03*
X283300D02*
D03*
X158300D02*
D03*
X154100D02*
D03*
X149000Y27900D02*
D03*
X158300Y64400D02*
D03*
X154100D02*
D03*
X157500Y77400D02*
D03*
X168000Y73800D02*
D03*
X164300D02*
D03*
X144500Y53000D02*
D03*
X176700Y24500D02*
D03*
X143300D02*
D03*
X151500Y40100D02*
D03*
X214000D02*
D03*
X205800Y24500D02*
D03*
X239200D02*
D03*
X207000Y53000D02*
D03*
X226800Y73800D02*
D03*
X230500D02*
D03*
X216600Y64400D02*
D03*
X220800D02*
D03*
X211500Y27900D02*
D03*
X216600Y68600D02*
D03*
X220800D02*
D03*
X405300Y92000D02*
D03*
X84600Y88700D02*
D03*
X92800Y92000D02*
D03*
X86200Y120700D02*
D03*
X90800D02*
D03*
X86500Y114300D02*
D03*
X90500D02*
D03*
X86500Y96700D02*
D03*
X90500D02*
D03*
X465500D02*
D03*
X461500D02*
D03*
X465500Y114300D02*
D03*
X461500D02*
D03*
X465800Y120700D02*
D03*
X461200D02*
D03*
X467800Y92000D02*
D03*
X459600Y88700D02*
D03*
X528000Y96700D02*
D03*
X524000D02*
D03*
X528000Y114300D02*
D03*
X524000D02*
D03*
X528300Y120700D02*
D03*
X523700D02*
D03*
X403000Y96700D02*
D03*
X399000D02*
D03*
X403000Y114300D02*
D03*
X399000D02*
D03*
X403300Y120700D02*
D03*
X398700D02*
D03*
X397100Y88700D02*
D03*
X340500Y96700D02*
D03*
X336500D02*
D03*
X340500Y114300D02*
D03*
X336500D02*
D03*
X340800Y120700D02*
D03*
X336200D02*
D03*
X342800Y92000D02*
D03*
X334600Y88700D02*
D03*
X278000Y96700D02*
D03*
X274000D02*
D03*
X278000Y114300D02*
D03*
X274000D02*
D03*
X278300Y120700D02*
D03*
X273700D02*
D03*
X280300Y92000D02*
D03*
X272100Y88700D02*
D03*
X209600D02*
D03*
X217800Y92000D02*
D03*
X211200Y120700D02*
D03*
X215800D02*
D03*
X211500Y114300D02*
D03*
X215500D02*
D03*
X211500Y96700D02*
D03*
X215500D02*
D03*
X153000Y114300D02*
D03*
X149000D02*
D03*
Y96700D02*
D03*
X153000D02*
D03*
X147100Y88700D02*
D03*
X155300Y92000D02*
D03*
X148700Y120700D02*
D03*
X153300D02*
D03*
X1173000Y170000D02*
D03*
Y95000D02*
D03*
X1237500Y740000D02*
D03*
Y691000D02*
D03*
X1196500Y690000D02*
D03*
X1237500Y716000D02*
D03*
X1196500Y716500D02*
D03*
Y740000D02*
D03*
X1155500Y717000D02*
D03*
Y740000D02*
D03*
X1242500Y425500D02*
D03*
X1218500Y478500D02*
D03*
X1242500Y511000D02*
D03*
Y593500D02*
D03*
X1218500Y560500D02*
D03*
Y632291D02*
D03*
D186*
X569882Y288504D02*
D03*
X625000Y142835D02*
D03*
X951772Y548347D02*
D03*
X34449Y44409D02*
D03*
X1215551D02*
D03*
X34449Y705827D02*
D03*
X176181Y178268D02*
D03*
X1006890Y217638D02*
D03*
X152559Y351496D02*
D03*
X1128937Y363307D02*
D03*
X373031Y536535D02*
D03*
D187*
X1240543Y673256D02*
D03*
Y642744D02*
D03*
D188*
X1225583Y672665D02*
D03*
Y643335D02*
D03*
D189*
X1229716Y648158D02*
D03*
Y667842D02*
D03*
D190*
X95000Y710000D02*
D03*
D191*
Y720000D02*
D03*
X105000Y710000D02*
D03*
Y720000D02*
D03*
X115000Y710000D02*
D03*
Y720000D02*
D03*
X125000Y710000D02*
D03*
Y720000D02*
D03*
X135000Y710000D02*
D03*
Y720000D02*
D03*
X145000Y710000D02*
D03*
Y720000D02*
D03*
X155000Y710000D02*
D03*
Y720000D02*
D03*
X165000Y710000D02*
D03*
Y720000D02*
D03*
X175000Y710000D02*
D03*
Y720000D02*
D03*
X185000Y710000D02*
D03*
Y720000D02*
D03*
X195000Y710000D02*
D03*
Y720000D02*
D03*
X205000Y710000D02*
D03*
Y720000D02*
D03*
X215000Y710000D02*
D03*
Y720000D02*
D03*
X225000Y710000D02*
D03*
Y720000D02*
D03*
X235000Y710000D02*
D03*
Y720000D02*
D03*
X245000Y710000D02*
D03*
Y720000D02*
D03*
X255000Y710000D02*
D03*
Y720000D02*
D03*
X265000Y710000D02*
D03*
Y720000D02*
D03*
X275000Y710000D02*
D03*
Y720000D02*
D03*
X285000Y710000D02*
D03*
Y720000D02*
D03*
X295000Y710000D02*
D03*
Y720000D02*
D03*
X305000Y710000D02*
D03*
Y720000D02*
D03*
D192*
X399450Y103950D02*
D03*
Y107050D02*
D03*
X402550Y103950D02*
D03*
Y107050D02*
D03*
X527550D02*
D03*
Y103950D02*
D03*
X524450Y107050D02*
D03*
Y103950D02*
D03*
X414950Y202050D02*
D03*
X418050D02*
D03*
X414950Y198950D02*
D03*
X418050D02*
D03*
X90050Y107050D02*
D03*
Y103950D02*
D03*
X86950Y107050D02*
D03*
Y103950D02*
D03*
X149450D02*
D03*
Y107050D02*
D03*
X152550Y103950D02*
D03*
Y107050D02*
D03*
X211950Y103950D02*
D03*
Y107050D02*
D03*
X215050Y103950D02*
D03*
Y107050D02*
D03*
X274450Y103950D02*
D03*
Y107050D02*
D03*
X277550Y103950D02*
D03*
Y107050D02*
D03*
X340050D02*
D03*
Y103950D02*
D03*
X336950Y107050D02*
D03*
Y103950D02*
D03*
X465050Y107050D02*
D03*
Y103950D02*
D03*
X461950Y107050D02*
D03*
Y103950D02*
D03*
D193*
X1164370Y690079D02*
D03*
D194*
X750189Y735236D02*
D03*
X499795D02*
D03*
D195*
X240000Y637307D02*
D03*
Y647307D02*
D03*
X180500Y637307D02*
D03*
Y647307D02*
D03*
D196*
X1194000Y275000D02*
D03*
Y291535D02*
D03*
Y308071D02*
D03*
Y324606D02*
D03*
X1172346D02*
D03*
Y308071D02*
D03*
Y291535D02*
D03*
Y275000D02*
D03*
D197*
X818386Y676693D02*
D03*
Y716063D02*
D03*
X1183800Y456200D02*
D03*
D198*
X1196000Y222500D02*
D03*
X1185000Y212500D02*
D03*
Y222500D02*
D03*
X1196000Y212500D02*
D03*
D199*
X453500Y624524D02*
D03*
X443500D02*
D03*
D200*
X433500D02*
D03*
D201*
X213000Y449000D02*
D03*
X1042000Y272500D02*
D03*
X182000Y223000D02*
D03*
X532000Y185000D02*
D03*
X337000Y367000D02*
D03*
X129500Y370000D02*
D03*
X478000Y427000D02*
D03*
X870000Y229500D02*
D03*
X428000Y298000D02*
D03*
X126000Y518000D02*
D03*
X212500Y533500D02*
D03*
X242500Y454000D02*
D03*
X175000Y486000D02*
D03*
D202*
X756496Y625000D02*
D03*
D203*
X493496D02*
D03*
D204*
X1148126Y560020D02*
D03*
Y591988D02*
D03*
Y568012D02*
D03*
Y576004D02*
D03*
Y583996D02*
D03*
X1138126Y556043D02*
D03*
Y603957D02*
D03*
Y564035D02*
D03*
Y595965D02*
D03*
Y572028D02*
D03*
Y587972D02*
D03*
D205*
X1148126Y599980D02*
D03*
D206*
X1128126Y556024D02*
D03*
Y603976D02*
D03*
Y566024D02*
D03*
Y593976D02*
D03*
D207*
X1220646Y548248D02*
D03*
Y611752D02*
D03*
D208*
X1208126Y605000D02*
D03*
Y555000D02*
D03*
D209*
X1233500Y84500D02*
D03*
Y115500D02*
D03*
Y149500D02*
D03*
Y180500D02*
D03*
D210*
X1199500Y90000D02*
D03*
Y100000D02*
D03*
Y110000D02*
D03*
Y155000D02*
D03*
Y165000D02*
D03*
Y175000D02*
D03*
D211*
X1217575Y458268D02*
D03*
Y441732D02*
D03*
D212*
X1216000Y467700D02*
D03*
Y432300D02*
D03*
X1233500Y429500D02*
D03*
Y470500D02*
D03*
D213*
X391653Y362165D02*
D03*
X410114Y340231D02*
D03*
X413189Y336575D02*
D03*
X407035Y343886D02*
D03*
X403961Y347542D02*
D03*
X400882Y351198D02*
D03*
X397807Y354854D02*
D03*
X394728Y358509D02*
D03*
X188110Y331726D02*
D03*
X184744Y327127D02*
D03*
X181378Y322528D02*
D03*
X178012Y317930D02*
D03*
X174646Y313331D02*
D03*
X171280Y308733D02*
D03*
X167913Y304134D02*
D03*
D214*
X210500Y639433D02*
D03*
Y643567D02*
D03*
X206957Y641500D02*
D03*
X214043D02*
D03*
X575032Y194032D02*
D03*
X578968D02*
D03*
X575032Y197968D02*
D03*
X578968D02*
D03*
X884335Y612165D02*
D03*
Y607835D02*
D03*
X888665Y612165D02*
D03*
Y607835D02*
D03*
X955016Y511261D02*
D03*
X959347D02*
D03*
X955016Y506930D02*
D03*
X959347D02*
D03*
X1037831Y653717D02*
D03*
Y658047D02*
D03*
Y662378D02*
D03*
X1033500Y653717D02*
D03*
Y658047D02*
D03*
Y662378D02*
D03*
X1029169Y653717D02*
D03*
Y658047D02*
D03*
Y662378D02*
D03*
X325161Y255661D02*
D03*
Y251331D02*
D03*
Y247000D02*
D03*
Y242669D02*
D03*
Y238339D02*
D03*
X320831Y255661D02*
D03*
Y251331D02*
D03*
Y247000D02*
D03*
Y242669D02*
D03*
Y238339D02*
D03*
X316500Y255661D02*
D03*
Y251331D02*
D03*
Y247000D02*
D03*
Y242669D02*
D03*
Y238339D02*
D03*
X312169Y255661D02*
D03*
Y251331D02*
D03*
Y247000D02*
D03*
Y242669D02*
D03*
Y238339D02*
D03*
X307839Y255661D02*
D03*
Y251331D02*
D03*
Y247000D02*
D03*
Y242669D02*
D03*
Y238339D02*
D03*
X151000Y639433D02*
D03*
Y643567D02*
D03*
X147457Y641500D02*
D03*
X154543D02*
D03*
X881516Y511261D02*
D03*
X885847D02*
D03*
X881516Y506930D02*
D03*
X885847D02*
D03*
D215*
X393937Y253504D02*
D03*
X402137D02*
D03*
X397837Y247604D02*
D03*
D216*
X1100417Y585336D02*
D03*
X1091544D02*
D03*
X1074053D02*
D03*
X1102779Y586969D02*
D03*
Y591279D02*
D03*
X1100417Y567897D02*
D03*
X1091544Y571163D02*
D03*
X1074053D02*
D03*
X1102779Y569530D02*
D03*
Y574030D02*
D03*
X1100417Y563886D02*
D03*
Y580886D02*
D03*
D217*
X797604Y675149D02*
D03*
M02*
