%TF.GenerationSoftware,Altium Limited,Altium Designer,22.6.1 (34)*%
G04 Layer_Color=32896*
%FSLAX26Y26*%
%MOIN*%
%TF.SameCoordinates,08F94D22-2ED8-4738-ABBF-34BB79D8E07D*%
%TF.FilePolarity,Positive*%
%TF.FileFunction,Other,Mechanical_12*%
%TF.Part,Single*%
G01*
G75*
%TA.AperFunction,NonConductor*%
%ADD252C,0.007874*%
%ADD253C,0.005906*%
D252*
X9674961Y3285551D02*
X9795039D01*
X9674961D02*
Y3354449D01*
X9795039D01*
Y3285551D02*
Y3354449D01*
X12236142Y6418583D02*
Y6741417D01*
X12503858D01*
Y6418583D02*
Y6741417D01*
X12236142Y6418583D02*
X12503858D01*
X12476299Y6400866D02*
Y6759134D01*
D253*
X9383307Y6159961D02*
X9446299D01*
X9383307D02*
Y6191457D01*
X9446299D01*
Y6159961D02*
Y6191457D01*
X8134252Y623976D02*
Y686969D01*
X8165748D01*
Y623976D02*
Y686969D01*
X8134252Y623976D02*
X8165748D01*
X8134252Y528976D02*
Y591969D01*
X8165748D01*
Y528976D02*
Y591969D01*
X8134252Y528976D02*
X8165748D01*
X8134252Y433976D02*
Y496969D01*
X8165748D01*
Y433976D02*
Y496969D01*
X8134252Y433976D02*
X8165748D01*
X6964252D02*
Y496969D01*
X6995748D01*
Y433976D02*
Y496969D01*
X6964252Y433976D02*
X6995748D01*
X6964252Y528976D02*
Y591969D01*
X6995748D01*
Y528976D02*
Y591969D01*
X6964252Y528976D02*
X6995748D01*
X7159252Y433976D02*
Y496969D01*
X7190748D01*
Y433976D02*
Y496969D01*
X7159252Y433976D02*
X7190748D01*
X7159252Y528976D02*
Y591969D01*
X7190748D01*
Y528976D02*
Y591969D01*
X7159252Y528976D02*
X7190748D01*
X7159252Y623976D02*
Y686969D01*
X7190748D01*
Y623976D02*
Y686969D01*
X7159252Y623976D02*
X7190748D01*
X6964252D02*
Y686969D01*
X6995748D01*
Y623976D02*
Y686969D01*
X6964252Y623976D02*
X6995748D01*
X7549252Y433976D02*
Y496969D01*
X7580748D01*
Y433976D02*
Y496969D01*
X7549252Y433976D02*
X7580748D01*
X7354252D02*
Y496969D01*
X7385748D01*
Y433976D02*
Y496969D01*
X7354252Y433976D02*
X7385748D01*
X7354252Y528976D02*
Y591969D01*
X7385748D01*
Y528976D02*
Y591969D01*
X7354252Y528976D02*
X7385748D01*
X7549252D02*
Y591969D01*
X7580748D01*
Y528976D02*
Y591969D01*
X7549252Y528976D02*
X7580748D01*
X7549252Y623976D02*
Y686969D01*
X7580748D01*
Y623976D02*
Y686969D01*
X7549252Y623976D02*
X7580748D01*
X7354252D02*
Y686969D01*
X7385748D01*
Y623976D02*
Y686969D01*
X7354252Y623976D02*
X7385748D01*
X6574252Y433976D02*
Y496969D01*
X6605748D01*
Y433976D02*
Y496969D01*
X6574252Y433976D02*
X6605748D01*
X6574252Y623976D02*
Y686969D01*
X6605748D01*
Y623976D02*
Y686969D01*
X6574252Y623976D02*
X6605748D01*
X6574252Y528976D02*
Y591969D01*
X6605748D01*
Y528976D02*
Y591969D01*
X6574252Y528976D02*
X6605748D01*
X6769252Y433976D02*
Y496969D01*
X6800748D01*
Y433976D02*
Y496969D01*
X6769252Y433976D02*
X6800748D01*
X6769252Y528976D02*
Y591969D01*
X6800748D01*
Y528976D02*
Y591969D01*
X6769252Y528976D02*
X6800748D01*
X6769252Y623976D02*
Y686969D01*
X6800748D01*
Y623976D02*
Y686969D01*
X6769252Y623976D02*
X6800748D01*
X7744252Y433976D02*
Y496969D01*
X7775748D01*
Y433976D02*
Y496969D01*
X7744252Y433976D02*
X7775748D01*
X7744252Y528976D02*
Y591969D01*
X7775748D01*
Y528976D02*
Y591969D01*
X7744252Y528976D02*
X7775748D01*
X7744252Y623976D02*
Y686969D01*
X7775748D01*
Y623976D02*
Y686969D01*
X7744252Y623976D02*
X7775748D01*
X7939252D02*
Y686969D01*
X7970748D01*
Y623976D02*
Y686969D01*
X7939252Y623976D02*
X7970748D01*
X7939252Y528976D02*
Y591969D01*
X7970748D01*
Y528976D02*
Y591969D01*
X7939252Y528976D02*
X7970748D01*
X7939252Y433976D02*
Y496969D01*
X7970748D01*
Y433976D02*
Y496969D01*
X7939252Y433976D02*
X7970748D01*
X10025079Y500669D02*
Y532165D01*
Y500669D02*
X10088071D01*
Y532165D01*
X10025079D02*
X10088071D01*
X6336496Y5436732D02*
Y5468228D01*
X6273504Y5436732D02*
X6336496D01*
X6273504D02*
Y5468228D01*
X6336496D01*
X4139252Y5118504D02*
X4170748D01*
X4139252D02*
Y5181496D01*
X4170748D01*
Y5118504D02*
Y5181496D01*
X1865236Y2532835D02*
X1928228D01*
Y2564331D01*
X1865236D02*
X1928228D01*
X1865236Y2532835D02*
Y2564331D01*
X10774252Y3251496D02*
X10805748D01*
Y3188504D02*
Y3251496D01*
X10774252Y3188504D02*
X10805748D01*
X10774252D02*
Y3251496D01*
Y1213504D02*
Y1276496D01*
Y1213504D02*
X10805748D01*
Y1276496D01*
X10774252D02*
X10805748D01*
X9813976Y3431024D02*
Y3558976D01*
X9686024Y3431024D02*
X9813976D01*
X9686024D02*
Y3558976D01*
X9813976D01*
X4537598Y163008D02*
X4912402D01*
Y-524000D02*
Y163008D01*
X4537598Y-524000D02*
X4912402D01*
X4537598D02*
Y163008D01*
X4522244Y-24000D02*
X4927756D01*
X5162598Y163008D02*
X5537402D01*
Y-524000D02*
Y163008D01*
X5162598Y-524000D02*
X5537402D01*
X5162598D02*
Y163008D01*
X5147244Y-24000D02*
X5552756D01*
X2724252Y4658504D02*
Y4721496D01*
Y4658504D02*
X2755748D01*
Y4721496D01*
X2724252D02*
X2755748D01*
X4454252Y4361496D02*
X4485748D01*
X4454252Y4298504D02*
Y4361496D01*
Y4298504D02*
X4485748D01*
Y4361496D01*
X5099252Y5553504D02*
Y5616496D01*
X5130748D01*
Y5553504D02*
Y5616496D01*
X5099252Y5553504D02*
X5130748D01*
X2239252Y6465197D02*
Y6528189D01*
X2270748D01*
Y6465197D02*
Y6528189D01*
X2239252Y6465197D02*
X2270748D01*
X1644252D02*
Y6528189D01*
X1675748D01*
Y6465197D02*
Y6528189D01*
X1644252Y6465197D02*
X1675748D01*
X5289252Y5138504D02*
Y5201496D01*
Y5138504D02*
X5320748D01*
Y5201496D01*
X5289252D02*
X5320748D01*
X5368504Y4794252D02*
X5431496D01*
Y4825748D01*
X5368504D02*
X5431496D01*
X5368504Y4794252D02*
Y4825748D01*
X4123504Y4445748D02*
X4186496D01*
X4123504Y4414252D02*
Y4445748D01*
Y4414252D02*
X4186496D01*
Y4445748D01*
X1063504Y3755748D02*
X1126496D01*
X1063504Y3724252D02*
Y3755748D01*
Y3724252D02*
X1126496D01*
Y3755748D01*
X3518504Y3700748D02*
X3581496D01*
X3518504Y3669252D02*
Y3700748D01*
Y3669252D02*
X3581496D01*
Y3700748D01*
X10712598Y163008D02*
X11087402D01*
Y-524000D02*
Y163008D01*
X10712598Y-524000D02*
X11087402D01*
X10712598D02*
Y163008D01*
X10697244Y-24000D02*
X11102756D01*
X4485748Y4108504D02*
Y4171496D01*
X4454252Y4108504D02*
X4485748D01*
X4454252D02*
Y4171496D01*
X4485748D01*
Y4203504D02*
Y4266496D01*
X4454252Y4203504D02*
X4485748D01*
X4454252D02*
Y4266496D01*
X4485748D01*
X3897244Y-24000D02*
X4302756D01*
X3912598Y-524000D02*
Y163008D01*
Y-524000D02*
X4287402D01*
Y163008D01*
X3912598D02*
X4287402D01*
X3272244Y-24000D02*
X3677756D01*
X3287598Y-524000D02*
Y163008D01*
Y-524000D02*
X3662402D01*
Y163008D01*
X3287598D02*
X3662402D01*
X2647244Y-24000D02*
X3052756D01*
X2662598Y-524000D02*
Y163008D01*
Y-524000D02*
X3037402D01*
Y163008D01*
X2662598D02*
X3037402D01*
X2022244Y-24000D02*
X2427756D01*
X2037598Y-524000D02*
Y163008D01*
Y-524000D02*
X2412402D01*
Y163008D01*
X2037598D02*
X2412402D01*
X1397244Y-24000D02*
X1802756D01*
X1412598Y-524000D02*
Y163008D01*
Y-524000D02*
X1787402D01*
Y163008D01*
X1412598D02*
X1787402D01*
X772244Y-24000D02*
X1177756D01*
X787598Y-524000D02*
Y163008D01*
Y-524000D02*
X1162402D01*
Y163008D01*
X787598D02*
X1162402D01*
X8632283Y7185433D02*
X9167717D01*
Y6614567D02*
Y7185433D01*
X8632283Y6614567D02*
X9167717D01*
X8632283D02*
Y7185433D01*
X9205315Y6516811D02*
X9244685D01*
X9205315Y6493189D02*
Y6516811D01*
Y6493189D02*
X9244685D01*
Y6516811D01*
X9309252Y6728504D02*
X9340748D01*
Y6791496D01*
X9309252D02*
X9340748D01*
X9309252Y6728504D02*
Y6791496D01*
X5028504Y5319252D02*
Y5350748D01*
Y5319252D02*
X5091496D01*
Y5350748D01*
X5028504D02*
X5091496D01*
X4973504Y5575748D02*
X5036496D01*
Y5544252D02*
Y5575748D01*
X4973504Y5544252D02*
X5036496D01*
X4973504D02*
Y5575748D01*
X4879252Y5553504D02*
X4910748D01*
Y5616496D01*
X4879252D02*
X4910748D01*
X4879252Y5553504D02*
Y5616496D01*
%TF.MD5,1d044094be6af1c8fa6f19540bc2c60b*%
M02*
