G04*
G04 #@! TF.GenerationSoftware,Altium Limited,Altium Designer,22.6.1 (34)*
G04*
G04 Layer_Color=128*
%FSLAX23Y23*%
%MOIN*%
G70*
G04*
G04 #@! TF.SameCoordinates,48DA0B1C-91FB-4976-8A67-4949CEA53551*
G04*
G04*
G04 #@! TF.FilePolarity,Positive*
G04*
G01*
G75*
%ADD391C,0.002*%
D391*
X11581Y6901D02*
X11707D01*
X11644Y6838D02*
Y6964D01*
X11827Y2125D02*
X11873D01*
X11850Y2102D02*
Y2148D01*
X11827Y2225D02*
X11873D01*
X11850Y2202D02*
Y2248D01*
X11937Y2125D02*
X11983D01*
X11960Y2102D02*
Y2148D01*
X11937Y2225D02*
X11983D01*
X11960Y2202D02*
Y2248D01*
X4615Y1039D02*
X4624D01*
X4620Y1035D02*
Y1044D01*
X4615Y1071D02*
X4624D01*
X4620Y1066D02*
Y1076D01*
X4646Y1039D02*
X4655D01*
X4650Y1035D02*
Y1044D01*
X4646Y1071D02*
X4655D01*
X4650Y1066D02*
Y1076D01*
X5240Y1039D02*
X5249D01*
X5245Y1035D02*
Y1044D01*
X5240Y1071D02*
X5249D01*
X5245Y1066D02*
Y1076D01*
X5271Y1039D02*
X5280D01*
X5275Y1035D02*
Y1044D01*
X5271Y1071D02*
X5280D01*
X5275Y1066D02*
Y1076D01*
X1264Y3700D02*
X1326D01*
X1295Y3669D02*
Y3731D01*
X1719Y4860D02*
X1781D01*
X1750Y4829D02*
Y4891D01*
X1229Y5180D02*
X1291D01*
X1260Y5149D02*
Y5211D01*
X2099Y4490D02*
X2161D01*
X2130Y4459D02*
Y4521D01*
X2394Y4540D02*
X2456D01*
X2425Y4509D02*
Y4571D01*
X2094Y5335D02*
X2156D01*
X2125Y5304D02*
Y5366D01*
X3365Y1039D02*
X3375D01*
X3369Y1035D02*
Y1044D01*
X3365Y1071D02*
X3375D01*
X3369Y1066D02*
Y1076D01*
X3395Y1039D02*
X3405D01*
X3401Y1035D02*
Y1044D01*
X3395Y1071D02*
X3405D01*
X3401Y1066D02*
Y1076D01*
X864Y1039D02*
X874D01*
X869Y1035D02*
Y1044D01*
X864Y1071D02*
X874D01*
X869Y1066D02*
Y1076D01*
X896Y1039D02*
X905D01*
X900Y1035D02*
Y1044D01*
X896Y1071D02*
X905D01*
X900Y1066D02*
Y1076D01*
X1785Y6473D02*
X1825D01*
X1805Y6453D02*
Y6493D01*
X1785Y6373D02*
X1825D01*
X1805Y6353D02*
Y6393D01*
X8669Y2295D02*
X8731D01*
X8700Y2264D02*
Y2326D01*
X2380Y6473D02*
X2420D01*
X2400Y6453D02*
Y6493D01*
X2380Y6373D02*
X2420D01*
X2400Y6353D02*
Y6393D01*
X4318Y6245D02*
X4352D01*
X4335Y6228D02*
Y6263D01*
X4418Y6245D02*
X4452D01*
X4435Y6228D02*
Y6263D01*
X4517Y6245D02*
X4552D01*
X4535Y6228D02*
Y6263D01*
X10389Y2725D02*
X10451D01*
X10420Y2694D02*
Y2756D01*
X12281Y6678D02*
X12313D01*
X12297Y6663D02*
Y6694D01*
X12281Y6482D02*
X12313D01*
X12297Y6466D02*
Y6497D01*
X12228Y6433D02*
X12283D01*
X12256Y6406D02*
Y6461D01*
X12228Y6727D02*
X12283D01*
X12256Y6699D02*
Y6754D01*
X12382Y6427D02*
X12429D01*
X12405Y6404D02*
Y6451D01*
X12382Y6733D02*
X12429D01*
X12405Y6709D02*
Y6756D01*
X11977Y1750D02*
X12012D01*
X11995Y1732D02*
Y1768D01*
X11977Y1650D02*
X12012D01*
X11995Y1633D02*
Y1668D01*
X11977Y1550D02*
X12012D01*
X11995Y1533D02*
Y1567D01*
X12268Y1805D02*
X12402D01*
X12335Y1738D02*
Y1872D01*
X12268Y1495D02*
X12402D01*
X12335Y1428D02*
Y1562D01*
X3028Y7200D02*
X3072D01*
X3050Y7178D02*
Y7222D01*
X3028Y7100D02*
X3072D01*
X3050Y7078D02*
Y7122D01*
X2928Y7200D02*
X2972D01*
X2950Y7178D02*
Y7222D01*
X2928Y7100D02*
X2972D01*
X2950Y7078D02*
Y7122D01*
X2828Y7200D02*
X2872D01*
X2850Y7178D02*
Y7222D01*
X2828Y7100D02*
X2872D01*
X2850Y7078D02*
Y7122D01*
X2728Y7200D02*
X2772D01*
X2750Y7178D02*
Y7222D01*
X2728Y7100D02*
X2772D01*
X2750Y7078D02*
Y7122D01*
X2628Y7200D02*
X2672D01*
X2650Y7178D02*
Y7222D01*
X2628Y7100D02*
X2672D01*
X2650Y7078D02*
Y7122D01*
X2528Y7200D02*
X2572D01*
X2550Y7178D02*
Y7222D01*
X2528Y7100D02*
X2572D01*
X2550Y7078D02*
Y7122D01*
X2428Y7200D02*
X2472D01*
X2450Y7178D02*
Y7222D01*
X2428Y7100D02*
X2472D01*
X2450Y7078D02*
Y7122D01*
X2328Y7200D02*
X2372D01*
X2350Y7178D02*
Y7222D01*
X2328Y7100D02*
X2372D01*
X2350Y7078D02*
Y7122D01*
X2228Y7200D02*
X2272D01*
X2250Y7178D02*
Y7222D01*
X2228Y7100D02*
X2272D01*
X2250Y7078D02*
Y7122D01*
X2128Y7200D02*
X2172D01*
X2150Y7178D02*
Y7222D01*
X2128Y7100D02*
X2172D01*
X2150Y7078D02*
Y7122D01*
X2028Y7200D02*
X2072D01*
X2050Y7178D02*
Y7222D01*
X2028Y7100D02*
X2072D01*
X2050Y7078D02*
Y7122D01*
X1928Y7200D02*
X1972D01*
X1950Y7178D02*
Y7222D01*
X1928Y7100D02*
X1972D01*
X1950Y7078D02*
Y7122D01*
X1828Y7200D02*
X1872D01*
X1850Y7178D02*
Y7222D01*
X1828Y7100D02*
X1872D01*
X1850Y7078D02*
Y7122D01*
X1728Y7200D02*
X1772D01*
X1750Y7178D02*
Y7222D01*
X1728Y7100D02*
X1772D01*
X1750Y7078D02*
Y7122D01*
X1628Y7200D02*
X1672D01*
X1650Y7178D02*
Y7222D01*
X1628Y7100D02*
X1672D01*
X1650Y7078D02*
Y7122D01*
X1528Y7200D02*
X1572D01*
X1550Y7178D02*
Y7222D01*
X1528Y7100D02*
X1572D01*
X1550Y7078D02*
Y7122D01*
X1428Y7200D02*
X1472D01*
X1450Y7178D02*
Y7222D01*
X1428Y7100D02*
X1472D01*
X1450Y7078D02*
Y7122D01*
X1328Y7200D02*
X1372D01*
X1350Y7178D02*
Y7222D01*
X1328Y7100D02*
X1372D01*
X1350Y7078D02*
Y7122D01*
X1228Y7200D02*
X1272D01*
X1250Y7178D02*
Y7222D01*
X1228Y7100D02*
X1272D01*
X1250Y7078D02*
Y7122D01*
X1128Y7200D02*
X1172D01*
X1150Y7178D02*
Y7222D01*
X1128Y7100D02*
X1172D01*
X1150Y7078D02*
Y7122D01*
X1028Y7200D02*
X1072D01*
X1050Y7178D02*
Y7222D01*
X1028Y7100D02*
X1072D01*
X1050Y7078D02*
Y7122D01*
X928Y7200D02*
X972D01*
X950Y7178D02*
Y7222D01*
X928Y7100D02*
X972D01*
X950Y7078D02*
Y7122D01*
X7457Y7352D02*
X7547D01*
X7502Y7307D02*
Y7397D01*
X4953Y7352D02*
X5043D01*
X4998Y7307D02*
Y7397D01*
X12287Y4705D02*
X12383D01*
X12335Y4657D02*
Y4753D01*
X12287Y4295D02*
X12383D01*
X12335Y4247D02*
Y4343D01*
X12112Y4323D02*
X12208D01*
X12160Y4275D02*
Y4371D01*
X12112Y4677D02*
X12208D01*
X12160Y4629D02*
Y4725D01*
X12147Y4417D02*
X12204D01*
X12176Y4389D02*
Y4446D01*
X12147Y4583D02*
X12204D01*
X12176Y4554D02*
Y4611D01*
X5289Y1850D02*
X5351D01*
X5320Y1819D02*
Y1881D01*
X1789Y2230D02*
X1851D01*
X1820Y2199D02*
Y2261D01*
X4175Y1990D02*
X4186D01*
X4181Y1985D02*
Y1995D01*
X4144Y1990D02*
X4155D01*
X4149Y1985D02*
Y1995D01*
X4175Y2020D02*
X4186D01*
X4181Y2016D02*
Y2026D01*
X4144Y2020D02*
X4155D01*
X4149Y2016D02*
Y2026D01*
X4903Y6250D02*
X4966D01*
X4935Y6219D02*
Y6281D01*
X7543Y6250D02*
X7586D01*
X7565Y6228D02*
Y6272D01*
X281Y7058D02*
X407D01*
X344Y6995D02*
Y7121D01*
X281Y444D02*
X407D01*
X344Y381D02*
Y507D01*
X4021Y1071D02*
X4030D01*
X4025Y1066D02*
Y1076D01*
X4021Y1039D02*
X4030D01*
X4025Y1035D02*
Y1044D01*
X3990Y1071D02*
X4000D01*
X3994Y1066D02*
Y1076D01*
X3990Y1039D02*
X4000D01*
X3994Y1035D02*
Y1044D01*
X2770Y1071D02*
X2780D01*
X2776Y1066D02*
Y1076D01*
X2770Y1039D02*
X2780D01*
X2776Y1035D02*
Y1044D01*
X2740Y1071D02*
X2750D01*
X2744Y1066D02*
Y1076D01*
X2740Y1039D02*
X2750D01*
X2744Y1035D02*
Y1044D01*
X2145Y1071D02*
X2155D01*
X2151Y1066D02*
Y1076D01*
X2145Y1039D02*
X2155D01*
X2151Y1035D02*
Y1044D01*
X2115Y1071D02*
X2125D01*
X2119Y1066D02*
Y1076D01*
X2115Y1039D02*
X2125D01*
X2119Y1035D02*
Y1044D01*
X1520Y1071D02*
X1531D01*
X1526Y1066D02*
Y1076D01*
X1520Y1039D02*
X1531D01*
X1526Y1035D02*
Y1044D01*
X1490Y1071D02*
X1500D01*
X1495Y1066D02*
Y1076D01*
X1490Y1039D02*
X1500D01*
X1495Y1035D02*
Y1044D01*
X9455Y5483D02*
X9581D01*
X9518Y5420D02*
Y5546D01*
X3667Y5365D02*
X3793D01*
X3730Y5302D02*
Y5428D01*
X11226Y3633D02*
X11352D01*
X11289Y3570D02*
Y3696D01*
X5636Y2885D02*
X5762D01*
X5699Y2822D02*
Y2948D01*
X1463Y3515D02*
X1589D01*
X1526Y3452D02*
Y3578D01*
X10006Y2176D02*
X10132D01*
X10069Y2113D02*
Y2239D01*
X6187Y1428D02*
X6313D01*
X6250Y1365D02*
Y1491D01*
X1699Y1783D02*
X1825D01*
X1762Y1720D02*
Y1846D01*
X12093Y444D02*
X12219D01*
X12156Y381D02*
Y507D01*
X11688Y2750D02*
X11759D01*
X11723Y2715D02*
Y2785D01*
X11688Y2915D02*
X11759D01*
X11723Y2880D02*
Y2951D01*
X11688Y3081D02*
X11759D01*
X11723Y3045D02*
Y3116D01*
X11688Y3246D02*
X11759D01*
X11723Y3211D02*
Y3281D01*
X11905Y3246D02*
X11975D01*
X11940Y3211D02*
Y3281D01*
X11905Y3081D02*
X11975D01*
X11940Y3045D02*
Y3116D01*
X11905Y2915D02*
X11975D01*
X11940Y2880D02*
Y2951D01*
X11905Y2750D02*
X11975D01*
X11940Y2715D02*
Y2785D01*
X8163Y7161D02*
X8205D01*
X8184Y7139D02*
Y7182D01*
X8163Y6767D02*
X8205D01*
X8184Y6746D02*
Y6788D01*
X12019Y5550D02*
X12143D01*
X12081Y5488D02*
Y5612D01*
X12019Y6050D02*
X12143D01*
X12081Y5988D02*
Y6112D01*
X12175Y6118D02*
X12238D01*
X12206Y6086D02*
Y6149D01*
X12175Y5482D02*
X12238D01*
X12206Y5451D02*
Y5514D01*
X11261Y5940D02*
X11301D01*
X11281Y5920D02*
Y5960D01*
X11261Y5660D02*
X11301D01*
X11281Y5640D02*
Y5680D01*
X11261Y6040D02*
X11301D01*
X11281Y6020D02*
Y6060D01*
X11261Y5560D02*
X11301D01*
X11281Y5540D02*
Y5580D01*
X11364Y5880D02*
X11399D01*
X11381Y5862D02*
Y5897D01*
X11364Y5720D02*
X11399D01*
X11381Y5703D02*
Y5738D01*
X11364Y5960D02*
X11399D01*
X11381Y5942D02*
Y5977D01*
X11364Y5640D02*
X11399D01*
X11381Y5623D02*
Y5658D01*
X11364Y6040D02*
X11399D01*
X11381Y6022D02*
Y6057D01*
X11364Y5560D02*
X11399D01*
X11381Y5543D02*
Y5578D01*
X11464Y5840D02*
X11499D01*
X11481Y5822D02*
Y5858D01*
X11464Y5760D02*
X11499D01*
X11481Y5742D02*
Y5778D01*
X11464Y5680D02*
X11499D01*
X11481Y5662D02*
Y5698D01*
X11464Y5920D02*
X11499D01*
X11481Y5902D02*
Y5938D01*
X11464Y6000D02*
X11499D01*
X11481Y5982D02*
Y6018D01*
X11464Y5600D02*
X11499D01*
X11481Y5582D02*
Y5618D01*
X11977Y1100D02*
X12012D01*
X11995Y1082D02*
Y1117D01*
X11977Y1000D02*
X12012D01*
X11995Y983D02*
Y1018D01*
X11977Y900D02*
X12012D01*
X11995Y882D02*
Y918D01*
X12268Y1155D02*
X12402D01*
X12335Y1088D02*
Y1222D01*
X12268Y845D02*
X12402D01*
X12335Y778D02*
Y912D01*
X4249Y2980D02*
X4311D01*
X4280Y2949D02*
Y3011D01*
X4749Y4270D02*
X4811D01*
X4780Y4239D02*
Y4301D01*
X3339Y3670D02*
X3401D01*
X3370Y3639D02*
Y3701D01*
X4794Y2788D02*
X4804D01*
X4799Y2783D02*
Y2793D01*
X2999Y3913D02*
X3009D01*
X3004Y3908D02*
Y3918D01*
X3063Y3159D02*
X3073D01*
X3068Y3154D02*
Y3164D01*
X3063Y3128D02*
X3073D01*
X3068Y3123D02*
Y3133D01*
X3560Y4919D02*
X3570D01*
X3565Y4914D02*
Y4924D01*
X3560Y4950D02*
X3570D01*
X3565Y4945D02*
Y4955D01*
X4124Y3366D02*
X4139D01*
X4132Y3358D02*
Y3373D01*
X4094Y3402D02*
X4109D01*
X4101Y3395D02*
Y3410D01*
X4063Y3439D02*
X4078D01*
X4070Y3431D02*
Y3446D01*
X4032Y3475D02*
X4047D01*
X4040Y3468D02*
Y3483D01*
X4001Y3512D02*
X4016D01*
X4009Y3504D02*
Y3519D01*
X3971Y3549D02*
X3986D01*
X3978Y3541D02*
Y3556D01*
X3940Y3585D02*
X3955D01*
X3947Y3578D02*
Y3593D01*
X3909Y3622D02*
X3924D01*
X3917Y3614D02*
Y3629D01*
X1874Y3317D02*
X1889D01*
X1881Y3310D02*
Y3325D01*
X1840Y3271D02*
X1855D01*
X1847Y3264D02*
Y3279D01*
X1806Y3225D02*
X1821D01*
X1814Y3218D02*
Y3233D01*
X1773Y3179D02*
X1788D01*
X1780Y3172D02*
Y3187D01*
X1739Y3133D02*
X1754D01*
X1746Y3126D02*
Y3141D01*
X1705Y3087D02*
X1720D01*
X1713Y3080D02*
Y3095D01*
X1672Y3041D02*
X1687D01*
X1679Y3034D02*
Y3049D01*
X11368Y2592D02*
X11378D01*
X11373Y2587D02*
Y2597D01*
X11368Y2768D02*
X11378D01*
X11373Y2763D02*
Y2773D01*
X11368Y3083D02*
X11378D01*
X11373Y3078D02*
Y3088D01*
X11368Y3246D02*
X11378D01*
X11373Y3241D02*
Y3251D01*
X11368Y2891D02*
X11378D01*
X11373Y2886D02*
Y2896D01*
X10993Y3176D02*
X11003D01*
X10998Y3171D02*
Y3181D01*
X10993Y2967D02*
X11003D01*
X10998Y2962D02*
Y2972D01*
X11050Y1650D02*
X11060D01*
X11055Y1645D02*
Y1655D01*
X11090Y1606D02*
X11100D01*
X11095Y1601D02*
Y1611D01*
X11182Y1606D02*
X11192D01*
X11187Y1601D02*
Y1611D01*
X11273Y1606D02*
X11283D01*
X11278Y1601D02*
Y1611D01*
X11052Y2400D02*
X11062D01*
X11057Y2395D02*
Y2405D01*
X11054Y3630D02*
X11064D01*
X11059Y3625D02*
Y3635D01*
X1217Y2954D02*
X1227D01*
X1222Y2949D02*
Y2959D01*
X4890Y5639D02*
X4900D01*
X4895Y5634D02*
Y5644D01*
X4854Y5609D02*
X4864D01*
X4859Y5604D02*
Y5614D01*
X3372Y2028D02*
X3382D01*
X3377Y2023D02*
Y2033D01*
X3338Y2028D02*
X3348D01*
X3343Y2023D02*
Y2033D01*
X3297Y2028D02*
X3307D01*
X3302Y2023D02*
Y2033D01*
X3263Y2028D02*
X3273D01*
X3268Y2023D02*
Y2033D01*
X3222Y2028D02*
X3232D01*
X3227Y2023D02*
Y2033D01*
X3188Y2028D02*
X3198D01*
X3193Y2023D02*
Y2033D01*
X3113Y2028D02*
X3123D01*
X3118Y2023D02*
Y2033D01*
X3147Y2028D02*
X3157D01*
X3152Y2023D02*
Y2033D01*
X3038Y2028D02*
X3048D01*
X3043Y2023D02*
Y2033D01*
X3072Y2028D02*
X3082D01*
X3077Y2023D02*
Y2033D01*
X2888Y2028D02*
X2898D01*
X2893Y2023D02*
Y2033D01*
X2922Y2028D02*
X2932D01*
X2927Y2023D02*
Y2033D01*
X2943Y2108D02*
X2953D01*
X2947Y2103D02*
Y2113D01*
X3074Y2383D02*
X3082D01*
X3078Y2379D02*
Y2387D01*
X3074Y2427D02*
X3082D01*
X3078Y2423D02*
Y2431D01*
X3074Y2470D02*
X3082D01*
X3078Y2466D02*
Y2474D01*
X3074Y2513D02*
X3082D01*
X3078Y2509D02*
Y2517D01*
X3074Y2557D02*
X3082D01*
X3078Y2553D02*
Y2561D01*
X3118Y2383D02*
X3126D01*
X3122Y2379D02*
Y2387D01*
X3118Y2427D02*
X3126D01*
X3122Y2423D02*
Y2431D01*
X3118Y2470D02*
X3126D01*
X3122Y2466D02*
Y2474D01*
X3118Y2513D02*
X3126D01*
X3122Y2509D02*
Y2517D01*
X3118Y2557D02*
X3126D01*
X3122Y2553D02*
Y2561D01*
X3161Y2383D02*
X3169D01*
X3165Y2379D02*
Y2387D01*
X3161Y2427D02*
X3169D01*
X3165Y2423D02*
Y2431D01*
X3161Y2470D02*
X3169D01*
X3165Y2466D02*
Y2474D01*
X3161Y2513D02*
X3169D01*
X3165Y2509D02*
Y2517D01*
X3161Y2557D02*
X3169D01*
X3165Y2553D02*
Y2561D01*
X3204Y2383D02*
X3212D01*
X3208Y2379D02*
Y2387D01*
X3204Y2427D02*
X3212D01*
X3208Y2423D02*
Y2431D01*
X3204Y2470D02*
X3212D01*
X3208Y2466D02*
Y2474D01*
X3204Y2513D02*
X3212D01*
X3208Y2509D02*
Y2517D01*
X3204Y2557D02*
X3212D01*
X3208Y2553D02*
Y2561D01*
X3248Y2383D02*
X3256D01*
X3252Y2379D02*
Y2387D01*
X3248Y2427D02*
X3256D01*
X3252Y2423D02*
Y2431D01*
X3248Y2470D02*
X3256D01*
X3252Y2466D02*
Y2474D01*
X3248Y2513D02*
X3256D01*
X3252Y2509D02*
Y2517D01*
X3248Y2557D02*
X3256D01*
X3252Y2553D02*
Y2561D01*
X3028Y2332D02*
X3038D01*
X3033Y2327D02*
Y2337D01*
X3223Y2609D02*
X3233D01*
X3228Y2604D02*
Y2614D01*
X3081Y2609D02*
X3091D01*
X3086Y2604D02*
Y2614D01*
X3026Y2387D02*
X3036D01*
X3031Y2382D02*
Y2392D01*
X3026Y2572D02*
X3036D01*
X3031Y2567D02*
Y2577D01*
X3026Y2423D02*
X3036D01*
X3031Y2418D02*
Y2428D01*
X3296Y2610D02*
X3306D01*
X3301Y2605D02*
Y2615D01*
X3377Y2383D02*
X3387D01*
X3382Y2378D02*
Y2388D01*
X3327Y2298D02*
X3337D01*
X3332Y2293D02*
Y2303D01*
X3372Y2541D02*
X3382D01*
X3377Y2536D02*
Y2546D01*
X3026Y2517D02*
X3036D01*
X3031Y2512D02*
Y2522D01*
X2963Y2028D02*
X2973D01*
X2968Y2023D02*
Y2033D01*
X2997Y2028D02*
X3007D01*
X3002Y2023D02*
Y2033D01*
X3017Y2108D02*
X3027D01*
X3023Y2103D02*
Y2113D01*
X3413Y2028D02*
X3423D01*
X3418Y2023D02*
Y2033D01*
X3447Y2028D02*
X3457D01*
X3452Y2023D02*
Y2033D01*
X3251Y1750D02*
X3261D01*
X3256Y1745D02*
Y1755D01*
X3251Y1708D02*
X3261D01*
X3256Y1703D02*
Y1713D01*
X2928Y1749D02*
X2938D01*
X2933Y1744D02*
Y1754D01*
X2853Y1746D02*
X2863D01*
X2858Y1741D02*
Y1751D01*
X2891Y1715D02*
X2901D01*
X2896Y1710D02*
Y1720D01*
X2391Y2017D02*
X2401D01*
X2396Y2012D02*
Y2022D01*
X2551Y2017D02*
X2561D01*
X2556Y2012D02*
Y2022D01*
X2245Y2017D02*
X2255D01*
X2250Y2012D02*
Y2022D01*
X830Y1320D02*
X840D01*
X835Y1315D02*
Y1325D01*
X3385Y2226D02*
X3395D01*
X3390Y2221D02*
Y2231D01*
X3392Y2108D02*
X3402D01*
X3398Y2103D02*
Y2113D01*
X3967Y6867D02*
X3977D01*
X3972Y6862D02*
Y6872D01*
X4963Y4202D02*
X4973D01*
X4968Y4197D02*
Y4207D01*
X3709Y6867D02*
X3719D01*
X3714Y6862D02*
Y6872D01*
X3440Y2226D02*
X3450D01*
X3445Y2221D02*
Y2231D01*
X4397Y2182D02*
X4407D01*
X4402Y2177D02*
Y2187D01*
X4381Y2251D02*
X4391D01*
X4386Y2246D02*
Y2256D01*
X3645Y2251D02*
X3655D01*
X3650Y2246D02*
Y2256D01*
X3575Y2203D02*
X3585D01*
X3580Y2198D02*
Y2208D01*
X2868Y2108D02*
X2878D01*
X2872Y2103D02*
Y2113D01*
X3467Y2108D02*
X3477D01*
X3473Y2103D02*
Y2113D01*
X3318Y2108D02*
X3328D01*
X3322Y2103D02*
Y2113D01*
X3243Y2108D02*
X3253D01*
X3247Y2103D02*
Y2113D01*
X3168Y2108D02*
X3178D01*
X3172Y2103D02*
Y2113D01*
X3092Y2108D02*
X3102D01*
X3098Y2103D02*
Y2113D01*
X9630Y6011D02*
X9640D01*
X9635Y6006D02*
Y6016D01*
X10488Y6512D02*
X10498D01*
X10493Y6507D02*
Y6517D01*
X10458Y6523D02*
X10468D01*
X10463Y6518D02*
Y6528D01*
X10458Y6559D02*
X10468D01*
X10463Y6554D02*
Y6564D01*
X10488Y6573D02*
X10498D01*
X10493Y6568D02*
Y6578D01*
X10828Y6571D02*
X10838D01*
X10833Y6566D02*
Y6576D01*
X10726Y6571D02*
X10736D01*
X10731Y6566D02*
Y6576D01*
X10663Y6571D02*
X10673D01*
X10668Y6566D02*
Y6576D01*
X6887Y2082D02*
X6897D01*
X6892Y2077D02*
Y2087D01*
X6769Y2220D02*
X6779D01*
X6774Y2215D02*
Y2225D01*
X7014Y1941D02*
X7024D01*
X7019Y1936D02*
Y1946D01*
X6639Y2074D02*
X6649D01*
X6644Y2069D02*
Y2079D01*
X6723Y2009D02*
X6733D01*
X6728Y2004D02*
Y2014D01*
X6641Y2006D02*
X6651D01*
X6646Y2001D02*
Y2011D01*
X6778Y1933D02*
X6788D01*
X6783Y1928D02*
Y1938D01*
X6725Y1934D02*
X6735D01*
X6730Y1929D02*
Y1939D01*
X5100Y6012D02*
X5110D01*
X5105Y6007D02*
Y6017D01*
X4327Y4813D02*
X4337D01*
X4332Y4808D02*
Y4818D01*
X4825Y4782D02*
X4835D01*
X4830Y4777D02*
Y4787D01*
X4687Y4782D02*
X4697D01*
X4692Y4777D02*
Y4787D01*
X6439Y3602D02*
X6449D01*
X6444Y3597D02*
Y3607D01*
X9510Y6924D02*
X9520D01*
X9515Y6919D02*
Y6929D01*
X9510Y6875D02*
X9520D01*
X9515Y6870D02*
Y6880D01*
X10921Y6444D02*
X10931D01*
X10926Y6439D02*
Y6449D01*
X11902Y6620D02*
X11912D01*
X11907Y6615D02*
Y6625D01*
X11355Y6619D02*
X11365D01*
X11360Y6614D02*
Y6624D01*
X11086Y6614D02*
X11096D01*
X11091Y6609D02*
Y6619D01*
X10697Y6444D02*
X10707D01*
X10702Y6439D02*
Y6449D01*
X8999Y6405D02*
X9009D01*
X9004Y6400D02*
Y6410D01*
X8939Y6404D02*
X8949D01*
X8944Y6399D02*
Y6409D01*
X8888Y6403D02*
X8898D01*
X8893Y6398D02*
Y6408D01*
X8849Y6403D02*
X8859D01*
X8854Y6398D02*
Y6408D01*
X8799Y6402D02*
X8809D01*
X8804Y6397D02*
Y6407D01*
X8797Y6273D02*
X8807D01*
X8802Y6268D02*
Y6278D01*
X8751Y6234D02*
X8761D01*
X8756Y6229D02*
Y6239D01*
X7005Y5628D02*
X7015D01*
X7010Y5623D02*
Y5633D01*
X8140Y5918D02*
X8150D01*
X8145Y5913D02*
Y5923D01*
X8338Y5827D02*
X8348D01*
X8343Y5822D02*
Y5832D01*
X8336Y5731D02*
X8346D01*
X8341Y5726D02*
Y5736D01*
X8357Y5958D02*
X8367D01*
X8362Y5953D02*
Y5963D01*
X8057Y5867D02*
X8067D01*
X8062Y5862D02*
Y5872D01*
X7946Y5866D02*
X7956D01*
X7951Y5861D02*
Y5871D01*
X7693Y5868D02*
X7703D01*
X7698Y5863D02*
Y5873D01*
X7512Y5899D02*
X7522D01*
X7517Y5894D02*
Y5904D01*
X7512Y5637D02*
X7522D01*
X7517Y5632D02*
Y5642D01*
X7349Y5902D02*
X7359D01*
X7354Y5897D02*
Y5907D01*
X7349Y5823D02*
X7359D01*
X7354Y5818D02*
Y5828D01*
X7341Y5670D02*
X7351D01*
X7346Y5665D02*
Y5675D01*
X7006Y5899D02*
X7016D01*
X7011Y5894D02*
Y5904D01*
X6926Y5823D02*
X6936D01*
X6931Y5818D02*
Y5828D01*
X7081Y5821D02*
X7091D01*
X7086Y5816D02*
Y5826D01*
X7083Y5672D02*
X7093D01*
X7088Y5667D02*
Y5677D01*
X6924Y5671D02*
X6934D01*
X6929Y5666D02*
Y5676D01*
X5585Y4358D02*
X5595D01*
X5590Y4353D02*
Y4363D01*
X6380Y4071D02*
X6390D01*
X6385Y4066D02*
Y4076D01*
X6626Y4442D02*
X6636D01*
X6631Y4437D02*
Y4447D01*
X3855Y3258D02*
X3865D01*
X3860Y3253D02*
Y3263D01*
X940Y2454D02*
X950D01*
X945Y2449D02*
Y2459D01*
X934Y2704D02*
X944D01*
X939Y2699D02*
Y2709D01*
X935Y2954D02*
X945D01*
X940Y2949D02*
Y2959D01*
X934Y3205D02*
X944D01*
X939Y3200D02*
Y3210D01*
X1216Y3205D02*
X1226D01*
X1221Y3200D02*
Y3210D01*
X1216Y2704D02*
X1226D01*
X1221Y2699D02*
Y2709D01*
X1223Y2454D02*
X1233D01*
X1228Y2449D02*
Y2459D01*
X2391Y2109D02*
X2401D01*
X2396Y2104D02*
Y2114D01*
X2245Y2109D02*
X2255D01*
X2250Y2104D02*
Y2114D01*
X2551Y2109D02*
X2561D01*
X2556Y2104D02*
Y2114D01*
X11544Y2646D02*
X11554D01*
X11549Y2641D02*
Y2651D01*
X11636Y2645D02*
X11646D01*
X11641Y2640D02*
Y2650D01*
X11090Y1698D02*
X11100D01*
X11095Y1693D02*
Y1703D01*
X11182Y1698D02*
X11192D01*
X11187Y1693D02*
Y1703D01*
X11273Y1698D02*
X11283D01*
X11278Y1693D02*
Y1703D01*
X11453Y2334D02*
X11463D01*
X11458Y2329D02*
Y2339D01*
X11368Y1771D02*
X11378D01*
X11373Y1766D02*
Y1776D01*
X11453Y1859D02*
X11463D01*
X11458Y1854D02*
Y1864D01*
X11368Y1935D02*
X11378D01*
X11373Y1930D02*
Y1940D01*
X11453Y2018D02*
X11463D01*
X11458Y2013D02*
Y2023D01*
X11368Y2099D02*
X11378D01*
X11373Y2094D02*
Y2104D01*
X11453Y2176D02*
X11463D01*
X11458Y2171D02*
Y2181D01*
X11368Y2264D02*
X11378D01*
X11373Y2259D02*
Y2269D01*
X11368Y2428D02*
X11378D01*
X11373Y2423D02*
Y2433D01*
X11453Y1701D02*
X11463D01*
X11458Y1696D02*
Y1706D01*
X11134Y2302D02*
X11144D01*
X11139Y2297D02*
Y2307D01*
X10992Y2302D02*
X11002D01*
X10997Y2297D02*
Y2307D01*
X11133Y2418D02*
X11143D01*
X11138Y2413D02*
Y2423D01*
X11132Y2767D02*
X11142D01*
X11137Y2762D02*
Y2772D01*
X11276Y2768D02*
X11286D01*
X11281Y2763D02*
Y2773D01*
X11276Y2891D02*
X11286D01*
X11281Y2886D02*
Y2896D01*
X11129Y2534D02*
X11139D01*
X11134Y2529D02*
Y2539D01*
X11129Y2651D02*
X11139D01*
X11134Y2646D02*
Y2656D01*
X10993Y2534D02*
X11003D01*
X10998Y2529D02*
Y2539D01*
X10993Y2651D02*
X11003D01*
X10998Y2646D02*
Y2656D01*
X11276Y3083D02*
X11286D01*
X11281Y3078D02*
Y3088D01*
X11065Y3081D02*
X11075D01*
X11070Y3076D02*
Y3086D01*
X11114Y3127D02*
X11124D01*
X11119Y3122D02*
Y3132D01*
X11065Y3033D02*
X11075D01*
X11070Y3028D02*
Y3038D01*
X11065Y3127D02*
X11075D01*
X11070Y3122D02*
Y3132D01*
X11114Y3033D02*
X11124D01*
X11119Y3028D02*
Y3038D01*
X11276Y3246D02*
X11286D01*
X11281Y3241D02*
Y3251D01*
X11276Y3403D02*
X11286D01*
X11281Y3398D02*
Y3408D01*
X11175Y3530D02*
X11185D01*
X11180Y3525D02*
Y3535D01*
X10952Y3535D02*
X10962D01*
X10957Y3530D02*
Y3540D01*
X11170Y3799D02*
X11180D01*
X11175Y3794D02*
Y3804D01*
X10957Y3799D02*
X10967D01*
X10962Y3794D02*
Y3804D01*
X10948Y3957D02*
X10958D01*
X10953Y3952D02*
Y3962D01*
X11170Y3956D02*
X11180D01*
X11175Y3951D02*
Y3961D01*
X11660Y3841D02*
X11670D01*
X11665Y3836D02*
Y3846D01*
X11546Y3967D02*
X11556D01*
X11551Y3962D02*
Y3972D01*
X11586Y3402D02*
X11596D01*
X11591Y3397D02*
Y3407D01*
X11586Y3554D02*
X11596D01*
X11591Y3549D02*
Y3559D01*
X11586Y3705D02*
X11596D01*
X11591Y3700D02*
Y3710D01*
X11689Y3705D02*
X11699D01*
X11694Y3700D02*
Y3710D01*
X11689Y3554D02*
X11699D01*
X11694Y3549D02*
Y3559D01*
X11689Y3402D02*
X11699D01*
X11694Y3397D02*
Y3407D01*
X11793Y3402D02*
X11803D01*
X11798Y3397D02*
Y3407D01*
X11793Y3554D02*
X11803D01*
X11798Y3549D02*
Y3559D01*
X11793Y3705D02*
X11803D01*
X11798Y3700D02*
Y3710D01*
X4327Y4859D02*
X4337D01*
X4332Y4854D02*
Y4864D01*
X498Y4567D02*
X508D01*
X503Y4562D02*
Y4572D01*
X498Y4817D02*
X508D01*
X503Y4812D02*
Y4822D01*
X741Y4567D02*
X751D01*
X746Y4562D02*
Y4572D01*
X741Y4817D02*
X751D01*
X746Y4812D02*
Y4822D01*
X354Y3956D02*
X364D01*
X359Y3951D02*
Y3961D01*
X354Y4206D02*
X364D01*
X359Y4201D02*
Y4211D01*
X354Y3706D02*
X364D01*
X359Y3701D02*
Y3711D01*
X354Y3455D02*
X364D01*
X359Y3450D02*
Y3460D01*
X354Y3205D02*
X364D01*
X359Y3200D02*
Y3210D01*
X354Y2954D02*
X364D01*
X359Y2949D02*
Y2959D01*
X354Y2704D02*
X364D01*
X359Y2699D02*
Y2709D01*
X676Y2704D02*
X686D01*
X681Y2699D02*
Y2709D01*
X676Y2954D02*
X686D01*
X681Y2949D02*
Y2959D01*
X676Y3205D02*
X686D01*
X681Y3200D02*
Y3210D01*
X676Y3455D02*
X686D01*
X681Y3450D02*
Y3460D01*
X676Y3706D02*
X686D01*
X681Y3701D02*
Y3711D01*
X676Y4206D02*
X686D01*
X681Y4201D02*
Y4211D01*
X676Y3956D02*
X686D01*
X681Y3951D02*
Y3961D01*
X3454Y4620D02*
X3464D01*
X3459Y4615D02*
Y4625D01*
X3573Y4620D02*
X3583D01*
X3578Y4615D02*
Y4625D01*
X3516Y4531D02*
X3526D01*
X3521Y4526D02*
Y4536D01*
X6276Y2454D02*
X6286D01*
X6281Y2449D02*
Y2459D01*
X6009Y1388D02*
X6019D01*
X6014Y1383D02*
Y1393D01*
X6049Y1081D02*
X6059D01*
X6054Y1076D02*
Y1086D01*
X6947Y2228D02*
X6957D01*
X6952Y2223D02*
Y2233D01*
X6356Y1733D02*
X6366D01*
X6361Y1728D02*
Y1738D01*
X5526Y2717D02*
X5536D01*
X5531Y2712D02*
Y2722D01*
X5898Y3252D02*
X5908D01*
X5903Y3247D02*
Y3257D01*
X5606Y3644D02*
X5616D01*
X5611Y3639D02*
Y3649D01*
X7158Y4591D02*
X7168D01*
X7163Y4586D02*
Y4596D01*
X6209Y4660D02*
X6219D01*
X6214Y4655D02*
Y4665D01*
X2531Y3585D02*
X2541D01*
X2536Y3580D02*
Y3590D01*
X2598Y3705D02*
X2608D01*
X2603Y3700D02*
Y3710D01*
X2465Y3586D02*
X2475D01*
X2470Y3581D02*
Y3591D01*
X2437Y3576D02*
X2447D01*
X2442Y3571D02*
Y3581D01*
X9903Y464D02*
X9913D01*
X9908Y459D02*
Y469D01*
X9339Y676D02*
X9349D01*
X9344Y671D02*
Y681D01*
X9379Y672D02*
X9389D01*
X9384Y667D02*
Y677D01*
X9516Y767D02*
X9526D01*
X9521Y762D02*
Y772D01*
X9596Y732D02*
X9606D01*
X9601Y727D02*
Y737D01*
X9288Y336D02*
X9298D01*
X9293Y331D02*
Y341D01*
X9335Y305D02*
X9345D01*
X9340Y300D02*
Y310D01*
X9699Y357D02*
X9709D01*
X9704Y352D02*
Y362D01*
X9773Y417D02*
X9783D01*
X9778Y412D02*
Y422D01*
X9634Y461D02*
X9644D01*
X9639Y456D02*
Y466D01*
X9634Y582D02*
X9644D01*
X9639Y577D02*
Y587D01*
X9562Y654D02*
X9572D01*
X9567Y649D02*
Y659D01*
X9471Y654D02*
X9481D01*
X9476Y649D02*
Y659D01*
X9471Y399D02*
X9481D01*
X9476Y394D02*
Y404D01*
X9562Y399D02*
X9572D01*
X9567Y394D02*
Y404D01*
X9379Y471D02*
X9389D01*
X9384Y466D02*
Y476D01*
X9379Y562D02*
X9389D01*
X9384Y557D02*
Y567D01*
X9672Y575D02*
X9682D01*
X9677Y570D02*
Y580D01*
X9556Y477D02*
X9566D01*
X9561Y472D02*
Y482D01*
X9457Y477D02*
X9467D01*
X9462Y472D02*
Y482D01*
X9556Y576D02*
X9566D01*
X9561Y571D02*
Y581D01*
X9457Y576D02*
X9467D01*
X9462Y571D02*
Y581D01*
X9457Y526D02*
X9467D01*
X9462Y521D02*
Y531D01*
X9556Y526D02*
X9566D01*
X9561Y521D02*
Y531D01*
X9507Y526D02*
X9517D01*
X9512Y521D02*
Y531D01*
X9507Y576D02*
X9517D01*
X9512Y571D02*
Y581D01*
X9507Y477D02*
X9517D01*
X9512Y472D02*
Y482D01*
X8385Y2460D02*
X8395D01*
X8390Y2455D02*
Y2465D01*
X8505Y2432D02*
X8515D01*
X8510Y2427D02*
Y2437D01*
X8655Y2432D02*
X8665D01*
X8660Y2427D02*
Y2437D01*
X6635Y6030D02*
X6645D01*
X6640Y6025D02*
Y6035D01*
X2936Y2506D02*
X2946D01*
X2941Y2501D02*
Y2511D01*
X9759Y6266D02*
X9769D01*
X9764Y6261D02*
Y6271D01*
X9705Y6315D02*
X9715D01*
X9710Y6310D02*
Y6320D01*
X3925Y2535D02*
X3953D01*
X3939Y2521D02*
Y2549D01*
X4007Y2535D02*
X4035D01*
X4021Y2521D02*
Y2549D01*
X3964Y2476D02*
X3992D01*
X3978Y2462D02*
Y2490D01*
X10409Y6457D02*
X10419D01*
X10414Y6452D02*
Y6462D01*
X11694Y4444D02*
X11704D01*
X11699Y4439D02*
Y4449D01*
X11694Y4412D02*
X11704D01*
X11699Y4407D02*
Y4417D01*
X3562Y2056D02*
X3572D01*
X3567Y2051D02*
Y2061D01*
X3527Y2056D02*
X3537D01*
X3532Y2051D02*
Y2061D01*
X5619Y2043D02*
X5629D01*
X5624Y2038D02*
Y2048D01*
X7052Y1577D02*
X7062D01*
X7057Y1572D02*
Y1582D01*
X5605Y1844D02*
X5615D01*
X5610Y1839D02*
Y1849D01*
X5460Y1947D02*
X5470D01*
X5465Y1942D02*
Y1952D01*
X2695Y2779D02*
X2705D01*
X2700Y2774D02*
Y2784D01*
X2770Y2755D02*
X2780D01*
X2775Y2750D02*
Y2760D01*
X2830Y2751D02*
X2840D01*
X2835Y2746D02*
Y2756D01*
X2885Y2751D02*
X2895D01*
X2890Y2746D02*
Y2756D01*
X2940Y2751D02*
X2950D01*
X2945Y2746D02*
Y2756D01*
X1049Y3925D02*
X1059D01*
X1054Y3920D02*
Y3930D01*
X3230Y3646D02*
X3240D01*
X3235Y3641D02*
Y3651D01*
X3230Y3703D02*
X3240D01*
X3235Y3698D02*
Y3708D01*
X3179Y3703D02*
X3189D01*
X3184Y3698D02*
Y3708D01*
X3179Y3646D02*
X3189D01*
X3184Y3641D02*
Y3651D01*
X3128Y3703D02*
X3138D01*
X3133Y3698D02*
Y3708D01*
X3128Y3646D02*
X3138D01*
X3133Y3641D02*
Y3651D01*
X1799Y3979D02*
X1809D01*
X1804Y3974D02*
Y3984D01*
X2207Y4002D02*
X2217D01*
X2213Y3997D02*
Y4007D01*
X2243Y4002D02*
X2253D01*
X2247Y3997D02*
Y4007D01*
X2277Y4002D02*
X2287D01*
X2283Y3997D02*
Y4007D01*
X2312Y4002D02*
X2322D01*
X2318Y3997D02*
Y4007D01*
X6761Y6269D02*
X6771D01*
X6766Y6264D02*
Y6274D01*
X6761Y6310D02*
X6771D01*
X6766Y6305D02*
Y6315D01*
X6886Y6310D02*
X6896D01*
X6891Y6305D02*
Y6315D01*
X6886Y6269D02*
X6896D01*
X6891Y6264D02*
Y6274D01*
X10054Y6530D02*
X10064D01*
X10059Y6525D02*
Y6535D01*
X10122Y6610D02*
X10132D01*
X10127Y6605D02*
Y6615D01*
X10085Y6685D02*
X10095D01*
X10090Y6680D02*
Y6690D01*
X7869Y5794D02*
X7879D01*
X7874Y5789D02*
Y5799D01*
X8731Y5825D02*
X8741D01*
X8736Y5820D02*
Y5830D01*
X8684Y5825D02*
X8694D01*
X8689Y5820D02*
Y5830D01*
X7692Y5921D02*
X7702D01*
X7697Y5916D02*
Y5926D01*
X8452Y5925D02*
X8462D01*
X8457Y5920D02*
Y5930D01*
X8375Y6025D02*
X8385D01*
X8380Y6020D02*
Y6030D01*
X8337Y6058D02*
X8347D01*
X8342Y6053D02*
Y6063D01*
X7766Y6955D02*
X7776D01*
X7771Y6950D02*
Y6960D01*
X7766Y7015D02*
X7776D01*
X7771Y7010D02*
Y7020D01*
X8018Y6806D02*
X8028D01*
X8023Y6801D02*
Y6811D01*
X9041Y6733D02*
X9051D01*
X9046Y6728D02*
Y6738D01*
X9041Y6658D02*
X9051D01*
X9046Y6653D02*
Y6663D01*
X8998Y6658D02*
X9008D01*
X9003Y6653D02*
Y6663D01*
X8954Y6733D02*
X8964D01*
X8959Y6728D02*
Y6738D01*
X8890Y6665D02*
X8900D01*
X8895Y6660D02*
Y6670D01*
X8897Y5949D02*
X8907D01*
X8902Y5944D02*
Y5954D01*
X8935Y6025D02*
X8945D01*
X8940Y6020D02*
Y6030D01*
X8995Y6056D02*
X9005D01*
X9000Y6051D02*
Y6061D01*
X9021Y6084D02*
X9031D01*
X9026Y6079D02*
Y6089D01*
X9022Y6139D02*
X9032D01*
X9027Y6134D02*
Y6144D01*
X8994Y6160D02*
X9004D01*
X8999Y6155D02*
Y6165D01*
X8925Y6210D02*
X8935D01*
X8930Y6205D02*
Y6215D01*
X8870Y6212D02*
X8880D01*
X8875Y6207D02*
Y6217D01*
X8713Y6090D02*
X8723D01*
X8718Y6085D02*
Y6095D01*
X8741Y6130D02*
X8751D01*
X8746Y6125D02*
Y6135D01*
X6906Y6510D02*
X6916D01*
X6911Y6505D02*
Y6515D01*
X1598Y4883D02*
X1608D01*
X1603Y4878D02*
Y4888D01*
X4337Y4122D02*
X4347D01*
X4342Y4117D02*
Y4127D01*
X4340Y4282D02*
X4350D01*
X4345Y4277D02*
Y4287D01*
X4340Y4187D02*
X4350D01*
X4345Y4182D02*
Y4192D01*
X4392Y4075D02*
X4402D01*
X4397Y4070D02*
Y4080D01*
X4392Y3955D02*
X4402D01*
X4397Y3950D02*
Y3960D01*
X1990Y2941D02*
X2000D01*
X1995Y2936D02*
Y2946D01*
X3512Y1746D02*
X3522D01*
X3517Y1741D02*
Y1751D01*
X3430Y1749D02*
X3440D01*
X3435Y1744D02*
Y1754D01*
X2577Y4049D02*
X2587D01*
X2582Y4044D02*
Y4054D01*
X5110Y5641D02*
X5120D01*
X5115Y5636D02*
Y5646D01*
X2398Y4049D02*
X2408D01*
X2402Y4044D02*
Y4054D01*
X2074Y3787D02*
X2084D01*
X2079Y3783D02*
Y3793D01*
X5784Y5963D02*
X5794D01*
X5789Y5958D02*
Y5968D01*
X2074Y3743D02*
X2084D01*
X2079Y3737D02*
Y3747D01*
X2748Y3830D02*
X2758D01*
X2753Y3825D02*
Y3835D01*
X2776Y3763D02*
X2786D01*
X2781Y3757D02*
Y3767D01*
X2748Y3785D02*
X2758D01*
X2753Y3780D02*
Y3790D01*
X2776Y3717D02*
X2786D01*
X2781Y3713D02*
Y3723D01*
X3350Y3427D02*
X3360D01*
X3355Y3422D02*
Y3432D01*
X6000Y5503D02*
X6010D01*
X6005Y5498D02*
Y5508D01*
X6000Y5452D02*
X6010D01*
X6005Y5447D02*
Y5457D01*
X6087Y5390D02*
X6097D01*
X6092Y5385D02*
Y5395D01*
X6000Y5390D02*
X6010D01*
X6005Y5385D02*
Y5395D01*
X7201Y5946D02*
X7211D01*
X7206Y5941D02*
Y5951D01*
X8895Y5622D02*
X8905D01*
X8900Y5617D02*
Y5627D01*
X8837Y5613D02*
X8847D01*
X8842Y5608D02*
Y5618D01*
X8770Y5613D02*
X8780D01*
X8775Y5608D02*
Y5618D01*
X1007Y6704D02*
X1017D01*
X1012Y6699D02*
Y6709D01*
X955Y6807D02*
X965D01*
X960Y6802D02*
Y6812D01*
X6579Y6179D02*
X6589D01*
X6584Y6174D02*
Y6184D01*
X6619Y6179D02*
X6629D01*
X6624Y6174D02*
Y6184D01*
X5088Y6473D02*
X5098D01*
X5093Y6468D02*
Y6478D01*
X5017Y6473D02*
X5027D01*
X5022Y6468D02*
Y6478D01*
X5159Y6473D02*
X5169D01*
X5164Y6468D02*
Y6478D01*
X1159Y6733D02*
X1169D01*
X1164Y6728D02*
Y6738D01*
X1113Y6835D02*
X1123D01*
X1118Y6830D02*
Y6840D01*
X6649Y6154D02*
X6659D01*
X6654Y6149D02*
Y6159D01*
X6689Y6154D02*
X6699D01*
X6694Y6149D02*
Y6159D01*
X4568Y6415D02*
X4578D01*
X4573Y6410D02*
Y6420D01*
X1592Y6042D02*
X1602D01*
X1597Y6037D02*
Y6047D01*
X1275Y6807D02*
X1285D01*
X1280Y6802D02*
Y6812D01*
X1327Y6704D02*
X1337D01*
X1332Y6699D02*
Y6709D01*
X6697Y6197D02*
X6707D01*
X6702Y6192D02*
Y6202D01*
X6737Y6197D02*
X6747D01*
X6742Y6192D02*
Y6202D01*
X6560Y6310D02*
X6570D01*
X6565Y6305D02*
Y6315D01*
X6520Y6310D02*
X6530D01*
X6525Y6305D02*
Y6315D01*
X4822Y6415D02*
X4832D01*
X4827Y6410D02*
Y6420D01*
X5465Y6351D02*
X5475D01*
X5470Y6346D02*
Y6356D01*
X1479Y6733D02*
X1489D01*
X1484Y6728D02*
Y6738D01*
X6331Y6346D02*
X6341D01*
X6336Y6341D02*
Y6351D01*
X1433Y6835D02*
X1443D01*
X1438Y6830D02*
Y6840D01*
X6387Y6468D02*
X6397D01*
X6392Y6463D02*
Y6473D01*
X6316Y6473D02*
X6326D01*
X6321Y6468D02*
Y6478D01*
X6332Y6575D02*
X6342D01*
X6337Y6570D02*
Y6580D01*
X1647Y6704D02*
X1657D01*
X1652Y6699D02*
Y6709D01*
X1595Y6807D02*
X1605D01*
X1600Y6802D02*
Y6812D01*
X6449Y6346D02*
X6459D01*
X6454Y6341D02*
Y6351D01*
X6387Y6621D02*
X6397D01*
X6392Y6616D02*
Y6626D01*
X6490Y6346D02*
X6500D01*
X6495Y6341D02*
Y6351D01*
X6442Y6310D02*
X6452D01*
X6447Y6305D02*
Y6315D01*
X6402Y6310D02*
X6412D01*
X6407Y6305D02*
Y6315D01*
X2283Y6137D02*
X2293D01*
X2288Y6132D02*
Y6142D01*
X1907Y6080D02*
X1917D01*
X1912Y6075D02*
Y6085D01*
X1975Y6085D02*
X1985D01*
X1980Y6080D02*
Y6090D01*
X1799Y6733D02*
X1809D01*
X1804Y6728D02*
Y6738D01*
X1753Y6835D02*
X1763D01*
X1758Y6830D02*
Y6840D01*
X6507Y6473D02*
X6517D01*
X6512Y6468D02*
Y6478D01*
X1967Y6704D02*
X1977D01*
X1972Y6699D02*
Y6709D01*
X1915Y6807D02*
X1925D01*
X1920Y6802D02*
Y6812D01*
X6567Y6346D02*
X6577D01*
X6572Y6341D02*
Y6351D01*
X2119Y6733D02*
X2129D01*
X2124Y6728D02*
Y6738D01*
X6608Y6346D02*
X6618D01*
X6613Y6341D02*
Y6351D01*
X2073Y6835D02*
X2083D01*
X2078Y6830D02*
Y6840D01*
X6623Y6468D02*
X6633D01*
X6628Y6463D02*
Y6473D01*
X6623Y6606D02*
X6633D01*
X6628Y6601D02*
Y6611D01*
X6725Y6502D02*
X6735D01*
X6730Y6497D02*
Y6507D01*
X2287Y6704D02*
X2297D01*
X2292Y6699D02*
Y6709D01*
X6686Y6502D02*
X6696D01*
X6691Y6497D02*
Y6507D01*
X2235Y6807D02*
X2245D01*
X2240Y6802D02*
Y6812D01*
X6660Y6562D02*
X6670D01*
X6665Y6557D02*
Y6567D01*
X6756Y6520D02*
X6766D01*
X6761Y6515D02*
Y6525D01*
X6796Y6520D02*
X6806D01*
X6801Y6515D02*
Y6525D01*
X2250Y6561D02*
X2260D01*
X2255Y6556D02*
Y6566D01*
X2353Y6770D02*
X2363D01*
X2358Y6765D02*
Y6775D01*
X2439Y6733D02*
X2449D01*
X2444Y6728D02*
Y6738D01*
X2393Y6835D02*
X2403D01*
X2398Y6830D02*
Y6840D01*
X5802Y6150D02*
X5812D01*
X5807Y6145D02*
Y6155D01*
X5755Y6150D02*
X5765D01*
X5760Y6145D02*
Y6155D01*
X5690Y6150D02*
X5700D01*
X5695Y6145D02*
Y6155D01*
X5808Y5994D02*
X5818D01*
X5813Y5989D02*
Y5999D01*
X5831Y5963D02*
X5841D01*
X5836Y5958D02*
Y5968D01*
X5855Y5994D02*
X5865D01*
X5860Y5989D02*
Y5999D01*
X5879Y6146D02*
X5889D01*
X5884Y6141D02*
Y6151D01*
X5902Y5962D02*
X5912D01*
X5907Y5957D02*
Y5967D01*
X5926Y5994D02*
X5936D01*
X5931Y5989D02*
Y5999D01*
X5950Y5965D02*
X5960D01*
X5955Y5960D02*
Y5970D01*
X5973Y5994D02*
X5983D01*
X5978Y5989D02*
Y5999D01*
X6021Y5962D02*
X6031D01*
X6026Y5957D02*
Y5967D01*
X6044Y5994D02*
X6054D01*
X6049Y5989D02*
Y5999D01*
X6068Y5962D02*
X6078D01*
X6073Y5957D02*
Y5967D01*
X6091Y5994D02*
X6101D01*
X6096Y5989D02*
Y5999D01*
X6115Y6147D02*
X6125D01*
X6120Y6142D02*
Y6152D01*
X6750Y5912D02*
X6760D01*
X6755Y5907D02*
Y5917D01*
X6824Y6025D02*
X6834D01*
X6829Y6020D02*
Y6030D01*
X6800Y5995D02*
X6810D01*
X6805Y5990D02*
Y6000D01*
X6847Y5994D02*
X6857D01*
X6852Y5989D02*
Y5999D01*
X6871Y6144D02*
X6881D01*
X6876Y6139D02*
Y6149D01*
X6895Y6025D02*
X6905D01*
X6900Y6020D02*
Y6030D01*
X6918Y5994D02*
X6928D01*
X6923Y5989D02*
Y5999D01*
X6942Y6025D02*
X6952D01*
X6947Y6020D02*
Y6030D01*
X6965Y5995D02*
X6975D01*
X6970Y5990D02*
Y6000D01*
X6989Y6025D02*
X6999D01*
X6994Y6020D02*
Y6030D01*
X7107Y6148D02*
X7117D01*
X7112Y6143D02*
Y6153D01*
X6372Y6346D02*
X6382D01*
X6377Y6341D02*
Y6351D01*
X4460Y5997D02*
X4470D01*
X4465Y5992D02*
Y6002D01*
X3999Y6068D02*
X4009D01*
X4004Y6063D02*
Y6073D01*
X3794Y6040D02*
X3804D01*
X3799Y6035D02*
Y6045D01*
X3832Y5973D02*
X3842D01*
X3838Y5968D02*
Y5978D01*
X4460Y5932D02*
X4470D01*
X4465Y5927D02*
Y5937D01*
X4380Y5933D02*
X4390D01*
X4385Y5928D02*
Y5938D01*
X4420Y6108D02*
X4430D01*
X4425Y6103D02*
Y6113D01*
X4513Y5865D02*
X4523D01*
X4518Y5860D02*
Y5870D01*
X4513Y6065D02*
X4523D01*
X4518Y6060D02*
Y6070D01*
X8339Y7200D02*
X8349D01*
X8344Y7195D02*
Y7205D01*
X2470Y6055D02*
X2480D01*
X2475Y6050D02*
Y6060D01*
X6753Y6145D02*
X6763D01*
X6758Y6140D02*
Y6150D01*
X6245Y6606D02*
X6255D01*
X6250Y6601D02*
Y6611D01*
X6282Y6562D02*
X6292D01*
X6287Y6557D02*
Y6567D01*
X6245Y6468D02*
X6255D01*
X6250Y6463D02*
Y6473D01*
X6103Y6606D02*
X6113D01*
X6108Y6601D02*
Y6611D01*
X6103Y6468D02*
X6113D01*
X6108Y6463D02*
Y6473D01*
X6141Y6562D02*
X6151D01*
X6146Y6557D02*
Y6567D01*
X4330Y6415D02*
X4340D01*
X4335Y6410D02*
Y6420D01*
X5300Y6473D02*
X5310D01*
X5305Y6468D02*
Y6478D01*
X5324Y6500D02*
X5334D01*
X5329Y6495D02*
Y6505D01*
X6977Y6473D02*
X6987D01*
X6982Y6468D02*
Y6478D01*
X6741Y6473D02*
X6751D01*
X6746Y6468D02*
Y6478D01*
X6174Y6473D02*
X6184D01*
X6179Y6468D02*
Y6478D01*
X5985Y6473D02*
X5995D01*
X5990Y6468D02*
Y6478D01*
X5749Y6473D02*
X5759D01*
X5754Y6468D02*
Y6478D01*
X2204Y6733D02*
X2214D01*
X2209Y6728D02*
Y6738D01*
X2204Y6767D02*
X2214D01*
X2209Y6762D02*
Y6772D01*
X1884Y6733D02*
X1894D01*
X1889Y6728D02*
Y6738D01*
X1884Y6767D02*
X1894D01*
X1889Y6762D02*
Y6772D01*
X2033Y6770D02*
X2043D01*
X2038Y6765D02*
Y6775D01*
X1564Y6733D02*
X1574D01*
X1569Y6728D02*
Y6738D01*
X1564Y6767D02*
X1574D01*
X1569Y6762D02*
Y6772D01*
X1713Y6770D02*
X1723D01*
X1718Y6765D02*
Y6775D01*
X1244Y6733D02*
X1254D01*
X1249Y6728D02*
Y6738D01*
X1244Y6767D02*
X1254D01*
X1249Y6762D02*
Y6772D01*
X1393Y6770D02*
X1403D01*
X1398Y6765D02*
Y6775D01*
X1073Y6770D02*
X1083D01*
X1078Y6765D02*
Y6775D01*
X924Y6767D02*
X934D01*
X929Y6762D02*
Y6772D01*
X924Y6733D02*
X934D01*
X929Y6728D02*
Y6738D01*
X11581Y3246D02*
X11591D01*
X11586Y3241D02*
Y3251D01*
X11581Y3081D02*
X11591D01*
X11586Y3076D02*
Y3086D01*
X11581Y2915D02*
X11591D01*
X11586Y2910D02*
Y2920D01*
X11581Y2750D02*
X11591D01*
X11586Y2745D02*
Y2755D01*
X4129Y4610D02*
X4139D01*
X4134Y4605D02*
Y4615D01*
X8638Y5051D02*
X8648D01*
X8643Y5046D02*
Y5056D01*
X2583Y3611D02*
X2593D01*
X2588Y3606D02*
Y3616D01*
X2828Y3482D02*
X2838D01*
X2833Y3477D02*
Y3487D01*
X2237Y3618D02*
X2247D01*
X2242Y3613D02*
Y3623D01*
X2344Y3619D02*
X2354D01*
X2349Y3614D02*
Y3624D01*
X2224Y3585D02*
X2234D01*
X2229Y3580D02*
Y3590D01*
X2255Y3557D02*
X2265D01*
X2260Y3552D02*
Y3562D01*
X2290Y3557D02*
X2300D01*
X2295Y3552D02*
Y3562D01*
X2333Y3694D02*
X2343D01*
X2338Y3689D02*
Y3699D01*
X2290Y3658D02*
X2300D01*
X2295Y3653D02*
Y3663D01*
X6780Y3743D02*
X6790D01*
X6785Y3738D02*
Y3748D01*
X9503Y5226D02*
X9513D01*
X9508Y5221D02*
Y5231D01*
X9403Y5110D02*
X9413D01*
X9408Y5105D02*
Y5115D01*
X9715Y5953D02*
X9725D01*
X9720Y5948D02*
Y5958D01*
X9675Y5953D02*
X9685D01*
X9680Y5948D02*
Y5958D01*
X9385Y5943D02*
X9395D01*
X9390Y5938D02*
Y5948D01*
X9434Y5943D02*
X9444D01*
X9439Y5938D02*
Y5948D01*
X9359Y5151D02*
X9369D01*
X9364Y5146D02*
Y5156D01*
X9399Y5187D02*
X9409D01*
X9404Y5182D02*
Y5192D01*
X10895Y520D02*
X10905D01*
X10900Y515D02*
Y525D01*
X6840Y6351D02*
X6850D01*
X6845Y6346D02*
Y6356D01*
X6807Y6351D02*
X6817D01*
X6812Y6346D02*
Y6356D01*
X9744Y6021D02*
X9754D01*
X9749Y6016D02*
Y6026D01*
X9819Y6060D02*
X9829D01*
X9824Y6055D02*
Y6065D01*
X9769Y6101D02*
X9779D01*
X9774Y6096D02*
Y6106D01*
X9473Y5958D02*
X9483D01*
X9478Y5953D02*
Y5963D01*
X9448Y6047D02*
X9458D01*
X9453Y6042D02*
Y6052D01*
X9386Y6212D02*
X9396D01*
X9391Y6207D02*
Y6217D01*
X9354Y6176D02*
X9364D01*
X9359Y6171D02*
Y6181D01*
X9563Y6176D02*
X9573D01*
X9568Y6171D02*
Y6181D01*
X11833Y4307D02*
X11843D01*
X11838Y4302D02*
Y4312D01*
X11833Y4339D02*
X11843D01*
X11838Y4334D02*
Y4344D01*
X11422Y4323D02*
X11432D01*
X11427Y4318D02*
Y4328D01*
X5153Y5127D02*
X5163D01*
X5158Y5122D02*
Y5132D01*
X3510Y2792D02*
X3520D01*
X3515Y2787D02*
Y2797D01*
X7127Y1648D02*
X7137D01*
X7132Y1643D02*
Y1653D01*
X11027Y1281D02*
X11037D01*
X11032Y1276D02*
Y1286D01*
X10795Y1917D02*
X10805D01*
X10800Y1912D02*
Y1922D01*
X9713Y2315D02*
X9723D01*
X9718Y2310D02*
Y2320D01*
X9713Y2354D02*
X9723D01*
X9718Y2349D02*
Y2359D01*
X9890Y1967D02*
X9900D01*
X9895Y1962D02*
Y1972D01*
X9740Y1967D02*
X9750D01*
X9745Y1962D02*
Y1972D01*
X9662Y1914D02*
X9672D01*
X9667Y1909D02*
Y1919D01*
X9835Y1712D02*
X9845D01*
X9840Y1707D02*
Y1717D01*
X9936Y5014D02*
X9946D01*
X9941Y5009D02*
Y5019D01*
X9511Y3474D02*
X9521D01*
X9516Y3469D02*
Y3479D01*
X11080Y6337D02*
X11090D01*
X11085Y6332D02*
Y6342D01*
X7384Y6018D02*
X7394D01*
X7389Y6013D02*
Y6023D01*
X7420Y6018D02*
X7430D01*
X7425Y6013D02*
Y6023D01*
X11000Y5853D02*
X11008D01*
X11004Y5849D02*
Y5857D01*
X10911Y5853D02*
X10919D01*
X10915Y5849D02*
Y5857D01*
X10737Y5853D02*
X10745D01*
X10741Y5849D02*
Y5857D01*
X11024Y5870D02*
X11032D01*
X11028Y5866D02*
Y5874D01*
X11024Y5913D02*
X11032D01*
X11028Y5909D02*
Y5917D01*
X7290Y5970D02*
X7300D01*
X7295Y5965D02*
Y5975D01*
X7326Y5970D02*
X7336D01*
X7331Y5965D02*
Y5975D01*
X9013Y5800D02*
X9023D01*
X9018Y5795D02*
Y5805D01*
X7219Y5990D02*
X7229D01*
X7224Y5985D02*
Y5995D01*
X7255Y5990D02*
X7265D01*
X7260Y5985D02*
Y5995D01*
X11000Y5679D02*
X11008D01*
X11004Y5675D02*
Y5683D01*
X10911Y5712D02*
X10919D01*
X10915Y5708D02*
Y5716D01*
X10737Y5712D02*
X10745D01*
X10741Y5708D02*
Y5716D01*
X11024Y5695D02*
X11032D01*
X11028Y5691D02*
Y5699D01*
X11024Y5740D02*
X11032D01*
X11028Y5736D02*
Y5744D01*
X7178Y5970D02*
X7188D01*
X7183Y5965D02*
Y5975D01*
X7124Y6018D02*
X7134D01*
X7129Y6013D02*
Y6023D01*
X7161Y6018D02*
X7171D01*
X7166Y6013D02*
Y6023D01*
X7272Y6028D02*
X7282D01*
X7277Y6023D02*
Y6033D01*
X7450Y5993D02*
X7460D01*
X7455Y5988D02*
Y5998D01*
X11000Y5639D02*
X11008D01*
X11004Y5635D02*
Y5643D01*
X4974Y4739D02*
X4984D01*
X4979Y4734D02*
Y4744D01*
X4584Y4583D02*
X4594D01*
X4589Y4578D02*
Y4588D01*
X4337Y4347D02*
X4347D01*
X4342Y4342D02*
Y4352D01*
X4478Y4653D02*
X4488D01*
X4483Y4648D02*
Y4658D01*
X4978Y4314D02*
X4988D01*
X4983Y4309D02*
Y4319D01*
X9713Y464D02*
X9723D01*
X9718Y459D02*
Y469D01*
X3856Y607D02*
X3866D01*
X3861Y602D02*
Y612D01*
X5298Y920D02*
X5308D01*
X5303Y915D02*
Y925D01*
X5216Y887D02*
X5226D01*
X5221Y882D02*
Y892D01*
X5190Y530D02*
X5200D01*
X5195Y525D02*
Y535D01*
X5106Y607D02*
X5116D01*
X5111Y602D02*
Y612D01*
X8209Y750D02*
X8219D01*
X8214Y745D02*
Y755D01*
X8264Y608D02*
X8274D01*
X8269Y603D02*
Y613D01*
X8145Y893D02*
X8155D01*
X8150Y888D02*
Y898D01*
X8209Y860D02*
X8219D01*
X8214Y855D02*
Y865D01*
X8264Y673D02*
X8274D01*
X8269Y668D02*
Y678D01*
X8264Y513D02*
X8274D01*
X8269Y508D02*
Y518D01*
X8264Y448D02*
X8274D01*
X8269Y443D02*
Y453D01*
X6899Y673D02*
X6909D01*
X6904Y668D02*
Y678D01*
X6899Y608D02*
X6909D01*
X6904Y603D02*
Y613D01*
X6844Y750D02*
X6854D01*
X6849Y745D02*
Y755D01*
X6649Y750D02*
X6659D01*
X6654Y745D02*
Y755D01*
X6704Y608D02*
X6714D01*
X6709Y603D02*
Y613D01*
X6704Y673D02*
X6714D01*
X6709Y668D02*
Y678D01*
X7484Y608D02*
X7494D01*
X7489Y603D02*
Y613D01*
X7094Y608D02*
X7104D01*
X7099Y603D02*
Y613D01*
X7094Y673D02*
X7104D01*
X7099Y668D02*
Y678D01*
X7289Y673D02*
X7299D01*
X7294Y668D02*
Y678D01*
X7289Y608D02*
X7299D01*
X7294Y603D02*
Y613D01*
X7484Y673D02*
X7494D01*
X7489Y668D02*
Y678D01*
X6704Y513D02*
X6714D01*
X6709Y508D02*
Y518D01*
X7289Y513D02*
X7299D01*
X7294Y508D02*
Y518D01*
X7429Y750D02*
X7439D01*
X7434Y745D02*
Y755D01*
X7039Y750D02*
X7049D01*
X7044Y745D02*
Y755D01*
X7234Y750D02*
X7244D01*
X7239Y745D02*
Y755D01*
X7484Y513D02*
X7494D01*
X7489Y508D02*
Y518D01*
X7094Y513D02*
X7104D01*
X7099Y508D02*
Y518D01*
X6899Y513D02*
X6909D01*
X6904Y508D02*
Y518D01*
X7679Y673D02*
X7689D01*
X7684Y668D02*
Y678D01*
X7874Y513D02*
X7884D01*
X7879Y508D02*
Y518D01*
X7874Y448D02*
X7884D01*
X7879Y443D02*
Y453D01*
X7679Y608D02*
X7689D01*
X7684Y603D02*
Y613D01*
X7874Y673D02*
X7884D01*
X7879Y668D02*
Y678D01*
X7874Y608D02*
X7884D01*
X7879Y603D02*
Y613D01*
X7679Y513D02*
X7689D01*
X7684Y508D02*
Y518D01*
X7624Y750D02*
X7634D01*
X7629Y745D02*
Y755D01*
X8069Y673D02*
X8079D01*
X8074Y668D02*
Y678D01*
X8069Y608D02*
X8079D01*
X8074Y603D02*
Y613D01*
X8069Y513D02*
X8079D01*
X8074Y508D02*
Y518D01*
X8014Y750D02*
X8024D01*
X8019Y745D02*
Y755D01*
X7819Y750D02*
X7829D01*
X7824Y745D02*
Y755D01*
X7484Y448D02*
X7494D01*
X7489Y443D02*
Y453D01*
X7679Y448D02*
X7689D01*
X7684Y443D02*
Y453D01*
X6899Y448D02*
X6909D01*
X6904Y443D02*
Y453D01*
X6704Y448D02*
X6714D01*
X6709Y443D02*
Y453D01*
X7094Y448D02*
X7104D01*
X7099Y443D02*
Y453D01*
X7289Y448D02*
X7299D01*
X7294Y443D02*
Y453D01*
X8069Y448D02*
X8079D01*
X8074Y443D02*
Y453D01*
X7234Y860D02*
X7244D01*
X7239Y855D02*
Y865D01*
X7170Y893D02*
X7180D01*
X7175Y888D02*
Y898D01*
X7039Y860D02*
X7049D01*
X7044Y855D02*
Y865D01*
X7429Y860D02*
X7439D01*
X7434Y855D02*
Y865D01*
X6780Y893D02*
X6790D01*
X6785Y888D02*
Y898D01*
X6975Y893D02*
X6985D01*
X6980Y888D02*
Y898D01*
X6585Y893D02*
X6595D01*
X6590Y888D02*
Y898D01*
X6649Y860D02*
X6659D01*
X6654Y855D02*
Y865D01*
X6844Y860D02*
X6854D01*
X6849Y855D02*
Y865D01*
X7819Y860D02*
X7829D01*
X7824Y855D02*
Y865D01*
X7755Y893D02*
X7765D01*
X7760Y888D02*
Y898D01*
X7560Y893D02*
X7570D01*
X7565Y888D02*
Y898D01*
X7365Y893D02*
X7375D01*
X7370Y888D02*
Y898D01*
X7624Y860D02*
X7634D01*
X7629Y855D02*
Y865D01*
X8014Y860D02*
X8024D01*
X8019Y855D02*
Y865D01*
X7950Y893D02*
X7960D01*
X7955Y888D02*
Y898D01*
X9762Y711D02*
X9772D01*
X9767Y706D02*
Y716D01*
X9715Y711D02*
X9725D01*
X9720Y706D02*
Y716D01*
X9947Y396D02*
X9957D01*
X9952Y391D02*
Y401D01*
X10142Y577D02*
X10152D01*
X10147Y572D02*
Y582D01*
X10194Y454D02*
X10204D01*
X10199Y449D02*
Y459D01*
X10194Y577D02*
X10204D01*
X10199Y572D02*
Y582D01*
X10194Y407D02*
X10204D01*
X10199Y402D02*
Y412D01*
X10194Y519D02*
X10204D01*
X10199Y514D02*
Y524D01*
X10172Y329D02*
X10182D01*
X10177Y324D02*
Y334D01*
X4010Y5118D02*
X4020D01*
X4015Y5113D02*
Y5123D01*
X5194Y5962D02*
X5204D01*
X5199Y5957D02*
Y5967D01*
X4150Y5206D02*
X4160D01*
X4155Y5201D02*
Y5211D01*
X4010Y5044D02*
X4020D01*
X4015Y5039D02*
Y5049D01*
X5065Y5609D02*
X5075D01*
X5070Y5604D02*
Y5614D01*
X1771Y2759D02*
X1781D01*
X1776Y2754D02*
Y2764D01*
X3129Y2757D02*
X3139D01*
X3134Y2752D02*
Y2762D01*
X3201Y2759D02*
X3211D01*
X3206Y2754D02*
Y2764D01*
X2686Y2515D02*
X2696D01*
X2691Y2510D02*
Y2520D01*
X2810Y2593D02*
X2820D01*
X2815Y2588D02*
Y2598D01*
X2532Y4049D02*
X2542D01*
X2537Y4044D02*
Y4054D01*
X2622Y4049D02*
X2632D01*
X2627Y4044D02*
Y4054D01*
X2487Y4049D02*
X2497D01*
X2492Y4044D02*
Y4054D01*
X2443Y4049D02*
X2453D01*
X2447Y4044D02*
Y4054D01*
X2892Y2548D02*
X2902D01*
X2897Y2543D02*
Y2553D01*
X2853Y2569D02*
X2863D01*
X2858Y2564D02*
Y2574D01*
X2892Y2589D02*
X2902D01*
X2897Y2584D02*
Y2594D01*
X2946Y2604D02*
X2956D01*
X2951Y2599D02*
Y2609D01*
X2987Y2640D02*
X2997D01*
X2992Y2635D02*
Y2645D01*
X4222Y4792D02*
X4232D01*
X4227Y4787D02*
Y4797D01*
X3645Y2625D02*
X3655D01*
X3650Y2620D02*
Y2630D01*
X6233Y5962D02*
X6243D01*
X6238Y5957D02*
Y5967D01*
X3745Y2559D02*
X3755D01*
X3750Y2554D02*
Y2564D01*
X6209Y5994D02*
X6219D01*
X6214Y5989D02*
Y5999D01*
X6257Y6148D02*
X6267D01*
X6262Y6143D02*
Y6153D01*
X6280Y5994D02*
X6290D01*
X6285Y5989D02*
Y5999D01*
X6304Y5963D02*
X6314D01*
X6309Y5958D02*
Y5968D01*
X5861Y5183D02*
X5871D01*
X5866Y5178D02*
Y5188D01*
X5847Y5227D02*
X5857D01*
X5852Y5222D02*
Y5232D01*
X5994Y5218D02*
X6004D01*
X5999Y5213D02*
Y5223D01*
X5995Y5178D02*
X6005D01*
X6000Y5173D02*
Y5183D01*
X6035Y5218D02*
X6045D01*
X6040Y5213D02*
Y5223D01*
X6035Y5178D02*
X6045D01*
X6040Y5173D02*
Y5183D01*
X6487Y5969D02*
X6497D01*
X6492Y5964D02*
Y5974D01*
X5537Y5342D02*
X5547D01*
X5542Y5337D02*
Y5347D01*
X5580Y5384D02*
X5590D01*
X5585Y5379D02*
Y5389D01*
X5341Y5342D02*
X5351D01*
X5346Y5337D02*
Y5347D01*
X5300Y5381D02*
X5310D01*
X5305Y5376D02*
Y5386D01*
X5440Y5240D02*
X5450D01*
X5445Y5235D02*
Y5245D01*
X5440Y5203D02*
X5450D01*
X5445Y5198D02*
Y5208D01*
X5440Y5277D02*
X5450D01*
X5445Y5272D02*
Y5282D01*
X5580Y5095D02*
X5590D01*
X5585Y5090D02*
Y5100D01*
X6255Y5077D02*
X6265D01*
X6260Y5072D02*
Y5082D01*
X6296Y5077D02*
X6306D01*
X6301Y5072D02*
Y5082D01*
X6545Y5503D02*
X6555D01*
X6550Y5498D02*
Y5508D01*
X6545Y5452D02*
X6555D01*
X6550Y5447D02*
Y5457D01*
X6785Y5264D02*
X6795D01*
X6790Y5259D02*
Y5269D01*
X6697Y5373D02*
X6707D01*
X6702Y5368D02*
Y5378D01*
X6661Y5452D02*
X6671D01*
X6666Y5447D02*
Y5457D01*
X6661Y5503D02*
X6671D01*
X6666Y5498D02*
Y5508D01*
X6545Y5227D02*
X6555D01*
X6550Y5222D02*
Y5232D01*
X6545Y5272D02*
X6555D01*
X6550Y5267D02*
Y5277D01*
X6545Y5318D02*
X6555D01*
X6550Y5313D02*
Y5323D01*
X6584Y5227D02*
X6594D01*
X6589Y5222D02*
Y5232D01*
X6584Y5272D02*
X6594D01*
X6589Y5267D02*
Y5277D01*
X6584Y5318D02*
X6594D01*
X6589Y5313D02*
Y5323D01*
X6390Y5272D02*
X6400D01*
X6395Y5267D02*
Y5277D01*
X6201Y5333D02*
X6211D01*
X6206Y5328D02*
Y5338D01*
X6255Y5281D02*
X6265D01*
X6260Y5276D02*
Y5286D01*
X6201Y5281D02*
X6211D01*
X6206Y5276D02*
Y5286D01*
X6155Y5281D02*
X6165D01*
X6160Y5276D02*
Y5286D01*
X6155Y5333D02*
X6165D01*
X6160Y5328D02*
Y5338D01*
X6108Y5281D02*
X6118D01*
X6113Y5276D02*
Y5286D01*
X6108Y5333D02*
X6118D01*
X6113Y5328D02*
Y5338D01*
X6217Y5390D02*
X6227D01*
X6222Y5385D02*
Y5395D01*
X6242Y5452D02*
X6252D01*
X6247Y5447D02*
Y5457D01*
X6077Y5218D02*
X6087D01*
X6082Y5213D02*
Y5223D01*
X6077Y5178D02*
X6087D01*
X6082Y5173D02*
Y5183D01*
X5819Y5193D02*
X5829D01*
X5824Y5188D02*
Y5198D01*
X5804Y5231D02*
X5814D01*
X5809Y5226D02*
Y5236D01*
X5782Y5264D02*
X5792D01*
X5787Y5259D02*
Y5269D01*
X5825Y5264D02*
X5835D01*
X5830Y5259D02*
Y5269D01*
X5176Y5394D02*
X5186D01*
X5181Y5389D02*
Y5399D01*
X5216Y5353D02*
X5226D01*
X5221Y5348D02*
Y5358D01*
X5176Y5353D02*
X5186D01*
X5181Y5348D02*
Y5358D01*
X5216Y5394D02*
X5226D01*
X5221Y5389D02*
Y5399D01*
X5216Y5435D02*
X5226D01*
X5221Y5430D02*
Y5440D01*
X5176Y5435D02*
X5186D01*
X5181Y5430D02*
Y5440D01*
X4535Y4905D02*
X4545D01*
X4540Y4900D02*
Y4910D01*
X4641Y4964D02*
X4651D01*
X4646Y4959D02*
Y4969D01*
X4637Y5023D02*
X4647D01*
X4642Y5018D02*
Y5028D01*
X4490Y5043D02*
X4500D01*
X4495Y5038D02*
Y5048D01*
X4562Y5069D02*
X4572D01*
X4567Y5064D02*
Y5074D01*
X4471Y5100D02*
X4481D01*
X4476Y5095D02*
Y5105D01*
X5430Y4610D02*
X5440D01*
X5435Y4605D02*
Y4615D01*
X5619Y4656D02*
X5629D01*
X5624Y4651D02*
Y4661D01*
X5619Y4610D02*
X5629D01*
X5624Y4605D02*
Y4615D01*
X5619Y4565D02*
X5629D01*
X5624Y4560D02*
Y4570D01*
X5580Y4565D02*
X5590D01*
X5585Y4560D02*
Y4570D01*
X5580Y4656D02*
X5590D01*
X5585Y4651D02*
Y4661D01*
X5580Y4610D02*
X5590D01*
X5585Y4605D02*
Y4615D01*
X4947Y4546D02*
X4957D01*
X4952Y4541D02*
Y4551D01*
X4947Y4588D02*
X4957D01*
X4952Y4583D02*
Y4593D01*
X4984Y4546D02*
X4994D01*
X4989Y4541D02*
Y4551D01*
X4984Y4588D02*
X4994D01*
X4989Y4583D02*
Y4593D01*
X5106Y4546D02*
X5116D01*
X5111Y4541D02*
Y4551D01*
X5106Y4588D02*
X5116D01*
X5111Y4583D02*
Y4593D01*
X5208Y4647D02*
X5218D01*
X5213Y4642D02*
Y4652D01*
X5208Y4689D02*
X5218D01*
X5213Y4684D02*
Y4694D01*
X5170Y4647D02*
X5180D01*
X5175Y4642D02*
Y4652D01*
X5132Y4647D02*
X5142D01*
X5137Y4642D02*
Y4652D01*
X5170Y4689D02*
X5180D01*
X5175Y4684D02*
Y4694D01*
X5132Y4689D02*
X5142D01*
X5137Y4684D02*
Y4694D01*
X5419Y4843D02*
X5429D01*
X5424Y4838D02*
Y4848D01*
X5448Y4810D02*
X5458D01*
X5453Y4805D02*
Y4815D01*
X5257Y4737D02*
X5267D01*
X5262Y4732D02*
Y4742D01*
X5290Y4767D02*
X5300D01*
X5295Y4762D02*
Y4772D01*
X5290Y4395D02*
X5300D01*
X5295Y4390D02*
Y4400D01*
X3592Y5026D02*
X3602D01*
X3597Y5021D02*
Y5031D01*
X3591Y5066D02*
X3601D01*
X3596Y5061D02*
Y5071D01*
X3632Y5066D02*
X3642D01*
X3637Y5061D02*
Y5071D01*
X3674Y5026D02*
X3684D01*
X3679Y5021D02*
Y5031D01*
X3674Y5066D02*
X3684D01*
X3679Y5061D02*
Y5071D01*
X3633Y5026D02*
X3643D01*
X3638Y5021D02*
Y5031D01*
X3790Y5182D02*
X3800D01*
X3795Y5177D02*
Y5187D01*
X4312Y5040D02*
X4322D01*
X4317Y5035D02*
Y5045D01*
X4396Y5148D02*
X4406D01*
X4401Y5143D02*
Y5153D01*
X4558Y5148D02*
X4568D01*
X4563Y5143D02*
Y5153D01*
X4659Y5132D02*
X4669D01*
X4664Y5127D02*
Y5137D01*
X3931Y4655D02*
X3941D01*
X3936Y4650D02*
Y4660D01*
X3970Y4655D02*
X3980D01*
X3975Y4650D02*
Y4660D01*
X3970Y4564D02*
X3980D01*
X3975Y4559D02*
Y4569D01*
X3931Y4564D02*
X3941D01*
X3936Y4559D02*
Y4569D01*
X3931Y4610D02*
X3941D01*
X3936Y4605D02*
Y4615D01*
X3970Y4610D02*
X3980D01*
X3975Y4605D02*
Y4615D01*
X4097Y4430D02*
X4107D01*
X4102Y4425D02*
Y4435D01*
X4127Y4397D02*
X4137D01*
X4132Y4392D02*
Y4402D01*
X4298Y4792D02*
X4308D01*
X4303Y4787D02*
Y4797D01*
X4453Y4720D02*
X4463D01*
X4458Y4715D02*
Y4725D01*
X4453Y4678D02*
X4463D01*
X4458Y4673D02*
Y4683D01*
X4436Y4623D02*
X4446D01*
X4441Y4618D02*
Y4628D01*
X4335Y4623D02*
X4345D01*
X4340Y4618D02*
Y4628D01*
X4385Y4623D02*
X4395D01*
X4390Y4618D02*
Y4628D01*
X4293Y4488D02*
X4303D01*
X4298Y4483D02*
Y4493D01*
X4260Y4458D02*
X4270D01*
X4265Y4453D02*
Y4463D01*
X4304Y4527D02*
X4314D01*
X4309Y4522D02*
Y4532D01*
X4304Y4565D02*
X4314D01*
X4309Y4560D02*
Y4570D01*
X4493Y4835D02*
X4503D01*
X4498Y4830D02*
Y4840D01*
X4644Y4835D02*
X4654D01*
X4649Y4830D02*
Y4840D01*
X4650Y4788D02*
X4660D01*
X4655Y4783D02*
Y4793D01*
X4825Y4643D02*
X4835D01*
X4830Y4638D02*
Y4648D01*
X4895Y4643D02*
X4905D01*
X4900Y4638D02*
Y4648D01*
X4895Y4782D02*
X4905D01*
X4900Y4777D02*
Y4787D01*
X5049Y4825D02*
X5059D01*
X5054Y4820D02*
Y4830D01*
X4904Y4825D02*
X4914D01*
X4909Y4820D02*
Y4830D01*
X5054Y4925D02*
X5064D01*
X5059Y4920D02*
Y4930D01*
X5091Y4925D02*
X5101D01*
X5096Y4920D02*
Y4930D01*
X4904Y4925D02*
X4914D01*
X4909Y4920D02*
Y4930D01*
X4904Y4985D02*
X4914D01*
X4909Y4980D02*
Y4990D01*
X6500Y3719D02*
X6510D01*
X6505Y3714D02*
Y3724D01*
X6524Y3062D02*
X6534D01*
X6529Y3057D02*
Y3067D01*
X6351Y6014D02*
X6361D01*
X6356Y6009D02*
Y6019D01*
X6388Y5993D02*
X6398D01*
X6393Y5988D02*
Y5998D01*
X6469Y5994D02*
X6479D01*
X6474Y5989D02*
Y5999D01*
X6564Y6023D02*
X6574D01*
X6569Y6018D02*
Y6028D01*
X6540Y5996D02*
X6550D01*
X6545Y5991D02*
Y6001D01*
X6440Y6028D02*
X6450D01*
X6445Y6023D02*
Y6033D01*
X6517Y6029D02*
X6527D01*
X6522Y6024D02*
Y6034D01*
X3685Y2691D02*
X3695D01*
X3690Y2686D02*
Y2696D01*
X3462Y2675D02*
X3472D01*
X3467Y2670D02*
Y2680D01*
X3298Y2538D02*
X3308D01*
X3303Y2533D02*
Y2543D01*
X3298Y2482D02*
X3308D01*
X3303Y2477D02*
Y2487D01*
X3298Y2427D02*
X3308D01*
X3303Y2422D02*
Y2432D01*
X3355Y2688D02*
X3365D01*
X3360Y2683D02*
Y2693D01*
X3382Y2659D02*
X3392D01*
X3387Y2654D02*
Y2664D01*
X3414Y2564D02*
X3424D01*
X3419Y2559D02*
Y2569D01*
X3469Y2568D02*
X3479D01*
X3474Y2563D02*
Y2573D01*
X3460Y2517D02*
X3470D01*
X3465Y2512D02*
Y2522D01*
X3490Y2545D02*
X3500D01*
X3495Y2540D02*
Y2550D01*
X3691Y2517D02*
X3701D01*
X3696Y2512D02*
Y2522D01*
X3700Y2576D02*
X3710D01*
X3705Y2571D02*
Y2581D01*
X3678Y2427D02*
X3688D01*
X3683Y2422D02*
Y2432D01*
X3468Y2443D02*
X3478D01*
X3473Y2438D02*
Y2448D01*
X3640Y2443D02*
X3650D01*
X3645Y2438D02*
Y2448D01*
X3481Y2389D02*
X3491D01*
X3486Y2384D02*
Y2394D01*
X3648Y2348D02*
X3658D01*
X3653Y2343D02*
Y2353D01*
X3413Y2378D02*
X3423D01*
X3418Y2373D02*
Y2383D01*
X4450Y2563D02*
X4460D01*
X4455Y2558D02*
Y2568D01*
X1291Y740D02*
X1301D01*
X1296Y735D02*
Y745D01*
X1291Y825D02*
X1301D01*
X1296Y820D02*
Y830D01*
X2080Y1320D02*
X2090D01*
X2085Y1315D02*
Y1325D01*
X4600Y2500D02*
X4610D01*
X4605Y2495D02*
Y2505D01*
X6410Y3140D02*
X6420D01*
X6415Y3135D02*
Y3145D01*
X6410Y3190D02*
X6420D01*
X6415Y3185D02*
Y3195D01*
X2195Y774D02*
X2205D01*
X2200Y769D02*
Y779D01*
X1916Y740D02*
X1926D01*
X1921Y735D02*
Y745D01*
X4435Y2235D02*
X4445D01*
X4440Y2230D02*
Y2240D01*
X4599Y2243D02*
X4609D01*
X4604Y2238D02*
Y2248D01*
X2705Y1320D02*
X2715D01*
X2710Y1315D02*
Y1325D01*
X3604Y1340D02*
X3614D01*
X3609Y1335D02*
Y1345D01*
X3871Y1810D02*
X3881D01*
X3876Y1805D02*
Y1815D01*
X3906Y1947D02*
X3916D01*
X3911Y1942D02*
Y1952D01*
X4600Y2369D02*
X4610D01*
X4605Y2364D02*
Y2374D01*
X4760Y583D02*
X4770D01*
X4765Y578D02*
Y588D01*
X6845Y2869D02*
X6855D01*
X6850Y2864D02*
Y2874D01*
X5932Y1868D02*
X5942D01*
X5937Y1863D02*
Y1873D01*
X6795Y2869D02*
X6805D01*
X6800Y2864D02*
Y2874D01*
X6695Y2869D02*
X6705D01*
X6700Y2864D02*
Y2874D01*
X6745Y2869D02*
X6755D01*
X6750Y2864D02*
Y2874D01*
X3605Y873D02*
X3615D01*
X3610Y868D02*
Y878D01*
X4860Y1980D02*
X4870D01*
X4865Y1975D02*
Y1985D01*
X4625Y4693D02*
X4635D01*
X4630Y4688D02*
Y4698D01*
X4353Y4565D02*
X4363D01*
X4358Y4560D02*
Y4570D01*
X4402Y4565D02*
X4412D01*
X4407Y4560D02*
Y4570D01*
X4353Y4527D02*
X4363D01*
X4358Y4522D02*
Y4532D01*
X4402Y4527D02*
X4412D01*
X4407Y4522D02*
Y4532D01*
X2527Y885D02*
X2537D01*
X2532Y880D02*
Y890D01*
X4402Y885D02*
X4412D01*
X4407Y880D02*
Y890D01*
X2121Y2812D02*
X2131D01*
X2126Y2807D02*
Y2817D01*
X1982Y2616D02*
X1992D01*
X1987Y2611D02*
Y2621D01*
X2185Y2689D02*
X2195D01*
X2190Y2684D02*
Y2694D01*
X1948Y2549D02*
X1958D01*
X1953Y2544D02*
Y2554D01*
X2293Y3311D02*
X2303D01*
X2298Y3306D02*
Y3316D01*
X1976Y3230D02*
X1986D01*
X1981Y3225D02*
Y3235D01*
X2052Y3238D02*
X2062D01*
X2057Y3233D02*
Y3243D01*
X1976Y3266D02*
X1986D01*
X1981Y3261D02*
Y3271D01*
X2293Y3266D02*
X2303D01*
X2298Y3261D02*
Y3271D01*
X1970Y3189D02*
X1980D01*
X1975Y3184D02*
Y3194D01*
X1582Y2713D02*
X1592D01*
X1587Y2708D02*
Y2718D01*
X1629Y2804D02*
X1639D01*
X1634Y2799D02*
Y2809D01*
X1629Y2713D02*
X1639D01*
X1634Y2708D02*
Y2718D01*
X1629Y2759D02*
X1639D01*
X1634Y2754D02*
Y2764D01*
X1582Y2804D02*
X1592D01*
X1587Y2799D02*
Y2809D01*
X1582Y2759D02*
X1592D01*
X1587Y2754D02*
Y2764D01*
X3971Y1695D02*
X3981D01*
X3976Y1690D02*
Y1700D01*
X4514Y1688D02*
X4524D01*
X4519Y1683D02*
Y1692D01*
X4457Y1688D02*
X4467D01*
X4462Y1683D02*
Y1692D01*
X5147Y6027D02*
X5157D01*
X5152Y6022D02*
Y6032D01*
X5040Y6173D02*
X5050D01*
X5045Y6168D02*
Y6178D01*
X2025Y5988D02*
X2035D01*
X2030Y5983D02*
Y5993D01*
X1536Y5948D02*
X1546D01*
X1541Y5943D02*
Y5953D01*
X1664Y5884D02*
X1674D01*
X1669Y5879D02*
Y5889D01*
X1280Y5963D02*
X1290D01*
X1285Y5958D02*
Y5968D01*
X1230Y6059D02*
X1240D01*
X1235Y6054D02*
Y6064D01*
X1160Y6080D02*
X1170D01*
X1165Y6075D02*
Y6085D01*
X919Y5884D02*
X929D01*
X924Y5879D02*
Y5889D01*
X868Y6030D02*
X878D01*
X873Y6025D02*
Y6035D01*
X791Y5948D02*
X801D01*
X796Y5943D02*
Y5953D01*
X2255Y6327D02*
X2265D01*
X2260Y6322D02*
Y6332D01*
X2087Y6582D02*
X2097D01*
X2092Y6577D02*
Y6587D01*
X2013Y6473D02*
X2023D01*
X2018Y6468D02*
Y6478D01*
X1998Y6290D02*
X2008D01*
X2003Y6285D02*
Y6295D01*
X2138Y6327D02*
X2148D01*
X2143Y6322D02*
Y6332D01*
X2087Y6290D02*
X2097D01*
X2092Y6285D02*
Y6295D01*
X1492Y6290D02*
X1502D01*
X1497Y6285D02*
Y6295D01*
X1543Y6327D02*
X1553D01*
X1548Y6322D02*
Y6332D01*
X1403Y6290D02*
X1413D01*
X1408Y6285D02*
Y6295D01*
X1418Y6473D02*
X1428D01*
X1423Y6468D02*
Y6478D01*
X1655Y6561D02*
X1665D01*
X1660Y6556D02*
Y6566D01*
X1492Y6582D02*
X1502D01*
X1497Y6577D02*
Y6587D01*
X1660Y6327D02*
X1670D01*
X1665Y6322D02*
Y6332D01*
X10085Y6569D02*
X10095D01*
X10090Y6564D02*
Y6574D01*
X10141Y6491D02*
X10151D01*
X10146Y6486D02*
Y6496D01*
X10141Y6569D02*
X10151D01*
X10146Y6564D02*
Y6574D01*
X10090Y6303D02*
X10100D01*
X10095Y6298D02*
Y6308D01*
X10134Y6303D02*
X10144D01*
X10139Y6298D02*
Y6308D01*
X10220Y6435D02*
X10230D01*
X10225Y6430D02*
Y6440D01*
X10457Y6778D02*
X10467D01*
X10462Y6773D02*
Y6783D01*
X10209Y6740D02*
X10219D01*
X10214Y6735D02*
Y6745D01*
X10320Y6698D02*
X10330D01*
X10325Y6693D02*
Y6703D01*
X10193Y6685D02*
X10203D01*
X10198Y6680D02*
Y6690D01*
X10217Y6531D02*
X10227D01*
X10222Y6526D02*
Y6536D01*
X10261Y6468D02*
X10271D01*
X10266Y6463D02*
Y6473D01*
X10360Y6323D02*
X10370D01*
X10365Y6318D02*
Y6328D01*
X10393Y6363D02*
X10403D01*
X10398Y6358D02*
Y6368D01*
X10393Y6397D02*
X10403D01*
X10398Y6392D02*
Y6402D01*
X10317Y6461D02*
X10327D01*
X10322Y6456D02*
Y6466D01*
X10532Y6480D02*
X10542D01*
X10537Y6475D02*
Y6485D01*
X1015Y4715D02*
X1025D01*
X1020Y4710D02*
Y4720D01*
X907Y3925D02*
X917D01*
X912Y3920D02*
Y3930D01*
X860Y3925D02*
X870D01*
X865Y3920D02*
Y3930D01*
X860Y3879D02*
X870D01*
X865Y3874D02*
Y3884D01*
X860Y3970D02*
X870D01*
X865Y3965D02*
Y3975D01*
X907Y3879D02*
X917D01*
X912Y3874D02*
Y3884D01*
X907Y3970D02*
X917D01*
X912Y3965D02*
Y3975D01*
X1237Y4127D02*
X1247D01*
X1242Y4122D02*
Y4132D01*
X1205Y4157D02*
X1215D01*
X1210Y4152D02*
Y4162D01*
X1320Y3970D02*
X1330D01*
X1325Y3965D02*
Y3975D01*
X1066Y3704D02*
X1076D01*
X1071Y3699D02*
Y3709D01*
X1030Y3740D02*
X1040D01*
X1035Y3735D02*
Y3745D01*
X1205Y3770D02*
X1215D01*
X1210Y3765D02*
Y3775D01*
X1240Y3803D02*
X1250D01*
X1245Y3798D02*
Y3808D01*
X1281Y3845D02*
X1291D01*
X1286Y3840D02*
Y3850D01*
X2620Y3461D02*
X2630D01*
X2625Y3456D02*
Y3466D01*
X2720Y3447D02*
X2730D01*
X2725Y3442D02*
Y3452D01*
X2665Y3447D02*
X2675D01*
X2670Y3442D02*
Y3452D01*
X2780Y3438D02*
X2790D01*
X2785Y3433D02*
Y3443D01*
X3440Y3455D02*
X3450D01*
X3445Y3450D02*
Y3460D01*
X3385Y3455D02*
X3395D01*
X3390Y3450D02*
Y3460D01*
X3472Y3293D02*
X3482D01*
X3477Y3288D02*
Y3298D01*
X3500Y3263D02*
X3510D01*
X3505Y3258D02*
Y3268D01*
X3463Y3672D02*
X3473D01*
X3468Y3667D02*
Y3677D01*
X3463Y3619D02*
X3473D01*
X3468Y3614D02*
Y3624D01*
X3858Y3535D02*
X3868D01*
X3863Y3530D02*
Y3540D01*
X3858Y3444D02*
X3868D01*
X3863Y3439D02*
Y3449D01*
X3811Y3535D02*
X3821D01*
X3816Y3530D02*
Y3540D01*
X3811Y3444D02*
X3821D01*
X3816Y3439D02*
Y3449D01*
X3811Y3490D02*
X3821D01*
X3816Y3485D02*
Y3495D01*
X3858Y3490D02*
X3868D01*
X3863Y3485D02*
Y3495D01*
X3660Y3490D02*
X3670D01*
X3665Y3485D02*
Y3495D01*
X3430Y3570D02*
X3440D01*
X3435Y3565D02*
Y3575D01*
X5050Y3061D02*
X5060D01*
X5055Y3056D02*
Y3066D01*
X5050Y3100D02*
X5060D01*
X5055Y3095D02*
Y3105D01*
X4931Y3048D02*
X4941D01*
X4936Y3043D02*
Y3053D01*
X4728Y3026D02*
X4738D01*
X4733Y3021D02*
Y3031D01*
X4768Y3026D02*
X4778D01*
X4773Y3021D02*
Y3031D01*
X4728Y3072D02*
X4738D01*
X4733Y3067D02*
Y3077D01*
X4768Y3072D02*
X4778D01*
X4773Y3067D02*
Y3077D01*
X4972Y3100D02*
X4982D01*
X4977Y3095D02*
Y3105D01*
X2954Y1717D02*
X2964D01*
X2959Y1712D02*
Y1722D01*
X3028Y1748D02*
X3038D01*
X3033Y1743D02*
Y1753D01*
X3026Y1706D02*
X3036D01*
X3031Y1701D02*
Y1711D01*
X3107Y1749D02*
X3117D01*
X3112Y1744D02*
Y1754D01*
X3104Y1707D02*
X3114D01*
X3109Y1702D02*
Y1712D01*
X3180Y1751D02*
X3190D01*
X3185Y1746D02*
Y1756D01*
X3180Y1707D02*
X3190D01*
X3185Y1702D02*
Y1712D01*
X3329Y1750D02*
X3339D01*
X3334Y1745D02*
Y1755D01*
X3404Y1719D02*
X3414D01*
X3409Y1714D02*
Y1724D01*
X3475Y1719D02*
X3485D01*
X3480Y1714D02*
Y1724D01*
X3482Y2000D02*
X3492D01*
X3487Y1995D02*
Y2005D01*
X3552Y1743D02*
X3562D01*
X3557Y1738D02*
Y1748D01*
X4497Y1855D02*
X4507D01*
X4502Y1850D02*
Y1860D01*
X4130Y1695D02*
X4140D01*
X4135Y1690D02*
Y1700D01*
X3871Y1878D02*
X3881D01*
X3876Y1873D02*
Y1883D01*
X1077Y1145D02*
X1087D01*
X1082Y1140D02*
Y1150D01*
X1077Y1190D02*
X1087D01*
X1082Y1185D02*
Y1195D01*
X1104Y1255D02*
X1114D01*
X1109Y1250D02*
Y1260D01*
X1104Y1340D02*
X1114D01*
X1109Y1335D02*
Y1345D01*
X1702Y1145D02*
X1712D01*
X1707Y1140D02*
Y1150D01*
X1702Y1190D02*
X1712D01*
X1707Y1185D02*
Y1195D01*
X1729Y1255D02*
X1739D01*
X1734Y1250D02*
Y1260D01*
X1729Y1340D02*
X1739D01*
X1734Y1335D02*
Y1345D01*
X1455Y1320D02*
X1465D01*
X1460Y1315D02*
Y1325D01*
X2327Y1145D02*
X2337D01*
X2332Y1140D02*
Y1150D01*
X2327Y1190D02*
X2337D01*
X2332Y1185D02*
Y1195D01*
X2354Y1255D02*
X2364D01*
X2359Y1250D02*
Y1260D01*
X2354Y1340D02*
X2364D01*
X2359Y1335D02*
Y1345D01*
X2952Y1145D02*
X2962D01*
X2957Y1140D02*
Y1150D01*
X2952Y1190D02*
X2962D01*
X2957Y1185D02*
Y1195D01*
X2979Y1255D02*
X2989D01*
X2984Y1250D02*
Y1260D01*
X2979Y1340D02*
X2989D01*
X2984Y1335D02*
Y1345D01*
X3577Y1145D02*
X3587D01*
X3582Y1140D02*
Y1150D01*
X3577Y1190D02*
X3587D01*
X3582Y1185D02*
Y1195D01*
X3604Y1255D02*
X3614D01*
X3609Y1250D02*
Y1260D01*
X3330Y1320D02*
X3340D01*
X3335Y1315D02*
Y1325D01*
X4202Y1145D02*
X4212D01*
X4207Y1140D02*
Y1150D01*
X4202Y1190D02*
X4212D01*
X4207Y1185D02*
Y1195D01*
X4229Y1255D02*
X4239D01*
X4234Y1250D02*
Y1260D01*
X4229Y1340D02*
X4239D01*
X4234Y1335D02*
Y1345D01*
X3955Y1320D02*
X3965D01*
X3960Y1315D02*
Y1325D01*
X4827Y1145D02*
X4837D01*
X4832Y1140D02*
Y1150D01*
X4827Y1190D02*
X4837D01*
X4832Y1185D02*
Y1195D01*
X4854Y1255D02*
X4864D01*
X4859Y1250D02*
Y1260D01*
X4854Y1340D02*
X4864D01*
X4859Y1335D02*
Y1345D01*
X4580Y1320D02*
X4590D01*
X4585Y1315D02*
Y1325D01*
X5205Y1320D02*
X5215D01*
X5210Y1315D02*
Y1325D01*
X5479Y1340D02*
X5489D01*
X5484Y1335D02*
Y1345D01*
X5479Y1255D02*
X5489D01*
X5484Y1250D02*
Y1260D01*
X5452Y1190D02*
X5462D01*
X5457Y1185D02*
Y1195D01*
X5452Y1145D02*
X5462D01*
X5457Y1140D02*
Y1150D01*
X1080Y583D02*
X1090D01*
X1085Y578D02*
Y588D01*
X1010Y583D02*
X1020D01*
X1015Y578D02*
Y588D01*
X1105Y873D02*
X1115D01*
X1110Y868D02*
Y878D01*
X1035Y857D02*
X1045D01*
X1040Y852D02*
Y862D01*
X985Y857D02*
X995D01*
X990Y852D02*
Y862D01*
X815Y565D02*
X825D01*
X820Y560D02*
Y570D01*
X731Y607D02*
X741D01*
X736Y602D02*
Y612D01*
X666Y740D02*
X676D01*
X671Y735D02*
Y745D01*
X666Y825D02*
X676D01*
X671Y820D02*
Y830D01*
X704Y926D02*
X714D01*
X709Y921D02*
Y931D01*
X705Y965D02*
X715D01*
X710Y960D02*
Y970D01*
X1705Y583D02*
X1715D01*
X1710Y578D02*
Y588D01*
X1635Y583D02*
X1645D01*
X1640Y578D02*
Y588D01*
X1730Y873D02*
X1740D01*
X1735Y868D02*
Y878D01*
X1660Y857D02*
X1670D01*
X1665Y852D02*
Y862D01*
X1610Y857D02*
X1620D01*
X1615Y852D02*
Y862D01*
X1440Y565D02*
X1450D01*
X1445Y560D02*
Y570D01*
X1356Y607D02*
X1366D01*
X1361Y602D02*
Y612D01*
X1329Y926D02*
X1339D01*
X1334Y921D02*
Y931D01*
X1330Y965D02*
X1340D01*
X1335Y960D02*
Y970D01*
X2330Y583D02*
X2340D01*
X2335Y578D02*
Y588D01*
X2260Y583D02*
X2270D01*
X2265Y578D02*
Y588D01*
X2355Y873D02*
X2365D01*
X2360Y868D02*
Y878D01*
X2285Y857D02*
X2295D01*
X2290Y852D02*
Y862D01*
X2235Y857D02*
X2245D01*
X2240Y852D02*
Y862D01*
X2065Y565D02*
X2075D01*
X2070Y560D02*
Y570D01*
X1981Y607D02*
X1991D01*
X1986Y602D02*
Y612D01*
X1916Y825D02*
X1926D01*
X1921Y820D02*
Y830D01*
X1954Y926D02*
X1964D01*
X1959Y921D02*
Y931D01*
X1955Y965D02*
X1965D01*
X1960Y960D02*
Y970D01*
X2955Y583D02*
X2965D01*
X2960Y578D02*
Y588D01*
X2885Y583D02*
X2895D01*
X2890Y578D02*
Y588D01*
X2980Y873D02*
X2990D01*
X2985Y868D02*
Y878D01*
X2910Y857D02*
X2920D01*
X2915Y852D02*
Y862D01*
X2860Y857D02*
X2870D01*
X2865Y852D02*
Y862D01*
X2690Y565D02*
X2700D01*
X2695Y560D02*
Y570D01*
X2606Y607D02*
X2616D01*
X2611Y602D02*
Y612D01*
X2541Y740D02*
X2551D01*
X2546Y735D02*
Y745D01*
X2541Y825D02*
X2551D01*
X2546Y820D02*
Y830D01*
X2579Y926D02*
X2589D01*
X2584Y921D02*
Y931D01*
X2580Y965D02*
X2590D01*
X2585Y960D02*
Y970D01*
X3580Y583D02*
X3590D01*
X3585Y578D02*
Y588D01*
X3510Y583D02*
X3520D01*
X3515Y578D02*
Y588D01*
X3535Y857D02*
X3545D01*
X3540Y852D02*
Y862D01*
X3485Y857D02*
X3495D01*
X3490Y852D02*
Y862D01*
X3315Y565D02*
X3325D01*
X3320Y560D02*
Y570D01*
X3231Y607D02*
X3241D01*
X3236Y602D02*
Y612D01*
X3166Y740D02*
X3176D01*
X3171Y735D02*
Y745D01*
X3166Y825D02*
X3176D01*
X3171Y820D02*
Y830D01*
X3204Y926D02*
X3214D01*
X3209Y921D02*
Y931D01*
X3205Y965D02*
X3215D01*
X3210Y960D02*
Y970D01*
X4205Y583D02*
X4215D01*
X4210Y578D02*
Y588D01*
X4135Y583D02*
X4145D01*
X4140Y578D02*
Y588D01*
X4230Y873D02*
X4240D01*
X4235Y868D02*
Y878D01*
X4160Y857D02*
X4170D01*
X4165Y852D02*
Y862D01*
X4110Y857D02*
X4120D01*
X4115Y852D02*
Y862D01*
X3940Y565D02*
X3950D01*
X3945Y560D02*
Y570D01*
X3791Y740D02*
X3801D01*
X3796Y735D02*
Y745D01*
X3791Y825D02*
X3801D01*
X3796Y820D02*
Y830D01*
X3829Y926D02*
X3839D01*
X3834Y921D02*
Y931D01*
X3830Y965D02*
X3840D01*
X3835Y960D02*
Y970D01*
X4830Y583D02*
X4840D01*
X4835Y578D02*
Y588D01*
X4855Y873D02*
X4865D01*
X4860Y868D02*
Y878D01*
X4785Y857D02*
X4795D01*
X4790Y852D02*
Y862D01*
X4735Y857D02*
X4745D01*
X4740Y852D02*
Y862D01*
X4565Y565D02*
X4575D01*
X4570Y560D02*
Y570D01*
X4481Y607D02*
X4491D01*
X4486Y602D02*
Y612D01*
X4416Y740D02*
X4426D01*
X4421Y735D02*
Y745D01*
X4416Y825D02*
X4426D01*
X4421Y820D02*
Y830D01*
X4454Y926D02*
X4464D01*
X4459Y921D02*
Y931D01*
X4455Y965D02*
X4465D01*
X4460Y960D02*
Y970D01*
X652Y885D02*
X662D01*
X657Y880D02*
Y890D01*
X1277Y885D02*
X1287D01*
X1282Y880D02*
Y890D01*
X1902Y885D02*
X1912D01*
X1907Y880D02*
Y890D01*
X3152Y885D02*
X3162D01*
X3157Y880D02*
Y890D01*
X3777Y885D02*
X3787D01*
X3782Y880D02*
Y890D01*
X5027Y885D02*
X5037D01*
X5032Y880D02*
Y890D01*
X5080Y965D02*
X5090D01*
X5085Y960D02*
Y970D01*
X5079Y926D02*
X5089D01*
X5084Y921D02*
Y931D01*
X5041Y825D02*
X5051D01*
X5046Y820D02*
Y830D01*
X5041Y740D02*
X5051D01*
X5046Y735D02*
Y745D01*
X818Y685D02*
X828D01*
X823Y680D02*
Y690D01*
X1443Y685D02*
X1453D01*
X1448Y680D02*
Y690D01*
X2068Y685D02*
X2078D01*
X2073Y680D02*
Y690D01*
X2693Y685D02*
X2703D01*
X2698Y680D02*
Y690D01*
X3318Y685D02*
X3328D01*
X3323Y680D02*
Y690D01*
X3943Y685D02*
X3953D01*
X3948Y680D02*
Y690D01*
X4568Y685D02*
X4578D01*
X4573Y680D02*
Y690D01*
X5193Y685D02*
X5203D01*
X5198Y680D02*
Y690D01*
X5190Y565D02*
X5200D01*
X5195Y560D02*
Y570D01*
X5360Y857D02*
X5370D01*
X5365Y852D02*
Y862D01*
X5410Y857D02*
X5420D01*
X5415Y852D02*
Y862D01*
X5480Y873D02*
X5490D01*
X5485Y868D02*
Y878D01*
X5385Y583D02*
X5395D01*
X5390Y578D02*
Y588D01*
X5455Y583D02*
X5465D01*
X5460Y578D02*
Y588D01*
X7000Y6722D02*
X7010D01*
X7005Y6717D02*
Y6727D01*
X6896Y6562D02*
X6906D01*
X6901Y6557D02*
Y6567D01*
X6859Y6606D02*
X6869D01*
X6864Y6601D02*
Y6611D01*
X6859Y6468D02*
X6869D01*
X6864Y6463D02*
Y6473D01*
X5904Y6562D02*
X5914D01*
X5909Y6557D02*
Y6567D01*
X5867Y6606D02*
X5877D01*
X5872Y6601D02*
Y6611D01*
X5867Y6468D02*
X5877D01*
X5872Y6463D02*
Y6473D01*
X4880Y6039D02*
X4890D01*
X4885Y6034D02*
Y6044D01*
X4880Y6193D02*
X4890D01*
X4885Y6188D02*
Y6198D01*
X4965Y6035D02*
X4975D01*
X4970Y6030D02*
Y6040D01*
X4965Y6193D02*
X4975D01*
X4970Y6188D02*
Y6198D01*
X5040Y6033D02*
X5050D01*
X5045Y6028D02*
Y6038D01*
X5696Y6028D02*
X5706D01*
X5701Y6023D02*
Y6033D01*
X5761Y6028D02*
X5771D01*
X5766Y6023D02*
Y6033D01*
X5933Y6150D02*
X5943D01*
X5938Y6145D02*
Y6155D01*
X5997Y6150D02*
X6007D01*
X6002Y6145D02*
Y6155D01*
X6172Y6150D02*
X6182D01*
X6177Y6145D02*
Y6155D01*
X6328Y6154D02*
X6338D01*
X6333Y6149D02*
Y6159D01*
X6398Y6148D02*
X6408D01*
X6403Y6143D02*
Y6153D01*
X6668Y6025D02*
X6678D01*
X6673Y6020D02*
Y6030D01*
X7527Y5967D02*
X7537D01*
X7532Y5962D02*
Y5972D01*
X7489Y6000D02*
X7499D01*
X7494Y5995D02*
Y6005D01*
X7608Y5967D02*
X7618D01*
X7613Y5962D02*
Y5972D01*
X7489Y6151D02*
X7499D01*
X7494Y6146D02*
Y6156D01*
X7565Y6000D02*
X7575D01*
X7570Y5995D02*
Y6005D01*
X7565Y6150D02*
X7575D01*
X7570Y6145D02*
Y6155D01*
X7650Y5998D02*
X7660D01*
X7655Y5993D02*
Y6003D01*
X7650Y6148D02*
X7660D01*
X7655Y6143D02*
Y6153D01*
X5880Y1831D02*
X5890D01*
X5885Y1826D02*
Y1836D01*
X9761Y3971D02*
X9771D01*
X9766Y3966D02*
Y3976D01*
X9683Y3918D02*
X9693D01*
X9688Y3913D02*
Y3923D01*
X9911Y3971D02*
X9921D01*
X9916Y3966D02*
Y3976D01*
X9989Y3918D02*
X9999D01*
X9994Y3913D02*
Y3923D01*
X10955Y3286D02*
X10965D01*
X10960Y3281D02*
Y3291D01*
X9718Y3700D02*
X9728D01*
X9723Y3695D02*
Y3705D01*
X9718Y3656D02*
X9728D01*
X9723Y3651D02*
Y3661D01*
X9718Y3746D02*
X9728D01*
X9723Y3741D02*
Y3751D01*
X9957Y3700D02*
X9967D01*
X9962Y3695D02*
Y3705D01*
X9957Y3656D02*
X9967D01*
X9962Y3651D02*
Y3661D01*
X9957Y3746D02*
X9967D01*
X9962Y3741D02*
Y3751D01*
X9774Y3746D02*
X9784D01*
X9779Y3741D02*
Y3751D01*
X9896Y3746D02*
X9906D01*
X9901Y3741D02*
Y3751D01*
X9896Y3656D02*
X9906D01*
X9901Y3651D02*
Y3661D01*
X9774Y3656D02*
X9784D01*
X9779Y3651D02*
Y3661D01*
X9835Y3656D02*
X9845D01*
X9840Y3651D02*
Y3661D01*
X9835Y3746D02*
X9845D01*
X9840Y3741D02*
Y3751D01*
X9896Y3700D02*
X9906D01*
X9901Y3695D02*
Y3705D01*
X9774Y3700D02*
X9784D01*
X9779Y3695D02*
Y3705D01*
X11031Y3325D02*
X11041D01*
X11036Y3320D02*
Y3330D01*
X11028Y3292D02*
X11038D01*
X11033Y3287D02*
Y3297D01*
X11129Y3344D02*
X11139D01*
X11134Y3339D02*
Y3349D01*
X10747Y3196D02*
X10757D01*
X10752Y3191D02*
Y3201D01*
X10785Y3163D02*
X10795D01*
X10790Y3158D02*
Y3168D01*
X10640Y3244D02*
X10650D01*
X10645Y3239D02*
Y3249D01*
X9627Y3684D02*
X9637D01*
X9632Y3679D02*
Y3689D01*
X9593Y3684D02*
X9603D01*
X9598Y3679D02*
Y3689D01*
X9628Y3561D02*
X9638D01*
X9633Y3556D02*
Y3566D01*
X9593Y3575D02*
X9603D01*
X9598Y3570D02*
Y3580D01*
X9596Y3507D02*
X9606D01*
X9601Y3502D02*
Y3512D01*
X9561Y3507D02*
X9571D01*
X9566Y3502D02*
Y3512D01*
X9574Y3457D02*
X9584D01*
X9579Y3452D02*
Y3462D01*
X9760Y3470D02*
X9770D01*
X9765Y3465D02*
Y3475D01*
X10028Y3513D02*
X10038D01*
X10033Y3508D02*
Y3518D01*
X9980Y3513D02*
X9990D01*
X9985Y3508D02*
Y3518D01*
X10329Y3442D02*
X10339D01*
X10334Y3437D02*
Y3447D01*
X10225Y3230D02*
X10235D01*
X10230Y3225D02*
Y3235D01*
X9970Y3234D02*
X9980D01*
X9975Y3229D02*
Y3239D01*
X9927Y3234D02*
X9937D01*
X9932Y3229D02*
Y3239D01*
X9877Y3312D02*
X9887D01*
X9882Y3307D02*
Y3317D01*
X9911Y3312D02*
X9921D01*
X9916Y3307D02*
Y3317D01*
X9802Y3379D02*
X9812D01*
X9807Y3374D02*
Y3384D01*
X9825Y3258D02*
X9835D01*
X9830Y3253D02*
Y3263D01*
X9806Y3222D02*
X9816D01*
X9811Y3217D02*
Y3227D01*
X9954Y3050D02*
X9964D01*
X9959Y3045D02*
Y3055D01*
X9954Y3107D02*
X9964D01*
X9959Y3102D02*
Y3112D01*
X9954Y2991D02*
X9964D01*
X9959Y2986D02*
Y2996D01*
X9905Y3080D02*
X9915D01*
X9910Y3075D02*
Y3085D01*
X9905Y3135D02*
X9915D01*
X9910Y3130D02*
Y3140D01*
X9905Y3026D02*
X9915D01*
X9910Y3021D02*
Y3031D01*
X9905Y2971D02*
X9915D01*
X9910Y2966D02*
Y2976D01*
X9695Y3080D02*
X9705D01*
X9700Y3075D02*
Y3085D01*
X9695Y3135D02*
X9705D01*
X9700Y3130D02*
Y3140D01*
X9695Y3026D02*
X9705D01*
X9700Y3021D02*
Y3031D01*
X9695Y2971D02*
X9705D01*
X9700Y2966D02*
Y2976D01*
X9835Y3135D02*
X9845D01*
X9840Y3130D02*
Y3140D01*
X9835Y3026D02*
X9845D01*
X9840Y3021D02*
Y3031D01*
X9835Y2971D02*
X9845D01*
X9840Y2966D02*
Y2976D01*
X9765Y2971D02*
X9775D01*
X9770Y2966D02*
Y2976D01*
X9765Y3026D02*
X9775D01*
X9770Y3021D02*
Y3031D01*
X9765Y3135D02*
X9775D01*
X9770Y3130D02*
Y3140D01*
X9765Y3080D02*
X9775D01*
X9770Y3075D02*
Y3085D01*
X11027Y1314D02*
X11037D01*
X11032Y1309D02*
Y1319D01*
X11083Y1394D02*
X11093D01*
X11088Y1389D02*
Y1399D01*
X11129Y1369D02*
X11139D01*
X11134Y1364D02*
Y1374D01*
X11027Y1350D02*
X11037D01*
X11032Y1345D02*
Y1355D01*
X10955Y1310D02*
X10965D01*
X10960Y1305D02*
Y1315D01*
X10785Y1189D02*
X10795D01*
X10790Y1184D02*
Y1194D01*
X10749Y1221D02*
X10759D01*
X10754Y1216D02*
Y1226D01*
X10643Y1269D02*
X10653D01*
X10648Y1264D02*
Y1274D01*
X9624Y1806D02*
X9634D01*
X9629Y1801D02*
Y1811D01*
X9586Y1533D02*
X9596D01*
X9591Y1528D02*
Y1538D01*
X9586Y1593D02*
X9596D01*
X9591Y1588D02*
Y1598D01*
X9586Y1652D02*
X9596D01*
X9591Y1647D02*
Y1657D01*
X9586Y1712D02*
X9596D01*
X9591Y1707D02*
Y1717D01*
X9669Y1533D02*
X9679D01*
X9674Y1528D02*
Y1538D01*
X9669Y1593D02*
X9679D01*
X9674Y1588D02*
Y1598D01*
X9669Y1652D02*
X9679D01*
X9674Y1647D02*
Y1657D01*
X9669Y1712D02*
X9679D01*
X9674Y1707D02*
Y1717D01*
X9752Y1712D02*
X9762D01*
X9757Y1707D02*
Y1717D01*
X9752Y1652D02*
X9762D01*
X9757Y1647D02*
Y1657D01*
X9752Y1593D02*
X9762D01*
X9757Y1588D02*
Y1598D01*
X9752Y1533D02*
X9762D01*
X9757Y1528D02*
Y1538D01*
X9968Y1593D02*
X9978D01*
X9973Y1588D02*
Y1598D01*
X9968Y1712D02*
X9978D01*
X9973Y1707D02*
Y1717D01*
X9968Y1652D02*
X9978D01*
X9973Y1647D02*
Y1657D01*
X9914Y1533D02*
X9924D01*
X9919Y1528D02*
Y1538D01*
X9914Y1593D02*
X9924D01*
X9919Y1588D02*
Y1598D01*
X9914Y1652D02*
X9924D01*
X9919Y1647D02*
Y1657D01*
X9914Y1712D02*
X9924D01*
X9919Y1707D02*
Y1717D01*
X9835Y1533D02*
X9845D01*
X9840Y1528D02*
Y1538D01*
X9835Y1593D02*
X9845D01*
X9840Y1588D02*
Y1598D01*
X9968Y1914D02*
X9978D01*
X9973Y1909D02*
Y1919D01*
X11129Y2014D02*
X11139D01*
X11134Y2009D02*
Y2019D01*
X11083Y2039D02*
X11093D01*
X11088Y2034D02*
Y2044D01*
X11024Y1961D02*
X11034D01*
X11029Y1956D02*
Y1966D01*
X11024Y1924D02*
X11034D01*
X11029Y1919D02*
Y1929D01*
X11027Y1995D02*
X11037D01*
X11032Y1990D02*
Y2000D01*
X10762Y1887D02*
X10772D01*
X10767Y1882D02*
Y1892D01*
X10759Y1853D02*
X10769D01*
X10764Y1848D02*
Y1858D01*
X10795Y1824D02*
X10805D01*
X10800Y1819D02*
Y1829D01*
X10957Y1955D02*
X10967D01*
X10962Y1950D02*
Y1960D01*
X9774Y2316D02*
X9784D01*
X9779Y2311D02*
Y2321D01*
X9835Y2316D02*
X9845D01*
X9840Y2311D02*
Y2321D01*
X9896Y2316D02*
X9906D01*
X9901Y2311D02*
Y2321D01*
X9896Y2486D02*
X9906D01*
X9901Y2481D02*
Y2491D01*
X9835Y2486D02*
X9845D01*
X9840Y2481D02*
Y2491D01*
X9774Y2486D02*
X9784D01*
X9779Y2481D02*
Y2491D01*
X9774Y2446D02*
X9784D01*
X9779Y2441D02*
Y2451D01*
X9896Y2446D02*
X9906D01*
X9901Y2441D02*
Y2451D01*
X9896Y2356D02*
X9906D01*
X9901Y2351D02*
Y2361D01*
X9774Y2356D02*
X9784D01*
X9779Y2351D02*
Y2361D01*
X9835Y2356D02*
X9845D01*
X9840Y2351D02*
Y2361D01*
X9835Y2446D02*
X9845D01*
X9840Y2441D02*
Y2451D01*
X9896Y2400D02*
X9906D01*
X9901Y2395D02*
Y2405D01*
X9774Y2400D02*
X9784D01*
X9779Y2395D02*
Y2405D01*
X9713Y2398D02*
X9723D01*
X9718Y2393D02*
Y2403D01*
X9713Y2445D02*
X9723D01*
X9718Y2440D02*
Y2450D01*
X9713Y2484D02*
X9723D01*
X9718Y2479D02*
Y2489D01*
X9890Y2750D02*
X9900D01*
X9895Y2745D02*
Y2755D01*
X9969Y2802D02*
X9979D01*
X9974Y2797D02*
Y2807D01*
X9740Y2750D02*
X9750D01*
X9745Y2745D02*
Y2755D01*
X9661Y2801D02*
X9671D01*
X9666Y2796D02*
Y2806D01*
X9969Y2659D02*
X9979D01*
X9974Y2654D02*
Y2664D01*
X9890Y2710D02*
X9900D01*
X9895Y2705D02*
Y2715D01*
X9661Y2659D02*
X9671D01*
X9666Y2654D02*
Y2664D01*
X9740Y2710D02*
X9750D01*
X9745Y2705D02*
Y2715D01*
X8674Y2680D02*
X8684D01*
X8679Y2675D02*
Y2685D01*
X8735Y2680D02*
X8745D01*
X8740Y2675D02*
Y2685D01*
X8613Y2680D02*
X8623D01*
X8618Y2675D02*
Y2685D01*
X8613Y2719D02*
X8623D01*
X8618Y2714D02*
Y2724D01*
X8674Y2719D02*
X8684D01*
X8679Y2714D02*
Y2724D01*
X8735Y2719D02*
X8745D01*
X8740Y2714D02*
Y2724D01*
X8734Y2758D02*
X8744D01*
X8739Y2753D02*
Y2763D01*
X8673Y2758D02*
X8683D01*
X8678Y2753D02*
Y2763D01*
X8612Y2758D02*
X8622D01*
X8617Y2753D02*
Y2763D01*
X8490Y2758D02*
X8500D01*
X8495Y2753D02*
Y2763D01*
X8551Y2758D02*
X8561D01*
X8556Y2753D02*
Y2763D01*
X8552Y2719D02*
X8562D01*
X8557Y2714D02*
Y2724D01*
X8491Y2719D02*
X8501D01*
X8496Y2714D02*
Y2724D01*
X8491Y2680D02*
X8501D01*
X8496Y2675D02*
Y2685D01*
X8552Y2680D02*
X8562D01*
X8557Y2675D02*
Y2685D01*
X8368Y2758D02*
X8378D01*
X8373Y2753D02*
Y2763D01*
X8429Y2758D02*
X8439D01*
X8434Y2753D02*
Y2763D01*
X8430Y2719D02*
X8440D01*
X8435Y2714D02*
Y2724D01*
X8369Y2719D02*
X8379D01*
X8374Y2714D02*
Y2724D01*
X8369Y2680D02*
X8379D01*
X8374Y2675D02*
Y2685D01*
X8430Y2680D02*
X8440D01*
X8435Y2675D02*
Y2685D01*
X8537Y2871D02*
X8547D01*
X8542Y2866D02*
Y2876D01*
X8555Y3047D02*
X8565D01*
X8560Y3042D02*
Y3052D01*
X8630Y3047D02*
X8640D01*
X8635Y3042D02*
Y3052D01*
X8480Y3047D02*
X8490D01*
X8485Y3042D02*
Y3052D01*
X8395Y3048D02*
X8405D01*
X8400Y3043D02*
Y3053D01*
X9055Y3057D02*
X9065D01*
X9060Y3052D02*
Y3062D01*
X9087Y3013D02*
X9097D01*
X9092Y3008D02*
Y3018D01*
X7127Y1614D02*
X7137D01*
X7132Y1609D02*
Y1619D01*
X6848Y1506D02*
X6858D01*
X6853Y1501D02*
Y1511D01*
X6808Y1506D02*
X6818D01*
X6813Y1501D02*
Y1511D01*
X6848Y1552D02*
X6858D01*
X6853Y1547D02*
Y1557D01*
X6808Y1552D02*
X6818D01*
X6813Y1547D02*
Y1557D01*
X5842Y1970D02*
X5852D01*
X5847Y1965D02*
Y1975D01*
X7937Y6994D02*
X7947D01*
X7942Y6989D02*
Y6999D01*
X7862Y6894D02*
X7872D01*
X7867Y6889D02*
Y6899D01*
X7900Y6903D02*
X7910D01*
X7905Y6898D02*
Y6908D01*
X7935Y7100D02*
X7945D01*
X7940Y7095D02*
Y7105D01*
X7900Y7105D02*
X7910D01*
X7905Y7100D02*
Y7110D01*
X7863Y7007D02*
X7873D01*
X7868Y7002D02*
Y7012D01*
X9063Y6503D02*
X9073D01*
X9068Y6498D02*
Y6508D01*
X8990Y6537D02*
X9000D01*
X8995Y6532D02*
Y6542D01*
X8983Y6463D02*
X8993D01*
X8988Y6458D02*
Y6468D01*
X9023Y6473D02*
X9033D01*
X9028Y6468D02*
Y6478D01*
X8901Y6500D02*
X8911D01*
X8906Y6495D02*
Y6505D01*
X8795Y6463D02*
X8805D01*
X8800Y6458D02*
Y6468D01*
X8795Y6537D02*
X8805D01*
X8800Y6532D02*
Y6542D01*
X8802Y6665D02*
X8812D01*
X8807Y6660D02*
Y6670D01*
X8715Y6581D02*
X8725D01*
X8720Y6576D02*
Y6586D01*
X8733Y6740D02*
X8743D01*
X8738Y6735D02*
Y6745D01*
X8998Y6733D02*
X9008D01*
X9003Y6728D02*
Y6738D01*
X11000Y5809D02*
X11008D01*
X11004Y5805D02*
Y5813D01*
X4961Y6605D02*
X4971D01*
X4966Y6600D02*
Y6610D01*
X4927Y5981D02*
X4937D01*
X4932Y5976D02*
Y5986D01*
X835Y4656D02*
X845D01*
X840Y4651D02*
Y4661D01*
X942Y4709D02*
X952D01*
X947Y4704D02*
Y4714D01*
X941Y4743D02*
X951D01*
X946Y4738D02*
Y4748D01*
X1217Y4787D02*
X1227D01*
X1222Y4782D02*
Y4792D01*
X1256Y4787D02*
X1266D01*
X1261Y4782D02*
Y4792D01*
X1217Y4743D02*
X1227D01*
X1222Y4738D02*
Y4748D01*
X1256Y4743D02*
X1266D01*
X1261Y4738D02*
Y4748D01*
X1790Y5170D02*
X1800D01*
X1795Y5165D02*
Y5175D01*
X1790Y5123D02*
X1800D01*
X1795Y5118D02*
Y5128D01*
X1790Y5264D02*
X1800D01*
X1795Y5259D02*
Y5269D01*
X1790Y5217D02*
X1800D01*
X1795Y5212D02*
Y5222D01*
X767Y5401D02*
X777D01*
X772Y5396D02*
Y5406D01*
X865Y5401D02*
X875D01*
X870Y5396D02*
Y5406D01*
X950Y5401D02*
X960D01*
X955Y5396D02*
Y5406D01*
X1043Y5401D02*
X1053D01*
X1048Y5396D02*
Y5406D01*
X1147Y5401D02*
X1157D01*
X1152Y5396D02*
Y5406D01*
X1234Y5401D02*
X1244D01*
X1239Y5396D02*
Y5406D01*
X1329Y5401D02*
X1339D01*
X1334Y5396D02*
Y5406D01*
X1413Y5401D02*
X1423D01*
X1418Y5396D02*
Y5406D01*
X1504Y5401D02*
X1514D01*
X1509Y5396D02*
Y5406D01*
X1586Y5401D02*
X1596D01*
X1591Y5396D02*
Y5406D01*
X1673Y5401D02*
X1683D01*
X1678Y5396D02*
Y5406D01*
X1768Y5401D02*
X1778D01*
X1773Y5396D02*
Y5406D01*
X1855Y5401D02*
X1865D01*
X1860Y5396D02*
Y5406D01*
X2071Y5401D02*
X2081D01*
X2076Y5396D02*
Y5406D01*
X1405Y5282D02*
X1415D01*
X1410Y5277D02*
Y5287D01*
X1539Y5334D02*
X1549D01*
X1544Y5329D02*
Y5339D01*
X1389Y5185D02*
X1399D01*
X1394Y5180D02*
Y5190D01*
X1421Y5223D02*
X1431D01*
X1426Y5218D02*
Y5228D01*
X1484Y5219D02*
X1494D01*
X1489Y5214D02*
Y5224D01*
X1478Y5117D02*
X1488D01*
X1483Y5112D02*
Y5122D01*
X1535Y5069D02*
X1545D01*
X1540Y5064D02*
Y5074D01*
X2586Y5204D02*
X2596D01*
X2591Y5199D02*
Y5209D01*
X2518Y5236D02*
X2528D01*
X2523Y5231D02*
Y5241D01*
X2552Y5236D02*
X2562D01*
X2557Y5231D02*
Y5241D01*
X2586Y5236D02*
X2596D01*
X2591Y5231D02*
Y5241D01*
X2749Y5125D02*
X2759D01*
X2754Y5120D02*
Y5130D01*
X2785Y5065D02*
X2795D01*
X2790Y5060D02*
Y5070D01*
X2590Y5065D02*
X2600D01*
X2595Y5060D02*
Y5070D01*
X2635Y5125D02*
X2645D01*
X2640Y5120D02*
Y5130D01*
X2673Y5125D02*
X2683D01*
X2678Y5120D02*
Y5130D01*
X2711Y5125D02*
X2721D01*
X2716Y5120D02*
Y5130D01*
X2815Y4731D02*
X2825D01*
X2820Y4726D02*
Y4736D01*
X2724Y4587D02*
X2734D01*
X2729Y4582D02*
Y4592D01*
X2535Y4626D02*
X2545D01*
X2540Y4621D02*
Y4631D01*
X2667Y4587D02*
X2677D01*
X2672Y4582D02*
Y4592D01*
X2612Y4587D02*
X2622D01*
X2617Y4582D02*
Y4592D01*
X2560Y4587D02*
X2570D01*
X2565Y4582D02*
Y4592D01*
X2250Y5175D02*
X2260D01*
X2255Y5170D02*
Y5180D01*
X2148Y4866D02*
X2158D01*
X2153Y4861D02*
Y4871D01*
X2148Y4898D02*
X2158D01*
X2153Y4893D02*
Y4903D01*
X2183Y4897D02*
X2193D01*
X2188Y4892D02*
Y4902D01*
X2113Y4898D02*
X2123D01*
X2118Y4893D02*
Y4903D01*
X2255Y4632D02*
X2265D01*
X2260Y4627D02*
Y4637D01*
X2064Y4935D02*
X2074D01*
X2069Y4930D02*
Y4940D01*
X2115Y5141D02*
X2125D01*
X2120Y5136D02*
Y5146D01*
X2122Y4654D02*
X2132D01*
X2127Y4649D02*
Y4659D01*
X2160Y5055D02*
X2170D01*
X2165Y5050D02*
Y5060D01*
X2102Y4831D02*
X2112D01*
X2107Y4826D02*
Y4836D01*
X2022Y5100D02*
X2032D01*
X2027Y5095D02*
Y5105D01*
X1974Y4968D02*
X1984D01*
X1979Y4963D02*
Y4973D01*
X1940Y4968D02*
X1950D01*
X1945Y4963D02*
Y4973D01*
X1907Y4936D02*
X1917D01*
X1912Y4931D02*
Y4941D01*
X1940Y4936D02*
X1950D01*
X1945Y4931D02*
Y4941D01*
X1974Y4936D02*
X1984D01*
X1979Y4931D02*
Y4941D01*
X1907Y4903D02*
X1917D01*
X1912Y4898D02*
Y4908D01*
X1940Y4903D02*
X1950D01*
X1945Y4898D02*
Y4908D01*
X1974Y4903D02*
X1984D01*
X1979Y4898D02*
Y4908D01*
X1907Y4968D02*
X1917D01*
X1912Y4963D02*
Y4973D01*
X1987Y5168D02*
X1997D01*
X1992Y5163D02*
Y5173D01*
X1938Y5077D02*
X1948D01*
X1943Y5072D02*
Y5082D01*
X1938Y5047D02*
X1948D01*
X1943Y5042D02*
Y5052D01*
X1880Y5010D02*
X1890D01*
X1885Y5005D02*
Y5015D01*
X2028Y4573D02*
X2038D01*
X2033Y4568D02*
Y4578D01*
X1981Y4573D02*
X1991D01*
X1986Y4568D02*
Y4578D01*
X1882Y4724D02*
X1892D01*
X1887Y4719D02*
Y4729D01*
X2027Y4664D02*
X2037D01*
X2032Y4659D02*
Y4669D01*
X1936Y4824D02*
X1946D01*
X1941Y4819D02*
Y4829D01*
X1880Y4860D02*
X1890D01*
X1885Y4855D02*
Y4865D01*
X1822Y4955D02*
X1832D01*
X1827Y4950D02*
Y4960D01*
X4305Y6860D02*
X4315D01*
X4310Y6855D02*
Y6865D01*
X4305Y6915D02*
X4315D01*
X4310Y6910D02*
Y6920D01*
X4564Y6860D02*
X4574D01*
X4569Y6855D02*
Y6865D01*
X4564Y6915D02*
X4574D01*
X4569Y6910D02*
Y6920D01*
X5454Y6028D02*
X5464D01*
X5459Y6023D02*
Y6033D01*
X5431Y5994D02*
X5441D01*
X5436Y5989D02*
Y5999D01*
X5406Y5962D02*
X5416D01*
X5411Y5957D02*
Y5967D01*
X5383Y6028D02*
X5393D01*
X5388Y6023D02*
Y6033D01*
X5359Y5994D02*
X5369D01*
X5364Y5989D02*
Y5999D01*
X5336Y5962D02*
X5346D01*
X5341Y5957D02*
Y5967D01*
X5312Y6028D02*
X5322D01*
X5317Y6023D02*
Y6033D01*
X5288Y5994D02*
X5298D01*
X5293Y5989D02*
Y5999D01*
X5265Y5962D02*
X5275D01*
X5270Y5957D02*
Y5967D01*
X5241Y6028D02*
X5251D01*
X5246Y6023D02*
Y6033D01*
X5217Y5994D02*
X5227D01*
X5222Y5989D02*
Y5999D01*
X5170Y6158D02*
X5180D01*
X5175Y6153D02*
Y6163D01*
X4814Y6033D02*
X4824D01*
X4819Y6028D02*
Y6038D01*
X4814Y5981D02*
X4824D01*
X4819Y5976D02*
Y5986D01*
X5004Y5981D02*
X5014D01*
X5009Y5976D02*
Y5986D01*
X5442Y6473D02*
X5452D01*
X5447Y6468D02*
Y6478D01*
X5371Y6473D02*
X5381D01*
X5376Y6468D02*
Y6478D01*
X5229Y6473D02*
X5239D01*
X5234Y6468D02*
Y6478D01*
X4897Y6605D02*
X4907D01*
X4902Y6600D02*
Y6610D01*
X5035Y6605D02*
X5045D01*
X5040Y6600D02*
Y6610D01*
X2366Y2480D02*
X2376D01*
X2371Y2475D02*
Y2485D01*
X2496Y2425D02*
X2506D01*
X2501Y2420D02*
Y2430D01*
X2906Y2413D02*
X2916D01*
X2911Y2408D02*
Y2418D01*
X2946Y2414D02*
X2956D01*
X2951Y2409D02*
Y2419D01*
X2749Y2300D02*
X2759D01*
X2754Y2295D02*
Y2305D01*
X2749Y2340D02*
X2759D01*
X2754Y2335D02*
Y2345D01*
X2792Y2391D02*
X2802D01*
X2797Y2386D02*
Y2396D01*
X2953Y2303D02*
X2963D01*
X2958Y2298D02*
Y2308D01*
X2944Y2269D02*
X2954D01*
X2949Y2264D02*
Y2274D01*
X2846Y2260D02*
X2856D01*
X2851Y2255D02*
Y2265D01*
X2846Y2340D02*
X2856D01*
X2851Y2335D02*
Y2345D01*
X2846Y2300D02*
X2856D01*
X2851Y2295D02*
Y2305D01*
X2190Y3891D02*
X2200D01*
X2195Y3886D02*
Y3896D01*
X2306Y3851D02*
X2316D01*
X2311Y3846D02*
Y3856D01*
X2377Y3810D02*
X2387D01*
X2382Y3805D02*
Y3815D01*
X2260Y3891D02*
X2270D01*
X2265Y3886D02*
Y3896D01*
X2122Y3720D02*
X2132D01*
X2127Y3715D02*
Y3725D01*
X2122Y3765D02*
X2132D01*
X2127Y3760D02*
Y3770D01*
X2122Y3810D02*
X2132D01*
X2127Y3805D02*
Y3815D01*
X2122Y3855D02*
X2132D01*
X2127Y3850D02*
Y3860D01*
X2074Y3832D02*
X2084D01*
X2079Y3828D02*
Y3838D01*
X2600Y4018D02*
X2610D01*
X2605Y4013D02*
Y4023D01*
X2555Y4018D02*
X2565D01*
X2560Y4013D02*
Y4023D01*
X2510Y4018D02*
X2520D01*
X2515Y4013D02*
Y4023D01*
X2465Y4018D02*
X2475D01*
X2470Y4013D02*
Y4023D01*
X2420Y4018D02*
X2430D01*
X2425Y4013D02*
Y4023D01*
X2375Y4018D02*
X2385D01*
X2380Y4013D02*
Y4023D01*
X2433Y3760D02*
X2443D01*
X2438Y3755D02*
Y3765D01*
X2476Y3760D02*
X2486D01*
X2481Y3755D02*
Y3765D01*
X2520Y3717D02*
X2530D01*
X2525Y3712D02*
Y3722D01*
X2520Y3760D02*
X2530D01*
X2525Y3755D02*
Y3765D01*
X2520Y3676D02*
X2530D01*
X2525Y3671D02*
Y3681D01*
X2460Y3545D02*
X2470D01*
X2465Y3540D02*
Y3550D01*
X2426Y3839D02*
X2436D01*
X2431Y3834D02*
Y3844D01*
X2776Y3807D02*
X2786D01*
X2781Y3803D02*
Y3812D01*
X2748Y3740D02*
X2758D01*
X2753Y3735D02*
Y3745D01*
X2748Y3695D02*
X2758D01*
X2753Y3690D02*
Y3700D01*
X2567Y3585D02*
X2577D01*
X2572Y3580D02*
Y3590D01*
X2665Y3589D02*
X2675D01*
X2670Y3584D02*
Y3594D01*
X2720Y3589D02*
X2730D01*
X2725Y3584D02*
Y3594D01*
X2780Y3589D02*
X2790D01*
X2785Y3584D02*
Y3594D01*
X2537Y3210D02*
X2547D01*
X2542Y3205D02*
Y3215D01*
X2503Y3210D02*
X2513D01*
X2508Y3205D02*
Y3215D01*
X2613Y3370D02*
X2623D01*
X2618Y3365D02*
Y3375D01*
X2426Y3370D02*
X2436D01*
X2431Y3365D02*
Y3375D01*
X2235Y3412D02*
X2245D01*
X2240Y3407D02*
Y3417D01*
X2290Y3428D02*
X2300D01*
X2295Y3423D02*
Y3433D01*
X2340Y3472D02*
X2350D01*
X2345Y3467D02*
Y3477D01*
X2476Y3717D02*
X2486D01*
X2481Y3712D02*
Y3722D01*
X2433Y3717D02*
X2443D01*
X2438Y3712D02*
Y3722D01*
X2476Y3676D02*
X2486D01*
X2481Y3671D02*
Y3681D01*
X2433Y3676D02*
X2443D01*
X2438Y3671D02*
Y3681D01*
X8740Y5963D02*
X8750D01*
X8745Y5958D02*
Y5968D01*
X8812Y5969D02*
X8822D01*
X8817Y5964D02*
Y5974D01*
X8955Y6184D02*
X8965D01*
X8960Y6179D02*
Y6189D01*
X8898Y6227D02*
X8908D01*
X8903Y6222D02*
Y6232D01*
X8994Y6113D02*
X9004D01*
X8999Y6108D02*
Y6118D01*
X9606Y6553D02*
X9616D01*
X9611Y6548D02*
Y6558D01*
X9515Y6804D02*
X9525D01*
X9520Y6799D02*
Y6809D01*
X9177Y6568D02*
X9187D01*
X9182Y6563D02*
Y6573D01*
X9223Y6568D02*
X9233D01*
X9228Y6563D02*
Y6573D01*
X9352Y6630D02*
X9362D01*
X9357Y6625D02*
Y6635D01*
X9396Y6784D02*
X9406D01*
X9401Y6779D02*
Y6789D01*
X9425Y6973D02*
X9435D01*
X9430Y6968D02*
Y6978D01*
X9385Y7009D02*
X9395D01*
X9390Y7004D02*
Y7014D01*
X9096Y6878D02*
X9106D01*
X9101Y6873D02*
Y6883D01*
X9142Y6878D02*
X9152D01*
X9147Y6873D02*
Y6883D01*
X8977Y6772D02*
X8987D01*
X8982Y6767D02*
Y6777D01*
X8934Y6772D02*
X8944D01*
X8939Y6767D02*
Y6777D01*
X8848Y6772D02*
X8858D01*
X8853Y6767D02*
Y6777D01*
X8718Y6772D02*
X8728D01*
X8723Y6767D02*
Y6777D01*
X9021Y6772D02*
X9031D01*
X9026Y6767D02*
Y6777D01*
X8804Y6772D02*
X8814D01*
X8809Y6767D02*
Y6777D01*
X8761Y6772D02*
X8771D01*
X8766Y6767D02*
Y6777D01*
X9110Y6715D02*
X9120D01*
X9115Y6710D02*
Y6720D01*
X9166Y6652D02*
X9176D01*
X9171Y6647D02*
Y6657D01*
X9219Y6715D02*
X9229D01*
X9224Y6710D02*
Y6720D01*
X9110Y7042D02*
X9120D01*
X9115Y7037D02*
Y7047D01*
X9166Y6979D02*
X9176D01*
X9171Y6974D02*
Y6984D01*
X9219Y7042D02*
X9229D01*
X9224Y7037D02*
Y7047D01*
X8568Y6715D02*
X8578D01*
X8573Y6710D02*
Y6720D01*
X8624Y6652D02*
X8634D01*
X8629Y6647D02*
Y6657D01*
X8677Y6715D02*
X8687D01*
X8682Y6710D02*
Y6720D01*
X8677Y7042D02*
X8687D01*
X8682Y7037D02*
Y7047D01*
X8624Y6979D02*
X8634D01*
X8629Y6974D02*
Y6984D01*
X8568Y7042D02*
X8578D01*
X8573Y7037D02*
Y7047D01*
X7261Y6473D02*
X7271D01*
X7266Y6468D02*
Y6478D01*
X7166Y6473D02*
X7176D01*
X7171Y6468D02*
Y6478D01*
X7426Y6358D02*
X7436D01*
X7431Y6353D02*
Y6363D01*
X7379Y6471D02*
X7389D01*
X7384Y6466D02*
Y6476D01*
X7482Y6576D02*
X7492D01*
X7487Y6571D02*
Y6581D01*
X7609Y6576D02*
X7619D01*
X7614Y6571D02*
Y6581D01*
X7550Y6576D02*
X7560D01*
X7555Y6571D02*
Y6581D01*
X7450Y6483D02*
X7460D01*
X7455Y6478D02*
Y6488D01*
X7001Y6510D02*
X7011D01*
X7006Y6505D02*
Y6515D01*
X7793Y7105D02*
X7802D01*
X7798Y7100D02*
Y7110D01*
X7793Y7045D02*
X7802D01*
X7798Y7040D02*
Y7050D01*
X7793Y6985D02*
X7802D01*
X7798Y6980D02*
Y6990D01*
X7766Y7075D02*
X7776D01*
X7771Y7070D02*
Y7080D01*
X7770Y7135D02*
X7780D01*
X7775Y7130D02*
Y7140D01*
X7980Y7289D02*
X7990D01*
X7985Y7284D02*
Y7294D01*
X7736Y7289D02*
X7746D01*
X7741Y7284D02*
Y7294D01*
X8018Y6885D02*
X8028D01*
X8023Y6880D02*
Y6890D01*
X8018Y6964D02*
X8028D01*
X8023Y6959D02*
Y6969D01*
X8018Y7043D02*
X8028D01*
X8023Y7038D02*
Y7048D01*
X7971Y6751D02*
X7981D01*
X7976Y6746D02*
Y6756D01*
X8339Y7121D02*
X8349D01*
X8344Y7116D02*
Y7126D01*
X8339Y7043D02*
X8349D01*
X8344Y7038D02*
Y7048D01*
X8339Y6964D02*
X8349D01*
X8344Y6959D02*
Y6969D01*
X8339Y6885D02*
X8349D01*
X8344Y6880D02*
Y6890D01*
X8339Y6806D02*
X8349D01*
X8344Y6801D02*
Y6811D01*
X8339Y6728D02*
X8349D01*
X8344Y6723D02*
Y6733D01*
X7865Y6394D02*
X7875D01*
X7870Y6389D02*
Y6399D01*
X9433Y4735D02*
X9443D01*
X9438Y4730D02*
Y4740D01*
X9703Y4735D02*
X9713D01*
X9708Y4730D02*
Y4740D01*
X9936Y5165D02*
X9946D01*
X9941Y5160D02*
Y5170D01*
X9574Y5227D02*
X9584D01*
X9579Y5222D02*
Y5232D01*
X9602Y5259D02*
X9612D01*
X9607Y5254D02*
Y5264D01*
X9573Y5191D02*
X9583D01*
X9578Y5186D02*
Y5196D01*
X9673Y5165D02*
X9683D01*
X9678Y5160D02*
Y5170D01*
X9725Y5165D02*
X9735D01*
X9730Y5160D02*
Y5170D01*
X9751Y5125D02*
X9761D01*
X9756Y5120D02*
Y5130D01*
X9724Y5085D02*
X9734D01*
X9729Y5080D02*
Y5090D01*
X9755Y5045D02*
X9765D01*
X9760Y5040D02*
Y5050D01*
X9724Y5005D02*
X9734D01*
X9729Y5000D02*
Y5010D01*
X9641Y4911D02*
X9651D01*
X9646Y4906D02*
Y4916D01*
X9605Y4936D02*
X9615D01*
X9610Y4931D02*
Y4941D01*
X8819Y4984D02*
X8829D01*
X8824Y4979D02*
Y4989D01*
X9577Y4911D02*
X9587D01*
X9582Y4906D02*
Y4916D01*
X9554Y4984D02*
X9564D01*
X9559Y4979D02*
Y4989D01*
X9525Y4924D02*
X9535D01*
X9530Y4919D02*
Y4929D01*
X9485Y4889D02*
X9495D01*
X9490Y4884D02*
Y4894D01*
X9198Y5195D02*
X9208D01*
X9203Y5190D02*
Y5200D01*
X9198Y4954D02*
X9208D01*
X9203Y4949D02*
Y4959D01*
X9383Y5075D02*
X9393D01*
X9388Y5070D02*
Y5080D01*
X9410Y5046D02*
X9420D01*
X9415Y5041D02*
Y5051D01*
X9370Y5019D02*
X9380D01*
X9375Y5014D02*
Y5024D01*
X8838Y5232D02*
X8848D01*
X8843Y5227D02*
Y5237D01*
X8860Y5256D02*
X8870D01*
X8865Y5251D02*
Y5261D01*
X8840Y5193D02*
X8850D01*
X8845Y5188D02*
Y5198D01*
X8768Y5226D02*
X8778D01*
X8773Y5221D02*
Y5231D01*
X8941Y5163D02*
X8951D01*
X8946Y5158D02*
Y5168D01*
X8963Y5127D02*
X8973D01*
X8968Y5122D02*
Y5132D01*
X9024Y5101D02*
X9034D01*
X9029Y5096D02*
Y5106D01*
X8947Y5074D02*
X8957D01*
X8952Y5069D02*
Y5079D01*
X8985Y5044D02*
X8995D01*
X8990Y5039D02*
Y5049D01*
X8935Y5014D02*
X8945D01*
X8940Y5009D02*
Y5019D01*
X8459Y5190D02*
X8469D01*
X8464Y5185D02*
Y5195D01*
X8459Y5149D02*
X8469D01*
X8464Y5144D02*
Y5154D01*
X8635Y5149D02*
X8645D01*
X8640Y5144D02*
Y5154D01*
X8664Y5128D02*
X8674D01*
X8669Y5123D02*
Y5133D01*
X8634Y5101D02*
X8644D01*
X8639Y5096D02*
Y5106D01*
X8667Y5075D02*
X8677D01*
X8672Y5070D02*
Y5080D01*
X8667Y5026D02*
X8677D01*
X8672Y5021D02*
Y5031D01*
X9064Y4738D02*
X9074D01*
X9069Y4733D02*
Y4743D01*
X9064Y4701D02*
X9074D01*
X9069Y4696D02*
Y4706D01*
X8906Y4911D02*
X8916D01*
X8911Y4906D02*
Y4916D01*
X8870Y4936D02*
X8880D01*
X8875Y4931D02*
Y4941D01*
X8842Y4911D02*
X8852D01*
X8847Y4906D02*
Y4916D01*
X8790Y4924D02*
X8800D01*
X8795Y4919D02*
Y4929D01*
X8765Y4889D02*
X8775D01*
X8770Y4884D02*
Y4894D01*
X7382Y3122D02*
X7392D01*
X7387Y3117D02*
Y3127D01*
X7272Y2990D02*
X7282D01*
X7277Y2985D02*
Y2995D01*
X7554Y3392D02*
X7564D01*
X7559Y3387D02*
Y3397D01*
X7594Y3392D02*
X7604D01*
X7599Y3387D02*
Y3397D01*
X7511Y3392D02*
X7521D01*
X7516Y3387D02*
Y3397D01*
X7370Y3464D02*
X7380D01*
X7375Y3459D02*
Y3469D01*
X7420Y3464D02*
X7430D01*
X7425Y3459D02*
Y3469D01*
X7470Y3464D02*
X7480D01*
X7475Y3459D02*
Y3469D01*
X7426Y3292D02*
X7436D01*
X7431Y3287D02*
Y3297D01*
X7253Y3441D02*
X7263D01*
X7258Y3436D02*
Y3446D01*
X7045Y3919D02*
X7055D01*
X7050Y3914D02*
Y3924D01*
X7093Y3912D02*
X7103D01*
X7098Y3907D02*
Y3917D01*
X7069Y3874D02*
X7079D01*
X7074Y3869D02*
Y3879D01*
X7115Y3874D02*
X7125D01*
X7120Y3869D02*
Y3879D01*
X7053Y3749D02*
X7063D01*
X7058Y3744D02*
Y3754D01*
X7093Y3749D02*
X7103D01*
X7098Y3744D02*
Y3754D01*
X7152Y3749D02*
X7162D01*
X7157Y3744D02*
Y3754D01*
X7073Y3723D02*
X7083D01*
X7078Y3718D02*
Y3728D01*
X6900Y4095D02*
X6910D01*
X6905Y4090D02*
Y4100D01*
X6950Y4095D02*
X6960D01*
X6955Y4090D02*
Y4100D01*
X6956Y3855D02*
X6966D01*
X6961Y3850D02*
Y3860D01*
X6741Y3697D02*
X6751D01*
X6746Y3692D02*
Y3702D01*
X6625Y3723D02*
X6635D01*
X6630Y3718D02*
Y3728D01*
X6439Y3668D02*
X6449D01*
X6444Y3663D02*
Y3673D01*
X6735Y3579D02*
X6745D01*
X6740Y3574D02*
Y3584D01*
X6758Y3548D02*
X6768D01*
X6763Y3543D02*
Y3553D01*
X6739Y3520D02*
X6749D01*
X6744Y3515D02*
Y3525D01*
X6410Y3540D02*
X6420D01*
X6415Y3535D02*
Y3545D01*
X6370Y3515D02*
X6380D01*
X6375Y3510D02*
Y3520D01*
X6410Y3490D02*
X6420D01*
X6415Y3485D02*
Y3495D01*
X6410Y3440D02*
X6420D01*
X6415Y3435D02*
Y3445D01*
X6369Y3465D02*
X6379D01*
X6374Y3460D02*
Y3470D01*
X6410Y3391D02*
X6420D01*
X6415Y3386D02*
Y3396D01*
X6369Y3365D02*
X6379D01*
X6374Y3360D02*
Y3370D01*
X6410Y3340D02*
X6420D01*
X6415Y3335D02*
Y3345D01*
X6410Y3290D02*
X6420D01*
X6415Y3285D02*
Y3295D01*
X6408Y3240D02*
X6418D01*
X6413Y3235D02*
Y3245D01*
X6369Y3265D02*
X6379D01*
X6374Y3260D02*
Y3270D01*
X6440Y3107D02*
X6450D01*
X6445Y3102D02*
Y3112D01*
X6664Y3169D02*
X6674D01*
X6669Y3164D02*
Y3174D01*
X6895Y2869D02*
X6905D01*
X6900Y2864D02*
Y2874D01*
X6945Y2869D02*
X6955D01*
X6950Y2864D02*
Y2874D01*
X6995Y2869D02*
X7005D01*
X7000Y2864D02*
Y2874D01*
X7045Y2869D02*
X7055D01*
X7050Y2864D02*
Y2874D01*
X7120Y2908D02*
X7130D01*
X7125Y2903D02*
Y2913D01*
X7147Y2934D02*
X7157D01*
X7152Y2929D02*
Y2939D01*
X7070Y2908D02*
X7080D01*
X7075Y2903D02*
Y2913D01*
X7020Y2908D02*
X7030D01*
X7025Y2903D02*
Y2913D01*
X6970Y2908D02*
X6980D01*
X6975Y2903D02*
Y2913D01*
X6920Y2908D02*
X6930D01*
X6925Y2903D02*
Y2913D01*
X6870Y2908D02*
X6880D01*
X6875Y2903D02*
Y2913D01*
X6820Y2908D02*
X6830D01*
X6825Y2903D02*
Y2913D01*
X6770Y2908D02*
X6780D01*
X6775Y2903D02*
Y2913D01*
X6720Y2908D02*
X6730D01*
X6725Y2903D02*
Y2913D01*
X6670Y2908D02*
X6680D01*
X6675Y2903D02*
Y2913D01*
X7034Y3238D02*
X7044D01*
X7039Y3233D02*
Y3243D01*
X3298Y2360D02*
X3308D01*
X3303Y2355D02*
Y2365D01*
X3321Y2723D02*
X3331D01*
X3326Y2718D02*
Y2728D01*
X3321Y2757D02*
X3331D01*
X3326Y2752D02*
Y2762D01*
X3290Y2791D02*
X3300D01*
X3295Y2786D02*
Y2796D01*
X4990Y5166D02*
X5000D01*
X4995Y5161D02*
Y5171D01*
X4873Y5057D02*
X4883D01*
X4878Y5052D02*
Y5062D01*
X5072Y5234D02*
X5082D01*
X5077Y5229D02*
Y5239D01*
X4988Y5236D02*
X4998D01*
X4993Y5231D02*
Y5241D01*
X5074Y5387D02*
X5084D01*
X5079Y5382D02*
Y5392D01*
X5107Y5387D02*
X5117D01*
X5112Y5382D02*
Y5392D01*
X4940Y5395D02*
X4950D01*
X4945Y5390D02*
Y5400D01*
X4824Y5125D02*
X4834D01*
X4829Y5120D02*
Y5130D01*
X4840Y5153D02*
X4850D01*
X4845Y5148D02*
Y5158D01*
X4665Y5250D02*
X4675D01*
X4670Y5245D02*
Y5255D01*
X4665Y5284D02*
X4675D01*
X4670Y5279D02*
Y5289D01*
X4735Y5224D02*
X4745D01*
X4740Y5219D02*
Y5229D01*
X4688Y5325D02*
X4698D01*
X4693Y5320D02*
Y5330D01*
X4641Y5382D02*
X4651D01*
X4646Y5377D02*
Y5387D01*
X4912Y5367D02*
X4922D01*
X4917Y5362D02*
Y5372D01*
X4102Y1947D02*
X4112D01*
X4107Y1942D02*
Y1952D01*
X4102Y2063D02*
X4112D01*
X4107Y2058D02*
Y2068D01*
X937Y1113D02*
X947D01*
X942Y1108D02*
Y1118D01*
X823Y1113D02*
X833D01*
X828Y1108D02*
Y1118D01*
X1562Y1113D02*
X1572D01*
X1567Y1108D02*
Y1118D01*
X1448Y1113D02*
X1458D01*
X1453Y1108D02*
Y1118D01*
X2187Y1113D02*
X2197D01*
X2192Y1108D02*
Y1118D01*
X2073Y1113D02*
X2083D01*
X2078Y1108D02*
Y1118D01*
X2812Y1113D02*
X2822D01*
X2817Y1108D02*
Y1118D01*
X2698Y1113D02*
X2708D01*
X2703Y1108D02*
Y1118D01*
X3437Y1113D02*
X3447D01*
X3442Y1108D02*
Y1118D01*
X3323Y1113D02*
X3333D01*
X3328Y1108D02*
Y1118D01*
X4062Y1113D02*
X4072D01*
X4067Y1108D02*
Y1118D01*
X3948Y1113D02*
X3958D01*
X3953Y1108D02*
Y1118D01*
X4687Y1113D02*
X4697D01*
X4692Y1108D02*
Y1118D01*
X4573Y1113D02*
X4583D01*
X4578Y1108D02*
Y1118D01*
X5198Y1113D02*
X5208D01*
X5203Y1108D02*
Y1118D01*
X5312Y1113D02*
X5322D01*
X5317Y1108D02*
Y1118D01*
X11190Y6373D02*
X11200D01*
X11195Y6368D02*
Y6378D01*
X11374Y6250D02*
X11384D01*
X11379Y6245D02*
Y6255D01*
X11408Y6217D02*
X11418D01*
X11413Y6212D02*
Y6222D01*
X11524Y6250D02*
X11534D01*
X11529Y6245D02*
Y6255D01*
X11558Y6217D02*
X11568D01*
X11563Y6212D02*
Y6222D01*
X11674Y6250D02*
X11684D01*
X11679Y6245D02*
Y6255D01*
X11708Y6217D02*
X11718D01*
X11713Y6212D02*
Y6222D01*
X11858Y6217D02*
X11868D01*
X11863Y6212D02*
Y6222D01*
X11824Y6250D02*
X11834D01*
X11829Y6245D02*
Y6255D01*
X11335Y6313D02*
X11345D01*
X11340Y6308D02*
Y6318D01*
X11485Y6313D02*
X11495D01*
X11490Y6308D02*
Y6318D01*
X11635Y6313D02*
X11645D01*
X11640Y6308D02*
Y6318D01*
X11785Y6313D02*
X11795D01*
X11790Y6308D02*
Y6318D01*
X10832Y6220D02*
X10842D01*
X10837Y6215D02*
Y6225D01*
X10834Y5381D02*
X10844D01*
X10839Y5376D02*
Y5386D01*
X11165Y6036D02*
X11175D01*
X11170Y6031D02*
Y6041D01*
X11124Y5995D02*
X11134D01*
X11129Y5990D02*
Y6000D01*
X11107Y5504D02*
X11117D01*
X11112Y5499D02*
Y5509D01*
X11164Y5458D02*
X11174D01*
X11169Y5453D02*
Y5463D01*
X11028Y6392D02*
X11038D01*
X11033Y6387D02*
Y6397D01*
X11028Y6448D02*
X11038D01*
X11033Y6443D02*
Y6453D01*
X11065Y6480D02*
X11075D01*
X11070Y6475D02*
Y6485D01*
X11245Y6505D02*
X11255D01*
X11250Y6500D02*
Y6510D01*
X11208Y6473D02*
X11218D01*
X11213Y6468D02*
Y6478D01*
X11828Y4562D02*
X11848D01*
X11838Y4552D02*
Y4572D01*
X11675Y1750D02*
X11685D01*
X11680Y1745D02*
Y1755D01*
X11615Y2225D02*
X11625D01*
X11620Y2220D02*
Y2230D01*
X11675Y2125D02*
X11685D01*
X11680Y2120D02*
Y2130D01*
X11615Y1650D02*
X11625D01*
X11620Y1645D02*
Y1655D01*
X11675Y900D02*
X11685D01*
X11680Y895D02*
Y905D01*
X11615Y1000D02*
X11625D01*
X11620Y995D02*
Y1005D01*
X12090Y6520D02*
X12100D01*
X12095Y6515D02*
Y6525D01*
X12090Y6481D02*
X12100D01*
X12095Y6476D02*
Y6486D01*
X12090Y6257D02*
X12100D01*
X12095Y6252D02*
Y6262D01*
X12090Y6320D02*
X12100D01*
X12095Y6315D02*
Y6325D01*
X12090Y6385D02*
X12100D01*
X12095Y6380D02*
Y6390D01*
X12045Y6396D02*
X12055D01*
X12050Y6391D02*
Y6401D01*
X11978Y6225D02*
X11988D01*
X11983Y6220D02*
Y6230D01*
X11977Y6407D02*
X11987D01*
X11982Y6402D02*
Y6412D01*
X12189Y6631D02*
X12199D01*
X12194Y6626D02*
Y6636D01*
X4547Y2500D02*
X4557D01*
X4552Y2495D02*
Y2505D01*
X4338Y2151D02*
X4348D01*
X4343Y2146D02*
Y2156D01*
X4355Y1960D02*
X4365D01*
X4360Y1955D02*
Y1965D01*
X4422Y1845D02*
X4432D01*
X4427Y1840D02*
Y1850D01*
X4072Y1985D02*
X4082D01*
X4077Y1980D02*
Y1990D01*
X4072Y2025D02*
X4082D01*
X4077Y2020D02*
Y2030D01*
X4248Y1985D02*
X4258D01*
X4253Y1980D02*
Y1990D01*
X4248Y2025D02*
X4258D01*
X4253Y2020D02*
Y2030D01*
X4020Y2005D02*
X4030D01*
X4025Y2000D02*
Y2010D01*
X4430Y2068D02*
X4440D01*
X4435Y2063D02*
Y2073D01*
X4512Y1935D02*
X4522D01*
X4517Y1930D02*
Y1940D01*
X4732Y2006D02*
X4742D01*
X4737Y2001D02*
Y2011D01*
X4735Y1909D02*
X4745D01*
X4740Y1904D02*
Y1914D01*
X4700Y1928D02*
X4710D01*
X4705Y1923D02*
Y1933D01*
X4529Y2076D02*
X4539D01*
X4534Y2071D02*
Y2081D01*
X4529Y2034D02*
X4539D01*
X4534Y2029D02*
Y2039D01*
X4571Y2076D02*
X4581D01*
X4576Y2071D02*
Y2081D01*
X4571Y2034D02*
X4581D01*
X4576Y2029D02*
Y2039D01*
X11062Y245D02*
X11072D01*
X11067Y240D02*
Y250D01*
X10728Y245D02*
X10738D01*
X10733Y240D02*
Y250D01*
X885Y401D02*
X895D01*
X890Y396D02*
Y406D01*
X803Y245D02*
X813D01*
X808Y240D02*
Y250D01*
X1137Y245D02*
X1147D01*
X1142Y240D02*
Y250D01*
X815Y530D02*
X825D01*
X820Y525D02*
Y535D01*
X1013Y738D02*
X1023D01*
X1018Y733D02*
Y743D01*
X1050Y738D02*
X1060D01*
X1055Y733D02*
Y743D01*
X945Y774D02*
X955D01*
X950Y769D02*
Y779D01*
X911Y644D02*
X921D01*
X916Y639D02*
Y649D01*
X953Y644D02*
X963D01*
X958Y639D02*
Y649D01*
X860Y279D02*
X870D01*
X865Y274D02*
Y284D01*
X911Y686D02*
X921D01*
X916Y681D02*
Y691D01*
X953Y686D02*
X963D01*
X958Y681D02*
Y691D01*
X5260Y401D02*
X5270D01*
X5265Y396D02*
Y406D01*
X5178Y245D02*
X5188D01*
X5183Y240D02*
Y250D01*
X5512Y245D02*
X5522D01*
X5517Y240D02*
Y250D01*
X5388Y738D02*
X5398D01*
X5393Y733D02*
Y743D01*
X5425Y738D02*
X5435D01*
X5430Y733D02*
Y743D01*
X5320Y774D02*
X5330D01*
X5325Y769D02*
Y779D01*
X5286Y644D02*
X5296D01*
X5291Y639D02*
Y649D01*
X5328Y644D02*
X5338D01*
X5333Y639D02*
Y649D01*
X5235Y279D02*
X5245D01*
X5240Y274D02*
Y284D01*
X5286Y686D02*
X5296D01*
X5291Y681D02*
Y691D01*
X5328Y686D02*
X5338D01*
X5333Y681D02*
Y691D01*
X4635Y401D02*
X4645D01*
X4640Y396D02*
Y406D01*
X4553Y245D02*
X4563D01*
X4558Y240D02*
Y250D01*
X4887Y245D02*
X4897D01*
X4892Y240D02*
Y250D01*
X4565Y530D02*
X4575D01*
X4570Y525D02*
Y535D01*
X4763Y738D02*
X4773D01*
X4768Y733D02*
Y743D01*
X4800Y738D02*
X4810D01*
X4805Y733D02*
Y743D01*
X4695Y774D02*
X4705D01*
X4700Y769D02*
Y779D01*
X4661Y644D02*
X4671D01*
X4666Y639D02*
Y649D01*
X4703Y644D02*
X4713D01*
X4708Y639D02*
Y649D01*
X4610Y279D02*
X4620D01*
X4615Y274D02*
Y284D01*
X4661Y686D02*
X4671D01*
X4666Y681D02*
Y691D01*
X4703Y686D02*
X4713D01*
X4708Y681D02*
Y691D01*
X4010Y401D02*
X4020D01*
X4015Y396D02*
Y406D01*
X3928Y245D02*
X3938D01*
X3933Y240D02*
Y250D01*
X4262Y245D02*
X4272D01*
X4267Y240D02*
Y250D01*
X3940Y530D02*
X3950D01*
X3945Y525D02*
Y535D01*
X4138Y738D02*
X4148D01*
X4143Y733D02*
Y743D01*
X4175Y738D02*
X4185D01*
X4180Y733D02*
Y743D01*
X4070Y774D02*
X4080D01*
X4075Y769D02*
Y779D01*
X4036Y644D02*
X4046D01*
X4041Y639D02*
Y649D01*
X4078Y644D02*
X4088D01*
X4083Y639D02*
Y649D01*
X3985Y279D02*
X3995D01*
X3990Y274D02*
Y284D01*
X4036Y686D02*
X4046D01*
X4041Y681D02*
Y691D01*
X4078Y686D02*
X4088D01*
X4083Y681D02*
Y691D01*
X3385Y401D02*
X3395D01*
X3390Y396D02*
Y406D01*
X3303Y245D02*
X3313D01*
X3308Y240D02*
Y250D01*
X3637Y245D02*
X3647D01*
X3642Y240D02*
Y250D01*
X3315Y530D02*
X3325D01*
X3320Y525D02*
Y535D01*
X3513Y738D02*
X3523D01*
X3518Y733D02*
Y743D01*
X3550Y738D02*
X3560D01*
X3555Y733D02*
Y743D01*
X3445Y774D02*
X3455D01*
X3450Y769D02*
Y779D01*
X3411Y644D02*
X3421D01*
X3416Y639D02*
Y649D01*
X3453Y644D02*
X3463D01*
X3458Y639D02*
Y649D01*
X3360Y279D02*
X3370D01*
X3365Y274D02*
Y284D01*
X3411Y686D02*
X3421D01*
X3416Y681D02*
Y691D01*
X3453Y686D02*
X3463D01*
X3458Y681D02*
Y691D01*
X2760Y401D02*
X2770D01*
X2765Y396D02*
Y406D01*
X2678Y245D02*
X2688D01*
X2683Y240D02*
Y250D01*
X3012Y245D02*
X3022D01*
X3017Y240D02*
Y250D01*
X2690Y530D02*
X2700D01*
X2695Y525D02*
Y535D01*
X2888Y738D02*
X2898D01*
X2893Y733D02*
Y743D01*
X2925Y738D02*
X2935D01*
X2930Y733D02*
Y743D01*
X2820Y774D02*
X2830D01*
X2825Y769D02*
Y779D01*
X2786Y644D02*
X2796D01*
X2791Y639D02*
Y649D01*
X2828Y644D02*
X2838D01*
X2833Y639D02*
Y649D01*
X2735Y279D02*
X2745D01*
X2740Y274D02*
Y284D01*
X2786Y686D02*
X2796D01*
X2791Y681D02*
Y691D01*
X2828Y686D02*
X2838D01*
X2833Y681D02*
Y691D01*
X1578Y686D02*
X1588D01*
X1583Y681D02*
Y691D01*
X1536Y686D02*
X1546D01*
X1541Y681D02*
Y691D01*
X1485Y279D02*
X1495D01*
X1490Y274D02*
Y284D01*
X1578Y644D02*
X1588D01*
X1583Y639D02*
Y649D01*
X1536Y644D02*
X1546D01*
X1541Y639D02*
Y649D01*
X1570Y774D02*
X1580D01*
X1575Y769D02*
Y779D01*
X1675Y738D02*
X1685D01*
X1680Y733D02*
Y743D01*
X1638Y738D02*
X1648D01*
X1643Y733D02*
Y743D01*
X1440Y530D02*
X1450D01*
X1445Y525D02*
Y535D01*
X1762Y245D02*
X1772D01*
X1767Y240D02*
Y250D01*
X1428Y245D02*
X1438D01*
X1433Y240D02*
Y250D01*
X1510Y401D02*
X1520D01*
X1515Y396D02*
Y406D01*
X2135Y401D02*
X2145D01*
X2140Y396D02*
Y406D01*
X2053Y245D02*
X2063D01*
X2058Y240D02*
Y250D01*
X2387Y245D02*
X2397D01*
X2392Y240D02*
Y250D01*
X2065Y530D02*
X2075D01*
X2070Y525D02*
Y535D01*
X2263Y738D02*
X2273D01*
X2268Y733D02*
Y743D01*
X2300Y738D02*
X2310D01*
X2305Y733D02*
Y743D01*
X2161Y644D02*
X2171D01*
X2166Y639D02*
Y649D01*
X2203Y644D02*
X2213D01*
X2208Y639D02*
Y649D01*
X2110Y279D02*
X2120D01*
X2115Y274D02*
Y284D01*
X2161Y686D02*
X2171D01*
X2166Y681D02*
Y691D01*
X2203Y686D02*
X2213D01*
X2208Y681D02*
Y691D01*
X4048Y920D02*
X4058D01*
X4053Y915D02*
Y925D01*
X841Y887D02*
X851D01*
X846Y882D02*
Y892D01*
X923Y920D02*
X933D01*
X928Y915D02*
Y925D01*
X857Y1207D02*
X867D01*
X862Y1202D02*
Y1212D01*
X903Y1207D02*
X913D01*
X908Y1202D02*
Y1212D01*
X860Y1143D02*
X870D01*
X865Y1138D02*
Y1148D01*
X900Y1143D02*
X910D01*
X905Y1138D02*
Y1148D01*
X860Y967D02*
X870D01*
X865Y962D02*
Y972D01*
X900Y967D02*
X910D01*
X905Y962D02*
Y972D01*
X4650Y967D02*
X4660D01*
X4655Y962D02*
Y972D01*
X4610Y967D02*
X4620D01*
X4615Y962D02*
Y972D01*
X4650Y1143D02*
X4660D01*
X4655Y1138D02*
Y1148D01*
X4610Y1143D02*
X4620D01*
X4615Y1138D02*
Y1148D01*
X4653Y1207D02*
X4663D01*
X4658Y1202D02*
Y1212D01*
X4607Y1207D02*
X4617D01*
X4612Y1202D02*
Y1212D01*
X4673Y920D02*
X4683D01*
X4678Y915D02*
Y925D01*
X4591Y887D02*
X4601D01*
X4596Y882D02*
Y892D01*
X5275Y967D02*
X5285D01*
X5280Y962D02*
Y972D01*
X5235Y967D02*
X5245D01*
X5240Y962D02*
Y972D01*
X5275Y1143D02*
X5285D01*
X5280Y1138D02*
Y1148D01*
X5235Y1143D02*
X5245D01*
X5240Y1138D02*
Y1148D01*
X5278Y1207D02*
X5288D01*
X5283Y1202D02*
Y1212D01*
X5232Y1207D02*
X5242D01*
X5237Y1202D02*
Y1212D01*
X4025Y967D02*
X4035D01*
X4030Y962D02*
Y972D01*
X3985Y967D02*
X3995D01*
X3990Y962D02*
Y972D01*
X4025Y1143D02*
X4035D01*
X4030Y1138D02*
Y1148D01*
X3985Y1143D02*
X3995D01*
X3990Y1138D02*
Y1148D01*
X4028Y1207D02*
X4038D01*
X4033Y1202D02*
Y1212D01*
X3982Y1207D02*
X3992D01*
X3987Y1202D02*
Y1212D01*
X3966Y887D02*
X3976D01*
X3971Y882D02*
Y892D01*
X3400Y967D02*
X3410D01*
X3405Y962D02*
Y972D01*
X3360Y967D02*
X3370D01*
X3365Y962D02*
Y972D01*
X3400Y1143D02*
X3410D01*
X3405Y1138D02*
Y1148D01*
X3360Y1143D02*
X3370D01*
X3365Y1138D02*
Y1148D01*
X3403Y1207D02*
X3413D01*
X3408Y1202D02*
Y1212D01*
X3357Y1207D02*
X3367D01*
X3362Y1202D02*
Y1212D01*
X3423Y920D02*
X3433D01*
X3428Y915D02*
Y925D01*
X3341Y887D02*
X3351D01*
X3346Y882D02*
Y892D01*
X2775Y967D02*
X2785D01*
X2780Y962D02*
Y972D01*
X2735Y967D02*
X2745D01*
X2740Y962D02*
Y972D01*
X2775Y1143D02*
X2785D01*
X2780Y1138D02*
Y1148D01*
X2735Y1143D02*
X2745D01*
X2740Y1138D02*
Y1148D01*
X2778Y1207D02*
X2788D01*
X2783Y1202D02*
Y1212D01*
X2732Y1207D02*
X2742D01*
X2737Y1202D02*
Y1212D01*
X2798Y920D02*
X2808D01*
X2803Y915D02*
Y925D01*
X2716Y887D02*
X2726D01*
X2721Y882D02*
Y892D01*
X2091Y887D02*
X2101D01*
X2096Y882D02*
Y892D01*
X2173Y920D02*
X2183D01*
X2178Y915D02*
Y925D01*
X2107Y1207D02*
X2117D01*
X2112Y1202D02*
Y1212D01*
X2153Y1207D02*
X2163D01*
X2158Y1202D02*
Y1212D01*
X2110Y1143D02*
X2120D01*
X2115Y1138D02*
Y1148D01*
X2150Y1143D02*
X2160D01*
X2155Y1138D02*
Y1148D01*
X2110Y967D02*
X2120D01*
X2115Y962D02*
Y972D01*
X2150Y967D02*
X2160D01*
X2155Y962D02*
Y972D01*
X1525Y1143D02*
X1535D01*
X1530Y1138D02*
Y1148D01*
X1485Y1143D02*
X1495D01*
X1490Y1138D02*
Y1148D01*
X1485Y967D02*
X1495D01*
X1490Y962D02*
Y972D01*
X1525Y967D02*
X1535D01*
X1530Y962D02*
Y972D01*
X1466Y887D02*
X1476D01*
X1471Y882D02*
Y892D01*
X1548Y920D02*
X1558D01*
X1553Y915D02*
Y925D01*
X1482Y1207D02*
X1492D01*
X1487Y1202D02*
Y1212D01*
X1528Y1207D02*
X1538D01*
X1533Y1202D02*
Y1212D01*
X11725Y1700D02*
X11735D01*
X11730Y1695D02*
Y1705D01*
X11725Y950D02*
X11735D01*
X11730Y945D02*
Y955D01*
X12370Y7400D02*
X12380D01*
X12375Y7395D02*
Y7405D01*
X12370Y6910D02*
X12380D01*
X12375Y6905D02*
Y6915D01*
X11960Y6900D02*
X11970D01*
X11965Y6895D02*
Y6905D01*
X12370Y7160D02*
X12380D01*
X12375Y7155D02*
Y7165D01*
X11960D02*
X11970D01*
X11965Y7160D02*
Y7170D01*
X11960Y7400D02*
X11970D01*
X11965Y7395D02*
Y7405D01*
X11550Y7170D02*
X11560D01*
X11555Y7165D02*
Y7175D01*
X11550Y7400D02*
X11560D01*
X11555Y7395D02*
Y7405D01*
X12420Y4255D02*
X12430D01*
X12425Y4250D02*
Y4260D01*
X12180Y4785D02*
X12190D01*
X12185Y4780D02*
Y4790D01*
X12420Y5110D02*
X12430D01*
X12425Y5105D02*
Y5115D01*
X12420Y5935D02*
X12430D01*
X12425Y5930D02*
Y5940D01*
X12180Y5605D02*
X12190D01*
X12185Y5600D02*
Y5610D01*
X12180Y6323D02*
X12190D01*
X12185Y6318D02*
Y6328D01*
X10773Y340D02*
X10783D01*
X10778Y335D02*
Y345D01*
X9590Y5069D02*
X9597D01*
X9593Y5065D02*
Y5073D01*
X9546Y5069D02*
X9554D01*
X9550Y5065D02*
Y5073D01*
X9590Y5113D02*
X9597D01*
X9593Y5109D02*
Y5117D01*
X9546Y5113D02*
X9554D01*
X9550Y5109D02*
Y5117D01*
X8855Y5069D02*
X8862D01*
X8858Y5065D02*
Y5073D01*
X8811Y5069D02*
X8819D01*
X8815Y5065D02*
Y5073D01*
X8855Y5113D02*
X8862D01*
X8858Y5109D02*
Y5117D01*
X8811Y5113D02*
X8819D01*
X8815Y5109D02*
Y5117D01*
X8883Y6078D02*
X8891D01*
X8887Y6074D02*
Y6082D01*
X8883Y6122D02*
X8891D01*
X8887Y6118D02*
Y6126D01*
X8839Y6078D02*
X8847D01*
X8843Y6074D02*
Y6082D01*
X8839Y6122D02*
X8847D01*
X8843Y6118D02*
Y6126D01*
X10288Y6624D02*
X10296D01*
X10292Y6620D02*
Y6628D01*
X10288Y6580D02*
X10296D01*
X10292Y6577D02*
Y6584D01*
X10288Y6537D02*
X10296D01*
X10292Y6533D02*
Y6541D01*
X10331Y6624D02*
X10339D01*
X10335Y6620D02*
Y6628D01*
X10331Y6580D02*
X10339D01*
X10335Y6577D02*
Y6584D01*
X10331Y6537D02*
X10339D01*
X10335Y6533D02*
Y6541D01*
X10374Y6624D02*
X10382D01*
X10378Y6620D02*
Y6628D01*
X10374Y6580D02*
X10382D01*
X10378Y6577D02*
Y6584D01*
X10374Y6537D02*
X10382D01*
X10378Y6533D02*
Y6541D01*
X4688Y4828D02*
X4698D01*
X4693Y4823D02*
Y4833D01*
X4688Y4872D02*
X4698D01*
X4693Y4867D02*
Y4877D01*
X4688Y4915D02*
X4698D01*
X4693Y4910D02*
Y4920D01*
X4688Y4958D02*
X4698D01*
X4693Y4953D02*
Y4963D01*
X4688Y5002D02*
X4698D01*
X4693Y4997D02*
Y5007D01*
X4732Y4828D02*
X4742D01*
X4737Y4823D02*
Y4833D01*
X4732Y4872D02*
X4742D01*
X4737Y4867D02*
Y4877D01*
X4732Y4915D02*
X4742D01*
X4737Y4910D02*
Y4920D01*
X4732Y4958D02*
X4742D01*
X4737Y4953D02*
Y4963D01*
X4732Y5002D02*
X4742D01*
X4737Y4997D02*
Y5007D01*
X4775Y4828D02*
X4785D01*
X4780Y4823D02*
Y4833D01*
X4775Y4872D02*
X4785D01*
X4780Y4867D02*
Y4877D01*
X4775Y4915D02*
X4785D01*
X4780Y4910D02*
Y4920D01*
X4775Y4958D02*
X4785D01*
X4780Y4953D02*
Y4963D01*
X4775Y5002D02*
X4785D01*
X4780Y4997D02*
Y5007D01*
X4818Y4828D02*
X4828D01*
X4823Y4823D02*
Y4833D01*
X4818Y4872D02*
X4828D01*
X4823Y4867D02*
Y4877D01*
X4818Y4915D02*
X4828D01*
X4823Y4910D02*
Y4920D01*
X4818Y4958D02*
X4828D01*
X4823Y4953D02*
Y4963D01*
X4818Y5002D02*
X4828D01*
X4823Y4997D02*
Y5007D01*
X4862Y4828D02*
X4872D01*
X4867Y4823D02*
Y4833D01*
X4862Y4872D02*
X4872D01*
X4867Y4867D02*
Y4877D01*
X4862Y4915D02*
X4872D01*
X4867Y4910D02*
Y4920D01*
X4862Y4958D02*
X4872D01*
X4867Y4953D02*
Y4963D01*
X4862Y5002D02*
X4872D01*
X4867Y4997D02*
Y5007D01*
X2136Y6415D02*
X2144D01*
X2140Y6411D02*
Y6419D01*
X2066Y6415D02*
X2074D01*
X2070Y6411D02*
Y6419D01*
X2101Y6436D02*
X2109D01*
X2105Y6432D02*
Y6440D01*
X2101Y6394D02*
X2109D01*
X2105Y6390D02*
Y6398D01*
X1541Y6415D02*
X1549D01*
X1545Y6411D02*
Y6419D01*
X1471Y6415D02*
X1479D01*
X1475Y6411D02*
Y6419D01*
X1506Y6436D02*
X1514D01*
X1510Y6432D02*
Y6440D01*
X1506Y6394D02*
X1514D01*
X1510Y6390D02*
Y6398D01*
X5786Y1980D02*
X5794D01*
X5790Y1976D02*
Y1984D01*
X5746Y1980D02*
X5754D01*
X5750Y1976D02*
Y1984D01*
X5786Y1940D02*
X5794D01*
X5790Y1936D02*
Y1944D01*
X5746Y1940D02*
X5754D01*
X5750Y1936D02*
Y1944D01*
M02*
