%TF.GenerationSoftware,Altium Limited,Altium Designer,22.6.1 (34)*%
G04 Layer_Color=8388736*
%FSLAX26Y26*%
%MOIN*%
%TF.SameCoordinates,08F94D22-2ED8-4738-ABBF-34BB79D8E07D*%
%TF.FilePolarity,Negative*%
%TF.FileFunction,Soldermask,Top*%
%TF.Part,Single*%
G01*
G75*
%TA.AperFunction,SMDPad,CuDef*%
%ADD13R,0.128000X0.128000*%
%ADD14R,0.012000X0.032000*%
%ADD15R,0.032000X0.012000*%
%ADD16R,0.020000X0.022000*%
%ADD17R,0.014000X0.079000*%
%ADD18R,0.070866X0.039370*%
%ADD27R,0.029528X0.035433*%
%ADD28R,0.019685X0.019685*%
%ADD32R,0.022000X0.020000*%
%ADD33R,0.132000X0.132000*%
%ADD34R,0.010000X0.016000*%
%ADD35R,0.016000X0.010000*%
%ADD38R,0.023622X0.031496*%
%ADD40R,0.020472X0.020472*%
%ADD42R,0.018601X0.010727*%
%ADD43R,0.052000X0.023000*%
%ADD47R,0.094488X0.094488*%
%ADD54R,0.039559X0.015354*%
%ADD55R,0.015354X0.039559*%
%TA.AperFunction,ConnectorPad*%
%ADD56R,0.059055X0.204724*%
%ADD57R,0.062992X0.192913*%
%TA.AperFunction,SMDPad,CuDef*%
%ADD68R,0.035433X0.029528*%
%ADD73R,0.026000X0.009000*%
%ADD77R,0.010727X0.018601*%
%ADD78R,0.051181X0.017716*%
%ADD81R,0.094488X0.094488*%
%ADD87R,0.038500X0.022000*%
%ADD90R,0.023622X0.023622*%
%ADD93R,0.031496X0.059055*%
%ADD94R,0.057087X0.078740*%
%ADD95R,0.009842X0.019685*%
%ADD96R,0.009842X0.005906*%
%ADD100R,0.043748X0.023654*%
%ADD101R,0.053394X0.041521*%
%TA.AperFunction,ComponentPad*%
%ADD144C,0.096457*%
%ADD146R,0.054685X0.054685*%
%ADD147C,0.054685*%
%ADD148C,0.031496*%
G04:AMPARAMS|DCode=149|XSize=57.087mil|YSize=78.74mil|CornerRadius=28.543mil|HoleSize=0mil|Usage=FLASHONLY|Rotation=90.000|XOffset=0mil|YOffset=0mil|HoleType=Round|Shape=RoundedRectangle|*
%AMROUNDEDRECTD149*
21,1,0.057087,0.021654,0,0,90.0*
21,1,0.000000,0.078740,0,0,90.0*
1,1,0.057087,0.010827,0.000000*
1,1,0.057087,0.010827,0.000000*
1,1,0.057087,-0.010827,0.000000*
1,1,0.057087,-0.010827,0.000000*
%
%ADD149ROUNDEDRECTD149*%
G04:AMPARAMS|DCode=150|XSize=45.276mil|YSize=70.866mil|CornerRadius=22.638mil|HoleSize=0mil|Usage=FLASHONLY|Rotation=90.000|XOffset=0mil|YOffset=0mil|HoleType=Round|Shape=RoundedRectangle|*
%AMROUNDEDRECTD150*
21,1,0.045276,0.025590,0,0,90.0*
21,1,0.000000,0.070866,0,0,90.0*
1,1,0.045276,0.012795,0.000000*
1,1,0.045276,0.012795,0.000000*
1,1,0.045276,-0.012795,0.000000*
1,1,0.045276,-0.012795,0.000000*
%
%ADD150ROUNDEDRECTD150*%
%ADD151C,0.055000*%
%ADD159C,0.063000*%
%TA.AperFunction,SMDPad,CuDef*%
%ADD257R,0.039496X0.045402*%
%ADD258R,0.043433X0.035559*%
%ADD259R,0.045402X0.039496*%
%ADD261R,0.053276X0.063118*%
%ADD263R,0.032409X0.031228*%
G04:AMPARAMS|DCode=268|XSize=29.654mil|YSize=39.496mil|CornerRadius=5.949mil|HoleSize=0mil|Usage=FLASHONLY|Rotation=270.000|XOffset=0mil|YOffset=0mil|HoleType=Round|Shape=RoundedRectangle|*
%AMROUNDEDRECTD268*
21,1,0.029654,0.027599,0,0,270.0*
21,1,0.017756,0.039496,0,0,270.0*
1,1,0.011898,-0.013799,-0.008878*
1,1,0.011898,-0.013799,0.008878*
1,1,0.011898,0.013799,0.008878*
1,1,0.011898,0.013799,-0.008878*
%
%ADD268ROUNDEDRECTD268*%
%ADD269R,0.031228X0.032409*%
%ADD273R,0.032409X0.033984*%
%ADD274R,0.031622X0.029654*%
%ADD276R,0.063118X0.053276*%
%ADD277R,0.047370X0.049339*%
%ADD283R,0.035559X0.043433*%
%ADD285R,0.033984X0.032409*%
%ADD298R,0.057213X0.031622*%
%ADD299R,0.037528X0.045008*%
%ADD300R,0.029654X0.025716*%
%ADD304O,0.057874X0.016535*%
%TA.AperFunction,ComponentPad*%
%ADD311R,0.075913X0.075913*%
%ADD312C,0.028000*%
%ADD313C,0.086740*%
%ADD314C,0.162000*%
%ADD315C,0.072961*%
%ADD316R,0.072961X0.072961*%
%ADD317C,0.068000*%
G04:AMPARAMS|DCode=318|XSize=70.992mil|YSize=128.079mil|CornerRadius=19.748mil|HoleSize=0mil|Usage=FLASHONLY|Rotation=90.000|XOffset=0mil|YOffset=0mil|HoleType=Round|Shape=RoundedRectangle|*
%AMROUNDEDRECTD318*
21,1,0.070992,0.088583,0,0,90.0*
21,1,0.031496,0.128079,0,0,90.0*
1,1,0.039496,0.044291,0.015748*
1,1,0.039496,0.044291,-0.015748*
1,1,0.039496,-0.044291,-0.015748*
1,1,0.039496,-0.044291,0.015748*
%
%ADD318ROUNDEDRECTD318*%
%ADD319C,0.036543*%
%ADD320C,0.091000*%
%ADD321C,0.108000*%
%ADD322C,0.308000*%
%ADD323C,0.118000*%
%ADD324C,0.050520*%
%ADD325C,0.132016*%
%ADD326C,0.102488*%
%ADD327C,0.067843*%
%ADD328C,0.063118*%
G04:AMPARAMS|DCode=329|XSize=63.118mil|YSize=63.118mil|CornerRadius=17.779mil|HoleSize=0mil|Usage=FLASHONLY|Rotation=270.000|XOffset=0mil|YOffset=0mil|HoleType=Round|Shape=RoundedRectangle|*
%AMROUNDEDRECTD329*
21,1,0.063118,0.027559,0,0,270.0*
21,1,0.027559,0.063118,0,0,270.0*
1,1,0.035559,-0.013780,-0.013780*
1,1,0.035559,-0.013780,0.013780*
1,1,0.035559,0.013780,0.013780*
1,1,0.035559,0.013780,-0.013780*
%
%ADD329ROUNDEDRECTD329*%
%TA.AperFunction,ViaPad*%
%ADD330C,0.029654*%
%ADD331C,0.048000*%
%ADD332C,0.027000*%
%ADD333C,0.035559*%
%ADD334C,0.038000*%
%ADD335C,0.027685*%
%TA.AperFunction,SMDPad,SMDef*%
%ADD344R,0.001000X0.001000*%
%ADD345R,0.001000X0.001000*%
%TA.AperFunction,SMDPad,CuDef*%
%ADD346R,0.025716X0.029654*%
%ADD347R,0.017843X0.018827*%
%ADD348R,0.018827X0.017843*%
%ADD349R,0.053276X0.065087*%
%ADD350R,0.021779X0.027685*%
%ADD351R,0.030835X0.033984*%
%ADD352R,0.055244X0.047370*%
%ADD353R,0.062724X0.043827*%
%ADD354R,0.057213X0.076898*%
%ADD355R,0.028472X0.036346*%
%ADD356R,0.019811X0.035559*%
G04:AMPARAMS|DCode=357|XSize=15.874mil|YSize=25.716mil|CornerRadius=5.968mil|HoleSize=0mil|Usage=FLASHONLY|Rotation=0.000|XOffset=0mil|YOffset=0mil|HoleType=Round|Shape=RoundedRectangle|*
%AMROUNDEDRECTD357*
21,1,0.015874,0.013780,0,0,0.0*
21,1,0.003937,0.025716,0,0,0.0*
1,1,0.011937,0.001968,-0.006890*
1,1,0.011937,-0.001968,-0.006890*
1,1,0.011937,-0.001968,0.006890*
1,1,0.011937,0.001968,0.006890*
%
%ADD357ROUNDEDRECTD357*%
%ADD358R,0.036346X0.028472*%
%ADD359R,0.090677X0.090677*%
%ADD360R,0.027685X0.021779*%
%ADD361R,0.224535X0.224535*%
%ADD362O,0.043433X0.015874*%
%ADD363O,0.015874X0.043433*%
%ADD364R,0.067055X0.019811*%
%ADD365R,0.019811X0.067055*%
%ADD366R,0.029654X0.031622*%
%ADD367R,0.031622X0.049339*%
%ADD368R,0.212724X0.212724*%
%ADD369O,0.043433X0.017843*%
%ADD370O,0.017843X0.043433*%
%ADD371R,0.100520X0.070205*%
%ADD372R,0.021779X0.035559*%
%ADD373R,0.063118X0.019811*%
%ADD374R,0.051307X0.031622*%
%ADD375R,0.035559X0.019811*%
%ADD376R,0.051307X0.047370*%
%ADD377R,0.029654X0.045402*%
%ADD378R,0.018630X0.017843*%
%ADD379R,0.185000X0.189000*%
%ADD380R,0.031622X0.033591*%
%ADD381R,0.116268X0.047370*%
%ADD382R,0.059055X0.021654*%
G04:AMPARAMS|DCode=383|XSize=15.874mil|YSize=25.716mil|CornerRadius=5.968mil|HoleSize=0mil|Usage=FLASHONLY|Rotation=90.000|XOffset=0mil|YOffset=0mil|HoleType=Round|Shape=RoundedRectangle|*
%AMROUNDEDRECTD383*
21,1,0.015874,0.013780,0,0,90.0*
21,1,0.003937,0.025716,0,0,90.0*
1,1,0.011937,0.006890,0.001968*
1,1,0.011937,0.006890,-0.001968*
1,1,0.011937,-0.006890,-0.001968*
1,1,0.011937,-0.006890,0.001968*
%
%ADD383ROUNDEDRECTD383*%
%ADD384R,0.047370X0.043433*%
%ADD385R,0.043433X0.047370*%
%ADD386R,0.045402X0.031622*%
%ADD387R,0.031622X0.045402*%
%ADD388R,0.041465X0.043433*%
%ADD389R,0.045402X0.029654*%
%ADD390R,0.029654X0.045402*%
G36*
X4200000Y2028374D02*
Y2012626D01*
Y1997374D01*
Y1970000D01*
X4130000D01*
Y1997374D01*
Y2012626D01*
Y2028374D01*
Y2040000D01*
X4200000D01*
Y2028374D01*
D02*
G37*
G36*
X5295000Y1078374D02*
Y1062626D01*
Y1047374D01*
Y1020000D01*
X5225000D01*
Y1031626D01*
Y1047374D01*
Y1062626D01*
Y1078374D01*
Y1090000D01*
X5295000D01*
Y1078374D01*
D02*
G37*
G36*
X4670000D02*
Y1062626D01*
Y1047374D01*
Y1020000D01*
X4600000D01*
Y1031626D01*
Y1047374D01*
Y1062626D01*
Y1078374D01*
Y1090000D01*
X4670000D01*
Y1078374D01*
D02*
G37*
G36*
X4045000D02*
Y1062626D01*
Y1047374D01*
Y1020000D01*
X3975000D01*
Y1031626D01*
Y1047374D01*
Y1062626D01*
Y1078374D01*
Y1090000D01*
X4045000D01*
Y1078374D01*
D02*
G37*
G36*
X3420000D02*
Y1062626D01*
Y1047374D01*
Y1020000D01*
X3350000D01*
Y1031626D01*
Y1047374D01*
Y1062626D01*
Y1078374D01*
Y1090000D01*
X3420000D01*
Y1078374D01*
D02*
G37*
G36*
X2795000D02*
Y1062626D01*
Y1047374D01*
Y1020000D01*
X2725000D01*
Y1031626D01*
Y1047374D01*
Y1062626D01*
Y1078374D01*
Y1090000D01*
X2795000D01*
Y1078374D01*
D02*
G37*
G36*
X2170000D02*
Y1062626D01*
Y1047374D01*
Y1020000D01*
X2100000D01*
Y1031626D01*
Y1047374D01*
Y1062626D01*
Y1078374D01*
Y1090000D01*
X2170000D01*
Y1078374D01*
D02*
G37*
G36*
X1545000D02*
Y1062626D01*
Y1047374D01*
Y1020000D01*
X1475000D01*
Y1031626D01*
Y1047374D01*
Y1062626D01*
Y1078374D01*
Y1090000D01*
X1545000D01*
Y1078374D01*
D02*
G37*
G36*
X920000D02*
Y1062626D01*
Y1047374D01*
Y1020000D01*
X850000D01*
Y1031626D01*
Y1047374D01*
Y1062626D01*
Y1078374D01*
Y1090000D01*
X920000D01*
Y1078374D01*
D02*
G37*
%LPC*%
G36*
X4188374Y2028374D02*
X4172626D01*
Y2012626D01*
X4188374D01*
Y2028374D01*
D02*
G37*
G36*
X4157374D02*
X4141626D01*
Y2012626D01*
X4157374D01*
Y2028374D01*
D02*
G37*
G36*
X4188374Y1997374D02*
X4172626D01*
Y1981626D01*
X4188374D01*
Y1997374D01*
D02*
G37*
G36*
X4157374D02*
X4141626D01*
Y1981626D01*
X4157374D01*
Y1997374D01*
D02*
G37*
G36*
X5283374Y1078374D02*
X5267626D01*
Y1062626D01*
X5283374D01*
Y1078374D01*
D02*
G37*
G36*
X5252374D02*
X5236626D01*
Y1062626D01*
X5252374D01*
Y1078374D01*
D02*
G37*
G36*
X5283374Y1047374D02*
X5267626D01*
Y1031626D01*
X5283374D01*
Y1047374D01*
D02*
G37*
G36*
X5252374D02*
X5236626D01*
Y1031626D01*
X5252374D01*
Y1047374D01*
D02*
G37*
G36*
X4658374Y1078374D02*
X4642626D01*
Y1062626D01*
X4658374D01*
Y1078374D01*
D02*
G37*
G36*
X4627374D02*
X4611626D01*
Y1062626D01*
X4627374D01*
Y1078374D01*
D02*
G37*
G36*
X4658374Y1047374D02*
X4642626D01*
Y1031626D01*
X4658374D01*
Y1047374D01*
D02*
G37*
G36*
X4627374D02*
X4611626D01*
Y1031626D01*
X4627374D01*
Y1047374D01*
D02*
G37*
G36*
X4033374Y1078374D02*
X4017626D01*
Y1062626D01*
X4033374D01*
Y1078374D01*
D02*
G37*
G36*
X4002374D02*
X3986626D01*
Y1062626D01*
X4002374D01*
Y1078374D01*
D02*
G37*
G36*
X4033374Y1047374D02*
X4017626D01*
Y1031626D01*
X4033374D01*
Y1047374D01*
D02*
G37*
G36*
X4002374D02*
X3986626D01*
Y1031626D01*
X4002374D01*
Y1047374D01*
D02*
G37*
G36*
X3408374Y1078374D02*
X3392626D01*
Y1062626D01*
X3408374D01*
Y1078374D01*
D02*
G37*
G36*
X3377374D02*
X3361626D01*
Y1062626D01*
X3377374D01*
Y1078374D01*
D02*
G37*
G36*
X3408374Y1047374D02*
X3392626D01*
Y1031626D01*
X3408374D01*
Y1047374D01*
D02*
G37*
G36*
X3377374D02*
X3361626D01*
Y1031626D01*
X3377374D01*
Y1047374D01*
D02*
G37*
G36*
X2783374Y1078374D02*
X2767626D01*
Y1062626D01*
X2783374D01*
Y1078374D01*
D02*
G37*
G36*
X2752374D02*
X2736626D01*
Y1062626D01*
X2752374D01*
Y1078374D01*
D02*
G37*
G36*
X2783374Y1047374D02*
X2767626D01*
Y1031626D01*
X2783374D01*
Y1047374D01*
D02*
G37*
G36*
X2752374D02*
X2736626D01*
Y1031626D01*
X2752374D01*
Y1047374D01*
D02*
G37*
G36*
X2158374Y1078374D02*
X2142626D01*
Y1062626D01*
X2158374D01*
Y1078374D01*
D02*
G37*
G36*
X2127374D02*
X2111626D01*
Y1062626D01*
X2127374D01*
Y1078374D01*
D02*
G37*
G36*
X2158374Y1047374D02*
X2142626D01*
Y1031626D01*
X2158374D01*
Y1047374D01*
D02*
G37*
G36*
X2127374D02*
X2111626D01*
Y1031626D01*
X2127374D01*
Y1047374D01*
D02*
G37*
G36*
X1533374Y1078374D02*
X1517626D01*
Y1062626D01*
X1533374D01*
Y1078374D01*
D02*
G37*
G36*
X1502374D02*
X1486626D01*
Y1062626D01*
X1502374D01*
Y1078374D01*
D02*
G37*
G36*
X1533374Y1047374D02*
X1517626D01*
Y1031626D01*
X1533374D01*
Y1047374D01*
D02*
G37*
G36*
X1502374D02*
X1486626D01*
Y1031626D01*
X1502374D01*
Y1047374D01*
D02*
G37*
G36*
X908374Y1078374D02*
X892626D01*
Y1062626D01*
X908374D01*
Y1078374D01*
D02*
G37*
G36*
X877374D02*
X861626D01*
Y1062626D01*
X877374D01*
Y1078374D01*
D02*
G37*
G36*
X908374Y1047374D02*
X892626D01*
Y1031626D01*
X908374D01*
Y1047374D01*
D02*
G37*
G36*
X877374D02*
X861626D01*
Y1031626D01*
X877374D01*
Y1047374D01*
D02*
G37*
%LPD*%
D13*
X2480000Y3715000D02*
D03*
D14*
X2548898Y3620500D02*
D03*
X2529213D02*
D03*
X2509528D02*
D03*
X2489843D02*
D03*
X2470157D02*
D03*
X2450472D02*
D03*
X2430787D02*
D03*
X2411102D02*
D03*
Y3809500D02*
D03*
X2430787D02*
D03*
X2450472D02*
D03*
X2470157D02*
D03*
X2489843D02*
D03*
X2509528D02*
D03*
X2529213D02*
D03*
X2548898D02*
D03*
X4664528Y997000D02*
D03*
X4644842D02*
D03*
X4625158D02*
D03*
X4605472D02*
D03*
Y1113000D02*
D03*
X4625158D02*
D03*
X4644842D02*
D03*
X4664528D02*
D03*
X5289528Y997000D02*
D03*
X5269842D02*
D03*
X5250158D02*
D03*
X5230472D02*
D03*
Y1113000D02*
D03*
X5250158D02*
D03*
X5269842D02*
D03*
X5289528D02*
D03*
X3414528Y997000D02*
D03*
X3394843D02*
D03*
X3375157D02*
D03*
X3355472D02*
D03*
Y1113000D02*
D03*
X3375157D02*
D03*
X3394843D02*
D03*
X3414528D02*
D03*
X914528Y997000D02*
D03*
X894842D02*
D03*
X875158D02*
D03*
X855472D02*
D03*
Y1113000D02*
D03*
X875158D02*
D03*
X894842D02*
D03*
X914528D02*
D03*
X4194528Y1947000D02*
D03*
X4174842D02*
D03*
X4155158D02*
D03*
X4135472D02*
D03*
Y2063000D02*
D03*
X4155158D02*
D03*
X4174842D02*
D03*
X4194528D02*
D03*
X4039528Y1113000D02*
D03*
X4019843D02*
D03*
X4000157D02*
D03*
X3980472D02*
D03*
Y997000D02*
D03*
X4000157D02*
D03*
X4019843D02*
D03*
X4039528D02*
D03*
X2789528Y1113000D02*
D03*
X2769843D02*
D03*
X2750157D02*
D03*
X2730472D02*
D03*
Y997000D02*
D03*
X2750157D02*
D03*
X2769843D02*
D03*
X2789528D02*
D03*
X2164528Y1113000D02*
D03*
X2144843D02*
D03*
X2125157D02*
D03*
X2105472D02*
D03*
Y997000D02*
D03*
X2125157D02*
D03*
X2144843D02*
D03*
X2164528D02*
D03*
X1539528Y1113000D02*
D03*
X1519842D02*
D03*
X1500158D02*
D03*
X1480472D02*
D03*
Y997000D02*
D03*
X1500158D02*
D03*
X1519842D02*
D03*
X1539528D02*
D03*
D15*
X2385500Y3646102D02*
D03*
Y3665787D02*
D03*
Y3685472D02*
D03*
Y3705157D02*
D03*
Y3724843D02*
D03*
Y3744528D02*
D03*
Y3764213D02*
D03*
Y3783898D02*
D03*
X2574500D02*
D03*
Y3764213D02*
D03*
Y3744528D02*
D03*
Y3724843D02*
D03*
Y3705157D02*
D03*
Y3685472D02*
D03*
Y3665787D02*
D03*
Y3646102D02*
D03*
X4577000Y1025472D02*
D03*
Y1045158D02*
D03*
Y1064842D02*
D03*
Y1084528D02*
D03*
X4693000D02*
D03*
Y1064842D02*
D03*
Y1045158D02*
D03*
Y1025472D02*
D03*
X5202000D02*
D03*
Y1045158D02*
D03*
Y1064842D02*
D03*
Y1084528D02*
D03*
X5318000D02*
D03*
Y1064842D02*
D03*
Y1045158D02*
D03*
Y1025472D02*
D03*
X3327000D02*
D03*
Y1045158D02*
D03*
Y1064842D02*
D03*
Y1084528D02*
D03*
X3443000D02*
D03*
Y1064842D02*
D03*
Y1045158D02*
D03*
Y1025472D02*
D03*
X827000D02*
D03*
Y1045158D02*
D03*
Y1064842D02*
D03*
Y1084528D02*
D03*
X943000D02*
D03*
Y1064842D02*
D03*
Y1045158D02*
D03*
Y1025472D02*
D03*
X4223000Y2034528D02*
D03*
Y2014842D02*
D03*
Y1995158D02*
D03*
Y1975472D02*
D03*
X4107000D02*
D03*
Y1995158D02*
D03*
Y2014842D02*
D03*
Y2034528D02*
D03*
X4068000Y1025472D02*
D03*
Y1045158D02*
D03*
Y1064842D02*
D03*
Y1084528D02*
D03*
X3952000D02*
D03*
Y1064842D02*
D03*
Y1045158D02*
D03*
Y1025472D02*
D03*
X2818000D02*
D03*
Y1045158D02*
D03*
Y1064842D02*
D03*
Y1084528D02*
D03*
X2702000D02*
D03*
Y1064842D02*
D03*
Y1045158D02*
D03*
Y1025472D02*
D03*
X2193000D02*
D03*
Y1045158D02*
D03*
Y1064842D02*
D03*
Y1084528D02*
D03*
X2077000D02*
D03*
Y1064842D02*
D03*
Y1045158D02*
D03*
Y1025472D02*
D03*
X1568000D02*
D03*
Y1045158D02*
D03*
Y1064842D02*
D03*
Y1084528D02*
D03*
X1452000D02*
D03*
Y1064842D02*
D03*
Y1045158D02*
D03*
Y1025472D02*
D03*
D16*
X9317402Y724016D02*
D03*
X9357402D02*
D03*
X9314961Y398858D02*
D03*
X9274961D02*
D03*
Y555814D02*
D03*
X9314961D02*
D03*
Y634291D02*
D03*
X9274961D02*
D03*
Y477336D02*
D03*
X9314961D02*
D03*
D17*
X6190853Y6088500D02*
D03*
X5009843D02*
D03*
X5021654Y6411500D02*
D03*
X5033463Y6088500D02*
D03*
X5045274Y6411500D02*
D03*
X5057083Y6088500D02*
D03*
X5068894Y6411500D02*
D03*
X5080703Y6088500D02*
D03*
X5092514Y6411500D02*
D03*
X5104323Y6088500D02*
D03*
X5116134Y6411500D02*
D03*
X5127943Y6088500D02*
D03*
X5139754Y6411500D02*
D03*
X5151563Y6088500D02*
D03*
X5163374Y6411500D02*
D03*
X5175183Y6088500D02*
D03*
X5186994Y6411500D02*
D03*
X5198803Y6088500D02*
D03*
X5210614Y6411500D02*
D03*
X5222423Y6088500D02*
D03*
X5234234Y6411500D02*
D03*
X5246043Y6088500D02*
D03*
X5257854Y6411500D02*
D03*
X5269663Y6088500D02*
D03*
X5281474Y6411500D02*
D03*
X5293283Y6088500D02*
D03*
X5305094Y6411500D02*
D03*
X5316903Y6088500D02*
D03*
X5328714Y6411500D02*
D03*
X5340523Y6088500D02*
D03*
X5352334Y6411500D02*
D03*
X5364143Y6088500D02*
D03*
X5375954Y6411500D02*
D03*
X5387763Y6088500D02*
D03*
X5399574Y6411500D02*
D03*
X5411383Y6088500D02*
D03*
X5423194Y6411500D02*
D03*
X5435003Y6088500D02*
D03*
X5446814Y6411500D02*
D03*
X5458623Y6088500D02*
D03*
X5470434Y6411500D02*
D03*
X5623973Y6088500D02*
D03*
X5635784Y6411500D02*
D03*
X5647593Y6088500D02*
D03*
X5659404Y6411500D02*
D03*
X5671213Y6088500D02*
D03*
X5683024Y6411500D02*
D03*
X5694833Y6088500D02*
D03*
X5706644Y6411500D02*
D03*
X5718453Y6088500D02*
D03*
X5730264Y6411500D02*
D03*
X5742073Y6088500D02*
D03*
X5753884Y6411500D02*
D03*
X5765693Y6088500D02*
D03*
X5777504Y6411500D02*
D03*
X5789313Y6088500D02*
D03*
X5801124Y6411500D02*
D03*
X5812933Y6088500D02*
D03*
X5824744Y6411500D02*
D03*
X5836553Y6088500D02*
D03*
X5848364Y6411500D02*
D03*
X5860173Y6088500D02*
D03*
X5871984Y6411500D02*
D03*
X5883793Y6088500D02*
D03*
X5895604Y6411500D02*
D03*
X5907413Y6088500D02*
D03*
X5919224Y6411500D02*
D03*
X5931033Y6088500D02*
D03*
X5942844Y6411500D02*
D03*
X5954653Y6088500D02*
D03*
X5966464Y6411500D02*
D03*
X5978273Y6088500D02*
D03*
X5990084Y6411500D02*
D03*
X6001893Y6088500D02*
D03*
X6013704Y6411500D02*
D03*
X6025513Y6088500D02*
D03*
X6037324Y6411500D02*
D03*
X6049133Y6088500D02*
D03*
X6060944Y6411500D02*
D03*
X6072753Y6088500D02*
D03*
X6084564Y6411500D02*
D03*
X6096373Y6088500D02*
D03*
X6108184Y6411500D02*
D03*
X6119993Y6088500D02*
D03*
X6131804Y6411500D02*
D03*
X6143613Y6088500D02*
D03*
X6155424Y6411500D02*
D03*
X6167233Y6088500D02*
D03*
X6179044Y6411500D02*
D03*
X6202664D02*
D03*
X6214473Y6088500D02*
D03*
X6226284Y6411500D02*
D03*
X6238093Y6088500D02*
D03*
X6249904Y6411500D02*
D03*
X6261713Y6088500D02*
D03*
X6273524Y6411500D02*
D03*
X6285333Y6088500D02*
D03*
X6297144Y6411500D02*
D03*
X6308953Y6088500D02*
D03*
X6320764Y6411500D02*
D03*
X6332573Y6088500D02*
D03*
X6344384Y6411500D02*
D03*
X6356193Y6088500D02*
D03*
X6368004Y6411500D02*
D03*
X6379813Y6088500D02*
D03*
X6391624Y6411500D02*
D03*
X6403433Y6088500D02*
D03*
X6415244Y6411500D02*
D03*
X6427053Y6088500D02*
D03*
X6438864Y6411500D02*
D03*
X6450673Y6088500D02*
D03*
X6462484Y6411500D02*
D03*
X6474293Y6088500D02*
D03*
X6486104Y6411500D02*
D03*
X6497913Y6088500D02*
D03*
X6509724Y6411500D02*
D03*
X6521533Y6088500D02*
D03*
X6533344Y6411500D02*
D03*
X6545153Y6088500D02*
D03*
X6556964Y6411500D02*
D03*
X6568773Y6088500D02*
D03*
X6580584Y6411500D02*
D03*
X6592393Y6088500D02*
D03*
X6604204Y6411500D02*
D03*
X6616013Y6088500D02*
D03*
X6627824Y6411500D02*
D03*
X6639633Y6088500D02*
D03*
X6651444Y6411500D02*
D03*
X6663253Y6088500D02*
D03*
X6675064Y6411500D02*
D03*
X6686873Y6088500D02*
D03*
X6698684Y6411500D02*
D03*
X6710493Y6088500D02*
D03*
X6722304Y6411500D02*
D03*
X6734113Y6088500D02*
D03*
X6745924Y6411500D02*
D03*
X6757733Y6088500D02*
D03*
X6769544Y6411500D02*
D03*
X6781353Y6088500D02*
D03*
X6793164Y6411500D02*
D03*
X6804973Y6088500D02*
D03*
X6816784Y6411500D02*
D03*
X6828593Y6088500D02*
D03*
X6840404Y6411500D02*
D03*
X6852213Y6088500D02*
D03*
X6864024Y6411500D02*
D03*
X6875833Y6088500D02*
D03*
X6887644Y6411500D02*
D03*
X6899453Y6088500D02*
D03*
X6911264Y6411500D02*
D03*
X6923073Y6088500D02*
D03*
X6934884Y6411500D02*
D03*
X6946693Y6088500D02*
D03*
X6958504Y6411500D02*
D03*
X6970313Y6088500D02*
D03*
X6982124Y6411500D02*
D03*
X6993933Y6088500D02*
D03*
X7005744Y6411500D02*
D03*
X7017553Y6088500D02*
D03*
X7029364Y6411500D02*
D03*
X7041173Y6088500D02*
D03*
X7052984Y6411500D02*
D03*
X7064793Y6088500D02*
D03*
X7076604Y6411500D02*
D03*
X7088413Y6088500D02*
D03*
X7100224Y6411500D02*
D03*
X7112033Y6088500D02*
D03*
X7123844Y6411500D02*
D03*
X7135653Y6088500D02*
D03*
X7147464Y6411500D02*
D03*
X7159273Y6088500D02*
D03*
X7171084Y6411500D02*
D03*
X7182893Y6088500D02*
D03*
X7194704Y6411500D02*
D03*
X7206513Y6088500D02*
D03*
X7218324Y6411500D02*
D03*
X7230133Y6088500D02*
D03*
X7241944Y6411500D02*
D03*
X7253753Y6088500D02*
D03*
X7265564Y6411500D02*
D03*
X7277373Y6088500D02*
D03*
X7289184Y6411500D02*
D03*
X7300993Y6088500D02*
D03*
X7312804Y6411500D02*
D03*
X7324613Y6088500D02*
D03*
X7336424Y6411500D02*
D03*
X7348233Y6088500D02*
D03*
X7360044Y6411500D02*
D03*
X7371853Y6088500D02*
D03*
X7383664Y6411500D02*
D03*
X7395473Y6088500D02*
D03*
X7407284Y6411500D02*
D03*
X7419093Y6088500D02*
D03*
X7430904Y6411500D02*
D03*
X7442713Y6088500D02*
D03*
X7454524Y6411500D02*
D03*
X7466333Y6088500D02*
D03*
X7478144Y6411500D02*
D03*
X7489953Y6088500D02*
D03*
X7501764Y6411500D02*
D03*
D18*
X5522047Y1947480D02*
D03*
X1991811Y5215000D02*
D03*
X11000000Y1650000D02*
D03*
X2230000Y5105000D02*
D03*
X2260000Y4580000D02*
D03*
X2255000Y5235000D02*
D03*
X1450000Y5180000D02*
D03*
X1770000Y4990000D02*
D03*
X2120000Y5180000D02*
D03*
X2205000Y4830945D02*
D03*
X2125000Y4610000D02*
D03*
X2010000Y4620000D02*
D03*
X5200000Y5490000D02*
D03*
X8510000Y2805000D02*
D03*
X6033858Y5306870D02*
D03*
X9840000Y3700000D02*
D03*
Y3080709D02*
D03*
X11000000D02*
D03*
X2189724Y2633858D02*
D03*
X4385000Y4480000D02*
D03*
X5175000Y4745000D02*
D03*
X4255000Y5040000D02*
D03*
X11000000Y3630000D02*
D03*
X3370000Y3535000D02*
D03*
X1345000Y3845000D02*
D03*
X9840000Y2400000D02*
D03*
X11000000D02*
D03*
X9840000Y1650000D02*
D03*
D27*
X9438425Y6175709D02*
D03*
X9391181D02*
D03*
X5083622Y5335000D02*
D03*
X5036378D02*
D03*
D28*
X8149999Y637756D02*
D03*
Y673189D02*
D03*
Y542756D02*
D03*
Y578189D02*
D03*
Y447756D02*
D03*
Y483189D02*
D03*
X6980000Y447756D02*
D03*
Y483189D02*
D03*
Y542756D02*
D03*
Y578189D02*
D03*
X7175000Y447756D02*
D03*
Y483189D02*
D03*
Y542756D02*
D03*
Y578189D02*
D03*
Y637756D02*
D03*
Y673189D02*
D03*
X6980000Y637756D02*
D03*
Y673189D02*
D03*
X7565000Y447756D02*
D03*
Y483189D02*
D03*
X7370000Y447756D02*
D03*
Y483189D02*
D03*
Y542756D02*
D03*
Y578189D02*
D03*
X7565000Y542756D02*
D03*
Y578189D02*
D03*
Y637756D02*
D03*
Y673189D02*
D03*
X7370000Y637756D02*
D03*
Y673189D02*
D03*
X6590000Y447756D02*
D03*
Y483189D02*
D03*
Y637756D02*
D03*
Y673189D02*
D03*
Y542756D02*
D03*
Y578189D02*
D03*
X6785000Y447756D02*
D03*
Y483189D02*
D03*
Y542756D02*
D03*
Y578189D02*
D03*
Y637756D02*
D03*
Y673189D02*
D03*
X7759999Y447756D02*
D03*
Y483189D02*
D03*
Y542756D02*
D03*
Y578189D02*
D03*
Y637756D02*
D03*
Y673189D02*
D03*
X7955000Y637756D02*
D03*
Y673189D02*
D03*
Y542756D02*
D03*
Y578189D02*
D03*
Y447756D02*
D03*
Y483189D02*
D03*
X4470000Y4312283D02*
D03*
Y4347717D02*
D03*
Y4157717D02*
D03*
Y4122283D02*
D03*
Y4252717D02*
D03*
Y4217283D02*
D03*
D32*
X9560630Y329803D02*
D03*
Y289803D02*
D03*
X9482165Y329803D02*
D03*
Y289803D02*
D03*
X9639094Y329803D02*
D03*
Y289803D02*
D03*
X9403701Y329803D02*
D03*
Y289803D02*
D03*
D33*
X9511575Y526417D02*
D03*
D34*
X9560800Y429961D02*
D03*
X9521420D02*
D03*
X9482040D02*
D03*
X9442660D02*
D03*
Y622874D02*
D03*
X9482040D02*
D03*
X9501730D02*
D03*
X9521420D02*
D03*
X9541110D02*
D03*
X9560800D02*
D03*
X9580490D02*
D03*
Y429961D02*
D03*
X9541110D02*
D03*
X9501730D02*
D03*
X9462350D02*
D03*
Y622874D02*
D03*
D35*
X9415118Y477192D02*
D03*
Y516572D02*
D03*
Y555952D02*
D03*
Y595332D02*
D03*
X9608031D02*
D03*
Y575642D02*
D03*
Y555952D02*
D03*
Y536262D02*
D03*
Y496882D02*
D03*
Y477192D02*
D03*
Y457502D02*
D03*
X9415118D02*
D03*
Y496882D02*
D03*
Y536262D02*
D03*
Y575642D02*
D03*
X9608031Y516572D02*
D03*
D38*
X10084134Y516417D02*
D03*
X10029016D02*
D03*
X4977441Y5560000D02*
D03*
X5032559D02*
D03*
D40*
X2815000Y2525000D02*
D03*
Y2556496D02*
D03*
D42*
X1407614Y6356929D02*
D03*
Y6317559D02*
D03*
X2002598D02*
D03*
Y6356929D02*
D03*
X2092205Y6554685D02*
D03*
Y6515315D02*
D03*
X1497205Y6554685D02*
D03*
Y6515315D02*
D03*
D43*
X10090000Y6427402D02*
D03*
Y6352598D02*
D03*
X10170000Y6390000D02*
D03*
D47*
X1561614Y665000D02*
D03*
X4686614D02*
D03*
X5311614D02*
D03*
X936614D02*
D03*
X4061614D02*
D03*
X3436614D02*
D03*
X2811614D02*
D03*
X2186614D02*
D03*
D54*
X4759543Y703386D02*
D03*
Y677795D02*
D03*
Y652205D02*
D03*
Y626614D02*
D03*
X4613685D02*
D03*
Y652205D02*
D03*
Y677795D02*
D03*
Y703386D02*
D03*
X5384543D02*
D03*
Y677795D02*
D03*
Y652205D02*
D03*
Y626614D02*
D03*
X5238685D02*
D03*
Y652205D02*
D03*
Y677795D02*
D03*
Y703386D02*
D03*
X1009543D02*
D03*
Y677795D02*
D03*
Y652205D02*
D03*
Y626614D02*
D03*
X863685D02*
D03*
Y652205D02*
D03*
Y677795D02*
D03*
Y703386D02*
D03*
X4627929Y2093386D02*
D03*
Y2067795D02*
D03*
Y2042205D02*
D03*
Y2016614D02*
D03*
X4482071D02*
D03*
Y2042205D02*
D03*
Y2067795D02*
D03*
Y2093386D02*
D03*
X3988685Y703386D02*
D03*
Y677795D02*
D03*
Y652205D02*
D03*
Y626614D02*
D03*
X4134543D02*
D03*
Y652205D02*
D03*
Y677795D02*
D03*
Y703386D02*
D03*
X3363685D02*
D03*
Y677795D02*
D03*
Y652205D02*
D03*
Y626614D02*
D03*
X3509543D02*
D03*
Y652205D02*
D03*
Y677795D02*
D03*
Y703386D02*
D03*
X2738685D02*
D03*
Y677795D02*
D03*
Y652205D02*
D03*
Y626614D02*
D03*
X2884543D02*
D03*
Y652205D02*
D03*
Y677795D02*
D03*
Y703386D02*
D03*
X2113685D02*
D03*
Y677795D02*
D03*
Y652205D02*
D03*
Y626614D02*
D03*
X2259543D02*
D03*
Y652205D02*
D03*
Y677795D02*
D03*
Y703386D02*
D03*
X1488685D02*
D03*
Y677795D02*
D03*
Y652205D02*
D03*
Y626614D02*
D03*
X1634543D02*
D03*
Y652205D02*
D03*
Y677795D02*
D03*
Y703386D02*
D03*
D55*
X4725000Y592071D02*
D03*
X4699409D02*
D03*
X4673819D02*
D03*
X4648228D02*
D03*
Y737929D02*
D03*
X4673819D02*
D03*
X4699409D02*
D03*
X4725000D02*
D03*
X5350000Y592071D02*
D03*
X5324409D02*
D03*
X5298819D02*
D03*
X5273228D02*
D03*
Y737929D02*
D03*
X5298819D02*
D03*
X5324409D02*
D03*
X5350000D02*
D03*
X975000Y592071D02*
D03*
X949409D02*
D03*
X923819D02*
D03*
X898228D02*
D03*
Y737929D02*
D03*
X923819D02*
D03*
X949409D02*
D03*
X975000D02*
D03*
X4516614Y2127929D02*
D03*
X4542205D02*
D03*
X4567795D02*
D03*
X4593386D02*
D03*
Y1982071D02*
D03*
X4567795D02*
D03*
X4542205D02*
D03*
X4516614D02*
D03*
X4100000Y737929D02*
D03*
X4074409D02*
D03*
X4048819D02*
D03*
X4023228D02*
D03*
Y592071D02*
D03*
X4048819D02*
D03*
X4074409D02*
D03*
X4100000D02*
D03*
X3475000Y737929D02*
D03*
X3449409D02*
D03*
X3423819D02*
D03*
X3398228D02*
D03*
Y592071D02*
D03*
X3423819D02*
D03*
X3449409D02*
D03*
X3475000D02*
D03*
X2850000Y737929D02*
D03*
X2824409D02*
D03*
X2798819D02*
D03*
X2773228D02*
D03*
Y592071D02*
D03*
X2798819D02*
D03*
X2824409D02*
D03*
X2850000D02*
D03*
X2225000Y737929D02*
D03*
X2199409D02*
D03*
X2173819D02*
D03*
X2148228D02*
D03*
Y592071D02*
D03*
X2173819D02*
D03*
X2199409D02*
D03*
X2225000D02*
D03*
X1600000Y737929D02*
D03*
X1574409D02*
D03*
X1548819D02*
D03*
X1523228D02*
D03*
Y592071D02*
D03*
X1548819D02*
D03*
X1574409D02*
D03*
X1600000D02*
D03*
D56*
X4725000Y109858D02*
D03*
X5350000D02*
D03*
X10900000D02*
D03*
X4100000D02*
D03*
X3475000D02*
D03*
X2850000D02*
D03*
X2225000D02*
D03*
X1600000D02*
D03*
X975000D02*
D03*
D57*
X4557677Y115764D02*
D03*
X4892323D02*
D03*
X5182677D02*
D03*
X5517323D02*
D03*
X10732677D02*
D03*
X11067323D02*
D03*
X4267323D02*
D03*
X3932677D02*
D03*
X3642323D02*
D03*
X3307677D02*
D03*
X3017323D02*
D03*
X2682677D02*
D03*
X2392323D02*
D03*
X2057677D02*
D03*
X1767323D02*
D03*
X1432677D02*
D03*
X1142323D02*
D03*
X807677D02*
D03*
D68*
X5115000Y5561378D02*
D03*
Y5608622D02*
D03*
X2255000Y6473071D02*
D03*
Y6520315D02*
D03*
X1660000Y6473071D02*
D03*
Y6520315D02*
D03*
X9325000Y6783622D02*
D03*
Y6736378D02*
D03*
X4895000Y5608622D02*
D03*
Y5561378D02*
D03*
D73*
X2437500Y6054685D02*
D03*
Y6035000D02*
D03*
Y6015315D02*
D03*
X2372500D02*
D03*
Y6035000D02*
D03*
Y6054685D02*
D03*
X11127500Y6437126D02*
D03*
Y6417441D02*
D03*
Y6397756D02*
D03*
X11192500D02*
D03*
Y6417441D02*
D03*
Y6437126D02*
D03*
D77*
X2232677Y6327008D02*
D03*
X2193307D02*
D03*
X1637685D02*
D03*
X1598315D02*
D03*
D78*
X12255827Y6528819D02*
D03*
Y6554409D02*
D03*
Y6580000D02*
D03*
Y6605591D02*
D03*
Y6631181D02*
D03*
D81*
X4555000Y2055000D02*
D03*
D87*
X9403750Y6667402D02*
D03*
X9296250Y6592598D02*
D03*
Y6630000D02*
D03*
Y6667402D02*
D03*
X9403750Y6630000D02*
D03*
Y6592598D02*
D03*
D90*
X11879331Y4562008D02*
D03*
X11920669D02*
D03*
D93*
X8723031Y6817323D02*
D03*
X8766339D02*
D03*
X8809646D02*
D03*
X8852953D02*
D03*
X8896260D02*
D03*
X8939567D02*
D03*
X8982874D02*
D03*
X9026181D02*
D03*
D94*
X9170669Y6714961D02*
D03*
Y7041732D02*
D03*
X8629331D02*
D03*
Y6714961D02*
D03*
D95*
X9237795Y6505000D02*
D03*
D96*
X9212205Y6498110D02*
D03*
Y6511890D02*
D03*
D100*
X11012087Y6220000D02*
D03*
X11147913D02*
D03*
X11012087Y5380000D02*
D03*
X11147913D02*
D03*
D101*
X3515000Y2748574D02*
D03*
Y2691426D02*
D03*
D144*
X1295000Y3700000D02*
D03*
X1750000Y4860000D02*
D03*
X1260000Y5180000D02*
D03*
X2130000Y4490000D02*
D03*
X2425000Y4540000D02*
D03*
X2125000Y5335000D02*
D03*
X8700000Y2295000D02*
D03*
X10420000Y2725000D02*
D03*
X5320000Y1850000D02*
D03*
X1820000Y2230000D02*
D03*
X4280000Y2980000D02*
D03*
X4780000Y4270000D02*
D03*
X3370000Y3670000D02*
D03*
D146*
X4335000Y6245236D02*
D03*
D147*
X4435000D02*
D03*
X4535000D02*
D03*
D148*
X12297165Y6678425D02*
D03*
Y6481575D02*
D03*
D149*
X12255827Y6433346D02*
D03*
Y6726654D02*
D03*
D150*
X12405433Y6427441D02*
D03*
Y6732559D02*
D03*
D151*
X11995000Y1750000D02*
D03*
Y1650000D02*
D03*
Y1550000D02*
D03*
Y1100000D02*
D03*
Y1000000D02*
D03*
Y900000D02*
D03*
D159*
X7564961Y6250000D02*
D03*
D257*
X4407480Y6860000D02*
D03*
X4342520D02*
D03*
X4407480Y6915000D02*
D03*
X4342520D02*
D03*
X8982480Y5800000D02*
D03*
X8917520D02*
D03*
X1112480Y6080000D02*
D03*
X1047520D02*
D03*
X12047480Y6270000D02*
D03*
X11982520D02*
D03*
X2412520Y2480000D02*
D03*
X2477480D02*
D03*
X5197480Y4195000D02*
D03*
X5132520D02*
D03*
X4916575Y5240000D02*
D03*
X4863425D02*
D03*
D258*
X4335000Y6319173D02*
D03*
Y6374291D02*
D03*
X11170000Y5559559D02*
D03*
Y5504441D02*
D03*
X9520000Y6592441D02*
D03*
Y6647559D02*
D03*
Y6712441D02*
D03*
Y6767559D02*
D03*
X7830000Y7187441D02*
D03*
Y7242559D02*
D03*
X7960000Y7187441D02*
D03*
Y7242559D02*
D03*
X7765000Y7187441D02*
D03*
Y7242559D02*
D03*
X7895000Y7187441D02*
D03*
Y7242559D02*
D03*
X9390000Y6917441D02*
D03*
Y6972559D02*
D03*
X11170000Y5994559D02*
D03*
Y5939441D02*
D03*
X11070000Y6392441D02*
D03*
Y6447559D02*
D03*
X11250000Y6472559D02*
D03*
Y6417441D02*
D03*
X5051496Y4482441D02*
D03*
Y4537559D02*
D03*
X4270000Y5280000D02*
D03*
Y5335118D02*
D03*
D259*
X4789842Y5253425D02*
D03*
Y5306575D02*
D03*
X8780000Y5727520D02*
D03*
Y5792480D02*
D03*
X1335000Y5962795D02*
D03*
Y6027756D02*
D03*
X2080000Y5988386D02*
D03*
Y6053346D02*
D03*
X4270000Y5457480D02*
D03*
Y5392520D02*
D03*
D261*
X1858465Y6080000D02*
D03*
X1791535D02*
D03*
X11981535Y6350000D02*
D03*
X12048465D02*
D03*
D263*
X4445000Y2537913D02*
D03*
Y2502087D02*
D03*
X12050000Y6442087D02*
D03*
Y6477913D02*
D03*
D268*
X11769803Y1737402D02*
D03*
Y1700000D02*
D03*
Y1662599D02*
D03*
X11870197D02*
D03*
Y1737402D02*
D03*
X11769803Y987402D02*
D03*
Y950000D02*
D03*
Y912598D02*
D03*
X11870197D02*
D03*
Y987402D02*
D03*
X7819803Y6357598D02*
D03*
Y6432401D02*
D03*
X7920197D02*
D03*
Y6395000D02*
D03*
Y6357598D02*
D03*
D269*
X9629803Y6175709D02*
D03*
X9593976D02*
D03*
X9506890D02*
D03*
X9542717D02*
D03*
X8202086Y607973D02*
D03*
X8237913D02*
D03*
X8202086Y512973D02*
D03*
X8237913D02*
D03*
X7227087D02*
D03*
X7262913D02*
D03*
X7227087Y607973D02*
D03*
X7262913D02*
D03*
X7422087Y512973D02*
D03*
X7457913D02*
D03*
X7422087Y607973D02*
D03*
X7457913D02*
D03*
X7812086D02*
D03*
X7847913D02*
D03*
X7812086Y512973D02*
D03*
X7847913D02*
D03*
X7617087Y607973D02*
D03*
X7652913D02*
D03*
X7617087Y512973D02*
D03*
X7652913D02*
D03*
X6642087D02*
D03*
X6677913D02*
D03*
X6642087Y607973D02*
D03*
X6677913D02*
D03*
X6837087D02*
D03*
X6872913D02*
D03*
X6837087Y512973D02*
D03*
X6872913D02*
D03*
X7032087D02*
D03*
X7067913D02*
D03*
X7032087Y607973D02*
D03*
X7067913D02*
D03*
X8007087Y512973D02*
D03*
X8042913D02*
D03*
X8007087Y607973D02*
D03*
X8042913D02*
D03*
X4382087Y4282500D02*
D03*
X4417913D02*
D03*
Y4187500D02*
D03*
X4382087D02*
D03*
X9442087Y6900000D02*
D03*
X9477913D02*
D03*
X5017913Y5395000D02*
D03*
X4982087D02*
D03*
X3622913Y2691417D02*
D03*
X3587087D02*
D03*
D273*
X9951575Y429094D02*
D03*
Y463740D02*
D03*
X3580000Y2510177D02*
D03*
Y2544823D02*
D03*
X3530000Y2510177D02*
D03*
Y2544823D02*
D03*
X7375000Y3392677D02*
D03*
Y3427323D02*
D03*
X7425000Y3392677D02*
D03*
Y3427323D02*
D03*
X7475000Y3392677D02*
D03*
Y3427323D02*
D03*
X6575000Y3612677D02*
D03*
Y3647323D02*
D03*
X4789842Y5162677D02*
D03*
Y5197323D02*
D03*
X4740000Y5162677D02*
D03*
Y5197323D02*
D03*
X4025000Y1977323D02*
D03*
Y1942677D02*
D03*
Y2032677D02*
D03*
Y2067323D02*
D03*
X8960000Y6147323D02*
D03*
Y6112677D02*
D03*
X9240000Y6952323D02*
D03*
Y6917677D02*
D03*
X9290000Y6952323D02*
D03*
Y6917677D02*
D03*
X9340000Y6952323D02*
D03*
Y6917677D02*
D03*
X11300000Y6452323D02*
D03*
Y6417677D02*
D03*
X3245000Y2757323D02*
D03*
Y2722677D02*
D03*
X3295000Y2757323D02*
D03*
Y2722677D02*
D03*
X4730000Y5262677D02*
D03*
Y5297323D02*
D03*
X4916575Y5337323D02*
D03*
Y5302677D02*
D03*
X2345000Y3542323D02*
D03*
Y3507677D02*
D03*
X2295000Y3502323D02*
D03*
Y3467677D02*
D03*
D274*
X2706732Y3740000D02*
D03*
X2673268D02*
D03*
X2706732Y3695000D02*
D03*
X2673268D02*
D03*
X2706732Y3785000D02*
D03*
X2673268D02*
D03*
X2706732Y3830000D02*
D03*
X2673268D02*
D03*
X2178268Y3855000D02*
D03*
X2211732D02*
D03*
X6496732Y3240000D02*
D03*
X6463268D02*
D03*
Y3140000D02*
D03*
X6496732D02*
D03*
X6463268Y3190000D02*
D03*
X6496732D02*
D03*
X6463268Y3290000D02*
D03*
X6496732D02*
D03*
X6463268Y3340000D02*
D03*
X6496732D02*
D03*
X6463268Y3390000D02*
D03*
X6496732D02*
D03*
X6463268Y3440000D02*
D03*
X6496732D02*
D03*
X6463268Y3490000D02*
D03*
X6496732D02*
D03*
X6463268Y3540000D02*
D03*
X6496732D02*
D03*
X8093268Y6355000D02*
D03*
X8126732D02*
D03*
X8093268Y6430000D02*
D03*
X8126732D02*
D03*
X11156732Y6335000D02*
D03*
X11123268D02*
D03*
X10916732Y6220000D02*
D03*
X10883268D02*
D03*
X10916732Y5380000D02*
D03*
X10883268D02*
D03*
X2823268Y2391260D02*
D03*
X2856732D02*
D03*
X2211732Y3810000D02*
D03*
X2178268D02*
D03*
X2211732Y3765000D02*
D03*
X2178268D02*
D03*
X2211732Y3720000D02*
D03*
X2178268D02*
D03*
D276*
X3650000Y2509035D02*
D03*
Y2575965D02*
D03*
X6505000Y3601535D02*
D03*
Y3668465D02*
D03*
D277*
X1235000Y6021850D02*
D03*
Y5962795D02*
D03*
X1980000Y6047441D02*
D03*
Y5988386D02*
D03*
D283*
X10029016Y571417D02*
D03*
X10084134D02*
D03*
X5075559Y4195000D02*
D03*
X5020441D02*
D03*
X4517559Y6860000D02*
D03*
X4462441D02*
D03*
X4462441Y6915000D02*
D03*
X4517559D02*
D03*
X10145559Y6530000D02*
D03*
X10090441D02*
D03*
X2532441Y2480000D02*
D03*
X2587559D02*
D03*
X2532441Y2425000D02*
D03*
X2587559D02*
D03*
X4562441Y5248504D02*
D03*
X4617559D02*
D03*
D285*
X9757480Y6060236D02*
D03*
X9792126D02*
D03*
X9707480Y6100709D02*
D03*
X9742126D02*
D03*
X9397480Y6110709D02*
D03*
X9432126D02*
D03*
X3573425Y2442913D02*
D03*
X3608071D02*
D03*
X2260236Y3584646D02*
D03*
X2294882D02*
D03*
X4657677Y1175000D02*
D03*
X4692323D02*
D03*
X4612323D02*
D03*
X4577677D02*
D03*
X5237323D02*
D03*
X5202677D02*
D03*
X5282677D02*
D03*
X5317323D02*
D03*
X862323D02*
D03*
X827677D02*
D03*
X907677D02*
D03*
X942323D02*
D03*
X11747323Y6250000D02*
D03*
X11712677D02*
D03*
X11897323D02*
D03*
X11862677D02*
D03*
X11597323D02*
D03*
X11562677D02*
D03*
X11447323D02*
D03*
X11412677D02*
D03*
X4487677Y2265000D02*
D03*
X4522323D02*
D03*
X4487677Y2210000D02*
D03*
X4522323D02*
D03*
X3952677Y1175000D02*
D03*
X3987323D02*
D03*
X4067323D02*
D03*
X4032677D02*
D03*
X3327677D02*
D03*
X3362323D02*
D03*
X3442323D02*
D03*
X3407677D02*
D03*
X2702677D02*
D03*
X2737323D02*
D03*
X2817323D02*
D03*
X2782677D02*
D03*
X2077677D02*
D03*
X2112323D02*
D03*
X2192323D02*
D03*
X2157677D02*
D03*
X1452677D02*
D03*
X1487323D02*
D03*
X1567323D02*
D03*
X1532677D02*
D03*
X8817323Y5930000D02*
D03*
X8782677D02*
D03*
X5077323Y5275000D02*
D03*
X5042677D02*
D03*
X5147323Y5035468D02*
D03*
X5112677D02*
D03*
X5147323Y4991378D02*
D03*
X5112677D02*
D03*
X2497323Y3370000D02*
D03*
X2462677D02*
D03*
X2552677D02*
D03*
X2587323D02*
D03*
X2507677Y3320000D02*
D03*
X2542323D02*
D03*
X2397677Y3545000D02*
D03*
X2432323D02*
D03*
X2397677Y3495000D02*
D03*
X2432323D02*
D03*
D298*
X5193661Y5127500D02*
D03*
X5276339Y5164902D02*
D03*
Y5090098D02*
D03*
D299*
X5392559Y5100000D02*
D03*
X5337441D02*
D03*
X5392559Y5155000D02*
D03*
X5337441D02*
D03*
D300*
X8149999Y787756D02*
D03*
Y823189D02*
D03*
X7175000Y787756D02*
D03*
Y823189D02*
D03*
X7565000Y787756D02*
D03*
Y823189D02*
D03*
X7370000Y787756D02*
D03*
Y823189D02*
D03*
X6590000Y787756D02*
D03*
Y823189D02*
D03*
X6785000Y787756D02*
D03*
Y823189D02*
D03*
X6980000Y787756D02*
D03*
Y823189D02*
D03*
X7955000Y787756D02*
D03*
Y823189D02*
D03*
X7759999Y787756D02*
D03*
Y823189D02*
D03*
X4745000Y1072717D02*
D03*
Y1037284D02*
D03*
X4525000Y887283D02*
D03*
Y922716D02*
D03*
Y997717D02*
D03*
Y962284D02*
D03*
X4565000Y887283D02*
D03*
Y922716D02*
D03*
X4745000Y997717D02*
D03*
Y962284D02*
D03*
X4525000Y1072717D02*
D03*
Y1037284D02*
D03*
X5370000Y997717D02*
D03*
Y962284D02*
D03*
Y1072717D02*
D03*
Y1037284D02*
D03*
X5150000Y997717D02*
D03*
Y962284D02*
D03*
Y1072717D02*
D03*
Y1037284D02*
D03*
X5190000Y887283D02*
D03*
Y922716D02*
D03*
X5150000Y887283D02*
D03*
Y922716D02*
D03*
X9650000Y4802717D02*
D03*
Y4767283D02*
D03*
X9610000Y4802717D02*
D03*
Y4767283D02*
D03*
X9570000Y4802717D02*
D03*
Y4767283D02*
D03*
X9530000Y4802717D02*
D03*
Y4767283D02*
D03*
X9490000Y4802717D02*
D03*
Y4767283D02*
D03*
X8915000Y4802717D02*
D03*
Y4767283D02*
D03*
X8875000Y4802717D02*
D03*
Y4767283D02*
D03*
X8835000Y4802717D02*
D03*
Y4767283D02*
D03*
X8795000Y4802717D02*
D03*
Y4767283D02*
D03*
X8755000Y4802717D02*
D03*
Y4767283D02*
D03*
X815000Y887283D02*
D03*
Y922716D02*
D03*
X775000Y997717D02*
D03*
Y962284D02*
D03*
Y887283D02*
D03*
Y922716D02*
D03*
X995000Y1072717D02*
D03*
Y1037284D02*
D03*
Y997717D02*
D03*
Y962284D02*
D03*
X775000Y1072717D02*
D03*
Y1037284D02*
D03*
X2507677Y3272717D02*
D03*
Y3237284D02*
D03*
X3475000Y2642717D02*
D03*
Y2607284D02*
D03*
X6630000Y3692717D02*
D03*
Y3657284D02*
D03*
X4470000Y3997283D02*
D03*
Y4032716D02*
D03*
X4305000Y2115283D02*
D03*
Y2150716D02*
D03*
X3970000Y2079283D02*
D03*
Y2114716D02*
D03*
Y1930717D02*
D03*
Y1895284D02*
D03*
X10900000Y452283D02*
D03*
Y487716D02*
D03*
X3940000Y922716D02*
D03*
Y887283D02*
D03*
X3900000Y922716D02*
D03*
Y887283D02*
D03*
Y962284D02*
D03*
Y997717D02*
D03*
X4120000Y962284D02*
D03*
Y997717D02*
D03*
Y1037284D02*
D03*
Y1072717D02*
D03*
X3900000Y1037284D02*
D03*
Y1072717D02*
D03*
X3315000Y922716D02*
D03*
Y887283D02*
D03*
X3275000Y922716D02*
D03*
Y887283D02*
D03*
Y962284D02*
D03*
Y997717D02*
D03*
X3495000Y962284D02*
D03*
Y997717D02*
D03*
Y1037284D02*
D03*
Y1072717D02*
D03*
X3275000Y1037284D02*
D03*
Y1072717D02*
D03*
X2690000Y922716D02*
D03*
Y887283D02*
D03*
X2650000Y922716D02*
D03*
Y887283D02*
D03*
Y962284D02*
D03*
Y997717D02*
D03*
X2870000Y962284D02*
D03*
Y997717D02*
D03*
Y1037284D02*
D03*
Y1072717D02*
D03*
X2650000Y1037284D02*
D03*
Y1072717D02*
D03*
X2065000Y922716D02*
D03*
Y887283D02*
D03*
X2025000Y922716D02*
D03*
Y887283D02*
D03*
Y962284D02*
D03*
Y997717D02*
D03*
X2245000Y962284D02*
D03*
Y997717D02*
D03*
Y1037284D02*
D03*
Y1072717D02*
D03*
X2025000Y1037284D02*
D03*
Y1072717D02*
D03*
X1440000Y922716D02*
D03*
Y887283D02*
D03*
X1400000Y922716D02*
D03*
Y887283D02*
D03*
Y962284D02*
D03*
Y997717D02*
D03*
X1620000Y962284D02*
D03*
Y997717D02*
D03*
Y1037284D02*
D03*
Y1072717D02*
D03*
X1400000Y1037284D02*
D03*
Y1072717D02*
D03*
X2885000Y2497716D02*
D03*
Y2462283D02*
D03*
X3515000Y2607284D02*
D03*
Y2642717D02*
D03*
X5115000Y5145197D02*
D03*
Y5109764D02*
D03*
X4730787Y4657283D02*
D03*
Y4692717D02*
D03*
X5065000Y4995709D02*
D03*
Y5031142D02*
D03*
X2542323Y3237284D02*
D03*
Y3272717D02*
D03*
D304*
X10612401Y6610370D02*
D03*
Y6590685D02*
D03*
Y6571000D02*
D03*
Y6551315D02*
D03*
Y6531630D02*
D03*
X10787598Y6610370D02*
D03*
Y6590685D02*
D03*
Y6571000D02*
D03*
Y6551315D02*
D03*
Y6531630D02*
D03*
D311*
X11850000Y2125000D02*
D03*
Y2225000D02*
D03*
X11960000Y2125000D02*
D03*
Y2225000D02*
D03*
D312*
X4619500Y1039500D02*
D03*
Y1070500D02*
D03*
X4650500Y1039500D02*
D03*
Y1070500D02*
D03*
X5244500Y1039500D02*
D03*
Y1070500D02*
D03*
X5275500Y1039500D02*
D03*
Y1070500D02*
D03*
X3369500Y1039500D02*
D03*
Y1070500D02*
D03*
X3400500Y1039500D02*
D03*
Y1070500D02*
D03*
X869500Y1039500D02*
D03*
Y1070500D02*
D03*
X900500Y1039500D02*
D03*
Y1070500D02*
D03*
X4180500Y1989500D02*
D03*
X4149500D02*
D03*
X4180500Y2020500D02*
D03*
X4149500D02*
D03*
X4025500Y1070500D02*
D03*
Y1039500D02*
D03*
X3994500Y1070500D02*
D03*
Y1039500D02*
D03*
X2775500Y1070500D02*
D03*
Y1039500D02*
D03*
X2744500Y1070500D02*
D03*
Y1039500D02*
D03*
X2150500Y1070500D02*
D03*
Y1039500D02*
D03*
X2119500Y1070500D02*
D03*
Y1039500D02*
D03*
X1525500Y1070500D02*
D03*
Y1039500D02*
D03*
X1494500Y1070500D02*
D03*
Y1039500D02*
D03*
D313*
X1805000Y6473071D02*
D03*
Y6373071D02*
D03*
X2400000Y6473071D02*
D03*
Y6373071D02*
D03*
D314*
X12335000Y1805000D02*
D03*
Y1495000D02*
D03*
Y1155000D02*
D03*
Y845000D02*
D03*
D315*
X3050000Y7200000D02*
D03*
Y7100000D02*
D03*
X2950000Y7200000D02*
D03*
Y7100000D02*
D03*
X2850000Y7200000D02*
D03*
Y7100000D02*
D03*
X2750000Y7200000D02*
D03*
Y7100000D02*
D03*
X2650000Y7200000D02*
D03*
Y7100000D02*
D03*
X2550000Y7200000D02*
D03*
Y7100000D02*
D03*
X2450000Y7200000D02*
D03*
Y7100000D02*
D03*
X2350000Y7200000D02*
D03*
Y7100000D02*
D03*
X2250000Y7200000D02*
D03*
Y7100000D02*
D03*
X2150000Y7200000D02*
D03*
Y7100000D02*
D03*
X2050000Y7200000D02*
D03*
Y7100000D02*
D03*
X1950000Y7200000D02*
D03*
Y7100000D02*
D03*
X1850000Y7200000D02*
D03*
Y7100000D02*
D03*
X1750000Y7200000D02*
D03*
Y7100000D02*
D03*
X1650000Y7200000D02*
D03*
Y7100000D02*
D03*
X1550000Y7200000D02*
D03*
Y7100000D02*
D03*
X1450000Y7200000D02*
D03*
Y7100000D02*
D03*
X1350000Y7200000D02*
D03*
Y7100000D02*
D03*
X1250000Y7200000D02*
D03*
Y7100000D02*
D03*
X1150000Y7200000D02*
D03*
Y7100000D02*
D03*
X1050000Y7200000D02*
D03*
Y7100000D02*
D03*
X950000Y7200000D02*
D03*
D316*
Y7100000D02*
D03*
D317*
X7502000Y7352000D02*
D03*
X4998000D02*
D03*
D318*
X12335000Y4705000D02*
D03*
Y4295000D02*
D03*
X12160000Y4323000D02*
D03*
Y4677000D02*
D03*
D319*
X12175748Y4417323D02*
D03*
Y4582677D02*
D03*
D320*
X4934961Y6250000D02*
D03*
D321*
X344488Y7058268D02*
D03*
Y444094D02*
D03*
X9517717Y5483465D02*
D03*
X3730315Y5365354D02*
D03*
X11289370Y3633071D02*
D03*
X5698819Y2885039D02*
D03*
X1525591Y3514961D02*
D03*
X10068898Y2176378D02*
D03*
X6250000Y1428347D02*
D03*
X1761811Y1782677D02*
D03*
X12155512Y444094D02*
D03*
D322*
X11643701Y6900787D02*
D03*
D323*
X11723465Y2750000D02*
D03*
Y2915354D02*
D03*
Y3080709D02*
D03*
Y3246063D02*
D03*
X11940000D02*
D03*
Y3080709D02*
D03*
Y2915354D02*
D03*
Y2750000D02*
D03*
D324*
X8183858Y7160630D02*
D03*
Y6766929D02*
D03*
D325*
X12081260Y5550000D02*
D03*
Y6050000D02*
D03*
D326*
X12206457Y6117520D02*
D03*
Y5482480D02*
D03*
D327*
X11281260Y5939764D02*
D03*
Y5660236D02*
D03*
Y6039764D02*
D03*
Y5560236D02*
D03*
D328*
X11381260Y5879724D02*
D03*
Y5720276D02*
D03*
Y5959646D02*
D03*
Y5640354D02*
D03*
Y6039567D02*
D03*
Y5560433D02*
D03*
X11481260Y5839961D02*
D03*
Y5760039D02*
D03*
Y5680118D02*
D03*
Y5919882D02*
D03*
Y5600197D02*
D03*
D329*
Y5999803D02*
D03*
D330*
X6892126Y2082284D02*
D03*
X6773622Y2220472D02*
D03*
X7019291Y1941339D02*
D03*
X6644488Y2074016D02*
D03*
X6727559Y2008661D02*
D03*
X6645669Y2006299D02*
D03*
X6783465Y1933465D02*
D03*
X6729528Y1933858D02*
D03*
X5105118Y6011811D02*
D03*
X4332283Y4812992D02*
D03*
X4830000Y4781890D02*
D03*
X4691725Y4782099D02*
D03*
X6444409Y3601535D02*
D03*
X9515276Y6924109D02*
D03*
Y6874808D02*
D03*
X10925984Y6444095D02*
D03*
X11907480Y6620472D02*
D03*
X11359843Y6618504D02*
D03*
X11091339Y6613779D02*
D03*
X10701575Y6444095D02*
D03*
X9003543Y6404724D02*
D03*
X8944488Y6403937D02*
D03*
X8893307Y6402756D02*
D03*
X8854331Y6403150D02*
D03*
X8803543Y6402362D02*
D03*
X8802362Y6273228D02*
D03*
X8755512Y6233858D02*
D03*
X7009842Y5628346D02*
D03*
X8145276Y5917717D02*
D03*
X8343307Y5826772D02*
D03*
X8341339Y5731102D02*
D03*
X8361811Y5958268D02*
D03*
X8062205Y5866535D02*
D03*
X7950787Y5866142D02*
D03*
X7698032Y5868110D02*
D03*
X7516929Y5899213D02*
D03*
Y5637008D02*
D03*
X7354331Y5902362D02*
D03*
Y5822835D02*
D03*
X7346063Y5670472D02*
D03*
X7011417Y5898819D02*
D03*
X6931496Y5823228D02*
D03*
X7086221Y5821260D02*
D03*
X7088189Y5671654D02*
D03*
X6929134Y5671260D02*
D03*
X5589764Y4358268D02*
D03*
X6385039Y4071260D02*
D03*
X6631102Y4441732D02*
D03*
X3859843Y3257874D02*
D03*
X945276Y2567716D02*
D03*
X938976Y2784648D02*
D03*
X940158Y3005905D02*
D03*
X938583Y3207874D02*
D03*
X1220866Y3082677D02*
D03*
X1222441Y2880709D02*
D03*
X1221260Y2659451D02*
D03*
X1227559Y2442520D02*
D03*
X2396063Y2108661D02*
D03*
X2249724D02*
D03*
Y2017362D02*
D03*
X2396063D02*
D03*
X2555669Y2108661D02*
D03*
Y2017362D02*
D03*
X11548819Y2646063D02*
D03*
X11640945Y2645276D02*
D03*
X11095276Y1698425D02*
D03*
X11094488Y1606299D02*
D03*
X11179921Y1699606D02*
D03*
X11179134Y1607480D02*
D03*
X11277165Y1612992D02*
D03*
X11277953Y1705118D02*
D03*
X11458268Y2334437D02*
D03*
X11372559Y1771018D02*
D03*
X11452756Y1861811D02*
D03*
X11372559Y1929198D02*
D03*
X11453543Y2012598D02*
D03*
X11372559Y2081888D02*
D03*
X11453151Y2160158D02*
D03*
X11372559Y2245562D02*
D03*
Y2427910D02*
D03*
X11459843Y1701181D02*
D03*
X11138976Y2301575D02*
D03*
X10997244Y2300000D02*
D03*
X11138189Y2408661D02*
D03*
X11136614Y2767323D02*
D03*
X11271260Y2768110D02*
D03*
X11272835Y2890551D02*
D03*
X11134252Y2554134D02*
D03*
Y2673228D02*
D03*
X10997913Y2554134D02*
D03*
Y2673228D02*
D03*
X11278740Y3082677D02*
D03*
X11070175Y3080709D02*
D03*
X11119175Y3126798D02*
D03*
X11070175Y3032848D02*
D03*
Y3126798D02*
D03*
X11119175Y3032848D02*
D03*
X11275984Y3246457D02*
D03*
X11281102Y3402756D02*
D03*
X11179921Y3529921D02*
D03*
X10957480Y3535433D02*
D03*
X11175197Y3798819D02*
D03*
X10961811Y3799213D02*
D03*
X10952756Y3957087D02*
D03*
X11175197Y3955905D02*
D03*
X11664567Y3841339D02*
D03*
X11550787Y3966929D02*
D03*
X11590551Y3402362D02*
D03*
Y3553543D02*
D03*
Y3704724D02*
D03*
X11694094D02*
D03*
Y3553543D02*
D03*
Y3402362D02*
D03*
X11797638D02*
D03*
Y3553543D02*
D03*
Y3704724D02*
D03*
X4332283Y4859189D02*
D03*
X503150Y4566535D02*
D03*
Y4816929D02*
D03*
X746063Y4566538D02*
D03*
Y4816929D02*
D03*
X358661Y3955905D02*
D03*
Y4206299D02*
D03*
Y3705512D02*
D03*
Y3455118D02*
D03*
Y3204724D02*
D03*
Y2954331D02*
D03*
Y2703937D02*
D03*
X681102D02*
D03*
Y2954328D02*
D03*
Y3204720D02*
D03*
Y3455111D02*
D03*
Y3705503D02*
D03*
Y4206285D02*
D03*
Y3955894D02*
D03*
X3458870Y4619908D02*
D03*
X3577771D02*
D03*
X3520866Y4531496D02*
D03*
X6281496Y2453937D02*
D03*
X6013779Y1387795D02*
D03*
X6054331Y1081496D02*
D03*
X6951968Y2227559D02*
D03*
X6360630Y1733465D02*
D03*
X5531102Y2716929D02*
D03*
X5902756Y3252362D02*
D03*
X5610630Y3643701D02*
D03*
X7162598Y4590551D02*
D03*
X6213779Y4659842D02*
D03*
X2536197Y3584867D02*
D03*
X2603428Y3705079D02*
D03*
X2470116Y3585730D02*
D03*
X2442151Y3575849D02*
D03*
X2893000Y2028071D02*
D03*
X2927000D02*
D03*
X9907874Y463740D02*
D03*
X9344488Y675788D02*
D03*
X9383858Y672047D02*
D03*
X9521417Y767126D02*
D03*
X9600787Y731890D02*
D03*
X9292913Y335827D02*
D03*
X9340500Y304673D02*
D03*
X9703543Y356693D02*
D03*
X9777559Y416535D02*
D03*
X9639291Y461417D02*
D03*
Y581890D02*
D03*
X9567052Y654134D02*
D03*
X9475792D02*
D03*
X9475788Y398701D02*
D03*
X9567047D02*
D03*
X9383858Y470945D02*
D03*
Y562205D02*
D03*
X9677165Y574803D02*
D03*
X9560787Y477205D02*
D03*
X9462362Y477205D02*
D03*
X9560787Y575630D02*
D03*
X9462362Y575630D02*
D03*
Y526418D02*
D03*
X9560787Y526417D02*
D03*
X9511575Y526417D02*
D03*
Y575630D02*
D03*
Y477205D02*
D03*
X8390000Y2460150D02*
D03*
X8510000Y2432008D02*
D03*
X8660000D02*
D03*
X6639646Y6030256D02*
D03*
X2940897Y2506320D02*
D03*
X9764173Y6265984D02*
D03*
X9709803Y6315354D02*
D03*
X10413954Y6457365D02*
D03*
X11699213Y4443898D02*
D03*
Y4412402D02*
D03*
X3567009Y2056111D02*
D03*
X3532009D02*
D03*
X3418000Y2028071D02*
D03*
X3452000D02*
D03*
X5624409Y2042913D02*
D03*
X7057154Y1577136D02*
D03*
X5610000Y1843727D02*
D03*
X5464646Y1947480D02*
D03*
X2700000Y2779088D02*
D03*
X2775000Y2754821D02*
D03*
X2835000Y2750884D02*
D03*
X2890000D02*
D03*
X2945000D02*
D03*
X1053896Y3925000D02*
D03*
X3234646Y3645748D02*
D03*
Y3702756D02*
D03*
X3183858D02*
D03*
Y3645748D02*
D03*
X3133071Y3702756D02*
D03*
Y3645756D02*
D03*
X1803543Y3979449D02*
D03*
X2212500Y4001787D02*
D03*
X2247500D02*
D03*
X2282500D02*
D03*
X2317500D02*
D03*
X6765984Y6268504D02*
D03*
X6765980Y6310236D02*
D03*
X6891335D02*
D03*
X6891339Y6268504D02*
D03*
X10058868Y6530000D02*
D03*
X10126898Y6610000D02*
D03*
X10090000Y6685000D02*
D03*
X7874016Y5794095D02*
D03*
X8735772Y5824766D02*
D03*
X8688700D02*
D03*
X7696620Y5920670D02*
D03*
X8456611Y5925197D02*
D03*
X8379559Y6025197D02*
D03*
X8341559Y6058463D02*
D03*
X7770829Y6955000D02*
D03*
Y7015000D02*
D03*
X8023268Y6806498D02*
D03*
X9045518Y6733078D02*
D03*
Y6657834D02*
D03*
X9002677D02*
D03*
X8959000Y6733078D02*
D03*
X8895000Y6665075D02*
D03*
X8902344Y5949217D02*
D03*
X8939803Y6025348D02*
D03*
X9000227Y6056260D02*
D03*
X9026329Y6083898D02*
D03*
X9026680Y6138947D02*
D03*
X8999475Y6159724D02*
D03*
X8929578Y6210391D02*
D03*
X8874843Y6211585D02*
D03*
X8718110Y6090168D02*
D03*
X8745630Y6129528D02*
D03*
X6911268Y6510433D02*
D03*
X1602756Y4883071D02*
D03*
X4342339Y4121963D02*
D03*
X4344504Y4282179D02*
D03*
Y4187179D02*
D03*
X4396701Y4074679D02*
D03*
Y3954679D02*
D03*
X1995278Y2941063D02*
D03*
X3516651Y1745623D02*
D03*
X3434527Y1749183D02*
D03*
X2582362Y4049296D02*
D03*
X4270000Y5499000D02*
D03*
X4895000Y5639022D02*
D03*
X5115307Y5641422D02*
D03*
X2402500Y4049296D02*
D03*
X2079271Y3787500D02*
D03*
X5789095Y5962599D02*
D03*
X2079271Y3742500D02*
D03*
X2753067Y3830000D02*
D03*
X2780994Y3762500D02*
D03*
X2753067Y3785000D02*
D03*
X2780994Y3717500D02*
D03*
X3355431Y3427255D02*
D03*
X6005356Y5503390D02*
D03*
Y5452480D02*
D03*
X6091535Y5389961D02*
D03*
X6005354D02*
D03*
X7206165Y5945888D02*
D03*
X8900043Y5621799D02*
D03*
X8842456Y5613390D02*
D03*
X8775473D02*
D03*
X1011850Y6703974D02*
D03*
X960170Y6807402D02*
D03*
X6584409Y6178823D02*
D03*
X6623692D02*
D03*
X5092756Y6473309D02*
D03*
X5021890D02*
D03*
X5163623D02*
D03*
X1164232Y6732599D02*
D03*
X1118150Y6834880D02*
D03*
X6653765Y6154217D02*
D03*
X6694119D02*
D03*
X4572609Y6415000D02*
D03*
X1596975Y6041984D02*
D03*
X1280170Y6807402D02*
D03*
X1331850Y6703974D02*
D03*
X6701989Y6196539D02*
D03*
X6742343D02*
D03*
X6565191Y6309925D02*
D03*
X6524837D02*
D03*
X4826549Y6415000D02*
D03*
X5470434Y6350680D02*
D03*
X1484232Y6732599D02*
D03*
X6336165Y6346146D02*
D03*
X1438150Y6834880D02*
D03*
X6391835Y6467855D02*
D03*
X6320991Y6473315D02*
D03*
X6336643Y6575197D02*
D03*
X1651850Y6703974D02*
D03*
X1600170Y6807402D02*
D03*
X6454265Y6346146D02*
D03*
X6391614Y6620957D02*
D03*
X6494620Y6346146D02*
D03*
X6447091Y6309925D02*
D03*
X6406737D02*
D03*
X2287933Y6136685D02*
D03*
X1912000Y6080000D02*
D03*
X1980000Y6084599D02*
D03*
X1804232Y6732599D02*
D03*
X1758150Y6834880D02*
D03*
X6512460Y6473315D02*
D03*
X1971850Y6703974D02*
D03*
X1920170Y6807402D02*
D03*
X6572365Y6346146D02*
D03*
X2124232Y6732599D02*
D03*
X6612720Y6346146D02*
D03*
X2078150Y6834880D02*
D03*
X6628065Y6467880D02*
D03*
X6627835Y6606339D02*
D03*
X6729983Y6501823D02*
D03*
X2291850Y6703974D02*
D03*
X6690700Y6501823D02*
D03*
X2240170Y6807402D02*
D03*
X6665152Y6562480D02*
D03*
X6761040Y6519539D02*
D03*
X6801395D02*
D03*
X2255000Y6561000D02*
D03*
X2358180Y6770000D02*
D03*
X2444232Y6732599D02*
D03*
X2398150Y6834880D02*
D03*
X5806994Y6150162D02*
D03*
X5759750D02*
D03*
X5695073Y6149914D02*
D03*
X5812717Y5994095D02*
D03*
X5836339Y5962599D02*
D03*
X5860157Y5994095D02*
D03*
X5884010Y6145841D02*
D03*
X5907396Y5962288D02*
D03*
X5931018Y5993783D02*
D03*
X5954640Y5965447D02*
D03*
X5978262Y5993783D02*
D03*
X6025506Y5962288D02*
D03*
X6049128Y5993783D02*
D03*
X6072750Y5962288D02*
D03*
X6096372Y5993783D02*
D03*
X6120000Y6146744D02*
D03*
X6755000Y5911953D02*
D03*
X6828813Y6025398D02*
D03*
X6804961Y5994538D02*
D03*
X6852205Y5994449D02*
D03*
X6875827Y6143628D02*
D03*
X6899679Y6025398D02*
D03*
X6923071Y5994449D02*
D03*
X6946923Y6025398D02*
D03*
X6970315Y5994723D02*
D03*
X6994167Y6025398D02*
D03*
X7112047Y6148036D02*
D03*
X6376520Y6346146D02*
D03*
X4465136Y5997480D02*
D03*
X4003578Y6067559D02*
D03*
X3799468Y6039685D02*
D03*
X3837500Y5972963D02*
D03*
X4465136Y5932480D02*
D03*
X4384864Y5932520D02*
D03*
X4425000Y6108238D02*
D03*
X4518342Y5865000D02*
D03*
Y6065000D02*
D03*
X8344449Y7200000D02*
D03*
X2474803Y6054685D02*
D03*
X6757961Y6145336D02*
D03*
X6249921Y6606339D02*
D03*
X6287239Y6562480D02*
D03*
X6250152Y6467880D02*
D03*
X6108189Y6606339D02*
D03*
X6108420Y6467880D02*
D03*
X6145507Y6562480D02*
D03*
X4335000Y6415008D02*
D03*
X5305315Y6473309D02*
D03*
X5328713Y6500039D02*
D03*
X6982351Y6473315D02*
D03*
X6746151D02*
D03*
X6179271D02*
D03*
X5990311D02*
D03*
X5754111D02*
D03*
X2208781Y6732677D02*
D03*
Y6767323D02*
D03*
X1888781Y6732677D02*
D03*
Y6767323D02*
D03*
X2038180Y6770000D02*
D03*
X1568781Y6732677D02*
D03*
Y6767323D02*
D03*
X1718180Y6770000D02*
D03*
X1248781Y6732677D02*
D03*
Y6767323D02*
D03*
X1398180Y6770000D02*
D03*
X1078180D02*
D03*
X928781Y6767323D02*
D03*
Y6732677D02*
D03*
X11586068Y3246063D02*
D03*
Y3080709D02*
D03*
Y2915354D02*
D03*
Y2750000D02*
D03*
X4133795Y4610000D02*
D03*
X8643315Y5050988D02*
D03*
X2587761Y3611211D02*
D03*
X2833000Y3481535D02*
D03*
X2242089Y3618202D02*
D03*
X2348661Y3618898D02*
D03*
X2228596Y3584646D02*
D03*
X2260236Y3556798D02*
D03*
X2294882D02*
D03*
X2337822Y3694235D02*
D03*
X2295236Y3658189D02*
D03*
X6784646Y3743075D02*
D03*
X9508332Y5225756D02*
D03*
X9408429Y5109532D02*
D03*
X9719803Y5953386D02*
D03*
X9679961Y5952894D02*
D03*
X9389764Y5942913D02*
D03*
X9438661D02*
D03*
X9364173Y5151393D02*
D03*
X9404331Y5187220D02*
D03*
X10900000Y520236D02*
D03*
X6845388Y6350766D02*
D03*
X6811934D02*
D03*
X9749174Y6020866D02*
D03*
X9824044Y6060236D02*
D03*
X9774044Y6100709D02*
D03*
X9478189Y5958273D02*
D03*
X9452598Y6047069D02*
D03*
X9391181Y6211748D02*
D03*
X9358632Y6175709D02*
D03*
X9568346D02*
D03*
X11837992Y4307480D02*
D03*
Y4338976D02*
D03*
X11427116Y4323238D02*
D03*
X5157874Y5127480D02*
D03*
X3515000Y2791874D02*
D03*
X7131873Y1647558D02*
D03*
X11032019Y1281184D02*
D03*
X10800000Y1917125D02*
D03*
X9717751Y2314789D02*
D03*
Y2354159D02*
D03*
X9895000Y1966573D02*
D03*
X9745000D02*
D03*
X9667168Y1914134D02*
D03*
X9840000Y1712000D02*
D03*
X9940984Y5014173D02*
D03*
X9516142Y3474409D02*
D03*
X11085000Y6336535D02*
D03*
X7389162Y6017930D02*
D03*
X7425412D02*
D03*
X7294682Y5970158D02*
D03*
X7330932D02*
D03*
X9018009Y5800000D02*
D03*
X7223822Y5989842D02*
D03*
X7260072D02*
D03*
X7183249Y5969567D02*
D03*
X7129342Y6018071D02*
D03*
X7165592D02*
D03*
X7277356Y6028272D02*
D03*
X7454600Y5993331D02*
D03*
X4979359Y4738533D02*
D03*
X5244319Y4195120D02*
D03*
X4588583Y4582520D02*
D03*
X4342339Y4347395D02*
D03*
X4483232Y4652520D02*
D03*
X4982598Y4314000D02*
D03*
X9717933Y464173D02*
D03*
X3861024Y607087D02*
D03*
X5303000Y920000D02*
D03*
X5221000Y887000D02*
D03*
X5195000Y530000D02*
D03*
X5111024Y607087D02*
D03*
X8214133Y750473D02*
D03*
X8268779Y607973D02*
D03*
X8149999Y892992D02*
D03*
X8214133Y860473D02*
D03*
X8268779Y673189D02*
D03*
Y512973D02*
D03*
Y447756D02*
D03*
X6903779Y673189D02*
D03*
Y607973D02*
D03*
X6849134Y750473D02*
D03*
X6654134D02*
D03*
X6708779Y607973D02*
D03*
Y673189D02*
D03*
X7488779Y607973D02*
D03*
X7098779D02*
D03*
Y673189D02*
D03*
X7293779D02*
D03*
Y607973D02*
D03*
X7488779Y673189D02*
D03*
X6708779Y512973D02*
D03*
X7293779D02*
D03*
X7434134Y750473D02*
D03*
X7044134D02*
D03*
X7239134D02*
D03*
X7488779Y512973D02*
D03*
X7098779D02*
D03*
X6903779D02*
D03*
X7683779Y673189D02*
D03*
X7878779Y512973D02*
D03*
Y447756D02*
D03*
X7683779Y607973D02*
D03*
X7878779Y673189D02*
D03*
Y607973D02*
D03*
X7683779Y512973D02*
D03*
X7629134Y750473D02*
D03*
X8073779Y673189D02*
D03*
Y607973D02*
D03*
Y512973D02*
D03*
X8019134Y750473D02*
D03*
X7824133D02*
D03*
X7488779Y447756D02*
D03*
X7683779D02*
D03*
X6903779D02*
D03*
X6708779D02*
D03*
X7098779D02*
D03*
X7293779D02*
D03*
X8073779D02*
D03*
X7239134Y860473D02*
D03*
X7175000Y892992D02*
D03*
X7044134Y860473D02*
D03*
X7434134D02*
D03*
X6785000Y892992D02*
D03*
X6980000D02*
D03*
X6590000D02*
D03*
X6654134Y860473D02*
D03*
X6849134D02*
D03*
X7824133D02*
D03*
X7759999Y892992D02*
D03*
X7565000D02*
D03*
X7370000D02*
D03*
X7629134Y860473D02*
D03*
X8019134D02*
D03*
X7955000Y892992D02*
D03*
X9767275Y710669D02*
D03*
X9720433D02*
D03*
X9951575Y396417D02*
D03*
X10146575Y577126D02*
D03*
X10198740Y454134D02*
D03*
Y577126D02*
D03*
Y407197D02*
D03*
Y518701D02*
D03*
X10176884Y328733D02*
D03*
X4015000Y5118491D02*
D03*
X4858506Y5608622D02*
D03*
X5199049Y5962288D02*
D03*
X4155000Y5205905D02*
D03*
X4015000Y5043866D02*
D03*
X5069912Y5608622D02*
D03*
X1775628Y2758583D02*
D03*
X3133786Y2756992D02*
D03*
X3205989Y2759028D02*
D03*
X3300621Y2610113D02*
D03*
X3227984Y2608608D02*
D03*
X3086251D02*
D03*
X3030779Y2571614D02*
D03*
Y2517244D02*
D03*
X2690810Y2515043D02*
D03*
X2815000Y2592520D02*
D03*
X2537402Y4049296D02*
D03*
X2627323D02*
D03*
X2492441D02*
D03*
X2447500D02*
D03*
X2897309Y2548378D02*
D03*
X2858354Y2569311D02*
D03*
X2897136Y2589441D02*
D03*
X2950740Y2604470D02*
D03*
X2991981Y2640033D02*
D03*
X4226849Y4792480D02*
D03*
X4545000Y5311496D02*
D03*
X3650000Y2625256D02*
D03*
X6238090Y5962288D02*
D03*
X3749606Y2558740D02*
D03*
X6214482Y5993783D02*
D03*
X6261705Y6147528D02*
D03*
X6285333Y5993783D02*
D03*
X6308953Y5962599D02*
D03*
X5866150Y5182921D02*
D03*
X5852150Y5226921D02*
D03*
X5999079Y5218146D02*
D03*
X5999535Y5177882D02*
D03*
X6040401Y5218146D02*
D03*
X6040394Y5177882D02*
D03*
X6491527Y5968671D02*
D03*
X5542120Y5342480D02*
D03*
X5585000Y5384409D02*
D03*
X5345725Y5342480D02*
D03*
X5305000Y5381263D02*
D03*
X5445000Y5240000D02*
D03*
Y5202598D02*
D03*
Y5277402D02*
D03*
X5585000Y5094882D02*
D03*
X6260000Y5076614D02*
D03*
X6301181D02*
D03*
X6550158Y5503386D02*
D03*
Y5452480D02*
D03*
X6790085Y5264161D02*
D03*
X6702093Y5373153D02*
D03*
X6665748Y5452480D02*
D03*
Y5503386D02*
D03*
X6550145Y5227074D02*
D03*
Y5272480D02*
D03*
Y5318170D02*
D03*
X6589495Y5227074D02*
D03*
Y5272480D02*
D03*
Y5318170D02*
D03*
X6395214Y5272480D02*
D03*
X6206040Y5332539D02*
D03*
X6260000Y5281162D02*
D03*
X6206040D02*
D03*
X6159724D02*
D03*
X6159705Y5332539D02*
D03*
X6113370Y5281162D02*
D03*
Y5332539D02*
D03*
X6222441Y5389961D02*
D03*
X6246863Y5452480D02*
D03*
X6081722Y5218146D02*
D03*
Y5177882D02*
D03*
X5824150Y5192921D02*
D03*
X5809150Y5230921D02*
D03*
X5786900Y5263921D02*
D03*
X5830150D02*
D03*
X5180996Y5393883D02*
D03*
X5221260Y5352790D02*
D03*
X5180996D02*
D03*
X5221260Y5394112D02*
D03*
Y5435433D02*
D03*
X5180996Y5434977D02*
D03*
X4539628Y4905158D02*
D03*
X4646434Y4963762D02*
D03*
X4641533Y5023268D02*
D03*
X4495079Y5042953D02*
D03*
X4566508Y5069459D02*
D03*
X4475591Y5100394D02*
D03*
X5434747Y4610000D02*
D03*
X5624495Y4655690D02*
D03*
Y4610000D02*
D03*
Y4564593D02*
D03*
X5585145D02*
D03*
Y4655690D02*
D03*
Y4610000D02*
D03*
X4951575Y4545748D02*
D03*
Y4587795D02*
D03*
X4988976Y4545748D02*
D03*
Y4587795D02*
D03*
X5111417Y4545748D02*
D03*
Y4587795D02*
D03*
X5213228Y4647323D02*
D03*
X5213228Y4689370D02*
D03*
X5175197Y4647323D02*
D03*
X5137165D02*
D03*
X5175197Y4689370D02*
D03*
X5137165D02*
D03*
X5423622Y4842905D02*
D03*
X5452854Y4810000D02*
D03*
X5262095Y4737480D02*
D03*
X5295000Y4766713D02*
D03*
Y4394988D02*
D03*
X3596553Y5025591D02*
D03*
X3596097Y5065855D02*
D03*
X3637419D02*
D03*
X3678740Y5025591D02*
D03*
Y5065855D02*
D03*
X3637647Y5025591D02*
D03*
X3795000Y5182480D02*
D03*
X4316535Y5040000D02*
D03*
X4401033Y5147520D02*
D03*
X4562846D02*
D03*
X4664173Y5132087D02*
D03*
X3935505Y4655407D02*
D03*
X3974855D02*
D03*
Y4564310D02*
D03*
X3935505D02*
D03*
Y4610000D02*
D03*
X3974855D02*
D03*
X4102146Y4429606D02*
D03*
X4131870Y4397095D02*
D03*
X4303438Y4792480D02*
D03*
X4457610Y4720197D02*
D03*
Y4678197D02*
D03*
X4440852Y4623346D02*
D03*
X4340000Y4623343D02*
D03*
X4390426Y4623346D02*
D03*
X4297905Y4488012D02*
D03*
X4265394Y4458287D02*
D03*
X4309173Y4527354D02*
D03*
Y4564520D02*
D03*
X4497598Y4835315D02*
D03*
X4648819D02*
D03*
X4655042Y4787778D02*
D03*
X4830000Y4642913D02*
D03*
X4900000D02*
D03*
Y4781890D02*
D03*
X5053847Y4825000D02*
D03*
X4909488D02*
D03*
X5058504Y4925000D02*
D03*
X5096417D02*
D03*
X4909488D02*
D03*
X4909488Y4985000D02*
D03*
X6505000Y3719045D02*
D03*
X6528552Y3061851D02*
D03*
X6356193Y6013882D02*
D03*
X6392709Y5992662D02*
D03*
X6474293Y5993783D02*
D03*
X6568773Y6023400D02*
D03*
X6545153Y5995571D02*
D03*
X6445406Y6028228D02*
D03*
X6521535Y6028543D02*
D03*
X3690133Y2691406D02*
D03*
X3467021Y2674733D02*
D03*
X3302559Y2537795D02*
D03*
Y2481890D02*
D03*
Y2426772D02*
D03*
X3360351Y2688225D02*
D03*
X3387477Y2659206D02*
D03*
X3418738Y2564488D02*
D03*
X3377309Y2541136D02*
D03*
X3473504Y2568110D02*
D03*
X3465354Y2516929D02*
D03*
X3495000Y2544823D02*
D03*
X3696347Y2517452D02*
D03*
X3704773Y2575965D02*
D03*
X3683071Y2426772D02*
D03*
X3472748Y2442913D02*
D03*
X3644748Y2442512D02*
D03*
X3486413Y2389118D02*
D03*
X3653150Y2348425D02*
D03*
X3417716Y2377559D02*
D03*
X3381836Y2383224D02*
D03*
X4445000Y2576000D02*
D03*
X1296280Y740000D02*
D03*
Y825000D02*
D03*
X2084646Y1320000D02*
D03*
X4605000Y2500000D02*
D03*
X6415394Y3139990D02*
D03*
Y3190020D02*
D03*
X2200000Y774000D02*
D03*
X1921280Y740000D02*
D03*
X4440000Y2235000D02*
D03*
X4605000D02*
D03*
X2709646Y1320000D02*
D03*
X3608980Y1340000D02*
D03*
X3876338Y1809610D02*
D03*
X3911423Y1947348D02*
D03*
X4605000Y2369000D02*
D03*
X4765000Y583481D02*
D03*
X6850000Y2868622D02*
D03*
X5936785Y1867520D02*
D03*
X6800000Y2868622D02*
D03*
X6700000Y2868605D02*
D03*
X6750000Y2868622D02*
D03*
X3610000Y872853D02*
D03*
X4865000Y1980295D02*
D03*
X4630000Y4692520D02*
D03*
X4358228Y4564520D02*
D03*
X4407283D02*
D03*
X4358228Y4527354D02*
D03*
X4407283D02*
D03*
X2531607Y885000D02*
D03*
X4406607D02*
D03*
X2895533Y1714781D02*
D03*
X2857648Y1746159D02*
D03*
X2125732Y2812086D02*
D03*
X1987126Y2616102D02*
D03*
X2189732Y2688583D02*
D03*
X1952803Y2548583D02*
D03*
X2297717Y3310709D02*
D03*
X1980906Y3229764D02*
D03*
X2056760Y3238268D02*
D03*
X1980912Y3266466D02*
D03*
X2297732Y3266260D02*
D03*
X1974997Y3189055D02*
D03*
X1586705Y2712893D02*
D03*
X1633556Y2803989D02*
D03*
Y2712893D02*
D03*
Y2758583D02*
D03*
X1586705Y2803989D02*
D03*
Y2758583D02*
D03*
X3193000Y2028071D02*
D03*
X3227000D02*
D03*
X3268000D02*
D03*
X3302000D02*
D03*
X3976032Y1695000D02*
D03*
X3343000Y2028071D02*
D03*
X3377000D02*
D03*
X4519035Y1687500D02*
D03*
X4462404D02*
D03*
X3152000Y2028071D02*
D03*
X3118000D02*
D03*
X3077000D02*
D03*
X3043000D02*
D03*
X3002000D02*
D03*
X2968000D02*
D03*
X5151805Y6026875D02*
D03*
X5045061Y6173199D02*
D03*
X2030000Y5988386D02*
D03*
X1540503Y5947813D02*
D03*
X1668858Y5883857D02*
D03*
X1285000Y5962795D02*
D03*
X1235000Y6059008D02*
D03*
X1164712Y6080000D02*
D03*
X923858Y5883857D02*
D03*
X872561Y6030002D02*
D03*
X795503Y5947813D02*
D03*
X2260000Y6327008D02*
D03*
X2092205Y6582000D02*
D03*
X2018000Y6473071D02*
D03*
X2002614Y6290244D02*
D03*
X2143386Y6327000D02*
D03*
X2092205Y6290236D02*
D03*
X1497205D02*
D03*
X1548386Y6327000D02*
D03*
X1407614Y6290244D02*
D03*
X1423000Y6473071D02*
D03*
X1660000Y6561000D02*
D03*
X1497205Y6582000D02*
D03*
X1665000Y6327008D02*
D03*
X10090433Y6569142D02*
D03*
X10145559Y6490606D02*
D03*
Y6569393D02*
D03*
X10095000Y6303000D02*
D03*
X10139000D02*
D03*
X10225000Y6435000D02*
D03*
X10462953Y6557162D02*
D03*
Y6521728D02*
D03*
X10493228Y6573027D02*
D03*
Y6513442D02*
D03*
X10462400Y6778433D02*
D03*
X10214345Y6740000D02*
D03*
X10325079Y6697849D02*
D03*
X10198000Y6685000D02*
D03*
X10222439Y6531260D02*
D03*
X10266102Y6467911D02*
D03*
X10365000Y6322521D02*
D03*
X10397898Y6362677D02*
D03*
X10397913Y6397323D02*
D03*
X10322000Y6460787D02*
D03*
X10536864Y6479700D02*
D03*
X1020027Y4714685D02*
D03*
X911823Y3925000D02*
D03*
X864973D02*
D03*
Y3879310D02*
D03*
Y3970407D02*
D03*
X911823Y3879310D02*
D03*
Y3970407D02*
D03*
X1242126Y4127480D02*
D03*
X1210000Y4156841D02*
D03*
X1325000Y3970000D02*
D03*
X1071459Y3703670D02*
D03*
X1035366Y3740183D02*
D03*
X1209952Y3770409D02*
D03*
X1245118Y3802520D02*
D03*
X1285559Y3845000D02*
D03*
X2625000Y3461000D02*
D03*
X2725000Y3447000D02*
D03*
X2670000Y3447008D02*
D03*
X2785000Y3438160D02*
D03*
X3445000Y3454961D02*
D03*
X3390000D02*
D03*
X3476847Y3292520D02*
D03*
X3505000Y3263159D02*
D03*
X3467992Y3671694D02*
D03*
X3467995Y3618715D02*
D03*
X3863044Y3535407D02*
D03*
Y3444310D02*
D03*
X3816194Y3535407D02*
D03*
Y3444310D02*
D03*
Y3490000D02*
D03*
X3863044D02*
D03*
X3665015D02*
D03*
X3435000Y3570000D02*
D03*
X5055236Y3061000D02*
D03*
X5054732Y3100315D02*
D03*
X4936332Y3047816D02*
D03*
X4733015Y3026213D02*
D03*
X4772739Y3026090D02*
D03*
X4733015Y3072323D02*
D03*
X4772739D02*
D03*
X4977165Y3100315D02*
D03*
X2933205Y1748647D02*
D03*
X2958526Y1717269D02*
D03*
X3032519Y1748200D02*
D03*
X3031055Y1706217D02*
D03*
X3112012Y1749041D02*
D03*
X3108784Y1707058D02*
D03*
X3185272Y1750699D02*
D03*
X3185311Y1707058D02*
D03*
X3256443Y1749674D02*
D03*
X3255668Y1708174D02*
D03*
X3334238Y1749862D02*
D03*
X3408626Y1718918D02*
D03*
X3480000Y1719138D02*
D03*
X3486508Y1999685D02*
D03*
X3556645Y1742963D02*
D03*
X4502000Y1855000D02*
D03*
X4135389Y1695000D02*
D03*
X3876338Y1877624D02*
D03*
X1081614Y1145000D02*
D03*
Y1190000D02*
D03*
X1108980Y1255000D02*
D03*
Y1340000D02*
D03*
X834646Y1320000D02*
D03*
X1706614Y1145000D02*
D03*
Y1190000D02*
D03*
X1733980Y1255000D02*
D03*
Y1340000D02*
D03*
X1459646Y1320000D02*
D03*
X2331614Y1145000D02*
D03*
Y1190000D02*
D03*
X2358980Y1255000D02*
D03*
Y1340000D02*
D03*
X2956614Y1145000D02*
D03*
Y1190000D02*
D03*
X2983980Y1255000D02*
D03*
Y1340000D02*
D03*
X3581614Y1145000D02*
D03*
Y1190000D02*
D03*
X3608980Y1255000D02*
D03*
X3334646Y1320000D02*
D03*
X4206614Y1145000D02*
D03*
Y1190000D02*
D03*
X4233980Y1255000D02*
D03*
Y1340000D02*
D03*
X3959646Y1320000D02*
D03*
X4831614Y1145000D02*
D03*
Y1190000D02*
D03*
X4858980Y1255000D02*
D03*
Y1340000D02*
D03*
X4584646Y1320000D02*
D03*
X5209646D02*
D03*
X5483980Y1340000D02*
D03*
Y1255000D02*
D03*
X5456614Y1190000D02*
D03*
Y1145000D02*
D03*
X1085000Y582627D02*
D03*
X1015000Y583481D02*
D03*
X1110000Y872853D02*
D03*
X1040000Y856941D02*
D03*
X990000D02*
D03*
X820000Y565321D02*
D03*
X736024Y607087D02*
D03*
X671280Y740000D02*
D03*
Y825000D02*
D03*
X709134Y926431D02*
D03*
X709606Y965000D02*
D03*
X1710000Y582627D02*
D03*
X1640000Y583481D02*
D03*
X1735000Y872853D02*
D03*
X1665000Y856941D02*
D03*
X1615000D02*
D03*
X1445000Y565321D02*
D03*
X1361024Y607087D02*
D03*
X1334134Y926431D02*
D03*
X1334606Y965000D02*
D03*
X2335000Y582627D02*
D03*
X2265000Y583481D02*
D03*
X2360000Y872853D02*
D03*
X2290000Y856941D02*
D03*
X2240000D02*
D03*
X2070000Y565321D02*
D03*
X1986024Y607087D02*
D03*
X1921280Y825000D02*
D03*
X1959134Y926431D02*
D03*
X1959606Y965000D02*
D03*
X2960000Y582627D02*
D03*
X2890000Y583481D02*
D03*
X2985000Y872853D02*
D03*
X2915000Y856941D02*
D03*
X2865000D02*
D03*
X2695000Y565321D02*
D03*
X2611024Y607087D02*
D03*
X2546280Y740000D02*
D03*
Y825000D02*
D03*
X2584134Y926431D02*
D03*
X2584606Y965000D02*
D03*
X3585000Y582627D02*
D03*
X3515000Y583481D02*
D03*
X3540000Y856941D02*
D03*
X3490000D02*
D03*
X3320000Y565321D02*
D03*
X3236024Y607087D02*
D03*
X3171280Y740000D02*
D03*
Y825000D02*
D03*
X3209134Y926431D02*
D03*
X3209606Y965000D02*
D03*
X4210000Y582627D02*
D03*
X4140000Y583481D02*
D03*
X4235000Y872853D02*
D03*
X4165000Y856941D02*
D03*
X4115000D02*
D03*
X3945000Y565321D02*
D03*
X3796280Y740000D02*
D03*
Y825000D02*
D03*
X3834134Y926431D02*
D03*
X3834606Y965000D02*
D03*
X4835000Y582627D02*
D03*
X4860000Y872853D02*
D03*
X4790000Y856941D02*
D03*
X4740000D02*
D03*
X4570000Y565321D02*
D03*
X4486024Y607087D02*
D03*
X4421280Y740000D02*
D03*
Y825000D02*
D03*
X4459134Y926431D02*
D03*
X4459606Y965000D02*
D03*
X656607Y885000D02*
D03*
X1281607D02*
D03*
X1906607D02*
D03*
X3156607D02*
D03*
X3781607D02*
D03*
X5031607D02*
D03*
X5084606Y965000D02*
D03*
X5084134Y926431D02*
D03*
X5046280Y825000D02*
D03*
Y740000D02*
D03*
X823000Y685000D02*
D03*
X1448000D02*
D03*
X2073000D02*
D03*
X2698000D02*
D03*
X3323000D02*
D03*
X3948000D02*
D03*
X4573000D02*
D03*
X5198000D02*
D03*
X5195000Y565321D02*
D03*
X5365000Y856941D02*
D03*
X5415000D02*
D03*
X5485000Y872853D02*
D03*
X5390000Y583481D02*
D03*
X5460000Y582627D02*
D03*
X7005000Y6721743D02*
D03*
X6901333Y6562480D02*
D03*
X6864016Y6606339D02*
D03*
X6864246Y6467880D02*
D03*
X5909286Y6562480D02*
D03*
X5871968Y6606339D02*
D03*
X5872199Y6467880D02*
D03*
X4884992Y6039099D02*
D03*
Y6192795D02*
D03*
X4970000Y6035433D02*
D03*
Y6192795D02*
D03*
X5045000Y6032578D02*
D03*
X5700748Y6028268D02*
D03*
X5765709D02*
D03*
X5937520Y6150039D02*
D03*
X6002480D02*
D03*
X6177078Y6149760D02*
D03*
X6332520Y6154122D02*
D03*
X6403425Y6147528D02*
D03*
X6673098Y6025104D02*
D03*
X7532480Y5967017D02*
D03*
X7493997Y6000028D02*
D03*
X7612520Y5967017D02*
D03*
X7493983Y6150915D02*
D03*
X7569984Y6000406D02*
D03*
X7570000Y6150269D02*
D03*
X7655000Y5998082D02*
D03*
Y6147945D02*
D03*
X5885000Y1831214D02*
D03*
X9765984Y3970707D02*
D03*
X9688152Y3918283D02*
D03*
X9915984Y3970707D02*
D03*
X9993832Y3918268D02*
D03*
X10960500Y3285755D02*
D03*
X9722717Y3700000D02*
D03*
Y3655787D02*
D03*
Y3746339D02*
D03*
X9961811Y3700000D02*
D03*
Y3655787D02*
D03*
Y3746339D02*
D03*
X9778858D02*
D03*
X9900906D02*
D03*
Y3655787D02*
D03*
X9778858D02*
D03*
X9840000D02*
D03*
Y3746339D02*
D03*
X9900906Y3700000D02*
D03*
X9778858D02*
D03*
X11036386Y3324685D02*
D03*
X11033200Y3292151D02*
D03*
X11133594Y3344370D02*
D03*
X10751781Y3196378D02*
D03*
X10790000Y3163487D02*
D03*
X10645380Y3243622D02*
D03*
X9632000Y3684000D02*
D03*
X9598000D02*
D03*
X9633000Y3561307D02*
D03*
X9598000Y3575000D02*
D03*
X9601000Y3507000D02*
D03*
X9566000D02*
D03*
X9579000Y3456658D02*
D03*
X9765000Y3470000D02*
D03*
X10033000Y3513000D02*
D03*
X9985000D02*
D03*
X10334000Y3442000D02*
D03*
X10230000Y3230000D02*
D03*
X9975252Y3233685D02*
D03*
X9932252D02*
D03*
X9881560Y3312000D02*
D03*
X9916000D02*
D03*
X9807000Y3379000D02*
D03*
X9830000Y3258000D02*
D03*
X9811000Y3222000D02*
D03*
X9959000Y3050000D02*
D03*
Y3107000D02*
D03*
Y2991000D02*
D03*
X9910000Y3080333D02*
D03*
Y3135000D02*
D03*
Y3025667D02*
D03*
Y2971000D02*
D03*
X9700000Y3080333D02*
D03*
Y3135000D02*
D03*
Y3025667D02*
D03*
Y2971000D02*
D03*
X9840000Y3135000D02*
D03*
Y3025667D02*
D03*
Y2971000D02*
D03*
X9770000D02*
D03*
Y3025667D02*
D03*
Y3135000D02*
D03*
Y3080333D02*
D03*
X11032019Y1314192D02*
D03*
X11087598Y1394165D02*
D03*
X11133594Y1369370D02*
D03*
X11032019Y1349685D02*
D03*
X10959747Y1310334D02*
D03*
X10790000Y1189006D02*
D03*
X10753858Y1221378D02*
D03*
X10647881Y1268622D02*
D03*
X9629000Y1805866D02*
D03*
X9591016Y1533008D02*
D03*
Y1592693D02*
D03*
Y1652339D02*
D03*
X9591000Y1712024D02*
D03*
X9674016Y1533000D02*
D03*
Y1592685D02*
D03*
Y1652331D02*
D03*
X9674000Y1712016D02*
D03*
X9757000Y1712008D02*
D03*
X9757016Y1652323D02*
D03*
Y1592677D02*
D03*
Y1532992D02*
D03*
X9972992Y1592677D02*
D03*
X9973000Y1712000D02*
D03*
Y1652323D02*
D03*
X9919016Y1533000D02*
D03*
Y1592667D02*
D03*
Y1652333D02*
D03*
X9919000Y1712000D02*
D03*
X9840000Y1532992D02*
D03*
Y1592677D02*
D03*
X9972832Y1914134D02*
D03*
X11133594Y2014370D02*
D03*
X11087598Y2039165D02*
D03*
X11028832Y1961312D02*
D03*
Y1923767D02*
D03*
X11032019Y1994685D02*
D03*
X10766535Y1887323D02*
D03*
X10763851Y1852677D02*
D03*
X10800000Y1824134D02*
D03*
X10962016Y1954858D02*
D03*
X9778858Y2316417D02*
D03*
X9840000D02*
D03*
X9900906D02*
D03*
Y2485709D02*
D03*
X9840000D02*
D03*
X9778858D02*
D03*
Y2446339D02*
D03*
X9900906D02*
D03*
Y2355787D02*
D03*
X9778858D02*
D03*
X9840000D02*
D03*
Y2446339D02*
D03*
X9900906Y2400000D02*
D03*
X9778858D02*
D03*
X9717751Y2398372D02*
D03*
Y2444710D02*
D03*
Y2484081D02*
D03*
X9895000Y2750465D02*
D03*
X9974235Y2801732D02*
D03*
X9745000Y2749599D02*
D03*
X9665996Y2800866D02*
D03*
X9974004Y2659134D02*
D03*
X9895000Y2710401D02*
D03*
X9665765Y2659134D02*
D03*
X9745000Y2710401D02*
D03*
X8678875Y2679829D02*
D03*
X8739781D02*
D03*
X8617733D02*
D03*
Y2719200D02*
D03*
X8678875D02*
D03*
X8739781D02*
D03*
X8739251Y2758427D02*
D03*
X8678345D02*
D03*
X8617204D02*
D03*
X8495157D02*
D03*
X8556298D02*
D03*
X8556828Y2719200D02*
D03*
X8495686D02*
D03*
Y2679829D02*
D03*
X8556828D02*
D03*
X8373109Y2758427D02*
D03*
X8434251D02*
D03*
X8434781Y2719200D02*
D03*
X8373639D02*
D03*
Y2679829D02*
D03*
X8434781D02*
D03*
X8541755Y2870989D02*
D03*
X8560000Y3047485D02*
D03*
X8635000D02*
D03*
X8485000D02*
D03*
X8400000Y3047505D02*
D03*
X9060000Y3057241D02*
D03*
X9092337Y3012992D02*
D03*
X7131873Y1613934D02*
D03*
X6852739Y1506090D02*
D03*
X6813015Y1506213D02*
D03*
X6852739Y1552323D02*
D03*
X6813015D02*
D03*
X5846949Y1969842D02*
D03*
X7942402Y6993926D02*
D03*
X7866674Y6893587D02*
D03*
X7905000Y6902575D02*
D03*
X7940000Y7100433D02*
D03*
X7905046Y7104804D02*
D03*
X7867644Y7007078D02*
D03*
X9067976Y6503038D02*
D03*
X8995400Y6537402D02*
D03*
X8987599Y6462599D02*
D03*
X9027709Y6472961D02*
D03*
X8906127Y6500000D02*
D03*
X8800276Y6462599D02*
D03*
Y6537402D02*
D03*
X8806964Y6665031D02*
D03*
X8720350Y6581395D02*
D03*
X8737799Y6739799D02*
D03*
X9002677Y6733078D02*
D03*
X4965641Y6604641D02*
D03*
X4931763Y5980713D02*
D03*
X840358Y4655630D02*
D03*
X946534Y4709172D02*
D03*
X946341Y4743150D02*
D03*
X1222480Y4787126D02*
D03*
X1260984D02*
D03*
X1222496Y4742677D02*
D03*
X1261000D02*
D03*
X1795000Y5170213D02*
D03*
Y5123362D02*
D03*
Y5263718D02*
D03*
Y5216868D02*
D03*
X771567Y5401468D02*
D03*
X869596D02*
D03*
X954578D02*
D03*
X1048438D02*
D03*
X1152447D02*
D03*
X1239332D02*
D03*
X1333826D02*
D03*
X1418175D02*
D03*
X1508864D02*
D03*
X1591310D02*
D03*
X1678195D02*
D03*
X1772688D02*
D03*
X1860207D02*
D03*
X2075834D02*
D03*
X1409945Y5282229D02*
D03*
X1543979Y5334129D02*
D03*
X1394438Y5185000D02*
D03*
X1426166Y5222786D02*
D03*
X1489415Y5218655D02*
D03*
X1482558Y5116535D02*
D03*
X1540000Y5069158D02*
D03*
X2590581Y5204317D02*
D03*
X2523494Y5235534D02*
D03*
X2556526D02*
D03*
X2590581D02*
D03*
X2754352Y5125308D02*
D03*
X2790022Y5064509D02*
D03*
X2594899D02*
D03*
X2639587Y5125308D02*
D03*
X2677581D02*
D03*
X2715579D02*
D03*
X2819733Y4730901D02*
D03*
X2729000Y4587000D02*
D03*
X2539693Y4625962D02*
D03*
X2672155Y4587000D02*
D03*
X2617125D02*
D03*
X2565000D02*
D03*
X2255000Y5174976D02*
D03*
X2152598Y4866000D02*
D03*
X2152581Y4897534D02*
D03*
X2187581Y4897148D02*
D03*
X2117936Y4897534D02*
D03*
X2260000Y4632115D02*
D03*
X2069200Y4935000D02*
D03*
X2120000Y5140968D02*
D03*
X2126614Y4654000D02*
D03*
X2165000Y5054729D02*
D03*
X2106740Y4830959D02*
D03*
X2027270Y5100471D02*
D03*
X1978997Y4967520D02*
D03*
X1944941D02*
D03*
X1911910Y4936302D02*
D03*
X1944941D02*
D03*
X1978997D02*
D03*
X1911910Y4903482D02*
D03*
X1944941D02*
D03*
X1978997D02*
D03*
X1911910Y4967520D02*
D03*
X1991794Y5167729D02*
D03*
X1943313Y5077222D02*
D03*
X1942505Y5047397D02*
D03*
X1884508Y5009882D02*
D03*
X2032874Y4572835D02*
D03*
X1986023D02*
D03*
X1885331Y4730000D02*
D03*
X2031643Y4663891D02*
D03*
X1940804Y4824433D02*
D03*
X1884508Y4860118D02*
D03*
X1827400Y4954685D02*
D03*
X4309764Y6860009D02*
D03*
X4309745Y6915000D02*
D03*
X4569392Y6860000D02*
D03*
X4568595Y6915000D02*
D03*
X5458852Y6027839D02*
D03*
X5435872Y5993783D02*
D03*
X5411382Y5962288D02*
D03*
X5387986Y6027839D02*
D03*
X5364138Y5993783D02*
D03*
X5340516Y5962288D02*
D03*
X5317120Y6027839D02*
D03*
X5293275Y5993783D02*
D03*
X5269663Y5962288D02*
D03*
X5246254Y6028150D02*
D03*
X5222423Y5993783D02*
D03*
X5175427Y6157751D02*
D03*
X4818577Y6033114D02*
D03*
Y5980713D02*
D03*
X5009130Y5980709D02*
D03*
X5447041Y6473315D02*
D03*
X5375954Y6473417D02*
D03*
X5234489Y6473309D02*
D03*
X4902189Y6604641D02*
D03*
X5039943D02*
D03*
X2370887Y2480000D02*
D03*
X2501485Y2425000D02*
D03*
X3030779Y2422744D02*
D03*
Y2387272D02*
D03*
X2911350Y2412603D02*
D03*
X2951161Y2413966D02*
D03*
X2754291Y2300000D02*
D03*
Y2340000D02*
D03*
X2796693Y2391260D02*
D03*
X3032685Y2332270D02*
D03*
X2958469Y2302815D02*
D03*
X2949404Y2268682D02*
D03*
X2851142Y2260000D02*
D03*
X2851150Y2340000D02*
D03*
Y2300000D02*
D03*
X2195000Y3891000D02*
D03*
X2311399Y3851209D02*
D03*
X2381747Y3809898D02*
D03*
X2265000Y3890984D02*
D03*
X2126811Y3720000D02*
D03*
Y3765000D02*
D03*
Y3810000D02*
D03*
Y3855000D02*
D03*
X2079271Y3832500D02*
D03*
X2605000Y4018189D02*
D03*
X2560000D02*
D03*
X2515000D02*
D03*
X2470000D02*
D03*
X2425000D02*
D03*
X2380000D02*
D03*
X2438388Y3760318D02*
D03*
X2481026D02*
D03*
X2524530Y3717167D02*
D03*
Y3760318D02*
D03*
Y3675615D02*
D03*
X2465000Y3545000D02*
D03*
X2430709Y3839219D02*
D03*
X2780994Y3807500D02*
D03*
X2753067Y3740000D02*
D03*
Y3695000D02*
D03*
X2572285Y3584867D02*
D03*
X2670000Y3589478D02*
D03*
X2725000D02*
D03*
X2785000D02*
D03*
X2542323Y3209507D02*
D03*
X2507677D02*
D03*
X2617875Y3370000D02*
D03*
X2431258D02*
D03*
X2240000Y3412000D02*
D03*
X2295000Y3427727D02*
D03*
X2345000Y3472433D02*
D03*
X2481026Y3717167D02*
D03*
X2438388D02*
D03*
X2481026Y3675615D02*
D03*
X2438388D02*
D03*
X8744828Y5962813D02*
D03*
X8817323Y5968993D02*
D03*
X8960000Y6184387D02*
D03*
X8903249Y6227411D02*
D03*
X8999458Y6112677D02*
D03*
X9611058Y6553000D02*
D03*
X9520000Y6804000D02*
D03*
X9181932Y6567598D02*
D03*
X9227932D02*
D03*
X9357283Y6630000D02*
D03*
X9401000Y6783622D02*
D03*
X9430166Y6972559D02*
D03*
X9390000Y7008512D02*
D03*
X9101087Y6877583D02*
D03*
X9147087D02*
D03*
X8982480Y6772244D02*
D03*
X8939173D02*
D03*
X8852559D02*
D03*
X8722638D02*
D03*
X9025787D02*
D03*
X8809252D02*
D03*
X8765945D02*
D03*
X9114505Y6714961D02*
D03*
X9170669Y6651748D02*
D03*
X9223591Y6714961D02*
D03*
X9114505Y7041732D02*
D03*
X9170669Y6978519D02*
D03*
X9223591Y7041732D02*
D03*
X8573166Y6714961D02*
D03*
X8629331Y6651748D02*
D03*
X8682252Y6714961D02*
D03*
Y7041732D02*
D03*
X8629331Y6978519D02*
D03*
X8573166Y7041732D02*
D03*
X7265782Y6473315D02*
D03*
X7171333D02*
D03*
X7430942Y6357544D02*
D03*
X7383892Y6470851D02*
D03*
X7487216Y6576063D02*
D03*
X7614497D02*
D03*
X7554789D02*
D03*
X7454528Y6483269D02*
D03*
X7005748Y6510433D02*
D03*
X7797500Y7105000D02*
D03*
Y7045000D02*
D03*
Y6985000D02*
D03*
X7770829Y7075000D02*
D03*
X7774593Y7135000D02*
D03*
X7985000Y7289370D02*
D03*
X7740548Y7289381D02*
D03*
X8023268Y6885039D02*
D03*
Y6963780D02*
D03*
Y7042520D02*
D03*
X8344449Y7121260D02*
D03*
Y7042520D02*
D03*
Y6963779D02*
D03*
Y6885039D02*
D03*
Y6806299D02*
D03*
Y6727559D02*
D03*
X7870000Y6394057D02*
D03*
X9437794Y4734724D02*
D03*
X9708228D02*
D03*
X9940984Y5164922D02*
D03*
X9579383Y5226953D02*
D03*
X9607248Y5259496D02*
D03*
X9577804Y5190535D02*
D03*
X9677867Y5164632D02*
D03*
X9729953Y5165000D02*
D03*
X9756382Y5125000D02*
D03*
X9729374Y5085000D02*
D03*
X9760083Y5045000D02*
D03*
X9729370Y5005000D02*
D03*
X9646220Y4910984D02*
D03*
X9610000Y4936000D02*
D03*
X8823976Y4983999D02*
D03*
X9581658Y4911342D02*
D03*
X9558976Y4983999D02*
D03*
X9530000Y4924000D02*
D03*
X9490000Y4889016D02*
D03*
X9202500Y5195000D02*
D03*
X9202520Y4953954D02*
D03*
X9387602Y5075000D02*
D03*
X9415358Y5046146D02*
D03*
X9375437Y5019299D02*
D03*
X8843038Y5232262D02*
D03*
X8865440Y5256435D02*
D03*
X8844546Y5193197D02*
D03*
X8773332Y5225756D02*
D03*
X8946258Y5163450D02*
D03*
X8967527Y5127173D02*
D03*
X9029102Y5100795D02*
D03*
X8952173Y5073787D02*
D03*
X8990086Y5043748D02*
D03*
X8939850Y5013630D02*
D03*
X8463819Y5190000D02*
D03*
Y5148661D02*
D03*
X8640086Y5149413D02*
D03*
X8669496Y5127957D02*
D03*
X8639106Y5100795D02*
D03*
X8672055Y5075280D02*
D03*
X8672370Y5025831D02*
D03*
X9068548Y4737528D02*
D03*
X9068602Y4701154D02*
D03*
X8911220Y4910984D02*
D03*
X8875000Y4936000D02*
D03*
X8847000Y4911000D02*
D03*
X8795000Y4924000D02*
D03*
X8770000Y4889000D02*
D03*
X7387277Y3122489D02*
D03*
X7277244Y2989916D02*
D03*
X7559000Y3391772D02*
D03*
X7598685D02*
D03*
X7515654D02*
D03*
X7375000Y3464409D02*
D03*
X7425000D02*
D03*
X7475000Y3464414D02*
D03*
X7431038Y3292202D02*
D03*
X7258392Y3440949D02*
D03*
X7050258Y3919095D02*
D03*
X7098425Y3912209D02*
D03*
X7074300Y3873886D02*
D03*
X7120499Y3874059D02*
D03*
X7058409Y3749140D02*
D03*
X7097779Y3748665D02*
D03*
X7156834Y3749439D02*
D03*
X7078094Y3723289D02*
D03*
X6904990Y4094859D02*
D03*
X6954990D02*
D03*
X6960709Y3854681D02*
D03*
X6746158Y3696850D02*
D03*
X6630000Y3722716D02*
D03*
X6444414Y3668465D02*
D03*
X6739511Y3578740D02*
D03*
X6763312Y3547938D02*
D03*
X6744489Y3519685D02*
D03*
X6415394Y3540000D02*
D03*
X6374583Y3515000D02*
D03*
X6415394Y3489999D02*
D03*
Y3440009D02*
D03*
X6374409Y3465000D02*
D03*
X6415394Y3391236D02*
D03*
X6374409Y3365000D02*
D03*
X6415394Y3339990D02*
D03*
Y3290000D02*
D03*
X6413160Y3240000D02*
D03*
X6374413Y3265000D02*
D03*
X6444947Y3106636D02*
D03*
X6668551Y3169324D02*
D03*
X6900000Y2868622D02*
D03*
X6950000D02*
D03*
X7000000D02*
D03*
X7050000D02*
D03*
X7125000Y2908386D02*
D03*
X7151855Y2934193D02*
D03*
X7075000Y2908386D02*
D03*
X7025000D02*
D03*
X6975000D02*
D03*
X6925000D02*
D03*
X6875000D02*
D03*
X6825000D02*
D03*
X6775000D02*
D03*
X6725000D02*
D03*
X6675000D02*
D03*
X7039370Y3238401D02*
D03*
X3302555Y2359764D02*
D03*
X3331545Y2297756D02*
D03*
X3325511Y2722677D02*
D03*
X3326082Y2757323D02*
D03*
X3295000Y2790771D02*
D03*
X4994646Y5165551D02*
D03*
X4877624Y5056904D02*
D03*
X5076597Y5234449D02*
D03*
X4993019Y5235820D02*
D03*
X5079203Y5387000D02*
D03*
X5112000D02*
D03*
X4945066Y5395000D02*
D03*
X4829223Y5125345D02*
D03*
X4844552Y5153117D02*
D03*
X4669695Y5249726D02*
D03*
Y5283832D02*
D03*
X4740000Y5224000D02*
D03*
X4692575Y5325286D02*
D03*
X4645903Y5382323D02*
D03*
X4916575Y5367350D02*
D03*
X4107008Y1947000D02*
D03*
Y2062992D02*
D03*
X942323Y1113000D02*
D03*
X827677D02*
D03*
X1567323D02*
D03*
X1452677D02*
D03*
X2192323D02*
D03*
X2077677D02*
D03*
X2817323D02*
D03*
X2702677D02*
D03*
X3442323D02*
D03*
X3327677D02*
D03*
X4067323D02*
D03*
X3952677D02*
D03*
X4692323D02*
D03*
X4577677D02*
D03*
X5202677D02*
D03*
X5317323D02*
D03*
X11195020Y6372980D02*
D03*
X11378966Y6250000D02*
D03*
X11412677Y6217283D02*
D03*
X11528966Y6250000D02*
D03*
X11562677Y6217283D02*
D03*
X11678966Y6250000D02*
D03*
X11712677Y6217283D02*
D03*
X11862677D02*
D03*
X11828966Y6250000D02*
D03*
X11339960Y6312835D02*
D03*
X11489960D02*
D03*
X11639960D02*
D03*
X11789960D02*
D03*
X10837094Y6219854D02*
D03*
X10838858Y5381053D02*
D03*
X11170000Y6035975D02*
D03*
X11128753Y5994559D02*
D03*
X11111527Y5504441D02*
D03*
X11169292Y5457518D02*
D03*
X11033000Y6392441D02*
D03*
Y6447559D02*
D03*
X11070000Y6480000D02*
D03*
X11250000Y6505000D02*
D03*
X11213000Y6472559D02*
D03*
X11680000Y1750000D02*
D03*
X11620000Y2225000D02*
D03*
X11680000Y2125000D02*
D03*
X11620000Y1650000D02*
D03*
X11680000Y900000D02*
D03*
X11620000Y1000000D02*
D03*
X10833000Y6571000D02*
D03*
X10668000D02*
D03*
X10731000D02*
D03*
X12095000Y6520000D02*
D03*
Y6481000D02*
D03*
Y6257000D02*
D03*
Y6320000D02*
D03*
Y6385000D02*
D03*
X12050000Y6396043D02*
D03*
X11982520Y6225000D02*
D03*
X11981536Y6407000D02*
D03*
X12194000Y6631181D02*
D03*
X4552000Y2500000D02*
D03*
X4343000Y2150716D02*
D03*
X4360000Y1960000D02*
D03*
X4426654Y1845000D02*
D03*
X4077000Y1985000D02*
D03*
Y2025000D02*
D03*
X4253000Y1985000D02*
D03*
Y2025000D02*
D03*
X4025000Y2005000D02*
D03*
X4434614Y2068000D02*
D03*
X4516614Y1935000D02*
D03*
X4737000Y2006000D02*
D03*
X4740000Y1909000D02*
D03*
X4705000Y1928000D02*
D03*
X4534000Y2076386D02*
D03*
Y2034386D02*
D03*
X4576000Y2076386D02*
D03*
Y2034386D02*
D03*
X11067323Y244677D02*
D03*
X10733323D02*
D03*
X890000Y401000D02*
D03*
X808000Y245000D02*
D03*
X1142000D02*
D03*
X820000Y530000D02*
D03*
X1018000Y738000D02*
D03*
X1055000D02*
D03*
X950000Y774000D02*
D03*
X916000Y644000D02*
D03*
X958000D02*
D03*
X865000Y279000D02*
D03*
X916000Y686000D02*
D03*
X958000D02*
D03*
X5265000Y401000D02*
D03*
X5183000Y245000D02*
D03*
X5517000D02*
D03*
X5393000Y738000D02*
D03*
X5430000D02*
D03*
X5325000Y774000D02*
D03*
X5291000Y644000D02*
D03*
X5333000D02*
D03*
X5240000Y279000D02*
D03*
X5291000Y686000D02*
D03*
X5333000D02*
D03*
X4640000Y401000D02*
D03*
X4558000Y245000D02*
D03*
X4892000D02*
D03*
X4570000Y530000D02*
D03*
X4768000Y738000D02*
D03*
X4805000D02*
D03*
X4700000Y774000D02*
D03*
X4666000Y644000D02*
D03*
X4708000D02*
D03*
X4615000Y279000D02*
D03*
X4666000Y686000D02*
D03*
X4708000D02*
D03*
X4015000Y401000D02*
D03*
X3933000Y245000D02*
D03*
X4267000D02*
D03*
X3945000Y530000D02*
D03*
X4143000Y738000D02*
D03*
X4180000D02*
D03*
X4075000Y774000D02*
D03*
X4041000Y644000D02*
D03*
X4083000D02*
D03*
X3990000Y279000D02*
D03*
X4041000Y686000D02*
D03*
X4083000D02*
D03*
X3390000Y401000D02*
D03*
X3308000Y245000D02*
D03*
X3642000D02*
D03*
X3320000Y530000D02*
D03*
X3518000Y738000D02*
D03*
X3555000D02*
D03*
X3450000Y774000D02*
D03*
X3416000Y644000D02*
D03*
X3458000D02*
D03*
X3365000Y279000D02*
D03*
X3416000Y686000D02*
D03*
X3458000D02*
D03*
X2765000Y401000D02*
D03*
X2683000Y245000D02*
D03*
X3017000D02*
D03*
X2695000Y530000D02*
D03*
X2893000Y738000D02*
D03*
X2930000D02*
D03*
X2825000Y774000D02*
D03*
X2791000Y644000D02*
D03*
X2833000D02*
D03*
X2740000Y279000D02*
D03*
X2791000Y686000D02*
D03*
X2833000D02*
D03*
X1583000D02*
D03*
X1541000D02*
D03*
X1490000Y279000D02*
D03*
X1583000Y644000D02*
D03*
X1541000D02*
D03*
X1575000Y774000D02*
D03*
X1680000Y738000D02*
D03*
X1643000D02*
D03*
X1445000Y530000D02*
D03*
X1767000Y245000D02*
D03*
X1433000D02*
D03*
X1515000Y401000D02*
D03*
X2140000D02*
D03*
X2058000Y245000D02*
D03*
X2392000D02*
D03*
X2070000Y530000D02*
D03*
X2268000Y738000D02*
D03*
X2305000D02*
D03*
X2166000Y644000D02*
D03*
X2208000D02*
D03*
X2115000Y279000D02*
D03*
X2166000Y686000D02*
D03*
X2208000D02*
D03*
X4053000Y920000D02*
D03*
X846000Y887000D02*
D03*
X928000Y920000D02*
D03*
X862000Y1207000D02*
D03*
X908000D02*
D03*
X865000Y1143000D02*
D03*
X905000D02*
D03*
X865000Y967000D02*
D03*
X905000D02*
D03*
X4655000D02*
D03*
X4615000D02*
D03*
X4655000Y1143000D02*
D03*
X4615000D02*
D03*
X4658000Y1207000D02*
D03*
X4612000D02*
D03*
X4678000Y920000D02*
D03*
X4596000Y887000D02*
D03*
X5280000Y967000D02*
D03*
X5240000D02*
D03*
X5280000Y1143000D02*
D03*
X5240000D02*
D03*
X5283000Y1207000D02*
D03*
X5237000D02*
D03*
X4030000Y967000D02*
D03*
X3990000D02*
D03*
X4030000Y1143000D02*
D03*
X3990000D02*
D03*
X4033000Y1207000D02*
D03*
X3987000D02*
D03*
X3971000Y887000D02*
D03*
X3405000Y967000D02*
D03*
X3365000D02*
D03*
X3405000Y1143000D02*
D03*
X3365000D02*
D03*
X3408000Y1207000D02*
D03*
X3362000D02*
D03*
X3428000Y920000D02*
D03*
X3346000Y887000D02*
D03*
X2780000Y967000D02*
D03*
X2740000D02*
D03*
X2780000Y1143000D02*
D03*
X2740000D02*
D03*
X2783000Y1207000D02*
D03*
X2737000D02*
D03*
X2803000Y920000D02*
D03*
X2721000Y887000D02*
D03*
X2096000D02*
D03*
X2178000Y920000D02*
D03*
X2112000Y1207000D02*
D03*
X2158000D02*
D03*
X2115000Y1143000D02*
D03*
X2155000D02*
D03*
X2115000Y967000D02*
D03*
X2155000D02*
D03*
X1530000Y1143000D02*
D03*
X1490000D02*
D03*
Y967000D02*
D03*
X1530000D02*
D03*
X1471000Y887000D02*
D03*
X1553000Y920000D02*
D03*
X1487000Y1207000D02*
D03*
X1533000D02*
D03*
X11730000Y1700000D02*
D03*
Y950000D02*
D03*
X12375000Y7400000D02*
D03*
Y6910000D02*
D03*
X11950000Y6900000D02*
D03*
X12375000Y7160000D02*
D03*
X11950000Y7165000D02*
D03*
X11945000Y7400000D02*
D03*
X11555000Y7170000D02*
D03*
Y7400000D02*
D03*
X12425000Y4255000D02*
D03*
X12165000Y4785000D02*
D03*
X12425000Y5110000D02*
D03*
Y5935000D02*
D03*
X12185000Y5605000D02*
D03*
X12210000Y6322913D02*
D03*
X10778000Y340000D02*
D03*
X4693386Y4828386D02*
D03*
Y4871693D02*
D03*
Y4915000D02*
D03*
Y4958307D02*
D03*
Y5001614D02*
D03*
X4736693Y4828386D02*
D03*
Y4871693D02*
D03*
Y4915000D02*
D03*
Y4958307D02*
D03*
Y5001614D02*
D03*
X4780000Y4828386D02*
D03*
Y4871693D02*
D03*
Y4915000D02*
D03*
Y4958307D02*
D03*
Y5001614D02*
D03*
X4823307Y4828386D02*
D03*
Y4871693D02*
D03*
Y4915000D02*
D03*
Y4958307D02*
D03*
Y5001614D02*
D03*
X4866614Y4828386D02*
D03*
Y4871693D02*
D03*
Y4915000D02*
D03*
Y4958307D02*
D03*
Y5001614D02*
D03*
D331*
X3939370Y2535039D02*
D03*
X4021370D02*
D03*
X3978370Y2476039D02*
D03*
D332*
X11004171Y5853359D02*
D03*
X10915440D02*
D03*
X10740526D02*
D03*
X11027793Y5869689D02*
D03*
Y5912793D02*
D03*
X11004171Y5678973D02*
D03*
X10915440Y5711633D02*
D03*
X10740526D02*
D03*
X11027793Y5695303D02*
D03*
Y5740303D02*
D03*
X11004171Y5638859D02*
D03*
Y5808859D02*
D03*
D333*
X7976037Y6751491D02*
D03*
D334*
X11838000Y4562000D02*
D03*
D335*
X9593469Y5069299D02*
D03*
X9550162D02*
D03*
X9593469Y5112606D02*
D03*
X9550162D02*
D03*
X8858469Y5069299D02*
D03*
X8815162D02*
D03*
X8858469Y5112606D02*
D03*
X8815162D02*
D03*
X8886654Y6078346D02*
D03*
Y6121654D02*
D03*
X8843346Y6078346D02*
D03*
Y6121654D02*
D03*
X10291693Y6623779D02*
D03*
Y6580472D02*
D03*
Y6537165D02*
D03*
X10335000Y6623779D02*
D03*
Y6580472D02*
D03*
Y6537165D02*
D03*
X10378307Y6623779D02*
D03*
Y6580472D02*
D03*
Y6537165D02*
D03*
X3251614Y2556614D02*
D03*
Y2513307D02*
D03*
Y2470000D02*
D03*
Y2426693D02*
D03*
Y2383386D02*
D03*
X3208307Y2556614D02*
D03*
Y2513307D02*
D03*
Y2470000D02*
D03*
Y2426693D02*
D03*
Y2383386D02*
D03*
X3165000Y2556614D02*
D03*
Y2513307D02*
D03*
Y2470000D02*
D03*
Y2426693D02*
D03*
Y2383386D02*
D03*
X3121693Y2556614D02*
D03*
Y2513307D02*
D03*
Y2470000D02*
D03*
Y2426693D02*
D03*
Y2383386D02*
D03*
X3078386Y2556614D02*
D03*
Y2513307D02*
D03*
Y2470000D02*
D03*
Y2426693D02*
D03*
Y2383386D02*
D03*
X2140433Y6415000D02*
D03*
X2069567D02*
D03*
X2105000Y6435669D02*
D03*
Y6394331D02*
D03*
X1545433Y6415000D02*
D03*
X1474567D02*
D03*
X1510000Y6435669D02*
D03*
Y6394331D02*
D03*
X5789685Y1979685D02*
D03*
X5750315D02*
D03*
X5789685Y1940315D02*
D03*
X5750315D02*
D03*
D344*
X4635000Y1055000D02*
D03*
X5260000D02*
D03*
X3385000D02*
D03*
X885000D02*
D03*
X4010000D02*
D03*
X2760000D02*
D03*
X2135000D02*
D03*
X1510000D02*
D03*
D345*
X4165000Y2005000D02*
D03*
D346*
X9247283Y5195000D02*
D03*
X9282717D02*
D03*
X9247283Y4995000D02*
D03*
X9282717D02*
D03*
X8185432Y860473D02*
D03*
X8149999D02*
D03*
X8185432Y750473D02*
D03*
X8149999D02*
D03*
X7210433Y860473D02*
D03*
X7175000D02*
D03*
X7210433Y750473D02*
D03*
X7175000D02*
D03*
X7600433D02*
D03*
X7565000D02*
D03*
X7600433Y860473D02*
D03*
X7565000D02*
D03*
X7405433Y750473D02*
D03*
X7370000D02*
D03*
X7405433Y860473D02*
D03*
X7370000D02*
D03*
X6625433D02*
D03*
X6590000D02*
D03*
X6625433Y750473D02*
D03*
X6590000D02*
D03*
X6820433Y860473D02*
D03*
X6785000D02*
D03*
X6820433Y750473D02*
D03*
X6785000D02*
D03*
X7015433Y860473D02*
D03*
X6980000D02*
D03*
X7015433Y750473D02*
D03*
X6980000D02*
D03*
X7990433Y860473D02*
D03*
X7955000D02*
D03*
X7990433Y750473D02*
D03*
X7955000D02*
D03*
X7795432Y860473D02*
D03*
X7759999D02*
D03*
X7795432Y750473D02*
D03*
X7759999D02*
D03*
X9684291Y516575D02*
D03*
X9648858D02*
D03*
X3533465Y2442913D02*
D03*
X3498032D02*
D03*
X7702283Y7015000D02*
D03*
X7737717D02*
D03*
X11752717Y2125000D02*
D03*
X11717283D02*
D03*
X11657283Y2225000D02*
D03*
X11692717D02*
D03*
X957284Y920000D02*
D03*
X992717D02*
D03*
X4707283Y1230000D02*
D03*
X4742717D02*
D03*
X4742717Y920000D02*
D03*
X4707283D02*
D03*
X4562717Y1230000D02*
D03*
X4527283D02*
D03*
X5367717Y920000D02*
D03*
X5332283D02*
D03*
X5187717Y1230000D02*
D03*
X5152283D02*
D03*
X5332283D02*
D03*
X5367717D02*
D03*
X9857283Y5125000D02*
D03*
X9892717D02*
D03*
X9857283Y5165000D02*
D03*
X9892717D02*
D03*
X9857283Y5005000D02*
D03*
X9892717D02*
D03*
X9857283Y5045000D02*
D03*
X9892717D02*
D03*
X9857283Y5085000D02*
D03*
X9892717D02*
D03*
X9282717Y5035000D02*
D03*
X9247283D02*
D03*
X9282717Y5075000D02*
D03*
X9247283D02*
D03*
X9282717Y5115000D02*
D03*
X9247283D02*
D03*
X9282717Y5155000D02*
D03*
X9247283D02*
D03*
X9122283Y4990000D02*
D03*
X9157717D02*
D03*
X9122283Y5030000D02*
D03*
X9157717D02*
D03*
X9122283Y5070000D02*
D03*
X9157717D02*
D03*
X9122283Y5110000D02*
D03*
X9157717D02*
D03*
X9122283Y5150000D02*
D03*
X9157717D02*
D03*
X8547717Y4990000D02*
D03*
X8512283D02*
D03*
X8547717Y5030000D02*
D03*
X8512283D02*
D03*
X8547717Y5070000D02*
D03*
X8512283D02*
D03*
X8547717Y5110000D02*
D03*
X8512283D02*
D03*
X8547717Y5150000D02*
D03*
X8512283D02*
D03*
X8547717Y5190000D02*
D03*
X8512283D02*
D03*
X1582283Y1230000D02*
D03*
X1617716D02*
D03*
X812717D02*
D03*
X777284D02*
D03*
X957283D02*
D03*
X992716D02*
D03*
X3567224Y2105000D02*
D03*
X3531791D02*
D03*
X4469717Y3955000D02*
D03*
X4434283D02*
D03*
X4469717Y4075000D02*
D03*
X4434283D02*
D03*
X4147283Y1895000D02*
D03*
X4182717D02*
D03*
X4147283Y2115000D02*
D03*
X4182717D02*
D03*
X4222283D02*
D03*
X4257717D02*
D03*
X4222283Y1895000D02*
D03*
X4257717D02*
D03*
X4332717D02*
D03*
X4297283D02*
D03*
X4332717Y1960000D02*
D03*
X4297283D02*
D03*
X3902284Y1230000D02*
D03*
X3937717D02*
D03*
X4117717D02*
D03*
X4082283D02*
D03*
X4082284Y920000D02*
D03*
X4117717D02*
D03*
X3277284Y1230000D02*
D03*
X3312717D02*
D03*
X3492716D02*
D03*
X3457283D02*
D03*
X3457284Y920000D02*
D03*
X3492717D02*
D03*
X2652284Y1230000D02*
D03*
X2687717D02*
D03*
X2867716D02*
D03*
X2832283D02*
D03*
X2832284Y920000D02*
D03*
X2867717D02*
D03*
X2027284Y1230000D02*
D03*
X2062717D02*
D03*
X2242716D02*
D03*
X2207283D02*
D03*
X2207284Y920000D02*
D03*
X2242717D02*
D03*
X1402284Y1230000D02*
D03*
X1437717D02*
D03*
X1582284Y920000D02*
D03*
X1617717D02*
D03*
X7702283Y7135000D02*
D03*
X7737717D02*
D03*
X7702283Y6955000D02*
D03*
X7737717D02*
D03*
X7702283Y7075000D02*
D03*
X7737717D02*
D03*
X2732284Y2525000D02*
D03*
X2767717D02*
D03*
X2777284Y2340000D02*
D03*
X2812717D02*
D03*
X2777284Y2300000D02*
D03*
X2812717D02*
D03*
X3417284Y2070000D02*
D03*
X3452717D02*
D03*
X3342284D02*
D03*
X3377717D02*
D03*
X3267284D02*
D03*
X3302717D02*
D03*
X3192284D02*
D03*
X3227717D02*
D03*
X3117284D02*
D03*
X3152717D02*
D03*
X3042284D02*
D03*
X3077717D02*
D03*
X2967284D02*
D03*
X3002717D02*
D03*
X2892284D02*
D03*
X2927717D02*
D03*
X4522283Y4787047D02*
D03*
X4557717D02*
D03*
D347*
X9699650Y6000689D02*
D03*
X9679965D02*
D03*
Y6060728D02*
D03*
X9699650D02*
D03*
D348*
X9659783Y6001181D02*
D03*
Y6020866D02*
D03*
Y6040551D02*
D03*
Y6060236D02*
D03*
X9719823D02*
D03*
Y6040551D02*
D03*
Y6020866D02*
D03*
Y6001181D02*
D03*
D349*
X9709803Y6175433D02*
D03*
Y6265984D02*
D03*
D350*
X9478189Y6070709D02*
D03*
X9452598D02*
D03*
X9427008D02*
D03*
X9401417D02*
D03*
Y5990709D02*
D03*
X9427008D02*
D03*
X9452598D02*
D03*
X9478189D02*
D03*
X9522602Y5161819D02*
D03*
X9542288D02*
D03*
X9561972D02*
D03*
X9581658D02*
D03*
X9601343D02*
D03*
X9621028D02*
D03*
Y5020087D02*
D03*
X9601343D02*
D03*
X9581658D02*
D03*
X9561972D02*
D03*
X9542288D02*
D03*
X9522602D02*
D03*
X8787602Y5161819D02*
D03*
X8807288D02*
D03*
X8826972D02*
D03*
X8846658D02*
D03*
X8866343D02*
D03*
X8886028D02*
D03*
Y5020087D02*
D03*
X8866343D02*
D03*
X8846658D02*
D03*
X8826972D02*
D03*
X8807288D02*
D03*
X8787602D02*
D03*
D351*
X8240078Y673189D02*
D03*
X8199921D02*
D03*
X8240078Y447756D02*
D03*
X8199921D02*
D03*
X7265079Y673189D02*
D03*
X7224921D02*
D03*
X7265079Y447756D02*
D03*
X7224921D02*
D03*
X7460079D02*
D03*
X7419921D02*
D03*
X7460079Y673189D02*
D03*
X7419921D02*
D03*
X7850078D02*
D03*
X7809921D02*
D03*
X7655079D02*
D03*
X7614921D02*
D03*
X7850078Y447756D02*
D03*
X7809921D02*
D03*
X7655079D02*
D03*
X7614921D02*
D03*
X6680079Y673189D02*
D03*
X6639921D02*
D03*
X6680079Y447756D02*
D03*
X6639921D02*
D03*
X6875079D02*
D03*
X6834921D02*
D03*
X7070079D02*
D03*
X7029921D02*
D03*
X6875079Y673189D02*
D03*
X6834921D02*
D03*
X7070079D02*
D03*
X7029921D02*
D03*
X8045079Y447756D02*
D03*
X8004921D02*
D03*
X8045079Y673189D02*
D03*
X8004921D02*
D03*
X4379921Y4122284D02*
D03*
X4420079D02*
D03*
X4379921Y4347716D02*
D03*
X4420079D02*
D03*
D352*
X9951575Y516417D02*
D03*
Y669961D02*
D03*
X9751575D02*
D03*
Y516417D02*
D03*
D353*
X10146575Y454134D02*
D03*
Y518701D02*
D03*
D354*
X4692575Y5543740D02*
D03*
X4789425D02*
D03*
X4692575Y5382323D02*
D03*
X4789425D02*
D03*
D355*
X5228346Y530000D02*
D03*
X5271654D02*
D03*
X4646654D02*
D03*
X4603346D02*
D03*
X4438346Y885000D02*
D03*
X4481654D02*
D03*
X5063346D02*
D03*
X5106654D02*
D03*
X688346D02*
D03*
X731654D02*
D03*
X896654Y530000D02*
D03*
X853346D02*
D03*
X4401654Y2042205D02*
D03*
X4358346D02*
D03*
X4023347Y2115000D02*
D03*
X4066654D02*
D03*
X4023347Y1895000D02*
D03*
X4066654D02*
D03*
X4693346Y2093386D02*
D03*
X4736654D02*
D03*
X4426654Y1895000D02*
D03*
X4383346D02*
D03*
X3856654Y885000D02*
D03*
X3813347D02*
D03*
X3978346Y530000D02*
D03*
X4021653D02*
D03*
X3231654Y885000D02*
D03*
X3188347D02*
D03*
X3353346Y530000D02*
D03*
X3396653D02*
D03*
X2606654Y885000D02*
D03*
X2563347D02*
D03*
X2728346Y530000D02*
D03*
X2771653D02*
D03*
X1981654Y885000D02*
D03*
X1938347D02*
D03*
X2103346Y530000D02*
D03*
X2146653D02*
D03*
X1356654Y885000D02*
D03*
X1313347D02*
D03*
X1478346Y530000D02*
D03*
X1521653D02*
D03*
D356*
X5239409Y308504D02*
D03*
X5265000D02*
D03*
X5290591D02*
D03*
Y371496D02*
D03*
X5265000D02*
D03*
X5239409D02*
D03*
X4614409D02*
D03*
X4640000D02*
D03*
X4665591D02*
D03*
Y308504D02*
D03*
X4640000D02*
D03*
X4614409D02*
D03*
X864409Y371496D02*
D03*
X890000D02*
D03*
X915591D02*
D03*
Y308504D02*
D03*
X890000D02*
D03*
X864409D02*
D03*
X3989409D02*
D03*
X4015000D02*
D03*
X4040590D02*
D03*
Y371496D02*
D03*
X4015000D02*
D03*
X3989409D02*
D03*
X3364409Y308504D02*
D03*
X3390000D02*
D03*
X3415590D02*
D03*
Y371496D02*
D03*
X3390000D02*
D03*
X3364409D02*
D03*
X2739409Y308504D02*
D03*
X2765000D02*
D03*
X2790590D02*
D03*
Y371496D02*
D03*
X2765000D02*
D03*
X2739409D02*
D03*
X2114409Y308504D02*
D03*
X2140000D02*
D03*
X2165590D02*
D03*
Y371496D02*
D03*
X2140000D02*
D03*
X2114409D02*
D03*
X1489409Y308504D02*
D03*
X1515000D02*
D03*
X1540591D02*
D03*
Y371496D02*
D03*
X1515000D02*
D03*
X1489409D02*
D03*
D357*
X2314921Y3623740D02*
D03*
X2295236D02*
D03*
X2275551D02*
D03*
Y3692638D02*
D03*
X2295236D02*
D03*
X2314921D02*
D03*
X5015315Y5165551D02*
D03*
X5035000D02*
D03*
X5054685D02*
D03*
Y5234449D02*
D03*
X5035000D02*
D03*
X5015315D02*
D03*
D358*
X4745000Y1186653D02*
D03*
Y1143346D02*
D03*
X4725000Y491654D02*
D03*
Y448346D02*
D03*
X4675000Y851654D02*
D03*
Y808346D02*
D03*
X4525000Y1186653D02*
D03*
Y1143346D02*
D03*
X5150000Y1186653D02*
D03*
Y1143346D02*
D03*
X5370000Y1186653D02*
D03*
Y1143346D02*
D03*
X5300000Y851654D02*
D03*
Y808346D02*
D03*
X5350000Y491654D02*
D03*
Y448346D02*
D03*
X2800000Y851654D02*
D03*
Y808346D02*
D03*
X775000Y1186653D02*
D03*
Y1143346D02*
D03*
X975000Y491654D02*
D03*
Y448346D02*
D03*
X995000Y1186653D02*
D03*
Y1143346D02*
D03*
X925000Y851654D02*
D03*
Y808346D02*
D03*
X4705000Y2016653D02*
D03*
Y1973346D02*
D03*
X4100000Y448346D02*
D03*
Y491654D02*
D03*
X4050000Y808346D02*
D03*
Y851654D02*
D03*
X3900000Y1143346D02*
D03*
Y1186653D02*
D03*
X4120000Y1143346D02*
D03*
Y1186653D02*
D03*
X3475000Y448346D02*
D03*
Y491654D02*
D03*
X3425000Y808346D02*
D03*
Y851654D02*
D03*
X3275000Y1143346D02*
D03*
Y1186653D02*
D03*
X3495000Y1143346D02*
D03*
Y1186653D02*
D03*
X2850000Y448346D02*
D03*
Y491654D02*
D03*
X2650000Y1143346D02*
D03*
Y1186653D02*
D03*
X2870000Y1143346D02*
D03*
Y1186653D02*
D03*
X2225000Y448346D02*
D03*
Y491654D02*
D03*
X2175000Y808346D02*
D03*
Y851654D02*
D03*
X2025000Y1143346D02*
D03*
Y1186653D02*
D03*
X2245000Y1143346D02*
D03*
Y1186653D02*
D03*
X1600000Y448346D02*
D03*
Y491654D02*
D03*
X1550000Y808346D02*
D03*
Y851654D02*
D03*
X1400000Y1143346D02*
D03*
Y1186653D02*
D03*
X1620000Y1143346D02*
D03*
Y1186653D02*
D03*
D359*
X9571815Y5090953D02*
D03*
X8836815D02*
D03*
D360*
X9642681Y5140165D02*
D03*
Y5120480D02*
D03*
Y5100795D02*
D03*
Y5081110D02*
D03*
Y5061425D02*
D03*
Y5041740D02*
D03*
X9500949D02*
D03*
Y5061425D02*
D03*
Y5081110D02*
D03*
Y5100795D02*
D03*
Y5120480D02*
D03*
Y5140165D02*
D03*
X8907681D02*
D03*
Y5120480D02*
D03*
Y5100795D02*
D03*
Y5081110D02*
D03*
Y5061425D02*
D03*
Y5041740D02*
D03*
X8765949D02*
D03*
Y5061425D02*
D03*
Y5081110D02*
D03*
Y5100795D02*
D03*
Y5120480D02*
D03*
Y5140165D02*
D03*
D361*
X3165000Y2470000D02*
D03*
D362*
X2992756Y2328268D02*
D03*
Y2344016D02*
D03*
Y2359764D02*
D03*
Y2375512D02*
D03*
Y2391260D02*
D03*
Y2407008D02*
D03*
Y2422756D02*
D03*
Y2438504D02*
D03*
Y2454252D02*
D03*
Y2470000D02*
D03*
Y2485748D02*
D03*
Y2501496D02*
D03*
Y2517244D02*
D03*
Y2532992D02*
D03*
Y2548740D02*
D03*
Y2564488D02*
D03*
Y2580236D02*
D03*
Y2595984D02*
D03*
Y2611732D02*
D03*
X3337244D02*
D03*
Y2595984D02*
D03*
Y2580236D02*
D03*
Y2564488D02*
D03*
Y2548740D02*
D03*
Y2532992D02*
D03*
Y2517244D02*
D03*
Y2501496D02*
D03*
Y2485748D02*
D03*
Y2470000D02*
D03*
Y2454252D02*
D03*
Y2438504D02*
D03*
Y2422756D02*
D03*
Y2407008D02*
D03*
Y2391260D02*
D03*
Y2375512D02*
D03*
Y2359764D02*
D03*
Y2344016D02*
D03*
Y2328268D02*
D03*
D363*
X3023268Y2642244D02*
D03*
X3039016D02*
D03*
X3054764D02*
D03*
X3070512D02*
D03*
X3086260D02*
D03*
X3102008D02*
D03*
X3117756D02*
D03*
X3133504D02*
D03*
X3149252D02*
D03*
X3165000D02*
D03*
X3180748D02*
D03*
X3196496D02*
D03*
X3212244D02*
D03*
X3227992D02*
D03*
X3243740D02*
D03*
X3259488D02*
D03*
X3275236D02*
D03*
X3290984D02*
D03*
X3306732D02*
D03*
Y2297756D02*
D03*
X3290984D02*
D03*
X3275236D02*
D03*
X3259488D02*
D03*
X3243740D02*
D03*
X3227992D02*
D03*
X3212244D02*
D03*
X3196496D02*
D03*
X3180748D02*
D03*
X3165000D02*
D03*
X3149252D02*
D03*
X3133504D02*
D03*
X3117756D02*
D03*
X3102008D02*
D03*
X3086260D02*
D03*
X3070512D02*
D03*
X3054764D02*
D03*
X3039016D02*
D03*
X3023268D02*
D03*
D364*
X7305118Y3736220D02*
D03*
Y3716535D02*
D03*
Y3696850D02*
D03*
Y3677165D02*
D03*
Y3657480D02*
D03*
Y3637795D02*
D03*
Y3618110D02*
D03*
Y3598425D02*
D03*
Y3578740D02*
D03*
Y3559055D02*
D03*
Y3539370D02*
D03*
Y3519685D02*
D03*
Y3500000D02*
D03*
Y3480315D02*
D03*
Y3460630D02*
D03*
Y3440945D02*
D03*
Y3421260D02*
D03*
Y3401575D02*
D03*
Y3381890D02*
D03*
Y3362205D02*
D03*
Y3342520D02*
D03*
Y3322835D02*
D03*
Y3303150D02*
D03*
Y3283465D02*
D03*
Y3263780D02*
D03*
X6694882D02*
D03*
Y3283465D02*
D03*
Y3303150D02*
D03*
Y3322835D02*
D03*
Y3342520D02*
D03*
Y3362205D02*
D03*
Y3381890D02*
D03*
Y3401575D02*
D03*
Y3421260D02*
D03*
Y3440945D02*
D03*
Y3460630D02*
D03*
Y3480315D02*
D03*
Y3500000D02*
D03*
Y3519685D02*
D03*
Y3539370D02*
D03*
Y3559055D02*
D03*
Y3578740D02*
D03*
Y3598425D02*
D03*
Y3618110D02*
D03*
Y3637795D02*
D03*
Y3657480D02*
D03*
Y3677165D02*
D03*
Y3696850D02*
D03*
Y3716535D02*
D03*
Y3736220D02*
D03*
D365*
X7236221Y3194882D02*
D03*
X7216535D02*
D03*
X7196850D02*
D03*
X7177165D02*
D03*
X7157480D02*
D03*
X7137795D02*
D03*
X7118110D02*
D03*
X7098425D02*
D03*
X7078740D02*
D03*
X7059055D02*
D03*
X7039370D02*
D03*
X7019685D02*
D03*
X7000000D02*
D03*
X6980315D02*
D03*
X6960630D02*
D03*
X6940945D02*
D03*
X6921260D02*
D03*
X6901575D02*
D03*
X6881890D02*
D03*
X6862205D02*
D03*
X6842520D02*
D03*
X6822835D02*
D03*
X6803150D02*
D03*
X6783465D02*
D03*
X6763779D02*
D03*
Y3805118D02*
D03*
X6783465D02*
D03*
X6803150D02*
D03*
X6822835D02*
D03*
X6842520D02*
D03*
X6862205D02*
D03*
X6881890D02*
D03*
X6901575D02*
D03*
X6921260D02*
D03*
X6940945D02*
D03*
X6960630D02*
D03*
X6980315D02*
D03*
X7000000D02*
D03*
X7019685D02*
D03*
X7039370D02*
D03*
X7059055D02*
D03*
X7078740D02*
D03*
X7098425D02*
D03*
X7118110D02*
D03*
X7137795D02*
D03*
X7157480D02*
D03*
X7177165D02*
D03*
X7196850D02*
D03*
X7216535D02*
D03*
X7236221D02*
D03*
D366*
X6905000Y4003268D02*
D03*
Y4036732D02*
D03*
X6955000Y4003268D02*
D03*
Y4036732D02*
D03*
X7075000Y2963268D02*
D03*
Y2996732D02*
D03*
X7125000Y2963268D02*
D03*
Y2996732D02*
D03*
X6975000Y2963268D02*
D03*
Y2996732D02*
D03*
X7025000Y2963268D02*
D03*
Y2996732D02*
D03*
X6875000Y2963268D02*
D03*
Y2996732D02*
D03*
X6925000Y2963268D02*
D03*
Y2996732D02*
D03*
X6775000Y2963268D02*
D03*
Y2996732D02*
D03*
X6825000Y2963268D02*
D03*
Y2996732D02*
D03*
X6675000Y2963268D02*
D03*
Y2996732D02*
D03*
X6725000Y2963268D02*
D03*
Y2996732D02*
D03*
X2605000Y3933268D02*
D03*
Y3966732D02*
D03*
X2560000Y3933268D02*
D03*
Y3966732D02*
D03*
X2515000Y3933268D02*
D03*
Y3966732D02*
D03*
X2470000Y3933268D02*
D03*
Y3966732D02*
D03*
X2425000Y3933268D02*
D03*
Y3966732D02*
D03*
X2380000Y3933268D02*
D03*
Y3966732D02*
D03*
D367*
X11822598Y6312835D02*
D03*
X11897401D02*
D03*
X11860000Y6417165D02*
D03*
X11372598Y6312835D02*
D03*
X11447401D02*
D03*
X11410000Y6417165D02*
D03*
X11522598Y6312835D02*
D03*
X11597401D02*
D03*
X11560000Y6417165D02*
D03*
X11672598Y6312835D02*
D03*
X11747401D02*
D03*
X11710000Y6417165D02*
D03*
D368*
X4780000Y4915000D02*
D03*
D369*
X4952244Y5062638D02*
D03*
Y5042953D02*
D03*
Y5023268D02*
D03*
Y5003583D02*
D03*
Y4983898D02*
D03*
Y4964213D02*
D03*
Y4944528D02*
D03*
Y4924842D02*
D03*
Y4905158D02*
D03*
Y4885472D02*
D03*
Y4865787D02*
D03*
Y4846102D02*
D03*
Y4826417D02*
D03*
Y4806732D02*
D03*
Y4787047D02*
D03*
Y4767362D02*
D03*
X4607756D02*
D03*
Y4787047D02*
D03*
Y4806732D02*
D03*
Y4826417D02*
D03*
Y4846102D02*
D03*
Y4865787D02*
D03*
Y4885472D02*
D03*
Y4905158D02*
D03*
Y4924842D02*
D03*
Y4944528D02*
D03*
Y4964213D02*
D03*
Y4983898D02*
D03*
Y5003583D02*
D03*
Y5023268D02*
D03*
Y5042953D02*
D03*
Y5062638D02*
D03*
D370*
X4927638Y4742756D02*
D03*
X4907953D02*
D03*
X4888268D02*
D03*
X4868583D02*
D03*
X4848898D02*
D03*
X4829213D02*
D03*
X4809528D02*
D03*
X4789842D02*
D03*
X4770158D02*
D03*
X4750472D02*
D03*
X4730787D02*
D03*
X4711102D02*
D03*
X4691417D02*
D03*
X4671732D02*
D03*
X4652047D02*
D03*
X4632362D02*
D03*
Y5087244D02*
D03*
X4652047D02*
D03*
X4671732D02*
D03*
X4691417D02*
D03*
X4711102D02*
D03*
X4730787D02*
D03*
X4750472D02*
D03*
X4770158D02*
D03*
X4789842D02*
D03*
X4809528D02*
D03*
X4829213D02*
D03*
X4848898D02*
D03*
X4868583D02*
D03*
X4888268D02*
D03*
X4907953D02*
D03*
X4927638D02*
D03*
D371*
X2105000Y6415000D02*
D03*
X1510000D02*
D03*
D372*
X2143386Y6356929D02*
D03*
X2117795D02*
D03*
X2092205D02*
D03*
X2066614D02*
D03*
Y6473071D02*
D03*
X2092205D02*
D03*
X2117795D02*
D03*
X2143386D02*
D03*
X1548386Y6356929D02*
D03*
X1522795D02*
D03*
X1497205D02*
D03*
X1471614D02*
D03*
Y6473071D02*
D03*
X1497205D02*
D03*
X1522795D02*
D03*
X1548386D02*
D03*
D373*
X12053701Y4437992D02*
D03*
Y4418307D02*
D03*
Y4398622D02*
D03*
Y4378937D02*
D03*
Y4359252D02*
D03*
Y4562008D02*
D03*
Y4581693D02*
D03*
Y4601378D02*
D03*
Y4621063D02*
D03*
Y4640748D02*
D03*
D374*
X8947244Y5727402D02*
D03*
Y5652599D02*
D03*
X8852756D02*
D03*
Y5690000D02*
D03*
Y5727402D02*
D03*
D375*
X4768504Y1979409D02*
D03*
Y2005000D02*
D03*
Y2030591D02*
D03*
X4831496D02*
D03*
Y2005000D02*
D03*
Y1979409D02*
D03*
D376*
X4553543Y2410000D02*
D03*
X4496457D02*
D03*
X4553543Y2335000D02*
D03*
X4496457D02*
D03*
D377*
X4621457Y6415000D02*
D03*
X4678543D02*
D03*
X4731457D02*
D03*
X4788543D02*
D03*
D378*
X10806654Y340000D02*
D03*
X10823386D02*
D03*
D379*
X4968504Y6722441D02*
D03*
X7531496D02*
D03*
D380*
X6755000Y5986732D02*
D03*
Y5953268D02*
D03*
D381*
X8267717Y7200000D02*
D03*
Y7121260D02*
D03*
Y7042520D02*
D03*
Y6963779D02*
D03*
Y6885039D02*
D03*
Y6806299D02*
D03*
Y6727559D02*
D03*
X8100000D02*
D03*
Y6806299D02*
D03*
Y6885039D02*
D03*
Y6963779D02*
D03*
Y7042520D02*
D03*
Y7121260D02*
D03*
Y7200000D02*
D03*
D382*
X1156142Y5911614D02*
D03*
Y5937205D02*
D03*
Y5962795D02*
D03*
Y5988386D02*
D03*
X923858Y5911614D02*
D03*
Y5937205D02*
D03*
Y5962795D02*
D03*
Y5988386D02*
D03*
X1901142Y5911614D02*
D03*
Y5937205D02*
D03*
Y5962795D02*
D03*
Y5988386D02*
D03*
X1668858Y5911614D02*
D03*
Y5937205D02*
D03*
Y5962795D02*
D03*
Y5988386D02*
D03*
D383*
X3204449Y2739685D02*
D03*
Y2720000D02*
D03*
Y2700315D02*
D03*
X3135551D02*
D03*
Y2720000D02*
D03*
Y2739685D02*
D03*
D384*
X4500000Y5311496D02*
D03*
Y5248504D02*
D03*
D385*
X4988504Y4420000D02*
D03*
X5051496D02*
D03*
D386*
X4333740Y5280000D02*
D03*
X4426260Y5317401D02*
D03*
Y5242598D02*
D03*
D387*
X5020000Y4253740D02*
D03*
X4982599Y4346260D02*
D03*
X5057402D02*
D03*
D388*
X5035512Y5490000D02*
D03*
X4974488D02*
D03*
D389*
X2392362Y3440000D02*
D03*
X2437638D02*
D03*
D390*
X2240000Y3452362D02*
D03*
Y3497638D02*
D03*
%TF.MD5,587f00a726ddb6d993a7cdfddf234bd6*%
M02*
