%TF.GenerationSoftware,Altium Limited,Altium Designer,22.6.1 (34)*%
G04 Layer_Color=16711935*
%FSLAX26Y26*%
%MOIN*%
%TF.SameCoordinates,08F94D22-2ED8-4738-ABBF-34BB79D8E07D*%
%TF.FilePolarity,Positive*%
%TF.FileFunction,Other,Mechanical_1*%
%TF.Part,Single*%
G01*
G75*
%TA.AperFunction,NonConductor*%
%ADD250C,0.003937*%
%ADD254C,0.001968*%
%ADD391C,0.002362*%
D250*
X6395000Y5255994D02*
Y5282233D01*
X6400248Y5287480D01*
X6410743D01*
X6415991Y5282233D01*
Y5255994D01*
X6426486Y5287480D02*
X6436981D01*
X6431734D01*
Y5255994D01*
X6426486Y5261242D01*
X6452724D02*
X6457972Y5255994D01*
X6468467D01*
X6473715Y5261242D01*
Y5282233D01*
X6468467Y5287480D01*
X6457972D01*
X6452724Y5282233D01*
Y5261242D01*
X1786732Y2775068D02*
Y2748830D01*
X1781485Y2743583D01*
X1770989D01*
X1765742Y2748830D01*
Y2775068D01*
X1755246Y2743583D02*
X1744751D01*
X1749999D01*
Y2775068D01*
X1755246Y2769821D01*
X1961732Y3201032D02*
Y3223991D01*
X1966324Y3228583D01*
X1975507D01*
X1980099Y3223991D01*
Y3201032D01*
X2007649Y3228583D02*
X1989283D01*
X2007649Y3210216D01*
Y3205624D01*
X2003058Y3201032D01*
X1993874D01*
X1989283Y3205624D01*
X2016833D02*
X2021424Y3201032D01*
X2030608D01*
X2035199Y3205624D01*
Y3223991D01*
X2030608Y3228583D01*
X2021424D01*
X2016833Y3223991D01*
Y3205624D01*
X11055000Y3322550D02*
Y3299592D01*
X11050408Y3295000D01*
X11041225D01*
X11036633Y3299592D01*
Y3322550D01*
X11027450Y3317959D02*
X11022858Y3322550D01*
X11013675D01*
X11009083Y3317959D01*
Y3313367D01*
X11013675Y3308775D01*
X11018266D01*
X11013675D01*
X11009083Y3304183D01*
Y3299592D01*
X11013675Y3295000D01*
X11022858D01*
X11027450Y3299592D01*
X10981533Y3295000D02*
X10999900D01*
X10981533Y3313367D01*
Y3317959D01*
X10986124Y3322550D01*
X10995308D01*
X10999900Y3317959D01*
X11055000Y1347550D02*
Y1324592D01*
X11050408Y1320000D01*
X11041225D01*
X11036633Y1324592D01*
Y1347550D01*
X11027450Y1342958D02*
X11022858Y1347550D01*
X11013675D01*
X11009083Y1342958D01*
Y1338367D01*
X11013675Y1333775D01*
X11018266D01*
X11013675D01*
X11009083Y1329183D01*
Y1324592D01*
X11013675Y1320000D01*
X11022858D01*
X11027450Y1324592D01*
X10999900Y1342958D02*
X10995308Y1347550D01*
X10986124D01*
X10981533Y1342958D01*
Y1338367D01*
X10986124Y1333775D01*
X10990716D01*
X10986124D01*
X10981533Y1329183D01*
Y1324592D01*
X10986124Y1320000D01*
X10995308D01*
X10999900Y1324592D01*
X11055000Y1992550D02*
Y1969592D01*
X11050408Y1965000D01*
X11041225D01*
X11036633Y1969592D01*
Y1992550D01*
X11027450Y1965000D02*
X11018266D01*
X11022858D01*
Y1992550D01*
X11027450Y1987958D01*
X11004491Y1965000D02*
X10995308D01*
X10999900D01*
Y1992550D01*
X11004491Y1987958D01*
X7155000Y1617550D02*
Y1594592D01*
X7150408Y1590000D01*
X7141225D01*
X7136633Y1594592D01*
Y1617550D01*
X7109083Y1590000D02*
X7127450D01*
X7109083Y1608367D01*
Y1612958D01*
X7113675Y1617550D01*
X7122858D01*
X7127450Y1612958D01*
X7099900Y1590000D02*
X7090716D01*
X7095308D01*
Y1617550D01*
X7099900Y1612958D01*
X1740000Y5181386D02*
Y5201064D01*
X1743936Y5205000D01*
X1751807D01*
X1755743Y5201064D01*
Y5181386D01*
X1775422Y5205000D02*
Y5181386D01*
X1763614Y5193193D01*
X1779357D01*
X1802972Y5181386D02*
X1787229D01*
Y5193193D01*
X1795100Y5189257D01*
X1799036D01*
X1802972Y5193193D01*
Y5201064D01*
X1799036Y5205000D01*
X1791165D01*
X1787229Y5201064D01*
X925000Y4677450D02*
Y4700408D01*
X929592Y4705000D01*
X938775D01*
X943367Y4700408D01*
Y4677450D01*
X970917Y4705000D02*
X952550D01*
X970917Y4686633D01*
Y4682042D01*
X966325Y4677450D01*
X957142D01*
X952550Y4682042D01*
X998467Y4677450D02*
X989284Y4682042D01*
X980100Y4691225D01*
Y4700408D01*
X984692Y4705000D01*
X993875D01*
X998467Y4700408D01*
Y4695817D01*
X993875Y4691225D01*
X980100D01*
X5075000Y3137550D02*
Y3114592D01*
X5070408Y3110000D01*
X5061225D01*
X5056633Y3114592D01*
Y3137550D01*
X5029083Y3110000D02*
X5047450D01*
X5029083Y3128367D01*
Y3132959D01*
X5033675Y3137550D01*
X5042858D01*
X5047450Y3132959D01*
X5001533Y3137550D02*
X5019900D01*
Y3123775D01*
X5010716Y3128367D01*
X5006124D01*
X5001533Y3123775D01*
Y3114592D01*
X5006124Y3110000D01*
X5015308D01*
X5019900Y3114592D01*
X4130000Y4626486D02*
Y4600248D01*
X4124752Y4595000D01*
X4114257D01*
X4109009Y4600248D01*
Y4626486D01*
X4077523D02*
X4088019Y4621238D01*
X4098514Y4610743D01*
Y4600248D01*
X4093266Y4595000D01*
X4082771D01*
X4077523Y4600248D01*
Y4605495D01*
X4082771Y4610743D01*
X4098514D01*
X5430000Y4593514D02*
Y4619752D01*
X5435248Y4625000D01*
X5445743D01*
X5450991Y4619752D01*
Y4593514D01*
X5461486D02*
X5482476D01*
Y4598762D01*
X5461486Y4619752D01*
Y4625000D01*
X1065000Y3941486D02*
Y3915248D01*
X1059752Y3910000D01*
X1049257D01*
X1044009Y3915248D01*
Y3941486D01*
X1017771Y3910000D02*
Y3941486D01*
X1033514Y3925743D01*
X1012524D01*
D254*
X2302043Y3678189D02*
X2292204D01*
X2290236Y3676221D01*
Y3672285D01*
X2292204Y3670318D01*
X2302043D01*
X2290236Y3658510D02*
Y3666382D01*
X2298108Y3658510D01*
X2300075D01*
X2302043Y3660478D01*
Y3664414D01*
X2300075Y3666382D01*
X2290236Y3648671D02*
X2302043D01*
X2296140Y3654575D01*
Y3646703D01*
X5028193Y5180000D02*
X5038032D01*
X5040000Y5181968D01*
Y5185904D01*
X5038032Y5187872D01*
X5028193D01*
X5030161Y5191807D02*
X5028193Y5193775D01*
Y5197711D01*
X5030161Y5199679D01*
X5032128D01*
X5034096Y5197711D01*
Y5195743D01*
Y5197711D01*
X5036064Y5199679D01*
X5038032D01*
X5040000Y5197711D01*
Y5193775D01*
X5038032Y5191807D01*
X5028193Y5211486D02*
X5030161Y5207550D01*
X5034096Y5203614D01*
X5038032D01*
X5040000Y5205582D01*
Y5209518D01*
X5038032Y5211486D01*
X5036064D01*
X5034096Y5209518D01*
Y5203614D01*
X3150000Y2726807D02*
Y2716968D01*
X3151968Y2715000D01*
X3155904D01*
X3157872Y2716968D01*
Y2726807D01*
X3169679Y2715000D02*
X3161807D01*
X3169679Y2722872D01*
Y2724839D01*
X3167711Y2726807D01*
X3163775D01*
X3161807Y2724839D01*
X3181486Y2715000D02*
X3173614D01*
X3181486Y2722872D01*
Y2724839D01*
X3179518Y2726807D01*
X3175582D01*
X3173614Y2724839D01*
D391*
X3990000Y5074257D02*
Y5087376D01*
X3992624Y5090000D01*
X3997872D01*
X4000495Y5087376D01*
Y5074257D01*
X4005743Y5076881D02*
X4008367Y5074257D01*
X4013614D01*
X4016238Y5076881D01*
Y5079505D01*
X4013614Y5082128D01*
X4016238Y5084752D01*
Y5087376D01*
X4013614Y5090000D01*
X4008367D01*
X4005743Y5087376D01*
Y5084752D01*
X4008367Y5082128D01*
X4005743Y5079505D01*
Y5076881D01*
X4008367Y5082128D02*
X4013614D01*
X11795000Y1705743D02*
Y1692624D01*
X11797624Y1690000D01*
X11802871D01*
X11805495Y1692624D01*
Y1705743D01*
X11818614Y1690000D02*
Y1705743D01*
X11810743Y1697871D01*
X11821238D01*
X11826486Y1705743D02*
X11836981D01*
Y1703119D01*
X11826486Y1692624D01*
Y1690000D01*
X11795000Y955743D02*
Y942624D01*
X11797624Y940000D01*
X11802871D01*
X11805495Y942624D01*
Y955743D01*
X11818614Y940000D02*
Y955743D01*
X11810743Y947871D01*
X11821238D01*
X11836981Y955743D02*
X11831733Y953119D01*
X11826486Y947871D01*
Y942624D01*
X11829110Y940000D01*
X11834357D01*
X11836981Y942624D01*
Y945248D01*
X11834357Y947871D01*
X11826486D01*
X5470000Y5245743D02*
Y5232624D01*
X5467376Y5230000D01*
X5462128D01*
X5459505Y5232624D01*
Y5245743D01*
X5454257Y5232624D02*
X5451633Y5230000D01*
X5446386D01*
X5443762Y5232624D01*
Y5243119D01*
X5446386Y5245743D01*
X5451633D01*
X5454257Y5243119D01*
Y5240495D01*
X5451633Y5237872D01*
X5443762D01*
X7895000Y6389257D02*
Y6402376D01*
X7892376Y6405000D01*
X7887128D01*
X7884505Y6402376D01*
Y6389257D01*
X7871386Y6405000D02*
Y6389257D01*
X7879257Y6397128D01*
X7868762D01*
X7853019Y6405000D02*
X7863514D01*
X7853019Y6394505D01*
Y6391881D01*
X7855643Y6389257D01*
X7860890D01*
X7863514Y6391881D01*
%TF.MD5,54e5cdd71e3ffcc27278ffdc4b626cb1*%
M02*
