M48
;Layer_Color=9474304
;FILE_FORMAT=2:5
INCH,LZ
;TYPE=PLATED
T1F00S00C0.00787
T2F00S00C0.00800
T3F00S00C0.01000
T4F00S00C0.01500
T5F00S00C0.02000
T7F00S00C0.02800
T9F00S00C0.03500
T10F00S00C0.03543
T11F00S00C0.03937
T13F00S00C0.04016
T14F00S00C0.04300
T15F00S00C0.04331
T16F00S00C0.04528
T17F00S00C0.06299
T18F00S00C0.06300
T19F00S00C0.07087
T20F00S00C0.12600
T21F00S00C0.13400
;TYPE=NON_PLATED
T22F00S00C0.03150
T24F00S00C0.05709
T25F00S00C0.08900
T26F00S00C0.12402
T27F00S00C0.12600
%
T01
X0575032Y0194032
X0578968
Y0197968
X0575032
X0325161Y0238339
Y0242669
Y0247
Y0251331
Y0255661
X0320831
Y0251331
Y0247
Y0242669
Y0238339
X03165
Y0242669
Y0247
Y0251331
Y0255661
X0312169
Y0251331
Y0247
Y0242669
Y0238339
X0307839
Y0242669
Y0247
Y0251331
Y0255661
X0881516Y050693
Y0511261
X0885847
Y050693
X0955016
Y0511261
X0959347
Y050693
X02105Y0639433
Y0643567
X0206957Y06415
X0154543
X0151Y0639433
Y0643567
X0147457Y06415
X0214043
X0884335Y0612165
Y0607835
X0888665
Y0612165
X1029169Y0653717
X10335
X1037831
Y0658047
Y0662378
X10335
Y0658047
X1029169
Y0662378
T02
X1074053Y0571163
Y0585336
X1091544
X1100417
X1102779Y0586969
Y0591279
X1100417Y0580886
X1102779Y057403
Y056953
X1100417Y0567897
Y0563886
X1091544Y0571163
T03
X00808Y00245
X00865Y00279
X0089Y00401
X0082Y0053
X01142Y00245
X01433
X0149Y00279
X01515Y00401
X01445Y0053
X01767Y00245
X02058
X02115Y00279
X0207Y0053
X0214Y00401
X02392Y00245
X02683
X0274Y00279
X02765Y00401
X02695Y0053
X03017Y00245
X03308
X03365Y00279
X0339Y00401
X0332Y0053
X03642Y00245
X03933
X0399Y00279
X04015Y00401
X03945Y0053
X04267Y00245
X04558
X04615Y00279
X0464Y00401
X0457Y0053
X04892Y00245
X05183
X0524Y00279
X05195Y0053
X05265Y00401
X05517Y00245
X0670878Y0044776
Y0051297
X0690378
Y0044776
X0709878
Y0051297
X0729378
Y0044776
X0748878
Y0051297
X0768378
Y0044776
X0787878
Y0051297
X0807378
Y0044776
X0826878
Y0051297
X0938386Y0047095
X0946236Y0047721
Y0052642
X0951157Y0052642
X0956079Y0052642
Y0047721
X0951157Y0047721
X0947579Y003987
X0956705
X0963929Y0046142
X0971793Y0046417
X0977756Y0041653
X0970354Y0035669
X0990787Y0046374
X0938386Y0056221
X093405Y0030467
X0929291Y0033583
X0995158Y0039642
X1019874Y004072
Y0045413
Y005187
X1017688Y0032873
X1073332Y0024468
X1085461Y0034
X109Y0052024
X1106732Y0024468
X1168Y009
X1173Y0095
X1162Y01
Y0165
X1168Y0175
X1173Y017
X1145827Y0170118
X1137256Y0177102
Y0193524
X1145827Y018595
Y0201781
X1137256Y0209946
X1113359Y0201437
X110876Y0203917
X1103202Y0199469
X1102883Y0196131
Y0192377
X1096202Y0195486
X108Y0191712
X1076653Y0188732
X1076385Y0185268
X108Y0182413
X1109528Y0169843
X1105512Y0165
X1109528Y016063
X1118661
X1127795
Y0169843
X1118661
X1113359Y0136937
X110876Y0139417
X1103202Y0134968
Y0131419
Y0128118
X1095975Y0131033
X1079Y0118901
X1075386Y0122138
X1064788Y0126862
X0997299Y0159268
X09973Y0165232
Y01712
X0997283Y0191413
X1014657Y0057713
X1019874
X0967717Y005748
X0963929Y0058189
X0956079Y0057563
X0951157Y0057563
X0946236Y0057563
X0947579Y0065413
X0956705
X0960079Y0073189
X0952142Y0076713
X0938386Y0067205
X0934449Y0067579
X0972043Y0071067
X0976727
X0975702Y0153299
Y0159268
Y0165232
X09757Y0171201
X0984Y01712
X09919Y01712
X0991902Y0165233
Y0159267
Y01533
X0984Y0153299
Y0159268
X0967402Y0159268
Y0165233
X09674Y0171202
X09591Y0171202
X0959102Y0165234
Y0159269
Y0153301
X0967402Y01533
X09629Y0180587
X0966717Y0191413
X09745Y0196657
X09895
X0821413Y0086047
X0815Y0089299
X0801913Y0086047
X07955Y0089299
X0782413Y0086047
X0776Y0089299
X0762913Y0086047
X07565Y0089299
X0743413Y0086047
X0737Y0089299
X0723913Y0086047
X07175Y0089299
X0704413Y0086047
X0698Y0089299
X0684913Y0086047
Y0075047
X0690378Y0067319
Y0060797
X0709878
Y0067319
X0704413Y0075047
X0723913
X0729378Y0067319
Y0060797
X0748878
Y0067319
X0743413Y0075047
X0762913
X0768378Y0067319
Y0060797
X0787878
Y0067319
X0782413Y0075047
X0801913
X0807378Y0067319
Y0060797
X0826878
Y0067319
X0821413Y0075047
X0713187Y0161393
Y0164756
X0705715Y0157714
X0685274Y0155232
X0681301
Y0150621
X0685274Y0150609
X0701929Y0194134
X0689213Y0208228
X0672756Y0200866
X0672953Y0193386
X0678346Y0193347
X0664567Y020063
X0664449Y0207402
X0636063Y0173346
X0593679Y0186752
X05885Y0183121
X0584695Y0196984
X0562441Y0204291
X0561Y0184373
X0546465Y0194748
X0548398Y0134
Y01255
X0545661Y0119
Y01145
X0531732Y01113
X0528Y01143
X05283Y01207
X052755Y010705
Y010395
X0528Y00967
X05303Y0092
X05365Y0085694
X05415
X05485Y0087285
X0543Y00738
X05393
X05325Y00774
X05333Y00686
Y00644
X05291
Y00686
X0539Y0058348
X0546Y0058263
X0605433Y010815
X0601378Y0138779
X0659Y0089299
X0665413Y0086047
Y0075047
X0670878Y0067319
Y0060797
X06785Y0089299
X05221Y00887
X0524Y00967
X052445Y010395
Y010705
X0524Y01143
X05237Y01207
X0520268Y01113
X0520965Y0132
X0485898Y0134
Y01255
X0483161Y0119
Y01145
X0469232Y01113
X04655Y01143
X04615
X04612Y01207
X04658
X046505Y010705
Y010395
X046195
Y010705
X0457768Y01113
X04615Y00967
X04655
X04678Y0092
X04596Y00887
X0474Y0085694
X0479
X0486Y0087285
X0503161Y00885
X0504628Y00825
Y0074
X0511102Y0060709
X05195Y0056532
X05198Y00685
X0508413Y0092643
X0508461Y00965
X04805Y00738
X04768
X047Y00774
X04708Y00686
Y00644
X04666
Y00686
X04573Y00685
X0457Y0056532
X0448602Y0060709
X0442128Y0074
Y00825
X0440661Y00885
X0445913Y0092643
X0445961Y00965
X04235Y0087285
X04165Y0085694
X04115
X04075Y00774
X04083Y00686
Y00644
X04041
Y00686
X03948Y00685
X03945Y0056532
X0386102Y0060709
X0379628Y0074
Y00825
X0378161Y00885
X0383413Y0092643
X0383461Y00965
X0399Y00967
X0403
X04053Y0092
X03971Y00887
X039945Y010395
Y010705
X040255
Y010395
X0403Y01143
X0399
X03987Y01207
X04033
X0406732Y01113
X0395268
X0395965Y0132
X0423398Y0134
Y01255
X0420661Y0119
Y01145
X0418Y00738
X04143
X0414Y0058348
X0421Y0058263
X04765Y0058348
X04835Y0058263
X0458465Y0132
X0451903Y016875
X044624
X0442665Y01845
X04502Y01855
X0451661Y01935
X04534Y0203439
Y0207639
X04576
Y0203439
X0443461Y02068
X0436Y0196
X04253Y01985
Y02025
X041805Y020205
X041495
Y019895
X041805
X04077Y01985
Y02025
X0410701Y0206299
Y01947
X04025Y02005
X0391142Y0194735
X0387634Y0187762
Y0180961
X0397603Y01695
X0413539
X04705Y01928
X0474Y01909
X04737Y02006
X04865Y0198029
X0356701Y0205611
X0353201
X0348651Y0199969
X03452Y0202807
X03418
X03377
X03343
X03302
X03268
X03227
X03193
X03152
X03118
X03077
X03043
X03002
X02968
X02927
X02893
X028725Y0210835
X029475
X030225
X030975
X031725
X032475
X033225
X033975
X034725
X0353Y0179313
X0354291Y0174449
X0348Y0170622
X0344Y0174614
X03395Y0170622
X03355Y0174614
X0331Y0170622
X0327Y0174614
X03225Y0170622
X03185Y0174614
X0314Y0170622
X031Y0174614
X03055Y0170622
X03015Y0174614
X0297Y0170622
X0293Y0174614
X02885Y0170622
X02845Y0174616
X0298398Y0134
Y01255
X0295661Y0119
Y01145
X0281732Y01113
X0278Y01143
X0274
X02737Y01207
X02783
X027755Y010705
X027445
Y010395
X027755
X0278Y00967
X0274
X02721Y00887
X02803Y0092
X02865Y0085694
X02915
X02985Y0087285
X0315661Y00885
X0317128Y00825
Y0074
X0323602Y0060709
X0332Y0056532
X03323Y00685
X03416Y00686
Y00644
X03458
Y00686
X0345Y00774
X03518Y00738
X03555
X0354Y0085694
X0349
X03428Y0092
X03405Y00967
X03365
X033695Y010395
X034005
Y010705
X033695
X03365Y01143
X03405
X03408Y01207
X03362
X0332768Y01113
X0344232
X0358161Y01145
Y0119
X0360898Y01255
Y0134
X0333465Y0132
X03346Y00887
X0320913Y0092643
X0320961Y00965
X0361Y0087285
X03585Y0058263
X03515Y0058348
X0296Y0058263
X0289Y0058348
X02833Y00644
X02791
Y00686
X02833
X02825Y00774
X02893Y00738
X0293
X02698Y00685
X02695Y0056532
X0261102Y0060709
X0254628Y0074
Y00825
X0253161Y00885
X0258413Y0092643
X0258461Y00965
X0270268Y01113
X0270965Y0132
X0235898Y0134
Y01255
X0233161Y0119
Y01145
X0219232Y01113
X02155Y01143
X02158Y01207
X021505Y010705
Y010395
X02155Y00967
X02178Y0092
X0224Y0085694
X0229
X0236Y0087285
X02305Y00738
X02268
X022Y00774
X02208Y00686
Y00644
X02166
Y00686
X02265Y0058348
X02335Y0058263
X0239606Y0201736
Y0210866
X0224972
Y0201736
X0255567
Y0210866
X0208465Y0132
X02112Y01207
X02115Y01143
X0207768Y01113
X021195Y010705
Y010395
X02115Y00967
X02096Y00887
X0195913Y0092643
X0195961Y00965
X0190661Y00885
X0192128Y00825
Y0074
X0198602Y0060709
X0207Y0056532
X02073Y00685
X0168Y00738
X01643
X01575Y00774
X01583Y00686
X01541
Y00644
X01583
X0164Y0058348
X0171Y0058263
X01445Y0056532
X01448Y00685
X0136102Y0060709
X0129628Y0074
Y00825
X0128161Y00885
X0133413Y0092643
X0133461Y00965
X0149Y00967
X0153
X01553Y0092
X01471Y00887
X01615Y0085694
X01665
X01735Y0087285
X0170661Y01145
Y0119
X0173398Y01255
Y0134
X0145965Y0132
X01487Y01207
X01533
X0153Y01143
X0149
X0145268Y01113
X014945Y010705
Y010395
X015255
Y010705
X0156732Y01113
X0108161Y01145
Y0119
X0110898Y01255
Y0134
X0083465Y0132
X00862Y01207
X00908
X00905Y01143
X00865
X0082768Y01113
X008695Y010705
X009005
Y010395
X008695
X00865Y00967
X00905
X00928Y0092
X00846Y00887
X0099Y0085694
X0104
X0111Y0087285
X01055Y00738
X01018
X0095Y00774
X00958Y00686
Y00644
X00916
Y00686
X00823Y00685
X0082Y0056532
X0073602Y0060709
X0067128Y0074
Y00825
X0065661Y00885
X0070913Y0092643
X0070961Y00965
X0094232Y01113
X01015Y0058348
X01085Y0058263
X0035866Y0270394
Y0295433
Y0320472
Y0345512
X006811Y0345511
Y0320472
Y0295433
Y0270394
X0093898
X0094016Y0295433
X0093858Y0320472
X0122087
X0122244Y0295433
X0122126Y0270394
X0122756Y0245354
X0094528
X015867Y0271289
Y0275858
Y0280399
X0163356
Y0275858
Y0271289
X0177563Y0275858
X0198713Y026161
X019528Y0254858
X0199528Y0294106
X01975Y0318905
X0198091Y0322976
X0198091Y0326647
X0205676Y0323827
X0229773Y0326626
X0229772Y0331071
X02295Y0342773
X0224Y03412
X0226024Y035568
X0229488
X022286Y0358465
X0224209Y036182
X0229524Y0365819
X0234866Y036189
X0244215Y0357585
X0247012Y0358573
X02465Y03545
X025362Y0358487
X0257228
X0258776Y0361121
X0267Y0358948
X02725
X02785
Y0343816
X02725Y03447
X0267Y0344701
X02625Y03461
X0261788Y0337
X0243126
X02345Y0347243
X0243839Y0367562
X0248103
X0252453
X0250768Y0320951
X0254232
X02833Y0348153
X0313307Y0364576
X0318386Y0364575
X0323465
X0346799Y0367169
X0346799Y0361872
X03435Y0357
X03445Y0345496
X0339
X0335543Y0342725
X0347685Y0329252
X03505Y0326316
X0366501Y0349
X03515Y0279187
X0346702Y0267473
X0338748Y0265921
X0336035Y0268823
X0332551Y0272268
X0332608Y0275732
X03295Y0279077
X0320599Y0275903
X0313379Y0275699
X02945Y0275088
X0289
X02835
X02775Y0275482
X027Y0277909
X0269081Y0251504
X02815Y0259252
X0285835Y0256931
X0289714Y0258944
X0289731Y0254838
X029409Y0250632
X0303078Y0251724
Y0257161
X0308625Y0260861
X0299198Y0264003
X0295074Y0260447
X0295116Y0241397
X0291135Y024126
X0303078Y0242274
Y0238727
X0303269Y0233227
X0295847Y0230281
X029494Y0226868
X0285114Y0226
X0285115Y023
Y0234
X0275429
Y023
X0279669Y0239126
X0250149Y02425
X0237089Y0248
X0218973Y0268858
X0212573Y0281209
X0322798Y0260861
X0330062Y0261011
X0330256Y025378
Y0248189
Y0242677
X0330256Y0235976
X0333155Y0229776
X0339Y0222598
X03445
X0358Y02203
X0365039Y0225087
X0365315Y0234842
X0364475Y0244251
X0368307Y0242677
X0347275Y0244291
X0348641Y0238912
X0341772Y0237756
X0338184Y0238322
X0337731Y0254114
X0341874Y0256449
X034735Y0256811
X03495Y0254482
X0346535Y0251693
X0365Y0262526
X0370477Y0257596
X0374961Y0255874
X0369635Y0251745
X0369013Y0269141
X0385984Y0325787
X0386304Y0344431
Y0349
Y0353541
X0381619
Y0349
Y0344431
X0473302Y0307232
X0477274
Y0302609
X0473302Y0302621
X0493633Y0304782
X0497717Y0310032
X0505473
X0505524Y03061
X04605Y025
X04552
X0445484Y025634
X0444Y02235
X0438622Y0225087
X0440197Y0218228
X04343Y0215072
X0460394Y0224291
X04605Y02369
X055311Y0271693
X0590276Y0325236
X0637441Y03265
X0641316Y0324
X0641539Y0319002
Y0313999
X0644495Y0310664
X0652855Y0306185
X0666855Y0316932
X06675Y0290839
X06725
X06775
X068Y0286862
X0675
X067Y028686
X0674449Y0351969
X0676331Y0354794
X0673951Y0357874
X0644441Y0360154
X0644441Y0366846
X0641539Y0354
Y0349
Y0344001
Y0339124
Y0333999
Y0329
X0637441Y03365
Y03465
X0637458Y03515
X0561063Y036437
X062815Y0245394
X0677362Y0222047
X0695197Y0222756
X0695Y0286862
X069
X0685
X06875Y0290839
X06925
X06975
X07025
X07075
X07125
X0715185Y0293419
X0705Y0286862
X07
X06825Y0290839
X0727724Y0298992
X0738728Y0312249
X0743104Y032922
X07425Y0346441
X07375
X07475Y0346441
X0751565Y0339177
X07559
X0759868
X0725839Y0344095
X0703937Y032384
X0837311Y0275843
X0837364Y027192
Y0267983
X0843478
Y027192
X0843425Y0275843
X0849516
X0849569Y027192
Y0267983
X0855683
Y027192
X085563Y0275843
X086172
X0861773Y027192
Y0267983
X0867887
Y027192
X0867834Y0275843
X0873925
X0873978Y027192
Y0267983
X0866Y0243201
X0851
X0839Y0246015
X0854175Y0287099
X0856Y0304749
X08635
X08485
X084Y030475
X0906Y0305724
X0909234Y0301299
X097Y0302567
Y0308033
Y03135
X0977
Y0308033
Y0302567
Y02971
X097
X0984
Y0302567
X0991
Y0308033
Y03135
X0984
X09811Y03222
X0983Y03258
X0988156Y03312
X09916
X0993225Y0323369
X09807Y03379
X09765Y0347
X09579Y0345666
X09566Y03507
X09601
X09598Y03575
X09633Y0356131
X09632Y03684
X09598
X0972272Y0365579
X0977886
X0984
X0990091
X0951614Y0347441
X09666Y0280087
X09745Y027496
X09745Y027104
X0966576Y0265913
X0971775Y0248408
Y0244471
Y0239837
Y0235416
Y0231479
X0977886Y0231642
Y0235579
Y024
Y0244634
Y0248571
X0984
Y0244634
X0990091
Y0248571
Y024
Y0235579
Y0231642
X0984
Y0235579
X09895Y027104
Y0275046
X0991Y02971
X09959Y02991
Y0305
Y03107
X0997525Y0323369
X1023Y0323
X10334Y03442
X10033Y03513
X09985
X0996181Y0365579
X0997423Y0280173
X09974Y0265913
X1099791Y0265087
Y0253445
X1113425
Y0265089
X1113661Y0276732
X112811Y0276811
X1137256
Y0289055
X112811
Y0308268
X1137256
Y0324646
X112811
Y0340276
X1113359Y0334437
X1103639Y0332469
X110332Y0329215
X109605Y0328575
X1099791Y0317598
X1107018Y031268
Y0308071
Y0303285
X1111917
Y031268
X1099791Y0296732
X1079Y0316349
X1075178Y0319638
X1064538Y0324362
X1095748Y0353543
X1105945Y0363
X1105669Y024
X1113819Y0241801
X1113898Y0230157
X1099724
X1137256Y0226369
X1145827Y0233444
Y0217612
X1137256Y0242791
X1137256Y0259213
X1154882Y0264606
X1164095Y0264528
X1158607Y0275
Y0291535
Y0308071
Y0324606
X1159055Y0340236
X1169409
X1179764
Y0355354
X1169409
X1159055
X1162Y02225
X1168Y02125
X1169409Y0370472
X1159055
X1179764
X1166457Y0384134
X1155079Y0396693
X1183799Y0430748
Y0433898
X12425Y04255
X12185Y04785
X12425Y0511
X1142712Y0432324
X111752Y039559
X1105945Y0395709
X1095276
X1096181Y0379921
X1105945Y0379882
X0996181Y0374634
Y037
X0999383Y0391827
X0994098Y0501417
Y0516492
X0972995Y05165
X0967787Y0516463
X0975638Y05125
X0972937Y05085
X0976008Y05045
X0972937Y05005
X0964622Y0491098
X0961Y04936
X0958166Y0491134
X0953Y04924
X0949Y0488902
X0955898Y04984
X0941536Y0504615
X093876Y05075
X0940843Y0510953
X0940433Y0518722
X0936417Y0515139
X0937544Y050193
X0920252Y0495395
X092025Y05195
X090291Y0510079
X0896753Y0512717
X0894626Y0516345
X0895217Y0507379
X0899009Y0504375
X0893985Y0501363
X0891122Y0491098
X08875Y04936
X08847Y04911
X08795Y04924
X0877Y04889
X0882398Y04984
X0867237Y0502583
X0867206Y0507528
X0864332Y0505099
X0863911Y0510079
X0864009Y0514941
X086695Y0512796
X0877333Y0522576
X0884304Y0523226
X0884455Y051932
X0846382Y0519
Y0514866
X0906855Y0473753
X090686Y0470115
X0943779Y0473472
X0970823
X095778Y0519054
X0957938Y0522695
X0950833Y0522576
X0968815Y0391828
X0976598Y0397071
X0991598
X0990091Y0374634
Y037
X0984Y0374634
X0977886
Y037
X0972272
Y0374634
X0715683Y0374944
X0709778Y0374867
X0705841Y0374914
X0707809Y0372329
X070743Y0387389
X071205Y0387406
X0709842Y0391221
X0705026Y039191
X0696071Y0385468
X0695499Y0409486
X0690499
X071626Y0459055
X066311Y0444173
X0638504Y0407126
X06505Y0371904
X0663Y0372272
X0674616Y0369685
X0678465Y0374307
X0621378Y0465984
X0626Y0507661
X0630118
X0608172Y0517788
Y0521815
X060404
X0604039Y0517788
X0599954
X0599908Y0521815
X0585215Y0522692
X0580915Y0523092
X0582415Y0519292
X0586615Y0518292
X05585Y0509488
X05445Y052026
Y0524
X0542362Y0484291
X0545285Y0481
X05295Y0476671
X0526209Y0473748
X0543475Y0461
X0558514
X056245
Y0456459
X0558514
Y0465569
X056245
X0558976Y0435827
X05295Y0439499
X0655015Y0522707
X065895
X050766Y0523445
X0499302Y0523582
X0499465Y0516555
X0484455Y0515312
X0482922Y0512535
X0487762Y050569
X0486661Y0500161
Y0495831
Y04915
Y0487169
Y0482839
X0482331
Y0487169
Y04915
Y0495831
Y0500161
X0478
Y0495831
Y04915
Y0487169
Y0482839
X0473669
Y0487169
Y04915
Y0495831
Y0500161
X0469339
Y0495831
Y04915
Y0487169
Y0482839
X0469172Y047821
X0465504Y0478778
X0464882Y0483532
X0464643Y0496376
X0464153Y0502327
X0456651Y0506946
X0456285Y0514752
X0466417Y0513209
X0466969Y0524973
X0474Y05224
X0447559Y0510039
X0449508Y0504295
X0431653Y0504
X0440103Y0514752
X04155Y052059
X04015Y0511849
Y0504387
X03795Y0518248
X039355Y0465541
X0397485
Y0461
X039355
Y0456431
X0397485
X0413379Y0461
X0410215Y0442961
X0413187Y043971
X0426539Y0445829
X042979Y0448801
X0430917Y0452735
Y0456452
X0435823
Y0452735
X0440728
Y0456452
X0439043Y0462335
X0444085
X0448323Y0465252
X0445761Y046782
Y047202
X044976Y0483532
X0453963Y0490516
X0433228Y0485919
Y0481299
X0430344Y0479248
X0422685
X0434Y0462334
X0434234Y0434739
X043445Y0428218
Y0418718
X0434234Y0412196
X043967Y0407468
Y0395468
X0496811Y0420157
X049826Y04314
X05094Y0442
X0511142Y0454575
Y0458779
X0513717Y0464732
X051752
X0521323
X0521323Y0468937
X051752
X0513717
X0497936Y0473853
X049Y0478189
X0490949Y04825
Y04925
X0490949Y04985
X050585Y04925
X0509642
X0505385Y04825
X0483Y0478189
Y0464291
X049
X0495157Y0458779
X0498898
Y0454575
X0495157
X0458858Y0458252
X0463Y0469252
X0515787Y0512748
X0367874Y0506586
Y0502559
X0363765
X0363742Y0506586
X035961
X0359655Y0502559
X0357777Y0461991
X0345887
X0352087Y045315
X02729Y04587
X0267215
X0261713
X02565
X0253969Y0462596
X0226Y0463211
X0212661Y04654
X021526Y04866
X0215258Y0489753
X0218758Y0489715
X02165Y0505473
X02255Y0517498
X0252349Y0523553
X0255653
X0259058
Y0520432
X0263959Y0512531
X0267758
X0271558
X0275435
X0279002Y0506451
X025949
X0281973Y047309
X0262732Y040493
X0258236
X025374
X0249244
X024475
X024025
X02425Y0401819
X0247
X02515
X0256
X02605
X0238
X023175Y0400179
X022825
X022475
X022125
X02195Y03891
X02265Y0389098
X023114Y0385121
X0238175Y038099
X0243071Y0383922
X0243839Y0376032
X0248103
Y0371717
X0243839
X0252453
Y0376032
X0260343Y0370508
X0275307Y03695
Y0374
Y03785
Y0383
X0278099Y038075
Y037625
Y037175
X0313307Y0370276
X0318386
X0323465
X0233782Y0369424
X0212681Y0372
Y03765
Y0381
Y03855
X0207927Y038325
Y037875
Y037425
X0180354Y0397945
X01325Y0397
X0128556Y03845
X0124512Y0380252
X0120995Y0377041
X0103537Y0374018
X0107146Y0370367
X010539Y03925
X0091182Y03925
Y0397041
X0086497
Y03925
Y0387931
X0091182
X006811Y0395589
Y037055
Y0420628
X0074606Y0456654
X0084036Y0465563
X0094653Y0470917
X0094634Y0474315
X0102003Y0471468
X012225Y0474268
X01261
X0126098Y0478713
X0122248
X0160276Y0488307
X0154Y0506916
X0148256Y0511654
X0148942Y0521866
X0142617Y0522279
X0139444Y05185
X01795Y0517021
Y0521687
Y0512336
X0194331Y0507722
X0194251Y050474
X0194494Y0496752
Y049363
Y0490348
X0191191
Y049363
Y0496752
X01979
Y049363
Y0490348
X019408Y0482443
X0188451Y0486012
X0188691Y0472449
X0203164Y0466389
X0203287Y0457283
X0198602
X0210674Y0483096
X0211794Y0489753
X020692Y04935
X0202727Y0510047
X0199179Y0516773
X0212Y0514097
X0188451Y0500988
X018274Y0495469
X0074606Y0481693
X0121Y0415684
X0124213Y0412748
X0035866Y042063
Y039559
Y0370551
X0050315Y0456653
Y0481693
X0077157Y0540147
X008696
X0095458
X0104844
X0115245
X0123933
X0133383
X0141817
X0150886
X0159131
X0167819
X0177269
X0186021
X01795Y0526372
X0154398Y0533413
X0140995Y0528223
X0207583Y0540147
X0203Y0598839
X0198Y060846
X01912Y0608
X0200261Y0629024
X0209221Y0629024
X02018Y0647307
X0209221Y06582
X0212423Y067326
X0203818Y0677
X0197185Y0670397
X0188878Y0673268
Y0676732
X0192017Y068074
X0180423Y067326
X0171818Y0677
X0165185Y0670397
X0156878Y0673268
Y0676732
X0160017Y068074
X0148423Y067326
X0139818Y0677
X0133185Y0670397
X0124878Y0673268
Y0676732
X0128017Y068074
X0116423Y067326
X0107818Y0677
X0101185Y0670397
X0092878Y0673268
Y0676732
X0096017Y068074
X0149721Y06582
X01423Y0647307
X0140761Y0629024
X0149721Y0629024
X0154839Y06327
X01665Y0632701
X0166Y06561
X0159697Y0604198
X015405Y0594781
X0166886Y0588386
X01285Y0596279
X01235Y0605901
X0116471Y0608
X0087256Y0603
X007955Y0594781
X0092386Y0588386
X0228793Y0613668
X0226Y0632701
X0214339Y06327
X02255Y06561
X0229185Y0670397
X0220878Y0673268
Y0676732
X0224017Y068074
X0235818Y0677
X0244423Y067326
X024748Y0605469
X0379947Y0603968
X038375Y0597296
X0400358Y0606756
X04425Y0610824
X0451834Y06065
X0446514Y0599748
Y0593248
X0438486Y0593252
X0451834Y05865
X0481858Y0598071
Y0603311
X0488499Y060391
X0497Y0603543
X05045Y0603258
X0510512Y0601181
X051518Y0602688
X0524625Y0602815
X0522242Y0599378
X0519905Y0596229
X0500913Y0598071
X0493176Y0598071
X0497Y0619279
X0488499
X0504506Y061732
X0517543Y0615775
X0516362Y0647331
X0509276
X0502189
X0503994Y0660464
X0496564
X0490219
X0482655Y06415
X0457261
X04335Y0641501
X0523449Y0647331
X0511531Y0564142
X0506991Y0560862
X04895Y0563902
X0485851Y0560862
X0491657Y0536735
X0494507Y05395
X050792Y05387
X05112
X05181Y0539388
X0522126Y0539411
Y0535279
X05181
Y0543498
X0522126Y0543543
X046459Y0538232
X0466969Y0528383
X05305Y0538126
X0534573Y0534248
X05445Y052774
X0554212Y0534248
X05585Y0538441
X057869Y0526392
X0583015
X0611337Y0528116
X0615972
X0620604
Y0533254
X0615971
X0611337
X0609154Y0538996
X0600535
X0600536Y0545248
Y0550339
X0624686Y0545248
X0622244Y0538996
X0626Y0528116
X0639521Y0527248
X0655015
X065895
Y0531817
X0655015
X0655016Y0545248
Y0550339
X0666575
Y0545248
X0679008Y0526416
X06755Y0591195
X0680496Y0599454
X066731Y060251
X0663965Y0603026
X0656877Y060234
X0654515Y0599557
X0652153Y0602854
X0644541Y0602823
X0647429Y0599378
X0649153Y0596867
X0639271Y0599266
X0635619Y0601388
X0628533Y0599378
X0630895Y059626
X0623809Y0596229
X0621448Y0599378
X0609637
X0604913
X0602551Y0596229
X0607275
X0595464Y0596545
X059074Y0596229
X0593102Y0599378
X0597826
X0586016Y0599409
X0581272
X0578909Y059626
X0583634
X0576571Y0602827
X0570075
X0569507Y0614991
X0575975Y0615016
X0580699
X0588401Y0614584
X0593752Y0615004
X0600248
X0612Y0614674
X0617708Y0614976
X062617Y0614753
X0633252Y0615412
X0640343Y0614753
X0640674Y0630993
X0644709
X0645427Y0634615
X0649462
X0652484Y0630993
X0656519
X0657236Y0634615
X0661272
X0662807Y0646788
X066907Y0650182
X0672998
X0674615Y0647331
X0676104Y0651954
X0680139
X0666515Y0656248
X0662783Y0660634
X0651246Y0647331
X0639184Y0646785
X0632099Y0647331
X0625015Y0646788
X0617927Y0647331
X0610842Y0646788
X0599031Y0647331
X058722Y0646788
X0575411Y0647331
X0590929Y0656248
X0587197Y0660634
X0610819
X0614551Y0656248
X0628724
X0633664Y065752
X0639161Y0662096
X0624992Y0660634
X0633616Y0634615
X0637652
X0658441Y0617882
X0662369
X0665377Y0615422
X0669412
X0670199Y0619654
X0674234
X0675796Y0614534
X0676598Y062685
X0676598Y0631024
X0681193Y0635077
X0547043Y0635068
X0544704Y0647331
X0537595Y0647342
X0530532Y0647331
X0532871Y0650004
X0531712Y0602784
X0529327Y0599378
X0526966Y0596229
X0534052
X0536414Y0599378
X0538799Y0602784
X0545885
X0543587Y0599378
X0541138Y0596229
X068522Y0599445
X0682881Y060254
X0689968
X0694692
X0699417
X0697031Y0599472
X0692307Y0599445
X0687583Y0614363
X0689134Y062685
X0689134Y0631024
X0684539Y0635077
X0686425Y0646788
X0691127Y0651043
X069585Y0651043
X0700575Y0651043
X0698235Y0647331
X0690133Y0656248
X0686402Y0660634
X07005Y0672174
X0717133Y0647331
X0726578
X0738389Y0647085
X0745453Y0648327
X0748722Y0657606
X0755479
X076145
X0743094Y0635754
X0749398Y0615092
X0757Y0615027
X07655Y0614794
Y0599808
X0761252Y0596702
X0756998Y0600041
X0753248Y0596702
X07494Y0600003
X074546Y0599333
X0742541Y0601793
X0738916
X0733093Y0597016
X0729468
X0726007Y0598984
X0722382
X0718325Y0596957
X0720616Y0594589
X0716559Y0601807
X0712934
X0711205Y0614804
X0727736Y0602827
X0769662Y0592067
X0784685Y0585472
X0787Y0639406
X0797604Y0675149
X0802327Y068065
X0834445Y068063
Y0672756
X0834156Y0605846
X0836181Y0595827
X0837956Y060252
X0845661Y059252
X0874483Y0596281
X0881732Y0596899
X0890234Y0594922
X089398Y0602535
X0900023Y0605626
X0902633Y060839
X0902668Y0613895
X0899947Y0615972
X0899946Y0611268
X0896Y0618439
X0892958Y0621039
X0890325Y0622741
X0887484Y0621159
X0874563Y0612953
X0871811Y0609017
X0873577Y0582477
X086887
X0877547Y0561339
X0884246
X0890004Y056218
X0901801Y058
X0938976Y0594291
X0943866
X0947819Y0595827
X094526Y0604707
X0963504Y0601102
X0967996Y0595289
X097198Y0595339
X0974917Y0602087
X0977404Y0610071
X0982404Y0606024
X0976417Y0626598
X097098Y0631535
X0956835Y0617571
X0935863
X0939118Y0621175
X0935728Y0663
X0922793Y065676
X0918193
X0917067Y0665175
X0922359Y0671496
X091145
X0902579Y0677224
X0898248
X0893917
X0885256
X0880925
X0876595
X0872264
X0868225Y0671496
X0857317
X0862933Y0665175
X08895Y0666507
X0890613Y065
X089876Y064626
X089954Y065374
X0880028
Y064626
X0961106Y06553
X0952Y06804
X09401Y0678362
X0960725Y052595
X0886544Y0525643
X1083886Y0538105
X1111153Y0550444
X1116929Y0545752
X1112875Y0599456
X1117Y0603597
X1119502Y0637298
X11213Y0647256
X1125Y06505
X1107Y0648
X11033Y0644756
Y0639244
X11085Y0633653
X1092598Y064441
X10833Y0657065
X10731
X10668
X1070158Y064441
X1053686Y064797
X1049323Y0651208
X1046295Y0652338
Y0655882
X1049323Y0657303
X1041395Y0645737
X1039791Y0639732
X103979Y0636268
X10365Y0632252
X10322Y0646079
X102661Y0646791
X10225Y06435
X1022244Y0653126
X1014556Y0656939
X1009043Y0656914
X1005887Y0653
X1014556Y0649061
X101269Y0661
X1009Y06685
X10198
X1021434Y0674
X1032508Y0669785
X104624Y0677843
X1109134Y0661378
X1135984Y066185
X1133996Y0631284
X1137897Y0625
X1141268Y0621728
X1148996Y0631284
X1083709Y0621985
X10139Y06303
X10095
X1152897Y0625
X1156268Y0621728
X1167897Y0625
X1171268Y0621728
X1182897Y0625
X1186268Y0621728
X1198252Y06225
X12095Y06257
Y0632
Y06385
X1205Y0639604
X1198154Y06407
X12095Y06481
Y0652
X12194Y0663118
X1190748Y0662047
X1178996Y0631284
X1163996
X12185Y0632291
X12425Y05935
X12185Y05605
X12375Y0691
Y0716
Y074
X11965
Y07165
Y069
X11555Y0717
Y074
X0951528Y0692411
Y0687481
X0943017Y0697256
X0939Y0700851
X0922359Y0704173
X091145
X0917067Y0697852
X0914709Y0687758
X0910109
X0862933Y0697852
X0868225Y0704173
X0857317
X0834445Y0704252
Y0712126
Y072
Y0696378
Y0688504
X0802327Y0688504
Y0696378
Y0704252
X079424Y0699393
X0786764Y0700708
X077975Y06985
X0777083Y06955
Y07015
X077975Y07045
X0777083Y07075
X077975Y07105
X0777459Y07135
X0790505Y071048
X0794Y0710043
X07905Y0690258
X0786667Y0689359
X07985Y0728937
X0774055Y0728938
X0456859Y06915
X0456939Y0686
X0430976Y0686001
X0430974Y06915
X0397244Y0686721
X0371356Y0686708
X0239815Y0683488
X0207815
X0175815
X0143815
X0111815
T04
X0167913Y0304134
X017128Y0308733
X0174646Y0313331
X0178012Y031793
X0181378Y0322528
X0184744Y0327127
X018811Y0331726
X0413189Y0336575
X0410114Y0340231
X0407035Y0343886
X0403961Y0347542
X0400882Y0351198
X0397807Y0354854
X0394728Y0358509
X0391653Y0362165
T05
X11838Y04562
T07
X0397837Y0247604
X0393937Y0253504
X0402137
T09
X11995Y009
Y01
Y011
Y0155
Y0165
Y0175
X04535Y0624524
X04435
X04335
T10
X1138126Y0556043
Y0564035
Y0572028
X1148126Y0576004
Y0583996
Y0591988
Y059998
X1138126Y0603957
Y0595965
Y0587972
X1148126Y0568012
Y056002
T11
X01805Y0637307
Y0647307
X024
Y0637307
T13
X1128126Y0556024
Y0566024
Y0593976
Y0603976
T14
X0756496Y0625
T15
X0215Y071
Y072
X0225
Y071
X0235
Y072
X0245
Y071
X0255
Y072
X0265
Y071
X0275
Y072
X0285
Y071
X0295
Y072
X0305
Y071
X0205
X0195
X0185
X0175
X0165
X0155
X0145
X0135
X0125
X0115
X0105
X0095
Y072
X0105
X0115
X0125
X0135
X0145
X0155
X0165
X0175
X0185
X0195
X0205
T16
X1185Y02125
Y02225
X1196
Y02125
T17
X0532Y0185
X0182Y0223
X0337Y0367
X0428Y0298
X087Y02295
X1042Y02725
X0478Y0427
X02425Y0454
X0213Y0449
X0175Y0486
X0126Y0518
X01295Y037
X02125Y05335
X1220646Y0548248
Y0611752
T18
X0493496Y0625
T19
X1172346Y0275
Y0291535
Y0308071
Y0324606
X1194
Y0308071
Y0291535
Y0275
T20
X116437Y0690079
T21
X12335Y00845
Y01155
Y01495
Y01805
T22
X1229716Y0648158
Y0667842
T24
X1217575Y0441732
Y0458268
T25
X0750189Y0735236
X0499795
T26
X1208126Y0555
Y0605
T27
X0034449Y0044409
X1215551
X0625Y0142835
X0176181Y0178268
X0152559Y0351496
X0569882Y0288504
X100689Y0217638
X1128937Y0363307
X0373031Y0536535
X0951772Y0548347
X0034449Y0705827
M30
