G04*
G04 #@! TF.GenerationSoftware,Altium Limited,Altium Designer,22.7.1 (60)*
G04*
G04 Layer_Color=128*
%FSLAX24Y24*%
%MOIN*%
G70*
G04*
G04 #@! TF.SameCoordinates,6B1DEC42-A22B-484D-B378-F803C718722A*
G04*
G04*
G04 #@! TF.FilePolarity,Positive*
G04*
G01*
G75*
%ADD390C,0.0020*%
D390*
X115807Y69008D02*
X117067D01*
X116437Y68378D02*
Y69638D01*
X118274Y21250D02*
X118726D01*
X118500Y21024D02*
Y21476D01*
X118274Y22250D02*
X118726D01*
X118500Y22024D02*
Y22476D01*
X119374Y21250D02*
X119826D01*
X119600Y21024D02*
Y21476D01*
X119374Y22250D02*
X119826D01*
X119600Y22024D02*
Y22476D01*
X46145Y10395D02*
X46245D01*
X46195Y10345D02*
Y10445D01*
X46145Y10705D02*
X46245D01*
X46195Y10655D02*
Y10755D01*
X46455Y10395D02*
X46555D01*
X46505Y10345D02*
Y10445D01*
X46455Y10705D02*
X46555D01*
X46505Y10655D02*
Y10755D01*
X52395Y10395D02*
X52495D01*
X52445Y10345D02*
Y10445D01*
X52395Y10705D02*
X52495D01*
X52445Y10655D02*
Y10755D01*
X52705Y10395D02*
X52805D01*
X52755Y10345D02*
Y10445D01*
X52705Y10705D02*
X52805D01*
X52755Y10655D02*
Y10755D01*
X12635Y37000D02*
X13265D01*
X12950Y36685D02*
Y37315D01*
X17185Y48600D02*
X17815D01*
X17500Y48285D02*
Y48915D01*
X12285Y51800D02*
X12915D01*
X12600Y51485D02*
Y52115D01*
X20985Y44900D02*
X21615D01*
X21300Y44585D02*
Y45215D01*
X23935Y45400D02*
X24565D01*
X24250Y45085D02*
Y45715D01*
X20935Y53350D02*
X21565D01*
X21250Y53035D02*
Y53665D01*
X33645Y10395D02*
X33745D01*
X33695Y10345D02*
Y10445D01*
X33645Y10705D02*
X33745D01*
X33695Y10655D02*
Y10755D01*
X33955Y10395D02*
X34055D01*
X34005Y10345D02*
Y10445D01*
X33955Y10705D02*
X34055D01*
X34005Y10655D02*
Y10755D01*
X8645Y10395D02*
X8745D01*
X8695Y10345D02*
Y10445D01*
X8645Y10705D02*
X8745D01*
X8695Y10655D02*
Y10755D01*
X8955Y10395D02*
X9055D01*
X9005Y10345D02*
Y10445D01*
X8955Y10705D02*
X9055D01*
X9005Y10655D02*
Y10755D01*
X17853Y64731D02*
X18247D01*
X18050Y64534D02*
Y64928D01*
X17853Y63731D02*
X18247D01*
X18050Y63534D02*
Y63928D01*
X86685Y22950D02*
X87315D01*
X87000Y22635D02*
Y23265D01*
X23803Y64731D02*
X24197D01*
X24000Y64534D02*
Y64928D01*
X23803Y63731D02*
X24197D01*
X24000Y63534D02*
Y63928D01*
X43175Y62452D02*
X43525D01*
X43350Y62277D02*
Y62627D01*
X44175Y62452D02*
X44525D01*
X44350Y62277D02*
Y62627D01*
X45175Y62452D02*
X45525D01*
X45350Y62277D02*
Y62627D01*
X103885Y27250D02*
X104515D01*
X104200Y26935D02*
Y27565D01*
X122814Y66784D02*
X123129D01*
X122972Y66627D02*
Y66942D01*
X122814Y64816D02*
X123129D01*
X122972Y64658D02*
Y64973D01*
X122283Y64333D02*
X122834D01*
X122558Y64058D02*
Y64609D01*
X122283Y67267D02*
X122834D01*
X122558Y66991D02*
Y67542D01*
X123818Y64274D02*
X124291D01*
X124054Y64038D02*
Y64511D01*
X123818Y67326D02*
X124291D01*
X124054Y67089D02*
Y67562D01*
X119775Y17500D02*
X120125D01*
X119950Y17325D02*
Y17675D01*
X119775Y16500D02*
X120125D01*
X119950Y16325D02*
Y16675D01*
X119775Y15500D02*
X120125D01*
X119950Y15325D02*
Y15675D01*
X122680Y18050D02*
X124020D01*
X123350Y17380D02*
Y18720D01*
X122680Y14950D02*
X124020D01*
X123350Y14280D02*
Y15620D01*
X30283Y72000D02*
X30717D01*
X30500Y71783D02*
Y72217D01*
X30283Y71000D02*
X30717D01*
X30500Y70783D02*
Y71217D01*
X29283Y72000D02*
X29717D01*
X29500Y71783D02*
Y72217D01*
X29283Y71000D02*
X29717D01*
X29500Y70783D02*
Y71217D01*
X28283Y72000D02*
X28717D01*
X28500Y71783D02*
Y72217D01*
X28283Y71000D02*
X28717D01*
X28500Y70783D02*
Y71217D01*
X27283Y72000D02*
X27717D01*
X27500Y71783D02*
Y72217D01*
X27283Y71000D02*
X27717D01*
X27500Y70783D02*
Y71217D01*
X26283Y72000D02*
X26717D01*
X26500Y71783D02*
Y72217D01*
X26283Y71000D02*
X26717D01*
X26500Y70783D02*
Y71217D01*
X25283Y72000D02*
X25717D01*
X25500Y71783D02*
Y72217D01*
X25283Y71000D02*
X25717D01*
X25500Y70783D02*
Y71217D01*
X24283Y72000D02*
X24717D01*
X24500Y71783D02*
Y72217D01*
X24283Y71000D02*
X24717D01*
X24500Y70783D02*
Y71217D01*
X23283Y72000D02*
X23717D01*
X23500Y71783D02*
Y72217D01*
X23283Y71000D02*
X23717D01*
X23500Y70783D02*
Y71217D01*
X22283Y72000D02*
X22717D01*
X22500Y71783D02*
Y72217D01*
X22283Y71000D02*
X22717D01*
X22500Y70783D02*
Y71217D01*
X21283Y72000D02*
X21717D01*
X21500Y71783D02*
Y72217D01*
X21283Y71000D02*
X21717D01*
X21500Y70783D02*
Y71217D01*
X20283Y72000D02*
X20717D01*
X20500Y71783D02*
Y72217D01*
X20283Y71000D02*
X20717D01*
X20500Y70783D02*
Y71217D01*
X19283Y72000D02*
X19717D01*
X19500Y71783D02*
Y72217D01*
X19283Y71000D02*
X19717D01*
X19500Y70783D02*
Y71217D01*
X18283Y72000D02*
X18717D01*
X18500Y71783D02*
Y72217D01*
X18283Y71000D02*
X18717D01*
X18500Y70783D02*
Y71217D01*
X17283Y72000D02*
X17717D01*
X17500Y71783D02*
Y72217D01*
X17283Y71000D02*
X17717D01*
X17500Y70783D02*
Y71217D01*
X16283Y72000D02*
X16717D01*
X16500Y71783D02*
Y72217D01*
X16283Y71000D02*
X16717D01*
X16500Y70783D02*
Y71217D01*
X15283Y72000D02*
X15717D01*
X15500Y71783D02*
Y72217D01*
X15283Y71000D02*
X15717D01*
X15500Y70783D02*
Y71217D01*
X14283Y72000D02*
X14717D01*
X14500Y71783D02*
Y72217D01*
X14283Y71000D02*
X14717D01*
X14500Y70783D02*
Y71217D01*
X13283Y72000D02*
X13717D01*
X13500Y71783D02*
Y72217D01*
X13283Y71000D02*
X13717D01*
X13500Y70783D02*
Y71217D01*
X12283Y72000D02*
X12717D01*
X12500Y71783D02*
Y72217D01*
X12283Y71000D02*
X12717D01*
X12500Y70783D02*
Y71217D01*
X11283Y72000D02*
X11717D01*
X11500Y71783D02*
Y72217D01*
X11283Y71000D02*
X11717D01*
X11500Y70783D02*
Y71217D01*
X10283Y72000D02*
X10717D01*
X10500Y71783D02*
Y72217D01*
X10283Y71000D02*
X10717D01*
X10500Y70783D02*
Y71217D01*
X9283Y72000D02*
X9717D01*
X9500Y71783D02*
Y72217D01*
X9283Y71000D02*
X9717D01*
X9500Y70783D02*
Y71217D01*
X74574Y73524D02*
X75464D01*
X75019Y73079D02*
Y73969D01*
X49535Y73524D02*
X50425D01*
X49980Y73079D02*
Y73969D01*
X122868Y47050D02*
X123832D01*
X123350Y46568D02*
Y47532D01*
X122868Y42950D02*
X123832D01*
X123350Y42468D02*
Y43432D01*
X121118Y43230D02*
X122082D01*
X121600Y42748D02*
Y43712D01*
X121118Y46770D02*
X122082D01*
X121600Y46288D02*
Y47252D01*
X121472Y44173D02*
X122043D01*
X121757Y43888D02*
Y44459D01*
X121472Y45827D02*
X122043D01*
X121757Y45541D02*
Y46112D01*
X52885Y18500D02*
X53515D01*
X53200Y18185D02*
Y18815D01*
X17885Y22300D02*
X18515D01*
X18200Y21985D02*
Y22615D01*
X41755Y19895D02*
X41855D01*
X41805Y19845D02*
Y19945D01*
X41445Y19895D02*
X41545D01*
X41495Y19845D02*
Y19945D01*
X41755Y20205D02*
X41855D01*
X41805Y20155D02*
Y20255D01*
X41445Y20205D02*
X41545D01*
X41495Y20155D02*
Y20255D01*
X49035Y62500D02*
X49665D01*
X49350Y62185D02*
Y62815D01*
X75435Y62500D02*
X75865D01*
X75650Y62285D02*
Y62715D01*
X2815Y70583D02*
X4075D01*
X3445Y69953D02*
Y71213D01*
X2815Y4441D02*
X4075D01*
X3445Y3811D02*
Y5071D01*
X40205Y10705D02*
X40305D01*
X40255Y10655D02*
Y10755D01*
X40205Y10395D02*
X40305D01*
X40255Y10345D02*
Y10445D01*
X39895Y10705D02*
X39995D01*
X39945Y10655D02*
Y10755D01*
X39895Y10395D02*
X39995D01*
X39945Y10345D02*
Y10445D01*
X27705Y10705D02*
X27805D01*
X27755Y10655D02*
Y10755D01*
X27705Y10395D02*
X27805D01*
X27755Y10345D02*
Y10445D01*
X27395Y10705D02*
X27495D01*
X27445Y10655D02*
Y10755D01*
X27395Y10395D02*
X27495D01*
X27445Y10345D02*
Y10445D01*
X21455Y10705D02*
X21555D01*
X21505Y10655D02*
Y10755D01*
X21455Y10395D02*
X21555D01*
X21505Y10345D02*
Y10445D01*
X21145Y10705D02*
X21245D01*
X21195Y10655D02*
Y10755D01*
X21145Y10395D02*
X21245D01*
X21195Y10345D02*
Y10445D01*
X15205Y10705D02*
X15305D01*
X15255Y10655D02*
Y10755D01*
X15205Y10395D02*
X15305D01*
X15255Y10345D02*
Y10445D01*
X14895Y10705D02*
X14995D01*
X14945Y10655D02*
Y10755D01*
X14895Y10395D02*
X14995D01*
X14945Y10345D02*
Y10445D01*
X94547Y54835D02*
X95807D01*
X95177Y54205D02*
Y55465D01*
X36673Y53654D02*
X37933D01*
X37303Y53024D02*
Y54284D01*
X112264Y36331D02*
X113524D01*
X112894Y35701D02*
Y36961D01*
X56358Y28850D02*
X57618D01*
X56988Y28220D02*
Y29480D01*
X14626Y35150D02*
X15886D01*
X15256Y34520D02*
Y35780D01*
X100059Y21764D02*
X101319D01*
X100689Y21134D02*
Y22394D01*
X61870Y14283D02*
X63130D01*
X62500Y13653D02*
Y14913D01*
X16988Y17827D02*
X18248D01*
X17618Y17197D02*
Y18457D01*
X120925Y4441D02*
X122185D01*
X121555Y3811D02*
Y5071D01*
X116880Y27500D02*
X117589D01*
X117235Y27146D02*
Y27854D01*
X116880Y29154D02*
X117589D01*
X117235Y28799D02*
Y29508D01*
X116880Y30807D02*
X117589D01*
X117235Y30453D02*
Y31161D01*
X116880Y32461D02*
X117589D01*
X117235Y32106D02*
Y32815D01*
X119046Y32461D02*
X119754D01*
X119400Y32106D02*
Y32815D01*
X119046Y30807D02*
X119754D01*
X119400Y30453D02*
Y31161D01*
X119046Y29154D02*
X119754D01*
X119400Y28799D02*
Y29508D01*
X119046Y27500D02*
X119754D01*
X119400Y27146D02*
Y27854D01*
X81626Y71606D02*
X82051D01*
X81839Y71394D02*
Y71819D01*
X81626Y67669D02*
X82051D01*
X81839Y67457D02*
Y67882D01*
X120193Y55500D02*
X121433D01*
X120813Y54880D02*
Y56120D01*
X120193Y60500D02*
X121433D01*
X120813Y59880D02*
Y61120D01*
X121750Y61175D02*
X122380D01*
X122065Y60860D02*
Y61490D01*
X121750Y54825D02*
X122380D01*
X122065Y54510D02*
Y55140D01*
X112612Y59398D02*
X113013D01*
X112813Y59197D02*
Y59598D01*
X112612Y56602D02*
X113013D01*
X112813Y56402D02*
Y56803D01*
X112612Y60398D02*
X113013D01*
X112813Y60197D02*
Y60598D01*
X112612Y55602D02*
X113013D01*
X112813Y55402D02*
Y55803D01*
X113635Y58797D02*
X113990D01*
X113813Y58620D02*
Y58974D01*
X113635Y57203D02*
X113990D01*
X113813Y57026D02*
Y57380D01*
X113635Y59596D02*
X113990D01*
X113813Y59419D02*
Y59774D01*
X113635Y56404D02*
X113990D01*
X113813Y56226D02*
Y56581D01*
X113635Y60396D02*
X113990D01*
X113813Y60219D02*
Y60573D01*
X113635Y55604D02*
X113990D01*
X113813Y55427D02*
Y55781D01*
X114635Y58400D02*
X114990D01*
X114813Y58222D02*
Y58577D01*
X114635Y57600D02*
X114990D01*
X114813Y57423D02*
Y57778D01*
X114635Y56801D02*
X114990D01*
X114813Y56624D02*
Y56978D01*
X114635Y59199D02*
X114990D01*
X114813Y59022D02*
Y59376D01*
X114635Y59998D02*
X114990D01*
X114813Y59821D02*
Y60175D01*
X114635Y56002D02*
X114990D01*
X114813Y55825D02*
Y56179D01*
X119775Y11000D02*
X120125D01*
X119950Y10825D02*
Y11175D01*
X119775Y10000D02*
X120125D01*
X119950Y9825D02*
Y10175D01*
X119775Y9000D02*
X120125D01*
X119950Y8825D02*
Y9175D01*
X122680Y11550D02*
X124020D01*
X123350Y10880D02*
Y12220D01*
X122680Y8450D02*
X124020D01*
X123350Y7780D02*
Y9120D01*
X42485Y29800D02*
X43115D01*
X42800Y29485D02*
Y30115D01*
X47485Y42700D02*
X48115D01*
X47800Y42385D02*
Y43015D01*
X33385Y36700D02*
X34015D01*
X33700Y36385D02*
Y37015D01*
X22550Y46321D02*
X22650D01*
X22600Y46271D02*
Y46371D01*
X108496Y3400D02*
X108596D01*
X108546Y3350D02*
Y3450D01*
X41244Y33657D02*
X41394D01*
X41319Y33582D02*
Y33732D01*
X40936Y34023D02*
X41086D01*
X41011Y33948D02*
Y34098D01*
X40629Y34389D02*
X40779D01*
X40704Y34314D02*
Y34464D01*
X40321Y34754D02*
X40471D01*
X40396Y34679D02*
Y34829D01*
X40013Y35120D02*
X40163D01*
X40088Y35045D02*
Y35195D01*
X39706Y35485D02*
X39856D01*
X39781Y35410D02*
Y35560D01*
X39398Y35851D02*
X39548D01*
X39473Y35776D02*
Y35926D01*
X39090Y36217D02*
X39240D01*
X39165Y36142D02*
Y36292D01*
X18736Y33173D02*
X18886D01*
X18811Y33098D02*
Y33248D01*
X18399Y32713D02*
X18549D01*
X18474Y32638D02*
Y32788D01*
X18063Y32253D02*
X18213D01*
X18138Y32178D02*
Y32328D01*
X17726Y31793D02*
X17876D01*
X17801Y31718D02*
Y31868D01*
X17390Y31333D02*
X17540D01*
X17465Y31258D02*
Y31408D01*
X17053Y30873D02*
X17203D01*
X17128Y30798D02*
Y30948D01*
X16716Y30413D02*
X16866D01*
X16791Y30338D02*
Y30488D01*
X113676Y25921D02*
X113776D01*
X113726Y25871D02*
Y25971D01*
X113676Y27681D02*
X113776D01*
X113726Y27631D02*
Y27731D01*
X113676Y30827D02*
X113776D01*
X113726Y30777D02*
Y30877D01*
X113676Y32465D02*
X113776D01*
X113726Y32415D02*
Y32515D01*
X113676Y28906D02*
X113776D01*
X113726Y28856D02*
Y28956D01*
X109929Y31760D02*
X110029D01*
X109979Y31710D02*
Y31810D01*
X109929Y29673D02*
X110029D01*
X109979Y29623D02*
Y29723D01*
X110501Y16500D02*
X110601D01*
X110551Y16450D02*
Y16550D01*
X110903Y16063D02*
X111003D01*
X110953Y16013D02*
Y16113D01*
X111816Y16063D02*
X111916D01*
X111866Y16013D02*
Y16113D01*
X112730Y16063D02*
X112830D01*
X112780Y16013D02*
Y16113D01*
X110517Y24000D02*
X110617D01*
X110567Y23950D02*
Y24050D01*
X110544Y36300D02*
X110644D01*
X110594Y36250D02*
Y36350D01*
X12174Y29543D02*
X12274D01*
X12224Y29493D02*
Y29593D01*
X48900Y56390D02*
X49000D01*
X48950Y56340D02*
Y56440D01*
X48535Y56086D02*
X48635D01*
X48585Y56036D02*
Y56136D01*
X33720Y20281D02*
X33820D01*
X33770Y20231D02*
Y20331D01*
X33380Y20281D02*
X33480D01*
X33430Y20231D02*
Y20331D01*
X32970Y20281D02*
X33070D01*
X33020Y20231D02*
Y20331D01*
X32630Y20281D02*
X32730D01*
X32680Y20231D02*
Y20331D01*
X32220Y20281D02*
X32320D01*
X32270Y20231D02*
Y20331D01*
X31880Y20281D02*
X31980D01*
X31930Y20231D02*
Y20331D01*
X31130Y20281D02*
X31230D01*
X31180Y20231D02*
Y20331D01*
X31470Y20281D02*
X31570D01*
X31520Y20231D02*
Y20331D01*
X30380Y20281D02*
X30480D01*
X30430Y20231D02*
Y20331D01*
X30720Y20281D02*
X30820D01*
X30770Y20231D02*
Y20331D01*
X28880Y20281D02*
X28980D01*
X28930Y20231D02*
Y20331D01*
X29220Y20281D02*
X29320D01*
X29270Y20231D02*
Y20331D01*
X29425Y21083D02*
X29525D01*
X29475Y21033D02*
Y21133D01*
X30744Y23834D02*
X30823D01*
X30784Y23794D02*
Y23873D01*
X30744Y24267D02*
X30823D01*
X30784Y24228D02*
Y24306D01*
X30744Y24700D02*
X30823D01*
X30784Y24661D02*
Y24739D01*
X30744Y25133D02*
X30823D01*
X30784Y25094D02*
Y25172D01*
X30744Y25566D02*
X30823D01*
X30784Y25527D02*
Y25606D01*
X31178Y23834D02*
X31256D01*
X31217Y23794D02*
Y23873D01*
X31178Y24267D02*
X31256D01*
X31217Y24228D02*
Y24306D01*
X31178Y24700D02*
X31256D01*
X31217Y24661D02*
Y24739D01*
X31178Y25133D02*
X31256D01*
X31217Y25094D02*
Y25172D01*
X31178Y25566D02*
X31256D01*
X31217Y25527D02*
Y25606D01*
X31611Y23834D02*
X31689D01*
X31650Y23794D02*
Y23873D01*
X31611Y24267D02*
X31689D01*
X31650Y24228D02*
Y24306D01*
X31611Y24700D02*
X31689D01*
X31650Y24661D02*
Y24739D01*
X31611Y25133D02*
X31689D01*
X31650Y25094D02*
Y25172D01*
X31611Y25566D02*
X31689D01*
X31650Y25527D02*
Y25606D01*
X32044Y23834D02*
X32122D01*
X32083Y23794D02*
Y23873D01*
X32044Y24267D02*
X32122D01*
X32083Y24228D02*
Y24306D01*
X32044Y24700D02*
X32122D01*
X32083Y24661D02*
Y24739D01*
X32044Y25133D02*
X32122D01*
X32083Y25094D02*
Y25172D01*
X32044Y25566D02*
X32122D01*
X32083Y25527D02*
Y25606D01*
X32477Y23834D02*
X32556D01*
X32516Y23794D02*
Y23873D01*
X32477Y24267D02*
X32556D01*
X32516Y24228D02*
Y24306D01*
X32477Y24700D02*
X32556D01*
X32516Y24661D02*
Y24739D01*
X32477Y25133D02*
X32556D01*
X32516Y25094D02*
Y25172D01*
X32477Y25566D02*
X32556D01*
X32516Y25527D02*
Y25606D01*
X30277Y23323D02*
X30377D01*
X30327Y23273D02*
Y23373D01*
X32230Y26086D02*
X32330D01*
X32280Y26036D02*
Y26136D01*
X30813Y26086D02*
X30913D01*
X30863Y26036D02*
Y26136D01*
X30258Y23873D02*
X30358D01*
X30308Y23823D02*
Y23923D01*
X30258Y25716D02*
X30358D01*
X30308Y25666D02*
Y25766D01*
X30258Y24227D02*
X30358D01*
X30308Y24177D02*
Y24277D01*
X32956Y26101D02*
X33056D01*
X33006Y26051D02*
Y26151D01*
X33768Y23832D02*
X33868D01*
X33818Y23782D02*
Y23882D01*
X33265Y22978D02*
X33365D01*
X33315Y22928D02*
Y23028D01*
X33723Y25411D02*
X33823D01*
X33773Y25361D02*
Y25461D01*
X30258Y25172D02*
X30358D01*
X30308Y25122D02*
Y25222D01*
X29630Y20281D02*
X29730D01*
X29680Y20231D02*
Y20331D01*
X29970Y20281D02*
X30070D01*
X30020Y20231D02*
Y20331D01*
X30175Y21083D02*
X30275D01*
X30225Y21033D02*
Y21133D01*
X34130Y20281D02*
X34230D01*
X34180Y20231D02*
Y20331D01*
X34470Y20281D02*
X34570D01*
X34520Y20231D02*
Y20331D01*
X32514Y17497D02*
X32614D01*
X32564Y17447D02*
Y17547D01*
X32507Y17082D02*
X32607D01*
X32557Y17032D02*
Y17132D01*
X29282Y17486D02*
X29382D01*
X29332Y17436D02*
Y17536D01*
X28526Y17462D02*
X28626D01*
X28576Y17412D02*
Y17512D01*
X28905Y17148D02*
X29005D01*
X28955Y17098D02*
Y17198D01*
X23911Y20174D02*
X24011D01*
X23961Y20124D02*
Y20224D01*
X25507Y20174D02*
X25607D01*
X25557Y20124D02*
Y20224D01*
X22447Y20174D02*
X22547D01*
X22497Y20124D02*
Y20224D01*
X8296Y13200D02*
X8396D01*
X8346Y13150D02*
Y13250D01*
X33850Y22260D02*
X33950D01*
X33900Y22210D02*
Y22310D01*
X33925Y21083D02*
X34025D01*
X33975Y21033D02*
Y21133D01*
X39674Y68672D02*
X39774D01*
X39724Y68622D02*
Y68722D01*
X49631Y42016D02*
X49731D01*
X49681Y41966D02*
Y42066D01*
X37086Y68671D02*
X37186D01*
X37136Y68621D02*
Y68721D01*
X34400Y22260D02*
X34500D01*
X34450Y22210D02*
Y22310D01*
X43970Y21823D02*
X44070D01*
X44020Y21773D02*
Y21873D01*
X43812Y22509D02*
X43912D01*
X43862Y22459D02*
Y22559D01*
X36454Y22509D02*
X36554D01*
X36504Y22459D02*
Y22559D01*
X35750Y22030D02*
X35850D01*
X35800Y21980D02*
Y22080D01*
X28675Y21083D02*
X28775D01*
X28725Y21033D02*
Y21133D01*
X34675Y21083D02*
X34775D01*
X34725Y21033D02*
Y21133D01*
X33175Y21083D02*
X33275D01*
X33225Y21033D02*
Y21133D01*
X32425Y21083D02*
X32525D01*
X32475Y21033D02*
Y21133D01*
X31675Y21083D02*
X31775D01*
X31725Y21033D02*
Y21133D01*
X30925Y21083D02*
X31025D01*
X30975Y21033D02*
Y21133D01*
X96300Y60110D02*
X96400D01*
X96350Y60060D02*
Y60160D01*
X104882Y65121D02*
X104982D01*
X104932Y65071D02*
Y65171D01*
X104580Y65234D02*
X104680D01*
X104630Y65184D02*
Y65284D01*
X104580Y65588D02*
X104680D01*
X104630Y65538D02*
Y65638D01*
X104882Y65730D02*
X104982D01*
X104932Y65680D02*
Y65780D01*
X108280Y65706D02*
X108380D01*
X108330Y65656D02*
Y65756D01*
X107260Y65706D02*
X107360D01*
X107310Y65656D02*
Y65756D01*
X106630Y65706D02*
X106730D01*
X106680Y65656D02*
Y65756D01*
X68871Y20823D02*
X68971D01*
X68921Y20773D02*
Y20873D01*
X67686Y22205D02*
X67786D01*
X67736Y22155D02*
Y22255D01*
X70143Y19413D02*
X70243D01*
X70193Y19363D02*
Y19463D01*
X66395Y20740D02*
X66495D01*
X66445Y20690D02*
Y20790D01*
X67226Y20087D02*
X67326D01*
X67276Y20037D02*
Y20137D01*
X66407Y20063D02*
X66507D01*
X66457Y20013D02*
Y20113D01*
X67785Y19335D02*
X67885D01*
X67835Y19285D02*
Y19385D01*
X67245Y19339D02*
X67345D01*
X67295Y19289D02*
Y19389D01*
X51001Y60118D02*
X51101D01*
X51051Y60068D02*
Y60168D01*
X43273Y48130D02*
X43373D01*
X43323Y48080D02*
Y48180D01*
X48250Y47819D02*
X48350D01*
X48300Y47769D02*
Y47869D01*
X46867Y47821D02*
X46967D01*
X46917Y47771D02*
Y47871D01*
X64394Y36015D02*
X64494D01*
X64444Y35965D02*
Y36065D01*
X95103Y69241D02*
X95203D01*
X95153Y69191D02*
Y69291D01*
X95103Y68748D02*
X95203D01*
X95153Y68698D02*
Y68798D01*
X109210Y64441D02*
X109310D01*
X109260Y64391D02*
Y64491D01*
X119025Y66205D02*
X119125D01*
X119075Y66155D02*
Y66255D01*
X113548Y66185D02*
X113648D01*
X113598Y66135D02*
Y66235D01*
X110863Y66138D02*
X110963D01*
X110913Y66088D02*
Y66188D01*
X106966Y64441D02*
X107066D01*
X107016Y64391D02*
Y64491D01*
X83568Y59583D02*
X83668D01*
X83618Y59533D02*
Y59633D01*
X55848Y43583D02*
X55948D01*
X55898Y43533D02*
Y43633D01*
X63800Y40713D02*
X63900D01*
X63850Y40663D02*
Y40763D01*
X66261Y44417D02*
X66361D01*
X66311Y44367D02*
Y44467D01*
X38548Y32579D02*
X38648D01*
X38598Y32529D02*
Y32629D01*
X9403Y24535D02*
X9503D01*
X9453Y24485D02*
Y24585D01*
X9340Y27039D02*
X9440D01*
X9390Y26989D02*
Y27089D01*
X9352Y29543D02*
X9452D01*
X9402Y29493D02*
Y29593D01*
X9336Y32047D02*
X9436D01*
X9386Y31997D02*
Y32097D01*
X12159Y32047D02*
X12259D01*
X12209Y31997D02*
Y32097D01*
X12163Y27039D02*
X12263D01*
X12213Y26989D02*
Y27089D01*
X12226Y24535D02*
X12326D01*
X12276Y24485D02*
Y24585D01*
X23911Y21087D02*
X24011D01*
X23961Y21037D02*
Y21137D01*
X22447Y21087D02*
X22547D01*
X22497Y21037D02*
Y21137D01*
X25507Y21087D02*
X25607D01*
X25557Y21037D02*
Y21137D01*
X115438Y26461D02*
X115538D01*
X115488Y26411D02*
Y26511D01*
X116359Y26453D02*
X116459D01*
X116409Y26403D02*
Y26503D01*
X110903Y16984D02*
X111003D01*
X110953Y16934D02*
Y17034D01*
X111816Y16984D02*
X111916D01*
X111866Y16934D02*
Y17034D01*
X112730Y16984D02*
X112830D01*
X112780Y16934D02*
Y17034D01*
X114533Y23344D02*
X114633D01*
X114583Y23294D02*
Y23394D01*
X113676Y17710D02*
X113776D01*
X113726Y17660D02*
Y17760D01*
X114533Y18595D02*
X114633D01*
X114583Y18545D02*
Y18645D01*
X113676Y19352D02*
X113776D01*
X113726Y19302D02*
Y19402D01*
X114533Y20178D02*
X114633D01*
X114583Y20128D02*
Y20228D01*
X113676Y20995D02*
X113776D01*
X113726Y20945D02*
Y21045D01*
X114533Y21761D02*
X114633D01*
X114583Y21711D02*
Y21811D01*
X113676Y22637D02*
X113776D01*
X113726Y22587D02*
Y22687D01*
X113676Y24279D02*
X113776D01*
X113726Y24229D02*
Y24329D01*
X114533Y17012D02*
X114633D01*
X114583Y16962D02*
Y17062D01*
X111340Y23016D02*
X111440D01*
X111390Y22966D02*
Y23066D01*
X109922Y23016D02*
X110022D01*
X109972Y22966D02*
Y23066D01*
X111332Y24180D02*
X111432D01*
X111382Y24130D02*
Y24230D01*
X111316Y27673D02*
X111416D01*
X111366Y27623D02*
Y27723D01*
X112761Y27681D02*
X112861D01*
X112811Y27631D02*
Y27731D01*
X112761Y28906D02*
X112861D01*
X112811Y28856D02*
Y28956D01*
X111293Y25344D02*
X111393D01*
X111343Y25294D02*
Y25394D01*
X111293Y26509D02*
X111393D01*
X111343Y26459D02*
Y26559D01*
X109929Y25344D02*
X110029D01*
X109979Y25294D02*
Y25394D01*
X109929Y26509D02*
X110029D01*
X109979Y26459D02*
Y26559D01*
X112761Y30827D02*
X112861D01*
X112811Y30777D02*
Y30877D01*
X110652Y30807D02*
X110752D01*
X110702Y30757D02*
Y30857D01*
X111142Y31268D02*
X111242D01*
X111192Y31218D02*
Y31318D01*
X110652Y30328D02*
X110752D01*
X110702Y30278D02*
Y30378D01*
X110652Y31268D02*
X110752D01*
X110702Y31218D02*
Y31318D01*
X111142Y30328D02*
X111242D01*
X111192Y30278D02*
Y30378D01*
X112761Y32465D02*
X112861D01*
X112811Y32415D02*
Y32515D01*
X112761Y34028D02*
X112861D01*
X112811Y33978D02*
Y34078D01*
X111749Y35299D02*
X111849D01*
X111799Y35249D02*
Y35349D01*
X109525Y35354D02*
X109625D01*
X109575Y35304D02*
Y35404D01*
X111702Y37988D02*
X111802D01*
X111752Y37938D02*
Y38038D01*
X109568Y37992D02*
X109668D01*
X109618Y37942D02*
Y38042D01*
X109478Y39571D02*
X109578D01*
X109528Y39521D02*
Y39621D01*
X111702Y39559D02*
X111802D01*
X111752Y39509D02*
Y39609D01*
X116596Y38413D02*
X116696D01*
X116646Y38363D02*
Y38463D01*
X115458Y39669D02*
X115558D01*
X115508Y39619D02*
Y39719D01*
X115856Y34024D02*
X115956D01*
X115906Y33974D02*
Y34074D01*
X115856Y35535D02*
X115956D01*
X115906Y35485D02*
Y35585D01*
X115856Y37047D02*
X115956D01*
X115906Y36997D02*
Y37097D01*
X116891Y37047D02*
X116991D01*
X116941Y36997D02*
Y37097D01*
X116891Y35535D02*
X116991D01*
X116941Y35485D02*
Y35585D01*
X116891Y34024D02*
X116991D01*
X116941Y33974D02*
Y34074D01*
X117926Y34024D02*
X118026D01*
X117976Y33974D02*
Y34074D01*
X117926Y35535D02*
X118026D01*
X117976Y35485D02*
Y35585D01*
X117926Y37047D02*
X118026D01*
X117976Y36997D02*
Y37097D01*
X43273Y48592D02*
X43373D01*
X43323Y48542D02*
Y48642D01*
X4981Y45665D02*
X5081D01*
X5031Y45615D02*
Y45715D01*
X4981Y48169D02*
X5081D01*
X5031Y48119D02*
Y48219D01*
X7411Y45665D02*
X7511D01*
X7461Y45615D02*
Y45715D01*
X7411Y48169D02*
X7511D01*
X7461Y48119D02*
Y48219D01*
X3537Y39559D02*
X3637D01*
X3587Y39509D02*
Y39609D01*
X3537Y42063D02*
X3637D01*
X3587Y42013D02*
Y42113D01*
X3537Y37055D02*
X3637D01*
X3587Y37005D02*
Y37105D01*
X3537Y34551D02*
X3637D01*
X3587Y34501D02*
Y34601D01*
X3537Y32047D02*
X3637D01*
X3587Y31997D02*
Y32097D01*
X3537Y29543D02*
X3637D01*
X3587Y29493D02*
Y29593D01*
X3537Y27039D02*
X3637D01*
X3587Y26989D02*
Y27089D01*
X6761Y27039D02*
X6861D01*
X6811Y26989D02*
Y27089D01*
X6761Y29543D02*
X6861D01*
X6811Y29493D02*
Y29593D01*
X6761Y32047D02*
X6861D01*
X6811Y31997D02*
Y32097D01*
X6761Y34551D02*
X6861D01*
X6811Y34501D02*
Y34601D01*
X6761Y37055D02*
X6861D01*
X6811Y37005D02*
Y37105D01*
X6761Y42063D02*
X6861D01*
X6811Y42013D02*
Y42113D01*
X6761Y39559D02*
X6861D01*
X6811Y39509D02*
Y39609D01*
X34539Y46199D02*
X34639D01*
X34589Y46149D02*
Y46249D01*
X35728Y46199D02*
X35828D01*
X35778Y46149D02*
Y46249D01*
X35159Y45315D02*
X35259D01*
X35209Y45265D02*
Y45365D01*
X62765Y24539D02*
X62865D01*
X62815Y24489D02*
Y24589D01*
X60088Y13878D02*
X60188D01*
X60138Y13828D02*
Y13928D01*
X60493Y10815D02*
X60593D01*
X60543Y10765D02*
Y10865D01*
X69470Y22276D02*
X69570D01*
X69520Y22226D02*
Y22326D01*
X63556Y17335D02*
X63656D01*
X63606Y17285D02*
Y17385D01*
X55261Y27169D02*
X55361D01*
X55311Y27119D02*
Y27219D01*
X58978Y32524D02*
X59078D01*
X59028Y32474D02*
Y32574D01*
X56056Y36437D02*
X56156D01*
X56106Y36387D02*
Y36487D01*
X71576Y45906D02*
X71676D01*
X71626Y45856D02*
Y45956D01*
X62088Y46598D02*
X62188D01*
X62138Y46548D02*
Y46648D01*
X25312Y35849D02*
X25412D01*
X25362Y35799D02*
Y35899D01*
X25984Y37051D02*
X26084D01*
X26034Y37001D02*
Y37101D01*
X24651Y35857D02*
X24751D01*
X24701Y35807D02*
Y35907D01*
X24372Y35758D02*
X24472D01*
X24422Y35708D02*
Y35808D01*
X99029Y4637D02*
X99129D01*
X99079Y4587D02*
Y4687D01*
X93395Y6758D02*
X93495D01*
X93445Y6708D02*
Y6808D01*
X93789Y6720D02*
X93889D01*
X93839Y6670D02*
Y6770D01*
X95164Y7671D02*
X95264D01*
X95214Y7621D02*
Y7721D01*
X95958Y7319D02*
X96058D01*
X96008Y7269D02*
Y7369D01*
X92879Y3358D02*
X92979D01*
X92929Y3308D02*
Y3408D01*
X93355Y3047D02*
X93455D01*
X93405Y2997D02*
Y3097D01*
X96985Y3567D02*
X97085D01*
X97035Y3517D02*
Y3617D01*
X97726Y4165D02*
X97826D01*
X97776Y4115D02*
Y4215D01*
X96343Y4614D02*
X96443D01*
X96393Y4564D02*
Y4664D01*
X96343Y5819D02*
X96443D01*
X96393Y5769D02*
Y5869D01*
X95621Y6541D02*
X95721D01*
X95671Y6491D02*
Y6591D01*
X94708Y6541D02*
X94808D01*
X94758Y6491D02*
Y6591D01*
X94708Y3987D02*
X94808D01*
X94758Y3937D02*
Y4037D01*
X95620Y3987D02*
X95720D01*
X95670Y3937D02*
Y4037D01*
X93789Y4709D02*
X93889D01*
X93839Y4659D02*
Y4759D01*
X93789Y5622D02*
X93889D01*
X93839Y5572D02*
Y5672D01*
X96722Y5748D02*
X96822D01*
X96772Y5698D02*
Y5798D01*
X95558Y4772D02*
X95658D01*
X95608Y4722D02*
Y4822D01*
X94574Y4772D02*
X94674D01*
X94624Y4722D02*
Y4822D01*
X95558Y5756D02*
X95658D01*
X95608Y5706D02*
Y5806D01*
X94574Y5756D02*
X94674D01*
X94624Y5706D02*
Y5806D01*
X94574Y5264D02*
X94674D01*
X94624Y5214D02*
Y5314D01*
X95558Y5264D02*
X95658D01*
X95608Y5214D02*
Y5314D01*
X95066Y5264D02*
X95166D01*
X95116Y5214D02*
Y5314D01*
X95066Y5756D02*
X95166D01*
X95116Y5706D02*
Y5806D01*
X95066Y4772D02*
X95166D01*
X95116Y4722D02*
Y4822D01*
X83850Y24602D02*
X83950D01*
X83900Y24551D02*
Y24652D01*
X85050Y24320D02*
X85150D01*
X85100Y24270D02*
Y24370D01*
X86550Y24320D02*
X86650D01*
X86600Y24270D02*
Y24370D01*
X66346Y60303D02*
X66446D01*
X66396Y60253D02*
Y60353D01*
X29359Y25063D02*
X29459D01*
X29409Y25013D02*
Y25113D01*
X97592Y62660D02*
X97692D01*
X97642Y62610D02*
Y62710D01*
X97048Y63154D02*
X97148D01*
X97098Y63104D02*
Y63204D01*
X39254Y25350D02*
X39534D01*
X39394Y25210D02*
Y25490D01*
X40074Y25350D02*
X40354D01*
X40214Y25210D02*
Y25490D01*
X39644Y24760D02*
X39924D01*
X39784Y24620D02*
Y24900D01*
X104090Y64574D02*
X104190D01*
X104140Y64524D02*
Y64624D01*
X35620Y20561D02*
X35720D01*
X35670Y20511D02*
Y20611D01*
X35270Y20561D02*
X35370D01*
X35320Y20511D02*
Y20611D01*
X56194Y20429D02*
X56294D01*
X56244Y20379D02*
Y20479D01*
X70522Y15771D02*
X70622D01*
X70572Y15721D02*
Y15821D01*
X56050Y18437D02*
X56150D01*
X56100Y18387D02*
Y18487D01*
X54596Y19475D02*
X54696D01*
X54646Y19425D02*
Y19525D01*
X26950Y27791D02*
X27050D01*
X27000Y27741D02*
Y27841D01*
X27700Y27548D02*
X27800D01*
X27750Y27498D02*
Y27598D01*
X28300Y27509D02*
X28400D01*
X28350Y27459D02*
Y27559D01*
X28850Y27509D02*
X28950D01*
X28900Y27459D02*
Y27559D01*
X29400Y27509D02*
X29500D01*
X29450Y27459D02*
Y27559D01*
X10489Y39250D02*
X10589D01*
X10539Y39200D02*
Y39300D01*
X32296Y36457D02*
X32396D01*
X32346Y36407D02*
Y36507D01*
X32296Y37028D02*
X32396D01*
X32346Y36978D02*
Y37078D01*
X31789Y37028D02*
X31889D01*
X31839Y36978D02*
Y37078D01*
X31789Y36457D02*
X31889D01*
X31839Y36407D02*
Y36507D01*
X31281Y37028D02*
X31381D01*
X31331Y36978D02*
Y37078D01*
X31281Y36458D02*
X31381D01*
X31331Y36408D02*
Y36508D01*
X17985Y39794D02*
X18085D01*
X18035Y39744D02*
Y39844D01*
X22075Y40018D02*
X22175D01*
X22125Y39968D02*
Y40068D01*
X22425Y40018D02*
X22525D01*
X22475Y39968D02*
Y40068D01*
X22775Y40018D02*
X22875D01*
X22825Y39968D02*
Y40068D01*
X23125Y40018D02*
X23225D01*
X23175Y39968D02*
Y40068D01*
X67610Y62685D02*
X67710D01*
X67660Y62635D02*
Y62735D01*
X67610Y63102D02*
X67710D01*
X67660Y63052D02*
Y63152D01*
X68863Y63102D02*
X68963D01*
X68913Y63052D02*
Y63152D01*
X68863Y62685D02*
X68963D01*
X68913Y62635D02*
Y62735D01*
X100539Y65300D02*
X100639D01*
X100589Y65250D02*
Y65350D01*
X101219Y66100D02*
X101319D01*
X101269Y66050D02*
Y66150D01*
X100850Y66850D02*
X100950D01*
X100900Y66800D02*
Y66900D01*
X78690Y57941D02*
X78790D01*
X78740Y57891D02*
Y57991D01*
X87308Y58248D02*
X87408D01*
X87358Y58198D02*
Y58298D01*
X86837Y58248D02*
X86937D01*
X86887Y58198D02*
Y58298D01*
X76916Y59207D02*
X77016D01*
X76966Y59157D02*
Y59257D01*
X84516Y59252D02*
X84616D01*
X84566Y59202D02*
Y59302D01*
X83746Y60252D02*
X83846D01*
X83796Y60202D02*
Y60302D01*
X83366Y60585D02*
X83466D01*
X83416Y60535D02*
Y60635D01*
X77658Y69550D02*
X77758D01*
X77708Y69500D02*
Y69600D01*
X77658Y70150D02*
X77758D01*
X77708Y70100D02*
Y70200D01*
X80183Y68065D02*
X80283D01*
X80233Y68015D02*
Y68115D01*
X88900Y66651D02*
X89000D01*
X88950Y66601D02*
Y66701D01*
X88973Y59492D02*
X89073D01*
X89023Y59442D02*
Y59542D01*
X89348Y60253D02*
X89448D01*
X89398Y60203D02*
Y60303D01*
X89952Y60563D02*
X90052D01*
X90002Y60513D02*
Y60613D01*
X90213Y60839D02*
X90313D01*
X90263Y60789D02*
Y60889D01*
X90217Y61389D02*
X90317D01*
X90267Y61339D02*
Y61439D01*
X89945Y61597D02*
X90045D01*
X89995Y61547D02*
Y61647D01*
X89246Y62104D02*
X89346D01*
X89296Y62054D02*
Y62154D01*
X88698Y62116D02*
X88798D01*
X88748Y62066D02*
Y62166D01*
X87131Y60902D02*
X87231D01*
X87181Y60852D02*
Y60952D01*
X87406Y61295D02*
X87506D01*
X87456Y61245D02*
Y61345D01*
X69063Y65104D02*
X69163D01*
X69113Y65054D02*
Y65154D01*
X15978Y48831D02*
X16078D01*
X16028Y48781D02*
Y48881D01*
X43373Y41220D02*
X43473D01*
X43423Y41170D02*
Y41270D01*
X43395Y42822D02*
X43495D01*
X43445Y42772D02*
Y42872D01*
X43395Y41872D02*
X43495D01*
X43445Y41822D02*
Y41922D01*
X43917Y40747D02*
X44017D01*
X43967Y40697D02*
Y40797D01*
X43917Y39547D02*
X44017D01*
X43967Y39497D02*
Y39597D01*
X19903Y29411D02*
X20003D01*
X19953Y29361D02*
Y29461D01*
X35117Y17456D02*
X35217D01*
X35167Y17406D02*
Y17506D01*
X34295Y17492D02*
X34395D01*
X34345Y17442D02*
Y17542D01*
X25774Y40493D02*
X25874D01*
X25824Y40443D02*
Y40543D01*
X51103Y56414D02*
X51203D01*
X51153Y56364D02*
Y56464D01*
X23975Y40493D02*
X24075D01*
X24025Y40443D02*
Y40543D01*
X20743Y37875D02*
X20843D01*
X20793Y37825D02*
Y37925D01*
X57841Y59626D02*
X57941D01*
X57891Y59576D02*
Y59676D01*
X20743Y37425D02*
X20843D01*
X20793Y37375D02*
Y37475D01*
X27481Y38300D02*
X27581D01*
X27531Y38250D02*
Y38350D01*
X27760Y37625D02*
X27860D01*
X27810Y37575D02*
Y37675D01*
X27481Y37850D02*
X27581D01*
X27531Y37800D02*
Y37900D01*
X27760Y37175D02*
X27860D01*
X27810Y37125D02*
Y37225D01*
X33504Y34273D02*
X33604D01*
X33554Y34223D02*
Y34323D01*
X60004Y55034D02*
X60104D01*
X60054Y54984D02*
Y55084D01*
X60004Y54525D02*
X60104D01*
X60054Y54475D02*
Y54575D01*
X60865Y53900D02*
X60965D01*
X60915Y53850D02*
Y53950D01*
X60004Y53900D02*
X60104D01*
X60054Y53850D02*
Y53950D01*
X72012Y59459D02*
X72112D01*
X72062Y59409D02*
Y59509D01*
X88950Y56218D02*
X89050D01*
X89000Y56168D02*
Y56268D01*
X88375Y56134D02*
X88475D01*
X88425Y56084D02*
Y56184D01*
X87705Y56134D02*
X87805D01*
X87755Y56084D02*
Y56184D01*
X10069Y67040D02*
X10168D01*
X10118Y66990D02*
Y67090D01*
X9552Y68074D02*
X9652D01*
X9602Y68024D02*
Y68124D01*
X65794Y61788D02*
X65894D01*
X65844Y61738D02*
Y61838D01*
X66187Y61788D02*
X66287D01*
X66237Y61738D02*
Y61838D01*
X50878Y64733D02*
X50978D01*
X50928Y64683D02*
Y64783D01*
X50169Y64733D02*
X50269D01*
X50219Y64683D02*
Y64783D01*
X51586Y64733D02*
X51686D01*
X51636Y64683D02*
Y64783D01*
X11592Y67326D02*
X11692D01*
X11642Y67276D02*
Y67376D01*
X11132Y68349D02*
X11231D01*
X11181Y68299D02*
Y68399D01*
X66488Y61542D02*
X66588D01*
X66538Y61492D02*
Y61592D01*
X66891Y61542D02*
X66991D01*
X66941Y61492D02*
Y61592D01*
X45676Y64150D02*
X45776D01*
X45726Y64100D02*
Y64200D01*
X15920Y60420D02*
X16020D01*
X15970Y60370D02*
Y60470D01*
X12752Y68074D02*
X12852D01*
X12802Y68024D02*
Y68124D01*
X13269Y67040D02*
X13369D01*
X13319Y66990D02*
Y67090D01*
X66970Y61965D02*
X67070D01*
X67020Y61915D02*
Y62015D01*
X67373Y61965D02*
X67473D01*
X67423Y61915D02*
Y62015D01*
X65602Y63099D02*
X65702D01*
X65652Y63049D02*
Y63149D01*
X65198Y63099D02*
X65298D01*
X65248Y63049D02*
Y63149D01*
X48215Y64150D02*
X48315D01*
X48265Y64100D02*
Y64200D01*
X54654Y63507D02*
X54754D01*
X54704Y63457D02*
Y63557D01*
X14792Y67326D02*
X14892D01*
X14842Y67276D02*
Y67376D01*
X63312Y63461D02*
X63412D01*
X63362Y63411D02*
Y63511D01*
X14332Y68349D02*
X14432D01*
X14382Y68299D02*
Y68399D01*
X63868Y64679D02*
X63968D01*
X63918Y64629D02*
Y64729D01*
X63160Y64733D02*
X63260D01*
X63210Y64683D02*
Y64783D01*
X63316Y65752D02*
X63416D01*
X63366Y65702D02*
Y65802D01*
X16468Y67040D02*
X16568D01*
X16518Y66990D02*
Y67090D01*
X15952Y68074D02*
X16052D01*
X16002Y68024D02*
Y68124D01*
X64493Y63461D02*
X64593D01*
X64543Y63411D02*
Y63511D01*
X63866Y66210D02*
X63966D01*
X63916Y66160D02*
Y66260D01*
X64896Y63461D02*
X64996D01*
X64946Y63411D02*
Y63511D01*
X64421Y63099D02*
X64521D01*
X64471Y63049D02*
Y63149D01*
X64017Y63099D02*
X64117D01*
X64067Y63049D02*
Y63149D01*
X22829Y61367D02*
X22929D01*
X22879Y61317D02*
Y61417D01*
X19070Y60800D02*
X19170D01*
X19120Y60750D02*
Y60850D01*
X19750Y60846D02*
X19850D01*
X19800Y60796D02*
Y60896D01*
X17992Y67326D02*
X18092D01*
X18042Y67276D02*
Y67376D01*
X17531Y68349D02*
X17631D01*
X17581Y68299D02*
Y68399D01*
X65075Y64733D02*
X65175D01*
X65125Y64683D02*
Y64783D01*
X19669Y67040D02*
X19769D01*
X19719Y66990D02*
Y67090D01*
X19152Y68074D02*
X19252D01*
X19202Y68024D02*
Y68124D01*
X65674Y63461D02*
X65774D01*
X65724Y63411D02*
Y63511D01*
X21192Y67326D02*
X21292D01*
X21242Y67276D02*
Y67376D01*
X66077Y63461D02*
X66177D01*
X66127Y63411D02*
Y63511D01*
X20731Y68349D02*
X20831D01*
X20782Y68299D02*
Y68399D01*
X66231Y64679D02*
X66331D01*
X66281Y64629D02*
Y64729D01*
X66228Y66063D02*
X66328D01*
X66278Y66013D02*
Y66113D01*
X67250Y65018D02*
X67350D01*
X67300Y64968D02*
Y65068D01*
X22868Y67040D02*
X22968D01*
X22919Y66990D02*
Y67090D01*
X66857Y65018D02*
X66957D01*
X66907Y64968D02*
Y65068D01*
X22352Y68074D02*
X22452D01*
X22402Y68024D02*
Y68124D01*
X66602Y65625D02*
X66702D01*
X66652Y65575D02*
Y65675D01*
X67560Y65195D02*
X67660D01*
X67610Y65145D02*
Y65245D01*
X67964Y65195D02*
X68064D01*
X68014Y65145D02*
Y65245D01*
X22500Y65610D02*
X22600D01*
X22550Y65560D02*
Y65660D01*
X23532Y67700D02*
X23632D01*
X23582Y67650D02*
Y67750D01*
X24392Y67326D02*
X24492D01*
X24442Y67276D02*
Y67376D01*
X23932Y68349D02*
X24032D01*
X23981Y68299D02*
Y68399D01*
X58020Y61502D02*
X58120D01*
X58070Y61452D02*
Y61552D01*
X57547Y61502D02*
X57648D01*
X57597Y61452D02*
Y61552D01*
X56901Y61499D02*
X57001D01*
X56951Y61449D02*
Y61549D01*
X58077Y59941D02*
X58177D01*
X58127Y59891D02*
Y59991D01*
X58313Y59626D02*
X58413D01*
X58363Y59576D02*
Y59676D01*
X58552Y59941D02*
X58652D01*
X58602Y59891D02*
Y59991D01*
X58790Y61458D02*
X58890D01*
X58840Y61408D02*
Y61508D01*
X59024Y59623D02*
X59124D01*
X59074Y59573D02*
Y59673D01*
X59260Y59938D02*
X59360D01*
X59310Y59888D02*
Y59988D01*
X59496Y59654D02*
X59596D01*
X59546Y59604D02*
Y59704D01*
X59733Y59938D02*
X59833D01*
X59783Y59888D02*
Y59988D01*
X60205Y59623D02*
X60305D01*
X60255Y59573D02*
Y59673D01*
X60441Y59938D02*
X60541D01*
X60491Y59888D02*
Y59988D01*
X60677Y59623D02*
X60778D01*
X60728Y59573D02*
Y59673D01*
X60914Y59938D02*
X61014D01*
X60964Y59888D02*
Y59988D01*
X61150Y61467D02*
X61250D01*
X61200Y61417D02*
Y61517D01*
X67500Y59120D02*
X67600D01*
X67550Y59070D02*
Y59170D01*
X68238Y60254D02*
X68338D01*
X68288Y60204D02*
Y60304D01*
X68000Y59945D02*
X68100D01*
X68050Y59895D02*
Y59995D01*
X68472Y59944D02*
X68572D01*
X68522Y59894D02*
Y59994D01*
X68708Y61436D02*
X68808D01*
X68758Y61386D02*
Y61486D01*
X68947Y60254D02*
X69047D01*
X68997Y60204D02*
Y60304D01*
X69181Y59944D02*
X69281D01*
X69231Y59894D02*
Y59994D01*
X69419Y60254D02*
X69519D01*
X69469Y60204D02*
Y60304D01*
X69653Y59947D02*
X69753D01*
X69703Y59897D02*
Y59997D01*
X69892Y60254D02*
X69992D01*
X69942Y60204D02*
Y60304D01*
X71070Y61480D02*
X71170D01*
X71120Y61430D02*
Y61530D01*
X63715Y63461D02*
X63815D01*
X63765Y63411D02*
Y63511D01*
X44601Y59975D02*
X44701D01*
X44651Y59925D02*
Y60025D01*
X39986Y60676D02*
X40086D01*
X40036Y60626D02*
Y60726D01*
X37945Y60397D02*
X38045D01*
X37995Y60347D02*
Y60447D01*
X38325Y59730D02*
X38425D01*
X38375Y59680D02*
Y59780D01*
X44601Y59325D02*
X44701D01*
X44651Y59275D02*
Y59375D01*
X43799Y59325D02*
X43899D01*
X43849Y59275D02*
Y59375D01*
X44200Y61082D02*
X44300D01*
X44250Y61032D02*
Y61132D01*
X45133Y58650D02*
X45233D01*
X45183Y58600D02*
Y58700D01*
X45133Y60650D02*
X45233D01*
X45183Y60600D02*
Y60700D01*
X83394Y72000D02*
X83494D01*
X83444Y71950D02*
Y72050D01*
X24698Y60547D02*
X24798D01*
X24748Y60497D02*
Y60597D01*
X67530Y61453D02*
X67630D01*
X67580Y61403D02*
Y61503D01*
X62449Y66063D02*
X62549D01*
X62499Y66013D02*
Y66113D01*
X62822Y65625D02*
X62922D01*
X62872Y65575D02*
Y65675D01*
X62452Y64679D02*
X62552D01*
X62502Y64629D02*
Y64729D01*
X61032Y66063D02*
X61132D01*
X61082Y66013D02*
Y66113D01*
X61034Y64679D02*
X61134D01*
X61084Y64629D02*
Y64729D01*
X61405Y65625D02*
X61505D01*
X61455Y65575D02*
Y65675D01*
X43300Y64150D02*
X43400D01*
X43350Y64100D02*
Y64200D01*
X53003Y64733D02*
X53103D01*
X53053Y64683D02*
Y64783D01*
X53237Y65000D02*
X53337D01*
X53287Y64950D02*
Y65050D01*
X69774Y64733D02*
X69874D01*
X69824Y64683D02*
Y64783D01*
X67412Y64733D02*
X67512D01*
X67462Y64683D02*
Y64783D01*
X61743Y64733D02*
X61843D01*
X61793Y64683D02*
Y64783D01*
X59853Y64733D02*
X59953D01*
X59903Y64683D02*
Y64783D01*
X57491Y64733D02*
X57591D01*
X57541Y64683D02*
Y64783D01*
X22038Y67327D02*
X22138D01*
X22088Y67277D02*
Y67377D01*
X22038Y67673D02*
X22138D01*
X22088Y67623D02*
Y67723D01*
X18838Y67327D02*
X18938D01*
X18888Y67277D02*
Y67377D01*
X18838Y67673D02*
X18938D01*
X18888Y67623D02*
Y67723D01*
X20332Y67700D02*
X20432D01*
X20382Y67650D02*
Y67750D01*
X15638Y67327D02*
X15738D01*
X15688Y67277D02*
Y67377D01*
X15638Y67673D02*
X15738D01*
X15688Y67623D02*
Y67723D01*
X17132Y67700D02*
X17232D01*
X17182Y67650D02*
Y67750D01*
X12438Y67327D02*
X12538D01*
X12488Y67277D02*
Y67377D01*
X12438Y67673D02*
X12538D01*
X12488Y67623D02*
Y67723D01*
X13932Y67700D02*
X14032D01*
X13982Y67650D02*
Y67750D01*
X10732Y67700D02*
X10832D01*
X10782Y67650D02*
Y67750D01*
X9238Y67673D02*
X9338D01*
X9288Y67623D02*
Y67723D01*
X9238Y67327D02*
X9338D01*
X9288Y67277D02*
Y67377D01*
X115811Y32461D02*
X115911D01*
X115861Y32411D02*
Y32511D01*
X115811Y30807D02*
X115911D01*
X115861Y30757D02*
Y30857D01*
X115811Y29154D02*
X115911D01*
X115861Y29104D02*
Y29204D01*
X115811Y27500D02*
X115911D01*
X115861Y27450D02*
Y27550D01*
X41288Y46100D02*
X41388D01*
X41338Y46050D02*
Y46150D01*
X86383Y50510D02*
X86483D01*
X86433Y50460D02*
Y50560D01*
X25828Y36112D02*
X25928D01*
X25878Y36062D02*
Y36162D01*
X28280Y34815D02*
X28380D01*
X28330Y34765D02*
Y34865D01*
X22371Y36182D02*
X22471D01*
X22421Y36132D02*
Y36232D01*
X23437Y36189D02*
X23537D01*
X23487Y36139D02*
Y36239D01*
X22236Y35846D02*
X22336D01*
X22286Y35796D02*
Y35896D01*
X22552Y35568D02*
X22652D01*
X22602Y35518D02*
Y35618D01*
X22899Y35568D02*
X22999D01*
X22949Y35518D02*
Y35618D01*
X23328Y36942D02*
X23428D01*
X23378Y36892D02*
Y36992D01*
X22902Y36582D02*
X23002D01*
X22952Y36532D02*
Y36632D01*
X67796Y37431D02*
X67896D01*
X67846Y37381D02*
Y37481D01*
X95033Y52258D02*
X95133D01*
X95083Y52208D02*
Y52308D01*
X94034Y51095D02*
X94134D01*
X94084Y51045D02*
Y51145D01*
X97148Y59534D02*
X97248D01*
X97198Y59484D02*
Y59584D01*
X96750Y59529D02*
X96850D01*
X96800Y59479D02*
Y59579D01*
X93848Y59429D02*
X93948D01*
X93898Y59379D02*
Y59479D01*
X94337Y59429D02*
X94437D01*
X94387Y59379D02*
Y59479D01*
X93592Y51514D02*
X93692D01*
X93642Y51464D02*
Y51564D01*
X93993Y51872D02*
X94093D01*
X94043Y51822D02*
Y51922D01*
X108950Y5202D02*
X109050D01*
X109000Y5152D02*
Y5252D01*
X68404Y63508D02*
X68504D01*
X68454Y63458D02*
Y63558D01*
X68069Y63508D02*
X68169D01*
X68119Y63458D02*
Y63558D01*
X97442Y60209D02*
X97542D01*
X97492Y60159D02*
Y60259D01*
X98190Y60602D02*
X98290D01*
X98240Y60552D02*
Y60652D01*
X97690Y61007D02*
X97790D01*
X97740Y60957D02*
Y61057D01*
X94732Y59583D02*
X94832D01*
X94782Y59533D02*
Y59633D01*
X94476Y60471D02*
X94576D01*
X94526Y60421D02*
Y60521D01*
X93862Y62117D02*
X93962D01*
X93912Y62067D02*
Y62167D01*
X93536Y61757D02*
X93636D01*
X93586Y61707D02*
Y61807D01*
X95633Y61757D02*
X95733D01*
X95683Y61707D02*
Y61807D01*
X118330Y43075D02*
X118430D01*
X118380Y43025D02*
Y43125D01*
X118330Y43390D02*
X118430D01*
X118380Y43340D02*
Y43440D01*
X114221Y43232D02*
X114321D01*
X114271Y43182D02*
Y43282D01*
X51529Y51275D02*
X51629D01*
X51579Y51225D02*
Y51325D01*
X35100Y27919D02*
X35200D01*
X35150Y27869D02*
Y27969D01*
X71269Y16476D02*
X71369D01*
X71319Y16426D02*
Y16526D01*
X110270Y12812D02*
X110370D01*
X110320Y12762D02*
Y12862D01*
X107950Y19171D02*
X108050D01*
X108000Y19121D02*
Y19221D01*
X97128Y23148D02*
X97228D01*
X97178Y23098D02*
Y23198D01*
X97128Y23542D02*
X97228D01*
X97178Y23492D02*
Y23592D01*
X98900Y19666D02*
X99000D01*
X98950Y19616D02*
Y19716D01*
X97400Y19666D02*
X97500D01*
X97450Y19616D02*
Y19716D01*
X96622Y19141D02*
X96722D01*
X96672Y19091D02*
Y19191D01*
X98350Y17120D02*
X98450D01*
X98400Y17070D02*
Y17170D01*
X99360Y50142D02*
X99460D01*
X99410Y50092D02*
Y50192D01*
X95111Y34744D02*
X95211D01*
X95161Y34694D02*
Y34794D01*
X110800Y63365D02*
X110900D01*
X110850Y63315D02*
Y63415D01*
X73842Y60179D02*
X73942D01*
X73892Y60129D02*
Y60229D01*
X74204Y60179D02*
X74304D01*
X74254Y60129D02*
Y60229D01*
X110002Y58534D02*
X110082D01*
X110042Y58494D02*
Y58574D01*
X109114Y58534D02*
X109194D01*
X109154Y58494D02*
Y58574D01*
X107365Y58534D02*
X107445D01*
X107405Y58494D02*
Y58574D01*
X110238Y58697D02*
X110318D01*
X110278Y58657D02*
Y58737D01*
X110238Y59128D02*
X110318D01*
X110278Y59088D02*
Y59168D01*
X72897Y59702D02*
X72997D01*
X72947Y59652D02*
Y59752D01*
X73259Y59702D02*
X73359D01*
X73309Y59652D02*
Y59752D01*
X90130Y58000D02*
X90230D01*
X90180Y57950D02*
Y58050D01*
X72188Y59898D02*
X72288D01*
X72238Y59848D02*
Y59948D01*
X72551Y59898D02*
X72651D01*
X72601Y59848D02*
Y59948D01*
X110002Y56790D02*
X110082D01*
X110042Y56750D02*
Y56830D01*
X109114Y57116D02*
X109194D01*
X109154Y57076D02*
Y57156D01*
X107365Y57116D02*
X107445D01*
X107405Y57076D02*
Y57156D01*
X110238Y56953D02*
X110318D01*
X110278Y56913D02*
Y56993D01*
X110238Y57403D02*
X110318D01*
X110278Y57363D02*
Y57443D01*
X71782Y59696D02*
X71882D01*
X71832Y59646D02*
Y59746D01*
X71243Y60181D02*
X71343D01*
X71293Y60131D02*
Y60231D01*
X71606Y60181D02*
X71706D01*
X71656Y60131D02*
Y60231D01*
X72724Y60283D02*
X72824D01*
X72774Y60233D02*
Y60333D01*
X74496Y59933D02*
X74596D01*
X74546Y59883D02*
Y59983D01*
X110002Y56389D02*
X110082D01*
X110042Y56349D02*
Y56429D01*
X49744Y47385D02*
X49844D01*
X49794Y47335D02*
Y47435D01*
X45836Y45825D02*
X45936D01*
X45886Y45775D02*
Y45875D01*
X43373Y43474D02*
X43473D01*
X43423Y43424D02*
Y43524D01*
X44782Y46525D02*
X44882D01*
X44832Y46475D02*
Y46575D01*
X49776Y43140D02*
X49876D01*
X49826Y43090D02*
Y43190D01*
X97129Y4642D02*
X97229D01*
X97179Y4592D02*
Y4692D01*
X38560Y6071D02*
X38660D01*
X38610Y6021D02*
Y6121D01*
X52980Y9200D02*
X53080D01*
X53030Y9150D02*
Y9250D01*
X52160Y8870D02*
X52260D01*
X52210Y8820D02*
Y8920D01*
X51900Y5300D02*
X52000D01*
X51950Y5250D02*
Y5350D01*
X51060Y6071D02*
X51160D01*
X51110Y6021D02*
Y6121D01*
X82091Y7505D02*
X82191D01*
X82141Y7455D02*
Y7555D01*
X82638Y6080D02*
X82738D01*
X82688Y6030D02*
Y6130D01*
X81450Y8930D02*
X81550D01*
X81500Y8880D02*
Y8980D01*
X82091Y8605D02*
X82191D01*
X82141Y8555D02*
Y8655D01*
X82638Y6732D02*
X82738D01*
X82688Y6682D02*
Y6782D01*
X82638Y5130D02*
X82738D01*
X82688Y5080D02*
Y5180D01*
X82638Y4478D02*
X82738D01*
X82688Y4428D02*
Y4528D01*
X68988Y6732D02*
X69088D01*
X69038Y6682D02*
Y6782D01*
X68988Y6080D02*
X69088D01*
X69038Y6030D02*
Y6130D01*
X68441Y7505D02*
X68541D01*
X68491Y7455D02*
Y7555D01*
X66491Y7505D02*
X66591D01*
X66541Y7455D02*
Y7555D01*
X67038Y6080D02*
X67138D01*
X67088Y6030D02*
Y6130D01*
X67038Y6732D02*
X67138D01*
X67088Y6682D02*
Y6782D01*
X74838Y6080D02*
X74938D01*
X74888Y6030D02*
Y6130D01*
X70938Y6080D02*
X71038D01*
X70988Y6030D02*
Y6130D01*
X70938Y6732D02*
X71038D01*
X70988Y6682D02*
Y6782D01*
X72888Y6732D02*
X72988D01*
X72938Y6682D02*
Y6782D01*
X72888Y6080D02*
X72988D01*
X72938Y6030D02*
Y6130D01*
X74838Y6732D02*
X74938D01*
X74888Y6682D02*
Y6782D01*
X67038Y5130D02*
X67138D01*
X67088Y5080D02*
Y5180D01*
X72888Y5130D02*
X72988D01*
X72938Y5080D02*
Y5180D01*
X74291Y7505D02*
X74391D01*
X74341Y7455D02*
Y7555D01*
X70391Y7505D02*
X70491D01*
X70441Y7455D02*
Y7555D01*
X72341Y7505D02*
X72441D01*
X72391Y7455D02*
Y7555D01*
X74838Y5130D02*
X74938D01*
X74888Y5080D02*
Y5180D01*
X70938Y5130D02*
X71038D01*
X70988Y5080D02*
Y5180D01*
X68988Y5130D02*
X69088D01*
X69038Y5080D02*
Y5180D01*
X76788Y6732D02*
X76888D01*
X76838Y6682D02*
Y6782D01*
X78738Y5130D02*
X78838D01*
X78788Y5080D02*
Y5180D01*
X78738Y4478D02*
X78838D01*
X78788Y4428D02*
Y4528D01*
X76788Y6080D02*
X76888D01*
X76838Y6030D02*
Y6130D01*
X78738Y6732D02*
X78838D01*
X78788Y6682D02*
Y6782D01*
X78738Y6080D02*
X78838D01*
X78788Y6030D02*
Y6130D01*
X76788Y5130D02*
X76888D01*
X76838Y5080D02*
Y5180D01*
X76241Y7505D02*
X76341D01*
X76291Y7455D02*
Y7555D01*
X80688Y6732D02*
X80788D01*
X80738Y6682D02*
Y6782D01*
X80688Y6080D02*
X80788D01*
X80738Y6030D02*
Y6130D01*
X80688Y5130D02*
X80788D01*
X80738Y5080D02*
Y5180D01*
X80141Y7505D02*
X80241D01*
X80191Y7455D02*
Y7555D01*
X78191Y7505D02*
X78291D01*
X78241Y7455D02*
Y7555D01*
X74838Y4478D02*
X74938D01*
X74888Y4428D02*
Y4528D01*
X76788Y4478D02*
X76888D01*
X76838Y4428D02*
Y4528D01*
X68988Y4478D02*
X69088D01*
X69038Y4428D02*
Y4528D01*
X67038Y4478D02*
X67138D01*
X67088Y4428D02*
Y4528D01*
X70938Y4478D02*
X71038D01*
X70988Y4428D02*
Y4528D01*
X72888Y4478D02*
X72988D01*
X72938Y4428D02*
Y4528D01*
X80688Y4478D02*
X80788D01*
X80738Y4428D02*
Y4528D01*
X72341Y8605D02*
X72441D01*
X72391Y8555D02*
Y8655D01*
X71700Y8930D02*
X71800D01*
X71750Y8880D02*
Y8980D01*
X70391Y8605D02*
X70491D01*
X70441Y8555D02*
Y8655D01*
X74291Y8605D02*
X74391D01*
X74341Y8555D02*
Y8655D01*
X67800Y8930D02*
X67900D01*
X67850Y8880D02*
Y8980D01*
X69750Y8930D02*
X69850D01*
X69800Y8880D02*
Y8980D01*
X65850Y8930D02*
X65950D01*
X65900Y8880D02*
Y8980D01*
X66491Y8605D02*
X66591D01*
X66541Y8555D02*
Y8655D01*
X68441Y8605D02*
X68541D01*
X68491Y8555D02*
Y8655D01*
X78191Y8605D02*
X78291D01*
X78241Y8555D02*
Y8655D01*
X77550Y8930D02*
X77650D01*
X77600Y8880D02*
Y8980D01*
X75600Y8930D02*
X75700D01*
X75650Y8880D02*
Y8980D01*
X73650Y8930D02*
X73750D01*
X73700Y8880D02*
Y8980D01*
X76241Y8605D02*
X76341D01*
X76291Y8555D02*
Y8655D01*
X80141Y8605D02*
X80241D01*
X80191Y8555D02*
Y8655D01*
X79500Y8930D02*
X79600D01*
X79550Y8880D02*
Y8980D01*
X97623Y7107D02*
X97723D01*
X97673Y7057D02*
Y7157D01*
X97154Y7107D02*
X97254D01*
X97204Y7057D02*
Y7157D01*
X99466Y3964D02*
X99566D01*
X99516Y3914D02*
Y4014D01*
X101416Y5771D02*
X101516D01*
X101466Y5721D02*
Y5821D01*
X101937Y4541D02*
X102037D01*
X101987Y4491D02*
Y4591D01*
X101937Y5771D02*
X102037D01*
X101987Y5721D02*
Y5821D01*
X101937Y4072D02*
X102037D01*
X101987Y4022D02*
Y4122D01*
X101937Y5187D02*
X102037D01*
X101987Y5137D02*
Y5237D01*
X101719Y3287D02*
X101819D01*
X101769Y3237D02*
Y3337D01*
X40100Y51185D02*
X40200D01*
X40150Y51135D02*
Y51235D01*
X51940Y59623D02*
X52040D01*
X51990Y59573D02*
Y59673D01*
X41500Y52059D02*
X41600D01*
X41550Y52009D02*
Y52109D01*
X40100Y50439D02*
X40200D01*
X40150Y50389D02*
Y50489D01*
X50649Y56086D02*
X50749D01*
X50699Y56036D02*
Y56136D01*
X17706Y27586D02*
X17806D01*
X17756Y27536D02*
Y27636D01*
X31288Y27570D02*
X31388D01*
X31338Y27520D02*
Y27620D01*
X32010Y27590D02*
X32110D01*
X32060Y27540D02*
Y27640D01*
X26858Y25150D02*
X26958D01*
X26908Y25100D02*
Y25200D01*
X28100Y25925D02*
X28200D01*
X28150Y25875D02*
Y25975D01*
X25324Y40493D02*
X25424D01*
X25374Y40443D02*
Y40543D01*
X26223Y40493D02*
X26323D01*
X26273Y40443D02*
Y40543D01*
X24874Y40493D02*
X24974D01*
X24924Y40443D02*
Y40543D01*
X24425Y40493D02*
X24525D01*
X24475Y40443D02*
Y40543D01*
X28923Y25484D02*
X29023D01*
X28973Y25434D02*
Y25534D01*
X28534Y25693D02*
X28634D01*
X28584Y25643D02*
Y25743D01*
X28921Y25894D02*
X29021D01*
X28971Y25844D02*
Y25944D01*
X29457Y26045D02*
X29557D01*
X29507Y25995D02*
Y26095D01*
X29870Y26400D02*
X29970D01*
X29920Y26350D02*
Y26450D01*
X42218Y47925D02*
X42318D01*
X42268Y47875D02*
Y47975D01*
X36450Y26253D02*
X36550D01*
X36500Y26203D02*
Y26303D01*
X62331Y59623D02*
X62431D01*
X62381Y59573D02*
Y59673D01*
X37446Y25587D02*
X37546D01*
X37496Y25537D02*
Y25637D01*
X62095Y59938D02*
X62195D01*
X62145Y59888D02*
Y59988D01*
X62567Y61475D02*
X62667D01*
X62617Y61425D02*
Y61525D01*
X62803Y59938D02*
X62903D01*
X62853Y59888D02*
Y59988D01*
X63040Y59626D02*
X63140D01*
X63090Y59576D02*
Y59676D01*
X58611Y51829D02*
X58712D01*
X58661Y51779D02*
Y51879D01*
X58471Y52269D02*
X58572D01*
X58521Y52219D02*
Y52319D01*
X59941Y52181D02*
X60041D01*
X59991Y52131D02*
Y52231D01*
X59945Y51779D02*
X60045D01*
X59995Y51729D02*
Y51829D01*
X60354Y52181D02*
X60454D01*
X60404Y52131D02*
Y52231D01*
X60354Y51779D02*
X60454D01*
X60404Y51729D02*
Y51829D01*
X64865Y59687D02*
X64965D01*
X64915Y59637D02*
Y59737D01*
X55371Y53425D02*
X55471D01*
X55421Y53375D02*
Y53475D01*
X55800Y53844D02*
X55900D01*
X55850Y53794D02*
Y53894D01*
X53407Y53425D02*
X53507D01*
X53457Y53375D02*
Y53475D01*
X53000Y53813D02*
X53100D01*
X53050Y53763D02*
Y53863D01*
X54400Y52400D02*
X54500D01*
X54450Y52350D02*
Y52450D01*
X54400Y52026D02*
X54500D01*
X54450Y51976D02*
Y52076D01*
X54400Y52774D02*
X54500D01*
X54450Y52724D02*
Y52824D01*
X55800Y50949D02*
X55900D01*
X55850Y50899D02*
Y50999D01*
X62550Y50766D02*
X62650D01*
X62600Y50716D02*
Y50816D01*
X62962Y50766D02*
X63062D01*
X63012Y50716D02*
Y50816D01*
X65452Y55034D02*
X65552D01*
X65502Y54984D02*
Y55084D01*
X65452Y54525D02*
X65552D01*
X65502Y54475D02*
Y54575D01*
X67851Y52642D02*
X67951D01*
X67901Y52592D02*
Y52692D01*
X66971Y53732D02*
X67071D01*
X67021Y53682D02*
Y53782D01*
X66607Y54525D02*
X66707D01*
X66657Y54475D02*
Y54575D01*
X66607Y55034D02*
X66707D01*
X66657Y54984D02*
Y55084D01*
X65451Y52271D02*
X65551D01*
X65501Y52221D02*
Y52321D01*
X65451Y52725D02*
X65551D01*
X65501Y52675D02*
Y52775D01*
X65451Y53182D02*
X65551D01*
X65501Y53132D02*
Y53232D01*
X65845Y52271D02*
X65945D01*
X65895Y52221D02*
Y52321D01*
X65845Y52725D02*
X65945D01*
X65895Y52675D02*
Y52775D01*
X65845Y53182D02*
X65945D01*
X65895Y53132D02*
Y53232D01*
X63902Y52725D02*
X64002D01*
X63952Y52675D02*
Y52775D01*
X62010Y53325D02*
X62110D01*
X62060Y53275D02*
Y53375D01*
X62550Y52812D02*
X62650D01*
X62600Y52762D02*
Y52862D01*
X62010Y52812D02*
X62110D01*
X62060Y52762D02*
Y52862D01*
X61547Y52812D02*
X61647D01*
X61597Y52762D02*
Y52862D01*
X61547Y53325D02*
X61647D01*
X61597Y53275D02*
Y53375D01*
X61084Y52812D02*
X61184D01*
X61134Y52762D02*
Y52862D01*
X61084Y53325D02*
X61184D01*
X61134Y53275D02*
Y53375D01*
X62174Y53900D02*
X62274D01*
X62224Y53850D02*
Y53950D01*
X62419Y54525D02*
X62519D01*
X62469Y54475D02*
Y54575D01*
X60767Y52181D02*
X60867D01*
X60817Y52131D02*
Y52231D01*
X60767Y51779D02*
X60867D01*
X60817Y51729D02*
Y51829D01*
X58191Y51929D02*
X58292D01*
X58242Y51879D02*
Y51979D01*
X58042Y52309D02*
X58141D01*
X58092Y52259D02*
Y52359D01*
X57819Y52639D02*
X57919D01*
X57869Y52589D02*
Y52689D01*
X58252Y52639D02*
X58351D01*
X58302Y52589D02*
Y52689D01*
X51760Y53939D02*
X51860D01*
X51810Y53889D02*
Y53989D01*
X52163Y53528D02*
X52263D01*
X52213Y53478D02*
Y53578D01*
X51760Y53528D02*
X51860D01*
X51810Y53478D02*
Y53578D01*
X52163Y53941D02*
X52263D01*
X52213Y53891D02*
Y53991D01*
X52163Y54354D02*
X52263D01*
X52213Y54304D02*
Y54404D01*
X51760Y54350D02*
X51860D01*
X51810Y54300D02*
Y54400D01*
X45346Y49052D02*
X45446D01*
X45396Y49002D02*
Y49102D01*
X46414Y49638D02*
X46514D01*
X46464Y49588D02*
Y49688D01*
X46365Y50233D02*
X46465D01*
X46415Y50183D02*
Y50283D01*
X44901Y50430D02*
X45001D01*
X44951Y50380D02*
Y50480D01*
X45615Y50695D02*
X45715D01*
X45665Y50645D02*
Y50745D01*
X44706Y51004D02*
X44806D01*
X44756Y50954D02*
Y51054D01*
X54297Y46100D02*
X54397D01*
X54347Y46050D02*
Y46150D01*
X56195Y46557D02*
X56295D01*
X56245Y46507D02*
Y46607D01*
X56195Y46100D02*
X56295D01*
X56245Y46050D02*
Y46150D01*
X56195Y45646D02*
X56295D01*
X56245Y45596D02*
Y45696D01*
X55801Y45646D02*
X55901D01*
X55851Y45596D02*
Y45696D01*
X55801Y46557D02*
X55901D01*
X55851Y46507D02*
Y46607D01*
X55801Y46100D02*
X55901D01*
X55851Y46050D02*
Y46150D01*
X49466Y45457D02*
X49566D01*
X49516Y45407D02*
Y45507D01*
X49466Y45878D02*
X49566D01*
X49516Y45828D02*
Y45928D01*
X49840Y45457D02*
X49940D01*
X49890Y45407D02*
Y45507D01*
X49840Y45878D02*
X49940D01*
X49890Y45828D02*
Y45928D01*
X51064Y45457D02*
X51164D01*
X51114Y45407D02*
Y45507D01*
X51064Y45878D02*
X51164D01*
X51114Y45828D02*
Y45928D01*
X52082Y46473D02*
X52182D01*
X52132Y46423D02*
Y46523D01*
X52082Y46894D02*
X52182D01*
X52132Y46844D02*
Y46944D01*
X51702Y46473D02*
X51802D01*
X51752Y46423D02*
Y46523D01*
X51322Y46473D02*
X51422D01*
X51372Y46423D02*
Y46523D01*
X51702Y46894D02*
X51802D01*
X51752Y46844D02*
Y46944D01*
X51322Y46894D02*
X51422D01*
X51372Y46844D02*
Y46944D01*
X54186Y48429D02*
X54286D01*
X54236Y48379D02*
Y48479D01*
X54479Y48100D02*
X54579D01*
X54529Y48050D02*
Y48150D01*
X52571Y47375D02*
X52671D01*
X52621Y47325D02*
Y47425D01*
X52900Y47667D02*
X53000D01*
X52950Y47617D02*
Y47717D01*
X52900Y43950D02*
X53000D01*
X52950Y43900D02*
Y44000D01*
X35916Y50256D02*
X36016D01*
X35966Y50206D02*
Y50306D01*
X35911Y50659D02*
X36011D01*
X35961Y50609D02*
Y50709D01*
X36324Y50659D02*
X36424D01*
X36374Y50609D02*
Y50709D01*
X36737Y50256D02*
X36837D01*
X36787Y50206D02*
Y50306D01*
X36737Y50659D02*
X36837D01*
X36787Y50609D02*
Y50709D01*
X36326Y50256D02*
X36426D01*
X36376Y50206D02*
Y50306D01*
X37900Y51825D02*
X38000D01*
X37950Y51775D02*
Y51875D01*
X43115Y50400D02*
X43215D01*
X43165Y50350D02*
Y50450D01*
X43960Y51475D02*
X44060D01*
X44010Y51425D02*
Y51525D01*
X45578Y51475D02*
X45678D01*
X45628Y51425D02*
Y51525D01*
X46592Y51321D02*
X46692D01*
X46642Y51271D02*
Y51371D01*
X39305Y46554D02*
X39405D01*
X39355Y46504D02*
Y46604D01*
X39699Y46554D02*
X39799D01*
X39749Y46504D02*
Y46604D01*
X39699Y45643D02*
X39799D01*
X39749Y45593D02*
Y45693D01*
X39305Y45643D02*
X39405D01*
X39355Y45593D02*
Y45693D01*
X39305Y46100D02*
X39405D01*
X39355Y46050D02*
Y46150D01*
X39699Y46100D02*
X39799D01*
X39749Y46050D02*
Y46150D01*
X40971Y44296D02*
X41071D01*
X41021Y44246D02*
Y44346D01*
X41269Y43971D02*
X41369D01*
X41319Y43921D02*
Y44021D01*
X42984Y47925D02*
X43084D01*
X43034Y47875D02*
Y47975D01*
X44526Y47202D02*
X44626D01*
X44576Y47152D02*
Y47252D01*
X44526Y46782D02*
X44626D01*
X44576Y46732D02*
Y46832D01*
X44359Y46233D02*
X44459D01*
X44409Y46183D02*
Y46283D01*
X43350Y46233D02*
X43450D01*
X43400Y46183D02*
Y46283D01*
X43854Y46233D02*
X43954D01*
X43904Y46183D02*
Y46283D01*
X42929Y44880D02*
X43029D01*
X42979Y44830D02*
Y44930D01*
X42604Y44583D02*
X42704D01*
X42654Y44533D02*
Y44633D01*
X43042Y45274D02*
X43142D01*
X43092Y45224D02*
Y45324D01*
X43042Y45645D02*
X43142D01*
X43092Y45595D02*
Y45695D01*
X44926Y48353D02*
X45026D01*
X44976Y48303D02*
Y48403D01*
X46438Y48353D02*
X46538D01*
X46488Y48303D02*
Y48403D01*
X46500Y47878D02*
X46600D01*
X46550Y47828D02*
Y47928D01*
X48250Y46429D02*
X48350D01*
X48300Y46379D02*
Y46479D01*
X48950Y46429D02*
X49050D01*
X49000Y46379D02*
Y46479D01*
X48950Y47819D02*
X49050D01*
X49000Y47769D02*
Y47869D01*
X50488Y48250D02*
X50588D01*
X50538Y48200D02*
Y48300D01*
X49045Y48250D02*
X49145D01*
X49095Y48200D02*
Y48300D01*
X50535Y49250D02*
X50635D01*
X50585Y49200D02*
Y49300D01*
X50914Y49250D02*
X51014D01*
X50964Y49200D02*
Y49300D01*
X49045Y49250D02*
X49145D01*
X49095Y49200D02*
Y49300D01*
X49045Y49850D02*
X49145D01*
X49095Y49800D02*
Y49900D01*
X65000Y37190D02*
X65100D01*
X65050Y37140D02*
Y37240D01*
X65236Y30619D02*
X65336D01*
X65286Y30569D02*
Y30669D01*
X63512Y60139D02*
X63612D01*
X63562Y60089D02*
Y60189D01*
X63877Y59927D02*
X63977D01*
X63927Y59877D02*
Y59977D01*
X64693Y59938D02*
X64793D01*
X64743Y59888D02*
Y59988D01*
X65638Y60234D02*
X65738D01*
X65688Y60184D02*
Y60284D01*
X65402Y59956D02*
X65502D01*
X65452Y59906D02*
Y60006D01*
X64404Y60282D02*
X64504D01*
X64454Y60232D02*
Y60332D01*
X65165Y60285D02*
X65265D01*
X65215Y60235D02*
Y60335D01*
X36851Y26914D02*
X36951D01*
X36901Y26864D02*
Y26964D01*
X34620Y26747D02*
X34720D01*
X34670Y26697D02*
Y26797D01*
X32976Y25378D02*
X33076D01*
X33026Y25328D02*
Y25428D01*
X32976Y24819D02*
X33076D01*
X33026Y24769D02*
Y24869D01*
X32976Y24268D02*
X33076D01*
X33026Y24218D02*
Y24318D01*
X33554Y26882D02*
X33654D01*
X33604Y26832D02*
Y26932D01*
X33825Y26592D02*
X33925D01*
X33875Y26542D02*
Y26642D01*
X34137Y25645D02*
X34237D01*
X34187Y25595D02*
Y25695D01*
X34685Y25681D02*
X34785D01*
X34735Y25631D02*
Y25731D01*
X34604Y25169D02*
X34704D01*
X34654Y25119D02*
Y25219D01*
X34900Y25448D02*
X35000D01*
X34950Y25398D02*
Y25498D01*
X36913Y25175D02*
X37013D01*
X36963Y25125D02*
Y25225D01*
X36998Y25760D02*
X37098D01*
X37048Y25710D02*
Y25810D01*
X36781Y24268D02*
X36881D01*
X36831Y24218D02*
Y24318D01*
X34677Y24429D02*
X34777D01*
X34727Y24379D02*
Y24479D01*
X36397Y24425D02*
X36497D01*
X36447Y24375D02*
Y24475D01*
X34814Y23891D02*
X34914D01*
X34864Y23841D02*
Y23941D01*
X36481Y23484D02*
X36581D01*
X36532Y23434D02*
Y23534D01*
X34127Y23776D02*
X34227D01*
X34177Y23726D02*
Y23826D01*
X44498Y25634D02*
X44598D01*
X44548Y25584D02*
Y25684D01*
X12913Y7400D02*
X13013D01*
X12963Y7350D02*
Y7450D01*
X12913Y8250D02*
X13013D01*
X12963Y8200D02*
Y8300D01*
X20796Y13200D02*
X20896D01*
X20846Y13150D02*
Y13250D01*
X46000Y25000D02*
X46100D01*
X46050Y24950D02*
Y25050D01*
X64104Y31400D02*
X64204D01*
X64154Y31350D02*
Y31450D01*
X64104Y31900D02*
X64204D01*
X64154Y31850D02*
Y31950D01*
X21950Y7740D02*
X22050D01*
X22000Y7690D02*
Y7790D01*
X19163Y7400D02*
X19263D01*
X19213Y7350D02*
Y7450D01*
X44350Y22350D02*
X44450D01*
X44400Y22300D02*
Y22400D01*
X45989Y22429D02*
X46089D01*
X46039Y22379D02*
Y22479D01*
X27046Y13200D02*
X27146D01*
X27096Y13150D02*
Y13250D01*
X36040Y13400D02*
X36140D01*
X36090Y13350D02*
Y13450D01*
X38713Y18096D02*
X38813D01*
X38763Y18046D02*
Y18146D01*
X39064Y19473D02*
X39164D01*
X39114Y19423D02*
Y19523D01*
X46000Y23690D02*
X46100D01*
X46050Y23640D02*
Y23740D01*
X47600Y5835D02*
X47700D01*
X47650Y5785D02*
Y5885D01*
X68450Y28686D02*
X68550D01*
X68500Y28636D02*
Y28736D01*
X59318Y18675D02*
X59418D01*
X59368Y18625D02*
Y18725D01*
X67950Y28686D02*
X68050D01*
X68000Y28636D02*
Y28736D01*
X66950Y28686D02*
X67050D01*
X67000Y28636D02*
Y28736D01*
X67450Y28686D02*
X67550D01*
X67500Y28636D02*
Y28736D01*
X36050Y8729D02*
X36150D01*
X36100Y8679D02*
Y8779D01*
X48600Y19803D02*
X48700D01*
X48650Y19753D02*
Y19853D01*
X46250Y46925D02*
X46350D01*
X46300Y46875D02*
Y46975D01*
X43532Y45645D02*
X43632D01*
X43582Y45595D02*
Y45695D01*
X44023Y45645D02*
X44123D01*
X44073Y45595D02*
Y45695D01*
X43532Y45274D02*
X43632D01*
X43582Y45224D02*
Y45324D01*
X44023Y45274D02*
X44123D01*
X44073Y45224D02*
Y45324D01*
X25266Y8850D02*
X25366D01*
X25316Y8800D02*
Y8900D01*
X44016Y8850D02*
X44116D01*
X44066Y8800D02*
Y8900D01*
X21207Y28121D02*
X21307D01*
X21257Y28071D02*
Y28171D01*
X19821Y26161D02*
X19921D01*
X19871Y26111D02*
Y26211D01*
X21847Y26886D02*
X21947D01*
X21897Y26836D02*
Y26936D01*
X19478Y25486D02*
X19578D01*
X19528Y25436D02*
Y25536D01*
X22927Y33107D02*
X23027D01*
X22977Y33057D02*
Y33157D01*
X19759Y32298D02*
X19859D01*
X19809Y32248D02*
Y32348D01*
X20518Y32383D02*
X20618D01*
X20568Y32333D02*
Y32433D01*
X19759Y32665D02*
X19859D01*
X19809Y32615D02*
Y32715D01*
X22927Y32663D02*
X23027D01*
X22977Y32613D02*
Y32713D01*
X19700Y31891D02*
X19800D01*
X19750Y31841D02*
Y31941D01*
X15817Y27129D02*
X15917D01*
X15867Y27079D02*
Y27179D01*
X16286Y28040D02*
X16386D01*
X16336Y27990D02*
Y28090D01*
X16286Y27129D02*
X16386D01*
X16336Y27079D02*
Y27179D01*
X16286Y27586D02*
X16386D01*
X16336Y27536D02*
Y27636D01*
X15817Y28040D02*
X15917D01*
X15867Y27990D02*
Y28090D01*
X15817Y27586D02*
X15917D01*
X15867Y27536D02*
Y27636D01*
X39710Y16950D02*
X39810D01*
X39760Y16900D02*
Y17000D01*
X45140Y16875D02*
X45240D01*
X45190Y16825D02*
Y16925D01*
X44574Y16875D02*
X44674D01*
X44624Y16825D02*
Y16925D01*
X51468Y60269D02*
X51568D01*
X51518Y60219D02*
Y60319D01*
X50401Y61732D02*
X50501D01*
X50451Y61682D02*
Y61782D01*
X20250Y59884D02*
X20350D01*
X20300Y59834D02*
Y59934D01*
X15355Y59478D02*
X15455D01*
X15405Y59428D02*
Y59528D01*
X16639Y58839D02*
X16739D01*
X16689Y58789D02*
Y58889D01*
X12800Y59628D02*
X12900D01*
X12850Y59578D02*
Y59678D01*
X12300Y60590D02*
X12400D01*
X12350Y60540D02*
Y60640D01*
X11597Y60800D02*
X11697D01*
X11647Y60750D02*
Y60850D01*
X9189Y58839D02*
X9289D01*
X9239Y58789D02*
Y58889D01*
X8676Y60300D02*
X8776D01*
X8726Y60250D02*
Y60350D01*
X7905Y59478D02*
X8005D01*
X7955Y59428D02*
Y59528D01*
X22550Y63270D02*
X22650D01*
X22600Y63220D02*
Y63320D01*
X20872Y65820D02*
X20972D01*
X20922Y65770D02*
Y65870D01*
X20130Y64731D02*
X20230D01*
X20180Y64681D02*
Y64781D01*
X19976Y62902D02*
X20076D01*
X20026Y62852D02*
Y62952D01*
X21384Y63270D02*
X21484D01*
X21434Y63220D02*
Y63320D01*
X20872Y62902D02*
X20972D01*
X20922Y62852D02*
Y62952D01*
X14922Y62902D02*
X15022D01*
X14972Y62852D02*
Y62952D01*
X15434Y63270D02*
X15534D01*
X15484Y63220D02*
Y63320D01*
X14026Y62902D02*
X14126D01*
X14076Y62852D02*
Y62952D01*
X14180Y64731D02*
X14280D01*
X14230Y64681D02*
Y64781D01*
X16550Y65610D02*
X16650D01*
X16600Y65560D02*
Y65660D01*
X14922Y65820D02*
X15022D01*
X14972Y65770D02*
Y65870D01*
X16600Y63270D02*
X16700D01*
X16650Y63220D02*
Y63320D01*
X100854Y65691D02*
X100954D01*
X100904Y65641D02*
Y65741D01*
X101406Y64906D02*
X101506D01*
X101456Y64856D02*
Y64956D01*
X101406Y65694D02*
X101506D01*
X101456Y65644D02*
Y65744D01*
X100900Y63030D02*
X101000D01*
X100950Y62980D02*
Y63080D01*
X101340Y63030D02*
X101440D01*
X101390Y62980D02*
Y63080D01*
X102200Y64350D02*
X102300D01*
X102250Y64300D02*
Y64400D01*
X104574Y67784D02*
X104674D01*
X104624Y67734D02*
Y67834D01*
X102093Y67400D02*
X102193D01*
X102143Y67350D02*
Y67450D01*
X103201Y66978D02*
X103301D01*
X103251Y66928D02*
Y67028D01*
X101930Y66850D02*
X102030D01*
X101980Y66800D02*
Y66900D01*
X102174Y65313D02*
X102274D01*
X102224Y65263D02*
Y65363D01*
X102611Y64679D02*
X102711D01*
X102661Y64629D02*
Y64729D01*
X103600Y63225D02*
X103700D01*
X103650Y63175D02*
Y63275D01*
X103929Y63627D02*
X104029D01*
X103979Y63577D02*
Y63677D01*
X103929Y63973D02*
X104029D01*
X103979Y63923D02*
Y64023D01*
X103170Y64608D02*
X103270D01*
X103220Y64558D02*
Y64658D01*
X105319Y64797D02*
X105419D01*
X105369Y64747D02*
Y64847D01*
X10150Y47147D02*
X10250D01*
X10200Y47097D02*
Y47197D01*
X9068Y39250D02*
X9168D01*
X9118Y39200D02*
Y39300D01*
X8600Y39250D02*
X8700D01*
X8650Y39200D02*
Y39300D01*
X8600Y38793D02*
X8700D01*
X8650Y38743D02*
Y38843D01*
X8600Y39704D02*
X8700D01*
X8650Y39654D02*
Y39754D01*
X9068Y38793D02*
X9168D01*
X9118Y38743D02*
Y38843D01*
X9068Y39704D02*
X9168D01*
X9118Y39654D02*
Y39754D01*
X12371Y41275D02*
X12471D01*
X12421Y41225D02*
Y41325D01*
X12050Y41568D02*
X12150D01*
X12100Y41518D02*
Y41618D01*
X13200Y39700D02*
X13300D01*
X13250Y39650D02*
Y39750D01*
X10665Y37037D02*
X10765D01*
X10715Y36987D02*
Y37087D01*
X10304Y37402D02*
X10404D01*
X10354Y37352D02*
Y37452D01*
X12050Y37704D02*
X12150D01*
X12100Y37654D02*
Y37754D01*
X12401Y38025D02*
X12501D01*
X12451Y37975D02*
Y38075D01*
X12806Y38450D02*
X12906D01*
X12856Y38400D02*
Y38500D01*
X26200Y34610D02*
X26300D01*
X26250Y34560D02*
Y34660D01*
X27200Y34470D02*
X27300D01*
X27250Y34420D02*
Y34520D01*
X26650Y34470D02*
X26750D01*
X26700Y34420D02*
Y34520D01*
X27800Y34382D02*
X27900D01*
X27850Y34332D02*
Y34432D01*
X34400Y34550D02*
X34500D01*
X34450Y34500D02*
Y34600D01*
X33850Y34550D02*
X33950D01*
X33900Y34500D02*
Y34600D01*
X34718Y32925D02*
X34818D01*
X34768Y32875D02*
Y32975D01*
X35000Y32632D02*
X35100D01*
X35050Y32582D02*
Y32682D01*
X34630Y36717D02*
X34730D01*
X34680Y36667D02*
Y36767D01*
X34630Y36187D02*
X34730D01*
X34680Y36137D02*
Y36237D01*
X38580Y35354D02*
X38680D01*
X38630Y35304D02*
Y35404D01*
X38580Y34443D02*
X38680D01*
X38630Y34393D02*
Y34493D01*
X38112Y35354D02*
X38212D01*
X38162Y35304D02*
Y35404D01*
X38112Y34443D02*
X38212D01*
X38162Y34393D02*
Y34493D01*
X38112Y34900D02*
X38212D01*
X38162Y34850D02*
Y34950D01*
X38580Y34900D02*
X38680D01*
X38630Y34850D02*
Y34950D01*
X36600Y34900D02*
X36700D01*
X36650Y34850D02*
Y34950D01*
X34300Y35700D02*
X34400D01*
X34350Y35650D02*
Y35750D01*
X50502Y30610D02*
X50602D01*
X50552Y30560D02*
Y30660D01*
X50497Y31003D02*
X50597D01*
X50547Y30953D02*
Y31053D01*
X49313Y30478D02*
X49413D01*
X49363Y30428D02*
Y30528D01*
X47280Y30262D02*
X47380D01*
X47330Y30212D02*
Y30312D01*
X47677Y30261D02*
X47777D01*
X47727Y30211D02*
Y30311D01*
X47280Y30723D02*
X47380D01*
X47330Y30673D02*
Y30773D01*
X47677Y30723D02*
X47777D01*
X47727Y30673D02*
Y30773D01*
X49722Y31003D02*
X49822D01*
X49772Y30953D02*
Y31053D01*
X29535Y17173D02*
X29635D01*
X29585Y17123D02*
Y17223D01*
X30275Y17482D02*
X30375D01*
X30325Y17432D02*
Y17532D01*
X30261Y17062D02*
X30361D01*
X30311Y17012D02*
Y17112D01*
X31070Y17490D02*
X31170D01*
X31120Y17440D02*
Y17540D01*
X31038Y17071D02*
X31138D01*
X31088Y17021D02*
Y17121D01*
X31803Y17507D02*
X31903D01*
X31853Y17457D02*
Y17557D01*
X31803Y17071D02*
X31903D01*
X31853Y17021D02*
Y17121D01*
X33292Y17499D02*
X33392D01*
X33342Y17449D02*
Y17549D01*
X34036Y17189D02*
X34136D01*
X34086Y17139D02*
Y17239D01*
X34750Y17191D02*
X34850D01*
X34800Y17141D02*
Y17241D01*
X34815Y19997D02*
X34915D01*
X34865Y19947D02*
Y20047D01*
X35516Y17430D02*
X35616D01*
X35566Y17380D02*
Y17480D01*
X44970Y18550D02*
X45070D01*
X45020Y18500D02*
Y18600D01*
X41304Y16950D02*
X41404D01*
X41354Y16900D02*
Y17000D01*
X38713Y18776D02*
X38813D01*
X38763Y18726D02*
Y18826D01*
X10766Y11450D02*
X10866D01*
X10816Y11400D02*
Y11500D01*
X10766Y11900D02*
X10866D01*
X10816Y11850D02*
Y11950D01*
X11040Y12550D02*
X11140D01*
X11090Y12500D02*
Y12600D01*
X11040Y13400D02*
X11140D01*
X11090Y13350D02*
Y13450D01*
X17016Y11450D02*
X17116D01*
X17066Y11400D02*
Y11500D01*
X17016Y11900D02*
X17116D01*
X17066Y11850D02*
Y11950D01*
X17290Y12550D02*
X17390D01*
X17340Y12500D02*
Y12600D01*
X17290Y13400D02*
X17390D01*
X17340Y13350D02*
Y13450D01*
X14546Y13200D02*
X14646D01*
X14596Y13150D02*
Y13250D01*
X23266Y11450D02*
X23366D01*
X23316Y11400D02*
Y11500D01*
X23266Y11900D02*
X23366D01*
X23316Y11850D02*
Y11950D01*
X23540Y12550D02*
X23640D01*
X23590Y12500D02*
Y12600D01*
X23540Y13400D02*
X23640D01*
X23590Y13350D02*
Y13450D01*
X29516Y11450D02*
X29616D01*
X29566Y11400D02*
Y11500D01*
X29516Y11900D02*
X29616D01*
X29566Y11850D02*
Y11950D01*
X29790Y12550D02*
X29890D01*
X29840Y12500D02*
Y12600D01*
X29790Y13400D02*
X29890D01*
X29840Y13350D02*
Y13450D01*
X35766Y11450D02*
X35866D01*
X35816Y11400D02*
Y11500D01*
X35766Y11900D02*
X35866D01*
X35816Y11850D02*
Y11950D01*
X36040Y12550D02*
X36140D01*
X36090Y12500D02*
Y12600D01*
X33296Y13200D02*
X33396D01*
X33346Y13150D02*
Y13250D01*
X42016Y11450D02*
X42116D01*
X42066Y11400D02*
Y11500D01*
X42016Y11900D02*
X42116D01*
X42066Y11850D02*
Y11950D01*
X42290Y12550D02*
X42390D01*
X42340Y12500D02*
Y12600D01*
X42290Y13400D02*
X42390D01*
X42340Y13350D02*
Y13450D01*
X39546Y13200D02*
X39646D01*
X39596Y13150D02*
Y13250D01*
X48266Y11450D02*
X48366D01*
X48316Y11400D02*
Y11500D01*
X48266Y11900D02*
X48366D01*
X48316Y11850D02*
Y11950D01*
X48540Y12550D02*
X48640D01*
X48590Y12500D02*
Y12600D01*
X48540Y13400D02*
X48640D01*
X48590Y13350D02*
Y13450D01*
X45796Y13200D02*
X45896D01*
X45846Y13150D02*
Y13250D01*
X52046Y13200D02*
X52146D01*
X52096Y13150D02*
Y13250D01*
X54790Y13400D02*
X54890D01*
X54840Y13350D02*
Y13450D01*
X54790Y12550D02*
X54890D01*
X54840Y12500D02*
Y12600D01*
X54516Y11900D02*
X54616D01*
X54566Y11850D02*
Y11950D01*
X54516Y11450D02*
X54616D01*
X54566Y11400D02*
Y11500D01*
X10800Y5826D02*
X10900D01*
X10850Y5776D02*
Y5876D01*
X10100Y5835D02*
X10200D01*
X10150Y5785D02*
Y5885D01*
X11050Y8729D02*
X11150D01*
X11100Y8679D02*
Y8779D01*
X10350Y8569D02*
X10450D01*
X10400Y8519D02*
Y8619D01*
X9850Y8569D02*
X9950D01*
X9900Y8519D02*
Y8619D01*
X8150Y5653D02*
X8250D01*
X8200Y5603D02*
Y5703D01*
X7310Y6071D02*
X7410D01*
X7360Y6021D02*
Y6121D01*
X6663Y7400D02*
X6763D01*
X6713Y7350D02*
Y7450D01*
X6663Y8250D02*
X6763D01*
X6713Y8200D02*
Y8300D01*
X7041Y9264D02*
X7141D01*
X7091Y9214D02*
Y9314D01*
X7046Y9650D02*
X7146D01*
X7096Y9600D02*
Y9700D01*
X17050Y5826D02*
X17150D01*
X17100Y5776D02*
Y5876D01*
X16350Y5835D02*
X16450D01*
X16400Y5785D02*
Y5885D01*
X17300Y8729D02*
X17400D01*
X17350Y8679D02*
Y8779D01*
X16600Y8569D02*
X16700D01*
X16650Y8519D02*
Y8619D01*
X16100Y8569D02*
X16200D01*
X16150Y8519D02*
Y8619D01*
X14400Y5653D02*
X14500D01*
X14450Y5603D02*
Y5703D01*
X13560Y6071D02*
X13660D01*
X13610Y6021D02*
Y6121D01*
X13291Y9264D02*
X13391D01*
X13341Y9214D02*
Y9314D01*
X13296Y9650D02*
X13396D01*
X13346Y9600D02*
Y9700D01*
X23300Y5826D02*
X23400D01*
X23350Y5776D02*
Y5876D01*
X22600Y5835D02*
X22700D01*
X22650Y5785D02*
Y5885D01*
X23550Y8729D02*
X23650D01*
X23600Y8679D02*
Y8779D01*
X22850Y8569D02*
X22950D01*
X22900Y8519D02*
Y8619D01*
X22350Y8569D02*
X22450D01*
X22400Y8519D02*
Y8619D01*
X20650Y5653D02*
X20750D01*
X20700Y5603D02*
Y5703D01*
X19810Y6071D02*
X19910D01*
X19860Y6021D02*
Y6121D01*
X19163Y8250D02*
X19263D01*
X19213Y8200D02*
Y8300D01*
X19541Y9264D02*
X19641D01*
X19591Y9214D02*
Y9314D01*
X19546Y9650D02*
X19646D01*
X19596Y9600D02*
Y9700D01*
X29550Y5826D02*
X29650D01*
X29600Y5776D02*
Y5876D01*
X28850Y5835D02*
X28950D01*
X28900Y5785D02*
Y5885D01*
X29800Y8729D02*
X29900D01*
X29850Y8679D02*
Y8779D01*
X29100Y8569D02*
X29200D01*
X29150Y8519D02*
Y8619D01*
X28600Y8569D02*
X28700D01*
X28650Y8519D02*
Y8619D01*
X26900Y5653D02*
X27000D01*
X26950Y5603D02*
Y5703D01*
X26060Y6071D02*
X26160D01*
X26110Y6021D02*
Y6121D01*
X25413Y7400D02*
X25513D01*
X25463Y7350D02*
Y7450D01*
X25413Y8250D02*
X25513D01*
X25463Y8200D02*
Y8300D01*
X25791Y9264D02*
X25891D01*
X25841Y9214D02*
Y9314D01*
X25796Y9650D02*
X25896D01*
X25846Y9600D02*
Y9700D01*
X35800Y5826D02*
X35900D01*
X35850Y5776D02*
Y5876D01*
X35100Y5835D02*
X35200D01*
X35150Y5785D02*
Y5885D01*
X35350Y8569D02*
X35450D01*
X35400Y8519D02*
Y8619D01*
X34850Y8569D02*
X34950D01*
X34900Y8519D02*
Y8619D01*
X33150Y5653D02*
X33250D01*
X33200Y5603D02*
Y5703D01*
X32310Y6071D02*
X32410D01*
X32360Y6021D02*
Y6121D01*
X31663Y7400D02*
X31763D01*
X31713Y7350D02*
Y7450D01*
X31663Y8250D02*
X31763D01*
X31713Y8200D02*
Y8300D01*
X32041Y9264D02*
X32141D01*
X32091Y9214D02*
Y9314D01*
X32046Y9650D02*
X32146D01*
X32096Y9600D02*
Y9700D01*
X42050Y5826D02*
X42150D01*
X42100Y5776D02*
Y5876D01*
X41350Y5835D02*
X41450D01*
X41400Y5785D02*
Y5885D01*
X42300Y8729D02*
X42400D01*
X42350Y8679D02*
Y8779D01*
X41600Y8569D02*
X41700D01*
X41650Y8519D02*
Y8619D01*
X41100Y8569D02*
X41200D01*
X41150Y8519D02*
Y8619D01*
X39400Y5653D02*
X39500D01*
X39450Y5603D02*
Y5703D01*
X37913Y7400D02*
X38013D01*
X37963Y7350D02*
Y7450D01*
X37913Y8250D02*
X38013D01*
X37963Y8200D02*
Y8300D01*
X38291Y9264D02*
X38391D01*
X38341Y9214D02*
Y9314D01*
X38296Y9650D02*
X38396D01*
X38346Y9600D02*
Y9700D01*
X48300Y5826D02*
X48400D01*
X48350Y5776D02*
Y5876D01*
X48550Y8729D02*
X48650D01*
X48600Y8679D02*
Y8779D01*
X47850Y8569D02*
X47950D01*
X47900Y8519D02*
Y8619D01*
X47350Y8569D02*
X47450D01*
X47400Y8519D02*
Y8619D01*
X45650Y5653D02*
X45750D01*
X45700Y5603D02*
Y5703D01*
X44810Y6071D02*
X44910D01*
X44860Y6021D02*
Y6121D01*
X44163Y7400D02*
X44263D01*
X44213Y7350D02*
Y7450D01*
X44163Y8250D02*
X44263D01*
X44213Y8200D02*
Y8300D01*
X44541Y9264D02*
X44641D01*
X44591Y9214D02*
Y9314D01*
X44546Y9650D02*
X44646D01*
X44596Y9600D02*
Y9700D01*
X6516Y8850D02*
X6616D01*
X6566Y8800D02*
Y8900D01*
X12766Y8850D02*
X12866D01*
X12816Y8800D02*
Y8900D01*
X19016Y8850D02*
X19116D01*
X19066Y8800D02*
Y8900D01*
X31516Y8850D02*
X31616D01*
X31566Y8800D02*
Y8900D01*
X37766Y8850D02*
X37866D01*
X37816Y8800D02*
Y8900D01*
X50266Y8850D02*
X50366D01*
X50316Y8800D02*
Y8900D01*
X50796Y9650D02*
X50896D01*
X50846Y9600D02*
Y9700D01*
X50791Y9264D02*
X50891D01*
X50841Y9214D02*
Y9314D01*
X50413Y8250D02*
X50513D01*
X50463Y8200D02*
Y8300D01*
X50413Y7400D02*
X50513D01*
X50463Y7350D02*
Y7450D01*
X8180Y6850D02*
X8280D01*
X8230Y6800D02*
Y6900D01*
X14430Y6850D02*
X14530D01*
X14480Y6800D02*
Y6900D01*
X20680Y6850D02*
X20780D01*
X20730Y6800D02*
Y6900D01*
X26930Y6850D02*
X27030D01*
X26980Y6800D02*
Y6900D01*
X33180Y6850D02*
X33280D01*
X33230Y6800D02*
Y6900D01*
X39430Y6850D02*
X39530D01*
X39480Y6800D02*
Y6900D01*
X45680Y6850D02*
X45780D01*
X45730Y6800D02*
Y6900D01*
X51930Y6850D02*
X52030D01*
X51980Y6800D02*
Y6900D01*
X51900Y5653D02*
X52000D01*
X51950Y5603D02*
Y5703D01*
X53600Y8569D02*
X53700D01*
X53650Y8519D02*
Y8619D01*
X54100Y8569D02*
X54200D01*
X54150Y8519D02*
Y8619D01*
X54800Y8729D02*
X54900D01*
X54850Y8679D02*
Y8779D01*
X53850Y5835D02*
X53950D01*
X53900Y5785D02*
Y5885D01*
X54550Y5826D02*
X54650D01*
X54600Y5776D02*
Y5876D01*
X70000Y67217D02*
X70100D01*
X70050Y67167D02*
Y67267D01*
X68963Y65625D02*
X69063D01*
X69013Y65575D02*
Y65675D01*
X68590Y66063D02*
X68690D01*
X68640Y66013D02*
Y66113D01*
X68592Y64679D02*
X68692D01*
X68642Y64629D02*
Y64729D01*
X59043Y65625D02*
X59143D01*
X59093Y65575D02*
Y65675D01*
X58670Y66063D02*
X58770D01*
X58720Y66013D02*
Y66113D01*
X58672Y64679D02*
X58772D01*
X58722Y64629D02*
Y64729D01*
X48800Y60391D02*
X48900D01*
X48850Y60341D02*
Y60441D01*
X48800Y61928D02*
X48900D01*
X48850Y61878D02*
Y61978D01*
X49650Y60354D02*
X49750D01*
X49700Y60304D02*
Y60404D01*
X49650Y61928D02*
X49750D01*
X49700Y61878D02*
Y61978D01*
X50400Y60326D02*
X50500D01*
X50450Y60276D02*
Y60376D01*
X56957Y60283D02*
X57057D01*
X57007Y60233D02*
Y60333D01*
X57607Y60283D02*
X57707D01*
X57657Y60233D02*
Y60333D01*
X59325Y61500D02*
X59425D01*
X59375Y61450D02*
Y61550D01*
X59975Y61500D02*
X60075D01*
X60025Y61450D02*
Y61550D01*
X61721Y61498D02*
X61821D01*
X61771Y61448D02*
Y61548D01*
X63275Y61541D02*
X63375D01*
X63325Y61491D02*
Y61591D01*
X63984Y61475D02*
X64084D01*
X64034Y61425D02*
Y61525D01*
X66681Y60251D02*
X66781D01*
X66731Y60201D02*
Y60301D01*
X75275Y59670D02*
X75375D01*
X75325Y59620D02*
Y59720D01*
X74890Y60000D02*
X74990D01*
X74940Y59950D02*
Y60050D01*
X76075Y59670D02*
X76175D01*
X76125Y59620D02*
Y59720D01*
X74890Y61509D02*
X74990D01*
X74940Y61459D02*
Y61559D01*
X75650Y60004D02*
X75750D01*
X75700Y59954D02*
Y60054D01*
X75650Y61503D02*
X75750D01*
X75700Y61453D02*
Y61553D01*
X76500Y59981D02*
X76600D01*
X76550Y59931D02*
Y60031D01*
X76500Y61479D02*
X76600D01*
X76550Y61429D02*
Y61529D01*
X58800Y18312D02*
X58900D01*
X58850Y18262D02*
Y18362D01*
X97610Y39707D02*
X97710D01*
X97660Y39657D02*
Y39757D01*
X96832Y39183D02*
X96932D01*
X96882Y39133D02*
Y39233D01*
X99110Y39707D02*
X99210D01*
X99160Y39657D02*
Y39757D01*
X99888Y39183D02*
X99988D01*
X99938Y39133D02*
Y39233D01*
X109555Y32858D02*
X109655D01*
X109605Y32808D02*
Y32908D01*
X97177Y37000D02*
X97277D01*
X97227Y36950D02*
Y37050D01*
X97177Y36558D02*
X97277D01*
X97227Y36508D02*
Y36608D01*
X97177Y37463D02*
X97277D01*
X97227Y37413D02*
Y37513D01*
X99568Y37000D02*
X99668D01*
X99618Y36950D02*
Y37050D01*
X99568Y36558D02*
X99668D01*
X99618Y36508D02*
Y36608D01*
X99568Y37463D02*
X99668D01*
X99618Y37413D02*
Y37513D01*
X97739Y37463D02*
X97839D01*
X97789Y37413D02*
Y37513D01*
X98959Y37463D02*
X99059D01*
X99009Y37413D02*
Y37513D01*
X98959Y36558D02*
X99059D01*
X99009Y36508D02*
Y36608D01*
X97739Y36558D02*
X97839D01*
X97789Y36508D02*
Y36608D01*
X98350Y36558D02*
X98450D01*
X98400Y36508D02*
Y36608D01*
X98350Y37463D02*
X98450D01*
X98400Y37413D02*
Y37513D01*
X98959Y37000D02*
X99059D01*
X99009Y36950D02*
Y37050D01*
X97739Y37000D02*
X97839D01*
X97789Y36950D02*
Y37050D01*
X110314Y33247D02*
X110414D01*
X110364Y33197D02*
Y33297D01*
X110282Y32922D02*
X110382D01*
X110332Y32872D02*
Y32972D01*
X111286Y33444D02*
X111386D01*
X111336Y33394D02*
Y33494D01*
X107468Y31964D02*
X107568D01*
X107518Y31914D02*
Y32014D01*
X107850Y31635D02*
X107950D01*
X107900Y31585D02*
Y31685D01*
X106404Y32436D02*
X106504D01*
X106454Y32386D02*
Y32486D01*
X96270Y36840D02*
X96370D01*
X96320Y36790D02*
Y36890D01*
X95930Y36840D02*
X96030D01*
X95980Y36790D02*
Y36890D01*
X96280Y35613D02*
X96380D01*
X96330Y35563D02*
Y35663D01*
X95930Y35750D02*
X96030D01*
X95980Y35700D02*
Y35800D01*
X95960Y35070D02*
X96060D01*
X96010Y35020D02*
Y35120D01*
X95610Y35070D02*
X95710D01*
X95660Y35020D02*
Y35120D01*
X95740Y34567D02*
X95840D01*
X95790Y34517D02*
Y34617D01*
X97600Y34700D02*
X97700D01*
X97650Y34650D02*
Y34750D01*
X100280Y35130D02*
X100380D01*
X100330Y35080D02*
Y35180D01*
X99800Y35130D02*
X99900D01*
X99850Y35080D02*
Y35180D01*
X103290Y34420D02*
X103390D01*
X103340Y34370D02*
Y34470D01*
X102250Y32300D02*
X102350D01*
X102300Y32250D02*
Y32350D01*
X99703Y32337D02*
X99803D01*
X99753Y32287D02*
Y32387D01*
X99273Y32337D02*
X99373D01*
X99323Y32287D02*
Y32387D01*
X98766Y33120D02*
X98866D01*
X98816Y33070D02*
Y33170D01*
X99110Y33120D02*
X99210D01*
X99160Y33070D02*
Y33170D01*
X98020Y33790D02*
X98120D01*
X98070Y33740D02*
Y33840D01*
X98250Y32580D02*
X98350D01*
X98300Y32530D02*
Y32630D01*
X98060Y32220D02*
X98160D01*
X98110Y32170D02*
Y32270D01*
X99540Y30500D02*
X99640D01*
X99590Y30450D02*
Y30550D01*
X99540Y31070D02*
X99640D01*
X99590Y31020D02*
Y31120D01*
X99540Y29910D02*
X99640D01*
X99590Y29860D02*
Y29960D01*
X99050Y30803D02*
X99150D01*
X99100Y30753D02*
Y30853D01*
X99050Y31350D02*
X99150D01*
X99100Y31300D02*
Y31400D01*
X99050Y30257D02*
X99150D01*
X99100Y30207D02*
Y30307D01*
X99050Y29710D02*
X99150D01*
X99100Y29660D02*
Y29760D01*
X96950Y30803D02*
X97050D01*
X97000Y30753D02*
Y30853D01*
X96950Y31350D02*
X97050D01*
X97000Y31300D02*
Y31400D01*
X96950Y30257D02*
X97050D01*
X97000Y30207D02*
Y30307D01*
X96950Y29710D02*
X97050D01*
X97000Y29660D02*
Y29760D01*
X98350Y31350D02*
X98450D01*
X98400Y31300D02*
Y31400D01*
X98350Y30257D02*
X98450D01*
X98400Y30207D02*
Y30307D01*
X98350Y29710D02*
X98450D01*
X98400Y29660D02*
Y29760D01*
X97650Y29710D02*
X97750D01*
X97700Y29660D02*
Y29760D01*
X97650Y30257D02*
X97750D01*
X97700Y30207D02*
Y30307D01*
X97650Y31350D02*
X97750D01*
X97700Y31300D02*
Y31400D01*
X97650Y30803D02*
X97750D01*
X97700Y30753D02*
Y30853D01*
X110270Y13142D02*
X110370D01*
X110320Y13092D02*
Y13192D01*
X110826Y13942D02*
X110926D01*
X110876Y13892D02*
Y13992D01*
X111286Y13694D02*
X111386D01*
X111336Y13644D02*
Y13744D01*
X110270Y13497D02*
X110370D01*
X110320Y13447D02*
Y13547D01*
X109547Y13103D02*
X109647D01*
X109597Y13053D02*
Y13153D01*
X107850Y11890D02*
X107950D01*
X107900Y11840D02*
Y11940D01*
X107489Y12214D02*
X107589D01*
X107539Y12164D02*
Y12264D01*
X106429Y12686D02*
X106529D01*
X106479Y12636D02*
Y12736D01*
X96240Y18059D02*
X96340D01*
X96290Y18009D02*
Y18109D01*
X95860Y15330D02*
X95960D01*
X95910Y15280D02*
Y15380D01*
X95860Y15927D02*
X95960D01*
X95910Y15877D02*
Y15977D01*
X95860Y16523D02*
X95960D01*
X95910Y16473D02*
Y16573D01*
X95860Y17120D02*
X95960D01*
X95910Y17070D02*
Y17170D01*
X96690Y15330D02*
X96790D01*
X96740Y15280D02*
Y15380D01*
X96690Y15927D02*
X96790D01*
X96740Y15877D02*
Y15977D01*
X96690Y16523D02*
X96790D01*
X96740Y16473D02*
Y16573D01*
X96690Y17120D02*
X96790D01*
X96740Y17070D02*
Y17170D01*
X97520Y17120D02*
X97620D01*
X97570Y17070D02*
Y17170D01*
X97520Y16523D02*
X97620D01*
X97570Y16473D02*
Y16573D01*
X97520Y15927D02*
X97620D01*
X97570Y15877D02*
Y15977D01*
X97520Y15330D02*
X97620D01*
X97570Y15280D02*
Y15380D01*
X99680Y15927D02*
X99780D01*
X99730Y15877D02*
Y15977D01*
X99680Y17120D02*
X99780D01*
X99730Y17070D02*
Y17170D01*
X99680Y16523D02*
X99780D01*
X99730Y16473D02*
Y16573D01*
X99140Y15330D02*
X99240D01*
X99190Y15280D02*
Y15380D01*
X99140Y15927D02*
X99240D01*
X99190Y15877D02*
Y15977D01*
X99140Y16523D02*
X99240D01*
X99190Y16473D02*
Y16573D01*
X99140Y17120D02*
X99240D01*
X99190Y17070D02*
Y17170D01*
X98350Y15330D02*
X98450D01*
X98400Y15280D02*
Y15380D01*
X98350Y15927D02*
X98450D01*
X98400Y15877D02*
Y15977D01*
X99678Y19141D02*
X99778D01*
X99728Y19091D02*
Y19191D01*
X111286Y20144D02*
X111386D01*
X111336Y20094D02*
Y20194D01*
X110826Y20392D02*
X110926D01*
X110876Y20342D02*
Y20442D01*
X110238Y19613D02*
X110338D01*
X110288Y19563D02*
Y19663D01*
X110238Y19238D02*
X110338D01*
X110288Y19188D02*
Y19288D01*
X110270Y19947D02*
X110370D01*
X110320Y19897D02*
Y19997D01*
X107615Y18873D02*
X107715D01*
X107665Y18823D02*
Y18923D01*
X107589Y18527D02*
X107689D01*
X107639Y18477D02*
Y18577D01*
X107950Y18241D02*
X108050D01*
X108000Y18191D02*
Y18291D01*
X109570Y19549D02*
X109670D01*
X109620Y19499D02*
Y19599D01*
X97739Y23164D02*
X97839D01*
X97789Y23114D02*
Y23214D01*
X98350Y23164D02*
X98450D01*
X98400Y23114D02*
Y23214D01*
X98959Y23164D02*
X99059D01*
X99009Y23114D02*
Y23214D01*
X98959Y24857D02*
X99059D01*
X99009Y24807D02*
Y24907D01*
X98350Y24857D02*
X98450D01*
X98400Y24807D02*
Y24907D01*
X97739Y24857D02*
X97839D01*
X97789Y24807D02*
Y24907D01*
X97739Y24463D02*
X97839D01*
X97789Y24413D02*
Y24513D01*
X98959Y24463D02*
X99059D01*
X99009Y24413D02*
Y24513D01*
X98959Y23558D02*
X99059D01*
X99009Y23508D02*
Y23608D01*
X97739Y23558D02*
X97839D01*
X97789Y23508D02*
Y23608D01*
X98350Y23558D02*
X98450D01*
X98400Y23508D02*
Y23608D01*
X98350Y24463D02*
X98450D01*
X98400Y24413D02*
Y24513D01*
X98959Y24000D02*
X99059D01*
X99009Y23950D02*
Y24050D01*
X97739Y24000D02*
X97839D01*
X97789Y23950D02*
Y24050D01*
X97128Y23984D02*
X97228D01*
X97178Y23934D02*
Y24034D01*
X97128Y24447D02*
X97228D01*
X97178Y24397D02*
Y24497D01*
X97128Y24841D02*
X97228D01*
X97178Y24791D02*
Y24891D01*
X98900Y27505D02*
X99000D01*
X98950Y27455D02*
Y27555D01*
X99692Y28017D02*
X99792D01*
X99742Y27967D02*
Y28067D01*
X97400Y27496D02*
X97500D01*
X97450Y27446D02*
Y27546D01*
X96610Y28009D02*
X96710D01*
X96660Y27959D02*
Y28059D01*
X99690Y26591D02*
X99790D01*
X99740Y26541D02*
Y26641D01*
X98900Y27104D02*
X99000D01*
X98950Y27054D02*
Y27154D01*
X96608Y26591D02*
X96708D01*
X96658Y26541D02*
Y26641D01*
X97400Y27104D02*
X97500D01*
X97450Y27054D02*
Y27154D01*
X86739Y26798D02*
X86839D01*
X86789Y26748D02*
Y26848D01*
X87348Y26798D02*
X87448D01*
X87398Y26748D02*
Y26848D01*
X86127Y26798D02*
X86227D01*
X86177Y26748D02*
Y26848D01*
X86127Y27192D02*
X86227D01*
X86177Y27142D02*
Y27242D01*
X86739Y27192D02*
X86839D01*
X86789Y27142D02*
Y27242D01*
X87348Y27192D02*
X87448D01*
X87398Y27142D02*
Y27242D01*
X87343Y27584D02*
X87443D01*
X87393Y27534D02*
Y27634D01*
X86733Y27584D02*
X86833D01*
X86783Y27534D02*
Y27634D01*
X86122Y27584D02*
X86222D01*
X86172Y27534D02*
Y27634D01*
X84902Y27584D02*
X85002D01*
X84952Y27534D02*
Y27634D01*
X85513Y27584D02*
X85613D01*
X85563Y27534D02*
Y27634D01*
X85518Y27192D02*
X85618D01*
X85568Y27142D02*
Y27242D01*
X84907Y27192D02*
X85007D01*
X84957Y27142D02*
Y27242D01*
X84907Y26798D02*
X85007D01*
X84957Y26748D02*
Y26848D01*
X85518Y26798D02*
X85618D01*
X85568Y26748D02*
Y26848D01*
X83681Y27584D02*
X83781D01*
X83731Y27534D02*
Y27634D01*
X84293Y27584D02*
X84393D01*
X84343Y27534D02*
Y27634D01*
X84298Y27192D02*
X84398D01*
X84348Y27142D02*
Y27242D01*
X83686Y27192D02*
X83786D01*
X83736Y27142D02*
Y27242D01*
X83686Y26798D02*
X83786D01*
X83736Y26748D02*
Y26848D01*
X84298Y26798D02*
X84398D01*
X84348Y26748D02*
Y26848D01*
X85368Y28710D02*
X85468D01*
X85418Y28660D02*
Y28760D01*
X85550Y30475D02*
X85650D01*
X85600Y30425D02*
Y30525D01*
X86300Y30475D02*
X86400D01*
X86350Y30425D02*
Y30525D01*
X84800Y30475D02*
X84900D01*
X84850Y30425D02*
Y30525D01*
X83950Y30475D02*
X84050D01*
X84000Y30425D02*
Y30525D01*
X90550Y30572D02*
X90650D01*
X90600Y30522D02*
Y30622D01*
X90873Y30130D02*
X90973D01*
X90923Y30080D02*
Y30180D01*
X71269Y16139D02*
X71369D01*
X71319Y16089D02*
Y16189D01*
X68477Y15061D02*
X68577D01*
X68527Y15011D02*
Y15111D01*
X68080Y15062D02*
X68180D01*
X68130Y15012D02*
Y15112D01*
X68477Y15523D02*
X68577D01*
X68527Y15473D02*
Y15573D01*
X68080Y15523D02*
X68180D01*
X68130Y15473D02*
Y15573D01*
X58419Y19698D02*
X58519D01*
X58469Y19648D02*
Y19748D01*
X79374Y69939D02*
X79474D01*
X79424Y69889D02*
Y69989D01*
X78617Y68936D02*
X78717D01*
X78667Y68886D02*
Y68986D01*
X79000Y69026D02*
X79100D01*
X79050Y68976D02*
Y69076D01*
X79350Y71004D02*
X79450D01*
X79400Y70954D02*
Y71054D01*
X79000Y71048D02*
X79100D01*
X79050Y70998D02*
Y71098D01*
X78626Y70071D02*
X78726D01*
X78676Y70021D02*
Y70121D01*
X89904Y65374D02*
X90004D01*
X89954Y65324D02*
Y65424D01*
X89826Y64626D02*
X89926D01*
X89876Y64576D02*
Y64676D01*
X89011Y65000D02*
X89111D01*
X89061Y64950D02*
Y65050D01*
X87953Y64626D02*
X88053D01*
X88003Y64576D02*
Y64676D01*
X87953Y65374D02*
X88053D01*
X88003Y65324D02*
Y65424D01*
X110002Y58089D02*
X110082D01*
X110042Y58049D02*
Y58129D01*
X49606Y66046D02*
X49706D01*
X49656Y65996D02*
Y66096D01*
X49268Y59807D02*
X49368D01*
X49318Y59757D02*
Y59857D01*
X8354Y46556D02*
X8454D01*
X8404Y46506D02*
Y46606D01*
X9415Y47092D02*
X9515D01*
X9465Y47042D02*
Y47142D01*
X9413Y47432D02*
X9513D01*
X9463Y47382D02*
Y47481D01*
X12175Y47871D02*
X12275D01*
X12225Y47821D02*
Y47921D01*
X12560Y47871D02*
X12660D01*
X12610Y47821D02*
Y47921D01*
X12175Y47427D02*
X12275D01*
X12225Y47377D02*
Y47477D01*
X12560Y47427D02*
X12660D01*
X12610Y47377D02*
Y47477D01*
X17900Y51702D02*
X18000D01*
X17950Y51652D02*
Y51752D01*
X17900Y51234D02*
X18000D01*
X17950Y51184D02*
Y51284D01*
X17900Y52637D02*
X18000D01*
X17950Y52587D02*
Y52687D01*
X17900Y52169D02*
X18000D01*
X17950Y52119D02*
Y52219D01*
X7666Y54015D02*
X7766D01*
X7716Y53965D02*
Y54065D01*
X8646Y54015D02*
X8746D01*
X8696Y53965D02*
Y54065D01*
X9496Y54015D02*
X9596D01*
X9546Y53965D02*
Y54065D01*
X10434Y54015D02*
X10534D01*
X10484Y53965D02*
Y54065D01*
X11474Y54015D02*
X11574D01*
X11524Y53965D02*
Y54065D01*
X12343Y54015D02*
X12443D01*
X12393Y53965D02*
Y54065D01*
X13288Y54015D02*
X13388D01*
X13338Y53965D02*
Y54065D01*
X14132Y54015D02*
X14232D01*
X14182Y53965D02*
Y54065D01*
X15039Y54015D02*
X15139D01*
X15089Y53965D02*
Y54065D01*
X15863Y54015D02*
X15963D01*
X15913Y53965D02*
Y54065D01*
X16732Y54015D02*
X16832D01*
X16782Y53965D02*
Y54065D01*
X17677Y54015D02*
X17777D01*
X17727Y53965D02*
Y54065D01*
X18552Y54015D02*
X18652D01*
X18602Y53965D02*
Y54065D01*
X20708Y54015D02*
X20808D01*
X20758Y53965D02*
Y54065D01*
X14049Y52822D02*
X14149D01*
X14099Y52772D02*
Y52872D01*
X15390Y53341D02*
X15490D01*
X15440Y53291D02*
Y53391D01*
X13894Y51850D02*
X13994D01*
X13944Y51800D02*
Y51900D01*
X14212Y52228D02*
X14312D01*
X14262Y52178D02*
Y52278D01*
X14844Y52187D02*
X14944D01*
X14894Y52137D02*
Y52237D01*
X14776Y51165D02*
X14876D01*
X14826Y51115D02*
Y51215D01*
X15350Y50692D02*
X15450D01*
X15400Y50642D02*
Y50742D01*
X25856Y52043D02*
X25956D01*
X25906Y51993D02*
Y52093D01*
X25185Y52355D02*
X25285D01*
X25235Y52305D02*
Y52405D01*
X25515Y52355D02*
X25615D01*
X25565Y52305D02*
Y52405D01*
X25856Y52355D02*
X25956D01*
X25906Y52305D02*
Y52405D01*
X27494Y51253D02*
X27594D01*
X27544Y51203D02*
Y51303D01*
X27850Y50645D02*
X27950D01*
X27900Y50595D02*
Y50695D01*
X25899Y50645D02*
X25999D01*
X25949Y50595D02*
Y50695D01*
X26346Y51253D02*
X26446D01*
X26396Y51203D02*
Y51303D01*
X26726Y51253D02*
X26826D01*
X26776Y51203D02*
Y51303D01*
X27106Y51253D02*
X27206D01*
X27156Y51203D02*
Y51303D01*
X28147Y47309D02*
X28247D01*
X28197Y47259D02*
Y47359D01*
X27240Y45870D02*
X27340D01*
X27290Y45820D02*
Y45920D01*
X25347Y46260D02*
X25447D01*
X25397Y46210D02*
Y46310D01*
X26672Y45870D02*
X26772D01*
X26722Y45820D02*
Y45920D01*
X26121Y45870D02*
X26221D01*
X26171Y45820D02*
Y45920D01*
X25600Y45870D02*
X25700D01*
X25650Y45820D02*
Y45920D01*
X22500Y51750D02*
X22600D01*
X22550Y51700D02*
Y51800D01*
X21476Y48660D02*
X21576D01*
X21526Y48610D02*
Y48710D01*
X21476Y48975D02*
X21576D01*
X21526Y48925D02*
Y49025D01*
X21826Y48971D02*
X21926D01*
X21876Y48921D02*
Y49021D01*
X21129Y48975D02*
X21229D01*
X21179Y48925D02*
Y49025D01*
X20642Y49350D02*
X20742D01*
X20692Y49300D02*
Y49400D01*
X21150Y51410D02*
X21250D01*
X21200Y51360D02*
Y51460D01*
X21216Y46540D02*
X21316D01*
X21266Y46490D02*
Y46590D01*
X21600Y50547D02*
X21700D01*
X21650Y50497D02*
Y50597D01*
X21017Y48310D02*
X21117D01*
X21067Y48260D02*
Y48360D01*
X20223Y51005D02*
X20323D01*
X20273Y50955D02*
Y51055D01*
X19740Y49675D02*
X19840D01*
X19790Y49625D02*
Y49725D01*
X19399Y49675D02*
X19499D01*
X19449Y49625D02*
Y49725D01*
X19069Y49363D02*
X19169D01*
X19119Y49313D02*
Y49413D01*
X19399Y49363D02*
X19499D01*
X19449Y49313D02*
Y49413D01*
X19740Y49363D02*
X19840D01*
X19790Y49313D02*
Y49413D01*
X19069Y49035D02*
X19169D01*
X19119Y48985D02*
Y49085D01*
X19399Y49035D02*
X19499D01*
X19449Y48985D02*
Y49085D01*
X19740Y49035D02*
X19840D01*
X19790Y48985D02*
Y49085D01*
X19069Y49675D02*
X19169D01*
X19119Y49625D02*
Y49725D01*
X19868Y51677D02*
X19968D01*
X19918Y51627D02*
Y51727D01*
X19383Y50772D02*
X19483D01*
X19433Y50722D02*
Y50822D01*
X19375Y50474D02*
X19475D01*
X19425Y50424D02*
Y50524D01*
X18795Y50099D02*
X18895D01*
X18845Y50049D02*
Y50149D01*
X20279Y45728D02*
X20379D01*
X20329Y45678D02*
Y45778D01*
X19810Y45728D02*
X19910D01*
X19860Y45678D02*
Y45778D01*
X18819Y47245D02*
X18919D01*
X18869Y47195D02*
Y47295D01*
X20266Y46639D02*
X20366D01*
X20316Y46589D02*
Y46689D01*
X19358Y48244D02*
X19458D01*
X19408Y48194D02*
Y48294D01*
X18795Y48601D02*
X18895D01*
X18845Y48551D02*
Y48651D01*
X18224Y49547D02*
X18324D01*
X18274Y49497D02*
Y49597D01*
X43048Y68600D02*
X43148D01*
X43098Y68550D02*
Y68650D01*
X43047Y69150D02*
X43147D01*
X43097Y69100D02*
Y69200D01*
X45644Y68600D02*
X45744D01*
X45694Y68550D02*
Y68650D01*
X45636Y69150D02*
X45736D01*
X45686Y69100D02*
Y69200D01*
X54539Y60278D02*
X54639D01*
X54589Y60228D02*
Y60328D01*
X54309Y59938D02*
X54409D01*
X54359Y59888D02*
Y59988D01*
X54064Y59623D02*
X54164D01*
X54114Y59573D02*
Y59673D01*
X53830Y60278D02*
X53930D01*
X53880Y60228D02*
Y60328D01*
X53591Y59938D02*
X53691D01*
X53641Y59888D02*
Y59988D01*
X53355Y59623D02*
X53455D01*
X53405Y59573D02*
Y59673D01*
X53121Y60278D02*
X53221D01*
X53171Y60228D02*
Y60328D01*
X52883Y59938D02*
X52983D01*
X52933Y59888D02*
Y59988D01*
X52647Y59623D02*
X52747D01*
X52697Y59573D02*
Y59673D01*
X52413Y60282D02*
X52513D01*
X52463Y60231D02*
Y60332D01*
X52174Y59938D02*
X52274D01*
X52224Y59888D02*
Y59988D01*
X51704Y61578D02*
X51804D01*
X51754Y61528D02*
Y61628D01*
X48136Y60331D02*
X48236D01*
X48186Y60281D02*
Y60381D01*
X48136Y59807D02*
X48236D01*
X48186Y59757D02*
Y59857D01*
X50041Y59807D02*
X50141D01*
X50091Y59757D02*
Y59857D01*
X54420Y64733D02*
X54520D01*
X54470Y64683D02*
Y64783D01*
X53710Y64734D02*
X53810D01*
X53760Y64684D02*
Y64784D01*
X52295Y64733D02*
X52395D01*
X52345Y64683D02*
Y64783D01*
X48972Y66046D02*
X49072D01*
X49022Y65996D02*
Y66096D01*
X50349Y66046D02*
X50449D01*
X50399Y65996D02*
Y66096D01*
X23659Y24800D02*
X23759D01*
X23709Y24750D02*
Y24850D01*
X24965Y24250D02*
X25065D01*
X25015Y24200D02*
Y24300D01*
X29063Y24126D02*
X29163D01*
X29114Y24076D02*
Y24176D01*
X29462Y24140D02*
X29562D01*
X29512Y24090D02*
Y24190D01*
X27493Y23000D02*
X27593D01*
X27543Y22950D02*
Y23050D01*
X27493Y23400D02*
X27593D01*
X27543Y23350D02*
Y23450D01*
X27917Y23913D02*
X28017D01*
X27967Y23863D02*
Y23963D01*
X29535Y23028D02*
X29635D01*
X29585Y22978D02*
Y23078D01*
X29444Y22687D02*
X29544D01*
X29494Y22637D02*
Y22737D01*
X28461Y22600D02*
X28561D01*
X28511Y22550D02*
Y22650D01*
X28461Y23400D02*
X28561D01*
X28512Y23350D02*
Y23450D01*
X28461Y23000D02*
X28561D01*
X28512Y22950D02*
Y23050D01*
X21900Y38910D02*
X22000D01*
X21950Y38860D02*
Y38960D01*
X23064Y38512D02*
X23164D01*
X23114Y38462D02*
Y38562D01*
X23767Y38099D02*
X23867D01*
X23817Y38049D02*
Y38149D01*
X22600Y38910D02*
X22700D01*
X22650Y38860D02*
Y38960D01*
X21218Y37200D02*
X21318D01*
X21268Y37150D02*
Y37250D01*
X21218Y37650D02*
X21318D01*
X21268Y37600D02*
Y37700D01*
X21218Y38100D02*
X21318D01*
X21268Y38050D02*
Y38150D01*
X21218Y38550D02*
X21318D01*
X21268Y38500D02*
Y38600D01*
X20743Y38325D02*
X20843D01*
X20793Y38275D02*
Y38375D01*
X26000Y40182D02*
X26100D01*
X26050Y40132D02*
Y40232D01*
X25550Y40182D02*
X25650D01*
X25600Y40132D02*
Y40232D01*
X25100Y40182D02*
X25200D01*
X25150Y40132D02*
Y40232D01*
X24650Y40182D02*
X24750D01*
X24700Y40132D02*
Y40232D01*
X24200Y40182D02*
X24300D01*
X24250Y40132D02*
Y40232D01*
X23750Y40182D02*
X23850D01*
X23800Y40132D02*
Y40232D01*
X24334Y37603D02*
X24434D01*
X24384Y37553D02*
Y37653D01*
X24760Y37603D02*
X24860D01*
X24810Y37553D02*
Y37653D01*
X25195Y37172D02*
X25295D01*
X25245Y37122D02*
Y37222D01*
X25195Y37603D02*
X25295D01*
X25245Y37553D02*
Y37653D01*
X25195Y36756D02*
X25295D01*
X25245Y36706D02*
Y36806D01*
X24600Y35450D02*
X24700D01*
X24650Y35400D02*
Y35500D01*
X24257Y38392D02*
X24357D01*
X24307Y38342D02*
Y38442D01*
X27760Y38075D02*
X27860D01*
X27810Y38025D02*
Y38125D01*
X27481Y37400D02*
X27581D01*
X27531Y37350D02*
Y37450D01*
X27481Y36950D02*
X27581D01*
X27531Y36900D02*
Y37000D01*
X25673Y35849D02*
X25773D01*
X25723Y35799D02*
Y35899D01*
X26650Y35895D02*
X26750D01*
X26700Y35845D02*
Y35945D01*
X27200Y35895D02*
X27300D01*
X27250Y35845D02*
Y35945D01*
X27800Y35895D02*
X27900D01*
X27850Y35845D02*
Y35945D01*
X25373Y32095D02*
X25473D01*
X25423Y32045D02*
Y32145D01*
X25027Y32095D02*
X25127D01*
X25077Y32045D02*
Y32145D01*
X26129Y33700D02*
X26229D01*
X26179Y33650D02*
Y33750D01*
X24263Y33700D02*
X24363D01*
X24313Y33650D02*
Y33750D01*
X22350Y34120D02*
X22450D01*
X22400Y34070D02*
Y34170D01*
X22900Y34277D02*
X23000D01*
X22950Y34227D02*
Y34327D01*
X23400Y34724D02*
X23500D01*
X23450Y34674D02*
Y34774D01*
X24760Y37172D02*
X24860D01*
X24810Y37122D02*
Y37222D01*
X24334Y37172D02*
X24434D01*
X24384Y37122D02*
Y37222D01*
X24760Y36756D02*
X24860D01*
X24810Y36706D02*
Y36806D01*
X24334Y36756D02*
X24434D01*
X24384Y36706D02*
Y36806D01*
X87398Y59628D02*
X87498D01*
X87448Y59578D02*
Y59678D01*
X88123Y59690D02*
X88223D01*
X88173Y59640D02*
Y59740D01*
X89550Y61844D02*
X89650D01*
X89600Y61794D02*
Y61894D01*
X88982Y62274D02*
X89082D01*
X89032Y62224D02*
Y62324D01*
X89945Y61127D02*
X90045D01*
X89995Y61077D02*
Y61177D01*
X96061Y65530D02*
X96161D01*
X96111Y65480D02*
Y65580D01*
X95150Y68040D02*
X95250D01*
X95200Y67990D02*
Y68090D01*
X91769Y65676D02*
X91869D01*
X91819Y65626D02*
Y65726D01*
X92229Y65676D02*
X92329D01*
X92279Y65626D02*
Y65726D01*
X93523Y66300D02*
X93623D01*
X93573Y66250D02*
Y66350D01*
X93960Y67836D02*
X94060D01*
X94010Y67786D02*
Y67886D01*
X94252Y69726D02*
X94352D01*
X94302Y69676D02*
Y69776D01*
X93850Y70085D02*
X93950D01*
X93900Y70035D02*
Y70135D01*
X90961Y68776D02*
X91061D01*
X91011Y68726D02*
Y68826D01*
X91421Y68776D02*
X91521D01*
X91471Y68726D02*
Y68826D01*
X89775Y67722D02*
X89875D01*
X89825Y67672D02*
Y67772D01*
X89342Y67722D02*
X89442D01*
X89392Y67672D02*
Y67772D01*
X88476Y67722D02*
X88576D01*
X88526Y67672D02*
Y67772D01*
X87176Y67722D02*
X87276D01*
X87226Y67672D02*
Y67772D01*
X90208Y67722D02*
X90308D01*
X90258Y67672D02*
Y67772D01*
X88043Y67722D02*
X88143D01*
X88093Y67672D02*
Y67772D01*
X87609Y67722D02*
X87709D01*
X87659Y67672D02*
Y67772D01*
X91095Y67150D02*
X91195D01*
X91145Y67100D02*
Y67200D01*
X91657Y66517D02*
X91757D01*
X91707Y66467D02*
Y66567D01*
X92186Y67150D02*
X92286D01*
X92236Y67100D02*
Y67200D01*
X91095Y70417D02*
X91195D01*
X91145Y70367D02*
Y70467D01*
X91657Y69785D02*
X91757D01*
X91707Y69735D02*
Y69835D01*
X92186Y70417D02*
X92286D01*
X92236Y70367D02*
Y70467D01*
X85682Y67150D02*
X85782D01*
X85732Y67100D02*
Y67200D01*
X86243Y66517D02*
X86343D01*
X86293Y66467D02*
Y66567D01*
X86773Y67150D02*
X86873D01*
X86823Y67100D02*
Y67200D01*
X86773Y70417D02*
X86873D01*
X86823Y70367D02*
Y70467D01*
X86243Y69785D02*
X86343D01*
X86293Y69735D02*
Y69835D01*
X85682Y70417D02*
X85782D01*
X85732Y70367D02*
Y70467D01*
X72608Y64733D02*
X72708D01*
X72658Y64683D02*
Y64783D01*
X71663Y64733D02*
X71763D01*
X71713Y64683D02*
Y64783D01*
X74259Y63575D02*
X74359D01*
X74309Y63525D02*
Y63625D01*
X73789Y64709D02*
X73889D01*
X73839Y64659D02*
Y64759D01*
X74822Y65761D02*
X74922D01*
X74872Y65711D02*
Y65811D01*
X76095Y65761D02*
X76195D01*
X76145Y65711D02*
Y65811D01*
X75498Y65761D02*
X75598D01*
X75548Y65711D02*
Y65811D01*
X74495Y64833D02*
X74595D01*
X74545Y64783D02*
Y64883D01*
X70007Y65104D02*
X70107D01*
X70057Y65054D02*
Y65154D01*
X77925Y71050D02*
X78025D01*
X77975Y71000D02*
Y71100D01*
X77925Y70450D02*
X78025D01*
X77975Y70400D02*
Y70500D01*
X77925Y69850D02*
X78025D01*
X77975Y69800D02*
Y69900D01*
X77658Y70750D02*
X77758D01*
X77708Y70700D02*
Y70800D01*
X77696Y71350D02*
X77796D01*
X77746Y71300D02*
Y71400D01*
X79800Y72894D02*
X79900D01*
X79850Y72844D02*
Y72944D01*
X77355Y72894D02*
X77455D01*
X77405Y72844D02*
Y72944D01*
X80183Y68850D02*
X80283D01*
X80233Y68800D02*
Y68900D01*
X80183Y69638D02*
X80283D01*
X80233Y69588D02*
Y69688D01*
X80183Y70425D02*
X80283D01*
X80233Y70375D02*
Y70475D01*
X79710Y67515D02*
X79810D01*
X79760Y67465D02*
Y67565D01*
X83394Y71213D02*
X83494D01*
X83444Y71163D02*
Y71263D01*
X83394Y70425D02*
X83494D01*
X83444Y70375D02*
Y70475D01*
X83394Y69638D02*
X83494D01*
X83444Y69588D02*
Y69688D01*
X83394Y68850D02*
X83494D01*
X83444Y68800D02*
Y68900D01*
X83394Y68063D02*
X83494D01*
X83444Y68013D02*
Y68113D01*
X83394Y67276D02*
X83494D01*
X83444Y67226D02*
Y67326D01*
X78650Y63941D02*
X78750D01*
X78700Y63891D02*
Y63991D01*
X94328Y47347D02*
X94428D01*
X94378Y47297D02*
Y47397D01*
X97032Y47347D02*
X97132D01*
X97082Y47297D02*
Y47397D01*
X99360Y51649D02*
X99460D01*
X99410Y51599D02*
Y51699D01*
X95744Y52270D02*
X95844D01*
X95794Y52220D02*
Y52320D01*
X96022Y52595D02*
X96122D01*
X96072Y52545D02*
Y52645D01*
X95728Y51905D02*
X95828D01*
X95778Y51855D02*
Y51955D01*
X96729Y51646D02*
X96829D01*
X96779Y51596D02*
Y51696D01*
X97250Y51650D02*
X97350D01*
X97300Y51600D02*
Y51700D01*
X97514Y51250D02*
X97614D01*
X97564Y51200D02*
Y51300D01*
X97244Y50850D02*
X97344D01*
X97294Y50800D02*
Y50900D01*
X97551Y50450D02*
X97651D01*
X97601Y50400D02*
Y50500D01*
X97244Y50050D02*
X97344D01*
X97294Y50000D02*
Y50100D01*
X96412Y49110D02*
X96512D01*
X96462Y49060D02*
Y49160D01*
X96050Y49360D02*
X96150D01*
X96100Y49310D02*
Y49410D01*
X88190Y49840D02*
X88290D01*
X88240Y49790D02*
Y49890D01*
X95767Y49113D02*
X95867D01*
X95817Y49063D02*
Y49163D01*
X95540Y49840D02*
X95640D01*
X95590Y49790D02*
Y49890D01*
X95250Y49240D02*
X95350D01*
X95300Y49190D02*
Y49290D01*
X94850Y48890D02*
X94950D01*
X94900Y48840D02*
Y48940D01*
X91975Y51950D02*
X92075D01*
X92025Y51900D02*
Y52000D01*
X91975Y49540D02*
X92075D01*
X92025Y49490D02*
Y49590D01*
X93826Y50750D02*
X93926D01*
X93876Y50700D02*
Y50800D01*
X94104Y50461D02*
X94204D01*
X94154Y50411D02*
Y50511D01*
X93704Y50193D02*
X93804D01*
X93754Y50143D02*
Y50243D01*
X88380Y52323D02*
X88480D01*
X88430Y52273D02*
Y52373D01*
X88604Y52564D02*
X88704D01*
X88654Y52514D02*
Y52614D01*
X88395Y51932D02*
X88495D01*
X88445Y51882D02*
Y51982D01*
X87683Y52258D02*
X87783D01*
X87733Y52208D02*
Y52308D01*
X89413Y51634D02*
X89513D01*
X89463Y51585D02*
Y51684D01*
X89625Y51272D02*
X89725D01*
X89675Y51222D02*
Y51322D01*
X90241Y51008D02*
X90341D01*
X90291Y50958D02*
Y51058D01*
X89472Y50738D02*
X89572D01*
X89522Y50688D02*
Y50788D01*
X89851Y50437D02*
X89951D01*
X89901Y50387D02*
Y50487D01*
X89348Y50136D02*
X89448D01*
X89398Y50086D02*
Y50186D01*
X84588Y51900D02*
X84688D01*
X84638Y51850D02*
Y51950D01*
X84588Y51487D02*
X84688D01*
X84638Y51437D02*
Y51537D01*
X86351Y51494D02*
X86451D01*
X86401Y51444D02*
Y51544D01*
X86645Y51280D02*
X86745D01*
X86695Y51230D02*
Y51330D01*
X86341Y51008D02*
X86441D01*
X86391Y50958D02*
Y51058D01*
X86671Y50753D02*
X86771D01*
X86721Y50703D02*
Y50803D01*
X86674Y50258D02*
X86774D01*
X86724Y50208D02*
Y50308D01*
X90635Y47375D02*
X90735D01*
X90685Y47325D02*
Y47425D01*
X90636Y47012D02*
X90736D01*
X90686Y46962D02*
Y47062D01*
X89062Y49110D02*
X89162D01*
X89112Y49060D02*
Y49160D01*
X88700Y49360D02*
X88800D01*
X88750Y49310D02*
Y49410D01*
X88420Y49110D02*
X88520D01*
X88470Y49060D02*
Y49160D01*
X87900Y49240D02*
X88000D01*
X87950Y49190D02*
Y49290D01*
X87650Y48890D02*
X87750D01*
X87700Y48840D02*
Y48940D01*
X73823Y31225D02*
X73923D01*
X73873Y31175D02*
Y31275D01*
X72722Y29899D02*
X72822D01*
X72772Y29849D02*
Y29949D01*
X75540Y33918D02*
X75640D01*
X75590Y33868D02*
Y33968D01*
X75937Y33918D02*
X76037D01*
X75987Y33868D02*
Y33968D01*
X75107Y33918D02*
X75207D01*
X75157Y33868D02*
Y33968D01*
X73700Y34644D02*
X73800D01*
X73750Y34594D02*
Y34694D01*
X74200Y34644D02*
X74300D01*
X74250Y34594D02*
Y34694D01*
X74700Y34644D02*
X74800D01*
X74750Y34594D02*
Y34694D01*
X74260Y32922D02*
X74360D01*
X74310Y32872D02*
Y32972D01*
X72534Y34409D02*
X72634D01*
X72584Y34359D02*
Y34459D01*
X70453Y39191D02*
X70553D01*
X70503Y39141D02*
Y39241D01*
X70934Y39122D02*
X71034D01*
X70984Y39072D02*
Y39172D01*
X70693Y38739D02*
X70793D01*
X70743Y38689D02*
Y38789D01*
X71155Y38741D02*
X71255D01*
X71205Y38691D02*
Y38791D01*
X70534Y37491D02*
X70634D01*
X70584Y37441D02*
Y37541D01*
X70928Y37487D02*
X71028D01*
X70978Y37437D02*
Y37537D01*
X71518Y37494D02*
X71618D01*
X71568Y37444D02*
Y37544D01*
X70731Y37233D02*
X70831D01*
X70781Y37183D02*
Y37283D01*
X69000Y40949D02*
X69100D01*
X69050Y40899D02*
Y40999D01*
X69500Y40949D02*
X69600D01*
X69550Y40899D02*
Y40999D01*
X69557Y38547D02*
X69657D01*
X69607Y38497D02*
Y38597D01*
X67412Y36969D02*
X67512D01*
X67462Y36918D02*
Y37018D01*
X66250Y37227D02*
X66350D01*
X66300Y37177D02*
Y37277D01*
X64394Y36685D02*
X64494D01*
X64444Y36635D02*
Y36735D01*
X67345Y35787D02*
X67445D01*
X67395Y35737D02*
Y35837D01*
X67583Y35479D02*
X67683D01*
X67633Y35429D02*
Y35529D01*
X67395Y35197D02*
X67495D01*
X67445Y35147D02*
Y35247D01*
X64104Y35400D02*
X64204D01*
X64154Y35350D02*
Y35450D01*
X63696Y35150D02*
X63796D01*
X63746Y35100D02*
Y35200D01*
X64104Y34900D02*
X64204D01*
X64154Y34850D02*
Y34950D01*
X64104Y34400D02*
X64204D01*
X64154Y34350D02*
Y34450D01*
X63694Y34650D02*
X63794D01*
X63744Y34600D02*
Y34700D01*
X64104Y33912D02*
X64204D01*
X64154Y33862D02*
Y33962D01*
X63694Y33650D02*
X63794D01*
X63744Y33600D02*
Y33700D01*
X64104Y33400D02*
X64204D01*
X64154Y33350D02*
Y33450D01*
X64104Y32900D02*
X64204D01*
X64154Y32850D02*
Y32950D01*
X64082Y32400D02*
X64182D01*
X64132Y32350D02*
Y32450D01*
X63694Y32650D02*
X63794D01*
X63744Y32600D02*
Y32700D01*
X64399Y31066D02*
X64499D01*
X64449Y31016D02*
Y31116D01*
X66636Y31693D02*
X66736D01*
X66686Y31643D02*
Y31743D01*
X68950Y28686D02*
X69050D01*
X69000Y28636D02*
Y28736D01*
X69450Y28686D02*
X69550D01*
X69500Y28636D02*
Y28736D01*
X69950Y28686D02*
X70050D01*
X70000Y28636D02*
Y28736D01*
X70450Y28686D02*
X70550D01*
X70500Y28636D02*
Y28736D01*
X71200Y29084D02*
X71300D01*
X71250Y29034D02*
Y29134D01*
X71469Y29342D02*
X71569D01*
X71519Y29292D02*
Y29392D01*
X70700Y29084D02*
X70800D01*
X70750Y29034D02*
Y29134D01*
X70200Y29084D02*
X70300D01*
X70250Y29034D02*
Y29134D01*
X69700Y29084D02*
X69800D01*
X69750Y29034D02*
Y29134D01*
X69200Y29084D02*
X69300D01*
X69250Y29034D02*
Y29134D01*
X68700Y29084D02*
X68800D01*
X68750Y29034D02*
Y29134D01*
X68200Y29084D02*
X68300D01*
X68250Y29034D02*
Y29134D01*
X67700Y29084D02*
X67800D01*
X67750Y29034D02*
Y29134D01*
X67200Y29084D02*
X67300D01*
X67250Y29034D02*
Y29134D01*
X66700Y29084D02*
X66800D01*
X66750Y29034D02*
Y29134D01*
X70344Y32384D02*
X70444D01*
X70394Y32334D02*
Y32434D01*
X32976Y23598D02*
X33076D01*
X33026Y23548D02*
Y23648D01*
X33205Y27227D02*
X33305D01*
X33255Y27177D02*
Y27277D01*
X33211Y27573D02*
X33311D01*
X33261Y27523D02*
Y27623D01*
X32900Y27908D02*
X33000D01*
X32950Y27858D02*
Y27958D01*
X49896Y51656D02*
X49996D01*
X49946Y51606D02*
Y51706D01*
X48726Y50569D02*
X48826D01*
X48776Y50519D02*
Y50619D01*
X50716Y52344D02*
X50816D01*
X50766Y52294D02*
Y52394D01*
X49880Y52358D02*
X49980D01*
X49930Y52308D02*
Y52408D01*
X50742Y53870D02*
X50842D01*
X50792Y53820D02*
Y53920D01*
X51070Y53870D02*
X51170D01*
X51120Y53820D02*
Y53920D01*
X49401Y53950D02*
X49501D01*
X49451Y53900D02*
Y54000D01*
X48242Y51253D02*
X48342D01*
X48292Y51203D02*
Y51303D01*
X48396Y51531D02*
X48496D01*
X48446Y51481D02*
Y51581D01*
X46647Y52497D02*
X46747D01*
X46697Y52447D02*
Y52547D01*
X46647Y52838D02*
X46747D01*
X46697Y52788D02*
Y52888D01*
X47350Y52240D02*
X47450D01*
X47400Y52190D02*
Y52290D01*
X46409Y53823D02*
X46509D01*
X46459Y53773D02*
Y53873D01*
X49116Y53674D02*
X49216D01*
X49166Y53623D02*
Y53724D01*
X41020Y19470D02*
X41120D01*
X41070Y19420D02*
Y19520D01*
X41020Y20630D02*
X41120D01*
X41070Y20580D02*
Y20680D01*
X9373Y11130D02*
X9473D01*
X9423Y11080D02*
Y11180D01*
X8227Y11130D02*
X8327D01*
X8277Y11080D02*
Y11180D01*
X15623Y11130D02*
X15723D01*
X15673Y11080D02*
Y11180D01*
X14477Y11130D02*
X14577D01*
X14527Y11080D02*
Y11180D01*
X21873Y11130D02*
X21973D01*
X21923Y11080D02*
Y11180D01*
X20727Y11130D02*
X20827D01*
X20777Y11080D02*
Y11180D01*
X28123Y11130D02*
X28223D01*
X28173Y11080D02*
Y11180D01*
X26977Y11130D02*
X27077D01*
X27027Y11080D02*
Y11180D01*
X34373Y11130D02*
X34473D01*
X34423Y11080D02*
Y11180D01*
X33227Y11130D02*
X33327D01*
X33277Y11080D02*
Y11180D01*
X40623Y11130D02*
X40723D01*
X40673Y11080D02*
Y11180D01*
X39477Y11130D02*
X39577D01*
X39527Y11080D02*
Y11180D01*
X46873Y11130D02*
X46973D01*
X46923Y11080D02*
Y11180D01*
X45727Y11130D02*
X45827D01*
X45777Y11080D02*
Y11180D01*
X51977Y11130D02*
X52077D01*
X52027Y11080D02*
Y11180D01*
X53123Y11130D02*
X53223D01*
X53173Y11080D02*
Y11180D01*
X111900Y63730D02*
X112000D01*
X111950Y63680D02*
Y63780D01*
X113740Y62500D02*
X113840D01*
X113790Y62450D02*
Y62550D01*
X114077Y62173D02*
X114177D01*
X114127Y62123D02*
Y62223D01*
X115240Y62500D02*
X115340D01*
X115290Y62450D02*
Y62550D01*
X115577Y62173D02*
X115677D01*
X115627Y62123D02*
Y62223D01*
X116740Y62500D02*
X116840D01*
X116790Y62450D02*
Y62550D01*
X117077Y62173D02*
X117177D01*
X117127Y62123D02*
Y62223D01*
X118577Y62173D02*
X118677D01*
X118627Y62123D02*
Y62223D01*
X118240Y62500D02*
X118340D01*
X118290Y62450D02*
Y62550D01*
X113350Y63128D02*
X113450D01*
X113400Y63078D02*
Y63178D01*
X114850Y63128D02*
X114950D01*
X114900Y63078D02*
Y63178D01*
X116350Y63128D02*
X116450D01*
X116400Y63078D02*
Y63178D01*
X117850Y63128D02*
X117950D01*
X117900Y63078D02*
Y63178D01*
X108321Y62199D02*
X108421D01*
X108371Y62149D02*
Y62249D01*
X108339Y53811D02*
X108439D01*
X108389Y53761D02*
Y53861D01*
X111650Y60360D02*
X111750D01*
X111700Y60310D02*
Y60410D01*
X111238Y59946D02*
X111338D01*
X111288Y59896D02*
Y59996D01*
X111065Y55044D02*
X111165D01*
X111115Y54994D02*
Y55094D01*
X111643Y54575D02*
X111743D01*
X111693Y54525D02*
Y54625D01*
X110280Y63924D02*
X110380D01*
X110330Y63874D02*
Y63974D01*
X110280Y64476D02*
X110380D01*
X110330Y64426D02*
Y64526D01*
X110650Y64800D02*
X110750D01*
X110700Y64750D02*
Y64850D01*
X112450Y65050D02*
X112550D01*
X112500Y65000D02*
Y65100D01*
X112080Y64726D02*
X112180D01*
X112130Y64676D02*
Y64776D01*
X118280Y45620D02*
X118480D01*
X118380Y45520D02*
Y45720D01*
X116750Y17500D02*
X116850D01*
X116800Y17450D02*
Y17550D01*
X116150Y22250D02*
X116250D01*
X116200Y22200D02*
Y22300D01*
X116750Y21250D02*
X116850D01*
X116800Y21200D02*
Y21300D01*
X116150Y16500D02*
X116250D01*
X116200Y16450D02*
Y16550D01*
X116750Y9000D02*
X116850D01*
X116800Y8950D02*
Y9050D01*
X116150Y10000D02*
X116250D01*
X116200Y9950D02*
Y10050D01*
X120900Y65200D02*
X121000D01*
X120950Y65150D02*
Y65250D01*
X120900Y64810D02*
X121000D01*
X120950Y64760D02*
Y64860D01*
X120900Y62570D02*
X121000D01*
X120950Y62520D02*
Y62620D01*
X120900Y63200D02*
X121000D01*
X120950Y63150D02*
Y63250D01*
X120900Y63850D02*
X121000D01*
X120950Y63800D02*
Y63900D01*
X120450Y63960D02*
X120550D01*
X120500Y63910D02*
Y64010D01*
X119775Y62250D02*
X119875D01*
X119825Y62200D02*
Y62300D01*
X119765Y64070D02*
X119865D01*
X119815Y64020D02*
Y64120D01*
X121890Y66312D02*
X121990D01*
X121940Y66262D02*
Y66362D01*
X45470Y25000D02*
X45570D01*
X45520Y24950D02*
Y25050D01*
X43380Y21507D02*
X43480D01*
X43430Y21457D02*
Y21557D01*
X43550Y19600D02*
X43650D01*
X43600Y19550D02*
Y19650D01*
X44217Y18450D02*
X44317D01*
X44267Y18400D02*
Y18500D01*
X40720Y19850D02*
X40820D01*
X40770Y19800D02*
Y19900D01*
X40720Y20250D02*
X40820D01*
X40770Y20200D02*
Y20300D01*
X42480Y19850D02*
X42580D01*
X42530Y19800D02*
Y19900D01*
X42480Y20250D02*
X42580D01*
X42530Y20200D02*
Y20300D01*
X40200Y20050D02*
X40300D01*
X40250Y20000D02*
Y20100D01*
X44296Y20680D02*
X44396D01*
X44346Y20630D02*
Y20730D01*
X45116Y19350D02*
X45216D01*
X45166Y19300D02*
Y19400D01*
X47320Y20060D02*
X47420D01*
X47370Y20010D02*
Y20110D01*
X47350Y19090D02*
X47450D01*
X47400Y19040D02*
Y19140D01*
X47000Y19280D02*
X47100D01*
X47050Y19230D02*
Y19330D01*
X45290Y20764D02*
X45390D01*
X45340Y20714D02*
Y20814D01*
X45290Y20344D02*
X45390D01*
X45340Y20294D02*
Y20394D01*
X45710Y20764D02*
X45810D01*
X45760Y20714D02*
Y20814D01*
X45710Y20344D02*
X45810D01*
X45760Y20294D02*
Y20394D01*
X110623Y2447D02*
X110723D01*
X110673Y2397D02*
Y2497D01*
X107283Y2447D02*
X107383D01*
X107333Y2397D02*
Y2497D01*
X8850Y4010D02*
X8950D01*
X8900Y3960D02*
Y4060D01*
X8030Y2450D02*
X8130D01*
X8080Y2400D02*
Y2500D01*
X11370Y2450D02*
X11470D01*
X11420Y2400D02*
Y2500D01*
X8150Y5300D02*
X8250D01*
X8200Y5250D02*
Y5350D01*
X10130Y7380D02*
X10230D01*
X10180Y7330D02*
Y7430D01*
X10500Y7380D02*
X10600D01*
X10550Y7330D02*
Y7430D01*
X9450Y7740D02*
X9550D01*
X9500Y7690D02*
Y7790D01*
X9110Y6440D02*
X9210D01*
X9160Y6390D02*
Y6490D01*
X9530Y6440D02*
X9630D01*
X9580Y6390D02*
Y6490D01*
X8600Y2790D02*
X8700D01*
X8650Y2740D02*
Y2840D01*
X9110Y6860D02*
X9210D01*
X9160Y6810D02*
Y6910D01*
X9530Y6860D02*
X9630D01*
X9580Y6810D02*
Y6910D01*
X52600Y4010D02*
X52700D01*
X52650Y3960D02*
Y4060D01*
X51780Y2450D02*
X51880D01*
X51830Y2400D02*
Y2500D01*
X55120Y2450D02*
X55220D01*
X55170Y2400D02*
Y2500D01*
X53880Y7380D02*
X53980D01*
X53930Y7330D02*
Y7430D01*
X54250Y7380D02*
X54350D01*
X54300Y7330D02*
Y7430D01*
X53200Y7740D02*
X53300D01*
X53250Y7690D02*
Y7790D01*
X52860Y6440D02*
X52960D01*
X52910Y6390D02*
Y6490D01*
X53280Y6440D02*
X53380D01*
X53330Y6390D02*
Y6490D01*
X52350Y2790D02*
X52450D01*
X52400Y2740D02*
Y2840D01*
X52860Y6860D02*
X52960D01*
X52910Y6810D02*
Y6910D01*
X53280Y6860D02*
X53380D01*
X53330Y6810D02*
Y6910D01*
X46350Y4010D02*
X46450D01*
X46400Y3960D02*
Y4060D01*
X45530Y2450D02*
X45630D01*
X45580Y2400D02*
Y2500D01*
X48870Y2450D02*
X48970D01*
X48920Y2400D02*
Y2500D01*
X45650Y5300D02*
X45750D01*
X45700Y5250D02*
Y5350D01*
X47630Y7380D02*
X47730D01*
X47680Y7330D02*
Y7430D01*
X48000Y7380D02*
X48100D01*
X48050Y7330D02*
Y7430D01*
X46950Y7740D02*
X47050D01*
X47000Y7690D02*
Y7790D01*
X46610Y6440D02*
X46710D01*
X46660Y6390D02*
Y6490D01*
X47030Y6440D02*
X47130D01*
X47080Y6390D02*
Y6490D01*
X46100Y2790D02*
X46200D01*
X46150Y2740D02*
Y2840D01*
X46610Y6860D02*
X46710D01*
X46660Y6810D02*
Y6910D01*
X47030Y6860D02*
X47130D01*
X47080Y6810D02*
Y6910D01*
X40100Y4010D02*
X40200D01*
X40150Y3960D02*
Y4060D01*
X39280Y2450D02*
X39380D01*
X39330Y2400D02*
Y2500D01*
X42620Y2450D02*
X42720D01*
X42670Y2400D02*
Y2500D01*
X39400Y5300D02*
X39500D01*
X39450Y5250D02*
Y5350D01*
X41380Y7380D02*
X41480D01*
X41430Y7330D02*
Y7430D01*
X41750Y7380D02*
X41850D01*
X41800Y7330D02*
Y7430D01*
X40700Y7740D02*
X40800D01*
X40750Y7690D02*
Y7790D01*
X40360Y6440D02*
X40460D01*
X40410Y6390D02*
Y6490D01*
X40780Y6440D02*
X40880D01*
X40830Y6390D02*
Y6490D01*
X39850Y2790D02*
X39950D01*
X39900Y2740D02*
Y2840D01*
X40360Y6860D02*
X40460D01*
X40410Y6810D02*
Y6910D01*
X40780Y6860D02*
X40880D01*
X40830Y6810D02*
Y6910D01*
X33850Y4010D02*
X33950D01*
X33900Y3960D02*
Y4060D01*
X33030Y2450D02*
X33130D01*
X33080Y2400D02*
Y2500D01*
X36370Y2450D02*
X36470D01*
X36420Y2400D02*
Y2500D01*
X33150Y5300D02*
X33250D01*
X33200Y5250D02*
Y5350D01*
X35130Y7380D02*
X35230D01*
X35180Y7330D02*
Y7430D01*
X35500Y7380D02*
X35600D01*
X35550Y7330D02*
Y7430D01*
X34450Y7740D02*
X34550D01*
X34500Y7690D02*
Y7790D01*
X34110Y6440D02*
X34210D01*
X34160Y6390D02*
Y6490D01*
X34530Y6440D02*
X34630D01*
X34580Y6390D02*
Y6490D01*
X33600Y2790D02*
X33700D01*
X33650Y2740D02*
Y2840D01*
X34110Y6860D02*
X34210D01*
X34160Y6810D02*
Y6910D01*
X34530Y6860D02*
X34630D01*
X34580Y6810D02*
Y6910D01*
X27600Y4010D02*
X27700D01*
X27650Y3960D02*
Y4060D01*
X26780Y2450D02*
X26880D01*
X26830Y2400D02*
Y2500D01*
X30120Y2450D02*
X30220D01*
X30170Y2400D02*
Y2500D01*
X26900Y5300D02*
X27000D01*
X26950Y5250D02*
Y5350D01*
X28880Y7380D02*
X28980D01*
X28930Y7330D02*
Y7430D01*
X29250Y7380D02*
X29350D01*
X29300Y7330D02*
Y7430D01*
X28200Y7740D02*
X28300D01*
X28250Y7690D02*
Y7790D01*
X27860Y6440D02*
X27960D01*
X27910Y6390D02*
Y6490D01*
X28280Y6440D02*
X28380D01*
X28330Y6390D02*
Y6490D01*
X27350Y2790D02*
X27450D01*
X27400Y2740D02*
Y2840D01*
X27860Y6860D02*
X27960D01*
X27910Y6810D02*
Y6910D01*
X28280Y6860D02*
X28380D01*
X28330Y6810D02*
Y6910D01*
X15780Y6860D02*
X15880D01*
X15830Y6810D02*
Y6910D01*
X15360Y6860D02*
X15460D01*
X15410Y6810D02*
Y6910D01*
X14850Y2790D02*
X14950D01*
X14900Y2740D02*
Y2840D01*
X15780Y6440D02*
X15880D01*
X15830Y6390D02*
Y6490D01*
X15360Y6440D02*
X15460D01*
X15410Y6390D02*
Y6490D01*
X15700Y7740D02*
X15800D01*
X15750Y7690D02*
Y7790D01*
X16750Y7380D02*
X16850D01*
X16800Y7330D02*
Y7430D01*
X16380Y7380D02*
X16480D01*
X16430Y7330D02*
Y7430D01*
X14400Y5300D02*
X14500D01*
X14450Y5250D02*
Y5350D01*
X17620Y2450D02*
X17720D01*
X17670Y2400D02*
Y2500D01*
X14280Y2450D02*
X14380D01*
X14330Y2400D02*
Y2500D01*
X15100Y4010D02*
X15200D01*
X15150Y3960D02*
Y4060D01*
X21350Y4010D02*
X21450D01*
X21400Y3960D02*
Y4060D01*
X20530Y2450D02*
X20630D01*
X20580Y2400D02*
Y2500D01*
X23870Y2450D02*
X23970D01*
X23920Y2400D02*
Y2500D01*
X20650Y5300D02*
X20750D01*
X20700Y5250D02*
Y5350D01*
X22630Y7380D02*
X22730D01*
X22680Y7330D02*
Y7430D01*
X23000Y7380D02*
X23100D01*
X23050Y7330D02*
Y7430D01*
X21610Y6440D02*
X21710D01*
X21660Y6390D02*
Y6490D01*
X22030Y6440D02*
X22130D01*
X22080Y6390D02*
Y6490D01*
X21100Y2790D02*
X21200D01*
X21150Y2740D02*
Y2840D01*
X21610Y6860D02*
X21710D01*
X21660Y6810D02*
Y6910D01*
X22030Y6860D02*
X22130D01*
X22080Y6810D02*
Y6910D01*
X40480Y9200D02*
X40580D01*
X40530Y9150D02*
Y9250D01*
X8410Y8870D02*
X8510D01*
X8460Y8820D02*
Y8920D01*
X9230Y9200D02*
X9330D01*
X9280Y9150D02*
Y9250D01*
X8570Y12070D02*
X8670D01*
X8620Y12020D02*
Y12120D01*
X9030Y12070D02*
X9130D01*
X9080Y12020D02*
Y12120D01*
X8600Y11430D02*
X8700D01*
X8650Y11380D02*
Y11480D01*
X9000Y11430D02*
X9100D01*
X9050Y11380D02*
Y11480D01*
X8600Y9670D02*
X8700D01*
X8650Y9620D02*
Y9720D01*
X9000Y9670D02*
X9100D01*
X9050Y9620D02*
Y9720D01*
X46500Y9670D02*
X46600D01*
X46550Y9620D02*
Y9720D01*
X46100Y9670D02*
X46200D01*
X46150Y9620D02*
Y9720D01*
X46500Y11430D02*
X46600D01*
X46550Y11380D02*
Y11480D01*
X46100Y11430D02*
X46200D01*
X46150Y11380D02*
Y11480D01*
X46530Y12070D02*
X46630D01*
X46580Y12020D02*
Y12120D01*
X46070Y12070D02*
X46170D01*
X46120Y12020D02*
Y12120D01*
X46730Y9200D02*
X46830D01*
X46780Y9150D02*
Y9250D01*
X45910Y8870D02*
X46010D01*
X45960Y8820D02*
Y8920D01*
X52750Y9670D02*
X52850D01*
X52800Y9620D02*
Y9720D01*
X52350Y9670D02*
X52450D01*
X52400Y9620D02*
Y9720D01*
X52750Y11430D02*
X52850D01*
X52800Y11380D02*
Y11480D01*
X52350Y11430D02*
X52450D01*
X52400Y11380D02*
Y11480D01*
X52780Y12070D02*
X52880D01*
X52830Y12020D02*
Y12120D01*
X52320Y12070D02*
X52420D01*
X52370Y12020D02*
Y12120D01*
X40250Y9670D02*
X40350D01*
X40300Y9620D02*
Y9720D01*
X39850Y9670D02*
X39950D01*
X39900Y9620D02*
Y9720D01*
X40250Y11430D02*
X40350D01*
X40300Y11380D02*
Y11480D01*
X39850Y11430D02*
X39950D01*
X39900Y11380D02*
Y11480D01*
X40280Y12070D02*
X40380D01*
X40330Y12020D02*
Y12120D01*
X39820Y12070D02*
X39920D01*
X39870Y12020D02*
Y12120D01*
X39660Y8870D02*
X39760D01*
X39710Y8820D02*
Y8920D01*
X34000Y9670D02*
X34100D01*
X34050Y9620D02*
Y9720D01*
X33600Y9670D02*
X33700D01*
X33650Y9620D02*
Y9720D01*
X34000Y11430D02*
X34100D01*
X34050Y11380D02*
Y11480D01*
X33600Y11430D02*
X33700D01*
X33650Y11380D02*
Y11480D01*
X34030Y12070D02*
X34130D01*
X34080Y12020D02*
Y12120D01*
X33570Y12070D02*
X33670D01*
X33620Y12020D02*
Y12120D01*
X34230Y9200D02*
X34330D01*
X34280Y9150D02*
Y9250D01*
X33410Y8870D02*
X33510D01*
X33460Y8820D02*
Y8920D01*
X27750Y9670D02*
X27850D01*
X27800Y9620D02*
Y9720D01*
X27350Y9670D02*
X27450D01*
X27400Y9620D02*
Y9720D01*
X27750Y11430D02*
X27850D01*
X27800Y11380D02*
Y11480D01*
X27350Y11430D02*
X27450D01*
X27400Y11380D02*
Y11480D01*
X27780Y12070D02*
X27880D01*
X27830Y12020D02*
Y12120D01*
X27320Y12070D02*
X27420D01*
X27370Y12020D02*
Y12120D01*
X27980Y9200D02*
X28080D01*
X28030Y9150D02*
Y9250D01*
X27160Y8870D02*
X27260D01*
X27210Y8820D02*
Y8920D01*
X20910Y8870D02*
X21010D01*
X20960Y8820D02*
Y8920D01*
X21730Y9200D02*
X21830D01*
X21780Y9150D02*
Y9250D01*
X21070Y12070D02*
X21170D01*
X21120Y12020D02*
Y12120D01*
X21530Y12070D02*
X21630D01*
X21580Y12020D02*
Y12120D01*
X21100Y11430D02*
X21200D01*
X21150Y11380D02*
Y11480D01*
X21500Y11430D02*
X21600D01*
X21550Y11380D02*
Y11480D01*
X21100Y9670D02*
X21200D01*
X21150Y9620D02*
Y9720D01*
X21500Y9670D02*
X21600D01*
X21550Y9620D02*
Y9720D01*
X15250Y11430D02*
X15350D01*
X15300Y11380D02*
Y11480D01*
X14850Y11430D02*
X14950D01*
X14900Y11380D02*
Y11480D01*
X14850Y9670D02*
X14950D01*
X14900Y9620D02*
Y9720D01*
X15250Y9670D02*
X15350D01*
X15300Y9620D02*
Y9720D01*
X14660Y8870D02*
X14760D01*
X14710Y8820D02*
Y8920D01*
X15480Y9200D02*
X15580D01*
X15530Y9150D02*
Y9250D01*
X14820Y12070D02*
X14920D01*
X14870Y12020D02*
Y12120D01*
X15280Y12070D02*
X15380D01*
X15330Y12020D02*
Y12120D01*
X117250Y17000D02*
X117350D01*
X117300Y16950D02*
Y17050D01*
X117250Y9500D02*
X117350D01*
X117300Y9450D02*
Y9550D01*
X123700Y74000D02*
X123800D01*
X123750Y73950D02*
Y74050D01*
X123700Y69100D02*
X123800D01*
X123750Y69050D02*
Y69150D01*
X119600Y69000D02*
X119700D01*
X119650Y68950D02*
Y69050D01*
X123700Y71600D02*
X123800D01*
X123750Y71550D02*
Y71650D01*
X119600D02*
X119700D01*
X119650Y71600D02*
Y71700D01*
X119600Y74000D02*
X119700D01*
X119650Y73950D02*
Y74050D01*
X115500Y71700D02*
X115600D01*
X115550Y71650D02*
Y71750D01*
X115500Y74000D02*
X115600D01*
X115550Y73950D02*
Y74050D01*
X124200Y42550D02*
X124300D01*
X124250Y42500D02*
Y42600D01*
X121800Y47850D02*
X121900D01*
X121850Y47800D02*
Y47900D01*
X124200Y51100D02*
X124300D01*
X124250Y51050D02*
Y51150D01*
X124200Y59350D02*
X124300D01*
X124250Y59300D02*
Y59400D01*
X121800Y56050D02*
X121900D01*
X121850Y56000D02*
Y56100D01*
X121800Y63229D02*
X121900D01*
X121850Y63179D02*
Y63279D01*
X95895Y50693D02*
X95974D01*
X95935Y50654D02*
Y50732D01*
X95462Y50693D02*
X95541D01*
X95502Y50654D02*
Y50732D01*
X95895Y51126D02*
X95974D01*
X95935Y51087D02*
Y51165D01*
X95462Y51126D02*
X95541D01*
X95502Y51087D02*
Y51165D01*
X88545Y50693D02*
X88624D01*
X88585Y50654D02*
Y50732D01*
X88112Y50693D02*
X88191D01*
X88152Y50654D02*
Y50732D01*
X88545Y51126D02*
X88624D01*
X88585Y51087D02*
Y51165D01*
X88112Y51126D02*
X88191D01*
X88152Y51087D02*
Y51165D01*
X88827Y60783D02*
X88906D01*
X88867Y60744D02*
Y60823D01*
X88827Y61217D02*
X88906D01*
X88867Y61177D02*
Y61256D01*
X88394Y60783D02*
X88473D01*
X88433Y60744D02*
Y60823D01*
X88394Y61217D02*
X88473D01*
X88433Y61177D02*
Y61256D01*
X102878Y66238D02*
X102956D01*
X102917Y66198D02*
Y66277D01*
X102878Y65805D02*
X102956D01*
X102917Y65765D02*
Y65844D01*
X102878Y65372D02*
X102956D01*
X102917Y65332D02*
Y65411D01*
X103311Y66238D02*
X103389D01*
X103350Y66198D02*
Y66277D01*
X103311Y65805D02*
X103389D01*
X103350Y65765D02*
Y65844D01*
X103311Y65372D02*
X103389D01*
X103350Y65332D02*
Y65411D01*
X103744Y66238D02*
X103822D01*
X103783Y66198D02*
Y66277D01*
X103744Y65805D02*
X103822D01*
X103783Y65765D02*
Y65844D01*
X103744Y65372D02*
X103822D01*
X103783Y65332D02*
Y65411D01*
X46884Y48284D02*
X46984D01*
X46934Y48234D02*
Y48334D01*
X46884Y48717D02*
X46984D01*
X46934Y48667D02*
Y48767D01*
X46884Y49150D02*
X46984D01*
X46934Y49100D02*
Y49200D01*
X46884Y49583D02*
X46984D01*
X46934Y49533D02*
Y49633D01*
X46884Y50016D02*
X46984D01*
X46934Y49966D02*
Y50066D01*
X47317Y48284D02*
X47417D01*
X47367Y48234D02*
Y48334D01*
X47317Y48717D02*
X47417D01*
X47367Y48667D02*
Y48767D01*
X47317Y49150D02*
X47417D01*
X47367Y49100D02*
Y49200D01*
X47317Y49583D02*
X47417D01*
X47367Y49533D02*
Y49633D01*
X47317Y50016D02*
X47417D01*
X47367Y49966D02*
Y50066D01*
X47750Y48284D02*
X47850D01*
X47800Y48234D02*
Y48334D01*
X47750Y48717D02*
X47850D01*
X47800Y48667D02*
Y48767D01*
X47750Y49150D02*
X47850D01*
X47800Y49100D02*
Y49200D01*
X47750Y49583D02*
X47850D01*
X47800Y49533D02*
Y49633D01*
X47750Y50016D02*
X47850D01*
X47800Y49966D02*
Y50066D01*
X48183Y48284D02*
X48283D01*
X48233Y48234D02*
Y48334D01*
X48183Y48717D02*
X48283D01*
X48233Y48667D02*
Y48767D01*
X48183Y49150D02*
X48283D01*
X48233Y49100D02*
Y49200D01*
X48183Y49583D02*
X48283D01*
X48233Y49533D02*
Y49633D01*
X48183Y50016D02*
X48283D01*
X48233Y49966D02*
Y50066D01*
X48616Y48284D02*
X48716D01*
X48666Y48234D02*
Y48334D01*
X48616Y48717D02*
X48716D01*
X48666Y48667D02*
Y48767D01*
X48616Y49150D02*
X48716D01*
X48666Y49100D02*
Y49200D01*
X48616Y49583D02*
X48716D01*
X48666Y49533D02*
Y49633D01*
X48616Y50016D02*
X48716D01*
X48666Y49966D02*
Y50066D01*
X21365Y64150D02*
X21444D01*
X21404Y64111D02*
Y64189D01*
X20656Y64150D02*
X20735D01*
X20696Y64111D02*
Y64189D01*
X21011Y64357D02*
X21089D01*
X21050Y64317D02*
Y64396D01*
X21011Y63943D02*
X21089D01*
X21050Y63904D02*
Y63983D01*
X15415Y64150D02*
X15494D01*
X15454Y64111D02*
Y64189D01*
X14706Y64150D02*
X14785D01*
X14746Y64111D02*
Y64189D01*
X15061Y64357D02*
X15139D01*
X15100Y64317D02*
Y64396D01*
X15061Y63943D02*
X15139D01*
X15100Y63904D02*
Y63983D01*
X57857Y19797D02*
X57936D01*
X57897Y19757D02*
Y19836D01*
X57464Y19797D02*
X57543D01*
X57503Y19757D02*
Y19836D01*
X57857Y19403D02*
X57936D01*
X57897Y19364D02*
Y19443D01*
X57464Y19403D02*
X57543D01*
X57503Y19364D02*
Y19443D01*
M02*
