G04*
G04 #@! TF.GenerationSoftware,Altium Limited,Altium Designer,22.6.1 (34)*
G04*
G04 Layer_Color=8388736*
%FSLAX23Y23*%
%MOIN*%
G70*
G04*
G04 #@! TF.SameCoordinates,48DA0B1C-91FB-4976-8A67-4949CEA53551*
G04*
G04*
G04 #@! TF.FilePolarity,Negative*
G04*
G01*
G75*
%ADD32R,0.071X0.039*%
%ADD37R,0.001X0.001*%
%ADD38R,0.012X0.032*%
%ADD39R,0.032X0.012*%
%ADD40R,0.020X0.022*%
%ADD41R,0.014X0.079*%
%ADD50R,0.030X0.035*%
%ADD51R,0.020X0.020*%
%ADD55R,0.022X0.020*%
%ADD57R,0.024X0.031*%
%ADD59R,0.020X0.020*%
%ADD61R,0.019X0.011*%
%ADD62R,0.052X0.023*%
%ADD71R,0.040X0.015*%
%ADD72R,0.015X0.040*%
%ADD73R,0.059X0.205*%
%ADD74R,0.063X0.193*%
%ADD81R,0.035X0.030*%
%ADD85R,0.026X0.009*%
%ADD88R,0.011X0.019*%
%ADD89R,0.051X0.018*%
%ADD92R,0.001X0.001*%
%ADD97R,0.039X0.022*%
%ADD100R,0.024X0.024*%
%ADD103R,0.031X0.059*%
%ADD104R,0.057X0.079*%
%ADD105R,0.010X0.020*%
%ADD106R,0.010X0.006*%
%ADD110R,0.044X0.024*%
%ADD111R,0.053X0.042*%
%ADD119R,0.125X0.125*%
%ADD120O,0.016X0.043*%
%ADD121O,0.043X0.016*%
%ADD122R,0.225X0.225*%
%ADD123R,0.039X0.045*%
%ADD124R,0.036X0.043*%
%ADD125R,0.128X0.128*%
%ADD126R,0.043X0.036*%
%ADD127R,0.026X0.030*%
%ADD128R,0.034X0.032*%
%ADD129R,0.018X0.019*%
%ADD130R,0.019X0.018*%
%ADD131R,0.053X0.065*%
%ADD132R,0.022X0.028*%
%ADD133R,0.031X0.032*%
%ADD134R,0.030X0.026*%
%ADD135R,0.031X0.034*%
%ADD136R,0.055X0.047*%
%ADD137R,0.132X0.132*%
%ADD138R,0.010X0.016*%
%ADD139R,0.016X0.010*%
%ADD140R,0.032X0.034*%
%ADD141R,0.063X0.044*%
%ADD142R,0.063X0.053*%
%ADD143R,0.057X0.077*%
%ADD144R,0.045X0.039*%
%ADD145O,0.058X0.017*%
%ADD146R,0.094X0.094*%
%ADD147R,0.028X0.036*%
%ADD148R,0.020X0.036*%
G04:AMPARAMS|DCode=149|XSize=30mil|YSize=39mil|CornerRadius=6mil|HoleSize=0mil|Usage=FLASHONLY|Rotation=90.000|XOffset=0mil|YOffset=0mil|HoleType=Round|Shape=RoundedRectangle|*
%AMROUNDEDRECTD149*
21,1,0.030,0.028,0,0,90.0*
21,1,0.018,0.039,0,0,90.0*
1,1,0.012,0.014,0.009*
1,1,0.012,0.014,-0.009*
1,1,0.012,-0.014,-0.009*
1,1,0.012,-0.014,0.009*
%
%ADD149ROUNDEDRECTD149*%
G04:AMPARAMS|DCode=150|XSize=16mil|YSize=26mil|CornerRadius=6mil|HoleSize=0mil|Usage=FLASHONLY|Rotation=0.000|XOffset=0mil|YOffset=0mil|HoleType=Round|Shape=RoundedRectangle|*
%AMROUNDEDRECTD150*
21,1,0.016,0.014,0,0,0.0*
21,1,0.004,0.026,0,0,0.0*
1,1,0.012,0.002,-0.007*
1,1,0.012,-0.002,-0.007*
1,1,0.012,-0.002,0.007*
1,1,0.012,0.002,0.007*
%
%ADD150ROUNDEDRECTD150*%
%ADD151R,0.032X0.030*%
%ADD152R,0.036X0.028*%
%ADD153R,0.091X0.091*%
%ADD154R,0.028X0.022*%
%ADD155R,0.067X0.020*%
%ADD156R,0.020X0.067*%
%ADD157R,0.030X0.032*%
%ADD158R,0.032X0.049*%
%ADD159R,0.213X0.213*%
%ADD160O,0.043X0.018*%
%ADD161O,0.018X0.043*%
%ADD162R,0.057X0.032*%
%ADD163R,0.101X0.070*%
%ADD164R,0.022X0.036*%
%ADD165R,0.063X0.020*%
%ADD166R,0.051X0.032*%
%ADD167R,0.094X0.094*%
%ADD168R,0.032X0.031*%
%ADD169R,0.036X0.020*%
%ADD170R,0.051X0.047*%
%ADD171R,0.030X0.045*%
%ADD172R,0.019X0.018*%
%ADD173R,0.185X0.189*%
%ADD174R,0.032X0.034*%
%ADD175R,0.116X0.047*%
%ADD176R,0.047X0.049*%
%ADD177R,0.059X0.022*%
%ADD178R,0.053X0.063*%
G04:AMPARAMS|DCode=179|XSize=16mil|YSize=26mil|CornerRadius=6mil|HoleSize=0mil|Usage=FLASHONLY|Rotation=90.000|XOffset=0mil|YOffset=0mil|HoleType=Round|Shape=RoundedRectangle|*
%AMROUNDEDRECTD179*
21,1,0.016,0.014,0,0,90.0*
21,1,0.004,0.026,0,0,90.0*
1,1,0.012,0.007,0.002*
1,1,0.012,0.007,-0.002*
1,1,0.012,-0.007,-0.002*
1,1,0.012,-0.007,0.002*
%
%ADD179ROUNDEDRECTD179*%
%ADD180R,0.038X0.045*%
%ADD181R,0.043X0.047*%
%ADD182R,0.032X0.045*%
%ADD183R,0.041X0.043*%
%ADD184R,0.045X0.030*%
%ADD185R,0.030X0.045*%
%ADD186C,0.308*%
%ADD187R,0.076X0.076*%
%ADD188C,0.028*%
%ADD189C,0.096*%
%ADD190C,0.087*%
%ADD191R,0.055X0.055*%
%ADD192C,0.055*%
%ADD193C,0.031*%
G04:AMPARAMS|DCode=194|XSize=57mil|YSize=79mil|CornerRadius=29mil|HoleSize=0mil|Usage=FLASHONLY|Rotation=90.000|XOffset=0mil|YOffset=0mil|HoleType=Round|Shape=RoundedRectangle|*
%AMROUNDEDRECTD194*
21,1,0.057,0.022,0,0,90.0*
21,1,0.000,0.079,0,0,90.0*
1,1,0.057,0.011,0.000*
1,1,0.057,0.011,0.000*
1,1,0.057,-0.011,0.000*
1,1,0.057,-0.011,0.000*
%
%ADD194ROUNDEDRECTD194*%
G04:AMPARAMS|DCode=195|XSize=45mil|YSize=71mil|CornerRadius=23mil|HoleSize=0mil|Usage=FLASHONLY|Rotation=90.000|XOffset=0mil|YOffset=0mil|HoleType=Round|Shape=RoundedRectangle|*
%AMROUNDEDRECTD195*
21,1,0.045,0.026,0,0,90.0*
21,1,0.000,0.071,0,0,90.0*
1,1,0.045,0.013,0.000*
1,1,0.045,0.013,0.000*
1,1,0.045,-0.013,0.000*
1,1,0.045,-0.013,0.000*
%
%ADD195ROUNDEDRECTD195*%
%ADD196C,0.055*%
%ADD197C,0.162*%
%ADD198C,0.073*%
%ADD199R,0.073X0.073*%
%ADD200C,0.068*%
G04:AMPARAMS|DCode=201|XSize=71mil|YSize=128mil|CornerRadius=20mil|HoleSize=0mil|Usage=FLASHONLY|Rotation=90.000|XOffset=0mil|YOffset=0mil|HoleType=Round|Shape=RoundedRectangle|*
%AMROUNDEDRECTD201*
21,1,0.071,0.089,0,0,90.0*
21,1,0.031,0.128,0,0,90.0*
1,1,0.039,0.044,0.016*
1,1,0.039,0.044,-0.016*
1,1,0.039,-0.044,-0.016*
1,1,0.039,-0.044,0.016*
%
%ADD201ROUNDEDRECTD201*%
%ADD202C,0.037*%
%ADD203C,0.091*%
%ADD204C,0.063*%
%ADD205C,0.108*%
%ADD206C,0.118*%
%ADD207C,0.051*%
%ADD208C,0.132*%
%ADD209C,0.102*%
%ADD210C,0.068*%
%ADD211C,0.063*%
G04:AMPARAMS|DCode=212|XSize=63mil|YSize=63mil|CornerRadius=18mil|HoleSize=0mil|Usage=FLASHONLY|Rotation=270.000|XOffset=0mil|YOffset=0mil|HoleType=Round|Shape=RoundedRectangle|*
%AMROUNDEDRECTD212*
21,1,0.063,0.028,0,0,270.0*
21,1,0.028,0.063,0,0,270.0*
1,1,0.036,-0.014,-0.014*
1,1,0.036,-0.014,0.014*
1,1,0.036,0.014,0.014*
1,1,0.036,0.014,-0.014*
%
%ADD212ROUNDEDRECTD212*%
%ADD213C,0.030*%
%ADD214C,0.033*%
%ADD215C,0.028*%
%ADD216C,0.048*%
%ADD217C,0.027*%
%ADD218C,0.036*%
%ADD219C,0.038*%
G36*
X6610Y5333D02*
X6610Y5210D01*
X6530D01*
Y5336D01*
X6607Y5336D01*
X6610Y5333D01*
D02*
G37*
G36*
X5645Y4670D02*
X5645Y4547D01*
X5565D01*
Y4674D01*
X5642Y4674D01*
X5645Y4670D01*
D02*
G37*
G36*
X3996Y4546D02*
X3921Y4546D01*
X3918Y4550D01*
X3918Y4670D01*
X3996Y4670D01*
Y4546D01*
D02*
G37*
G36*
X932Y3861D02*
X852Y3861D01*
X849Y3865D01*
X849Y3985D01*
X932Y3985D01*
Y3861D01*
D02*
G37*
G36*
X3879Y3426D02*
X3802Y3426D01*
X3798Y3430D01*
X3798Y3550D01*
X3879D01*
Y3426D01*
D02*
G37*
G36*
X1653Y2695D02*
X1574Y2695D01*
X1571Y2698D01*
X1571Y2819D01*
X1653Y2819D01*
Y2695D01*
D02*
G37*
G36*
X4200Y2028D02*
Y2013D01*
Y1997D01*
Y1970D01*
X4130D01*
Y1997D01*
Y2013D01*
Y2028D01*
Y2040D01*
X4200D01*
Y2028D01*
D02*
G37*
G36*
X5806Y1911D02*
X5736Y1911D01*
X5733Y1914D01*
Y2009D01*
X5806D01*
X5806Y1911D01*
D02*
G37*
G36*
X5295Y1078D02*
Y1063D01*
Y1047D01*
Y1020D01*
X5225D01*
Y1032D01*
Y1047D01*
Y1063D01*
Y1078D01*
Y1090D01*
X5295D01*
Y1078D01*
D02*
G37*
G36*
X4670D02*
Y1063D01*
Y1047D01*
Y1020D01*
X4600D01*
Y1032D01*
Y1047D01*
Y1063D01*
Y1078D01*
Y1090D01*
X4670D01*
Y1078D01*
D02*
G37*
G36*
X4045D02*
Y1063D01*
Y1047D01*
Y1020D01*
X3975D01*
Y1032D01*
Y1047D01*
Y1063D01*
Y1078D01*
Y1090D01*
X4045D01*
Y1078D01*
D02*
G37*
G36*
X3420D02*
Y1063D01*
Y1047D01*
Y1020D01*
X3350D01*
Y1047D01*
Y1063D01*
Y1078D01*
Y1090D01*
X3420D01*
Y1078D01*
D02*
G37*
G36*
X2795D02*
Y1063D01*
Y1047D01*
Y1020D01*
X2725D01*
Y1032D01*
Y1047D01*
Y1063D01*
Y1078D01*
Y1090D01*
X2795D01*
Y1078D01*
D02*
G37*
G36*
X2170D02*
Y1063D01*
Y1047D01*
Y1020D01*
X2100D01*
Y1032D01*
Y1047D01*
Y1063D01*
Y1078D01*
Y1090D01*
X2170D01*
Y1078D01*
D02*
G37*
G36*
X1545D02*
Y1063D01*
Y1047D01*
Y1020D01*
X1475D01*
Y1047D01*
Y1063D01*
Y1078D01*
Y1090D01*
X1545D01*
Y1078D01*
D02*
G37*
G36*
X920D02*
Y1063D01*
Y1047D01*
Y1020D01*
X850D01*
Y1047D01*
Y1063D01*
Y1078D01*
Y1090D01*
X920D01*
Y1078D01*
D02*
G37*
%LPC*%
G36*
X4188Y2028D02*
X4173D01*
Y2013D01*
X4188D01*
Y2028D01*
D02*
G37*
G36*
X4157D02*
X4142D01*
Y2013D01*
X4157D01*
Y2028D01*
D02*
G37*
G36*
X4188Y1997D02*
X4173D01*
Y1982D01*
X4188D01*
Y1997D01*
D02*
G37*
G36*
X4157D02*
X4142D01*
Y1982D01*
X4157D01*
Y1997D01*
D02*
G37*
G36*
X5283Y1078D02*
X5268D01*
Y1063D01*
X5283D01*
Y1078D01*
D02*
G37*
G36*
X5252D02*
X5237D01*
Y1063D01*
X5252D01*
Y1078D01*
D02*
G37*
G36*
X5283Y1047D02*
X5268D01*
Y1032D01*
X5283D01*
Y1047D01*
D02*
G37*
G36*
X5252D02*
X5237D01*
Y1032D01*
X5252D01*
Y1047D01*
D02*
G37*
G36*
X4658Y1078D02*
X4643D01*
Y1063D01*
X4658D01*
Y1078D01*
D02*
G37*
G36*
X4627D02*
X4612D01*
Y1063D01*
X4627D01*
Y1078D01*
D02*
G37*
G36*
X4658Y1047D02*
X4643D01*
Y1032D01*
X4658D01*
Y1047D01*
D02*
G37*
G36*
X4627D02*
X4612D01*
Y1032D01*
X4627D01*
Y1047D01*
D02*
G37*
G36*
X4033Y1078D02*
X4018D01*
Y1063D01*
X4033D01*
Y1078D01*
D02*
G37*
G36*
X4002D02*
X3987D01*
Y1063D01*
X4002D01*
Y1078D01*
D02*
G37*
G36*
X4033Y1047D02*
X4018D01*
Y1032D01*
X4033D01*
Y1047D01*
D02*
G37*
G36*
X4002D02*
X3987D01*
Y1032D01*
X4002D01*
Y1047D01*
D02*
G37*
G36*
X3408Y1078D02*
X3393D01*
Y1063D01*
X3408D01*
Y1078D01*
D02*
G37*
G36*
X3377D02*
X3362D01*
Y1063D01*
X3377D01*
Y1078D01*
D02*
G37*
G36*
X3408Y1047D02*
X3393D01*
Y1032D01*
X3408D01*
Y1047D01*
D02*
G37*
G36*
X3377D02*
X3362D01*
Y1032D01*
X3377D01*
Y1047D01*
D02*
G37*
G36*
X2783Y1078D02*
X2768D01*
Y1063D01*
X2783D01*
Y1078D01*
D02*
G37*
G36*
X2752D02*
X2737D01*
Y1063D01*
X2752D01*
Y1078D01*
D02*
G37*
G36*
X2783Y1047D02*
X2768D01*
Y1032D01*
X2783D01*
Y1047D01*
D02*
G37*
G36*
X2752D02*
X2737D01*
Y1032D01*
X2752D01*
Y1047D01*
D02*
G37*
G36*
X2158Y1078D02*
X2143D01*
Y1063D01*
X2158D01*
Y1078D01*
D02*
G37*
G36*
X2127D02*
X2112D01*
Y1063D01*
X2127D01*
Y1078D01*
D02*
G37*
G36*
X2158Y1047D02*
X2143D01*
Y1032D01*
X2158D01*
Y1047D01*
D02*
G37*
G36*
X2127D02*
X2112D01*
Y1032D01*
X2127D01*
Y1047D01*
D02*
G37*
G36*
X1533Y1078D02*
X1518D01*
Y1063D01*
X1533D01*
Y1078D01*
D02*
G37*
G36*
X1502D02*
X1487D01*
Y1063D01*
X1502D01*
Y1078D01*
D02*
G37*
G36*
X1533Y1047D02*
X1518D01*
Y1032D01*
X1533D01*
Y1047D01*
D02*
G37*
G36*
X1502D02*
X1487D01*
Y1032D01*
X1502D01*
Y1047D01*
D02*
G37*
G36*
X908Y1078D02*
X893D01*
Y1063D01*
X908D01*
Y1078D01*
D02*
G37*
G36*
X877D02*
X862D01*
Y1063D01*
X877D01*
Y1078D01*
D02*
G37*
G36*
X908Y1047D02*
X893D01*
Y1032D01*
X908D01*
Y1047D01*
D02*
G37*
G36*
X877D02*
X862D01*
Y1032D01*
X877D01*
Y1047D01*
D02*
G37*
%LPD*%
D32*
X9840Y3081D02*
D03*
X5522Y1947D02*
D03*
X1992Y5215D02*
D03*
X11000Y1650D02*
D03*
X2230Y5105D02*
D03*
X2260Y4580D02*
D03*
X2255Y5235D02*
D03*
X1450Y5180D02*
D03*
X1770Y4990D02*
D03*
X2120Y5180D02*
D03*
X2205Y4831D02*
D03*
X2125Y4610D02*
D03*
X2010Y4620D02*
D03*
X5200Y5490D02*
D03*
X8510Y2805D02*
D03*
X6034Y5307D02*
D03*
X9840Y3700D02*
D03*
X11000Y3081D02*
D03*
X2190Y2634D02*
D03*
X4385Y4480D02*
D03*
X5175Y4745D02*
D03*
X4255Y5040D02*
D03*
X11000Y3630D02*
D03*
X3370Y3535D02*
D03*
X1345Y3845D02*
D03*
X9840Y2400D02*
D03*
X11000D02*
D03*
X9840Y1650D02*
D03*
D37*
X4635Y1055D02*
D03*
X5260D02*
D03*
X3385D02*
D03*
X885D02*
D03*
X4010D02*
D03*
X2760D02*
D03*
X2135D02*
D03*
X1510D02*
D03*
D38*
X2549Y3621D02*
D03*
X2529D02*
D03*
X2510D02*
D03*
X2490D02*
D03*
X2470D02*
D03*
X2450D02*
D03*
X2431D02*
D03*
X2411D02*
D03*
Y3809D02*
D03*
X2431D02*
D03*
X2450D02*
D03*
X2470D02*
D03*
X2490D02*
D03*
X2510D02*
D03*
X2529D02*
D03*
X2549D02*
D03*
X4665Y997D02*
D03*
X4645D02*
D03*
X4625D02*
D03*
X4605D02*
D03*
Y1113D02*
D03*
X4625D02*
D03*
X4645D02*
D03*
X4665D02*
D03*
X5290Y997D02*
D03*
X5270D02*
D03*
X5250D02*
D03*
X5230D02*
D03*
Y1113D02*
D03*
X5250D02*
D03*
X5270D02*
D03*
X5290D02*
D03*
X3415Y997D02*
D03*
X3395D02*
D03*
X3375D02*
D03*
X3355D02*
D03*
Y1113D02*
D03*
X3375D02*
D03*
X3395D02*
D03*
X3415D02*
D03*
X915Y997D02*
D03*
X895D02*
D03*
X875D02*
D03*
X855D02*
D03*
Y1113D02*
D03*
X875D02*
D03*
X895D02*
D03*
X915D02*
D03*
X4195Y1947D02*
D03*
X4175D02*
D03*
X4155D02*
D03*
X4135D02*
D03*
Y2063D02*
D03*
X4155D02*
D03*
X4175D02*
D03*
X4195D02*
D03*
X4040Y1113D02*
D03*
X4020D02*
D03*
X4000D02*
D03*
X3980D02*
D03*
Y997D02*
D03*
X4000D02*
D03*
X4020D02*
D03*
X4040D02*
D03*
X2790Y1113D02*
D03*
X2770D02*
D03*
X2750D02*
D03*
X2730D02*
D03*
Y997D02*
D03*
X2750D02*
D03*
X2770D02*
D03*
X2790D02*
D03*
X2165Y1113D02*
D03*
X2145D02*
D03*
X2125D02*
D03*
X2105D02*
D03*
Y997D02*
D03*
X2125D02*
D03*
X2145D02*
D03*
X2165D02*
D03*
X1540Y1113D02*
D03*
X1520D02*
D03*
X1500D02*
D03*
X1480D02*
D03*
Y997D02*
D03*
X1500D02*
D03*
X1520D02*
D03*
X1540D02*
D03*
D39*
X2385Y3646D02*
D03*
Y3666D02*
D03*
Y3685D02*
D03*
Y3705D02*
D03*
Y3725D02*
D03*
Y3745D02*
D03*
Y3764D02*
D03*
Y3784D02*
D03*
X2575D02*
D03*
Y3764D02*
D03*
Y3745D02*
D03*
Y3725D02*
D03*
Y3705D02*
D03*
Y3685D02*
D03*
Y3666D02*
D03*
Y3646D02*
D03*
X4577Y1025D02*
D03*
Y1045D02*
D03*
Y1065D02*
D03*
Y1085D02*
D03*
X4693D02*
D03*
Y1065D02*
D03*
Y1045D02*
D03*
Y1025D02*
D03*
X5202D02*
D03*
Y1045D02*
D03*
Y1065D02*
D03*
Y1085D02*
D03*
X5318D02*
D03*
Y1065D02*
D03*
Y1045D02*
D03*
Y1025D02*
D03*
X3327D02*
D03*
Y1045D02*
D03*
Y1065D02*
D03*
Y1085D02*
D03*
X3443D02*
D03*
Y1065D02*
D03*
Y1045D02*
D03*
Y1025D02*
D03*
X827D02*
D03*
Y1045D02*
D03*
Y1065D02*
D03*
Y1085D02*
D03*
X943D02*
D03*
Y1065D02*
D03*
Y1045D02*
D03*
Y1025D02*
D03*
X4223Y2035D02*
D03*
Y2015D02*
D03*
Y1995D02*
D03*
Y1975D02*
D03*
X4107D02*
D03*
Y1995D02*
D03*
Y2015D02*
D03*
Y2035D02*
D03*
X4068Y1025D02*
D03*
Y1045D02*
D03*
Y1065D02*
D03*
Y1085D02*
D03*
X3952D02*
D03*
Y1065D02*
D03*
Y1045D02*
D03*
Y1025D02*
D03*
X2818D02*
D03*
Y1045D02*
D03*
Y1065D02*
D03*
Y1085D02*
D03*
X2702D02*
D03*
Y1065D02*
D03*
Y1045D02*
D03*
Y1025D02*
D03*
X2193D02*
D03*
Y1045D02*
D03*
Y1065D02*
D03*
Y1085D02*
D03*
X2077D02*
D03*
Y1065D02*
D03*
Y1045D02*
D03*
Y1025D02*
D03*
X1568D02*
D03*
Y1045D02*
D03*
Y1065D02*
D03*
Y1085D02*
D03*
X1452D02*
D03*
Y1065D02*
D03*
Y1045D02*
D03*
Y1025D02*
D03*
D40*
X9317Y724D02*
D03*
X9357D02*
D03*
X9315Y399D02*
D03*
X9275D02*
D03*
Y556D02*
D03*
X9315D02*
D03*
Y634D02*
D03*
X9275D02*
D03*
Y477D02*
D03*
X9315D02*
D03*
D41*
X6191Y6089D02*
D03*
X5010D02*
D03*
X5022Y6411D02*
D03*
X5033Y6089D02*
D03*
X5045Y6411D02*
D03*
X5057Y6089D02*
D03*
X5069Y6411D02*
D03*
X5081Y6089D02*
D03*
X5093Y6411D02*
D03*
X5104Y6089D02*
D03*
X5116Y6411D02*
D03*
X5128Y6089D02*
D03*
X5140Y6411D02*
D03*
X5152Y6089D02*
D03*
X5163Y6411D02*
D03*
X5175Y6089D02*
D03*
X5187Y6411D02*
D03*
X5199Y6089D02*
D03*
X5211Y6411D02*
D03*
X5222Y6089D02*
D03*
X5234Y6411D02*
D03*
X5246Y6089D02*
D03*
X5258Y6411D02*
D03*
X5270Y6089D02*
D03*
X5281Y6411D02*
D03*
X5293Y6089D02*
D03*
X5305Y6411D02*
D03*
X5317Y6089D02*
D03*
X5329Y6411D02*
D03*
X5341Y6089D02*
D03*
X5352Y6411D02*
D03*
X5364Y6089D02*
D03*
X5376Y6411D02*
D03*
X5388Y6089D02*
D03*
X5400Y6411D02*
D03*
X5411Y6089D02*
D03*
X5423Y6411D02*
D03*
X5435Y6089D02*
D03*
X5447Y6411D02*
D03*
X5459Y6089D02*
D03*
X5470Y6411D02*
D03*
X5624Y6089D02*
D03*
X5636Y6411D02*
D03*
X5648Y6089D02*
D03*
X5659Y6411D02*
D03*
X5671Y6089D02*
D03*
X5683Y6411D02*
D03*
X5695Y6089D02*
D03*
X5707Y6411D02*
D03*
X5718Y6089D02*
D03*
X5730Y6411D02*
D03*
X5742Y6089D02*
D03*
X5754Y6411D02*
D03*
X5766Y6089D02*
D03*
X5778Y6411D02*
D03*
X5789Y6089D02*
D03*
X5801Y6411D02*
D03*
X5813Y6089D02*
D03*
X5825Y6411D02*
D03*
X5837Y6089D02*
D03*
X5848Y6411D02*
D03*
X5860Y6089D02*
D03*
X5872Y6411D02*
D03*
X5884Y6089D02*
D03*
X5896Y6411D02*
D03*
X5907Y6089D02*
D03*
X5919Y6411D02*
D03*
X5931Y6089D02*
D03*
X5943Y6411D02*
D03*
X5955Y6089D02*
D03*
X5966Y6411D02*
D03*
X5978Y6089D02*
D03*
X5990Y6411D02*
D03*
X6002Y6089D02*
D03*
X6014Y6411D02*
D03*
X6026Y6089D02*
D03*
X6037Y6411D02*
D03*
X6049Y6089D02*
D03*
X6061Y6411D02*
D03*
X6073Y6089D02*
D03*
X6085Y6411D02*
D03*
X6096Y6089D02*
D03*
X6108Y6411D02*
D03*
X6120Y6089D02*
D03*
X6132Y6411D02*
D03*
X6144Y6089D02*
D03*
X6155Y6411D02*
D03*
X6167Y6089D02*
D03*
X6179Y6411D02*
D03*
X6203D02*
D03*
X6214Y6089D02*
D03*
X6226Y6411D02*
D03*
X6238Y6089D02*
D03*
X6250Y6411D02*
D03*
X6262Y6089D02*
D03*
X6274Y6411D02*
D03*
X6285Y6089D02*
D03*
X6297Y6411D02*
D03*
X6309Y6089D02*
D03*
X6321Y6411D02*
D03*
X6333Y6089D02*
D03*
X6344Y6411D02*
D03*
X6356Y6089D02*
D03*
X6368Y6411D02*
D03*
X6380Y6089D02*
D03*
X6392Y6411D02*
D03*
X6403Y6089D02*
D03*
X6415Y6411D02*
D03*
X6427Y6089D02*
D03*
X6439Y6411D02*
D03*
X6451Y6089D02*
D03*
X6462Y6411D02*
D03*
X6474Y6089D02*
D03*
X6486Y6411D02*
D03*
X6498Y6089D02*
D03*
X6510Y6411D02*
D03*
X6522Y6089D02*
D03*
X6533Y6411D02*
D03*
X6545Y6089D02*
D03*
X6557Y6411D02*
D03*
X6569Y6089D02*
D03*
X6581Y6411D02*
D03*
X6592Y6089D02*
D03*
X6604Y6411D02*
D03*
X6616Y6089D02*
D03*
X6628Y6411D02*
D03*
X6640Y6089D02*
D03*
X6651Y6411D02*
D03*
X6663Y6089D02*
D03*
X6675Y6411D02*
D03*
X6687Y6089D02*
D03*
X6699Y6411D02*
D03*
X6710Y6089D02*
D03*
X6722Y6411D02*
D03*
X6734Y6089D02*
D03*
X6746Y6411D02*
D03*
X6758Y6089D02*
D03*
X6770Y6411D02*
D03*
X6781Y6089D02*
D03*
X6793Y6411D02*
D03*
X6805Y6089D02*
D03*
X6817Y6411D02*
D03*
X6829Y6089D02*
D03*
X6840Y6411D02*
D03*
X6852Y6089D02*
D03*
X6864Y6411D02*
D03*
X6876Y6089D02*
D03*
X6888Y6411D02*
D03*
X6899Y6089D02*
D03*
X6911Y6411D02*
D03*
X6923Y6089D02*
D03*
X6935Y6411D02*
D03*
X6947Y6089D02*
D03*
X6959Y6411D02*
D03*
X6970Y6089D02*
D03*
X6982Y6411D02*
D03*
X6994Y6089D02*
D03*
X7006Y6411D02*
D03*
X7018Y6089D02*
D03*
X7029Y6411D02*
D03*
X7041Y6089D02*
D03*
X7053Y6411D02*
D03*
X7065Y6089D02*
D03*
X7077Y6411D02*
D03*
X7088Y6089D02*
D03*
X7100Y6411D02*
D03*
X7112Y6089D02*
D03*
X7124Y6411D02*
D03*
X7136Y6089D02*
D03*
X7147Y6411D02*
D03*
X7159Y6089D02*
D03*
X7171Y6411D02*
D03*
X7183Y6089D02*
D03*
X7195Y6411D02*
D03*
X7207Y6089D02*
D03*
X7218Y6411D02*
D03*
X7230Y6089D02*
D03*
X7242Y6411D02*
D03*
X7254Y6089D02*
D03*
X7266Y6411D02*
D03*
X7277Y6089D02*
D03*
X7289Y6411D02*
D03*
X7301Y6089D02*
D03*
X7313Y6411D02*
D03*
X7325Y6089D02*
D03*
X7336Y6411D02*
D03*
X7348Y6089D02*
D03*
X7360Y6411D02*
D03*
X7372Y6089D02*
D03*
X7384Y6411D02*
D03*
X7395Y6089D02*
D03*
X7407Y6411D02*
D03*
X7419Y6089D02*
D03*
X7431Y6411D02*
D03*
X7443Y6089D02*
D03*
X7455Y6411D02*
D03*
X7466Y6089D02*
D03*
X7478Y6411D02*
D03*
X7490Y6089D02*
D03*
X7502Y6411D02*
D03*
D50*
X9438Y6176D02*
D03*
X9391D02*
D03*
X5084Y5335D02*
D03*
X5036D02*
D03*
D51*
X8150Y638D02*
D03*
Y673D02*
D03*
Y543D02*
D03*
Y578D02*
D03*
Y448D02*
D03*
Y483D02*
D03*
X6980Y448D02*
D03*
Y483D02*
D03*
Y543D02*
D03*
Y578D02*
D03*
X7175Y448D02*
D03*
Y483D02*
D03*
Y543D02*
D03*
Y578D02*
D03*
Y638D02*
D03*
Y673D02*
D03*
X6980Y638D02*
D03*
Y673D02*
D03*
X7565Y448D02*
D03*
Y483D02*
D03*
X7370Y448D02*
D03*
Y483D02*
D03*
Y543D02*
D03*
Y578D02*
D03*
X7565Y543D02*
D03*
Y578D02*
D03*
Y638D02*
D03*
Y673D02*
D03*
X7370Y638D02*
D03*
Y673D02*
D03*
X6590Y448D02*
D03*
Y483D02*
D03*
Y638D02*
D03*
Y673D02*
D03*
Y543D02*
D03*
Y578D02*
D03*
X6785Y448D02*
D03*
Y483D02*
D03*
Y543D02*
D03*
Y578D02*
D03*
Y638D02*
D03*
Y673D02*
D03*
X7760Y448D02*
D03*
Y483D02*
D03*
Y543D02*
D03*
Y578D02*
D03*
Y638D02*
D03*
Y673D02*
D03*
X7955Y638D02*
D03*
Y673D02*
D03*
Y543D02*
D03*
Y578D02*
D03*
Y448D02*
D03*
Y483D02*
D03*
X4470Y4312D02*
D03*
Y4348D02*
D03*
Y4158D02*
D03*
Y4122D02*
D03*
Y4253D02*
D03*
Y4217D02*
D03*
D55*
X9561Y330D02*
D03*
Y290D02*
D03*
X9482Y330D02*
D03*
Y290D02*
D03*
X9639Y330D02*
D03*
Y290D02*
D03*
X9404Y330D02*
D03*
Y290D02*
D03*
D57*
X10084Y516D02*
D03*
X10029D02*
D03*
X4977Y5560D02*
D03*
X5033D02*
D03*
D59*
X2815Y2525D02*
D03*
Y2556D02*
D03*
D61*
X1408Y6357D02*
D03*
Y6318D02*
D03*
X2003D02*
D03*
Y6357D02*
D03*
X2092Y6555D02*
D03*
Y6515D02*
D03*
X1497Y6555D02*
D03*
Y6515D02*
D03*
D62*
X10090Y6427D02*
D03*
Y6353D02*
D03*
X10170Y6390D02*
D03*
D71*
X4760Y703D02*
D03*
Y678D02*
D03*
Y652D02*
D03*
Y627D02*
D03*
X4614D02*
D03*
Y652D02*
D03*
Y678D02*
D03*
Y703D02*
D03*
X5385D02*
D03*
Y678D02*
D03*
Y652D02*
D03*
Y627D02*
D03*
X5239D02*
D03*
Y652D02*
D03*
Y678D02*
D03*
Y703D02*
D03*
X1010D02*
D03*
Y678D02*
D03*
Y652D02*
D03*
Y627D02*
D03*
X864D02*
D03*
Y652D02*
D03*
Y678D02*
D03*
Y703D02*
D03*
X4628Y2093D02*
D03*
Y2068D02*
D03*
Y2042D02*
D03*
Y2017D02*
D03*
X4482D02*
D03*
Y2042D02*
D03*
Y2068D02*
D03*
Y2093D02*
D03*
X3989Y703D02*
D03*
Y678D02*
D03*
Y652D02*
D03*
Y627D02*
D03*
X4135D02*
D03*
Y652D02*
D03*
Y678D02*
D03*
Y703D02*
D03*
X3364D02*
D03*
Y678D02*
D03*
Y652D02*
D03*
Y627D02*
D03*
X3510D02*
D03*
Y652D02*
D03*
Y678D02*
D03*
Y703D02*
D03*
X2739D02*
D03*
Y678D02*
D03*
Y652D02*
D03*
Y627D02*
D03*
X2885D02*
D03*
Y652D02*
D03*
Y678D02*
D03*
Y703D02*
D03*
X2114D02*
D03*
Y678D02*
D03*
Y652D02*
D03*
Y627D02*
D03*
X2260D02*
D03*
Y652D02*
D03*
Y678D02*
D03*
Y703D02*
D03*
X1489D02*
D03*
Y678D02*
D03*
Y652D02*
D03*
Y627D02*
D03*
X1635D02*
D03*
Y652D02*
D03*
Y678D02*
D03*
Y703D02*
D03*
D72*
X4725Y592D02*
D03*
X4699D02*
D03*
X4674D02*
D03*
X4648D02*
D03*
Y738D02*
D03*
X4674D02*
D03*
X4699D02*
D03*
X4725D02*
D03*
X5350Y592D02*
D03*
X5324D02*
D03*
X5299D02*
D03*
X5273D02*
D03*
Y738D02*
D03*
X5299D02*
D03*
X5324D02*
D03*
X5350D02*
D03*
X975Y592D02*
D03*
X949D02*
D03*
X924D02*
D03*
X898D02*
D03*
Y738D02*
D03*
X924D02*
D03*
X949D02*
D03*
X975D02*
D03*
X4517Y2128D02*
D03*
X4542D02*
D03*
X4568D02*
D03*
X4593D02*
D03*
Y1982D02*
D03*
X4568D02*
D03*
X4542D02*
D03*
X4517D02*
D03*
X4100Y738D02*
D03*
X4074D02*
D03*
X4049D02*
D03*
X4023D02*
D03*
Y592D02*
D03*
X4049D02*
D03*
X4074D02*
D03*
X4100D02*
D03*
X3475Y738D02*
D03*
X3449D02*
D03*
X3424D02*
D03*
X3398D02*
D03*
Y592D02*
D03*
X3424D02*
D03*
X3449D02*
D03*
X3475D02*
D03*
X2850Y738D02*
D03*
X2824D02*
D03*
X2799D02*
D03*
X2773D02*
D03*
Y592D02*
D03*
X2799D02*
D03*
X2824D02*
D03*
X2850D02*
D03*
X2225Y738D02*
D03*
X2199D02*
D03*
X2174D02*
D03*
X2148D02*
D03*
Y592D02*
D03*
X2174D02*
D03*
X2199D02*
D03*
X2225D02*
D03*
X1600Y738D02*
D03*
X1574D02*
D03*
X1549D02*
D03*
X1523D02*
D03*
Y592D02*
D03*
X1549D02*
D03*
X1574D02*
D03*
X1600D02*
D03*
D73*
X4725Y110D02*
D03*
X5350D02*
D03*
X10900D02*
D03*
X4100D02*
D03*
X3475D02*
D03*
X2850D02*
D03*
X2225D02*
D03*
X1600D02*
D03*
X975D02*
D03*
D74*
X4558Y116D02*
D03*
X4892D02*
D03*
X5183D02*
D03*
X5517D02*
D03*
X10733D02*
D03*
X11067D02*
D03*
X4267D02*
D03*
X3933D02*
D03*
X3642D02*
D03*
X3308D02*
D03*
X3017D02*
D03*
X2683D02*
D03*
X2392D02*
D03*
X2058D02*
D03*
X1767D02*
D03*
X1433D02*
D03*
X1142D02*
D03*
X808D02*
D03*
D81*
X5115Y5561D02*
D03*
Y5609D02*
D03*
X2255Y6473D02*
D03*
Y6520D02*
D03*
X1660Y6473D02*
D03*
Y6520D02*
D03*
X9325Y6784D02*
D03*
Y6736D02*
D03*
X4895Y5609D02*
D03*
Y5561D02*
D03*
D85*
X2438Y6055D02*
D03*
Y6035D02*
D03*
Y6015D02*
D03*
X2372D02*
D03*
Y6035D02*
D03*
Y6055D02*
D03*
X11127Y6437D02*
D03*
Y6417D02*
D03*
Y6398D02*
D03*
X11193D02*
D03*
Y6417D02*
D03*
Y6437D02*
D03*
D88*
X2233Y6327D02*
D03*
X2193D02*
D03*
X1638D02*
D03*
X1598D02*
D03*
D89*
X12256Y6529D02*
D03*
Y6554D02*
D03*
Y6580D02*
D03*
Y6606D02*
D03*
Y6631D02*
D03*
D92*
X4165Y2005D02*
D03*
D97*
X9404Y6667D02*
D03*
X9296Y6593D02*
D03*
Y6630D02*
D03*
Y6667D02*
D03*
X9404Y6630D02*
D03*
Y6593D02*
D03*
D100*
X11879Y4562D02*
D03*
X11921D02*
D03*
D103*
X8723Y6817D02*
D03*
X8766D02*
D03*
X8810D02*
D03*
X8853D02*
D03*
X8896D02*
D03*
X8940D02*
D03*
X8983D02*
D03*
X9026D02*
D03*
D104*
X9171Y6715D02*
D03*
Y7042D02*
D03*
X8629D02*
D03*
Y6715D02*
D03*
D105*
X9238Y6505D02*
D03*
D106*
X9212Y6498D02*
D03*
Y6512D02*
D03*
D110*
X11012Y6220D02*
D03*
X11148D02*
D03*
X11012Y5380D02*
D03*
X11148D02*
D03*
D111*
X3515Y2749D02*
D03*
Y2691D02*
D03*
D119*
X10335Y6580D02*
D03*
D120*
X3023Y2298D02*
D03*
X3039D02*
D03*
X3055D02*
D03*
X3071D02*
D03*
X3086D02*
D03*
X3102D02*
D03*
X3118D02*
D03*
X3134D02*
D03*
X3149D02*
D03*
X3165D02*
D03*
X3181D02*
D03*
X3196D02*
D03*
X3212D02*
D03*
X3228D02*
D03*
X3244D02*
D03*
X3259D02*
D03*
X3275D02*
D03*
X3291D02*
D03*
X3307D02*
D03*
Y2642D02*
D03*
X3291D02*
D03*
X3275D02*
D03*
X3259D02*
D03*
X3244D02*
D03*
X3228D02*
D03*
X3212D02*
D03*
X3196D02*
D03*
X3181D02*
D03*
X3165D02*
D03*
X3149D02*
D03*
X3134D02*
D03*
X3118D02*
D03*
X3102D02*
D03*
X3086D02*
D03*
X3071D02*
D03*
X3055D02*
D03*
X3039D02*
D03*
X3023D02*
D03*
D121*
X3337Y2328D02*
D03*
Y2344D02*
D03*
Y2360D02*
D03*
Y2376D02*
D03*
Y2391D02*
D03*
Y2407D02*
D03*
Y2423D02*
D03*
Y2439D02*
D03*
Y2454D02*
D03*
Y2470D02*
D03*
Y2486D02*
D03*
Y2501D02*
D03*
Y2517D02*
D03*
Y2533D02*
D03*
Y2549D02*
D03*
Y2564D02*
D03*
Y2580D02*
D03*
Y2596D02*
D03*
Y2612D02*
D03*
X2993D02*
D03*
Y2596D02*
D03*
Y2580D02*
D03*
Y2564D02*
D03*
Y2549D02*
D03*
Y2533D02*
D03*
Y2517D02*
D03*
Y2501D02*
D03*
Y2486D02*
D03*
Y2470D02*
D03*
Y2454D02*
D03*
Y2439D02*
D03*
Y2423D02*
D03*
Y2407D02*
D03*
Y2391D02*
D03*
Y2376D02*
D03*
Y2360D02*
D03*
Y2344D02*
D03*
Y2328D02*
D03*
D122*
X3165Y2470D02*
D03*
D123*
X3825Y6867D02*
D03*
X3760D02*
D03*
X4407Y6860D02*
D03*
X4343D02*
D03*
X4407Y6915D02*
D03*
X4343D02*
D03*
X8982Y5800D02*
D03*
X8918D02*
D03*
X1112Y6080D02*
D03*
X1048D02*
D03*
X12047Y6270D02*
D03*
X11983D02*
D03*
X2413Y2480D02*
D03*
X2477D02*
D03*
X4917Y5240D02*
D03*
X4863D02*
D03*
D124*
X3937Y6867D02*
D03*
X3882D02*
D03*
X10029Y571D02*
D03*
X10084D02*
D03*
X4518Y6860D02*
D03*
X4462D02*
D03*
X4462Y6915D02*
D03*
X4518D02*
D03*
X10146Y6530D02*
D03*
X10090D02*
D03*
X2532Y2480D02*
D03*
X2588D02*
D03*
X2532Y2425D02*
D03*
X2588D02*
D03*
D125*
X2480Y3715D02*
D03*
D126*
X4335Y6319D02*
D03*
Y6374D02*
D03*
X11170Y5560D02*
D03*
Y5504D02*
D03*
X9520Y6592D02*
D03*
Y6648D02*
D03*
Y6712D02*
D03*
Y6768D02*
D03*
X7830Y7187D02*
D03*
Y7243D02*
D03*
X7960Y7187D02*
D03*
Y7243D02*
D03*
X7765Y7187D02*
D03*
Y7243D02*
D03*
X7895Y7187D02*
D03*
Y7243D02*
D03*
X9390Y6917D02*
D03*
Y6973D02*
D03*
X11170Y5995D02*
D03*
Y5939D02*
D03*
X11070Y6392D02*
D03*
Y6448D02*
D03*
X11250Y6473D02*
D03*
Y6417D02*
D03*
X5051Y4482D02*
D03*
Y4538D02*
D03*
D127*
X9247Y5195D02*
D03*
X9283D02*
D03*
X9247Y4995D02*
D03*
X9283D02*
D03*
X8185Y860D02*
D03*
X8150D02*
D03*
X8185Y750D02*
D03*
X8150D02*
D03*
X7210Y860D02*
D03*
X7175D02*
D03*
X7210Y750D02*
D03*
X7175D02*
D03*
X7600D02*
D03*
X7565D02*
D03*
X7600Y860D02*
D03*
X7565D02*
D03*
X7405Y750D02*
D03*
X7370D02*
D03*
X7405Y860D02*
D03*
X7370D02*
D03*
X6625D02*
D03*
X6590D02*
D03*
X6625Y750D02*
D03*
X6590D02*
D03*
X6820Y860D02*
D03*
X6785D02*
D03*
X6820Y750D02*
D03*
X6785D02*
D03*
X7015Y860D02*
D03*
X6980D02*
D03*
X7015Y750D02*
D03*
X6980D02*
D03*
X7990Y860D02*
D03*
X7955D02*
D03*
X7990Y750D02*
D03*
X7955D02*
D03*
X7795Y860D02*
D03*
X7760D02*
D03*
X7795Y750D02*
D03*
X7760D02*
D03*
X9684Y517D02*
D03*
X9649D02*
D03*
X3533Y2443D02*
D03*
X3498D02*
D03*
X7702Y7015D02*
D03*
X7738D02*
D03*
X11753Y2125D02*
D03*
X11717D02*
D03*
X11657Y2225D02*
D03*
X11693D02*
D03*
X957Y920D02*
D03*
X993D02*
D03*
X4707Y1230D02*
D03*
X4743D02*
D03*
X4743Y920D02*
D03*
X4707D02*
D03*
X4563Y1230D02*
D03*
X4527D02*
D03*
X5368Y920D02*
D03*
X5332D02*
D03*
X5188Y1230D02*
D03*
X5152D02*
D03*
X5332D02*
D03*
X5368D02*
D03*
X9857Y5125D02*
D03*
X9893D02*
D03*
X9857Y5165D02*
D03*
X9893D02*
D03*
X9857Y5005D02*
D03*
X9893D02*
D03*
X9857Y5045D02*
D03*
X9893D02*
D03*
X9857Y5085D02*
D03*
X9893D02*
D03*
X9283Y5035D02*
D03*
X9247D02*
D03*
X9283Y5075D02*
D03*
X9247D02*
D03*
X9283Y5115D02*
D03*
X9247D02*
D03*
X9283Y5155D02*
D03*
X9247D02*
D03*
X9122Y4990D02*
D03*
X9158D02*
D03*
X9122Y5030D02*
D03*
X9158D02*
D03*
X9122Y5070D02*
D03*
X9158D02*
D03*
X9122Y5110D02*
D03*
X9158D02*
D03*
X9122Y5150D02*
D03*
X9158D02*
D03*
X8548Y4990D02*
D03*
X8512D02*
D03*
X8548Y5030D02*
D03*
X8512D02*
D03*
X8548Y5070D02*
D03*
X8512D02*
D03*
X8548Y5110D02*
D03*
X8512D02*
D03*
X8548Y5150D02*
D03*
X8512D02*
D03*
X8548Y5190D02*
D03*
X8512D02*
D03*
X1582Y1230D02*
D03*
X1618D02*
D03*
X813D02*
D03*
X777D02*
D03*
X957D02*
D03*
X993D02*
D03*
X3567Y2105D02*
D03*
X3532D02*
D03*
X4470Y3955D02*
D03*
X4434D02*
D03*
X4470Y4075D02*
D03*
X4434D02*
D03*
X4147Y1895D02*
D03*
X4183D02*
D03*
X4147Y2115D02*
D03*
X4183D02*
D03*
X4222D02*
D03*
X4258D02*
D03*
X4222Y1895D02*
D03*
X4258D02*
D03*
X4333D02*
D03*
X4297D02*
D03*
X4333Y1960D02*
D03*
X4297D02*
D03*
X3902Y1230D02*
D03*
X3938D02*
D03*
X4118D02*
D03*
X4082D02*
D03*
X4082Y920D02*
D03*
X4118D02*
D03*
X3277Y1230D02*
D03*
X3313D02*
D03*
X3493D02*
D03*
X3457D02*
D03*
X3457Y920D02*
D03*
X3493D02*
D03*
X2652Y1230D02*
D03*
X2688D02*
D03*
X2868D02*
D03*
X2832D02*
D03*
X2832Y920D02*
D03*
X2868D02*
D03*
X2027Y1230D02*
D03*
X2063D02*
D03*
X2243D02*
D03*
X2207D02*
D03*
X2207Y920D02*
D03*
X2243D02*
D03*
X1402Y1230D02*
D03*
X1438D02*
D03*
X1582Y920D02*
D03*
X1618D02*
D03*
X7702Y7135D02*
D03*
X7738D02*
D03*
X7702Y6955D02*
D03*
X7738D02*
D03*
X7702Y7075D02*
D03*
X7738D02*
D03*
X2732Y2525D02*
D03*
X2768D02*
D03*
X2777Y2340D02*
D03*
X2813D02*
D03*
X2777Y2300D02*
D03*
X2813D02*
D03*
X3417Y2070D02*
D03*
X3453D02*
D03*
X3342D02*
D03*
X3378D02*
D03*
X3267D02*
D03*
X3303D02*
D03*
X3192D02*
D03*
X3228D02*
D03*
X3117D02*
D03*
X3153D02*
D03*
X3042D02*
D03*
X3078D02*
D03*
X2967D02*
D03*
X3003D02*
D03*
X2892D02*
D03*
X2928D02*
D03*
X4522Y4787D02*
D03*
X4558D02*
D03*
D128*
X9757Y6060D02*
D03*
X9792D02*
D03*
X9707Y6101D02*
D03*
X9742D02*
D03*
X9397Y6111D02*
D03*
X9432D02*
D03*
X3573Y2443D02*
D03*
X3608D02*
D03*
X2260Y3585D02*
D03*
X2295D02*
D03*
X4658Y1175D02*
D03*
X4692D02*
D03*
X4612D02*
D03*
X4578D02*
D03*
X5237D02*
D03*
X5203D02*
D03*
X5283D02*
D03*
X5317D02*
D03*
X862D02*
D03*
X828D02*
D03*
X908D02*
D03*
X942D02*
D03*
X11747Y6250D02*
D03*
X11713D02*
D03*
X11897D02*
D03*
X11863D02*
D03*
X11597D02*
D03*
X11563D02*
D03*
X11447D02*
D03*
X11413D02*
D03*
X4488Y2265D02*
D03*
X4522D02*
D03*
X4488Y2210D02*
D03*
X4522D02*
D03*
X3953Y1175D02*
D03*
X3987D02*
D03*
X4067D02*
D03*
X4033D02*
D03*
X3328D02*
D03*
X3362D02*
D03*
X3442D02*
D03*
X3408D02*
D03*
X2703D02*
D03*
X2737D02*
D03*
X2817D02*
D03*
X2783D02*
D03*
X2078D02*
D03*
X2112D02*
D03*
X2192D02*
D03*
X2158D02*
D03*
X1453D02*
D03*
X1487D02*
D03*
X1567D02*
D03*
X1533D02*
D03*
X8817Y5930D02*
D03*
X8783D02*
D03*
X5077Y5275D02*
D03*
X5043D02*
D03*
X5147Y5035D02*
D03*
X5113D02*
D03*
X5147Y4991D02*
D03*
X5113D02*
D03*
X2497Y3370D02*
D03*
X2463D02*
D03*
X2553D02*
D03*
X2587D02*
D03*
X2508Y3320D02*
D03*
X2542D02*
D03*
X2398Y3545D02*
D03*
X2432D02*
D03*
X2398Y3495D02*
D03*
X2432D02*
D03*
D129*
X9700Y6001D02*
D03*
X9680D02*
D03*
Y6061D02*
D03*
X9700D02*
D03*
D130*
X9660Y6001D02*
D03*
Y6021D02*
D03*
Y6041D02*
D03*
Y6060D02*
D03*
X9720D02*
D03*
Y6041D02*
D03*
Y6021D02*
D03*
Y6001D02*
D03*
D131*
X9710Y6175D02*
D03*
Y6266D02*
D03*
D132*
X9478Y6071D02*
D03*
X9453D02*
D03*
X9427D02*
D03*
X9401D02*
D03*
Y5991D02*
D03*
X9427D02*
D03*
X9453D02*
D03*
X9478D02*
D03*
X9523Y5162D02*
D03*
X9542D02*
D03*
X9562D02*
D03*
X9582D02*
D03*
X9601D02*
D03*
X9621D02*
D03*
Y5020D02*
D03*
X9601D02*
D03*
X9582D02*
D03*
X9562D02*
D03*
X9542D02*
D03*
X9523D02*
D03*
X8788Y5162D02*
D03*
X8807D02*
D03*
X8827D02*
D03*
X8847D02*
D03*
X8866D02*
D03*
X8886D02*
D03*
Y5020D02*
D03*
X8866D02*
D03*
X8847D02*
D03*
X8827D02*
D03*
X8807D02*
D03*
X8788D02*
D03*
D133*
X9630Y6176D02*
D03*
X9594D02*
D03*
X9507D02*
D03*
X9543D02*
D03*
X8202Y608D02*
D03*
X8238D02*
D03*
X8202Y513D02*
D03*
X8238D02*
D03*
X7227D02*
D03*
X7263D02*
D03*
X7227Y608D02*
D03*
X7263D02*
D03*
X7422Y513D02*
D03*
X7458D02*
D03*
X7422Y608D02*
D03*
X7458D02*
D03*
X7812D02*
D03*
X7848D02*
D03*
X7812Y513D02*
D03*
X7848D02*
D03*
X7617Y608D02*
D03*
X7653D02*
D03*
X7617Y513D02*
D03*
X7653D02*
D03*
X6642D02*
D03*
X6678D02*
D03*
X6642Y608D02*
D03*
X6678D02*
D03*
X6837D02*
D03*
X6873D02*
D03*
X6837Y513D02*
D03*
X6873D02*
D03*
X7032D02*
D03*
X7068D02*
D03*
X7032Y608D02*
D03*
X7068D02*
D03*
X8007Y513D02*
D03*
X8043D02*
D03*
X8007Y608D02*
D03*
X8043D02*
D03*
X4382Y4282D02*
D03*
X4418D02*
D03*
Y4188D02*
D03*
X4382D02*
D03*
X9442Y6900D02*
D03*
X9478D02*
D03*
X5018Y5395D02*
D03*
X4982D02*
D03*
X3623Y2691D02*
D03*
X3587D02*
D03*
D134*
X8150Y788D02*
D03*
Y823D02*
D03*
X7175Y788D02*
D03*
Y823D02*
D03*
X7565Y788D02*
D03*
Y823D02*
D03*
X7370Y788D02*
D03*
Y823D02*
D03*
X6590Y788D02*
D03*
Y823D02*
D03*
X6785Y788D02*
D03*
Y823D02*
D03*
X6980Y788D02*
D03*
Y823D02*
D03*
X7955Y788D02*
D03*
Y823D02*
D03*
X7760Y788D02*
D03*
Y823D02*
D03*
X4745Y1073D02*
D03*
Y1037D02*
D03*
X4525Y887D02*
D03*
Y923D02*
D03*
Y998D02*
D03*
Y962D02*
D03*
X4565Y887D02*
D03*
Y923D02*
D03*
X4745Y998D02*
D03*
Y962D02*
D03*
X4525Y1073D02*
D03*
Y1037D02*
D03*
X5370Y998D02*
D03*
Y962D02*
D03*
Y1073D02*
D03*
Y1037D02*
D03*
X5150Y998D02*
D03*
Y962D02*
D03*
Y1073D02*
D03*
Y1037D02*
D03*
X5190Y887D02*
D03*
Y923D02*
D03*
X5150Y887D02*
D03*
Y923D02*
D03*
X9650Y4803D02*
D03*
Y4767D02*
D03*
X9610Y4803D02*
D03*
Y4767D02*
D03*
X9570Y4803D02*
D03*
Y4767D02*
D03*
X9530Y4803D02*
D03*
Y4767D02*
D03*
X9490Y4803D02*
D03*
Y4767D02*
D03*
X8915Y4803D02*
D03*
Y4767D02*
D03*
X8875Y4803D02*
D03*
Y4767D02*
D03*
X8835Y4803D02*
D03*
Y4767D02*
D03*
X8795Y4803D02*
D03*
Y4767D02*
D03*
X8755Y4803D02*
D03*
Y4767D02*
D03*
X815Y887D02*
D03*
Y923D02*
D03*
X775Y998D02*
D03*
Y962D02*
D03*
Y887D02*
D03*
Y923D02*
D03*
X995Y1073D02*
D03*
Y1037D02*
D03*
Y998D02*
D03*
Y962D02*
D03*
X775Y1073D02*
D03*
Y1037D02*
D03*
X2508Y3273D02*
D03*
Y3237D02*
D03*
X3475Y2643D02*
D03*
Y2607D02*
D03*
X6630Y3693D02*
D03*
Y3657D02*
D03*
X4470Y3997D02*
D03*
Y4033D02*
D03*
X4305Y2115D02*
D03*
Y2151D02*
D03*
X3970Y2079D02*
D03*
Y2115D02*
D03*
Y1931D02*
D03*
Y1895D02*
D03*
X10900Y452D02*
D03*
Y488D02*
D03*
X3940Y923D02*
D03*
Y887D02*
D03*
X3900Y923D02*
D03*
Y887D02*
D03*
Y962D02*
D03*
Y998D02*
D03*
X4120Y962D02*
D03*
Y998D02*
D03*
Y1037D02*
D03*
Y1073D02*
D03*
X3900Y1037D02*
D03*
Y1073D02*
D03*
X3315Y923D02*
D03*
Y887D02*
D03*
X3275Y923D02*
D03*
Y887D02*
D03*
Y962D02*
D03*
Y998D02*
D03*
X3495Y962D02*
D03*
Y998D02*
D03*
Y1037D02*
D03*
Y1073D02*
D03*
X3275Y1037D02*
D03*
Y1073D02*
D03*
X2690Y923D02*
D03*
Y887D02*
D03*
X2650Y923D02*
D03*
Y887D02*
D03*
Y962D02*
D03*
Y998D02*
D03*
X2870Y962D02*
D03*
Y998D02*
D03*
Y1037D02*
D03*
Y1073D02*
D03*
X2650Y1037D02*
D03*
Y1073D02*
D03*
X2065Y923D02*
D03*
Y887D02*
D03*
X2025Y923D02*
D03*
Y887D02*
D03*
Y962D02*
D03*
Y998D02*
D03*
X2245Y962D02*
D03*
Y998D02*
D03*
Y1037D02*
D03*
Y1073D02*
D03*
X2025Y1037D02*
D03*
Y1073D02*
D03*
X1440Y923D02*
D03*
Y887D02*
D03*
X1400Y923D02*
D03*
Y887D02*
D03*
Y962D02*
D03*
Y998D02*
D03*
X1620Y962D02*
D03*
Y998D02*
D03*
Y1037D02*
D03*
Y1073D02*
D03*
X1400Y1037D02*
D03*
Y1073D02*
D03*
X2885Y2498D02*
D03*
Y2462D02*
D03*
X3515Y2607D02*
D03*
Y2643D02*
D03*
X5115Y5145D02*
D03*
Y5110D02*
D03*
X4731Y4657D02*
D03*
Y4693D02*
D03*
X5065Y4996D02*
D03*
Y5031D02*
D03*
X2542Y3237D02*
D03*
Y3273D02*
D03*
D135*
X8240Y673D02*
D03*
X8200D02*
D03*
X8240Y448D02*
D03*
X8200D02*
D03*
X7265Y673D02*
D03*
X7225D02*
D03*
X7265Y448D02*
D03*
X7225D02*
D03*
X7460D02*
D03*
X7420D02*
D03*
X7460Y673D02*
D03*
X7420D02*
D03*
X7850D02*
D03*
X7810D02*
D03*
X7655D02*
D03*
X7615D02*
D03*
X7850Y448D02*
D03*
X7810D02*
D03*
X7655D02*
D03*
X7615D02*
D03*
X6680Y673D02*
D03*
X6640D02*
D03*
X6680Y448D02*
D03*
X6640D02*
D03*
X6875D02*
D03*
X6835D02*
D03*
X7070D02*
D03*
X7030D02*
D03*
X6875Y673D02*
D03*
X6835D02*
D03*
X7070D02*
D03*
X7030D02*
D03*
X8045Y448D02*
D03*
X8005D02*
D03*
X8045Y673D02*
D03*
X8005D02*
D03*
X4380Y4122D02*
D03*
X4420D02*
D03*
X4380Y4348D02*
D03*
X4420D02*
D03*
D136*
X9952Y516D02*
D03*
Y670D02*
D03*
X9752D02*
D03*
Y516D02*
D03*
D137*
X9512Y526D02*
D03*
D138*
X9561Y430D02*
D03*
X9521D02*
D03*
X9482D02*
D03*
X9443D02*
D03*
Y623D02*
D03*
X9482D02*
D03*
X9502D02*
D03*
X9521D02*
D03*
X9541D02*
D03*
X9561D02*
D03*
X9580D02*
D03*
Y430D02*
D03*
X9541D02*
D03*
X9502D02*
D03*
X9462D02*
D03*
Y623D02*
D03*
D139*
X9415Y477D02*
D03*
Y517D02*
D03*
Y556D02*
D03*
Y595D02*
D03*
X9608D02*
D03*
Y576D02*
D03*
Y556D02*
D03*
Y536D02*
D03*
Y497D02*
D03*
Y477D02*
D03*
Y458D02*
D03*
X9415D02*
D03*
Y497D02*
D03*
Y536D02*
D03*
Y576D02*
D03*
X9608Y517D02*
D03*
D140*
X9952Y429D02*
D03*
Y464D02*
D03*
X3580Y2510D02*
D03*
Y2545D02*
D03*
X3530Y2510D02*
D03*
Y2545D02*
D03*
X7375Y3393D02*
D03*
Y3427D02*
D03*
X7425Y3393D02*
D03*
Y3427D02*
D03*
X7475Y3393D02*
D03*
Y3427D02*
D03*
X6575Y3613D02*
D03*
Y3647D02*
D03*
X4790Y5163D02*
D03*
Y5197D02*
D03*
X4740Y5163D02*
D03*
Y5197D02*
D03*
X4025Y1977D02*
D03*
Y1943D02*
D03*
Y2033D02*
D03*
Y2067D02*
D03*
X8960Y6147D02*
D03*
Y6113D02*
D03*
X9240Y6952D02*
D03*
Y6918D02*
D03*
X9290Y6952D02*
D03*
Y6918D02*
D03*
X9340Y6952D02*
D03*
Y6918D02*
D03*
X11300Y6452D02*
D03*
Y6418D02*
D03*
X3245Y2757D02*
D03*
Y2723D02*
D03*
X3295Y2757D02*
D03*
Y2723D02*
D03*
X4730Y5263D02*
D03*
Y5297D02*
D03*
X4917Y5337D02*
D03*
Y5303D02*
D03*
X2345Y3542D02*
D03*
Y3508D02*
D03*
X2295Y3502D02*
D03*
Y3468D02*
D03*
D141*
X10147Y454D02*
D03*
Y519D02*
D03*
D142*
X3650Y2509D02*
D03*
Y2576D02*
D03*
X6505Y3602D02*
D03*
Y3668D02*
D03*
D143*
X4693Y5544D02*
D03*
X4789D02*
D03*
X4693Y5382D02*
D03*
X4789D02*
D03*
D144*
X4790Y5253D02*
D03*
Y5307D02*
D03*
X8780Y5728D02*
D03*
Y5792D02*
D03*
X1335Y5963D02*
D03*
Y6028D02*
D03*
X2080Y5988D02*
D03*
Y6053D02*
D03*
D145*
X10612Y6610D02*
D03*
Y6590D02*
D03*
Y6571D02*
D03*
Y6551D02*
D03*
Y6531D02*
D03*
X10788Y6610D02*
D03*
Y6590D02*
D03*
Y6571D02*
D03*
Y6551D02*
D03*
Y6531D02*
D03*
D146*
X1562Y665D02*
D03*
X4687D02*
D03*
X5312D02*
D03*
X937D02*
D03*
X4062D02*
D03*
X3437D02*
D03*
X2812D02*
D03*
X2187D02*
D03*
D147*
X5228Y530D02*
D03*
X5272D02*
D03*
X4647D02*
D03*
X4603D02*
D03*
X4438Y885D02*
D03*
X4482D02*
D03*
X5063D02*
D03*
X5107D02*
D03*
X688D02*
D03*
X732D02*
D03*
X897Y530D02*
D03*
X853D02*
D03*
X4402Y2042D02*
D03*
X4358D02*
D03*
X4023Y2115D02*
D03*
X4067D02*
D03*
X4023Y1895D02*
D03*
X4067D02*
D03*
X4693Y2093D02*
D03*
X4737D02*
D03*
X4427Y1895D02*
D03*
X4383D02*
D03*
X3857Y885D02*
D03*
X3813D02*
D03*
X3978Y530D02*
D03*
X4022D02*
D03*
X3232Y885D02*
D03*
X3188D02*
D03*
X3353Y530D02*
D03*
X3397D02*
D03*
X2607Y885D02*
D03*
X2563D02*
D03*
X2728Y530D02*
D03*
X2772D02*
D03*
X1982Y885D02*
D03*
X1938D02*
D03*
X2103Y530D02*
D03*
X2147D02*
D03*
X1357Y885D02*
D03*
X1313D02*
D03*
X1478Y530D02*
D03*
X1522D02*
D03*
D148*
X5239Y309D02*
D03*
X5265D02*
D03*
X5291D02*
D03*
Y371D02*
D03*
X5265D02*
D03*
X5239D02*
D03*
X4614D02*
D03*
X4640D02*
D03*
X4666D02*
D03*
Y309D02*
D03*
X4640D02*
D03*
X4614D02*
D03*
X864Y371D02*
D03*
X890D02*
D03*
X916D02*
D03*
Y309D02*
D03*
X890D02*
D03*
X864D02*
D03*
X3989D02*
D03*
X4015D02*
D03*
X4041D02*
D03*
Y371D02*
D03*
X4015D02*
D03*
X3989D02*
D03*
X3364Y309D02*
D03*
X3390D02*
D03*
X3416D02*
D03*
Y371D02*
D03*
X3390D02*
D03*
X3364D02*
D03*
X2739Y309D02*
D03*
X2765D02*
D03*
X2791D02*
D03*
Y371D02*
D03*
X2765D02*
D03*
X2739D02*
D03*
X2114Y309D02*
D03*
X2140D02*
D03*
X2166D02*
D03*
Y371D02*
D03*
X2140D02*
D03*
X2114D02*
D03*
X1489Y309D02*
D03*
X1515D02*
D03*
X1541D02*
D03*
Y371D02*
D03*
X1515D02*
D03*
X1489D02*
D03*
D149*
X11770Y1737D02*
D03*
Y1700D02*
D03*
Y1663D02*
D03*
X11870D02*
D03*
Y1737D02*
D03*
X11770Y987D02*
D03*
Y950D02*
D03*
Y913D02*
D03*
X11870D02*
D03*
Y987D02*
D03*
X7820Y6358D02*
D03*
Y6432D02*
D03*
X7920D02*
D03*
Y6395D02*
D03*
Y6358D02*
D03*
D150*
X2315Y3624D02*
D03*
X2295D02*
D03*
X2276D02*
D03*
Y3693D02*
D03*
X2295D02*
D03*
X2315D02*
D03*
X5015Y5166D02*
D03*
X5035D02*
D03*
X5055D02*
D03*
Y5234D02*
D03*
X5035D02*
D03*
X5015D02*
D03*
D151*
X2707Y3740D02*
D03*
X2673D02*
D03*
X2707Y3695D02*
D03*
X2673D02*
D03*
X2707Y3785D02*
D03*
X2673D02*
D03*
X2707Y3830D02*
D03*
X2673D02*
D03*
X2178Y3855D02*
D03*
X2212D02*
D03*
X6497Y3240D02*
D03*
X6463D02*
D03*
Y3140D02*
D03*
X6497D02*
D03*
X6463Y3190D02*
D03*
X6497D02*
D03*
X6463Y3290D02*
D03*
X6497D02*
D03*
X6463Y3340D02*
D03*
X6497D02*
D03*
X6463Y3390D02*
D03*
X6497D02*
D03*
X6463Y3440D02*
D03*
X6497D02*
D03*
X6463Y3490D02*
D03*
X6497D02*
D03*
X6463Y3540D02*
D03*
X6497D02*
D03*
X8093Y6355D02*
D03*
X8127D02*
D03*
X8093Y6430D02*
D03*
X8127D02*
D03*
X11157Y6335D02*
D03*
X11123D02*
D03*
X10917Y6220D02*
D03*
X10883D02*
D03*
X10917Y5380D02*
D03*
X10883D02*
D03*
X2823Y2391D02*
D03*
X2857D02*
D03*
X2212Y3810D02*
D03*
X2178D02*
D03*
X2212Y3765D02*
D03*
X2178D02*
D03*
X2212Y3720D02*
D03*
X2178D02*
D03*
D152*
X4745Y1187D02*
D03*
Y1143D02*
D03*
X4725Y492D02*
D03*
Y448D02*
D03*
X4675Y852D02*
D03*
Y808D02*
D03*
X4525Y1187D02*
D03*
Y1143D02*
D03*
X5150Y1187D02*
D03*
Y1143D02*
D03*
X5370Y1187D02*
D03*
Y1143D02*
D03*
X5300Y852D02*
D03*
Y808D02*
D03*
X5350Y492D02*
D03*
Y448D02*
D03*
X2800Y852D02*
D03*
Y808D02*
D03*
X775Y1187D02*
D03*
Y1143D02*
D03*
X975Y492D02*
D03*
Y448D02*
D03*
X995Y1187D02*
D03*
Y1143D02*
D03*
X925Y852D02*
D03*
Y808D02*
D03*
X4705Y2017D02*
D03*
Y1973D02*
D03*
X4100Y448D02*
D03*
Y492D02*
D03*
X4050Y808D02*
D03*
Y852D02*
D03*
X3900Y1143D02*
D03*
Y1187D02*
D03*
X4120Y1143D02*
D03*
Y1187D02*
D03*
X3475Y448D02*
D03*
Y492D02*
D03*
X3425Y808D02*
D03*
Y852D02*
D03*
X3275Y1143D02*
D03*
Y1187D02*
D03*
X3495Y1143D02*
D03*
Y1187D02*
D03*
X2850Y448D02*
D03*
Y492D02*
D03*
X2650Y1143D02*
D03*
Y1187D02*
D03*
X2870Y1143D02*
D03*
Y1187D02*
D03*
X2225Y448D02*
D03*
Y492D02*
D03*
X2175Y808D02*
D03*
Y852D02*
D03*
X2025Y1143D02*
D03*
Y1187D02*
D03*
X2245Y1143D02*
D03*
Y1187D02*
D03*
X1600Y448D02*
D03*
Y492D02*
D03*
X1550Y808D02*
D03*
Y852D02*
D03*
X1400Y1143D02*
D03*
Y1187D02*
D03*
X1620Y1143D02*
D03*
Y1187D02*
D03*
D153*
X9572Y5091D02*
D03*
X8837D02*
D03*
D154*
X9643Y5140D02*
D03*
Y5120D02*
D03*
Y5101D02*
D03*
Y5081D02*
D03*
Y5061D02*
D03*
Y5042D02*
D03*
X9501D02*
D03*
Y5061D02*
D03*
Y5081D02*
D03*
Y5101D02*
D03*
Y5120D02*
D03*
Y5140D02*
D03*
X8908D02*
D03*
Y5120D02*
D03*
Y5101D02*
D03*
Y5081D02*
D03*
Y5061D02*
D03*
Y5042D02*
D03*
X8766D02*
D03*
Y5061D02*
D03*
Y5081D02*
D03*
Y5101D02*
D03*
Y5120D02*
D03*
Y5140D02*
D03*
D155*
X7305Y3736D02*
D03*
Y3717D02*
D03*
Y3697D02*
D03*
Y3677D02*
D03*
Y3657D02*
D03*
Y3638D02*
D03*
Y3618D02*
D03*
Y3598D02*
D03*
Y3579D02*
D03*
Y3559D02*
D03*
Y3539D02*
D03*
Y3520D02*
D03*
Y3500D02*
D03*
Y3480D02*
D03*
Y3461D02*
D03*
Y3441D02*
D03*
Y3421D02*
D03*
Y3402D02*
D03*
Y3382D02*
D03*
Y3362D02*
D03*
Y3343D02*
D03*
Y3323D02*
D03*
Y3303D02*
D03*
Y3283D02*
D03*
Y3264D02*
D03*
X6695D02*
D03*
Y3283D02*
D03*
Y3303D02*
D03*
Y3323D02*
D03*
Y3343D02*
D03*
Y3362D02*
D03*
Y3382D02*
D03*
Y3402D02*
D03*
Y3421D02*
D03*
Y3441D02*
D03*
Y3461D02*
D03*
Y3480D02*
D03*
Y3500D02*
D03*
Y3520D02*
D03*
Y3539D02*
D03*
Y3559D02*
D03*
Y3579D02*
D03*
Y3598D02*
D03*
Y3618D02*
D03*
Y3638D02*
D03*
Y3657D02*
D03*
Y3677D02*
D03*
Y3697D02*
D03*
Y3717D02*
D03*
Y3736D02*
D03*
D156*
X7236Y3195D02*
D03*
X7217D02*
D03*
X7197D02*
D03*
X7177D02*
D03*
X7157D02*
D03*
X7138D02*
D03*
X7118D02*
D03*
X7098D02*
D03*
X7079D02*
D03*
X7059D02*
D03*
X7039D02*
D03*
X7020D02*
D03*
X7000D02*
D03*
X6980D02*
D03*
X6961D02*
D03*
X6941D02*
D03*
X6921D02*
D03*
X6902D02*
D03*
X6882D02*
D03*
X6862D02*
D03*
X6843D02*
D03*
X6823D02*
D03*
X6803D02*
D03*
X6783D02*
D03*
X6764D02*
D03*
Y3805D02*
D03*
X6783D02*
D03*
X6803D02*
D03*
X6823D02*
D03*
X6843D02*
D03*
X6862D02*
D03*
X6882D02*
D03*
X6902D02*
D03*
X6921D02*
D03*
X6941D02*
D03*
X6961D02*
D03*
X6980D02*
D03*
X7000D02*
D03*
X7020D02*
D03*
X7039D02*
D03*
X7059D02*
D03*
X7079D02*
D03*
X7098D02*
D03*
X7118D02*
D03*
X7138D02*
D03*
X7157D02*
D03*
X7177D02*
D03*
X7197D02*
D03*
X7217D02*
D03*
X7236D02*
D03*
D157*
X6905Y4003D02*
D03*
Y4037D02*
D03*
X6955Y4003D02*
D03*
Y4037D02*
D03*
X7075Y2963D02*
D03*
Y2997D02*
D03*
X7125Y2963D02*
D03*
Y2997D02*
D03*
X6975Y2963D02*
D03*
Y2997D02*
D03*
X7025Y2963D02*
D03*
Y2997D02*
D03*
X6875Y2963D02*
D03*
Y2997D02*
D03*
X6925Y2963D02*
D03*
Y2997D02*
D03*
X6775Y2963D02*
D03*
Y2997D02*
D03*
X6825Y2963D02*
D03*
Y2997D02*
D03*
X6675Y2963D02*
D03*
Y2997D02*
D03*
X6725Y2963D02*
D03*
Y2997D02*
D03*
X2605Y3933D02*
D03*
Y3967D02*
D03*
X2560Y3933D02*
D03*
Y3967D02*
D03*
X2515Y3933D02*
D03*
Y3967D02*
D03*
X2470Y3933D02*
D03*
Y3967D02*
D03*
X2425Y3933D02*
D03*
Y3967D02*
D03*
X2380Y3933D02*
D03*
Y3967D02*
D03*
D158*
X11823Y6313D02*
D03*
X11897D02*
D03*
X11860Y6417D02*
D03*
X11373Y6313D02*
D03*
X11447D02*
D03*
X11410Y6417D02*
D03*
X11523Y6313D02*
D03*
X11597D02*
D03*
X11560Y6417D02*
D03*
X11673Y6313D02*
D03*
X11747D02*
D03*
X11710Y6417D02*
D03*
D159*
X4780Y4915D02*
D03*
D160*
X4952Y5063D02*
D03*
Y5043D02*
D03*
Y5023D02*
D03*
Y5004D02*
D03*
Y4984D02*
D03*
Y4964D02*
D03*
Y4945D02*
D03*
Y4925D02*
D03*
Y4905D02*
D03*
Y4885D02*
D03*
Y4866D02*
D03*
Y4846D02*
D03*
Y4826D02*
D03*
Y4807D02*
D03*
Y4787D02*
D03*
Y4767D02*
D03*
X4608D02*
D03*
Y4787D02*
D03*
Y4807D02*
D03*
Y4826D02*
D03*
Y4846D02*
D03*
Y4866D02*
D03*
Y4885D02*
D03*
Y4905D02*
D03*
Y4925D02*
D03*
Y4945D02*
D03*
Y4964D02*
D03*
Y4984D02*
D03*
Y5004D02*
D03*
Y5023D02*
D03*
Y5043D02*
D03*
Y5063D02*
D03*
D161*
X4928Y4743D02*
D03*
X4908D02*
D03*
X4888D02*
D03*
X4869D02*
D03*
X4849D02*
D03*
X4829D02*
D03*
X4810D02*
D03*
X4790D02*
D03*
X4770D02*
D03*
X4750D02*
D03*
X4731D02*
D03*
X4711D02*
D03*
X4691D02*
D03*
X4672D02*
D03*
X4652D02*
D03*
X4632D02*
D03*
Y5087D02*
D03*
X4652D02*
D03*
X4672D02*
D03*
X4691D02*
D03*
X4711D02*
D03*
X4731D02*
D03*
X4750D02*
D03*
X4770D02*
D03*
X4790D02*
D03*
X4810D02*
D03*
X4829D02*
D03*
X4849D02*
D03*
X4869D02*
D03*
X4888D02*
D03*
X4908D02*
D03*
X4928D02*
D03*
D162*
X5194Y5128D02*
D03*
X5276Y5165D02*
D03*
Y5090D02*
D03*
D163*
X2105Y6415D02*
D03*
X1510D02*
D03*
D164*
X2143Y6357D02*
D03*
X2118D02*
D03*
X2092D02*
D03*
X2067D02*
D03*
Y6473D02*
D03*
X2092D02*
D03*
X2118D02*
D03*
X2143D02*
D03*
X1548Y6357D02*
D03*
X1523D02*
D03*
X1497D02*
D03*
X1472D02*
D03*
Y6473D02*
D03*
X1497D02*
D03*
X1523D02*
D03*
X1548D02*
D03*
D165*
X12054Y4438D02*
D03*
Y4418D02*
D03*
Y4399D02*
D03*
Y4379D02*
D03*
Y4359D02*
D03*
Y4562D02*
D03*
Y4582D02*
D03*
Y4601D02*
D03*
Y4621D02*
D03*
Y4641D02*
D03*
D166*
X8947Y5727D02*
D03*
Y5653D02*
D03*
X8853D02*
D03*
Y5690D02*
D03*
Y5727D02*
D03*
D167*
X4555Y2055D02*
D03*
D168*
X4455Y2525D02*
D03*
Y2489D02*
D03*
X12050Y6442D02*
D03*
Y6478D02*
D03*
D169*
X4769Y1979D02*
D03*
Y2005D02*
D03*
Y2031D02*
D03*
X4831D02*
D03*
Y2005D02*
D03*
Y1979D02*
D03*
D170*
X4554Y2410D02*
D03*
X4496D02*
D03*
X4554Y2335D02*
D03*
X4496D02*
D03*
D171*
X4621Y6415D02*
D03*
X4679D02*
D03*
X4731D02*
D03*
X4789D02*
D03*
D172*
X10807Y340D02*
D03*
X10823D02*
D03*
D173*
X4969Y6722D02*
D03*
X7531D02*
D03*
D174*
X6755Y5987D02*
D03*
Y5953D02*
D03*
D175*
X8268Y7200D02*
D03*
Y7121D02*
D03*
Y7043D02*
D03*
Y6964D02*
D03*
Y6885D02*
D03*
Y6806D02*
D03*
Y6728D02*
D03*
X8100D02*
D03*
Y6806D02*
D03*
Y6885D02*
D03*
Y6964D02*
D03*
Y7043D02*
D03*
Y7121D02*
D03*
Y7200D02*
D03*
D176*
X1235Y6022D02*
D03*
Y5963D02*
D03*
X1980Y6047D02*
D03*
Y5988D02*
D03*
D177*
X1156Y5912D02*
D03*
Y5937D02*
D03*
Y5963D02*
D03*
Y5988D02*
D03*
X924Y5912D02*
D03*
Y5937D02*
D03*
Y5963D02*
D03*
Y5988D02*
D03*
X1901Y5912D02*
D03*
Y5937D02*
D03*
Y5963D02*
D03*
Y5988D02*
D03*
X1669Y5912D02*
D03*
Y5937D02*
D03*
Y5963D02*
D03*
Y5988D02*
D03*
D178*
X1858Y6080D02*
D03*
X1792D02*
D03*
X11982Y6350D02*
D03*
X12048D02*
D03*
D179*
X3204Y2740D02*
D03*
Y2720D02*
D03*
Y2700D02*
D03*
X3136D02*
D03*
Y2720D02*
D03*
Y2740D02*
D03*
D180*
X5393Y5100D02*
D03*
X5337D02*
D03*
X5393Y5155D02*
D03*
X5337D02*
D03*
D181*
X4989Y4420D02*
D03*
X5051D02*
D03*
D182*
X5020Y4254D02*
D03*
X4983Y4346D02*
D03*
X5057D02*
D03*
D183*
X5036Y5490D02*
D03*
X4974D02*
D03*
D184*
X2392Y3440D02*
D03*
X2438D02*
D03*
D185*
X2240Y3452D02*
D03*
Y3498D02*
D03*
D186*
X11644Y6901D02*
D03*
D187*
X11850Y2125D02*
D03*
Y2225D02*
D03*
X11960Y2125D02*
D03*
Y2225D02*
D03*
D188*
X4620Y1039D02*
D03*
Y1071D02*
D03*
X4650Y1039D02*
D03*
Y1071D02*
D03*
X5245Y1039D02*
D03*
Y1071D02*
D03*
X5275Y1039D02*
D03*
Y1071D02*
D03*
X3369Y1039D02*
D03*
Y1071D02*
D03*
X3401Y1039D02*
D03*
Y1071D02*
D03*
X869Y1039D02*
D03*
Y1071D02*
D03*
X900Y1039D02*
D03*
Y1071D02*
D03*
X4181Y1990D02*
D03*
X4149D02*
D03*
X4181Y2020D02*
D03*
X4149D02*
D03*
X4025Y1071D02*
D03*
Y1039D02*
D03*
X3994Y1071D02*
D03*
Y1039D02*
D03*
X2776Y1071D02*
D03*
Y1039D02*
D03*
X2744Y1071D02*
D03*
Y1039D02*
D03*
X2151Y1071D02*
D03*
Y1039D02*
D03*
X2119Y1071D02*
D03*
Y1039D02*
D03*
X1526Y1071D02*
D03*
Y1039D02*
D03*
X1495Y1071D02*
D03*
Y1039D02*
D03*
D189*
X1295Y3700D02*
D03*
X1750Y4860D02*
D03*
X1260Y5180D02*
D03*
X2130Y4490D02*
D03*
X2425Y4540D02*
D03*
X2125Y5335D02*
D03*
X8700Y2295D02*
D03*
X10420Y2725D02*
D03*
X5320Y1850D02*
D03*
X1820Y2230D02*
D03*
X4280Y2980D02*
D03*
X4780Y4270D02*
D03*
X3370Y3670D02*
D03*
D190*
X1805Y6473D02*
D03*
Y6373D02*
D03*
X2400Y6473D02*
D03*
Y6373D02*
D03*
D191*
X4335Y6245D02*
D03*
D192*
X4435D02*
D03*
X4535D02*
D03*
D193*
X12297Y6678D02*
D03*
Y6482D02*
D03*
D194*
X12256Y6433D02*
D03*
Y6727D02*
D03*
D195*
X12405Y6427D02*
D03*
Y6733D02*
D03*
D196*
X11995Y1750D02*
D03*
Y1650D02*
D03*
Y1550D02*
D03*
Y1100D02*
D03*
Y1000D02*
D03*
Y900D02*
D03*
D197*
X12335Y1805D02*
D03*
Y1495D02*
D03*
Y1155D02*
D03*
Y845D02*
D03*
D198*
X3050Y7200D02*
D03*
Y7100D02*
D03*
X2950Y7200D02*
D03*
Y7100D02*
D03*
X2850Y7200D02*
D03*
Y7100D02*
D03*
X2750Y7200D02*
D03*
Y7100D02*
D03*
X2650Y7200D02*
D03*
Y7100D02*
D03*
X2550Y7200D02*
D03*
Y7100D02*
D03*
X2450Y7200D02*
D03*
Y7100D02*
D03*
X2350Y7200D02*
D03*
Y7100D02*
D03*
X2250Y7200D02*
D03*
Y7100D02*
D03*
X2150Y7200D02*
D03*
Y7100D02*
D03*
X2050Y7200D02*
D03*
Y7100D02*
D03*
X1950Y7200D02*
D03*
Y7100D02*
D03*
X1850Y7200D02*
D03*
Y7100D02*
D03*
X1750Y7200D02*
D03*
Y7100D02*
D03*
X1650Y7200D02*
D03*
Y7100D02*
D03*
X1550Y7200D02*
D03*
Y7100D02*
D03*
X1450Y7200D02*
D03*
Y7100D02*
D03*
X1350Y7200D02*
D03*
Y7100D02*
D03*
X1250Y7200D02*
D03*
Y7100D02*
D03*
X1150Y7200D02*
D03*
Y7100D02*
D03*
X1050Y7200D02*
D03*
Y7100D02*
D03*
X950Y7200D02*
D03*
D199*
Y7100D02*
D03*
D200*
X7502Y7352D02*
D03*
X4998D02*
D03*
D201*
X12335Y4705D02*
D03*
Y4295D02*
D03*
X12160Y4323D02*
D03*
Y4677D02*
D03*
D202*
X12176Y4417D02*
D03*
Y4583D02*
D03*
D203*
X4935Y6250D02*
D03*
D204*
X7565D02*
D03*
D205*
X344Y7058D02*
D03*
Y444D02*
D03*
X9518Y5483D02*
D03*
X3730Y5365D02*
D03*
X11289Y3633D02*
D03*
X5699Y2885D02*
D03*
X1526Y3515D02*
D03*
X10069Y2176D02*
D03*
X6250Y1428D02*
D03*
X1762Y1783D02*
D03*
X12156Y444D02*
D03*
D206*
X11723Y2750D02*
D03*
Y2915D02*
D03*
Y3081D02*
D03*
Y3246D02*
D03*
X11940D02*
D03*
Y3081D02*
D03*
Y2915D02*
D03*
Y2750D02*
D03*
D207*
X8184Y7161D02*
D03*
Y6767D02*
D03*
D208*
X12081Y5550D02*
D03*
Y6050D02*
D03*
D209*
X12206Y6118D02*
D03*
Y5482D02*
D03*
D210*
X11281Y5940D02*
D03*
Y5660D02*
D03*
Y6040D02*
D03*
Y5560D02*
D03*
D211*
X11381Y5880D02*
D03*
Y5720D02*
D03*
Y5960D02*
D03*
Y5640D02*
D03*
Y6040D02*
D03*
Y5560D02*
D03*
X11481Y5840D02*
D03*
Y5760D02*
D03*
Y5680D02*
D03*
Y5920D02*
D03*
Y5600D02*
D03*
D212*
Y6000D02*
D03*
D213*
X4799Y2788D02*
D03*
X3004Y3913D02*
D03*
X3068Y3159D02*
D03*
Y3128D02*
D03*
X3565Y4919D02*
D03*
Y4950D02*
D03*
X11373Y2592D02*
D03*
Y2768D02*
D03*
Y3083D02*
D03*
Y3246D02*
D03*
Y2891D02*
D03*
X10998Y3176D02*
D03*
Y2967D02*
D03*
X11055Y1650D02*
D03*
X11095Y1606D02*
D03*
X11187D02*
D03*
X11278D02*
D03*
X11057Y2400D02*
D03*
X11059Y3630D02*
D03*
X1222Y2954D02*
D03*
X4895Y5639D02*
D03*
X4859Y5609D02*
D03*
X3377Y2028D02*
D03*
X3343D02*
D03*
X3302D02*
D03*
X3268D02*
D03*
X3227D02*
D03*
X3193D02*
D03*
X3118D02*
D03*
X3152D02*
D03*
X3043D02*
D03*
X3077D02*
D03*
X2893D02*
D03*
X2927D02*
D03*
X2947Y2108D02*
D03*
X3033Y2332D02*
D03*
X3228Y2609D02*
D03*
X3086D02*
D03*
X3031Y2387D02*
D03*
Y2572D02*
D03*
Y2423D02*
D03*
X3301Y2610D02*
D03*
X3382Y2383D02*
D03*
X3332Y2298D02*
D03*
X3377Y2541D02*
D03*
X3031Y2517D02*
D03*
X2968Y2028D02*
D03*
X3002D02*
D03*
X3023Y2108D02*
D03*
X3418Y2028D02*
D03*
X3452D02*
D03*
X3256Y1750D02*
D03*
X3256Y1708D02*
D03*
X2933Y1749D02*
D03*
X2858Y1746D02*
D03*
X2896Y1715D02*
D03*
X2396Y2017D02*
D03*
X2556D02*
D03*
X2250D02*
D03*
X835Y1320D02*
D03*
X3390Y2226D02*
D03*
X3398Y2108D02*
D03*
X3972Y6867D02*
D03*
X4968Y4202D02*
D03*
X3714Y6867D02*
D03*
X3445Y2226D02*
D03*
X4402Y2182D02*
D03*
X4386Y2251D02*
D03*
X3650D02*
D03*
X3580Y2203D02*
D03*
X2872Y2108D02*
D03*
X3473D02*
D03*
X3322D02*
D03*
X3247D02*
D03*
X3172D02*
D03*
X3098D02*
D03*
X9635Y6011D02*
D03*
X10493Y6512D02*
D03*
X10463Y6523D02*
D03*
Y6559D02*
D03*
X10493Y6573D02*
D03*
X10833Y6571D02*
D03*
X10731D02*
D03*
X10668D02*
D03*
X6892Y2082D02*
D03*
X6774Y2220D02*
D03*
X7019Y1941D02*
D03*
X6644Y2074D02*
D03*
X6728Y2009D02*
D03*
X6646Y2006D02*
D03*
X6783Y1933D02*
D03*
X6730Y1934D02*
D03*
X5105Y6012D02*
D03*
X4332Y4813D02*
D03*
X4830Y4782D02*
D03*
X4692Y4782D02*
D03*
X6444Y3602D02*
D03*
X9515Y6924D02*
D03*
Y6875D02*
D03*
X10926Y6444D02*
D03*
X11907Y6620D02*
D03*
X11360Y6619D02*
D03*
X11091Y6614D02*
D03*
X10702Y6444D02*
D03*
X9004Y6405D02*
D03*
X8944Y6404D02*
D03*
X8893Y6403D02*
D03*
X8854Y6403D02*
D03*
X8804Y6402D02*
D03*
X8802Y6273D02*
D03*
X8756Y6234D02*
D03*
X7010Y5628D02*
D03*
X8145Y5918D02*
D03*
X8343Y5827D02*
D03*
X8341Y5731D02*
D03*
X8362Y5958D02*
D03*
X8062Y5867D02*
D03*
X7951Y5866D02*
D03*
X7698Y5868D02*
D03*
X7517Y5899D02*
D03*
Y5637D02*
D03*
X7354Y5902D02*
D03*
Y5823D02*
D03*
X7346Y5670D02*
D03*
X7011Y5899D02*
D03*
X6931Y5823D02*
D03*
X7086Y5821D02*
D03*
X7088Y5672D02*
D03*
X6929Y5671D02*
D03*
X5590Y4358D02*
D03*
X6385Y4071D02*
D03*
X6631Y4442D02*
D03*
X3860Y3258D02*
D03*
X945Y2454D02*
D03*
X939Y2704D02*
D03*
X940Y2954D02*
D03*
X939Y3205D02*
D03*
X1221D02*
D03*
X1221Y2704D02*
D03*
X1228Y2454D02*
D03*
X2396Y2109D02*
D03*
X2250D02*
D03*
X2556D02*
D03*
X11549Y2646D02*
D03*
X11641Y2645D02*
D03*
X11095Y1698D02*
D03*
X11187D02*
D03*
X11278D02*
D03*
X11458Y2334D02*
D03*
X11373Y1771D02*
D03*
X11458Y1859D02*
D03*
X11373Y1935D02*
D03*
X11458Y2018D02*
D03*
X11373Y2099D02*
D03*
X11458Y2176D02*
D03*
X11373Y2264D02*
D03*
Y2428D02*
D03*
X11458Y1701D02*
D03*
X11139Y2302D02*
D03*
X10997D02*
D03*
X11138Y2418D02*
D03*
X11137Y2767D02*
D03*
X11281Y2768D02*
D03*
Y2891D02*
D03*
X11134Y2534D02*
D03*
Y2651D02*
D03*
X10998Y2534D02*
D03*
Y2651D02*
D03*
X11281Y3083D02*
D03*
X11070Y3081D02*
D03*
X11119Y3127D02*
D03*
X11070Y3033D02*
D03*
Y3127D02*
D03*
X11119Y3033D02*
D03*
X11281Y3246D02*
D03*
Y3403D02*
D03*
X11180Y3530D02*
D03*
X10957Y3535D02*
D03*
X11175Y3799D02*
D03*
X10962Y3799D02*
D03*
X10953Y3957D02*
D03*
X11175Y3956D02*
D03*
X11665Y3841D02*
D03*
X11551Y3967D02*
D03*
X11591Y3402D02*
D03*
Y3554D02*
D03*
Y3705D02*
D03*
X11694D02*
D03*
Y3554D02*
D03*
Y3402D02*
D03*
X11798D02*
D03*
Y3554D02*
D03*
Y3705D02*
D03*
X4332Y4859D02*
D03*
X503Y4567D02*
D03*
Y4817D02*
D03*
X746Y4567D02*
D03*
Y4817D02*
D03*
X359Y3956D02*
D03*
Y4206D02*
D03*
Y3706D02*
D03*
Y3455D02*
D03*
Y3205D02*
D03*
Y2954D02*
D03*
Y2704D02*
D03*
X681D02*
D03*
Y2954D02*
D03*
Y3205D02*
D03*
Y3455D02*
D03*
Y3706D02*
D03*
Y4206D02*
D03*
Y3956D02*
D03*
X3459Y4620D02*
D03*
X3578D02*
D03*
X3521Y4531D02*
D03*
X6281Y2454D02*
D03*
X6014Y1388D02*
D03*
X6054Y1081D02*
D03*
X6952Y2228D02*
D03*
X6361Y1733D02*
D03*
X5531Y2717D02*
D03*
X5903Y3252D02*
D03*
X5611Y3644D02*
D03*
X7163Y4591D02*
D03*
X6214Y4660D02*
D03*
X2536Y3585D02*
D03*
X2603Y3705D02*
D03*
X2470Y3586D02*
D03*
X2442Y3576D02*
D03*
X9908Y464D02*
D03*
X9344Y676D02*
D03*
X9384Y672D02*
D03*
X9521Y767D02*
D03*
X9601Y732D02*
D03*
X9293Y336D02*
D03*
X9340Y305D02*
D03*
X9704Y357D02*
D03*
X9778Y417D02*
D03*
X9639Y461D02*
D03*
Y582D02*
D03*
X9567Y654D02*
D03*
X9476D02*
D03*
X9476Y399D02*
D03*
X9567D02*
D03*
X9384Y471D02*
D03*
Y562D02*
D03*
X9677Y575D02*
D03*
X9561Y477D02*
D03*
X9462Y477D02*
D03*
X9561Y576D02*
D03*
X9462Y576D02*
D03*
Y526D02*
D03*
X9561Y526D02*
D03*
X9512Y526D02*
D03*
Y576D02*
D03*
Y477D02*
D03*
X8390Y2460D02*
D03*
X8510Y2432D02*
D03*
X8660D02*
D03*
X6640Y6030D02*
D03*
X2941Y2506D02*
D03*
X9764Y6266D02*
D03*
X9710Y6315D02*
D03*
X10414Y6457D02*
D03*
X11699Y4444D02*
D03*
Y4412D02*
D03*
X3567Y2056D02*
D03*
X3532D02*
D03*
X5624Y2043D02*
D03*
X7057Y1577D02*
D03*
X5610Y1844D02*
D03*
X5465Y1947D02*
D03*
X2700Y2779D02*
D03*
X2775Y2755D02*
D03*
X2835Y2751D02*
D03*
X2890D02*
D03*
X2945D02*
D03*
X1054Y3925D02*
D03*
X3235Y3646D02*
D03*
Y3703D02*
D03*
X3184D02*
D03*
Y3646D02*
D03*
X3133Y3703D02*
D03*
Y3646D02*
D03*
X1804Y3979D02*
D03*
X2213Y4002D02*
D03*
X2247D02*
D03*
X2283D02*
D03*
X2318D02*
D03*
X6766Y6269D02*
D03*
X6766Y6310D02*
D03*
X6891D02*
D03*
X6891Y6269D02*
D03*
X10059Y6530D02*
D03*
X10127Y6610D02*
D03*
X10090Y6685D02*
D03*
X7874Y5794D02*
D03*
X8736Y5825D02*
D03*
X8689D02*
D03*
X7697Y5921D02*
D03*
X8457Y5925D02*
D03*
X8380Y6025D02*
D03*
X8342Y6058D02*
D03*
X7771Y6955D02*
D03*
Y7015D02*
D03*
X8023Y6806D02*
D03*
X9046Y6733D02*
D03*
Y6658D02*
D03*
X9003D02*
D03*
X8959Y6733D02*
D03*
X8895Y6665D02*
D03*
X8902Y5949D02*
D03*
X8940Y6025D02*
D03*
X9000Y6056D02*
D03*
X9026Y6084D02*
D03*
X9027Y6139D02*
D03*
X8999Y6160D02*
D03*
X8930Y6210D02*
D03*
X8875Y6212D02*
D03*
X8718Y6090D02*
D03*
X8746Y6130D02*
D03*
X6911Y6510D02*
D03*
X1603Y4883D02*
D03*
X4342Y4122D02*
D03*
X4345Y4282D02*
D03*
Y4187D02*
D03*
X4397Y4075D02*
D03*
Y3955D02*
D03*
X1995Y2941D02*
D03*
X3517Y1746D02*
D03*
X3435Y1749D02*
D03*
X2582Y4049D02*
D03*
X5115Y5641D02*
D03*
X2402Y4049D02*
D03*
X2079Y3787D02*
D03*
X5789Y5963D02*
D03*
X2079Y3743D02*
D03*
X2753Y3830D02*
D03*
X2781Y3763D02*
D03*
X2753Y3785D02*
D03*
X2781Y3717D02*
D03*
X3355Y3427D02*
D03*
X6005Y5503D02*
D03*
Y5452D02*
D03*
X6092Y5390D02*
D03*
X6005D02*
D03*
X7206Y5946D02*
D03*
X8900Y5622D02*
D03*
X8842Y5613D02*
D03*
X8775D02*
D03*
X1012Y6704D02*
D03*
X960Y6807D02*
D03*
X6584Y6179D02*
D03*
X6624D02*
D03*
X5093Y6473D02*
D03*
X5022D02*
D03*
X5164D02*
D03*
X1164Y6733D02*
D03*
X1118Y6835D02*
D03*
X6654Y6154D02*
D03*
X6694D02*
D03*
X4573Y6415D02*
D03*
X1597Y6042D02*
D03*
X1280Y6807D02*
D03*
X1332Y6704D02*
D03*
X6702Y6197D02*
D03*
X6742D02*
D03*
X6565Y6310D02*
D03*
X6525D02*
D03*
X4827Y6415D02*
D03*
X5470Y6351D02*
D03*
X1484Y6733D02*
D03*
X6336Y6346D02*
D03*
X1438Y6835D02*
D03*
X6392Y6468D02*
D03*
X6321Y6473D02*
D03*
X6337Y6575D02*
D03*
X1652Y6704D02*
D03*
X1600Y6807D02*
D03*
X6454Y6346D02*
D03*
X6392Y6621D02*
D03*
X6495Y6346D02*
D03*
X6447Y6310D02*
D03*
X6407D02*
D03*
X2288Y6137D02*
D03*
X1912Y6080D02*
D03*
X1980Y6085D02*
D03*
X1804Y6733D02*
D03*
X1758Y6835D02*
D03*
X6512Y6473D02*
D03*
X1972Y6704D02*
D03*
X1920Y6807D02*
D03*
X6572Y6346D02*
D03*
X2124Y6733D02*
D03*
X6613Y6346D02*
D03*
X2078Y6835D02*
D03*
X6628Y6468D02*
D03*
X6628Y6606D02*
D03*
X6730Y6502D02*
D03*
X2292Y6704D02*
D03*
X6691Y6502D02*
D03*
X2240Y6807D02*
D03*
X6665Y6562D02*
D03*
X6761Y6520D02*
D03*
X6801D02*
D03*
X2255Y6561D02*
D03*
X2358Y6770D02*
D03*
X2444Y6733D02*
D03*
X2398Y6835D02*
D03*
X5807Y6150D02*
D03*
X5760D02*
D03*
X5695Y6150D02*
D03*
X5813Y5994D02*
D03*
X5836Y5963D02*
D03*
X5860Y5994D02*
D03*
X5884Y6146D02*
D03*
X5907Y5962D02*
D03*
X5931Y5994D02*
D03*
X5955Y5965D02*
D03*
X5978Y5994D02*
D03*
X6026Y5962D02*
D03*
X6049Y5994D02*
D03*
X6073Y5962D02*
D03*
X6096Y5994D02*
D03*
X6120Y6147D02*
D03*
X6755Y5912D02*
D03*
X6829Y6025D02*
D03*
X6805Y5995D02*
D03*
X6852Y5994D02*
D03*
X6876Y6144D02*
D03*
X6900Y6025D02*
D03*
X6923Y5994D02*
D03*
X6947Y6025D02*
D03*
X6970Y5995D02*
D03*
X6994Y6025D02*
D03*
X7112Y6148D02*
D03*
X6377Y6346D02*
D03*
X4465Y5997D02*
D03*
X4004Y6068D02*
D03*
X3799Y6040D02*
D03*
X3838Y5973D02*
D03*
X4465Y5932D02*
D03*
X4385Y5933D02*
D03*
X4425Y6108D02*
D03*
X4518Y5865D02*
D03*
Y6065D02*
D03*
X8344Y7200D02*
D03*
X2475Y6055D02*
D03*
X6758Y6145D02*
D03*
X6250Y6606D02*
D03*
X6287Y6562D02*
D03*
X6250Y6468D02*
D03*
X6108Y6606D02*
D03*
X6108Y6468D02*
D03*
X6146Y6562D02*
D03*
X4335Y6415D02*
D03*
X5305Y6473D02*
D03*
X5329Y6500D02*
D03*
X6982Y6473D02*
D03*
X6746D02*
D03*
X6179D02*
D03*
X5990D02*
D03*
X5754D02*
D03*
X2209Y6733D02*
D03*
Y6767D02*
D03*
X1889Y6733D02*
D03*
Y6767D02*
D03*
X2038Y6770D02*
D03*
X1569Y6733D02*
D03*
Y6767D02*
D03*
X1718Y6770D02*
D03*
X1249Y6733D02*
D03*
Y6767D02*
D03*
X1398Y6770D02*
D03*
X1078D02*
D03*
X929Y6767D02*
D03*
Y6733D02*
D03*
X11586Y3246D02*
D03*
Y3081D02*
D03*
Y2915D02*
D03*
Y2750D02*
D03*
X4134Y4610D02*
D03*
X8643Y5051D02*
D03*
X2588Y3611D02*
D03*
X2833Y3482D02*
D03*
X2242Y3618D02*
D03*
X2349Y3619D02*
D03*
X2229Y3585D02*
D03*
X2260Y3557D02*
D03*
X2295D02*
D03*
X2338Y3694D02*
D03*
X2295Y3658D02*
D03*
X6785Y3743D02*
D03*
X9508Y5226D02*
D03*
X9408Y5110D02*
D03*
X9720Y5953D02*
D03*
X9680Y5953D02*
D03*
X9390Y5943D02*
D03*
X9439D02*
D03*
X9364Y5151D02*
D03*
X9404Y5187D02*
D03*
X10900Y520D02*
D03*
X6845Y6351D02*
D03*
X6812D02*
D03*
X9749Y6021D02*
D03*
X9824Y6060D02*
D03*
X9774Y6101D02*
D03*
X9478Y5958D02*
D03*
X9453Y6047D02*
D03*
X9391Y6212D02*
D03*
X9359Y6176D02*
D03*
X9568D02*
D03*
X11838Y4307D02*
D03*
Y4339D02*
D03*
X11427Y4323D02*
D03*
X5158Y5127D02*
D03*
X3515Y2792D02*
D03*
X7132Y1648D02*
D03*
X11032Y1281D02*
D03*
X10800Y1917D02*
D03*
X9718Y2315D02*
D03*
Y2354D02*
D03*
X9895Y1967D02*
D03*
X9745D02*
D03*
X9667Y1914D02*
D03*
X9840Y1712D02*
D03*
X9941Y5014D02*
D03*
X9516Y3474D02*
D03*
X11085Y6337D02*
D03*
X7389Y6018D02*
D03*
X7425D02*
D03*
X7295Y5970D02*
D03*
X7331D02*
D03*
X9018Y5800D02*
D03*
X7224Y5990D02*
D03*
X7260D02*
D03*
X7183Y5970D02*
D03*
X7129Y6018D02*
D03*
X7166D02*
D03*
X7277Y6028D02*
D03*
X7455Y5993D02*
D03*
X4979Y4739D02*
D03*
X4589Y4583D02*
D03*
X4342Y4347D02*
D03*
X4483Y4653D02*
D03*
X4983Y4314D02*
D03*
X9718Y464D02*
D03*
X3861Y607D02*
D03*
X5303Y920D02*
D03*
X5221Y887D02*
D03*
X5195Y530D02*
D03*
X5111Y607D02*
D03*
X8214Y750D02*
D03*
X8269Y608D02*
D03*
X8150Y893D02*
D03*
X8214Y860D02*
D03*
X8269Y673D02*
D03*
Y513D02*
D03*
Y448D02*
D03*
X6904Y673D02*
D03*
Y608D02*
D03*
X6849Y750D02*
D03*
X6654D02*
D03*
X6709Y608D02*
D03*
Y673D02*
D03*
X7489Y608D02*
D03*
X7099D02*
D03*
Y673D02*
D03*
X7294D02*
D03*
Y608D02*
D03*
X7489Y673D02*
D03*
X6709Y513D02*
D03*
X7294D02*
D03*
X7434Y750D02*
D03*
X7044D02*
D03*
X7239D02*
D03*
X7489Y513D02*
D03*
X7099D02*
D03*
X6904D02*
D03*
X7684Y673D02*
D03*
X7879Y513D02*
D03*
Y448D02*
D03*
X7684Y608D02*
D03*
X7879Y673D02*
D03*
Y608D02*
D03*
X7684Y513D02*
D03*
X7629Y750D02*
D03*
X8074Y673D02*
D03*
Y608D02*
D03*
Y513D02*
D03*
X8019Y750D02*
D03*
X7824D02*
D03*
X7489Y448D02*
D03*
X7684D02*
D03*
X6904D02*
D03*
X6709D02*
D03*
X7099D02*
D03*
X7294D02*
D03*
X8074D02*
D03*
X7239Y860D02*
D03*
X7175Y893D02*
D03*
X7044Y860D02*
D03*
X7434D02*
D03*
X6785Y893D02*
D03*
X6980D02*
D03*
X6590D02*
D03*
X6654Y860D02*
D03*
X6849D02*
D03*
X7824D02*
D03*
X7760Y893D02*
D03*
X7565D02*
D03*
X7370D02*
D03*
X7629Y860D02*
D03*
X8019D02*
D03*
X7955Y893D02*
D03*
X9767Y711D02*
D03*
X9720D02*
D03*
X9952Y396D02*
D03*
X10147Y577D02*
D03*
X10199Y454D02*
D03*
Y577D02*
D03*
Y407D02*
D03*
Y519D02*
D03*
X10177Y329D02*
D03*
X4015Y5118D02*
D03*
X5199Y5962D02*
D03*
X4155Y5206D02*
D03*
X4015Y5044D02*
D03*
X5070Y5609D02*
D03*
X1776Y2759D02*
D03*
X3134Y2757D02*
D03*
X3206Y2759D02*
D03*
X2691Y2515D02*
D03*
X2815Y2593D02*
D03*
X2537Y4049D02*
D03*
X2627D02*
D03*
X2492D02*
D03*
X2447D02*
D03*
X2897Y2548D02*
D03*
X2858Y2569D02*
D03*
X2897Y2589D02*
D03*
X2951Y2604D02*
D03*
X2992Y2640D02*
D03*
X4227Y4792D02*
D03*
X3650Y2625D02*
D03*
X6238Y5962D02*
D03*
X3750Y2559D02*
D03*
X6214Y5994D02*
D03*
X6262Y6148D02*
D03*
X6285Y5994D02*
D03*
X6309Y5963D02*
D03*
X5866Y5183D02*
D03*
X5852Y5227D02*
D03*
X5999Y5218D02*
D03*
X6000Y5178D02*
D03*
X6040Y5218D02*
D03*
X6040Y5178D02*
D03*
X6492Y5969D02*
D03*
X5542Y5342D02*
D03*
X5585Y5384D02*
D03*
X5346Y5342D02*
D03*
X5305Y5381D02*
D03*
X5445Y5240D02*
D03*
Y5203D02*
D03*
Y5277D02*
D03*
X5585Y5095D02*
D03*
X6260Y5077D02*
D03*
X6301D02*
D03*
X6550Y5503D02*
D03*
Y5452D02*
D03*
X6790Y5264D02*
D03*
X6702Y5373D02*
D03*
X6666Y5452D02*
D03*
Y5503D02*
D03*
X6550Y5227D02*
D03*
Y5272D02*
D03*
Y5318D02*
D03*
X6589Y5227D02*
D03*
Y5272D02*
D03*
Y5318D02*
D03*
X6395Y5272D02*
D03*
X6206Y5333D02*
D03*
X6260Y5281D02*
D03*
X6206D02*
D03*
X6160D02*
D03*
X6160Y5333D02*
D03*
X6113Y5281D02*
D03*
Y5333D02*
D03*
X6222Y5390D02*
D03*
X6247Y5452D02*
D03*
X6082Y5218D02*
D03*
Y5178D02*
D03*
X5824Y5193D02*
D03*
X5809Y5231D02*
D03*
X5787Y5264D02*
D03*
X5830D02*
D03*
X5181Y5394D02*
D03*
X5221Y5353D02*
D03*
X5181D02*
D03*
X5221Y5394D02*
D03*
Y5435D02*
D03*
X5181Y5435D02*
D03*
X4540Y4905D02*
D03*
X4646Y4964D02*
D03*
X4642Y5023D02*
D03*
X4495Y5043D02*
D03*
X4567Y5069D02*
D03*
X4476Y5100D02*
D03*
X5435Y4610D02*
D03*
X5624Y4656D02*
D03*
Y4610D02*
D03*
Y4565D02*
D03*
X5585D02*
D03*
Y4656D02*
D03*
Y4610D02*
D03*
X4952Y4546D02*
D03*
Y4588D02*
D03*
X4989Y4546D02*
D03*
Y4588D02*
D03*
X5111Y4546D02*
D03*
Y4588D02*
D03*
X5213Y4647D02*
D03*
X5213Y4689D02*
D03*
X5175Y4647D02*
D03*
X5137D02*
D03*
X5175Y4689D02*
D03*
X5137D02*
D03*
X5424Y4843D02*
D03*
X5453Y4810D02*
D03*
X5262Y4737D02*
D03*
X5295Y4767D02*
D03*
Y4395D02*
D03*
X3597Y5026D02*
D03*
X3596Y5066D02*
D03*
X3637D02*
D03*
X3679Y5026D02*
D03*
Y5066D02*
D03*
X3638Y5026D02*
D03*
X3795Y5182D02*
D03*
X4317Y5040D02*
D03*
X4401Y5148D02*
D03*
X4563D02*
D03*
X4664Y5132D02*
D03*
X3936Y4655D02*
D03*
X3975D02*
D03*
Y4564D02*
D03*
X3936D02*
D03*
Y4610D02*
D03*
X3975D02*
D03*
X4102Y4430D02*
D03*
X4132Y4397D02*
D03*
X4303Y4792D02*
D03*
X4458Y4720D02*
D03*
Y4678D02*
D03*
X4441Y4623D02*
D03*
X4340Y4623D02*
D03*
X4390Y4623D02*
D03*
X4298Y4488D02*
D03*
X4265Y4458D02*
D03*
X4309Y4527D02*
D03*
Y4565D02*
D03*
X4498Y4835D02*
D03*
X4649D02*
D03*
X4655Y4788D02*
D03*
X4830Y4643D02*
D03*
X4900D02*
D03*
Y4782D02*
D03*
X5054Y4825D02*
D03*
X4909D02*
D03*
X5059Y4925D02*
D03*
X5096D02*
D03*
X4909D02*
D03*
X4909Y4985D02*
D03*
X6505Y3719D02*
D03*
X6529Y3062D02*
D03*
X6356Y6014D02*
D03*
X6393Y5993D02*
D03*
X6474Y5994D02*
D03*
X6569Y6023D02*
D03*
X6545Y5996D02*
D03*
X6445Y6028D02*
D03*
X6522Y6029D02*
D03*
X3690Y2691D02*
D03*
X3467Y2675D02*
D03*
X3303Y2538D02*
D03*
Y2482D02*
D03*
Y2427D02*
D03*
X3360Y2688D02*
D03*
X3387Y2659D02*
D03*
X3419Y2564D02*
D03*
X3474Y2568D02*
D03*
X3465Y2517D02*
D03*
X3495Y2545D02*
D03*
X3696Y2517D02*
D03*
X3705Y2576D02*
D03*
X3683Y2427D02*
D03*
X3473Y2443D02*
D03*
X3645Y2443D02*
D03*
X3486Y2389D02*
D03*
X3653Y2348D02*
D03*
X3418Y2378D02*
D03*
X4455Y2563D02*
D03*
X1296Y740D02*
D03*
Y825D02*
D03*
X2085Y1320D02*
D03*
X4605Y2500D02*
D03*
X6415Y3140D02*
D03*
Y3190D02*
D03*
X2200Y774D02*
D03*
X1921Y740D02*
D03*
X4440Y2235D02*
D03*
X4604Y2243D02*
D03*
X2710Y1320D02*
D03*
X3609Y1340D02*
D03*
X3876Y1810D02*
D03*
X3911Y1947D02*
D03*
X4605Y2369D02*
D03*
X4765Y583D02*
D03*
X6850Y2869D02*
D03*
X5937Y1868D02*
D03*
X6800Y2869D02*
D03*
X6700Y2869D02*
D03*
X6750Y2869D02*
D03*
X3610Y873D02*
D03*
X4865Y1980D02*
D03*
X4630Y4693D02*
D03*
X4358Y4565D02*
D03*
X4407D02*
D03*
X4358Y4527D02*
D03*
X4407D02*
D03*
X2532Y885D02*
D03*
X4407D02*
D03*
X2126Y2812D02*
D03*
X1987Y2616D02*
D03*
X2190Y2689D02*
D03*
X1953Y2549D02*
D03*
X2298Y3311D02*
D03*
X1981Y3230D02*
D03*
X2057Y3238D02*
D03*
X1981Y3266D02*
D03*
X2298Y3266D02*
D03*
X1975Y3189D02*
D03*
X1587Y2713D02*
D03*
X1634Y2804D02*
D03*
Y2713D02*
D03*
Y2759D02*
D03*
X1587Y2804D02*
D03*
Y2759D02*
D03*
X3976Y1695D02*
D03*
X4519Y1688D02*
D03*
X4462D02*
D03*
X5152Y6027D02*
D03*
X5045Y6173D02*
D03*
X2030Y5988D02*
D03*
X1541Y5948D02*
D03*
X1669Y5884D02*
D03*
X1285Y5963D02*
D03*
X1235Y6059D02*
D03*
X1165Y6080D02*
D03*
X924Y5884D02*
D03*
X873Y6030D02*
D03*
X796Y5948D02*
D03*
X2260Y6327D02*
D03*
X2092Y6582D02*
D03*
X2018Y6473D02*
D03*
X2003Y6290D02*
D03*
X2143Y6327D02*
D03*
X2092Y6290D02*
D03*
X1497D02*
D03*
X1548Y6327D02*
D03*
X1408Y6290D02*
D03*
X1423Y6473D02*
D03*
X1660Y6561D02*
D03*
X1497Y6582D02*
D03*
X1665Y6327D02*
D03*
X10090Y6569D02*
D03*
X10146Y6491D02*
D03*
Y6569D02*
D03*
X10095Y6303D02*
D03*
X10139D02*
D03*
X10225Y6435D02*
D03*
X10462Y6778D02*
D03*
X10214Y6740D02*
D03*
X10325Y6698D02*
D03*
X10198Y6685D02*
D03*
X10222Y6531D02*
D03*
X10266Y6468D02*
D03*
X10365Y6323D02*
D03*
X10398Y6363D02*
D03*
X10398Y6397D02*
D03*
X10322Y6461D02*
D03*
X10537Y6480D02*
D03*
X1020Y4715D02*
D03*
X912Y3925D02*
D03*
X865D02*
D03*
Y3879D02*
D03*
Y3970D02*
D03*
X912Y3879D02*
D03*
Y3970D02*
D03*
X1242Y4127D02*
D03*
X1210Y4157D02*
D03*
X1325Y3970D02*
D03*
X1071Y3704D02*
D03*
X1035Y3740D02*
D03*
X1210Y3770D02*
D03*
X1245Y3803D02*
D03*
X1286Y3845D02*
D03*
X2625Y3461D02*
D03*
X2725Y3447D02*
D03*
X2670Y3447D02*
D03*
X2785Y3438D02*
D03*
X3445Y3455D02*
D03*
X3390D02*
D03*
X3477Y3293D02*
D03*
X3505Y3263D02*
D03*
X3468Y3672D02*
D03*
X3468Y3619D02*
D03*
X3863Y3535D02*
D03*
Y3444D02*
D03*
X3816Y3535D02*
D03*
Y3444D02*
D03*
Y3490D02*
D03*
X3863D02*
D03*
X3665D02*
D03*
X3435Y3570D02*
D03*
X5055Y3061D02*
D03*
X5055Y3100D02*
D03*
X4936Y3048D02*
D03*
X4733Y3026D02*
D03*
X4773Y3026D02*
D03*
X4733Y3072D02*
D03*
X4773D02*
D03*
X4977Y3100D02*
D03*
X2959Y1717D02*
D03*
X3033Y1748D02*
D03*
X3031Y1706D02*
D03*
X3112Y1749D02*
D03*
X3109Y1707D02*
D03*
X3185Y1751D02*
D03*
X3185Y1707D02*
D03*
X3334Y1750D02*
D03*
X3409Y1719D02*
D03*
X3480Y1719D02*
D03*
X3487Y2000D02*
D03*
X3557Y1743D02*
D03*
X4502Y1855D02*
D03*
X4135Y1695D02*
D03*
X3876Y1878D02*
D03*
X1082Y1145D02*
D03*
Y1190D02*
D03*
X1109Y1255D02*
D03*
Y1340D02*
D03*
X1707Y1145D02*
D03*
Y1190D02*
D03*
X1734Y1255D02*
D03*
Y1340D02*
D03*
X1460Y1320D02*
D03*
X2332Y1145D02*
D03*
Y1190D02*
D03*
X2359Y1255D02*
D03*
Y1340D02*
D03*
X2957Y1145D02*
D03*
Y1190D02*
D03*
X2984Y1255D02*
D03*
Y1340D02*
D03*
X3582Y1145D02*
D03*
Y1190D02*
D03*
X3609Y1255D02*
D03*
X3335Y1320D02*
D03*
X4207Y1145D02*
D03*
Y1190D02*
D03*
X4234Y1255D02*
D03*
Y1340D02*
D03*
X3960Y1320D02*
D03*
X4832Y1145D02*
D03*
Y1190D02*
D03*
X4859Y1255D02*
D03*
Y1340D02*
D03*
X4585Y1320D02*
D03*
X5210D02*
D03*
X5484Y1340D02*
D03*
Y1255D02*
D03*
X5457Y1190D02*
D03*
Y1145D02*
D03*
X1085Y583D02*
D03*
X1015Y583D02*
D03*
X1110Y873D02*
D03*
X1040Y857D02*
D03*
X990D02*
D03*
X820Y565D02*
D03*
X736Y607D02*
D03*
X671Y740D02*
D03*
Y825D02*
D03*
X709Y926D02*
D03*
X710Y965D02*
D03*
X1710Y583D02*
D03*
X1640Y583D02*
D03*
X1735Y873D02*
D03*
X1665Y857D02*
D03*
X1615D02*
D03*
X1445Y565D02*
D03*
X1361Y607D02*
D03*
X1334Y926D02*
D03*
X1335Y965D02*
D03*
X2335Y583D02*
D03*
X2265Y583D02*
D03*
X2360Y873D02*
D03*
X2290Y857D02*
D03*
X2240D02*
D03*
X2070Y565D02*
D03*
X1986Y607D02*
D03*
X1921Y825D02*
D03*
X1959Y926D02*
D03*
X1960Y965D02*
D03*
X2960Y583D02*
D03*
X2890Y583D02*
D03*
X2985Y873D02*
D03*
X2915Y857D02*
D03*
X2865D02*
D03*
X2695Y565D02*
D03*
X2611Y607D02*
D03*
X2546Y740D02*
D03*
Y825D02*
D03*
X2584Y926D02*
D03*
X2585Y965D02*
D03*
X3585Y583D02*
D03*
X3515Y583D02*
D03*
X3540Y857D02*
D03*
X3490D02*
D03*
X3320Y565D02*
D03*
X3236Y607D02*
D03*
X3171Y740D02*
D03*
Y825D02*
D03*
X3209Y926D02*
D03*
X3210Y965D02*
D03*
X4210Y583D02*
D03*
X4140Y583D02*
D03*
X4235Y873D02*
D03*
X4165Y857D02*
D03*
X4115D02*
D03*
X3945Y565D02*
D03*
X3796Y740D02*
D03*
Y825D02*
D03*
X3834Y926D02*
D03*
X3835Y965D02*
D03*
X4835Y583D02*
D03*
X4860Y873D02*
D03*
X4790Y857D02*
D03*
X4740D02*
D03*
X4570Y565D02*
D03*
X4486Y607D02*
D03*
X4421Y740D02*
D03*
Y825D02*
D03*
X4459Y926D02*
D03*
X4460Y965D02*
D03*
X657Y885D02*
D03*
X1282D02*
D03*
X1907D02*
D03*
X3157D02*
D03*
X3782D02*
D03*
X5032D02*
D03*
X5085Y965D02*
D03*
X5084Y926D02*
D03*
X5046Y825D02*
D03*
Y740D02*
D03*
X823Y685D02*
D03*
X1448D02*
D03*
X2073D02*
D03*
X2698D02*
D03*
X3323D02*
D03*
X3948D02*
D03*
X4573D02*
D03*
X5198D02*
D03*
X5195Y565D02*
D03*
X5365Y857D02*
D03*
X5415D02*
D03*
X5485Y873D02*
D03*
X5390Y583D02*
D03*
X5460Y583D02*
D03*
X7005Y6722D02*
D03*
X6901Y6562D02*
D03*
X6864Y6606D02*
D03*
X6864Y6468D02*
D03*
X5909Y6562D02*
D03*
X5872Y6606D02*
D03*
X5872Y6468D02*
D03*
X4885Y6039D02*
D03*
Y6193D02*
D03*
X4970Y6035D02*
D03*
Y6193D02*
D03*
X5045Y6033D02*
D03*
X5701Y6028D02*
D03*
X5766D02*
D03*
X5938Y6150D02*
D03*
X6002D02*
D03*
X6177Y6150D02*
D03*
X6333Y6154D02*
D03*
X6403Y6148D02*
D03*
X6673Y6025D02*
D03*
X7532Y5967D02*
D03*
X7494Y6000D02*
D03*
X7613Y5967D02*
D03*
X7494Y6151D02*
D03*
X7570Y6000D02*
D03*
X7570Y6150D02*
D03*
X7655Y5998D02*
D03*
Y6148D02*
D03*
X5885Y1831D02*
D03*
X9766Y3971D02*
D03*
X9688Y3918D02*
D03*
X9916Y3971D02*
D03*
X9994Y3918D02*
D03*
X10960Y3286D02*
D03*
X9723Y3700D02*
D03*
Y3656D02*
D03*
Y3746D02*
D03*
X9962Y3700D02*
D03*
Y3656D02*
D03*
Y3746D02*
D03*
X9779D02*
D03*
X9901D02*
D03*
Y3656D02*
D03*
X9779D02*
D03*
X9840D02*
D03*
Y3746D02*
D03*
X9901Y3700D02*
D03*
X9779D02*
D03*
X11036Y3325D02*
D03*
X11033Y3292D02*
D03*
X11134Y3344D02*
D03*
X10752Y3196D02*
D03*
X10790Y3163D02*
D03*
X10645Y3244D02*
D03*
X9632Y3684D02*
D03*
X9598D02*
D03*
X9633Y3561D02*
D03*
X9598Y3575D02*
D03*
X9601Y3507D02*
D03*
X9566D02*
D03*
X9579Y3457D02*
D03*
X9765Y3470D02*
D03*
X10033Y3513D02*
D03*
X9985D02*
D03*
X10334Y3442D02*
D03*
X10230Y3230D02*
D03*
X9975Y3234D02*
D03*
X9932D02*
D03*
X9882Y3312D02*
D03*
X9916D02*
D03*
X9807Y3379D02*
D03*
X9830Y3258D02*
D03*
X9811Y3222D02*
D03*
X9959Y3050D02*
D03*
Y3107D02*
D03*
Y2991D02*
D03*
X9910Y3080D02*
D03*
Y3135D02*
D03*
Y3026D02*
D03*
Y2971D02*
D03*
X9700Y3080D02*
D03*
Y3135D02*
D03*
Y3026D02*
D03*
Y2971D02*
D03*
X9840Y3135D02*
D03*
Y3026D02*
D03*
Y2971D02*
D03*
X9770D02*
D03*
Y3026D02*
D03*
Y3135D02*
D03*
Y3080D02*
D03*
X11032Y1314D02*
D03*
X11088Y1394D02*
D03*
X11134Y1369D02*
D03*
X11032Y1350D02*
D03*
X10960Y1310D02*
D03*
X10790Y1189D02*
D03*
X10754Y1221D02*
D03*
X10648Y1269D02*
D03*
X9629Y1806D02*
D03*
X9591Y1533D02*
D03*
Y1593D02*
D03*
Y1652D02*
D03*
X9591Y1712D02*
D03*
X9674Y1533D02*
D03*
Y1593D02*
D03*
Y1652D02*
D03*
X9674Y1712D02*
D03*
X9757Y1712D02*
D03*
X9757Y1652D02*
D03*
Y1593D02*
D03*
Y1533D02*
D03*
X9973Y1593D02*
D03*
X9973Y1712D02*
D03*
Y1652D02*
D03*
X9919Y1533D02*
D03*
Y1593D02*
D03*
Y1652D02*
D03*
X9919Y1712D02*
D03*
X9840Y1533D02*
D03*
Y1593D02*
D03*
X9973Y1914D02*
D03*
X11134Y2014D02*
D03*
X11088Y2039D02*
D03*
X11029Y1961D02*
D03*
Y1924D02*
D03*
X11032Y1995D02*
D03*
X10767Y1887D02*
D03*
X10764Y1853D02*
D03*
X10800Y1824D02*
D03*
X10962Y1955D02*
D03*
X9779Y2316D02*
D03*
X9840D02*
D03*
X9901D02*
D03*
Y2486D02*
D03*
X9840D02*
D03*
X9779D02*
D03*
Y2446D02*
D03*
X9901D02*
D03*
Y2356D02*
D03*
X9779D02*
D03*
X9840D02*
D03*
Y2446D02*
D03*
X9901Y2400D02*
D03*
X9779D02*
D03*
X9718Y2398D02*
D03*
Y2445D02*
D03*
Y2484D02*
D03*
X9895Y2750D02*
D03*
X9974Y2802D02*
D03*
X9745Y2750D02*
D03*
X9666Y2801D02*
D03*
X9974Y2659D02*
D03*
X9895Y2710D02*
D03*
X9666Y2659D02*
D03*
X9745Y2710D02*
D03*
X8679Y2680D02*
D03*
X8740D02*
D03*
X8618D02*
D03*
Y2719D02*
D03*
X8679D02*
D03*
X8740D02*
D03*
X8739Y2758D02*
D03*
X8678D02*
D03*
X8617D02*
D03*
X8495D02*
D03*
X8556D02*
D03*
X8557Y2719D02*
D03*
X8496D02*
D03*
Y2680D02*
D03*
X8557D02*
D03*
X8373Y2758D02*
D03*
X8434D02*
D03*
X8435Y2719D02*
D03*
X8374D02*
D03*
Y2680D02*
D03*
X8435D02*
D03*
X8542Y2871D02*
D03*
X8560Y3047D02*
D03*
X8635D02*
D03*
X8485D02*
D03*
X8400Y3048D02*
D03*
X9060Y3057D02*
D03*
X9092Y3013D02*
D03*
X7132Y1614D02*
D03*
X6853Y1506D02*
D03*
X6813Y1506D02*
D03*
X6853Y1552D02*
D03*
X6813D02*
D03*
X5847Y1970D02*
D03*
X7942Y6994D02*
D03*
X7867Y6894D02*
D03*
X7905Y6903D02*
D03*
X7940Y7100D02*
D03*
X7905Y7105D02*
D03*
X7868Y7007D02*
D03*
X9068Y6503D02*
D03*
X8995Y6537D02*
D03*
X8988Y6463D02*
D03*
X9028Y6473D02*
D03*
X8906Y6500D02*
D03*
X8800Y6463D02*
D03*
Y6537D02*
D03*
X8807Y6665D02*
D03*
X8720Y6581D02*
D03*
X8738Y6740D02*
D03*
X9003Y6733D02*
D03*
X4966Y6605D02*
D03*
X4932Y5981D02*
D03*
X840Y4656D02*
D03*
X947Y4709D02*
D03*
X946Y4743D02*
D03*
X1222Y4787D02*
D03*
X1261D02*
D03*
X1222Y4743D02*
D03*
X1261D02*
D03*
X1795Y5170D02*
D03*
Y5123D02*
D03*
Y5264D02*
D03*
Y5217D02*
D03*
X772Y5401D02*
D03*
X870D02*
D03*
X955D02*
D03*
X1048D02*
D03*
X1152D02*
D03*
X1239D02*
D03*
X1334D02*
D03*
X1418D02*
D03*
X1509D02*
D03*
X1591D02*
D03*
X1678D02*
D03*
X1773D02*
D03*
X1860D02*
D03*
X2076D02*
D03*
X1410Y5282D02*
D03*
X1544Y5334D02*
D03*
X1394Y5185D02*
D03*
X1426Y5223D02*
D03*
X1489Y5219D02*
D03*
X1483Y5117D02*
D03*
X1540Y5069D02*
D03*
X2591Y5204D02*
D03*
X2523Y5236D02*
D03*
X2557D02*
D03*
X2591D02*
D03*
X2754Y5125D02*
D03*
X2790Y5065D02*
D03*
X2595D02*
D03*
X2640Y5125D02*
D03*
X2678D02*
D03*
X2716D02*
D03*
X2820Y4731D02*
D03*
X2729Y4587D02*
D03*
X2540Y4626D02*
D03*
X2672Y4587D02*
D03*
X2617D02*
D03*
X2565D02*
D03*
X2255Y5175D02*
D03*
X2153Y4866D02*
D03*
X2153Y4898D02*
D03*
X2188Y4897D02*
D03*
X2118Y4898D02*
D03*
X2260Y4632D02*
D03*
X2069Y4935D02*
D03*
X2120Y5141D02*
D03*
X2127Y4654D02*
D03*
X2165Y5055D02*
D03*
X2107Y4831D02*
D03*
X2027Y5100D02*
D03*
X1979Y4968D02*
D03*
X1945D02*
D03*
X1912Y4936D02*
D03*
X1945D02*
D03*
X1979D02*
D03*
X1912Y4903D02*
D03*
X1945D02*
D03*
X1979D02*
D03*
X1912Y4968D02*
D03*
X1992Y5168D02*
D03*
X1943Y5077D02*
D03*
X1943Y5047D02*
D03*
X1885Y5010D02*
D03*
X2033Y4573D02*
D03*
X1986D02*
D03*
X1887Y4724D02*
D03*
X2032Y4664D02*
D03*
X1941Y4824D02*
D03*
X1885Y4860D02*
D03*
X1827Y4955D02*
D03*
X4310Y6860D02*
D03*
X4310Y6915D02*
D03*
X4569Y6860D02*
D03*
X4569Y6915D02*
D03*
X5459Y6028D02*
D03*
X5436Y5994D02*
D03*
X5411Y5962D02*
D03*
X5388Y6028D02*
D03*
X5364Y5994D02*
D03*
X5341Y5962D02*
D03*
X5317Y6028D02*
D03*
X5293Y5994D02*
D03*
X5270Y5962D02*
D03*
X5246Y6028D02*
D03*
X5222Y5994D02*
D03*
X5175Y6158D02*
D03*
X4819Y6033D02*
D03*
Y5981D02*
D03*
X5009Y5981D02*
D03*
X5447Y6473D02*
D03*
X5376Y6473D02*
D03*
X5234Y6473D02*
D03*
X4902Y6605D02*
D03*
X5040D02*
D03*
X2371Y2480D02*
D03*
X2501Y2425D02*
D03*
X2911Y2413D02*
D03*
X2951Y2414D02*
D03*
X2754Y2300D02*
D03*
Y2340D02*
D03*
X2797Y2391D02*
D03*
X2958Y2303D02*
D03*
X2949Y2269D02*
D03*
X2851Y2260D02*
D03*
X2851Y2340D02*
D03*
Y2300D02*
D03*
X2195Y3891D02*
D03*
X2311Y3851D02*
D03*
X2382Y3810D02*
D03*
X2265Y3891D02*
D03*
X2127Y3720D02*
D03*
Y3765D02*
D03*
Y3810D02*
D03*
Y3855D02*
D03*
X2079Y3832D02*
D03*
X2605Y4018D02*
D03*
X2560D02*
D03*
X2515D02*
D03*
X2470D02*
D03*
X2425D02*
D03*
X2380D02*
D03*
X2438Y3760D02*
D03*
X2481D02*
D03*
X2525Y3717D02*
D03*
Y3760D02*
D03*
Y3676D02*
D03*
X2465Y3545D02*
D03*
X2431Y3839D02*
D03*
X2781Y3807D02*
D03*
X2753Y3740D02*
D03*
Y3695D02*
D03*
X2572Y3585D02*
D03*
X2670Y3589D02*
D03*
X2725D02*
D03*
X2785D02*
D03*
X2542Y3210D02*
D03*
X2508D02*
D03*
X2618Y3370D02*
D03*
X2431D02*
D03*
X2240Y3412D02*
D03*
X2295Y3428D02*
D03*
X2345Y3472D02*
D03*
X2481Y3717D02*
D03*
X2438D02*
D03*
X2481Y3676D02*
D03*
X2438D02*
D03*
X8745Y5963D02*
D03*
X8817Y5969D02*
D03*
X8960Y6184D02*
D03*
X8903Y6227D02*
D03*
X8999Y6113D02*
D03*
X9611Y6553D02*
D03*
X9520Y6804D02*
D03*
X9182Y6568D02*
D03*
X9228D02*
D03*
X9357Y6630D02*
D03*
X9401Y6784D02*
D03*
X9430Y6973D02*
D03*
X9390Y7009D02*
D03*
X9101Y6878D02*
D03*
X9147D02*
D03*
X8982Y6772D02*
D03*
X8939D02*
D03*
X8853D02*
D03*
X8723D02*
D03*
X9026D02*
D03*
X8809D02*
D03*
X8766D02*
D03*
X9115Y6715D02*
D03*
X9171Y6652D02*
D03*
X9224Y6715D02*
D03*
X9115Y7042D02*
D03*
X9171Y6979D02*
D03*
X9224Y7042D02*
D03*
X8573Y6715D02*
D03*
X8629Y6652D02*
D03*
X8682Y6715D02*
D03*
Y7042D02*
D03*
X8629Y6979D02*
D03*
X8573Y7042D02*
D03*
X7266Y6473D02*
D03*
X7171D02*
D03*
X7431Y6358D02*
D03*
X7384Y6471D02*
D03*
X7487Y6576D02*
D03*
X7614D02*
D03*
X7555D02*
D03*
X7455Y6483D02*
D03*
X7006Y6510D02*
D03*
X7798Y7105D02*
D03*
Y7045D02*
D03*
Y6985D02*
D03*
X7771Y7075D02*
D03*
X7775Y7135D02*
D03*
X7985Y7289D02*
D03*
X7741Y7289D02*
D03*
X8023Y6885D02*
D03*
Y6964D02*
D03*
Y7043D02*
D03*
X8344Y7121D02*
D03*
Y7043D02*
D03*
Y6964D02*
D03*
Y6885D02*
D03*
Y6806D02*
D03*
Y6728D02*
D03*
X7870Y6394D02*
D03*
X9438Y4735D02*
D03*
X9708D02*
D03*
X9941Y5165D02*
D03*
X9579Y5227D02*
D03*
X9607Y5259D02*
D03*
X9578Y5191D02*
D03*
X9678Y5165D02*
D03*
X9730Y5165D02*
D03*
X9756Y5125D02*
D03*
X9729Y5085D02*
D03*
X9760Y5045D02*
D03*
X9729Y5005D02*
D03*
X9646Y4911D02*
D03*
X9610Y4936D02*
D03*
X8824Y4984D02*
D03*
X9582Y4911D02*
D03*
X9559Y4984D02*
D03*
X9530Y4924D02*
D03*
X9490Y4889D02*
D03*
X9203Y5195D02*
D03*
X9203Y4954D02*
D03*
X9388Y5075D02*
D03*
X9415Y5046D02*
D03*
X9375Y5019D02*
D03*
X8843Y5232D02*
D03*
X8865Y5256D02*
D03*
X8845Y5193D02*
D03*
X8773Y5226D02*
D03*
X8946Y5163D02*
D03*
X8968Y5127D02*
D03*
X9029Y5101D02*
D03*
X8952Y5074D02*
D03*
X8990Y5044D02*
D03*
X8940Y5014D02*
D03*
X8464Y5190D02*
D03*
Y5149D02*
D03*
X8640Y5149D02*
D03*
X8669Y5128D02*
D03*
X8639Y5101D02*
D03*
X8672Y5075D02*
D03*
X8672Y5026D02*
D03*
X9069Y4738D02*
D03*
X9069Y4701D02*
D03*
X8911Y4911D02*
D03*
X8875Y4936D02*
D03*
X8847Y4911D02*
D03*
X8795Y4924D02*
D03*
X8770Y4889D02*
D03*
X7387Y3122D02*
D03*
X7277Y2990D02*
D03*
X7559Y3392D02*
D03*
X7599D02*
D03*
X7516D02*
D03*
X7375Y3464D02*
D03*
X7425D02*
D03*
X7475Y3464D02*
D03*
X7431Y3292D02*
D03*
X7258Y3441D02*
D03*
X7050Y3919D02*
D03*
X7098Y3912D02*
D03*
X7074Y3874D02*
D03*
X7120Y3874D02*
D03*
X7058Y3749D02*
D03*
X7098Y3749D02*
D03*
X7157Y3749D02*
D03*
X7078Y3723D02*
D03*
X6905Y4095D02*
D03*
X6955D02*
D03*
X6961Y3855D02*
D03*
X6746Y3697D02*
D03*
X6630Y3723D02*
D03*
X6444Y3668D02*
D03*
X6740Y3579D02*
D03*
X6763Y3548D02*
D03*
X6744Y3520D02*
D03*
X6415Y3540D02*
D03*
X6375Y3515D02*
D03*
X6415Y3490D02*
D03*
Y3440D02*
D03*
X6374Y3465D02*
D03*
X6415Y3391D02*
D03*
X6374Y3365D02*
D03*
X6415Y3340D02*
D03*
Y3290D02*
D03*
X6413Y3240D02*
D03*
X6374Y3265D02*
D03*
X6445Y3107D02*
D03*
X6669Y3169D02*
D03*
X6900Y2869D02*
D03*
X6950D02*
D03*
X7000D02*
D03*
X7050D02*
D03*
X7125Y2908D02*
D03*
X7152Y2934D02*
D03*
X7075Y2908D02*
D03*
X7025D02*
D03*
X6975D02*
D03*
X6925D02*
D03*
X6875D02*
D03*
X6825D02*
D03*
X6775D02*
D03*
X6725D02*
D03*
X6675D02*
D03*
X7039Y3238D02*
D03*
X3303Y2360D02*
D03*
X3326Y2723D02*
D03*
X3326Y2757D02*
D03*
X3295Y2791D02*
D03*
X4995Y5166D02*
D03*
X4878Y5057D02*
D03*
X5077Y5234D02*
D03*
X4993Y5236D02*
D03*
X5079Y5387D02*
D03*
X5112D02*
D03*
X4945Y5395D02*
D03*
X4829Y5125D02*
D03*
X4845Y5153D02*
D03*
X4670Y5250D02*
D03*
Y5284D02*
D03*
X4740Y5224D02*
D03*
X4693Y5325D02*
D03*
X4646Y5382D02*
D03*
X4917Y5367D02*
D03*
X4107Y1947D02*
D03*
Y2063D02*
D03*
X942Y1113D02*
D03*
X828D02*
D03*
X1567D02*
D03*
X1453D02*
D03*
X2192D02*
D03*
X2078D02*
D03*
X2817D02*
D03*
X2703D02*
D03*
X3442D02*
D03*
X3328D02*
D03*
X4067D02*
D03*
X3953D02*
D03*
X4692D02*
D03*
X4578D02*
D03*
X5203D02*
D03*
X5317D02*
D03*
X11195Y6373D02*
D03*
X11379Y6250D02*
D03*
X11413Y6217D02*
D03*
X11529Y6250D02*
D03*
X11563Y6217D02*
D03*
X11679Y6250D02*
D03*
X11713Y6217D02*
D03*
X11863D02*
D03*
X11829Y6250D02*
D03*
X11340Y6313D02*
D03*
X11490D02*
D03*
X11640D02*
D03*
X11790D02*
D03*
X10837Y6220D02*
D03*
X10839Y5381D02*
D03*
X11170Y6036D02*
D03*
X11129Y5995D02*
D03*
X11112Y5504D02*
D03*
X11169Y5458D02*
D03*
X11033Y6392D02*
D03*
Y6448D02*
D03*
X11070Y6480D02*
D03*
X11250Y6505D02*
D03*
X11213Y6473D02*
D03*
X11680Y1750D02*
D03*
X11620Y2225D02*
D03*
X11680Y2125D02*
D03*
X11620Y1650D02*
D03*
X11680Y900D02*
D03*
X11620Y1000D02*
D03*
X12095Y6520D02*
D03*
Y6481D02*
D03*
Y6257D02*
D03*
Y6320D02*
D03*
Y6385D02*
D03*
X12050Y6396D02*
D03*
X11983Y6225D02*
D03*
X11982Y6407D02*
D03*
X12194Y6631D02*
D03*
X4552Y2500D02*
D03*
X4343Y2151D02*
D03*
X4360Y1960D02*
D03*
X4427Y1845D02*
D03*
X4077Y1985D02*
D03*
Y2025D02*
D03*
X4253Y1985D02*
D03*
Y2025D02*
D03*
X4025Y2005D02*
D03*
X4435Y2068D02*
D03*
X4517Y1935D02*
D03*
X4737Y2006D02*
D03*
X4740Y1909D02*
D03*
X4705Y1928D02*
D03*
X4534Y2076D02*
D03*
Y2034D02*
D03*
X4576Y2076D02*
D03*
Y2034D02*
D03*
X11067Y245D02*
D03*
X10733D02*
D03*
X890Y401D02*
D03*
X808Y245D02*
D03*
X1142D02*
D03*
X820Y530D02*
D03*
X1018Y738D02*
D03*
X1055D02*
D03*
X950Y774D02*
D03*
X916Y644D02*
D03*
X958D02*
D03*
X865Y279D02*
D03*
X916Y686D02*
D03*
X958D02*
D03*
X5265Y401D02*
D03*
X5183Y245D02*
D03*
X5517D02*
D03*
X5393Y738D02*
D03*
X5430D02*
D03*
X5325Y774D02*
D03*
X5291Y644D02*
D03*
X5333D02*
D03*
X5240Y279D02*
D03*
X5291Y686D02*
D03*
X5333D02*
D03*
X4640Y401D02*
D03*
X4558Y245D02*
D03*
X4892D02*
D03*
X4570Y530D02*
D03*
X4768Y738D02*
D03*
X4805D02*
D03*
X4700Y774D02*
D03*
X4666Y644D02*
D03*
X4708D02*
D03*
X4615Y279D02*
D03*
X4666Y686D02*
D03*
X4708D02*
D03*
X4015Y401D02*
D03*
X3933Y245D02*
D03*
X4267D02*
D03*
X3945Y530D02*
D03*
X4143Y738D02*
D03*
X4180D02*
D03*
X4075Y774D02*
D03*
X4041Y644D02*
D03*
X4083D02*
D03*
X3990Y279D02*
D03*
X4041Y686D02*
D03*
X4083D02*
D03*
X3390Y401D02*
D03*
X3308Y245D02*
D03*
X3642D02*
D03*
X3320Y530D02*
D03*
X3518Y738D02*
D03*
X3555D02*
D03*
X3450Y774D02*
D03*
X3416Y644D02*
D03*
X3458D02*
D03*
X3365Y279D02*
D03*
X3416Y686D02*
D03*
X3458D02*
D03*
X2765Y401D02*
D03*
X2683Y245D02*
D03*
X3017D02*
D03*
X2695Y530D02*
D03*
X2893Y738D02*
D03*
X2930D02*
D03*
X2825Y774D02*
D03*
X2791Y644D02*
D03*
X2833D02*
D03*
X2740Y279D02*
D03*
X2791Y686D02*
D03*
X2833D02*
D03*
X1583D02*
D03*
X1541D02*
D03*
X1490Y279D02*
D03*
X1583Y644D02*
D03*
X1541D02*
D03*
X1575Y774D02*
D03*
X1680Y738D02*
D03*
X1643D02*
D03*
X1445Y530D02*
D03*
X1767Y245D02*
D03*
X1433D02*
D03*
X1515Y401D02*
D03*
X2140D02*
D03*
X2058Y245D02*
D03*
X2392D02*
D03*
X2070Y530D02*
D03*
X2268Y738D02*
D03*
X2305D02*
D03*
X2166Y644D02*
D03*
X2208D02*
D03*
X2115Y279D02*
D03*
X2166Y686D02*
D03*
X2208D02*
D03*
X4053Y920D02*
D03*
X846Y887D02*
D03*
X928Y920D02*
D03*
X862Y1207D02*
D03*
X908D02*
D03*
X865Y1143D02*
D03*
X905D02*
D03*
X865Y967D02*
D03*
X905D02*
D03*
X4655D02*
D03*
X4615D02*
D03*
X4655Y1143D02*
D03*
X4615D02*
D03*
X4658Y1207D02*
D03*
X4612D02*
D03*
X4678Y920D02*
D03*
X4596Y887D02*
D03*
X5280Y967D02*
D03*
X5240D02*
D03*
X5280Y1143D02*
D03*
X5240D02*
D03*
X5283Y1207D02*
D03*
X5237D02*
D03*
X4030Y967D02*
D03*
X3990D02*
D03*
X4030Y1143D02*
D03*
X3990D02*
D03*
X4033Y1207D02*
D03*
X3987D02*
D03*
X3971Y887D02*
D03*
X3405Y967D02*
D03*
X3365D02*
D03*
X3405Y1143D02*
D03*
X3365D02*
D03*
X3408Y1207D02*
D03*
X3362D02*
D03*
X3428Y920D02*
D03*
X3346Y887D02*
D03*
X2780Y967D02*
D03*
X2740D02*
D03*
X2780Y1143D02*
D03*
X2740D02*
D03*
X2783Y1207D02*
D03*
X2737D02*
D03*
X2803Y920D02*
D03*
X2721Y887D02*
D03*
X2096D02*
D03*
X2178Y920D02*
D03*
X2112Y1207D02*
D03*
X2158D02*
D03*
X2115Y1143D02*
D03*
X2155D02*
D03*
X2115Y967D02*
D03*
X2155D02*
D03*
X1530Y1143D02*
D03*
X1490D02*
D03*
Y967D02*
D03*
X1530D02*
D03*
X1471Y887D02*
D03*
X1553Y920D02*
D03*
X1487Y1207D02*
D03*
X1533D02*
D03*
X11730Y1700D02*
D03*
Y950D02*
D03*
X12375Y7400D02*
D03*
Y6910D02*
D03*
X11965Y6900D02*
D03*
X12375Y7160D02*
D03*
X11965Y7165D02*
D03*
Y7400D02*
D03*
X11555Y7170D02*
D03*
Y7400D02*
D03*
X12425Y4255D02*
D03*
X12185Y4785D02*
D03*
X12425Y5110D02*
D03*
Y5935D02*
D03*
X12185Y5605D02*
D03*
Y6323D02*
D03*
X10778Y340D02*
D03*
X4693Y4828D02*
D03*
Y4872D02*
D03*
Y4915D02*
D03*
Y4958D02*
D03*
Y5002D02*
D03*
X4737Y4828D02*
D03*
Y4872D02*
D03*
Y4915D02*
D03*
Y4958D02*
D03*
Y5002D02*
D03*
X4780Y4828D02*
D03*
Y4872D02*
D03*
Y4915D02*
D03*
Y4958D02*
D03*
Y5002D02*
D03*
X4823Y4828D02*
D03*
Y4872D02*
D03*
Y4915D02*
D03*
Y4958D02*
D03*
Y5002D02*
D03*
X4867Y4828D02*
D03*
Y4872D02*
D03*
Y4915D02*
D03*
Y4958D02*
D03*
Y5002D02*
D03*
D214*
X4132Y3366D02*
D03*
X4101Y3402D02*
D03*
X4070Y3439D02*
D03*
X4040Y3475D02*
D03*
X4009Y3512D02*
D03*
X3978Y3549D02*
D03*
X3947Y3585D02*
D03*
X3917Y3622D02*
D03*
X1881Y3317D02*
D03*
X1847Y3271D02*
D03*
X1814Y3225D02*
D03*
X1780Y3179D02*
D03*
X1746Y3133D02*
D03*
X1713Y3087D02*
D03*
X1679Y3041D02*
D03*
D215*
X3078Y2383D02*
D03*
Y2427D02*
D03*
Y2470D02*
D03*
Y2513D02*
D03*
Y2557D02*
D03*
X3122Y2383D02*
D03*
Y2427D02*
D03*
Y2470D02*
D03*
Y2513D02*
D03*
Y2557D02*
D03*
X3165Y2383D02*
D03*
Y2427D02*
D03*
Y2470D02*
D03*
Y2513D02*
D03*
Y2557D02*
D03*
X3208Y2383D02*
D03*
Y2427D02*
D03*
Y2470D02*
D03*
Y2513D02*
D03*
Y2557D02*
D03*
X3252Y2383D02*
D03*
Y2427D02*
D03*
Y2470D02*
D03*
Y2513D02*
D03*
Y2557D02*
D03*
X9593Y5069D02*
D03*
X9550D02*
D03*
X9593Y5113D02*
D03*
X9550D02*
D03*
X8858Y5069D02*
D03*
X8815D02*
D03*
X8858Y5113D02*
D03*
X8815D02*
D03*
X8887Y6078D02*
D03*
Y6122D02*
D03*
X8843Y6078D02*
D03*
Y6122D02*
D03*
X10292Y6624D02*
D03*
Y6580D02*
D03*
Y6537D02*
D03*
X10335Y6624D02*
D03*
Y6580D02*
D03*
Y6537D02*
D03*
X10378Y6624D02*
D03*
Y6580D02*
D03*
Y6537D02*
D03*
X2140Y6415D02*
D03*
X2070D02*
D03*
X2105Y6436D02*
D03*
Y6394D02*
D03*
X1545Y6415D02*
D03*
X1475D02*
D03*
X1510Y6436D02*
D03*
Y6394D02*
D03*
X5790Y1980D02*
D03*
X5750D02*
D03*
X5790Y1940D02*
D03*
X5750D02*
D03*
D216*
X3939Y2535D02*
D03*
X4021D02*
D03*
X3978Y2476D02*
D03*
D217*
X11004Y5853D02*
D03*
X10915D02*
D03*
X10741D02*
D03*
X11028Y5870D02*
D03*
Y5913D02*
D03*
X11004Y5679D02*
D03*
X10915Y5712D02*
D03*
X10741D02*
D03*
X11028Y5695D02*
D03*
Y5740D02*
D03*
X11004Y5639D02*
D03*
Y5809D02*
D03*
D218*
X7976Y6751D02*
D03*
D219*
X11838Y4562D02*
D03*
M02*
