G04*
G04 #@! TF.GenerationSoftware,Altium Limited,Altium Designer,22.6.1 (34)*
G04*
G04 Layer_Color=32768*
%FSLAX23Y23*%
%MOIN*%
G70*
G04*
G04 #@! TF.SameCoordinates,48DA0B1C-91FB-4976-8A67-4949CEA53551*
G04*
G04*
G04 #@! TF.FilePolarity,Positive*
G04*
G01*
G75*
%ADD18C,0.008*%
D18*
X1226Y3700D02*
G03*
X1364Y3700I69J0D01*
G01*
D02*
G03*
X1226Y3700I-69J0D01*
G01*
X1750Y4929D02*
G03*
X1750Y4791I0J-69D01*
G01*
D02*
G03*
X1750Y4929I0J69D01*
G01*
X1260Y5249D02*
G03*
X1260Y5111I0J-69D01*
G01*
D02*
G03*
X1260Y5249I0J69D01*
G01*
X2130Y4559D02*
G03*
X2130Y4421I0J-69D01*
G01*
D02*
G03*
X2130Y4559I0J69D01*
G01*
X2425Y4609D02*
G03*
X2425Y4471I0J-69D01*
G01*
D02*
G03*
X2425Y4609I0J69D01*
G01*
X2125Y5404D02*
G03*
X2125Y5266I0J-69D01*
G01*
D02*
G03*
X2125Y5404I0J69D01*
G01*
X8769Y2295D02*
G03*
X8631Y2295I-69J0D01*
G01*
D02*
G03*
X8769Y2295I69J0D01*
G01*
X10489Y2725D02*
G03*
X10351Y2725I-69J0D01*
G01*
D02*
G03*
X10489Y2725I69J0D01*
G01*
X5389Y1850D02*
G03*
X5251Y1850I-69J0D01*
G01*
D02*
G03*
X5389Y1850I69J0D01*
G01*
X1889Y2230D02*
G03*
X1751Y2230I-69J0D01*
G01*
D02*
G03*
X1889Y2230I69J0D01*
G01*
X4211Y2980D02*
G03*
X4349Y2980I69J0D01*
G01*
D02*
G03*
X4211Y2980I-69J0D01*
G01*
X4711Y4270D02*
G03*
X4849Y4270I69J0D01*
G01*
D02*
G03*
X4711Y4270I-69J0D01*
G01*
X3301Y3670D02*
G03*
X3439Y3670I69J0D01*
G01*
D02*
G03*
X3301Y3670I-69J0D01*
G01*
X5561Y1924D02*
Y1971D01*
X5483D02*
X5561D01*
X5483Y1924D02*
Y1971D01*
Y1924D02*
X5561D01*
X2799Y2509D02*
Y2572D01*
X2831D01*
Y2509D02*
Y2572D01*
X2799Y2509D02*
X2831D01*
X1393Y6308D02*
X1422D01*
Y6366D01*
X1393D02*
X1422D01*
X1393Y6308D02*
Y6366D01*
X10961Y1674D02*
X11039D01*
Y1626D02*
Y1674D01*
X10961Y1626D02*
X11039D01*
X10961D02*
Y1674D01*
X2191Y5129D02*
X2269D01*
Y5081D02*
Y5129D01*
X2191Y5081D02*
X2269D01*
X2191D02*
Y5129D01*
X2221Y4604D02*
X2299D01*
Y4556D02*
Y4604D01*
X2221Y4556D02*
X2299D01*
X2221D02*
Y4604D01*
X2216Y5259D02*
X2294D01*
Y5211D02*
Y5259D01*
X2216Y5211D02*
X2294D01*
X2216D02*
Y5259D01*
X1411Y5204D02*
X1489D01*
Y5156D02*
Y5204D01*
X1411Y5156D02*
X1489D01*
X1411D02*
Y5204D01*
X1952Y5239D02*
X2031D01*
Y5191D02*
Y5239D01*
X1952Y5191D02*
X2031D01*
X1952D02*
Y5239D01*
X1731Y5014D02*
X1809D01*
Y4966D02*
Y5014D01*
X1731Y4966D02*
X1809D01*
X1731D02*
Y5014D01*
X2081Y5204D02*
X2159D01*
Y5156D02*
Y5204D01*
X2081Y5156D02*
X2159D01*
X2081D02*
Y5204D01*
X2166Y4854D02*
X2244D01*
Y4806D02*
Y4854D01*
X2166Y4806D02*
X2244D01*
X2166D02*
Y4854D01*
X2086Y4634D02*
X2164D01*
Y4586D02*
Y4634D01*
X2086Y4586D02*
X2164D01*
X2086D02*
Y4634D01*
X1971Y4644D02*
X2049D01*
Y4596D02*
Y4644D01*
X1971Y4596D02*
X2049D01*
X1971D02*
Y4644D01*
X5161Y5514D02*
X5239D01*
Y5466D02*
Y5514D01*
X5161Y5466D02*
X5239D01*
X5161D02*
Y5514D01*
X8471Y2829D02*
X8549D01*
Y2781D02*
Y2829D01*
X8471Y2781D02*
X8549D01*
X8471D02*
Y2829D01*
X5994Y5330D02*
X6073D01*
Y5283D02*
Y5330D01*
X5994Y5283D02*
X6073D01*
X5994D02*
Y5330D01*
X4287Y6299D02*
X4583D01*
Y6191D02*
Y6299D01*
X4287Y6191D02*
X4583D01*
X4287D02*
Y6299D01*
X2184Y6312D02*
X2242D01*
X2184D02*
Y6342D01*
X2242D01*
Y6312D02*
Y6342D01*
X1589Y6312D02*
X1647D01*
X1589D02*
Y6342D01*
X1647D01*
Y6312D02*
Y6342D01*
X1988Y6308D02*
Y6366D01*
X2017D01*
Y6308D02*
Y6366D01*
X1988Y6308D02*
X2017D01*
X2107Y6506D02*
Y6564D01*
X2077Y6506D02*
X2107D01*
X2077D02*
Y6564D01*
X2107D01*
X1512Y6506D02*
Y6564D01*
X1482Y6506D02*
X1512D01*
X1482D02*
Y6564D01*
X1512D01*
X9801Y3724D02*
X9879D01*
Y3676D02*
Y3724D01*
X9801Y3676D02*
X9879D01*
X9801D02*
Y3724D01*
Y3104D02*
X9879D01*
Y3057D02*
Y3104D01*
X9801Y3057D02*
X9879D01*
X9801D02*
Y3104D01*
X10961D02*
X11039D01*
Y3057D02*
Y3104D01*
X10961Y3057D02*
X11039D01*
X10961D02*
Y3104D01*
X2150Y2657D02*
X2229D01*
Y2610D02*
Y2657D01*
X2150Y2610D02*
X2229D01*
X2150D02*
Y2657D01*
X11936Y4546D02*
Y4578D01*
X11864D02*
X11936D01*
X11864Y4546D02*
Y4578D01*
Y4546D02*
X11936D01*
X3483Y2667D02*
X3547D01*
Y2773D01*
X3483D02*
X3547D01*
X3483Y2667D02*
Y2773D01*
X4346Y4456D02*
Y4504D01*
Y4456D02*
X4424D01*
Y4504D01*
X4346D02*
X4424D01*
X5136Y4721D02*
Y4769D01*
Y4721D02*
X5214D01*
Y4769D01*
X5136D02*
X5214D01*
X4216Y5016D02*
Y5064D01*
Y5016D02*
X4294D01*
Y5064D01*
X4216D02*
X4294D01*
X10961Y3606D02*
Y3654D01*
Y3606D02*
X11039D01*
Y3654D01*
X10961D02*
X11039D01*
X3331Y3511D02*
Y3559D01*
Y3511D02*
X3409D01*
Y3559D01*
X3331D02*
X3409D01*
X1306Y3821D02*
Y3869D01*
Y3821D02*
X1384D01*
Y3869D01*
X1306D02*
X1384D01*
X9879Y2376D02*
Y2424D01*
X9801D02*
X9879D01*
X9801Y2376D02*
Y2424D01*
Y2376D02*
X9879D01*
X11039D02*
Y2424D01*
X10961D02*
X11039D01*
X10961Y2376D02*
Y2424D01*
Y2376D02*
X11039D01*
X9801Y1626D02*
Y1674D01*
Y1626D02*
X9879D01*
Y1674D01*
X9801D02*
X9879D01*
M02*
