G04*
G04 #@! TF.GenerationSoftware,Altium Limited,Altium Designer,22.10.1 (41)*
G04*
G04 Layer_Physical_Order=9*
G04 Layer_Color=16711935*
%FSLAX25Y25*%
%MOIN*%
G70*
G04*
G04 #@! TF.SameCoordinates,72A4C529-D447-4618-9FEB-1D22E0D21F89*
G04*
G04*
G04 #@! TF.FilePolarity,Positive*
G04*
G01*
G75*
%ADD14C,0.01000*%
%ADD224C,0.02165*%
%ADD229C,0.01968*%
%ADD236C,0.00614*%
%ADD258C,0.11000*%
%ADD272C,0.04000*%
%ADD281C,0.01500*%
G36*
X431732Y690720D02*
X431730Y690699D01*
X431726Y690194D01*
X431725Y690070D01*
X430225Y690069D01*
X430217Y690726D01*
X431733Y690728D01*
X431732Y690720D01*
D02*
G37*
G36*
X431734Y686775D02*
X430218Y686773D01*
X430219Y686781D01*
X430221Y686802D01*
X430225Y687307D01*
X430225Y687430D01*
X431725Y687432D01*
X431734Y686775D01*
D02*
G37*
G36*
X431733Y685220D02*
X431731Y685199D01*
X431727Y684694D01*
X431726Y684571D01*
X430226D01*
X430219Y685228D01*
X431734D01*
X431733Y685220D01*
D02*
G37*
G36*
X816329Y718425D02*
X816498Y717976D01*
X816505Y717925D01*
X816092Y717387D01*
X815827Y716749D01*
X815737Y716063D01*
X815827Y715378D01*
X816092Y714739D01*
X816513Y714190D01*
X817062Y713769D01*
X817700Y713505D01*
X818386Y713414D01*
X819071Y713505D01*
X819710Y713769D01*
X820259Y714190D01*
X820680Y714739D01*
X820944Y715378D01*
X821035Y716063D01*
X820944Y716749D01*
X820680Y717387D01*
X820267Y717925D01*
X820274Y717976D01*
X820442Y718425D01*
X823740D01*
X868625Y673540D01*
X868379Y673079D01*
X868225Y673110D01*
X867608Y672987D01*
X867084Y672637D01*
X866734Y672114D01*
X866611Y671496D01*
X866734Y670879D01*
X867084Y670355D01*
X867608Y670005D01*
X868225Y669882D01*
X868843Y670005D01*
X869366Y670355D01*
X869716Y670879D01*
X869839Y671496D01*
X869808Y671650D01*
X870269Y671896D01*
X890152Y652013D01*
X890048Y651536D01*
X889979Y651480D01*
X889472Y651141D01*
X889122Y650618D01*
X888999Y650000D01*
X889122Y649382D01*
X889472Y648859D01*
X889995Y648509D01*
X890613Y648386D01*
X891230Y648509D01*
X891754Y648859D01*
X892093Y649366D01*
X892149Y649435D01*
X892626Y649539D01*
X901204Y640961D01*
X979708Y640961D01*
X1006299Y614370D01*
X1006299Y239094D01*
X992953Y225748D01*
X912598D01*
X912598Y557402D01*
X758071Y557402D01*
X744095Y571378D01*
Y597741D01*
X744594Y598008D01*
X744842Y597842D01*
X745460Y597719D01*
X746078Y597842D01*
X746601Y598192D01*
X746951Y598715D01*
X747074Y599333D01*
X746951Y599951D01*
X746601Y600474D01*
X746078Y600824D01*
X745460Y600947D01*
X744842Y600824D01*
X744594Y600658D01*
X744095Y600925D01*
Y601489D01*
X744155Y601793D01*
X744095Y602097D01*
X744095Y634519D01*
X744235Y634613D01*
X744585Y635137D01*
X744708Y635754D01*
X744585Y636372D01*
X744235Y636895D01*
X744095Y636989D01*
Y646730D01*
X744594Y646997D01*
X744835Y646836D01*
X745453Y646713D01*
X746070Y646836D01*
X746594Y647186D01*
X746944Y647709D01*
X747066Y648327D01*
X746944Y648944D01*
X746594Y649468D01*
X746070Y649818D01*
X745453Y649940D01*
X744835Y649818D01*
X744594Y649657D01*
X744095Y649924D01*
Y652323D01*
X701509D01*
X701192Y652534D01*
X700575Y652657D01*
X699957Y652534D01*
X699641Y652323D01*
X696784D01*
X696468Y652534D01*
X695850Y652657D01*
X695233Y652534D01*
X694917Y652323D01*
X692061D01*
X691744Y652534D01*
X691127Y652657D01*
X690509Y652534D01*
X690193Y652323D01*
X681680D01*
X681630Y652571D01*
X681281Y653095D01*
X680757Y653445D01*
X680139Y653568D01*
X679522Y653445D01*
X678998Y653095D01*
X678649Y652571D01*
X678599Y652323D01*
X677644D01*
X677595Y652571D01*
X677245Y653095D01*
X676721Y653445D01*
X676104Y653568D01*
X675487Y653445D01*
X674963Y653095D01*
X674613Y652571D01*
X674564Y652323D01*
X512126Y652323D01*
X512126Y593701D01*
X466788D01*
Y688488D01*
X460512Y694764D01*
X419213D01*
X375945Y651496D01*
Y583779D01*
X27047D01*
Y623344D01*
X263226Y623344D01*
X358307Y718425D01*
X816329Y718425D01*
D02*
G37*
G36*
X691929Y623425D02*
X655905D01*
Y603607D01*
X655536Y603236D01*
X655295Y602655D01*
Y602025D01*
X655536Y601443D01*
X655699Y601280D01*
X655412Y600899D01*
X654830Y601140D01*
X654201D01*
X653619Y600899D01*
X653174Y600454D01*
X652933Y599872D01*
Y599242D01*
X653174Y598661D01*
X653619Y598215D01*
X654201Y597974D01*
X654830D01*
X655412Y598215D01*
X655905Y598002D01*
Y553937D01*
X627205Y525236D01*
X597913D01*
Y565408D01*
X615866Y583767D01*
Y601102D01*
X573032D01*
Y648701D01*
X573835D01*
X574069Y648228D01*
X573829Y647646D01*
Y647017D01*
X574069Y646435D01*
X574515Y645990D01*
X575096Y645749D01*
X575726D01*
X576308Y645990D01*
X576753Y646435D01*
X576994Y647017D01*
Y647646D01*
X576753Y648228D01*
X576987Y648701D01*
X597455D01*
X597689Y648228D01*
X597448Y647646D01*
Y647017D01*
X597689Y646435D01*
X598135Y645990D01*
X598716Y645749D01*
X599346D01*
X599928Y645990D01*
X600373Y646435D01*
X600614Y647017D01*
Y647646D01*
X600373Y648228D01*
X600607Y648701D01*
X616351D01*
X616585Y648228D01*
X616344Y647646D01*
Y647017D01*
X616585Y646435D01*
X617031Y645990D01*
X617612Y645749D01*
X618242D01*
X618824Y645990D01*
X619269Y646435D01*
X619510Y647017D01*
Y647646D01*
X619269Y648228D01*
X619503Y648701D01*
X624191D01*
X624290Y648201D01*
X624119Y648130D01*
X623673Y647684D01*
X623432Y647103D01*
Y646473D01*
X623673Y645892D01*
X624119Y645446D01*
X624700Y645205D01*
X625330D01*
X625912Y645446D01*
X626357Y645892D01*
X626598Y646473D01*
Y647103D01*
X626357Y647684D01*
X625912Y648130D01*
X625740Y648201D01*
X625840Y648701D01*
X630523D01*
X630757Y648228D01*
X630516Y647646D01*
Y647017D01*
X630757Y646435D01*
X631203Y645990D01*
X631784Y645749D01*
X632414D01*
X632996Y645990D01*
X633441Y646435D01*
X633682Y647017D01*
Y647646D01*
X633441Y648228D01*
X633675Y648701D01*
X638365D01*
X638465Y648201D01*
X638287Y648127D01*
X637842Y647682D01*
X637601Y647100D01*
Y646471D01*
X637842Y645889D01*
X638287Y645444D01*
X638869Y645203D01*
X639498D01*
X640080Y645444D01*
X640525Y645889D01*
X640766Y646471D01*
Y647100D01*
X640525Y647682D01*
X640080Y648127D01*
X639902Y648201D01*
X640002Y648701D01*
X649670D01*
X649904Y648228D01*
X649663Y647646D01*
Y647017D01*
X649904Y646435D01*
X650350Y645990D01*
X650931Y645749D01*
X651561D01*
X652142Y645990D01*
X652588Y646435D01*
X652829Y647017D01*
Y647646D01*
X652588Y648228D01*
X652822Y648701D01*
X668511D01*
X668755Y648600D01*
X669385D01*
X669629Y648701D01*
X672439D01*
X672683Y648600D01*
X672938D01*
X673047Y648479D01*
X673220Y648100D01*
X673033Y647646D01*
Y647017D01*
X673273Y646435D01*
X673719Y645990D01*
X674300Y645749D01*
X674930D01*
X675512Y645990D01*
X675957Y646435D01*
X676198Y647017D01*
Y647646D01*
X675957Y648228D01*
X676191Y648701D01*
X685600D01*
X685700Y648201D01*
X685528Y648130D01*
X685083Y647684D01*
X684842Y647103D01*
Y646473D01*
X685083Y645892D01*
X685528Y645446D01*
X686110Y645205D01*
X686739D01*
X687321Y645446D01*
X687766Y645892D01*
X688007Y646473D01*
Y647103D01*
X687766Y647684D01*
X687321Y648130D01*
X687149Y648201D01*
X687249Y648701D01*
X691929D01*
Y623425D01*
D02*
G37*
G36*
X443281Y611580D02*
X443302Y611579D01*
X443807Y611574D01*
X443930Y611574D01*
Y610074D01*
X443273Y610066D01*
Y611582D01*
X443281Y611580D01*
D02*
G37*
G36*
X492795Y493485D02*
X492295Y493334D01*
X492090Y493641D01*
X491566Y493991D01*
X490949Y494114D01*
X490331Y493991D01*
X489808Y493641D01*
X489458Y493118D01*
X489335Y492500D01*
X489458Y491883D01*
X489808Y491359D01*
X490331Y491009D01*
X490949Y490886D01*
X491566Y491009D01*
X492090Y491359D01*
X492295Y491666D01*
X492795Y491515D01*
Y483485D01*
X492295Y483334D01*
X492090Y483641D01*
X491566Y483991D01*
X490949Y484114D01*
X490331Y483991D01*
X489808Y483641D01*
X489458Y483117D01*
X489335Y482500D01*
X489458Y481882D01*
X489808Y481359D01*
X490331Y481009D01*
X490949Y480886D01*
X491566Y481009D01*
X492090Y481359D01*
X492295Y481666D01*
X492795Y481515D01*
X492795Y448228D01*
X431684D01*
X431367Y448615D01*
X431404Y448801D01*
X431281Y449419D01*
X430932Y449942D01*
X430408Y450292D01*
X429790Y450415D01*
X429173Y450292D01*
X428650Y449942D01*
X428300Y449419D01*
X428177Y448801D01*
X428214Y448615D01*
X427897Y448228D01*
X426535D01*
X426535Y502244D01*
X462556D01*
X462662Y501709D01*
X463012Y501186D01*
X463536Y500836D01*
X464153Y500713D01*
X464771Y500836D01*
X465294Y501186D01*
X465644Y501709D01*
X465751Y502244D01*
X469133D01*
X469183Y501744D01*
X469022Y501712D01*
X468721Y501652D01*
X468197Y501302D01*
X467848Y500779D01*
X467725Y500161D01*
X467848Y499544D01*
X468197Y499020D01*
X468721Y498671D01*
X469339Y498548D01*
X469956Y498671D01*
X470480Y499020D01*
X470829Y499544D01*
X470952Y500161D01*
X470829Y500779D01*
X470480Y501302D01*
X469956Y501652D01*
X469656Y501712D01*
X469494Y501744D01*
X469544Y502244D01*
X473464D01*
X473513Y501744D01*
X473352Y501712D01*
X473052Y501652D01*
X472528Y501302D01*
X472178Y500779D01*
X472056Y500161D01*
X472178Y499544D01*
X472528Y499020D01*
X473052Y498671D01*
X473669Y498548D01*
X474287Y498671D01*
X474810Y499020D01*
X475160Y499544D01*
X475283Y500161D01*
X475160Y500779D01*
X474810Y501302D01*
X474287Y501652D01*
X473986Y501712D01*
X473825Y501744D01*
X473875Y502244D01*
X477795D01*
X477844Y501744D01*
X477683Y501712D01*
X477383Y501652D01*
X476859Y501302D01*
X476509Y500779D01*
X476386Y500161D01*
X476509Y499544D01*
X476859Y499020D01*
X477383Y498671D01*
X478000Y498548D01*
X478617Y498671D01*
X479141Y499020D01*
X479491Y499544D01*
X479614Y500161D01*
X479491Y500779D01*
X479141Y501302D01*
X478617Y501652D01*
X478317Y501712D01*
X478156Y501744D01*
X478205Y502244D01*
X482126D01*
X482175Y501744D01*
X482014Y501712D01*
X481713Y501652D01*
X481190Y501302D01*
X480840Y500779D01*
X480717Y500161D01*
X480840Y499544D01*
X481190Y499020D01*
X481713Y498671D01*
X482331Y498548D01*
X482948Y498671D01*
X483472Y499020D01*
X483822Y499544D01*
X483944Y500161D01*
X483822Y500779D01*
X483472Y501302D01*
X482948Y501652D01*
X482648Y501712D01*
X482487Y501744D01*
X482536Y502244D01*
X486456D01*
X486506Y501744D01*
X486344Y501712D01*
X486044Y501652D01*
X485520Y501302D01*
X485171Y500779D01*
X485048Y500161D01*
X485171Y499544D01*
X485520Y499020D01*
X486044Y498671D01*
X486661Y498548D01*
X487279Y498671D01*
X487803Y499020D01*
X488152Y499544D01*
X488275Y500161D01*
X488152Y500779D01*
X487803Y501302D01*
X487279Y501652D01*
X486978Y501712D01*
X486817Y501744D01*
X486867Y502244D01*
X492795D01*
Y493485D01*
D02*
G37*
G36*
X207592Y492638D02*
X207516Y492549D01*
X207448Y492459D01*
X207389Y492368D01*
X207340Y492277D01*
X207299Y492185D01*
X207268Y492093D01*
X207245Y492000D01*
X207232Y491906D01*
X207227Y491812D01*
X206613D01*
X206608Y491906D01*
X206595Y492000D01*
X206572Y492093D01*
X206541Y492185D01*
X206500Y492277D01*
X206451Y492368D01*
X206392Y492459D01*
X206324Y492549D01*
X206248Y492638D01*
X206162Y492727D01*
X207678D01*
X207592Y492638D01*
D02*
G37*
G36*
X588307Y330748D02*
X501732Y244173D01*
X389291D01*
X295787Y337677D01*
X295787Y375472D01*
X337283Y416968D01*
Y511457D01*
X371772D01*
Y498307D01*
X353701D01*
Y454481D01*
X353201Y454274D01*
X352983Y454491D01*
X352401Y454732D01*
X351772D01*
X351190Y454491D01*
X350745Y454046D01*
X350504Y453464D01*
Y452835D01*
X350745Y452253D01*
X351190Y451808D01*
X351772Y451567D01*
X352401D01*
X352983Y451808D01*
X353201Y452026D01*
X353701Y451818D01*
Y414055D01*
X308071Y368425D01*
X308071Y348071D01*
X395236Y260906D01*
X497323D01*
X573701Y337283D01*
Y529606D01*
X588307D01*
Y330748D01*
D02*
G37*
G36*
X344586Y356916D02*
X344598Y356843D01*
X344618Y356768D01*
X344646Y356692D01*
X344683Y356615D01*
X344728Y356537D01*
X344782Y356458D01*
X344843Y356378D01*
X344914Y356297D01*
X344992Y356215D01*
X344285Y355508D01*
X344203Y355587D01*
X344042Y355718D01*
X343963Y355772D01*
X343885Y355817D01*
X343808Y355854D01*
X343732Y355882D01*
X343657Y355902D01*
X343584Y355914D01*
X343511Y355917D01*
X344583Y356989D01*
X344586Y356916D01*
D02*
G37*
G36*
X1186024Y373576D02*
Y318000D01*
X1126000D01*
X1117000Y327000D01*
Y350400D01*
X1084900D01*
Y403500D01*
X1156100D01*
X1186024Y373576D01*
D02*
G37*
G36*
X493622Y303699D02*
X493550Y303696D01*
X493476Y303684D01*
X493401Y303664D01*
X493325Y303635D01*
X493248Y303598D01*
X493170Y303553D01*
X493091Y303500D01*
X493011Y303438D01*
X492930Y303368D01*
X492848Y303290D01*
X492141Y303997D01*
X492220Y304079D01*
X492351Y304240D01*
X492405Y304319D01*
X492450Y304397D01*
X492487Y304474D01*
X492515Y304549D01*
X492535Y304624D01*
X492547Y304698D01*
X492551Y304771D01*
X493622Y303699D01*
D02*
G37*
G36*
X1123300Y316000D02*
X1186024Y316000D01*
Y301000D01*
X1118800D01*
X1108800Y291000D01*
X1084902D01*
Y321000D01*
X1118300D01*
X1123300Y316000D01*
D02*
G37*
G36*
X368862Y250987D02*
X368773Y251073D01*
X368684Y251150D01*
X368594Y251217D01*
X368503Y251276D01*
X368412Y251325D01*
X368320Y251366D01*
X368228Y251398D01*
X368135Y251420D01*
X368041Y251434D01*
X367947Y251438D01*
Y252052D01*
X368041Y252057D01*
X368135Y252070D01*
X368228Y252093D01*
X368320Y252124D01*
X368412Y252165D01*
X368503Y252215D01*
X368594Y252273D01*
X368684Y252341D01*
X368773Y252417D01*
X368862Y252503D01*
Y250987D01*
D02*
G37*
G36*
X673976Y473268D02*
X853465Y473268D01*
X880276Y446457D01*
Y239764D01*
X771811D01*
Y368347D01*
X720276Y419882D01*
X660000Y419882D01*
X597913Y481969D01*
X597913Y523307D01*
X623937D01*
X673976Y473268D01*
D02*
G37*
G36*
X1186024Y299000D02*
Y284000D01*
X1150200D01*
X1126900Y260700D01*
X1126900Y223900D01*
X1084902D01*
Y261302D01*
X1122600Y299000D01*
X1186024Y299000D01*
D02*
G37*
G36*
Y282000D02*
Y254000D01*
X1150000D01*
Y168400D01*
X1135400Y153800D01*
X1084902D01*
Y176500D01*
X1123500D01*
X1130000Y183000D01*
Y260100D01*
X1151900Y282000D01*
X1186024Y282000D01*
D02*
G37*
%LPC*%
G36*
X777459Y715114D02*
X776842Y714991D01*
X776318Y714641D01*
X775969Y714117D01*
X775846Y713500D01*
X775969Y712883D01*
X776318Y712359D01*
X776842Y712009D01*
X777459Y711886D01*
X778077Y712009D01*
X778600Y712359D01*
X778950Y712883D01*
X779073Y713500D01*
X778950Y714117D01*
X778600Y714641D01*
X778077Y714991D01*
X777459Y715114D01*
D02*
G37*
G36*
X779750Y712114D02*
X779133Y711991D01*
X778609Y711641D01*
X778259Y711118D01*
X778136Y710500D01*
X778259Y709882D01*
X778609Y709359D01*
X779133Y709009D01*
X779750Y708886D01*
X780368Y709009D01*
X780891Y709359D01*
X781241Y709882D01*
X781364Y710500D01*
X781241Y711118D01*
X780891Y711641D01*
X780368Y711991D01*
X779750Y712114D01*
D02*
G37*
G36*
X794000Y711657D02*
X793383Y711534D01*
X792859Y711184D01*
X792509Y710661D01*
X792386Y710043D01*
X792509Y709426D01*
X792859Y708902D01*
X793383Y708553D01*
X794000Y708430D01*
X794618Y708553D01*
X795141Y708902D01*
X795491Y709426D01*
X795614Y710043D01*
X795491Y710661D01*
X795141Y711184D01*
X794618Y711534D01*
X794000Y711657D01*
D02*
G37*
G36*
X777083Y709114D02*
X776465Y708991D01*
X775942Y708641D01*
X775592Y708117D01*
X775469Y707500D01*
X775592Y706882D01*
X775942Y706359D01*
X776465Y706009D01*
X777083Y705886D01*
X777700Y706009D01*
X778224Y706359D01*
X778574Y706882D01*
X778696Y707500D01*
X778574Y708117D01*
X778224Y708641D01*
X777700Y708991D01*
X777083Y709114D01*
D02*
G37*
G36*
X779750Y706114D02*
X779133Y705991D01*
X778609Y705641D01*
X778259Y705118D01*
X778136Y704500D01*
X778259Y703883D01*
X778609Y703359D01*
X779133Y703009D01*
X779750Y702886D01*
X780368Y703009D01*
X780891Y703359D01*
X781241Y703883D01*
X781364Y704500D01*
X781241Y705118D01*
X780891Y705641D01*
X780368Y705991D01*
X779750Y706114D01*
D02*
G37*
G36*
X802327Y705866D02*
X801709Y705743D01*
X801186Y705393D01*
X800836Y704870D01*
X800713Y704252D01*
X800836Y703635D01*
X801186Y703111D01*
X801709Y702761D01*
X802327Y702638D01*
X802944Y702761D01*
X803468Y703111D01*
X803818Y703635D01*
X803940Y704252D01*
X803818Y704870D01*
X803468Y705393D01*
X802944Y705743D01*
X802327Y705866D01*
D02*
G37*
G36*
X834445Y705866D02*
X833827Y705743D01*
X833304Y705393D01*
X832954Y704870D01*
X832831Y704252D01*
X832954Y703634D01*
X833304Y703111D01*
X833827Y702761D01*
X834445Y702638D01*
X835062Y702761D01*
X835586Y703111D01*
X835936Y703634D01*
X836059Y704252D01*
X835936Y704870D01*
X835586Y705393D01*
X835062Y705743D01*
X834445Y705866D01*
D02*
G37*
G36*
X777083Y703114D02*
X776465Y702991D01*
X775942Y702641D01*
X775592Y702117D01*
X775469Y701500D01*
X775592Y700882D01*
X775942Y700359D01*
X776465Y700009D01*
X777083Y699886D01*
X777700Y700009D01*
X778224Y700359D01*
X778574Y700882D01*
X778696Y701500D01*
X778574Y702117D01*
X778224Y702641D01*
X777700Y702991D01*
X777083Y703114D01*
D02*
G37*
G36*
X786764Y702321D02*
X786147Y702199D01*
X785623Y701849D01*
X785274Y701325D01*
X785151Y700708D01*
X785274Y700090D01*
X785623Y699567D01*
X786147Y699217D01*
X786764Y699094D01*
X787382Y699217D01*
X787905Y699567D01*
X788255Y700090D01*
X788378Y700708D01*
X788255Y701325D01*
X787905Y701849D01*
X787382Y702199D01*
X786764Y702321D01*
D02*
G37*
G36*
X794240Y701006D02*
X793623Y700883D01*
X793099Y700534D01*
X792749Y700010D01*
X792626Y699393D01*
X792749Y698775D01*
X793099Y698251D01*
X793623Y697902D01*
X794240Y697779D01*
X794858Y697902D01*
X795381Y698251D01*
X795731Y698775D01*
X795854Y699393D01*
X795731Y700010D01*
X795381Y700534D01*
X794858Y700883D01*
X794240Y701006D01*
D02*
G37*
G36*
X779750Y700114D02*
X779133Y699991D01*
X778609Y699641D01*
X778259Y699118D01*
X778136Y698500D01*
X778259Y697883D01*
X778609Y697359D01*
X779133Y697009D01*
X779750Y696886D01*
X780368Y697009D01*
X780891Y697359D01*
X781241Y697883D01*
X781364Y698500D01*
X781241Y699118D01*
X780891Y699641D01*
X780368Y699991D01*
X779750Y700114D01*
D02*
G37*
G36*
X802327Y697992D02*
X801709Y697869D01*
X801186Y697519D01*
X800836Y696995D01*
X800713Y696378D01*
X800836Y695760D01*
X801186Y695237D01*
X801709Y694887D01*
X802327Y694764D01*
X802944Y694887D01*
X803468Y695237D01*
X803818Y695760D01*
X803940Y696378D01*
X803818Y696995D01*
X803468Y697519D01*
X802944Y697869D01*
X802327Y697992D01*
D02*
G37*
G36*
X834445Y697992D02*
X833827Y697869D01*
X833304Y697519D01*
X832954Y696995D01*
X832831Y696378D01*
X832954Y695760D01*
X833304Y695237D01*
X833827Y694887D01*
X834445Y694764D01*
X835062Y694887D01*
X835586Y695237D01*
X835936Y695760D01*
X836059Y696378D01*
X835936Y696995D01*
X835586Y697519D01*
X835062Y697869D01*
X834445Y697992D01*
D02*
G37*
G36*
X777083Y697114D02*
X776465Y696991D01*
X775942Y696641D01*
X775592Y696117D01*
X775469Y695500D01*
X775592Y694882D01*
X775942Y694359D01*
X776465Y694009D01*
X777083Y693886D01*
X777700Y694009D01*
X778224Y694359D01*
X778574Y694882D01*
X778696Y695500D01*
X778574Y696117D01*
X778224Y696641D01*
X777700Y696991D01*
X777083Y697114D01*
D02*
G37*
G36*
X790500Y691871D02*
X789883Y691748D01*
X789359Y691398D01*
X789009Y690875D01*
X788886Y690258D01*
X789009Y689640D01*
X789359Y689116D01*
X789883Y688767D01*
X790500Y688644D01*
X791117Y688767D01*
X791641Y689116D01*
X791991Y689640D01*
X792114Y690258D01*
X791991Y690875D01*
X791641Y691398D01*
X791117Y691748D01*
X790500Y691871D01*
D02*
G37*
G36*
X786667Y690972D02*
X786050Y690849D01*
X785526Y690500D01*
X785177Y689976D01*
X785054Y689359D01*
X785177Y688741D01*
X785526Y688218D01*
X786050Y687868D01*
X786667Y687745D01*
X787285Y687868D01*
X787808Y688218D01*
X788158Y688741D01*
X788281Y689359D01*
X788158Y689976D01*
X787808Y690500D01*
X787285Y690849D01*
X786667Y690972D01*
D02*
G37*
G36*
X802327Y690118D02*
X801709Y689995D01*
X801186Y689645D01*
X800836Y689121D01*
X800713Y688504D01*
X800836Y687886D01*
X801186Y687363D01*
X801709Y687013D01*
X802327Y686890D01*
X802944Y687013D01*
X803468Y687363D01*
X803818Y687886D01*
X803940Y688504D01*
X803818Y689121D01*
X803468Y689645D01*
X802944Y689995D01*
X802327Y690118D01*
D02*
G37*
G36*
X834445Y690118D02*
X833827Y689995D01*
X833304Y689645D01*
X832954Y689121D01*
X832831Y688504D01*
X832954Y687886D01*
X833304Y687363D01*
X833827Y687013D01*
X834445Y686890D01*
X835062Y687013D01*
X835586Y687363D01*
X835936Y687886D01*
X836059Y688504D01*
X835936Y689121D01*
X835586Y689645D01*
X835062Y689995D01*
X834445Y690118D01*
D02*
G37*
G36*
X397244Y688334D02*
X396627Y688211D01*
X396103Y687861D01*
X395753Y687338D01*
X395630Y686721D01*
X395753Y686103D01*
X396103Y685579D01*
X396627Y685230D01*
X397244Y685107D01*
X397862Y685230D01*
X398385Y685579D01*
X398735Y686103D01*
X398858Y686721D01*
X398735Y687338D01*
X398385Y687861D01*
X397862Y688211D01*
X397244Y688334D01*
D02*
G37*
G36*
X371356Y688322D02*
X370738Y688199D01*
X370214Y687850D01*
X369865Y687326D01*
X369742Y686708D01*
X369865Y686091D01*
X370214Y685567D01*
X370738Y685218D01*
X371356Y685095D01*
X371973Y685218D01*
X372497Y685567D01*
X372846Y686091D01*
X372969Y686708D01*
X372846Y687326D01*
X372497Y687850D01*
X371973Y688199D01*
X371356Y688322D01*
D02*
G37*
G36*
X802327Y682263D02*
X801709Y682141D01*
X801186Y681791D01*
X800836Y681267D01*
X800713Y680650D01*
X800836Y680032D01*
X801186Y679509D01*
X801709Y679159D01*
X802327Y679036D01*
X802944Y679159D01*
X803468Y679509D01*
X803818Y680032D01*
X803940Y680650D01*
X803818Y681267D01*
X803468Y681791D01*
X802944Y682141D01*
X802327Y682263D01*
D02*
G37*
G36*
X834445Y682244D02*
X833827Y682121D01*
X833304Y681771D01*
X832954Y681248D01*
X832831Y680630D01*
X832954Y680012D01*
X833304Y679489D01*
X833827Y679139D01*
X834445Y679016D01*
X835062Y679139D01*
X835586Y679489D01*
X835936Y680012D01*
X836059Y680630D01*
X835936Y681248D01*
X835586Y681771D01*
X835062Y682121D01*
X834445Y682244D01*
D02*
G37*
G36*
X818386Y679342D02*
X817700Y679251D01*
X817062Y678987D01*
X816513Y678566D01*
X816092Y678017D01*
X815827Y677378D01*
X815737Y676693D01*
X815827Y676007D01*
X816092Y675369D01*
X816513Y674820D01*
X817062Y674399D01*
X817700Y674134D01*
X818386Y674044D01*
X819071Y674134D01*
X819710Y674399D01*
X820259Y674820D01*
X820680Y675369D01*
X820944Y676007D01*
X821035Y676693D01*
X820944Y677378D01*
X820680Y678017D01*
X820259Y678566D01*
X819710Y678987D01*
X819071Y679251D01*
X818386Y679342D01*
D02*
G37*
G36*
X797604Y677064D02*
X796871Y676918D01*
X796250Y676503D01*
X795835Y675882D01*
X795689Y675149D01*
X795835Y674416D01*
X796250Y673795D01*
X796871Y673380D01*
X797604Y673234D01*
X798336Y673380D01*
X798958Y673795D01*
X799373Y674416D01*
X799518Y675149D01*
X799373Y675882D01*
X798958Y676503D01*
X798336Y676918D01*
X797604Y677064D01*
D02*
G37*
G36*
X834445Y674370D02*
X833827Y674247D01*
X833304Y673897D01*
X832954Y673373D01*
X832831Y672756D01*
X832954Y672138D01*
X833304Y671615D01*
X833827Y671265D01*
X834445Y671142D01*
X835062Y671265D01*
X835586Y671615D01*
X835936Y672138D01*
X836059Y672756D01*
X835936Y673373D01*
X835586Y673897D01*
X835062Y674247D01*
X834445Y674370D01*
D02*
G37*
G36*
X700500Y673788D02*
X699883Y673665D01*
X699359Y673315D01*
X699009Y672792D01*
X698886Y672174D01*
X699009Y671557D01*
X699359Y671033D01*
X699883Y670683D01*
X700500Y670561D01*
X701118Y670683D01*
X701641Y671033D01*
X701991Y671557D01*
X702114Y672174D01*
X701991Y672792D01*
X701641Y673315D01*
X701118Y673665D01*
X700500Y673788D01*
D02*
G37*
G36*
X857317Y673110D02*
X856699Y672987D01*
X856176Y672637D01*
X855826Y672114D01*
X855703Y671496D01*
X855826Y670879D01*
X856176Y670355D01*
X856699Y670005D01*
X857317Y669882D01*
X857934Y670005D01*
X858458Y670355D01*
X858807Y670879D01*
X858930Y671496D01*
X858807Y672114D01*
X858458Y672637D01*
X857934Y672987D01*
X857317Y673110D01*
D02*
G37*
G36*
X862933Y666788D02*
X862315Y666666D01*
X861792Y666316D01*
X861442Y665792D01*
X861319Y665175D01*
X861442Y664557D01*
X861792Y664034D01*
X862315Y663684D01*
X862933Y663561D01*
X863551Y663684D01*
X864074Y664034D01*
X864424Y664557D01*
X864547Y665175D01*
X864424Y665792D01*
X864074Y666316D01*
X863551Y666666D01*
X862933Y666788D01*
D02*
G37*
G36*
X639161Y663709D02*
X638544Y663587D01*
X638020Y663237D01*
X637671Y662713D01*
X637548Y662096D01*
X637671Y661478D01*
X638020Y660955D01*
X638544Y660605D01*
X639161Y660482D01*
X639779Y660605D01*
X640303Y660955D01*
X640652Y661478D01*
X640775Y662096D01*
X640652Y662713D01*
X640303Y663237D01*
X639779Y663587D01*
X639161Y663709D01*
D02*
G37*
G36*
X686402Y662248D02*
X685784Y662125D01*
X685260Y661775D01*
X684911Y661251D01*
X684788Y660634D01*
X684911Y660016D01*
X685260Y659493D01*
X685784Y659143D01*
X686402Y659020D01*
X687019Y659143D01*
X687543Y659493D01*
X687892Y660016D01*
X688015Y660634D01*
X687892Y661251D01*
X687543Y661775D01*
X687019Y662125D01*
X686402Y662248D01*
D02*
G37*
G36*
X662783D02*
X662166Y662125D01*
X661642Y661775D01*
X661293Y661251D01*
X661170Y660634D01*
X661293Y660016D01*
X661642Y659493D01*
X662166Y659143D01*
X662783Y659020D01*
X663401Y659143D01*
X663925Y659493D01*
X664274Y660016D01*
X664397Y660634D01*
X664274Y661251D01*
X663925Y661775D01*
X663401Y662125D01*
X662783Y662248D01*
D02*
G37*
G36*
X624992D02*
X624375Y662125D01*
X623851Y661775D01*
X623501Y661251D01*
X623378Y660634D01*
X623501Y660016D01*
X623851Y659493D01*
X624375Y659143D01*
X624992Y659020D01*
X625610Y659143D01*
X626133Y659493D01*
X626483Y660016D01*
X626606Y660634D01*
X626483Y661251D01*
X626133Y661775D01*
X625610Y662125D01*
X624992Y662248D01*
D02*
G37*
G36*
X610819D02*
X610201Y662125D01*
X609678Y661775D01*
X609328Y661251D01*
X609205Y660634D01*
X609328Y660016D01*
X609678Y659493D01*
X610201Y659143D01*
X610819Y659020D01*
X611436Y659143D01*
X611960Y659493D01*
X612310Y660016D01*
X612433Y660634D01*
X612310Y661251D01*
X611960Y661775D01*
X611436Y662125D01*
X610819Y662248D01*
D02*
G37*
G36*
X587197D02*
X586579Y662125D01*
X586056Y661775D01*
X585706Y661251D01*
X585583Y660634D01*
X585706Y660016D01*
X586056Y659493D01*
X586579Y659143D01*
X587197Y659020D01*
X587814Y659143D01*
X588338Y659493D01*
X588688Y660016D01*
X588810Y660634D01*
X588688Y661251D01*
X588338Y661775D01*
X587814Y662125D01*
X587197Y662248D01*
D02*
G37*
G36*
X503994Y662078D02*
X503377Y661955D01*
X502853Y661605D01*
X502503Y661082D01*
X502381Y660464D01*
X502503Y659847D01*
X502853Y659323D01*
X503377Y658973D01*
X503994Y658850D01*
X504612Y658973D01*
X505135Y659323D01*
X505485Y659847D01*
X505608Y660464D01*
X505485Y661082D01*
X505135Y661605D01*
X504612Y661955D01*
X503994Y662078D01*
D02*
G37*
G36*
X496564D02*
X495947Y661955D01*
X495423Y661605D01*
X495073Y661082D01*
X494950Y660464D01*
X495073Y659847D01*
X495423Y659323D01*
X495947Y658973D01*
X496564Y658850D01*
X497182Y658973D01*
X497705Y659323D01*
X498055Y659847D01*
X498178Y660464D01*
X498055Y661082D01*
X497705Y661605D01*
X497182Y661955D01*
X496564Y662078D01*
D02*
G37*
G36*
X490219D02*
X489601Y661955D01*
X489078Y661605D01*
X488728Y661082D01*
X488605Y660464D01*
X488728Y659847D01*
X489078Y659323D01*
X489601Y658973D01*
X490219Y658850D01*
X490836Y658973D01*
X491360Y659323D01*
X491710Y659847D01*
X491832Y660464D01*
X491710Y661082D01*
X491360Y661605D01*
X490836Y661955D01*
X490219Y662078D01*
D02*
G37*
G36*
X761450Y659220D02*
X760832Y659097D01*
X760309Y658747D01*
X759959Y658224D01*
X759836Y657606D01*
X759959Y656989D01*
X760309Y656465D01*
X760832Y656115D01*
X761450Y655993D01*
X762067Y656115D01*
X762591Y656465D01*
X762941Y656989D01*
X763063Y657606D01*
X762941Y658224D01*
X762591Y658747D01*
X762067Y659097D01*
X761450Y659220D01*
D02*
G37*
G36*
X755479D02*
X754861Y659097D01*
X754338Y658747D01*
X753988Y658224D01*
X753865Y657606D01*
X753988Y656989D01*
X754338Y656465D01*
X754861Y656115D01*
X755479Y655993D01*
X756096Y656115D01*
X756620Y656465D01*
X756970Y656989D01*
X757093Y657606D01*
X756970Y658224D01*
X756620Y658747D01*
X756096Y659097D01*
X755479Y659220D01*
D02*
G37*
G36*
X748722D02*
X748104Y659097D01*
X747581Y658747D01*
X747231Y658224D01*
X747108Y657606D01*
X747231Y656989D01*
X747581Y656465D01*
X748104Y656115D01*
X748722Y655993D01*
X749339Y656115D01*
X749863Y656465D01*
X750212Y656989D01*
X750335Y657606D01*
X750212Y658224D01*
X749863Y658747D01*
X749339Y659097D01*
X748722Y659220D01*
D02*
G37*
G36*
X633664Y659133D02*
X633047Y659011D01*
X632523Y658661D01*
X632173Y658137D01*
X632051Y657520D01*
X632173Y656902D01*
X632523Y656379D01*
X633047Y656029D01*
X633664Y655906D01*
X634282Y656029D01*
X634805Y656379D01*
X635155Y656902D01*
X635278Y657520D01*
X635155Y658137D01*
X634805Y658661D01*
X634282Y659011D01*
X633664Y659133D01*
D02*
G37*
G36*
X690133Y657862D02*
X689516Y657739D01*
X688992Y657389D01*
X688643Y656866D01*
X688520Y656248D01*
X688643Y655630D01*
X688992Y655107D01*
X689516Y654757D01*
X690133Y654634D01*
X690751Y654757D01*
X691274Y655107D01*
X691624Y655630D01*
X691747Y656248D01*
X691624Y656866D01*
X691274Y657389D01*
X690751Y657739D01*
X690133Y657862D01*
D02*
G37*
G36*
X666515D02*
X665898Y657739D01*
X665374Y657389D01*
X665024Y656866D01*
X664901Y656248D01*
X665024Y655630D01*
X665374Y655107D01*
X665898Y654757D01*
X666515Y654634D01*
X667133Y654757D01*
X667656Y655107D01*
X668006Y655630D01*
X668129Y656248D01*
X668006Y656866D01*
X667656Y657389D01*
X667133Y657739D01*
X666515Y657862D01*
D02*
G37*
G36*
X628724D02*
X628106Y657739D01*
X627583Y657389D01*
X627233Y656866D01*
X627110Y656248D01*
X627233Y655630D01*
X627583Y655107D01*
X628106Y654757D01*
X628724Y654634D01*
X629341Y654757D01*
X629865Y655107D01*
X630215Y655630D01*
X630338Y656248D01*
X630215Y656866D01*
X629865Y657389D01*
X629341Y657739D01*
X628724Y657862D01*
D02*
G37*
G36*
X614551D02*
X613933Y657739D01*
X613410Y657389D01*
X613060Y656866D01*
X612937Y656248D01*
X613060Y655630D01*
X613410Y655107D01*
X613933Y654757D01*
X614551Y654634D01*
X615168Y654757D01*
X615692Y655107D01*
X616042Y655630D01*
X616164Y656248D01*
X616042Y656866D01*
X615692Y657389D01*
X615168Y657739D01*
X614551Y657862D01*
D02*
G37*
G36*
X590929D02*
X590311Y657739D01*
X589788Y657389D01*
X589438Y656866D01*
X589315Y656248D01*
X589438Y655630D01*
X589788Y655107D01*
X590311Y654757D01*
X590929Y654634D01*
X591546Y654757D01*
X592070Y655107D01*
X592419Y655630D01*
X592542Y656248D01*
X592419Y656866D01*
X592070Y657389D01*
X591546Y657739D01*
X590929Y657862D01*
D02*
G37*
G36*
X880028Y655354D02*
X879410Y655231D01*
X878887Y654881D01*
X878537Y654358D01*
X878414Y653740D01*
X878537Y653123D01*
X878887Y652599D01*
X879410Y652249D01*
X880028Y652127D01*
X880645Y652249D01*
X881169Y652599D01*
X881518Y653123D01*
X881641Y653740D01*
X881518Y654358D01*
X881169Y654881D01*
X880645Y655231D01*
X880028Y655354D01*
D02*
G37*
G36*
X509276Y648945D02*
X508658Y648822D01*
X508135Y648472D01*
X507785Y647948D01*
X507662Y647331D01*
X507785Y646713D01*
X508135Y646190D01*
X508658Y645840D01*
X509276Y645717D01*
X509893Y645840D01*
X510417Y646190D01*
X510767Y646713D01*
X510889Y647331D01*
X510767Y647948D01*
X510417Y648472D01*
X509893Y648822D01*
X509276Y648945D01*
D02*
G37*
G36*
X502189D02*
X501572Y648822D01*
X501048Y648472D01*
X500698Y647948D01*
X500575Y647331D01*
X500698Y646713D01*
X501048Y646190D01*
X501572Y645840D01*
X502189Y645717D01*
X502807Y645840D01*
X503330Y646190D01*
X503680Y646713D01*
X503803Y647331D01*
X503680Y647948D01*
X503330Y648472D01*
X502807Y648822D01*
X502189Y648945D01*
D02*
G37*
G36*
X880028Y647873D02*
X879410Y647751D01*
X878887Y647401D01*
X878537Y646877D01*
X878414Y646260D01*
X878537Y645642D01*
X878887Y645119D01*
X879410Y644769D01*
X880028Y644646D01*
X880645Y644769D01*
X881169Y645119D01*
X881518Y645642D01*
X881641Y646260D01*
X881518Y646877D01*
X881169Y647401D01*
X880645Y647751D01*
X880028Y647873D01*
D02*
G37*
G36*
X482655Y643114D02*
X482037Y642991D01*
X481514Y642641D01*
X481164Y642118D01*
X481041Y641500D01*
X481164Y640882D01*
X481514Y640359D01*
X482037Y640009D01*
X482655Y639886D01*
X483273Y640009D01*
X483796Y640359D01*
X484146Y640882D01*
X484269Y641500D01*
X484146Y642118D01*
X483796Y642641D01*
X483273Y642991D01*
X482655Y643114D01*
D02*
G37*
G36*
X787000Y641019D02*
X786382Y640897D01*
X785859Y640547D01*
X785509Y640023D01*
X785386Y639406D01*
X785509Y638788D01*
X785859Y638265D01*
X786382Y637915D01*
X787000Y637792D01*
X787617Y637915D01*
X788141Y638265D01*
X788491Y638788D01*
X788614Y639406D01*
X788491Y640023D01*
X788141Y640547D01*
X787617Y640897D01*
X787000Y641019D01*
D02*
G37*
G36*
X970980Y633149D02*
X970363Y633026D01*
X969839Y632677D01*
X969489Y632153D01*
X969367Y631535D01*
X969489Y630918D01*
X969839Y630394D01*
X970363Y630045D01*
X970980Y629922D01*
X971598Y630045D01*
X972121Y630394D01*
X972471Y630918D01*
X972594Y631535D01*
X972471Y632153D01*
X972121Y632677D01*
X971598Y633026D01*
X970980Y633149D01*
D02*
G37*
G36*
X976417Y628212D02*
X975800Y628089D01*
X975276Y627739D01*
X974926Y627216D01*
X974804Y626598D01*
X974926Y625981D01*
X975276Y625457D01*
X975800Y625108D01*
X976417Y624985D01*
X977035Y625108D01*
X977558Y625457D01*
X977908Y625981D01*
X978031Y626598D01*
X977908Y627216D01*
X977558Y627739D01*
X977035Y628089D01*
X976417Y628212D01*
D02*
G37*
G36*
X890325Y624355D02*
X889707Y624232D01*
X889184Y623882D01*
X888834Y623359D01*
X888729Y622831D01*
X888444Y622638D01*
X888238Y622558D01*
X888102Y622649D01*
X887484Y622772D01*
X886867Y622649D01*
X886343Y622299D01*
X885993Y621776D01*
X885871Y621159D01*
X885993Y620541D01*
X886343Y620017D01*
X886867Y619668D01*
X887484Y619545D01*
X888102Y619668D01*
X888625Y620017D01*
X888975Y620541D01*
X889080Y621068D01*
X889365Y621262D01*
X889571Y621341D01*
X889707Y621250D01*
X890325Y621127D01*
X890874Y621237D01*
X891070Y621154D01*
X891366Y620931D01*
X891467Y620422D01*
X891817Y619898D01*
X892340Y619548D01*
X892958Y619425D01*
X893575Y619548D01*
X894099Y619898D01*
X894449Y620422D01*
X894571Y621039D01*
X894449Y621657D01*
X894099Y622180D01*
X893575Y622530D01*
X892958Y622653D01*
X892409Y622544D01*
X892213Y622626D01*
X891917Y622849D01*
X891816Y623359D01*
X891466Y623882D01*
X890942Y624232D01*
X890325Y624355D01*
D02*
G37*
G36*
X756496Y628682D02*
X755543Y628556D01*
X754655Y628188D01*
X753893Y627603D01*
X753308Y626841D01*
X752940Y625953D01*
X752815Y625000D01*
X752940Y624047D01*
X753308Y623159D01*
X753893Y622397D01*
X754655Y621812D01*
X755543Y621444D01*
X756496Y621318D01*
X757449Y621444D01*
X758337Y621812D01*
X759099Y622397D01*
X759684Y623159D01*
X760052Y624047D01*
X760178Y625000D01*
X760052Y625953D01*
X759684Y626841D01*
X759099Y627603D01*
X758337Y628188D01*
X757449Y628556D01*
X756496Y628682D01*
D02*
G37*
G36*
X939118Y622788D02*
X938501Y622666D01*
X937977Y622316D01*
X937627Y621792D01*
X937504Y621175D01*
X937627Y620557D01*
X937977Y620034D01*
X938501Y619684D01*
X939118Y619561D01*
X939736Y619684D01*
X940259Y620034D01*
X940609Y620557D01*
X940732Y621175D01*
X940609Y621792D01*
X940259Y622316D01*
X939736Y622666D01*
X939118Y622788D01*
D02*
G37*
G36*
X493496Y629690D02*
X492282Y629530D01*
X491151Y629062D01*
X490180Y628316D01*
X489434Y627345D01*
X488966Y626214D01*
X488806Y625000D01*
X488966Y623786D01*
X489434Y622655D01*
X490180Y621684D01*
X491151Y620938D01*
X492282Y620470D01*
X493496Y620310D01*
X494710Y620470D01*
X495509Y620800D01*
X495836Y620435D01*
X495844Y620398D01*
X495509Y619897D01*
X495386Y619279D01*
X495509Y618662D01*
X495859Y618139D01*
X496383Y617789D01*
X497000Y617666D01*
X497617Y617789D01*
X498141Y618139D01*
X498491Y618662D01*
X498614Y619279D01*
X498491Y619897D01*
X498141Y620421D01*
X497617Y620770D01*
X497000Y620893D01*
X496952Y620884D01*
X496436Y621291D01*
X496432Y621391D01*
X496812Y621684D01*
X497558Y622655D01*
X498026Y623786D01*
X498186Y625000D01*
X498026Y626214D01*
X497558Y627345D01*
X496812Y628316D01*
X495841Y629062D01*
X494710Y629530D01*
X493496Y629690D01*
D02*
G37*
G36*
X488499Y620893D02*
X487882Y620770D01*
X487358Y620421D01*
X487008Y619897D01*
X486885Y619279D01*
X487008Y618662D01*
X487358Y618139D01*
X487882Y617789D01*
X488499Y617666D01*
X489117Y617789D01*
X489640Y618139D01*
X489990Y618662D01*
X490113Y619279D01*
X489990Y619897D01*
X489640Y620421D01*
X489117Y620770D01*
X488499Y620893D01*
D02*
G37*
G36*
X896000Y620052D02*
X895382Y619930D01*
X894859Y619580D01*
X894509Y619056D01*
X894386Y618439D01*
X894509Y617821D01*
X894859Y617298D01*
X895382Y616948D01*
X896000Y616825D01*
X896618Y616948D01*
X897141Y617298D01*
X897491Y617821D01*
X897614Y618439D01*
X897491Y619056D01*
X897141Y619580D01*
X896618Y619930D01*
X896000Y620052D01*
D02*
G37*
G36*
X956835Y619185D02*
X956217Y619062D01*
X955694Y618712D01*
X955344Y618188D01*
X955221Y617571D01*
X955344Y616953D01*
X955694Y616430D01*
X956217Y616080D01*
X956835Y615957D01*
X957452Y616080D01*
X957976Y616430D01*
X958325Y616953D01*
X958448Y617571D01*
X958325Y618188D01*
X957976Y618712D01*
X957452Y619062D01*
X956835Y619185D01*
D02*
G37*
G36*
X935863D02*
X935246Y619062D01*
X934722Y618712D01*
X934372Y618188D01*
X934249Y617571D01*
X934372Y616953D01*
X934722Y616430D01*
X935246Y616080D01*
X935863Y615957D01*
X936481Y616080D01*
X937004Y616430D01*
X937354Y616953D01*
X937477Y617571D01*
X937354Y618188D01*
X937004Y618712D01*
X936481Y619062D01*
X935863Y619185D01*
D02*
G37*
G36*
X504506Y618934D02*
X503889Y618811D01*
X503365Y618461D01*
X503015Y617937D01*
X502892Y617320D01*
X503015Y616702D01*
X503365Y616179D01*
X503889Y615829D01*
X504506Y615706D01*
X505124Y615829D01*
X505647Y616179D01*
X505997Y616702D01*
X506120Y617320D01*
X505997Y617937D01*
X505647Y618461D01*
X505124Y618811D01*
X504506Y618934D01*
D02*
G37*
G36*
X749398Y616705D02*
X748781Y616582D01*
X748257Y616232D01*
X747907Y615709D01*
X747785Y615092D01*
X747907Y614474D01*
X748257Y613950D01*
X748781Y613601D01*
X749398Y613478D01*
X750016Y613601D01*
X750539Y613950D01*
X750889Y614474D01*
X751012Y615092D01*
X750889Y615709D01*
X750539Y616232D01*
X750016Y616582D01*
X749398Y616705D01*
D02*
G37*
G36*
X757000Y616641D02*
X756383Y616518D01*
X755859Y616168D01*
X755509Y615645D01*
X755386Y615027D01*
X755509Y614409D01*
X755859Y613886D01*
X756383Y613536D01*
X757000Y613413D01*
X757618Y613536D01*
X758141Y613886D01*
X758491Y614409D01*
X758614Y615027D01*
X758491Y615645D01*
X758141Y616168D01*
X757618Y616518D01*
X757000Y616641D01*
D02*
G37*
G36*
X765500Y616408D02*
X764882Y616285D01*
X764359Y615936D01*
X764009Y615412D01*
X763886Y614794D01*
X764009Y614177D01*
X764359Y613654D01*
X764882Y613304D01*
X765500Y613181D01*
X766117Y613304D01*
X766641Y613654D01*
X766991Y614177D01*
X767114Y614794D01*
X766991Y615412D01*
X766641Y615936D01*
X766117Y616285D01*
X765500Y616408D01*
D02*
G37*
G36*
X899947Y617586D02*
X899330Y617463D01*
X898806Y617113D01*
X898457Y616590D01*
X898334Y615972D01*
X898457Y615355D01*
X898806Y614831D01*
X899330Y614482D01*
X899947Y614359D01*
X900565Y614482D01*
X900676Y614556D01*
X901126Y614255D01*
X901054Y613895D01*
X901177Y613277D01*
X901527Y612754D01*
X902050Y612404D01*
X902668Y612281D01*
X903286Y612404D01*
X903809Y612754D01*
X904159Y613277D01*
X904282Y613895D01*
X904159Y614512D01*
X903809Y615036D01*
X903286Y615386D01*
X902668Y615508D01*
X902050Y615386D01*
X901939Y615311D01*
X901490Y615612D01*
X901561Y615972D01*
X901438Y616590D01*
X901089Y617113D01*
X900565Y617463D01*
X899947Y617586D01*
D02*
G37*
G36*
X228793Y615282D02*
X228176Y615159D01*
X227652Y614810D01*
X227303Y614286D01*
X227180Y613668D01*
X227303Y613051D01*
X227652Y612528D01*
X228176Y612178D01*
X228793Y612055D01*
X229411Y612178D01*
X229934Y612528D01*
X230284Y613051D01*
X230407Y613668D01*
X230284Y614286D01*
X229934Y614810D01*
X229411Y615159D01*
X228793Y615282D01*
D02*
G37*
G36*
X874563Y614566D02*
X873946Y614444D01*
X873422Y614094D01*
X873072Y613570D01*
X872949Y612953D01*
X873072Y612335D01*
X873422Y611812D01*
X873946Y611462D01*
X874563Y611339D01*
X875181Y611462D01*
X875704Y611812D01*
X876054Y612335D01*
X876177Y612953D01*
X876054Y613570D01*
X875704Y614094D01*
X875181Y614444D01*
X874563Y614566D01*
D02*
G37*
G36*
X888665Y613679D02*
X888086Y613563D01*
X887595Y613236D01*
X887267Y612745D01*
X887152Y612165D01*
X887267Y611586D01*
X887595Y611095D01*
X888086Y610767D01*
X888665Y610652D01*
X889244Y610767D01*
X889735Y611095D01*
X890063Y611586D01*
X890179Y612165D01*
X890063Y612745D01*
X889735Y613236D01*
X889244Y613563D01*
X888665Y613679D01*
D02*
G37*
G36*
X884335D02*
X883755Y613563D01*
X883265Y613236D01*
X882936Y612745D01*
X882821Y612165D01*
X882936Y611586D01*
X883265Y611095D01*
X883755Y610767D01*
X884335Y610652D01*
X884914Y610767D01*
X885405Y611095D01*
X885733Y611586D01*
X885848Y612165D01*
X885733Y612745D01*
X885405Y613236D01*
X884914Y613563D01*
X884335Y613679D01*
D02*
G37*
G36*
X899946Y612881D02*
X899328Y612759D01*
X898805Y612409D01*
X898455Y611885D01*
X898332Y611268D01*
X898455Y610650D01*
X898805Y610127D01*
X899328Y609777D01*
X899946Y609654D01*
X900563Y609777D01*
X901087Y610127D01*
X901437Y610650D01*
X901560Y611268D01*
X901437Y611885D01*
X901087Y612409D01*
X900563Y612759D01*
X899946Y612881D01*
D02*
G37*
G36*
X977404Y611685D02*
X976787Y611562D01*
X976263Y611212D01*
X975914Y610688D01*
X975791Y610071D01*
X975914Y609453D01*
X976263Y608930D01*
X976787Y608580D01*
X977404Y608457D01*
X978022Y608580D01*
X978545Y608930D01*
X978895Y609453D01*
X979018Y610071D01*
X978895Y610688D01*
X978545Y611212D01*
X978022Y611562D01*
X977404Y611685D01*
D02*
G37*
G36*
X871811Y610630D02*
X871194Y610508D01*
X870670Y610158D01*
X870320Y609634D01*
X870197Y609017D01*
X870320Y608399D01*
X870670Y607876D01*
X871194Y607526D01*
X871811Y607403D01*
X872429Y607526D01*
X872952Y607876D01*
X873302Y608399D01*
X873425Y609017D01*
X873302Y609634D01*
X872952Y610158D01*
X872429Y610508D01*
X871811Y610630D01*
D02*
G37*
G36*
X198000Y610074D02*
X197382Y609951D01*
X196859Y609601D01*
X196509Y609077D01*
X196386Y608460D01*
X196509Y607842D01*
X196859Y607319D01*
X197382Y606969D01*
X198000Y606846D01*
X198617Y606969D01*
X199141Y607319D01*
X199491Y607842D01*
X199614Y608460D01*
X199491Y609077D01*
X199141Y609601D01*
X198617Y609951D01*
X198000Y610074D01*
D02*
G37*
G36*
X902633Y610003D02*
X902015Y609881D01*
X901492Y609531D01*
X901142Y609007D01*
X901019Y608390D01*
X901142Y607772D01*
X901492Y607249D01*
X902015Y606899D01*
X902633Y606776D01*
X903250Y606899D01*
X903774Y607249D01*
X904124Y607772D01*
X904247Y608390D01*
X904124Y609007D01*
X903774Y609531D01*
X903250Y609881D01*
X902633Y610003D01*
D02*
G37*
G36*
X191200Y609614D02*
X190583Y609491D01*
X190059Y609141D01*
X189709Y608617D01*
X189586Y608000D01*
X189709Y607382D01*
X190059Y606859D01*
X190583Y606509D01*
X191200Y606386D01*
X191817Y606509D01*
X192341Y606859D01*
X192691Y607382D01*
X192814Y608000D01*
X192691Y608617D01*
X192341Y609141D01*
X191817Y609491D01*
X191200Y609614D01*
D02*
G37*
G36*
X116471D02*
X115854Y609491D01*
X115330Y609141D01*
X114980Y608617D01*
X114857Y608000D01*
X114980Y607382D01*
X115330Y606859D01*
X115854Y606509D01*
X116471Y606386D01*
X117089Y606509D01*
X117612Y606859D01*
X117962Y607382D01*
X118085Y608000D01*
X117962Y608617D01*
X117612Y609141D01*
X117089Y609491D01*
X116471Y609614D01*
D02*
G37*
G36*
X888665Y609348D02*
X888086Y609233D01*
X887595Y608905D01*
X887267Y608414D01*
X887152Y607835D01*
X887267Y607256D01*
X887595Y606765D01*
X888086Y606436D01*
X888665Y606321D01*
X889244Y606436D01*
X889735Y606765D01*
X890063Y607256D01*
X890179Y607835D01*
X890063Y608414D01*
X889735Y608905D01*
X889244Y609233D01*
X888665Y609348D01*
D02*
G37*
G36*
X884335D02*
X883755Y609233D01*
X883265Y608905D01*
X882936Y608414D01*
X882821Y607835D01*
X882936Y607256D01*
X883265Y606765D01*
X883755Y606436D01*
X884335Y606321D01*
X884914Y606436D01*
X885405Y606765D01*
X885733Y607256D01*
X885848Y607835D01*
X885733Y608414D01*
X885405Y608905D01*
X884914Y609233D01*
X884335Y609348D01*
D02*
G37*
G36*
X982404Y607637D02*
X981787Y607514D01*
X981263Y607165D01*
X980914Y606641D01*
X980791Y606024D01*
X980914Y605406D01*
X981263Y604883D01*
X981787Y604533D01*
X982404Y604410D01*
X983022Y604533D01*
X983545Y604883D01*
X983895Y605406D01*
X984018Y606024D01*
X983895Y606641D01*
X983545Y607165D01*
X983022Y607514D01*
X982404Y607637D01*
D02*
G37*
G36*
X123500Y607514D02*
X122882Y607392D01*
X122359Y607042D01*
X122009Y606518D01*
X121886Y605901D01*
X122009Y605283D01*
X122359Y604760D01*
X122882Y604410D01*
X123500Y604287D01*
X124118Y604410D01*
X124641Y604760D01*
X124991Y605283D01*
X125114Y605901D01*
X124991Y606518D01*
X124641Y607042D01*
X124118Y607392D01*
X123500Y607514D01*
D02*
G37*
G36*
X834156Y607460D02*
X833538Y607337D01*
X833015Y606987D01*
X832665Y606464D01*
X832542Y605846D01*
X832665Y605229D01*
X833015Y604705D01*
X833538Y604355D01*
X834156Y604233D01*
X834773Y604355D01*
X835297Y604705D01*
X835647Y605229D01*
X835770Y605846D01*
X835647Y606464D01*
X835297Y606987D01*
X834773Y607337D01*
X834156Y607460D01*
D02*
G37*
G36*
X900023Y607240D02*
X899405Y607117D01*
X898882Y606767D01*
X898532Y606244D01*
X898409Y605626D01*
X898532Y605009D01*
X898882Y604485D01*
X899405Y604135D01*
X900023Y604012D01*
X900640Y604135D01*
X901164Y604485D01*
X901513Y605009D01*
X901636Y605626D01*
X901513Y606244D01*
X901164Y606767D01*
X900640Y607117D01*
X900023Y607240D01*
D02*
G37*
G36*
X247480Y607082D02*
X246863Y606959D01*
X246339Y606609D01*
X245989Y606086D01*
X245867Y605469D01*
X245989Y604851D01*
X246339Y604327D01*
X246863Y603978D01*
X247480Y603855D01*
X248098Y603978D01*
X248621Y604327D01*
X248971Y604851D01*
X249094Y605469D01*
X248971Y606086D01*
X248621Y606609D01*
X248098Y606959D01*
X247480Y607082D01*
D02*
G37*
G36*
X945260Y606321D02*
X944642Y606198D01*
X944119Y605848D01*
X943769Y605325D01*
X943646Y604707D01*
X943769Y604089D01*
X944119Y603566D01*
X944642Y603216D01*
X945260Y603093D01*
X945877Y603216D01*
X946401Y603566D01*
X946751Y604089D01*
X946873Y604707D01*
X946751Y605325D01*
X946401Y605848D01*
X945877Y606198D01*
X945260Y606321D01*
D02*
G37*
G36*
X159697Y605812D02*
X159080Y605689D01*
X158556Y605339D01*
X158207Y604816D01*
X158084Y604198D01*
X158207Y603581D01*
X158556Y603057D01*
X159080Y602708D01*
X159697Y602585D01*
X160315Y602708D01*
X160839Y603057D01*
X161188Y603581D01*
X161311Y604198D01*
X161188Y604816D01*
X160839Y605339D01*
X160315Y605689D01*
X159697Y605812D01*
D02*
G37*
G36*
X87256Y604614D02*
X86639Y604491D01*
X86115Y604141D01*
X85765Y603618D01*
X85642Y603000D01*
X85765Y602383D01*
X86115Y601859D01*
X86639Y601509D01*
X87256Y601386D01*
X87874Y601509D01*
X88397Y601859D01*
X88747Y602383D01*
X88870Y603000D01*
X88747Y603618D01*
X88397Y604141D01*
X87874Y604491D01*
X87256Y604614D01*
D02*
G37*
G36*
X893980Y604148D02*
X893363Y604026D01*
X892839Y603676D01*
X892490Y603152D01*
X892367Y602535D01*
X892490Y601917D01*
X892839Y601394D01*
X893363Y601044D01*
X893980Y600921D01*
X894598Y601044D01*
X895121Y601394D01*
X895471Y601917D01*
X895594Y602535D01*
X895471Y603152D01*
X895121Y603676D01*
X894598Y604026D01*
X893980Y604148D01*
D02*
G37*
G36*
X837956Y604133D02*
X837338Y604010D01*
X836815Y603661D01*
X836465Y603137D01*
X836342Y602520D01*
X836465Y601902D01*
X836815Y601379D01*
X837338Y601029D01*
X837956Y600906D01*
X838573Y601029D01*
X839097Y601379D01*
X839447Y601902D01*
X839570Y602520D01*
X839447Y603137D01*
X839097Y603661D01*
X838573Y604010D01*
X837956Y604133D01*
D02*
G37*
G36*
X974917Y603700D02*
X974300Y603578D01*
X973776Y603228D01*
X973427Y602704D01*
X973304Y602087D01*
X973427Y601469D01*
X973776Y600946D01*
X974300Y600596D01*
X974917Y600473D01*
X975535Y600596D01*
X976058Y600946D01*
X976408Y601469D01*
X976531Y602087D01*
X976408Y602704D01*
X976058Y603228D01*
X975535Y603578D01*
X974917Y603700D01*
D02*
G37*
G36*
X963504Y602716D02*
X962886Y602593D01*
X962363Y602243D01*
X962013Y601720D01*
X961890Y601102D01*
X962013Y600485D01*
X962363Y599961D01*
X962886Y599612D01*
X963504Y599489D01*
X964122Y599612D01*
X964645Y599961D01*
X964995Y600485D01*
X965118Y601102D01*
X964995Y601720D01*
X964645Y602243D01*
X964122Y602593D01*
X963504Y602716D01*
D02*
G37*
G36*
X881732Y598513D02*
X881115Y598390D01*
X880591Y598040D01*
X880241Y597517D01*
X880119Y596899D01*
X880241Y596282D01*
X880591Y595758D01*
X881115Y595408D01*
X881732Y595286D01*
X882350Y595408D01*
X882873Y595758D01*
X883223Y596282D01*
X883346Y596899D01*
X883223Y597517D01*
X882873Y598040D01*
X882350Y598390D01*
X881732Y598513D01*
D02*
G37*
G36*
X874483Y597895D02*
X873865Y597772D01*
X873342Y597422D01*
X872992Y596899D01*
X872869Y596281D01*
X872992Y595664D01*
X873342Y595140D01*
X873865Y594790D01*
X874483Y594668D01*
X875100Y594790D01*
X875624Y595140D01*
X875974Y595664D01*
X876097Y596281D01*
X875974Y596899D01*
X875624Y597422D01*
X875100Y597772D01*
X874483Y597895D01*
D02*
G37*
G36*
X947819Y597441D02*
X947201Y597318D01*
X946678Y596968D01*
X946328Y596445D01*
X946205Y595827D01*
X946328Y595210D01*
X946678Y594686D01*
X947201Y594337D01*
X947819Y594214D01*
X948436Y594337D01*
X948960Y594686D01*
X949310Y595210D01*
X949433Y595827D01*
X949310Y596445D01*
X948960Y596968D01*
X948436Y597318D01*
X947819Y597441D01*
D02*
G37*
G36*
X836181Y597440D02*
X835564Y597318D01*
X835040Y596968D01*
X834690Y596444D01*
X834567Y595827D01*
X834690Y595209D01*
X835040Y594686D01*
X835564Y594336D01*
X836181Y594213D01*
X836799Y594336D01*
X837322Y594686D01*
X837672Y595209D01*
X837795Y595827D01*
X837672Y596444D01*
X837322Y596968D01*
X836799Y597318D01*
X836181Y597440D01*
D02*
G37*
G36*
X971980Y596952D02*
X971363Y596829D01*
X970839Y596480D01*
X970490Y595956D01*
X970367Y595339D01*
X970490Y594721D01*
X970839Y594198D01*
X971363Y593848D01*
X971980Y593725D01*
X972598Y593848D01*
X973121Y594198D01*
X973471Y594721D01*
X973594Y595339D01*
X973471Y595956D01*
X973121Y596480D01*
X972598Y596829D01*
X971980Y596952D01*
D02*
G37*
G36*
X967996Y596903D02*
X967379Y596780D01*
X966855Y596430D01*
X966505Y595907D01*
X966382Y595289D01*
X966505Y594672D01*
X966855Y594148D01*
X967379Y593798D01*
X967996Y593676D01*
X968614Y593798D01*
X969137Y594148D01*
X969487Y594672D01*
X969610Y595289D01*
X969487Y595907D01*
X969137Y596430D01*
X968614Y596780D01*
X967996Y596903D01*
D02*
G37*
G36*
X890234Y596535D02*
X889617Y596413D01*
X889093Y596063D01*
X888743Y595539D01*
X888621Y594922D01*
X888743Y594304D01*
X889093Y593781D01*
X889617Y593431D01*
X890234Y593308D01*
X890852Y593431D01*
X891375Y593781D01*
X891725Y594304D01*
X891848Y594922D01*
X891725Y595539D01*
X891375Y596063D01*
X890852Y596413D01*
X890234Y596535D01*
D02*
G37*
G36*
X943866Y595905D02*
X943249Y595782D01*
X942725Y595432D01*
X942375Y594909D01*
X942252Y594291D01*
X942375Y593674D01*
X942725Y593150D01*
X943249Y592801D01*
X943866Y592678D01*
X944484Y592801D01*
X945007Y593150D01*
X945357Y593674D01*
X945480Y594291D01*
X945357Y594909D01*
X945007Y595432D01*
X944484Y595782D01*
X943866Y595905D01*
D02*
G37*
G36*
X938976D02*
X938359Y595782D01*
X937835Y595432D01*
X937486Y594909D01*
X937363Y594291D01*
X937486Y593674D01*
X937835Y593150D01*
X938359Y592801D01*
X938976Y592678D01*
X939594Y592801D01*
X940117Y593150D01*
X940467Y593674D01*
X940590Y594291D01*
X940467Y594909D01*
X940117Y595432D01*
X939594Y595782D01*
X938976Y595905D01*
D02*
G37*
G36*
X845661Y594133D02*
X845044Y594010D01*
X844520Y593661D01*
X844170Y593137D01*
X844047Y592520D01*
X844170Y591902D01*
X844520Y591379D01*
X845044Y591029D01*
X845661Y590906D01*
X846279Y591029D01*
X846802Y591379D01*
X847152Y591902D01*
X847275Y592520D01*
X847152Y593137D01*
X846802Y593661D01*
X846279Y594010D01*
X845661Y594133D01*
D02*
G37*
G36*
X769662Y593681D02*
X769044Y593558D01*
X768521Y593208D01*
X768171Y592685D01*
X768048Y592067D01*
X768171Y591449D01*
X768521Y590926D01*
X769044Y590576D01*
X769662Y590453D01*
X770280Y590576D01*
X770803Y590926D01*
X771153Y591449D01*
X771276Y592067D01*
X771153Y592685D01*
X770803Y593208D01*
X770280Y593558D01*
X769662Y593681D01*
D02*
G37*
G36*
X166886Y589999D02*
X166268Y589877D01*
X165745Y589527D01*
X165395Y589003D01*
X165272Y588386D01*
X165395Y587768D01*
X165745Y587245D01*
X166268Y586895D01*
X166886Y586772D01*
X167503Y586895D01*
X168027Y587245D01*
X168377Y587768D01*
X168500Y588386D01*
X168377Y589003D01*
X168027Y589527D01*
X167503Y589877D01*
X166886Y589999D01*
D02*
G37*
G36*
X92386D02*
X91768Y589877D01*
X91245Y589527D01*
X90895Y589003D01*
X90772Y588386D01*
X90895Y587768D01*
X91245Y587245D01*
X91768Y586895D01*
X92386Y586772D01*
X93003Y586895D01*
X93527Y587245D01*
X93877Y587768D01*
X93999Y588386D01*
X93877Y589003D01*
X93527Y589527D01*
X93003Y589877D01*
X92386Y589999D01*
D02*
G37*
G36*
X784685Y587086D02*
X784067Y586963D01*
X783544Y586614D01*
X783194Y586090D01*
X783071Y585472D01*
X783194Y584855D01*
X783544Y584331D01*
X784067Y583982D01*
X784685Y583859D01*
X785303Y583982D01*
X785826Y584331D01*
X786176Y584855D01*
X786299Y585472D01*
X786176Y586090D01*
X785826Y586614D01*
X785303Y586963D01*
X784685Y587086D01*
D02*
G37*
G36*
X873577Y584090D02*
X872960Y583967D01*
X872436Y583618D01*
X872086Y583094D01*
X871964Y582477D01*
X872086Y581859D01*
X872436Y581335D01*
X872960Y580986D01*
X873577Y580863D01*
X874195Y580986D01*
X874718Y581335D01*
X875068Y581859D01*
X875191Y582477D01*
X875068Y583094D01*
X874718Y583618D01*
X874195Y583967D01*
X873577Y584090D01*
D02*
G37*
G36*
X868870D02*
X868252Y583967D01*
X867729Y583618D01*
X867379Y583094D01*
X867256Y582477D01*
X867379Y581859D01*
X867729Y581335D01*
X868252Y580986D01*
X868870Y580863D01*
X869487Y580986D01*
X870011Y581335D01*
X870361Y581859D01*
X870484Y582477D01*
X870361Y583094D01*
X870011Y583618D01*
X869487Y583967D01*
X868870Y584090D01*
D02*
G37*
G36*
X901801Y581614D02*
X901183Y581491D01*
X900660Y581141D01*
X900310Y580618D01*
X900187Y580000D01*
X900310Y579383D01*
X900660Y578859D01*
X901183Y578509D01*
X901801Y578386D01*
X902418Y578509D01*
X902942Y578859D01*
X903292Y579383D01*
X903415Y580000D01*
X903292Y580618D01*
X902942Y581141D01*
X902418Y581491D01*
X901801Y581614D01*
D02*
G37*
G36*
X890004Y563794D02*
X889387Y563671D01*
X888863Y563321D01*
X888513Y562797D01*
X888391Y562180D01*
X888513Y561562D01*
X888863Y561039D01*
X889387Y560689D01*
X890004Y560566D01*
X890622Y560689D01*
X891145Y561039D01*
X891495Y561562D01*
X891618Y562180D01*
X891495Y562797D01*
X891145Y563321D01*
X890622Y563671D01*
X890004Y563794D01*
D02*
G37*
G36*
X884246Y562953D02*
X883628Y562830D01*
X883105Y562480D01*
X882755Y561957D01*
X882632Y561339D01*
X882755Y560721D01*
X883105Y560198D01*
X883628Y559848D01*
X884246Y559725D01*
X884863Y559848D01*
X885387Y560198D01*
X885736Y560721D01*
X885859Y561339D01*
X885736Y561957D01*
X885387Y562480D01*
X884863Y562830D01*
X884246Y562953D01*
D02*
G37*
G36*
X877547D02*
X876930Y562830D01*
X876406Y562480D01*
X876056Y561957D01*
X875934Y561339D01*
X876056Y560721D01*
X876406Y560198D01*
X876930Y559848D01*
X877547Y559725D01*
X878165Y559848D01*
X878688Y560198D01*
X879038Y560721D01*
X879161Y561339D01*
X879038Y561957D01*
X878688Y562480D01*
X878165Y562830D01*
X877547Y562953D01*
D02*
G37*
G36*
X951772Y555179D02*
X950439Y555048D01*
X949157Y554659D01*
X947976Y554028D01*
X946940Y553178D01*
X946090Y552143D01*
X945459Y550961D01*
X945070Y549680D01*
X944939Y548347D01*
X945070Y547013D01*
X945459Y545732D01*
X946090Y544550D01*
X946940Y543515D01*
X947976Y542665D01*
X949157Y542034D01*
X950439Y541645D01*
X951772Y541514D01*
X953105Y541645D01*
X954387Y542034D01*
X955568Y542665D01*
X956603Y543515D01*
X957453Y544550D01*
X958084Y545732D01*
X958473Y547013D01*
X958605Y548347D01*
X958473Y549680D01*
X958084Y550961D01*
X957453Y552143D01*
X956603Y553178D01*
X955568Y554028D01*
X954387Y554659D01*
X953105Y555048D01*
X951772Y555179D01*
D02*
G37*
G36*
X960725Y527563D02*
X960107Y527441D01*
X959584Y527091D01*
X959234Y526567D01*
X959111Y525950D01*
X959234Y525332D01*
X959584Y524809D01*
X960107Y524459D01*
X960725Y524336D01*
X961342Y524459D01*
X961866Y524809D01*
X962216Y525332D01*
X962339Y525950D01*
X962216Y526567D01*
X961866Y527091D01*
X961342Y527441D01*
X960725Y527563D01*
D02*
G37*
G36*
X950833Y524189D02*
X950216Y524066D01*
X949692Y523717D01*
X949342Y523193D01*
X949220Y522576D01*
X949342Y521958D01*
X949692Y521435D01*
X950216Y521085D01*
X950833Y520962D01*
X951451Y521085D01*
X951974Y521435D01*
X952324Y521958D01*
X952447Y522576D01*
X952324Y523193D01*
X951974Y523717D01*
X951451Y524066D01*
X950833Y524189D01*
D02*
G37*
G36*
X920250Y521114D02*
X919633Y520991D01*
X919109Y520641D01*
X918759Y520118D01*
X918636Y519500D01*
X918759Y518883D01*
X919109Y518359D01*
X919633Y518009D01*
X920250Y517886D01*
X920868Y518009D01*
X921391Y518359D01*
X921741Y518883D01*
X921864Y519500D01*
X921741Y520118D01*
X921391Y520641D01*
X920868Y520991D01*
X920250Y521114D01*
D02*
G37*
G36*
X957938Y524309D02*
X957321Y524186D01*
X956797Y523836D01*
X956448Y523313D01*
X956325Y522695D01*
X956448Y522078D01*
X956797Y521554D01*
X957321Y521204D01*
X957613Y521146D01*
X957619Y521145D01*
Y520635D01*
X957599Y520631D01*
X957163Y520544D01*
X956639Y520195D01*
X956289Y519671D01*
X956167Y519054D01*
X956289Y518436D01*
X956639Y517912D01*
X957163Y517563D01*
X957780Y517440D01*
X958398Y517563D01*
X958921Y517912D01*
X959271Y518436D01*
X959394Y519054D01*
X959271Y519671D01*
X958921Y520195D01*
X958398Y520544D01*
X958106Y520603D01*
X958099Y520604D01*
Y521114D01*
X958119Y521118D01*
X958556Y521204D01*
X959079Y521554D01*
X959429Y522078D01*
X959552Y522695D01*
X959429Y523313D01*
X959079Y523836D01*
X958556Y524186D01*
X957938Y524309D01*
D02*
G37*
G36*
X940433Y520336D02*
X939816Y520213D01*
X939292Y519863D01*
X938942Y519340D01*
X938819Y518722D01*
X938942Y518105D01*
X939292Y517581D01*
X939816Y517231D01*
X940433Y517108D01*
X941051Y517231D01*
X941574Y517581D01*
X941924Y518105D01*
X942047Y518722D01*
X941924Y519340D01*
X941574Y519863D01*
X941051Y520213D01*
X940433Y520336D01*
D02*
G37*
G36*
X972995Y518114D02*
X972378Y517991D01*
X971854Y517641D01*
X971504Y517118D01*
X971382Y516500D01*
X971504Y515882D01*
X971854Y515359D01*
X972378Y515009D01*
X972995Y514886D01*
X973613Y515009D01*
X974136Y515359D01*
X974486Y515882D01*
X974609Y516500D01*
X974486Y517118D01*
X974136Y517641D01*
X973613Y517991D01*
X972995Y518114D01*
D02*
G37*
G36*
X994098Y518106D02*
X993481Y517983D01*
X992957Y517633D01*
X992608Y517110D01*
X992485Y516492D01*
X992608Y515875D01*
X992957Y515351D01*
X993481Y515001D01*
X994098Y514879D01*
X994716Y515001D01*
X995240Y515351D01*
X995589Y515875D01*
X995712Y516492D01*
X995589Y517110D01*
X995240Y517633D01*
X994716Y517983D01*
X994098Y518106D01*
D02*
G37*
G36*
X967787Y518077D02*
X967169Y517954D01*
X966646Y517604D01*
X966296Y517081D01*
X966173Y516463D01*
X966296Y515846D01*
X966646Y515322D01*
X967169Y514972D01*
X967787Y514850D01*
X968404Y514972D01*
X968928Y515322D01*
X969277Y515846D01*
X969400Y516463D01*
X969277Y517081D01*
X968928Y517604D01*
X968404Y517954D01*
X967787Y518077D01*
D02*
G37*
G36*
X936417Y516753D02*
X935800Y516630D01*
X935276Y516280D01*
X934927Y515757D01*
X934804Y515139D01*
X934927Y514522D01*
X935276Y513998D01*
X935800Y513649D01*
X936417Y513526D01*
X937035Y513649D01*
X937558Y513998D01*
X937908Y514522D01*
X938031Y515139D01*
X937908Y515757D01*
X937558Y516280D01*
X937035Y516630D01*
X936417Y516753D01*
D02*
G37*
G36*
X975638Y514114D02*
X975021Y513991D01*
X974497Y513641D01*
X974147Y513118D01*
X974024Y512500D01*
X974147Y511882D01*
X974497Y511359D01*
X975021Y511009D01*
X975638Y510886D01*
X976256Y511009D01*
X976779Y511359D01*
X977129Y511882D01*
X977252Y512500D01*
X977129Y513118D01*
X976779Y513641D01*
X976256Y513991D01*
X975638Y514114D01*
D02*
G37*
G36*
X959347Y512774D02*
X958768Y512659D01*
X958277Y512331D01*
X957949Y511840D01*
X957833Y511261D01*
X957949Y510681D01*
X958277Y510190D01*
X958768Y509863D01*
X959347Y509747D01*
X959926Y509863D01*
X960417Y510190D01*
X960745Y510681D01*
X960860Y511261D01*
X960745Y511840D01*
X960417Y512331D01*
X959926Y512659D01*
X959347Y512774D01*
D02*
G37*
G36*
X955016D02*
X954437Y512659D01*
X953946Y512331D01*
X953618Y511840D01*
X953503Y511261D01*
X953618Y510681D01*
X953946Y510190D01*
X954437Y509863D01*
X955016Y509747D01*
X955595Y509863D01*
X956086Y510190D01*
X956414Y510681D01*
X956530Y511261D01*
X956414Y511840D01*
X956086Y512331D01*
X955595Y512659D01*
X955016Y512774D01*
D02*
G37*
G36*
X940843Y512567D02*
X940225Y512444D01*
X939702Y512094D01*
X939352Y511571D01*
X939229Y510953D01*
X939352Y510336D01*
X939702Y509812D01*
X940225Y509462D01*
X940843Y509340D01*
X941460Y509462D01*
X941984Y509812D01*
X942334Y510336D01*
X942457Y510953D01*
X942334Y511571D01*
X941984Y512094D01*
X941460Y512444D01*
X940843Y512567D01*
D02*
G37*
G36*
X972937Y510114D02*
X972320Y509991D01*
X971796Y509641D01*
X971447Y509118D01*
X971324Y508500D01*
X971447Y507882D01*
X971796Y507359D01*
X972320Y507009D01*
X972937Y506886D01*
X973555Y507009D01*
X974078Y507359D01*
X974428Y507882D01*
X974551Y508500D01*
X974428Y509118D01*
X974078Y509641D01*
X973555Y509991D01*
X972937Y510114D01*
D02*
G37*
G36*
X938760Y509114D02*
X938143Y508991D01*
X937619Y508641D01*
X937269Y508117D01*
X937147Y507500D01*
X937269Y506882D01*
X937619Y506359D01*
X938143Y506009D01*
X938760Y505886D01*
X939378Y506009D01*
X939901Y506359D01*
X940251Y506882D01*
X940374Y507500D01*
X940251Y508117D01*
X939901Y508641D01*
X939378Y508991D01*
X938760Y509114D01*
D02*
G37*
G36*
X959347Y508443D02*
X958768Y508328D01*
X958277Y508000D01*
X957949Y507509D01*
X957833Y506930D01*
X957949Y506351D01*
X958277Y505860D01*
X958768Y505532D01*
X959347Y505417D01*
X959926Y505532D01*
X960417Y505860D01*
X960745Y506351D01*
X960860Y506930D01*
X960745Y507509D01*
X960417Y508000D01*
X959926Y508328D01*
X959347Y508443D01*
D02*
G37*
G36*
X955016D02*
X954437Y508328D01*
X953946Y508000D01*
X953618Y507509D01*
X953503Y506930D01*
X953618Y506351D01*
X953946Y505860D01*
X954437Y505532D01*
X955016Y505417D01*
X955595Y505532D01*
X956086Y505860D01*
X956414Y506351D01*
X956530Y506930D01*
X956414Y507509D01*
X956086Y508000D01*
X955595Y508328D01*
X955016Y508443D01*
D02*
G37*
G36*
X941536Y506228D02*
X940918Y506105D01*
X940395Y505756D01*
X940045Y505232D01*
X939922Y504615D01*
X940045Y503997D01*
X940395Y503474D01*
X940918Y503124D01*
X941536Y503001D01*
X942153Y503124D01*
X942677Y503474D01*
X943027Y503997D01*
X943149Y504615D01*
X943027Y505232D01*
X942677Y505756D01*
X942153Y506105D01*
X941536Y506228D01*
D02*
G37*
G36*
X976008Y506114D02*
X975391Y505991D01*
X974867Y505641D01*
X974517Y505118D01*
X974395Y504500D01*
X974517Y503883D01*
X974867Y503359D01*
X975391Y503009D01*
X976008Y502886D01*
X976626Y503009D01*
X977149Y503359D01*
X977499Y503883D01*
X977622Y504500D01*
X977499Y505118D01*
X977149Y505641D01*
X976626Y505991D01*
X976008Y506114D01*
D02*
G37*
G36*
X937544Y503544D02*
X936926Y503421D01*
X936403Y503071D01*
X936053Y502548D01*
X935930Y501930D01*
X936053Y501312D01*
X936403Y500789D01*
X936926Y500439D01*
X937544Y500316D01*
X938161Y500439D01*
X938685Y500789D01*
X939034Y501312D01*
X939157Y501930D01*
X939034Y502548D01*
X938685Y503071D01*
X938161Y503421D01*
X937544Y503544D01*
D02*
G37*
G36*
X994098Y503031D02*
X993481Y502908D01*
X992957Y502558D01*
X992608Y502035D01*
X992485Y501417D01*
X992608Y500800D01*
X992957Y500276D01*
X993481Y499927D01*
X994098Y499804D01*
X994716Y499927D01*
X995240Y500276D01*
X995589Y500800D01*
X995712Y501417D01*
X995589Y502035D01*
X995240Y502558D01*
X994716Y502908D01*
X994098Y503031D01*
D02*
G37*
G36*
X972937Y502114D02*
X972320Y501991D01*
X971796Y501641D01*
X971446Y501118D01*
X971323Y500500D01*
X971446Y499883D01*
X971796Y499359D01*
X972320Y499009D01*
X972937Y498886D01*
X973555Y499009D01*
X974078Y499359D01*
X974428Y499883D01*
X974551Y500500D01*
X974428Y501118D01*
X974078Y501641D01*
X973555Y501991D01*
X972937Y502114D01*
D02*
G37*
G36*
X955898Y500014D02*
X955280Y499891D01*
X954757Y499541D01*
X954407Y499017D01*
X954284Y498400D01*
X954407Y497782D01*
X954757Y497259D01*
X955280Y496909D01*
X955898Y496786D01*
X956515Y496909D01*
X957039Y497259D01*
X957388Y497782D01*
X957511Y498400D01*
X957388Y499017D01*
X957039Y499541D01*
X956515Y499891D01*
X955898Y500014D01*
D02*
G37*
G36*
X920252Y497009D02*
X919634Y496886D01*
X919111Y496536D01*
X918761Y496013D01*
X918638Y495395D01*
X918761Y494778D01*
X919111Y494254D01*
X919634Y493904D01*
X920252Y493782D01*
X920870Y493904D01*
X921393Y494254D01*
X921743Y494778D01*
X921866Y495395D01*
X921743Y496013D01*
X921393Y496536D01*
X920870Y496886D01*
X920252Y497009D01*
D02*
G37*
G36*
X961000Y495214D02*
X960382Y495091D01*
X959859Y494741D01*
X959509Y494217D01*
X959386Y493600D01*
X959509Y492982D01*
X959859Y492459D01*
X960382Y492109D01*
X961000Y491986D01*
X961617Y492109D01*
X962141Y492459D01*
X962491Y492982D01*
X962614Y493600D01*
X962491Y494217D01*
X962141Y494741D01*
X961617Y495091D01*
X961000Y495214D01*
D02*
G37*
G36*
X953000Y494014D02*
X952382Y493891D01*
X951859Y493541D01*
X951509Y493017D01*
X951386Y492400D01*
X951509Y491783D01*
X951859Y491259D01*
X952382Y490909D01*
X953000Y490786D01*
X953617Y490909D01*
X954141Y491259D01*
X954491Y491783D01*
X954614Y492400D01*
X954491Y493017D01*
X954141Y493541D01*
X953617Y493891D01*
X953000Y494014D01*
D02*
G37*
G36*
X958166Y492748D02*
X957548Y492625D01*
X957025Y492275D01*
X956675Y491752D01*
X956552Y491134D01*
X956675Y490517D01*
X957025Y489993D01*
X957548Y489643D01*
X958166Y489521D01*
X958783Y489643D01*
X959307Y489993D01*
X959657Y490517D01*
X959779Y491134D01*
X959657Y491752D01*
X959307Y492275D01*
X958783Y492625D01*
X958166Y492748D01*
D02*
G37*
G36*
X964622Y492712D02*
X964005Y492589D01*
X963481Y492240D01*
X963131Y491716D01*
X963008Y491098D01*
X963131Y490481D01*
X963481Y489957D01*
X964005Y489608D01*
X964622Y489485D01*
X965240Y489608D01*
X965763Y489957D01*
X966113Y490481D01*
X966236Y491098D01*
X966113Y491716D01*
X965763Y492240D01*
X965240Y492589D01*
X964622Y492712D01*
D02*
G37*
G36*
X949000Y490515D02*
X948382Y490392D01*
X947859Y490043D01*
X947509Y489519D01*
X947386Y488902D01*
X947509Y488284D01*
X947859Y487760D01*
X948382Y487411D01*
X949000Y487288D01*
X949617Y487411D01*
X950141Y487760D01*
X950491Y488284D01*
X950614Y488902D01*
X950491Y489519D01*
X950141Y490043D01*
X949617Y490392D01*
X949000Y490515D01*
D02*
G37*
G36*
X970823Y475086D02*
X970205Y474963D01*
X969682Y474614D01*
X969332Y474090D01*
X969209Y473472D01*
X969332Y472855D01*
X969682Y472331D01*
X970205Y471982D01*
X970823Y471859D01*
X971440Y471982D01*
X971964Y472331D01*
X972314Y472855D01*
X972437Y473472D01*
X972314Y474090D01*
X971964Y474614D01*
X971440Y474963D01*
X970823Y475086D01*
D02*
G37*
G36*
X943779D02*
X943162Y474963D01*
X942638Y474614D01*
X942289Y474090D01*
X942166Y473472D01*
X942289Y472855D01*
X942638Y472331D01*
X943162Y471982D01*
X943779Y471859D01*
X944397Y471982D01*
X944920Y472331D01*
X945270Y472855D01*
X945393Y473472D01*
X945270Y474090D01*
X944920Y474614D01*
X944397Y474963D01*
X943779Y475086D01*
D02*
G37*
G36*
X991598Y398684D02*
X990981Y398562D01*
X990457Y398212D01*
X990108Y397688D01*
X989985Y397071D01*
X990108Y396453D01*
X990457Y395930D01*
X990981Y395580D01*
X991598Y395457D01*
X992216Y395580D01*
X992739Y395930D01*
X993089Y396453D01*
X993212Y397071D01*
X993089Y397688D01*
X992739Y398212D01*
X992216Y398562D01*
X991598Y398684D01*
D02*
G37*
G36*
X976598D02*
X975981Y398562D01*
X975457Y398212D01*
X975108Y397688D01*
X974985Y397071D01*
X975108Y396453D01*
X975457Y395930D01*
X975981Y395580D01*
X976598Y395457D01*
X977216Y395580D01*
X977740Y395930D01*
X978089Y396453D01*
X978212Y397071D01*
X978089Y397688D01*
X977740Y398212D01*
X977216Y398562D01*
X976598Y398684D01*
D02*
G37*
G36*
X968815Y393442D02*
X968198Y393319D01*
X967674Y392969D01*
X967324Y392446D01*
X967202Y391828D01*
X967324Y391211D01*
X967674Y390687D01*
X968198Y390337D01*
X968815Y390215D01*
X969433Y390337D01*
X969956Y390687D01*
X970306Y391211D01*
X970429Y391828D01*
X970306Y392446D01*
X969956Y392969D01*
X969433Y393319D01*
X968815Y393442D01*
D02*
G37*
G36*
X999383Y393441D02*
X998766Y393318D01*
X998242Y392968D01*
X997892Y392444D01*
X997770Y391827D01*
X997892Y391209D01*
X998242Y390686D01*
X998766Y390336D01*
X999383Y390213D01*
X1000001Y390336D01*
X1000524Y390686D01*
X1000874Y391209D01*
X1000997Y391827D01*
X1000874Y392444D01*
X1000524Y392968D01*
X1000001Y393318D01*
X999383Y393441D01*
D02*
G37*
G36*
X996181Y376248D02*
X995564Y376125D01*
X995040Y375775D01*
X994690Y375251D01*
X994567Y374634D01*
X994690Y374016D01*
X995040Y373493D01*
X995564Y373143D01*
X996181Y373020D01*
X996799Y373143D01*
X997322Y373493D01*
X997672Y374016D01*
X997795Y374634D01*
X997672Y375251D01*
X997322Y375775D01*
X996799Y376125D01*
X996181Y376248D01*
D02*
G37*
G36*
X990091D02*
X989473Y376125D01*
X988949Y375775D01*
X988600Y375251D01*
X988477Y374634D01*
X988600Y374016D01*
X988949Y373493D01*
X989473Y373143D01*
X990091Y373020D01*
X990708Y373143D01*
X991232Y373493D01*
X991581Y374016D01*
X991704Y374634D01*
X991581Y375251D01*
X991232Y375775D01*
X990708Y376125D01*
X990091Y376248D01*
D02*
G37*
G36*
X984000D02*
X983383Y376125D01*
X982859Y375775D01*
X982509Y375251D01*
X982386Y374634D01*
X982509Y374016D01*
X982859Y373493D01*
X983383Y373143D01*
X984000Y373020D01*
X984618Y373143D01*
X985141Y373493D01*
X985491Y374016D01*
X985614Y374634D01*
X985491Y375251D01*
X985141Y375775D01*
X984618Y376125D01*
X984000Y376248D01*
D02*
G37*
G36*
X977886D02*
X977268Y376125D01*
X976745Y375775D01*
X976395Y375251D01*
X976272Y374634D01*
X976395Y374016D01*
X976745Y373493D01*
X977268Y373143D01*
X977886Y373020D01*
X978503Y373143D01*
X979027Y373493D01*
X979377Y374016D01*
X979500Y374634D01*
X979377Y375251D01*
X979027Y375775D01*
X978503Y376125D01*
X977886Y376248D01*
D02*
G37*
G36*
X972272D02*
X971654Y376125D01*
X971131Y375775D01*
X970781Y375251D01*
X970658Y374634D01*
X970781Y374016D01*
X971131Y373493D01*
X971654Y373143D01*
X972272Y373020D01*
X972889Y373143D01*
X973413Y373493D01*
X973763Y374016D01*
X973885Y374634D01*
X973763Y375251D01*
X973413Y375775D01*
X972889Y376125D01*
X972272Y376248D01*
D02*
G37*
G36*
X963200Y370014D02*
X962582Y369891D01*
X962059Y369541D01*
X961778Y369120D01*
X961579Y369078D01*
X961421D01*
X961222Y369120D01*
X960941Y369541D01*
X960417Y369891D01*
X959800Y370014D01*
X959182Y369891D01*
X958659Y369541D01*
X958309Y369018D01*
X958186Y368400D01*
X958309Y367782D01*
X958659Y367259D01*
X959182Y366909D01*
X959800Y366786D01*
X960417Y366909D01*
X960941Y367259D01*
X961222Y367680D01*
X961421Y367722D01*
X961579D01*
X961778Y367680D01*
X962059Y367259D01*
X962582Y366909D01*
X963200Y366786D01*
X963818Y366909D01*
X964341Y367259D01*
X964691Y367782D01*
X964814Y368400D01*
X964691Y369018D01*
X964341Y369541D01*
X963818Y369891D01*
X963200Y370014D01*
D02*
G37*
G36*
X996181Y371614D02*
X995564Y371491D01*
X995040Y371141D01*
X994690Y370618D01*
X994567Y370000D01*
X994690Y369383D01*
X995040Y368859D01*
X995564Y368509D01*
X996181Y368386D01*
X996799Y368509D01*
X997322Y368859D01*
X997672Y369383D01*
X997795Y370000D01*
X997672Y370618D01*
X997322Y371141D01*
X996799Y371491D01*
X996181Y371614D01*
D02*
G37*
G36*
X990091D02*
X989473Y371491D01*
X988949Y371141D01*
X988600Y370618D01*
X988477Y370000D01*
X988600Y369383D01*
X988949Y368859D01*
X989473Y368509D01*
X990091Y368386D01*
X990708Y368509D01*
X991232Y368859D01*
X991581Y369383D01*
X991704Y370000D01*
X991581Y370618D01*
X991232Y371141D01*
X990708Y371491D01*
X990091Y371614D01*
D02*
G37*
G36*
X977886D02*
X977268Y371491D01*
X976745Y371141D01*
X976395Y370618D01*
X976272Y370000D01*
X976395Y369383D01*
X976745Y368859D01*
X977268Y368509D01*
X977886Y368386D01*
X978503Y368509D01*
X979027Y368859D01*
X979377Y369383D01*
X979500Y370000D01*
X979377Y370618D01*
X979027Y371141D01*
X978503Y371491D01*
X977886Y371614D01*
D02*
G37*
G36*
X972272D02*
X971654Y371491D01*
X971131Y371141D01*
X970781Y370618D01*
X970658Y370000D01*
X970781Y369383D01*
X971131Y368859D01*
X971654Y368509D01*
X972272Y368386D01*
X972889Y368509D01*
X973413Y368859D01*
X973763Y369383D01*
X973885Y370000D01*
X973763Y370618D01*
X973413Y371141D01*
X972889Y371491D01*
X972272Y371614D01*
D02*
G37*
G36*
X996181Y367192D02*
X995564Y367070D01*
X995040Y366720D01*
X994690Y366196D01*
X994567Y365579D01*
X994690Y364961D01*
X995040Y364438D01*
X995564Y364088D01*
X996181Y363965D01*
X996799Y364088D01*
X997322Y364438D01*
X997672Y364961D01*
X997795Y365579D01*
X997672Y366196D01*
X997322Y366720D01*
X996799Y367070D01*
X996181Y367192D01*
D02*
G37*
G36*
X990091D02*
X989473Y367070D01*
X988949Y366720D01*
X988600Y366196D01*
X988477Y365579D01*
X988600Y364961D01*
X988949Y364438D01*
X989473Y364088D01*
X990091Y363965D01*
X990708Y364088D01*
X991232Y364438D01*
X991581Y364961D01*
X991704Y365579D01*
X991581Y366196D01*
X991232Y366720D01*
X990708Y367070D01*
X990091Y367192D01*
D02*
G37*
G36*
X984000D02*
X983383Y367070D01*
X982859Y366720D01*
X982509Y366196D01*
X982386Y365579D01*
X982509Y364961D01*
X982859Y364438D01*
X983383Y364088D01*
X984000Y363965D01*
X984618Y364088D01*
X985141Y364438D01*
X985491Y364961D01*
X985614Y365579D01*
X985491Y366196D01*
X985141Y366720D01*
X984618Y367070D01*
X984000Y367192D01*
D02*
G37*
G36*
X977886D02*
X977268Y367070D01*
X976745Y366720D01*
X976395Y366196D01*
X976272Y365579D01*
X976395Y364961D01*
X976745Y364438D01*
X977268Y364088D01*
X977886Y363965D01*
X978503Y364088D01*
X979027Y364438D01*
X979377Y364961D01*
X979500Y365579D01*
X979377Y366196D01*
X979027Y366720D01*
X978503Y367070D01*
X977886Y367192D01*
D02*
G37*
G36*
X972272D02*
X971654Y367070D01*
X971131Y366720D01*
X970781Y366196D01*
X970658Y365579D01*
X970781Y364961D01*
X971131Y364438D01*
X971654Y364088D01*
X972272Y363965D01*
X972889Y364088D01*
X973413Y364438D01*
X973763Y364961D01*
X973885Y365579D01*
X973763Y366196D01*
X973413Y366720D01*
X972889Y367070D01*
X972272Y367192D01*
D02*
G37*
G36*
X959800Y359114D02*
X959182Y358991D01*
X958659Y358641D01*
X958309Y358118D01*
X958186Y357500D01*
X958309Y356883D01*
X958659Y356359D01*
X959182Y356009D01*
X959800Y355886D01*
X960417Y356009D01*
X960941Y356359D01*
X961291Y356883D01*
X961414Y357500D01*
X961291Y358118D01*
X960941Y358641D01*
X960417Y358991D01*
X959800Y359114D01*
D02*
G37*
G36*
X963300Y357744D02*
X962683Y357622D01*
X962159Y357272D01*
X961809Y356748D01*
X961686Y356131D01*
X961809Y355513D01*
X962159Y354990D01*
X962683Y354640D01*
X963300Y354517D01*
X963918Y354640D01*
X964441Y354990D01*
X964791Y355513D01*
X964914Y356131D01*
X964791Y356748D01*
X964441Y357272D01*
X963918Y357622D01*
X963300Y357744D01*
D02*
G37*
G36*
X960100Y352314D02*
X959482Y352191D01*
X958959Y351841D01*
X958609Y351318D01*
X958605Y351296D01*
X958095D01*
X958091Y351318D01*
X957741Y351841D01*
X957218Y352191D01*
X956600Y352314D01*
X955982Y352191D01*
X955459Y351841D01*
X955109Y351318D01*
X954986Y350700D01*
X955109Y350082D01*
X955459Y349559D01*
X955982Y349209D01*
X956600Y349086D01*
X957218Y349209D01*
X957741Y349559D01*
X958091Y350082D01*
X958095Y350104D01*
X958605D01*
X958609Y350082D01*
X958959Y349559D01*
X959482Y349209D01*
X960100Y349086D01*
X960717Y349209D01*
X961241Y349559D01*
X961591Y350082D01*
X961714Y350700D01*
X961591Y351318D01*
X961241Y351841D01*
X960717Y352191D01*
X960100Y352314D01*
D02*
G37*
G36*
X1003300Y352914D02*
X1002682Y352791D01*
X1002159Y352441D01*
X1001809Y351918D01*
X1001686Y351300D01*
X1001809Y350682D01*
X1002159Y350159D01*
X1002682Y349809D01*
X1003300Y349686D01*
X1003918Y349809D01*
X1004441Y350159D01*
X1004791Y350682D01*
X1004914Y351300D01*
X1004791Y351918D01*
X1004441Y352441D01*
X1003918Y352791D01*
X1003300Y352914D01*
D02*
G37*
G36*
X998500D02*
X997882Y352791D01*
X997359Y352441D01*
X997009Y351918D01*
X996886Y351300D01*
X997009Y350682D01*
X997359Y350159D01*
X997882Y349809D01*
X998500Y349686D01*
X999117Y349809D01*
X999641Y350159D01*
X999991Y350682D01*
X1000114Y351300D01*
X999991Y351918D01*
X999641Y352441D01*
X999117Y352791D01*
X998500Y352914D01*
D02*
G37*
G36*
X951614Y349055D02*
X950997Y348932D01*
X950473Y348582D01*
X950123Y348059D01*
X950000Y347441D01*
X950123Y346823D01*
X950473Y346300D01*
X950997Y345950D01*
X951614Y345827D01*
X952232Y345950D01*
X952755Y346300D01*
X953105Y346823D01*
X953228Y347441D01*
X953105Y348059D01*
X952755Y348582D01*
X952232Y348932D01*
X951614Y349055D01*
D02*
G37*
G36*
X976500Y348614D02*
X975883Y348491D01*
X975359Y348141D01*
X975009Y347618D01*
X974886Y347000D01*
X975009Y346382D01*
X975359Y345859D01*
X975883Y345509D01*
X976500Y345386D01*
X977118Y345509D01*
X977641Y345859D01*
X977991Y346382D01*
X978114Y347000D01*
X977991Y347618D01*
X977641Y348141D01*
X977118Y348491D01*
X976500Y348614D01*
D02*
G37*
G36*
X957900Y347280D02*
X957283Y347157D01*
X956759Y346807D01*
X956409Y346283D01*
X956286Y345666D01*
X956409Y345048D01*
X956759Y344525D01*
X957283Y344175D01*
X957900Y344052D01*
X958517Y344175D01*
X959041Y344525D01*
X959391Y345048D01*
X959514Y345666D01*
X959391Y346283D01*
X959041Y346807D01*
X958517Y347157D01*
X957900Y347280D01*
D02*
G37*
G36*
X980700Y339514D02*
X980083Y339391D01*
X979559Y339041D01*
X979209Y338517D01*
X979086Y337900D01*
X979209Y337282D01*
X979559Y336759D01*
X980083Y336409D01*
X980700Y336286D01*
X981318Y336409D01*
X981841Y336759D01*
X982191Y337282D01*
X982314Y337900D01*
X982191Y338517D01*
X981841Y339041D01*
X981318Y339391D01*
X980700Y339514D01*
D02*
G37*
G36*
X991600Y332814D02*
X990983Y332691D01*
X990459Y332341D01*
X990146Y331872D01*
X989878Y331843D01*
X989610Y331872D01*
X989297Y332341D01*
X988774Y332691D01*
X988156Y332814D01*
X987539Y332691D01*
X987015Y332341D01*
X986665Y331818D01*
X986542Y331200D01*
X986665Y330582D01*
X987015Y330059D01*
X987539Y329709D01*
X988156Y329586D01*
X988774Y329709D01*
X989297Y330059D01*
X989610Y330528D01*
X989878Y330557D01*
X990146Y330528D01*
X990459Y330059D01*
X990983Y329709D01*
X991600Y329586D01*
X992218Y329709D01*
X992741Y330059D01*
X993091Y330582D01*
X993214Y331200D01*
X993091Y331818D01*
X992741Y332341D01*
X992218Y332691D01*
X991600Y332814D01*
D02*
G37*
G36*
X983000Y327414D02*
X982382Y327291D01*
X981859Y326941D01*
X981509Y326417D01*
X981386Y325800D01*
X981509Y325183D01*
X981859Y324659D01*
X982382Y324309D01*
X983000Y324186D01*
X983617Y324309D01*
X984141Y324659D01*
X984491Y325183D01*
X984614Y325800D01*
X984491Y326417D01*
X984141Y326941D01*
X983617Y327291D01*
X983000Y327414D01*
D02*
G37*
G36*
X997525Y324982D02*
X996908Y324859D01*
X996384Y324510D01*
X996034Y323986D01*
X995912Y323369D01*
X996034Y322751D01*
X996384Y322228D01*
X996908Y321878D01*
X997525Y321755D01*
X998143Y321878D01*
X998666Y322228D01*
X999016Y322751D01*
X999139Y323369D01*
X999016Y323986D01*
X998666Y324510D01*
X998143Y324859D01*
X997525Y324982D01*
D02*
G37*
G36*
X993225D02*
X992608Y324859D01*
X992084Y324510D01*
X991734Y323986D01*
X991611Y323369D01*
X991734Y322751D01*
X992084Y322228D01*
X992608Y321878D01*
X993225Y321755D01*
X993843Y321878D01*
X994366Y322228D01*
X994716Y322751D01*
X994839Y323369D01*
X994716Y323986D01*
X994366Y324510D01*
X993843Y324859D01*
X993225Y324982D01*
D02*
G37*
G36*
X981100Y323814D02*
X980482Y323691D01*
X979959Y323341D01*
X979609Y322817D01*
X979486Y322200D01*
X979609Y321583D01*
X979959Y321059D01*
X980482Y320709D01*
X981100Y320586D01*
X981717Y320709D01*
X982241Y321059D01*
X982591Y321583D01*
X982714Y322200D01*
X982591Y322817D01*
X982241Y323341D01*
X981717Y323691D01*
X981100Y323814D01*
D02*
G37*
G36*
X991000Y315114D02*
X990382Y314991D01*
X989859Y314641D01*
X989509Y314118D01*
X989386Y313500D01*
X989509Y312882D01*
X989859Y312359D01*
X990382Y312009D01*
X991000Y311886D01*
X991617Y312009D01*
X992141Y312359D01*
X992491Y312882D01*
X992614Y313500D01*
X992491Y314118D01*
X992141Y314641D01*
X991617Y314991D01*
X991000Y315114D01*
D02*
G37*
G36*
X984000D02*
X983383Y314991D01*
X982859Y314641D01*
X982509Y314118D01*
X982386Y313500D01*
X982509Y312882D01*
X982859Y312359D01*
X983383Y312009D01*
X984000Y311886D01*
X984618Y312009D01*
X985141Y312359D01*
X985491Y312882D01*
X985614Y313500D01*
X985491Y314118D01*
X985141Y314641D01*
X984618Y314991D01*
X984000Y315114D01*
D02*
G37*
G36*
X977000D02*
X976383Y314991D01*
X975859Y314641D01*
X975509Y314118D01*
X975386Y313500D01*
X975509Y312882D01*
X975859Y312359D01*
X976383Y312009D01*
X977000Y311886D01*
X977617Y312009D01*
X978141Y312359D01*
X978491Y312882D01*
X978614Y313500D01*
X978491Y314118D01*
X978141Y314641D01*
X977617Y314991D01*
X977000Y315114D01*
D02*
G37*
G36*
X970000D02*
X969382Y314991D01*
X968859Y314641D01*
X968509Y314118D01*
X968386Y313500D01*
X968509Y312882D01*
X968859Y312359D01*
X969382Y312009D01*
X970000Y311886D01*
X970617Y312009D01*
X971141Y312359D01*
X971491Y312882D01*
X971614Y313500D01*
X971491Y314118D01*
X971141Y314641D01*
X970617Y314991D01*
X970000Y315114D01*
D02*
G37*
G36*
X995900Y312314D02*
X995282Y312191D01*
X994759Y311841D01*
X994409Y311317D01*
X994286Y310700D01*
X994409Y310083D01*
X994759Y309559D01*
X995282Y309209D01*
X995900Y309086D01*
X996517Y309209D01*
X997041Y309559D01*
X997391Y310083D01*
X997514Y310700D01*
X997391Y311317D01*
X997041Y311841D01*
X996517Y312191D01*
X995900Y312314D01*
D02*
G37*
G36*
X991000Y309647D02*
X990382Y309524D01*
X989859Y309174D01*
X989509Y308651D01*
X989386Y308033D01*
X989509Y307416D01*
X989859Y306892D01*
X990382Y306542D01*
X991000Y306420D01*
X991617Y306542D01*
X992141Y306892D01*
X992491Y307416D01*
X992614Y308033D01*
X992491Y308651D01*
X992141Y309174D01*
X991617Y309524D01*
X991000Y309647D01*
D02*
G37*
G36*
X977000D02*
X976383Y309524D01*
X975859Y309174D01*
X975509Y308651D01*
X975386Y308033D01*
X975509Y307416D01*
X975859Y306892D01*
X976383Y306542D01*
X977000Y306420D01*
X977617Y306542D01*
X978141Y306892D01*
X978491Y307416D01*
X978614Y308033D01*
X978491Y308651D01*
X978141Y309174D01*
X977617Y309524D01*
X977000Y309647D01*
D02*
G37*
G36*
X970000D02*
X969382Y309524D01*
X968859Y309174D01*
X968509Y308651D01*
X968386Y308033D01*
X968509Y307416D01*
X968859Y306892D01*
X969382Y306542D01*
X970000Y306420D01*
X970617Y306542D01*
X971141Y306892D01*
X971491Y307416D01*
X971614Y308033D01*
X971491Y308651D01*
X971141Y309174D01*
X970617Y309524D01*
X970000Y309647D01*
D02*
G37*
G36*
X995900Y306614D02*
X995282Y306491D01*
X994759Y306141D01*
X994409Y305617D01*
X994286Y305000D01*
X994409Y304382D01*
X994759Y303859D01*
X995282Y303509D01*
X995900Y303386D01*
X996517Y303509D01*
X997041Y303859D01*
X997391Y304382D01*
X997514Y305000D01*
X997391Y305617D01*
X997041Y306141D01*
X996517Y306491D01*
X995900Y306614D01*
D02*
G37*
G36*
X991000Y304180D02*
X990382Y304058D01*
X989859Y303708D01*
X989509Y303184D01*
X989386Y302567D01*
X989509Y301949D01*
X989859Y301426D01*
X990382Y301076D01*
X991000Y300953D01*
X991617Y301076D01*
X992141Y301426D01*
X992491Y301949D01*
X992614Y302567D01*
X992491Y303184D01*
X992141Y303708D01*
X991617Y304058D01*
X991000Y304180D01*
D02*
G37*
G36*
X984000D02*
X983383Y304058D01*
X982859Y303708D01*
X982509Y303184D01*
X982386Y302567D01*
X982509Y301949D01*
X982859Y301426D01*
X983383Y301076D01*
X984000Y300953D01*
X984618Y301076D01*
X985141Y301426D01*
X985491Y301949D01*
X985614Y302567D01*
X985491Y303184D01*
X985141Y303708D01*
X984618Y304058D01*
X984000Y304180D01*
D02*
G37*
G36*
X977000D02*
X976383Y304058D01*
X975859Y303708D01*
X975509Y303184D01*
X975386Y302567D01*
X975509Y301949D01*
X975859Y301426D01*
X976383Y301076D01*
X977000Y300953D01*
X977617Y301076D01*
X978141Y301426D01*
X978491Y301949D01*
X978614Y302567D01*
X978491Y303184D01*
X978141Y303708D01*
X977617Y304058D01*
X977000Y304180D01*
D02*
G37*
G36*
X970000D02*
X969382Y304058D01*
X968859Y303708D01*
X968509Y303184D01*
X968386Y302567D01*
X968509Y301949D01*
X968859Y301426D01*
X969382Y301076D01*
X970000Y300953D01*
X970617Y301076D01*
X971141Y301426D01*
X971491Y301949D01*
X971614Y302567D01*
X971491Y303184D01*
X971141Y303708D01*
X970617Y304058D01*
X970000Y304180D01*
D02*
G37*
G36*
X995900Y300714D02*
X995282Y300591D01*
X994759Y300241D01*
X994409Y299717D01*
X994286Y299100D01*
X994409Y298482D01*
X994759Y297959D01*
X995282Y297609D01*
X995900Y297486D01*
X996517Y297609D01*
X997041Y297959D01*
X997391Y298482D01*
X997514Y299100D01*
X997391Y299717D01*
X997041Y300241D01*
X996517Y300591D01*
X995900Y300714D01*
D02*
G37*
G36*
X991000Y298714D02*
X990382Y298591D01*
X989859Y298241D01*
X989509Y297717D01*
X989386Y297100D01*
X989509Y296482D01*
X989859Y295959D01*
X990382Y295609D01*
X991000Y295486D01*
X991617Y295609D01*
X992141Y295959D01*
X992491Y296482D01*
X992614Y297100D01*
X992491Y297717D01*
X992141Y298241D01*
X991617Y298591D01*
X991000Y298714D01*
D02*
G37*
G36*
X984000D02*
X983383Y298591D01*
X982859Y298241D01*
X982509Y297717D01*
X982386Y297100D01*
X982509Y296482D01*
X982859Y295959D01*
X983383Y295609D01*
X984000Y295486D01*
X984618Y295609D01*
X985141Y295959D01*
X985491Y296482D01*
X985614Y297100D01*
X985491Y297717D01*
X985141Y298241D01*
X984618Y298591D01*
X984000Y298714D01*
D02*
G37*
G36*
X977000D02*
X976383Y298591D01*
X975859Y298241D01*
X975509Y297717D01*
X975386Y297100D01*
X975509Y296482D01*
X975859Y295959D01*
X976383Y295609D01*
X977000Y295486D01*
X977617Y295609D01*
X978141Y295959D01*
X978491Y296482D01*
X978614Y297100D01*
X978491Y297717D01*
X978141Y298241D01*
X977617Y298591D01*
X977000Y298714D01*
D02*
G37*
G36*
X970000D02*
X969382Y298591D01*
X968859Y298241D01*
X968509Y297717D01*
X968386Y297100D01*
X968509Y296482D01*
X968859Y295959D01*
X969382Y295609D01*
X970000Y295486D01*
X970617Y295609D01*
X971141Y295959D01*
X971491Y296482D01*
X971614Y297100D01*
X971491Y297717D01*
X971141Y298241D01*
X970617Y298591D01*
X970000Y298714D01*
D02*
G37*
G36*
X997423Y281787D02*
X996806Y281664D01*
X996282Y281314D01*
X995933Y280791D01*
X995810Y280173D01*
X995933Y279556D01*
X996282Y279032D01*
X996806Y278682D01*
X997423Y278559D01*
X998041Y278682D01*
X998565Y279032D01*
X998914Y279556D01*
X999037Y280173D01*
X998914Y280791D01*
X998565Y281314D01*
X998041Y281664D01*
X997423Y281787D01*
D02*
G37*
G36*
X966600Y281700D02*
X965982Y281577D01*
X965459Y281228D01*
X965109Y280704D01*
X964986Y280087D01*
X965109Y279469D01*
X965459Y278946D01*
X965982Y278596D01*
X966600Y278473D01*
X967217Y278596D01*
X967741Y278946D01*
X968091Y279469D01*
X968213Y280087D01*
X968091Y280704D01*
X967741Y281228D01*
X967217Y281577D01*
X966600Y281700D01*
D02*
G37*
G36*
X989500Y276660D02*
X988883Y276537D01*
X988359Y276187D01*
X988009Y275664D01*
X987886Y275046D01*
X988009Y274429D01*
X988359Y273905D01*
X988883Y273556D01*
X989500Y273433D01*
X990117Y273556D01*
X990641Y273905D01*
X990991Y274429D01*
X991114Y275046D01*
X990991Y275664D01*
X990641Y276187D01*
X990117Y276537D01*
X989500Y276660D01*
D02*
G37*
G36*
X974500Y276573D02*
X973882Y276451D01*
X973359Y276101D01*
X973009Y275577D01*
X972886Y274960D01*
X973009Y274342D01*
X973359Y273819D01*
X973882Y273469D01*
X974500Y273346D01*
X975117Y273469D01*
X975641Y273819D01*
X975991Y274342D01*
X976114Y274960D01*
X975991Y275577D01*
X975641Y276101D01*
X975117Y276451D01*
X974500Y276573D01*
D02*
G37*
G36*
X989500Y272654D02*
X988883Y272531D01*
X988359Y272181D01*
X988009Y271658D01*
X987886Y271040D01*
X988009Y270423D01*
X988359Y269899D01*
X988883Y269549D01*
X989500Y269426D01*
X990117Y269549D01*
X990641Y269899D01*
X990991Y270423D01*
X991114Y271040D01*
X990991Y271658D01*
X990641Y272181D01*
X990117Y272531D01*
X989500Y272654D01*
D02*
G37*
G36*
X974500D02*
X973882Y272531D01*
X973359Y272181D01*
X973009Y271658D01*
X972886Y271040D01*
X973009Y270423D01*
X973359Y269899D01*
X973882Y269549D01*
X974500Y269426D01*
X975117Y269549D01*
X975641Y269899D01*
X975991Y270423D01*
X976114Y271040D01*
X975991Y271658D01*
X975641Y272181D01*
X975117Y272531D01*
X974500Y272654D01*
D02*
G37*
G36*
X997400Y267527D02*
X996783Y267404D01*
X996259Y267054D01*
X995910Y266531D01*
X995787Y265913D01*
X995910Y265296D01*
X996259Y264772D01*
X996783Y264422D01*
X997400Y264300D01*
X998018Y264422D01*
X998541Y264772D01*
X998891Y265296D01*
X999014Y265913D01*
X998891Y266531D01*
X998541Y267054D01*
X998018Y267404D01*
X997400Y267527D01*
D02*
G37*
G36*
X966576D02*
X965959Y267404D01*
X965436Y267054D01*
X965086Y266531D01*
X964963Y265913D01*
X965086Y265296D01*
X965436Y264772D01*
X965959Y264422D01*
X966576Y264300D01*
X967194Y264422D01*
X967717Y264772D01*
X968067Y265296D01*
X968190Y265913D01*
X968067Y266531D01*
X967717Y267054D01*
X967194Y267404D01*
X966576Y267527D01*
D02*
G37*
G36*
X684854Y636659D02*
X684224D01*
X683642Y636418D01*
X683197Y635973D01*
X683137Y635827D01*
X682595D01*
X682535Y635973D01*
X682090Y636418D01*
X681508Y636659D01*
X680879D01*
X680297Y636418D01*
X679852Y635973D01*
X679611Y635391D01*
Y634762D01*
X679852Y634180D01*
X680297Y633735D01*
X680879Y633494D01*
X681508D01*
X682090Y633735D01*
X682535Y634180D01*
X682595Y634326D01*
X683137D01*
X683197Y634180D01*
X683642Y633735D01*
X684224Y633494D01*
X684854D01*
X685435Y633735D01*
X685881Y634180D01*
X686122Y634762D01*
Y635391D01*
X685881Y635973D01*
X685435Y636418D01*
X684854Y636659D01*
D02*
G37*
G36*
X661587Y636197D02*
X660957D01*
X660375Y635956D01*
X659930Y635511D01*
X659689Y634929D01*
Y634300D01*
X659930Y633718D01*
X660375Y633273D01*
X660957Y633032D01*
X661587D01*
X662169Y633273D01*
X662614Y633718D01*
X662855Y634300D01*
Y634929D01*
X662614Y635511D01*
X662169Y635956D01*
X661587Y636197D01*
D02*
G37*
G36*
X649777D02*
X649147D01*
X648565Y635956D01*
X648120Y635511D01*
X647879Y634929D01*
Y634300D01*
X648120Y633718D01*
X648565Y633273D01*
X649147Y633032D01*
X649777D01*
X650358Y633273D01*
X650804Y633718D01*
X651045Y634300D01*
Y634929D01*
X650804Y635511D01*
X650358Y635956D01*
X649777Y636197D01*
D02*
G37*
G36*
X637967D02*
X637337D01*
X636756Y635956D01*
X636310Y635511D01*
X636069Y634929D01*
Y634300D01*
X636310Y633718D01*
X636756Y633273D01*
X637337Y633032D01*
X637967D01*
X638549Y633273D01*
X638994Y633718D01*
X639235Y634300D01*
Y634929D01*
X638994Y635511D01*
X638549Y635956D01*
X637967Y636197D01*
D02*
G37*
G36*
X633931D02*
X633302D01*
X632720Y635956D01*
X632275Y635511D01*
X632034Y634929D01*
Y634300D01*
X632275Y633718D01*
X632720Y633273D01*
X633302Y633032D01*
X633931D01*
X634513Y633273D01*
X634958Y633718D01*
X635199Y634300D01*
Y634929D01*
X634958Y635511D01*
X634513Y635956D01*
X633931Y636197D01*
D02*
G37*
G36*
X657551D02*
X656922D01*
X656340Y635956D01*
X655895Y635511D01*
X655654Y634929D01*
Y634300D01*
X655895Y633718D01*
X656340Y633273D01*
X656817Y633075D01*
X656718Y632575D01*
X656204Y632575D01*
X655623Y632334D01*
X655177Y631889D01*
X654936Y631307D01*
Y630678D01*
X655177Y630096D01*
X655623Y629651D01*
X656204Y629410D01*
X656834D01*
X657416Y629651D01*
X657861Y630096D01*
X658102Y630678D01*
Y631307D01*
X657861Y631889D01*
X657416Y632334D01*
X656939Y632532D01*
X657038Y633032D01*
X657551Y633032D01*
X658133Y633273D01*
X658578Y633718D01*
X658819Y634300D01*
Y634929D01*
X658578Y635511D01*
X658133Y635956D01*
X657551Y636197D01*
D02*
G37*
G36*
X652799Y632575D02*
X652169D01*
X651587Y632334D01*
X651142Y631889D01*
X650901Y631307D01*
Y630678D01*
X651142Y630096D01*
X651587Y629651D01*
X652169Y629410D01*
X652799D01*
X653380Y629651D01*
X653825Y630096D01*
X654066Y630678D01*
Y631307D01*
X653825Y631889D01*
X653380Y632334D01*
X652799Y632575D01*
D02*
G37*
G36*
X645741Y636197D02*
X645112D01*
X644530Y635956D01*
X644085Y635511D01*
X643844Y634929D01*
Y634300D01*
X644085Y633718D01*
X644530Y633273D01*
X645007Y633075D01*
X644908Y632575D01*
X644394Y632575D01*
X643813Y632334D01*
X643367Y631889D01*
X643126Y631307D01*
Y630678D01*
X643367Y630096D01*
X643813Y629651D01*
X644394Y629410D01*
X645024D01*
X645606Y629651D01*
X646051Y630096D01*
X646292Y630678D01*
Y631307D01*
X646051Y631889D01*
X645606Y632334D01*
X645128Y632532D01*
X645228Y633032D01*
X645741Y633032D01*
X646323Y633273D01*
X646768Y633718D01*
X647009Y634300D01*
Y634929D01*
X646768Y635511D01*
X646323Y635956D01*
X645741Y636197D01*
D02*
G37*
G36*
X640988Y632575D02*
X640359D01*
X639777Y632334D01*
X639332Y631889D01*
X639091Y631307D01*
Y630678D01*
X639332Y630096D01*
X639777Y629651D01*
X640359Y629410D01*
X640988D01*
X641570Y629651D01*
X642015Y630096D01*
X642256Y630678D01*
Y631307D01*
X642015Y631889D01*
X641570Y632334D01*
X640988Y632575D01*
D02*
G37*
G36*
X689449Y628433D02*
X688819D01*
X688237Y628192D01*
X687792Y627747D01*
X687551Y627165D01*
Y626536D01*
X687792Y625954D01*
X688237Y625509D01*
X688819Y625268D01*
X689449D01*
X690030Y625509D01*
X690476Y625954D01*
X690717Y626536D01*
Y627165D01*
X690476Y627747D01*
X690030Y628192D01*
X689449Y628433D01*
D02*
G37*
G36*
X676913D02*
X676284D01*
X675702Y628192D01*
X675257Y627747D01*
X675016Y627165D01*
Y626536D01*
X675257Y625954D01*
X675702Y625509D01*
X676284Y625268D01*
X676913D01*
X677495Y625509D01*
X677940Y625954D01*
X678181Y626536D01*
Y627165D01*
X677940Y627747D01*
X677495Y628192D01*
X676913Y628433D01*
D02*
G37*
G36*
X633567Y616995D02*
X632937D01*
X632355Y616754D01*
X631910Y616309D01*
X631669Y615727D01*
Y615097D01*
X631910Y614516D01*
X632355Y614071D01*
X632937Y613830D01*
X633567D01*
X634149Y614071D01*
X634594Y614516D01*
X634835Y615097D01*
Y615727D01*
X634594Y616309D01*
X634149Y616754D01*
X633567Y616995D01*
D02*
G37*
G36*
X581014Y616599D02*
X580385D01*
X579803Y616358D01*
X579358Y615913D01*
X579117Y615331D01*
Y614701D01*
X579358Y614120D01*
X579803Y613674D01*
X580385Y613434D01*
X581014D01*
X581596Y613674D01*
X582041Y614120D01*
X582282Y614701D01*
Y615331D01*
X582041Y615913D01*
X581596Y616358D01*
X581014Y616599D01*
D02*
G37*
G36*
X576290D02*
X575660D01*
X575078Y616358D01*
X574633Y615913D01*
X574392Y615331D01*
Y614701D01*
X574633Y614120D01*
X575078Y613674D01*
X575660Y613434D01*
X576290D01*
X576871Y613674D01*
X577317Y614120D01*
X577558Y614701D01*
Y615331D01*
X577317Y615913D01*
X576871Y616358D01*
X576290Y616599D01*
D02*
G37*
G36*
X594067Y616587D02*
X593437D01*
X592856Y616346D01*
X592410Y615901D01*
X592169Y615319D01*
Y614689D01*
X592410Y614107D01*
X592856Y613662D01*
X593437Y613421D01*
X594067D01*
X594649Y613662D01*
X595094Y614107D01*
X595335Y614689D01*
Y615319D01*
X595094Y615901D01*
X594649Y616346D01*
X594067Y616587D01*
D02*
G37*
G36*
X618023Y616559D02*
X617393D01*
X616811Y616318D01*
X616366Y615872D01*
X616125Y615291D01*
Y614661D01*
X616366Y614079D01*
X616811Y613634D01*
X617393Y613393D01*
X618023D01*
X618604Y613634D01*
X619050Y614079D01*
X619290Y614661D01*
Y615291D01*
X619050Y615872D01*
X618604Y616318D01*
X618023Y616559D01*
D02*
G37*
G36*
X640657Y616335D02*
X640028D01*
X639446Y616094D01*
X639001Y615649D01*
X638760Y615068D01*
Y614438D01*
X639001Y613856D01*
X639446Y613411D01*
X640028Y613170D01*
X640657D01*
X641239Y613411D01*
X641684Y613856D01*
X641925Y614438D01*
Y615068D01*
X641684Y615649D01*
X641239Y616094D01*
X640657Y616335D01*
D02*
G37*
G36*
X626485D02*
X625856D01*
X625274Y616094D01*
X624829Y615649D01*
X624588Y615068D01*
Y614438D01*
X624829Y613856D01*
X625274Y613411D01*
X625856Y613170D01*
X626485D01*
X627067Y613411D01*
X627512Y613856D01*
X627753Y614438D01*
Y615068D01*
X627512Y615649D01*
X627067Y616094D01*
X626485Y616335D01*
D02*
G37*
G36*
X612315Y616257D02*
X611685D01*
X611103Y616016D01*
X610658Y615571D01*
X610417Y614989D01*
Y614360D01*
X610658Y613778D01*
X611103Y613333D01*
X611685Y613092D01*
X612315D01*
X612896Y613333D01*
X613342Y613778D01*
X613583Y614360D01*
Y614989D01*
X613342Y615571D01*
X612896Y616016D01*
X612315Y616257D01*
D02*
G37*
G36*
X588716Y616167D02*
X588086D01*
X587504Y615926D01*
X587059Y615481D01*
X586818Y614899D01*
Y614269D01*
X587059Y613688D01*
X587504Y613242D01*
X588086Y613001D01*
X588716D01*
X589297Y613242D01*
X589743Y613688D01*
X589984Y614269D01*
Y614899D01*
X589743Y615481D01*
X589297Y615926D01*
X588716Y616167D01*
D02*
G37*
G36*
X644855Y604405D02*
X644226D01*
X643644Y604165D01*
X643199Y603719D01*
X642958Y603138D01*
Y602508D01*
X643199Y601926D01*
X643644Y601481D01*
X644226Y601240D01*
X644855D01*
X645437Y601481D01*
X645882Y601926D01*
X646123Y602508D01*
Y603138D01*
X645882Y603719D01*
X645437Y604165D01*
X644855Y604405D01*
D02*
G37*
G36*
X635934Y602971D02*
X635304D01*
X634723Y602730D01*
X634278Y602285D01*
X634037Y601703D01*
Y601073D01*
X634278Y600492D01*
X634723Y600046D01*
X635304Y599805D01*
X635934D01*
X636516Y600046D01*
X636961Y600492D01*
X637202Y601073D01*
Y601703D01*
X636961Y602285D01*
X636516Y602730D01*
X635934Y602971D01*
D02*
G37*
G36*
X628848Y600961D02*
X628219D01*
X627637Y600720D01*
X627192Y600275D01*
X626951Y599693D01*
Y599063D01*
X627192Y598482D01*
X627637Y598037D01*
X628219Y597796D01*
X628848D01*
X629430Y598037D01*
X629875Y598482D01*
X630116Y599063D01*
Y599693D01*
X629875Y600275D01*
X629430Y600720D01*
X628848Y600961D01*
D02*
G37*
G36*
X621763D02*
X621133D01*
X620552Y600720D01*
X620107Y600275D01*
X619866Y599693D01*
Y599063D01*
X620107Y598482D01*
X620552Y598037D01*
X621133Y597796D01*
X621763D01*
X622345Y598037D01*
X622790Y598482D01*
X623031Y599063D01*
Y599693D01*
X622790Y600275D01*
X622345Y600720D01*
X621763Y600961D01*
D02*
G37*
G36*
X639586Y600849D02*
X638956D01*
X638374Y600608D01*
X637929Y600163D01*
X637688Y599581D01*
Y598951D01*
X637929Y598370D01*
X638374Y597924D01*
X638956Y597683D01*
X639586D01*
X640167Y597924D01*
X640613Y598370D01*
X640854Y598951D01*
Y599581D01*
X640613Y600163D01*
X640167Y600608D01*
X639586Y600849D01*
D02*
G37*
G36*
X647744Y600961D02*
X647115D01*
X646533Y600720D01*
X646088Y600275D01*
X645847Y599693D01*
Y599063D01*
X646088Y598482D01*
X646533Y598037D01*
X647115Y597796D01*
X647283D01*
X647617Y597296D01*
X647570Y597182D01*
Y596552D01*
X647811Y595970D01*
X648256Y595525D01*
X648838Y595284D01*
X649468D01*
X650049Y595525D01*
X650494Y595970D01*
X650735Y596552D01*
Y597182D01*
X650494Y597764D01*
X650049Y598209D01*
X649468Y598450D01*
X649299D01*
X648965Y598950D01*
X649012Y599063D01*
Y599693D01*
X648771Y600275D01*
X648326Y600720D01*
X647744Y600961D01*
D02*
G37*
G36*
X631210Y597843D02*
X630581D01*
X629999Y597602D01*
X629554Y597156D01*
X629313Y596575D01*
Y595945D01*
X629554Y595363D01*
X629999Y594918D01*
X630581Y594677D01*
X631210D01*
X631792Y594918D01*
X632237Y595363D01*
X632478Y595945D01*
Y596575D01*
X632237Y597156D01*
X631792Y597602D01*
X631210Y597843D01*
D02*
G37*
G36*
X624124Y597811D02*
X623494D01*
X622913Y597571D01*
X622467Y597125D01*
X622226Y596544D01*
Y595914D01*
X622467Y595332D01*
X622913Y594887D01*
X623494Y594646D01*
X624124D01*
X624706Y594887D01*
X625151Y595332D01*
X625392Y595914D01*
Y596544D01*
X625151Y597125D01*
X624706Y597571D01*
X624124Y597811D01*
D02*
G37*
G36*
X600850Y551922D02*
X600221D01*
X599639Y551681D01*
X599194Y551235D01*
X598953Y550654D01*
Y550024D01*
X599194Y549442D01*
X599639Y548997D01*
X600221Y548756D01*
X600850D01*
X601432Y548997D01*
X601877Y549442D01*
X602118Y550024D01*
Y550654D01*
X601877Y551235D01*
X601432Y551681D01*
X600850Y551922D01*
D02*
G37*
G36*
X625001Y546831D02*
X624371D01*
X623790Y546590D01*
X623345Y546144D01*
X623104Y545563D01*
Y544933D01*
X623345Y544351D01*
X623790Y543906D01*
X624371Y543665D01*
X625001D01*
X625583Y543906D01*
X626028Y544351D01*
X626269Y544933D01*
Y545563D01*
X626028Y546144D01*
X625583Y546590D01*
X625001Y546831D01*
D02*
G37*
G36*
X600850D02*
X600221D01*
X599639Y546590D01*
X599194Y546144D01*
X598953Y545563D01*
Y544933D01*
X599194Y544351D01*
X599639Y543906D01*
X600221Y543665D01*
X600850D01*
X601432Y543906D01*
X601877Y544351D01*
X602118Y544933D01*
Y545563D01*
X601877Y546144D01*
X601432Y546590D01*
X600850Y546831D01*
D02*
G37*
G36*
X622559Y540579D02*
X621929D01*
X621348Y540338D01*
X620902Y539893D01*
X620661Y539311D01*
Y538681D01*
X620902Y538099D01*
X621348Y537654D01*
X621929Y537413D01*
X622559D01*
X623141Y537654D01*
X623586Y538099D01*
X623827Y538681D01*
Y539311D01*
X623586Y539893D01*
X623141Y540338D01*
X622559Y540579D01*
D02*
G37*
G36*
X609468D02*
X608839D01*
X608257Y540338D01*
X607812Y539893D01*
X607571Y539311D01*
Y538681D01*
X607812Y538099D01*
X608257Y537654D01*
X608839Y537413D01*
X609468D01*
X610050Y537654D01*
X610495Y538099D01*
X610736Y538681D01*
Y539311D01*
X610495Y539893D01*
X610050Y540338D01*
X609468Y540579D01*
D02*
G37*
G36*
X600850D02*
X600221D01*
X599639Y540338D01*
X599194Y539893D01*
X598953Y539311D01*
Y538681D01*
X599194Y538099D01*
X599639Y537654D01*
X600221Y537413D01*
X600850D01*
X601432Y537654D01*
X601877Y538099D01*
X602118Y538681D01*
Y539311D01*
X601877Y539893D01*
X601432Y540338D01*
X600850Y540579D01*
D02*
G37*
G36*
X464643Y497990D02*
X464026Y497867D01*
X463502Y497517D01*
X463153Y496994D01*
X463030Y496376D01*
X463153Y495759D01*
X463502Y495235D01*
X464026Y494885D01*
X464643Y494763D01*
X465261Y494885D01*
X465785Y495235D01*
X466134Y495759D01*
X466257Y496376D01*
X466134Y496994D01*
X465785Y497517D01*
X465261Y497867D01*
X464643Y497990D01*
D02*
G37*
G36*
X486661Y497444D02*
X486044Y497322D01*
X485520Y496972D01*
X485171Y496448D01*
X485048Y495831D01*
X485171Y495213D01*
X485520Y494690D01*
X486044Y494340D01*
X486661Y494217D01*
X487279Y494340D01*
X487803Y494690D01*
X488152Y495213D01*
X488275Y495831D01*
X488152Y496448D01*
X487803Y496972D01*
X487279Y497322D01*
X486661Y497444D01*
D02*
G37*
G36*
X482331D02*
X481713Y497322D01*
X481190Y496972D01*
X480840Y496448D01*
X480717Y495831D01*
X480840Y495213D01*
X481190Y494690D01*
X481713Y494340D01*
X482331Y494217D01*
X482948Y494340D01*
X483472Y494690D01*
X483822Y495213D01*
X483944Y495831D01*
X483822Y496448D01*
X483472Y496972D01*
X482948Y497322D01*
X482331Y497444D01*
D02*
G37*
G36*
X478000D02*
X477383Y497322D01*
X476859Y496972D01*
X476509Y496448D01*
X476386Y495831D01*
X476509Y495213D01*
X476859Y494690D01*
X477383Y494340D01*
X478000Y494217D01*
X478617Y494340D01*
X479141Y494690D01*
X479491Y495213D01*
X479614Y495831D01*
X479491Y496448D01*
X479141Y496972D01*
X478617Y497322D01*
X478000Y497444D01*
D02*
G37*
G36*
X473669D02*
X473052Y497322D01*
X472528Y496972D01*
X472178Y496448D01*
X472056Y495831D01*
X472178Y495213D01*
X472528Y494690D01*
X473052Y494340D01*
X473669Y494217D01*
X474287Y494340D01*
X474810Y494690D01*
X475160Y495213D01*
X475283Y495831D01*
X475160Y496448D01*
X474810Y496972D01*
X474287Y497322D01*
X473669Y497444D01*
D02*
G37*
G36*
X469339D02*
X468721Y497322D01*
X468197Y496972D01*
X467848Y496448D01*
X467725Y495831D01*
X467848Y495213D01*
X468197Y494690D01*
X468721Y494340D01*
X469339Y494217D01*
X469956Y494340D01*
X470480Y494690D01*
X470829Y495213D01*
X470952Y495831D01*
X470829Y496448D01*
X470480Y496972D01*
X469956Y497322D01*
X469339Y497444D01*
D02*
G37*
G36*
X486661Y493114D02*
X486044Y492991D01*
X485520Y492641D01*
X485171Y492118D01*
X485048Y491500D01*
X485171Y490882D01*
X485520Y490359D01*
X486044Y490009D01*
X486661Y489886D01*
X487279Y490009D01*
X487803Y490359D01*
X488152Y490882D01*
X488275Y491500D01*
X488152Y492118D01*
X487803Y492641D01*
X487279Y492991D01*
X486661Y493114D01*
D02*
G37*
G36*
X482331D02*
X481713Y492991D01*
X481190Y492641D01*
X480840Y492118D01*
X480717Y491500D01*
X480840Y490882D01*
X481190Y490359D01*
X481713Y490009D01*
X482331Y489886D01*
X482948Y490009D01*
X483472Y490359D01*
X483822Y490882D01*
X483944Y491500D01*
X483822Y492118D01*
X483472Y492641D01*
X482948Y492991D01*
X482331Y493114D01*
D02*
G37*
G36*
X478000D02*
X477383Y492991D01*
X476859Y492641D01*
X476509Y492118D01*
X476386Y491500D01*
X476509Y490882D01*
X476859Y490359D01*
X477383Y490009D01*
X478000Y489886D01*
X478617Y490009D01*
X479141Y490359D01*
X479491Y490882D01*
X479614Y491500D01*
X479491Y492118D01*
X479141Y492641D01*
X478617Y492991D01*
X478000Y493114D01*
D02*
G37*
G36*
X473669D02*
X473052Y492991D01*
X472528Y492641D01*
X472178Y492118D01*
X472056Y491500D01*
X472178Y490882D01*
X472528Y490359D01*
X473052Y490009D01*
X473669Y489886D01*
X474287Y490009D01*
X474810Y490359D01*
X475160Y490882D01*
X475283Y491500D01*
X475160Y492118D01*
X474810Y492641D01*
X474287Y492991D01*
X473669Y493114D01*
D02*
G37*
G36*
X469339D02*
X468721Y492991D01*
X468197Y492641D01*
X467848Y492118D01*
X467725Y491500D01*
X467848Y490882D01*
X468197Y490359D01*
X468721Y490009D01*
X469339Y489886D01*
X469956Y490009D01*
X470480Y490359D01*
X470829Y490882D01*
X470952Y491500D01*
X470829Y492118D01*
X470480Y492641D01*
X469956Y492991D01*
X469339Y493114D01*
D02*
G37*
G36*
X453963Y492129D02*
X453345Y492007D01*
X452822Y491657D01*
X452472Y491133D01*
X452349Y490516D01*
X452472Y489898D01*
X452822Y489375D01*
X453345Y489025D01*
X453963Y488902D01*
X454580Y489025D01*
X455104Y489375D01*
X455454Y489898D01*
X455577Y490516D01*
X455454Y491133D01*
X455104Y491657D01*
X454580Y492007D01*
X453963Y492129D01*
D02*
G37*
G36*
X486661Y488783D02*
X486044Y488660D01*
X485520Y488310D01*
X485171Y487787D01*
X485048Y487169D01*
X485171Y486552D01*
X485520Y486028D01*
X486044Y485678D01*
X486661Y485556D01*
X487279Y485678D01*
X487803Y486028D01*
X488152Y486552D01*
X488275Y487169D01*
X488152Y487787D01*
X487803Y488310D01*
X487279Y488660D01*
X486661Y488783D01*
D02*
G37*
G36*
X482331D02*
X481713Y488660D01*
X481190Y488310D01*
X480840Y487787D01*
X480717Y487169D01*
X480840Y486552D01*
X481190Y486028D01*
X481713Y485678D01*
X482331Y485556D01*
X482948Y485678D01*
X483472Y486028D01*
X483822Y486552D01*
X483944Y487169D01*
X483822Y487787D01*
X483472Y488310D01*
X482948Y488660D01*
X482331Y488783D01*
D02*
G37*
G36*
X478000D02*
X477383Y488660D01*
X476859Y488310D01*
X476509Y487787D01*
X476386Y487169D01*
X476509Y486552D01*
X476859Y486028D01*
X477383Y485678D01*
X478000Y485556D01*
X478617Y485678D01*
X479141Y486028D01*
X479491Y486552D01*
X479614Y487169D01*
X479491Y487787D01*
X479141Y488310D01*
X478617Y488660D01*
X478000Y488783D01*
D02*
G37*
G36*
X473669D02*
X473052Y488660D01*
X472528Y488310D01*
X472178Y487787D01*
X472056Y487169D01*
X472178Y486552D01*
X472528Y486028D01*
X473052Y485678D01*
X473669Y485556D01*
X474287Y485678D01*
X474810Y486028D01*
X475160Y486552D01*
X475283Y487169D01*
X475160Y487787D01*
X474810Y488310D01*
X474287Y488660D01*
X473669Y488783D01*
D02*
G37*
G36*
X469339D02*
X468721Y488660D01*
X468197Y488310D01*
X467848Y487787D01*
X467725Y487169D01*
X467848Y486552D01*
X468197Y486028D01*
X468721Y485678D01*
X469339Y485556D01*
X469956Y485678D01*
X470480Y486028D01*
X470829Y486552D01*
X470952Y487169D01*
X470829Y487787D01*
X470480Y488310D01*
X469956Y488660D01*
X469339Y488783D01*
D02*
G37*
G36*
X433228Y487533D02*
X432611Y487410D01*
X432087Y487060D01*
X431738Y486536D01*
X431615Y485919D01*
X431738Y485301D01*
X432087Y484778D01*
X432611Y484428D01*
X433228Y484305D01*
X433846Y484428D01*
X434369Y484778D01*
X434719Y485301D01*
X434842Y485919D01*
X434719Y486536D01*
X434369Y487060D01*
X433846Y487410D01*
X433228Y487533D01*
D02*
G37*
G36*
X464882Y485145D02*
X464264Y485022D01*
X463741Y484672D01*
X463391Y484149D01*
X463268Y483532D01*
X463391Y482914D01*
X463741Y482390D01*
X464264Y482041D01*
X464882Y481918D01*
X465499Y482041D01*
X466023Y482390D01*
X466373Y482914D01*
X466496Y483532D01*
X466373Y484149D01*
X466023Y484672D01*
X465499Y485022D01*
X464882Y485145D01*
D02*
G37*
G36*
X449760D02*
X449142Y485022D01*
X448619Y484672D01*
X448269Y484149D01*
X448146Y483532D01*
X448269Y482914D01*
X448619Y482390D01*
X449142Y482041D01*
X449760Y481918D01*
X450377Y482041D01*
X450901Y482390D01*
X451251Y482914D01*
X451373Y483532D01*
X451251Y484149D01*
X450901Y484672D01*
X450377Y485022D01*
X449760Y485145D01*
D02*
G37*
G36*
X486661Y484452D02*
X486044Y484329D01*
X485520Y483980D01*
X485171Y483456D01*
X485048Y482839D01*
X485171Y482221D01*
X485520Y481698D01*
X486044Y481348D01*
X486661Y481225D01*
X487279Y481348D01*
X487803Y481698D01*
X488152Y482221D01*
X488275Y482839D01*
X488152Y483456D01*
X487803Y483980D01*
X487279Y484329D01*
X486661Y484452D01*
D02*
G37*
G36*
X482331D02*
X481713Y484329D01*
X481190Y483980D01*
X480840Y483456D01*
X480717Y482839D01*
X480840Y482221D01*
X481190Y481698D01*
X481713Y481348D01*
X482331Y481225D01*
X482948Y481348D01*
X483472Y481698D01*
X483822Y482221D01*
X483944Y482839D01*
X483822Y483456D01*
X483472Y483980D01*
X482948Y484329D01*
X482331Y484452D01*
D02*
G37*
G36*
X478000D02*
X477383Y484329D01*
X476859Y483980D01*
X476509Y483456D01*
X476386Y482839D01*
X476509Y482221D01*
X476859Y481698D01*
X477383Y481348D01*
X478000Y481225D01*
X478617Y481348D01*
X479141Y481698D01*
X479491Y482221D01*
X479614Y482839D01*
X479491Y483456D01*
X479141Y483980D01*
X478617Y484329D01*
X478000Y484452D01*
D02*
G37*
G36*
X473669D02*
X473052Y484329D01*
X472528Y483980D01*
X472178Y483456D01*
X472056Y482839D01*
X472178Y482221D01*
X472528Y481698D01*
X473052Y481348D01*
X473669Y481225D01*
X474287Y481348D01*
X474810Y481698D01*
X475160Y482221D01*
X475283Y482839D01*
X475160Y483456D01*
X474810Y483980D01*
X474287Y484329D01*
X473669Y484452D01*
D02*
G37*
G36*
X469339D02*
X468721Y484329D01*
X468197Y483980D01*
X467848Y483456D01*
X467725Y482839D01*
X467848Y482221D01*
X468197Y481698D01*
X468721Y481348D01*
X469339Y481225D01*
X469956Y481348D01*
X470480Y481698D01*
X470829Y482221D01*
X470952Y482839D01*
X470829Y483456D01*
X470480Y483980D01*
X469956Y484329D01*
X469339Y484452D01*
D02*
G37*
G36*
X433228Y482913D02*
X432611Y482790D01*
X432087Y482440D01*
X431738Y481917D01*
X431615Y481299D01*
X431705Y480843D01*
X431291Y480519D01*
X430961Y480739D01*
X430344Y480862D01*
X429726Y480739D01*
X429203Y480389D01*
X428853Y479866D01*
X428730Y479248D01*
X428853Y478630D01*
X429203Y478107D01*
X429726Y477757D01*
X430344Y477634D01*
X430961Y477757D01*
X431485Y478107D01*
X431835Y478630D01*
X431957Y479248D01*
X431867Y479704D01*
X432281Y480028D01*
X432611Y479808D01*
X433228Y479685D01*
X433846Y479808D01*
X434369Y480158D01*
X434719Y480682D01*
X434842Y481299D01*
X434719Y481917D01*
X434369Y482440D01*
X433846Y482790D01*
X433228Y482913D01*
D02*
G37*
G36*
X469172Y479824D02*
X468555Y479701D01*
X468032Y479351D01*
X467682Y478827D01*
X467559Y478210D01*
X467682Y477592D01*
X468032Y477069D01*
X468555Y476719D01*
X469172Y476596D01*
X469790Y476719D01*
X470314Y477069D01*
X470663Y477592D01*
X470786Y478210D01*
X470663Y478827D01*
X470314Y479351D01*
X469790Y479701D01*
X469172Y479824D01*
D02*
G37*
G36*
X483000Y479803D02*
X482382Y479680D01*
X481859Y479330D01*
X481509Y478806D01*
X481386Y478189D01*
X481509Y477571D01*
X481859Y477048D01*
X482382Y476698D01*
X483000Y476575D01*
X483617Y476698D01*
X484141Y477048D01*
X484491Y477571D01*
X484614Y478189D01*
X484491Y478806D01*
X484141Y479330D01*
X483617Y479680D01*
X483000Y479803D01*
D02*
G37*
G36*
X445761Y473633D02*
X445144Y473511D01*
X444620Y473161D01*
X444270Y472637D01*
X444147Y472020D01*
X444270Y471402D01*
X444620Y470879D01*
X445144Y470529D01*
X445761Y470406D01*
X446379Y470529D01*
X446902Y470879D01*
X447252Y471402D01*
X447375Y472020D01*
X447252Y472637D01*
X446902Y473161D01*
X446379Y473511D01*
X445761Y473633D01*
D02*
G37*
G36*
X463000Y470866D02*
X462383Y470743D01*
X461859Y470393D01*
X461509Y469870D01*
X461386Y469252D01*
X461509Y468634D01*
X461859Y468111D01*
X462383Y467761D01*
X463000Y467638D01*
X463618Y467761D01*
X464141Y468111D01*
X464491Y468634D01*
X464614Y469252D01*
X464491Y469870D01*
X464141Y470393D01*
X463618Y470743D01*
X463000Y470866D01*
D02*
G37*
G36*
X445761Y469433D02*
X445144Y469311D01*
X444620Y468961D01*
X444270Y468437D01*
X444147Y467820D01*
X444270Y467202D01*
X444620Y466679D01*
X445144Y466329D01*
X445761Y466206D01*
X446379Y466329D01*
X446666Y466521D01*
X447027Y466161D01*
X446832Y465870D01*
X446709Y465252D01*
X446832Y464634D01*
X447182Y464111D01*
X447706Y463761D01*
X448323Y463638D01*
X448941Y463761D01*
X449464Y464111D01*
X449814Y464634D01*
X449937Y465252D01*
X449814Y465870D01*
X449464Y466393D01*
X448941Y466743D01*
X448323Y466866D01*
X447706Y466743D01*
X447418Y466550D01*
X447057Y466911D01*
X447252Y467202D01*
X447375Y467820D01*
X447252Y468437D01*
X446902Y468961D01*
X446379Y469311D01*
X445761Y469433D01*
D02*
G37*
G36*
X490000Y465905D02*
X489383Y465782D01*
X488859Y465432D01*
X488509Y464909D01*
X488386Y464291D01*
X488509Y463674D01*
X488859Y463150D01*
X489383Y462801D01*
X490000Y462678D01*
X490618Y462801D01*
X491141Y463150D01*
X491491Y463674D01*
X491614Y464291D01*
X491491Y464909D01*
X491141Y465432D01*
X490618Y465782D01*
X490000Y465905D01*
D02*
G37*
G36*
X483000D02*
X482382Y465782D01*
X481859Y465432D01*
X481509Y464909D01*
X481386Y464291D01*
X481509Y463674D01*
X481859Y463150D01*
X482382Y462801D01*
X483000Y462678D01*
X483617Y462801D01*
X484141Y463150D01*
X484491Y463674D01*
X484614Y464291D01*
X484491Y464909D01*
X484141Y465432D01*
X483617Y465782D01*
X483000Y465905D01*
D02*
G37*
G36*
X444085Y463948D02*
X443468Y463826D01*
X442944Y463476D01*
X442594Y462952D01*
X442472Y462335D01*
X442594Y461717D01*
X442944Y461194D01*
X443468Y460844D01*
X444085Y460721D01*
X444703Y460844D01*
X445226Y461194D01*
X445576Y461717D01*
X445699Y462335D01*
X445576Y462952D01*
X445226Y463476D01*
X444703Y463826D01*
X444085Y463948D01*
D02*
G37*
G36*
X439043D02*
X438425Y463826D01*
X437902Y463476D01*
X437552Y462952D01*
X437429Y462335D01*
X437552Y461717D01*
X437902Y461194D01*
X438425Y460844D01*
X439043Y460721D01*
X439660Y460844D01*
X440184Y461194D01*
X440533Y461717D01*
X440656Y462335D01*
X440533Y462952D01*
X440184Y463476D01*
X439660Y463826D01*
X439043Y463948D01*
D02*
G37*
G36*
X434000Y463948D02*
X433383Y463825D01*
X432859Y463475D01*
X432509Y462952D01*
X432386Y462334D01*
X432509Y461717D01*
X432859Y461193D01*
X433383Y460844D01*
X434000Y460721D01*
X434618Y460844D01*
X435141Y461193D01*
X435491Y461717D01*
X435614Y462334D01*
X435491Y462952D01*
X435141Y463475D01*
X434618Y463825D01*
X434000Y463948D01*
D02*
G37*
G36*
X458858Y459866D02*
X458241Y459743D01*
X457717Y459393D01*
X457367Y458870D01*
X457245Y458252D01*
X457367Y457634D01*
X457717Y457111D01*
X458241Y456761D01*
X458858Y456638D01*
X459476Y456761D01*
X459999Y457111D01*
X460349Y457634D01*
X460472Y458252D01*
X460349Y458870D01*
X459999Y459393D01*
X459476Y459743D01*
X458858Y459866D01*
D02*
G37*
G36*
X346202Y463574D02*
X345572D01*
X344990Y463333D01*
X344545Y462887D01*
X344304Y462306D01*
Y461676D01*
X344545Y461094D01*
X344990Y460649D01*
X345572Y460408D01*
X346202D01*
X346783Y460649D01*
X347229Y461094D01*
X347470Y461676D01*
Y462306D01*
X347229Y462887D01*
X346783Y463333D01*
X346202Y463574D01*
D02*
G37*
G36*
X369328Y270723D02*
X368698D01*
X368117Y270482D01*
X367671Y270037D01*
X367431Y269455D01*
Y268826D01*
X367671Y268244D01*
X368117Y267799D01*
X368698Y267558D01*
X369328D01*
X369910Y267799D01*
X370355Y268244D01*
X370596Y268826D01*
Y269455D01*
X370355Y270037D01*
X369910Y270482D01*
X369328Y270723D01*
D02*
G37*
G36*
X445799Y257923D02*
X445169D01*
X444588Y257682D01*
X444142Y257237D01*
X443902Y256655D01*
Y256025D01*
X444142Y255444D01*
X444588Y254998D01*
X445169Y254757D01*
X445799D01*
X446381Y254998D01*
X446826Y255444D01*
X447067Y256025D01*
Y256655D01*
X446826Y257237D01*
X446381Y257682D01*
X445799Y257923D01*
D02*
G37*
G36*
X460815Y251583D02*
X460185D01*
X459604Y251342D01*
X459158Y250897D01*
X458917Y250315D01*
Y249685D01*
X459158Y249103D01*
X459604Y248658D01*
X460185Y248417D01*
X460815D01*
X461397Y248658D01*
X461842Y249103D01*
X462083Y249685D01*
Y250315D01*
X461842Y250897D01*
X461397Y251342D01*
X460815Y251583D01*
D02*
G37*
G36*
X455515D02*
X454885D01*
X454304Y251342D01*
X453858Y250897D01*
X453617Y250315D01*
Y249685D01*
X453858Y249103D01*
X454304Y248658D01*
X454885Y248417D01*
X455515D01*
X456097Y248658D01*
X456542Y249103D01*
X456783Y249685D01*
Y250315D01*
X456542Y250897D01*
X456097Y251342D01*
X455515Y251583D01*
D02*
G37*
G36*
X1129607Y370107D02*
X1128267D01*
X1126954Y369846D01*
X1125716Y369333D01*
X1124602Y368589D01*
X1123655Y367642D01*
X1122911Y366528D01*
X1122398Y365291D01*
X1122137Y363977D01*
Y362637D01*
X1122398Y361324D01*
X1122911Y360086D01*
X1123655Y358972D01*
X1124602Y358025D01*
X1125716Y357281D01*
X1126954Y356768D01*
X1128267Y356507D01*
X1129607D01*
X1130921Y356768D01*
X1132158Y357281D01*
X1133272Y358025D01*
X1134219Y358972D01*
X1134963Y360086D01*
X1135476Y361324D01*
X1135737Y362637D01*
Y363977D01*
X1135476Y365291D01*
X1134963Y366528D01*
X1134219Y367642D01*
X1133272Y368589D01*
X1132158Y369333D01*
X1130921Y369846D01*
X1129607Y370107D01*
D02*
G37*
G36*
X1158922Y326189D02*
X1158292D01*
X1157710Y325948D01*
X1157265Y325503D01*
X1157024Y324921D01*
Y324291D01*
X1157265Y323710D01*
X1157710Y323265D01*
X1158292Y323024D01*
X1158922D01*
X1159503Y323265D01*
X1159949Y323710D01*
X1160190Y324291D01*
Y324921D01*
X1159949Y325503D01*
X1159503Y325948D01*
X1158922Y326189D01*
D02*
G37*
G36*
Y309654D02*
X1158292D01*
X1157710Y309413D01*
X1157265Y308967D01*
X1157024Y308386D01*
Y307756D01*
X1157265Y307174D01*
X1157710Y306729D01*
X1158292Y306488D01*
X1158922D01*
X1159503Y306729D01*
X1159949Y307174D01*
X1160190Y307756D01*
Y308386D01*
X1159949Y308967D01*
X1159503Y309413D01*
X1158922Y309654D01*
D02*
G37*
G36*
X630118Y509275D02*
X629501Y509152D01*
X628977Y508803D01*
X628627Y508279D01*
X628504Y507661D01*
X628627Y507044D01*
X628977Y506520D01*
X629501Y506171D01*
X630118Y506048D01*
X630736Y506171D01*
X631259Y506520D01*
X631609Y507044D01*
X631732Y507661D01*
X631609Y508279D01*
X631259Y508803D01*
X630736Y509152D01*
X630118Y509275D01*
D02*
G37*
G36*
X626000D02*
X625383Y509152D01*
X624859Y508803D01*
X624509Y508279D01*
X624386Y507661D01*
X624509Y507044D01*
X624859Y506520D01*
X625383Y506171D01*
X626000Y506048D01*
X626617Y506171D01*
X627141Y506520D01*
X627491Y507044D01*
X627614Y507661D01*
X627491Y508279D01*
X627141Y508803D01*
X626617Y509152D01*
X626000Y509275D01*
D02*
G37*
G36*
X621378Y467598D02*
X620760Y467475D01*
X620237Y467125D01*
X619887Y466602D01*
X619764Y465984D01*
X619887Y465367D01*
X620237Y464843D01*
X620760Y464493D01*
X621378Y464371D01*
X621995Y464493D01*
X622519Y464843D01*
X622869Y465367D01*
X622992Y465984D01*
X622869Y466602D01*
X622519Y467125D01*
X621995Y467475D01*
X621378Y467598D01*
D02*
G37*
G36*
X716260Y460669D02*
X715642Y460546D01*
X715119Y460196D01*
X714769Y459673D01*
X714646Y459055D01*
X714769Y458438D01*
X715119Y457914D01*
X715642Y457564D01*
X716260Y457441D01*
X716877Y457564D01*
X717401Y457914D01*
X717751Y458438D01*
X717873Y459055D01*
X717751Y459673D01*
X717401Y460196D01*
X716877Y460546D01*
X716260Y460669D01*
D02*
G37*
G36*
X663110Y445787D02*
X662493Y445664D01*
X661969Y445314D01*
X661619Y444791D01*
X661497Y444173D01*
X661619Y443556D01*
X661969Y443032D01*
X662493Y442682D01*
X663110Y442560D01*
X663728Y442682D01*
X664251Y443032D01*
X664601Y443556D01*
X664724Y444173D01*
X664601Y444791D01*
X664251Y445314D01*
X663728Y445664D01*
X663110Y445787D01*
D02*
G37*
G36*
X840000Y306364D02*
X839382Y306241D01*
X838859Y305891D01*
X838509Y305368D01*
X838386Y304750D01*
X838509Y304133D01*
X838859Y303609D01*
X839382Y303260D01*
X840000Y303137D01*
X840617Y303260D01*
X841141Y303609D01*
X841491Y304133D01*
X841614Y304750D01*
X841491Y305368D01*
X841141Y305891D01*
X840617Y306241D01*
X840000Y306364D01*
D02*
G37*
G36*
X863500Y306362D02*
X862883Y306239D01*
X862359Y305890D01*
X862009Y305366D01*
X861886Y304749D01*
X862009Y304131D01*
X862359Y303607D01*
X862883Y303258D01*
X863500Y303135D01*
X864118Y303258D01*
X864641Y303607D01*
X864991Y304131D01*
X865114Y304749D01*
X864991Y305366D01*
X864641Y305890D01*
X864118Y306239D01*
X863500Y306362D01*
D02*
G37*
G36*
X856000D02*
X855383Y306239D01*
X854859Y305890D01*
X854509Y305366D01*
X854386Y304749D01*
X854509Y304131D01*
X854859Y303607D01*
X855383Y303258D01*
X856000Y303135D01*
X856618Y303258D01*
X857141Y303607D01*
X857491Y304131D01*
X857614Y304749D01*
X857491Y305366D01*
X857141Y305890D01*
X856618Y306239D01*
X856000Y306362D01*
D02*
G37*
G36*
X848500D02*
X847882Y306239D01*
X847359Y305890D01*
X847009Y305366D01*
X846886Y304749D01*
X847009Y304131D01*
X847359Y303607D01*
X847882Y303258D01*
X848500Y303135D01*
X849117Y303258D01*
X849641Y303607D01*
X849991Y304131D01*
X850114Y304749D01*
X849991Y305366D01*
X849641Y305890D01*
X849117Y306239D01*
X848500Y306362D01*
D02*
G37*
G36*
X854175Y288713D02*
X853558Y288590D01*
X853034Y288240D01*
X852685Y287716D01*
X852562Y287099D01*
X852685Y286481D01*
X853034Y285958D01*
X853558Y285608D01*
X854175Y285485D01*
X854793Y285608D01*
X855317Y285958D01*
X855666Y286481D01*
X855789Y287099D01*
X855666Y287716D01*
X855317Y288240D01*
X854793Y288590D01*
X854175Y288713D01*
D02*
G37*
G36*
X839000Y247629D02*
X838383Y247506D01*
X837859Y247156D01*
X837509Y246633D01*
X837386Y246015D01*
X837509Y245397D01*
X837859Y244874D01*
X838383Y244524D01*
X839000Y244401D01*
X839618Y244524D01*
X840141Y244874D01*
X840491Y245397D01*
X840614Y246015D01*
X840491Y246633D01*
X840141Y247156D01*
X839618Y247506D01*
X839000Y247629D01*
D02*
G37*
G36*
X866000Y244814D02*
X865382Y244692D01*
X864859Y244342D01*
X864509Y243818D01*
X864386Y243201D01*
X864509Y242583D01*
X864859Y242060D01*
X865382Y241710D01*
X866000Y241587D01*
X866617Y241710D01*
X867141Y242060D01*
X867491Y242583D01*
X867614Y243201D01*
X867491Y243818D01*
X867141Y244342D01*
X866617Y244692D01*
X866000Y244814D01*
D02*
G37*
G36*
X851000D02*
X850383Y244692D01*
X849859Y244342D01*
X849509Y243818D01*
X849386Y243201D01*
X849509Y242583D01*
X849859Y242060D01*
X850383Y241710D01*
X851000Y241587D01*
X851618Y241710D01*
X852141Y242060D01*
X852491Y242583D01*
X852614Y243201D01*
X852491Y243818D01*
X852141Y244342D01*
X851618Y244692D01*
X851000Y244814D01*
D02*
G37*
G36*
X1158922Y293118D02*
X1158292D01*
X1157710Y292877D01*
X1157265Y292432D01*
X1157024Y291850D01*
Y291221D01*
X1157265Y290639D01*
X1157710Y290194D01*
X1158292Y289953D01*
X1158922D01*
X1159503Y290194D01*
X1159949Y290639D01*
X1160190Y291221D01*
Y291850D01*
X1159949Y292432D01*
X1159503Y292877D01*
X1158922Y293118D01*
D02*
G37*
G36*
Y276583D02*
X1158292D01*
X1157710Y276342D01*
X1157265Y275897D01*
X1157024Y275315D01*
Y274685D01*
X1157265Y274103D01*
X1157710Y273658D01*
X1158292Y273417D01*
X1158922D01*
X1159503Y273658D01*
X1159949Y274103D01*
X1160190Y274685D01*
Y275315D01*
X1159949Y275897D01*
X1159503Y276342D01*
X1158922Y276583D01*
D02*
G37*
%LPD*%
D14*
X343500Y357000D02*
X389870Y310630D01*
X449252D02*
X464134Y295748D01*
X389870Y310630D02*
X449252D01*
X464134Y295748D02*
X484600D01*
X493633Y304782D01*
D224*
X990091Y231642D02*
D03*
X1105945Y395709D02*
D03*
Y379882D02*
D03*
X1117520Y395590D02*
D03*
X335500Y174614D02*
D03*
X353000Y179313D02*
D03*
X1137256Y259213D02*
D03*
Y276811D02*
D03*
Y308268D02*
D03*
Y324646D02*
D03*
Y289055D02*
D03*
X1099791Y317598D02*
D03*
Y296732D02*
D03*
X1105512Y165000D02*
D03*
X1109528Y160630D02*
D03*
X1118661D02*
D03*
X1127795D02*
D03*
X1105669Y240000D02*
D03*
X1105945Y363000D02*
D03*
X327000Y174614D02*
D03*
X293000D02*
D03*
X284500Y174616D02*
D03*
X510512Y601181D02*
D03*
X1154882Y264606D02*
D03*
X1164095Y264528D02*
D03*
X1109528Y169843D02*
D03*
X1118661D02*
D03*
X1127795D02*
D03*
X1145827Y233444D02*
D03*
X1137256Y177102D02*
D03*
X1145827Y185950D02*
D03*
X1137256Y193524D02*
D03*
X1145827Y201781D02*
D03*
X1137256Y209946D02*
D03*
X1145827Y217612D02*
D03*
X1137256Y226369D02*
D03*
Y242791D02*
D03*
X1145827Y170118D02*
D03*
X1113898Y230157D02*
D03*
X1099724D02*
D03*
X1113819Y241801D02*
D03*
X1113661Y276732D02*
D03*
X1128110Y276811D02*
D03*
Y289055D02*
D03*
X1113425Y253445D02*
D03*
Y265089D02*
D03*
X1099791Y253445D02*
D03*
Y265087D02*
D03*
X1128110Y308268D02*
D03*
X1107018Y308071D02*
D03*
X1111917Y312680D02*
D03*
X1107018Y303285D02*
D03*
Y312680D02*
D03*
X1111917Y303285D02*
D03*
X1128110Y324646D02*
D03*
Y340276D02*
D03*
X1095748Y353543D02*
D03*
X1096181Y379921D02*
D03*
X1095276Y395709D02*
D03*
X1166457Y384134D02*
D03*
X1155079Y396693D02*
D03*
X1159055Y340236D02*
D03*
Y355354D02*
D03*
Y370472D02*
D03*
X1169409D02*
D03*
Y355354D02*
D03*
Y340236D02*
D03*
X1179764D02*
D03*
Y355354D02*
D03*
Y370472D02*
D03*
X676598Y631024D02*
D03*
X689134D02*
D03*
X344000Y174614D02*
D03*
X662807Y646788D02*
D03*
X442500Y610824D02*
D03*
X610842Y646788D02*
D03*
X971775Y231479D02*
D03*
Y235416D02*
D03*
X586615Y518292D02*
D03*
X585215Y522692D02*
D03*
X599908Y521815D02*
D03*
X599954Y517788D02*
D03*
X604040Y521815D02*
D03*
X604039Y517788D02*
D03*
X620604Y533254D02*
D03*
X626000Y528116D02*
D03*
X620604D02*
D03*
X615972D02*
D03*
X615971Y533254D02*
D03*
X611337Y528116D02*
D03*
Y533254D02*
D03*
X608172Y521815D02*
D03*
Y517788D02*
D03*
X582415Y519292D02*
D03*
X580915Y523092D02*
D03*
X578690Y526392D02*
D03*
X583015D02*
D03*
X359655Y502559D02*
D03*
X359610Y506586D02*
D03*
X363742D02*
D03*
X367874Y502559D02*
D03*
Y506586D02*
D03*
X363765Y502559D02*
D03*
X430917Y452735D02*
D03*
Y456452D02*
D03*
X465504Y478778D02*
D03*
X490000Y478189D02*
D03*
X490949Y498500D02*
D03*
X652153Y602854D02*
D03*
X369635Y251745D02*
D03*
X435823Y456452D02*
D03*
X440728D02*
D03*
X435823Y452735D02*
D03*
X440728D02*
D03*
X203000Y598839D02*
D03*
X154050Y594781D02*
D03*
X128500Y596279D02*
D03*
X79550Y594781D02*
D03*
X343500Y357000D02*
D03*
X493633Y304782D02*
D03*
X301500Y174614D02*
D03*
X310000D02*
D03*
X318500D02*
D03*
X587220Y646788D02*
D03*
X488499Y603910D02*
D03*
X497000Y603543D02*
D03*
X504500Y603258D02*
D03*
X576571Y602827D02*
D03*
X600248Y615004D02*
D03*
X753248Y596702D02*
D03*
X749400Y600003D02*
D03*
X761252Y596702D02*
D03*
X756998Y600041D02*
D03*
X765500Y599808D02*
D03*
X977886Y231642D02*
D03*
X984000D02*
D03*
X990091Y248571D02*
D03*
X984000D02*
D03*
X977886D02*
D03*
Y244634D02*
D03*
X990091D02*
D03*
Y235579D02*
D03*
X977886D02*
D03*
X984000D02*
D03*
Y244634D02*
D03*
X990091Y240000D02*
D03*
X977886D02*
D03*
X971775Y239837D02*
D03*
Y244471D02*
D03*
Y248408D02*
D03*
X867887Y267983D02*
D03*
X873978D02*
D03*
X861773D02*
D03*
Y271920D02*
D03*
X867887D02*
D03*
X873978D02*
D03*
X873925Y275843D02*
D03*
X867834D02*
D03*
X861720D02*
D03*
X849516D02*
D03*
X855630D02*
D03*
X855683Y271920D02*
D03*
X849569D02*
D03*
Y267983D02*
D03*
X855683D02*
D03*
X837311Y275843D02*
D03*
X843425D02*
D03*
X843478Y271920D02*
D03*
X837364D02*
D03*
Y267983D02*
D03*
X843478D02*
D03*
X790505Y710480D02*
D03*
X493176Y598071D02*
D03*
X225500Y517498D02*
D03*
X206920Y493500D02*
D03*
X216500Y505473D02*
D03*
X182740Y495469D02*
D03*
X430976Y686001D02*
D03*
X430974Y691500D02*
D03*
X481858Y603311D02*
D03*
Y598071D02*
D03*
X500913Y598071D02*
D03*
X279669Y239126D02*
D03*
X410701Y194700D02*
D03*
Y206299D02*
D03*
X94232Y111300D02*
D03*
X82768D02*
D03*
X156732D02*
D03*
X145268D02*
D03*
X219232D02*
D03*
X207768D02*
D03*
X281732D02*
D03*
X270268D02*
D03*
X344232D02*
D03*
X332768D02*
D03*
X406732D02*
D03*
X395268D02*
D03*
X469232D02*
D03*
X457768D02*
D03*
X520268D02*
D03*
X531732D02*
D03*
D229*
X327000Y174616D02*
X344000D01*
X310000D02*
X327000D01*
X344000D02*
X348303D01*
X284500D02*
X310000D01*
X348303D02*
X353000Y179313D01*
X223376Y174616D02*
X284500D01*
X43425Y544134D02*
X59567Y560276D01*
X43425Y215945D02*
X63150Y196221D01*
X43425Y215945D02*
Y544134D01*
X59055Y258465D02*
X81496Y236024D01*
X59055Y488661D02*
X69331Y498937D01*
X59055Y258465D02*
Y488661D01*
X270701Y239126D02*
X279669D01*
X255669Y224095D02*
X270701Y239126D01*
X212559Y224095D02*
X255669D01*
X200630Y236024D02*
X212559Y224095D01*
X81496Y236024D02*
X200630D01*
X69331Y498937D02*
X175630D01*
X179061Y495506D01*
X182702D01*
X182740Y495469D01*
X201772Y196221D02*
X223376Y174616D01*
X63150Y196221D02*
X201772D01*
X28307Y122795D02*
Y543307D01*
X59567Y560276D02*
X191417D01*
X196221Y555472D01*
Y535709D02*
Y555472D01*
X208504Y523425D02*
X216693D01*
X196221Y535709D02*
X208504Y523425D01*
X216693D02*
X218622Y521496D01*
Y511063D02*
Y521496D01*
X216538Y508979D02*
X218622Y511063D01*
X216500Y505473D02*
X216538Y505511D01*
Y508979D01*
X410701Y194700D02*
Y206299D01*
Y181268D02*
Y194700D01*
X434842Y157126D02*
X525984Y157126D01*
X410701Y181268D02*
X434842Y157126D01*
X165984Y107047D02*
X197992D01*
X452717Y111300D02*
X457768D01*
X537165Y114213D02*
Y145945D01*
X389568Y111300D02*
X395268D01*
X385315Y107047D02*
X389568Y111300D01*
X510118Y106339D02*
X515079Y111300D01*
X525984Y157126D02*
X537165Y145945D01*
X140158Y111300D02*
X145268D01*
X448819Y107402D02*
X452717Y111300D01*
X202245D02*
X207768D01*
X134961Y106102D02*
X140158Y111300D01*
X260354Y106693D02*
X264961Y111300D01*
X197992Y107047D02*
X202245Y111300D01*
X28307Y122795D02*
X39802Y111300D01*
X264961D02*
X270268D01*
X352953Y107047D02*
X385315D01*
X39802Y111300D02*
X82768D01*
X322835Y107008D02*
X327127Y111300D01*
X332768D01*
X515079D02*
X520268D01*
X412243D02*
X416142Y107402D01*
X448819D01*
X531732Y111300D02*
X534253D01*
X520268D02*
X531732D01*
X534253D02*
X537165Y114213D01*
X478819Y106339D02*
X510118D01*
X469232Y111300D02*
X473857D01*
X457768D02*
X469232D01*
X473857D02*
X478819Y106339D01*
X406732Y111300D02*
X412243D01*
X395268D02*
X406732D01*
X344232D02*
X348700D01*
X332768D02*
X344232D01*
X348700D02*
X352953Y107047D01*
X291417Y107008D02*
X322835D01*
X281732Y111300D02*
X287125D01*
X270268D02*
X281732D01*
X287125D02*
X291417Y107008D01*
X228819Y106693D02*
X260354D01*
X219232Y111300D02*
X224212D01*
X207768D02*
X219232D01*
X224212D02*
X228819Y106693D01*
X156732Y111300D02*
X161732D01*
X145268D02*
X156732D01*
X161732D02*
X165984Y107047D01*
X105866Y106102D02*
X134961D01*
X94232Y111300D02*
X100669D01*
X82768D02*
X94232D01*
X100669D02*
X105866Y106102D01*
X28307Y543307D02*
X51496Y566496D01*
X210000D01*
X225500Y550996D01*
Y517498D02*
Y550996D01*
D236*
X323189Y298622D02*
X355512Y266299D01*
X75827Y327638D02*
X104842Y298622D01*
X323189D01*
X361837Y251745D02*
X369635D01*
X355512Y258071D02*
X361837Y251745D01*
X355512Y258071D02*
Y266299D01*
X75827Y327638D02*
Y433465D01*
X95276Y452913D01*
X177520D01*
X206920Y482314D01*
Y493500D01*
D258*
X1172346Y324606D02*
D03*
Y308071D02*
D03*
Y291535D02*
D03*
Y275000D02*
D03*
D272*
X393937Y253504D02*
D03*
X402137D02*
D03*
X397837Y247604D02*
D03*
D281*
X577362Y549370D02*
X591221Y535512D01*
Y514685D02*
X594528Y511378D01*
X591221Y514685D02*
Y535512D01*
X447087Y549370D02*
X577362D01*
X461575Y576496D02*
Y603701D01*
X482835Y555236D02*
X602756D01*
X461575Y576496D02*
X482835Y555236D01*
X422441Y574016D02*
X447087Y549370D01*
X454452Y610824D02*
X461575Y603701D01*
X594528Y511378D02*
X601929D01*
X442500Y610824D02*
X454452D01*
X422441Y574016D02*
Y670433D01*
X430976Y678968D02*
Y686001D01*
X422441Y670433D02*
X430976Y678968D01*
X430974Y691500D02*
X430975Y691499D01*
Y686002D02*
Y691499D01*
Y686002D02*
X430976Y686001D01*
M02*
