G04*
G04 #@! TF.GenerationSoftware,Altium Limited,Altium Designer,22.6.1 (34)*
G04*
G04 Layer_Color=8388736*
%FSLAX23Y23*%
%MOIN*%
G70*
G04*
G04 #@! TF.SameCoordinates,48DA0B1C-91FB-4976-8A67-4949CEA53551*
G04*
G04*
G04 #@! TF.FilePolarity,Positive*
G04*
G01*
G75*
%ADD18C,0.008*%
G36*
X7943Y500D02*
X7943D01*
X7943D01*
X7943Y500D01*
X7944Y500D01*
X7944Y500D01*
X7945Y500D01*
X7945Y500D01*
X7946Y500D01*
X7947Y500D01*
X7947Y500D01*
X7948Y500D01*
X7948Y500D01*
X7949Y500D01*
X7950Y499D01*
X7950Y499D01*
X7950Y499D01*
X7950Y499D01*
X7950Y499D01*
X7950Y499D01*
X7951Y499D01*
X7951Y499D01*
X7951Y499D01*
X7952Y498D01*
X7952Y498D01*
X7952Y498D01*
X7953Y498D01*
X7953Y497D01*
X7953Y497D01*
X7954Y497D01*
X7954Y496D01*
X7954Y496D01*
X7954Y496D01*
X7954Y496D01*
X7954Y496D01*
X7954Y496D01*
X7954Y495D01*
X7955Y495D01*
X7955Y495D01*
X7955Y495D01*
X7955Y494D01*
X7955Y494D01*
X7955Y493D01*
X7955Y493D01*
X7955Y492D01*
X7955Y492D01*
X7955Y491D01*
Y491D01*
X7955Y491D01*
Y491D01*
X7955Y491D01*
X7955Y490D01*
X7955Y490D01*
X7955Y490D01*
X7955Y489D01*
X7955Y489D01*
X7955Y489D01*
X7955Y488D01*
X7955Y488D01*
X7954Y487D01*
X7954Y487D01*
X7954Y487D01*
X7954Y487D01*
X7954Y487D01*
X7954Y486D01*
X7953Y486D01*
X7953Y486D01*
X7953Y486D01*
X7953Y486D01*
X7953Y486D01*
X7952Y485D01*
X7952Y485D01*
X7952Y485D01*
X7951Y485D01*
X7951Y485D01*
X7950Y485D01*
X7950Y484D01*
X7949Y484D01*
X7949Y487D01*
X7949D01*
X7949Y487D01*
X7949Y487D01*
X7949Y487D01*
X7949Y487D01*
X7950Y487D01*
X7950Y488D01*
X7950Y488D01*
X7951Y488D01*
X7951Y488D01*
X7952Y488D01*
X7952Y489D01*
X7952Y489D01*
X7952Y489D01*
X7952Y489D01*
X7952Y489D01*
X7952Y489D01*
X7952Y489D01*
X7952Y489D01*
X7952Y489D01*
X7952Y490D01*
X7952Y490D01*
X7953Y490D01*
X7953Y490D01*
X7953Y491D01*
X7953Y491D01*
X7953Y491D01*
Y492D01*
X7953Y492D01*
Y492D01*
X7953Y492D01*
X7953Y492D01*
X7953Y493D01*
X7953Y493D01*
X7952Y494D01*
X7952Y494D01*
Y494D01*
X7952Y494D01*
X7952Y494D01*
X7952Y494D01*
X7952Y494D01*
X7952Y495D01*
X7952Y495D01*
X7951Y495D01*
X7951Y495D01*
X7950Y496D01*
X7950D01*
X7950Y496D01*
X7950Y496D01*
X7950Y496D01*
X7950Y496D01*
X7950Y496D01*
X7950Y496D01*
X7950Y496D01*
X7950Y496D01*
X7949Y496D01*
X7949Y496D01*
X7949Y497D01*
X7949Y497D01*
X7948Y497D01*
X7948Y497D01*
X7948Y497D01*
X7948D01*
X7947Y497D01*
X7947Y497D01*
X7947Y497D01*
X7947Y497D01*
X7947Y497D01*
X7947Y497D01*
X7946Y497D01*
X7946Y497D01*
X7946Y497D01*
X7945Y497D01*
X7944Y497D01*
X7944Y497D01*
X7944D01*
X7944D01*
X7944D01*
X7944D01*
X7944D01*
X7943D01*
X7943D01*
X7943D01*
X7943Y497D01*
X7943Y497D01*
X7943Y497D01*
X7943Y497D01*
X7944Y497D01*
X7944Y497D01*
X7944Y497D01*
X7944Y497D01*
X7944Y497D01*
X7944Y496D01*
X7945Y496D01*
X7945Y496D01*
X7945Y495D01*
X7946Y495D01*
X7946Y495D01*
X7946Y495D01*
X7946Y495D01*
X7946Y495D01*
X7946Y494D01*
X7946Y494D01*
X7946Y494D01*
X7946Y494D01*
X7946Y494D01*
X7946Y493D01*
X7946Y493D01*
X7946Y492D01*
X7946Y492D01*
X7946Y491D01*
Y491D01*
X7946Y491D01*
X7946Y491D01*
X7946Y491D01*
X7946Y490D01*
X7946Y490D01*
X7946Y490D01*
X7946Y489D01*
X7946Y489D01*
X7946Y488D01*
X7946Y488D01*
X7945Y487D01*
X7945Y487D01*
X7945Y486D01*
X7944Y486D01*
X7944Y486D01*
X7944Y486D01*
X7944Y486D01*
X7944Y486D01*
X7944Y486D01*
X7943Y485D01*
X7943Y485D01*
X7943Y485D01*
X7942Y485D01*
X7942Y485D01*
X7941Y484D01*
X7941Y484D01*
X7940Y484D01*
X7940Y484D01*
X7939Y484D01*
X7938Y484D01*
X7938D01*
X7938D01*
X7938D01*
X7938D01*
X7938Y484D01*
X7938D01*
X7938Y484D01*
X7937Y484D01*
X7937Y484D01*
X7936Y484D01*
X7936Y484D01*
X7936Y484D01*
X7935Y484D01*
X7935Y485D01*
X7934Y485D01*
X7934Y485D01*
X7933Y485D01*
X7933Y486D01*
X7932Y486D01*
X7932Y486D01*
X7932Y486D01*
X7932Y486D01*
X7932Y487D01*
X7932Y487D01*
X7931Y487D01*
X7931Y487D01*
X7931Y488D01*
X7931Y488D01*
X7930Y489D01*
X7930Y489D01*
X7930Y490D01*
X7930Y490D01*
X7930Y491D01*
X7930Y491D01*
X7930Y492D01*
Y492D01*
X7930Y492D01*
X7930Y492D01*
X7930Y493D01*
X7930Y493D01*
X7930Y493D01*
X7930Y494D01*
X7930Y494D01*
X7930Y494D01*
X7930Y495D01*
X7930Y495D01*
X7931Y496D01*
X7931Y496D01*
X7931Y496D01*
X7931Y496D01*
X7931Y496D01*
X7931Y497D01*
X7931Y497D01*
X7931Y497D01*
X7932Y497D01*
X7932Y497D01*
X7932Y497D01*
X7932Y498D01*
X7933Y498D01*
X7933Y498D01*
X7933Y498D01*
X7934Y499D01*
X7934Y499D01*
X7934Y499D01*
X7935Y499D01*
X7935Y499D01*
X7935Y499D01*
X7935Y499D01*
X7935Y500D01*
X7936Y500D01*
X7936Y500D01*
X7936Y500D01*
X7937Y500D01*
X7937Y500D01*
X7938Y500D01*
X7938Y500D01*
X7939Y500D01*
X7940Y500D01*
X7940Y500D01*
X7941Y500D01*
X7942Y500D01*
X7942D01*
X7942D01*
X7942D01*
X7942D01*
X7942D01*
X7942D01*
X7943Y500D01*
D02*
G37*
G36*
X7955Y465D02*
X7930D01*
Y469D01*
X7952D01*
Y481D01*
X7955D01*
Y465D01*
D02*
G37*
G36*
X6294Y5478D02*
X6294Y5478D01*
X6295Y5478D01*
X6295Y5478D01*
X6296Y5478D01*
X6297Y5478D01*
X6297Y5477D01*
X6297Y5477D01*
X6298Y5477D01*
X6298Y5477D01*
X6298Y5477D01*
X6299Y5477D01*
X6299Y5477D01*
X6299Y5477D01*
X6299Y5477D01*
X6299Y5477D01*
X6300Y5476D01*
X6300Y5476D01*
X6301Y5476D01*
X6301Y5475D01*
X6301Y5475D01*
X6302Y5475D01*
X6302Y5474D01*
X6302Y5474D01*
X6303Y5473D01*
X6303Y5473D01*
X6303Y5473D01*
X6303Y5473D01*
X6303Y5472D01*
X6303Y5472D01*
X6303Y5472D01*
X6304Y5472D01*
X6304Y5472D01*
X6304Y5471D01*
X6304Y5470D01*
X6304Y5470D01*
X6305Y5469D01*
X6305Y5469D01*
X6305Y5468D01*
X6305Y5468D01*
X6305Y5467D01*
X6305Y5467D01*
X6305Y5466D01*
X6305Y5466D01*
Y5466D01*
X6305Y5466D01*
Y5465D01*
Y5465D01*
Y5465D01*
Y5465D01*
Y5465D01*
X6305Y5465D01*
X6305Y5464D01*
X6305Y5463D01*
X6305Y5463D01*
X6305Y5462D01*
X6305Y5462D01*
X6304Y5461D01*
X6304Y5461D01*
X6304Y5460D01*
X6304Y5460D01*
X6304Y5459D01*
X6304Y5459D01*
X6304Y5459D01*
X6304Y5459D01*
X6304Y5459D01*
X6304Y5459D01*
Y5459D01*
X6303Y5458D01*
X6303Y5457D01*
X6303Y5457D01*
X6303Y5456D01*
X6302Y5456D01*
X6302Y5456D01*
X6302Y5455D01*
X6301Y5455D01*
X6301Y5455D01*
X6301Y5454D01*
X6300Y5454D01*
X6300Y5454D01*
X6300Y5454D01*
X6300Y5454D01*
X6300Y5454D01*
X6300Y5454D01*
X6299Y5453D01*
X6299Y5453D01*
X6298Y5453D01*
X6298Y5453D01*
X6297Y5453D01*
X6297Y5452D01*
X6296Y5452D01*
X6296Y5452D01*
X6295Y5452D01*
X6295Y5452D01*
X6294Y5452D01*
X6294Y5452D01*
X6294D01*
X6293Y5452D01*
X6293D01*
X6292Y5452D01*
X6292Y5452D01*
X6291Y5452D01*
X6290Y5452D01*
X6290Y5453D01*
X6289Y5453D01*
X6289Y5453D01*
X6288Y5453D01*
X6288Y5453D01*
X6288Y5454D01*
X6287Y5454D01*
X6287Y5454D01*
X6287Y5454D01*
X6287Y5454D01*
X6287Y5454D01*
X6287Y5454D01*
X6286Y5455D01*
X6286Y5455D01*
X6285Y5456D01*
X6285Y5456D01*
X6284Y5457D01*
X6284Y5457D01*
X6284Y5458D01*
X6284Y5458D01*
X6283Y5459D01*
X6283Y5459D01*
X6283Y5459D01*
X6283Y5460D01*
X6283Y5460D01*
X6283Y5460D01*
X6283Y5460D01*
X6283Y5460D01*
X6283Y5460D01*
X6283Y5460D01*
Y5460D01*
X6286Y5461D01*
X6286Y5461D01*
X6286Y5460D01*
X6287Y5460D01*
X6287Y5459D01*
X6287Y5459D01*
X6287Y5458D01*
X6287Y5458D01*
X6288Y5458D01*
X6288Y5457D01*
X6288Y5457D01*
X6288Y5457D01*
X6288Y5457D01*
X6289Y5457D01*
X6289Y5457D01*
X6289Y5457D01*
X6289Y5457D01*
X6289Y5456D01*
X6289Y5456D01*
X6290Y5456D01*
X6290Y5456D01*
X6291Y5455D01*
X6291Y5455D01*
X6291Y5455D01*
X6292Y5455D01*
X6292Y5455D01*
X6292Y5455D01*
X6293Y5455D01*
X6293Y5455D01*
X6293D01*
X6293Y5455D01*
X6293D01*
X6294Y5455D01*
X6294Y5455D01*
X6295Y5455D01*
X6295Y5455D01*
X6295Y5455D01*
X6296Y5455D01*
X6296Y5455D01*
X6296Y5456D01*
X6297Y5456D01*
X6297Y5456D01*
X6297Y5456D01*
X6297Y5456D01*
X6298Y5456D01*
X6298Y5456D01*
X6298Y5456D01*
X6298Y5456D01*
X6298Y5456D01*
X6298Y5457D01*
X6299Y5457D01*
X6299Y5457D01*
X6299Y5457D01*
X6300Y5458D01*
X6300Y5458D01*
X6300Y5458D01*
X6300Y5459D01*
X6300Y5459D01*
X6300Y5459D01*
X6300Y5459D01*
X6301Y5459D01*
X6301Y5460D01*
X6301Y5460D01*
X6301Y5460D01*
X6301Y5460D01*
X6301Y5461D01*
X6301Y5461D01*
X6301Y5462D01*
X6301Y5462D01*
X6301Y5463D01*
X6301Y5463D01*
X6301Y5464D01*
X6302Y5464D01*
X6302Y5464D01*
X6302Y5465D01*
X6302Y5465D01*
Y5465D01*
Y5465D01*
Y5465D01*
X6302Y5466D01*
X6302Y5466D01*
X6301Y5467D01*
X6301Y5467D01*
X6301Y5468D01*
X6301Y5468D01*
X6301Y5469D01*
X6301Y5469D01*
X6301Y5469D01*
X6301Y5469D01*
X6301Y5470D01*
X6301Y5470D01*
X6301Y5470D01*
X6301Y5470D01*
Y5470D01*
X6301Y5471D01*
X6300Y5471D01*
X6300Y5471D01*
X6300Y5472D01*
X6300Y5472D01*
X6300Y5472D01*
X6299Y5473D01*
X6299Y5473D01*
X6299Y5473D01*
X6299Y5473D01*
X6299Y5473D01*
X6298Y5474D01*
X6298Y5474D01*
X6298Y5474D01*
X6298Y5474D01*
X6298Y5474D01*
X6298Y5474D01*
X6297Y5474D01*
X6297Y5475D01*
X6296Y5475D01*
X6296Y5475D01*
X6296Y5475D01*
X6295Y5475D01*
X6295Y5475D01*
X6295Y5475D01*
X6294Y5475D01*
X6294Y5475D01*
X6294Y5475D01*
X6293Y5475D01*
X6293D01*
X6293Y5475D01*
X6292Y5475D01*
X6292Y5475D01*
X6291Y5475D01*
X6291Y5475D01*
X6291Y5475D01*
X6290Y5475D01*
X6290Y5475D01*
X6290Y5475D01*
X6290Y5474D01*
X6289Y5474D01*
X6289Y5474D01*
X6289Y5474D01*
X6289Y5474D01*
X6289Y5474D01*
X6289Y5474D01*
X6289Y5474D01*
X6288Y5473D01*
X6288Y5473D01*
X6288Y5473D01*
X6288Y5472D01*
X6287Y5472D01*
X6287Y5472D01*
X6287Y5472D01*
X6287Y5471D01*
X6287Y5471D01*
X6287Y5471D01*
X6287Y5470D01*
X6287Y5470D01*
X6286Y5470D01*
X6286Y5470D01*
X6286Y5470D01*
X6283Y5471D01*
X6283Y5471D01*
X6284Y5472D01*
X6284Y5473D01*
X6284Y5473D01*
X6284Y5474D01*
X6285Y5474D01*
X6285Y5474D01*
X6285Y5475D01*
X6286Y5475D01*
X6286Y5475D01*
X6286Y5476D01*
X6286Y5476D01*
X6287Y5476D01*
X6287Y5476D01*
X6287Y5476D01*
X6287Y5476D01*
X6287Y5477D01*
X6288Y5477D01*
X6288Y5477D01*
X6289Y5477D01*
X6289Y5477D01*
X6290Y5478D01*
X6290Y5478D01*
X6291Y5478D01*
X6291Y5478D01*
X6292Y5478D01*
X6292Y5478D01*
X6292Y5478D01*
X6293Y5478D01*
X6293Y5478D01*
X6293D01*
X6294Y5478D01*
D02*
G37*
G36*
X6281Y5461D02*
Y5459D01*
X6270D01*
Y5452D01*
X6267D01*
Y5459D01*
X6263D01*
Y5461D01*
X6267D01*
Y5478D01*
X6269D01*
X6281Y5461D01*
D02*
G37*
G36*
X6253Y5478D02*
X6253Y5478D01*
X6254Y5478D01*
X6254Y5477D01*
X6255Y5477D01*
X6255Y5477D01*
X6256Y5477D01*
X6256Y5477D01*
X6256Y5477D01*
X6257Y5476D01*
X6257Y5476D01*
X6257Y5476D01*
X6257Y5476D01*
X6257Y5476D01*
X6257Y5476D01*
X6257Y5476D01*
X6258Y5476D01*
X6258Y5475D01*
X6258Y5475D01*
X6258Y5474D01*
X6259Y5474D01*
X6259Y5474D01*
X6259Y5473D01*
X6259Y5473D01*
X6259Y5473D01*
X6259Y5472D01*
X6259Y5472D01*
X6259Y5472D01*
X6259Y5472D01*
X6259Y5471D01*
Y5471D01*
Y5471D01*
X6259Y5471D01*
X6259Y5471D01*
X6259Y5470D01*
X6259Y5470D01*
X6259Y5469D01*
X6259Y5469D01*
X6259Y5469D01*
X6259Y5469D01*
X6259Y5469D01*
X6259Y5468D01*
X6259Y5468D01*
X6258Y5468D01*
X6258Y5468D01*
X6258Y5468D01*
X6258Y5468D01*
X6258Y5468D01*
X6258Y5468D01*
X6258Y5467D01*
X6257Y5467D01*
X6257Y5467D01*
X6256Y5467D01*
X6256Y5466D01*
X6256Y5466D01*
X6256Y5466D01*
X6256Y5466D01*
X6256Y5466D01*
X6256Y5466D01*
X6256D01*
X6256Y5466D01*
X6256Y5466D01*
X6257Y5466D01*
X6257Y5466D01*
X6257Y5465D01*
X6258Y5465D01*
X6258Y5465D01*
X6258Y5465D01*
X6258Y5465D01*
X6259Y5464D01*
X6259Y5464D01*
X6259Y5464D01*
X6259Y5464D01*
X6259Y5464D01*
X6259Y5464D01*
X6259Y5464D01*
X6259Y5464D01*
X6260Y5463D01*
X6260Y5463D01*
X6260Y5463D01*
X6260Y5462D01*
X6260Y5462D01*
X6260Y5462D01*
X6260Y5461D01*
X6260Y5461D01*
X6260Y5461D01*
X6260Y5460D01*
X6260Y5460D01*
X6260Y5460D01*
Y5460D01*
Y5460D01*
Y5460D01*
X6260Y5459D01*
X6260Y5459D01*
X6260Y5458D01*
X6260Y5458D01*
X6260Y5457D01*
X6260Y5457D01*
X6259Y5456D01*
X6259Y5456D01*
X6259Y5455D01*
X6259Y5455D01*
X6259Y5455D01*
X6258Y5455D01*
X6258Y5454D01*
X6258Y5454D01*
X6258Y5454D01*
X6258Y5454D01*
X6258Y5454D01*
X6257Y5454D01*
X6257Y5453D01*
X6256Y5453D01*
X6256Y5453D01*
X6255Y5453D01*
X6255Y5452D01*
X6254Y5452D01*
X6254Y5452D01*
X6253Y5452D01*
X6253Y5452D01*
X6253Y5452D01*
X6252Y5452D01*
X6252Y5452D01*
X6252D01*
X6251Y5452D01*
X6251Y5452D01*
X6250Y5452D01*
X6250Y5452D01*
X6249Y5453D01*
X6249Y5453D01*
X6248Y5453D01*
X6248Y5453D01*
X6247Y5453D01*
X6247Y5454D01*
X6247Y5454D01*
X6246Y5454D01*
X6246Y5454D01*
X6246Y5454D01*
X6246Y5454D01*
X6246Y5454D01*
X6246Y5455D01*
X6245Y5455D01*
X6245Y5456D01*
X6245Y5456D01*
X6245Y5456D01*
X6244Y5457D01*
X6244Y5457D01*
X6244Y5458D01*
X6244Y5458D01*
X6244Y5459D01*
X6244Y5459D01*
X6244Y5459D01*
X6244Y5459D01*
X6244Y5460D01*
Y5460D01*
Y5460D01*
X6244Y5460D01*
X6244Y5461D01*
X6244Y5461D01*
X6244Y5461D01*
X6244Y5462D01*
X6244Y5462D01*
X6244Y5462D01*
X6244Y5463D01*
X6244Y5463D01*
X6245Y5463D01*
X6245Y5463D01*
X6245Y5463D01*
X6245Y5464D01*
X6245Y5464D01*
X6245Y5464D01*
X6245Y5464D01*
X6245Y5464D01*
X6245Y5464D01*
X6246Y5465D01*
X6246Y5465D01*
X6246Y5465D01*
X6247Y5465D01*
X6247Y5465D01*
X6247Y5466D01*
X6247Y5466D01*
X6248Y5466D01*
X6248Y5466D01*
X6248Y5466D01*
X6248Y5466D01*
X6248Y5466D01*
X6249Y5466D01*
X6249D01*
X6248Y5466D01*
X6248Y5466D01*
X6248Y5467D01*
X6247Y5467D01*
X6247Y5467D01*
X6247Y5467D01*
X6247Y5467D01*
X6246Y5467D01*
X6246Y5468D01*
X6246Y5468D01*
X6246Y5468D01*
X6246Y5468D01*
X6246Y5468D01*
X6246Y5468D01*
X6246Y5468D01*
X6246Y5468D01*
X6246Y5468D01*
X6245Y5469D01*
X6245Y5469D01*
X6245Y5469D01*
X6245Y5470D01*
X6245Y5470D01*
X6245Y5470D01*
X6245Y5471D01*
X6245Y5471D01*
X6245Y5471D01*
X6245Y5471D01*
Y5471D01*
Y5471D01*
Y5471D01*
X6245Y5472D01*
X6245Y5472D01*
X6245Y5473D01*
X6245Y5473D01*
X6245Y5473D01*
X6245Y5474D01*
X6246Y5474D01*
X6246Y5475D01*
X6246Y5475D01*
X6246Y5475D01*
X6246Y5475D01*
X6247Y5475D01*
X6247Y5476D01*
X6247Y5476D01*
X6247Y5476D01*
X6247Y5476D01*
X6247Y5476D01*
X6248Y5476D01*
X6248Y5477D01*
X6248Y5477D01*
X6249Y5477D01*
X6249Y5477D01*
X6250Y5477D01*
X6250Y5478D01*
X6251Y5478D01*
X6251Y5478D01*
X6251Y5478D01*
X6252Y5478D01*
X6252Y5478D01*
X6252Y5478D01*
X6252D01*
X6253Y5478D01*
D02*
G37*
G36*
X1909Y2549D02*
X1910Y2549D01*
X1911Y2549D01*
X1911Y2549D01*
X1912Y2549D01*
X1912Y2548D01*
X1913Y2548D01*
X1913Y2548D01*
X1914Y2548D01*
X1914Y2548D01*
X1914Y2547D01*
X1915Y2547D01*
X1915Y2547D01*
X1915Y2547D01*
X1915Y2547D01*
X1915Y2547D01*
X1916Y2546D01*
X1916Y2546D01*
X1917Y2545D01*
X1917Y2545D01*
X1917Y2544D01*
X1918Y2544D01*
X1918Y2543D01*
X1918Y2543D01*
X1918Y2542D01*
X1919Y2542D01*
X1919Y2542D01*
X1919Y2541D01*
X1919Y2541D01*
X1919Y2541D01*
X1919Y2541D01*
X1919Y2541D01*
X1919Y2541D01*
X1919Y2541D01*
Y2541D01*
X1916Y2540D01*
X1916Y2540D01*
X1915Y2541D01*
X1915Y2541D01*
X1915Y2542D01*
X1915Y2542D01*
X1915Y2543D01*
X1914Y2543D01*
X1914Y2543D01*
X1914Y2544D01*
X1914Y2544D01*
X1914Y2544D01*
X1913Y2544D01*
X1913Y2544D01*
X1913Y2544D01*
X1913Y2545D01*
X1913Y2545D01*
X1913Y2545D01*
X1912Y2545D01*
X1912Y2545D01*
X1911Y2545D01*
X1911Y2546D01*
X1911Y2546D01*
X1910Y2546D01*
X1910Y2546D01*
X1910Y2546D01*
X1909Y2546D01*
X1909Y2546D01*
X1909Y2546D01*
X1909D01*
X1908Y2546D01*
X1908D01*
X1908Y2546D01*
X1907Y2546D01*
X1907Y2546D01*
X1907Y2546D01*
X1906Y2546D01*
X1906Y2546D01*
X1906Y2546D01*
X1905Y2546D01*
X1905Y2545D01*
X1905Y2545D01*
X1905Y2545D01*
X1904Y2545D01*
X1904Y2545D01*
X1904Y2545D01*
X1904Y2545D01*
X1904Y2545D01*
X1904Y2545D01*
X1903Y2544D01*
X1903Y2544D01*
X1903Y2544D01*
X1902Y2544D01*
X1902Y2543D01*
X1902Y2543D01*
X1902Y2543D01*
X1902Y2542D01*
X1902Y2542D01*
X1901Y2542D01*
X1901Y2542D01*
X1901Y2542D01*
X1901Y2542D01*
X1901Y2541D01*
X1901Y2541D01*
X1901Y2541D01*
X1901Y2540D01*
X1901Y2540D01*
X1901Y2540D01*
X1900Y2539D01*
X1900Y2538D01*
X1900Y2538D01*
X1900Y2537D01*
X1900Y2537D01*
X1900Y2537D01*
X1900Y2536D01*
X1900Y2536D01*
Y2536D01*
Y2536D01*
Y2536D01*
X1900Y2535D01*
X1900Y2535D01*
X1900Y2534D01*
X1900Y2534D01*
X1900Y2533D01*
X1901Y2533D01*
X1901Y2532D01*
X1901Y2532D01*
X1901Y2532D01*
X1901Y2532D01*
X1901Y2531D01*
X1901Y2531D01*
X1901Y2531D01*
X1901Y2531D01*
Y2531D01*
X1901Y2531D01*
X1901Y2530D01*
X1902Y2530D01*
X1902Y2529D01*
X1902Y2529D01*
X1902Y2529D01*
X1902Y2528D01*
X1903Y2528D01*
X1903Y2528D01*
X1903Y2528D01*
X1903Y2528D01*
X1903Y2527D01*
X1904Y2527D01*
X1904Y2527D01*
X1904Y2527D01*
X1904Y2527D01*
X1904Y2527D01*
X1904Y2527D01*
X1905Y2527D01*
X1905Y2526D01*
X1906Y2526D01*
X1906Y2526D01*
X1906Y2526D01*
X1907Y2526D01*
X1907Y2526D01*
X1908Y2526D01*
X1908Y2526D01*
X1908Y2526D01*
X1908Y2526D01*
X1909D01*
X1909Y2526D01*
X1909Y2526D01*
X1910Y2526D01*
X1910Y2526D01*
X1911Y2526D01*
X1911Y2526D01*
X1911Y2526D01*
X1912Y2526D01*
X1912Y2527D01*
X1912Y2527D01*
X1912Y2527D01*
X1912Y2527D01*
X1913Y2527D01*
X1913Y2527D01*
X1913Y2527D01*
X1913Y2527D01*
X1913Y2527D01*
X1913Y2528D01*
X1914Y2528D01*
X1914Y2528D01*
X1914Y2529D01*
X1914Y2529D01*
X1914Y2529D01*
X1915Y2530D01*
X1915Y2530D01*
X1915Y2530D01*
X1915Y2530D01*
X1915Y2531D01*
X1915Y2531D01*
X1915Y2531D01*
X1915Y2531D01*
X1915Y2531D01*
X1919Y2530D01*
X1918Y2530D01*
X1918Y2529D01*
X1918Y2529D01*
X1918Y2528D01*
X1917Y2528D01*
X1917Y2527D01*
X1917Y2527D01*
X1916Y2526D01*
X1916Y2526D01*
X1916Y2526D01*
X1916Y2525D01*
X1915Y2525D01*
X1915Y2525D01*
X1915Y2525D01*
X1915Y2525D01*
X1915Y2525D01*
X1914Y2525D01*
X1914Y2524D01*
X1913Y2524D01*
X1913Y2524D01*
X1912Y2524D01*
X1912Y2523D01*
X1911Y2523D01*
X1911Y2523D01*
X1910Y2523D01*
X1910Y2523D01*
X1910Y2523D01*
X1909Y2523D01*
X1909Y2523D01*
X1909Y2523D01*
X1909D01*
X1908Y2523D01*
X1907Y2523D01*
X1907Y2523D01*
X1906Y2523D01*
X1906Y2523D01*
X1905Y2523D01*
X1905Y2524D01*
X1904Y2524D01*
X1904Y2524D01*
X1904Y2524D01*
X1903Y2524D01*
X1903Y2524D01*
X1903Y2524D01*
X1903Y2524D01*
X1903Y2524D01*
X1903Y2524D01*
X1902Y2525D01*
X1902Y2525D01*
X1901Y2525D01*
X1901Y2526D01*
X1900Y2526D01*
X1900Y2527D01*
X1900Y2527D01*
X1899Y2527D01*
X1899Y2528D01*
X1899Y2528D01*
X1899Y2528D01*
X1898Y2528D01*
X1898Y2529D01*
X1898Y2529D01*
X1898Y2529D01*
X1898Y2529D01*
X1898Y2530D01*
X1898Y2530D01*
X1898Y2531D01*
X1897Y2531D01*
X1897Y2532D01*
X1897Y2532D01*
X1897Y2533D01*
X1897Y2533D01*
X1897Y2534D01*
X1897Y2534D01*
X1897Y2535D01*
X1897Y2535D01*
Y2535D01*
X1897Y2536D01*
Y2536D01*
Y2536D01*
Y2536D01*
Y2536D01*
Y2536D01*
X1897Y2536D01*
X1897Y2537D01*
X1897Y2538D01*
X1897Y2538D01*
X1897Y2539D01*
X1897Y2540D01*
X1897Y2540D01*
X1897Y2541D01*
X1898Y2541D01*
X1898Y2541D01*
X1898Y2542D01*
X1898Y2542D01*
X1898Y2542D01*
X1898Y2542D01*
X1898Y2543D01*
X1898Y2543D01*
Y2543D01*
X1898Y2543D01*
X1899Y2544D01*
X1899Y2544D01*
X1899Y2545D01*
X1900Y2545D01*
X1900Y2545D01*
X1900Y2546D01*
X1901Y2546D01*
X1901Y2546D01*
X1901Y2547D01*
X1901Y2547D01*
X1902Y2547D01*
X1902Y2547D01*
X1902Y2547D01*
X1902Y2547D01*
X1902Y2547D01*
X1902Y2548D01*
X1903Y2548D01*
X1904Y2548D01*
X1904Y2548D01*
X1905Y2548D01*
X1905Y2549D01*
X1906Y2549D01*
X1906Y2549D01*
X1907Y2549D01*
X1907Y2549D01*
X1908Y2549D01*
X1908Y2549D01*
X1908D01*
X1908Y2549D01*
X1909D01*
X1909Y2549D01*
D02*
G37*
G36*
X1931D02*
X1931Y2549D01*
X1932Y2549D01*
X1933Y2549D01*
X1933Y2548D01*
X1934Y2548D01*
X1934Y2548D01*
X1935Y2548D01*
X1935Y2548D01*
X1935Y2548D01*
X1935Y2547D01*
X1936Y2547D01*
X1936Y2547D01*
X1936Y2547D01*
X1936Y2547D01*
X1936Y2547D01*
X1937Y2546D01*
X1937Y2546D01*
X1937Y2546D01*
X1937Y2545D01*
X1938Y2545D01*
X1938Y2544D01*
X1938Y2544D01*
X1938Y2543D01*
X1938Y2543D01*
X1938Y2543D01*
X1938Y2542D01*
X1938Y2542D01*
X1938Y2542D01*
X1938Y2542D01*
Y2541D01*
Y2541D01*
X1938Y2541D01*
X1938Y2541D01*
X1938Y2540D01*
X1938Y2540D01*
X1938Y2539D01*
X1938Y2539D01*
X1938Y2539D01*
X1938Y2539D01*
X1938Y2538D01*
X1938Y2538D01*
X1937Y2538D01*
X1937Y2538D01*
X1937Y2538D01*
X1937Y2537D01*
X1937Y2537D01*
X1937Y2537D01*
X1937Y2537D01*
X1937Y2537D01*
X1936Y2537D01*
X1936Y2536D01*
X1936Y2536D01*
X1936Y2536D01*
X1935Y2536D01*
X1935Y2536D01*
X1935Y2535D01*
X1934Y2535D01*
X1934Y2535D01*
X1934Y2535D01*
X1934Y2535D01*
X1934Y2535D01*
X1934Y2535D01*
X1934D01*
X1934Y2535D01*
X1934Y2535D01*
X1935Y2534D01*
X1935Y2534D01*
X1935Y2534D01*
X1935Y2534D01*
X1936Y2534D01*
X1936Y2534D01*
X1936Y2534D01*
X1936Y2533D01*
X1936Y2533D01*
X1936Y2533D01*
X1936Y2533D01*
X1936Y2533D01*
X1936Y2533D01*
X1936Y2533D01*
X1937Y2533D01*
X1937Y2532D01*
X1937Y2532D01*
X1937Y2532D01*
X1937Y2531D01*
X1937Y2531D01*
X1937Y2531D01*
X1937Y2531D01*
X1937Y2530D01*
X1937Y2530D01*
X1937Y2530D01*
Y2530D01*
Y2530D01*
Y2530D01*
X1937Y2529D01*
X1937Y2529D01*
X1937Y2528D01*
X1937Y2528D01*
X1937Y2528D01*
X1937Y2527D01*
X1937Y2527D01*
X1936Y2527D01*
X1936Y2526D01*
X1936Y2526D01*
X1936Y2526D01*
X1936Y2526D01*
X1936Y2525D01*
X1935Y2525D01*
X1935Y2525D01*
X1935Y2525D01*
X1935Y2525D01*
X1935Y2525D01*
X1934Y2524D01*
X1934Y2524D01*
X1933Y2524D01*
X1933Y2524D01*
X1932Y2524D01*
X1932Y2524D01*
X1932Y2523D01*
X1931Y2523D01*
X1931Y2523D01*
X1931Y2523D01*
X1930Y2523D01*
X1930Y2523D01*
X1930D01*
X1929Y2523D01*
X1929Y2523D01*
X1928Y2523D01*
X1928Y2524D01*
X1927Y2524D01*
X1927Y2524D01*
X1927Y2524D01*
X1926Y2524D01*
X1926Y2524D01*
X1926Y2525D01*
X1925Y2525D01*
X1925Y2525D01*
X1925Y2525D01*
X1925Y2525D01*
X1925Y2525D01*
X1925Y2525D01*
X1924Y2526D01*
X1924Y2526D01*
X1924Y2526D01*
X1924Y2527D01*
X1923Y2527D01*
X1923Y2527D01*
X1923Y2528D01*
X1923Y2528D01*
X1923Y2529D01*
X1923Y2529D01*
X1923Y2529D01*
X1923Y2529D01*
X1923Y2530D01*
X1923Y2530D01*
Y2530D01*
Y2530D01*
X1923Y2530D01*
X1923Y2530D01*
X1923Y2531D01*
X1923Y2531D01*
X1923Y2532D01*
X1923Y2532D01*
X1923Y2532D01*
X1923Y2532D01*
X1923Y2532D01*
X1924Y2533D01*
X1924Y2533D01*
X1924Y2533D01*
X1924Y2533D01*
X1924Y2533D01*
X1924Y2533D01*
X1924Y2533D01*
X1924Y2533D01*
X1925Y2534D01*
X1925Y2534D01*
X1926Y2534D01*
X1926Y2535D01*
X1926Y2535D01*
X1926Y2535D01*
X1926Y2535D01*
X1926Y2535D01*
X1927Y2535D01*
X1927Y2535D01*
X1927D01*
X1926Y2535D01*
X1926Y2535D01*
X1925Y2535D01*
X1925Y2536D01*
X1925Y2536D01*
X1924Y2536D01*
X1924Y2536D01*
X1924Y2536D01*
X1924Y2536D01*
X1924Y2537D01*
X1923Y2537D01*
X1923Y2537D01*
X1923Y2537D01*
X1923Y2537D01*
X1923Y2537D01*
X1923Y2537D01*
X1923Y2538D01*
X1923Y2538D01*
X1922Y2538D01*
X1922Y2539D01*
X1922Y2539D01*
X1922Y2539D01*
X1922Y2540D01*
X1922Y2540D01*
X1922Y2540D01*
X1922Y2540D01*
X1922Y2541D01*
X1922Y2541D01*
X1922Y2541D01*
Y2541D01*
Y2541D01*
Y2541D01*
X1922Y2542D01*
X1922Y2542D01*
X1922Y2543D01*
X1922Y2544D01*
X1922Y2544D01*
X1923Y2544D01*
X1923Y2545D01*
X1923Y2545D01*
X1923Y2546D01*
X1923Y2546D01*
X1924Y2546D01*
X1924Y2546D01*
X1924Y2547D01*
X1924Y2547D01*
X1924Y2547D01*
X1924Y2547D01*
X1925Y2547D01*
X1925Y2548D01*
X1925Y2548D01*
X1926Y2548D01*
X1927Y2548D01*
X1927Y2548D01*
X1927Y2549D01*
X1928Y2549D01*
X1928Y2549D01*
X1929Y2549D01*
X1929Y2549D01*
X1929Y2549D01*
X1930Y2549D01*
X1930Y2549D01*
X1930D01*
X1931Y2549D01*
D02*
G37*
G36*
X9736Y3380D02*
X9736Y3380D01*
X9736Y3380D01*
X9737Y3380D01*
X9737Y3380D01*
X9738Y3380D01*
X9738Y3380D01*
X9738Y3380D01*
X9738Y3379D01*
X9739Y3379D01*
X9739Y3379D01*
X9739Y3379D01*
X9739Y3379D01*
X9739Y3379D01*
X9739Y3379D01*
X9739Y3379D01*
X9740Y3379D01*
X9740Y3378D01*
X9740Y3378D01*
X9740Y3378D01*
X9741Y3378D01*
X9741Y3377D01*
X9741Y3377D01*
X9741Y3377D01*
X9741Y3377D01*
X9741Y3376D01*
X9741Y3376D01*
X9742Y3376D01*
X9742Y3376D01*
X9742Y3376D01*
X9742Y3375D01*
Y3375D01*
X9742Y3376D01*
X9742Y3376D01*
X9742Y3376D01*
X9742Y3377D01*
X9742Y3377D01*
X9743Y3377D01*
X9743Y3377D01*
X9743Y3378D01*
X9743Y3378D01*
X9743Y3378D01*
X9743Y3378D01*
X9743Y3378D01*
X9744Y3378D01*
X9744Y3378D01*
X9744Y3378D01*
X9744Y3378D01*
X9744Y3378D01*
X9744Y3379D01*
X9744Y3379D01*
X9745Y3379D01*
X9745Y3379D01*
X9746Y3379D01*
X9746Y3379D01*
X9746Y3379D01*
X9746Y3379D01*
X9746Y3379D01*
X9747Y3379D01*
X9747D01*
X9747D01*
X9747D01*
X9747Y3379D01*
X9748Y3379D01*
X9748Y3379D01*
X9749Y3379D01*
X9749Y3379D01*
X9749Y3379D01*
X9750Y3378D01*
X9750Y3378D01*
X9750Y3378D01*
X9751Y3378D01*
X9751Y3378D01*
X9751Y3377D01*
X9751Y3377D01*
X9751Y3377D01*
X9751Y3377D01*
X9751Y3377D01*
X9752Y3377D01*
X9752Y3376D01*
X9752Y3376D01*
X9753Y3375D01*
X9753Y3375D01*
X9753Y3375D01*
X9753Y3374D01*
X9753Y3374D01*
X9753Y3373D01*
X9753Y3373D01*
X9753Y3373D01*
X9753Y3372D01*
X9753Y3372D01*
X9753Y3372D01*
Y3372D01*
X9753Y3371D01*
X9753Y3371D01*
X9753Y3370D01*
X9753Y3370D01*
X9753Y3369D01*
X9753Y3369D01*
X9753Y3368D01*
X9752Y3368D01*
X9752Y3368D01*
X9752Y3367D01*
X9752Y3367D01*
X9752Y3367D01*
X9752Y3367D01*
X9752Y3367D01*
X9751Y3367D01*
X9751Y3367D01*
X9751Y3366D01*
X9751Y3366D01*
X9750Y3366D01*
X9750Y3365D01*
X9750Y3365D01*
X9749Y3365D01*
X9749Y3365D01*
X9748Y3365D01*
X9748Y3365D01*
X9748Y3365D01*
X9748Y3365D01*
X9747Y3365D01*
X9747Y3365D01*
X9747Y3365D01*
X9747D01*
X9747D01*
X9746Y3365D01*
X9746Y3365D01*
X9746Y3365D01*
X9745Y3365D01*
X9745Y3365D01*
X9745Y3365D01*
X9745Y3365D01*
X9744Y3365D01*
X9744Y3365D01*
X9744Y3365D01*
X9744Y3365D01*
X9744Y3365D01*
X9744Y3366D01*
X9744Y3366D01*
X9744Y3366D01*
X9743Y3366D01*
X9743Y3366D01*
X9743Y3366D01*
X9742Y3367D01*
X9742Y3367D01*
X9742Y3368D01*
X9742Y3368D01*
X9742Y3368D01*
X9742Y3368D01*
X9742Y3368D01*
X9742Y3368D01*
X9742Y3368D01*
Y3368D01*
X9742Y3368D01*
X9741Y3368D01*
X9741Y3367D01*
X9741Y3367D01*
X9741Y3367D01*
X9741Y3366D01*
X9741Y3366D01*
X9740Y3366D01*
X9740Y3366D01*
X9740Y3365D01*
X9740Y3365D01*
X9740Y3365D01*
X9740Y3365D01*
X9740Y3365D01*
X9739Y3365D01*
X9739Y3365D01*
X9739Y3365D01*
X9739Y3364D01*
X9738Y3364D01*
X9738Y3364D01*
X9738Y3364D01*
X9737Y3364D01*
X9737Y3364D01*
X9737Y3364D01*
X9736Y3364D01*
X9736Y3364D01*
X9736Y3364D01*
X9736Y3364D01*
X9736Y3364D01*
X9735D01*
X9735D01*
X9735D01*
X9735Y3364D01*
X9734Y3364D01*
X9734Y3364D01*
X9733Y3364D01*
X9733Y3364D01*
X9732Y3364D01*
X9732Y3365D01*
X9731Y3365D01*
X9731Y3365D01*
X9731Y3365D01*
X9730Y3365D01*
X9730Y3366D01*
X9730Y3366D01*
X9730Y3366D01*
X9730Y3366D01*
X9730Y3366D01*
X9729Y3366D01*
X9729Y3367D01*
X9729Y3367D01*
X9729Y3368D01*
X9728Y3368D01*
X9728Y3369D01*
X9728Y3369D01*
X9728Y3370D01*
X9728Y3370D01*
X9728Y3371D01*
X9728Y3371D01*
X9728Y3371D01*
X9728Y3372D01*
X9728Y3372D01*
Y3372D01*
X9728Y3373D01*
X9728Y3373D01*
X9728Y3374D01*
X9728Y3374D01*
X9728Y3375D01*
X9728Y3375D01*
X9729Y3376D01*
X9729Y3376D01*
X9729Y3377D01*
X9729Y3377D01*
X9729Y3377D01*
X9729Y3378D01*
X9730Y3378D01*
X9730Y3378D01*
X9730Y3378D01*
X9730Y3378D01*
X9730Y3378D01*
X9731Y3379D01*
X9731Y3379D01*
X9732Y3379D01*
X9732Y3379D01*
X9732Y3380D01*
X9733Y3380D01*
X9733Y3380D01*
X9734Y3380D01*
X9734Y3380D01*
X9734Y3380D01*
X9735Y3380D01*
X9735Y3380D01*
X9735Y3380D01*
X9735D01*
X9735D01*
X9736Y3380D01*
D02*
G37*
G36*
X9736Y3361D02*
X9736Y3361D01*
X9737Y3360D01*
X9737Y3360D01*
X9737Y3360D01*
X9738Y3360D01*
X9738Y3360D01*
X9738Y3360D01*
X9739Y3360D01*
X9739Y3360D01*
X9739Y3360D01*
X9739Y3360D01*
X9739Y3359D01*
X9739Y3359D01*
X9740Y3359D01*
X9740Y3359D01*
X9740Y3359D01*
X9740Y3359D01*
X9740Y3359D01*
X9741Y3358D01*
X9741Y3358D01*
X9741Y3358D01*
X9741Y3357D01*
X9741Y3357D01*
X9741Y3357D01*
X9741Y3357D01*
X9742Y3356D01*
X9742Y3356D01*
X9742Y3356D01*
X9742Y3356D01*
X9742Y3356D01*
Y3356D01*
X9742Y3356D01*
X9742Y3356D01*
X9742Y3357D01*
X9742Y3357D01*
X9743Y3357D01*
X9743Y3357D01*
X9743Y3358D01*
X9743Y3358D01*
X9743Y3358D01*
X9743Y3358D01*
X9743Y3358D01*
X9744Y3358D01*
X9744Y3358D01*
X9744Y3358D01*
X9744Y3358D01*
X9744Y3358D01*
X9744Y3359D01*
X9744Y3359D01*
X9745Y3359D01*
X9745Y3359D01*
X9745Y3359D01*
X9746Y3359D01*
X9746Y3359D01*
X9746Y3359D01*
X9746Y3359D01*
X9746D01*
X9747Y3359D01*
X9747D01*
X9747D01*
X9747D01*
X9747Y3359D01*
X9747Y3359D01*
X9748Y3359D01*
X9749Y3359D01*
X9749Y3359D01*
X9749Y3359D01*
X9749Y3359D01*
X9749Y3359D01*
X9750Y3359D01*
X9750Y3359D01*
X9750Y3359D01*
X9750Y3358D01*
X9750Y3358D01*
X9750Y3358D01*
X9750Y3358D01*
X9751Y3358D01*
X9751Y3358D01*
X9751Y3357D01*
X9752Y3357D01*
X9752Y3357D01*
X9752Y3356D01*
X9752Y3356D01*
X9752Y3356D01*
X9752Y3356D01*
X9752Y3356D01*
X9752Y3356D01*
X9752Y3356D01*
X9753Y3355D01*
X9753Y3355D01*
X9753Y3355D01*
X9753Y3354D01*
X9753Y3354D01*
X9753Y3354D01*
X9753Y3353D01*
X9753Y3353D01*
X9753Y3353D01*
X9753Y3353D01*
Y3352D01*
X9753Y3352D01*
Y3352D01*
X9753Y3351D01*
X9753Y3351D01*
X9753Y3350D01*
X9753Y3350D01*
X9753Y3350D01*
X9753Y3349D01*
X9753Y3349D01*
X9752Y3348D01*
X9752Y3348D01*
X9752Y3348D01*
X9752Y3348D01*
X9752Y3347D01*
X9752Y3347D01*
X9752Y3347D01*
X9752Y3347D01*
X9752Y3347D01*
X9751Y3347D01*
X9751Y3346D01*
X9751Y3346D01*
X9750Y3346D01*
X9750Y3346D01*
X9749Y3345D01*
X9749Y3345D01*
X9749Y3345D01*
X9748Y3345D01*
X9748Y3345D01*
X9748Y3345D01*
X9747Y3345D01*
X9747Y3344D01*
X9747Y3344D01*
X9747Y3344D01*
X9747D01*
X9747D01*
X9746Y3348D01*
X9747Y3348D01*
X9747Y3348D01*
X9747Y3348D01*
X9748Y3348D01*
X9748Y3348D01*
X9748Y3348D01*
X9749Y3348D01*
X9749Y3348D01*
X9749Y3349D01*
X9749Y3349D01*
X9749Y3349D01*
X9749Y3349D01*
X9750Y3349D01*
X9750Y3349D01*
X9750Y3349D01*
X9750Y3349D01*
X9750Y3349D01*
X9750Y3350D01*
X9750Y3350D01*
X9750Y3350D01*
X9750Y3350D01*
X9751Y3351D01*
X9751Y3351D01*
X9751Y3351D01*
X9751Y3351D01*
X9751Y3352D01*
X9751Y3352D01*
X9751Y3352D01*
Y3352D01*
X9751Y3352D01*
X9751Y3353D01*
X9751Y3353D01*
X9751Y3353D01*
X9751Y3354D01*
X9750Y3354D01*
X9750Y3354D01*
X9750Y3354D01*
X9750Y3354D01*
X9750Y3355D01*
X9750Y3355D01*
X9750Y3355D01*
X9750Y3355D01*
X9750Y3355D01*
X9750Y3355D01*
X9750Y3355D01*
X9749Y3355D01*
X9749Y3355D01*
X9749Y3356D01*
X9749Y3356D01*
X9749Y3356D01*
X9748Y3356D01*
X9748Y3356D01*
X9748Y3356D01*
X9747Y3356D01*
X9747Y3356D01*
X9747Y3356D01*
X9747Y3356D01*
X9747D01*
X9747D01*
X9747D01*
X9746Y3356D01*
X9746Y3356D01*
X9746Y3356D01*
X9745Y3356D01*
X9745Y3356D01*
X9745Y3356D01*
X9745Y3356D01*
X9744Y3355D01*
X9744Y3355D01*
X9744Y3355D01*
X9744Y3355D01*
X9744Y3355D01*
X9744Y3355D01*
X9744Y3355D01*
X9744Y3355D01*
X9744Y3355D01*
X9743Y3354D01*
X9743Y3354D01*
X9743Y3354D01*
X9743Y3353D01*
X9743Y3353D01*
X9743Y3353D01*
X9743Y3352D01*
X9743Y3352D01*
X9743Y3352D01*
X9743Y3352D01*
X9743Y3351D01*
X9743Y3351D01*
Y3351D01*
X9743Y3351D01*
Y3351D01*
X9743Y3351D01*
Y3351D01*
X9740Y3350D01*
X9740Y3351D01*
X9740Y3351D01*
X9740Y3351D01*
X9740Y3352D01*
X9740Y3352D01*
X9740Y3352D01*
Y3352D01*
X9740Y3353D01*
X9740Y3353D01*
X9740Y3354D01*
X9740Y3354D01*
X9740Y3354D01*
X9740Y3354D01*
X9740Y3355D01*
X9740Y3355D01*
X9739Y3355D01*
X9739Y3355D01*
X9739Y3356D01*
X9739Y3356D01*
X9739Y3356D01*
X9739Y3356D01*
X9739Y3356D01*
X9739Y3356D01*
X9739Y3356D01*
X9738Y3356D01*
X9738Y3357D01*
X9738Y3357D01*
X9737Y3357D01*
X9737Y3357D01*
X9737Y3357D01*
X9737Y3357D01*
X9736Y3357D01*
X9736Y3357D01*
X9736Y3357D01*
X9736Y3357D01*
X9736Y3357D01*
X9735D01*
X9735D01*
X9735D01*
X9735Y3357D01*
X9735Y3357D01*
X9734Y3357D01*
X9734Y3357D01*
X9734Y3357D01*
X9733Y3357D01*
X9733Y3357D01*
X9733Y3357D01*
X9732Y3356D01*
X9732Y3356D01*
X9732Y3356D01*
X9732Y3356D01*
X9732Y3356D01*
X9732Y3356D01*
X9732Y3356D01*
X9732Y3356D01*
X9731Y3356D01*
X9731Y3355D01*
X9731Y3355D01*
X9731Y3355D01*
X9731Y3354D01*
X9731Y3354D01*
X9730Y3354D01*
X9730Y3353D01*
X9730Y3353D01*
X9730Y3353D01*
X9730Y3353D01*
X9730Y3352D01*
Y3352D01*
X9730Y3352D01*
Y3352D01*
X9730Y3352D01*
X9730Y3351D01*
X9730Y3351D01*
X9730Y3351D01*
X9730Y3351D01*
X9731Y3350D01*
X9731Y3350D01*
X9731Y3350D01*
X9731Y3350D01*
X9731Y3350D01*
X9731Y3349D01*
X9731Y3349D01*
X9731Y3349D01*
X9731Y3349D01*
X9731Y3349D01*
X9731Y3349D01*
X9732Y3349D01*
X9732Y3349D01*
X9732Y3348D01*
X9732Y3348D01*
X9733Y3348D01*
X9734Y3348D01*
X9734Y3348D01*
X9734Y3347D01*
X9734Y3347D01*
X9735Y3347D01*
X9735Y3347D01*
X9735Y3347D01*
X9735Y3347D01*
X9735D01*
X9735Y3344D01*
X9734Y3344D01*
X9734Y3344D01*
X9733Y3344D01*
X9733Y3345D01*
X9732Y3345D01*
X9732Y3345D01*
X9731Y3345D01*
X9731Y3345D01*
X9731Y3346D01*
X9730Y3346D01*
X9730Y3346D01*
X9730Y3346D01*
X9730Y3346D01*
X9730Y3346D01*
X9730Y3347D01*
X9730Y3347D01*
X9729Y3347D01*
X9729Y3347D01*
X9729Y3348D01*
X9728Y3348D01*
X9728Y3349D01*
X9728Y3349D01*
X9728Y3350D01*
X9728Y3350D01*
X9728Y3351D01*
X9728Y3351D01*
X9728Y3351D01*
X9728Y3352D01*
X9728Y3352D01*
X9728Y3352D01*
Y3352D01*
X9728Y3353D01*
X9728Y3353D01*
X9728Y3354D01*
X9728Y3355D01*
X9728Y3355D01*
X9728Y3356D01*
X9729Y3356D01*
X9729Y3357D01*
X9729Y3357D01*
X9729Y3357D01*
X9729Y3358D01*
X9730Y3358D01*
X9730Y3358D01*
X9730Y3358D01*
X9730Y3358D01*
X9730Y3358D01*
X9730Y3359D01*
X9731Y3359D01*
X9731Y3359D01*
X9732Y3360D01*
X9732Y3360D01*
X9733Y3360D01*
X9733Y3360D01*
X9734Y3360D01*
X9734Y3360D01*
X9734Y3360D01*
X9735Y3361D01*
X9735Y3361D01*
X9735Y3361D01*
X9735Y3361D01*
X9735D01*
X9735D01*
X9736Y3361D01*
D02*
G37*
G36*
X9753Y3336D02*
X9739D01*
X9738Y3336D01*
X9737Y3336D01*
X9736Y3336D01*
X9736Y3336D01*
X9735Y3336D01*
X9735Y3336D01*
X9734Y3336D01*
X9734Y3336D01*
X9733Y3336D01*
X9733Y3335D01*
X9733Y3335D01*
X9733Y3335D01*
X9732Y3335D01*
X9732Y3335D01*
X9732Y3335D01*
X9732Y3335D01*
X9732Y3335D01*
X9732Y3334D01*
X9732Y3334D01*
X9731Y3333D01*
X9731Y3333D01*
X9731Y3333D01*
X9731Y3332D01*
X9731Y3332D01*
X9731Y3331D01*
X9731Y3331D01*
X9731Y3331D01*
X9731Y3330D01*
Y3330D01*
X9731Y3330D01*
Y3330D01*
X9731Y3329D01*
X9731Y3329D01*
X9731Y3329D01*
X9731Y3328D01*
X9731Y3328D01*
X9731Y3328D01*
X9731Y3327D01*
X9731Y3327D01*
X9731Y3327D01*
X9731Y3327D01*
X9731Y3326D01*
X9731Y3326D01*
X9731Y3326D01*
X9731Y3326D01*
X9731Y3326D01*
Y3326D01*
X9732Y3326D01*
X9732Y3326D01*
X9732Y3325D01*
X9732Y3325D01*
X9732Y3325D01*
X9733Y3325D01*
X9733Y3324D01*
X9733Y3324D01*
X9733Y3324D01*
X9734Y3324D01*
X9734Y3324D01*
X9734Y3324D01*
X9734Y3324D01*
X9734D01*
X9734Y3324D01*
X9735Y3324D01*
X9735Y3324D01*
X9735Y3324D01*
X9736Y3323D01*
X9736Y3323D01*
X9737Y3323D01*
X9737Y3323D01*
X9738Y3323D01*
X9738Y3323D01*
X9738D01*
X9738Y3323D01*
X9739D01*
X9739D01*
X9739D01*
X9753D01*
Y3320D01*
X9739D01*
X9738Y3320D01*
X9737Y3320D01*
X9737Y3320D01*
X9736Y3320D01*
X9735Y3320D01*
X9735Y3320D01*
X9734Y3320D01*
X9734Y3320D01*
X9734Y3321D01*
X9733Y3321D01*
X9733Y3321D01*
X9733Y3321D01*
X9733Y3321D01*
X9732Y3321D01*
X9732Y3321D01*
X9732Y3321D01*
X9732Y3321D01*
X9732Y3321D01*
X9731Y3322D01*
X9731Y3322D01*
X9731Y3322D01*
X9730Y3322D01*
X9730Y3323D01*
X9730Y3323D01*
X9730Y3323D01*
X9729Y3323D01*
X9729Y3324D01*
X9729Y3324D01*
X9729Y3324D01*
X9729Y3324D01*
X9729Y3324D01*
X9729Y3324D01*
X9729Y3325D01*
X9728Y3325D01*
X9728Y3326D01*
X9728Y3326D01*
X9728Y3326D01*
X9728Y3327D01*
X9728Y3327D01*
X9728Y3328D01*
X9728Y3328D01*
X9728Y3329D01*
X9728Y3329D01*
X9728Y3329D01*
X9728Y3330D01*
Y3330D01*
X9728Y3331D01*
X9728Y3331D01*
X9728Y3332D01*
X9728Y3332D01*
X9728Y3333D01*
X9728Y3333D01*
X9728Y3334D01*
X9728Y3334D01*
X9728Y3335D01*
X9729Y3335D01*
X9729Y3335D01*
X9729Y3335D01*
X9729Y3336D01*
X9729Y3336D01*
X9729Y3336D01*
X9729Y3336D01*
X9729Y3336D01*
X9730Y3337D01*
X9730Y3337D01*
X9730Y3337D01*
X9730Y3338D01*
X9731Y3338D01*
X9731Y3338D01*
X9731Y3338D01*
X9732Y3338D01*
X9732Y3339D01*
X9732Y3339D01*
X9732Y3339D01*
X9732Y3339D01*
X9733Y3339D01*
X9733Y3339D01*
X9733Y3339D01*
X9733Y3339D01*
X9734Y3339D01*
X9734Y3339D01*
X9735Y3339D01*
X9736Y3340D01*
X9736Y3340D01*
X9737Y3340D01*
X9737Y3340D01*
X9737Y3340D01*
X9738Y3340D01*
X9738D01*
X9738Y3340D01*
X9738D01*
X9739D01*
X9739D01*
X9739D01*
X9739D01*
X9739D01*
X9753D01*
Y3336D01*
D02*
G37*
G36*
X9719Y3520D02*
X9719Y3520D01*
X9720Y3520D01*
X9720Y3520D01*
X9720Y3520D01*
X9721Y3520D01*
X9721Y3520D01*
X9722Y3519D01*
X9722Y3519D01*
X9722Y3519D01*
X9722Y3519D01*
X9723Y3519D01*
X9723Y3519D01*
X9723Y3519D01*
X9723Y3519D01*
X9723Y3519D01*
X9723Y3518D01*
X9724Y3518D01*
X9724Y3517D01*
X9724Y3517D01*
X9724Y3517D01*
X9725Y3516D01*
X9725Y3516D01*
X9725Y3516D01*
X9725Y3515D01*
X9725Y3515D01*
X9725Y3515D01*
X9725Y3514D01*
X9726Y3514D01*
X9726Y3514D01*
X9726Y3514D01*
Y3514D01*
Y3514D01*
X9722Y3513D01*
X9722Y3514D01*
X9722Y3514D01*
X9722Y3514D01*
X9722Y3515D01*
X9722Y3515D01*
X9722Y3515D01*
X9722Y3516D01*
X9722Y3516D01*
X9721Y3516D01*
X9721Y3516D01*
X9721Y3516D01*
X9721Y3516D01*
X9721Y3516D01*
X9721Y3517D01*
X9721Y3517D01*
X9721Y3517D01*
X9721Y3517D01*
X9720Y3517D01*
X9720Y3517D01*
X9720Y3517D01*
X9720Y3517D01*
X9719Y3517D01*
X9719Y3518D01*
X9719Y3518D01*
X9719Y3518D01*
X9718Y3518D01*
X9718Y3518D01*
X9718Y3518D01*
X9718D01*
X9718Y3518D01*
X9717Y3518D01*
X9717Y3518D01*
X9717Y3518D01*
X9716Y3517D01*
X9716Y3517D01*
X9716Y3517D01*
X9716Y3517D01*
X9716Y3517D01*
X9715Y3517D01*
X9715Y3517D01*
X9715Y3517D01*
X9715Y3517D01*
X9715Y3517D01*
X9715Y3517D01*
X9715Y3517D01*
X9715Y3516D01*
X9715Y3516D01*
X9714Y3516D01*
X9714Y3516D01*
X9714Y3515D01*
X9714Y3515D01*
X9714Y3515D01*
X9714Y3515D01*
X9714Y3514D01*
X9714Y3514D01*
X9714Y3514D01*
X9714Y3514D01*
Y3514D01*
Y3514D01*
Y3514D01*
X9714Y3513D01*
X9714Y3513D01*
X9714Y3513D01*
X9714Y3512D01*
X9714Y3512D01*
X9714Y3512D01*
X9714Y3512D01*
X9715Y3511D01*
X9715Y3511D01*
X9715Y3511D01*
X9715Y3511D01*
X9715Y3511D01*
X9715Y3511D01*
X9715Y3511D01*
X9715Y3511D01*
X9715Y3511D01*
X9716Y3510D01*
X9716Y3510D01*
X9716Y3510D01*
X9717Y3510D01*
X9717Y3510D01*
X9717Y3510D01*
X9718Y3510D01*
X9718Y3510D01*
X9718Y3510D01*
X9718Y3510D01*
X9719Y3510D01*
X9719Y3510D01*
X9719D01*
X9719Y3510D01*
X9719D01*
X9719Y3510D01*
X9719D01*
X9720Y3507D01*
X9719Y3507D01*
X9719Y3507D01*
X9719Y3507D01*
X9718Y3507D01*
X9718Y3507D01*
X9718Y3507D01*
X9718D01*
X9717Y3507D01*
X9717Y3507D01*
X9716Y3507D01*
X9716Y3507D01*
X9716Y3507D01*
X9716Y3507D01*
X9715Y3507D01*
X9715Y3507D01*
X9715Y3506D01*
X9715Y3506D01*
X9714Y3506D01*
X9714Y3506D01*
X9714Y3506D01*
X9714Y3506D01*
X9714Y3506D01*
X9714Y3506D01*
X9714Y3506D01*
X9714Y3505D01*
X9713Y3505D01*
X9713Y3505D01*
X9713Y3504D01*
X9713Y3504D01*
X9713Y3504D01*
X9713Y3504D01*
X9713Y3503D01*
X9713Y3503D01*
X9713Y3503D01*
X9713Y3503D01*
X9713Y3503D01*
Y3502D01*
Y3502D01*
Y3502D01*
X9713Y3502D01*
X9713Y3502D01*
X9713Y3501D01*
X9713Y3501D01*
X9713Y3500D01*
X9713Y3500D01*
X9713Y3500D01*
X9713Y3500D01*
X9714Y3499D01*
X9714Y3499D01*
X9714Y3499D01*
X9714Y3499D01*
X9714Y3499D01*
X9714Y3499D01*
X9714Y3499D01*
X9714Y3499D01*
X9714Y3498D01*
X9715Y3498D01*
X9715Y3498D01*
X9715Y3498D01*
X9716Y3498D01*
X9716Y3497D01*
X9716Y3497D01*
X9717Y3497D01*
X9717Y3497D01*
X9717Y3497D01*
X9717Y3497D01*
X9718Y3497D01*
X9718D01*
X9718Y3497D01*
X9718D01*
X9718Y3497D01*
X9719Y3497D01*
X9719Y3497D01*
X9719Y3497D01*
X9719Y3497D01*
X9720Y3497D01*
X9720Y3498D01*
X9720Y3498D01*
X9720Y3498D01*
X9720Y3498D01*
X9721Y3498D01*
X9721Y3498D01*
X9721Y3498D01*
X9721Y3498D01*
X9721Y3498D01*
X9721Y3498D01*
X9721Y3498D01*
X9721Y3499D01*
X9722Y3499D01*
X9722Y3499D01*
X9722Y3500D01*
X9722Y3501D01*
X9722Y3501D01*
X9723Y3501D01*
X9723Y3501D01*
X9723Y3502D01*
X9723Y3502D01*
X9723Y3502D01*
X9723Y3502D01*
Y3502D01*
X9726Y3502D01*
X9726Y3501D01*
X9726Y3501D01*
X9726Y3500D01*
X9725Y3500D01*
X9725Y3499D01*
X9725Y3499D01*
X9725Y3498D01*
X9725Y3498D01*
X9724Y3498D01*
X9724Y3497D01*
X9724Y3497D01*
X9724Y3497D01*
X9724Y3497D01*
X9724Y3497D01*
X9723Y3497D01*
X9723Y3497D01*
X9723Y3496D01*
X9723Y3496D01*
X9722Y3496D01*
X9722Y3495D01*
X9721Y3495D01*
X9721Y3495D01*
X9720Y3495D01*
X9720Y3495D01*
X9719Y3495D01*
X9719Y3495D01*
X9719Y3495D01*
X9718Y3495D01*
X9718Y3495D01*
X9718Y3495D01*
X9718D01*
X9717Y3495D01*
X9717Y3495D01*
X9716Y3495D01*
X9715Y3495D01*
X9715Y3495D01*
X9714Y3495D01*
X9714Y3495D01*
X9713Y3496D01*
X9713Y3496D01*
X9713Y3496D01*
X9712Y3496D01*
X9712Y3496D01*
X9712Y3497D01*
X9712Y3497D01*
X9712Y3497D01*
X9712Y3497D01*
X9711Y3497D01*
X9711Y3498D01*
X9711Y3498D01*
X9710Y3499D01*
X9710Y3499D01*
X9710Y3500D01*
X9710Y3500D01*
X9710Y3500D01*
X9710Y3501D01*
X9710Y3501D01*
X9709Y3502D01*
X9709Y3502D01*
X9709Y3502D01*
X9709Y3502D01*
Y3502D01*
Y3502D01*
X9709Y3503D01*
X9709Y3503D01*
X9710Y3504D01*
X9710Y3504D01*
X9710Y3504D01*
X9710Y3505D01*
X9710Y3505D01*
X9710Y3505D01*
X9710Y3506D01*
X9710Y3506D01*
X9710Y3506D01*
X9710Y3506D01*
X9711Y3506D01*
X9711Y3506D01*
X9711Y3506D01*
X9711Y3506D01*
X9711Y3507D01*
X9711Y3507D01*
X9711Y3507D01*
X9712Y3508D01*
X9712Y3508D01*
X9712Y3508D01*
X9713Y3508D01*
X9713Y3508D01*
X9713Y3508D01*
X9713Y3508D01*
X9714Y3508D01*
X9714Y3509D01*
X9714Y3509D01*
X9714Y3509D01*
X9714Y3509D01*
X9714D01*
X9714Y3509D01*
X9714Y3509D01*
X9713Y3509D01*
X9713Y3509D01*
X9713Y3509D01*
X9713Y3510D01*
X9712Y3510D01*
X9712Y3510D01*
X9712Y3510D01*
X9712Y3510D01*
X9712Y3510D01*
X9712Y3511D01*
X9712Y3511D01*
X9712Y3511D01*
X9712Y3511D01*
X9712Y3511D01*
X9711Y3511D01*
X9711Y3511D01*
X9711Y3512D01*
X9711Y3512D01*
X9711Y3512D01*
X9711Y3513D01*
X9711Y3513D01*
X9711Y3513D01*
X9711Y3513D01*
Y3513D01*
X9711Y3514D01*
Y3514D01*
Y3514D01*
Y3514D01*
X9711Y3514D01*
X9711Y3514D01*
X9711Y3515D01*
X9711Y3516D01*
X9711Y3516D01*
X9711Y3516D01*
X9711Y3516D01*
X9711Y3516D01*
X9711Y3517D01*
X9711Y3517D01*
X9711Y3517D01*
X9712Y3517D01*
X9712Y3517D01*
X9712Y3517D01*
X9712Y3517D01*
X9712Y3518D01*
X9712Y3518D01*
X9713Y3518D01*
X9713Y3519D01*
X9713Y3519D01*
X9714Y3519D01*
X9714Y3519D01*
X9714Y3519D01*
X9714Y3519D01*
X9714Y3519D01*
X9714Y3519D01*
X9714Y3519D01*
X9715Y3520D01*
X9715Y3520D01*
X9715Y3520D01*
X9716Y3520D01*
X9716Y3520D01*
X9716Y3520D01*
X9717Y3520D01*
X9717Y3520D01*
X9717Y3520D01*
X9717Y3520D01*
X9718D01*
X9718Y3520D01*
X9718D01*
X9719Y3520D01*
D02*
G37*
G36*
X9699D02*
X9700Y3520D01*
X9700Y3520D01*
X9701Y3520D01*
X9701Y3520D01*
X9702Y3520D01*
X9702Y3519D01*
X9703Y3519D01*
X9703Y3519D01*
X9703Y3519D01*
X9703Y3518D01*
X9704Y3518D01*
X9704Y3518D01*
X9704Y3518D01*
X9704Y3518D01*
X9704Y3518D01*
X9704Y3517D01*
X9705Y3517D01*
X9705Y3516D01*
X9705Y3516D01*
X9706Y3515D01*
X9706Y3515D01*
X9706Y3514D01*
X9706Y3514D01*
X9706Y3514D01*
X9706Y3513D01*
X9706Y3513D01*
X9706Y3512D01*
X9706Y3512D01*
Y3512D01*
X9706Y3512D01*
Y3512D01*
Y3512D01*
Y3512D01*
Y3512D01*
X9706Y3511D01*
X9706Y3510D01*
X9706Y3510D01*
X9706Y3509D01*
X9706Y3509D01*
X9706Y3508D01*
X9705Y3508D01*
X9705Y3507D01*
X9705Y3507D01*
X9705Y3507D01*
X9705Y3506D01*
X9705Y3506D01*
X9704Y3506D01*
X9704Y3506D01*
X9704Y3506D01*
X9704Y3506D01*
X9704Y3505D01*
X9703Y3505D01*
X9703Y3505D01*
X9702Y3504D01*
X9702Y3504D01*
X9702Y3504D01*
X9701Y3504D01*
X9701Y3504D01*
X9700Y3504D01*
X9700Y3504D01*
X9700Y3504D01*
X9699Y3504D01*
X9699Y3504D01*
X9699Y3504D01*
X9699D01*
X9699Y3504D01*
X9698Y3504D01*
X9698Y3504D01*
X9697Y3504D01*
X9697Y3504D01*
X9696Y3504D01*
X9696Y3504D01*
X9696Y3504D01*
X9696Y3504D01*
X9696Y3504D01*
X9696Y3504D01*
X9695Y3504D01*
X9695Y3504D01*
X9695Y3504D01*
X9695Y3505D01*
X9694Y3505D01*
X9694Y3505D01*
X9694Y3506D01*
X9694Y3506D01*
X9694Y3506D01*
X9693Y3506D01*
X9693Y3506D01*
X9693Y3506D01*
X9693Y3507D01*
X9693Y3507D01*
X9693Y3507D01*
X9693Y3507D01*
X9693Y3507D01*
Y3507D01*
Y3507D01*
Y3506D01*
Y3506D01*
Y3506D01*
Y3506D01*
Y3506D01*
Y3506D01*
X9693Y3506D01*
X9693Y3505D01*
X9693Y3504D01*
X9693Y3504D01*
X9693Y3504D01*
X9693Y3503D01*
X9693Y3503D01*
X9693Y3503D01*
X9693Y3503D01*
X9693Y3503D01*
X9693Y3503D01*
X9693Y3502D01*
Y3502D01*
X9693Y3502D01*
X9694Y3502D01*
X9694Y3501D01*
X9694Y3501D01*
X9694Y3501D01*
X9694Y3501D01*
X9694Y3500D01*
X9694Y3500D01*
X9694Y3500D01*
X9694Y3500D01*
X9694Y3500D01*
X9694Y3500D01*
X9694Y3500D01*
X9694Y3500D01*
X9694Y3500D01*
Y3500D01*
X9695Y3499D01*
X9695Y3499D01*
X9695Y3498D01*
X9696Y3498D01*
X9696Y3498D01*
X9696Y3498D01*
X9696Y3498D01*
X9696Y3498D01*
X9696Y3498D01*
X9696D01*
X9697Y3498D01*
X9697Y3497D01*
X9698Y3497D01*
X9698Y3497D01*
X9698Y3497D01*
X9698Y3497D01*
X9699D01*
X9699Y3497D01*
X9699D01*
X9699Y3497D01*
X9699Y3497D01*
X9700Y3497D01*
X9700Y3497D01*
X9701Y3498D01*
X9701Y3498D01*
X9701Y3498D01*
X9701Y3498D01*
X9701Y3498D01*
X9701Y3498D01*
X9701Y3498D01*
X9701Y3498D01*
X9701Y3498D01*
X9701Y3498D01*
X9702Y3498D01*
X9702Y3498D01*
X9702Y3499D01*
X9702Y3499D01*
X9703Y3500D01*
X9703Y3500D01*
X9703Y3500D01*
X9703Y3501D01*
X9703Y3501D01*
X9703Y3501D01*
X9703Y3501D01*
X9703Y3501D01*
Y3501D01*
X9706Y3501D01*
X9706Y3500D01*
X9706Y3500D01*
X9706Y3499D01*
X9705Y3499D01*
X9705Y3498D01*
X9705Y3498D01*
X9705Y3498D01*
X9705Y3497D01*
X9704Y3497D01*
X9704Y3497D01*
X9704Y3497D01*
X9704Y3497D01*
X9704Y3496D01*
X9704Y3496D01*
X9704Y3496D01*
X9704Y3496D01*
X9703Y3496D01*
X9703Y3496D01*
X9702Y3495D01*
X9702Y3495D01*
X9702Y3495D01*
X9701Y3495D01*
X9701Y3495D01*
X9701Y3495D01*
X9700Y3495D01*
X9700Y3495D01*
X9700Y3495D01*
X9699Y3495D01*
X9699D01*
X9699Y3495D01*
X9699D01*
X9698Y3495D01*
X9698Y3495D01*
X9697Y3495D01*
X9697Y3495D01*
X9696Y3495D01*
X9696Y3495D01*
X9696Y3495D01*
X9695Y3495D01*
X9695Y3495D01*
X9695Y3496D01*
X9695Y3496D01*
X9694Y3496D01*
X9694Y3496D01*
X9694Y3496D01*
X9694Y3496D01*
X9694Y3496D01*
X9694Y3496D01*
X9693Y3497D01*
X9693Y3497D01*
X9693Y3497D01*
X9692Y3498D01*
X9692Y3498D01*
X9692Y3498D01*
X9692Y3499D01*
X9691Y3499D01*
X9691Y3499D01*
X9691Y3500D01*
X9691Y3500D01*
X9691Y3500D01*
X9691Y3500D01*
X9691Y3500D01*
X9691Y3500D01*
X9691Y3501D01*
X9690Y3502D01*
X9690Y3502D01*
X9690Y3503D01*
X9690Y3503D01*
X9690Y3504D01*
X9690Y3505D01*
X9690Y3505D01*
X9690Y3506D01*
X9690Y3506D01*
X9690Y3507D01*
X9690Y3507D01*
Y3507D01*
Y3507D01*
X9690Y3508D01*
Y3508D01*
Y3508D01*
Y3508D01*
Y3508D01*
Y3508D01*
Y3508D01*
X9690Y3509D01*
X9690Y3510D01*
X9690Y3510D01*
X9690Y3511D01*
X9690Y3512D01*
X9690Y3512D01*
X9690Y3513D01*
X9690Y3513D01*
X9690Y3514D01*
X9691Y3514D01*
X9691Y3514D01*
X9691Y3515D01*
X9691Y3515D01*
X9691Y3515D01*
X9691Y3515D01*
X9691Y3515D01*
X9691Y3516D01*
X9691Y3516D01*
X9692Y3516D01*
X9692Y3517D01*
X9692Y3517D01*
X9692Y3517D01*
X9693Y3518D01*
X9693Y3518D01*
X9693Y3518D01*
X9693Y3518D01*
X9693Y3519D01*
X9694Y3519D01*
X9694Y3519D01*
X9694Y3519D01*
X9694Y3519D01*
X9694Y3519D01*
X9694Y3519D01*
X9695Y3519D01*
X9695Y3520D01*
X9695Y3520D01*
X9696Y3520D01*
X9696Y3520D01*
X9697Y3520D01*
X9697Y3520D01*
X9697Y3520D01*
X9698Y3520D01*
X9698Y3520D01*
X9698Y3520D01*
X9698Y3520D01*
X9698D01*
X9699Y3520D01*
D02*
G37*
G36*
X9750Y3506D02*
X9750Y3505D01*
X9750Y3504D01*
X9750Y3504D01*
X9750Y3503D01*
X9750Y3502D01*
X9750Y3502D01*
X9750Y3501D01*
X9750Y3501D01*
X9749Y3501D01*
X9749Y3500D01*
X9749Y3500D01*
X9749Y3500D01*
X9749Y3500D01*
X9749Y3499D01*
X9749Y3499D01*
X9749Y3499D01*
X9749Y3499D01*
X9749Y3499D01*
X9748Y3498D01*
X9748Y3498D01*
X9748Y3497D01*
X9748Y3497D01*
X9747Y3497D01*
X9747Y3497D01*
X9747Y3496D01*
X9747Y3496D01*
X9746Y3496D01*
X9746Y3496D01*
X9746Y3496D01*
X9746Y3496D01*
X9746Y3496D01*
X9746Y3496D01*
X9745Y3496D01*
X9745Y3495D01*
X9744Y3495D01*
X9744Y3495D01*
X9744Y3495D01*
X9743Y3495D01*
X9743Y3495D01*
X9742Y3495D01*
X9742Y3495D01*
X9741Y3495D01*
X9741Y3495D01*
X9741Y3495D01*
X9740Y3495D01*
X9740D01*
X9739Y3495D01*
X9739Y3495D01*
X9738Y3495D01*
X9738Y3495D01*
X9737Y3495D01*
X9737Y3495D01*
X9736Y3495D01*
X9736Y3495D01*
X9735Y3495D01*
X9735Y3496D01*
X9735Y3496D01*
X9735Y3496D01*
X9734Y3496D01*
X9734Y3496D01*
X9734Y3496D01*
X9734Y3496D01*
X9734Y3496D01*
X9733Y3497D01*
X9733Y3497D01*
X9733Y3497D01*
X9732Y3497D01*
X9732Y3498D01*
X9732Y3498D01*
X9732Y3498D01*
X9732Y3499D01*
X9731Y3499D01*
X9731Y3499D01*
X9731Y3499D01*
X9731Y3499D01*
X9731Y3500D01*
X9731Y3500D01*
X9731Y3500D01*
X9731Y3500D01*
X9731Y3501D01*
X9731Y3501D01*
X9731Y3501D01*
X9730Y3502D01*
X9730Y3503D01*
X9730Y3503D01*
X9730Y3504D01*
X9730Y3504D01*
X9730Y3505D01*
Y3505D01*
X9730Y3505D01*
Y3505D01*
Y3505D01*
Y3506D01*
Y3506D01*
Y3506D01*
Y3506D01*
Y3520D01*
X9734D01*
Y3506D01*
X9734Y3505D01*
X9734Y3504D01*
X9734Y3503D01*
X9734Y3503D01*
X9734Y3502D01*
X9734Y3502D01*
X9734Y3501D01*
X9734Y3501D01*
X9734Y3500D01*
X9735Y3500D01*
X9735Y3500D01*
X9735Y3500D01*
X9735Y3499D01*
X9735Y3499D01*
X9735Y3499D01*
X9735Y3499D01*
X9735Y3499D01*
X9736Y3499D01*
X9736Y3498D01*
X9737Y3498D01*
X9737Y3498D01*
X9737Y3498D01*
X9738Y3498D01*
X9738Y3498D01*
X9739Y3498D01*
X9739Y3498D01*
X9739Y3498D01*
X9740Y3498D01*
X9740D01*
X9740Y3498D01*
X9740D01*
X9741Y3498D01*
X9741Y3498D01*
X9741Y3498D01*
X9742Y3498D01*
X9742Y3498D01*
X9742Y3498D01*
X9743Y3498D01*
X9743Y3498D01*
X9743Y3498D01*
X9743Y3498D01*
X9744Y3498D01*
X9744Y3498D01*
X9744Y3498D01*
X9744Y3498D01*
X9744Y3498D01*
X9744D01*
X9744Y3499D01*
X9744Y3499D01*
X9745Y3499D01*
X9745Y3499D01*
X9745Y3499D01*
X9745Y3500D01*
X9746Y3500D01*
X9746Y3500D01*
X9746Y3500D01*
X9746Y3501D01*
X9746Y3501D01*
X9746Y3501D01*
X9746Y3501D01*
Y3501D01*
X9746Y3501D01*
X9746Y3501D01*
X9746Y3502D01*
X9746Y3502D01*
X9747Y3503D01*
X9747Y3503D01*
X9747Y3504D01*
X9747Y3504D01*
X9747Y3505D01*
X9747Y3505D01*
Y3505D01*
X9747Y3505D01*
Y3506D01*
Y3506D01*
Y3506D01*
Y3520D01*
X9750D01*
Y3506D01*
D02*
G37*
G36*
X4752Y-140D02*
X4753D01*
X4753Y-141D01*
X4753Y-141D01*
X4753Y-141D01*
X4754Y-141D01*
X4754Y-141D01*
X4755Y-141D01*
X4755Y-141D01*
X4755Y-141D01*
X4756Y-141D01*
X4756Y-142D01*
X4757Y-142D01*
X4757Y-142D01*
X4757Y-142D01*
X4757Y-142D01*
X4757Y-142D01*
X4757Y-142D01*
X4757Y-143D01*
X4757Y-143D01*
X4758Y-143D01*
X4758Y-143D01*
X4758Y-144D01*
X4758Y-144D01*
X4758Y-144D01*
X4759Y-145D01*
X4759Y-145D01*
X4759Y-146D01*
X4759Y-146D01*
X4759Y-147D01*
X4756Y-147D01*
Y-147D01*
X4756Y-147D01*
X4756Y-147D01*
X4756Y-147D01*
X4756Y-147D01*
X4756Y-146D01*
X4756Y-146D01*
X4756Y-146D01*
X4755Y-145D01*
X4755Y-145D01*
X4755Y-144D01*
X4755Y-144D01*
X4755Y-144D01*
X4755Y-144D01*
X4755Y-144D01*
X4755Y-144D01*
X4755Y-144D01*
X4754Y-144D01*
X4754Y-144D01*
X4754Y-144D01*
X4754Y-144D01*
X4754Y-143D01*
X4753Y-143D01*
X4753Y-143D01*
X4753Y-143D01*
X4752Y-143D01*
X4752Y-143D01*
X4752Y-143D01*
X4752D01*
X4752Y-143D01*
X4751D01*
X4751Y-143D01*
X4751Y-143D01*
X4751Y-143D01*
X4751Y-143D01*
X4750Y-143D01*
X4750Y-144D01*
X4749Y-144D01*
X4749Y-144D01*
X4749Y-144D01*
X4749Y-144D01*
X4749Y-144D01*
X4749Y-144D01*
X4749Y-144D01*
X4749Y-144D01*
X4749Y-144D01*
X4748Y-145D01*
X4748Y-145D01*
X4748Y-145D01*
X4748Y-145D01*
X4748Y-146D01*
X4747Y-146D01*
X4747Y-146D01*
X4747Y-147D01*
X4747Y-147D01*
Y-147D01*
X4747Y-147D01*
X4747Y-147D01*
X4747Y-147D01*
X4747Y-148D01*
X4747Y-148D01*
X4747Y-148D01*
X4746Y-148D01*
X4746Y-149D01*
X4746Y-149D01*
X4746Y-150D01*
X4746Y-150D01*
X4746Y-151D01*
X4746Y-151D01*
X4746Y-152D01*
X4746Y-153D01*
X4746Y-153D01*
X4746Y-153D01*
X4746Y-153D01*
X4746Y-152D01*
X4746Y-152D01*
X4746Y-152D01*
X4747Y-152D01*
X4747Y-152D01*
X4747Y-152D01*
X4747Y-151D01*
X4748Y-151D01*
X4748Y-151D01*
X4748Y-150D01*
X4749Y-150D01*
X4749Y-150D01*
X4749Y-150D01*
X4749Y-150D01*
X4749Y-150D01*
X4749Y-150D01*
X4749Y-150D01*
X4750Y-150D01*
X4750Y-150D01*
X4750Y-150D01*
X4750Y-150D01*
X4751Y-150D01*
X4752Y-149D01*
X4752Y-149D01*
X4752D01*
X4752Y-149D01*
X4753Y-149D01*
X4753Y-149D01*
X4753Y-150D01*
X4754Y-150D01*
X4754Y-150D01*
X4754Y-150D01*
X4755Y-150D01*
X4755Y-150D01*
X4756Y-150D01*
X4756Y-151D01*
X4757Y-151D01*
X4757Y-151D01*
X4757Y-152D01*
X4757Y-152D01*
X4758Y-152D01*
X4758Y-152D01*
X4758Y-152D01*
X4758Y-152D01*
X4758Y-153D01*
X4758Y-153D01*
X4759Y-153D01*
X4759Y-154D01*
X4759Y-154D01*
X4759Y-155D01*
X4759Y-155D01*
X4759Y-156D01*
X4760Y-156D01*
X4760Y-157D01*
X4760Y-158D01*
Y-158D01*
Y-158D01*
Y-158D01*
X4760Y-158D01*
X4760Y-158D01*
X4760Y-158D01*
X4760Y-159D01*
X4759Y-159D01*
X4759Y-159D01*
X4759Y-160D01*
X4759Y-160D01*
X4759Y-160D01*
X4759Y-161D01*
X4759Y-161D01*
X4759Y-162D01*
X4759Y-162D01*
X4759Y-162D01*
X4759Y-162D01*
X4758Y-162D01*
X4758Y-162D01*
X4758Y-162D01*
X4758Y-163D01*
X4758Y-163D01*
X4758Y-163D01*
X4758Y-163D01*
X4757Y-164D01*
X4757Y-164D01*
X4757Y-164D01*
X4757Y-164D01*
X4756Y-165D01*
X4756Y-165D01*
X4756Y-165D01*
X4756Y-165D01*
X4756Y-165D01*
X4756Y-165D01*
X4755Y-165D01*
X4755Y-165D01*
X4755Y-165D01*
X4755Y-166D01*
X4755Y-166D01*
X4754Y-166D01*
X4754Y-166D01*
X4754Y-166D01*
X4753Y-166D01*
X4753Y-166D01*
X4753Y-166D01*
X4752Y-166D01*
X4752Y-166D01*
X4752D01*
X4751Y-166D01*
X4751D01*
X4751Y-166D01*
X4751Y-166D01*
X4750Y-166D01*
X4750Y-166D01*
X4749Y-166D01*
X4749Y-166D01*
X4748Y-165D01*
X4748Y-165D01*
X4747Y-165D01*
X4747Y-165D01*
X4746Y-164D01*
X4746Y-164D01*
X4745Y-163D01*
X4745Y-163D01*
X4745Y-163D01*
X4745Y-163D01*
X4745Y-163D01*
X4745Y-162D01*
X4745Y-162D01*
X4745Y-162D01*
X4745Y-162D01*
X4744Y-162D01*
X4744Y-161D01*
X4744Y-161D01*
X4744Y-161D01*
X4744Y-160D01*
X4744Y-160D01*
X4744Y-160D01*
X4744Y-159D01*
X4744Y-159D01*
X4743Y-159D01*
X4743Y-158D01*
X4743Y-158D01*
X4743Y-157D01*
X4743Y-157D01*
X4743Y-156D01*
X4743Y-156D01*
X4743Y-155D01*
X4743Y-155D01*
Y-154D01*
Y-154D01*
Y-154D01*
Y-154D01*
Y-154D01*
X4743Y-153D01*
Y-153D01*
X4743Y-153D01*
Y-153D01*
X4743Y-152D01*
X4743Y-152D01*
X4743Y-152D01*
X4743Y-151D01*
X4743Y-151D01*
X4743Y-150D01*
X4743Y-149D01*
X4744Y-148D01*
X4744Y-147D01*
X4744Y-146D01*
X4744Y-146D01*
X4745Y-145D01*
X4745Y-144D01*
X4745Y-144D01*
X4745Y-144D01*
X4746Y-143D01*
X4746Y-143D01*
X4746Y-143D01*
X4746Y-143D01*
X4746Y-143D01*
X4746Y-143D01*
X4747Y-142D01*
X4747Y-142D01*
X4747Y-142D01*
X4748Y-142D01*
X4748Y-141D01*
X4749Y-141D01*
X4749Y-141D01*
X4750Y-141D01*
X4751Y-141D01*
X4751Y-140D01*
X4752Y-140D01*
X4752D01*
X4752Y-140D01*
D02*
G37*
G36*
X4776Y-140D02*
X4776D01*
X4777Y-140D01*
X4777Y-140D01*
X4777Y-140D01*
X4778Y-140D01*
X4778Y-140D01*
X4779Y-140D01*
X4779Y-141D01*
X4780Y-141D01*
X4780Y-141D01*
X4781Y-141D01*
X4781Y-141D01*
X4781Y-141D01*
X4781Y-141D01*
X4781Y-141D01*
X4781Y-141D01*
X4781Y-141D01*
X4782Y-141D01*
X4782Y-142D01*
X4782Y-142D01*
X4782Y-142D01*
X4783Y-142D01*
X4784Y-143D01*
X4784Y-143D01*
X4784Y-143D01*
X4784Y-143D01*
X4784Y-144D01*
X4784Y-144D01*
X4784Y-144D01*
X4784Y-144D01*
X4785Y-144D01*
X4785Y-144D01*
X4785Y-145D01*
X4785Y-145D01*
X4785Y-145D01*
X4785Y-146D01*
X4785Y-146D01*
X4786Y-146D01*
X4786Y-147D01*
X4786Y-147D01*
X4786Y-148D01*
X4783Y-148D01*
Y-148D01*
X4783Y-148D01*
X4783Y-148D01*
X4783Y-148D01*
X4783Y-148D01*
X4783Y-148D01*
X4783Y-148D01*
X4783Y-147D01*
X4782Y-147D01*
X4782Y-146D01*
X4782Y-146D01*
X4782Y-146D01*
X4782Y-145D01*
X4782Y-145D01*
X4782Y-145D01*
X4781Y-145D01*
X4781Y-145D01*
X4781Y-145D01*
X4781Y-145D01*
X4781Y-145D01*
X4781Y-145D01*
X4781Y-145D01*
X4781Y-144D01*
X4780Y-144D01*
X4780Y-144D01*
X4779Y-144D01*
X4779D01*
X4779Y-144D01*
X4779Y-144D01*
X4779Y-144D01*
X4779Y-143D01*
X4779Y-143D01*
X4778Y-143D01*
X4778Y-143D01*
X4778Y-143D01*
X4778Y-143D01*
X4777Y-143D01*
X4777Y-143D01*
X4776Y-143D01*
X4776Y-143D01*
X4776D01*
X4775Y-143D01*
X4775D01*
X4775Y-143D01*
X4775Y-143D01*
X4774Y-143D01*
X4774Y-143D01*
X4774Y-143D01*
X4773Y-143D01*
X4772Y-143D01*
X4772Y-144D01*
X4772D01*
X4772Y-144D01*
X4772Y-144D01*
X4771Y-144D01*
X4771Y-144D01*
X4771Y-144D01*
X4771Y-144D01*
X4771Y-144D01*
X4770Y-144D01*
X4770Y-145D01*
X4769Y-145D01*
X4769Y-146D01*
X4769Y-146D01*
X4769Y-146D01*
X4769Y-146D01*
X4769Y-146D01*
X4769Y-146D01*
X4769Y-146D01*
X4769Y-146D01*
X4768Y-146D01*
X4768Y-147D01*
X4768Y-147D01*
X4768Y-147D01*
X4767Y-148D01*
X4767Y-148D01*
X4767Y-148D01*
X4767Y-148D01*
X4767Y-148D01*
X4767Y-149D01*
X4767Y-149D01*
X4767Y-149D01*
X4767Y-149D01*
X4767Y-150D01*
X4767Y-150D01*
X4767Y-151D01*
X4767Y-151D01*
X4767Y-152D01*
X4767Y-152D01*
X4767Y-153D01*
X4767Y-153D01*
Y-153D01*
Y-153D01*
Y-153D01*
Y-153D01*
X4767Y-154D01*
X4767Y-154D01*
X4767Y-154D01*
X4767Y-155D01*
X4767Y-155D01*
X4767Y-155D01*
X4767Y-156D01*
X4767Y-156D01*
X4767Y-157D01*
X4767Y-157D01*
X4767Y-158D01*
X4767Y-158D01*
X4768Y-159D01*
X4768Y-159D01*
X4768Y-159D01*
X4768Y-159D01*
X4768Y-159D01*
X4768Y-159D01*
X4768Y-159D01*
X4768Y-160D01*
X4769Y-160D01*
X4769Y-160D01*
X4769Y-161D01*
X4769Y-161D01*
X4770Y-161D01*
X4770Y-161D01*
X4770Y-162D01*
X4771Y-162D01*
X4771Y-162D01*
X4771Y-162D01*
X4771Y-162D01*
X4771Y-162D01*
X4771Y-162D01*
X4772Y-162D01*
X4772Y-162D01*
X4772Y-162D01*
X4772Y-163D01*
X4773Y-163D01*
X4773Y-163D01*
X4774Y-163D01*
X4774Y-163D01*
X4774Y-163D01*
X4775Y-163D01*
X4775Y-163D01*
X4776Y-163D01*
X4776D01*
X4776Y-163D01*
X4776D01*
X4777Y-163D01*
X4777Y-163D01*
X4777Y-163D01*
X4777Y-163D01*
X4778Y-163D01*
X4778Y-163D01*
X4779Y-163D01*
X4780Y-162D01*
X4780Y-162D01*
X4780Y-162D01*
X4780Y-162D01*
X4780Y-162D01*
X4780Y-162D01*
X4780Y-162D01*
X4781Y-162D01*
X4781Y-162D01*
X4781Y-162D01*
X4782Y-162D01*
X4782Y-161D01*
X4783Y-161D01*
X4783Y-161D01*
X4783Y-161D01*
Y-156D01*
X4776D01*
Y-153D01*
X4786D01*
Y-162D01*
X4786Y-162D01*
X4786Y-162D01*
X4786Y-162D01*
X4786Y-163D01*
X4786Y-163D01*
X4785Y-163D01*
X4785Y-163D01*
X4785Y-163D01*
X4784Y-164D01*
X4784Y-164D01*
X4784Y-164D01*
X4783Y-164D01*
X4782Y-165D01*
X4782Y-165D01*
X4781Y-165D01*
X4781Y-165D01*
X4781Y-165D01*
X4781Y-165D01*
X4781Y-165D01*
X4781Y-165D01*
X4780Y-165D01*
X4780Y-166D01*
X4780Y-166D01*
X4779Y-166D01*
X4779Y-166D01*
X4778Y-166D01*
X4778Y-166D01*
X4777Y-166D01*
X4776Y-166D01*
X4776Y-166D01*
X4776D01*
X4776Y-166D01*
X4775D01*
X4775Y-166D01*
X4775Y-166D01*
X4774Y-166D01*
X4774Y-166D01*
X4773Y-166D01*
X4773Y-166D01*
X4772Y-166D01*
X4772Y-165D01*
X4771Y-165D01*
X4770Y-165D01*
X4770Y-165D01*
X4769Y-165D01*
X4769Y-165D01*
X4769Y-164D01*
X4769Y-164D01*
X4769Y-164D01*
X4768Y-164D01*
X4768Y-164D01*
X4768Y-164D01*
X4767Y-163D01*
X4767Y-163D01*
X4767Y-163D01*
X4766Y-162D01*
X4766Y-162D01*
X4766Y-162D01*
X4765Y-161D01*
X4765Y-161D01*
X4765Y-160D01*
X4765Y-160D01*
X4765Y-160D01*
X4764Y-160D01*
X4764Y-159D01*
X4764Y-159D01*
X4764Y-159D01*
X4764Y-158D01*
X4764Y-158D01*
X4764Y-158D01*
X4764Y-157D01*
X4763Y-156D01*
X4763Y-156D01*
X4763Y-155D01*
X4763Y-155D01*
X4763Y-154D01*
X4763Y-153D01*
Y-153D01*
Y-153D01*
Y-153D01*
Y-153D01*
Y-153D01*
X4763Y-153D01*
Y-153D01*
X4763Y-152D01*
X4763Y-152D01*
X4763Y-152D01*
X4763Y-151D01*
X4763Y-151D01*
X4763Y-150D01*
X4764Y-149D01*
X4764Y-149D01*
X4764Y-148D01*
X4764Y-148D01*
X4764Y-147D01*
X4765Y-146D01*
Y-146D01*
X4765Y-146D01*
X4765Y-146D01*
X4765Y-146D01*
X4765Y-146D01*
X4765Y-146D01*
X4765Y-145D01*
X4765Y-145D01*
X4766Y-145D01*
X4766Y-144D01*
X4766Y-144D01*
X4767Y-143D01*
X4767Y-143D01*
X4768Y-143D01*
X4768Y-142D01*
X4769Y-142D01*
X4769Y-142D01*
X4769Y-142D01*
X4769Y-142D01*
X4769Y-142D01*
X4770Y-141D01*
X4770Y-141D01*
X4770Y-141D01*
X4771Y-141D01*
X4771Y-141D01*
X4771Y-141D01*
X4772Y-141D01*
X4772Y-140D01*
X4773Y-140D01*
X4774Y-140D01*
X4774Y-140D01*
X4775Y-140D01*
X4776Y-140D01*
X4776D01*
X4776Y-140D01*
D02*
G37*
G36*
X4739Y-158D02*
Y-158D01*
Y-158D01*
Y-158D01*
X4739Y-158D01*
Y-158D01*
X4739Y-159D01*
X4739Y-159D01*
X4739Y-160D01*
X4739Y-160D01*
X4739Y-160D01*
X4739Y-161D01*
X4739Y-162D01*
X4738Y-162D01*
X4738Y-162D01*
X4738Y-163D01*
Y-163D01*
X4738Y-163D01*
X4738Y-163D01*
X4738Y-163D01*
X4738Y-163D01*
X4738Y-163D01*
X4738Y-163D01*
X4738Y-164D01*
X4737Y-164D01*
X4737Y-164D01*
X4737Y-164D01*
X4737Y-164D01*
X4737Y-165D01*
X4736Y-165D01*
X4736Y-165D01*
X4736Y-165D01*
X4736Y-165D01*
X4736Y-165D01*
X4736Y-165D01*
X4735Y-165D01*
X4735Y-165D01*
X4735Y-166D01*
X4735Y-166D01*
X4735Y-166D01*
X4734Y-166D01*
X4734Y-166D01*
X4734Y-166D01*
X4733Y-166D01*
X4733Y-166D01*
X4733Y-166D01*
X4732Y-166D01*
X4732Y-166D01*
X4732D01*
X4732Y-166D01*
X4731Y-166D01*
X4731Y-166D01*
X4731Y-166D01*
X4730Y-166D01*
X4730Y-166D01*
X4730Y-166D01*
X4729Y-166D01*
X4729Y-166D01*
X4728Y-165D01*
X4728Y-165D01*
X4727Y-165D01*
X4727Y-165D01*
X4727Y-164D01*
X4727Y-164D01*
X4727Y-164D01*
X4727Y-164D01*
X4726Y-164D01*
X4726Y-164D01*
X4726Y-163D01*
X4726Y-163D01*
X4726Y-163D01*
X4726Y-162D01*
X4726Y-162D01*
X4725Y-162D01*
X4725Y-161D01*
X4725Y-161D01*
X4725Y-160D01*
X4725Y-159D01*
Y-159D01*
X4728Y-158D01*
Y-158D01*
Y-158D01*
X4728Y-158D01*
X4728Y-159D01*
X4728Y-159D01*
X4728Y-159D01*
X4728Y-159D01*
X4728Y-160D01*
X4728Y-160D01*
X4729Y-161D01*
X4729Y-161D01*
X4729Y-162D01*
X4729Y-162D01*
X4729Y-162D01*
X4729Y-162D01*
X4729Y-162D01*
X4729Y-162D01*
X4729Y-162D01*
X4729Y-162D01*
X4730Y-162D01*
X4730Y-163D01*
X4730Y-163D01*
X4730Y-163D01*
X4730Y-163D01*
X4730Y-163D01*
X4731Y-163D01*
X4731Y-163D01*
X4731Y-163D01*
X4732Y-163D01*
X4732Y-163D01*
X4732D01*
X4732Y-163D01*
X4732D01*
X4732Y-163D01*
X4733Y-163D01*
X4733Y-163D01*
X4733Y-163D01*
X4734Y-163D01*
X4734Y-163D01*
X4734D01*
X4734Y-163D01*
X4734Y-163D01*
X4734Y-162D01*
X4734Y-162D01*
X4735Y-162D01*
X4735Y-162D01*
X4735Y-161D01*
X4735Y-161D01*
Y-161D01*
X4735Y-161D01*
X4735Y-161D01*
X4735Y-161D01*
X4735Y-161D01*
X4735Y-161D01*
X4735Y-160D01*
X4735Y-160D01*
X4735Y-160D01*
X4735Y-160D01*
X4736Y-160D01*
X4736Y-159D01*
X4736Y-159D01*
X4736Y-159D01*
X4736Y-158D01*
Y-158D01*
Y-141D01*
X4739D01*
Y-158D01*
D02*
G37*
G36*
X5377Y-140D02*
X5378D01*
X5378Y-141D01*
X5378Y-141D01*
X5378Y-141D01*
X5379Y-141D01*
X5379Y-141D01*
X5380Y-141D01*
X5380Y-141D01*
X5380Y-141D01*
X5381Y-141D01*
X5381Y-142D01*
X5382Y-142D01*
X5382Y-142D01*
X5382Y-142D01*
X5382Y-142D01*
X5382Y-142D01*
X5382Y-142D01*
X5382Y-143D01*
X5382Y-143D01*
X5383Y-143D01*
X5383Y-143D01*
X5383Y-144D01*
X5383Y-144D01*
X5383Y-144D01*
X5384Y-145D01*
X5384Y-145D01*
X5384Y-146D01*
X5384Y-146D01*
X5384Y-147D01*
X5381Y-147D01*
Y-147D01*
X5381Y-147D01*
X5381Y-147D01*
X5381Y-147D01*
X5381Y-147D01*
X5381Y-146D01*
X5381Y-146D01*
X5381Y-146D01*
X5380Y-145D01*
X5380Y-145D01*
X5380Y-144D01*
X5380Y-144D01*
X5380Y-144D01*
X5380Y-144D01*
X5380Y-144D01*
X5380Y-144D01*
X5380Y-144D01*
X5379Y-144D01*
X5379Y-144D01*
X5379Y-144D01*
X5379Y-144D01*
X5379Y-143D01*
X5378Y-143D01*
X5378Y-143D01*
X5378Y-143D01*
X5377Y-143D01*
X5377Y-143D01*
X5377Y-143D01*
X5377D01*
X5377Y-143D01*
X5376D01*
X5376Y-143D01*
X5376Y-143D01*
X5376Y-143D01*
X5376Y-143D01*
X5375Y-143D01*
X5375Y-144D01*
X5374Y-144D01*
X5374Y-144D01*
X5374Y-144D01*
X5374Y-144D01*
X5374Y-144D01*
X5374Y-144D01*
X5374Y-144D01*
X5374Y-144D01*
X5374Y-144D01*
X5373Y-145D01*
X5373Y-145D01*
X5373Y-145D01*
X5373Y-145D01*
X5373Y-146D01*
X5372Y-146D01*
X5372Y-146D01*
X5372Y-147D01*
X5372Y-147D01*
Y-147D01*
X5372Y-147D01*
X5372Y-147D01*
X5372Y-147D01*
X5372Y-148D01*
X5372Y-148D01*
X5372Y-148D01*
X5371Y-148D01*
X5371Y-149D01*
X5371Y-149D01*
X5371Y-150D01*
X5371Y-150D01*
X5371Y-151D01*
X5371Y-151D01*
X5371Y-152D01*
X5371Y-153D01*
X5371Y-153D01*
X5371Y-153D01*
X5371Y-153D01*
X5371Y-152D01*
X5371Y-152D01*
X5371Y-152D01*
X5372Y-152D01*
X5372Y-152D01*
X5372Y-152D01*
X5372Y-151D01*
X5373Y-151D01*
X5373Y-151D01*
X5373Y-150D01*
X5374Y-150D01*
X5374Y-150D01*
X5374Y-150D01*
X5374Y-150D01*
X5374Y-150D01*
X5374Y-150D01*
X5374Y-150D01*
X5375Y-150D01*
X5375Y-150D01*
X5375Y-150D01*
X5375Y-150D01*
X5376Y-150D01*
X5377Y-149D01*
X5377Y-149D01*
X5377D01*
X5377Y-149D01*
X5378Y-149D01*
X5378Y-149D01*
X5378Y-150D01*
X5379Y-150D01*
X5379Y-150D01*
X5379Y-150D01*
X5380Y-150D01*
X5380Y-150D01*
X5381Y-150D01*
X5381Y-151D01*
X5382Y-151D01*
X5382Y-151D01*
X5382Y-152D01*
X5382Y-152D01*
X5383Y-152D01*
X5383Y-152D01*
X5383Y-152D01*
X5383Y-152D01*
X5383Y-153D01*
X5383Y-153D01*
X5384Y-153D01*
X5384Y-154D01*
X5384Y-154D01*
X5384Y-155D01*
X5384Y-155D01*
X5384Y-156D01*
X5385Y-156D01*
X5385Y-157D01*
X5385Y-158D01*
Y-158D01*
Y-158D01*
Y-158D01*
X5385Y-158D01*
X5385Y-158D01*
X5385Y-158D01*
X5385Y-159D01*
X5384Y-159D01*
X5384Y-159D01*
X5384Y-160D01*
X5384Y-160D01*
X5384Y-160D01*
X5384Y-161D01*
X5384Y-161D01*
X5384Y-162D01*
X5384Y-162D01*
X5384Y-162D01*
X5384Y-162D01*
X5383Y-162D01*
X5383Y-162D01*
X5383Y-162D01*
X5383Y-163D01*
X5383Y-163D01*
X5383Y-163D01*
X5383Y-163D01*
X5382Y-164D01*
X5382Y-164D01*
X5382Y-164D01*
X5382Y-164D01*
X5381Y-165D01*
X5381Y-165D01*
X5381Y-165D01*
X5381Y-165D01*
X5381Y-165D01*
X5381Y-165D01*
X5380Y-165D01*
X5380Y-165D01*
X5380Y-165D01*
X5380Y-166D01*
X5380Y-166D01*
X5379Y-166D01*
X5379Y-166D01*
X5379Y-166D01*
X5378Y-166D01*
X5378Y-166D01*
X5378Y-166D01*
X5377Y-166D01*
X5377Y-166D01*
X5377D01*
X5376Y-166D01*
X5376D01*
X5376Y-166D01*
X5376Y-166D01*
X5375Y-166D01*
X5375Y-166D01*
X5374Y-166D01*
X5374Y-166D01*
X5373Y-165D01*
X5373Y-165D01*
X5372Y-165D01*
X5372Y-165D01*
X5371Y-164D01*
X5371Y-164D01*
X5370Y-163D01*
X5370Y-163D01*
X5370Y-163D01*
X5370Y-163D01*
X5370Y-163D01*
X5370Y-162D01*
X5370Y-162D01*
X5370Y-162D01*
X5370Y-162D01*
X5369Y-162D01*
X5369Y-161D01*
X5369Y-161D01*
X5369Y-161D01*
X5369Y-160D01*
X5369Y-160D01*
X5369Y-160D01*
X5369Y-159D01*
X5369Y-159D01*
X5368Y-159D01*
X5368Y-158D01*
X5368Y-158D01*
X5368Y-157D01*
X5368Y-157D01*
X5368Y-156D01*
X5368Y-156D01*
X5368Y-155D01*
X5368Y-155D01*
Y-154D01*
Y-154D01*
Y-154D01*
Y-154D01*
Y-154D01*
X5368Y-153D01*
Y-153D01*
X5368Y-153D01*
Y-153D01*
X5368Y-152D01*
X5368Y-152D01*
X5368Y-152D01*
X5368Y-151D01*
X5368Y-151D01*
X5368Y-150D01*
X5368Y-149D01*
X5369Y-148D01*
X5369Y-147D01*
X5369Y-146D01*
X5369Y-146D01*
X5370Y-145D01*
X5370Y-144D01*
X5370Y-144D01*
X5370Y-144D01*
X5371Y-143D01*
X5371Y-143D01*
X5371Y-143D01*
X5371Y-143D01*
X5371Y-143D01*
X5371Y-143D01*
X5372Y-142D01*
X5372Y-142D01*
X5372Y-142D01*
X5373Y-142D01*
X5373Y-141D01*
X5374Y-141D01*
X5374Y-141D01*
X5375Y-141D01*
X5376Y-141D01*
X5376Y-140D01*
X5377Y-140D01*
X5377D01*
X5377Y-140D01*
D02*
G37*
G36*
X5409Y-166D02*
X5405D01*
Y-154D01*
X5392D01*
Y-166D01*
X5389D01*
Y-141D01*
X5392D01*
Y-151D01*
X5405D01*
Y-141D01*
X5409D01*
Y-166D01*
D02*
G37*
G36*
X5364Y-158D02*
Y-158D01*
Y-158D01*
Y-158D01*
X5364Y-158D01*
Y-158D01*
X5364Y-159D01*
X5364Y-159D01*
X5364Y-160D01*
X5364Y-160D01*
X5364Y-160D01*
X5364Y-161D01*
X5364Y-162D01*
X5363Y-162D01*
X5363Y-162D01*
X5363Y-163D01*
Y-163D01*
X5363Y-163D01*
X5363Y-163D01*
X5363Y-163D01*
X5363Y-163D01*
X5363Y-163D01*
X5363Y-163D01*
X5363Y-164D01*
X5362Y-164D01*
X5362Y-164D01*
X5362Y-164D01*
X5362Y-164D01*
X5362Y-165D01*
X5361Y-165D01*
X5361Y-165D01*
X5361Y-165D01*
X5361Y-165D01*
X5361Y-165D01*
X5361Y-165D01*
X5360Y-165D01*
X5360Y-165D01*
X5360Y-166D01*
X5360Y-166D01*
X5360Y-166D01*
X5359Y-166D01*
X5359Y-166D01*
X5359Y-166D01*
X5358Y-166D01*
X5358Y-166D01*
X5358Y-166D01*
X5357Y-166D01*
X5357Y-166D01*
X5357D01*
X5357Y-166D01*
X5356Y-166D01*
X5356Y-166D01*
X5356Y-166D01*
X5355Y-166D01*
X5355Y-166D01*
X5355Y-166D01*
X5354Y-166D01*
X5354Y-166D01*
X5353Y-165D01*
X5353Y-165D01*
X5352Y-165D01*
X5352Y-165D01*
X5352Y-164D01*
X5352Y-164D01*
X5352Y-164D01*
X5352Y-164D01*
X5351Y-164D01*
X5351Y-164D01*
X5351Y-163D01*
X5351Y-163D01*
X5351Y-163D01*
X5351Y-162D01*
X5351Y-162D01*
X5350Y-162D01*
X5350Y-161D01*
X5350Y-161D01*
X5350Y-160D01*
X5350Y-159D01*
Y-159D01*
X5353Y-158D01*
Y-158D01*
Y-158D01*
X5353Y-158D01*
X5353Y-159D01*
X5353Y-159D01*
X5353Y-159D01*
X5353Y-159D01*
X5353Y-160D01*
X5353Y-160D01*
X5354Y-161D01*
X5354Y-161D01*
X5354Y-162D01*
X5354Y-162D01*
X5354Y-162D01*
X5354Y-162D01*
X5354Y-162D01*
X5354Y-162D01*
X5354Y-162D01*
X5354Y-162D01*
X5355Y-162D01*
X5355Y-163D01*
X5355Y-163D01*
X5355Y-163D01*
X5355Y-163D01*
X5355Y-163D01*
X5356Y-163D01*
X5356Y-163D01*
X5356Y-163D01*
X5357Y-163D01*
X5357Y-163D01*
X5357D01*
X5357Y-163D01*
X5357D01*
X5357Y-163D01*
X5358Y-163D01*
X5358Y-163D01*
X5358Y-163D01*
X5359Y-163D01*
X5359Y-163D01*
X5359D01*
X5359Y-163D01*
X5359Y-163D01*
X5359Y-162D01*
X5359Y-162D01*
X5360Y-162D01*
X5360Y-162D01*
X5360Y-161D01*
X5360Y-161D01*
Y-161D01*
X5360Y-161D01*
X5360Y-161D01*
X5360Y-161D01*
X5360Y-161D01*
X5360Y-161D01*
X5360Y-160D01*
X5360Y-160D01*
X5360Y-160D01*
X5360Y-160D01*
X5361Y-160D01*
X5361Y-159D01*
X5361Y-159D01*
X5361Y-159D01*
X5361Y-158D01*
Y-158D01*
Y-141D01*
X5364D01*
Y-158D01*
D02*
G37*
G36*
X4495Y4327D02*
X4473D01*
Y4314D01*
X4470D01*
Y4330D01*
X4495D01*
Y4327D01*
D02*
G37*
G36*
Y4301D02*
Y4299D01*
X4479D01*
Y4295D01*
X4476D01*
Y4299D01*
X4470D01*
Y4302D01*
X4476D01*
Y4313D01*
X4479D01*
X4495Y4301D01*
D02*
G37*
G36*
X1060Y3765D02*
X1061Y3765D01*
X1061Y3764D01*
X1061Y3763D01*
X1062Y3763D01*
X1062Y3763D01*
X1062Y3763D01*
X1062Y3763D01*
X1063Y3762D01*
X1063Y3762D01*
X1063Y3762D01*
X1063Y3762D01*
X1063Y3762D01*
X1063Y3762D01*
X1064Y3761D01*
X1065Y3761D01*
X1065Y3760D01*
X1066Y3760D01*
X1066Y3760D01*
X1066Y3760D01*
X1067Y3759D01*
X1067Y3759D01*
X1067Y3759D01*
X1067Y3759D01*
X1067Y3759D01*
X1067Y3759D01*
X1068Y3759D01*
Y3756D01*
X1067Y3756D01*
X1066Y3756D01*
X1066Y3757D01*
X1065Y3757D01*
X1065Y3757D01*
X1065Y3757D01*
X1065Y3757D01*
X1065Y3757D01*
X1064Y3757D01*
X1064Y3757D01*
X1064Y3758D01*
X1064Y3758D01*
X1064Y3758D01*
X1063Y3758D01*
X1063Y3758D01*
X1063Y3759D01*
X1063Y3759D01*
X1062Y3759D01*
X1062Y3759D01*
X1062Y3759D01*
X1062Y3759D01*
X1062Y3759D01*
X1062Y3760D01*
X1061Y3760D01*
X1061Y3760D01*
X1061Y3760D01*
X1061Y3760D01*
Y3740D01*
X1058D01*
Y3765D01*
X1060D01*
X1060Y3765D01*
D02*
G37*
G36*
X1043Y3765D02*
X1044Y3765D01*
X1044Y3765D01*
X1045Y3765D01*
X1045Y3765D01*
X1046Y3765D01*
X1046Y3764D01*
X1047Y3764D01*
X1047Y3764D01*
X1047Y3764D01*
X1047Y3763D01*
X1048Y3763D01*
X1048Y3763D01*
X1048Y3763D01*
X1048Y3763D01*
X1048Y3763D01*
X1048Y3762D01*
X1049Y3762D01*
X1049Y3761D01*
X1049Y3761D01*
X1050Y3760D01*
X1050Y3760D01*
X1050Y3759D01*
X1050Y3759D01*
X1050Y3759D01*
X1050Y3758D01*
X1050Y3758D01*
X1050Y3757D01*
X1050Y3757D01*
Y3757D01*
X1050Y3757D01*
Y3757D01*
Y3757D01*
Y3757D01*
Y3757D01*
X1050Y3756D01*
X1050Y3755D01*
X1050Y3755D01*
X1050Y3754D01*
X1050Y3754D01*
X1050Y3753D01*
X1049Y3753D01*
X1049Y3752D01*
X1049Y3752D01*
X1049Y3752D01*
X1049Y3751D01*
X1048Y3751D01*
X1048Y3751D01*
X1048Y3751D01*
X1048Y3751D01*
X1048Y3751D01*
X1048Y3750D01*
X1047Y3750D01*
X1047Y3750D01*
X1046Y3749D01*
X1046Y3749D01*
X1046Y3749D01*
X1045Y3749D01*
X1045Y3749D01*
X1044Y3749D01*
X1044Y3749D01*
X1044Y3749D01*
X1043Y3749D01*
X1043Y3749D01*
X1043Y3749D01*
X1043D01*
X1043Y3749D01*
X1042Y3749D01*
X1042Y3749D01*
X1041Y3749D01*
X1041Y3749D01*
X1040Y3749D01*
X1040Y3749D01*
X1040Y3749D01*
X1040Y3749D01*
X1040Y3749D01*
X1040Y3749D01*
X1039Y3749D01*
X1039Y3749D01*
X1039Y3749D01*
X1039Y3750D01*
X1038Y3750D01*
X1038Y3750D01*
X1038Y3751D01*
X1038Y3751D01*
X1038Y3751D01*
X1037Y3751D01*
X1037Y3751D01*
X1037Y3751D01*
X1037Y3752D01*
X1037Y3752D01*
X1037Y3752D01*
X1037Y3752D01*
X1037Y3752D01*
Y3752D01*
Y3752D01*
Y3751D01*
Y3751D01*
Y3751D01*
Y3751D01*
Y3751D01*
Y3751D01*
X1037Y3751D01*
X1037Y3750D01*
X1037Y3749D01*
X1037Y3749D01*
X1037Y3749D01*
X1037Y3748D01*
X1037Y3748D01*
X1037Y3748D01*
X1037Y3748D01*
X1037Y3748D01*
X1037Y3748D01*
X1037Y3747D01*
Y3747D01*
X1037Y3747D01*
X1038Y3747D01*
X1038Y3746D01*
X1038Y3746D01*
X1038Y3746D01*
X1038Y3746D01*
X1038Y3745D01*
X1038Y3745D01*
X1038Y3745D01*
X1038Y3745D01*
X1038Y3745D01*
X1038Y3745D01*
X1038Y3745D01*
X1038Y3745D01*
X1038Y3745D01*
Y3745D01*
X1039Y3744D01*
X1039Y3744D01*
X1039Y3743D01*
X1040Y3743D01*
X1040Y3743D01*
X1040Y3743D01*
X1040Y3743D01*
X1040Y3743D01*
X1040Y3743D01*
X1040D01*
X1041Y3743D01*
X1041Y3742D01*
X1041Y3742D01*
X1042Y3742D01*
X1042Y3742D01*
X1042Y3742D01*
X1042D01*
X1043Y3742D01*
X1043D01*
X1043Y3742D01*
X1043Y3742D01*
X1044Y3742D01*
X1044Y3742D01*
X1045Y3743D01*
X1045Y3743D01*
X1045Y3743D01*
X1045Y3743D01*
X1045Y3743D01*
X1045Y3743D01*
X1045Y3743D01*
X1045Y3743D01*
X1045Y3743D01*
X1045Y3743D01*
X1046Y3743D01*
X1046Y3743D01*
X1046Y3744D01*
X1046Y3744D01*
X1047Y3745D01*
X1047Y3745D01*
X1047Y3745D01*
X1047Y3746D01*
X1047Y3746D01*
X1047Y3746D01*
X1047Y3746D01*
X1047Y3746D01*
Y3746D01*
X1050Y3746D01*
X1050Y3745D01*
X1050Y3745D01*
X1050Y3744D01*
X1049Y3744D01*
X1049Y3743D01*
X1049Y3743D01*
X1049Y3743D01*
X1049Y3742D01*
X1048Y3742D01*
X1048Y3742D01*
X1048Y3742D01*
X1048Y3742D01*
X1048Y3741D01*
X1048Y3741D01*
X1048Y3741D01*
X1048Y3741D01*
X1047Y3741D01*
X1047Y3741D01*
X1046Y3740D01*
X1046Y3740D01*
X1046Y3740D01*
X1045Y3740D01*
X1045Y3740D01*
X1044Y3740D01*
X1044Y3740D01*
X1044Y3740D01*
X1044Y3740D01*
X1043Y3740D01*
X1043D01*
X1043Y3740D01*
X1043D01*
X1042Y3740D01*
X1042Y3740D01*
X1041Y3740D01*
X1041Y3740D01*
X1040Y3740D01*
X1040Y3740D01*
X1040Y3740D01*
X1039Y3740D01*
X1039Y3740D01*
X1039Y3741D01*
X1039Y3741D01*
X1038Y3741D01*
X1038Y3741D01*
X1038Y3741D01*
X1038Y3741D01*
X1038Y3741D01*
X1038Y3741D01*
X1037Y3742D01*
X1037Y3742D01*
X1037Y3742D01*
X1036Y3743D01*
X1036Y3743D01*
X1036Y3743D01*
X1036Y3744D01*
X1035Y3744D01*
X1035Y3744D01*
X1035Y3745D01*
X1035Y3745D01*
X1035Y3745D01*
X1035Y3745D01*
X1035Y3745D01*
X1035Y3745D01*
X1035Y3746D01*
X1034Y3747D01*
X1034Y3747D01*
X1034Y3748D01*
X1034Y3748D01*
X1034Y3749D01*
X1034Y3750D01*
X1034Y3750D01*
X1034Y3751D01*
X1034Y3751D01*
X1034Y3752D01*
X1034Y3752D01*
Y3752D01*
Y3752D01*
X1034Y3753D01*
Y3753D01*
Y3753D01*
Y3753D01*
Y3753D01*
Y3753D01*
Y3753D01*
X1034Y3754D01*
X1034Y3755D01*
X1034Y3755D01*
X1034Y3756D01*
X1034Y3757D01*
X1034Y3757D01*
X1034Y3758D01*
X1034Y3758D01*
X1034Y3759D01*
X1034Y3759D01*
X1035Y3759D01*
X1035Y3760D01*
X1035Y3760D01*
X1035Y3760D01*
X1035Y3760D01*
X1035Y3760D01*
X1035Y3761D01*
X1035Y3761D01*
X1036Y3761D01*
X1036Y3762D01*
X1036Y3762D01*
X1036Y3762D01*
X1037Y3763D01*
X1037Y3763D01*
X1037Y3763D01*
X1037Y3763D01*
X1037Y3764D01*
X1038Y3764D01*
X1038Y3764D01*
X1038Y3764D01*
X1038Y3764D01*
X1038Y3764D01*
X1038Y3764D01*
X1039Y3764D01*
X1039Y3765D01*
X1039Y3765D01*
X1040Y3765D01*
X1040Y3765D01*
X1041Y3765D01*
X1041Y3765D01*
X1041Y3765D01*
X1042Y3765D01*
X1042Y3765D01*
X1042Y3765D01*
X1042Y3765D01*
X1042D01*
X1043Y3765D01*
D02*
G37*
G36*
X1084Y3766D02*
X1084Y3766D01*
X1085Y3765D01*
X1085Y3765D01*
X1086Y3765D01*
X1087Y3765D01*
X1087Y3765D01*
X1087Y3765D01*
X1088Y3765D01*
X1088Y3765D01*
X1088Y3764D01*
X1089Y3764D01*
X1089Y3764D01*
X1089Y3764D01*
X1089Y3764D01*
X1089Y3764D01*
X1090Y3764D01*
X1090Y3763D01*
X1091Y3763D01*
X1091Y3763D01*
X1091Y3762D01*
X1092Y3762D01*
X1092Y3762D01*
X1092Y3761D01*
X1093Y3761D01*
X1093Y3761D01*
X1093Y3760D01*
X1093Y3760D01*
X1093Y3760D01*
X1093Y3760D01*
X1093Y3760D01*
X1094Y3760D01*
X1094Y3759D01*
X1094Y3759D01*
X1094Y3758D01*
X1094Y3757D01*
X1095Y3757D01*
X1095Y3756D01*
X1095Y3756D01*
X1095Y3755D01*
X1095Y3755D01*
X1095Y3754D01*
X1095Y3754D01*
X1095Y3753D01*
Y3753D01*
X1095Y3753D01*
Y3753D01*
Y3753D01*
Y3753D01*
Y3753D01*
Y3753D01*
X1095Y3752D01*
X1095Y3751D01*
X1095Y3751D01*
X1095Y3750D01*
X1095Y3750D01*
X1095Y3749D01*
X1094Y3749D01*
X1094Y3748D01*
X1094Y3748D01*
X1094Y3747D01*
X1094Y3747D01*
X1094Y3747D01*
X1094Y3746D01*
X1094Y3746D01*
X1094Y3746D01*
X1094Y3746D01*
Y3746D01*
X1093Y3745D01*
X1093Y3745D01*
X1093Y3744D01*
X1093Y3744D01*
X1092Y3744D01*
X1092Y3743D01*
X1092Y3743D01*
X1091Y3742D01*
X1091Y3742D01*
X1091Y3742D01*
X1090Y3742D01*
X1090Y3742D01*
X1090Y3741D01*
X1090Y3741D01*
X1090Y3741D01*
X1090Y3741D01*
X1089Y3741D01*
X1089Y3741D01*
X1088Y3740D01*
X1088Y3740D01*
X1087Y3740D01*
X1087Y3740D01*
X1086Y3740D01*
X1086Y3740D01*
X1085Y3740D01*
X1085Y3740D01*
X1084Y3740D01*
X1084Y3740D01*
X1084D01*
X1083Y3740D01*
X1083D01*
X1082Y3740D01*
X1082Y3740D01*
X1081Y3740D01*
X1080Y3740D01*
X1080Y3740D01*
X1079Y3740D01*
X1079Y3740D01*
X1078Y3741D01*
X1078Y3741D01*
X1078Y3741D01*
X1077Y3741D01*
X1077Y3741D01*
X1077Y3742D01*
X1077Y3742D01*
X1077Y3742D01*
X1077Y3742D01*
X1076Y3742D01*
X1076Y3743D01*
X1075Y3743D01*
X1075Y3744D01*
X1074Y3744D01*
X1074Y3745D01*
X1074Y3745D01*
X1074Y3746D01*
X1073Y3746D01*
X1073Y3747D01*
X1073Y3747D01*
X1073Y3747D01*
X1073Y3748D01*
X1073Y3748D01*
X1073Y3748D01*
X1073Y3748D01*
X1073Y3748D01*
X1073Y3748D01*
Y3748D01*
X1076Y3749D01*
X1076Y3748D01*
X1076Y3748D01*
X1077Y3747D01*
X1077Y3747D01*
X1077Y3746D01*
X1077Y3746D01*
X1077Y3746D01*
X1078Y3745D01*
X1078Y3745D01*
X1078Y3745D01*
X1078Y3745D01*
X1078Y3744D01*
X1079Y3744D01*
X1079Y3744D01*
X1079Y3744D01*
X1079Y3744D01*
X1079Y3744D01*
X1079Y3744D01*
X1080Y3743D01*
X1080Y3743D01*
X1081Y3743D01*
X1081Y3743D01*
X1081Y3743D01*
X1082Y3743D01*
X1082Y3743D01*
X1082Y3743D01*
X1083Y3742D01*
X1083Y3742D01*
X1083D01*
X1083Y3742D01*
X1083D01*
X1084Y3742D01*
X1084Y3742D01*
X1085Y3743D01*
X1085Y3743D01*
X1085Y3743D01*
X1086Y3743D01*
X1086Y3743D01*
X1086Y3743D01*
X1087Y3743D01*
X1087Y3743D01*
X1087Y3743D01*
X1087Y3743D01*
X1088Y3744D01*
X1088Y3744D01*
X1088Y3744D01*
X1088Y3744D01*
X1088Y3744D01*
X1088Y3744D01*
X1089Y3744D01*
X1089Y3745D01*
X1089Y3745D01*
X1090Y3745D01*
X1090Y3746D01*
X1090Y3746D01*
X1090Y3746D01*
X1090Y3746D01*
X1090Y3747D01*
X1090Y3747D01*
X1091Y3747D01*
X1091Y3747D01*
X1091Y3747D01*
X1091Y3747D01*
X1091Y3748D01*
X1091Y3748D01*
X1091Y3749D01*
X1091Y3749D01*
X1091Y3750D01*
X1091Y3750D01*
X1091Y3751D01*
X1091Y3751D01*
X1092Y3752D01*
X1092Y3752D01*
X1092Y3752D01*
X1092Y3752D01*
Y3753D01*
Y3753D01*
Y3753D01*
X1092Y3753D01*
X1092Y3754D01*
X1091Y3755D01*
X1091Y3755D01*
X1091Y3755D01*
X1091Y3756D01*
X1091Y3756D01*
X1091Y3756D01*
X1091Y3757D01*
X1091Y3757D01*
X1091Y3757D01*
X1091Y3757D01*
X1091Y3758D01*
X1091Y3758D01*
Y3758D01*
X1091Y3758D01*
X1090Y3758D01*
X1090Y3759D01*
X1090Y3759D01*
X1090Y3760D01*
X1090Y3760D01*
X1089Y3760D01*
X1089Y3760D01*
X1089Y3761D01*
X1089Y3761D01*
X1089Y3761D01*
X1088Y3761D01*
X1088Y3761D01*
X1088Y3761D01*
X1088Y3761D01*
X1088Y3761D01*
X1088Y3762D01*
X1087Y3762D01*
X1087Y3762D01*
X1086Y3762D01*
X1086Y3762D01*
X1086Y3762D01*
X1085Y3763D01*
X1085Y3763D01*
X1085Y3763D01*
X1084Y3763D01*
X1084Y3763D01*
X1084Y3763D01*
X1083Y3763D01*
X1083D01*
X1083Y3763D01*
X1082Y3763D01*
X1082Y3763D01*
X1081Y3763D01*
X1081Y3762D01*
X1081Y3762D01*
X1080Y3762D01*
X1080Y3762D01*
X1080Y3762D01*
X1080Y3762D01*
X1079Y3762D01*
X1079Y3762D01*
X1079Y3762D01*
X1079Y3762D01*
X1079Y3762D01*
X1079Y3762D01*
X1079Y3761D01*
X1078Y3761D01*
X1078Y3761D01*
X1078Y3760D01*
X1078Y3760D01*
X1077Y3760D01*
X1077Y3759D01*
X1077Y3759D01*
X1077Y3759D01*
X1077Y3758D01*
X1077Y3758D01*
X1077Y3758D01*
X1077Y3758D01*
X1076Y3758D01*
X1076Y3758D01*
X1076Y3758D01*
X1073Y3758D01*
X1073Y3759D01*
X1074Y3760D01*
X1074Y3760D01*
X1074Y3761D01*
X1074Y3761D01*
X1075Y3762D01*
X1075Y3762D01*
X1075Y3762D01*
X1076Y3763D01*
X1076Y3763D01*
X1076Y3763D01*
X1076Y3763D01*
X1077Y3763D01*
X1077Y3764D01*
X1077Y3764D01*
X1077Y3764D01*
X1077Y3764D01*
X1078Y3764D01*
X1078Y3765D01*
X1079Y3765D01*
X1079Y3765D01*
X1080Y3765D01*
X1080Y3765D01*
X1081Y3765D01*
X1081Y3765D01*
X1082Y3766D01*
X1082Y3766D01*
X1082Y3766D01*
X1083Y3766D01*
X1083Y3766D01*
X1083D01*
X1084Y3766D01*
D02*
G37*
G36*
X3515Y3710D02*
X3516Y3710D01*
X3516Y3709D01*
X3516Y3708D01*
X3517Y3708D01*
X3517Y3708D01*
X3517Y3708D01*
X3517Y3708D01*
X3518Y3707D01*
X3518Y3707D01*
X3518Y3707D01*
X3518Y3707D01*
X3518Y3707D01*
X3518Y3707D01*
X3519Y3706D01*
X3520Y3706D01*
X3520Y3705D01*
X3521Y3705D01*
X3521Y3705D01*
X3521Y3705D01*
X3522Y3704D01*
X3522Y3704D01*
X3522Y3704D01*
X3522Y3704D01*
X3522Y3704D01*
X3522Y3704D01*
X3523Y3704D01*
Y3701D01*
X3522Y3701D01*
X3521Y3701D01*
X3521Y3702D01*
X3520Y3702D01*
X3520Y3702D01*
X3520Y3702D01*
X3520Y3702D01*
X3520Y3702D01*
X3519Y3702D01*
X3519Y3702D01*
X3519Y3703D01*
X3519Y3703D01*
X3519Y3703D01*
X3518Y3703D01*
X3518Y3703D01*
X3518Y3704D01*
X3518Y3704D01*
X3517Y3704D01*
X3517Y3704D01*
X3517Y3704D01*
X3517Y3704D01*
X3517Y3704D01*
X3517Y3705D01*
X3516Y3705D01*
X3516Y3705D01*
X3516Y3705D01*
X3516Y3705D01*
Y3685D01*
X3513D01*
Y3710D01*
X3515D01*
X3515Y3710D01*
D02*
G37*
G36*
X3505Y3697D02*
X3502Y3697D01*
X3502Y3697D01*
X3501Y3697D01*
X3501Y3698D01*
X3501Y3698D01*
X3500Y3698D01*
X3500Y3698D01*
X3500Y3698D01*
X3500Y3698D01*
X3500Y3698D01*
X3500D01*
X3500Y3699D01*
X3499Y3699D01*
X3499Y3699D01*
X3498Y3699D01*
X3498Y3699D01*
X3498Y3699D01*
X3498Y3699D01*
X3498D01*
X3497Y3699D01*
X3497D01*
X3497Y3699D01*
X3496Y3699D01*
X3496Y3699D01*
X3496Y3699D01*
X3495Y3699D01*
X3495Y3698D01*
X3495Y3698D01*
X3494Y3698D01*
X3494Y3698D01*
X3494Y3698D01*
X3494Y3698D01*
X3494Y3698D01*
X3494Y3698D01*
X3493Y3698D01*
X3493Y3697D01*
X3493Y3697D01*
X3493Y3697D01*
X3493Y3697D01*
X3493Y3697D01*
X3493Y3696D01*
X3492Y3696D01*
X3492Y3695D01*
X3492Y3695D01*
X3492Y3695D01*
X3492Y3694D01*
X3492Y3694D01*
X3492Y3694D01*
X3492Y3694D01*
Y3694D01*
X3492Y3693D01*
Y3693D01*
Y3693D01*
X3492Y3693D01*
X3492Y3692D01*
X3492Y3692D01*
X3492Y3691D01*
X3492Y3691D01*
X3492Y3691D01*
X3493Y3690D01*
X3493Y3690D01*
X3493Y3690D01*
X3493Y3689D01*
X3493Y3689D01*
X3493Y3689D01*
X3493Y3689D01*
X3493Y3689D01*
X3493Y3689D01*
X3493Y3689D01*
X3494Y3689D01*
X3494Y3688D01*
X3494Y3688D01*
X3495Y3688D01*
X3495Y3688D01*
X3495Y3688D01*
X3496Y3687D01*
X3496Y3687D01*
X3496Y3687D01*
X3496Y3687D01*
X3497Y3687D01*
X3497Y3687D01*
X3497D01*
X3497Y3687D01*
X3497D01*
X3498Y3687D01*
X3498Y3687D01*
X3498Y3687D01*
X3499Y3687D01*
X3499Y3687D01*
X3499Y3688D01*
X3499Y3688D01*
X3500Y3688D01*
X3500Y3688D01*
X3500Y3688D01*
X3500Y3688D01*
X3500Y3688D01*
X3500Y3688D01*
X3500Y3688D01*
X3500Y3688D01*
X3500Y3688D01*
X3501Y3689D01*
X3501Y3689D01*
X3501Y3689D01*
X3501Y3689D01*
X3501Y3690D01*
X3502Y3690D01*
X3502Y3691D01*
X3502Y3691D01*
X3502Y3691D01*
X3502Y3691D01*
X3502Y3691D01*
X3502Y3692D01*
X3502Y3692D01*
X3502Y3692D01*
Y3692D01*
X3505Y3692D01*
X3505Y3691D01*
X3505Y3690D01*
X3505Y3690D01*
X3505Y3689D01*
X3505Y3689D01*
X3504Y3689D01*
X3504Y3688D01*
X3504Y3688D01*
X3504Y3688D01*
X3504Y3687D01*
X3503Y3687D01*
X3503Y3687D01*
X3503Y3687D01*
X3503Y3687D01*
X3503Y3687D01*
X3503Y3686D01*
X3502Y3686D01*
X3502Y3686D01*
X3502Y3686D01*
X3501Y3685D01*
X3501Y3685D01*
X3500Y3685D01*
X3500Y3685D01*
X3499Y3685D01*
X3499Y3685D01*
X3498Y3685D01*
X3498Y3685D01*
X3498Y3685D01*
X3498Y3685D01*
X3497Y3685D01*
X3497D01*
X3496Y3685D01*
X3496Y3685D01*
X3495Y3685D01*
X3494Y3685D01*
X3494Y3685D01*
X3493Y3686D01*
X3493Y3686D01*
X3492Y3686D01*
X3492Y3686D01*
X3492Y3687D01*
X3491Y3687D01*
X3491Y3687D01*
X3491Y3687D01*
X3491Y3688D01*
X3491Y3688D01*
X3491Y3688D01*
X3490Y3688D01*
X3490Y3689D01*
X3490Y3689D01*
X3489Y3690D01*
X3489Y3690D01*
X3489Y3691D01*
X3489Y3691D01*
X3489Y3692D01*
X3489Y3692D01*
X3489Y3692D01*
X3489Y3693D01*
X3489Y3693D01*
X3489Y3693D01*
X3489Y3693D01*
Y3693D01*
Y3693D01*
Y3694D01*
Y3694D01*
X3489Y3694D01*
X3489Y3695D01*
X3489Y3695D01*
X3489Y3696D01*
X3489Y3696D01*
X3489Y3697D01*
X3490Y3697D01*
X3490Y3698D01*
X3490Y3698D01*
X3490Y3699D01*
X3490Y3699D01*
X3491Y3699D01*
X3491Y3699D01*
X3491Y3699D01*
X3491Y3699D01*
X3491Y3699D01*
X3491Y3700D01*
X3492Y3700D01*
X3492Y3700D01*
X3493Y3701D01*
X3493Y3701D01*
X3494Y3701D01*
X3494Y3701D01*
X3495Y3701D01*
X3495Y3702D01*
X3495Y3702D01*
X3496Y3702D01*
X3496Y3702D01*
X3496Y3702D01*
X3496Y3702D01*
X3496D01*
X3497Y3702D01*
X3497Y3702D01*
X3498Y3702D01*
X3498Y3701D01*
X3499Y3701D01*
X3499Y3701D01*
X3499Y3701D01*
X3500Y3701D01*
X3500Y3701D01*
X3500Y3701D01*
X3501Y3700D01*
X3501Y3700D01*
X3501Y3700D01*
X3501Y3700D01*
X3501Y3700D01*
X3501Y3700D01*
X3500Y3707D01*
X3490D01*
Y3710D01*
X3502D01*
X3505Y3697D01*
D02*
G37*
G36*
X3539Y3711D02*
X3539Y3711D01*
X3540Y3710D01*
X3540Y3710D01*
X3541Y3710D01*
X3542Y3710D01*
X3542Y3710D01*
X3542Y3710D01*
X3543Y3710D01*
X3543Y3710D01*
X3543Y3709D01*
X3544Y3709D01*
X3544Y3709D01*
X3544Y3709D01*
X3544Y3709D01*
X3544Y3709D01*
X3545Y3709D01*
X3545Y3708D01*
X3546Y3708D01*
X3546Y3708D01*
X3546Y3707D01*
X3547Y3707D01*
X3547Y3707D01*
X3547Y3706D01*
X3548Y3706D01*
X3548Y3706D01*
X3548Y3705D01*
X3548Y3705D01*
X3548Y3705D01*
X3548Y3705D01*
X3548Y3705D01*
X3549Y3705D01*
X3549Y3704D01*
X3549Y3704D01*
X3549Y3703D01*
X3549Y3702D01*
X3550Y3702D01*
X3550Y3701D01*
X3550Y3701D01*
X3550Y3700D01*
X3550Y3700D01*
X3550Y3699D01*
X3550Y3699D01*
X3550Y3698D01*
Y3698D01*
X3550Y3698D01*
Y3698D01*
Y3698D01*
Y3698D01*
Y3698D01*
Y3698D01*
X3550Y3697D01*
X3550Y3696D01*
X3550Y3696D01*
X3550Y3695D01*
X3550Y3695D01*
X3550Y3694D01*
X3549Y3694D01*
X3549Y3693D01*
X3549Y3693D01*
X3549Y3692D01*
X3549Y3692D01*
X3549Y3692D01*
X3549Y3691D01*
X3549Y3691D01*
X3549Y3691D01*
X3549Y3691D01*
Y3691D01*
X3548Y3690D01*
X3548Y3690D01*
X3548Y3689D01*
X3548Y3689D01*
X3547Y3689D01*
X3547Y3688D01*
X3547Y3688D01*
X3546Y3687D01*
X3546Y3687D01*
X3546Y3687D01*
X3545Y3687D01*
X3545Y3687D01*
X3545Y3686D01*
X3545Y3686D01*
X3545Y3686D01*
X3545Y3686D01*
X3544Y3686D01*
X3544Y3686D01*
X3543Y3685D01*
X3543Y3685D01*
X3542Y3685D01*
X3542Y3685D01*
X3541Y3685D01*
X3541Y3685D01*
X3540Y3685D01*
X3540Y3685D01*
X3539Y3685D01*
X3539Y3685D01*
X3539D01*
X3538Y3685D01*
X3538D01*
X3537Y3685D01*
X3537Y3685D01*
X3536Y3685D01*
X3535Y3685D01*
X3535Y3685D01*
X3534Y3685D01*
X3534Y3685D01*
X3533Y3686D01*
X3533Y3686D01*
X3533Y3686D01*
X3532Y3686D01*
X3532Y3686D01*
X3532Y3687D01*
X3532Y3687D01*
X3532Y3687D01*
X3532Y3687D01*
X3531Y3687D01*
X3531Y3688D01*
X3530Y3688D01*
X3530Y3689D01*
X3529Y3689D01*
X3529Y3690D01*
X3529Y3690D01*
X3529Y3691D01*
X3528Y3691D01*
X3528Y3692D01*
X3528Y3692D01*
X3528Y3692D01*
X3528Y3693D01*
X3528Y3693D01*
X3528Y3693D01*
X3528Y3693D01*
X3528Y3693D01*
X3528Y3693D01*
Y3693D01*
X3531Y3694D01*
X3531Y3693D01*
X3531Y3693D01*
X3532Y3692D01*
X3532Y3692D01*
X3532Y3691D01*
X3532Y3691D01*
X3532Y3691D01*
X3533Y3690D01*
X3533Y3690D01*
X3533Y3690D01*
X3533Y3690D01*
X3533Y3689D01*
X3534Y3689D01*
X3534Y3689D01*
X3534Y3689D01*
X3534Y3689D01*
X3534Y3689D01*
X3534Y3689D01*
X3535Y3688D01*
X3535Y3688D01*
X3536Y3688D01*
X3536Y3688D01*
X3536Y3688D01*
X3537Y3688D01*
X3537Y3688D01*
X3537Y3688D01*
X3538Y3687D01*
X3538Y3687D01*
X3538D01*
X3538Y3687D01*
X3538D01*
X3539Y3687D01*
X3539Y3687D01*
X3540Y3688D01*
X3540Y3688D01*
X3540Y3688D01*
X3541Y3688D01*
X3541Y3688D01*
X3541Y3688D01*
X3542Y3688D01*
X3542Y3688D01*
X3542Y3688D01*
X3542Y3688D01*
X3543Y3689D01*
X3543Y3689D01*
X3543Y3689D01*
X3543Y3689D01*
X3543Y3689D01*
X3543Y3689D01*
X3544Y3689D01*
X3544Y3690D01*
X3544Y3690D01*
X3545Y3690D01*
X3545Y3691D01*
X3545Y3691D01*
X3545Y3691D01*
X3545Y3691D01*
X3545Y3692D01*
X3545Y3692D01*
X3546Y3692D01*
X3546Y3692D01*
X3546Y3692D01*
X3546Y3692D01*
X3546Y3693D01*
X3546Y3693D01*
X3546Y3694D01*
X3546Y3694D01*
X3546Y3695D01*
X3546Y3695D01*
X3546Y3696D01*
X3546Y3696D01*
X3547Y3697D01*
X3547Y3697D01*
X3547Y3697D01*
X3547Y3697D01*
Y3698D01*
Y3698D01*
Y3698D01*
X3547Y3698D01*
X3547Y3699D01*
X3546Y3700D01*
X3546Y3700D01*
X3546Y3700D01*
X3546Y3701D01*
X3546Y3701D01*
X3546Y3701D01*
X3546Y3702D01*
X3546Y3702D01*
X3546Y3702D01*
X3546Y3702D01*
X3546Y3703D01*
X3546Y3703D01*
Y3703D01*
X3546Y3703D01*
X3545Y3703D01*
X3545Y3704D01*
X3545Y3704D01*
X3545Y3705D01*
X3545Y3705D01*
X3544Y3705D01*
X3544Y3705D01*
X3544Y3706D01*
X3544Y3706D01*
X3544Y3706D01*
X3543Y3706D01*
X3543Y3706D01*
X3543Y3706D01*
X3543Y3706D01*
X3543Y3706D01*
X3543Y3707D01*
X3542Y3707D01*
X3542Y3707D01*
X3541Y3707D01*
X3541Y3707D01*
X3541Y3707D01*
X3540Y3708D01*
X3540Y3708D01*
X3540Y3708D01*
X3539Y3708D01*
X3539Y3708D01*
X3539Y3708D01*
X3538Y3708D01*
X3538D01*
X3538Y3708D01*
X3537Y3708D01*
X3537Y3708D01*
X3536Y3708D01*
X3536Y3707D01*
X3536Y3707D01*
X3535Y3707D01*
X3535Y3707D01*
X3535Y3707D01*
X3535Y3707D01*
X3534Y3707D01*
X3534Y3707D01*
X3534Y3707D01*
X3534Y3707D01*
X3534Y3707D01*
X3534Y3707D01*
X3534Y3706D01*
X3533Y3706D01*
X3533Y3706D01*
X3533Y3705D01*
X3533Y3705D01*
X3532Y3705D01*
X3532Y3704D01*
X3532Y3704D01*
X3532Y3704D01*
X3532Y3703D01*
X3532Y3703D01*
X3532Y3703D01*
X3532Y3703D01*
X3531Y3703D01*
X3531Y3703D01*
X3531Y3703D01*
X3528Y3703D01*
X3528Y3704D01*
X3529Y3705D01*
X3529Y3705D01*
X3529Y3706D01*
X3529Y3706D01*
X3530Y3707D01*
X3530Y3707D01*
X3530Y3707D01*
X3531Y3708D01*
X3531Y3708D01*
X3531Y3708D01*
X3531Y3708D01*
X3532Y3708D01*
X3532Y3709D01*
X3532Y3709D01*
X3532Y3709D01*
X3532Y3709D01*
X3533Y3709D01*
X3533Y3710D01*
X3534Y3710D01*
X3534Y3710D01*
X3535Y3710D01*
X3535Y3710D01*
X3536Y3710D01*
X3536Y3710D01*
X3537Y3711D01*
X3537Y3711D01*
X3537Y3711D01*
X3538Y3711D01*
X3538Y3711D01*
X3538D01*
X3539Y3711D01*
D02*
G37*
G36*
X12338Y6615D02*
X12338Y6615D01*
X12338Y6614D01*
X12338Y6614D01*
X12338Y6614D01*
X12339Y6614D01*
X12339Y6613D01*
X12340Y6613D01*
X12340Y6613D01*
X12340Y6612D01*
X12341Y6612D01*
X12342Y6612D01*
X12342Y6611D01*
X12343Y6611D01*
X12344Y6610D01*
X12345Y6610D01*
X12345D01*
X12345Y6610D01*
X12345Y6610D01*
X12345Y6610D01*
X12345Y6610D01*
X12345Y6610D01*
X12345Y6610D01*
X12345Y6609D01*
X12345Y6609D01*
X12346Y6609D01*
X12346Y6609D01*
X12347Y6609D01*
X12347Y6609D01*
X12348Y6608D01*
X12349Y6608D01*
X12349Y6608D01*
X12350Y6607D01*
X12351Y6607D01*
X12352Y6607D01*
X12352Y6606D01*
X12353Y6606D01*
X12353Y6606D01*
X12353Y6606D01*
X12354Y6606D01*
X12354Y6606D01*
X12354Y6606D01*
X12354Y6606D01*
X12355Y6606D01*
X12355Y6606D01*
X12356Y6606D01*
X12356Y6606D01*
X12357Y6605D01*
X12358Y6605D01*
X12358Y6605D01*
X12359Y6605D01*
X12359Y6605D01*
X12360Y6605D01*
Y6602D01*
X12360D01*
X12360D01*
X12360Y6602D01*
X12360D01*
X12359Y6602D01*
X12359Y6602D01*
X12359Y6602D01*
X12358Y6602D01*
X12358Y6602D01*
X12357Y6602D01*
X12357Y6602D01*
X12356Y6602D01*
X12355Y6602D01*
X12354Y6603D01*
X12354Y6603D01*
X12353Y6603D01*
X12353D01*
X12353Y6603D01*
X12353Y6603D01*
X12353Y6603D01*
X12353Y6603D01*
X12353Y6603D01*
X12352Y6603D01*
X12352Y6603D01*
X12352Y6603D01*
X12351Y6603D01*
X12351Y6604D01*
X12350Y6604D01*
X12350Y6604D01*
X12349Y6604D01*
X12348Y6605D01*
X12348Y6605D01*
X12347Y6605D01*
X12346Y6605D01*
X12346Y6606D01*
X12345Y6606D01*
X12345D01*
X12345Y6606D01*
X12345Y6606D01*
X12345Y6606D01*
X12345Y6606D01*
X12344Y6606D01*
X12344Y6607D01*
X12344Y6607D01*
X12343Y6607D01*
X12343Y6607D01*
X12343Y6608D01*
X12342Y6608D01*
X12342Y6608D01*
X12341Y6609D01*
X12340Y6609D01*
X12339Y6610D01*
X12339Y6610D01*
X12338Y6611D01*
Y6598D01*
X12335D01*
Y6615D01*
X12338D01*
X12338Y6615D01*
D02*
G37*
G36*
X12353Y6594D02*
X12353D01*
X12353Y6594D01*
X12354Y6594D01*
X12354Y6594D01*
X12354Y6594D01*
X12355Y6594D01*
X12356Y6594D01*
X12356Y6594D01*
X12356Y6593D01*
X12357Y6593D01*
X12357Y6593D01*
X12357D01*
X12357Y6593D01*
X12357Y6593D01*
X12357Y6593D01*
X12357Y6593D01*
X12358Y6593D01*
X12358Y6593D01*
X12358Y6593D01*
X12358Y6592D01*
X12358Y6592D01*
X12359Y6592D01*
X12359Y6592D01*
X12359Y6592D01*
X12359Y6591D01*
X12359Y6591D01*
X12360Y6591D01*
X12360Y6591D01*
X12360Y6591D01*
X12360Y6591D01*
X12360Y6590D01*
X12360Y6590D01*
X12360Y6590D01*
X12360Y6590D01*
X12360Y6590D01*
X12360Y6589D01*
X12360Y6589D01*
X12360Y6589D01*
X12360Y6588D01*
X12360Y6588D01*
X12361Y6588D01*
X12361Y6587D01*
X12361Y6587D01*
Y6587D01*
X12361Y6587D01*
X12361Y6586D01*
X12361Y6586D01*
X12360Y6586D01*
X12360Y6585D01*
X12360Y6585D01*
X12360Y6585D01*
X12360Y6584D01*
X12360Y6584D01*
X12360Y6583D01*
X12360Y6583D01*
X12359Y6582D01*
X12359Y6582D01*
X12359Y6582D01*
X12359Y6582D01*
X12359Y6582D01*
X12358Y6582D01*
X12358Y6581D01*
X12358Y6581D01*
X12358Y6581D01*
X12358Y6581D01*
X12357Y6581D01*
X12357Y6581D01*
X12356Y6581D01*
X12356Y6580D01*
X12355Y6580D01*
X12355Y6580D01*
X12354Y6580D01*
X12354Y6580D01*
X12353D01*
X12353Y6583D01*
X12353D01*
X12353D01*
X12353Y6583D01*
X12353Y6583D01*
X12353Y6583D01*
X12354Y6583D01*
X12354Y6583D01*
X12354Y6583D01*
X12355Y6583D01*
X12355Y6584D01*
X12356Y6584D01*
X12356Y6584D01*
X12356Y6584D01*
X12357Y6584D01*
X12357Y6584D01*
X12357Y6584D01*
X12357Y6584D01*
X12357Y6584D01*
X12357Y6584D01*
X12357Y6585D01*
X12357Y6585D01*
X12357Y6585D01*
X12357Y6585D01*
X12357Y6585D01*
X12357Y6585D01*
X12357Y6586D01*
X12358Y6586D01*
X12358Y6586D01*
X12358Y6587D01*
X12358Y6587D01*
Y6587D01*
X12358Y6587D01*
Y6587D01*
X12358Y6587D01*
X12358Y6588D01*
X12357Y6588D01*
X12357Y6588D01*
X12357Y6589D01*
X12357Y6589D01*
Y6589D01*
X12357Y6589D01*
X12357Y6589D01*
X12357Y6589D01*
X12357Y6589D01*
X12356Y6590D01*
X12356Y6590D01*
X12356Y6590D01*
X12355Y6590D01*
X12355D01*
X12355Y6590D01*
X12355Y6590D01*
X12355Y6590D01*
X12355Y6590D01*
X12355Y6590D01*
X12355Y6590D01*
X12355Y6590D01*
X12355Y6590D01*
X12354Y6590D01*
X12354Y6591D01*
X12354Y6591D01*
X12353Y6591D01*
X12353Y6591D01*
X12353Y6591D01*
X12352D01*
X12335D01*
Y6594D01*
X12352D01*
X12352D01*
X12352D01*
X12352D01*
X12353Y6594D01*
D02*
G37*
G36*
X10914Y-158D02*
Y-158D01*
Y-158D01*
Y-158D01*
X10914Y-158D01*
Y-158D01*
X10914Y-159D01*
X10914Y-159D01*
X10914Y-160D01*
X10914Y-160D01*
X10914Y-160D01*
X10914Y-161D01*
X10914Y-162D01*
X10913Y-162D01*
X10913Y-162D01*
X10913Y-163D01*
Y-163D01*
X10913Y-163D01*
X10913Y-163D01*
X10913Y-163D01*
X10913Y-163D01*
X10913Y-163D01*
X10913Y-163D01*
X10913Y-164D01*
X10912Y-164D01*
X10912Y-164D01*
X10912Y-164D01*
X10912Y-164D01*
X10912Y-165D01*
X10911Y-165D01*
X10911Y-165D01*
X10911Y-165D01*
X10911Y-165D01*
X10911Y-165D01*
X10911Y-165D01*
X10910Y-165D01*
X10910Y-165D01*
X10910Y-166D01*
X10910Y-166D01*
X10910Y-166D01*
X10909Y-166D01*
X10909Y-166D01*
X10909Y-166D01*
X10908Y-166D01*
X10908Y-166D01*
X10908Y-166D01*
X10907Y-166D01*
X10907Y-166D01*
X10907D01*
X10907Y-166D01*
X10906Y-166D01*
X10906Y-166D01*
X10906Y-166D01*
X10905Y-166D01*
X10905Y-166D01*
X10905Y-166D01*
X10904Y-166D01*
X10904Y-166D01*
X10903Y-165D01*
X10903Y-165D01*
X10902Y-165D01*
X10902Y-165D01*
X10902Y-164D01*
X10902Y-164D01*
X10902Y-164D01*
X10902Y-164D01*
X10901Y-164D01*
X10901Y-164D01*
X10901Y-163D01*
X10901Y-163D01*
X10901Y-163D01*
X10901Y-162D01*
X10901Y-162D01*
X10900Y-162D01*
X10900Y-161D01*
X10900Y-161D01*
X10900Y-160D01*
X10900Y-159D01*
Y-159D01*
X10903Y-158D01*
Y-158D01*
Y-158D01*
X10903Y-158D01*
X10903Y-159D01*
X10903Y-159D01*
X10903Y-159D01*
X10903Y-159D01*
X10903Y-160D01*
X10903Y-160D01*
X10904Y-161D01*
X10904Y-161D01*
X10904Y-162D01*
X10904Y-162D01*
X10904Y-162D01*
X10904Y-162D01*
X10904Y-162D01*
X10904Y-162D01*
X10904Y-162D01*
X10904Y-162D01*
X10905Y-162D01*
X10905Y-163D01*
X10905Y-163D01*
X10905Y-163D01*
X10905Y-163D01*
X10905Y-163D01*
X10906Y-163D01*
X10906Y-163D01*
X10906Y-163D01*
X10907Y-163D01*
X10907Y-163D01*
X10907D01*
X10907Y-163D01*
X10907D01*
X10907Y-163D01*
X10908Y-163D01*
X10908Y-163D01*
X10908Y-163D01*
X10909Y-163D01*
X10909Y-163D01*
X10909D01*
X10909Y-163D01*
X10909Y-163D01*
X10909Y-162D01*
X10909Y-162D01*
X10910Y-162D01*
X10910Y-162D01*
X10910Y-161D01*
X10910Y-161D01*
Y-161D01*
X10910Y-161D01*
X10910Y-161D01*
X10910Y-161D01*
X10910Y-161D01*
X10910Y-161D01*
X10910Y-160D01*
X10910Y-160D01*
X10910Y-160D01*
X10910Y-160D01*
X10911Y-160D01*
X10911Y-159D01*
X10911Y-159D01*
X10911Y-159D01*
X10911Y-158D01*
Y-158D01*
Y-141D01*
X10914D01*
Y-158D01*
D02*
G37*
G36*
X10951Y-157D02*
X10954D01*
Y-160D01*
X10951D01*
Y-166D01*
X10948D01*
Y-160D01*
X10937D01*
Y-157D01*
X10948Y-141D01*
X10951D01*
Y-157D01*
D02*
G37*
G36*
X10930Y-166D02*
X10927D01*
Y-146D01*
X10927Y-146D01*
X10927Y-146D01*
X10927Y-146D01*
X10926Y-146D01*
X10926Y-146D01*
X10926Y-146D01*
X10926Y-147D01*
X10926Y-147D01*
X10926Y-147D01*
X10925Y-147D01*
X10925Y-147D01*
X10925Y-147D01*
X10925Y-148D01*
X10924Y-148D01*
X10924Y-148D01*
X10924Y-148D01*
X10924Y-148D01*
X10924Y-148D01*
X10923Y-148D01*
X10923Y-148D01*
X10923Y-149D01*
X10923Y-149D01*
X10923Y-149D01*
X10922Y-149D01*
X10922Y-149D01*
X10921Y-150D01*
X10920Y-150D01*
Y-147D01*
X10921Y-147D01*
X10921Y-147D01*
X10921Y-147D01*
X10921Y-147D01*
X10921Y-146D01*
X10921Y-146D01*
X10922Y-146D01*
X10922Y-146D01*
X10922Y-146D01*
X10923Y-146D01*
X10923Y-145D01*
X10924Y-144D01*
X10925Y-144D01*
X10925Y-144D01*
X10925Y-144D01*
X10925Y-144D01*
X10925Y-144D01*
X10925Y-143D01*
X10926Y-143D01*
X10926Y-143D01*
X10926Y-143D01*
X10926Y-143D01*
X10927Y-142D01*
X10927Y-142D01*
X10927Y-141D01*
X10928Y-141D01*
X10928Y-140D01*
X10930D01*
Y-166D01*
D02*
G37*
G36*
X4495Y4137D02*
X4473D01*
Y4124D01*
X4470D01*
Y4140D01*
X4495D01*
Y4137D01*
D02*
G37*
G36*
X4482Y4122D02*
X4482D01*
X4483Y4122D01*
X4483D01*
X4483Y4122D01*
X4484Y4122D01*
X4484Y4122D01*
X4484Y4122D01*
X4485Y4121D01*
X4486Y4121D01*
X4487Y4121D01*
X4488Y4121D01*
X4488Y4121D01*
X4489Y4121D01*
X4490Y4120D01*
X4491Y4120D01*
X4491Y4120D01*
X4492Y4119D01*
X4492Y4119D01*
X4492Y4119D01*
X4492Y4119D01*
X4493Y4119D01*
X4493Y4119D01*
X4493Y4119D01*
X4493Y4118D01*
X4493Y4118D01*
X4494Y4118D01*
X4494Y4117D01*
X4494Y4117D01*
X4494Y4116D01*
X4495Y4116D01*
X4495Y4115D01*
X4495Y4115D01*
X4495Y4114D01*
X4495Y4113D01*
X4495Y4113D01*
Y4113D01*
X4495Y4112D01*
Y4112D01*
X4495Y4112D01*
X4495Y4112D01*
X4495Y4111D01*
X4495Y4111D01*
X4495Y4111D01*
X4495Y4110D01*
X4495Y4110D01*
X4495Y4109D01*
X4494Y4109D01*
X4494Y4109D01*
X4494Y4108D01*
X4494Y4108D01*
X4494Y4108D01*
X4494Y4108D01*
X4493Y4108D01*
X4493Y4107D01*
X4493Y4107D01*
X4493Y4107D01*
X4493Y4107D01*
X4492Y4107D01*
X4492Y4107D01*
X4492Y4106D01*
X4491Y4106D01*
X4491Y4106D01*
X4491Y4106D01*
X4490Y4106D01*
X4490Y4106D01*
X4489Y4106D01*
X4489Y4109D01*
X4489D01*
X4489Y4109D01*
X4489Y4109D01*
X4489Y4109D01*
X4489Y4109D01*
X4489Y4109D01*
X4490Y4109D01*
X4490Y4109D01*
X4491Y4109D01*
X4491Y4109D01*
X4491Y4110D01*
X4491Y4110D01*
X4491Y4110D01*
X4491Y4110D01*
X4492Y4110D01*
X4492Y4110D01*
X4492Y4110D01*
X4492Y4110D01*
X4492Y4110D01*
X4492Y4111D01*
X4492Y4111D01*
X4492Y4111D01*
X4492Y4111D01*
X4493Y4112D01*
X4493Y4112D01*
X4493Y4112D01*
X4493Y4113D01*
X4493Y4113D01*
Y4113D01*
X4493Y4113D01*
Y4113D01*
X4493Y4113D01*
X4493Y4114D01*
X4493Y4114D01*
X4493Y4114D01*
X4492Y4115D01*
X4492Y4115D01*
X4492Y4115D01*
X4492Y4115D01*
X4492Y4115D01*
X4492Y4116D01*
X4492Y4116D01*
X4492Y4116D01*
X4492Y4116D01*
X4491Y4116D01*
X4491Y4116D01*
X4491Y4116D01*
X4491Y4116D01*
X4491Y4117D01*
X4490Y4117D01*
X4490Y4117D01*
X4490Y4117D01*
X4490Y4117D01*
X4489Y4118D01*
X4489Y4118D01*
X4489D01*
X4489Y4118D01*
X4489Y4118D01*
X4488Y4118D01*
X4488Y4118D01*
X4488Y4118D01*
X4488Y4118D01*
X4487Y4118D01*
X4487Y4118D01*
X4486Y4118D01*
X4486Y4118D01*
X4485Y4118D01*
X4485Y4119D01*
X4484Y4119D01*
X4484Y4119D01*
X4483Y4119D01*
X4483Y4119D01*
X4483Y4119D01*
X4483Y4119D01*
X4483Y4118D01*
X4483Y4118D01*
X4484Y4118D01*
X4484Y4118D01*
X4484Y4118D01*
X4484Y4118D01*
X4484Y4117D01*
X4485Y4117D01*
X4485Y4116D01*
X4485Y4116D01*
X4486Y4116D01*
X4486Y4116D01*
X4486Y4116D01*
X4486Y4116D01*
X4486Y4116D01*
X4486Y4115D01*
X4486Y4115D01*
X4486Y4115D01*
X4486Y4115D01*
X4486Y4115D01*
X4486Y4114D01*
X4486Y4114D01*
X4486Y4113D01*
X4486Y4113D01*
Y4112D01*
X4486Y4112D01*
X4486Y4112D01*
X4486Y4112D01*
X4486Y4111D01*
X4486Y4111D01*
X4486Y4111D01*
X4486Y4110D01*
X4486Y4110D01*
X4486Y4109D01*
X4485Y4109D01*
X4485Y4109D01*
X4485Y4108D01*
X4484Y4108D01*
X4484Y4107D01*
X4484Y4107D01*
X4484Y4107D01*
X4484Y4107D01*
X4484Y4107D01*
X4483Y4107D01*
X4483Y4107D01*
X4483Y4106D01*
X4482Y4106D01*
X4482Y4106D01*
X4482Y4106D01*
X4481Y4106D01*
X4481Y4105D01*
X4480Y4105D01*
X4479Y4105D01*
X4479Y4105D01*
X4478Y4105D01*
X4478D01*
X4478D01*
X4478D01*
X4478Y4105D01*
X4478Y4105D01*
X4477Y4105D01*
X4477Y4105D01*
X4477Y4105D01*
X4476Y4105D01*
X4476Y4105D01*
X4476Y4105D01*
X4475Y4105D01*
X4475Y4106D01*
X4475Y4106D01*
X4474Y4106D01*
X4474Y4106D01*
X4474Y4106D01*
X4474Y4106D01*
X4474Y4106D01*
X4473Y4106D01*
X4473Y4106D01*
X4473Y4107D01*
X4473Y4107D01*
X4473Y4107D01*
X4472Y4107D01*
X4472Y4107D01*
X4472Y4107D01*
X4472Y4108D01*
X4471Y4108D01*
X4471Y4108D01*
X4471Y4109D01*
X4471Y4109D01*
X4471Y4109D01*
X4471Y4109D01*
X4471Y4109D01*
X4470Y4109D01*
X4470Y4109D01*
X4470Y4110D01*
X4470Y4110D01*
X4470Y4110D01*
X4470Y4110D01*
X4470Y4111D01*
X4470Y4111D01*
X4470Y4111D01*
X4470Y4112D01*
X4470Y4112D01*
X4470Y4113D01*
X4470Y4113D01*
Y4113D01*
X4470Y4113D01*
Y4113D01*
X4470Y4114D01*
X4470Y4114D01*
X4470Y4114D01*
X4470Y4115D01*
X4470Y4115D01*
X4470Y4116D01*
X4470Y4116D01*
X4471Y4117D01*
X4471Y4117D01*
X4471Y4118D01*
X4471Y4118D01*
X4472Y4119D01*
X4472Y4119D01*
X4472Y4119D01*
X4473Y4119D01*
X4473Y4119D01*
X4473Y4120D01*
X4473Y4120D01*
X4473Y4120D01*
X4474Y4120D01*
X4474Y4120D01*
X4474Y4120D01*
X4474Y4120D01*
X4475Y4120D01*
X4475Y4121D01*
X4475Y4121D01*
X4476Y4121D01*
X4476Y4121D01*
X4476Y4121D01*
X4477Y4121D01*
X4477Y4121D01*
X4478Y4121D01*
X4478Y4121D01*
X4478Y4121D01*
X4479Y4122D01*
X4479Y4122D01*
X4480Y4122D01*
X4481Y4122D01*
X4481Y4122D01*
X4482D01*
X4482D01*
X4482D01*
X4482D01*
X4482D01*
X4482Y4122D01*
D02*
G37*
G36*
X4495Y4232D02*
X4473D01*
Y4219D01*
X4470D01*
Y4235D01*
X4495D01*
Y4232D01*
D02*
G37*
G36*
X4477Y4213D02*
X4477D01*
X4477Y4213D01*
X4477Y4213D01*
X4476Y4213D01*
X4476Y4213D01*
X4476Y4213D01*
X4476Y4213D01*
X4476Y4213D01*
X4475Y4213D01*
X4475Y4213D01*
X4474Y4212D01*
X4474Y4212D01*
X4474Y4212D01*
X4474Y4212D01*
X4473Y4212D01*
X4473Y4212D01*
X4473Y4212D01*
X4473Y4212D01*
X4473Y4211D01*
X4473Y4211D01*
X4473Y4211D01*
X4473Y4211D01*
X4473Y4211D01*
X4473Y4211D01*
X4473Y4210D01*
X4472Y4210D01*
X4472Y4210D01*
X4472Y4209D01*
X4472Y4209D01*
X4472Y4209D01*
X4472Y4208D01*
Y4208D01*
X4472Y4208D01*
Y4208D01*
X4472Y4208D01*
X4472Y4208D01*
X4472Y4207D01*
X4472Y4207D01*
X4472Y4207D01*
X4473Y4207D01*
X4473Y4206D01*
X4473Y4206D01*
X4473Y4206D01*
X4473Y4205D01*
X4474Y4205D01*
X4474Y4205D01*
X4474Y4205D01*
X4474Y4205D01*
X4474Y4205D01*
X4474Y4204D01*
X4474Y4204D01*
X4474Y4204D01*
X4475Y4204D01*
X4475Y4204D01*
X4475Y4204D01*
X4476Y4204D01*
X4476Y4203D01*
X4476Y4203D01*
X4477Y4203D01*
X4477Y4203D01*
X4478Y4203D01*
X4478Y4203D01*
X4478D01*
X4478D01*
X4479Y4203D01*
X4479D01*
X4479Y4203D01*
X4479Y4203D01*
X4479Y4203D01*
X4480Y4203D01*
X4480Y4203D01*
X4480Y4203D01*
X4481Y4204D01*
X4481Y4204D01*
X4482Y4204D01*
X4482Y4204D01*
X4482Y4204D01*
X4482Y4205D01*
X4482Y4205D01*
X4483Y4205D01*
X4483Y4205D01*
X4483Y4205D01*
X4483Y4205D01*
X4483Y4205D01*
X4483Y4205D01*
X4483Y4206D01*
X4483Y4206D01*
X4483Y4206D01*
X4484Y4207D01*
X4484Y4207D01*
X4484Y4207D01*
X4484Y4208D01*
X4484Y4208D01*
X4484Y4209D01*
Y4209D01*
X4484Y4209D01*
Y4209D01*
X4484Y4209D01*
X4484Y4209D01*
X4484Y4209D01*
X4484Y4210D01*
X4484Y4210D01*
X4484Y4211D01*
X4483Y4211D01*
Y4211D01*
X4483Y4211D01*
X4483Y4211D01*
X4483Y4211D01*
X4483Y4212D01*
X4483Y4212D01*
X4483Y4212D01*
X4482Y4213D01*
X4482Y4213D01*
X4482Y4213D01*
X4482Y4216D01*
X4495Y4214D01*
Y4201D01*
X4492D01*
Y4211D01*
X4485Y4212D01*
X4485Y4212D01*
X4485Y4212D01*
X4485Y4212D01*
X4485Y4212D01*
X4485Y4212D01*
X4486Y4212D01*
X4486Y4211D01*
X4486Y4211D01*
X4486Y4211D01*
X4486Y4210D01*
X4486Y4210D01*
X4486Y4210D01*
X4487Y4209D01*
X4487Y4209D01*
X4487Y4208D01*
X4487Y4208D01*
Y4208D01*
X4487Y4207D01*
X4487Y4207D01*
X4487Y4207D01*
X4487Y4207D01*
X4487Y4206D01*
X4486Y4206D01*
X4486Y4205D01*
X4486Y4205D01*
X4486Y4204D01*
X4486Y4204D01*
X4485Y4203D01*
X4485Y4203D01*
X4485Y4203D01*
X4484Y4202D01*
X4484Y4202D01*
X4484Y4202D01*
X4484Y4202D01*
X4484Y4202D01*
X4484Y4202D01*
X4484Y4201D01*
X4483Y4201D01*
X4483Y4201D01*
X4482Y4201D01*
X4482Y4201D01*
X4481Y4200D01*
X4481Y4200D01*
X4480Y4200D01*
X4480Y4200D01*
X4479Y4200D01*
X4479Y4200D01*
X4479D01*
X4478D01*
X4478D01*
X4478D01*
X4478Y4200D01*
X4478Y4200D01*
X4478Y4200D01*
X4477Y4200D01*
X4477Y4200D01*
X4477Y4200D01*
X4476Y4200D01*
X4476Y4200D01*
X4475Y4201D01*
X4475Y4201D01*
X4474Y4201D01*
X4474Y4201D01*
X4473Y4202D01*
X4473Y4202D01*
X4473Y4202D01*
X4473Y4202D01*
X4472Y4202D01*
X4472Y4202D01*
X4472Y4203D01*
X4472Y4203D01*
X4471Y4203D01*
X4471Y4204D01*
X4471Y4204D01*
X4471Y4205D01*
X4470Y4205D01*
X4470Y4206D01*
X4470Y4206D01*
X4470Y4207D01*
X4470Y4208D01*
X4470Y4208D01*
Y4209D01*
X4470Y4209D01*
X4470Y4209D01*
X4470Y4209D01*
X4470Y4210D01*
X4470Y4210D01*
X4470Y4210D01*
X4470Y4211D01*
X4470Y4211D01*
X4470Y4212D01*
X4470Y4212D01*
X4471Y4213D01*
X4471Y4213D01*
X4471Y4214D01*
X4471Y4214D01*
X4472Y4214D01*
X4472Y4214D01*
X4472Y4214D01*
X4472Y4214D01*
X4472Y4215D01*
X4472Y4215D01*
X4473Y4215D01*
X4473Y4215D01*
X4473Y4215D01*
X4474Y4216D01*
X4474Y4216D01*
X4474Y4216D01*
X4475Y4216D01*
X4475Y4216D01*
X4476Y4216D01*
X4477Y4217D01*
X4477Y4213D01*
D02*
G37*
G36*
X4127Y-140D02*
X4128D01*
X4128Y-141D01*
X4128Y-141D01*
X4128Y-141D01*
X4129Y-141D01*
X4129Y-141D01*
X4130Y-141D01*
X4130Y-141D01*
X4130Y-141D01*
X4131Y-141D01*
X4131Y-142D01*
X4132Y-142D01*
X4132Y-142D01*
X4132Y-142D01*
X4132Y-142D01*
X4132Y-142D01*
X4132Y-142D01*
X4132Y-143D01*
X4132Y-143D01*
X4133Y-143D01*
X4133Y-143D01*
X4133Y-144D01*
X4133Y-144D01*
X4133Y-144D01*
X4134Y-145D01*
X4134Y-145D01*
X4134Y-146D01*
X4134Y-146D01*
X4134Y-147D01*
X4131Y-147D01*
Y-147D01*
X4131Y-147D01*
X4131Y-147D01*
X4131Y-147D01*
X4131Y-147D01*
X4131Y-146D01*
X4131Y-146D01*
X4131Y-146D01*
X4130Y-145D01*
X4130Y-145D01*
X4130Y-144D01*
X4130Y-144D01*
X4130Y-144D01*
X4130Y-144D01*
X4130Y-144D01*
X4130Y-144D01*
X4130Y-144D01*
X4129Y-144D01*
X4129Y-144D01*
X4129Y-144D01*
X4129Y-144D01*
X4129Y-143D01*
X4128Y-143D01*
X4128Y-143D01*
X4128Y-143D01*
X4127Y-143D01*
X4127Y-143D01*
X4127Y-143D01*
X4127D01*
X4127Y-143D01*
X4126D01*
X4126Y-143D01*
X4126Y-143D01*
X4126Y-143D01*
X4126Y-143D01*
X4125Y-143D01*
X4125Y-144D01*
X4124Y-144D01*
X4124Y-144D01*
X4124Y-144D01*
X4124Y-144D01*
X4124Y-144D01*
X4124Y-144D01*
X4124Y-144D01*
X4124Y-144D01*
X4124Y-144D01*
X4123Y-145D01*
X4123Y-145D01*
X4123Y-145D01*
X4123Y-145D01*
X4123Y-146D01*
X4122Y-146D01*
X4122Y-146D01*
X4122Y-147D01*
X4122Y-147D01*
Y-147D01*
X4122Y-147D01*
X4122Y-147D01*
X4122Y-147D01*
X4122Y-148D01*
X4122Y-148D01*
X4122Y-148D01*
X4121Y-148D01*
X4121Y-149D01*
X4121Y-149D01*
X4121Y-150D01*
X4121Y-150D01*
X4121Y-151D01*
X4121Y-151D01*
X4121Y-152D01*
X4121Y-153D01*
X4121Y-153D01*
X4121Y-153D01*
X4121Y-153D01*
X4121Y-152D01*
X4121Y-152D01*
X4121Y-152D01*
X4122Y-152D01*
X4122Y-152D01*
X4122Y-152D01*
X4122Y-151D01*
X4123Y-151D01*
X4123Y-151D01*
X4123Y-150D01*
X4124Y-150D01*
X4124Y-150D01*
X4124Y-150D01*
X4124Y-150D01*
X4124Y-150D01*
X4124Y-150D01*
X4124Y-150D01*
X4125Y-150D01*
X4125Y-150D01*
X4125Y-150D01*
X4125Y-150D01*
X4126Y-150D01*
X4127Y-149D01*
X4127Y-149D01*
X4127D01*
X4127Y-149D01*
X4128Y-149D01*
X4128Y-149D01*
X4128Y-150D01*
X4129Y-150D01*
X4129Y-150D01*
X4129Y-150D01*
X4130Y-150D01*
X4130Y-150D01*
X4131Y-150D01*
X4131Y-151D01*
X4132Y-151D01*
X4132Y-151D01*
X4132Y-152D01*
X4132Y-152D01*
X4133Y-152D01*
X4133Y-152D01*
X4133Y-152D01*
X4133Y-152D01*
X4133Y-153D01*
X4133Y-153D01*
X4134Y-153D01*
X4134Y-154D01*
X4134Y-154D01*
X4134Y-155D01*
X4134Y-155D01*
X4134Y-156D01*
X4135Y-156D01*
X4135Y-157D01*
X4135Y-158D01*
Y-158D01*
Y-158D01*
Y-158D01*
X4135Y-158D01*
X4135Y-158D01*
X4135Y-158D01*
X4135Y-159D01*
X4134Y-159D01*
X4134Y-159D01*
X4134Y-160D01*
X4134Y-160D01*
X4134Y-160D01*
X4134Y-161D01*
X4134Y-161D01*
X4134Y-162D01*
X4134Y-162D01*
X4134Y-162D01*
X4134Y-162D01*
X4133Y-162D01*
X4133Y-162D01*
X4133Y-162D01*
X4133Y-163D01*
X4133Y-163D01*
X4133Y-163D01*
X4133Y-163D01*
X4132Y-164D01*
X4132Y-164D01*
X4132Y-164D01*
X4132Y-164D01*
X4131Y-165D01*
X4131Y-165D01*
X4131Y-165D01*
X4131Y-165D01*
X4131Y-165D01*
X4131Y-165D01*
X4130Y-165D01*
X4130Y-165D01*
X4130Y-165D01*
X4130Y-166D01*
X4130Y-166D01*
X4129Y-166D01*
X4129Y-166D01*
X4129Y-166D01*
X4128Y-166D01*
X4128Y-166D01*
X4128Y-166D01*
X4127Y-166D01*
X4127Y-166D01*
X4127D01*
X4126Y-166D01*
X4126D01*
X4126Y-166D01*
X4126Y-166D01*
X4125Y-166D01*
X4125Y-166D01*
X4124Y-166D01*
X4124Y-166D01*
X4123Y-165D01*
X4123Y-165D01*
X4122Y-165D01*
X4122Y-165D01*
X4121Y-164D01*
X4121Y-164D01*
X4120Y-163D01*
X4120Y-163D01*
X4120Y-163D01*
X4120Y-163D01*
X4120Y-163D01*
X4120Y-162D01*
X4120Y-162D01*
X4120Y-162D01*
X4120Y-162D01*
X4119Y-162D01*
X4119Y-161D01*
X4119Y-161D01*
X4119Y-161D01*
X4119Y-160D01*
X4119Y-160D01*
X4119Y-160D01*
X4119Y-159D01*
X4119Y-159D01*
X4118Y-159D01*
X4118Y-158D01*
X4118Y-158D01*
X4118Y-157D01*
X4118Y-157D01*
X4118Y-156D01*
X4118Y-156D01*
X4118Y-155D01*
X4118Y-155D01*
Y-154D01*
Y-154D01*
Y-154D01*
Y-154D01*
Y-154D01*
X4118Y-153D01*
Y-153D01*
X4118Y-153D01*
Y-153D01*
X4118Y-152D01*
X4118Y-152D01*
X4118Y-152D01*
X4118Y-151D01*
X4118Y-151D01*
X4118Y-150D01*
X4118Y-149D01*
X4119Y-148D01*
X4119Y-147D01*
X4119Y-146D01*
X4119Y-146D01*
X4120Y-145D01*
X4120Y-144D01*
X4120Y-144D01*
X4120Y-144D01*
X4121Y-143D01*
X4121Y-143D01*
X4121Y-143D01*
X4121Y-143D01*
X4121Y-143D01*
X4121Y-143D01*
X4122Y-142D01*
X4122Y-142D01*
X4122Y-142D01*
X4123Y-142D01*
X4123Y-141D01*
X4124Y-141D01*
X4124Y-141D01*
X4125Y-141D01*
X4126Y-141D01*
X4126Y-140D01*
X4127Y-140D01*
X4127D01*
X4127Y-140D01*
D02*
G37*
G36*
X4114Y-158D02*
Y-158D01*
Y-158D01*
Y-158D01*
X4114Y-158D01*
Y-158D01*
X4114Y-159D01*
X4114Y-159D01*
X4114Y-160D01*
X4114Y-160D01*
X4114Y-160D01*
X4114Y-161D01*
X4114Y-162D01*
X4113Y-162D01*
X4113Y-162D01*
X4113Y-163D01*
Y-163D01*
X4113Y-163D01*
X4113Y-163D01*
X4113Y-163D01*
X4113Y-163D01*
X4113Y-163D01*
X4113Y-163D01*
X4113Y-164D01*
X4112Y-164D01*
X4112Y-164D01*
X4112Y-164D01*
X4112Y-164D01*
X4112Y-165D01*
X4111Y-165D01*
X4111Y-165D01*
X4111Y-165D01*
X4111Y-165D01*
X4111Y-165D01*
X4111Y-165D01*
X4110Y-165D01*
X4110Y-165D01*
X4110Y-166D01*
X4110Y-166D01*
X4110Y-166D01*
X4109Y-166D01*
X4109Y-166D01*
X4109Y-166D01*
X4108Y-166D01*
X4108Y-166D01*
X4108Y-166D01*
X4107Y-166D01*
X4107Y-166D01*
X4107D01*
X4107Y-166D01*
X4106Y-166D01*
X4106Y-166D01*
X4106Y-166D01*
X4105Y-166D01*
X4105Y-166D01*
X4105Y-166D01*
X4104Y-166D01*
X4104Y-166D01*
X4103Y-165D01*
X4103Y-165D01*
X4102Y-165D01*
X4102Y-165D01*
X4102Y-164D01*
X4102Y-164D01*
X4102Y-164D01*
X4102Y-164D01*
X4101Y-164D01*
X4101Y-164D01*
X4101Y-163D01*
X4101Y-163D01*
X4101Y-163D01*
X4101Y-162D01*
X4101Y-162D01*
X4100Y-162D01*
X4100Y-161D01*
X4100Y-161D01*
X4100Y-160D01*
X4100Y-159D01*
Y-159D01*
X4103Y-158D01*
Y-158D01*
Y-158D01*
X4103Y-158D01*
X4103Y-159D01*
X4103Y-159D01*
X4103Y-159D01*
X4103Y-159D01*
X4103Y-160D01*
X4103Y-160D01*
X4104Y-161D01*
X4104Y-161D01*
X4104Y-162D01*
X4104Y-162D01*
X4104Y-162D01*
X4104Y-162D01*
X4104Y-162D01*
X4104Y-162D01*
X4104Y-162D01*
X4104Y-162D01*
X4105Y-162D01*
X4105Y-163D01*
X4105Y-163D01*
X4105Y-163D01*
X4105Y-163D01*
X4105Y-163D01*
X4106Y-163D01*
X4106Y-163D01*
X4106Y-163D01*
X4107Y-163D01*
X4107Y-163D01*
X4107D01*
X4107Y-163D01*
X4107D01*
X4107Y-163D01*
X4108Y-163D01*
X4108Y-163D01*
X4108Y-163D01*
X4109Y-163D01*
X4109Y-163D01*
X4109D01*
X4109Y-163D01*
X4109Y-163D01*
X4109Y-162D01*
X4109Y-162D01*
X4110Y-162D01*
X4110Y-162D01*
X4110Y-161D01*
X4110Y-161D01*
Y-161D01*
X4110Y-161D01*
X4110Y-161D01*
X4110Y-161D01*
X4110Y-161D01*
X4110Y-161D01*
X4110Y-160D01*
X4110Y-160D01*
X4110Y-160D01*
X4110Y-160D01*
X4111Y-160D01*
X4111Y-159D01*
X4111Y-159D01*
X4111Y-159D01*
X4111Y-158D01*
Y-158D01*
Y-141D01*
X4114D01*
Y-158D01*
D02*
G37*
G36*
X4156Y-144D02*
X4142D01*
Y-151D01*
X4154D01*
Y-154D01*
X4142D01*
Y-166D01*
X4139D01*
Y-141D01*
X4156D01*
Y-144D01*
D02*
G37*
G36*
X3502Y-140D02*
X3503D01*
X3503Y-141D01*
X3503Y-141D01*
X3503Y-141D01*
X3504Y-141D01*
X3504Y-141D01*
X3505Y-141D01*
X3505Y-141D01*
X3505Y-141D01*
X3506Y-141D01*
X3506Y-142D01*
X3507Y-142D01*
X3507Y-142D01*
X3507Y-142D01*
X3507Y-142D01*
X3507Y-142D01*
X3507Y-142D01*
X3507Y-143D01*
X3507Y-143D01*
X3508Y-143D01*
X3508Y-143D01*
X3508Y-144D01*
X3508Y-144D01*
X3508Y-144D01*
X3509Y-145D01*
X3509Y-145D01*
X3509Y-146D01*
X3509Y-146D01*
X3509Y-147D01*
X3506Y-147D01*
Y-147D01*
X3506Y-147D01*
X3506Y-147D01*
X3506Y-147D01*
X3506Y-147D01*
X3506Y-146D01*
X3506Y-146D01*
X3506Y-146D01*
X3505Y-145D01*
X3505Y-145D01*
X3505Y-144D01*
X3505Y-144D01*
X3505Y-144D01*
X3505Y-144D01*
X3505Y-144D01*
X3505Y-144D01*
X3505Y-144D01*
X3504Y-144D01*
X3504Y-144D01*
X3504Y-144D01*
X3504Y-144D01*
X3504Y-143D01*
X3503Y-143D01*
X3503Y-143D01*
X3503Y-143D01*
X3502Y-143D01*
X3502Y-143D01*
X3502Y-143D01*
X3502D01*
X3502Y-143D01*
X3501D01*
X3501Y-143D01*
X3501Y-143D01*
X3501Y-143D01*
X3501Y-143D01*
X3500Y-143D01*
X3500Y-144D01*
X3499Y-144D01*
X3499Y-144D01*
X3499Y-144D01*
X3499Y-144D01*
X3499Y-144D01*
X3499Y-144D01*
X3499Y-144D01*
X3499Y-144D01*
X3499Y-144D01*
X3498Y-145D01*
X3498Y-145D01*
X3498Y-145D01*
X3498Y-145D01*
X3498Y-146D01*
X3497Y-146D01*
X3497Y-146D01*
X3497Y-147D01*
X3497Y-147D01*
Y-147D01*
X3497Y-147D01*
X3497Y-147D01*
X3497Y-147D01*
X3497Y-148D01*
X3497Y-148D01*
X3497Y-148D01*
X3496Y-148D01*
X3496Y-149D01*
X3496Y-149D01*
X3496Y-150D01*
X3496Y-150D01*
X3496Y-151D01*
X3496Y-151D01*
X3496Y-152D01*
X3496Y-153D01*
X3496Y-153D01*
X3496Y-153D01*
X3496Y-153D01*
X3496Y-152D01*
X3496Y-152D01*
X3496Y-152D01*
X3497Y-152D01*
X3497Y-152D01*
X3497Y-152D01*
X3497Y-151D01*
X3498Y-151D01*
X3498Y-151D01*
X3498Y-150D01*
X3499Y-150D01*
X3499Y-150D01*
X3499Y-150D01*
X3499Y-150D01*
X3499Y-150D01*
X3499Y-150D01*
X3499Y-150D01*
X3500Y-150D01*
X3500Y-150D01*
X3500Y-150D01*
X3500Y-150D01*
X3501Y-150D01*
X3502Y-149D01*
X3502Y-149D01*
X3502D01*
X3502Y-149D01*
X3503Y-149D01*
X3503Y-149D01*
X3503Y-150D01*
X3504Y-150D01*
X3504Y-150D01*
X3504Y-150D01*
X3505Y-150D01*
X3505Y-150D01*
X3506Y-150D01*
X3506Y-151D01*
X3507Y-151D01*
X3507Y-151D01*
X3507Y-152D01*
X3507Y-152D01*
X3508Y-152D01*
X3508Y-152D01*
X3508Y-152D01*
X3508Y-152D01*
X3508Y-153D01*
X3508Y-153D01*
X3509Y-153D01*
X3509Y-154D01*
X3509Y-154D01*
X3509Y-155D01*
X3509Y-155D01*
X3509Y-156D01*
X3510Y-156D01*
X3510Y-157D01*
X3510Y-158D01*
Y-158D01*
Y-158D01*
Y-158D01*
X3510Y-158D01*
X3510Y-158D01*
X3510Y-158D01*
X3510Y-159D01*
X3509Y-159D01*
X3509Y-159D01*
X3509Y-160D01*
X3509Y-160D01*
X3509Y-160D01*
X3509Y-161D01*
X3509Y-161D01*
X3509Y-162D01*
X3509Y-162D01*
X3509Y-162D01*
X3509Y-162D01*
X3508Y-162D01*
X3508Y-162D01*
X3508Y-162D01*
X3508Y-163D01*
X3508Y-163D01*
X3508Y-163D01*
X3508Y-163D01*
X3507Y-164D01*
X3507Y-164D01*
X3507Y-164D01*
X3507Y-164D01*
X3506Y-165D01*
X3506Y-165D01*
X3506Y-165D01*
X3506Y-165D01*
X3506Y-165D01*
X3506Y-165D01*
X3505Y-165D01*
X3505Y-165D01*
X3505Y-165D01*
X3505Y-166D01*
X3505Y-166D01*
X3504Y-166D01*
X3504Y-166D01*
X3504Y-166D01*
X3503Y-166D01*
X3503Y-166D01*
X3503Y-166D01*
X3502Y-166D01*
X3502Y-166D01*
X3502D01*
X3501Y-166D01*
X3501D01*
X3501Y-166D01*
X3501Y-166D01*
X3500Y-166D01*
X3500Y-166D01*
X3499Y-166D01*
X3499Y-166D01*
X3498Y-165D01*
X3498Y-165D01*
X3497Y-165D01*
X3497Y-165D01*
X3496Y-164D01*
X3496Y-164D01*
X3495Y-163D01*
X3495Y-163D01*
X3495Y-163D01*
X3495Y-163D01*
X3495Y-163D01*
X3495Y-162D01*
X3495Y-162D01*
X3495Y-162D01*
X3495Y-162D01*
X3494Y-162D01*
X3494Y-161D01*
X3494Y-161D01*
X3494Y-161D01*
X3494Y-160D01*
X3494Y-160D01*
X3494Y-160D01*
X3494Y-159D01*
X3494Y-159D01*
X3493Y-159D01*
X3493Y-158D01*
X3493Y-158D01*
X3493Y-157D01*
X3493Y-157D01*
X3493Y-156D01*
X3493Y-156D01*
X3493Y-155D01*
X3493Y-155D01*
Y-154D01*
Y-154D01*
Y-154D01*
Y-154D01*
Y-154D01*
X3493Y-153D01*
Y-153D01*
X3493Y-153D01*
Y-153D01*
X3493Y-152D01*
X3493Y-152D01*
X3493Y-152D01*
X3493Y-151D01*
X3493Y-151D01*
X3493Y-150D01*
X3493Y-149D01*
X3494Y-148D01*
X3494Y-147D01*
X3494Y-146D01*
X3494Y-146D01*
X3495Y-145D01*
X3495Y-144D01*
X3495Y-144D01*
X3495Y-144D01*
X3496Y-143D01*
X3496Y-143D01*
X3496Y-143D01*
X3496Y-143D01*
X3496Y-143D01*
X3496Y-143D01*
X3497Y-142D01*
X3497Y-142D01*
X3497Y-142D01*
X3498Y-142D01*
X3498Y-141D01*
X3499Y-141D01*
X3499Y-141D01*
X3500Y-141D01*
X3501Y-141D01*
X3501Y-140D01*
X3502Y-140D01*
X3502D01*
X3502Y-140D01*
D02*
G37*
G36*
X3489Y-158D02*
Y-158D01*
Y-158D01*
Y-158D01*
X3489Y-158D01*
Y-158D01*
X3489Y-159D01*
X3489Y-159D01*
X3489Y-160D01*
X3489Y-160D01*
X3489Y-160D01*
X3489Y-161D01*
X3489Y-162D01*
X3488Y-162D01*
X3488Y-162D01*
X3488Y-163D01*
Y-163D01*
X3488Y-163D01*
X3488Y-163D01*
X3488Y-163D01*
X3488Y-163D01*
X3488Y-163D01*
X3488Y-163D01*
X3488Y-164D01*
X3487Y-164D01*
X3487Y-164D01*
X3487Y-164D01*
X3487Y-164D01*
X3487Y-165D01*
X3486Y-165D01*
X3486Y-165D01*
X3486Y-165D01*
X3486Y-165D01*
X3486Y-165D01*
X3486Y-165D01*
X3485Y-165D01*
X3485Y-165D01*
X3485Y-166D01*
X3485Y-166D01*
X3485Y-166D01*
X3484Y-166D01*
X3484Y-166D01*
X3484Y-166D01*
X3483Y-166D01*
X3483Y-166D01*
X3483Y-166D01*
X3482Y-166D01*
X3482Y-166D01*
X3482D01*
X3482Y-166D01*
X3481Y-166D01*
X3481Y-166D01*
X3481Y-166D01*
X3480Y-166D01*
X3480Y-166D01*
X3480Y-166D01*
X3479Y-166D01*
X3479Y-166D01*
X3478Y-165D01*
X3478Y-165D01*
X3477Y-165D01*
X3477Y-165D01*
X3477Y-164D01*
X3477Y-164D01*
X3477Y-164D01*
X3477Y-164D01*
X3476Y-164D01*
X3476Y-164D01*
X3476Y-163D01*
X3476Y-163D01*
X3476Y-163D01*
X3476Y-162D01*
X3476Y-162D01*
X3475Y-162D01*
X3475Y-161D01*
X3475Y-161D01*
X3475Y-160D01*
X3475Y-159D01*
Y-159D01*
X3478Y-158D01*
Y-158D01*
Y-158D01*
X3478Y-158D01*
X3478Y-159D01*
X3478Y-159D01*
X3478Y-159D01*
X3478Y-159D01*
X3478Y-160D01*
X3478Y-160D01*
X3479Y-161D01*
X3479Y-161D01*
X3479Y-162D01*
X3479Y-162D01*
X3479Y-162D01*
X3479Y-162D01*
X3479Y-162D01*
X3479Y-162D01*
X3479Y-162D01*
X3479Y-162D01*
X3480Y-162D01*
X3480Y-163D01*
X3480Y-163D01*
X3480Y-163D01*
X3480Y-163D01*
X3480Y-163D01*
X3481Y-163D01*
X3481Y-163D01*
X3481Y-163D01*
X3482Y-163D01*
X3482Y-163D01*
X3482D01*
X3482Y-163D01*
X3482D01*
X3482Y-163D01*
X3483Y-163D01*
X3483Y-163D01*
X3483Y-163D01*
X3484Y-163D01*
X3484Y-163D01*
X3484D01*
X3484Y-163D01*
X3484Y-163D01*
X3484Y-162D01*
X3484Y-162D01*
X3485Y-162D01*
X3485Y-162D01*
X3485Y-161D01*
X3485Y-161D01*
Y-161D01*
X3485Y-161D01*
X3485Y-161D01*
X3485Y-161D01*
X3485Y-161D01*
X3485Y-161D01*
X3485Y-160D01*
X3485Y-160D01*
X3485Y-160D01*
X3485Y-160D01*
X3486Y-160D01*
X3486Y-159D01*
X3486Y-159D01*
X3486Y-159D01*
X3486Y-158D01*
Y-158D01*
Y-141D01*
X3489D01*
Y-158D01*
D02*
G37*
G36*
X3532Y-144D02*
X3517D01*
Y-151D01*
X3531D01*
Y-154D01*
X3517D01*
Y-163D01*
X3533D01*
Y-166D01*
X3514D01*
Y-141D01*
X3532D01*
Y-144D01*
D02*
G37*
G36*
X2877Y-140D02*
X2878D01*
X2878Y-141D01*
X2878Y-141D01*
X2878Y-141D01*
X2879Y-141D01*
X2879Y-141D01*
X2880Y-141D01*
X2880Y-141D01*
X2880Y-141D01*
X2881Y-141D01*
X2881Y-142D01*
X2882Y-142D01*
X2882Y-142D01*
X2882Y-142D01*
X2882Y-142D01*
X2882Y-142D01*
X2882Y-142D01*
X2882Y-143D01*
X2882Y-143D01*
X2883Y-143D01*
X2883Y-143D01*
X2883Y-144D01*
X2883Y-144D01*
X2883Y-144D01*
X2884Y-145D01*
X2884Y-145D01*
X2884Y-146D01*
X2884Y-146D01*
X2884Y-147D01*
X2881Y-147D01*
Y-147D01*
X2881Y-147D01*
X2881Y-147D01*
X2881Y-147D01*
X2881Y-147D01*
X2881Y-146D01*
X2881Y-146D01*
X2881Y-146D01*
X2880Y-145D01*
X2880Y-145D01*
X2880Y-144D01*
X2880Y-144D01*
X2880Y-144D01*
X2880Y-144D01*
X2880Y-144D01*
X2880Y-144D01*
X2880Y-144D01*
X2879Y-144D01*
X2879Y-144D01*
X2879Y-144D01*
X2879Y-144D01*
X2879Y-143D01*
X2878Y-143D01*
X2878Y-143D01*
X2878Y-143D01*
X2877Y-143D01*
X2877Y-143D01*
X2877Y-143D01*
X2877D01*
X2877Y-143D01*
X2876D01*
X2876Y-143D01*
X2876Y-143D01*
X2876Y-143D01*
X2876Y-143D01*
X2875Y-143D01*
X2875Y-144D01*
X2874Y-144D01*
X2874Y-144D01*
X2874Y-144D01*
X2874Y-144D01*
X2874Y-144D01*
X2874Y-144D01*
X2874Y-144D01*
X2874Y-144D01*
X2874Y-144D01*
X2873Y-145D01*
X2873Y-145D01*
X2873Y-145D01*
X2873Y-145D01*
X2873Y-146D01*
X2872Y-146D01*
X2872Y-146D01*
X2872Y-147D01*
X2872Y-147D01*
Y-147D01*
X2872Y-147D01*
X2872Y-147D01*
X2872Y-147D01*
X2872Y-148D01*
X2872Y-148D01*
X2872Y-148D01*
X2871Y-148D01*
X2871Y-149D01*
X2871Y-149D01*
X2871Y-150D01*
X2871Y-150D01*
X2871Y-151D01*
X2871Y-151D01*
X2871Y-152D01*
X2871Y-153D01*
X2871Y-153D01*
X2871Y-153D01*
X2871Y-153D01*
X2871Y-152D01*
X2871Y-152D01*
X2871Y-152D01*
X2872Y-152D01*
X2872Y-152D01*
X2872Y-152D01*
X2872Y-151D01*
X2873Y-151D01*
X2873Y-151D01*
X2873Y-150D01*
X2874Y-150D01*
X2874Y-150D01*
X2874Y-150D01*
X2874Y-150D01*
X2874Y-150D01*
X2874Y-150D01*
X2874Y-150D01*
X2875Y-150D01*
X2875Y-150D01*
X2875Y-150D01*
X2875Y-150D01*
X2876Y-150D01*
X2877Y-149D01*
X2877Y-149D01*
X2877D01*
X2877Y-149D01*
X2878Y-149D01*
X2878Y-149D01*
X2878Y-150D01*
X2879Y-150D01*
X2879Y-150D01*
X2879Y-150D01*
X2880Y-150D01*
X2880Y-150D01*
X2881Y-150D01*
X2881Y-151D01*
X2882Y-151D01*
X2882Y-151D01*
X2882Y-152D01*
X2882Y-152D01*
X2883Y-152D01*
X2883Y-152D01*
X2883Y-152D01*
X2883Y-152D01*
X2883Y-153D01*
X2883Y-153D01*
X2884Y-153D01*
X2884Y-154D01*
X2884Y-154D01*
X2884Y-155D01*
X2884Y-155D01*
X2884Y-156D01*
X2885Y-156D01*
X2885Y-157D01*
X2885Y-158D01*
Y-158D01*
Y-158D01*
Y-158D01*
X2885Y-158D01*
X2885Y-158D01*
X2885Y-158D01*
X2885Y-159D01*
X2884Y-159D01*
X2884Y-159D01*
X2884Y-160D01*
X2884Y-160D01*
X2884Y-160D01*
X2884Y-161D01*
X2884Y-161D01*
X2884Y-162D01*
X2884Y-162D01*
X2884Y-162D01*
X2884Y-162D01*
X2883Y-162D01*
X2883Y-162D01*
X2883Y-162D01*
X2883Y-163D01*
X2883Y-163D01*
X2883Y-163D01*
X2883Y-163D01*
X2882Y-164D01*
X2882Y-164D01*
X2882Y-164D01*
X2882Y-164D01*
X2881Y-165D01*
X2881Y-165D01*
X2881Y-165D01*
X2881Y-165D01*
X2881Y-165D01*
X2881Y-165D01*
X2880Y-165D01*
X2880Y-165D01*
X2880Y-165D01*
X2880Y-166D01*
X2880Y-166D01*
X2879Y-166D01*
X2879Y-166D01*
X2879Y-166D01*
X2878Y-166D01*
X2878Y-166D01*
X2878Y-166D01*
X2877Y-166D01*
X2877Y-166D01*
X2877D01*
X2876Y-166D01*
X2876D01*
X2876Y-166D01*
X2876Y-166D01*
X2875Y-166D01*
X2875Y-166D01*
X2874Y-166D01*
X2874Y-166D01*
X2873Y-165D01*
X2873Y-165D01*
X2872Y-165D01*
X2872Y-165D01*
X2871Y-164D01*
X2871Y-164D01*
X2870Y-163D01*
X2870Y-163D01*
X2870Y-163D01*
X2870Y-163D01*
X2870Y-163D01*
X2870Y-162D01*
X2870Y-162D01*
X2870Y-162D01*
X2870Y-162D01*
X2869Y-162D01*
X2869Y-161D01*
X2869Y-161D01*
X2869Y-161D01*
X2869Y-160D01*
X2869Y-160D01*
X2869Y-160D01*
X2869Y-159D01*
X2869Y-159D01*
X2868Y-159D01*
X2868Y-158D01*
X2868Y-158D01*
X2868Y-157D01*
X2868Y-157D01*
X2868Y-156D01*
X2868Y-156D01*
X2868Y-155D01*
X2868Y-155D01*
Y-154D01*
Y-154D01*
Y-154D01*
Y-154D01*
Y-154D01*
X2868Y-153D01*
Y-153D01*
X2868Y-153D01*
Y-153D01*
X2868Y-152D01*
X2868Y-152D01*
X2868Y-152D01*
X2868Y-151D01*
X2868Y-151D01*
X2868Y-150D01*
X2868Y-149D01*
X2869Y-148D01*
X2869Y-147D01*
X2869Y-146D01*
X2869Y-146D01*
X2870Y-145D01*
X2870Y-144D01*
X2870Y-144D01*
X2870Y-144D01*
X2871Y-143D01*
X2871Y-143D01*
X2871Y-143D01*
X2871Y-143D01*
X2871Y-143D01*
X2871Y-143D01*
X2872Y-142D01*
X2872Y-142D01*
X2872Y-142D01*
X2873Y-142D01*
X2873Y-141D01*
X2874Y-141D01*
X2874Y-141D01*
X2875Y-141D01*
X2876Y-141D01*
X2876Y-140D01*
X2877Y-140D01*
X2877D01*
X2877Y-140D01*
D02*
G37*
G36*
X2864Y-158D02*
Y-158D01*
Y-158D01*
Y-158D01*
X2864Y-158D01*
Y-158D01*
X2864Y-159D01*
X2864Y-159D01*
X2864Y-160D01*
X2864Y-160D01*
X2864Y-160D01*
X2864Y-161D01*
X2864Y-162D01*
X2863Y-162D01*
X2863Y-162D01*
X2863Y-163D01*
Y-163D01*
X2863Y-163D01*
X2863Y-163D01*
X2863Y-163D01*
X2863Y-163D01*
X2863Y-163D01*
X2863Y-163D01*
X2863Y-164D01*
X2862Y-164D01*
X2862Y-164D01*
X2862Y-164D01*
X2862Y-164D01*
X2862Y-165D01*
X2861Y-165D01*
X2861Y-165D01*
X2861Y-165D01*
X2861Y-165D01*
X2861Y-165D01*
X2861Y-165D01*
X2860Y-165D01*
X2860Y-165D01*
X2860Y-166D01*
X2860Y-166D01*
X2860Y-166D01*
X2859Y-166D01*
X2859Y-166D01*
X2859Y-166D01*
X2858Y-166D01*
X2858Y-166D01*
X2858Y-166D01*
X2857Y-166D01*
X2857Y-166D01*
X2857D01*
X2857Y-166D01*
X2856Y-166D01*
X2856Y-166D01*
X2856Y-166D01*
X2855Y-166D01*
X2855Y-166D01*
X2855Y-166D01*
X2854Y-166D01*
X2854Y-166D01*
X2853Y-165D01*
X2853Y-165D01*
X2852Y-165D01*
X2852Y-165D01*
X2852Y-164D01*
X2852Y-164D01*
X2852Y-164D01*
X2852Y-164D01*
X2851Y-164D01*
X2851Y-164D01*
X2851Y-163D01*
X2851Y-163D01*
X2851Y-163D01*
X2851Y-162D01*
X2851Y-162D01*
X2850Y-162D01*
X2850Y-161D01*
X2850Y-161D01*
X2850Y-160D01*
X2850Y-159D01*
Y-159D01*
X2853Y-158D01*
Y-158D01*
Y-158D01*
X2853Y-158D01*
X2853Y-159D01*
X2853Y-159D01*
X2853Y-159D01*
X2853Y-159D01*
X2853Y-160D01*
X2853Y-160D01*
X2854Y-161D01*
X2854Y-161D01*
X2854Y-162D01*
X2854Y-162D01*
X2854Y-162D01*
X2854Y-162D01*
X2854Y-162D01*
X2854Y-162D01*
X2854Y-162D01*
X2854Y-162D01*
X2855Y-162D01*
X2855Y-163D01*
X2855Y-163D01*
X2855Y-163D01*
X2855Y-163D01*
X2855Y-163D01*
X2856Y-163D01*
X2856Y-163D01*
X2856Y-163D01*
X2857Y-163D01*
X2857Y-163D01*
X2857D01*
X2857Y-163D01*
X2857D01*
X2857Y-163D01*
X2858Y-163D01*
X2858Y-163D01*
X2858Y-163D01*
X2859Y-163D01*
X2859Y-163D01*
X2859D01*
X2859Y-163D01*
X2859Y-163D01*
X2859Y-162D01*
X2859Y-162D01*
X2860Y-162D01*
X2860Y-162D01*
X2860Y-161D01*
X2860Y-161D01*
Y-161D01*
X2860Y-161D01*
X2860Y-161D01*
X2860Y-161D01*
X2860Y-161D01*
X2860Y-161D01*
X2860Y-160D01*
X2860Y-160D01*
X2860Y-160D01*
X2860Y-160D01*
X2861Y-160D01*
X2861Y-159D01*
X2861Y-159D01*
X2861Y-159D01*
X2861Y-158D01*
Y-158D01*
Y-141D01*
X2864D01*
Y-158D01*
D02*
G37*
G36*
X2898Y-141D02*
X2899D01*
X2899Y-141D01*
X2899D01*
X2900Y-141D01*
X2901Y-141D01*
X2901Y-141D01*
X2901Y-141D01*
X2902Y-141D01*
X2902Y-141D01*
X2902D01*
X2902Y-141D01*
X2902Y-141D01*
X2902Y-141D01*
X2903Y-141D01*
X2903Y-141D01*
X2903Y-141D01*
X2903Y-141D01*
X2904Y-142D01*
X2905Y-142D01*
X2905Y-142D01*
X2905Y-142D01*
X2906Y-143D01*
X2906Y-143D01*
X2906Y-143D01*
X2906Y-143D01*
X2906Y-143D01*
X2906Y-143D01*
X2906Y-143D01*
X2907Y-144D01*
X2907Y-144D01*
X2907Y-144D01*
X2907Y-145D01*
X2908Y-145D01*
X2908Y-145D01*
X2908Y-146D01*
X2908Y-146D01*
X2909Y-147D01*
X2909Y-147D01*
X2909Y-147D01*
X2909Y-147D01*
X2909Y-147D01*
X2909Y-147D01*
X2909Y-148D01*
X2909Y-148D01*
X2909Y-148D01*
X2909Y-149D01*
X2909Y-149D01*
X2909Y-150D01*
X2910Y-150D01*
X2910Y-151D01*
X2910Y-151D01*
X2910Y-152D01*
X2910Y-152D01*
X2910Y-153D01*
Y-153D01*
Y-153D01*
Y-153D01*
X2910Y-154D01*
Y-154D01*
X2910Y-154D01*
X2910Y-154D01*
X2910Y-155D01*
X2910Y-155D01*
X2910Y-156D01*
X2909Y-156D01*
X2909Y-157D01*
X2909Y-158D01*
Y-158D01*
X2909Y-158D01*
X2909Y-158D01*
X2909Y-158D01*
X2909Y-159D01*
X2909Y-159D01*
X2909Y-159D01*
X2909Y-159D01*
X2908Y-160D01*
X2908Y-161D01*
X2908Y-161D01*
X2907Y-162D01*
X2907Y-162D01*
X2907Y-162D01*
X2907Y-162D01*
X2907Y-162D01*
X2907Y-162D01*
X2907Y-162D01*
X2907Y-163D01*
X2906Y-163D01*
X2906Y-163D01*
X2906Y-164D01*
X2905Y-164D01*
X2905D01*
X2905Y-164D01*
X2905Y-164D01*
X2905Y-164D01*
X2905Y-164D01*
X2905Y-164D01*
X2904Y-164D01*
X2904Y-165D01*
X2904Y-165D01*
X2904Y-165D01*
X2904Y-165D01*
X2903Y-165D01*
X2903Y-165D01*
X2902Y-165D01*
X2902D01*
X2902Y-165D01*
X2902Y-165D01*
X2902Y-165D01*
X2902Y-165D01*
X2901Y-165D01*
X2901Y-165D01*
X2901Y-166D01*
X2901Y-166D01*
X2900Y-166D01*
X2900Y-166D01*
X2900Y-166D01*
X2899Y-166D01*
X2899Y-166D01*
X2898Y-166D01*
X2889D01*
Y-141D01*
X2898D01*
X2898Y-141D01*
D02*
G37*
G36*
X2252Y-140D02*
X2253D01*
X2253Y-141D01*
X2253Y-141D01*
X2253Y-141D01*
X2254Y-141D01*
X2254Y-141D01*
X2255Y-141D01*
X2255Y-141D01*
X2255Y-141D01*
X2256Y-141D01*
X2256Y-142D01*
X2257Y-142D01*
X2257Y-142D01*
X2257Y-142D01*
X2257Y-142D01*
X2257Y-142D01*
X2257Y-142D01*
X2257Y-143D01*
X2257Y-143D01*
X2258Y-143D01*
X2258Y-143D01*
X2258Y-144D01*
X2258Y-144D01*
X2258Y-144D01*
X2259Y-145D01*
X2259Y-145D01*
X2259Y-146D01*
X2259Y-146D01*
X2259Y-147D01*
X2256Y-147D01*
Y-147D01*
X2256Y-147D01*
X2256Y-147D01*
X2256Y-147D01*
X2256Y-147D01*
X2256Y-146D01*
X2256Y-146D01*
X2256Y-146D01*
X2255Y-145D01*
X2255Y-145D01*
X2255Y-144D01*
X2255Y-144D01*
X2255Y-144D01*
X2255Y-144D01*
X2255Y-144D01*
X2255Y-144D01*
X2255Y-144D01*
X2254Y-144D01*
X2254Y-144D01*
X2254Y-144D01*
X2254Y-144D01*
X2254Y-143D01*
X2253Y-143D01*
X2253Y-143D01*
X2253Y-143D01*
X2252Y-143D01*
X2252Y-143D01*
X2252Y-143D01*
X2252D01*
X2252Y-143D01*
X2251D01*
X2251Y-143D01*
X2251Y-143D01*
X2251Y-143D01*
X2251Y-143D01*
X2250Y-143D01*
X2250Y-144D01*
X2249Y-144D01*
X2249Y-144D01*
X2249Y-144D01*
X2249Y-144D01*
X2249Y-144D01*
X2249Y-144D01*
X2249Y-144D01*
X2249Y-144D01*
X2249Y-144D01*
X2248Y-145D01*
X2248Y-145D01*
X2248Y-145D01*
X2248Y-145D01*
X2248Y-146D01*
X2247Y-146D01*
X2247Y-146D01*
X2247Y-147D01*
X2247Y-147D01*
Y-147D01*
X2247Y-147D01*
X2247Y-147D01*
X2247Y-147D01*
X2247Y-148D01*
X2247Y-148D01*
X2247Y-148D01*
X2246Y-148D01*
X2246Y-149D01*
X2246Y-149D01*
X2246Y-150D01*
X2246Y-150D01*
X2246Y-151D01*
X2246Y-151D01*
X2246Y-152D01*
X2246Y-153D01*
X2246Y-153D01*
X2246Y-153D01*
X2246Y-153D01*
X2246Y-152D01*
X2246Y-152D01*
X2246Y-152D01*
X2247Y-152D01*
X2247Y-152D01*
X2247Y-152D01*
X2247Y-151D01*
X2248Y-151D01*
X2248Y-151D01*
X2248Y-150D01*
X2249Y-150D01*
X2249Y-150D01*
X2249Y-150D01*
X2249Y-150D01*
X2249Y-150D01*
X2249Y-150D01*
X2249Y-150D01*
X2250Y-150D01*
X2250Y-150D01*
X2250Y-150D01*
X2250Y-150D01*
X2251Y-150D01*
X2252Y-149D01*
X2252Y-149D01*
X2252D01*
X2252Y-149D01*
X2253Y-149D01*
X2253Y-149D01*
X2253Y-150D01*
X2254Y-150D01*
X2254Y-150D01*
X2254Y-150D01*
X2255Y-150D01*
X2255Y-150D01*
X2256Y-150D01*
X2256Y-151D01*
X2257Y-151D01*
X2257Y-151D01*
X2257Y-152D01*
X2257Y-152D01*
X2258Y-152D01*
X2258Y-152D01*
X2258Y-152D01*
X2258Y-152D01*
X2258Y-153D01*
X2258Y-153D01*
X2259Y-153D01*
X2259Y-154D01*
X2259Y-154D01*
X2259Y-155D01*
X2259Y-155D01*
X2259Y-156D01*
X2260Y-156D01*
X2260Y-157D01*
X2260Y-158D01*
Y-158D01*
Y-158D01*
Y-158D01*
X2260Y-158D01*
X2260Y-158D01*
X2260Y-158D01*
X2260Y-159D01*
X2259Y-159D01*
X2259Y-159D01*
X2259Y-160D01*
X2259Y-160D01*
X2259Y-160D01*
X2259Y-161D01*
X2259Y-161D01*
X2259Y-162D01*
X2259Y-162D01*
X2259Y-162D01*
X2259Y-162D01*
X2258Y-162D01*
X2258Y-162D01*
X2258Y-162D01*
X2258Y-163D01*
X2258Y-163D01*
X2258Y-163D01*
X2258Y-163D01*
X2257Y-164D01*
X2257Y-164D01*
X2257Y-164D01*
X2257Y-164D01*
X2256Y-165D01*
X2256Y-165D01*
X2256Y-165D01*
X2256Y-165D01*
X2256Y-165D01*
X2256Y-165D01*
X2255Y-165D01*
X2255Y-165D01*
X2255Y-165D01*
X2255Y-166D01*
X2255Y-166D01*
X2254Y-166D01*
X2254Y-166D01*
X2254Y-166D01*
X2253Y-166D01*
X2253Y-166D01*
X2253Y-166D01*
X2252Y-166D01*
X2252Y-166D01*
X2252D01*
X2251Y-166D01*
X2251D01*
X2251Y-166D01*
X2251Y-166D01*
X2250Y-166D01*
X2250Y-166D01*
X2249Y-166D01*
X2249Y-166D01*
X2248Y-165D01*
X2248Y-165D01*
X2247Y-165D01*
X2247Y-165D01*
X2246Y-164D01*
X2246Y-164D01*
X2245Y-163D01*
X2245Y-163D01*
X2245Y-163D01*
X2245Y-163D01*
X2245Y-163D01*
X2245Y-162D01*
X2245Y-162D01*
X2245Y-162D01*
X2245Y-162D01*
X2244Y-162D01*
X2244Y-161D01*
X2244Y-161D01*
X2244Y-161D01*
X2244Y-160D01*
X2244Y-160D01*
X2244Y-160D01*
X2244Y-159D01*
X2244Y-159D01*
X2243Y-159D01*
X2243Y-158D01*
X2243Y-158D01*
X2243Y-157D01*
X2243Y-157D01*
X2243Y-156D01*
X2243Y-156D01*
X2243Y-155D01*
X2243Y-155D01*
Y-154D01*
Y-154D01*
Y-154D01*
Y-154D01*
Y-154D01*
X2243Y-153D01*
Y-153D01*
X2243Y-153D01*
Y-153D01*
X2243Y-152D01*
X2243Y-152D01*
X2243Y-152D01*
X2243Y-151D01*
X2243Y-151D01*
X2243Y-150D01*
X2243Y-149D01*
X2244Y-148D01*
X2244Y-147D01*
X2244Y-146D01*
X2244Y-146D01*
X2245Y-145D01*
X2245Y-144D01*
X2245Y-144D01*
X2245Y-144D01*
X2246Y-143D01*
X2246Y-143D01*
X2246Y-143D01*
X2246Y-143D01*
X2246Y-143D01*
X2246Y-143D01*
X2247Y-142D01*
X2247Y-142D01*
X2247Y-142D01*
X2248Y-142D01*
X2248Y-141D01*
X2249Y-141D01*
X2249Y-141D01*
X2250Y-141D01*
X2251Y-141D01*
X2251Y-140D01*
X2252Y-140D01*
X2252D01*
X2252Y-140D01*
D02*
G37*
G36*
X2275Y-140D02*
X2275Y-140D01*
X2276Y-140D01*
X2276Y-140D01*
X2277Y-140D01*
X2277Y-140D01*
X2278Y-140D01*
X2278Y-141D01*
X2279Y-141D01*
X2279Y-141D01*
X2280Y-141D01*
X2280Y-141D01*
X2281Y-142D01*
X2281Y-142D01*
X2281Y-142D01*
X2281Y-142D01*
X2281Y-142D01*
X2282Y-142D01*
X2282Y-143D01*
X2282Y-143D01*
X2282Y-143D01*
X2283Y-143D01*
X2283Y-144D01*
X2283Y-144D01*
X2284Y-145D01*
X2284Y-145D01*
X2284Y-146D01*
X2284Y-146D01*
X2285Y-147D01*
X2285Y-147D01*
X2282Y-148D01*
X2282Y-148D01*
X2281Y-148D01*
X2281Y-148D01*
X2281Y-148D01*
X2281Y-148D01*
X2281Y-147D01*
X2281Y-147D01*
X2281Y-147D01*
X2281Y-146D01*
X2281Y-146D01*
X2280Y-146D01*
X2280Y-145D01*
X2280Y-145D01*
X2280Y-145D01*
X2279Y-144D01*
X2279Y-144D01*
X2279Y-144D01*
X2279Y-144D01*
X2279Y-144D01*
X2279Y-144D01*
X2279Y-144D01*
X2278Y-144D01*
X2278Y-144D01*
X2278Y-144D01*
X2278Y-143D01*
X2277Y-143D01*
X2277Y-143D01*
X2277Y-143D01*
X2276Y-143D01*
X2276Y-143D01*
X2275Y-143D01*
X2275Y-143D01*
X2275D01*
X2274Y-143D01*
X2274Y-143D01*
X2274Y-143D01*
X2273Y-143D01*
X2273Y-143D01*
X2273Y-143D01*
X2272Y-143D01*
X2272Y-143D01*
X2272Y-144D01*
X2271Y-144D01*
X2271Y-144D01*
X2270Y-144D01*
X2270Y-144D01*
X2270Y-144D01*
X2270Y-144D01*
X2270Y-145D01*
X2270Y-145D01*
X2269Y-145D01*
X2269Y-145D01*
X2269Y-145D01*
X2269Y-145D01*
X2269Y-146D01*
X2268Y-146D01*
X2268Y-146D01*
X2268Y-147D01*
X2268Y-147D01*
X2268Y-147D01*
X2267Y-148D01*
X2267Y-148D01*
Y-148D01*
X2267Y-148D01*
X2267Y-148D01*
X2267Y-148D01*
X2267Y-149D01*
X2267Y-149D01*
X2267Y-149D01*
X2267Y-150D01*
X2267Y-150D01*
X2267Y-150D01*
X2267Y-151D01*
X2267Y-151D01*
X2266Y-152D01*
X2266Y-152D01*
X2266Y-153D01*
Y-153D01*
Y-153D01*
Y-153D01*
X2266Y-153D01*
X2266Y-154D01*
X2266Y-154D01*
X2266Y-154D01*
X2267Y-155D01*
X2267Y-155D01*
X2267Y-156D01*
X2267Y-157D01*
X2267Y-157D01*
X2267Y-158D01*
X2267Y-158D01*
X2267Y-159D01*
X2267Y-159D01*
X2267Y-159D01*
X2267Y-159D01*
X2268Y-159D01*
X2268Y-159D01*
X2268Y-159D01*
X2268Y-160D01*
X2268Y-160D01*
X2268Y-160D01*
X2268Y-160D01*
X2269Y-161D01*
X2269Y-161D01*
X2269Y-161D01*
X2270Y-162D01*
X2270Y-162D01*
X2270Y-162D01*
X2270Y-162D01*
X2270Y-162D01*
X2270Y-162D01*
X2271Y-162D01*
X2271Y-162D01*
X2271Y-162D01*
X2271Y-163D01*
X2272Y-163D01*
X2272Y-163D01*
X2272Y-163D01*
X2273Y-163D01*
X2273Y-163D01*
X2273Y-163D01*
X2274Y-163D01*
X2274Y-163D01*
X2275Y-163D01*
X2275D01*
X2275Y-163D01*
X2275D01*
X2275Y-163D01*
X2276Y-163D01*
X2276Y-163D01*
X2276Y-163D01*
X2277Y-163D01*
X2277Y-163D01*
X2277Y-163D01*
X2278Y-163D01*
X2278Y-162D01*
X2279Y-162D01*
X2279Y-162D01*
X2279Y-162D01*
X2279Y-162D01*
X2279Y-162D01*
X2279Y-162D01*
X2280Y-161D01*
X2280Y-161D01*
X2280Y-161D01*
X2280Y-161D01*
X2280Y-160D01*
X2281Y-160D01*
X2281Y-160D01*
X2281Y-159D01*
X2281Y-159D01*
X2281Y-159D01*
X2282Y-158D01*
X2282Y-157D01*
X2282Y-157D01*
X2285Y-158D01*
Y-158D01*
X2285Y-158D01*
X2285Y-158D01*
X2285Y-158D01*
X2285Y-158D01*
X2285Y-158D01*
X2285Y-158D01*
X2285Y-159D01*
X2285Y-159D01*
X2285Y-160D01*
X2284Y-160D01*
X2284Y-161D01*
X2284Y-161D01*
X2284Y-162D01*
X2283Y-162D01*
X2283Y-163D01*
X2282Y-163D01*
X2282Y-164D01*
X2281Y-164D01*
X2281Y-164D01*
X2281Y-164D01*
X2281Y-164D01*
X2281Y-164D01*
X2281Y-164D01*
X2280Y-165D01*
X2280Y-165D01*
X2280Y-165D01*
X2279Y-165D01*
X2279Y-165D01*
X2278Y-166D01*
X2278Y-166D01*
X2277Y-166D01*
X2276Y-166D01*
X2276Y-166D01*
X2275Y-166D01*
X2275D01*
X2274Y-166D01*
X2274D01*
X2274Y-166D01*
X2273Y-166D01*
X2273Y-166D01*
X2272Y-166D01*
X2272Y-166D01*
X2271Y-166D01*
X2271Y-166D01*
X2270Y-165D01*
X2270Y-165D01*
X2269Y-165D01*
X2269Y-165D01*
X2268Y-164D01*
X2268Y-164D01*
X2268Y-164D01*
X2268Y-164D01*
X2268Y-164D01*
X2268Y-164D01*
X2267Y-164D01*
X2267Y-164D01*
X2267Y-163D01*
X2266Y-163D01*
X2266Y-163D01*
X2266Y-162D01*
X2265Y-162D01*
X2265Y-161D01*
X2265Y-161D01*
X2265Y-160D01*
X2264Y-160D01*
Y-160D01*
X2264Y-160D01*
X2264Y-160D01*
X2264Y-159D01*
X2264Y-159D01*
X2264Y-159D01*
X2264Y-159D01*
X2264Y-158D01*
X2264Y-158D01*
X2264Y-157D01*
X2263Y-157D01*
X2263Y-156D01*
X2263Y-156D01*
X2263Y-155D01*
X2263Y-154D01*
X2263Y-154D01*
X2263Y-153D01*
Y-153D01*
Y-153D01*
Y-153D01*
Y-153D01*
Y-153D01*
X2263Y-153D01*
Y-152D01*
X2263Y-152D01*
X2263Y-152D01*
X2263Y-151D01*
X2263Y-151D01*
X2263Y-150D01*
X2263Y-150D01*
X2263Y-149D01*
X2264Y-148D01*
X2264Y-148D01*
X2264Y-147D01*
X2264Y-147D01*
X2264Y-146D01*
X2264Y-146D01*
X2265Y-146D01*
X2265Y-146D01*
X2265Y-146D01*
X2265Y-145D01*
X2265Y-145D01*
X2265Y-145D01*
X2266Y-144D01*
X2266Y-144D01*
X2266Y-144D01*
X2267Y-143D01*
X2267Y-143D01*
X2267Y-143D01*
X2268Y-142D01*
X2268Y-142D01*
X2269Y-142D01*
X2269Y-142D01*
X2269Y-142D01*
X2269Y-141D01*
X2269Y-141D01*
X2269Y-141D01*
X2270Y-141D01*
X2270Y-141D01*
X2271Y-141D01*
X2271Y-141D01*
X2271Y-141D01*
X2272Y-140D01*
X2272Y-140D01*
X2273Y-140D01*
X2274Y-140D01*
X2274Y-140D01*
X2275Y-140D01*
X2275D01*
X2275Y-140D01*
D02*
G37*
G36*
X2239Y-158D02*
Y-158D01*
Y-158D01*
Y-158D01*
X2239Y-158D01*
Y-158D01*
X2239Y-159D01*
X2239Y-159D01*
X2239Y-160D01*
X2239Y-160D01*
X2239Y-160D01*
X2239Y-161D01*
X2239Y-162D01*
X2238Y-162D01*
X2238Y-162D01*
X2238Y-163D01*
Y-163D01*
X2238Y-163D01*
X2238Y-163D01*
X2238Y-163D01*
X2238Y-163D01*
X2238Y-163D01*
X2238Y-163D01*
X2238Y-164D01*
X2237Y-164D01*
X2237Y-164D01*
X2237Y-164D01*
X2237Y-164D01*
X2237Y-165D01*
X2236Y-165D01*
X2236Y-165D01*
X2236Y-165D01*
X2236Y-165D01*
X2236Y-165D01*
X2236Y-165D01*
X2235Y-165D01*
X2235Y-165D01*
X2235Y-166D01*
X2235Y-166D01*
X2235Y-166D01*
X2234Y-166D01*
X2234Y-166D01*
X2234Y-166D01*
X2233Y-166D01*
X2233Y-166D01*
X2233Y-166D01*
X2232Y-166D01*
X2232Y-166D01*
X2232D01*
X2232Y-166D01*
X2231Y-166D01*
X2231Y-166D01*
X2231Y-166D01*
X2230Y-166D01*
X2230Y-166D01*
X2230Y-166D01*
X2229Y-166D01*
X2229Y-166D01*
X2228Y-165D01*
X2228Y-165D01*
X2227Y-165D01*
X2227Y-165D01*
X2227Y-164D01*
X2227Y-164D01*
X2227Y-164D01*
X2227Y-164D01*
X2226Y-164D01*
X2226Y-164D01*
X2226Y-163D01*
X2226Y-163D01*
X2226Y-163D01*
X2226Y-162D01*
X2226Y-162D01*
X2225Y-162D01*
X2225Y-161D01*
X2225Y-161D01*
X2225Y-160D01*
X2225Y-159D01*
Y-159D01*
X2228Y-158D01*
Y-158D01*
Y-158D01*
X2228Y-158D01*
X2228Y-159D01*
X2228Y-159D01*
X2228Y-159D01*
X2228Y-159D01*
X2228Y-160D01*
X2228Y-160D01*
X2229Y-161D01*
X2229Y-161D01*
X2229Y-162D01*
X2229Y-162D01*
X2229Y-162D01*
X2229Y-162D01*
X2229Y-162D01*
X2229Y-162D01*
X2229Y-162D01*
X2229Y-162D01*
X2230Y-162D01*
X2230Y-163D01*
X2230Y-163D01*
X2230Y-163D01*
X2230Y-163D01*
X2230Y-163D01*
X2231Y-163D01*
X2231Y-163D01*
X2231Y-163D01*
X2232Y-163D01*
X2232Y-163D01*
X2232D01*
X2232Y-163D01*
X2232D01*
X2232Y-163D01*
X2233Y-163D01*
X2233Y-163D01*
X2233Y-163D01*
X2234Y-163D01*
X2234Y-163D01*
X2234D01*
X2234Y-163D01*
X2234Y-163D01*
X2234Y-162D01*
X2234Y-162D01*
X2235Y-162D01*
X2235Y-162D01*
X2235Y-161D01*
X2235Y-161D01*
Y-161D01*
X2235Y-161D01*
X2235Y-161D01*
X2235Y-161D01*
X2235Y-161D01*
X2235Y-161D01*
X2235Y-160D01*
X2235Y-160D01*
X2235Y-160D01*
X2235Y-160D01*
X2236Y-160D01*
X2236Y-159D01*
X2236Y-159D01*
X2236Y-159D01*
X2236Y-158D01*
Y-158D01*
Y-141D01*
X2239D01*
Y-158D01*
D02*
G37*
G36*
X1627Y-140D02*
X1628D01*
X1628Y-141D01*
X1628Y-141D01*
X1628Y-141D01*
X1629Y-141D01*
X1629Y-141D01*
X1630Y-141D01*
X1630Y-141D01*
X1630Y-141D01*
X1631Y-141D01*
X1631Y-142D01*
X1632Y-142D01*
X1632Y-142D01*
X1632Y-142D01*
X1632Y-142D01*
X1632Y-142D01*
X1632Y-142D01*
X1632Y-143D01*
X1632Y-143D01*
X1633Y-143D01*
X1633Y-143D01*
X1633Y-144D01*
X1633Y-144D01*
X1633Y-144D01*
X1634Y-145D01*
X1634Y-145D01*
X1634Y-146D01*
X1634Y-146D01*
X1634Y-147D01*
X1631Y-147D01*
Y-147D01*
X1631Y-147D01*
X1631Y-147D01*
X1631Y-147D01*
X1631Y-147D01*
X1631Y-146D01*
X1631Y-146D01*
X1631Y-146D01*
X1630Y-145D01*
X1630Y-145D01*
X1630Y-144D01*
X1630Y-144D01*
X1630Y-144D01*
X1630Y-144D01*
X1630Y-144D01*
X1630Y-144D01*
X1630Y-144D01*
X1629Y-144D01*
X1629Y-144D01*
X1629Y-144D01*
X1629Y-144D01*
X1629Y-143D01*
X1628Y-143D01*
X1628Y-143D01*
X1628Y-143D01*
X1627Y-143D01*
X1627Y-143D01*
X1627Y-143D01*
X1627D01*
X1627Y-143D01*
X1626D01*
X1626Y-143D01*
X1626Y-143D01*
X1626Y-143D01*
X1626Y-143D01*
X1625Y-143D01*
X1625Y-144D01*
X1624Y-144D01*
X1624Y-144D01*
X1624Y-144D01*
X1624Y-144D01*
X1624Y-144D01*
X1624Y-144D01*
X1624Y-144D01*
X1624Y-144D01*
X1624Y-144D01*
X1623Y-145D01*
X1623Y-145D01*
X1623Y-145D01*
X1623Y-145D01*
X1623Y-146D01*
X1622Y-146D01*
X1622Y-146D01*
X1622Y-147D01*
X1622Y-147D01*
Y-147D01*
X1622Y-147D01*
X1622Y-147D01*
X1622Y-147D01*
X1622Y-148D01*
X1622Y-148D01*
X1622Y-148D01*
X1621Y-148D01*
X1621Y-149D01*
X1621Y-149D01*
X1621Y-150D01*
X1621Y-150D01*
X1621Y-151D01*
X1621Y-151D01*
X1621Y-152D01*
X1621Y-153D01*
X1621Y-153D01*
X1621Y-153D01*
X1621Y-153D01*
X1621Y-152D01*
X1621Y-152D01*
X1621Y-152D01*
X1622Y-152D01*
X1622Y-152D01*
X1622Y-152D01*
X1622Y-151D01*
X1623Y-151D01*
X1623Y-151D01*
X1623Y-150D01*
X1624Y-150D01*
X1624Y-150D01*
X1624Y-150D01*
X1624Y-150D01*
X1624Y-150D01*
X1624Y-150D01*
X1624Y-150D01*
X1625Y-150D01*
X1625Y-150D01*
X1625Y-150D01*
X1625Y-150D01*
X1626Y-150D01*
X1627Y-149D01*
X1627Y-149D01*
X1627D01*
X1627Y-149D01*
X1628Y-149D01*
X1628Y-149D01*
X1628Y-150D01*
X1629Y-150D01*
X1629Y-150D01*
X1629Y-150D01*
X1630Y-150D01*
X1630Y-150D01*
X1631Y-150D01*
X1631Y-151D01*
X1632Y-151D01*
X1632Y-151D01*
X1632Y-152D01*
X1632Y-152D01*
X1633Y-152D01*
X1633Y-152D01*
X1633Y-152D01*
X1633Y-152D01*
X1633Y-153D01*
X1633Y-153D01*
X1634Y-153D01*
X1634Y-154D01*
X1634Y-154D01*
X1634Y-155D01*
X1634Y-155D01*
X1634Y-156D01*
X1635Y-156D01*
X1635Y-157D01*
X1635Y-158D01*
Y-158D01*
Y-158D01*
Y-158D01*
X1635Y-158D01*
X1635Y-158D01*
X1635Y-158D01*
X1635Y-159D01*
X1634Y-159D01*
X1634Y-159D01*
X1634Y-160D01*
X1634Y-160D01*
X1634Y-160D01*
X1634Y-161D01*
X1634Y-161D01*
X1634Y-162D01*
X1634Y-162D01*
X1634Y-162D01*
X1634Y-162D01*
X1633Y-162D01*
X1633Y-162D01*
X1633Y-162D01*
X1633Y-163D01*
X1633Y-163D01*
X1633Y-163D01*
X1633Y-163D01*
X1632Y-164D01*
X1632Y-164D01*
X1632Y-164D01*
X1632Y-164D01*
X1631Y-165D01*
X1631Y-165D01*
X1631Y-165D01*
X1631Y-165D01*
X1631Y-165D01*
X1631Y-165D01*
X1630Y-165D01*
X1630Y-165D01*
X1630Y-165D01*
X1630Y-166D01*
X1630Y-166D01*
X1629Y-166D01*
X1629Y-166D01*
X1629Y-166D01*
X1628Y-166D01*
X1628Y-166D01*
X1628Y-166D01*
X1627Y-166D01*
X1627Y-166D01*
X1627D01*
X1626Y-166D01*
X1626D01*
X1626Y-166D01*
X1626Y-166D01*
X1625Y-166D01*
X1625Y-166D01*
X1624Y-166D01*
X1624Y-166D01*
X1623Y-165D01*
X1623Y-165D01*
X1622Y-165D01*
X1622Y-165D01*
X1621Y-164D01*
X1621Y-164D01*
X1620Y-163D01*
X1620Y-163D01*
X1620Y-163D01*
X1620Y-163D01*
X1620Y-163D01*
X1620Y-162D01*
X1620Y-162D01*
X1620Y-162D01*
X1620Y-162D01*
X1619Y-162D01*
X1619Y-161D01*
X1619Y-161D01*
X1619Y-161D01*
X1619Y-160D01*
X1619Y-160D01*
X1619Y-160D01*
X1619Y-159D01*
X1619Y-159D01*
X1618Y-159D01*
X1618Y-158D01*
X1618Y-158D01*
X1618Y-157D01*
X1618Y-157D01*
X1618Y-156D01*
X1618Y-156D01*
X1618Y-155D01*
X1618Y-155D01*
Y-154D01*
Y-154D01*
Y-154D01*
Y-154D01*
Y-154D01*
X1618Y-153D01*
Y-153D01*
X1618Y-153D01*
Y-153D01*
X1618Y-152D01*
X1618Y-152D01*
X1618Y-152D01*
X1618Y-151D01*
X1618Y-151D01*
X1618Y-150D01*
X1618Y-149D01*
X1619Y-148D01*
X1619Y-147D01*
X1619Y-146D01*
X1619Y-146D01*
X1620Y-145D01*
X1620Y-144D01*
X1620Y-144D01*
X1620Y-144D01*
X1621Y-143D01*
X1621Y-143D01*
X1621Y-143D01*
X1621Y-143D01*
X1621Y-143D01*
X1621Y-143D01*
X1622Y-142D01*
X1622Y-142D01*
X1622Y-142D01*
X1623Y-142D01*
X1623Y-141D01*
X1624Y-141D01*
X1624Y-141D01*
X1625Y-141D01*
X1626Y-141D01*
X1626Y-140D01*
X1627Y-140D01*
X1627D01*
X1627Y-140D01*
D02*
G37*
G36*
X1614Y-158D02*
Y-158D01*
Y-158D01*
Y-158D01*
X1614Y-158D01*
Y-158D01*
X1614Y-159D01*
X1614Y-159D01*
X1614Y-160D01*
X1614Y-160D01*
X1614Y-160D01*
X1614Y-161D01*
X1614Y-162D01*
X1613Y-162D01*
X1613Y-162D01*
X1613Y-163D01*
Y-163D01*
X1613Y-163D01*
X1613Y-163D01*
X1613Y-163D01*
X1613Y-163D01*
X1613Y-163D01*
X1613Y-163D01*
X1613Y-164D01*
X1612Y-164D01*
X1612Y-164D01*
X1612Y-164D01*
X1612Y-164D01*
X1612Y-165D01*
X1611Y-165D01*
X1611Y-165D01*
X1611Y-165D01*
X1611Y-165D01*
X1611Y-165D01*
X1611Y-165D01*
X1610Y-165D01*
X1610Y-165D01*
X1610Y-166D01*
X1610Y-166D01*
X1610Y-166D01*
X1609Y-166D01*
X1609Y-166D01*
X1609Y-166D01*
X1608Y-166D01*
X1608Y-166D01*
X1608Y-166D01*
X1607Y-166D01*
X1607Y-166D01*
X1607D01*
X1607Y-166D01*
X1606Y-166D01*
X1606Y-166D01*
X1606Y-166D01*
X1605Y-166D01*
X1605Y-166D01*
X1605Y-166D01*
X1604Y-166D01*
X1604Y-166D01*
X1603Y-165D01*
X1603Y-165D01*
X1602Y-165D01*
X1602Y-165D01*
X1602Y-164D01*
X1602Y-164D01*
X1602Y-164D01*
X1602Y-164D01*
X1601Y-164D01*
X1601Y-164D01*
X1601Y-163D01*
X1601Y-163D01*
X1601Y-163D01*
X1601Y-162D01*
X1601Y-162D01*
X1600Y-162D01*
X1600Y-161D01*
X1600Y-161D01*
X1600Y-160D01*
X1600Y-159D01*
Y-159D01*
X1603Y-158D01*
Y-158D01*
Y-158D01*
X1603Y-158D01*
X1603Y-159D01*
X1603Y-159D01*
X1603Y-159D01*
X1603Y-159D01*
X1603Y-160D01*
X1603Y-160D01*
X1604Y-161D01*
X1604Y-161D01*
X1604Y-162D01*
X1604Y-162D01*
X1604Y-162D01*
X1604Y-162D01*
X1604Y-162D01*
X1604Y-162D01*
X1604Y-162D01*
X1604Y-162D01*
X1605Y-162D01*
X1605Y-163D01*
X1605Y-163D01*
X1605Y-163D01*
X1605Y-163D01*
X1605Y-163D01*
X1606Y-163D01*
X1606Y-163D01*
X1606Y-163D01*
X1607Y-163D01*
X1607Y-163D01*
X1607D01*
X1607Y-163D01*
X1607D01*
X1607Y-163D01*
X1608Y-163D01*
X1608Y-163D01*
X1608Y-163D01*
X1609Y-163D01*
X1609Y-163D01*
X1609D01*
X1609Y-163D01*
X1609Y-163D01*
X1609Y-162D01*
X1609Y-162D01*
X1610Y-162D01*
X1610Y-162D01*
X1610Y-161D01*
X1610Y-161D01*
Y-161D01*
X1610Y-161D01*
X1610Y-161D01*
X1610Y-161D01*
X1610Y-161D01*
X1610Y-161D01*
X1610Y-160D01*
X1610Y-160D01*
X1610Y-160D01*
X1610Y-160D01*
X1611Y-160D01*
X1611Y-159D01*
X1611Y-159D01*
X1611Y-159D01*
X1611Y-158D01*
Y-158D01*
Y-141D01*
X1614D01*
Y-158D01*
D02*
G37*
G36*
X1649Y-141D02*
X1649D01*
X1649Y-141D01*
X1650Y-141D01*
X1650Y-141D01*
X1650Y-141D01*
X1651Y-141D01*
X1651Y-141D01*
X1652Y-141D01*
X1653Y-141D01*
X1653Y-141D01*
X1653D01*
X1653Y-141D01*
X1653Y-141D01*
X1653Y-141D01*
X1653Y-142D01*
X1653Y-142D01*
X1654Y-142D01*
X1654Y-142D01*
X1654Y-142D01*
X1654Y-142D01*
X1655Y-142D01*
X1655Y-143D01*
X1655Y-143D01*
X1655Y-143D01*
X1655Y-143D01*
X1656Y-144D01*
X1656Y-144D01*
X1656Y-144D01*
X1656Y-144D01*
X1656Y-144D01*
X1656Y-144D01*
X1656Y-144D01*
X1656Y-144D01*
X1656Y-145D01*
X1656Y-145D01*
X1656Y-145D01*
X1656Y-146D01*
X1657Y-146D01*
X1657Y-147D01*
X1657Y-147D01*
Y-147D01*
Y-147D01*
Y-147D01*
X1657Y-147D01*
Y-147D01*
X1657Y-148D01*
X1657Y-148D01*
X1656Y-148D01*
X1656Y-148D01*
X1656Y-149D01*
X1656Y-149D01*
X1656Y-149D01*
X1656Y-150D01*
X1656Y-150D01*
X1656Y-150D01*
X1656Y-150D01*
X1656Y-150D01*
X1656Y-150D01*
X1655Y-150D01*
X1655Y-151D01*
X1655Y-151D01*
X1655Y-151D01*
X1655Y-151D01*
X1655Y-151D01*
X1654Y-151D01*
X1654Y-152D01*
X1654Y-152D01*
X1654Y-152D01*
X1653Y-152D01*
X1653Y-152D01*
X1653D01*
X1653Y-152D01*
X1653Y-152D01*
X1653Y-152D01*
X1654Y-153D01*
X1654Y-153D01*
X1654Y-153D01*
X1654Y-153D01*
X1655Y-153D01*
X1655Y-153D01*
X1655Y-153D01*
X1656Y-154D01*
X1656Y-154D01*
X1656Y-154D01*
X1656Y-154D01*
X1657Y-155D01*
X1657Y-155D01*
X1657Y-155D01*
X1657Y-155D01*
X1657Y-155D01*
X1657Y-155D01*
X1657Y-155D01*
X1657Y-155D01*
X1657Y-156D01*
X1657Y-156D01*
X1657Y-156D01*
X1658Y-157D01*
X1658Y-157D01*
X1658Y-157D01*
X1658Y-158D01*
X1658Y-158D01*
X1658Y-158D01*
Y-158D01*
Y-159D01*
Y-159D01*
X1658Y-159D01*
Y-159D01*
X1658Y-159D01*
X1658Y-159D01*
X1658Y-160D01*
X1658Y-160D01*
X1657Y-161D01*
X1657Y-161D01*
X1657Y-162D01*
Y-162D01*
X1657Y-162D01*
X1657Y-162D01*
X1657Y-162D01*
X1657Y-162D01*
X1657Y-162D01*
X1657Y-163D01*
X1656Y-163D01*
X1656Y-163D01*
X1656Y-164D01*
X1655Y-164D01*
X1655D01*
X1655Y-164D01*
X1655Y-164D01*
X1655Y-164D01*
X1655Y-164D01*
X1655Y-164D01*
X1655Y-164D01*
X1654Y-165D01*
X1654Y-165D01*
X1654Y-165D01*
X1654Y-165D01*
X1653Y-165D01*
X1652Y-165D01*
X1652D01*
X1652Y-165D01*
X1652Y-165D01*
X1652Y-165D01*
X1652Y-165D01*
X1652Y-165D01*
X1652Y-165D01*
X1651Y-166D01*
X1651Y-166D01*
X1651Y-166D01*
X1650Y-166D01*
X1650Y-166D01*
X1650Y-166D01*
X1649Y-166D01*
X1649Y-166D01*
X1639D01*
Y-141D01*
X1649D01*
X1649Y-141D01*
D02*
G37*
G36*
X1002Y-140D02*
X1003D01*
X1003Y-141D01*
X1003Y-141D01*
X1003Y-141D01*
X1004Y-141D01*
X1004Y-141D01*
X1005Y-141D01*
X1005Y-141D01*
X1005Y-141D01*
X1006Y-141D01*
X1006Y-142D01*
X1007Y-142D01*
X1007Y-142D01*
X1007Y-142D01*
X1007Y-142D01*
X1007Y-142D01*
X1007Y-142D01*
X1007Y-143D01*
X1007Y-143D01*
X1008Y-143D01*
X1008Y-143D01*
X1008Y-144D01*
X1008Y-144D01*
X1008Y-144D01*
X1009Y-145D01*
X1009Y-145D01*
X1009Y-146D01*
X1009Y-146D01*
X1009Y-147D01*
X1006Y-147D01*
Y-147D01*
X1006Y-147D01*
X1006Y-147D01*
X1006Y-147D01*
X1006Y-147D01*
X1006Y-146D01*
X1006Y-146D01*
X1006Y-146D01*
X1005Y-145D01*
X1005Y-145D01*
X1005Y-144D01*
X1005Y-144D01*
X1005Y-144D01*
X1005Y-144D01*
X1005Y-144D01*
X1005Y-144D01*
X1005Y-144D01*
X1004Y-144D01*
X1004Y-144D01*
X1004Y-144D01*
X1004Y-144D01*
X1004Y-143D01*
X1003Y-143D01*
X1003Y-143D01*
X1003Y-143D01*
X1002Y-143D01*
X1002Y-143D01*
X1002Y-143D01*
X1002D01*
X1002Y-143D01*
X1001D01*
X1001Y-143D01*
X1001Y-143D01*
X1001Y-143D01*
X1001Y-143D01*
X1000Y-143D01*
X1000Y-144D01*
X999Y-144D01*
X999Y-144D01*
X999Y-144D01*
X999Y-144D01*
X999Y-144D01*
X999Y-144D01*
X999Y-144D01*
X999Y-144D01*
X999Y-144D01*
X998Y-145D01*
X998Y-145D01*
X998Y-145D01*
X998Y-145D01*
X998Y-146D01*
X997Y-146D01*
X997Y-146D01*
X997Y-147D01*
X997Y-147D01*
Y-147D01*
X997Y-147D01*
X997Y-147D01*
X997Y-147D01*
X997Y-148D01*
X997Y-148D01*
X997Y-148D01*
X996Y-148D01*
X996Y-149D01*
X996Y-149D01*
X996Y-150D01*
X996Y-150D01*
X996Y-151D01*
X996Y-151D01*
X996Y-152D01*
X996Y-153D01*
X996Y-153D01*
X996Y-153D01*
X996Y-153D01*
X996Y-152D01*
X996Y-152D01*
X996Y-152D01*
X997Y-152D01*
X997Y-152D01*
X997Y-152D01*
X997Y-151D01*
X998Y-151D01*
X998Y-151D01*
X998Y-150D01*
X999Y-150D01*
X999Y-150D01*
X999Y-150D01*
X999Y-150D01*
X999Y-150D01*
X999Y-150D01*
X999Y-150D01*
X1000Y-150D01*
X1000Y-150D01*
X1000Y-150D01*
X1000Y-150D01*
X1001Y-150D01*
X1002Y-149D01*
X1002Y-149D01*
X1002D01*
X1002Y-149D01*
X1003Y-149D01*
X1003Y-149D01*
X1003Y-150D01*
X1004Y-150D01*
X1004Y-150D01*
X1004Y-150D01*
X1005Y-150D01*
X1005Y-150D01*
X1006Y-150D01*
X1006Y-151D01*
X1007Y-151D01*
X1007Y-151D01*
X1007Y-152D01*
X1007Y-152D01*
X1008Y-152D01*
X1008Y-152D01*
X1008Y-152D01*
X1008Y-152D01*
X1008Y-153D01*
X1008Y-153D01*
X1009Y-153D01*
X1009Y-154D01*
X1009Y-154D01*
X1009Y-155D01*
X1009Y-155D01*
X1009Y-156D01*
X1010Y-156D01*
X1010Y-157D01*
X1010Y-158D01*
Y-158D01*
Y-158D01*
Y-158D01*
X1010Y-158D01*
X1010Y-158D01*
X1010Y-158D01*
X1010Y-159D01*
X1009Y-159D01*
X1009Y-159D01*
X1009Y-160D01*
X1009Y-160D01*
X1009Y-160D01*
X1009Y-161D01*
X1009Y-161D01*
X1009Y-162D01*
X1009Y-162D01*
X1009Y-162D01*
X1009Y-162D01*
X1008Y-162D01*
X1008Y-162D01*
X1008Y-162D01*
X1008Y-163D01*
X1008Y-163D01*
X1008Y-163D01*
X1008Y-163D01*
X1007Y-164D01*
X1007Y-164D01*
X1007Y-164D01*
X1007Y-164D01*
X1006Y-165D01*
X1006Y-165D01*
X1006Y-165D01*
X1006Y-165D01*
X1006Y-165D01*
X1006Y-165D01*
X1005Y-165D01*
X1005Y-165D01*
X1005Y-165D01*
X1005Y-166D01*
X1005Y-166D01*
X1004Y-166D01*
X1004Y-166D01*
X1004Y-166D01*
X1003Y-166D01*
X1003Y-166D01*
X1003Y-166D01*
X1002Y-166D01*
X1002Y-166D01*
X1002D01*
X1001Y-166D01*
X1001D01*
X1001Y-166D01*
X1001Y-166D01*
X1000Y-166D01*
X1000Y-166D01*
X999Y-166D01*
X999Y-166D01*
X998Y-165D01*
X998Y-165D01*
X997Y-165D01*
X997Y-165D01*
X996Y-164D01*
X996Y-164D01*
X995Y-163D01*
X995Y-163D01*
X995Y-163D01*
X995Y-163D01*
X995Y-163D01*
X995Y-162D01*
X995Y-162D01*
X995Y-162D01*
X995Y-162D01*
X994Y-162D01*
X994Y-161D01*
X994Y-161D01*
X994Y-161D01*
X994Y-160D01*
X994Y-160D01*
X994Y-160D01*
X994Y-159D01*
X994Y-159D01*
X993Y-159D01*
X993Y-158D01*
X993Y-158D01*
X993Y-157D01*
X993Y-157D01*
X993Y-156D01*
X993Y-156D01*
X993Y-155D01*
X993Y-155D01*
Y-154D01*
Y-154D01*
Y-154D01*
Y-154D01*
Y-154D01*
X993Y-153D01*
Y-153D01*
X993Y-153D01*
Y-153D01*
X993Y-152D01*
X993Y-152D01*
X993Y-152D01*
X993Y-151D01*
X993Y-151D01*
X993Y-150D01*
X993Y-149D01*
X994Y-148D01*
X994Y-147D01*
X994Y-146D01*
X994Y-146D01*
X995Y-145D01*
X995Y-144D01*
X995Y-144D01*
X995Y-144D01*
X996Y-143D01*
X996Y-143D01*
X996Y-143D01*
X996Y-143D01*
X996Y-143D01*
X996Y-143D01*
X997Y-142D01*
X997Y-142D01*
X997Y-142D01*
X998Y-142D01*
X998Y-141D01*
X999Y-141D01*
X999Y-141D01*
X1000Y-141D01*
X1001Y-141D01*
X1001Y-140D01*
X1002Y-140D01*
X1002D01*
X1002Y-140D01*
D02*
G37*
G36*
X989Y-158D02*
Y-158D01*
Y-158D01*
Y-158D01*
X989Y-158D01*
Y-158D01*
X989Y-159D01*
X989Y-159D01*
X989Y-160D01*
X989Y-160D01*
X989Y-160D01*
X989Y-161D01*
X989Y-162D01*
X988Y-162D01*
X988Y-162D01*
X988Y-163D01*
Y-163D01*
X988Y-163D01*
X988Y-163D01*
X988Y-163D01*
X988Y-163D01*
X988Y-163D01*
X988Y-163D01*
X988Y-164D01*
X987Y-164D01*
X987Y-164D01*
X987Y-164D01*
X987Y-164D01*
X987Y-165D01*
X986Y-165D01*
X986Y-165D01*
X986Y-165D01*
X986Y-165D01*
X986Y-165D01*
X986Y-165D01*
X985Y-165D01*
X985Y-165D01*
X985Y-166D01*
X985Y-166D01*
X985Y-166D01*
X984Y-166D01*
X984Y-166D01*
X984Y-166D01*
X983Y-166D01*
X983Y-166D01*
X983Y-166D01*
X982Y-166D01*
X982Y-166D01*
X982D01*
X982Y-166D01*
X981Y-166D01*
X981Y-166D01*
X981Y-166D01*
X980Y-166D01*
X980Y-166D01*
X980Y-166D01*
X979Y-166D01*
X979Y-166D01*
X978Y-165D01*
X978Y-165D01*
X977Y-165D01*
X977Y-165D01*
X977Y-164D01*
X977Y-164D01*
X977Y-164D01*
X977Y-164D01*
X976Y-164D01*
X976Y-164D01*
X976Y-163D01*
X976Y-163D01*
X976Y-163D01*
X976Y-162D01*
X976Y-162D01*
X975Y-162D01*
X975Y-161D01*
X975Y-161D01*
X975Y-160D01*
X975Y-159D01*
Y-159D01*
X978Y-158D01*
Y-158D01*
Y-158D01*
X978Y-158D01*
X978Y-159D01*
X978Y-159D01*
X978Y-159D01*
X978Y-159D01*
X978Y-160D01*
X978Y-160D01*
X979Y-161D01*
X979Y-161D01*
X979Y-162D01*
X979Y-162D01*
X979Y-162D01*
X979Y-162D01*
X979Y-162D01*
X979Y-162D01*
X979Y-162D01*
X979Y-162D01*
X980Y-162D01*
X980Y-163D01*
X980Y-163D01*
X980Y-163D01*
X980Y-163D01*
X980Y-163D01*
X981Y-163D01*
X981Y-163D01*
X981Y-163D01*
X982Y-163D01*
X982Y-163D01*
X982D01*
X982Y-163D01*
X982D01*
X982Y-163D01*
X983Y-163D01*
X983Y-163D01*
X983Y-163D01*
X984Y-163D01*
X984Y-163D01*
X984D01*
X984Y-163D01*
X984Y-163D01*
X984Y-162D01*
X984Y-162D01*
X985Y-162D01*
X985Y-162D01*
X985Y-161D01*
X985Y-161D01*
Y-161D01*
X985Y-161D01*
X985Y-161D01*
X985Y-161D01*
X985Y-161D01*
X985Y-161D01*
X985Y-160D01*
X985Y-160D01*
X985Y-160D01*
X985Y-160D01*
X986Y-160D01*
X986Y-159D01*
X986Y-159D01*
X986Y-159D01*
X986Y-158D01*
Y-158D01*
Y-141D01*
X989D01*
Y-158D01*
D02*
G37*
G36*
X1035Y-166D02*
X1031D01*
X1028Y-158D01*
X1017D01*
X1015Y-166D01*
X1011D01*
X1021Y-141D01*
X1024D01*
X1035Y-166D01*
D02*
G37*
G36*
X8914Y6908D02*
Y6908D01*
Y6908D01*
Y6908D01*
X8914Y6907D01*
Y6907D01*
X8914Y6907D01*
X8914Y6907D01*
X8914Y6906D01*
X8914Y6906D01*
X8914Y6905D01*
X8914Y6905D01*
X8914Y6904D01*
X8913Y6904D01*
X8913Y6903D01*
X8913Y6903D01*
Y6903D01*
X8913Y6903D01*
X8913Y6903D01*
X8913Y6903D01*
X8913Y6903D01*
X8913Y6903D01*
X8913Y6902D01*
X8913Y6902D01*
X8912Y6902D01*
X8912Y6902D01*
X8912Y6902D01*
X8912Y6901D01*
X8912Y6901D01*
X8911Y6901D01*
X8911Y6901D01*
X8911Y6900D01*
X8911Y6900D01*
X8911Y6900D01*
X8911Y6900D01*
X8910Y6900D01*
X8910Y6900D01*
X8910Y6900D01*
X8910Y6900D01*
X8910Y6900D01*
X8909Y6900D01*
X8909Y6900D01*
X8909Y6900D01*
X8908Y6900D01*
X8908Y6900D01*
X8908Y6900D01*
X8907Y6900D01*
X8907Y6900D01*
X8907D01*
X8907Y6900D01*
X8906Y6900D01*
X8906Y6900D01*
X8906Y6900D01*
X8905Y6900D01*
X8905Y6900D01*
X8905Y6900D01*
X8904Y6900D01*
X8904Y6900D01*
X8903Y6900D01*
X8903Y6901D01*
X8902Y6901D01*
X8902Y6901D01*
X8902Y6901D01*
X8902Y6901D01*
X8902Y6902D01*
X8902Y6902D01*
X8901Y6902D01*
X8901Y6902D01*
X8901Y6902D01*
X8901Y6903D01*
X8901Y6903D01*
X8901Y6903D01*
X8901Y6904D01*
X8900Y6904D01*
X8900Y6905D01*
X8900Y6905D01*
X8900Y6906D01*
X8900Y6906D01*
Y6907D01*
X8903Y6908D01*
Y6908D01*
Y6907D01*
X8903Y6907D01*
X8903Y6907D01*
X8903Y6907D01*
X8903Y6907D01*
X8903Y6906D01*
X8903Y6906D01*
X8903Y6905D01*
X8904Y6905D01*
X8904Y6904D01*
X8904Y6904D01*
X8904Y6904D01*
X8904Y6904D01*
X8904Y6904D01*
X8904Y6904D01*
X8904Y6904D01*
X8904Y6903D01*
X8904Y6903D01*
X8905Y6903D01*
X8905Y6903D01*
X8905Y6903D01*
X8905Y6903D01*
X8905Y6903D01*
X8905Y6903D01*
X8906Y6903D01*
X8906Y6903D01*
X8906Y6903D01*
X8907Y6903D01*
X8907Y6903D01*
X8907D01*
X8907Y6903D01*
X8907D01*
X8907Y6903D01*
X8908Y6903D01*
X8908Y6903D01*
X8908Y6903D01*
X8909Y6903D01*
X8909Y6903D01*
X8909D01*
X8909Y6903D01*
X8909Y6903D01*
X8909Y6903D01*
X8909Y6904D01*
X8910Y6904D01*
X8910Y6904D01*
X8910Y6904D01*
X8910Y6905D01*
Y6905D01*
X8910Y6905D01*
X8910Y6905D01*
X8910Y6905D01*
X8910Y6905D01*
X8910Y6905D01*
X8910Y6905D01*
X8910Y6905D01*
X8910Y6906D01*
X8910Y6906D01*
X8911Y6906D01*
X8911Y6906D01*
X8911Y6907D01*
X8911Y6907D01*
X8911Y6907D01*
Y6908D01*
Y6925D01*
X8914D01*
Y6908D01*
D02*
G37*
G36*
X8930Y6900D02*
X8927D01*
Y6920D01*
X8927Y6920D01*
X8927Y6920D01*
X8927Y6920D01*
X8926Y6920D01*
X8926Y6919D01*
X8926Y6919D01*
X8926Y6919D01*
X8926Y6919D01*
X8926Y6919D01*
X8925Y6919D01*
X8925Y6919D01*
X8925Y6918D01*
X8925Y6918D01*
X8924Y6918D01*
X8924Y6918D01*
X8924Y6918D01*
X8924Y6917D01*
X8924Y6917D01*
X8923Y6917D01*
X8923Y6917D01*
X8923Y6917D01*
X8923Y6917D01*
X8923Y6917D01*
X8922Y6917D01*
X8922Y6916D01*
X8921Y6916D01*
X8920Y6916D01*
Y6919D01*
X8921Y6919D01*
X8921Y6919D01*
X8921Y6919D01*
X8921Y6919D01*
X8921Y6919D01*
X8921Y6919D01*
X8922Y6920D01*
X8922Y6920D01*
X8922Y6920D01*
X8923Y6920D01*
X8923Y6921D01*
X8924Y6921D01*
X8925Y6922D01*
X8925Y6922D01*
X8925Y6922D01*
X8925Y6922D01*
X8925Y6922D01*
X8925Y6922D01*
X8926Y6923D01*
X8926Y6923D01*
X8926Y6923D01*
X8926Y6923D01*
X8927Y6923D01*
X8927Y6924D01*
X8927Y6925D01*
X8928Y6925D01*
X8928Y6925D01*
X8930D01*
Y6900D01*
D02*
G37*
G36*
X8946Y6925D02*
X8946D01*
X8947Y6925D01*
X8947Y6925D01*
X8947Y6925D01*
X8948Y6925D01*
X8948Y6925D01*
X8949Y6925D01*
X8949Y6925D01*
X8949Y6924D01*
X8949D01*
X8950Y6924D01*
X8950Y6924D01*
X8950Y6924D01*
X8950Y6924D01*
X8950Y6924D01*
X8950Y6924D01*
X8950Y6924D01*
X8951Y6924D01*
X8951Y6923D01*
X8952Y6923D01*
X8952Y6922D01*
X8952Y6922D01*
X8952Y6922D01*
X8952Y6922D01*
X8952Y6922D01*
X8952Y6922D01*
X8952Y6921D01*
X8952Y6921D01*
X8953Y6921D01*
X8953Y6921D01*
X8953Y6921D01*
X8953Y6920D01*
X8953Y6920D01*
X8953Y6920D01*
X8953Y6919D01*
X8953Y6919D01*
X8954Y6918D01*
Y6918D01*
X8954Y6918D01*
X8954Y6918D01*
X8954Y6918D01*
X8954Y6918D01*
X8954Y6917D01*
X8954Y6917D01*
X8954Y6917D01*
X8954Y6916D01*
X8954Y6916D01*
X8954Y6915D01*
X8954Y6915D01*
X8954Y6914D01*
X8954Y6914D01*
X8954Y6913D01*
Y6912D01*
Y6912D01*
Y6912D01*
Y6912D01*
Y6912D01*
Y6912D01*
Y6912D01*
X8954Y6912D01*
Y6912D01*
X8954Y6911D01*
X8954Y6911D01*
X8954Y6910D01*
X8954Y6910D01*
X8954Y6909D01*
X8954Y6909D01*
X8954Y6908D01*
X8954Y6907D01*
X8953Y6906D01*
X8953Y6906D01*
X8953Y6905D01*
X8953Y6905D01*
X8953Y6905D01*
X8953Y6905D01*
X8953Y6905D01*
X8953Y6905D01*
X8953Y6904D01*
X8953Y6904D01*
X8952Y6904D01*
X8952Y6903D01*
X8952Y6903D01*
X8952Y6903D01*
X8952Y6902D01*
X8951Y6902D01*
X8951Y6902D01*
X8951Y6901D01*
X8950Y6901D01*
X8950Y6901D01*
X8950Y6901D01*
X8950Y6901D01*
X8950Y6901D01*
X8950Y6901D01*
X8950Y6901D01*
X8949Y6900D01*
X8949Y6900D01*
X8949Y6900D01*
X8949Y6900D01*
X8948Y6900D01*
X8948Y6900D01*
X8947Y6900D01*
X8947Y6900D01*
X8946Y6900D01*
X8946Y6900D01*
X8946D01*
X8946Y6900D01*
X8945Y6900D01*
X8945Y6900D01*
X8945Y6900D01*
X8944Y6900D01*
X8944Y6900D01*
X8943Y6900D01*
X8943Y6900D01*
X8942Y6900D01*
X8942Y6901D01*
X8941Y6901D01*
X8941Y6901D01*
X8941Y6902D01*
X8940Y6902D01*
Y6902D01*
X8940Y6902D01*
X8940Y6902D01*
X8940Y6902D01*
X8940Y6902D01*
X8940Y6903D01*
X8940Y6903D01*
X8940Y6903D01*
X8940Y6903D01*
X8940Y6903D01*
X8939Y6903D01*
X8939Y6904D01*
X8939Y6904D01*
X8939Y6904D01*
X8939Y6904D01*
X8939Y6905D01*
X8939Y6905D01*
X8939Y6905D01*
X8939Y6906D01*
X8938Y6906D01*
X8938Y6906D01*
X8938Y6907D01*
X8938Y6907D01*
X8938Y6908D01*
X8938Y6908D01*
X8938Y6909D01*
X8938Y6909D01*
X8938Y6910D01*
X8938Y6911D01*
X8938Y6911D01*
X8938Y6912D01*
Y6912D01*
Y6912D01*
Y6912D01*
Y6913D01*
Y6913D01*
Y6913D01*
Y6913D01*
X8938Y6913D01*
Y6913D01*
X8938Y6914D01*
X8938Y6914D01*
X8938Y6914D01*
X8938Y6915D01*
X8938Y6916D01*
X8938Y6916D01*
X8938Y6917D01*
X8938Y6918D01*
X8938Y6919D01*
X8938Y6919D01*
X8939Y6920D01*
X8939Y6920D01*
X8939Y6920D01*
X8939Y6920D01*
X8939Y6920D01*
X8939Y6920D01*
X8939Y6921D01*
X8939Y6921D01*
X8939Y6921D01*
X8939Y6921D01*
X8940Y6922D01*
X8940Y6922D01*
X8940Y6923D01*
X8940Y6923D01*
X8941Y6923D01*
X8941Y6924D01*
X8941Y6924D01*
X8941Y6924D01*
X8941Y6924D01*
X8941Y6924D01*
X8942Y6924D01*
X8942Y6924D01*
X8942Y6924D01*
X8942Y6924D01*
X8943Y6925D01*
X8943Y6925D01*
X8943Y6925D01*
X8944Y6925D01*
X8944Y6925D01*
X8944Y6925D01*
X8945Y6925D01*
X8945Y6925D01*
X8946Y6925D01*
X8946D01*
X8946Y6925D01*
D02*
G37*
G36*
X5035Y5560D02*
X5032D01*
Y5580D01*
X5032Y5580D01*
X5032Y5580D01*
X5032Y5580D01*
X5032Y5580D01*
X5032Y5579D01*
X5032Y5579D01*
X5031Y5579D01*
X5031Y5579D01*
X5031Y5579D01*
X5031Y5579D01*
X5031Y5579D01*
X5030Y5578D01*
X5030Y5578D01*
X5030Y5578D01*
X5029Y5578D01*
X5029Y5578D01*
X5029Y5577D01*
X5029Y5577D01*
X5029Y5577D01*
X5029Y5577D01*
X5028Y5577D01*
X5028Y5577D01*
X5028Y5577D01*
X5027Y5577D01*
X5027Y5576D01*
X5026Y5576D01*
X5026Y5576D01*
Y5579D01*
X5026Y5579D01*
X5026Y5579D01*
X5026Y5579D01*
X5026Y5579D01*
X5026Y5579D01*
X5027Y5579D01*
X5027Y5580D01*
X5027Y5580D01*
X5028Y5580D01*
X5028Y5580D01*
X5029Y5581D01*
X5030Y5581D01*
X5030Y5582D01*
X5030Y5582D01*
X5030Y5582D01*
X5031Y5582D01*
X5031Y5582D01*
X5031Y5582D01*
X5031Y5583D01*
X5031Y5583D01*
X5031Y5583D01*
X5032Y5583D01*
X5032Y5583D01*
X5032Y5584D01*
X5033Y5585D01*
X5033Y5585D01*
X5033Y5585D01*
X5035D01*
Y5560D01*
D02*
G37*
G36*
X5008Y5563D02*
X5021D01*
Y5560D01*
X5005D01*
Y5585D01*
X5008D01*
Y5563D01*
D02*
G37*
%LPC*%
G36*
X7938Y497D02*
X7938D01*
X7938D01*
X7938D01*
X7938Y497D01*
X7937Y497D01*
X7937Y497D01*
X7937Y497D01*
X7937Y497D01*
X7936Y497D01*
X7936Y497D01*
X7936Y497D01*
X7935Y496D01*
X7935Y496D01*
X7934Y496D01*
X7934Y496D01*
X7934Y496D01*
X7934Y496D01*
X7934Y496D01*
X7934Y495D01*
X7934Y495D01*
X7933Y495D01*
X7933Y495D01*
X7933Y495D01*
X7933Y495D01*
X7933Y494D01*
X7933Y494D01*
X7933Y494D01*
X7933Y494D01*
X7932Y493D01*
X7932Y493D01*
X7932Y493D01*
X7932Y492D01*
Y492D01*
X7932Y492D01*
Y492D01*
X7932Y492D01*
X7932Y491D01*
X7932Y491D01*
X7933Y491D01*
X7933Y491D01*
X7933Y490D01*
X7933Y490D01*
X7933Y490D01*
X7933Y489D01*
X7933Y489D01*
X7934Y489D01*
X7934Y489D01*
X7934Y489D01*
X7934Y489D01*
X7934Y488D01*
X7934Y488D01*
X7934Y488D01*
X7935Y488D01*
X7935Y488D01*
X7935Y488D01*
X7935Y488D01*
X7936Y488D01*
X7936Y487D01*
X7937Y487D01*
X7937Y487D01*
X7937Y487D01*
X7938Y487D01*
X7938Y487D01*
X7938D01*
X7938D01*
X7939Y487D01*
X7939D01*
X7939Y487D01*
X7939Y487D01*
X7939Y487D01*
X7940Y487D01*
X7940Y487D01*
X7940Y487D01*
X7941Y488D01*
X7941Y488D01*
X7941Y488D01*
X7942Y488D01*
X7942Y488D01*
X7942Y489D01*
X7942Y489D01*
X7942Y489D01*
X7942Y489D01*
X7942Y489D01*
X7943Y489D01*
X7943Y489D01*
X7943Y489D01*
X7943Y490D01*
X7943Y490D01*
X7943Y490D01*
X7943Y490D01*
X7943Y491D01*
X7944Y491D01*
X7944Y491D01*
X7944Y492D01*
X7944Y492D01*
Y492D01*
X7944Y492D01*
Y492D01*
X7944Y493D01*
X7944Y493D01*
X7944Y493D01*
X7944Y493D01*
X7943Y494D01*
X7943Y494D01*
X7943Y494D01*
X7943Y495D01*
X7943Y495D01*
X7943Y495D01*
X7942Y495D01*
X7942Y496D01*
X7942Y496D01*
X7942Y496D01*
X7942Y496D01*
X7942Y496D01*
X7942Y496D01*
X7942Y496D01*
X7941Y496D01*
X7941Y496D01*
X7941Y496D01*
X7941Y497D01*
X7940Y497D01*
X7940Y497D01*
X7939Y497D01*
X7939Y497D01*
X7939Y497D01*
X7938Y497D01*
D02*
G37*
G36*
X6270Y5473D02*
Y5461D01*
X6278D01*
X6270Y5473D01*
D02*
G37*
G36*
X6252Y5475D02*
X6252D01*
X6252Y5475D01*
X6251Y5475D01*
X6251Y5475D01*
X6251Y5475D01*
X6251Y5475D01*
X6250Y5475D01*
X6250Y5475D01*
X6250Y5475D01*
X6250Y5475D01*
X6250Y5474D01*
X6249Y5474D01*
X6249Y5474D01*
X6249Y5474D01*
X6249Y5474D01*
X6249Y5474D01*
X6249Y5474D01*
X6249Y5474D01*
X6249Y5474D01*
X6249Y5473D01*
X6248Y5473D01*
X6248Y5473D01*
X6248Y5473D01*
X6248Y5472D01*
X6248Y5472D01*
X6248Y5472D01*
X6248Y5472D01*
X6248Y5471D01*
X6248Y5471D01*
Y5471D01*
Y5471D01*
Y5471D01*
X6248Y5471D01*
X6248Y5471D01*
X6248Y5470D01*
X6248Y5470D01*
X6248Y5470D01*
X6248Y5469D01*
X6249Y5469D01*
X6249Y5469D01*
X6249Y5469D01*
X6249Y5469D01*
X6249Y5469D01*
X6249Y5469D01*
X6249Y5468D01*
X6249Y5468D01*
X6249Y5468D01*
X6249Y5468D01*
X6250Y5468D01*
X6250Y5468D01*
X6250Y5468D01*
X6250Y5468D01*
X6251Y5468D01*
X6251Y5467D01*
X6251Y5467D01*
X6251Y5467D01*
X6252Y5467D01*
X6252Y5467D01*
X6252Y5467D01*
X6252D01*
X6252Y5467D01*
X6253Y5467D01*
X6253Y5467D01*
X6253Y5468D01*
X6254Y5468D01*
X6254Y5468D01*
X6254Y5468D01*
X6254Y5468D01*
X6254Y5468D01*
X6255Y5468D01*
X6255Y5468D01*
X6255Y5468D01*
X6255Y5468D01*
X6255Y5468D01*
X6255Y5468D01*
X6255Y5468D01*
X6255Y5469D01*
X6255Y5469D01*
X6256Y5469D01*
X6256Y5469D01*
X6256Y5470D01*
X6256Y5470D01*
X6256Y5470D01*
X6256Y5471D01*
X6256Y5471D01*
X6256Y5471D01*
X6256Y5471D01*
X6256Y5471D01*
Y5471D01*
Y5471D01*
Y5471D01*
X6256Y5472D01*
X6256Y5472D01*
X6256Y5472D01*
X6256Y5472D01*
X6256Y5473D01*
X6256Y5473D01*
X6256Y5473D01*
X6255Y5473D01*
X6255Y5474D01*
X6255Y5474D01*
X6255Y5474D01*
X6255Y5474D01*
X6255Y5474D01*
X6255Y5474D01*
X6255Y5474D01*
X6255Y5474D01*
X6255Y5474D01*
X6254Y5475D01*
X6254Y5475D01*
X6254Y5475D01*
X6254Y5475D01*
X6253Y5475D01*
X6253Y5475D01*
X6253Y5475D01*
X6253Y5475D01*
X6252Y5475D01*
X6252Y5475D01*
D02*
G37*
G36*
X6252Y5465D02*
X6252D01*
X6252Y5465D01*
X6251Y5465D01*
X6251Y5465D01*
X6251Y5465D01*
X6250Y5464D01*
X6250Y5464D01*
X6250Y5464D01*
X6249Y5464D01*
X6249Y5464D01*
X6249Y5464D01*
X6249Y5464D01*
X6249Y5464D01*
X6249Y5463D01*
X6249Y5463D01*
X6248Y5463D01*
X6248Y5463D01*
X6248Y5463D01*
X6248Y5463D01*
X6248Y5462D01*
X6248Y5462D01*
X6247Y5462D01*
X6247Y5462D01*
X6247Y5461D01*
X6247Y5461D01*
X6247Y5461D01*
X6247Y5460D01*
X6247Y5460D01*
X6247Y5460D01*
Y5460D01*
X6247Y5460D01*
Y5460D01*
Y5460D01*
X6247Y5459D01*
X6247Y5459D01*
X6247Y5459D01*
X6247Y5458D01*
X6247Y5458D01*
X6247Y5458D01*
X6248Y5457D01*
X6248Y5457D01*
X6248Y5457D01*
X6248Y5457D01*
X6248Y5456D01*
X6248Y5456D01*
X6248Y5456D01*
X6248Y5456D01*
X6248Y5456D01*
X6248Y5456D01*
X6249Y5456D01*
X6249Y5456D01*
X6249Y5455D01*
X6250Y5455D01*
X6250Y5455D01*
X6250Y5455D01*
X6250Y5455D01*
X6251Y5455D01*
X6251Y5455D01*
X6251Y5455D01*
X6251Y5455D01*
X6252Y5455D01*
X6252D01*
X6252Y5455D01*
X6252D01*
X6253Y5455D01*
X6253Y5455D01*
X6253Y5455D01*
X6254Y5455D01*
X6254Y5455D01*
X6254Y5455D01*
X6254Y5455D01*
X6254Y5455D01*
X6255Y5455D01*
X6255Y5455D01*
X6255Y5455D01*
X6255D01*
X6255Y5456D01*
X6256Y5456D01*
X6256Y5456D01*
X6256Y5456D01*
X6256Y5457D01*
X6256Y5457D01*
X6256Y5457D01*
X6256Y5457D01*
X6257Y5457D01*
X6257Y5457D01*
Y5457D01*
X6257Y5458D01*
X6257Y5458D01*
X6257Y5459D01*
X6257Y5459D01*
X6257Y5459D01*
X6257Y5459D01*
X6257Y5459D01*
Y5460D01*
X6257Y5460D01*
Y5460D01*
Y5460D01*
Y5460D01*
X6257Y5460D01*
X6257Y5461D01*
X6257Y5461D01*
X6257Y5461D01*
X6257Y5462D01*
X6257Y5462D01*
X6257Y5462D01*
X6256Y5462D01*
X6256Y5463D01*
X6256Y5463D01*
X6256Y5463D01*
X6256Y5463D01*
X6256Y5463D01*
X6256Y5463D01*
X6256Y5463D01*
X6256Y5463D01*
X6255Y5464D01*
X6255Y5464D01*
X6255Y5464D01*
X6255Y5464D01*
X6254Y5464D01*
X6254Y5464D01*
X6254Y5465D01*
X6253Y5465D01*
X6253Y5465D01*
X6253Y5465D01*
X6253Y5465D01*
X6253Y5465D01*
X6252Y5465D01*
D02*
G37*
G36*
X1930Y2546D02*
X1930D01*
X1930Y2546D01*
X1929Y2546D01*
X1929Y2546D01*
X1928Y2546D01*
X1928Y2546D01*
X1928Y2546D01*
X1928Y2546D01*
X1928Y2546D01*
X1928Y2546D01*
X1928Y2546D01*
X1927Y2546D01*
X1927D01*
X1927Y2546D01*
X1927Y2545D01*
X1926Y2545D01*
X1926Y2545D01*
X1926Y2544D01*
X1926Y2544D01*
X1926Y2544D01*
X1926Y2544D01*
X1926Y2544D01*
X1926Y2544D01*
Y2544D01*
X1925Y2543D01*
X1925Y2543D01*
X1925Y2543D01*
X1925Y2542D01*
X1925Y2542D01*
X1925Y2542D01*
X1925Y2542D01*
Y2542D01*
X1925Y2541D01*
Y2541D01*
Y2541D01*
Y2541D01*
X1925Y2541D01*
X1925Y2541D01*
X1925Y2540D01*
X1925Y2540D01*
X1925Y2540D01*
X1925Y2539D01*
X1926Y2539D01*
X1926Y2539D01*
X1926Y2538D01*
X1926Y2538D01*
X1926Y2538D01*
X1926Y2538D01*
X1926Y2538D01*
X1926Y2538D01*
X1926Y2538D01*
X1926Y2538D01*
X1927Y2537D01*
X1927Y2537D01*
X1927Y2537D01*
X1928Y2537D01*
X1928Y2537D01*
X1928Y2537D01*
X1928Y2537D01*
X1929Y2536D01*
X1929Y2536D01*
X1929Y2536D01*
X1929Y2536D01*
X1930Y2536D01*
X1930Y2536D01*
X1930D01*
X1930Y2536D01*
X1931Y2536D01*
X1931Y2536D01*
X1932Y2536D01*
X1932Y2537D01*
X1932Y2537D01*
X1932Y2537D01*
X1933Y2537D01*
X1933Y2537D01*
X1933Y2537D01*
X1933Y2537D01*
X1933Y2537D01*
X1934Y2538D01*
X1934Y2538D01*
X1934Y2538D01*
X1934Y2538D01*
X1934Y2538D01*
X1934Y2538D01*
X1934Y2539D01*
X1935Y2539D01*
X1935Y2539D01*
X1935Y2540D01*
X1935Y2540D01*
X1935Y2540D01*
X1935Y2540D01*
X1935Y2541D01*
X1935Y2541D01*
X1935Y2541D01*
Y2541D01*
X1935Y2541D01*
Y2541D01*
Y2541D01*
X1935Y2542D01*
X1935Y2542D01*
X1935Y2543D01*
X1935Y2543D01*
X1935Y2543D01*
X1935Y2544D01*
X1935Y2544D01*
X1935Y2544D01*
X1934Y2544D01*
X1934Y2544D01*
X1934Y2545D01*
X1934Y2545D01*
X1934Y2545D01*
X1934Y2545D01*
X1934Y2545D01*
X1934Y2545D01*
X1934Y2545D01*
X1933Y2546D01*
X1933Y2546D01*
X1933Y2546D01*
X1932Y2546D01*
X1932Y2546D01*
X1932Y2546D01*
X1931Y2546D01*
X1931Y2546D01*
X1931Y2546D01*
X1931Y2546D01*
X1930Y2546D01*
X1930D01*
X1930Y2546D01*
D02*
G37*
G36*
X1930Y2534D02*
X1930D01*
X1930Y2534D01*
X1929Y2534D01*
X1929Y2534D01*
X1929Y2534D01*
X1929Y2533D01*
X1928Y2533D01*
X1928Y2533D01*
X1928Y2533D01*
X1928Y2533D01*
X1928Y2533D01*
X1927Y2533D01*
X1927Y2533D01*
X1927Y2533D01*
X1927Y2533D01*
X1927Y2533D01*
X1927Y2533D01*
X1927Y2532D01*
X1927Y2532D01*
X1927Y2532D01*
X1926Y2532D01*
X1926Y2531D01*
X1926Y2531D01*
X1926Y2531D01*
X1926Y2531D01*
X1926Y2530D01*
X1926Y2530D01*
X1926Y2530D01*
X1926Y2530D01*
Y2530D01*
Y2530D01*
Y2530D01*
X1926Y2529D01*
X1926Y2529D01*
X1926Y2529D01*
X1926Y2529D01*
X1926Y2528D01*
X1926Y2528D01*
X1927Y2528D01*
X1927Y2528D01*
X1927Y2527D01*
X1927Y2527D01*
X1927Y2527D01*
X1927Y2527D01*
X1927Y2527D01*
X1927Y2527D01*
X1927Y2527D01*
X1927Y2527D01*
X1928Y2527D01*
X1928Y2526D01*
X1928Y2526D01*
X1928Y2526D01*
X1929Y2526D01*
X1929Y2526D01*
X1929Y2526D01*
X1929Y2526D01*
X1930Y2526D01*
X1930Y2526D01*
X1930Y2526D01*
X1930D01*
X1930Y2526D01*
X1931Y2526D01*
X1931Y2526D01*
X1931Y2526D01*
X1932Y2526D01*
X1932Y2526D01*
X1932Y2526D01*
X1932Y2526D01*
X1932Y2527D01*
X1933Y2527D01*
X1933Y2527D01*
X1933Y2527D01*
X1933Y2527D01*
X1933Y2527D01*
X1933Y2527D01*
X1933Y2527D01*
X1933Y2527D01*
X1933Y2527D01*
X1934Y2528D01*
X1934Y2528D01*
X1934Y2528D01*
X1934Y2528D01*
X1934Y2529D01*
X1934Y2529D01*
X1934Y2529D01*
X1934Y2529D01*
X1934Y2530D01*
X1934Y2530D01*
Y2530D01*
Y2530D01*
Y2530D01*
X1934Y2530D01*
X1934Y2530D01*
X1934Y2531D01*
X1934Y2531D01*
X1934Y2531D01*
X1934Y2532D01*
X1934Y2532D01*
X1934Y2532D01*
X1933Y2532D01*
X1933Y2532D01*
X1933Y2532D01*
X1933Y2533D01*
X1933Y2533D01*
X1933Y2533D01*
X1933Y2533D01*
X1933Y2533D01*
X1933Y2533D01*
X1932Y2533D01*
X1932Y2533D01*
X1932Y2533D01*
X1932Y2533D01*
X1931Y2534D01*
X1931Y2534D01*
X1931Y2534D01*
X1931Y2534D01*
X1930Y2534D01*
X1930Y2534D01*
D02*
G37*
G36*
X9747Y3376D02*
X9747D01*
X9747D01*
X9747D01*
X9746Y3376D01*
X9746Y3376D01*
X9746Y3376D01*
X9746Y3376D01*
X9745Y3376D01*
X9745Y3376D01*
X9745Y3375D01*
X9745Y3375D01*
X9744Y3375D01*
X9744Y3375D01*
X9744Y3375D01*
X9744Y3375D01*
X9744Y3375D01*
X9744Y3375D01*
X9744Y3375D01*
X9744Y3375D01*
X9744Y3374D01*
X9743Y3374D01*
X9743Y3374D01*
X9743Y3374D01*
X9743Y3373D01*
X9743Y3373D01*
X9743Y3373D01*
X9743Y3373D01*
X9743Y3372D01*
X9743Y3372D01*
X9743Y3372D01*
Y3372D01*
X9743Y3372D01*
X9743Y3371D01*
X9743Y3371D01*
X9743Y3371D01*
X9743Y3370D01*
X9743Y3370D01*
X9743Y3370D01*
X9743Y3370D01*
X9744Y3370D01*
X9744Y3369D01*
X9744Y3369D01*
X9744Y3369D01*
X9744Y3369D01*
X9744Y3369D01*
X9744Y3369D01*
X9744Y3369D01*
X9744Y3369D01*
X9744Y3369D01*
X9745Y3368D01*
X9745Y3368D01*
X9745Y3368D01*
X9745Y3368D01*
X9746Y3368D01*
X9746Y3368D01*
X9746Y3368D01*
X9746Y3368D01*
X9747Y3368D01*
X9747Y3368D01*
X9747D01*
X9747D01*
X9747D01*
X9747Y3368D01*
X9748Y3368D01*
X9748Y3368D01*
X9748Y3368D01*
X9748Y3368D01*
X9749Y3368D01*
X9749Y3368D01*
X9749Y3369D01*
X9749Y3369D01*
X9749Y3369D01*
X9749Y3369D01*
X9750Y3369D01*
X9750Y3369D01*
X9750Y3369D01*
X9750Y3369D01*
X9750Y3369D01*
X9750Y3369D01*
X9750Y3370D01*
X9750Y3370D01*
X9750Y3370D01*
X9751Y3370D01*
X9751Y3371D01*
X9751Y3371D01*
X9751Y3371D01*
X9751Y3371D01*
X9751Y3372D01*
X9751Y3372D01*
Y3372D01*
X9751Y3372D01*
X9751Y3373D01*
X9751Y3373D01*
X9751Y3373D01*
X9751Y3373D01*
X9750Y3374D01*
X9750Y3374D01*
X9750Y3374D01*
X9750Y3374D01*
X9750Y3374D01*
X9750Y3374D01*
X9750Y3375D01*
X9750Y3375D01*
X9750Y3375D01*
X9750Y3375D01*
X9750Y3375D01*
X9749Y3375D01*
X9749Y3375D01*
X9749Y3375D01*
X9749Y3376D01*
X9748Y3376D01*
X9748Y3376D01*
X9748Y3376D01*
X9748Y3376D01*
X9747Y3376D01*
X9747Y3376D01*
X9747Y3376D01*
X9747Y3376D01*
D02*
G37*
G36*
X9735Y3377D02*
X9735D01*
X9735D01*
X9735Y3377D01*
X9734Y3377D01*
X9734Y3377D01*
X9734Y3377D01*
X9733Y3377D01*
X9733Y3377D01*
X9733Y3376D01*
X9733Y3376D01*
X9732Y3376D01*
X9732Y3376D01*
X9732Y3376D01*
X9732Y3376D01*
X9732Y3376D01*
X9732Y3376D01*
X9732Y3376D01*
X9732Y3376D01*
X9731Y3375D01*
X9731Y3375D01*
X9731Y3375D01*
X9731Y3374D01*
X9731Y3374D01*
X9731Y3374D01*
X9730Y3374D01*
X9730Y3373D01*
X9730Y3373D01*
X9730Y3373D01*
X9730Y3373D01*
X9730Y3372D01*
Y3372D01*
X9730Y3372D01*
Y3372D01*
X9730Y3371D01*
X9730Y3371D01*
X9730Y3370D01*
X9731Y3370D01*
X9731Y3370D01*
X9731Y3370D01*
X9731Y3370D01*
X9731Y3370D01*
X9731Y3369D01*
X9731Y3369D01*
X9731Y3369D01*
Y3369D01*
X9731Y3369D01*
X9731Y3368D01*
X9732Y3368D01*
X9732Y3368D01*
X9732Y3368D01*
X9732Y3368D01*
X9733Y3368D01*
X9733Y3368D01*
X9733Y3367D01*
X9733Y3367D01*
X9733D01*
X9733Y3367D01*
X9734Y3367D01*
X9734Y3367D01*
X9735Y3367D01*
X9735Y3367D01*
X9735Y3367D01*
X9735Y3367D01*
X9735D01*
X9735Y3367D01*
X9735D01*
X9735D01*
X9735D01*
X9736Y3367D01*
X9736Y3367D01*
X9736Y3367D01*
X9737Y3367D01*
X9737Y3367D01*
X9737Y3367D01*
X9738Y3367D01*
X9738Y3368D01*
X9738Y3368D01*
X9738Y3368D01*
X9739Y3368D01*
X9739Y3368D01*
X9739Y3368D01*
X9739Y3368D01*
X9739Y3368D01*
X9739Y3368D01*
X9739Y3369D01*
X9739Y3369D01*
X9740Y3369D01*
X9740Y3369D01*
X9740Y3370D01*
X9740Y3370D01*
X9740Y3370D01*
X9740Y3371D01*
X9740Y3371D01*
X9740Y3371D01*
X9740Y3371D01*
X9740Y3371D01*
X9740Y3372D01*
Y3372D01*
X9740Y3372D01*
X9740Y3373D01*
X9740Y3373D01*
X9740Y3373D01*
X9740Y3374D01*
X9740Y3374D01*
X9740Y3374D01*
X9740Y3375D01*
X9739Y3375D01*
X9739Y3375D01*
X9739Y3375D01*
X9739Y3375D01*
X9739Y3375D01*
X9739Y3375D01*
X9739Y3376D01*
X9739Y3376D01*
X9739Y3376D01*
X9738Y3376D01*
X9738Y3376D01*
X9738Y3376D01*
X9737Y3377D01*
X9737Y3377D01*
X9737Y3377D01*
X9737Y3377D01*
X9736Y3377D01*
X9736Y3377D01*
X9736Y3377D01*
X9736Y3377D01*
X9735D01*
X9735Y3377D01*
D02*
G37*
G36*
X9698Y3518D02*
X9698D01*
X9698Y3518D01*
X9697Y3518D01*
X9697Y3518D01*
X9697Y3517D01*
X9696Y3517D01*
X9696Y3517D01*
X9696Y3517D01*
X9696Y3517D01*
X9695Y3517D01*
X9695Y3517D01*
X9695Y3517D01*
X9695Y3516D01*
X9695Y3516D01*
X9695Y3516D01*
X9695Y3516D01*
X9695Y3516D01*
X9694Y3516D01*
X9694Y3516D01*
X9694Y3515D01*
X9694Y3515D01*
X9694Y3514D01*
X9694Y3514D01*
X9693Y3514D01*
X9693Y3513D01*
X9693Y3513D01*
X9693Y3513D01*
X9693Y3513D01*
X9693Y3512D01*
X9693Y3512D01*
Y3512D01*
Y3512D01*
Y3512D01*
X9693Y3511D01*
X9693Y3511D01*
X9693Y3511D01*
X9693Y3510D01*
X9694Y3510D01*
X9694Y3509D01*
X9694Y3509D01*
X9694Y3509D01*
X9694Y3509D01*
X9694Y3508D01*
X9694Y3508D01*
X9694Y3508D01*
X9694Y3508D01*
X9695Y3508D01*
X9695Y3508D01*
X9695Y3508D01*
X9695Y3508D01*
X9695Y3507D01*
X9695Y3507D01*
X9696Y3507D01*
X9696Y3507D01*
X9696Y3507D01*
X9697Y3507D01*
X9697Y3506D01*
X9697Y3506D01*
X9697Y3506D01*
X9698Y3506D01*
X9698Y3506D01*
X9698D01*
X9698Y3506D01*
X9698D01*
X9699Y3506D01*
X9699Y3506D01*
X9699Y3506D01*
X9700Y3507D01*
X9700Y3507D01*
X9700Y3507D01*
X9700Y3507D01*
X9701Y3507D01*
X9701Y3507D01*
X9701Y3507D01*
X9701Y3507D01*
X9701Y3508D01*
X9702Y3508D01*
X9702Y3508D01*
X9702Y3508D01*
X9702Y3508D01*
X9702Y3508D01*
X9702Y3508D01*
X9702Y3509D01*
X9703Y3509D01*
X9703Y3509D01*
X9703Y3510D01*
X9703Y3510D01*
X9703Y3510D01*
X9703Y3511D01*
X9703Y3511D01*
X9703Y3511D01*
X9703Y3511D01*
Y3511D01*
X9703Y3512D01*
Y3512D01*
Y3512D01*
X9703Y3512D01*
X9703Y3513D01*
X9703Y3513D01*
X9703Y3513D01*
X9703Y3514D01*
X9703Y3514D01*
X9703Y3515D01*
X9702Y3515D01*
X9702Y3515D01*
X9702Y3515D01*
X9702Y3516D01*
X9702Y3516D01*
X9702Y3516D01*
X9702Y3516D01*
X9702Y3516D01*
X9702Y3516D01*
X9701Y3516D01*
X9701Y3517D01*
X9701Y3517D01*
X9700Y3517D01*
X9700Y3517D01*
X9700Y3517D01*
X9700Y3517D01*
X9699Y3517D01*
X9699Y3518D01*
X9699Y3518D01*
X9699Y3518D01*
X9698Y3518D01*
X9698D01*
X9698Y3518D01*
D02*
G37*
G36*
X4752Y-152D02*
X4751D01*
X4751Y-152D01*
X4751D01*
X4751Y-152D01*
X4751Y-152D01*
X4751Y-152D01*
X4750Y-152D01*
X4750Y-152D01*
X4750Y-152D01*
X4749Y-153D01*
X4749Y-153D01*
X4749Y-153D01*
X4749Y-153D01*
X4748Y-153D01*
X4748Y-154D01*
X4748Y-154D01*
X4748Y-154D01*
X4748Y-154D01*
X4748Y-154D01*
X4748Y-154D01*
X4748Y-154D01*
X4747Y-154D01*
X4747Y-155D01*
X4747Y-155D01*
X4747Y-155D01*
X4747Y-156D01*
X4747Y-156D01*
X4747Y-156D01*
X4747Y-157D01*
X4747Y-157D01*
X4747Y-158D01*
Y-158D01*
Y-158D01*
Y-158D01*
X4747Y-158D01*
Y-158D01*
X4747Y-158D01*
X4747Y-158D01*
X4747Y-159D01*
X4747Y-159D01*
X4747Y-160D01*
X4747Y-160D01*
X4747Y-161D01*
Y-161D01*
X4747Y-161D01*
X4747Y-161D01*
X4747Y-161D01*
X4747Y-161D01*
X4747Y-161D01*
X4748Y-161D01*
X4748Y-162D01*
X4748Y-162D01*
X4749Y-163D01*
X4749Y-163D01*
X4749D01*
X4749Y-163D01*
X4749Y-163D01*
X4749Y-163D01*
X4749Y-163D01*
X4750Y-163D01*
X4750Y-163D01*
X4750Y-163D01*
X4750Y-163D01*
X4751Y-163D01*
X4751Y-164D01*
X4752Y-164D01*
X4752D01*
X4752Y-164D01*
X4752D01*
X4752Y-164D01*
X4752Y-164D01*
X4753Y-163D01*
X4753Y-163D01*
X4753Y-163D01*
X4753Y-163D01*
X4754Y-163D01*
X4754Y-163D01*
X4754Y-163D01*
X4754Y-163D01*
X4755Y-162D01*
X4755Y-162D01*
X4755Y-162D01*
X4755Y-162D01*
X4755Y-162D01*
X4755Y-162D01*
X4755Y-162D01*
X4755Y-161D01*
X4756Y-161D01*
X4756Y-161D01*
X4756Y-161D01*
X4756Y-160D01*
X4756Y-160D01*
X4756Y-160D01*
X4756Y-159D01*
X4756Y-159D01*
X4756Y-158D01*
X4756Y-158D01*
Y-158D01*
Y-158D01*
Y-157D01*
X4756Y-157D01*
X4756Y-157D01*
X4756Y-157D01*
X4756Y-157D01*
X4756Y-156D01*
X4756Y-156D01*
X4756Y-156D01*
X4756Y-155D01*
X4756Y-155D01*
X4756Y-155D01*
X4755Y-154D01*
X4755Y-154D01*
X4755Y-154D01*
X4755Y-154D01*
X4755Y-154D01*
X4755Y-153D01*
X4755Y-153D01*
X4755Y-153D01*
X4754Y-153D01*
X4754Y-153D01*
X4754Y-153D01*
X4754Y-153D01*
X4754Y-153D01*
X4753Y-152D01*
X4753Y-152D01*
X4753Y-152D01*
X4752Y-152D01*
X4752Y-152D01*
X4752Y-152D01*
D02*
G37*
G36*
X5377D02*
X5376D01*
X5376Y-152D01*
X5376D01*
X5376Y-152D01*
X5376Y-152D01*
X5376Y-152D01*
X5375Y-152D01*
X5375Y-152D01*
X5375Y-152D01*
X5374Y-153D01*
X5374Y-153D01*
X5374Y-153D01*
X5374Y-153D01*
X5373Y-153D01*
X5373Y-154D01*
X5373Y-154D01*
X5373Y-154D01*
X5373Y-154D01*
X5373Y-154D01*
X5373Y-154D01*
X5373Y-154D01*
X5372Y-154D01*
X5372Y-155D01*
X5372Y-155D01*
X5372Y-155D01*
X5372Y-156D01*
X5372Y-156D01*
X5372Y-156D01*
X5372Y-157D01*
X5372Y-157D01*
X5372Y-158D01*
Y-158D01*
Y-158D01*
Y-158D01*
X5372Y-158D01*
Y-158D01*
X5372Y-158D01*
X5372Y-158D01*
X5372Y-159D01*
X5372Y-159D01*
X5372Y-160D01*
X5372Y-160D01*
X5372Y-161D01*
Y-161D01*
X5372Y-161D01*
X5372Y-161D01*
X5372Y-161D01*
X5372Y-161D01*
X5372Y-161D01*
X5373Y-161D01*
X5373Y-162D01*
X5373Y-162D01*
X5374Y-163D01*
X5374Y-163D01*
X5374D01*
X5374Y-163D01*
X5374Y-163D01*
X5374Y-163D01*
X5374Y-163D01*
X5375Y-163D01*
X5375Y-163D01*
X5375Y-163D01*
X5375Y-163D01*
X5376Y-163D01*
X5376Y-164D01*
X5377Y-164D01*
X5377D01*
X5377Y-164D01*
X5377D01*
X5377Y-164D01*
X5377Y-164D01*
X5378Y-163D01*
X5378Y-163D01*
X5378Y-163D01*
X5378Y-163D01*
X5379Y-163D01*
X5379Y-163D01*
X5379Y-163D01*
X5379Y-163D01*
X5380Y-162D01*
X5380Y-162D01*
X5380Y-162D01*
X5380Y-162D01*
X5380Y-162D01*
X5380Y-162D01*
X5380Y-162D01*
X5380Y-161D01*
X5381Y-161D01*
X5381Y-161D01*
X5381Y-161D01*
X5381Y-160D01*
X5381Y-160D01*
X5381Y-160D01*
X5381Y-159D01*
X5381Y-159D01*
X5381Y-158D01*
X5381Y-158D01*
Y-158D01*
Y-158D01*
Y-157D01*
X5381Y-157D01*
X5381Y-157D01*
X5381Y-157D01*
X5381Y-157D01*
X5381Y-156D01*
X5381Y-156D01*
X5381Y-156D01*
X5381Y-155D01*
X5381Y-155D01*
X5381Y-155D01*
X5380Y-154D01*
X5380Y-154D01*
X5380Y-154D01*
X5380Y-154D01*
X5380Y-154D01*
X5380Y-153D01*
X5380Y-153D01*
X5380Y-153D01*
X5379Y-153D01*
X5379Y-153D01*
X5379Y-153D01*
X5379Y-153D01*
X5379Y-153D01*
X5378Y-152D01*
X5378Y-152D01*
X5378Y-152D01*
X5377Y-152D01*
X5377Y-152D01*
X5377Y-152D01*
D02*
G37*
G36*
X4479Y4310D02*
Y4302D01*
X4490D01*
X4479Y4310D01*
D02*
G37*
G36*
X1042Y3763D02*
X1042D01*
X1042Y3763D01*
X1041Y3763D01*
X1041Y3763D01*
X1041Y3762D01*
X1040Y3762D01*
X1040Y3762D01*
X1040Y3762D01*
X1040Y3762D01*
X1039Y3762D01*
X1039Y3762D01*
X1039Y3762D01*
X1039Y3761D01*
X1039Y3761D01*
X1039Y3761D01*
X1039Y3761D01*
X1039Y3761D01*
X1038Y3761D01*
X1038Y3761D01*
X1038Y3760D01*
X1038Y3760D01*
X1038Y3759D01*
X1038Y3759D01*
X1037Y3759D01*
X1037Y3758D01*
X1037Y3758D01*
X1037Y3758D01*
X1037Y3758D01*
X1037Y3757D01*
X1037Y3757D01*
Y3757D01*
Y3757D01*
Y3757D01*
X1037Y3756D01*
X1037Y3756D01*
X1037Y3756D01*
X1037Y3755D01*
X1038Y3755D01*
X1038Y3754D01*
X1038Y3754D01*
X1038Y3754D01*
X1038Y3754D01*
X1038Y3753D01*
X1038Y3753D01*
X1038Y3753D01*
X1038Y3753D01*
X1039Y3753D01*
X1039Y3753D01*
X1039Y3753D01*
X1039Y3753D01*
X1039Y3752D01*
X1039Y3752D01*
X1040Y3752D01*
X1040Y3752D01*
X1040Y3752D01*
X1041Y3752D01*
X1041Y3751D01*
X1041Y3751D01*
X1041Y3751D01*
X1042Y3751D01*
X1042Y3751D01*
X1042D01*
X1042Y3751D01*
X1042D01*
X1043Y3751D01*
X1043Y3751D01*
X1043Y3751D01*
X1044Y3752D01*
X1044Y3752D01*
X1044Y3752D01*
X1044Y3752D01*
X1045Y3752D01*
X1045Y3752D01*
X1045Y3752D01*
X1045Y3752D01*
X1045Y3753D01*
X1046Y3753D01*
X1046Y3753D01*
X1046Y3753D01*
X1046Y3753D01*
X1046Y3753D01*
X1046Y3753D01*
X1046Y3754D01*
X1047Y3754D01*
X1047Y3754D01*
X1047Y3755D01*
X1047Y3755D01*
X1047Y3755D01*
X1047Y3756D01*
X1047Y3756D01*
X1047Y3756D01*
X1047Y3756D01*
Y3756D01*
X1047Y3757D01*
Y3757D01*
Y3757D01*
X1047Y3757D01*
X1047Y3758D01*
X1047Y3758D01*
X1047Y3758D01*
X1047Y3759D01*
X1047Y3759D01*
X1047Y3760D01*
X1046Y3760D01*
X1046Y3760D01*
X1046Y3760D01*
X1046Y3761D01*
X1046Y3761D01*
X1046Y3761D01*
X1046Y3761D01*
X1046Y3761D01*
X1046Y3761D01*
X1045Y3761D01*
X1045Y3762D01*
X1045Y3762D01*
X1044Y3762D01*
X1044Y3762D01*
X1044Y3762D01*
X1044Y3762D01*
X1043Y3762D01*
X1043Y3763D01*
X1043Y3763D01*
X1043Y3763D01*
X1042Y3763D01*
X1042D01*
X1042Y3763D01*
D02*
G37*
G36*
X10948Y-146D02*
X10940Y-157D01*
X10948D01*
Y-146D01*
D02*
G37*
G36*
X4478Y4118D02*
X4478D01*
X4478D01*
X4478D01*
X4478Y4118D01*
X4478D01*
X4478Y4118D01*
X4477Y4118D01*
X4477Y4118D01*
X4477Y4118D01*
X4476Y4118D01*
X4476Y4118D01*
X4475Y4117D01*
X4475D01*
X4475Y4117D01*
X4475Y4117D01*
X4475Y4117D01*
X4475Y4117D01*
X4475Y4117D01*
X4474Y4117D01*
X4474Y4117D01*
X4474Y4116D01*
X4473Y4116D01*
X4473Y4116D01*
Y4116D01*
X4473Y4116D01*
X4473Y4115D01*
X4473Y4115D01*
X4473Y4115D01*
X4473Y4115D01*
X4473Y4115D01*
X4473Y4115D01*
X4472Y4114D01*
X4472Y4114D01*
X4472Y4114D01*
X4472Y4113D01*
Y4113D01*
X4472Y4113D01*
Y4113D01*
X4472Y4113D01*
X4472Y4112D01*
X4472Y4112D01*
X4472Y4112D01*
X4472Y4112D01*
X4473Y4111D01*
X4473Y4111D01*
X4473Y4111D01*
X4473Y4110D01*
X4473Y4110D01*
X4473Y4110D01*
X4474Y4110D01*
X4474Y4110D01*
X4474Y4110D01*
X4474Y4110D01*
X4474Y4109D01*
X4474Y4109D01*
X4474Y4109D01*
X4475Y4109D01*
X4475Y4109D01*
X4475Y4109D01*
X4475Y4109D01*
X4476Y4109D01*
X4476Y4108D01*
X4477Y4108D01*
X4477Y4108D01*
X4477Y4108D01*
X4478Y4108D01*
X4478D01*
X4478D01*
X4478D01*
X4478Y4108D01*
X4479Y4108D01*
X4479Y4108D01*
X4479Y4108D01*
X4479Y4108D01*
X4480Y4108D01*
X4480Y4109D01*
X4480Y4109D01*
X4481Y4109D01*
X4481Y4109D01*
X4481Y4109D01*
X4482Y4109D01*
X4482Y4110D01*
X4482Y4110D01*
X4482Y4110D01*
X4482Y4110D01*
X4482Y4110D01*
X4482Y4110D01*
X4483Y4110D01*
X4483Y4110D01*
X4483Y4111D01*
X4483Y4111D01*
X4483Y4111D01*
X4483Y4111D01*
X4483Y4112D01*
X4483Y4112D01*
X4484Y4112D01*
X4484Y4113D01*
X4484Y4113D01*
Y4113D01*
X4484Y4113D01*
Y4113D01*
X4484Y4114D01*
X4484Y4114D01*
X4483Y4114D01*
X4483Y4114D01*
X4483Y4115D01*
X4483Y4115D01*
X4483Y4115D01*
X4483Y4116D01*
X4483Y4116D01*
X4483Y4116D01*
X4482Y4116D01*
X4482Y4117D01*
X4482Y4117D01*
X4482Y4117D01*
X4482Y4117D01*
X4482Y4117D01*
X4482Y4117D01*
X4482Y4117D01*
X4481Y4117D01*
X4481Y4117D01*
X4481Y4118D01*
X4480Y4118D01*
X4480Y4118D01*
X4480Y4118D01*
X4479Y4118D01*
X4479Y4118D01*
X4479Y4118D01*
X4478Y4118D01*
D02*
G37*
G36*
X4127Y-152D02*
X4126D01*
X4126Y-152D01*
X4126D01*
X4126Y-152D01*
X4126Y-152D01*
X4126Y-152D01*
X4125Y-152D01*
X4125Y-152D01*
X4125Y-152D01*
X4124Y-153D01*
X4124Y-153D01*
X4124Y-153D01*
X4124Y-153D01*
X4123Y-153D01*
X4123Y-154D01*
X4123Y-154D01*
X4123Y-154D01*
X4123Y-154D01*
X4123Y-154D01*
X4123Y-154D01*
X4123Y-154D01*
X4122Y-154D01*
X4122Y-155D01*
X4122Y-155D01*
X4122Y-155D01*
X4122Y-156D01*
X4122Y-156D01*
X4122Y-156D01*
X4122Y-157D01*
X4122Y-157D01*
X4122Y-158D01*
Y-158D01*
Y-158D01*
Y-158D01*
X4122Y-158D01*
Y-158D01*
X4122Y-158D01*
X4122Y-158D01*
X4122Y-159D01*
X4122Y-159D01*
X4122Y-160D01*
X4122Y-160D01*
X4122Y-161D01*
Y-161D01*
X4122Y-161D01*
X4122Y-161D01*
X4122Y-161D01*
X4122Y-161D01*
X4122Y-161D01*
X4123Y-161D01*
X4123Y-162D01*
X4123Y-162D01*
X4124Y-163D01*
X4124Y-163D01*
X4124D01*
X4124Y-163D01*
X4124Y-163D01*
X4124Y-163D01*
X4124Y-163D01*
X4125Y-163D01*
X4125Y-163D01*
X4125Y-163D01*
X4125Y-163D01*
X4126Y-163D01*
X4126Y-164D01*
X4127Y-164D01*
X4127D01*
X4127Y-164D01*
X4127D01*
X4127Y-164D01*
X4127Y-164D01*
X4128Y-163D01*
X4128Y-163D01*
X4128Y-163D01*
X4128Y-163D01*
X4129Y-163D01*
X4129Y-163D01*
X4129Y-163D01*
X4129Y-163D01*
X4130Y-162D01*
X4130Y-162D01*
X4130Y-162D01*
X4130Y-162D01*
X4130Y-162D01*
X4130Y-162D01*
X4130Y-162D01*
X4130Y-161D01*
X4131Y-161D01*
X4131Y-161D01*
X4131Y-161D01*
X4131Y-160D01*
X4131Y-160D01*
X4131Y-160D01*
X4131Y-159D01*
X4131Y-159D01*
X4131Y-158D01*
X4131Y-158D01*
Y-158D01*
Y-158D01*
Y-157D01*
X4131Y-157D01*
X4131Y-157D01*
X4131Y-157D01*
X4131Y-157D01*
X4131Y-156D01*
X4131Y-156D01*
X4131Y-156D01*
X4131Y-155D01*
X4131Y-155D01*
X4131Y-155D01*
X4130Y-154D01*
X4130Y-154D01*
X4130Y-154D01*
X4130Y-154D01*
X4130Y-154D01*
X4130Y-153D01*
X4130Y-153D01*
X4130Y-153D01*
X4129Y-153D01*
X4129Y-153D01*
X4129Y-153D01*
X4129Y-153D01*
X4129Y-153D01*
X4128Y-152D01*
X4128Y-152D01*
X4128Y-152D01*
X4127Y-152D01*
X4127Y-152D01*
X4127Y-152D01*
D02*
G37*
G36*
X3502D02*
X3501D01*
X3501Y-152D01*
X3501D01*
X3501Y-152D01*
X3501Y-152D01*
X3501Y-152D01*
X3500Y-152D01*
X3500Y-152D01*
X3500Y-152D01*
X3499Y-153D01*
X3499Y-153D01*
X3499Y-153D01*
X3499Y-153D01*
X3498Y-153D01*
X3498Y-154D01*
X3498Y-154D01*
X3498Y-154D01*
X3498Y-154D01*
X3498Y-154D01*
X3498Y-154D01*
X3498Y-154D01*
X3497Y-154D01*
X3497Y-155D01*
X3497Y-155D01*
X3497Y-155D01*
X3497Y-156D01*
X3497Y-156D01*
X3497Y-156D01*
X3497Y-157D01*
X3497Y-157D01*
X3497Y-158D01*
Y-158D01*
Y-158D01*
Y-158D01*
X3497Y-158D01*
Y-158D01*
X3497Y-158D01*
X3497Y-158D01*
X3497Y-159D01*
X3497Y-159D01*
X3497Y-160D01*
X3497Y-160D01*
X3497Y-161D01*
Y-161D01*
X3497Y-161D01*
X3497Y-161D01*
X3497Y-161D01*
X3497Y-161D01*
X3497Y-161D01*
X3498Y-161D01*
X3498Y-162D01*
X3498Y-162D01*
X3499Y-163D01*
X3499Y-163D01*
X3499D01*
X3499Y-163D01*
X3499Y-163D01*
X3499Y-163D01*
X3499Y-163D01*
X3500Y-163D01*
X3500Y-163D01*
X3500Y-163D01*
X3500Y-163D01*
X3501Y-163D01*
X3501Y-164D01*
X3502Y-164D01*
X3502D01*
X3502Y-164D01*
X3502D01*
X3502Y-164D01*
X3502Y-164D01*
X3503Y-163D01*
X3503Y-163D01*
X3503Y-163D01*
X3503Y-163D01*
X3504Y-163D01*
X3504Y-163D01*
X3504Y-163D01*
X3504Y-163D01*
X3505Y-162D01*
X3505Y-162D01*
X3505Y-162D01*
X3505Y-162D01*
X3505Y-162D01*
X3505Y-162D01*
X3505Y-162D01*
X3505Y-161D01*
X3506Y-161D01*
X3506Y-161D01*
X3506Y-161D01*
X3506Y-160D01*
X3506Y-160D01*
X3506Y-160D01*
X3506Y-159D01*
X3506Y-159D01*
X3506Y-158D01*
X3506Y-158D01*
Y-158D01*
Y-158D01*
Y-157D01*
X3506Y-157D01*
X3506Y-157D01*
X3506Y-157D01*
X3506Y-157D01*
X3506Y-156D01*
X3506Y-156D01*
X3506Y-156D01*
X3506Y-155D01*
X3506Y-155D01*
X3506Y-155D01*
X3505Y-154D01*
X3505Y-154D01*
X3505Y-154D01*
X3505Y-154D01*
X3505Y-154D01*
X3505Y-153D01*
X3505Y-153D01*
X3505Y-153D01*
X3504Y-153D01*
X3504Y-153D01*
X3504Y-153D01*
X3504Y-153D01*
X3504Y-153D01*
X3503Y-152D01*
X3503Y-152D01*
X3503Y-152D01*
X3502Y-152D01*
X3502Y-152D01*
X3502Y-152D01*
D02*
G37*
G36*
X2877D02*
X2876D01*
X2876Y-152D01*
X2876D01*
X2876Y-152D01*
X2876Y-152D01*
X2876Y-152D01*
X2875Y-152D01*
X2875Y-152D01*
X2875Y-152D01*
X2874Y-153D01*
X2874Y-153D01*
X2874Y-153D01*
X2874Y-153D01*
X2873Y-153D01*
X2873Y-154D01*
X2873Y-154D01*
X2873Y-154D01*
X2873Y-154D01*
X2873Y-154D01*
X2873Y-154D01*
X2873Y-154D01*
X2872Y-154D01*
X2872Y-155D01*
X2872Y-155D01*
X2872Y-155D01*
X2872Y-156D01*
X2872Y-156D01*
X2872Y-156D01*
X2872Y-157D01*
X2872Y-157D01*
X2872Y-158D01*
Y-158D01*
Y-158D01*
Y-158D01*
X2872Y-158D01*
Y-158D01*
X2872Y-158D01*
X2872Y-158D01*
X2872Y-159D01*
X2872Y-159D01*
X2872Y-160D01*
X2872Y-160D01*
X2872Y-161D01*
Y-161D01*
X2872Y-161D01*
X2872Y-161D01*
X2872Y-161D01*
X2872Y-161D01*
X2872Y-161D01*
X2873Y-161D01*
X2873Y-162D01*
X2873Y-162D01*
X2874Y-163D01*
X2874Y-163D01*
X2874D01*
X2874Y-163D01*
X2874Y-163D01*
X2874Y-163D01*
X2874Y-163D01*
X2875Y-163D01*
X2875Y-163D01*
X2875Y-163D01*
X2875Y-163D01*
X2876Y-163D01*
X2876Y-164D01*
X2877Y-164D01*
X2877D01*
X2877Y-164D01*
X2877D01*
X2877Y-164D01*
X2877Y-164D01*
X2878Y-163D01*
X2878Y-163D01*
X2878Y-163D01*
X2878Y-163D01*
X2879Y-163D01*
X2879Y-163D01*
X2879Y-163D01*
X2879Y-163D01*
X2880Y-162D01*
X2880Y-162D01*
X2880Y-162D01*
X2880Y-162D01*
X2880Y-162D01*
X2880Y-162D01*
X2880Y-162D01*
X2880Y-161D01*
X2881Y-161D01*
X2881Y-161D01*
X2881Y-161D01*
X2881Y-160D01*
X2881Y-160D01*
X2881Y-160D01*
X2881Y-159D01*
X2881Y-159D01*
X2881Y-158D01*
X2881Y-158D01*
Y-158D01*
Y-158D01*
Y-157D01*
X2881Y-157D01*
X2881Y-157D01*
X2881Y-157D01*
X2881Y-157D01*
X2881Y-156D01*
X2881Y-156D01*
X2881Y-156D01*
X2881Y-155D01*
X2881Y-155D01*
X2881Y-155D01*
X2880Y-154D01*
X2880Y-154D01*
X2880Y-154D01*
X2880Y-154D01*
X2880Y-154D01*
X2880Y-153D01*
X2880Y-153D01*
X2880Y-153D01*
X2879Y-153D01*
X2879Y-153D01*
X2879Y-153D01*
X2879Y-153D01*
X2879Y-153D01*
X2878Y-152D01*
X2878Y-152D01*
X2878Y-152D01*
X2877Y-152D01*
X2877Y-152D01*
X2877Y-152D01*
D02*
G37*
G36*
X2898Y-144D02*
X2892D01*
Y-163D01*
X2898D01*
X2898Y-163D01*
X2898D01*
X2899Y-163D01*
X2899Y-163D01*
X2900Y-163D01*
X2900Y-163D01*
X2901Y-162D01*
X2901Y-162D01*
X2902Y-162D01*
X2902D01*
X2902Y-162D01*
X2902Y-162D01*
X2902Y-162D01*
X2902Y-162D01*
X2902Y-162D01*
X2902Y-162D01*
X2903Y-162D01*
X2903Y-162D01*
X2903Y-161D01*
X2904Y-161D01*
X2904Y-161D01*
X2904Y-161D01*
X2904Y-161D01*
X2904Y-161D01*
X2904Y-161D01*
X2904Y-161D01*
X2904Y-160D01*
X2904Y-160D01*
X2905Y-160D01*
X2905Y-160D01*
X2905Y-159D01*
X2905Y-159D01*
X2905Y-159D01*
X2905Y-159D01*
X2906Y-158D01*
X2906Y-158D01*
Y-158D01*
X2906Y-158D01*
X2906Y-158D01*
X2906Y-157D01*
X2906Y-157D01*
X2906Y-157D01*
X2906Y-157D01*
X2906Y-156D01*
X2906Y-156D01*
X2906Y-156D01*
X2906Y-155D01*
X2906Y-155D01*
X2906Y-154D01*
X2906Y-154D01*
X2906Y-153D01*
Y-153D01*
Y-153D01*
Y-153D01*
Y-153D01*
Y-153D01*
Y-153D01*
Y-153D01*
X2906Y-152D01*
X2906Y-152D01*
X2906Y-152D01*
X2906Y-151D01*
X2906Y-151D01*
X2906Y-150D01*
X2906Y-150D01*
X2906Y-149D01*
X2906Y-149D01*
X2906Y-148D01*
X2905Y-148D01*
X2905Y-147D01*
X2905Y-147D01*
X2905Y-147D01*
X2905Y-147D01*
X2905Y-147D01*
X2905Y-147D01*
X2905Y-146D01*
X2904Y-146D01*
X2904Y-146D01*
X2904Y-146D01*
X2904Y-145D01*
X2904Y-145D01*
X2903Y-145D01*
X2903Y-145D01*
X2903Y-145D01*
X2903Y-144D01*
X2902Y-144D01*
X2902Y-144D01*
X2902D01*
X2902Y-144D01*
X2902Y-144D01*
X2902Y-144D01*
X2901Y-144D01*
X2901Y-144D01*
X2901Y-144D01*
X2901Y-144D01*
X2901Y-144D01*
X2900Y-144D01*
X2900Y-144D01*
X2899Y-144D01*
X2899Y-144D01*
X2899Y-144D01*
X2898Y-144D01*
D02*
G37*
G36*
X2252Y-152D02*
X2251D01*
X2251Y-152D01*
X2251D01*
X2251Y-152D01*
X2251Y-152D01*
X2251Y-152D01*
X2250Y-152D01*
X2250Y-152D01*
X2250Y-152D01*
X2249Y-153D01*
X2249Y-153D01*
X2249Y-153D01*
X2249Y-153D01*
X2248Y-153D01*
X2248Y-154D01*
X2248Y-154D01*
X2248Y-154D01*
X2248Y-154D01*
X2248Y-154D01*
X2248Y-154D01*
X2248Y-154D01*
X2247Y-154D01*
X2247Y-155D01*
X2247Y-155D01*
X2247Y-155D01*
X2247Y-156D01*
X2247Y-156D01*
X2247Y-156D01*
X2247Y-157D01*
X2247Y-157D01*
X2247Y-158D01*
Y-158D01*
Y-158D01*
Y-158D01*
X2247Y-158D01*
Y-158D01*
X2247Y-158D01*
X2247Y-158D01*
X2247Y-159D01*
X2247Y-159D01*
X2247Y-160D01*
X2247Y-160D01*
X2247Y-161D01*
Y-161D01*
X2247Y-161D01*
X2247Y-161D01*
X2247Y-161D01*
X2247Y-161D01*
X2247Y-161D01*
X2248Y-161D01*
X2248Y-162D01*
X2248Y-162D01*
X2249Y-163D01*
X2249Y-163D01*
X2249D01*
X2249Y-163D01*
X2249Y-163D01*
X2249Y-163D01*
X2249Y-163D01*
X2250Y-163D01*
X2250Y-163D01*
X2250Y-163D01*
X2250Y-163D01*
X2251Y-163D01*
X2251Y-164D01*
X2252Y-164D01*
X2252D01*
X2252Y-164D01*
X2252D01*
X2252Y-164D01*
X2252Y-164D01*
X2253Y-163D01*
X2253Y-163D01*
X2253Y-163D01*
X2253Y-163D01*
X2254Y-163D01*
X2254Y-163D01*
X2254Y-163D01*
X2254Y-163D01*
X2255Y-162D01*
X2255Y-162D01*
X2255Y-162D01*
X2255Y-162D01*
X2255Y-162D01*
X2255Y-162D01*
X2255Y-162D01*
X2255Y-161D01*
X2256Y-161D01*
X2256Y-161D01*
X2256Y-161D01*
X2256Y-160D01*
X2256Y-160D01*
X2256Y-160D01*
X2256Y-159D01*
X2256Y-159D01*
X2256Y-158D01*
X2256Y-158D01*
Y-158D01*
Y-158D01*
Y-157D01*
X2256Y-157D01*
X2256Y-157D01*
X2256Y-157D01*
X2256Y-157D01*
X2256Y-156D01*
X2256Y-156D01*
X2256Y-156D01*
X2256Y-155D01*
X2256Y-155D01*
X2256Y-155D01*
X2255Y-154D01*
X2255Y-154D01*
X2255Y-154D01*
X2255Y-154D01*
X2255Y-154D01*
X2255Y-153D01*
X2255Y-153D01*
X2255Y-153D01*
X2254Y-153D01*
X2254Y-153D01*
X2254Y-153D01*
X2254Y-153D01*
X2254Y-153D01*
X2253Y-152D01*
X2253Y-152D01*
X2253Y-152D01*
X2252Y-152D01*
X2252Y-152D01*
X2252Y-152D01*
D02*
G37*
G36*
X1627D02*
X1626D01*
X1626Y-152D01*
X1626D01*
X1626Y-152D01*
X1626Y-152D01*
X1626Y-152D01*
X1625Y-152D01*
X1625Y-152D01*
X1625Y-152D01*
X1624Y-153D01*
X1624Y-153D01*
X1624Y-153D01*
X1624Y-153D01*
X1623Y-153D01*
X1623Y-154D01*
X1623Y-154D01*
X1623Y-154D01*
X1623Y-154D01*
X1623Y-154D01*
X1623Y-154D01*
X1623Y-154D01*
X1622Y-154D01*
X1622Y-155D01*
X1622Y-155D01*
X1622Y-155D01*
X1622Y-156D01*
X1622Y-156D01*
X1622Y-156D01*
X1622Y-157D01*
X1622Y-157D01*
X1622Y-158D01*
Y-158D01*
Y-158D01*
Y-158D01*
X1622Y-158D01*
Y-158D01*
X1622Y-158D01*
X1622Y-158D01*
X1622Y-159D01*
X1622Y-159D01*
X1622Y-160D01*
X1622Y-160D01*
X1622Y-161D01*
Y-161D01*
X1622Y-161D01*
X1622Y-161D01*
X1622Y-161D01*
X1622Y-161D01*
X1622Y-161D01*
X1623Y-161D01*
X1623Y-162D01*
X1623Y-162D01*
X1624Y-163D01*
X1624Y-163D01*
X1624D01*
X1624Y-163D01*
X1624Y-163D01*
X1624Y-163D01*
X1624Y-163D01*
X1625Y-163D01*
X1625Y-163D01*
X1625Y-163D01*
X1625Y-163D01*
X1626Y-163D01*
X1626Y-164D01*
X1627Y-164D01*
X1627D01*
X1627Y-164D01*
X1627D01*
X1627Y-164D01*
X1627Y-164D01*
X1628Y-163D01*
X1628Y-163D01*
X1628Y-163D01*
X1628Y-163D01*
X1629Y-163D01*
X1629Y-163D01*
X1629Y-163D01*
X1629Y-163D01*
X1630Y-162D01*
X1630Y-162D01*
X1630Y-162D01*
X1630Y-162D01*
X1630Y-162D01*
X1630Y-162D01*
X1630Y-162D01*
X1630Y-161D01*
X1631Y-161D01*
X1631Y-161D01*
X1631Y-161D01*
X1631Y-160D01*
X1631Y-160D01*
X1631Y-160D01*
X1631Y-159D01*
X1631Y-159D01*
X1631Y-158D01*
X1631Y-158D01*
Y-158D01*
Y-158D01*
Y-157D01*
X1631Y-157D01*
X1631Y-157D01*
X1631Y-157D01*
X1631Y-157D01*
X1631Y-156D01*
X1631Y-156D01*
X1631Y-156D01*
X1631Y-155D01*
X1631Y-155D01*
X1631Y-155D01*
X1630Y-154D01*
X1630Y-154D01*
X1630Y-154D01*
X1630Y-154D01*
X1630Y-154D01*
X1630Y-153D01*
X1630Y-153D01*
X1630Y-153D01*
X1629Y-153D01*
X1629Y-153D01*
X1629Y-153D01*
X1629Y-153D01*
X1629Y-153D01*
X1628Y-152D01*
X1628Y-152D01*
X1628Y-152D01*
X1627Y-152D01*
X1627Y-152D01*
X1627Y-152D01*
D02*
G37*
G36*
X1648Y-144D02*
X1642D01*
Y-151D01*
X1648D01*
X1648Y-151D01*
X1649D01*
X1649Y-151D01*
X1649Y-151D01*
X1650Y-151D01*
X1650Y-151D01*
X1650Y-151D01*
X1651Y-151D01*
X1651Y-151D01*
X1651D01*
X1651Y-151D01*
X1651Y-151D01*
X1651Y-151D01*
X1651Y-151D01*
X1651Y-151D01*
X1651Y-151D01*
X1652Y-150D01*
X1652Y-150D01*
X1652Y-150D01*
X1653Y-150D01*
Y-150D01*
X1653Y-150D01*
X1653Y-150D01*
X1653Y-149D01*
X1653Y-149D01*
X1653Y-149D01*
X1653Y-149D01*
X1653Y-149D01*
X1653Y-148D01*
X1653Y-148D01*
X1653Y-147D01*
Y-147D01*
Y-147D01*
Y-147D01*
Y-147D01*
X1653Y-147D01*
X1653Y-147D01*
X1653Y-147D01*
X1653Y-146D01*
X1653Y-146D01*
X1653Y-146D01*
X1653Y-145D01*
Y-145D01*
X1653Y-145D01*
X1653Y-145D01*
X1652Y-145D01*
X1652Y-145D01*
X1652Y-144D01*
X1652Y-144D01*
X1651Y-144D01*
X1651Y-144D01*
X1651D01*
X1651Y-144D01*
X1651Y-144D01*
X1651Y-144D01*
X1651Y-144D01*
X1650Y-144D01*
X1650Y-144D01*
X1650Y-144D01*
X1650Y-144D01*
X1650Y-144D01*
X1649Y-144D01*
X1649Y-144D01*
X1649Y-144D01*
X1648Y-144D01*
X1648Y-144D01*
D02*
G37*
G36*
X1648Y-154D02*
X1642D01*
Y-163D01*
X1649D01*
X1649Y-163D01*
X1650D01*
X1650Y-163D01*
X1650Y-163D01*
X1651Y-163D01*
X1651Y-163D01*
X1651D01*
X1651Y-163D01*
X1651D01*
X1651Y-163D01*
X1651Y-163D01*
X1651Y-162D01*
X1652Y-162D01*
X1652Y-162D01*
X1652Y-162D01*
X1653Y-162D01*
X1653D01*
X1653Y-162D01*
X1653Y-162D01*
X1653Y-162D01*
X1653Y-162D01*
X1653Y-161D01*
X1653Y-161D01*
X1654Y-161D01*
X1654Y-161D01*
Y-161D01*
X1654Y-161D01*
X1654Y-160D01*
X1654Y-160D01*
X1654Y-160D01*
X1654Y-160D01*
X1654Y-160D01*
X1654Y-159D01*
X1654Y-159D01*
X1654Y-158D01*
Y-158D01*
Y-158D01*
Y-158D01*
X1654Y-158D01*
Y-158D01*
X1654Y-158D01*
X1654Y-158D01*
X1654Y-157D01*
X1654Y-157D01*
X1654Y-156D01*
X1654Y-156D01*
Y-156D01*
X1654Y-156D01*
X1654Y-156D01*
X1654Y-156D01*
X1653Y-156D01*
X1653Y-155D01*
X1653Y-155D01*
X1652Y-155D01*
X1652Y-155D01*
X1652Y-155D01*
X1652D01*
X1652Y-155D01*
X1651Y-155D01*
X1651Y-154D01*
X1651Y-154D01*
X1651Y-154D01*
X1651Y-154D01*
X1651Y-154D01*
X1650Y-154D01*
X1650Y-154D01*
X1650Y-154D01*
X1650Y-154D01*
X1649Y-154D01*
X1649Y-154D01*
X1648Y-154D01*
D02*
G37*
G36*
X1002Y-152D02*
X1001D01*
X1001Y-152D01*
X1001D01*
X1001Y-152D01*
X1001Y-152D01*
X1001Y-152D01*
X1000Y-152D01*
X1000Y-152D01*
X1000Y-152D01*
X999Y-153D01*
X999Y-153D01*
X999Y-153D01*
X999Y-153D01*
X998Y-153D01*
X998Y-154D01*
X998Y-154D01*
X998Y-154D01*
X998Y-154D01*
X998Y-154D01*
X998Y-154D01*
X998Y-154D01*
X997Y-154D01*
X997Y-155D01*
X997Y-155D01*
X997Y-155D01*
X997Y-156D01*
X997Y-156D01*
X997Y-156D01*
X997Y-157D01*
X997Y-157D01*
X997Y-158D01*
Y-158D01*
Y-158D01*
Y-158D01*
X997Y-158D01*
Y-158D01*
X997Y-158D01*
X997Y-158D01*
X997Y-159D01*
X997Y-159D01*
X997Y-160D01*
X997Y-160D01*
X997Y-161D01*
Y-161D01*
X997Y-161D01*
X997Y-161D01*
X997Y-161D01*
X997Y-161D01*
X997Y-161D01*
X998Y-161D01*
X998Y-162D01*
X998Y-162D01*
X999Y-163D01*
X999Y-163D01*
X999D01*
X999Y-163D01*
X999Y-163D01*
X999Y-163D01*
X999Y-163D01*
X1000Y-163D01*
X1000Y-163D01*
X1000Y-163D01*
X1000Y-163D01*
X1001Y-163D01*
X1001Y-164D01*
X1002Y-164D01*
X1002D01*
X1002Y-164D01*
X1002D01*
X1002Y-164D01*
X1002Y-164D01*
X1003Y-163D01*
X1003Y-163D01*
X1003Y-163D01*
X1003Y-163D01*
X1004Y-163D01*
X1004Y-163D01*
X1004Y-163D01*
X1004Y-163D01*
X1005Y-162D01*
X1005Y-162D01*
X1005Y-162D01*
X1005Y-162D01*
X1005Y-162D01*
X1005Y-162D01*
X1005Y-162D01*
X1005Y-161D01*
X1006Y-161D01*
X1006Y-161D01*
X1006Y-161D01*
X1006Y-160D01*
X1006Y-160D01*
X1006Y-160D01*
X1006Y-159D01*
X1006Y-159D01*
X1006Y-158D01*
X1006Y-158D01*
Y-158D01*
Y-158D01*
Y-157D01*
X1006Y-157D01*
X1006Y-157D01*
X1006Y-157D01*
X1006Y-157D01*
X1006Y-156D01*
X1006Y-156D01*
X1006Y-156D01*
X1006Y-155D01*
X1006Y-155D01*
X1006Y-155D01*
X1005Y-154D01*
X1005Y-154D01*
X1005Y-154D01*
X1005Y-154D01*
X1005Y-154D01*
X1005Y-153D01*
X1005Y-153D01*
X1005Y-153D01*
X1004Y-153D01*
X1004Y-153D01*
X1004Y-153D01*
X1004Y-153D01*
X1004Y-153D01*
X1003Y-152D01*
X1003Y-152D01*
X1003Y-152D01*
X1002Y-152D01*
X1002Y-152D01*
X1002Y-152D01*
D02*
G37*
G36*
X1023Y-143D02*
Y-143D01*
X1023Y-143D01*
X1023Y-143D01*
X1022Y-144D01*
X1022Y-144D01*
X1022Y-144D01*
X1022Y-144D01*
X1022Y-145D01*
X1022Y-145D01*
X1022Y-145D01*
X1022Y-146D01*
X1022Y-146D01*
X1022Y-147D01*
X1021Y-148D01*
X1018Y-155D01*
X1027D01*
X1024Y-148D01*
Y-148D01*
X1024Y-148D01*
X1024Y-148D01*
X1024Y-148D01*
X1024Y-148D01*
X1024Y-148D01*
X1024Y-147D01*
X1024Y-147D01*
X1024Y-147D01*
X1024Y-146D01*
X1023Y-146D01*
X1023Y-145D01*
X1023Y-144D01*
X1023Y-144D01*
X1023Y-143D01*
D02*
G37*
G36*
X8946Y6923D02*
X8946D01*
X8946Y6923D01*
X8946Y6923D01*
X8945Y6923D01*
X8945Y6923D01*
X8945Y6923D01*
X8945Y6922D01*
X8944Y6922D01*
X8944Y6922D01*
X8944Y6922D01*
X8944Y6922D01*
X8943Y6922D01*
X8943Y6922D01*
X8943Y6921D01*
X8942Y6921D01*
X8942Y6921D01*
X8942Y6921D01*
X8942Y6921D01*
X8942Y6920D01*
X8942Y6920D01*
X8942Y6920D01*
X8942Y6919D01*
X8942Y6919D01*
X8942Y6919D01*
X8941Y6918D01*
X8941Y6918D01*
X8941Y6918D01*
X8941Y6917D01*
X8941Y6917D01*
X8941Y6917D01*
X8941Y6916D01*
X8941Y6916D01*
X8941Y6915D01*
X8941Y6915D01*
X8941Y6915D01*
X8941Y6914D01*
X8941Y6914D01*
X8941Y6913D01*
Y6912D01*
Y6912D01*
Y6912D01*
Y6912D01*
Y6912D01*
Y6912D01*
X8941Y6912D01*
Y6912D01*
Y6911D01*
X8941Y6911D01*
Y6911D01*
X8941Y6910D01*
X8941Y6910D01*
X8941Y6909D01*
X8941Y6908D01*
X8941Y6908D01*
X8941Y6907D01*
X8941Y6906D01*
X8942Y6906D01*
X8942Y6905D01*
X8942Y6905D01*
X8942Y6905D01*
X8942Y6904D01*
X8942Y6904D01*
X8942Y6904D01*
X8942Y6904D01*
X8942Y6904D01*
X8943Y6904D01*
X8943Y6904D01*
X8943Y6904D01*
X8943Y6903D01*
X8943Y6903D01*
X8944Y6903D01*
X8944Y6903D01*
X8944Y6903D01*
X8944Y6902D01*
X8945Y6902D01*
X8945Y6902D01*
X8946Y6902D01*
X8946Y6902D01*
X8946D01*
X8946Y6902D01*
X8946Y6902D01*
X8946Y6902D01*
X8947Y6902D01*
X8947Y6902D01*
X8947Y6902D01*
X8947Y6902D01*
X8948Y6903D01*
X8948Y6903D01*
X8948Y6903D01*
X8949Y6903D01*
X8949Y6903D01*
X8949Y6904D01*
X8949Y6904D01*
X8949Y6904D01*
X8950Y6904D01*
X8950Y6904D01*
X8950Y6905D01*
X8950Y6905D01*
X8950Y6905D01*
X8950Y6906D01*
X8950Y6906D01*
X8950Y6906D01*
X8950Y6906D01*
X8950Y6907D01*
X8950Y6907D01*
X8951Y6907D01*
X8951Y6908D01*
X8951Y6908D01*
X8951Y6909D01*
X8951Y6909D01*
X8951Y6909D01*
X8951Y6910D01*
X8951Y6910D01*
X8951Y6911D01*
X8951Y6911D01*
X8951Y6912D01*
Y6912D01*
Y6912D01*
Y6912D01*
Y6913D01*
Y6913D01*
Y6913D01*
Y6913D01*
X8951Y6913D01*
Y6913D01*
X8951Y6914D01*
Y6914D01*
X8951Y6914D01*
X8951Y6915D01*
X8951Y6916D01*
X8951Y6916D01*
X8951Y6917D01*
X8950Y6918D01*
X8950Y6919D01*
X8950Y6919D01*
X8950Y6920D01*
X8950Y6920D01*
X8950Y6920D01*
X8950Y6920D01*
X8949Y6921D01*
X8949Y6921D01*
X8949Y6921D01*
X8949Y6921D01*
X8949Y6921D01*
X8949Y6921D01*
X8949Y6921D01*
X8949Y6921D01*
X8948Y6922D01*
X8948Y6922D01*
X8948Y6922D01*
X8948Y6922D01*
X8947Y6922D01*
X8947Y6923D01*
X8947Y6923D01*
X8946Y6923D01*
X8946Y6923D01*
D02*
G37*
%LPD*%
D18*
X9368Y6152D02*
X9462D01*
X9368D02*
Y6199D01*
X9462D01*
Y6152D02*
Y6199D01*
X8127Y612D02*
Y699D01*
X8173D01*
Y612D02*
Y699D01*
X8127Y612D02*
X8173D01*
X8127Y517D02*
Y604D01*
X8173D01*
Y517D02*
Y604D01*
X8127Y517D02*
X8173D01*
X8127Y422D02*
Y509D01*
X8173D01*
Y422D02*
Y509D01*
X8127Y422D02*
X8173D01*
X6957D02*
Y509D01*
X7003D01*
Y422D02*
Y509D01*
X6957Y422D02*
X7003D01*
X6957Y517D02*
Y604D01*
X7003D01*
Y517D02*
Y604D01*
X6957Y517D02*
X7003D01*
X7152Y422D02*
Y509D01*
X7198D01*
Y422D02*
Y509D01*
X7152Y422D02*
X7198D01*
X7152Y517D02*
Y604D01*
X7198D01*
Y517D02*
Y604D01*
X7152Y517D02*
X7198D01*
X7152Y612D02*
Y699D01*
X7198D01*
Y612D02*
Y699D01*
X7152Y612D02*
X7198D01*
X6957D02*
Y699D01*
X7003D01*
Y612D02*
Y699D01*
X6957Y612D02*
X7003D01*
X7542Y422D02*
Y509D01*
X7588D01*
Y422D02*
Y509D01*
X7542Y422D02*
X7588D01*
X7347D02*
Y509D01*
X7393D01*
Y422D02*
Y509D01*
X7347Y422D02*
X7393D01*
X7347Y517D02*
Y604D01*
X7393D01*
Y517D02*
Y604D01*
X7347Y517D02*
X7393D01*
X7542D02*
Y604D01*
X7588D01*
Y517D02*
Y604D01*
X7542Y517D02*
X7588D01*
X7542Y612D02*
Y699D01*
X7588D01*
Y612D02*
Y699D01*
X7542Y612D02*
X7588D01*
X7347D02*
Y699D01*
X7393D01*
Y612D02*
Y699D01*
X7347Y612D02*
X7393D01*
X6567Y422D02*
Y509D01*
X6613D01*
Y422D02*
Y509D01*
X6567Y422D02*
X6613D01*
X6567Y612D02*
Y699D01*
X6613D01*
Y612D02*
Y699D01*
X6567Y612D02*
X6613D01*
X6567Y517D02*
Y604D01*
X6613D01*
Y517D02*
Y604D01*
X6567Y517D02*
X6613D01*
X6762Y422D02*
Y509D01*
X6808D01*
Y422D02*
Y509D01*
X6762Y422D02*
X6808D01*
X6762Y517D02*
Y604D01*
X6808D01*
Y517D02*
Y604D01*
X6762Y517D02*
X6808D01*
X6762Y612D02*
Y699D01*
X6808D01*
Y612D02*
Y699D01*
X6762Y612D02*
X6808D01*
X7737Y422D02*
Y509D01*
X7783D01*
Y422D02*
Y509D01*
X7737Y422D02*
X7783D01*
X7737Y517D02*
Y604D01*
X7783D01*
Y517D02*
Y604D01*
X7737Y517D02*
X7783D01*
X7737Y612D02*
Y699D01*
X7783D01*
Y612D02*
Y699D01*
X7737Y612D02*
X7783D01*
X7932D02*
Y699D01*
X7978D01*
Y612D02*
Y699D01*
X7932Y612D02*
X7978D01*
X7932Y517D02*
Y604D01*
X7978D01*
Y517D02*
Y604D01*
X7932Y517D02*
X7978D01*
X7932Y422D02*
Y509D01*
X7978D01*
Y422D02*
Y509D01*
X7932Y422D02*
X7978D01*
X10013Y494D02*
Y539D01*
Y494D02*
X10100D01*
Y539D01*
X10013D02*
X10100D01*
X6352Y5429D02*
Y5476D01*
X6258Y5429D02*
X6352D01*
X6258D02*
Y5476D01*
X6352D01*
X4131Y5103D02*
X4179D01*
X4131D02*
Y5197D01*
X4179D01*
Y5103D02*
Y5197D01*
X1849Y2525D02*
X1944D01*
Y2572D01*
X1849D02*
X1944D01*
X1849Y2525D02*
Y2572D01*
X10766Y3267D02*
X10814D01*
Y3173D02*
Y3267D01*
X10766Y3173D02*
X10814D01*
X10766D02*
Y3267D01*
Y1198D02*
Y1292D01*
Y1198D02*
X10814D01*
Y1292D01*
X10766D02*
X10814D01*
X9665Y3243D02*
X9805D01*
X9665D02*
Y3397D01*
X9805D01*
Y3243D02*
Y3397D01*
X9865Y3427D02*
Y3563D01*
X9635Y3427D02*
X9865D01*
X9635D02*
Y3563D01*
X9865D01*
X4522Y216D02*
X4928D01*
Y-548D02*
Y216D01*
X4522Y-548D02*
X4928D01*
X4522D02*
Y216D01*
X5147D02*
X5553D01*
Y-548D02*
Y216D01*
X5147Y-548D02*
X5553D01*
X5147D02*
Y216D01*
X2716Y4643D02*
Y4737D01*
Y4643D02*
X2764D01*
Y4737D01*
X2716D02*
X2764D01*
X4447Y4373D02*
X4493D01*
X4447Y4287D02*
Y4373D01*
Y4287D02*
X4493D01*
Y4373D01*
X5091Y5538D02*
Y5632D01*
X5139D01*
Y5538D02*
Y5632D01*
X5091Y5538D02*
X5139D01*
X2231Y6449D02*
Y6544D01*
X2279D01*
Y6449D02*
Y6544D01*
X2231Y6449D02*
X2279D01*
X1636D02*
Y6544D01*
X1684D01*
Y6449D02*
Y6544D01*
X1636Y6449D02*
X1684D01*
X5281Y5123D02*
Y5217D01*
Y5123D02*
X5329D01*
Y5217D01*
X5281D02*
X5329D01*
X5353Y4786D02*
X5447D01*
Y4834D01*
X5353D02*
X5447D01*
X5353Y4786D02*
Y4834D01*
X4108Y4454D02*
X4202D01*
X4108Y4406D02*
Y4454D01*
Y4406D02*
X4202D01*
Y4454D01*
X1048Y3764D02*
X1142D01*
X1048Y3716D02*
Y3764D01*
Y3716D02*
X1142D01*
Y3764D01*
X3503Y3709D02*
X3597D01*
X3503Y3661D02*
Y3709D01*
Y3661D02*
X3597D01*
Y3709D01*
X12213Y6401D02*
Y6759D01*
X12508D01*
Y6401D02*
Y6759D01*
X12213Y6401D02*
X12508D01*
X10697Y216D02*
X11103D01*
Y-548D02*
Y216D01*
X10697Y-548D02*
X11103D01*
X10697D02*
Y216D01*
X4493Y4097D02*
Y4183D01*
X4447Y4097D02*
X4493D01*
X4447D02*
Y4183D01*
X4493D01*
Y4192D02*
Y4278D01*
X4447Y4192D02*
X4493D01*
X4447D02*
Y4278D01*
X4493D01*
X3897Y-548D02*
Y216D01*
Y-548D02*
X4303D01*
Y216D01*
X3897D02*
X4303D01*
X3272Y-548D02*
Y216D01*
Y-548D02*
X3678D01*
Y216D01*
X3272D02*
X3678D01*
X2647Y-548D02*
Y216D01*
Y-548D02*
X3053D01*
Y216D01*
X2647D02*
X3053D01*
X2022Y-548D02*
Y216D01*
Y-548D02*
X2428D01*
Y216D01*
X2022D02*
X2428D01*
X1397Y-548D02*
Y216D01*
Y-548D02*
X1803D01*
Y216D01*
X1397D02*
X1803D01*
X772Y-548D02*
Y216D01*
Y-548D02*
X1178D01*
Y216D01*
X772D02*
X1178D01*
X8597Y7192D02*
X9203D01*
Y6608D02*
Y7192D01*
X8597Y6608D02*
X9203D01*
X8597D02*
Y7192D01*
X9201Y6522D02*
X9249D01*
X9201Y6488D02*
Y6522D01*
Y6488D02*
X9249D01*
Y6522D01*
X9301Y6713D02*
X9349D01*
Y6807D01*
X9301D02*
X9349D01*
X9301Y6713D02*
Y6807D01*
X5013Y5311D02*
Y5359D01*
Y5311D02*
X5107D01*
Y5359D01*
X5013D02*
X5107D01*
X4962Y5583D02*
X5048D01*
Y5537D02*
Y5583D01*
X4962Y5537D02*
X5048D01*
X4962D02*
Y5583D01*
X4871Y5538D02*
X4919D01*
Y5632D01*
X4871D02*
X4919D01*
X4871Y5538D02*
Y5632D01*
M02*
