G04*
G04 #@! TF.GenerationSoftware,Altium Limited,Altium Designer,22.7.1 (60)*
G04*
G04 Layer_Color=2752767*
%FSLAX24Y24*%
%MOIN*%
G70*
G04*
G04 #@! TF.SameCoordinates,6B1DEC42-A22B-484D-B378-F803C718722A*
G04*
G04*
G04 #@! TF.FilePolarity,Positive*
G04*
G01*
G75*
%ADD389C,0.0027*%
%ADD390C,0.0020*%
%ADD391C,0.0013*%
D389*
X116517Y69008D02*
G03*
X116517Y69008I-80J0D01*
G01*
X30580Y72000D02*
G03*
X30580Y72000I-80J0D01*
G01*
Y71000D02*
G03*
X30580Y71000I-80J0D01*
G01*
X29580Y72000D02*
G03*
X29580Y72000I-80J0D01*
G01*
Y71000D02*
G03*
X29580Y71000I-80J0D01*
G01*
X28580Y72000D02*
G03*
X28580Y72000I-80J0D01*
G01*
Y71000D02*
G03*
X28580Y71000I-80J0D01*
G01*
X27580Y72000D02*
G03*
X27580Y72000I-80J0D01*
G01*
Y71000D02*
G03*
X27580Y71000I-80J0D01*
G01*
X26580Y72000D02*
G03*
X26580Y72000I-80J0D01*
G01*
Y71000D02*
G03*
X26580Y71000I-80J0D01*
G01*
X25580Y72000D02*
G03*
X25580Y72000I-80J0D01*
G01*
Y71000D02*
G03*
X25580Y71000I-80J0D01*
G01*
X24580Y72000D02*
G03*
X24580Y72000I-80J0D01*
G01*
Y71000D02*
G03*
X24580Y71000I-80J0D01*
G01*
X23580Y72000D02*
G03*
X23580Y72000I-80J0D01*
G01*
Y71000D02*
G03*
X23580Y71000I-80J0D01*
G01*
X22580Y72000D02*
G03*
X22580Y72000I-80J0D01*
G01*
Y71000D02*
G03*
X22580Y71000I-80J0D01*
G01*
X21580Y72000D02*
G03*
X21580Y72000I-80J0D01*
G01*
Y71000D02*
G03*
X21580Y71000I-80J0D01*
G01*
X20580Y72000D02*
G03*
X20580Y72000I-80J0D01*
G01*
Y71000D02*
G03*
X20580Y71000I-80J0D01*
G01*
X19580Y72000D02*
G03*
X19580Y72000I-80J0D01*
G01*
Y71000D02*
G03*
X19580Y71000I-80J0D01*
G01*
X18580Y72000D02*
G03*
X18580Y72000I-80J0D01*
G01*
Y71000D02*
G03*
X18580Y71000I-80J0D01*
G01*
X17580Y72000D02*
G03*
X17580Y72000I-80J0D01*
G01*
Y71000D02*
G03*
X17580Y71000I-80J0D01*
G01*
X16580Y72000D02*
G03*
X16580Y72000I-80J0D01*
G01*
Y71000D02*
G03*
X16580Y71000I-80J0D01*
G01*
X15580Y72000D02*
G03*
X15580Y72000I-80J0D01*
G01*
Y71000D02*
G03*
X15580Y71000I-80J0D01*
G01*
X14580Y72000D02*
G03*
X14580Y72000I-80J0D01*
G01*
Y71000D02*
G03*
X14580Y71000I-80J0D01*
G01*
X13580Y72000D02*
G03*
X13580Y72000I-80J0D01*
G01*
Y71000D02*
G03*
X13580Y71000I-80J0D01*
G01*
X12580Y72000D02*
G03*
X12580Y72000I-80J0D01*
G01*
Y71000D02*
G03*
X12580Y71000I-80J0D01*
G01*
X11580Y72000D02*
G03*
X11580Y72000I-80J0D01*
G01*
Y71000D02*
G03*
X11580Y71000I-80J0D01*
G01*
X10580Y72000D02*
G03*
X10580Y72000I-80J0D01*
G01*
Y71000D02*
G03*
X10580Y71000I-80J0D01*
G01*
X9580Y72000D02*
G03*
X9580Y72000I-80J0D01*
G01*
Y71000D02*
G03*
X9580Y71000I-80J0D01*
G01*
D390*
X118500Y21170D02*
X118420Y21330D01*
X118580D01*
X118500Y21170D01*
Y21210D02*
X118460Y21290D01*
X118540D01*
X118500Y21210D01*
Y22170D02*
X118420Y22330D01*
X118580D01*
X118500Y22170D01*
Y22210D02*
X118460Y22290D01*
X118540D01*
X118500Y22210D01*
X119600Y21170D02*
X119520Y21330D01*
X119680D01*
X119600Y21170D01*
Y21210D02*
X119560Y21290D01*
X119640D01*
X119600Y21210D01*
Y22170D02*
X119520Y22330D01*
X119680D01*
X119600Y22170D01*
Y22210D02*
X119560Y22290D01*
X119640D01*
X119600Y22210D01*
X46195Y10595D02*
Y10395D01*
Y10495D01*
X46328D01*
Y10595D01*
Y10395D01*
X46195Y10905D02*
Y10705D01*
Y10805D01*
X46328D01*
Y10905D01*
Y10705D01*
X46505Y10595D02*
Y10395D01*
Y10495D01*
X46638D01*
Y10595D01*
Y10395D01*
X46505Y10905D02*
Y10705D01*
Y10805D01*
X46638D01*
Y10905D01*
Y10705D01*
X52445Y10595D02*
Y10395D01*
Y10495D01*
X52578D01*
Y10595D01*
Y10395D01*
X52445Y10905D02*
Y10705D01*
Y10805D01*
X52578D01*
Y10905D01*
Y10705D01*
X52755Y10595D02*
Y10395D01*
Y10495D01*
X52888D01*
Y10595D01*
Y10395D01*
X52755Y10905D02*
Y10705D01*
Y10805D01*
X52888D01*
Y10905D01*
Y10705D01*
X12950Y36920D02*
X12990Y36960D01*
X13030D01*
X12990Y37000D01*
X13030Y37040D01*
X12990D01*
X12950Y37080D01*
X12910Y37040D01*
X12870D01*
X12910Y37000D01*
X12870Y36960D01*
X12910D01*
X12950Y36920D01*
Y36960D02*
X12970Y36980D01*
X12990D01*
X12970Y37000D01*
X12990Y37020D01*
X12970D01*
X12950Y37040D01*
X12930Y37020D01*
X12910D01*
X12930Y37000D01*
X12910Y36980D01*
X12930D01*
X12950Y36960D01*
X17500Y48520D02*
X17540Y48560D01*
X17580D01*
X17540Y48600D01*
X17580Y48640D01*
X17540D01*
X17500Y48680D01*
X17460Y48640D01*
X17420D01*
X17460Y48600D01*
X17420Y48560D01*
X17460D01*
X17500Y48520D01*
Y48560D02*
X17520Y48580D01*
X17540D01*
X17520Y48600D01*
X17540Y48620D01*
X17520D01*
X17500Y48640D01*
X17480Y48620D01*
X17460D01*
X17480Y48600D01*
X17460Y48580D01*
X17480D01*
X17500Y48560D01*
X12600Y51720D02*
X12640Y51760D01*
X12680D01*
X12640Y51800D01*
X12680Y51840D01*
X12640D01*
X12600Y51880D01*
X12560Y51840D01*
X12520D01*
X12560Y51800D01*
X12520Y51760D01*
X12560D01*
X12600Y51720D01*
Y51760D02*
X12620Y51780D01*
X12640D01*
X12620Y51800D01*
X12640Y51820D01*
X12620D01*
X12600Y51840D01*
X12580Y51820D01*
X12560D01*
X12580Y51800D01*
X12560Y51780D01*
X12580D01*
X12600Y51760D01*
X21300Y44820D02*
X21340Y44860D01*
X21380D01*
X21340Y44900D01*
X21380Y44940D01*
X21340D01*
X21300Y44980D01*
X21260Y44940D01*
X21220D01*
X21260Y44900D01*
X21220Y44860D01*
X21260D01*
X21300Y44820D01*
Y44860D02*
X21320Y44880D01*
X21340D01*
X21320Y44900D01*
X21340Y44920D01*
X21320D01*
X21300Y44940D01*
X21280Y44920D01*
X21260D01*
X21280Y44900D01*
X21260Y44880D01*
X21280D01*
X21300Y44860D01*
X24250Y45320D02*
X24290Y45360D01*
X24330D01*
X24290Y45400D01*
X24330Y45440D01*
X24290D01*
X24250Y45480D01*
X24210Y45440D01*
X24170D01*
X24210Y45400D01*
X24170Y45360D01*
X24210D01*
X24250Y45320D01*
Y45360D02*
X24270Y45380D01*
X24290D01*
X24270Y45400D01*
X24290Y45420D01*
X24270D01*
X24250Y45440D01*
X24230Y45420D01*
X24210D01*
X24230Y45400D01*
X24210Y45380D01*
X24230D01*
X24250Y45360D01*
X21250Y53270D02*
X21290Y53310D01*
X21330D01*
X21290Y53350D01*
X21330Y53390D01*
X21290D01*
X21250Y53430D01*
X21210Y53390D01*
X21170D01*
X21210Y53350D01*
X21170Y53310D01*
X21210D01*
X21250Y53270D01*
Y53310D02*
X21270Y53330D01*
X21290D01*
X21270Y53350D01*
X21290Y53370D01*
X21270D01*
X21250Y53390D01*
X21230Y53370D01*
X21210D01*
X21230Y53350D01*
X21210Y53330D01*
X21230D01*
X21250Y53310D01*
X33695Y10595D02*
Y10395D01*
Y10495D01*
X33828D01*
Y10595D01*
Y10395D01*
X33695Y10905D02*
Y10705D01*
Y10805D01*
X33828D01*
Y10905D01*
Y10705D01*
X34005Y10595D02*
Y10395D01*
Y10495D01*
X34138D01*
Y10595D01*
Y10395D01*
X34005Y10905D02*
Y10705D01*
Y10805D01*
X34138D01*
Y10905D01*
Y10705D01*
X8695Y10595D02*
Y10395D01*
Y10495D01*
X8828D01*
Y10595D01*
Y10395D01*
X8695Y10905D02*
Y10705D01*
Y10805D01*
X8828D01*
Y10905D01*
Y10705D01*
X9005Y10595D02*
Y10395D01*
Y10495D01*
X9138D01*
Y10595D01*
Y10395D01*
X9005Y10905D02*
Y10705D01*
Y10805D01*
X9138D01*
Y10905D01*
Y10705D01*
X18010Y64691D02*
Y64651D01*
X18090D01*
Y64691D01*
X18130D01*
Y64771D01*
X18090D01*
Y64811D01*
X18010D01*
Y64771D01*
X17970D01*
Y64691D01*
X18010D01*
X18030Y64711D02*
Y64691D01*
X18070D01*
Y64711D01*
X18090D01*
Y64751D01*
X18070D01*
Y64771D01*
X18030D01*
Y64751D01*
X18010D01*
Y64711D01*
X18030D01*
X18010Y63691D02*
Y63651D01*
X18090D01*
Y63691D01*
X18130D01*
Y63771D01*
X18090D01*
Y63811D01*
X18010D01*
Y63771D01*
X17970D01*
Y63691D01*
X18010D01*
X18030Y63711D02*
Y63691D01*
X18070D01*
Y63711D01*
X18090D01*
Y63751D01*
X18070D01*
Y63771D01*
X18030D01*
Y63751D01*
X18010D01*
Y63711D01*
X18030D01*
X87000Y22870D02*
X87040Y22910D01*
X87080D01*
X87040Y22950D01*
X87080Y22990D01*
X87040D01*
X87000Y23030D01*
X86960Y22990D01*
X86920D01*
X86960Y22950D01*
X86920Y22910D01*
X86960D01*
X87000Y22870D01*
Y22910D02*
X87020Y22930D01*
X87040D01*
X87020Y22950D01*
X87040Y22970D01*
X87020D01*
X87000Y22990D01*
X86980Y22970D01*
X86960D01*
X86980Y22950D01*
X86960Y22930D01*
X86980D01*
X87000Y22910D01*
X23960Y64691D02*
Y64651D01*
X24040D01*
Y64691D01*
X24080D01*
Y64771D01*
X24040D01*
Y64811D01*
X23960D01*
Y64771D01*
X23920D01*
Y64691D01*
X23960D01*
X23980Y64711D02*
Y64691D01*
X24020D01*
Y64711D01*
X24040D01*
Y64751D01*
X24020D01*
Y64771D01*
X23980D01*
Y64751D01*
X23960D01*
Y64711D01*
X23980D01*
X23960Y63691D02*
Y63651D01*
X24040D01*
Y63691D01*
X24080D01*
Y63771D01*
X24040D01*
Y63811D01*
X23960D01*
Y63771D01*
X23920D01*
Y63691D01*
X23960D01*
X23980Y63711D02*
Y63691D01*
X24020D01*
Y63711D01*
X24040D01*
Y63751D01*
X24020D01*
Y63771D01*
X23980D01*
Y63751D01*
X23960D01*
Y63711D01*
X23980D01*
X43270Y62372D02*
X43310Y62452D01*
X43270Y62532D01*
X43350Y62492D01*
X43430Y62532D01*
X43390Y62452D01*
X43430Y62372D01*
X43350Y62412D01*
X43270Y62372D01*
X43310Y62412D02*
X43330Y62452D01*
X43310Y62492D01*
X43350Y62472D01*
X43390Y62492D01*
X43370Y62452D01*
X43390Y62412D01*
X43350Y62432D01*
X43310Y62412D01*
X44270Y62372D02*
X44310Y62452D01*
X44270Y62532D01*
X44350Y62492D01*
X44430Y62532D01*
X44390Y62452D01*
X44430Y62372D01*
X44350Y62412D01*
X44270Y62372D01*
X44310Y62412D02*
X44330Y62452D01*
X44310Y62492D01*
X44350Y62472D01*
X44390Y62492D01*
X44370Y62452D01*
X44390Y62412D01*
X44350Y62432D01*
X44310Y62412D01*
X45270Y62372D02*
X45310Y62452D01*
X45270Y62532D01*
X45350Y62492D01*
X45430Y62532D01*
X45390Y62452D01*
X45430Y62372D01*
X45350Y62412D01*
X45270Y62372D01*
X45310Y62412D02*
X45330Y62452D01*
X45310Y62492D01*
X45350Y62472D01*
X45390Y62492D01*
X45370Y62452D01*
X45390Y62412D01*
X45350Y62432D01*
X45310Y62412D01*
X104200Y27170D02*
X104240Y27210D01*
X104280D01*
X104240Y27250D01*
X104280Y27290D01*
X104240D01*
X104200Y27330D01*
X104160Y27290D01*
X104120D01*
X104160Y27250D01*
X104120Y27210D01*
X104160D01*
X104200Y27170D01*
Y27210D02*
X104220Y27230D01*
X104240D01*
X104220Y27250D01*
X104240Y27270D01*
X104220D01*
X104200Y27290D01*
X104180Y27270D01*
X104160D01*
X104180Y27250D01*
X104160Y27230D01*
X104180D01*
X104200Y27210D01*
X123105Y66984D02*
X122972D01*
Y66884D01*
X123038D01*
X122972D01*
Y66784D01*
X123105Y65016D02*
X122972D01*
Y64916D01*
X123038D01*
X122972D01*
Y64816D01*
X122692Y64533D02*
X122558D01*
Y64333D01*
X122692D01*
X122558Y64433D02*
X122625D01*
X122692Y67466D02*
X122558D01*
Y67267D01*
X122692D01*
X122558Y67366D02*
X122625D01*
X124054Y64474D02*
Y64274D01*
X124154D01*
X124188Y64308D01*
Y64441D01*
X124154Y64474D01*
X124054D01*
Y67526D02*
Y67326D01*
X124154D01*
X124188Y67359D01*
Y67492D01*
X124154Y67526D01*
X124054D01*
X119870Y17420D02*
X119910Y17500D01*
X119870Y17580D01*
X119950Y17540D01*
X120030Y17580D01*
X119990Y17500D01*
X120030Y17420D01*
X119950Y17460D01*
X119870Y17420D01*
X119910Y17460D02*
X119930Y17500D01*
X119910Y17540D01*
X119950Y17520D01*
X119990Y17540D01*
X119970Y17500D01*
X119990Y17460D01*
X119950Y17480D01*
X119910Y17460D01*
X119870Y16420D02*
X119910Y16500D01*
X119870Y16580D01*
X119950Y16540D01*
X120030Y16580D01*
X119990Y16500D01*
X120030Y16420D01*
X119950Y16460D01*
X119870Y16420D01*
X119910Y16460D02*
X119930Y16500D01*
X119910Y16540D01*
X119950Y16520D01*
X119990Y16540D01*
X119970Y16500D01*
X119990Y16460D01*
X119950Y16480D01*
X119910Y16460D01*
X119870Y15420D02*
X119910Y15500D01*
X119870Y15580D01*
X119950Y15540D01*
X120030Y15580D01*
X119990Y15500D01*
X120030Y15420D01*
X119950Y15460D01*
X119870Y15420D01*
X119910Y15460D02*
X119930Y15500D01*
X119910Y15540D01*
X119950Y15520D01*
X119990Y15540D01*
X119970Y15500D01*
X119990Y15460D01*
X119950Y15480D01*
X119910Y15460D01*
X123483Y18217D02*
X123450Y18250D01*
X123383D01*
X123350Y18217D01*
Y18083D01*
X123383Y18050D01*
X123450D01*
X123483Y18083D01*
Y15117D02*
X123450Y15150D01*
X123383D01*
X123350Y15117D01*
Y14983D01*
X123383Y14950D01*
X123450D01*
X123483Y14983D01*
X75019Y73724D02*
X75086D01*
X75052D01*
Y73524D01*
X75019D01*
X75086D01*
X49980Y73724D02*
X50046D01*
X50013D01*
Y73524D01*
X49980D01*
X50046D01*
X123350Y46970D02*
X123390Y47010D01*
X123430D01*
X123390Y47050D01*
X123430Y47090D01*
X123390D01*
X123350Y47130D01*
X123310Y47090D01*
X123270D01*
X123310Y47050D01*
X123270Y47010D01*
X123310D01*
X123350Y46970D01*
Y42870D02*
X123390Y42910D01*
X123430D01*
X123390Y42950D01*
X123430Y42990D01*
X123390D01*
X123350Y43030D01*
X123310Y42990D01*
X123270D01*
X123310Y42950D01*
X123270Y42910D01*
X123310D01*
X123350Y42870D01*
X121600Y43150D02*
X121640Y43190D01*
X121680D01*
X121640Y43230D01*
X121680Y43270D01*
X121640D01*
X121600Y43310D01*
X121560Y43270D01*
X121520D01*
X121560Y43230D01*
X121520Y43190D01*
X121560D01*
X121600Y43150D01*
Y46690D02*
X121640Y46730D01*
X121680D01*
X121640Y46770D01*
X121680Y46810D01*
X121640D01*
X121600Y46850D01*
X121560Y46810D01*
X121520D01*
X121560Y46770D01*
X121520Y46730D01*
X121560D01*
X121600Y46690D01*
X121677Y44093D02*
X121717Y44173D01*
X121677Y44253D01*
X121757Y44213D01*
X121837Y44253D01*
X121797Y44173D01*
X121837Y44093D01*
X121757Y44133D01*
X121677Y44093D01*
Y45747D02*
X121717Y45827D01*
X121677Y45907D01*
X121757Y45867D01*
X121837Y45907D01*
X121797Y45827D01*
X121837Y45747D01*
X121757Y45787D01*
X121677Y45747D01*
X53200Y18420D02*
X53240Y18460D01*
X53280D01*
X53240Y18500D01*
X53280Y18540D01*
X53240D01*
X53200Y18580D01*
X53160Y18540D01*
X53120D01*
X53160Y18500D01*
X53120Y18460D01*
X53160D01*
X53200Y18420D01*
Y18460D02*
X53220Y18480D01*
X53240D01*
X53220Y18500D01*
X53240Y18520D01*
X53220D01*
X53200Y18540D01*
X53180Y18520D01*
X53160D01*
X53180Y18500D01*
X53160Y18480D01*
X53180D01*
X53200Y18460D01*
X18200Y22220D02*
X18240Y22260D01*
X18280D01*
X18240Y22300D01*
X18280Y22340D01*
X18240D01*
X18200Y22380D01*
X18160Y22340D01*
X18120D01*
X18160Y22300D01*
X18120Y22260D01*
X18160D01*
X18200Y22220D01*
Y22260D02*
X18220Y22280D01*
X18240D01*
X18220Y22300D01*
X18240Y22320D01*
X18220D01*
X18200Y22340D01*
X18180Y22320D01*
X18160D01*
X18180Y22300D01*
X18160Y22280D01*
X18180D01*
X18200Y22260D01*
X41805Y20095D02*
Y19895D01*
Y19995D01*
X41938D01*
Y20095D01*
Y19895D01*
X41495Y20095D02*
Y19895D01*
Y19995D01*
X41628D01*
Y20095D01*
Y19895D01*
X41805Y20405D02*
Y20205D01*
Y20305D01*
X41938D01*
Y20405D01*
Y20205D01*
X41495Y20405D02*
Y20205D01*
Y20305D01*
X41628D01*
Y20405D01*
Y20205D01*
X49270Y62500D02*
X49350Y62580D01*
X49430Y62500D01*
X49350Y62420D01*
X49270Y62500D01*
X75570Y62420D02*
X75610D01*
X75650Y62460D01*
X75690Y62420D01*
X75730D01*
Y62460D01*
X75690Y62500D01*
X75730Y62540D01*
Y62580D01*
X75690D01*
X75650Y62540D01*
X75610Y62580D01*
X75570D01*
Y62540D01*
X75610Y62500D01*
X75570Y62460D01*
Y62420D01*
X3445Y70503D02*
X3365Y70663D01*
X3525D01*
X3445Y70503D01*
Y4361D02*
X3365Y4521D01*
X3525D01*
X3445Y4361D01*
X40255Y10905D02*
Y10705D01*
Y10805D01*
X40388D01*
Y10905D01*
Y10705D01*
X40255Y10595D02*
Y10395D01*
Y10495D01*
X40388D01*
Y10595D01*
Y10395D01*
X39945Y10905D02*
Y10705D01*
Y10805D01*
X40078D01*
Y10905D01*
Y10705D01*
X39945Y10595D02*
Y10395D01*
Y10495D01*
X40078D01*
Y10595D01*
Y10395D01*
X27755Y10905D02*
Y10705D01*
Y10805D01*
X27888D01*
Y10905D01*
Y10705D01*
X27755Y10595D02*
Y10395D01*
Y10495D01*
X27888D01*
Y10595D01*
Y10395D01*
X27445Y10905D02*
Y10705D01*
Y10805D01*
X27578D01*
Y10905D01*
Y10705D01*
X27445Y10595D02*
Y10395D01*
Y10495D01*
X27578D01*
Y10595D01*
Y10395D01*
X21505Y10905D02*
Y10705D01*
Y10805D01*
X21638D01*
Y10905D01*
Y10705D01*
X21505Y10595D02*
Y10395D01*
Y10495D01*
X21638D01*
Y10595D01*
Y10395D01*
X21195Y10905D02*
Y10705D01*
Y10805D01*
X21328D01*
Y10905D01*
Y10705D01*
X21195Y10595D02*
Y10395D01*
Y10495D01*
X21328D01*
Y10595D01*
Y10395D01*
X15255Y10905D02*
Y10705D01*
Y10805D01*
X15388D01*
Y10905D01*
Y10705D01*
X15255Y10595D02*
Y10395D01*
Y10495D01*
X15388D01*
Y10595D01*
Y10395D01*
X14945Y10905D02*
Y10705D01*
Y10805D01*
X15078D01*
Y10905D01*
Y10705D01*
X14945Y10595D02*
Y10395D01*
Y10495D01*
X15078D01*
Y10595D01*
Y10395D01*
X95177Y54755D02*
X95097Y54915D01*
X95257D01*
X95177Y54755D01*
X37303Y53574D02*
X37223Y53734D01*
X37383D01*
X37303Y53574D01*
X112894Y36251D02*
X112814Y36411D01*
X112974D01*
X112894Y36251D01*
X56988Y28770D02*
X56908Y28930D01*
X57068D01*
X56988Y28770D01*
X15256Y35070D02*
X15176Y35230D01*
X15336D01*
X15256Y35070D01*
X100689Y21684D02*
X100609Y21844D01*
X100769D01*
X100689Y21684D01*
X62500Y14203D02*
X62420Y14363D01*
X62580D01*
X62500Y14203D01*
X17618Y17747D02*
X17538Y17907D01*
X17698D01*
X17618Y17747D01*
X121555Y4361D02*
X121475Y4521D01*
X121635D01*
X121555Y4361D01*
X117195Y27460D02*
Y27420D01*
X117275D01*
Y27460D01*
X117315D01*
Y27540D01*
X117275D01*
Y27580D01*
X117195D01*
Y27540D01*
X117155D01*
Y27460D01*
X117195D01*
Y29114D02*
Y29074D01*
X117275D01*
Y29114D01*
X117315D01*
Y29194D01*
X117275D01*
Y29234D01*
X117195D01*
Y29194D01*
X117155D01*
Y29114D01*
X117195D01*
Y30767D02*
Y30727D01*
X117275D01*
Y30767D01*
X117315D01*
Y30847D01*
X117275D01*
Y30887D01*
X117195D01*
Y30847D01*
X117155D01*
Y30767D01*
X117195D01*
Y32421D02*
Y32381D01*
X117275D01*
Y32421D01*
X117315D01*
Y32501D01*
X117275D01*
Y32541D01*
X117195D01*
Y32501D01*
X117155D01*
Y32421D01*
X117195D01*
X119360D02*
Y32381D01*
X119440D01*
Y32421D01*
X119480D01*
Y32501D01*
X119440D01*
Y32541D01*
X119360D01*
Y32501D01*
X119320D01*
Y32421D01*
X119360D01*
Y30767D02*
Y30727D01*
X119440D01*
Y30767D01*
X119480D01*
Y30847D01*
X119440D01*
Y30887D01*
X119360D01*
Y30847D01*
X119320D01*
Y30767D01*
X119360D01*
Y29114D02*
Y29074D01*
X119440D01*
Y29114D01*
X119480D01*
Y29194D01*
X119440D01*
Y29234D01*
X119360D01*
Y29194D01*
X119320D01*
Y29114D01*
X119360D01*
Y27460D02*
Y27420D01*
X119440D01*
Y27460D01*
X119480D01*
Y27540D01*
X119440D01*
Y27580D01*
X119360D01*
Y27540D01*
X119320D01*
Y27460D01*
X119360D01*
X81759Y71526D02*
Y71686D01*
X81919D01*
Y71526D01*
X81759D01*
X81799Y71566D02*
Y71646D01*
X81879D01*
Y71566D01*
X81799D01*
X81759Y67589D02*
Y67749D01*
X81919D01*
Y67589D01*
X81759D01*
X81799Y67629D02*
Y67709D01*
X81879D01*
Y67629D01*
X81799D01*
X120733Y55420D02*
X120773D01*
X120813Y55460D01*
X120853Y55420D01*
X120893D01*
Y55460D01*
X120853Y55500D01*
X120893Y55540D01*
Y55580D01*
X120853D01*
X120813Y55540D01*
X120773Y55580D01*
X120733D01*
Y55540D01*
X120773Y55500D01*
X120733Y55460D01*
Y55420D01*
X120773Y55460D02*
X120793D01*
X120813Y55480D01*
X120833Y55460D01*
X120853D01*
Y55480D01*
X120833Y55500D01*
X120853Y55520D01*
Y55540D01*
X120833D01*
X120813Y55520D01*
X120793Y55540D01*
X120773D01*
Y55520D01*
X120793Y55500D01*
X120773Y55480D01*
Y55460D01*
X120733Y60420D02*
X120773D01*
X120813Y60460D01*
X120853Y60420D01*
X120893D01*
Y60460D01*
X120853Y60500D01*
X120893Y60540D01*
Y60580D01*
X120853D01*
X120813Y60540D01*
X120773Y60580D01*
X120733D01*
Y60540D01*
X120773Y60500D01*
X120733Y60460D01*
Y60420D01*
X120773Y60460D02*
X120793D01*
X120813Y60480D01*
X120833Y60460D01*
X120853D01*
Y60480D01*
X120833Y60500D01*
X120853Y60520D01*
Y60540D01*
X120833D01*
X120813Y60520D01*
X120793Y60540D01*
X120773D01*
Y60520D01*
X120793Y60500D01*
X120773Y60480D01*
Y60460D01*
X122065Y61095D02*
X122105Y61135D01*
X122145D01*
X122105Y61175D01*
X122145Y61215D01*
X122105D01*
X122065Y61255D01*
X122025Y61215D01*
X121985D01*
X122025Y61175D01*
X121985Y61135D01*
X122025D01*
X122065Y61095D01*
Y61135D02*
X122085Y61155D01*
X122105D01*
X122085Y61175D01*
X122105Y61195D01*
X122085D01*
X122065Y61215D01*
X122045Y61195D01*
X122025D01*
X122045Y61175D01*
X122025Y61155D01*
X122045D01*
X122065Y61135D01*
Y54745D02*
X122105Y54785D01*
X122145D01*
X122105Y54825D01*
X122145Y54865D01*
X122105D01*
X122065Y54905D01*
X122025Y54865D01*
X121985D01*
X122025Y54825D01*
X121985Y54785D01*
X122025D01*
X122065Y54745D01*
Y54785D02*
X122085Y54805D01*
X122105D01*
X122085Y54825D01*
X122105Y54845D01*
X122085D01*
X122065Y54865D01*
X122045Y54845D01*
X122025D01*
X122045Y54825D01*
X122025Y54805D01*
X122045D01*
X122065Y54785D01*
X112813Y59398D02*
Y59531D01*
X112879Y59598D01*
X112946Y59531D01*
Y59398D01*
Y59498D01*
X112813D01*
Y56602D02*
Y56736D01*
X112879Y56802D01*
X112946Y56736D01*
Y56602D01*
Y56702D01*
X112813D01*
Y60398D02*
Y60531D01*
X112879Y60598D01*
X112946Y60531D01*
Y60398D01*
Y60498D01*
X112813D01*
Y55602D02*
Y55736D01*
X112879Y55802D01*
X112946Y55736D01*
Y55602D01*
Y55702D01*
X112813D01*
X113813Y58997D02*
Y58797D01*
X113913D01*
X113946Y58831D01*
Y58864D01*
X113913Y58897D01*
X113813D01*
X113913D01*
X113946Y58931D01*
Y58964D01*
X113913Y58997D01*
X113813D01*
Y57403D02*
Y57203D01*
X113913D01*
X113946Y57236D01*
Y57269D01*
X113913Y57303D01*
X113813D01*
X113913D01*
X113946Y57336D01*
Y57369D01*
X113913Y57403D01*
X113813D01*
Y59796D02*
Y59596D01*
X113913D01*
X113946Y59630D01*
Y59663D01*
X113913Y59696D01*
X113813D01*
X113913D01*
X113946Y59730D01*
Y59763D01*
X113913Y59796D01*
X113813D01*
Y56603D02*
Y56404D01*
X113913D01*
X113946Y56437D01*
Y56470D01*
X113913Y56504D01*
X113813D01*
X113913D01*
X113946Y56537D01*
Y56570D01*
X113913Y56603D01*
X113813D01*
Y60596D02*
Y60396D01*
X113913D01*
X113946Y60429D01*
Y60462D01*
X113913Y60496D01*
X113813D01*
X113913D01*
X113946Y60529D01*
Y60562D01*
X113913Y60596D01*
X113813D01*
Y55804D02*
Y55604D01*
X113913D01*
X113946Y55638D01*
Y55671D01*
X113913Y55704D01*
X113813D01*
X113913D01*
X113946Y55738D01*
Y55771D01*
X113913Y55804D01*
X113813D01*
X114813Y58600D02*
Y58400D01*
X114913D01*
X114946Y58433D01*
Y58466D01*
X114913Y58500D01*
X114813D01*
X114913D01*
X114946Y58533D01*
Y58566D01*
X114913Y58600D01*
X114813D01*
Y57800D02*
Y57600D01*
X114913D01*
X114946Y57634D01*
Y57667D01*
X114913Y57700D01*
X114813D01*
X114913D01*
X114946Y57734D01*
Y57767D01*
X114913Y57800D01*
X114813D01*
Y57001D02*
Y56801D01*
X114913D01*
X114946Y56835D01*
Y56868D01*
X114913Y56901D01*
X114813D01*
X114913D01*
X114946Y56934D01*
Y56968D01*
X114913Y57001D01*
X114813D01*
Y59399D02*
Y59199D01*
X114913D01*
X114946Y59232D01*
Y59265D01*
X114913Y59299D01*
X114813D01*
X114913D01*
X114946Y59332D01*
Y59365D01*
X114913Y59399D01*
X114813D01*
Y60198D02*
Y59998D01*
X114913D01*
X114946Y60031D01*
Y60065D01*
X114913Y60098D01*
X114813D01*
X114913D01*
X114946Y60131D01*
Y60165D01*
X114913Y60198D01*
X114813D01*
Y56202D02*
Y56002D01*
X114913D01*
X114946Y56035D01*
Y56069D01*
X114913Y56102D01*
X114813D01*
X114913D01*
X114946Y56135D01*
Y56169D01*
X114913Y56202D01*
X114813D01*
X119870Y10920D02*
X119910Y11000D01*
X119870Y11080D01*
X119950Y11040D01*
X120030Y11080D01*
X119990Y11000D01*
X120030Y10920D01*
X119950Y10960D01*
X119870Y10920D01*
X119910Y10960D02*
X119930Y11000D01*
X119910Y11040D01*
X119950Y11020D01*
X119990Y11040D01*
X119970Y11000D01*
X119990Y10960D01*
X119950Y10980D01*
X119910Y10960D01*
X119870Y9920D02*
X119910Y10000D01*
X119870Y10080D01*
X119950Y10040D01*
X120030Y10080D01*
X119990Y10000D01*
X120030Y9920D01*
X119950Y9960D01*
X119870Y9920D01*
X119910Y9960D02*
X119930Y10000D01*
X119910Y10040D01*
X119950Y10020D01*
X119990Y10040D01*
X119970Y10000D01*
X119990Y9960D01*
X119950Y9980D01*
X119910Y9960D01*
X119870Y8920D02*
X119910Y9000D01*
X119870Y9080D01*
X119950Y9040D01*
X120030Y9080D01*
X119990Y9000D01*
X120030Y8920D01*
X119950Y8960D01*
X119870Y8920D01*
X119910Y8960D02*
X119930Y9000D01*
X119910Y9040D01*
X119950Y9020D01*
X119990Y9040D01*
X119970Y9000D01*
X119990Y8960D01*
X119950Y8980D01*
X119910Y8960D01*
X123483Y11717D02*
X123450Y11750D01*
X123383D01*
X123350Y11717D01*
Y11583D01*
X123383Y11550D01*
X123450D01*
X123483Y11583D01*
Y8617D02*
X123450Y8650D01*
X123383D01*
X123350Y8617D01*
Y8483D01*
X123383Y8450D01*
X123450D01*
X123483Y8483D01*
X42800Y29720D02*
X42840Y29760D01*
X42880D01*
X42840Y29800D01*
X42880Y29840D01*
X42840D01*
X42800Y29880D01*
X42760Y29840D01*
X42720D01*
X42760Y29800D01*
X42720Y29760D01*
X42760D01*
X42800Y29720D01*
Y29760D02*
X42820Y29780D01*
X42840D01*
X42820Y29800D01*
X42840Y29820D01*
X42820D01*
X42800Y29840D01*
X42780Y29820D01*
X42760D01*
X42780Y29800D01*
X42760Y29780D01*
X42780D01*
X42800Y29760D01*
X47800Y42620D02*
X47840Y42660D01*
X47880D01*
X47840Y42700D01*
X47880Y42740D01*
X47840D01*
X47800Y42780D01*
X47760Y42740D01*
X47720D01*
X47760Y42700D01*
X47720Y42660D01*
X47760D01*
X47800Y42620D01*
Y42660D02*
X47820Y42680D01*
X47840D01*
X47820Y42700D01*
X47840Y42720D01*
X47820D01*
X47800Y42740D01*
X47780Y42720D01*
X47760D01*
X47780Y42700D01*
X47760Y42680D01*
X47780D01*
X47800Y42660D01*
X33700Y36620D02*
X33740Y36660D01*
X33780D01*
X33740Y36700D01*
X33780Y36740D01*
X33740D01*
X33700Y36780D01*
X33660Y36740D01*
X33620D01*
X33660Y36700D01*
X33620Y36660D01*
X33660D01*
X33700Y36620D01*
Y36660D02*
X33720Y36680D01*
X33740D01*
X33720Y36700D01*
X33740Y36720D01*
X33720D01*
X33700Y36740D01*
X33680Y36720D01*
X33660D01*
X33680Y36700D01*
X33660Y36680D01*
X33680D01*
X33700Y36660D01*
X22600Y46521D02*
Y46321D01*
Y46421D01*
X22733D01*
Y46521D01*
Y46321D01*
X108546Y3600D02*
Y3400D01*
Y3500D01*
X108679D01*
Y3600D01*
Y3400D01*
X41319Y33857D02*
Y33657D01*
X41452D01*
X41011Y34223D02*
Y34023D01*
X41145D01*
X40704Y34589D02*
Y34389D01*
X40837D01*
X40396Y34954D02*
Y34754D01*
X40529D01*
X40088Y35320D02*
Y35120D01*
X40221D01*
X39781Y35685D02*
Y35485D01*
X39914D01*
X39473Y36051D02*
Y35851D01*
X39606D01*
X39165Y36416D02*
Y36217D01*
X39299D01*
X18811Y33373D02*
Y33173D01*
X18944D01*
X18474Y32913D02*
Y32713D01*
X18608D01*
X18138Y32453D02*
Y32253D01*
X18271D01*
X17801Y31993D02*
Y31793D01*
X17934D01*
X17465Y31533D02*
Y31333D01*
X17598D01*
X17128Y31073D02*
Y30873D01*
X17261D01*
X16791Y30613D02*
Y30413D01*
X16925D01*
X113726Y26121D02*
Y25921D01*
Y26021D01*
X113859D01*
Y26121D01*
Y25921D01*
X113726Y27881D02*
Y27681D01*
Y27781D01*
X113859D01*
Y27881D01*
Y27681D01*
X113726Y31027D02*
Y30827D01*
Y30927D01*
X113859D01*
Y31027D01*
Y30827D01*
X113726Y32664D02*
Y32465D01*
Y32565D01*
X113859D01*
Y32664D01*
Y32465D01*
X113726Y29105D02*
Y28906D01*
Y29005D01*
X113859D01*
Y29105D01*
Y28906D01*
X109979Y31960D02*
Y31760D01*
Y31860D01*
X110112D01*
Y31960D01*
Y31760D01*
X109979Y29873D02*
Y29673D01*
Y29773D01*
X110112D01*
Y29873D01*
Y29673D01*
X110551Y16700D02*
Y16500D01*
Y16600D01*
X110684D01*
Y16700D01*
Y16500D01*
X110953Y16263D02*
Y16063D01*
Y16163D01*
X111086D01*
Y16263D01*
Y16063D01*
X111866Y16263D02*
Y16063D01*
Y16163D01*
X111999D01*
Y16263D01*
Y16063D01*
X112780Y16263D02*
Y16063D01*
Y16163D01*
X112913D01*
Y16263D01*
Y16063D01*
X110567Y24200D02*
Y24000D01*
Y24100D01*
X110700D01*
Y24200D01*
Y24000D01*
X110594Y36500D02*
Y36300D01*
Y36400D01*
X110728D01*
Y36500D01*
Y36300D01*
X12224Y29743D02*
Y29543D01*
Y29643D01*
X12358D01*
Y29743D01*
Y29543D01*
X48950Y56590D02*
Y56390D01*
Y56490D01*
X49083D01*
Y56590D01*
Y56390D01*
X48585Y56286D02*
Y56086D01*
Y56186D01*
X48718D01*
Y56286D01*
Y56086D01*
X33770Y20481D02*
Y20281D01*
Y20381D01*
X33903D01*
Y20481D01*
Y20281D01*
X33430Y20481D02*
Y20281D01*
Y20381D01*
X33563D01*
Y20481D01*
Y20281D01*
X33020Y20481D02*
Y20281D01*
Y20381D01*
X33153D01*
Y20481D01*
Y20281D01*
X32680Y20481D02*
Y20281D01*
Y20381D01*
X32813D01*
Y20481D01*
Y20281D01*
X32270Y20481D02*
Y20281D01*
Y20381D01*
X32403D01*
Y20481D01*
Y20281D01*
X31930Y20481D02*
Y20281D01*
Y20381D01*
X32063D01*
Y20481D01*
Y20281D01*
X31180Y20481D02*
Y20281D01*
Y20381D01*
X31313D01*
Y20481D01*
Y20281D01*
X31520Y20481D02*
Y20281D01*
Y20381D01*
X31653D01*
Y20481D01*
Y20281D01*
X30430Y20481D02*
Y20281D01*
Y20381D01*
X30563D01*
Y20481D01*
Y20281D01*
X30770Y20481D02*
Y20281D01*
Y20381D01*
X30903D01*
Y20481D01*
Y20281D01*
X28930Y20481D02*
Y20281D01*
Y20381D01*
X29063D01*
Y20481D01*
Y20281D01*
X29270Y20481D02*
Y20281D01*
Y20381D01*
X29403D01*
Y20481D01*
Y20281D01*
X29475Y21283D02*
Y21083D01*
Y21183D01*
X29608D01*
Y21283D01*
Y21083D01*
X30917Y24000D02*
X30884Y24034D01*
X30817D01*
X30784Y24000D01*
Y23867D01*
X30817Y23834D01*
X30884D01*
X30917Y23867D01*
Y23934D01*
X30851D01*
X30917Y24434D02*
X30884Y24467D01*
X30817D01*
X30784Y24434D01*
Y24300D01*
X30817Y24267D01*
X30884D01*
X30917Y24300D01*
Y24367D01*
X30851D01*
X30917Y24867D02*
X30884Y24900D01*
X30817D01*
X30784Y24867D01*
Y24733D01*
X30817Y24700D01*
X30884D01*
X30917Y24733D01*
Y24800D01*
X30851D01*
X30917Y25300D02*
X30884Y25333D01*
X30817D01*
X30784Y25300D01*
Y25166D01*
X30817Y25133D01*
X30884D01*
X30917Y25166D01*
Y25233D01*
X30851D01*
X30917Y25733D02*
X30884Y25766D01*
X30817D01*
X30784Y25733D01*
Y25599D01*
X30817Y25566D01*
X30884D01*
X30917Y25599D01*
Y25666D01*
X30851D01*
X31350Y24000D02*
X31317Y24034D01*
X31250D01*
X31217Y24000D01*
Y23867D01*
X31250Y23834D01*
X31317D01*
X31350Y23867D01*
Y23934D01*
X31284D01*
X31350Y24434D02*
X31317Y24467D01*
X31250D01*
X31217Y24434D01*
Y24300D01*
X31250Y24267D01*
X31317D01*
X31350Y24300D01*
Y24367D01*
X31284D01*
X31350Y24867D02*
X31317Y24900D01*
X31250D01*
X31217Y24867D01*
Y24733D01*
X31250Y24700D01*
X31317D01*
X31350Y24733D01*
Y24800D01*
X31284D01*
X31350Y25300D02*
X31317Y25333D01*
X31250D01*
X31217Y25300D01*
Y25166D01*
X31250Y25133D01*
X31317D01*
X31350Y25166D01*
Y25233D01*
X31284D01*
X31350Y25733D02*
X31317Y25766D01*
X31250D01*
X31217Y25733D01*
Y25599D01*
X31250Y25566D01*
X31317D01*
X31350Y25599D01*
Y25666D01*
X31284D01*
X31783Y24000D02*
X31750Y24034D01*
X31683D01*
X31650Y24000D01*
Y23867D01*
X31683Y23834D01*
X31750D01*
X31783Y23867D01*
Y23934D01*
X31717D01*
X31783Y24434D02*
X31750Y24467D01*
X31683D01*
X31650Y24434D01*
Y24300D01*
X31683Y24267D01*
X31750D01*
X31783Y24300D01*
Y24367D01*
X31717D01*
X31783Y24867D02*
X31750Y24900D01*
X31683D01*
X31650Y24867D01*
Y24733D01*
X31683Y24700D01*
X31750D01*
X31783Y24733D01*
Y24800D01*
X31717D01*
X31783Y25300D02*
X31750Y25333D01*
X31683D01*
X31650Y25300D01*
Y25166D01*
X31683Y25133D01*
X31750D01*
X31783Y25166D01*
Y25233D01*
X31717D01*
X31783Y25733D02*
X31750Y25766D01*
X31683D01*
X31650Y25733D01*
Y25599D01*
X31683Y25566D01*
X31750D01*
X31783Y25599D01*
Y25666D01*
X31717D01*
X32216Y24000D02*
X32183Y24034D01*
X32116D01*
X32083Y24000D01*
Y23867D01*
X32116Y23834D01*
X32183D01*
X32216Y23867D01*
Y23934D01*
X32150D01*
X32216Y24434D02*
X32183Y24467D01*
X32116D01*
X32083Y24434D01*
Y24300D01*
X32116Y24267D01*
X32183D01*
X32216Y24300D01*
Y24367D01*
X32150D01*
X32216Y24867D02*
X32183Y24900D01*
X32116D01*
X32083Y24867D01*
Y24733D01*
X32116Y24700D01*
X32183D01*
X32216Y24733D01*
Y24800D01*
X32150D01*
X32216Y25300D02*
X32183Y25333D01*
X32116D01*
X32083Y25300D01*
Y25166D01*
X32116Y25133D01*
X32183D01*
X32216Y25166D01*
Y25233D01*
X32150D01*
X32216Y25733D02*
X32183Y25766D01*
X32116D01*
X32083Y25733D01*
Y25599D01*
X32116Y25566D01*
X32183D01*
X32216Y25599D01*
Y25666D01*
X32150D01*
X32649Y24000D02*
X32616Y24034D01*
X32549D01*
X32516Y24000D01*
Y23867D01*
X32549Y23834D01*
X32616D01*
X32649Y23867D01*
Y23934D01*
X32583D01*
X32649Y24434D02*
X32616Y24467D01*
X32549D01*
X32516Y24434D01*
Y24300D01*
X32549Y24267D01*
X32616D01*
X32649Y24300D01*
Y24367D01*
X32583D01*
X32649Y24867D02*
X32616Y24900D01*
X32549D01*
X32516Y24867D01*
Y24733D01*
X32549Y24700D01*
X32616D01*
X32649Y24733D01*
Y24800D01*
X32583D01*
X32649Y25300D02*
X32616Y25333D01*
X32549D01*
X32516Y25300D01*
Y25166D01*
X32549Y25133D01*
X32616D01*
X32649Y25166D01*
Y25233D01*
X32583D01*
X32649Y25733D02*
X32616Y25766D01*
X32549D01*
X32516Y25733D01*
Y25599D01*
X32549Y25566D01*
X32616D01*
X32649Y25599D01*
Y25666D01*
X32583D01*
X30327Y23523D02*
Y23323D01*
Y23423D01*
X30460D01*
Y23523D01*
Y23323D01*
X32280Y26286D02*
Y26086D01*
Y26186D01*
X32413D01*
Y26286D01*
Y26086D01*
X30863Y26286D02*
Y26086D01*
Y26186D01*
X30996D01*
Y26286D01*
Y26086D01*
X30308Y24073D02*
Y23873D01*
Y23973D01*
X30441D01*
Y24073D01*
Y23873D01*
X30308Y25916D02*
Y25716D01*
Y25816D01*
X30441D01*
Y25916D01*
Y25716D01*
X30308Y24427D02*
Y24227D01*
Y24327D01*
X30441D01*
Y24427D01*
Y24227D01*
X33006Y26301D02*
Y26101D01*
Y26201D01*
X33140D01*
Y26301D01*
Y26101D01*
X33818Y24032D02*
Y23832D01*
Y23932D01*
X33952D01*
Y24032D01*
Y23832D01*
X33315Y23177D02*
Y22978D01*
Y23078D01*
X33449D01*
Y23177D01*
Y22978D01*
X33773Y25611D02*
Y25411D01*
Y25511D01*
X33906D01*
Y25611D01*
Y25411D01*
X30308Y25372D02*
Y25172D01*
Y25272D01*
X30441D01*
Y25372D01*
Y25172D01*
X29680Y20481D02*
Y20281D01*
Y20381D01*
X29813D01*
Y20481D01*
Y20281D01*
X30020Y20481D02*
Y20281D01*
Y20381D01*
X30153D01*
Y20481D01*
Y20281D01*
X30225Y21283D02*
Y21083D01*
Y21183D01*
X30358D01*
Y21283D01*
Y21083D01*
X34180Y20481D02*
Y20281D01*
Y20381D01*
X34313D01*
Y20481D01*
Y20281D01*
X34520Y20481D02*
Y20281D01*
Y20381D01*
X34653D01*
Y20481D01*
Y20281D01*
X32564Y17697D02*
Y17497D01*
Y17597D01*
X32698D01*
Y17697D01*
Y17497D01*
X32557Y17282D02*
Y17082D01*
Y17182D01*
X32690D01*
Y17282D01*
Y17082D01*
X29332Y17686D02*
Y17486D01*
Y17586D01*
X29465D01*
Y17686D01*
Y17486D01*
X28576Y17662D02*
Y17462D01*
Y17562D01*
X28710D01*
Y17662D01*
Y17462D01*
X28955Y17348D02*
Y17148D01*
Y17248D01*
X29089D01*
Y17348D01*
Y17148D01*
X23961Y20374D02*
Y20174D01*
Y20274D01*
X24094D01*
Y20374D01*
Y20174D01*
X25557Y20374D02*
Y20174D01*
Y20274D01*
X25690D01*
Y20374D01*
Y20174D01*
X22497Y20374D02*
Y20174D01*
Y20274D01*
X22631D01*
Y20374D01*
Y20174D01*
X8346Y13400D02*
Y13200D01*
Y13300D01*
X8480D01*
Y13400D01*
Y13200D01*
X33900Y22460D02*
Y22260D01*
Y22360D01*
X34033D01*
Y22460D01*
Y22260D01*
X33975Y21283D02*
Y21083D01*
Y21183D01*
X34108D01*
Y21283D01*
Y21083D01*
X39724Y68872D02*
Y68672D01*
Y68772D01*
X39858D01*
Y68872D01*
Y68672D01*
X49681Y42216D02*
Y42016D01*
Y42116D01*
X49814D01*
Y42216D01*
Y42016D01*
X37136Y68871D02*
Y68671D01*
Y68771D01*
X37269D01*
Y68871D01*
Y68671D01*
X34450Y22460D02*
Y22260D01*
Y22360D01*
X34583D01*
Y22460D01*
Y22260D01*
X44020Y22023D02*
Y21823D01*
Y21923D01*
X44153D01*
Y22023D01*
Y21823D01*
X43862Y22709D02*
Y22509D01*
Y22609D01*
X43995D01*
Y22709D01*
Y22509D01*
X36504Y22709D02*
Y22509D01*
Y22609D01*
X36637D01*
Y22709D01*
Y22509D01*
X35800Y22230D02*
Y22030D01*
Y22130D01*
X35933D01*
Y22230D01*
Y22030D01*
X28725Y21283D02*
Y21083D01*
Y21183D01*
X28858D01*
Y21283D01*
Y21083D01*
X34725Y21283D02*
Y21083D01*
Y21183D01*
X34858D01*
Y21283D01*
Y21083D01*
X33225Y21283D02*
Y21083D01*
Y21183D01*
X33358D01*
Y21283D01*
Y21083D01*
X32475Y21283D02*
Y21083D01*
Y21183D01*
X32608D01*
Y21283D01*
Y21083D01*
X31725Y21283D02*
Y21083D01*
Y21183D01*
X31858D01*
Y21283D01*
Y21083D01*
X30975Y21283D02*
Y21083D01*
Y21183D01*
X31108D01*
Y21283D01*
Y21083D01*
X96350Y60310D02*
Y60110D01*
Y60210D01*
X96484D01*
Y60310D01*
Y60110D01*
X104932Y65321D02*
Y65121D01*
Y65221D01*
X105066D01*
Y65321D01*
Y65121D01*
X104630Y65434D02*
Y65234D01*
Y65334D01*
X104763D01*
Y65434D01*
Y65234D01*
X104630Y65788D02*
Y65588D01*
Y65688D01*
X104763D01*
Y65788D01*
Y65588D01*
X104932Y65930D02*
Y65730D01*
Y65830D01*
X105066D01*
Y65930D01*
Y65730D01*
X108330Y65906D02*
Y65706D01*
Y65806D01*
X108463D01*
Y65906D01*
Y65706D01*
X107310Y65906D02*
Y65706D01*
Y65806D01*
X107443D01*
Y65906D01*
Y65706D01*
X106680Y65906D02*
Y65706D01*
Y65806D01*
X106813D01*
Y65906D01*
Y65706D01*
X68921Y21023D02*
Y20823D01*
Y20923D01*
X69055D01*
Y21023D01*
Y20823D01*
X67736Y22405D02*
Y22205D01*
Y22305D01*
X67870D01*
Y22405D01*
Y22205D01*
X70193Y19613D02*
Y19413D01*
Y19513D01*
X70326D01*
Y19613D01*
Y19413D01*
X66445Y20940D02*
Y20740D01*
Y20840D01*
X66578D01*
Y20940D01*
Y20740D01*
X67276Y20287D02*
Y20087D01*
Y20187D01*
X67409D01*
Y20287D01*
Y20087D01*
X66457Y20263D02*
Y20063D01*
Y20163D01*
X66590D01*
Y20263D01*
Y20063D01*
X67835Y19535D02*
Y19335D01*
Y19435D01*
X67968D01*
Y19535D01*
Y19335D01*
X67295Y19539D02*
Y19339D01*
Y19439D01*
X67429D01*
Y19539D01*
Y19339D01*
X51051Y60318D02*
Y60118D01*
Y60218D01*
X51184D01*
Y60318D01*
Y60118D01*
X43323Y48330D02*
Y48130D01*
Y48230D01*
X43456D01*
Y48330D01*
Y48130D01*
X48300Y48019D02*
Y47819D01*
Y47919D01*
X48433D01*
Y48019D01*
Y47819D01*
X46917Y48021D02*
Y47821D01*
Y47921D01*
X47051D01*
Y48021D01*
Y47821D01*
X64444Y36215D02*
Y36015D01*
Y36115D01*
X64577D01*
Y36215D01*
Y36015D01*
X95153Y69441D02*
Y69241D01*
Y69341D01*
X95286D01*
Y69441D01*
Y69241D01*
X95153Y68948D02*
Y68748D01*
Y68848D01*
X95286D01*
Y68948D01*
Y68748D01*
X109260Y64641D02*
Y64441D01*
Y64541D01*
X109393D01*
Y64641D01*
Y64441D01*
X119075Y66405D02*
Y66205D01*
Y66305D01*
X119208D01*
Y66405D01*
Y66205D01*
X113598Y66385D02*
Y66185D01*
Y66285D01*
X113732D01*
Y66385D01*
Y66185D01*
X110913Y66338D02*
Y66138D01*
Y66238D01*
X111047D01*
Y66338D01*
Y66138D01*
X107016Y64641D02*
Y64441D01*
Y64541D01*
X107149D01*
Y64641D01*
Y64441D01*
X83618Y59783D02*
Y59583D01*
Y59683D01*
X83751D01*
Y59783D01*
Y59583D01*
X55898Y43783D02*
Y43583D01*
Y43683D01*
X56031D01*
Y43783D01*
Y43583D01*
X63850Y40913D02*
Y40713D01*
Y40813D01*
X63984D01*
Y40913D01*
Y40713D01*
X66311Y44617D02*
Y44417D01*
Y44517D01*
X66444D01*
Y44617D01*
Y44417D01*
X38598Y32779D02*
Y32579D01*
Y32679D01*
X38732D01*
Y32779D01*
Y32579D01*
X9453Y24735D02*
Y24535D01*
Y24635D01*
X9586D01*
Y24735D01*
Y24535D01*
X9390Y27239D02*
Y27039D01*
Y27139D01*
X9523D01*
Y27239D01*
Y27039D01*
X9402Y29743D02*
Y29543D01*
Y29643D01*
X9535D01*
Y29743D01*
Y29543D01*
X9386Y32247D02*
Y32047D01*
Y32147D01*
X9519D01*
Y32247D01*
Y32047D01*
X12209Y32247D02*
Y32047D01*
Y32147D01*
X12342D01*
Y32247D01*
Y32047D01*
X12213Y27239D02*
Y27039D01*
Y27139D01*
X12346D01*
Y27239D01*
Y27039D01*
X12276Y24735D02*
Y24535D01*
Y24635D01*
X12409D01*
Y24735D01*
Y24535D01*
X23961Y21287D02*
Y21087D01*
Y21187D01*
X24094D01*
Y21287D01*
Y21087D01*
X22497Y21287D02*
Y21087D01*
Y21187D01*
X22631D01*
Y21287D01*
Y21087D01*
X25557Y21287D02*
Y21087D01*
Y21187D01*
X25690D01*
Y21287D01*
Y21087D01*
X115488Y26661D02*
Y26461D01*
Y26561D01*
X115621D01*
Y26661D01*
Y26461D01*
X116409Y26653D02*
Y26453D01*
Y26553D01*
X116543D01*
Y26653D01*
Y26453D01*
X110953Y17184D02*
Y16984D01*
Y17084D01*
X111086D01*
Y17184D01*
Y16984D01*
X111866Y17184D02*
Y16984D01*
Y17084D01*
X111999D01*
Y17184D01*
Y16984D01*
X112780Y17184D02*
Y16984D01*
Y17084D01*
X112913D01*
Y17184D01*
Y16984D01*
X114583Y23544D02*
Y23344D01*
Y23444D01*
X114716D01*
Y23544D01*
Y23344D01*
X113726Y17910D02*
Y17710D01*
Y17810D01*
X113859D01*
Y17910D01*
Y17710D01*
X114583Y18795D02*
Y18595D01*
Y18695D01*
X114716D01*
Y18795D01*
Y18595D01*
X113726Y19552D02*
Y19352D01*
Y19452D01*
X113859D01*
Y19552D01*
Y19352D01*
X114583Y20378D02*
Y20178D01*
Y20278D01*
X114716D01*
Y20378D01*
Y20178D01*
X113726Y21195D02*
Y20995D01*
Y21095D01*
X113859D01*
Y21195D01*
Y20995D01*
X114583Y21961D02*
Y21761D01*
Y21861D01*
X114716D01*
Y21961D01*
Y21761D01*
X113726Y22837D02*
Y22637D01*
Y22737D01*
X113859D01*
Y22837D01*
Y22637D01*
X113726Y24479D02*
Y24279D01*
Y24379D01*
X113859D01*
Y24479D01*
Y24279D01*
X114583Y17212D02*
Y17012D01*
Y17112D01*
X114716D01*
Y17212D01*
Y17012D01*
X111390Y23216D02*
Y23016D01*
Y23116D01*
X111523D01*
Y23216D01*
Y23016D01*
X109972Y23216D02*
Y23016D01*
Y23116D01*
X110106D01*
Y23216D01*
Y23016D01*
X111382Y24380D02*
Y24180D01*
Y24280D01*
X111515D01*
Y24380D01*
Y24180D01*
X111366Y27873D02*
Y27673D01*
Y27773D01*
X111499D01*
Y27873D01*
Y27673D01*
X112811Y27881D02*
Y27681D01*
Y27781D01*
X112944D01*
Y27881D01*
Y27681D01*
X112811Y29105D02*
Y28906D01*
Y29005D01*
X112944D01*
Y29105D01*
Y28906D01*
X111343Y25544D02*
Y25344D01*
Y25444D01*
X111476D01*
Y25544D01*
Y25344D01*
X111343Y26709D02*
Y26509D01*
Y26609D01*
X111476D01*
Y26709D01*
Y26509D01*
X109979Y25544D02*
Y25344D01*
Y25444D01*
X110112D01*
Y25544D01*
Y25344D01*
X109979Y26709D02*
Y26509D01*
Y26609D01*
X110112D01*
Y26709D01*
Y26509D01*
X112811Y31027D02*
Y30827D01*
Y30927D01*
X112944D01*
Y31027D01*
Y30827D01*
X110702Y31007D02*
Y30807D01*
Y30907D01*
X110835D01*
Y31007D01*
Y30807D01*
X111192Y31468D02*
Y31268D01*
Y31368D01*
X111325D01*
Y31468D01*
Y31268D01*
X110702Y30528D02*
Y30328D01*
Y30428D01*
X110835D01*
Y30528D01*
Y30328D01*
X110702Y31468D02*
Y31268D01*
Y31368D01*
X110835D01*
Y31468D01*
Y31268D01*
X111192Y30528D02*
Y30328D01*
Y30428D01*
X111325D01*
Y30528D01*
Y30328D01*
X112811Y32664D02*
Y32465D01*
Y32565D01*
X112944D01*
Y32664D01*
Y32465D01*
X112811Y34227D02*
Y34028D01*
Y34128D01*
X112944D01*
Y34227D01*
Y34028D01*
X111799Y35499D02*
Y35299D01*
Y35399D01*
X111932D01*
Y35499D01*
Y35299D01*
X109575Y35554D02*
Y35354D01*
Y35454D01*
X109708D01*
Y35554D01*
Y35354D01*
X111752Y38188D02*
Y37988D01*
Y38088D01*
X111885D01*
Y38188D01*
Y37988D01*
X109618Y38192D02*
Y37992D01*
Y38092D01*
X109751D01*
Y38192D01*
Y37992D01*
X109528Y39771D02*
Y39571D01*
Y39671D01*
X109661D01*
Y39771D01*
Y39571D01*
X111752Y39759D02*
Y39559D01*
Y39659D01*
X111885D01*
Y39759D01*
Y39559D01*
X116646Y38613D02*
Y38413D01*
Y38513D01*
X116779D01*
Y38613D01*
Y38413D01*
X115508Y39869D02*
Y39669D01*
Y39769D01*
X115641D01*
Y39869D01*
Y39669D01*
X115906Y34224D02*
Y34024D01*
Y34124D01*
X116039D01*
Y34224D01*
Y34024D01*
X115906Y35735D02*
Y35535D01*
Y35635D01*
X116039D01*
Y35735D01*
Y35535D01*
X115906Y37247D02*
Y37047D01*
Y37147D01*
X116039D01*
Y37247D01*
Y37047D01*
X116941Y37247D02*
Y37047D01*
Y37147D01*
X117074D01*
Y37247D01*
Y37047D01*
X116941Y35735D02*
Y35535D01*
Y35635D01*
X117074D01*
Y35735D01*
Y35535D01*
X116941Y34224D02*
Y34024D01*
Y34124D01*
X117074D01*
Y34224D01*
Y34024D01*
X117976Y34224D02*
Y34024D01*
Y34124D01*
X118110D01*
Y34224D01*
Y34024D01*
X117976Y35735D02*
Y35535D01*
Y35635D01*
X118110D01*
Y35735D01*
Y35535D01*
X117976Y37247D02*
Y37047D01*
Y37147D01*
X118110D01*
Y37247D01*
Y37047D01*
X43323Y48792D02*
Y48592D01*
Y48692D01*
X43456D01*
Y48792D01*
Y48592D01*
X5031Y45865D02*
Y45665D01*
Y45765D01*
X5165D01*
Y45865D01*
Y45665D01*
X5031Y48369D02*
Y48169D01*
Y48269D01*
X5165D01*
Y48369D01*
Y48169D01*
X7461Y45865D02*
Y45665D01*
Y45765D01*
X7594D01*
Y45865D01*
Y45665D01*
X7461Y48369D02*
Y48169D01*
Y48269D01*
X7594D01*
Y48369D01*
Y48169D01*
X3587Y39759D02*
Y39559D01*
Y39659D01*
X3720D01*
Y39759D01*
Y39559D01*
X3587Y42263D02*
Y42063D01*
Y42163D01*
X3720D01*
Y42263D01*
Y42063D01*
X3587Y37255D02*
Y37055D01*
Y37155D01*
X3720D01*
Y37255D01*
Y37055D01*
X3587Y34751D02*
Y34551D01*
Y34651D01*
X3720D01*
Y34751D01*
Y34551D01*
X3587Y32247D02*
Y32047D01*
Y32147D01*
X3720D01*
Y32247D01*
Y32047D01*
X3587Y29743D02*
Y29543D01*
Y29643D01*
X3720D01*
Y29743D01*
Y29543D01*
X3587Y27239D02*
Y27039D01*
Y27139D01*
X3720D01*
Y27239D01*
Y27039D01*
X6811Y27239D02*
Y27039D01*
Y27139D01*
X6944D01*
Y27239D01*
Y27039D01*
X6811Y29743D02*
Y29543D01*
Y29643D01*
X6944D01*
Y29743D01*
Y29543D01*
X6811Y32247D02*
Y32047D01*
Y32147D01*
X6944D01*
Y32247D01*
Y32047D01*
X6811Y34751D02*
Y34551D01*
Y34651D01*
X6944D01*
Y34751D01*
Y34551D01*
X6811Y37255D02*
Y37055D01*
Y37155D01*
X6944D01*
Y37255D01*
Y37055D01*
X6811Y42263D02*
Y42063D01*
Y42163D01*
X6944D01*
Y42263D01*
Y42063D01*
X6811Y39759D02*
Y39559D01*
Y39659D01*
X6944D01*
Y39759D01*
Y39559D01*
X34589Y46399D02*
Y46199D01*
Y46299D01*
X34722D01*
Y46399D01*
Y46199D01*
X35778Y46399D02*
Y46199D01*
Y46299D01*
X35911D01*
Y46399D01*
Y46199D01*
X35209Y45515D02*
Y45315D01*
Y45415D01*
X35342D01*
Y45515D01*
Y45315D01*
X62815Y24739D02*
Y24539D01*
Y24639D01*
X62948D01*
Y24739D01*
Y24539D01*
X60138Y14078D02*
Y13878D01*
Y13978D01*
X60271D01*
Y14078D01*
Y13878D01*
X60543Y11015D02*
Y10815D01*
Y10915D01*
X60677D01*
Y11015D01*
Y10815D01*
X69520Y22476D02*
Y22276D01*
Y22376D01*
X69653D01*
Y22476D01*
Y22276D01*
X63606Y17535D02*
Y17335D01*
Y17435D01*
X63740D01*
Y17535D01*
Y17335D01*
X55311Y27369D02*
Y27169D01*
Y27269D01*
X55444D01*
Y27369D01*
Y27169D01*
X59028Y32724D02*
Y32524D01*
Y32624D01*
X59161D01*
Y32724D01*
Y32524D01*
X56106Y36637D02*
Y36437D01*
Y36537D01*
X56240D01*
Y36637D01*
Y36437D01*
X71626Y46105D02*
Y45906D01*
Y46005D01*
X71759D01*
Y46105D01*
Y45906D01*
X62138Y46798D02*
Y46598D01*
Y46698D01*
X62271D01*
Y46798D01*
Y46598D01*
X25362Y36049D02*
Y35849D01*
Y35949D01*
X25495D01*
Y36049D01*
Y35849D01*
X26034Y37251D02*
Y37051D01*
Y37151D01*
X26168D01*
Y37251D01*
Y37051D01*
X24701Y36057D02*
Y35857D01*
Y35957D01*
X24834D01*
Y36057D01*
Y35857D01*
X24422Y35958D02*
Y35758D01*
Y35858D01*
X24555D01*
Y35958D01*
Y35758D01*
X99079Y4837D02*
Y4637D01*
Y4737D01*
X99212D01*
Y4837D01*
Y4637D01*
X93445Y6958D02*
Y6758D01*
Y6858D01*
X93578D01*
Y6958D01*
Y6758D01*
X93839Y6920D02*
Y6720D01*
Y6820D01*
X93972D01*
Y6920D01*
Y6720D01*
X95214Y7871D02*
Y7671D01*
Y7771D01*
X95347D01*
Y7871D01*
Y7671D01*
X96008Y7519D02*
Y7319D01*
Y7419D01*
X96141D01*
Y7519D01*
Y7319D01*
X92929Y3558D02*
Y3358D01*
Y3458D01*
X93062D01*
Y3558D01*
Y3358D01*
X93405Y3247D02*
Y3047D01*
Y3147D01*
X93538D01*
Y3247D01*
Y3047D01*
X97035Y3767D02*
Y3567D01*
Y3667D01*
X97169D01*
Y3767D01*
Y3567D01*
X97776Y4365D02*
Y4165D01*
Y4265D01*
X97909D01*
Y4365D01*
Y4165D01*
X96393Y4814D02*
Y4614D01*
Y4714D01*
X96526D01*
Y4814D01*
Y4614D01*
X96393Y6019D02*
Y5819D01*
Y5919D01*
X96526D01*
Y6019D01*
Y5819D01*
X95671Y6741D02*
Y6541D01*
Y6641D01*
X95804D01*
Y6741D01*
Y6541D01*
X94758Y6741D02*
Y6541D01*
Y6641D01*
X94891D01*
Y6741D01*
Y6541D01*
X94758Y4187D02*
Y3987D01*
Y4087D01*
X94891D01*
Y4187D01*
Y3987D01*
X95670Y4187D02*
Y3987D01*
Y4087D01*
X95804D01*
Y4187D01*
Y3987D01*
X93839Y4909D02*
Y4709D01*
Y4809D01*
X93972D01*
Y4909D01*
Y4709D01*
X93839Y5822D02*
Y5622D01*
Y5722D01*
X93972D01*
Y5822D01*
Y5622D01*
X96772Y5948D02*
Y5748D01*
Y5848D01*
X96905D01*
Y5948D01*
Y5748D01*
X95608Y4972D02*
Y4772D01*
Y4872D01*
X95741D01*
Y4972D01*
Y4772D01*
X94624Y4972D02*
Y4772D01*
Y4872D01*
X94757D01*
Y4972D01*
Y4772D01*
X95608Y5956D02*
Y5756D01*
Y5856D01*
X95741D01*
Y5956D01*
Y5756D01*
X94624Y5956D02*
Y5756D01*
Y5856D01*
X94757D01*
Y5956D01*
Y5756D01*
X94624Y5464D02*
Y5264D01*
Y5364D01*
X94757D01*
Y5464D01*
Y5264D01*
X95608Y5464D02*
Y5264D01*
Y5364D01*
X95741D01*
Y5464D01*
Y5264D01*
X95116Y5464D02*
Y5264D01*
Y5364D01*
X95249D01*
Y5464D01*
Y5264D01*
X95116Y5956D02*
Y5756D01*
Y5856D01*
X95249D01*
Y5956D01*
Y5756D01*
X95116Y4972D02*
Y4772D01*
Y4872D01*
X95249D01*
Y4972D01*
Y4772D01*
X83900Y24801D02*
Y24602D01*
Y24701D01*
X84033D01*
Y24801D01*
Y24602D01*
X85100Y24520D02*
Y24320D01*
Y24420D01*
X85233D01*
Y24520D01*
Y24320D01*
X86600Y24520D02*
Y24320D01*
Y24420D01*
X86733D01*
Y24520D01*
Y24320D01*
X66396Y60502D02*
Y60303D01*
Y60403D01*
X66530D01*
Y60502D01*
Y60303D01*
X29409Y25263D02*
Y25063D01*
Y25163D01*
X29542D01*
Y25263D01*
Y25063D01*
X97642Y62860D02*
Y62660D01*
Y62760D01*
X97775D01*
Y62860D01*
Y62660D01*
X97098Y63353D02*
Y63154D01*
Y63254D01*
X97231D01*
Y63353D01*
Y63154D01*
X39394Y25550D02*
Y25350D01*
Y25417D01*
X39527Y25550D01*
X39427Y25450D01*
X39527Y25350D01*
X40214Y25550D02*
Y25350D01*
Y25417D01*
X40347Y25550D01*
X40247Y25450D01*
X40347Y25350D01*
X39784Y24960D02*
Y24760D01*
Y24827D01*
X39917Y24960D01*
X39817Y24860D01*
X39917Y24760D01*
X104140Y64774D02*
Y64574D01*
Y64674D01*
X104273D01*
Y64774D01*
Y64574D01*
X35670Y20761D02*
Y20561D01*
Y20661D01*
X35803D01*
Y20761D01*
Y20561D01*
X35320Y20761D02*
Y20561D01*
Y20661D01*
X35453D01*
Y20761D01*
Y20561D01*
X56244Y20629D02*
Y20429D01*
Y20529D01*
X56377D01*
Y20629D01*
Y20429D01*
X70572Y15971D02*
Y15771D01*
Y15871D01*
X70705D01*
Y15971D01*
Y15771D01*
X56100Y18637D02*
Y18437D01*
Y18537D01*
X56233D01*
Y18637D01*
Y18437D01*
X54646Y19675D02*
Y19475D01*
Y19575D01*
X54780D01*
Y19675D01*
Y19475D01*
X27000Y27991D02*
Y27791D01*
Y27891D01*
X27133D01*
Y27991D01*
Y27791D01*
X27750Y27748D02*
Y27548D01*
Y27648D01*
X27883D01*
Y27748D01*
Y27548D01*
X28350Y27709D02*
Y27509D01*
Y27609D01*
X28483D01*
Y27709D01*
Y27509D01*
X28900Y27709D02*
Y27509D01*
Y27609D01*
X29033D01*
Y27709D01*
Y27509D01*
X29450Y27709D02*
Y27509D01*
Y27609D01*
X29583D01*
Y27709D01*
Y27509D01*
X10539Y39450D02*
Y39250D01*
Y39350D01*
X10672D01*
Y39450D01*
Y39250D01*
X32346Y36657D02*
Y36457D01*
Y36557D01*
X32480D01*
Y36657D01*
Y36457D01*
X32346Y37227D02*
Y37028D01*
Y37128D01*
X32480D01*
Y37227D01*
Y37028D01*
X31839Y37227D02*
Y37028D01*
Y37128D01*
X31972D01*
Y37227D01*
Y37028D01*
X31839Y36657D02*
Y36457D01*
Y36557D01*
X31972D01*
Y36657D01*
Y36457D01*
X31331Y37227D02*
Y37028D01*
Y37128D01*
X31464D01*
Y37227D01*
Y37028D01*
X31331Y36657D02*
Y36458D01*
Y36558D01*
X31464D01*
Y36657D01*
Y36458D01*
X18035Y39994D02*
Y39794D01*
Y39894D01*
X18169D01*
Y39994D01*
Y39794D01*
X22125Y40218D02*
Y40018D01*
Y40118D01*
X22258D01*
Y40218D01*
Y40018D01*
X22475Y40218D02*
Y40018D01*
Y40118D01*
X22608D01*
Y40218D01*
Y40018D01*
X22825Y40218D02*
Y40018D01*
Y40118D01*
X22958D01*
Y40218D01*
Y40018D01*
X23175Y40218D02*
Y40018D01*
Y40118D01*
X23308D01*
Y40218D01*
Y40018D01*
X67660Y62885D02*
Y62685D01*
Y62785D01*
X67793D01*
Y62885D01*
Y62685D01*
X67660Y63302D02*
Y63102D01*
Y63202D01*
X67793D01*
Y63302D01*
Y63102D01*
X68913Y63302D02*
Y63102D01*
Y63202D01*
X69047D01*
Y63302D01*
Y63102D01*
X68913Y62885D02*
Y62685D01*
Y62785D01*
X69047D01*
Y62885D01*
Y62685D01*
X100589Y65500D02*
Y65300D01*
Y65400D01*
X100722D01*
Y65500D01*
Y65300D01*
X101269Y66300D02*
Y66100D01*
Y66200D01*
X101402D01*
Y66300D01*
Y66100D01*
X100900Y67050D02*
Y66850D01*
Y66950D01*
X101033D01*
Y67050D01*
Y66850D01*
X78740Y58141D02*
Y57941D01*
Y58041D01*
X78873D01*
Y58141D01*
Y57941D01*
X87358Y58448D02*
Y58248D01*
Y58348D01*
X87491D01*
Y58448D01*
Y58248D01*
X86887Y58448D02*
Y58248D01*
Y58348D01*
X87020D01*
Y58448D01*
Y58248D01*
X76966Y59407D02*
Y59207D01*
Y59307D01*
X77099D01*
Y59407D01*
Y59207D01*
X84566Y59452D02*
Y59252D01*
Y59352D01*
X84699D01*
Y59452D01*
Y59252D01*
X83796Y60452D02*
Y60252D01*
Y60352D01*
X83929D01*
Y60452D01*
Y60252D01*
X83416Y60785D02*
Y60585D01*
Y60685D01*
X83549D01*
Y60785D01*
Y60585D01*
X77708Y69750D02*
Y69550D01*
Y69650D01*
X77842D01*
Y69750D01*
Y69550D01*
X77708Y70350D02*
Y70150D01*
Y70250D01*
X77842D01*
Y70350D01*
Y70150D01*
X80233Y68265D02*
Y68065D01*
Y68165D01*
X80366D01*
Y68265D01*
Y68065D01*
X88950Y66851D02*
Y66651D01*
Y66751D01*
X89083D01*
Y66851D01*
Y66651D01*
X89023Y59692D02*
Y59492D01*
Y59592D01*
X89157D01*
Y59692D01*
Y59492D01*
X89398Y60453D02*
Y60253D01*
Y60353D01*
X89531D01*
Y60453D01*
Y60253D01*
X90002Y60763D02*
Y60563D01*
Y60663D01*
X90136D01*
Y60763D01*
Y60563D01*
X90263Y61039D02*
Y60839D01*
Y60939D01*
X90397D01*
Y61039D01*
Y60839D01*
X90267Y61589D02*
Y61389D01*
Y61489D01*
X90400D01*
Y61589D01*
Y61389D01*
X89995Y61797D02*
Y61597D01*
Y61697D01*
X90128D01*
Y61797D01*
Y61597D01*
X89296Y62304D02*
Y62104D01*
Y62204D01*
X89429D01*
Y62304D01*
Y62104D01*
X88748Y62316D02*
Y62116D01*
Y62216D01*
X88882D01*
Y62316D01*
Y62116D01*
X87181Y61102D02*
Y60902D01*
Y61002D01*
X87314D01*
Y61102D01*
Y60902D01*
X87456Y61495D02*
Y61295D01*
Y61395D01*
X87590D01*
Y61495D01*
Y61295D01*
X69113Y65304D02*
Y65104D01*
Y65204D01*
X69246D01*
Y65304D01*
Y65104D01*
X16028Y49031D02*
Y48831D01*
Y48931D01*
X16161D01*
Y49031D01*
Y48831D01*
X43423Y41420D02*
Y41220D01*
Y41320D01*
X43557D01*
Y41420D01*
Y41220D01*
X43445Y43022D02*
Y42822D01*
Y42922D01*
X43578D01*
Y43022D01*
Y42822D01*
X43445Y42072D02*
Y41872D01*
Y41972D01*
X43578D01*
Y42072D01*
Y41872D01*
X43967Y40947D02*
Y40747D01*
Y40847D01*
X44100D01*
Y40947D01*
Y40747D01*
X43967Y39747D02*
Y39547D01*
Y39647D01*
X44100D01*
Y39747D01*
Y39547D01*
X19953Y29611D02*
Y29411D01*
Y29511D01*
X20086D01*
Y29611D01*
Y29411D01*
X35167Y17656D02*
Y17456D01*
Y17556D01*
X35300D01*
Y17656D01*
Y17456D01*
X34345Y17692D02*
Y17492D01*
Y17592D01*
X34479D01*
Y17692D01*
Y17492D01*
X25824Y40693D02*
Y40493D01*
Y40593D01*
X25957D01*
Y40693D01*
Y40493D01*
X51153Y56614D02*
Y56414D01*
Y56514D01*
X51286D01*
Y56614D01*
Y56414D01*
X24025Y40693D02*
Y40493D01*
Y40593D01*
X24158D01*
Y40693D01*
Y40493D01*
X20793Y38075D02*
Y37875D01*
Y37975D01*
X20926D01*
Y38075D01*
Y37875D01*
X57891Y59826D02*
Y59626D01*
Y59726D01*
X58024D01*
Y59826D01*
Y59626D01*
X20793Y37625D02*
Y37425D01*
Y37525D01*
X20926D01*
Y37625D01*
Y37425D01*
X27531Y38500D02*
Y38300D01*
Y38400D01*
X27664D01*
Y38500D01*
Y38300D01*
X27810Y37825D02*
Y37625D01*
Y37725D01*
X27943D01*
Y37825D01*
Y37625D01*
X27531Y38050D02*
Y37850D01*
Y37950D01*
X27664D01*
Y38050D01*
Y37850D01*
X27810Y37375D02*
Y37175D01*
Y37275D01*
X27943D01*
Y37375D01*
Y37175D01*
X33554Y34472D02*
Y34273D01*
Y34373D01*
X33688D01*
Y34472D01*
Y34273D01*
X60054Y55234D02*
Y55034D01*
Y55134D01*
X60187D01*
Y55234D01*
Y55034D01*
X60054Y54725D02*
Y54525D01*
Y54625D01*
X60187D01*
Y54725D01*
Y54525D01*
X60915Y54100D02*
Y53900D01*
Y54000D01*
X61049D01*
Y54100D01*
Y53900D01*
X60054Y54100D02*
Y53900D01*
Y54000D01*
X60187D01*
Y54100D01*
Y53900D01*
X72062Y59659D02*
Y59459D01*
Y59559D01*
X72195D01*
Y59659D01*
Y59459D01*
X89000Y56418D02*
Y56218D01*
Y56318D01*
X89134D01*
Y56418D01*
Y56218D01*
X88425Y56334D02*
Y56134D01*
Y56234D01*
X88558D01*
Y56334D01*
Y56134D01*
X87755Y56334D02*
Y56134D01*
Y56234D01*
X87888D01*
Y56334D01*
Y56134D01*
X10118Y67240D02*
Y67040D01*
Y67140D01*
X10252D01*
Y67240D01*
Y67040D01*
X9602Y68274D02*
Y68074D01*
Y68174D01*
X9735D01*
Y68274D01*
Y68074D01*
X65844Y61988D02*
Y61788D01*
Y61888D01*
X65977D01*
Y61988D01*
Y61788D01*
X66237Y61988D02*
Y61788D01*
Y61888D01*
X66370D01*
Y61988D01*
Y61788D01*
X50928Y64933D02*
Y64733D01*
Y64833D01*
X51061D01*
Y64933D01*
Y64733D01*
X50219Y64933D02*
Y64733D01*
Y64833D01*
X50352D01*
Y64933D01*
Y64733D01*
X51636Y64933D02*
Y64733D01*
Y64833D01*
X51770D01*
Y64933D01*
Y64733D01*
X11642Y67526D02*
Y67326D01*
Y67426D01*
X11776D01*
Y67526D01*
Y67326D01*
X11181Y68549D02*
Y68349D01*
Y68449D01*
X11315D01*
Y68549D01*
Y68349D01*
X66538Y61742D02*
Y61542D01*
Y61642D01*
X66671D01*
Y61742D01*
Y61542D01*
X66941Y61742D02*
Y61542D01*
Y61642D01*
X67074D01*
Y61742D01*
Y61542D01*
X45726Y64350D02*
Y64150D01*
Y64250D01*
X45859D01*
Y64350D01*
Y64150D01*
X15970Y60620D02*
Y60420D01*
Y60520D01*
X16103D01*
Y60620D01*
Y60420D01*
X12802Y68274D02*
Y68074D01*
Y68174D01*
X12935D01*
Y68274D01*
Y68074D01*
X13319Y67240D02*
Y67040D01*
Y67140D01*
X13452D01*
Y67240D01*
Y67040D01*
X67020Y62165D02*
Y61965D01*
Y62065D01*
X67153D01*
Y62165D01*
Y61965D01*
X67423Y62165D02*
Y61965D01*
Y62065D01*
X67557D01*
Y62165D01*
Y61965D01*
X65652Y63299D02*
Y63099D01*
Y63199D01*
X65785D01*
Y63299D01*
Y63099D01*
X65248Y63299D02*
Y63099D01*
Y63199D01*
X65382D01*
Y63299D01*
Y63099D01*
X48265Y64350D02*
Y64150D01*
Y64250D01*
X48399D01*
Y64350D01*
Y64150D01*
X54704Y63707D02*
Y63507D01*
Y63607D01*
X54838D01*
Y63707D01*
Y63507D01*
X14842Y67526D02*
Y67326D01*
Y67426D01*
X14976D01*
Y67526D01*
Y67326D01*
X63362Y63661D02*
Y63461D01*
Y63561D01*
X63495D01*
Y63661D01*
Y63461D01*
X14382Y68549D02*
Y68349D01*
Y68449D01*
X14515D01*
Y68549D01*
Y68349D01*
X63918Y64878D02*
Y64679D01*
Y64779D01*
X64052D01*
Y64878D01*
Y64679D01*
X63210Y64933D02*
Y64733D01*
Y64833D01*
X63343D01*
Y64933D01*
Y64733D01*
X63366Y65952D02*
Y65752D01*
Y65852D01*
X63500D01*
Y65952D01*
Y65752D01*
X16518Y67240D02*
Y67040D01*
Y67140D01*
X16652D01*
Y67240D01*
Y67040D01*
X16002Y68274D02*
Y68074D01*
Y68174D01*
X16135D01*
Y68274D01*
Y68074D01*
X64543Y63661D02*
Y63461D01*
Y63561D01*
X64676D01*
Y63661D01*
Y63461D01*
X63916Y66410D02*
Y66210D01*
Y66310D01*
X64049D01*
Y66410D01*
Y66210D01*
X64946Y63661D02*
Y63461D01*
Y63561D01*
X65079D01*
Y63661D01*
Y63461D01*
X64471Y63299D02*
Y63099D01*
Y63199D01*
X64604D01*
Y63299D01*
Y63099D01*
X64067Y63299D02*
Y63099D01*
Y63199D01*
X64201D01*
Y63299D01*
Y63099D01*
X22879Y61567D02*
Y61367D01*
Y61467D01*
X23013D01*
Y61567D01*
Y61367D01*
X19120Y61000D02*
Y60800D01*
Y60900D01*
X19253D01*
Y61000D01*
Y60800D01*
X19800Y61046D02*
Y60846D01*
Y60946D01*
X19933D01*
Y61046D01*
Y60846D01*
X18042Y67526D02*
Y67326D01*
Y67426D01*
X18176D01*
Y67526D01*
Y67326D01*
X17581Y68549D02*
Y68349D01*
Y68449D01*
X17715D01*
Y68549D01*
Y68349D01*
X65125Y64933D02*
Y64733D01*
Y64833D01*
X65258D01*
Y64933D01*
Y64733D01*
X19719Y67240D02*
Y67040D01*
Y67140D01*
X19852D01*
Y67240D01*
Y67040D01*
X19202Y68274D02*
Y68074D01*
Y68174D01*
X19335D01*
Y68274D01*
Y68074D01*
X65724Y63661D02*
Y63461D01*
Y63561D01*
X65857D01*
Y63661D01*
Y63461D01*
X21242Y67526D02*
Y67326D01*
Y67426D01*
X21376D01*
Y67526D01*
Y67326D01*
X66127Y63661D02*
Y63461D01*
Y63561D01*
X66260D01*
Y63661D01*
Y63461D01*
X20782Y68549D02*
Y68349D01*
Y68449D01*
X20915D01*
Y68549D01*
Y68349D01*
X66281Y64879D02*
Y64679D01*
Y64779D01*
X66414D01*
Y64879D01*
Y64679D01*
X66278Y66263D02*
Y66063D01*
Y66163D01*
X66412D01*
Y66263D01*
Y66063D01*
X67300Y65218D02*
Y65018D01*
Y65118D01*
X67433D01*
Y65218D01*
Y65018D01*
X22919Y67240D02*
Y67040D01*
Y67140D01*
X23052D01*
Y67240D01*
Y67040D01*
X66907Y65218D02*
Y65018D01*
Y65118D01*
X67040D01*
Y65218D01*
Y65018D01*
X22402Y68274D02*
Y68074D01*
Y68174D01*
X22535D01*
Y68274D01*
Y68074D01*
X66652Y65825D02*
Y65625D01*
Y65725D01*
X66785D01*
Y65825D01*
Y65625D01*
X67610Y65395D02*
Y65195D01*
Y65295D01*
X67744D01*
Y65395D01*
Y65195D01*
X68014Y65395D02*
Y65195D01*
Y65295D01*
X68147D01*
Y65395D01*
Y65195D01*
X22550Y65810D02*
Y65610D01*
Y65710D01*
X22683D01*
Y65810D01*
Y65610D01*
X23582Y67900D02*
Y67700D01*
Y67800D01*
X23715D01*
Y67900D01*
Y67700D01*
X24442Y67526D02*
Y67326D01*
Y67426D01*
X24576D01*
Y67526D01*
Y67326D01*
X23981Y68549D02*
Y68349D01*
Y68449D01*
X24115D01*
Y68549D01*
Y68349D01*
X58070Y61702D02*
Y61502D01*
Y61602D01*
X58203D01*
Y61702D01*
Y61502D01*
X57597Y61702D02*
Y61502D01*
Y61602D01*
X57731D01*
Y61702D01*
Y61502D01*
X56951Y61699D02*
Y61499D01*
Y61599D01*
X57084D01*
Y61699D01*
Y61499D01*
X58127Y60141D02*
Y59941D01*
Y60041D01*
X58260D01*
Y60141D01*
Y59941D01*
X58363Y59826D02*
Y59626D01*
Y59726D01*
X58497D01*
Y59826D01*
Y59626D01*
X58602Y60141D02*
Y59941D01*
Y60041D01*
X58735D01*
Y60141D01*
Y59941D01*
X58840Y61658D02*
Y61458D01*
Y61558D01*
X58973D01*
Y61658D01*
Y61458D01*
X59074Y59823D02*
Y59623D01*
Y59723D01*
X59207D01*
Y59823D01*
Y59623D01*
X59310Y60138D02*
Y59938D01*
Y60038D01*
X59443D01*
Y60138D01*
Y59938D01*
X59546Y59854D02*
Y59654D01*
Y59754D01*
X59680D01*
Y59854D01*
Y59654D01*
X59783Y60138D02*
Y59938D01*
Y60038D01*
X59916D01*
Y60138D01*
Y59938D01*
X60255Y59823D02*
Y59623D01*
Y59723D01*
X60388D01*
Y59823D01*
Y59623D01*
X60491Y60138D02*
Y59938D01*
Y60038D01*
X60625D01*
Y60138D01*
Y59938D01*
X60728Y59823D02*
Y59623D01*
Y59723D01*
X60861D01*
Y59823D01*
Y59623D01*
X60964Y60138D02*
Y59938D01*
Y60038D01*
X61097D01*
Y60138D01*
Y59938D01*
X61200Y61667D02*
Y61467D01*
Y61567D01*
X61333D01*
Y61667D01*
Y61467D01*
X67550Y59319D02*
Y59120D01*
Y59219D01*
X67683D01*
Y59319D01*
Y59120D01*
X68288Y60454D02*
Y60254D01*
Y60354D01*
X68421D01*
Y60454D01*
Y60254D01*
X68050Y60145D02*
Y59945D01*
Y60045D01*
X68183D01*
Y60145D01*
Y59945D01*
X68522Y60144D02*
Y59944D01*
Y60044D01*
X68655D01*
Y60144D01*
Y59944D01*
X68758Y61636D02*
Y61436D01*
Y61536D01*
X68892D01*
Y61636D01*
Y61436D01*
X68997Y60454D02*
Y60254D01*
Y60354D01*
X69130D01*
Y60454D01*
Y60254D01*
X69231Y60144D02*
Y59944D01*
Y60044D01*
X69364D01*
Y60144D01*
Y59944D01*
X69469Y60454D02*
Y60254D01*
Y60354D01*
X69603D01*
Y60454D01*
Y60254D01*
X69703Y60147D02*
Y59947D01*
Y60047D01*
X69836D01*
Y60147D01*
Y59947D01*
X69942Y60454D02*
Y60254D01*
Y60354D01*
X70075D01*
Y60454D01*
Y60254D01*
X71120Y61680D02*
Y61480D01*
Y61580D01*
X71254D01*
Y61680D01*
Y61480D01*
X63765Y63661D02*
Y63461D01*
Y63561D01*
X63898D01*
Y63661D01*
Y63461D01*
X44651Y60175D02*
Y59975D01*
Y60075D01*
X44785D01*
Y60175D01*
Y59975D01*
X40036Y60876D02*
Y60676D01*
Y60776D01*
X40169D01*
Y60876D01*
Y60676D01*
X37995Y60597D02*
Y60397D01*
Y60497D01*
X38128D01*
Y60597D01*
Y60397D01*
X38375Y59930D02*
Y59730D01*
Y59830D01*
X38508D01*
Y59930D01*
Y59730D01*
X44651Y59525D02*
Y59325D01*
Y59425D01*
X44785D01*
Y59525D01*
Y59325D01*
X43849Y59525D02*
Y59325D01*
Y59425D01*
X43982D01*
Y59525D01*
Y59325D01*
X44250Y61282D02*
Y61082D01*
Y61182D01*
X44383D01*
Y61282D01*
Y61082D01*
X45183Y58850D02*
Y58650D01*
Y58750D01*
X45317D01*
Y58850D01*
Y58650D01*
X45183Y60850D02*
Y60650D01*
Y60750D01*
X45317D01*
Y60850D01*
Y60650D01*
X83444Y72200D02*
Y72000D01*
Y72100D01*
X83578D01*
Y72200D01*
Y72000D01*
X24748Y60747D02*
Y60547D01*
Y60647D01*
X24881D01*
Y60747D01*
Y60547D01*
X67580Y61653D02*
Y61453D01*
Y61553D01*
X67713D01*
Y61653D01*
Y61453D01*
X62499Y66263D02*
Y66063D01*
Y66163D01*
X62632D01*
Y66263D01*
Y66063D01*
X62872Y65825D02*
Y65625D01*
Y65725D01*
X63006D01*
Y65825D01*
Y65625D01*
X62502Y64879D02*
Y64679D01*
Y64779D01*
X62635D01*
Y64879D01*
Y64679D01*
X61082Y66263D02*
Y66063D01*
Y66163D01*
X61215D01*
Y66263D01*
Y66063D01*
X61084Y64879D02*
Y64679D01*
Y64779D01*
X61217D01*
Y64879D01*
Y64679D01*
X61455Y65825D02*
Y65625D01*
Y65725D01*
X61588D01*
Y65825D01*
Y65625D01*
X43350Y64350D02*
Y64150D01*
Y64250D01*
X43483D01*
Y64350D01*
Y64150D01*
X53053Y64933D02*
Y64733D01*
Y64833D01*
X53186D01*
Y64933D01*
Y64733D01*
X53287Y65200D02*
Y65000D01*
Y65100D01*
X53420D01*
Y65200D01*
Y65000D01*
X69824Y64933D02*
Y64733D01*
Y64833D01*
X69957D01*
Y64933D01*
Y64733D01*
X67462Y64933D02*
Y64733D01*
Y64833D01*
X67595D01*
Y64933D01*
Y64733D01*
X61793Y64933D02*
Y64733D01*
Y64833D01*
X61926D01*
Y64933D01*
Y64733D01*
X59903Y64933D02*
Y64733D01*
Y64833D01*
X60036D01*
Y64933D01*
Y64733D01*
X57541Y64933D02*
Y64733D01*
Y64833D01*
X57674D01*
Y64933D01*
Y64733D01*
X22088Y67527D02*
Y67327D01*
Y67427D01*
X22221D01*
Y67527D01*
Y67327D01*
X22088Y67873D02*
Y67673D01*
Y67773D01*
X22221D01*
Y67873D01*
Y67673D01*
X18888Y67527D02*
Y67327D01*
Y67427D01*
X19021D01*
Y67527D01*
Y67327D01*
X18888Y67873D02*
Y67673D01*
Y67773D01*
X19021D01*
Y67873D01*
Y67673D01*
X20382Y67900D02*
Y67700D01*
Y67800D01*
X20515D01*
Y67900D01*
Y67700D01*
X15688Y67527D02*
Y67327D01*
Y67427D01*
X15821D01*
Y67527D01*
Y67327D01*
X15688Y67873D02*
Y67673D01*
Y67773D01*
X15821D01*
Y67873D01*
Y67673D01*
X17182Y67900D02*
Y67700D01*
Y67800D01*
X17315D01*
Y67900D01*
Y67700D01*
X12488Y67527D02*
Y67327D01*
Y67427D01*
X12621D01*
Y67527D01*
Y67327D01*
X12488Y67873D02*
Y67673D01*
Y67773D01*
X12621D01*
Y67873D01*
Y67673D01*
X13982Y67900D02*
Y67700D01*
Y67800D01*
X14115D01*
Y67900D01*
Y67700D01*
X10782Y67900D02*
Y67700D01*
Y67800D01*
X10915D01*
Y67900D01*
Y67700D01*
X9288Y67873D02*
Y67673D01*
Y67773D01*
X9421D01*
Y67873D01*
Y67673D01*
X9288Y67527D02*
Y67327D01*
Y67427D01*
X9421D01*
Y67527D01*
Y67327D01*
X115861Y32661D02*
Y32461D01*
Y32561D01*
X115994D01*
Y32661D01*
Y32461D01*
X115861Y31007D02*
Y30807D01*
Y30907D01*
X115994D01*
Y31007D01*
Y30807D01*
X115861Y29353D02*
Y29154D01*
Y29254D01*
X115994D01*
Y29353D01*
Y29154D01*
X115861Y27700D02*
Y27500D01*
Y27600D01*
X115994D01*
Y27700D01*
Y27500D01*
X41338Y46300D02*
Y46100D01*
Y46200D01*
X41471D01*
Y46300D01*
Y46100D01*
X86433Y50710D02*
Y50510D01*
Y50610D01*
X86566D01*
Y50710D01*
Y50510D01*
X25878Y36312D02*
Y36112D01*
Y36212D01*
X26011D01*
Y36312D01*
Y36112D01*
X28330Y35015D02*
Y34815D01*
Y34915D01*
X28463D01*
Y35015D01*
Y34815D01*
X22421Y36382D02*
Y36182D01*
Y36282D01*
X22554D01*
Y36382D01*
Y36182D01*
X23487Y36389D02*
Y36189D01*
Y36289D01*
X23620D01*
Y36389D01*
Y36189D01*
X22286Y36046D02*
Y35846D01*
Y35946D01*
X22419D01*
Y36046D01*
Y35846D01*
X22602Y35768D02*
Y35568D01*
Y35668D01*
X22736D01*
Y35768D01*
Y35568D01*
X22949Y35768D02*
Y35568D01*
Y35668D01*
X23082D01*
Y35768D01*
Y35568D01*
X23378Y37142D02*
Y36942D01*
Y37042D01*
X23512D01*
Y37142D01*
Y36942D01*
X22952Y36782D02*
Y36582D01*
Y36682D01*
X23086D01*
Y36782D01*
Y36582D01*
X67846Y37631D02*
Y37431D01*
Y37531D01*
X67980D01*
Y37631D01*
Y37431D01*
X95083Y52457D02*
Y52258D01*
Y52358D01*
X95217D01*
Y52457D01*
Y52258D01*
X94084Y51295D02*
Y51095D01*
Y51195D01*
X94218D01*
Y51295D01*
Y51095D01*
X97198Y59734D02*
Y59534D01*
Y59634D01*
X97331D01*
Y59734D01*
Y59534D01*
X96800Y59729D02*
Y59529D01*
Y59629D01*
X96933D01*
Y59729D01*
Y59529D01*
X93898Y59629D02*
Y59429D01*
Y59529D01*
X94031D01*
Y59629D01*
Y59429D01*
X94387Y59629D02*
Y59429D01*
Y59529D01*
X94520D01*
Y59629D01*
Y59429D01*
X93642Y51714D02*
Y51514D01*
Y51614D01*
X93775D01*
Y51714D01*
Y51514D01*
X94043Y52072D02*
Y51872D01*
Y51972D01*
X94177D01*
Y52072D01*
Y51872D01*
X109000Y5402D02*
Y5202D01*
Y5302D01*
X109133D01*
Y5402D01*
Y5202D01*
X68454Y63708D02*
Y63508D01*
Y63608D01*
X68587D01*
Y63708D01*
Y63508D01*
X68119Y63708D02*
Y63508D01*
Y63608D01*
X68253D01*
Y63708D01*
Y63508D01*
X97492Y60409D02*
Y60209D01*
Y60309D01*
X97625D01*
Y60409D01*
Y60209D01*
X98240Y60802D02*
Y60602D01*
Y60702D01*
X98374D01*
Y60802D01*
Y60602D01*
X97740Y61207D02*
Y61007D01*
Y61107D01*
X97874D01*
Y61207D01*
Y61007D01*
X94782Y59783D02*
Y59583D01*
Y59683D01*
X94915D01*
Y59783D01*
Y59583D01*
X94526Y60671D02*
Y60471D01*
Y60571D01*
X94659D01*
Y60671D01*
Y60471D01*
X93912Y62317D02*
Y62117D01*
Y62217D01*
X94045D01*
Y62317D01*
Y62117D01*
X93586Y61957D02*
Y61757D01*
Y61857D01*
X93720D01*
Y61957D01*
Y61757D01*
X95683Y61957D02*
Y61757D01*
Y61857D01*
X95817D01*
Y61957D01*
Y61757D01*
X118380Y43275D02*
Y43075D01*
Y43175D01*
X118513D01*
Y43275D01*
Y43075D01*
X118380Y43590D02*
Y43390D01*
Y43490D01*
X118513D01*
Y43590D01*
Y43390D01*
X114271Y43432D02*
Y43232D01*
Y43332D01*
X114404D01*
Y43432D01*
Y43232D01*
X51579Y51475D02*
Y51275D01*
Y51375D01*
X51712D01*
Y51475D01*
Y51275D01*
X35150Y28119D02*
Y27919D01*
Y28019D01*
X35283D01*
Y28119D01*
Y27919D01*
X71319Y16676D02*
Y16476D01*
Y16576D01*
X71452D01*
Y16676D01*
Y16476D01*
X110320Y13012D02*
Y12812D01*
Y12912D01*
X110453D01*
Y13012D01*
Y12812D01*
X108000Y19371D02*
Y19171D01*
Y19271D01*
X108133D01*
Y19371D01*
Y19171D01*
X97178Y23348D02*
Y23148D01*
Y23248D01*
X97311D01*
Y23348D01*
Y23148D01*
X97178Y23742D02*
Y23542D01*
Y23642D01*
X97311D01*
Y23742D01*
Y23542D01*
X98950Y19866D02*
Y19666D01*
Y19766D01*
X99083D01*
Y19866D01*
Y19666D01*
X97450Y19866D02*
Y19666D01*
Y19766D01*
X97583D01*
Y19866D01*
Y19666D01*
X96672Y19341D02*
Y19141D01*
Y19241D01*
X96805D01*
Y19341D01*
Y19141D01*
X98400Y17320D02*
Y17120D01*
Y17220D01*
X98533D01*
Y17320D01*
Y17120D01*
X99410Y50342D02*
Y50142D01*
Y50242D01*
X99543D01*
Y50342D01*
Y50142D01*
X95161Y34944D02*
Y34744D01*
Y34844D01*
X95295D01*
Y34944D01*
Y34744D01*
X110850Y63565D02*
Y63365D01*
Y63465D01*
X110983D01*
Y63565D01*
Y63365D01*
X73892Y60379D02*
Y60179D01*
Y60279D01*
X74025D01*
Y60379D01*
Y60179D01*
X74254Y60379D02*
Y60179D01*
Y60279D01*
X74387D01*
Y60379D01*
Y60179D01*
X110175Y58734D02*
X110108D01*
X110142D01*
Y58567D01*
X110108Y58534D01*
X110075D01*
X110042Y58567D01*
X109288Y58734D02*
X109221D01*
X109254D01*
Y58567D01*
X109221Y58534D01*
X109188D01*
X109154Y58567D01*
X107539Y58734D02*
X107472D01*
X107505D01*
Y58567D01*
X107472Y58534D01*
X107439D01*
X107405Y58567D01*
X110411Y58897D02*
X110345D01*
X110378D01*
Y58730D01*
X110345Y58697D01*
X110311D01*
X110278Y58730D01*
X110411Y59328D02*
X110345D01*
X110378D01*
Y59161D01*
X110345Y59128D01*
X110311D01*
X110278Y59161D01*
X72947Y59902D02*
Y59702D01*
Y59802D01*
X73080D01*
Y59902D01*
Y59702D01*
X73309Y59902D02*
Y59702D01*
Y59802D01*
X73443D01*
Y59902D01*
Y59702D01*
X90180Y58200D02*
Y58000D01*
Y58100D01*
X90313D01*
Y58200D01*
Y58000D01*
X72238Y60098D02*
Y59898D01*
Y59998D01*
X72372D01*
Y60098D01*
Y59898D01*
X72601Y60098D02*
Y59898D01*
Y59998D01*
X72734D01*
Y60098D01*
Y59898D01*
X110175Y56990D02*
X110108D01*
X110142D01*
Y56823D01*
X110108Y56790D01*
X110075D01*
X110042Y56823D01*
X109288Y57316D02*
X109221D01*
X109254D01*
Y57150D01*
X109221Y57116D01*
X109188D01*
X109154Y57150D01*
X107539Y57316D02*
X107472D01*
X107505D01*
Y57150D01*
X107472Y57116D01*
X107439D01*
X107405Y57150D01*
X110411Y57153D02*
X110345D01*
X110378D01*
Y56986D01*
X110345Y56953D01*
X110311D01*
X110278Y56986D01*
X110411Y57603D02*
X110345D01*
X110378D01*
Y57436D01*
X110345Y57403D01*
X110311D01*
X110278Y57436D01*
X71832Y59896D02*
Y59696D01*
Y59796D01*
X71966D01*
Y59896D01*
Y59696D01*
X71293Y60381D02*
Y60181D01*
Y60281D01*
X71427D01*
Y60381D01*
Y60181D01*
X71656Y60381D02*
Y60181D01*
Y60281D01*
X71789D01*
Y60381D01*
Y60181D01*
X72774Y60483D02*
Y60283D01*
Y60383D01*
X72907D01*
Y60483D01*
Y60283D01*
X74546Y60133D02*
Y59933D01*
Y60033D01*
X74679D01*
Y60133D01*
Y59933D01*
X110175Y56589D02*
X110108D01*
X110142D01*
Y56422D01*
X110108Y56389D01*
X110075D01*
X110042Y56422D01*
X49794Y47585D02*
Y47385D01*
Y47485D01*
X49927D01*
Y47585D01*
Y47385D01*
X45886Y46025D02*
Y45825D01*
Y45925D01*
X46019D01*
Y46025D01*
Y45825D01*
X43423Y43674D02*
Y43474D01*
Y43574D01*
X43557D01*
Y43674D01*
Y43474D01*
X44832Y46725D02*
Y46525D01*
Y46625D01*
X44966D01*
Y46725D01*
Y46525D01*
X49826Y43340D02*
Y43140D01*
Y43240D01*
X49959D01*
Y43340D01*
Y43140D01*
X97179Y4842D02*
Y4642D01*
Y4742D01*
X97313D01*
Y4842D01*
Y4642D01*
X38610Y6271D02*
Y6071D01*
Y6171D01*
X38744D01*
Y6271D01*
Y6071D01*
X53030Y9400D02*
Y9200D01*
Y9300D01*
X53163D01*
Y9400D01*
Y9200D01*
X52210Y9070D02*
Y8870D01*
Y8970D01*
X52343D01*
Y9070D01*
Y8870D01*
X51950Y5500D02*
Y5300D01*
Y5400D01*
X52083D01*
Y5500D01*
Y5300D01*
X51110Y6271D02*
Y6071D01*
Y6171D01*
X51244D01*
Y6271D01*
Y6071D01*
X82141Y7705D02*
Y7505D01*
Y7605D01*
X82275D01*
Y7705D01*
Y7505D01*
X82688Y6280D02*
Y6080D01*
Y6180D01*
X82821D01*
Y6280D01*
Y6080D01*
X81500Y9130D02*
Y8930D01*
Y9030D01*
X81633D01*
Y9130D01*
Y8930D01*
X82141Y8805D02*
Y8605D01*
Y8705D01*
X82275D01*
Y8805D01*
Y8605D01*
X82688Y6932D02*
Y6732D01*
Y6832D01*
X82821D01*
Y6932D01*
Y6732D01*
X82688Y5330D02*
Y5130D01*
Y5230D01*
X82821D01*
Y5330D01*
Y5130D01*
X82688Y4678D02*
Y4478D01*
Y4578D01*
X82821D01*
Y4678D01*
Y4478D01*
X69038Y6932D02*
Y6732D01*
Y6832D01*
X69171D01*
Y6932D01*
Y6732D01*
X69038Y6280D02*
Y6080D01*
Y6180D01*
X69171D01*
Y6280D01*
Y6080D01*
X68491Y7705D02*
Y7505D01*
Y7605D01*
X68625D01*
Y7705D01*
Y7505D01*
X66541Y7705D02*
Y7505D01*
Y7605D01*
X66675D01*
Y7705D01*
Y7505D01*
X67088Y6280D02*
Y6080D01*
Y6180D01*
X67221D01*
Y6280D01*
Y6080D01*
X67088Y6932D02*
Y6732D01*
Y6832D01*
X67221D01*
Y6932D01*
Y6732D01*
X74888Y6280D02*
Y6080D01*
Y6180D01*
X75021D01*
Y6280D01*
Y6080D01*
X70988Y6280D02*
Y6080D01*
Y6180D01*
X71121D01*
Y6280D01*
Y6080D01*
X70988Y6932D02*
Y6732D01*
Y6832D01*
X71121D01*
Y6932D01*
Y6732D01*
X72938Y6932D02*
Y6732D01*
Y6832D01*
X73071D01*
Y6932D01*
Y6732D01*
X72938Y6280D02*
Y6080D01*
Y6180D01*
X73071D01*
Y6280D01*
Y6080D01*
X74888Y6932D02*
Y6732D01*
Y6832D01*
X75021D01*
Y6932D01*
Y6732D01*
X67088Y5330D02*
Y5130D01*
Y5230D01*
X67221D01*
Y5330D01*
Y5130D01*
X72938Y5330D02*
Y5130D01*
Y5230D01*
X73071D01*
Y5330D01*
Y5130D01*
X74341Y7705D02*
Y7505D01*
Y7605D01*
X74475D01*
Y7705D01*
Y7505D01*
X70441Y7705D02*
Y7505D01*
Y7605D01*
X70575D01*
Y7705D01*
Y7505D01*
X72391Y7705D02*
Y7505D01*
Y7605D01*
X72525D01*
Y7705D01*
Y7505D01*
X74888Y5330D02*
Y5130D01*
Y5230D01*
X75021D01*
Y5330D01*
Y5130D01*
X70988Y5330D02*
Y5130D01*
Y5230D01*
X71121D01*
Y5330D01*
Y5130D01*
X69038Y5330D02*
Y5130D01*
Y5230D01*
X69171D01*
Y5330D01*
Y5130D01*
X76838Y6932D02*
Y6732D01*
Y6832D01*
X76971D01*
Y6932D01*
Y6732D01*
X78788Y5330D02*
Y5130D01*
Y5230D01*
X78921D01*
Y5330D01*
Y5130D01*
X78788Y4678D02*
Y4478D01*
Y4578D01*
X78921D01*
Y4678D01*
Y4478D01*
X76838Y6280D02*
Y6080D01*
Y6180D01*
X76971D01*
Y6280D01*
Y6080D01*
X78788Y6932D02*
Y6732D01*
Y6832D01*
X78921D01*
Y6932D01*
Y6732D01*
X78788Y6280D02*
Y6080D01*
Y6180D01*
X78921D01*
Y6280D01*
Y6080D01*
X76838Y5330D02*
Y5130D01*
Y5230D01*
X76971D01*
Y5330D01*
Y5130D01*
X76291Y7705D02*
Y7505D01*
Y7605D01*
X76425D01*
Y7705D01*
Y7505D01*
X80738Y6932D02*
Y6732D01*
Y6832D01*
X80871D01*
Y6932D01*
Y6732D01*
X80738Y6280D02*
Y6080D01*
Y6180D01*
X80871D01*
Y6280D01*
Y6080D01*
X80738Y5330D02*
Y5130D01*
Y5230D01*
X80871D01*
Y5330D01*
Y5130D01*
X80191Y7705D02*
Y7505D01*
Y7605D01*
X80325D01*
Y7705D01*
Y7505D01*
X78241Y7705D02*
Y7505D01*
Y7605D01*
X78375D01*
Y7705D01*
Y7505D01*
X74888Y4678D02*
Y4478D01*
Y4578D01*
X75021D01*
Y4678D01*
Y4478D01*
X76838Y4678D02*
Y4478D01*
Y4578D01*
X76971D01*
Y4678D01*
Y4478D01*
X69038Y4678D02*
Y4478D01*
Y4578D01*
X69171D01*
Y4678D01*
Y4478D01*
X67088Y4678D02*
Y4478D01*
Y4578D01*
X67221D01*
Y4678D01*
Y4478D01*
X70988Y4678D02*
Y4478D01*
Y4578D01*
X71121D01*
Y4678D01*
Y4478D01*
X72938Y4678D02*
Y4478D01*
Y4578D01*
X73071D01*
Y4678D01*
Y4478D01*
X80738Y4678D02*
Y4478D01*
Y4578D01*
X80871D01*
Y4678D01*
Y4478D01*
X72391Y8805D02*
Y8605D01*
Y8705D01*
X72525D01*
Y8805D01*
Y8605D01*
X71750Y9130D02*
Y8930D01*
Y9030D01*
X71883D01*
Y9130D01*
Y8930D01*
X70441Y8805D02*
Y8605D01*
Y8705D01*
X70575D01*
Y8805D01*
Y8605D01*
X74341Y8805D02*
Y8605D01*
Y8705D01*
X74475D01*
Y8805D01*
Y8605D01*
X67850Y9130D02*
Y8930D01*
Y9030D01*
X67983D01*
Y9130D01*
Y8930D01*
X69800Y9130D02*
Y8930D01*
Y9030D01*
X69933D01*
Y9130D01*
Y8930D01*
X65900Y9130D02*
Y8930D01*
Y9030D01*
X66033D01*
Y9130D01*
Y8930D01*
X66541Y8805D02*
Y8605D01*
Y8705D01*
X66675D01*
Y8805D01*
Y8605D01*
X68491Y8805D02*
Y8605D01*
Y8705D01*
X68625D01*
Y8805D01*
Y8605D01*
X78241Y8805D02*
Y8605D01*
Y8705D01*
X78375D01*
Y8805D01*
Y8605D01*
X77600Y9130D02*
Y8930D01*
Y9030D01*
X77733D01*
Y9130D01*
Y8930D01*
X75650Y9130D02*
Y8930D01*
Y9030D01*
X75783D01*
Y9130D01*
Y8930D01*
X73700Y9130D02*
Y8930D01*
Y9030D01*
X73833D01*
Y9130D01*
Y8930D01*
X76291Y8805D02*
Y8605D01*
Y8705D01*
X76425D01*
Y8805D01*
Y8605D01*
X80191Y8805D02*
Y8605D01*
Y8705D01*
X80325D01*
Y8805D01*
Y8605D01*
X79550Y9130D02*
Y8930D01*
Y9030D01*
X79683D01*
Y9130D01*
Y8930D01*
X97673Y7307D02*
Y7107D01*
Y7207D01*
X97806D01*
Y7307D01*
Y7107D01*
X97204Y7307D02*
Y7107D01*
Y7207D01*
X97338D01*
Y7307D01*
Y7107D01*
X99516Y4164D02*
Y3964D01*
Y4064D01*
X99649D01*
Y4164D01*
Y3964D01*
X101466Y5971D02*
Y5771D01*
Y5871D01*
X101599D01*
Y5971D01*
Y5771D01*
X101987Y4741D02*
Y4541D01*
Y4641D01*
X102121D01*
Y4741D01*
Y4541D01*
X101987Y5971D02*
Y5771D01*
Y5871D01*
X102121D01*
Y5971D01*
Y5771D01*
X101987Y4272D02*
Y4072D01*
Y4172D01*
X102121D01*
Y4272D01*
Y4072D01*
X101987Y5387D02*
Y5187D01*
Y5287D01*
X102121D01*
Y5387D01*
Y5187D01*
X101769Y3487D02*
Y3287D01*
Y3387D01*
X101902D01*
Y3487D01*
Y3287D01*
X40150Y51385D02*
Y51185D01*
Y51285D01*
X40283D01*
Y51385D01*
Y51185D01*
X51990Y59823D02*
Y59623D01*
Y59723D01*
X52124D01*
Y59823D01*
Y59623D01*
X41550Y52259D02*
Y52059D01*
Y52159D01*
X41683D01*
Y52259D01*
Y52059D01*
X40150Y50639D02*
Y50439D01*
Y50539D01*
X40283D01*
Y50639D01*
Y50439D01*
X50699Y56286D02*
Y56086D01*
Y56186D01*
X50832D01*
Y56286D01*
Y56086D01*
X17756Y27786D02*
Y27586D01*
Y27686D01*
X17890D01*
Y27786D01*
Y27586D01*
X31338Y27770D02*
Y27570D01*
Y27670D01*
X31471D01*
Y27770D01*
Y27570D01*
X32060Y27790D02*
Y27590D01*
Y27690D01*
X32193D01*
Y27790D01*
Y27590D01*
X26908Y25350D02*
Y25150D01*
Y25250D01*
X27041D01*
Y25350D01*
Y25150D01*
X28150Y26125D02*
Y25925D01*
Y26025D01*
X28283D01*
Y26125D01*
Y25925D01*
X25374Y40693D02*
Y40493D01*
Y40593D01*
X25507D01*
Y40693D01*
Y40493D01*
X26273Y40693D02*
Y40493D01*
Y40593D01*
X26407D01*
Y40693D01*
Y40493D01*
X24924Y40693D02*
Y40493D01*
Y40593D01*
X25058D01*
Y40693D01*
Y40493D01*
X24475Y40693D02*
Y40493D01*
Y40593D01*
X24608D01*
Y40693D01*
Y40493D01*
X28973Y25684D02*
Y25484D01*
Y25584D01*
X29106D01*
Y25684D01*
Y25484D01*
X28584Y25893D02*
Y25693D01*
Y25793D01*
X28717D01*
Y25893D01*
Y25693D01*
X28971Y26094D02*
Y25894D01*
Y25994D01*
X29105D01*
Y26094D01*
Y25894D01*
X29507Y26245D02*
Y26045D01*
Y26145D01*
X29641D01*
Y26245D01*
Y26045D01*
X29920Y26600D02*
Y26400D01*
Y26500D01*
X30053D01*
Y26600D01*
Y26400D01*
X42268Y48125D02*
Y47925D01*
Y48025D01*
X42402D01*
Y48125D01*
Y47925D01*
X36500Y26453D02*
Y26253D01*
Y26353D01*
X36633D01*
Y26453D01*
Y26253D01*
X62381Y59823D02*
Y59623D01*
Y59723D01*
X62514D01*
Y59823D01*
Y59623D01*
X37496Y25787D02*
Y25587D01*
Y25687D01*
X37629D01*
Y25787D01*
Y25587D01*
X62145Y60138D02*
Y59938D01*
Y60038D01*
X62278D01*
Y60138D01*
Y59938D01*
X62617Y61675D02*
Y61475D01*
Y61575D01*
X62750D01*
Y61675D01*
Y61475D01*
X62853Y60138D02*
Y59938D01*
Y60038D01*
X62987D01*
Y60138D01*
Y59938D01*
X63090Y59826D02*
Y59626D01*
Y59726D01*
X63223D01*
Y59826D01*
Y59626D01*
X58661Y52029D02*
Y51829D01*
Y51929D01*
X58795D01*
Y52029D01*
Y51829D01*
X58521Y52469D02*
Y52269D01*
Y52369D01*
X58655D01*
Y52469D01*
Y52269D01*
X59991Y52381D02*
Y52181D01*
Y52281D01*
X60124D01*
Y52381D01*
Y52181D01*
X59995Y51979D02*
Y51779D01*
Y51879D01*
X60129D01*
Y51979D01*
Y51779D01*
X60404Y52381D02*
Y52181D01*
Y52281D01*
X60537D01*
Y52381D01*
Y52181D01*
X60404Y51979D02*
Y51779D01*
Y51879D01*
X60537D01*
Y51979D01*
Y51779D01*
X64915Y59887D02*
Y59687D01*
Y59787D01*
X65049D01*
Y59887D01*
Y59687D01*
X55421Y53625D02*
Y53425D01*
Y53525D01*
X55554D01*
Y53625D01*
Y53425D01*
X55850Y54044D02*
Y53844D01*
Y53944D01*
X55983D01*
Y54044D01*
Y53844D01*
X53457Y53625D02*
Y53425D01*
Y53525D01*
X53591D01*
Y53625D01*
Y53425D01*
X53050Y54013D02*
Y53813D01*
Y53913D01*
X53183D01*
Y54013D01*
Y53813D01*
X54450Y52600D02*
Y52400D01*
Y52500D01*
X54583D01*
Y52600D01*
Y52400D01*
X54450Y52226D02*
Y52026D01*
Y52126D01*
X54583D01*
Y52226D01*
Y52026D01*
X54450Y52974D02*
Y52774D01*
Y52874D01*
X54583D01*
Y52974D01*
Y52774D01*
X55850Y51149D02*
Y50949D01*
Y51049D01*
X55983D01*
Y51149D01*
Y50949D01*
X62600Y50966D02*
Y50766D01*
Y50866D01*
X62733D01*
Y50966D01*
Y50766D01*
X63012Y50966D02*
Y50766D01*
Y50866D01*
X63145D01*
Y50966D01*
Y50766D01*
X65502Y55234D02*
Y55034D01*
Y55134D01*
X65635D01*
Y55234D01*
Y55034D01*
X65502Y54725D02*
Y54525D01*
Y54625D01*
X65635D01*
Y54725D01*
Y54525D01*
X67901Y52842D02*
Y52642D01*
Y52742D01*
X68034D01*
Y52842D01*
Y52642D01*
X67021Y53931D02*
Y53732D01*
Y53832D01*
X67154D01*
Y53931D01*
Y53732D01*
X66657Y54725D02*
Y54525D01*
Y54625D01*
X66791D01*
Y54725D01*
Y54525D01*
X66657Y55234D02*
Y55034D01*
Y55134D01*
X66791D01*
Y55234D01*
Y55034D01*
X65501Y52471D02*
Y52271D01*
Y52371D01*
X65635D01*
Y52471D01*
Y52271D01*
X65501Y52925D02*
Y52725D01*
Y52825D01*
X65635D01*
Y52925D01*
Y52725D01*
X65501Y53382D02*
Y53182D01*
Y53282D01*
X65635D01*
Y53382D01*
Y53182D01*
X65895Y52471D02*
Y52271D01*
Y52371D01*
X66028D01*
Y52471D01*
Y52271D01*
X65895Y52925D02*
Y52725D01*
Y52825D01*
X66028D01*
Y52925D01*
Y52725D01*
X65895Y53382D02*
Y53182D01*
Y53282D01*
X66028D01*
Y53382D01*
Y53182D01*
X63952Y52925D02*
Y52725D01*
Y52825D01*
X64085D01*
Y52925D01*
Y52725D01*
X62060Y53525D02*
Y53325D01*
Y53425D01*
X62194D01*
Y53525D01*
Y53325D01*
X62600Y53012D02*
Y52812D01*
Y52912D01*
X62733D01*
Y53012D01*
Y52812D01*
X62060Y53012D02*
Y52812D01*
Y52912D01*
X62194D01*
Y53012D01*
Y52812D01*
X61597Y53012D02*
Y52812D01*
Y52912D01*
X61731D01*
Y53012D01*
Y52812D01*
X61597Y53525D02*
Y53325D01*
Y53425D01*
X61730D01*
Y53525D01*
Y53325D01*
X61134Y53012D02*
Y52812D01*
Y52912D01*
X61267D01*
Y53012D01*
Y52812D01*
X61134Y53525D02*
Y53325D01*
Y53425D01*
X61267D01*
Y53525D01*
Y53325D01*
X62224Y54100D02*
Y53900D01*
Y54000D01*
X62358D01*
Y54100D01*
Y53900D01*
X62469Y54725D02*
Y54525D01*
Y54625D01*
X62602D01*
Y54725D01*
Y54525D01*
X60817Y52381D02*
Y52181D01*
Y52281D01*
X60951D01*
Y52381D01*
Y52181D01*
X60817Y51979D02*
Y51779D01*
Y51879D01*
X60951D01*
Y51979D01*
Y51779D01*
X58242Y52129D02*
Y51929D01*
Y52029D01*
X58375D01*
Y52129D01*
Y51929D01*
X58092Y52509D02*
Y52309D01*
Y52409D01*
X58225D01*
Y52509D01*
Y52309D01*
X57869Y52839D02*
Y52639D01*
Y52739D01*
X58002D01*
Y52839D01*
Y52639D01*
X58302Y52839D02*
Y52639D01*
Y52739D01*
X58435D01*
Y52839D01*
Y52639D01*
X51810Y54139D02*
Y53939D01*
Y54039D01*
X51943D01*
Y54139D01*
Y53939D01*
X52213Y53728D02*
Y53528D01*
Y53628D01*
X52346D01*
Y53728D01*
Y53528D01*
X51810Y53728D02*
Y53528D01*
Y53628D01*
X51943D01*
Y53728D01*
Y53528D01*
X52213Y54141D02*
Y53941D01*
Y54041D01*
X52346D01*
Y54141D01*
Y53941D01*
X52213Y54554D02*
Y54354D01*
Y54454D01*
X52346D01*
Y54554D01*
Y54354D01*
X51810Y54550D02*
Y54350D01*
Y54450D01*
X51943D01*
Y54550D01*
Y54350D01*
X45396Y49252D02*
Y49052D01*
Y49152D01*
X45530D01*
Y49252D01*
Y49052D01*
X46464Y49838D02*
Y49638D01*
Y49738D01*
X46598D01*
Y49838D01*
Y49638D01*
X46415Y50433D02*
Y50233D01*
Y50333D01*
X46549D01*
Y50433D01*
Y50233D01*
X44951Y50629D02*
Y50430D01*
Y50529D01*
X45084D01*
Y50629D01*
Y50430D01*
X45665Y50895D02*
Y50695D01*
Y50795D01*
X45798D01*
Y50895D01*
Y50695D01*
X44756Y51204D02*
Y51004D01*
Y51104D01*
X44889D01*
Y51204D01*
Y51004D01*
X54347Y46300D02*
Y46100D01*
Y46200D01*
X54481D01*
Y46300D01*
Y46100D01*
X56245Y46757D02*
Y46557D01*
Y46657D01*
X56378D01*
Y46757D01*
Y46557D01*
X56245Y46300D02*
Y46100D01*
Y46200D01*
X56378D01*
Y46300D01*
Y46100D01*
X56245Y45846D02*
Y45646D01*
Y45746D01*
X56378D01*
Y45846D01*
Y45646D01*
X55851Y45846D02*
Y45646D01*
Y45746D01*
X55985D01*
Y45846D01*
Y45646D01*
X55851Y46757D02*
Y46557D01*
Y46657D01*
X55985D01*
Y46757D01*
Y46557D01*
X55851Y46300D02*
Y46100D01*
Y46200D01*
X55985D01*
Y46300D01*
Y46100D01*
X49516Y45657D02*
Y45457D01*
Y45557D01*
X49649D01*
Y45657D01*
Y45457D01*
X49516Y46078D02*
Y45878D01*
Y45978D01*
X49649D01*
Y46078D01*
Y45878D01*
X49890Y45657D02*
Y45457D01*
Y45557D01*
X50023D01*
Y45657D01*
Y45457D01*
X49890Y46078D02*
Y45878D01*
Y45978D01*
X50023D01*
Y46078D01*
Y45878D01*
X51114Y45657D02*
Y45457D01*
Y45557D01*
X51247D01*
Y45657D01*
Y45457D01*
X51114Y46078D02*
Y45878D01*
Y45978D01*
X51247D01*
Y46078D01*
Y45878D01*
X52132Y46673D02*
Y46473D01*
Y46573D01*
X52266D01*
Y46673D01*
Y46473D01*
X52132Y47094D02*
Y46894D01*
Y46994D01*
X52266D01*
Y47094D01*
Y46894D01*
X51752Y46673D02*
Y46473D01*
Y46573D01*
X51885D01*
Y46673D01*
Y46473D01*
X51372Y46673D02*
Y46473D01*
Y46573D01*
X51505D01*
Y46673D01*
Y46473D01*
X51752Y47094D02*
Y46894D01*
Y46994D01*
X51885D01*
Y47094D01*
Y46894D01*
X51372Y47094D02*
Y46894D01*
Y46994D01*
X51505D01*
Y47094D01*
Y46894D01*
X54236Y48629D02*
Y48429D01*
Y48529D01*
X54370D01*
Y48629D01*
Y48429D01*
X54529Y48300D02*
Y48100D01*
Y48200D01*
X54662D01*
Y48300D01*
Y48100D01*
X52621Y47575D02*
Y47375D01*
Y47475D01*
X52754D01*
Y47575D01*
Y47375D01*
X52950Y47867D02*
Y47667D01*
Y47767D01*
X53083D01*
Y47867D01*
Y47667D01*
X52950Y44150D02*
Y43950D01*
Y44050D01*
X53083D01*
Y44150D01*
Y43950D01*
X35966Y50456D02*
Y50256D01*
Y50356D01*
X36099D01*
Y50456D01*
Y50256D01*
X35961Y50858D02*
Y50659D01*
Y50759D01*
X36094D01*
Y50858D01*
Y50659D01*
X36374Y50858D02*
Y50659D01*
Y50759D01*
X36507D01*
Y50858D01*
Y50659D01*
X36787Y50456D02*
Y50256D01*
Y50356D01*
X36921D01*
Y50456D01*
Y50256D01*
X36787Y50858D02*
Y50659D01*
Y50759D01*
X36921D01*
Y50858D01*
Y50659D01*
X36376Y50456D02*
Y50256D01*
Y50356D01*
X36510D01*
Y50456D01*
Y50256D01*
X37950Y52025D02*
Y51825D01*
Y51925D01*
X38083D01*
Y52025D01*
Y51825D01*
X43165Y50600D02*
Y50400D01*
Y50500D01*
X43299D01*
Y50600D01*
Y50400D01*
X44010Y51675D02*
Y51475D01*
Y51575D01*
X44144D01*
Y51675D01*
Y51475D01*
X45628Y51675D02*
Y51475D01*
Y51575D01*
X45762D01*
Y51675D01*
Y51475D01*
X46642Y51521D02*
Y51321D01*
Y51421D01*
X46775D01*
Y51521D01*
Y51321D01*
X39355Y46754D02*
Y46554D01*
Y46654D01*
X39488D01*
Y46754D01*
Y46554D01*
X39749Y46754D02*
Y46554D01*
Y46654D01*
X39882D01*
Y46754D01*
Y46554D01*
X39749Y45843D02*
Y45643D01*
Y45743D01*
X39882D01*
Y45843D01*
Y45643D01*
X39355Y45843D02*
Y45643D01*
Y45743D01*
X39488D01*
Y45843D01*
Y45643D01*
X39355Y46300D02*
Y46100D01*
Y46200D01*
X39488D01*
Y46300D01*
Y46100D01*
X39749Y46300D02*
Y46100D01*
Y46200D01*
X39882D01*
Y46300D01*
Y46100D01*
X41021Y44496D02*
Y44296D01*
Y44396D01*
X41155D01*
Y44496D01*
Y44296D01*
X41319Y44171D02*
Y43971D01*
Y44071D01*
X41452D01*
Y44171D01*
Y43971D01*
X43034Y48125D02*
Y47925D01*
Y48025D01*
X43168D01*
Y48125D01*
Y47925D01*
X44576Y47402D02*
Y47202D01*
Y47302D01*
X44709D01*
Y47402D01*
Y47202D01*
X44576Y46982D02*
Y46782D01*
Y46882D01*
X44709D01*
Y46982D01*
Y46782D01*
X44409Y46433D02*
Y46233D01*
Y46333D01*
X44542D01*
Y46433D01*
Y46233D01*
X43400Y46433D02*
Y46233D01*
Y46333D01*
X43533D01*
Y46433D01*
Y46233D01*
X43904Y46433D02*
Y46233D01*
Y46333D01*
X44038D01*
Y46433D01*
Y46233D01*
X42979Y45080D02*
Y44880D01*
Y44980D01*
X43112D01*
Y45080D01*
Y44880D01*
X42654Y44783D02*
Y44583D01*
Y44683D01*
X42787D01*
Y44783D01*
Y44583D01*
X43092Y45473D02*
Y45274D01*
Y45374D01*
X43225D01*
Y45473D01*
Y45274D01*
X43092Y45845D02*
Y45645D01*
Y45745D01*
X43225D01*
Y45845D01*
Y45645D01*
X44976Y48553D02*
Y48353D01*
Y48453D01*
X45109D01*
Y48553D01*
Y48353D01*
X46488Y48553D02*
Y48353D01*
Y48453D01*
X46621D01*
Y48553D01*
Y48353D01*
X46550Y48078D02*
Y47878D01*
Y47978D01*
X46684D01*
Y48078D01*
Y47878D01*
X48300Y46629D02*
Y46429D01*
Y46529D01*
X48433D01*
Y46629D01*
Y46429D01*
X49000Y46629D02*
Y46429D01*
Y46529D01*
X49133D01*
Y46629D01*
Y46429D01*
X49000Y48019D02*
Y47819D01*
Y47919D01*
X49133D01*
Y48019D01*
Y47819D01*
X50538Y48450D02*
Y48250D01*
Y48350D01*
X50672D01*
Y48450D01*
Y48250D01*
X49095Y48450D02*
Y48250D01*
Y48350D01*
X49228D01*
Y48450D01*
Y48250D01*
X50585Y49450D02*
Y49250D01*
Y49350D01*
X50718D01*
Y49450D01*
Y49250D01*
X50964Y49450D02*
Y49250D01*
Y49350D01*
X51097D01*
Y49450D01*
Y49250D01*
X49095Y49450D02*
Y49250D01*
Y49350D01*
X49228D01*
Y49450D01*
Y49250D01*
X49095Y50050D02*
Y49850D01*
Y49950D01*
X49228D01*
Y50050D01*
Y49850D01*
X65050Y37390D02*
Y37190D01*
Y37290D01*
X65183D01*
Y37390D01*
Y37190D01*
X65286Y30818D02*
Y30619D01*
Y30718D01*
X65419D01*
Y30818D01*
Y30619D01*
X63562Y60339D02*
Y60139D01*
Y60239D01*
X63695D01*
Y60339D01*
Y60139D01*
X63927Y60127D02*
Y59927D01*
Y60027D01*
X64060D01*
Y60127D01*
Y59927D01*
X64743Y60138D02*
Y59938D01*
Y60038D01*
X64876D01*
Y60138D01*
Y59938D01*
X65688Y60434D02*
Y60234D01*
Y60334D01*
X65821D01*
Y60434D01*
Y60234D01*
X65452Y60156D02*
Y59956D01*
Y60056D01*
X65585D01*
Y60156D01*
Y59956D01*
X64454Y60482D02*
Y60282D01*
Y60382D01*
X64587D01*
Y60482D01*
Y60282D01*
X65215Y60485D02*
Y60285D01*
Y60385D01*
X65349D01*
Y60485D01*
Y60285D01*
X36901Y27114D02*
Y26914D01*
Y27014D01*
X37035D01*
Y27114D01*
Y26914D01*
X34670Y26947D02*
Y26747D01*
Y26847D01*
X34804D01*
Y26947D01*
Y26747D01*
X33026Y25578D02*
Y25378D01*
Y25478D01*
X33159D01*
Y25578D01*
Y25378D01*
X33026Y25019D02*
Y24819D01*
Y24919D01*
X33159D01*
Y25019D01*
Y24819D01*
X33026Y24468D02*
Y24268D01*
Y24368D01*
X33159D01*
Y24468D01*
Y24268D01*
X33604Y27082D02*
Y26882D01*
Y26982D01*
X33737D01*
Y27082D01*
Y26882D01*
X33875Y26792D02*
Y26592D01*
Y26692D01*
X34008D01*
Y26792D01*
Y26592D01*
X34187Y25845D02*
Y25645D01*
Y25745D01*
X34321D01*
Y25845D01*
Y25645D01*
X34735Y25881D02*
Y25681D01*
Y25781D01*
X34868D01*
Y25881D01*
Y25681D01*
X34654Y25369D02*
Y25169D01*
Y25269D01*
X34787D01*
Y25369D01*
Y25169D01*
X34950Y25648D02*
Y25448D01*
Y25548D01*
X35083D01*
Y25648D01*
Y25448D01*
X36963Y25374D02*
Y25175D01*
Y25274D01*
X37097D01*
Y25374D01*
Y25175D01*
X37048Y25960D02*
Y25760D01*
Y25860D01*
X37181D01*
Y25960D01*
Y25760D01*
X36831Y24468D02*
Y24268D01*
Y24368D01*
X36964D01*
Y24468D01*
Y24268D01*
X34727Y24629D02*
Y24429D01*
Y24529D01*
X34861D01*
Y24629D01*
Y24429D01*
X36447Y24625D02*
Y24425D01*
Y24525D01*
X36581D01*
Y24625D01*
Y24425D01*
X34864Y24091D02*
Y23891D01*
Y23991D01*
X34997D01*
Y24091D01*
Y23891D01*
X36532Y23684D02*
Y23484D01*
Y23584D01*
X36665D01*
Y23684D01*
Y23484D01*
X34177Y23976D02*
Y23776D01*
Y23876D01*
X34310D01*
Y23976D01*
Y23776D01*
X44548Y25834D02*
Y25634D01*
Y25734D01*
X44682D01*
Y25834D01*
Y25634D01*
X12963Y7600D02*
Y7400D01*
Y7500D01*
X13096D01*
Y7600D01*
Y7400D01*
X12963Y8450D02*
Y8250D01*
Y8350D01*
X13096D01*
Y8450D01*
Y8250D01*
X20846Y13400D02*
Y13200D01*
Y13300D01*
X20980D01*
Y13400D01*
Y13200D01*
X46050Y25200D02*
Y25000D01*
Y25100D01*
X46183D01*
Y25200D01*
Y25000D01*
X64154Y31600D02*
Y31400D01*
Y31500D01*
X64287D01*
Y31600D01*
Y31400D01*
X64154Y32100D02*
Y31900D01*
Y32000D01*
X64287D01*
Y32100D01*
Y31900D01*
X22000Y7940D02*
Y7740D01*
Y7840D01*
X22133D01*
Y7940D01*
Y7740D01*
X19213Y7600D02*
Y7400D01*
Y7500D01*
X19346D01*
Y7600D01*
Y7400D01*
X44400Y22550D02*
Y22350D01*
Y22450D01*
X44533D01*
Y22550D01*
Y22350D01*
X46039Y22629D02*
Y22429D01*
Y22529D01*
X46173D01*
Y22629D01*
Y22429D01*
X27096Y13400D02*
Y13200D01*
Y13300D01*
X27230D01*
Y13400D01*
Y13200D01*
X36090Y13600D02*
Y13400D01*
Y13500D01*
X36223D01*
Y13600D01*
Y13400D01*
X38763Y18296D02*
Y18096D01*
Y18196D01*
X38897D01*
Y18296D01*
Y18096D01*
X39114Y19673D02*
Y19473D01*
Y19573D01*
X39248D01*
Y19673D01*
Y19473D01*
X46050Y23890D02*
Y23690D01*
Y23790D01*
X46183D01*
Y23890D01*
Y23690D01*
X47650Y6035D02*
Y5835D01*
Y5935D01*
X47783D01*
Y6035D01*
Y5835D01*
X68500Y28886D02*
Y28686D01*
Y28786D01*
X68633D01*
Y28886D01*
Y28686D01*
X59368Y18875D02*
Y18675D01*
Y18775D01*
X59501D01*
Y18875D01*
Y18675D01*
X68000Y28886D02*
Y28686D01*
Y28786D01*
X68133D01*
Y28886D01*
Y28686D01*
X67000Y28886D02*
Y28686D01*
Y28786D01*
X67133D01*
Y28886D01*
Y28686D01*
X67500Y28886D02*
Y28686D01*
Y28786D01*
X67633D01*
Y28886D01*
Y28686D01*
X36100Y8928D02*
Y8729D01*
Y8828D01*
X36233D01*
Y8928D01*
Y8729D01*
X48650Y20003D02*
Y19803D01*
Y19903D01*
X48783D01*
Y20003D01*
Y19803D01*
X46300Y47125D02*
Y46925D01*
Y47025D01*
X46433D01*
Y47125D01*
Y46925D01*
X43582Y45845D02*
Y45645D01*
Y45745D01*
X43716D01*
Y45845D01*
Y45645D01*
X44073Y45845D02*
Y45645D01*
Y45745D01*
X44206D01*
Y45845D01*
Y45645D01*
X43582Y45473D02*
Y45274D01*
Y45374D01*
X43716D01*
Y45473D01*
Y45274D01*
X44073Y45473D02*
Y45274D01*
Y45374D01*
X44206D01*
Y45473D01*
Y45274D01*
X25316Y9050D02*
Y8850D01*
Y8950D01*
X25449D01*
Y9050D01*
Y8850D01*
X44066Y9050D02*
Y8850D01*
Y8950D01*
X44199D01*
Y9050D01*
Y8850D01*
X21257Y28321D02*
Y28121D01*
Y28221D01*
X21391D01*
Y28321D01*
Y28121D01*
X19871Y26361D02*
Y26161D01*
Y26261D01*
X20005D01*
Y26361D01*
Y26161D01*
X21897Y27086D02*
Y26886D01*
Y26986D01*
X22031D01*
Y27086D01*
Y26886D01*
X19528Y25686D02*
Y25486D01*
Y25586D01*
X19661D01*
Y25686D01*
Y25486D01*
X22977Y33307D02*
Y33107D01*
Y33207D01*
X23110D01*
Y33307D01*
Y33107D01*
X19809Y32498D02*
Y32298D01*
Y32398D01*
X19942D01*
Y32498D01*
Y32298D01*
X20568Y32583D02*
Y32383D01*
Y32483D01*
X20701D01*
Y32583D01*
Y32383D01*
X19809Y32865D02*
Y32665D01*
Y32765D01*
X19942D01*
Y32865D01*
Y32665D01*
X22977Y32863D02*
Y32663D01*
Y32763D01*
X23111D01*
Y32863D01*
Y32663D01*
X19750Y32090D02*
Y31891D01*
Y31991D01*
X19883D01*
Y32090D01*
Y31891D01*
X15867Y27329D02*
Y27129D01*
Y27229D01*
X16000D01*
Y27329D01*
Y27129D01*
X16336Y28240D02*
Y28040D01*
Y28140D01*
X16469D01*
Y28240D01*
Y28040D01*
X16336Y27329D02*
Y27129D01*
Y27229D01*
X16469D01*
Y27329D01*
Y27129D01*
X16336Y27786D02*
Y27586D01*
Y27686D01*
X16469D01*
Y27786D01*
Y27586D01*
X15867Y28240D02*
Y28040D01*
Y28140D01*
X16000D01*
Y28240D01*
Y28040D01*
X15867Y27786D02*
Y27586D01*
Y27686D01*
X16000D01*
Y27786D01*
Y27586D01*
X39760Y17150D02*
Y16950D01*
Y17050D01*
X39894D01*
Y17150D01*
Y16950D01*
X45190Y17075D02*
Y16875D01*
Y16975D01*
X45324D01*
Y17075D01*
Y16875D01*
X44624Y17075D02*
Y16875D01*
Y16975D01*
X44757D01*
Y17075D01*
Y16875D01*
X51518Y60469D02*
Y60269D01*
Y60369D01*
X51651D01*
Y60469D01*
Y60269D01*
X50451Y61932D02*
Y61732D01*
Y61832D01*
X50584D01*
Y61932D01*
Y61732D01*
X20300Y60084D02*
Y59884D01*
Y59984D01*
X20433D01*
Y60084D01*
Y59884D01*
X15405Y59678D02*
Y59478D01*
Y59578D01*
X15538D01*
Y59678D01*
Y59478D01*
X16689Y59039D02*
Y58839D01*
Y58939D01*
X16822D01*
Y59039D01*
Y58839D01*
X12850Y59828D02*
Y59628D01*
Y59728D01*
X12983D01*
Y59828D01*
Y59628D01*
X12350Y60790D02*
Y60590D01*
Y60690D01*
X12483D01*
Y60790D01*
Y60590D01*
X11647Y61000D02*
Y60800D01*
Y60900D01*
X11780D01*
Y61000D01*
Y60800D01*
X9239Y59039D02*
Y58839D01*
Y58939D01*
X9372D01*
Y59039D01*
Y58839D01*
X8726Y60500D02*
Y60300D01*
Y60400D01*
X8859D01*
Y60500D01*
Y60300D01*
X7955Y59678D02*
Y59478D01*
Y59578D01*
X8088D01*
Y59678D01*
Y59478D01*
X22600Y63470D02*
Y63270D01*
Y63370D01*
X22733D01*
Y63470D01*
Y63270D01*
X20922Y66020D02*
Y65820D01*
Y65920D01*
X21055D01*
Y66020D01*
Y65820D01*
X20180Y64931D02*
Y64731D01*
Y64831D01*
X20313D01*
Y64931D01*
Y64731D01*
X20026Y63102D02*
Y62902D01*
Y63002D01*
X20159D01*
Y63102D01*
Y62902D01*
X21434Y63470D02*
Y63270D01*
Y63370D01*
X21567D01*
Y63470D01*
Y63270D01*
X20922Y63102D02*
Y62902D01*
Y63002D01*
X21055D01*
Y63102D01*
Y62902D01*
X14972Y63102D02*
Y62902D01*
Y63002D01*
X15105D01*
Y63102D01*
Y62902D01*
X15484Y63470D02*
Y63270D01*
Y63370D01*
X15617D01*
Y63470D01*
Y63270D01*
X14076Y63102D02*
Y62902D01*
Y63002D01*
X14209D01*
Y63102D01*
Y62902D01*
X14230Y64931D02*
Y64731D01*
Y64831D01*
X14363D01*
Y64931D01*
Y64731D01*
X16600Y65810D02*
Y65610D01*
Y65710D01*
X16733D01*
Y65810D01*
Y65610D01*
X14972Y66020D02*
Y65820D01*
Y65920D01*
X15105D01*
Y66020D01*
Y65820D01*
X16650Y63470D02*
Y63270D01*
Y63370D01*
X16783D01*
Y63470D01*
Y63270D01*
X100904Y65891D02*
Y65691D01*
Y65791D01*
X101038D01*
Y65891D01*
Y65691D01*
X101456Y65106D02*
Y64906D01*
Y65006D01*
X101589D01*
Y65106D01*
Y64906D01*
X101456Y65894D02*
Y65694D01*
Y65794D01*
X101589D01*
Y65894D01*
Y65694D01*
X100950Y63230D02*
Y63030D01*
Y63130D01*
X101083D01*
Y63230D01*
Y63030D01*
X101390Y63230D02*
Y63030D01*
Y63130D01*
X101523D01*
Y63230D01*
Y63030D01*
X102250Y64550D02*
Y64350D01*
Y64450D01*
X102383D01*
Y64550D01*
Y64350D01*
X104624Y67984D02*
Y67784D01*
Y67884D01*
X104757D01*
Y67984D01*
Y67784D01*
X102143Y67600D02*
Y67400D01*
Y67500D01*
X102277D01*
Y67600D01*
Y67400D01*
X103251Y67178D02*
Y66978D01*
Y67078D01*
X103384D01*
Y67178D01*
Y66978D01*
X101980Y67050D02*
Y66850D01*
Y66950D01*
X102113D01*
Y67050D01*
Y66850D01*
X102224Y65513D02*
Y65313D01*
Y65413D01*
X102358D01*
Y65513D01*
Y65313D01*
X102661Y64879D02*
Y64679D01*
Y64779D01*
X102794D01*
Y64879D01*
Y64679D01*
X103650Y63425D02*
Y63225D01*
Y63325D01*
X103783D01*
Y63425D01*
Y63225D01*
X103979Y63827D02*
Y63627D01*
Y63727D01*
X104112D01*
Y63827D01*
Y63627D01*
X103979Y64173D02*
Y63973D01*
Y64073D01*
X104112D01*
Y64173D01*
Y63973D01*
X103220Y64808D02*
Y64608D01*
Y64708D01*
X103353D01*
Y64808D01*
Y64608D01*
X105369Y64997D02*
Y64797D01*
Y64897D01*
X105502D01*
Y64997D01*
Y64797D01*
X10200Y47347D02*
Y47147D01*
Y47247D01*
X10334D01*
Y47347D01*
Y47147D01*
X9118Y39450D02*
Y39250D01*
Y39350D01*
X9252D01*
Y39450D01*
Y39250D01*
X8650Y39450D02*
Y39250D01*
Y39350D01*
X8783D01*
Y39450D01*
Y39250D01*
X8650Y38993D02*
Y38793D01*
Y38893D01*
X8783D01*
Y38993D01*
Y38793D01*
X8650Y39904D02*
Y39704D01*
Y39804D01*
X8783D01*
Y39904D01*
Y39704D01*
X9118Y38993D02*
Y38793D01*
Y38893D01*
X9252D01*
Y38993D01*
Y38793D01*
X9118Y39904D02*
Y39704D01*
Y39804D01*
X9252D01*
Y39904D01*
Y39704D01*
X12421Y41475D02*
Y41275D01*
Y41375D01*
X12555D01*
Y41475D01*
Y41275D01*
X12100Y41768D02*
Y41568D01*
Y41668D01*
X12233D01*
Y41768D01*
Y41568D01*
X13250Y39900D02*
Y39700D01*
Y39800D01*
X13383D01*
Y39900D01*
Y39700D01*
X10715Y37237D02*
Y37037D01*
Y37137D01*
X10848D01*
Y37237D01*
Y37037D01*
X10354Y37602D02*
Y37402D01*
Y37502D01*
X10487D01*
Y37602D01*
Y37402D01*
X12100Y37904D02*
Y37704D01*
Y37804D01*
X12233D01*
Y37904D01*
Y37704D01*
X12451Y38225D02*
Y38025D01*
Y38125D01*
X12584D01*
Y38225D01*
Y38025D01*
X12856Y38650D02*
Y38450D01*
Y38550D01*
X12989D01*
Y38650D01*
Y38450D01*
X26250Y34810D02*
Y34610D01*
Y34710D01*
X26383D01*
Y34810D01*
Y34610D01*
X27250Y34670D02*
Y34470D01*
Y34570D01*
X27383D01*
Y34670D01*
Y34470D01*
X26700Y34670D02*
Y34470D01*
Y34570D01*
X26833D01*
Y34670D01*
Y34470D01*
X27850Y34582D02*
Y34382D01*
Y34482D01*
X27983D01*
Y34582D01*
Y34382D01*
X34450Y34750D02*
Y34550D01*
Y34650D01*
X34583D01*
Y34750D01*
Y34550D01*
X33900Y34750D02*
Y34550D01*
Y34650D01*
X34033D01*
Y34750D01*
Y34550D01*
X34768Y33125D02*
Y32925D01*
Y33025D01*
X34902D01*
Y33125D01*
Y32925D01*
X35050Y32832D02*
Y32632D01*
Y32732D01*
X35183D01*
Y32832D01*
Y32632D01*
X34680Y36917D02*
Y36717D01*
Y36817D01*
X34813D01*
Y36917D01*
Y36717D01*
X34680Y36387D02*
Y36187D01*
Y36287D01*
X34813D01*
Y36387D01*
Y36187D01*
X38630Y35554D02*
Y35354D01*
Y35454D01*
X38764D01*
Y35554D01*
Y35354D01*
X38630Y34643D02*
Y34443D01*
Y34543D01*
X38764D01*
Y34643D01*
Y34443D01*
X38162Y35554D02*
Y35354D01*
Y35454D01*
X38295D01*
Y35554D01*
Y35354D01*
X38162Y34643D02*
Y34443D01*
Y34543D01*
X38295D01*
Y34643D01*
Y34443D01*
X38162Y35100D02*
Y34900D01*
Y35000D01*
X38295D01*
Y35100D01*
Y34900D01*
X38630Y35100D02*
Y34900D01*
Y35000D01*
X38764D01*
Y35100D01*
Y34900D01*
X36650Y35100D02*
Y34900D01*
Y35000D01*
X36783D01*
Y35100D01*
Y34900D01*
X34350Y35900D02*
Y35700D01*
Y35800D01*
X34483D01*
Y35900D01*
Y35700D01*
X50552Y30810D02*
Y30610D01*
Y30710D01*
X50686D01*
Y30810D01*
Y30610D01*
X50547Y31203D02*
Y31003D01*
Y31103D01*
X50681D01*
Y31203D01*
Y31003D01*
X49363Y30678D02*
Y30478D01*
Y30578D01*
X49497D01*
Y30678D01*
Y30478D01*
X47330Y30462D02*
Y30262D01*
Y30362D01*
X47463D01*
Y30462D01*
Y30262D01*
X47727Y30461D02*
Y30261D01*
Y30361D01*
X47861D01*
Y30461D01*
Y30261D01*
X47330Y30923D02*
Y30723D01*
Y30823D01*
X47463D01*
Y30923D01*
Y30723D01*
X47727Y30923D02*
Y30723D01*
Y30823D01*
X47861D01*
Y30923D01*
Y30723D01*
X49772Y31203D02*
Y31003D01*
Y31103D01*
X49905D01*
Y31203D01*
Y31003D01*
X29585Y17373D02*
Y17173D01*
Y17273D01*
X29719D01*
Y17373D01*
Y17173D01*
X30325Y17682D02*
Y17482D01*
Y17582D01*
X30458D01*
Y17682D01*
Y17482D01*
X30311Y17262D02*
Y17062D01*
Y17162D01*
X30444D01*
Y17262D01*
Y17062D01*
X31120Y17690D02*
Y17490D01*
Y17590D01*
X31253D01*
Y17690D01*
Y17490D01*
X31088Y17271D02*
Y17071D01*
Y17171D01*
X31221D01*
Y17271D01*
Y17071D01*
X31853Y17707D02*
Y17507D01*
Y17607D01*
X31986D01*
Y17707D01*
Y17507D01*
X31853Y17271D02*
Y17071D01*
Y17171D01*
X31986D01*
Y17271D01*
Y17071D01*
X33342Y17699D02*
Y17499D01*
Y17599D01*
X33476D01*
Y17699D01*
Y17499D01*
X34086Y17389D02*
Y17189D01*
Y17289D01*
X34220D01*
Y17389D01*
Y17189D01*
X34800Y17391D02*
Y17191D01*
Y17291D01*
X34933D01*
Y17391D01*
Y17191D01*
X34865Y20197D02*
Y19997D01*
Y20097D01*
X34998D01*
Y20197D01*
Y19997D01*
X35566Y17630D02*
Y17430D01*
Y17530D01*
X35700D01*
Y17630D01*
Y17430D01*
X45020Y18750D02*
Y18550D01*
Y18650D01*
X45153D01*
Y18750D01*
Y18550D01*
X41354Y17150D02*
Y16950D01*
Y17050D01*
X41487D01*
Y17150D01*
Y16950D01*
X38763Y18976D02*
Y18776D01*
Y18876D01*
X38897D01*
Y18976D01*
Y18776D01*
X10816Y11650D02*
Y11450D01*
Y11550D01*
X10949D01*
Y11650D01*
Y11450D01*
X10816Y12100D02*
Y11900D01*
Y12000D01*
X10949D01*
Y12100D01*
Y11900D01*
X11090Y12750D02*
Y12550D01*
Y12650D01*
X11223D01*
Y12750D01*
Y12550D01*
X11090Y13600D02*
Y13400D01*
Y13500D01*
X11223D01*
Y13600D01*
Y13400D01*
X17066Y11650D02*
Y11450D01*
Y11550D01*
X17199D01*
Y11650D01*
Y11450D01*
X17066Y12100D02*
Y11900D01*
Y12000D01*
X17199D01*
Y12100D01*
Y11900D01*
X17340Y12750D02*
Y12550D01*
Y12650D01*
X17473D01*
Y12750D01*
Y12550D01*
X17340Y13600D02*
Y13400D01*
Y13500D01*
X17473D01*
Y13600D01*
Y13400D01*
X14596Y13400D02*
Y13200D01*
Y13300D01*
X14730D01*
Y13400D01*
Y13200D01*
X23316Y11650D02*
Y11450D01*
Y11550D01*
X23449D01*
Y11650D01*
Y11450D01*
X23316Y12100D02*
Y11900D01*
Y12000D01*
X23449D01*
Y12100D01*
Y11900D01*
X23590Y12750D02*
Y12550D01*
Y12650D01*
X23723D01*
Y12750D01*
Y12550D01*
X23590Y13600D02*
Y13400D01*
Y13500D01*
X23723D01*
Y13600D01*
Y13400D01*
X29566Y11650D02*
Y11450D01*
Y11550D01*
X29699D01*
Y11650D01*
Y11450D01*
X29566Y12100D02*
Y11900D01*
Y12000D01*
X29699D01*
Y12100D01*
Y11900D01*
X29840Y12750D02*
Y12550D01*
Y12650D01*
X29973D01*
Y12750D01*
Y12550D01*
X29840Y13600D02*
Y13400D01*
Y13500D01*
X29973D01*
Y13600D01*
Y13400D01*
X35816Y11650D02*
Y11450D01*
Y11550D01*
X35949D01*
Y11650D01*
Y11450D01*
X35816Y12100D02*
Y11900D01*
Y12000D01*
X35949D01*
Y12100D01*
Y11900D01*
X36090Y12750D02*
Y12550D01*
Y12650D01*
X36223D01*
Y12750D01*
Y12550D01*
X33346Y13400D02*
Y13200D01*
Y13300D01*
X33480D01*
Y13400D01*
Y13200D01*
X42066Y11650D02*
Y11450D01*
Y11550D01*
X42199D01*
Y11650D01*
Y11450D01*
X42066Y12100D02*
Y11900D01*
Y12000D01*
X42199D01*
Y12100D01*
Y11900D01*
X42340Y12750D02*
Y12550D01*
Y12650D01*
X42473D01*
Y12750D01*
Y12550D01*
X42340Y13600D02*
Y13400D01*
Y13500D01*
X42473D01*
Y13600D01*
Y13400D01*
X39596Y13400D02*
Y13200D01*
Y13300D01*
X39730D01*
Y13400D01*
Y13200D01*
X48316Y11650D02*
Y11450D01*
Y11550D01*
X48449D01*
Y11650D01*
Y11450D01*
X48316Y12100D02*
Y11900D01*
Y12000D01*
X48449D01*
Y12100D01*
Y11900D01*
X48590Y12750D02*
Y12550D01*
Y12650D01*
X48723D01*
Y12750D01*
Y12550D01*
X48590Y13600D02*
Y13400D01*
Y13500D01*
X48723D01*
Y13600D01*
Y13400D01*
X45846Y13400D02*
Y13200D01*
Y13300D01*
X45980D01*
Y13400D01*
Y13200D01*
X52096Y13400D02*
Y13200D01*
Y13300D01*
X52230D01*
Y13400D01*
Y13200D01*
X54840Y13600D02*
Y13400D01*
Y13500D01*
X54973D01*
Y13600D01*
Y13400D01*
X54840Y12750D02*
Y12550D01*
Y12650D01*
X54973D01*
Y12750D01*
Y12550D01*
X54566Y12100D02*
Y11900D01*
Y12000D01*
X54699D01*
Y12100D01*
Y11900D01*
X54566Y11650D02*
Y11450D01*
Y11550D01*
X54699D01*
Y11650D01*
Y11450D01*
X10850Y6026D02*
Y5826D01*
Y5926D01*
X10983D01*
Y6026D01*
Y5826D01*
X10150Y6035D02*
Y5835D01*
Y5935D01*
X10283D01*
Y6035D01*
Y5835D01*
X11100Y8928D02*
Y8729D01*
Y8828D01*
X11233D01*
Y8928D01*
Y8729D01*
X10400Y8769D02*
Y8569D01*
Y8669D01*
X10533D01*
Y8769D01*
Y8569D01*
X9900Y8769D02*
Y8569D01*
Y8669D01*
X10033D01*
Y8769D01*
Y8569D01*
X8200Y5853D02*
Y5653D01*
Y5753D01*
X8333D01*
Y5853D01*
Y5653D01*
X7360Y6271D02*
Y6071D01*
Y6171D01*
X7494D01*
Y6271D01*
Y6071D01*
X6713Y7600D02*
Y7400D01*
Y7500D01*
X6846D01*
Y7600D01*
Y7400D01*
X6713Y8450D02*
Y8250D01*
Y8350D01*
X6846D01*
Y8450D01*
Y8250D01*
X7091Y9464D02*
Y9264D01*
Y9364D01*
X7225D01*
Y9464D01*
Y9264D01*
X7096Y9850D02*
Y9650D01*
Y9750D01*
X7229D01*
Y9850D01*
Y9650D01*
X17100Y6026D02*
Y5826D01*
Y5926D01*
X17233D01*
Y6026D01*
Y5826D01*
X16400Y6035D02*
Y5835D01*
Y5935D01*
X16533D01*
Y6035D01*
Y5835D01*
X17350Y8928D02*
Y8729D01*
Y8828D01*
X17483D01*
Y8928D01*
Y8729D01*
X16650Y8769D02*
Y8569D01*
Y8669D01*
X16783D01*
Y8769D01*
Y8569D01*
X16150Y8769D02*
Y8569D01*
Y8669D01*
X16283D01*
Y8769D01*
Y8569D01*
X14450Y5853D02*
Y5653D01*
Y5753D01*
X14583D01*
Y5853D01*
Y5653D01*
X13610Y6271D02*
Y6071D01*
Y6171D01*
X13744D01*
Y6271D01*
Y6071D01*
X13341Y9464D02*
Y9264D01*
Y9364D01*
X13475D01*
Y9464D01*
Y9264D01*
X13346Y9850D02*
Y9650D01*
Y9750D01*
X13479D01*
Y9850D01*
Y9650D01*
X23350Y6026D02*
Y5826D01*
Y5926D01*
X23483D01*
Y6026D01*
Y5826D01*
X22650Y6035D02*
Y5835D01*
Y5935D01*
X22783D01*
Y6035D01*
Y5835D01*
X23600Y8928D02*
Y8729D01*
Y8828D01*
X23733D01*
Y8928D01*
Y8729D01*
X22900Y8769D02*
Y8569D01*
Y8669D01*
X23033D01*
Y8769D01*
Y8569D01*
X22400Y8769D02*
Y8569D01*
Y8669D01*
X22533D01*
Y8769D01*
Y8569D01*
X20700Y5853D02*
Y5653D01*
Y5753D01*
X20833D01*
Y5853D01*
Y5653D01*
X19860Y6271D02*
Y6071D01*
Y6171D01*
X19994D01*
Y6271D01*
Y6071D01*
X19213Y8450D02*
Y8250D01*
Y8350D01*
X19346D01*
Y8450D01*
Y8250D01*
X19591Y9464D02*
Y9264D01*
Y9364D01*
X19725D01*
Y9464D01*
Y9264D01*
X19596Y9850D02*
Y9650D01*
Y9750D01*
X19729D01*
Y9850D01*
Y9650D01*
X29600Y6026D02*
Y5826D01*
Y5926D01*
X29733D01*
Y6026D01*
Y5826D01*
X28900Y6035D02*
Y5835D01*
Y5935D01*
X29033D01*
Y6035D01*
Y5835D01*
X29850Y8928D02*
Y8729D01*
Y8828D01*
X29983D01*
Y8928D01*
Y8729D01*
X29150Y8769D02*
Y8569D01*
Y8669D01*
X29283D01*
Y8769D01*
Y8569D01*
X28650Y8769D02*
Y8569D01*
Y8669D01*
X28783D01*
Y8769D01*
Y8569D01*
X26950Y5853D02*
Y5653D01*
Y5753D01*
X27083D01*
Y5853D01*
Y5653D01*
X26110Y6271D02*
Y6071D01*
Y6171D01*
X26244D01*
Y6271D01*
Y6071D01*
X25463Y7600D02*
Y7400D01*
Y7500D01*
X25596D01*
Y7600D01*
Y7400D01*
X25463Y8450D02*
Y8250D01*
Y8350D01*
X25596D01*
Y8450D01*
Y8250D01*
X25841Y9464D02*
Y9264D01*
Y9364D01*
X25975D01*
Y9464D01*
Y9264D01*
X25846Y9850D02*
Y9650D01*
Y9750D01*
X25979D01*
Y9850D01*
Y9650D01*
X35850Y6026D02*
Y5826D01*
Y5926D01*
X35983D01*
Y6026D01*
Y5826D01*
X35150Y6035D02*
Y5835D01*
Y5935D01*
X35283D01*
Y6035D01*
Y5835D01*
X35400Y8769D02*
Y8569D01*
Y8669D01*
X35533D01*
Y8769D01*
Y8569D01*
X34900Y8769D02*
Y8569D01*
Y8669D01*
X35033D01*
Y8769D01*
Y8569D01*
X33200Y5853D02*
Y5653D01*
Y5753D01*
X33333D01*
Y5853D01*
Y5653D01*
X32360Y6271D02*
Y6071D01*
Y6171D01*
X32494D01*
Y6271D01*
Y6071D01*
X31713Y7600D02*
Y7400D01*
Y7500D01*
X31846D01*
Y7600D01*
Y7400D01*
X31713Y8450D02*
Y8250D01*
Y8350D01*
X31846D01*
Y8450D01*
Y8250D01*
X32091Y9464D02*
Y9264D01*
Y9364D01*
X32225D01*
Y9464D01*
Y9264D01*
X32096Y9850D02*
Y9650D01*
Y9750D01*
X32229D01*
Y9850D01*
Y9650D01*
X42100Y6026D02*
Y5826D01*
Y5926D01*
X42233D01*
Y6026D01*
Y5826D01*
X41400Y6035D02*
Y5835D01*
Y5935D01*
X41533D01*
Y6035D01*
Y5835D01*
X42350Y8928D02*
Y8729D01*
Y8828D01*
X42483D01*
Y8928D01*
Y8729D01*
X41650Y8769D02*
Y8569D01*
Y8669D01*
X41783D01*
Y8769D01*
Y8569D01*
X41150Y8769D02*
Y8569D01*
Y8669D01*
X41283D01*
Y8769D01*
Y8569D01*
X39450Y5853D02*
Y5653D01*
Y5753D01*
X39583D01*
Y5853D01*
Y5653D01*
X37963Y7600D02*
Y7400D01*
Y7500D01*
X38096D01*
Y7600D01*
Y7400D01*
X37963Y8450D02*
Y8250D01*
Y8350D01*
X38096D01*
Y8450D01*
Y8250D01*
X38341Y9464D02*
Y9264D01*
Y9364D01*
X38475D01*
Y9464D01*
Y9264D01*
X38346Y9850D02*
Y9650D01*
Y9750D01*
X38479D01*
Y9850D01*
Y9650D01*
X48350Y6026D02*
Y5826D01*
Y5926D01*
X48483D01*
Y6026D01*
Y5826D01*
X48600Y8928D02*
Y8729D01*
Y8828D01*
X48733D01*
Y8928D01*
Y8729D01*
X47900Y8769D02*
Y8569D01*
Y8669D01*
X48033D01*
Y8769D01*
Y8569D01*
X47400Y8769D02*
Y8569D01*
Y8669D01*
X47533D01*
Y8769D01*
Y8569D01*
X45700Y5853D02*
Y5653D01*
Y5753D01*
X45833D01*
Y5853D01*
Y5653D01*
X44860Y6271D02*
Y6071D01*
Y6171D01*
X44994D01*
Y6271D01*
Y6071D01*
X44213Y7600D02*
Y7400D01*
Y7500D01*
X44346D01*
Y7600D01*
Y7400D01*
X44213Y8450D02*
Y8250D01*
Y8350D01*
X44346D01*
Y8450D01*
Y8250D01*
X44591Y9464D02*
Y9264D01*
Y9364D01*
X44725D01*
Y9464D01*
Y9264D01*
X44596Y9850D02*
Y9650D01*
Y9750D01*
X44729D01*
Y9850D01*
Y9650D01*
X6566Y9050D02*
Y8850D01*
Y8950D01*
X6699D01*
Y9050D01*
Y8850D01*
X12816Y9050D02*
Y8850D01*
Y8950D01*
X12949D01*
Y9050D01*
Y8850D01*
X19066Y9050D02*
Y8850D01*
Y8950D01*
X19199D01*
Y9050D01*
Y8850D01*
X31566Y9050D02*
Y8850D01*
Y8950D01*
X31699D01*
Y9050D01*
Y8850D01*
X37816Y9050D02*
Y8850D01*
Y8950D01*
X37949D01*
Y9050D01*
Y8850D01*
X50316Y9050D02*
Y8850D01*
Y8950D01*
X50449D01*
Y9050D01*
Y8850D01*
X50846Y9850D02*
Y9650D01*
Y9750D01*
X50979D01*
Y9850D01*
Y9650D01*
X50841Y9464D02*
Y9264D01*
Y9364D01*
X50975D01*
Y9464D01*
Y9264D01*
X50463Y8450D02*
Y8250D01*
Y8350D01*
X50596D01*
Y8450D01*
Y8250D01*
X50463Y7600D02*
Y7400D01*
Y7500D01*
X50596D01*
Y7600D01*
Y7400D01*
X8230Y7050D02*
Y6850D01*
Y6950D01*
X8363D01*
Y7050D01*
Y6850D01*
X14480Y7050D02*
Y6850D01*
Y6950D01*
X14613D01*
Y7050D01*
Y6850D01*
X20730Y7050D02*
Y6850D01*
Y6950D01*
X20863D01*
Y7050D01*
Y6850D01*
X26980Y7050D02*
Y6850D01*
Y6950D01*
X27113D01*
Y7050D01*
Y6850D01*
X33230Y7050D02*
Y6850D01*
Y6950D01*
X33363D01*
Y7050D01*
Y6850D01*
X39480Y7050D02*
Y6850D01*
Y6950D01*
X39613D01*
Y7050D01*
Y6850D01*
X45730Y7050D02*
Y6850D01*
Y6950D01*
X45863D01*
Y7050D01*
Y6850D01*
X51980Y7050D02*
Y6850D01*
Y6950D01*
X52113D01*
Y7050D01*
Y6850D01*
X51950Y5853D02*
Y5653D01*
Y5753D01*
X52083D01*
Y5853D01*
Y5653D01*
X53650Y8769D02*
Y8569D01*
Y8669D01*
X53783D01*
Y8769D01*
Y8569D01*
X54150Y8769D02*
Y8569D01*
Y8669D01*
X54283D01*
Y8769D01*
Y8569D01*
X54850Y8928D02*
Y8729D01*
Y8828D01*
X54983D01*
Y8928D01*
Y8729D01*
X53900Y6035D02*
Y5835D01*
Y5935D01*
X54033D01*
Y6035D01*
Y5835D01*
X54600Y6026D02*
Y5826D01*
Y5926D01*
X54733D01*
Y6026D01*
Y5826D01*
X70050Y67417D02*
Y67217D01*
Y67317D01*
X70183D01*
Y67417D01*
Y67217D01*
X69013Y65825D02*
Y65625D01*
Y65725D01*
X69147D01*
Y65825D01*
Y65625D01*
X68640Y66263D02*
Y66063D01*
Y66163D01*
X68773D01*
Y66263D01*
Y66063D01*
X68642Y64879D02*
Y64679D01*
Y64779D01*
X68776D01*
Y64879D01*
Y64679D01*
X59093Y65825D02*
Y65625D01*
Y65725D01*
X59226D01*
Y65825D01*
Y65625D01*
X58720Y66263D02*
Y66063D01*
Y66163D01*
X58853D01*
Y66263D01*
Y66063D01*
X58722Y64879D02*
Y64679D01*
Y64779D01*
X58855D01*
Y64879D01*
Y64679D01*
X48850Y60591D02*
Y60391D01*
Y60491D01*
X48983D01*
Y60591D01*
Y60391D01*
X48850Y62128D02*
Y61928D01*
Y62028D01*
X48983D01*
Y62128D01*
Y61928D01*
X49700Y60554D02*
Y60354D01*
Y60454D01*
X49833D01*
Y60554D01*
Y60354D01*
X49700Y62128D02*
Y61928D01*
Y62028D01*
X49833D01*
Y62128D01*
Y61928D01*
X50450Y60526D02*
Y60326D01*
Y60426D01*
X50583D01*
Y60526D01*
Y60326D01*
X57007Y60483D02*
Y60283D01*
Y60383D01*
X57141D01*
Y60483D01*
Y60283D01*
X57657Y60483D02*
Y60283D01*
Y60383D01*
X57790D01*
Y60483D01*
Y60283D01*
X59375Y61700D02*
Y61500D01*
Y61600D01*
X59508D01*
Y61700D01*
Y61500D01*
X60025Y61700D02*
Y61500D01*
Y61600D01*
X60158D01*
Y61700D01*
Y61500D01*
X61771Y61698D02*
Y61498D01*
Y61598D01*
X61904D01*
Y61698D01*
Y61498D01*
X63325Y61741D02*
Y61541D01*
Y61641D01*
X63458D01*
Y61741D01*
Y61541D01*
X64034Y61675D02*
Y61475D01*
Y61575D01*
X64168D01*
Y61675D01*
Y61475D01*
X66731Y60451D02*
Y60251D01*
Y60351D01*
X66864D01*
Y60451D01*
Y60251D01*
X75325Y59870D02*
Y59670D01*
Y59770D01*
X75458D01*
Y59870D01*
Y59670D01*
X74940Y60200D02*
Y60000D01*
Y60100D01*
X75073D01*
Y60200D01*
Y60000D01*
X76125Y59870D02*
Y59670D01*
Y59770D01*
X76258D01*
Y59870D01*
Y59670D01*
X74940Y61709D02*
Y61509D01*
Y61609D01*
X75073D01*
Y61709D01*
Y61509D01*
X75700Y60204D02*
Y60004D01*
Y60104D01*
X75833D01*
Y60204D01*
Y60004D01*
X75700Y61703D02*
Y61503D01*
Y61603D01*
X75833D01*
Y61703D01*
Y61503D01*
X76550Y60181D02*
Y59981D01*
Y60081D01*
X76683D01*
Y60181D01*
Y59981D01*
X76550Y61679D02*
Y61479D01*
Y61579D01*
X76683D01*
Y61679D01*
Y61479D01*
X58850Y18512D02*
Y18312D01*
Y18412D01*
X58983D01*
Y18512D01*
Y18312D01*
X97660Y39907D02*
Y39707D01*
Y39807D01*
X97793D01*
Y39907D01*
Y39707D01*
X96882Y39383D02*
Y39183D01*
Y39283D01*
X97015D01*
Y39383D01*
Y39183D01*
X99160Y39907D02*
Y39707D01*
Y39807D01*
X99293D01*
Y39907D01*
Y39707D01*
X99938Y39383D02*
Y39183D01*
Y39283D01*
X100072D01*
Y39383D01*
Y39183D01*
X109605Y33057D02*
Y32858D01*
Y32958D01*
X109738D01*
Y33057D01*
Y32858D01*
X97227Y37200D02*
Y37000D01*
Y37100D01*
X97360D01*
Y37200D01*
Y37000D01*
X97227Y36758D02*
Y36558D01*
Y36658D01*
X97360D01*
Y36758D01*
Y36558D01*
X97227Y37663D02*
Y37463D01*
Y37563D01*
X97360D01*
Y37663D01*
Y37463D01*
X99618Y37200D02*
Y37000D01*
Y37100D01*
X99751D01*
Y37200D01*
Y37000D01*
X99618Y36758D02*
Y36558D01*
Y36658D01*
X99751D01*
Y36758D01*
Y36558D01*
X99618Y37663D02*
Y37463D01*
Y37563D01*
X99751D01*
Y37663D01*
Y37463D01*
X97789Y37663D02*
Y37463D01*
Y37563D01*
X97922D01*
Y37663D01*
Y37463D01*
X99009Y37663D02*
Y37463D01*
Y37563D01*
X99142D01*
Y37663D01*
Y37463D01*
X99009Y36758D02*
Y36558D01*
Y36658D01*
X99142D01*
Y36758D01*
Y36558D01*
X97789Y36758D02*
Y36558D01*
Y36658D01*
X97922D01*
Y36758D01*
Y36558D01*
X98400Y36758D02*
Y36558D01*
Y36658D01*
X98533D01*
Y36758D01*
Y36558D01*
X98400Y37663D02*
Y37463D01*
Y37563D01*
X98533D01*
Y37663D01*
Y37463D01*
X99009Y37200D02*
Y37000D01*
Y37100D01*
X99142D01*
Y37200D01*
Y37000D01*
X97789Y37200D02*
Y37000D01*
Y37100D01*
X97922D01*
Y37200D01*
Y37000D01*
X110364Y33447D02*
Y33247D01*
Y33347D01*
X110497D01*
Y33447D01*
Y33247D01*
X110332Y33121D02*
Y32922D01*
Y33021D01*
X110465D01*
Y33121D01*
Y32922D01*
X111336Y33644D02*
Y33444D01*
Y33544D01*
X111469D01*
Y33644D01*
Y33444D01*
X107518Y32164D02*
Y31964D01*
Y32064D01*
X107651D01*
Y32164D01*
Y31964D01*
X107900Y31835D02*
Y31635D01*
Y31735D01*
X108033D01*
Y31835D01*
Y31635D01*
X106454Y32636D02*
Y32436D01*
Y32536D01*
X106587D01*
Y32636D01*
Y32436D01*
X96320Y37040D02*
Y36840D01*
Y36940D01*
X96453D01*
Y37040D01*
Y36840D01*
X95980Y37040D02*
Y36840D01*
Y36940D01*
X96113D01*
Y37040D01*
Y36840D01*
X96330Y35813D02*
Y35613D01*
Y35713D01*
X96463D01*
Y35813D01*
Y35613D01*
X95980Y35950D02*
Y35750D01*
Y35850D01*
X96113D01*
Y35950D01*
Y35750D01*
X96010Y35270D02*
Y35070D01*
Y35170D01*
X96143D01*
Y35270D01*
Y35070D01*
X95660Y35270D02*
Y35070D01*
Y35170D01*
X95793D01*
Y35270D01*
Y35070D01*
X95790Y34767D02*
Y34567D01*
Y34667D01*
X95923D01*
Y34767D01*
Y34567D01*
X97650Y34900D02*
Y34700D01*
Y34800D01*
X97783D01*
Y34900D01*
Y34700D01*
X100330Y35330D02*
Y35130D01*
Y35230D01*
X100463D01*
Y35330D01*
Y35130D01*
X99850Y35330D02*
Y35130D01*
Y35230D01*
X99983D01*
Y35330D01*
Y35130D01*
X103340Y34620D02*
Y34420D01*
Y34520D01*
X103473D01*
Y34620D01*
Y34420D01*
X102300Y32500D02*
Y32300D01*
Y32400D01*
X102433D01*
Y32500D01*
Y32300D01*
X99753Y32537D02*
Y32337D01*
Y32437D01*
X99886D01*
Y32537D01*
Y32337D01*
X99323Y32537D02*
Y32337D01*
Y32437D01*
X99456D01*
Y32537D01*
Y32337D01*
X98816Y33320D02*
Y33120D01*
Y33220D01*
X98949D01*
Y33320D01*
Y33120D01*
X99160Y33320D02*
Y33120D01*
Y33220D01*
X99293D01*
Y33320D01*
Y33120D01*
X98070Y33990D02*
Y33790D01*
Y33890D01*
X98203D01*
Y33990D01*
Y33790D01*
X98300Y32780D02*
Y32580D01*
Y32680D01*
X98433D01*
Y32780D01*
Y32580D01*
X98110Y32420D02*
Y32220D01*
Y32320D01*
X98243D01*
Y32420D01*
Y32220D01*
X99590Y30700D02*
Y30500D01*
Y30600D01*
X99723D01*
Y30700D01*
Y30500D01*
X99590Y31270D02*
Y31070D01*
Y31170D01*
X99723D01*
Y31270D01*
Y31070D01*
X99590Y30110D02*
Y29910D01*
Y30010D01*
X99723D01*
Y30110D01*
Y29910D01*
X99100Y31003D02*
Y30803D01*
Y30903D01*
X99233D01*
Y31003D01*
Y30803D01*
X99100Y31550D02*
Y31350D01*
Y31450D01*
X99233D01*
Y31550D01*
Y31350D01*
X99100Y30457D02*
Y30257D01*
Y30357D01*
X99233D01*
Y30457D01*
Y30257D01*
X99100Y29910D02*
Y29710D01*
Y29810D01*
X99233D01*
Y29910D01*
Y29710D01*
X97000Y31003D02*
Y30803D01*
Y30903D01*
X97133D01*
Y31003D01*
Y30803D01*
X97000Y31550D02*
Y31350D01*
Y31450D01*
X97133D01*
Y31550D01*
Y31350D01*
X97000Y30457D02*
Y30257D01*
Y30357D01*
X97133D01*
Y30457D01*
Y30257D01*
X97000Y29910D02*
Y29710D01*
Y29810D01*
X97133D01*
Y29910D01*
Y29710D01*
X98400Y31550D02*
Y31350D01*
Y31450D01*
X98533D01*
Y31550D01*
Y31350D01*
X98400Y30457D02*
Y30257D01*
Y30357D01*
X98533D01*
Y30457D01*
Y30257D01*
X98400Y29910D02*
Y29710D01*
Y29810D01*
X98533D01*
Y29910D01*
Y29710D01*
X97700Y29910D02*
Y29710D01*
Y29810D01*
X97833D01*
Y29910D01*
Y29710D01*
X97700Y30457D02*
Y30257D01*
Y30357D01*
X97833D01*
Y30457D01*
Y30257D01*
X97700Y31550D02*
Y31350D01*
Y31450D01*
X97833D01*
Y31550D01*
Y31350D01*
X97700Y31003D02*
Y30803D01*
Y30903D01*
X97833D01*
Y31003D01*
Y30803D01*
X110320Y13342D02*
Y13142D01*
Y13242D01*
X110453D01*
Y13342D01*
Y13142D01*
X110876Y14142D02*
Y13942D01*
Y14042D01*
X111009D01*
Y14142D01*
Y13942D01*
X111336Y13894D02*
Y13694D01*
Y13794D01*
X111469D01*
Y13894D01*
Y13694D01*
X110320Y13697D02*
Y13497D01*
Y13597D01*
X110453D01*
Y13697D01*
Y13497D01*
X109597Y13303D02*
Y13103D01*
Y13203D01*
X109731D01*
Y13303D01*
Y13103D01*
X107900Y12090D02*
Y11890D01*
Y11990D01*
X108033D01*
Y12090D01*
Y11890D01*
X107539Y12414D02*
Y12214D01*
Y12314D01*
X107672D01*
Y12414D01*
Y12214D01*
X106479Y12886D02*
Y12686D01*
Y12786D01*
X106612D01*
Y12886D01*
Y12686D01*
X96290Y18259D02*
Y18059D01*
Y18159D01*
X96423D01*
Y18259D01*
Y18059D01*
X95910Y15530D02*
Y15330D01*
Y15430D01*
X96043D01*
Y15530D01*
Y15330D01*
X95910Y16127D02*
Y15927D01*
Y16027D01*
X96043D01*
Y16127D01*
Y15927D01*
X95910Y16723D02*
Y16523D01*
Y16623D01*
X96043D01*
Y16723D01*
Y16523D01*
X95910Y17320D02*
Y17120D01*
Y17220D01*
X96043D01*
Y17320D01*
Y17120D01*
X96740Y15530D02*
Y15330D01*
Y15430D01*
X96873D01*
Y15530D01*
Y15330D01*
X96740Y16127D02*
Y15927D01*
Y16027D01*
X96873D01*
Y16127D01*
Y15927D01*
X96740Y16723D02*
Y16523D01*
Y16623D01*
X96873D01*
Y16723D01*
Y16523D01*
X96740Y17320D02*
Y17120D01*
Y17220D01*
X96873D01*
Y17320D01*
Y17120D01*
X97570Y17320D02*
Y17120D01*
Y17220D01*
X97703D01*
Y17320D01*
Y17120D01*
X97570Y16723D02*
Y16523D01*
Y16623D01*
X97703D01*
Y16723D01*
Y16523D01*
X97570Y16127D02*
Y15927D01*
Y16027D01*
X97703D01*
Y16127D01*
Y15927D01*
X97570Y15530D02*
Y15330D01*
Y15430D01*
X97703D01*
Y15530D01*
Y15330D01*
X99730Y16127D02*
Y15927D01*
Y16027D01*
X99863D01*
Y16127D01*
Y15927D01*
X99730Y17320D02*
Y17120D01*
Y17220D01*
X99863D01*
Y17320D01*
Y17120D01*
X99730Y16723D02*
Y16523D01*
Y16623D01*
X99863D01*
Y16723D01*
Y16523D01*
X99190Y15530D02*
Y15330D01*
Y15430D01*
X99323D01*
Y15530D01*
Y15330D01*
X99190Y16127D02*
Y15927D01*
Y16027D01*
X99323D01*
Y16127D01*
Y15927D01*
X99190Y16723D02*
Y16523D01*
Y16623D01*
X99323D01*
Y16723D01*
Y16523D01*
X99190Y17320D02*
Y17120D01*
Y17220D01*
X99323D01*
Y17320D01*
Y17120D01*
X98400Y15530D02*
Y15330D01*
Y15430D01*
X98533D01*
Y15530D01*
Y15330D01*
X98400Y16127D02*
Y15927D01*
Y16027D01*
X98533D01*
Y16127D01*
Y15927D01*
X99728Y19341D02*
Y19141D01*
Y19241D01*
X99862D01*
Y19341D01*
Y19141D01*
X111336Y20344D02*
Y20144D01*
Y20244D01*
X111469D01*
Y20344D01*
Y20144D01*
X110876Y20592D02*
Y20392D01*
Y20492D01*
X111009D01*
Y20592D01*
Y20392D01*
X110288Y19813D02*
Y19613D01*
Y19713D01*
X110422D01*
Y19813D01*
Y19613D01*
X110288Y19438D02*
Y19238D01*
Y19338D01*
X110422D01*
Y19438D01*
Y19238D01*
X110320Y20147D02*
Y19947D01*
Y20047D01*
X110453D01*
Y20147D01*
Y19947D01*
X107665Y19073D02*
Y18873D01*
Y18973D01*
X107799D01*
Y19073D01*
Y18873D01*
X107639Y18727D02*
Y18527D01*
Y18627D01*
X107772D01*
Y18727D01*
Y18527D01*
X108000Y18441D02*
Y18241D01*
Y18341D01*
X108133D01*
Y18441D01*
Y18241D01*
X109620Y19749D02*
Y19549D01*
Y19649D01*
X109753D01*
Y19749D01*
Y19549D01*
X97789Y23364D02*
Y23164D01*
Y23264D01*
X97922D01*
Y23364D01*
Y23164D01*
X98400Y23364D02*
Y23164D01*
Y23264D01*
X98533D01*
Y23364D01*
Y23164D01*
X99009Y23364D02*
Y23164D01*
Y23264D01*
X99142D01*
Y23364D01*
Y23164D01*
X99009Y25057D02*
Y24857D01*
Y24957D01*
X99142D01*
Y25057D01*
Y24857D01*
X98400Y25057D02*
Y24857D01*
Y24957D01*
X98533D01*
Y25057D01*
Y24857D01*
X97789Y25057D02*
Y24857D01*
Y24957D01*
X97922D01*
Y25057D01*
Y24857D01*
X97789Y24663D02*
Y24463D01*
Y24563D01*
X97922D01*
Y24663D01*
Y24463D01*
X99009Y24663D02*
Y24463D01*
Y24563D01*
X99142D01*
Y24663D01*
Y24463D01*
X99009Y23758D02*
Y23558D01*
Y23658D01*
X99142D01*
Y23758D01*
Y23558D01*
X97789Y23758D02*
Y23558D01*
Y23658D01*
X97922D01*
Y23758D01*
Y23558D01*
X98400Y23758D02*
Y23558D01*
Y23658D01*
X98533D01*
Y23758D01*
Y23558D01*
X98400Y24663D02*
Y24463D01*
Y24563D01*
X98533D01*
Y24663D01*
Y24463D01*
X99009Y24200D02*
Y24000D01*
Y24100D01*
X99142D01*
Y24200D01*
Y24000D01*
X97789Y24200D02*
Y24000D01*
Y24100D01*
X97922D01*
Y24200D01*
Y24000D01*
X97178Y24184D02*
Y23984D01*
Y24084D01*
X97311D01*
Y24184D01*
Y23984D01*
X97178Y24647D02*
Y24447D01*
Y24547D01*
X97311D01*
Y24647D01*
Y24447D01*
X97178Y25041D02*
Y24841D01*
Y24941D01*
X97311D01*
Y25041D01*
Y24841D01*
X98950Y27705D02*
Y27505D01*
Y27605D01*
X99083D01*
Y27705D01*
Y27505D01*
X99742Y28217D02*
Y28017D01*
Y28117D01*
X99876D01*
Y28217D01*
Y28017D01*
X97450Y27696D02*
Y27496D01*
Y27596D01*
X97583D01*
Y27696D01*
Y27496D01*
X96660Y28209D02*
Y28009D01*
Y28109D01*
X96793D01*
Y28209D01*
Y28009D01*
X99740Y26791D02*
Y26591D01*
Y26691D01*
X99873D01*
Y26791D01*
Y26591D01*
X98950Y27304D02*
Y27104D01*
Y27204D01*
X99083D01*
Y27304D01*
Y27104D01*
X96658Y26791D02*
Y26591D01*
Y26691D01*
X96791D01*
Y26791D01*
Y26591D01*
X97450Y27304D02*
Y27104D01*
Y27204D01*
X97583D01*
Y27304D01*
Y27104D01*
X86789Y26998D02*
Y26798D01*
Y26898D01*
X86922D01*
Y26998D01*
Y26798D01*
X87398Y26998D02*
Y26798D01*
Y26898D01*
X87531D01*
Y26998D01*
Y26798D01*
X86177Y26998D02*
Y26798D01*
Y26898D01*
X86311D01*
Y26998D01*
Y26798D01*
X86177Y27392D02*
Y27192D01*
Y27292D01*
X86311D01*
Y27392D01*
Y27192D01*
X86789Y27392D02*
Y27192D01*
Y27292D01*
X86922D01*
Y27392D01*
Y27192D01*
X87398Y27392D02*
Y27192D01*
Y27292D01*
X87531D01*
Y27392D01*
Y27192D01*
X87393Y27784D02*
Y27584D01*
Y27684D01*
X87526D01*
Y27784D01*
Y27584D01*
X86783Y27784D02*
Y27584D01*
Y27684D01*
X86917D01*
Y27784D01*
Y27584D01*
X86172Y27784D02*
Y27584D01*
Y27684D01*
X86305D01*
Y27784D01*
Y27584D01*
X84952Y27784D02*
Y27584D01*
Y27684D01*
X85085D01*
Y27784D01*
Y27584D01*
X85563Y27784D02*
Y27584D01*
Y27684D01*
X85696D01*
Y27784D01*
Y27584D01*
X85568Y27392D02*
Y27192D01*
Y27292D01*
X85702D01*
Y27392D01*
Y27192D01*
X84957Y27392D02*
Y27192D01*
Y27292D01*
X85090D01*
Y27392D01*
Y27192D01*
X84957Y26998D02*
Y26798D01*
Y26898D01*
X85090D01*
Y26998D01*
Y26798D01*
X85568Y26998D02*
Y26798D01*
Y26898D01*
X85702D01*
Y26998D01*
Y26798D01*
X83731Y27784D02*
Y27584D01*
Y27684D01*
X83864D01*
Y27784D01*
Y27584D01*
X84343Y27784D02*
Y27584D01*
Y27684D01*
X84476D01*
Y27784D01*
Y27584D01*
X84348Y27392D02*
Y27192D01*
Y27292D01*
X84481D01*
Y27392D01*
Y27192D01*
X83736Y27392D02*
Y27192D01*
Y27292D01*
X83870D01*
Y27392D01*
Y27192D01*
X83736Y26998D02*
Y26798D01*
Y26898D01*
X83870D01*
Y26998D01*
Y26798D01*
X84348Y26998D02*
Y26798D01*
Y26898D01*
X84481D01*
Y26998D01*
Y26798D01*
X85418Y28910D02*
Y28710D01*
Y28810D01*
X85551D01*
Y28910D01*
Y28710D01*
X85600Y30675D02*
Y30475D01*
Y30575D01*
X85733D01*
Y30675D01*
Y30475D01*
X86350Y30675D02*
Y30475D01*
Y30575D01*
X86483D01*
Y30675D01*
Y30475D01*
X84850Y30675D02*
Y30475D01*
Y30575D01*
X84983D01*
Y30675D01*
Y30475D01*
X84000Y30675D02*
Y30475D01*
Y30575D01*
X84133D01*
Y30675D01*
Y30475D01*
X90600Y30772D02*
Y30572D01*
Y30672D01*
X90733D01*
Y30772D01*
Y30572D01*
X90923Y30330D02*
Y30130D01*
Y30230D01*
X91057D01*
Y30330D01*
Y30130D01*
X71319Y16339D02*
Y16139D01*
Y16239D01*
X71452D01*
Y16339D01*
Y16139D01*
X68527Y15261D02*
Y15061D01*
Y15161D01*
X68661D01*
Y15261D01*
Y15061D01*
X68130Y15262D02*
Y15062D01*
Y15162D01*
X68263D01*
Y15262D01*
Y15062D01*
X68527Y15723D02*
Y15523D01*
Y15623D01*
X68661D01*
Y15723D01*
Y15523D01*
X68130Y15723D02*
Y15523D01*
Y15623D01*
X68263D01*
Y15723D01*
Y15523D01*
X58469Y19898D02*
Y19698D01*
Y19798D01*
X58603D01*
Y19898D01*
Y19698D01*
X79424Y70139D02*
Y69939D01*
Y70039D01*
X79557D01*
Y70139D01*
Y69939D01*
X78667Y69136D02*
Y68936D01*
Y69036D01*
X78800D01*
Y69136D01*
Y68936D01*
X79050Y69226D02*
Y69026D01*
Y69126D01*
X79183D01*
Y69226D01*
Y69026D01*
X79400Y71204D02*
Y71004D01*
Y71104D01*
X79533D01*
Y71204D01*
Y71004D01*
X79050Y71248D02*
Y71048D01*
Y71148D01*
X79184D01*
Y71248D01*
Y71048D01*
X78676Y70271D02*
Y70071D01*
Y70171D01*
X78810D01*
Y70271D01*
Y70071D01*
X89954Y65574D02*
Y65374D01*
Y65474D01*
X90087D01*
Y65574D01*
Y65374D01*
X89876Y64826D02*
Y64626D01*
Y64726D01*
X90009D01*
Y64826D01*
Y64626D01*
X89061Y65200D02*
Y65000D01*
Y65100D01*
X89195D01*
Y65200D01*
Y65000D01*
X88003Y64826D02*
Y64626D01*
Y64726D01*
X88136D01*
Y64826D01*
Y64626D01*
X88003Y65574D02*
Y65374D01*
Y65474D01*
X88136D01*
Y65574D01*
Y65374D01*
X110175Y58289D02*
X110108D01*
X110142D01*
Y58122D01*
X110108Y58089D01*
X110075D01*
X110042Y58122D01*
X49656Y66246D02*
Y66046D01*
Y66146D01*
X49790D01*
Y66246D01*
Y66046D01*
X49318Y60007D02*
Y59807D01*
Y59907D01*
X49451D01*
Y60007D01*
Y59807D01*
X8404Y46756D02*
Y46556D01*
Y46656D01*
X8537D01*
Y46756D01*
Y46556D01*
X9465Y47292D02*
Y47092D01*
Y47192D01*
X9599D01*
Y47292D01*
Y47092D01*
X9463Y47631D02*
Y47432D01*
Y47531D01*
X9597D01*
Y47631D01*
Y47432D01*
X12225Y48071D02*
Y47871D01*
Y47971D01*
X12358D01*
Y48071D01*
Y47871D01*
X12610Y48071D02*
Y47871D01*
Y47971D01*
X12743D01*
Y48071D01*
Y47871D01*
X12225Y47627D02*
Y47427D01*
Y47527D01*
X12358D01*
Y47627D01*
Y47427D01*
X12610Y47627D02*
Y47427D01*
Y47527D01*
X12743D01*
Y47627D01*
Y47427D01*
X17950Y51902D02*
Y51702D01*
Y51802D01*
X18083D01*
Y51902D01*
Y51702D01*
X17950Y51434D02*
Y51234D01*
Y51334D01*
X18083D01*
Y51434D01*
Y51234D01*
X17950Y52837D02*
Y52637D01*
Y52737D01*
X18083D01*
Y52837D01*
Y52637D01*
X17950Y52369D02*
Y52169D01*
Y52269D01*
X18083D01*
Y52369D01*
Y52169D01*
X7716Y54215D02*
Y54015D01*
Y54115D01*
X7849D01*
Y54215D01*
Y54015D01*
X8696Y54215D02*
Y54015D01*
Y54115D01*
X8829D01*
Y54215D01*
Y54015D01*
X9546Y54215D02*
Y54015D01*
Y54115D01*
X9679D01*
Y54215D01*
Y54015D01*
X10484Y54215D02*
Y54015D01*
Y54115D01*
X10618D01*
Y54215D01*
Y54015D01*
X11524Y54215D02*
Y54015D01*
Y54115D01*
X11658D01*
Y54215D01*
Y54015D01*
X12393Y54215D02*
Y54015D01*
Y54115D01*
X12527D01*
Y54215D01*
Y54015D01*
X13338Y54215D02*
Y54015D01*
Y54115D01*
X13472D01*
Y54215D01*
Y54015D01*
X14182Y54215D02*
Y54015D01*
Y54115D01*
X14315D01*
Y54215D01*
Y54015D01*
X15089Y54215D02*
Y54015D01*
Y54115D01*
X15222D01*
Y54215D01*
Y54015D01*
X15913Y54215D02*
Y54015D01*
Y54115D01*
X16046D01*
Y54215D01*
Y54015D01*
X16782Y54215D02*
Y54015D01*
Y54115D01*
X16915D01*
Y54215D01*
Y54015D01*
X17727Y54215D02*
Y54015D01*
Y54115D01*
X17860D01*
Y54215D01*
Y54015D01*
X18602Y54215D02*
Y54015D01*
Y54115D01*
X18735D01*
Y54215D01*
Y54015D01*
X20758Y54215D02*
Y54015D01*
Y54115D01*
X20892D01*
Y54215D01*
Y54015D01*
X14099Y53022D02*
Y52822D01*
Y52922D01*
X14233D01*
Y53022D01*
Y52822D01*
X15440Y53541D02*
Y53341D01*
Y53441D01*
X15573D01*
Y53541D01*
Y53341D01*
X13944Y52050D02*
Y51850D01*
Y51950D01*
X14078D01*
Y52050D01*
Y51850D01*
X14262Y52428D02*
Y52228D01*
Y52328D01*
X14395D01*
Y52428D01*
Y52228D01*
X14894Y52386D02*
Y52187D01*
Y52287D01*
X15027D01*
Y52386D01*
Y52187D01*
X14826Y51365D02*
Y51165D01*
Y51265D01*
X14959D01*
Y51365D01*
Y51165D01*
X15400Y50892D02*
Y50692D01*
Y50792D01*
X15533D01*
Y50892D01*
Y50692D01*
X25906Y52243D02*
Y52043D01*
Y52143D01*
X26039D01*
Y52243D01*
Y52043D01*
X25235Y52555D02*
Y52355D01*
Y52455D01*
X25368D01*
Y52555D01*
Y52355D01*
X25565Y52555D02*
Y52355D01*
Y52455D01*
X25699D01*
Y52555D01*
Y52355D01*
X25906Y52555D02*
Y52355D01*
Y52455D01*
X26039D01*
Y52555D01*
Y52355D01*
X27544Y51453D02*
Y51253D01*
Y51353D01*
X27677D01*
Y51453D01*
Y51253D01*
X27900Y50845D02*
Y50645D01*
Y50745D01*
X28034D01*
Y50845D01*
Y50645D01*
X25949Y50845D02*
Y50645D01*
Y50745D01*
X26082D01*
Y50845D01*
Y50645D01*
X26396Y51453D02*
Y51253D01*
Y51353D01*
X26529D01*
Y51453D01*
Y51253D01*
X26776Y51453D02*
Y51253D01*
Y51353D01*
X26909D01*
Y51453D01*
Y51253D01*
X27156Y51453D02*
Y51253D01*
Y51353D01*
X27289D01*
Y51453D01*
Y51253D01*
X28197Y47509D02*
Y47309D01*
Y47409D01*
X28331D01*
Y47509D01*
Y47309D01*
X27290Y46070D02*
Y45870D01*
Y45970D01*
X27423D01*
Y46070D01*
Y45870D01*
X25397Y46460D02*
Y46260D01*
Y46360D01*
X25530D01*
Y46460D01*
Y46260D01*
X26722Y46070D02*
Y45870D01*
Y45970D01*
X26855D01*
Y46070D01*
Y45870D01*
X26171Y46070D02*
Y45870D01*
Y45970D01*
X26305D01*
Y46070D01*
Y45870D01*
X25650Y46070D02*
Y45870D01*
Y45970D01*
X25783D01*
Y46070D01*
Y45870D01*
X22550Y51950D02*
Y51750D01*
Y51850D01*
X22683D01*
Y51950D01*
Y51750D01*
X21526Y48860D02*
Y48660D01*
Y48760D01*
X21659D01*
Y48860D01*
Y48660D01*
X21526Y49175D02*
Y48975D01*
Y49075D01*
X21659D01*
Y49175D01*
Y48975D01*
X21876Y49171D02*
Y48971D01*
Y49071D01*
X22009D01*
Y49171D01*
Y48971D01*
X21179Y49175D02*
Y48975D01*
Y49075D01*
X21313D01*
Y49175D01*
Y48975D01*
X20692Y49550D02*
Y49350D01*
Y49450D01*
X20825D01*
Y49550D01*
Y49350D01*
X21200Y51610D02*
Y51410D01*
Y51510D01*
X21333D01*
Y51610D01*
Y51410D01*
X21266Y46740D02*
Y46540D01*
Y46640D01*
X21399D01*
Y46740D01*
Y46540D01*
X21650Y50747D02*
Y50547D01*
Y50647D01*
X21783D01*
Y50747D01*
Y50547D01*
X21067Y48510D02*
Y48310D01*
Y48410D01*
X21201D01*
Y48510D01*
Y48310D01*
X20273Y51205D02*
Y51005D01*
Y51105D01*
X20406D01*
Y51205D01*
Y51005D01*
X19790Y49875D02*
Y49675D01*
Y49775D01*
X19923D01*
Y49875D01*
Y49675D01*
X19449Y49875D02*
Y49675D01*
Y49775D01*
X19583D01*
Y49875D01*
Y49675D01*
X19119Y49563D02*
Y49363D01*
Y49463D01*
X19252D01*
Y49563D01*
Y49363D01*
X19449Y49563D02*
Y49363D01*
Y49463D01*
X19583D01*
Y49563D01*
Y49363D01*
X19790Y49563D02*
Y49363D01*
Y49463D01*
X19923D01*
Y49563D01*
Y49363D01*
X19119Y49235D02*
Y49035D01*
Y49135D01*
X19252D01*
Y49235D01*
Y49035D01*
X19449Y49235D02*
Y49035D01*
Y49135D01*
X19583D01*
Y49235D01*
Y49035D01*
X19790Y49235D02*
Y49035D01*
Y49135D01*
X19923D01*
Y49235D01*
Y49035D01*
X19119Y49875D02*
Y49675D01*
Y49775D01*
X19252D01*
Y49875D01*
Y49675D01*
X19918Y51877D02*
Y51677D01*
Y51777D01*
X20051D01*
Y51877D01*
Y51677D01*
X19433Y50972D02*
Y50772D01*
Y50872D01*
X19566D01*
Y50972D01*
Y50772D01*
X19425Y50674D02*
Y50474D01*
Y50574D01*
X19558D01*
Y50674D01*
Y50474D01*
X18845Y50299D02*
Y50099D01*
Y50199D01*
X18978D01*
Y50299D01*
Y50099D01*
X20329Y45928D02*
Y45728D01*
Y45828D01*
X20462D01*
Y45928D01*
Y45728D01*
X19860Y45928D02*
Y45728D01*
Y45828D01*
X19994D01*
Y45928D01*
Y45728D01*
X18869Y47445D02*
Y47245D01*
Y47345D01*
X19002D01*
Y47445D01*
Y47245D01*
X20316Y46839D02*
Y46639D01*
Y46739D01*
X20450D01*
Y46839D01*
Y46639D01*
X19408Y48444D02*
Y48244D01*
Y48344D01*
X19541D01*
Y48444D01*
Y48244D01*
X18845Y48801D02*
Y48601D01*
Y48701D01*
X18978D01*
Y48801D01*
Y48601D01*
X18274Y49747D02*
Y49547D01*
Y49647D01*
X18407D01*
Y49747D01*
Y49547D01*
X43098Y68800D02*
Y68600D01*
Y68700D01*
X43231D01*
Y68800D01*
Y68600D01*
X43097Y69350D02*
Y69150D01*
Y69250D01*
X43231D01*
Y69350D01*
Y69150D01*
X45694Y68800D02*
Y68600D01*
Y68700D01*
X45827D01*
Y68800D01*
Y68600D01*
X45686Y69350D02*
Y69150D01*
Y69250D01*
X45819D01*
Y69350D01*
Y69150D01*
X54589Y60478D02*
Y60278D01*
Y60378D01*
X54722D01*
Y60478D01*
Y60278D01*
X54359Y60138D02*
Y59938D01*
Y60038D01*
X54492D01*
Y60138D01*
Y59938D01*
X54114Y59823D02*
Y59623D01*
Y59723D01*
X54247D01*
Y59823D01*
Y59623D01*
X53880Y60478D02*
Y60278D01*
Y60378D01*
X54013D01*
Y60478D01*
Y60278D01*
X53641Y60138D02*
Y59938D01*
Y60038D01*
X53775D01*
Y60138D01*
Y59938D01*
X53405Y59823D02*
Y59623D01*
Y59723D01*
X53538D01*
Y59823D01*
Y59623D01*
X53171Y60478D02*
Y60278D01*
Y60378D01*
X53304D01*
Y60478D01*
Y60278D01*
X52933Y60138D02*
Y59938D01*
Y60038D01*
X53066D01*
Y60138D01*
Y59938D01*
X52697Y59823D02*
Y59623D01*
Y59723D01*
X52830D01*
Y59823D01*
Y59623D01*
X52463Y60481D02*
Y60282D01*
Y60381D01*
X52596D01*
Y60481D01*
Y60282D01*
X52224Y60138D02*
Y59938D01*
Y60038D01*
X52358D01*
Y60138D01*
Y59938D01*
X51754Y61777D02*
Y61578D01*
Y61677D01*
X51888D01*
Y61777D01*
Y61578D01*
X48186Y60531D02*
Y60331D01*
Y60431D01*
X48319D01*
Y60531D01*
Y60331D01*
X48186Y60007D02*
Y59807D01*
Y59907D01*
X48319D01*
Y60007D01*
Y59807D01*
X50091Y60007D02*
Y59807D01*
Y59907D01*
X50225D01*
Y60007D01*
Y59807D01*
X54470Y64933D02*
Y64733D01*
Y64833D01*
X54604D01*
Y64933D01*
Y64733D01*
X53760Y64934D02*
Y64734D01*
Y64834D01*
X53893D01*
Y64934D01*
Y64734D01*
X52345Y64933D02*
Y64733D01*
Y64833D01*
X52478D01*
Y64933D01*
Y64733D01*
X49022Y66246D02*
Y66046D01*
Y66146D01*
X49155D01*
Y66246D01*
Y66046D01*
X50399Y66246D02*
Y66046D01*
Y66146D01*
X50533D01*
Y66246D01*
Y66046D01*
X23709Y25000D02*
Y24800D01*
Y24900D01*
X23842D01*
Y25000D01*
Y24800D01*
X25015Y24450D02*
Y24250D01*
Y24350D01*
X25148D01*
Y24450D01*
Y24250D01*
X29114Y24326D02*
Y24126D01*
Y24226D01*
X29247D01*
Y24326D01*
Y24126D01*
X29512Y24340D02*
Y24140D01*
Y24240D01*
X29645D01*
Y24340D01*
Y24140D01*
X27543Y23200D02*
Y23000D01*
Y23100D01*
X27676D01*
Y23200D01*
Y23000D01*
X27543Y23600D02*
Y23400D01*
Y23500D01*
X27676D01*
Y23600D01*
Y23400D01*
X27967Y24113D02*
Y23913D01*
Y24013D01*
X28100D01*
Y24113D01*
Y23913D01*
X29585Y23228D02*
Y23028D01*
Y23128D01*
X29718D01*
Y23228D01*
Y23028D01*
X29494Y22887D02*
Y22687D01*
Y22787D01*
X29627D01*
Y22887D01*
Y22687D01*
X28511Y22800D02*
Y22600D01*
Y22700D01*
X28645D01*
Y22800D01*
Y22600D01*
X28512Y23600D02*
Y23400D01*
Y23500D01*
X28645D01*
Y23600D01*
Y23400D01*
X28512Y23200D02*
Y23000D01*
Y23100D01*
X28645D01*
Y23200D01*
Y23000D01*
X21950Y39110D02*
Y38910D01*
Y39010D01*
X22083D01*
Y39110D01*
Y38910D01*
X23114Y38712D02*
Y38512D01*
Y38612D01*
X23247D01*
Y38712D01*
Y38512D01*
X23817Y38299D02*
Y38099D01*
Y38199D01*
X23951D01*
Y38299D01*
Y38099D01*
X22650Y39110D02*
Y38910D01*
Y39010D01*
X22783D01*
Y39110D01*
Y38910D01*
X21268Y37400D02*
Y37200D01*
Y37300D01*
X21401D01*
Y37400D01*
Y37200D01*
X21268Y37850D02*
Y37650D01*
Y37750D01*
X21401D01*
Y37850D01*
Y37650D01*
X21268Y38300D02*
Y38100D01*
Y38200D01*
X21401D01*
Y38300D01*
Y38100D01*
X21268Y38750D02*
Y38550D01*
Y38650D01*
X21401D01*
Y38750D01*
Y38550D01*
X20793Y38525D02*
Y38325D01*
Y38425D01*
X20926D01*
Y38525D01*
Y38325D01*
X26050Y40382D02*
Y40182D01*
Y40282D01*
X26183D01*
Y40382D01*
Y40182D01*
X25600Y40382D02*
Y40182D01*
Y40282D01*
X25733D01*
Y40382D01*
Y40182D01*
X25150Y40382D02*
Y40182D01*
Y40282D01*
X25283D01*
Y40382D01*
Y40182D01*
X24700Y40382D02*
Y40182D01*
Y40282D01*
X24833D01*
Y40382D01*
Y40182D01*
X24250Y40382D02*
Y40182D01*
Y40282D01*
X24383D01*
Y40382D01*
Y40182D01*
X23800Y40382D02*
Y40182D01*
Y40282D01*
X23933D01*
Y40382D01*
Y40182D01*
X24384Y37803D02*
Y37603D01*
Y37703D01*
X24517D01*
Y37803D01*
Y37603D01*
X24810Y37803D02*
Y37603D01*
Y37703D01*
X24944D01*
Y37803D01*
Y37603D01*
X25245Y37372D02*
Y37172D01*
Y37272D01*
X25379D01*
Y37372D01*
Y37172D01*
X25245Y37803D02*
Y37603D01*
Y37703D01*
X25379D01*
Y37803D01*
Y37603D01*
X25245Y36956D02*
Y36756D01*
Y36856D01*
X25379D01*
Y36956D01*
Y36756D01*
X24650Y35650D02*
Y35450D01*
Y35550D01*
X24783D01*
Y35650D01*
Y35450D01*
X24307Y38592D02*
Y38392D01*
Y38492D01*
X24440D01*
Y38592D01*
Y38392D01*
X27810Y38275D02*
Y38075D01*
Y38175D01*
X27943D01*
Y38275D01*
Y38075D01*
X27531Y37600D02*
Y37400D01*
Y37500D01*
X27664D01*
Y37600D01*
Y37400D01*
X27531Y37150D02*
Y36950D01*
Y37050D01*
X27664D01*
Y37150D01*
Y36950D01*
X25723Y36049D02*
Y35849D01*
Y35949D01*
X25856D01*
Y36049D01*
Y35849D01*
X26700Y36095D02*
Y35895D01*
Y35995D01*
X26833D01*
Y36095D01*
Y35895D01*
X27250Y36095D02*
Y35895D01*
Y35995D01*
X27383D01*
Y36095D01*
Y35895D01*
X27850Y36095D02*
Y35895D01*
Y35995D01*
X27983D01*
Y36095D01*
Y35895D01*
X25423Y32295D02*
Y32095D01*
Y32195D01*
X25557D01*
Y32295D01*
Y32095D01*
X25077Y32295D02*
Y32095D01*
Y32195D01*
X25210D01*
Y32295D01*
Y32095D01*
X26179Y33900D02*
Y33700D01*
Y33800D01*
X26312D01*
Y33900D01*
Y33700D01*
X24313Y33900D02*
Y33700D01*
Y33800D01*
X24446D01*
Y33900D01*
Y33700D01*
X22400Y34320D02*
Y34120D01*
Y34220D01*
X22533D01*
Y34320D01*
Y34120D01*
X22950Y34477D02*
Y34277D01*
Y34377D01*
X23083D01*
Y34477D01*
Y34277D01*
X23450Y34924D02*
Y34724D01*
Y34824D01*
X23583D01*
Y34924D01*
Y34724D01*
X24810Y37372D02*
Y37172D01*
Y37272D01*
X24944D01*
Y37372D01*
Y37172D01*
X24384Y37372D02*
Y37172D01*
Y37272D01*
X24517D01*
Y37372D01*
Y37172D01*
X24810Y36956D02*
Y36756D01*
Y36856D01*
X24944D01*
Y36956D01*
Y36756D01*
X24384Y36956D02*
Y36756D01*
Y36856D01*
X24517D01*
Y36956D01*
Y36756D01*
X87448Y59828D02*
Y59628D01*
Y59728D01*
X87582D01*
Y59828D01*
Y59628D01*
X88173Y59890D02*
Y59690D01*
Y59790D01*
X88307D01*
Y59890D01*
Y59690D01*
X89600Y62044D02*
Y61844D01*
Y61944D01*
X89733D01*
Y62044D01*
Y61844D01*
X89032Y62474D02*
Y62274D01*
Y62374D01*
X89166D01*
Y62474D01*
Y62274D01*
X89995Y61327D02*
Y61127D01*
Y61227D01*
X90128D01*
Y61327D01*
Y61127D01*
X96111Y65730D02*
Y65530D01*
Y65630D01*
X96244D01*
Y65730D01*
Y65530D01*
X95200Y68240D02*
Y68040D01*
Y68140D01*
X95333D01*
Y68240D01*
Y68040D01*
X91819Y65876D02*
Y65676D01*
Y65776D01*
X91953D01*
Y65876D01*
Y65676D01*
X92279Y65876D02*
Y65676D01*
Y65776D01*
X92413D01*
Y65876D01*
Y65676D01*
X93573Y66500D02*
Y66300D01*
Y66400D01*
X93706D01*
Y66500D01*
Y66300D01*
X94010Y68036D02*
Y67836D01*
Y67936D01*
X94143D01*
Y68036D01*
Y67836D01*
X94302Y69926D02*
Y69726D01*
Y69826D01*
X94435D01*
Y69926D01*
Y69726D01*
X93900Y70285D02*
Y70085D01*
Y70185D01*
X94033D01*
Y70285D01*
Y70085D01*
X91011Y68976D02*
Y68776D01*
Y68876D01*
X91144D01*
Y68976D01*
Y68776D01*
X91471Y68976D02*
Y68776D01*
Y68876D01*
X91604D01*
Y68976D01*
Y68776D01*
X89825Y67922D02*
Y67722D01*
Y67822D01*
X89958D01*
Y67922D01*
Y67722D01*
X89392Y67922D02*
Y67722D01*
Y67822D01*
X89525D01*
Y67922D01*
Y67722D01*
X88526Y67922D02*
Y67722D01*
Y67822D01*
X88659D01*
Y67922D01*
Y67722D01*
X87226Y67922D02*
Y67722D01*
Y67822D01*
X87360D01*
Y67922D01*
Y67722D01*
X90258Y67922D02*
Y67722D01*
Y67822D01*
X90391D01*
Y67922D01*
Y67722D01*
X88093Y67922D02*
Y67722D01*
Y67822D01*
X88226D01*
Y67922D01*
Y67722D01*
X87659Y67922D02*
Y67722D01*
Y67822D01*
X87793D01*
Y67922D01*
Y67722D01*
X91145Y67350D02*
Y67150D01*
Y67250D01*
X91278D01*
Y67350D01*
Y67150D01*
X91707Y66717D02*
Y66517D01*
Y66617D01*
X91840D01*
Y66717D01*
Y66517D01*
X92236Y67350D02*
Y67150D01*
Y67250D01*
X92369D01*
Y67350D01*
Y67150D01*
X91145Y70617D02*
Y70417D01*
Y70517D01*
X91278D01*
Y70617D01*
Y70417D01*
X91707Y69985D02*
Y69785D01*
Y69885D01*
X91840D01*
Y69985D01*
Y69785D01*
X92236Y70617D02*
Y70417D01*
Y70517D01*
X92369D01*
Y70617D01*
Y70417D01*
X85732Y67350D02*
Y67150D01*
Y67250D01*
X85865D01*
Y67350D01*
Y67150D01*
X86293Y66717D02*
Y66517D01*
Y66617D01*
X86427D01*
Y66717D01*
Y66517D01*
X86823Y67350D02*
Y67150D01*
Y67250D01*
X86956D01*
Y67350D01*
Y67150D01*
X86823Y70617D02*
Y70417D01*
Y70517D01*
X86956D01*
Y70617D01*
Y70417D01*
X86293Y69985D02*
Y69785D01*
Y69885D01*
X86427D01*
Y69985D01*
Y69785D01*
X85732Y70617D02*
Y70417D01*
Y70517D01*
X85865D01*
Y70617D01*
Y70417D01*
X72658Y64933D02*
Y64733D01*
Y64833D01*
X72791D01*
Y64933D01*
Y64733D01*
X71713Y64933D02*
Y64733D01*
Y64833D01*
X71847D01*
Y64933D01*
Y64733D01*
X74309Y63775D02*
Y63575D01*
Y63675D01*
X74443D01*
Y63775D01*
Y63575D01*
X73839Y64908D02*
Y64709D01*
Y64808D01*
X73972D01*
Y64908D01*
Y64709D01*
X74872Y65961D02*
Y65761D01*
Y65861D01*
X75005D01*
Y65961D01*
Y65761D01*
X76145Y65961D02*
Y65761D01*
Y65861D01*
X76278D01*
Y65961D01*
Y65761D01*
X75548Y65961D02*
Y65761D01*
Y65861D01*
X75681D01*
Y65961D01*
Y65761D01*
X74545Y65033D02*
Y64833D01*
Y64933D01*
X74679D01*
Y65033D01*
Y64833D01*
X70057Y65304D02*
Y65104D01*
Y65204D01*
X70191D01*
Y65304D01*
Y65104D01*
X77975Y71250D02*
Y71050D01*
Y71150D01*
X78108D01*
Y71250D01*
Y71050D01*
X77975Y70650D02*
Y70450D01*
Y70550D01*
X78108D01*
Y70650D01*
Y70450D01*
X77975Y70050D02*
Y69850D01*
Y69950D01*
X78108D01*
Y70050D01*
Y69850D01*
X77708Y70950D02*
Y70750D01*
Y70850D01*
X77842D01*
Y70950D01*
Y70750D01*
X77746Y71550D02*
Y71350D01*
Y71450D01*
X77879D01*
Y71550D01*
Y71350D01*
X79850Y73094D02*
Y72894D01*
Y72994D01*
X79983D01*
Y73094D01*
Y72894D01*
X77405Y73094D02*
Y72894D01*
Y72994D01*
X77539D01*
Y73094D01*
Y72894D01*
X80233Y69050D02*
Y68850D01*
Y68950D01*
X80366D01*
Y69050D01*
Y68850D01*
X80233Y69838D02*
Y69638D01*
Y69738D01*
X80366D01*
Y69838D01*
Y69638D01*
X80233Y70625D02*
Y70425D01*
Y70525D01*
X80366D01*
Y70625D01*
Y70425D01*
X79760Y67715D02*
Y67515D01*
Y67615D01*
X79894D01*
Y67715D01*
Y67515D01*
X83444Y71413D02*
Y71213D01*
Y71313D01*
X83578D01*
Y71413D01*
Y71213D01*
X83444Y70625D02*
Y70425D01*
Y70525D01*
X83578D01*
Y70625D01*
Y70425D01*
X83444Y69838D02*
Y69638D01*
Y69738D01*
X83578D01*
Y69838D01*
Y69638D01*
X83444Y69050D02*
Y68850D01*
Y68950D01*
X83578D01*
Y69050D01*
Y68850D01*
X83444Y68263D02*
Y68063D01*
Y68163D01*
X83578D01*
Y68263D01*
Y68063D01*
X83444Y67476D02*
Y67276D01*
Y67376D01*
X83578D01*
Y67476D01*
Y67276D01*
X78700Y64141D02*
Y63941D01*
Y64041D01*
X78833D01*
Y64141D01*
Y63941D01*
X94378Y47547D02*
Y47347D01*
Y47447D01*
X94511D01*
Y47547D01*
Y47347D01*
X97082Y47547D02*
Y47347D01*
Y47447D01*
X97216D01*
Y47547D01*
Y47347D01*
X99410Y51849D02*
Y51649D01*
Y51749D01*
X99543D01*
Y51849D01*
Y51649D01*
X95794Y52469D02*
Y52270D01*
Y52369D01*
X95927D01*
Y52469D01*
Y52270D01*
X96072Y52795D02*
Y52595D01*
Y52695D01*
X96206D01*
Y52795D01*
Y52595D01*
X95778Y52105D02*
Y51905D01*
Y52005D01*
X95911D01*
Y52105D01*
Y51905D01*
X96779Y51846D02*
Y51646D01*
Y51746D01*
X96912D01*
Y51846D01*
Y51646D01*
X97300Y51850D02*
Y51650D01*
Y51750D01*
X97433D01*
Y51850D01*
Y51650D01*
X97564Y51450D02*
Y51250D01*
Y51350D01*
X97697D01*
Y51450D01*
Y51250D01*
X97294Y51050D02*
Y50850D01*
Y50950D01*
X97427D01*
Y51050D01*
Y50850D01*
X97601Y50650D02*
Y50450D01*
Y50550D01*
X97734D01*
Y50650D01*
Y50450D01*
X97294Y50250D02*
Y50050D01*
Y50150D01*
X97427D01*
Y50250D01*
Y50050D01*
X96462Y49310D02*
Y49110D01*
Y49210D01*
X96595D01*
Y49310D01*
Y49110D01*
X96100Y49560D02*
Y49360D01*
Y49460D01*
X96233D01*
Y49560D01*
Y49360D01*
X88240Y50040D02*
Y49840D01*
Y49940D01*
X88373D01*
Y50040D01*
Y49840D01*
X95817Y49313D02*
Y49113D01*
Y49213D01*
X95950D01*
Y49313D01*
Y49113D01*
X95590Y50040D02*
Y49840D01*
Y49940D01*
X95723D01*
Y50040D01*
Y49840D01*
X95300Y49440D02*
Y49240D01*
Y49340D01*
X95433D01*
Y49440D01*
Y49240D01*
X94900Y49090D02*
Y48890D01*
Y48990D01*
X95033D01*
Y49090D01*
Y48890D01*
X92025Y52150D02*
Y51950D01*
Y52050D01*
X92158D01*
Y52150D01*
Y51950D01*
X92025Y49739D02*
Y49540D01*
Y49640D01*
X92158D01*
Y49739D01*
Y49540D01*
X93876Y50950D02*
Y50750D01*
Y50850D01*
X94009D01*
Y50950D01*
Y50750D01*
X94154Y50661D02*
Y50461D01*
Y50561D01*
X94287D01*
Y50661D01*
Y50461D01*
X93754Y50393D02*
Y50193D01*
Y50293D01*
X93888D01*
Y50393D01*
Y50193D01*
X88430Y52523D02*
Y52323D01*
Y52423D01*
X88564D01*
Y52523D01*
Y52323D01*
X88654Y52764D02*
Y52564D01*
Y52664D01*
X88788D01*
Y52764D01*
Y52564D01*
X88445Y52132D02*
Y51932D01*
Y52032D01*
X88579D01*
Y52132D01*
Y51932D01*
X87733Y52457D02*
Y52258D01*
Y52358D01*
X87867D01*
Y52457D01*
Y52258D01*
X89463Y51834D02*
Y51634D01*
Y51734D01*
X89596D01*
Y51834D01*
Y51634D01*
X89675Y51472D02*
Y51272D01*
Y51372D01*
X89809D01*
Y51472D01*
Y51272D01*
X90291Y51208D02*
Y51008D01*
Y51108D01*
X90424D01*
Y51208D01*
Y51008D01*
X89522Y50938D02*
Y50738D01*
Y50838D01*
X89655D01*
Y50938D01*
Y50738D01*
X89901Y50637D02*
Y50437D01*
Y50537D01*
X90034D01*
Y50637D01*
Y50437D01*
X89398Y50336D02*
Y50136D01*
Y50236D01*
X89532D01*
Y50336D01*
Y50136D01*
X84638Y52100D02*
Y51900D01*
Y52000D01*
X84771D01*
Y52100D01*
Y51900D01*
X84638Y51687D02*
Y51487D01*
Y51587D01*
X84771D01*
Y51687D01*
Y51487D01*
X86401Y51694D02*
Y51494D01*
Y51594D01*
X86534D01*
Y51694D01*
Y51494D01*
X86695Y51480D02*
Y51280D01*
Y51380D01*
X86828D01*
Y51480D01*
Y51280D01*
X86391Y51208D02*
Y51008D01*
Y51108D01*
X86524D01*
Y51208D01*
Y51008D01*
X86721Y50953D02*
Y50753D01*
Y50853D01*
X86854D01*
Y50953D01*
Y50753D01*
X86724Y50458D02*
Y50258D01*
Y50358D01*
X86857D01*
Y50458D01*
Y50258D01*
X90685Y47575D02*
Y47375D01*
Y47475D01*
X90819D01*
Y47575D01*
Y47375D01*
X90686Y47211D02*
Y47012D01*
Y47112D01*
X90819D01*
Y47211D01*
Y47012D01*
X89112Y49310D02*
Y49110D01*
Y49210D01*
X89245D01*
Y49310D01*
Y49110D01*
X88750Y49560D02*
Y49360D01*
Y49460D01*
X88883D01*
Y49560D01*
Y49360D01*
X88470Y49310D02*
Y49110D01*
Y49210D01*
X88603D01*
Y49310D01*
Y49110D01*
X87950Y49440D02*
Y49240D01*
Y49340D01*
X88083D01*
Y49440D01*
Y49240D01*
X87700Y49090D02*
Y48890D01*
Y48990D01*
X87833D01*
Y49090D01*
Y48890D01*
X73873Y31425D02*
Y31225D01*
Y31325D01*
X74006D01*
Y31425D01*
Y31225D01*
X72772Y30099D02*
Y29899D01*
Y29999D01*
X72906D01*
Y30099D01*
Y29899D01*
X75590Y34118D02*
Y33918D01*
Y34018D01*
X75723D01*
Y34118D01*
Y33918D01*
X75987Y34118D02*
Y33918D01*
Y34018D01*
X76120D01*
Y34118D01*
Y33918D01*
X75157Y34118D02*
Y33918D01*
Y34018D01*
X75290D01*
Y34118D01*
Y33918D01*
X73750Y34844D02*
Y34644D01*
Y34744D01*
X73883D01*
Y34844D01*
Y34644D01*
X74250Y34844D02*
Y34644D01*
Y34744D01*
X74383D01*
Y34844D01*
Y34644D01*
X74750Y34844D02*
Y34644D01*
Y34744D01*
X74883D01*
Y34844D01*
Y34644D01*
X74310Y33122D02*
Y32922D01*
Y33022D01*
X74444D01*
Y33122D01*
Y32922D01*
X72584Y34609D02*
Y34409D01*
Y34509D01*
X72717D01*
Y34609D01*
Y34409D01*
X70503Y39391D02*
Y39191D01*
Y39291D01*
X70636D01*
Y39391D01*
Y39191D01*
X70984Y39322D02*
Y39122D01*
Y39222D01*
X71118D01*
Y39322D01*
Y39122D01*
X70743Y38939D02*
Y38739D01*
Y38839D01*
X70876D01*
Y38939D01*
Y38739D01*
X71205Y38941D02*
Y38741D01*
Y38841D01*
X71338D01*
Y38941D01*
Y38741D01*
X70584Y37691D02*
Y37491D01*
Y37591D01*
X70717D01*
Y37691D01*
Y37491D01*
X70978Y37687D02*
Y37487D01*
Y37587D01*
X71111D01*
Y37687D01*
Y37487D01*
X71568Y37694D02*
Y37494D01*
Y37594D01*
X71702D01*
Y37694D01*
Y37494D01*
X70781Y37433D02*
Y37233D01*
Y37333D01*
X70914D01*
Y37433D01*
Y37233D01*
X69050Y41149D02*
Y40949D01*
Y41049D01*
X69183D01*
Y41149D01*
Y40949D01*
X69550Y41149D02*
Y40949D01*
Y41049D01*
X69683D01*
Y41149D01*
Y40949D01*
X69607Y38747D02*
Y38547D01*
Y38647D01*
X69740D01*
Y38747D01*
Y38547D01*
X67462Y37168D02*
Y36969D01*
Y37068D01*
X67595D01*
Y37168D01*
Y36969D01*
X66300Y37427D02*
Y37227D01*
Y37327D01*
X66433D01*
Y37427D01*
Y37227D01*
X64444Y36885D02*
Y36685D01*
Y36785D01*
X64577D01*
Y36885D01*
Y36685D01*
X67395Y35987D02*
Y35787D01*
Y35887D01*
X67528D01*
Y35987D01*
Y35787D01*
X67633Y35679D02*
Y35479D01*
Y35579D01*
X67766D01*
Y35679D01*
Y35479D01*
X67445Y35397D02*
Y35197D01*
Y35297D01*
X67578D01*
Y35397D01*
Y35197D01*
X64154Y35600D02*
Y35400D01*
Y35500D01*
X64287D01*
Y35600D01*
Y35400D01*
X63746Y35350D02*
Y35150D01*
Y35250D01*
X63879D01*
Y35350D01*
Y35150D01*
X64154Y35100D02*
Y34900D01*
Y35000D01*
X64287D01*
Y35100D01*
Y34900D01*
X64154Y34600D02*
Y34400D01*
Y34500D01*
X64287D01*
Y34600D01*
Y34400D01*
X63744Y34850D02*
Y34650D01*
Y34750D01*
X63877D01*
Y34850D01*
Y34650D01*
X64154Y34112D02*
Y33912D01*
Y34012D01*
X64287D01*
Y34112D01*
Y33912D01*
X63744Y33850D02*
Y33650D01*
Y33750D01*
X63877D01*
Y33850D01*
Y33650D01*
X64154Y33600D02*
Y33400D01*
Y33500D01*
X64287D01*
Y33600D01*
Y33400D01*
X64154Y33100D02*
Y32900D01*
Y33000D01*
X64287D01*
Y33100D01*
Y32900D01*
X64132Y32600D02*
Y32400D01*
Y32500D01*
X64265D01*
Y32600D01*
Y32400D01*
X63744Y32850D02*
Y32650D01*
Y32750D01*
X63877D01*
Y32850D01*
Y32650D01*
X64449Y31266D02*
Y31066D01*
Y31166D01*
X64583D01*
Y31266D01*
Y31066D01*
X66686Y31893D02*
Y31693D01*
Y31793D01*
X66819D01*
Y31893D01*
Y31693D01*
X69000Y28886D02*
Y28686D01*
Y28786D01*
X69133D01*
Y28886D01*
Y28686D01*
X69500Y28886D02*
Y28686D01*
Y28786D01*
X69633D01*
Y28886D01*
Y28686D01*
X70000Y28886D02*
Y28686D01*
Y28786D01*
X70133D01*
Y28886D01*
Y28686D01*
X70500Y28886D02*
Y28686D01*
Y28786D01*
X70633D01*
Y28886D01*
Y28686D01*
X71250Y29284D02*
Y29084D01*
Y29184D01*
X71383D01*
Y29284D01*
Y29084D01*
X71519Y29542D02*
Y29342D01*
Y29442D01*
X71652D01*
Y29542D01*
Y29342D01*
X70750Y29284D02*
Y29084D01*
Y29184D01*
X70883D01*
Y29284D01*
Y29084D01*
X70250Y29284D02*
Y29084D01*
Y29184D01*
X70383D01*
Y29284D01*
Y29084D01*
X69750Y29284D02*
Y29084D01*
Y29184D01*
X69883D01*
Y29284D01*
Y29084D01*
X69250Y29284D02*
Y29084D01*
Y29184D01*
X69383D01*
Y29284D01*
Y29084D01*
X68750Y29284D02*
Y29084D01*
Y29184D01*
X68883D01*
Y29284D01*
Y29084D01*
X68250Y29284D02*
Y29084D01*
Y29184D01*
X68383D01*
Y29284D01*
Y29084D01*
X67750Y29284D02*
Y29084D01*
Y29184D01*
X67883D01*
Y29284D01*
Y29084D01*
X67250Y29284D02*
Y29084D01*
Y29184D01*
X67383D01*
Y29284D01*
Y29084D01*
X66750Y29284D02*
Y29084D01*
Y29184D01*
X66883D01*
Y29284D01*
Y29084D01*
X70394Y32584D02*
Y32384D01*
Y32484D01*
X70527D01*
Y32584D01*
Y32384D01*
X33026Y23798D02*
Y23598D01*
Y23698D01*
X33159D01*
Y23798D01*
Y23598D01*
X33255Y27427D02*
Y27227D01*
Y27327D01*
X33388D01*
Y27427D01*
Y27227D01*
X33261Y27773D02*
Y27573D01*
Y27673D01*
X33394D01*
Y27773D01*
Y27573D01*
X32950Y28108D02*
Y27908D01*
Y28008D01*
X33083D01*
Y28108D01*
Y27908D01*
X49946Y51855D02*
Y51656D01*
Y51755D01*
X50080D01*
Y51855D01*
Y51656D01*
X48776Y50769D02*
Y50569D01*
Y50669D01*
X48910D01*
Y50769D01*
Y50569D01*
X50766Y52544D02*
Y52344D01*
Y52444D01*
X50899D01*
Y52544D01*
Y52344D01*
X49930Y52558D02*
Y52358D01*
Y52458D01*
X50063D01*
Y52558D01*
Y52358D01*
X50792Y54070D02*
Y53870D01*
Y53970D01*
X50925D01*
Y54070D01*
Y53870D01*
X51120Y54070D02*
Y53870D01*
Y53970D01*
X51253D01*
Y54070D01*
Y53870D01*
X49451Y54150D02*
Y53950D01*
Y54050D01*
X49584D01*
Y54150D01*
Y53950D01*
X48292Y51453D02*
Y51253D01*
Y51353D01*
X48426D01*
Y51453D01*
Y51253D01*
X48446Y51731D02*
Y51531D01*
Y51631D01*
X48579D01*
Y51731D01*
Y51531D01*
X46697Y52697D02*
Y52497D01*
Y52597D01*
X46830D01*
Y52697D01*
Y52497D01*
X46697Y53038D02*
Y52838D01*
Y52938D01*
X46830D01*
Y53038D01*
Y52838D01*
X47400Y52440D02*
Y52240D01*
Y52340D01*
X47533D01*
Y52440D01*
Y52240D01*
X46459Y54023D02*
Y53823D01*
Y53923D01*
X46592D01*
Y54023D01*
Y53823D01*
X49166Y53873D02*
Y53674D01*
Y53773D01*
X49299D01*
Y53873D01*
Y53674D01*
X41070Y19670D02*
Y19470D01*
Y19570D01*
X41203D01*
Y19670D01*
Y19470D01*
X41070Y20830D02*
Y20630D01*
Y20730D01*
X41203D01*
Y20830D01*
Y20630D01*
X9423Y11330D02*
Y11130D01*
Y11230D01*
X9557D01*
Y11330D01*
Y11130D01*
X8277Y11330D02*
Y11130D01*
Y11230D01*
X8410D01*
Y11330D01*
Y11130D01*
X15673Y11330D02*
Y11130D01*
Y11230D01*
X15807D01*
Y11330D01*
Y11130D01*
X14527Y11330D02*
Y11130D01*
Y11230D01*
X14660D01*
Y11330D01*
Y11130D01*
X21923Y11330D02*
Y11130D01*
Y11230D01*
X22057D01*
Y11330D01*
Y11130D01*
X20777Y11330D02*
Y11130D01*
Y11230D01*
X20910D01*
Y11330D01*
Y11130D01*
X28173Y11330D02*
Y11130D01*
Y11230D01*
X28307D01*
Y11330D01*
Y11130D01*
X27027Y11330D02*
Y11130D01*
Y11230D01*
X27160D01*
Y11330D01*
Y11130D01*
X34423Y11330D02*
Y11130D01*
Y11230D01*
X34557D01*
Y11330D01*
Y11130D01*
X33277Y11330D02*
Y11130D01*
Y11230D01*
X33410D01*
Y11330D01*
Y11130D01*
X40673Y11330D02*
Y11130D01*
Y11230D01*
X40807D01*
Y11330D01*
Y11130D01*
X39527Y11330D02*
Y11130D01*
Y11230D01*
X39660D01*
Y11330D01*
Y11130D01*
X46923Y11330D02*
Y11130D01*
Y11230D01*
X47057D01*
Y11330D01*
Y11130D01*
X45777Y11330D02*
Y11130D01*
Y11230D01*
X45910D01*
Y11330D01*
Y11130D01*
X52027Y11330D02*
Y11130D01*
Y11230D01*
X52160D01*
Y11330D01*
Y11130D01*
X53173Y11330D02*
Y11130D01*
Y11230D01*
X53307D01*
Y11330D01*
Y11130D01*
X111950Y63930D02*
Y63730D01*
Y63830D01*
X112083D01*
Y63930D01*
Y63730D01*
X113790Y62700D02*
Y62500D01*
Y62600D01*
X113923D01*
Y62700D01*
Y62500D01*
X114127Y62373D02*
Y62173D01*
Y62273D01*
X114260D01*
Y62373D01*
Y62173D01*
X115290Y62700D02*
Y62500D01*
Y62600D01*
X115423D01*
Y62700D01*
Y62500D01*
X115627Y62373D02*
Y62173D01*
Y62273D01*
X115760D01*
Y62373D01*
Y62173D01*
X116790Y62700D02*
Y62500D01*
Y62600D01*
X116923D01*
Y62700D01*
Y62500D01*
X117127Y62373D02*
Y62173D01*
Y62273D01*
X117260D01*
Y62373D01*
Y62173D01*
X118627Y62373D02*
Y62173D01*
Y62273D01*
X118760D01*
Y62373D01*
Y62173D01*
X118290Y62700D02*
Y62500D01*
Y62600D01*
X118423D01*
Y62700D01*
Y62500D01*
X113400Y63328D02*
Y63128D01*
Y63228D01*
X113533D01*
Y63328D01*
Y63128D01*
X114900Y63328D02*
Y63128D01*
Y63228D01*
X115033D01*
Y63328D01*
Y63128D01*
X116400Y63328D02*
Y63128D01*
Y63228D01*
X116533D01*
Y63328D01*
Y63128D01*
X117900Y63328D02*
Y63128D01*
Y63228D01*
X118033D01*
Y63328D01*
Y63128D01*
X108371Y62398D02*
Y62199D01*
Y62299D01*
X108504D01*
Y62398D01*
Y62199D01*
X108389Y54010D02*
Y53811D01*
Y53910D01*
X108522D01*
Y54010D01*
Y53811D01*
X111700Y60560D02*
Y60360D01*
Y60460D01*
X111833D01*
Y60560D01*
Y60360D01*
X111288Y60146D02*
Y59946D01*
Y60046D01*
X111421D01*
Y60146D01*
Y59946D01*
X111115Y55244D02*
Y55044D01*
Y55144D01*
X111249D01*
Y55244D01*
Y55044D01*
X111693Y54775D02*
Y54575D01*
Y54675D01*
X111826D01*
Y54775D01*
Y54575D01*
X110330Y64124D02*
Y63924D01*
Y64024D01*
X110463D01*
Y64124D01*
Y63924D01*
X110330Y64676D02*
Y64476D01*
Y64576D01*
X110463D01*
Y64676D01*
Y64476D01*
X110700Y65000D02*
Y64800D01*
Y64900D01*
X110833D01*
Y65000D01*
Y64800D01*
X112500Y65250D02*
Y65050D01*
Y65150D01*
X112633D01*
Y65250D01*
Y65050D01*
X112130Y64926D02*
Y64726D01*
Y64826D01*
X112263D01*
Y64926D01*
Y64726D01*
X118300Y45540D02*
Y45700D01*
X118460D01*
Y45540D01*
X118300D01*
X116800Y17700D02*
Y17500D01*
Y17600D01*
X116933D01*
Y17700D01*
Y17500D01*
X116200Y22450D02*
Y22250D01*
Y22350D01*
X116333D01*
Y22450D01*
Y22250D01*
X116800Y21450D02*
Y21250D01*
Y21350D01*
X116933D01*
Y21450D01*
Y21250D01*
X116200Y16700D02*
Y16500D01*
Y16600D01*
X116333D01*
Y16700D01*
Y16500D01*
X116800Y9200D02*
Y9000D01*
Y9100D01*
X116933D01*
Y9200D01*
Y9000D01*
X116200Y10200D02*
Y10000D01*
Y10100D01*
X116333D01*
Y10200D01*
Y10000D01*
X120950Y65400D02*
Y65200D01*
Y65300D01*
X121083D01*
Y65400D01*
Y65200D01*
X120950Y65010D02*
Y64810D01*
Y64910D01*
X121083D01*
Y65010D01*
Y64810D01*
X120950Y62770D02*
Y62570D01*
Y62670D01*
X121083D01*
Y62770D01*
Y62570D01*
X120950Y63400D02*
Y63200D01*
Y63300D01*
X121083D01*
Y63400D01*
Y63200D01*
X120950Y64050D02*
Y63850D01*
Y63950D01*
X121083D01*
Y64050D01*
Y63850D01*
X120500Y64160D02*
Y63960D01*
Y64060D01*
X120633D01*
Y64160D01*
Y63960D01*
X119825Y62450D02*
Y62250D01*
Y62350D01*
X119958D01*
Y62450D01*
Y62250D01*
X119815Y64270D02*
Y64070D01*
Y64170D01*
X119949D01*
Y64270D01*
Y64070D01*
X121940Y66512D02*
Y66312D01*
Y66412D01*
X122073D01*
Y66512D01*
Y66312D01*
X45520Y25200D02*
Y25000D01*
Y25100D01*
X45653D01*
Y25200D01*
Y25000D01*
X43430Y21707D02*
Y21507D01*
Y21607D01*
X43563D01*
Y21707D01*
Y21507D01*
X43600Y19800D02*
Y19600D01*
Y19700D01*
X43733D01*
Y19800D01*
Y19600D01*
X44267Y18650D02*
Y18450D01*
Y18550D01*
X44400D01*
Y18650D01*
Y18450D01*
X40770Y20050D02*
Y19850D01*
Y19950D01*
X40903D01*
Y20050D01*
Y19850D01*
X40770Y20450D02*
Y20250D01*
Y20350D01*
X40903D01*
Y20450D01*
Y20250D01*
X42530Y20050D02*
Y19850D01*
Y19950D01*
X42663D01*
Y20050D01*
Y19850D01*
X42530Y20450D02*
Y20250D01*
Y20350D01*
X42663D01*
Y20450D01*
Y20250D01*
X40250Y20250D02*
Y20050D01*
Y20150D01*
X40383D01*
Y20250D01*
Y20050D01*
X44346Y20880D02*
Y20680D01*
Y20780D01*
X44479D01*
Y20880D01*
Y20680D01*
X45166Y19550D02*
Y19350D01*
Y19450D01*
X45299D01*
Y19550D01*
Y19350D01*
X47370Y20260D02*
Y20060D01*
Y20160D01*
X47503D01*
Y20260D01*
Y20060D01*
X47400Y19290D02*
Y19090D01*
Y19190D01*
X47533D01*
Y19290D01*
Y19090D01*
X47050Y19480D02*
Y19280D01*
Y19380D01*
X47183D01*
Y19480D01*
Y19280D01*
X45340Y20964D02*
Y20764D01*
Y20864D01*
X45473D01*
Y20964D01*
Y20764D01*
X45340Y20544D02*
Y20344D01*
Y20444D01*
X45473D01*
Y20544D01*
Y20344D01*
X45760Y20964D02*
Y20764D01*
Y20864D01*
X45893D01*
Y20964D01*
Y20764D01*
X45760Y20544D02*
Y20344D01*
Y20444D01*
X45893D01*
Y20544D01*
Y20344D01*
X110673Y2647D02*
Y2447D01*
Y2547D01*
X110807D01*
Y2647D01*
Y2447D01*
X107333Y2647D02*
Y2447D01*
Y2547D01*
X107467D01*
Y2647D01*
Y2447D01*
X8900Y4210D02*
Y4010D01*
Y4110D01*
X9033D01*
Y4210D01*
Y4010D01*
X8080Y2650D02*
Y2450D01*
Y2550D01*
X8213D01*
Y2650D01*
Y2450D01*
X11420Y2650D02*
Y2450D01*
Y2550D01*
X11553D01*
Y2650D01*
Y2450D01*
X8200Y5500D02*
Y5300D01*
Y5400D01*
X8333D01*
Y5500D01*
Y5300D01*
X10180Y7580D02*
Y7380D01*
Y7480D01*
X10313D01*
Y7580D01*
Y7380D01*
X10550Y7580D02*
Y7380D01*
Y7480D01*
X10683D01*
Y7580D01*
Y7380D01*
X9500Y7940D02*
Y7740D01*
Y7840D01*
X9633D01*
Y7940D01*
Y7740D01*
X9160Y6640D02*
Y6440D01*
Y6540D01*
X9293D01*
Y6640D01*
Y6440D01*
X9580Y6640D02*
Y6440D01*
Y6540D01*
X9713D01*
Y6640D01*
Y6440D01*
X8650Y2990D02*
Y2790D01*
Y2890D01*
X8783D01*
Y2990D01*
Y2790D01*
X9160Y7060D02*
Y6860D01*
Y6960D01*
X9293D01*
Y7060D01*
Y6860D01*
X9580Y7060D02*
Y6860D01*
Y6960D01*
X9713D01*
Y7060D01*
Y6860D01*
X52650Y4210D02*
Y4010D01*
Y4110D01*
X52783D01*
Y4210D01*
Y4010D01*
X51830Y2650D02*
Y2450D01*
Y2550D01*
X51963D01*
Y2650D01*
Y2450D01*
X55170Y2650D02*
Y2450D01*
Y2550D01*
X55303D01*
Y2650D01*
Y2450D01*
X53930Y7580D02*
Y7380D01*
Y7480D01*
X54063D01*
Y7580D01*
Y7380D01*
X54300Y7580D02*
Y7380D01*
Y7480D01*
X54433D01*
Y7580D01*
Y7380D01*
X53250Y7940D02*
Y7740D01*
Y7840D01*
X53383D01*
Y7940D01*
Y7740D01*
X52910Y6640D02*
Y6440D01*
Y6540D01*
X53043D01*
Y6640D01*
Y6440D01*
X53330Y6640D02*
Y6440D01*
Y6540D01*
X53463D01*
Y6640D01*
Y6440D01*
X52400Y2990D02*
Y2790D01*
Y2890D01*
X52533D01*
Y2990D01*
Y2790D01*
X52910Y7060D02*
Y6860D01*
Y6960D01*
X53043D01*
Y7060D01*
Y6860D01*
X53330Y7060D02*
Y6860D01*
Y6960D01*
X53463D01*
Y7060D01*
Y6860D01*
X46400Y4210D02*
Y4010D01*
Y4110D01*
X46533D01*
Y4210D01*
Y4010D01*
X45580Y2650D02*
Y2450D01*
Y2550D01*
X45713D01*
Y2650D01*
Y2450D01*
X48920Y2650D02*
Y2450D01*
Y2550D01*
X49053D01*
Y2650D01*
Y2450D01*
X45700Y5500D02*
Y5300D01*
Y5400D01*
X45833D01*
Y5500D01*
Y5300D01*
X47680Y7580D02*
Y7380D01*
Y7480D01*
X47813D01*
Y7580D01*
Y7380D01*
X48050Y7580D02*
Y7380D01*
Y7480D01*
X48183D01*
Y7580D01*
Y7380D01*
X47000Y7940D02*
Y7740D01*
Y7840D01*
X47133D01*
Y7940D01*
Y7740D01*
X46660Y6640D02*
Y6440D01*
Y6540D01*
X46793D01*
Y6640D01*
Y6440D01*
X47080Y6640D02*
Y6440D01*
Y6540D01*
X47213D01*
Y6640D01*
Y6440D01*
X46150Y2990D02*
Y2790D01*
Y2890D01*
X46283D01*
Y2990D01*
Y2790D01*
X46660Y7060D02*
Y6860D01*
Y6960D01*
X46793D01*
Y7060D01*
Y6860D01*
X47080Y7060D02*
Y6860D01*
Y6960D01*
X47213D01*
Y7060D01*
Y6860D01*
X40150Y4210D02*
Y4010D01*
Y4110D01*
X40283D01*
Y4210D01*
Y4010D01*
X39330Y2650D02*
Y2450D01*
Y2550D01*
X39463D01*
Y2650D01*
Y2450D01*
X42670Y2650D02*
Y2450D01*
Y2550D01*
X42803D01*
Y2650D01*
Y2450D01*
X39450Y5500D02*
Y5300D01*
Y5400D01*
X39583D01*
Y5500D01*
Y5300D01*
X41430Y7580D02*
Y7380D01*
Y7480D01*
X41563D01*
Y7580D01*
Y7380D01*
X41800Y7580D02*
Y7380D01*
Y7480D01*
X41933D01*
Y7580D01*
Y7380D01*
X40750Y7940D02*
Y7740D01*
Y7840D01*
X40883D01*
Y7940D01*
Y7740D01*
X40410Y6640D02*
Y6440D01*
Y6540D01*
X40543D01*
Y6640D01*
Y6440D01*
X40830Y6640D02*
Y6440D01*
Y6540D01*
X40963D01*
Y6640D01*
Y6440D01*
X39900Y2990D02*
Y2790D01*
Y2890D01*
X40033D01*
Y2990D01*
Y2790D01*
X40410Y7060D02*
Y6860D01*
Y6960D01*
X40543D01*
Y7060D01*
Y6860D01*
X40830Y7060D02*
Y6860D01*
Y6960D01*
X40963D01*
Y7060D01*
Y6860D01*
X33900Y4210D02*
Y4010D01*
Y4110D01*
X34033D01*
Y4210D01*
Y4010D01*
X33080Y2650D02*
Y2450D01*
Y2550D01*
X33213D01*
Y2650D01*
Y2450D01*
X36420Y2650D02*
Y2450D01*
Y2550D01*
X36553D01*
Y2650D01*
Y2450D01*
X33200Y5500D02*
Y5300D01*
Y5400D01*
X33333D01*
Y5500D01*
Y5300D01*
X35180Y7580D02*
Y7380D01*
Y7480D01*
X35313D01*
Y7580D01*
Y7380D01*
X35550Y7580D02*
Y7380D01*
Y7480D01*
X35683D01*
Y7580D01*
Y7380D01*
X34500Y7940D02*
Y7740D01*
Y7840D01*
X34633D01*
Y7940D01*
Y7740D01*
X34160Y6640D02*
Y6440D01*
Y6540D01*
X34293D01*
Y6640D01*
Y6440D01*
X34580Y6640D02*
Y6440D01*
Y6540D01*
X34713D01*
Y6640D01*
Y6440D01*
X33650Y2990D02*
Y2790D01*
Y2890D01*
X33783D01*
Y2990D01*
Y2790D01*
X34160Y7060D02*
Y6860D01*
Y6960D01*
X34293D01*
Y7060D01*
Y6860D01*
X34580Y7060D02*
Y6860D01*
Y6960D01*
X34713D01*
Y7060D01*
Y6860D01*
X27650Y4210D02*
Y4010D01*
Y4110D01*
X27783D01*
Y4210D01*
Y4010D01*
X26830Y2650D02*
Y2450D01*
Y2550D01*
X26963D01*
Y2650D01*
Y2450D01*
X30170Y2650D02*
Y2450D01*
Y2550D01*
X30303D01*
Y2650D01*
Y2450D01*
X26950Y5500D02*
Y5300D01*
Y5400D01*
X27083D01*
Y5500D01*
Y5300D01*
X28930Y7580D02*
Y7380D01*
Y7480D01*
X29063D01*
Y7580D01*
Y7380D01*
X29300Y7580D02*
Y7380D01*
Y7480D01*
X29433D01*
Y7580D01*
Y7380D01*
X28250Y7940D02*
Y7740D01*
Y7840D01*
X28383D01*
Y7940D01*
Y7740D01*
X27910Y6640D02*
Y6440D01*
Y6540D01*
X28043D01*
Y6640D01*
Y6440D01*
X28330Y6640D02*
Y6440D01*
Y6540D01*
X28463D01*
Y6640D01*
Y6440D01*
X27400Y2990D02*
Y2790D01*
Y2890D01*
X27533D01*
Y2990D01*
Y2790D01*
X27910Y7060D02*
Y6860D01*
Y6960D01*
X28043D01*
Y7060D01*
Y6860D01*
X28330Y7060D02*
Y6860D01*
Y6960D01*
X28463D01*
Y7060D01*
Y6860D01*
X15830Y7060D02*
Y6860D01*
Y6960D01*
X15963D01*
Y7060D01*
Y6860D01*
X15410Y7060D02*
Y6860D01*
Y6960D01*
X15543D01*
Y7060D01*
Y6860D01*
X14900Y2990D02*
Y2790D01*
Y2890D01*
X15033D01*
Y2990D01*
Y2790D01*
X15830Y6640D02*
Y6440D01*
Y6540D01*
X15963D01*
Y6640D01*
Y6440D01*
X15410Y6640D02*
Y6440D01*
Y6540D01*
X15543D01*
Y6640D01*
Y6440D01*
X15750Y7940D02*
Y7740D01*
Y7840D01*
X15883D01*
Y7940D01*
Y7740D01*
X16800Y7580D02*
Y7380D01*
Y7480D01*
X16933D01*
Y7580D01*
Y7380D01*
X16430Y7580D02*
Y7380D01*
Y7480D01*
X16563D01*
Y7580D01*
Y7380D01*
X14450Y5500D02*
Y5300D01*
Y5400D01*
X14583D01*
Y5500D01*
Y5300D01*
X17670Y2650D02*
Y2450D01*
Y2550D01*
X17803D01*
Y2650D01*
Y2450D01*
X14330Y2650D02*
Y2450D01*
Y2550D01*
X14463D01*
Y2650D01*
Y2450D01*
X15150Y4210D02*
Y4010D01*
Y4110D01*
X15283D01*
Y4210D01*
Y4010D01*
X21400Y4210D02*
Y4010D01*
Y4110D01*
X21533D01*
Y4210D01*
Y4010D01*
X20580Y2650D02*
Y2450D01*
Y2550D01*
X20713D01*
Y2650D01*
Y2450D01*
X23920Y2650D02*
Y2450D01*
Y2550D01*
X24053D01*
Y2650D01*
Y2450D01*
X20700Y5500D02*
Y5300D01*
Y5400D01*
X20833D01*
Y5500D01*
Y5300D01*
X22680Y7580D02*
Y7380D01*
Y7480D01*
X22813D01*
Y7580D01*
Y7380D01*
X23050Y7580D02*
Y7380D01*
Y7480D01*
X23183D01*
Y7580D01*
Y7380D01*
X21660Y6640D02*
Y6440D01*
Y6540D01*
X21793D01*
Y6640D01*
Y6440D01*
X22080Y6640D02*
Y6440D01*
Y6540D01*
X22213D01*
Y6640D01*
Y6440D01*
X21150Y2990D02*
Y2790D01*
Y2890D01*
X21283D01*
Y2990D01*
Y2790D01*
X21660Y7060D02*
Y6860D01*
Y6960D01*
X21793D01*
Y7060D01*
Y6860D01*
X22080Y7060D02*
Y6860D01*
Y6960D01*
X22213D01*
Y7060D01*
Y6860D01*
X40530Y9400D02*
Y9200D01*
Y9300D01*
X40663D01*
Y9400D01*
Y9200D01*
X8460Y9070D02*
Y8870D01*
Y8970D01*
X8593D01*
Y9070D01*
Y8870D01*
X9280Y9400D02*
Y9200D01*
Y9300D01*
X9413D01*
Y9400D01*
Y9200D01*
X8620Y12270D02*
Y12070D01*
Y12170D01*
X8753D01*
Y12270D01*
Y12070D01*
X9080Y12270D02*
Y12070D01*
Y12170D01*
X9213D01*
Y12270D01*
Y12070D01*
X8650Y11630D02*
Y11430D01*
Y11530D01*
X8783D01*
Y11630D01*
Y11430D01*
X9050Y11630D02*
Y11430D01*
Y11530D01*
X9183D01*
Y11630D01*
Y11430D01*
X8650Y9870D02*
Y9670D01*
Y9770D01*
X8783D01*
Y9870D01*
Y9670D01*
X9050Y9870D02*
Y9670D01*
Y9770D01*
X9183D01*
Y9870D01*
Y9670D01*
X46550Y9870D02*
Y9670D01*
Y9770D01*
X46683D01*
Y9870D01*
Y9670D01*
X46150Y9870D02*
Y9670D01*
Y9770D01*
X46283D01*
Y9870D01*
Y9670D01*
X46550Y11630D02*
Y11430D01*
Y11530D01*
X46683D01*
Y11630D01*
Y11430D01*
X46150Y11630D02*
Y11430D01*
Y11530D01*
X46283D01*
Y11630D01*
Y11430D01*
X46580Y12270D02*
Y12070D01*
Y12170D01*
X46713D01*
Y12270D01*
Y12070D01*
X46120Y12270D02*
Y12070D01*
Y12170D01*
X46253D01*
Y12270D01*
Y12070D01*
X46780Y9400D02*
Y9200D01*
Y9300D01*
X46913D01*
Y9400D01*
Y9200D01*
X45960Y9070D02*
Y8870D01*
Y8970D01*
X46093D01*
Y9070D01*
Y8870D01*
X52800Y9870D02*
Y9670D01*
Y9770D01*
X52933D01*
Y9870D01*
Y9670D01*
X52400Y9870D02*
Y9670D01*
Y9770D01*
X52533D01*
Y9870D01*
Y9670D01*
X52800Y11630D02*
Y11430D01*
Y11530D01*
X52933D01*
Y11630D01*
Y11430D01*
X52400Y11630D02*
Y11430D01*
Y11530D01*
X52533D01*
Y11630D01*
Y11430D01*
X52830Y12270D02*
Y12070D01*
Y12170D01*
X52963D01*
Y12270D01*
Y12070D01*
X52370Y12270D02*
Y12070D01*
Y12170D01*
X52503D01*
Y12270D01*
Y12070D01*
X40300Y9870D02*
Y9670D01*
Y9770D01*
X40433D01*
Y9870D01*
Y9670D01*
X39900Y9870D02*
Y9670D01*
Y9770D01*
X40033D01*
Y9870D01*
Y9670D01*
X40300Y11630D02*
Y11430D01*
Y11530D01*
X40433D01*
Y11630D01*
Y11430D01*
X39900Y11630D02*
Y11430D01*
Y11530D01*
X40033D01*
Y11630D01*
Y11430D01*
X40330Y12270D02*
Y12070D01*
Y12170D01*
X40463D01*
Y12270D01*
Y12070D01*
X39870Y12270D02*
Y12070D01*
Y12170D01*
X40003D01*
Y12270D01*
Y12070D01*
X39710Y9070D02*
Y8870D01*
Y8970D01*
X39843D01*
Y9070D01*
Y8870D01*
X34050Y9870D02*
Y9670D01*
Y9770D01*
X34183D01*
Y9870D01*
Y9670D01*
X33650Y9870D02*
Y9670D01*
Y9770D01*
X33783D01*
Y9870D01*
Y9670D01*
X34050Y11630D02*
Y11430D01*
Y11530D01*
X34183D01*
Y11630D01*
Y11430D01*
X33650Y11630D02*
Y11430D01*
Y11530D01*
X33783D01*
Y11630D01*
Y11430D01*
X34080Y12270D02*
Y12070D01*
Y12170D01*
X34213D01*
Y12270D01*
Y12070D01*
X33620Y12270D02*
Y12070D01*
Y12170D01*
X33753D01*
Y12270D01*
Y12070D01*
X34280Y9400D02*
Y9200D01*
Y9300D01*
X34413D01*
Y9400D01*
Y9200D01*
X33460Y9070D02*
Y8870D01*
Y8970D01*
X33593D01*
Y9070D01*
Y8870D01*
X27800Y9870D02*
Y9670D01*
Y9770D01*
X27933D01*
Y9870D01*
Y9670D01*
X27400Y9870D02*
Y9670D01*
Y9770D01*
X27533D01*
Y9870D01*
Y9670D01*
X27800Y11630D02*
Y11430D01*
Y11530D01*
X27933D01*
Y11630D01*
Y11430D01*
X27400Y11630D02*
Y11430D01*
Y11530D01*
X27533D01*
Y11630D01*
Y11430D01*
X27830Y12270D02*
Y12070D01*
Y12170D01*
X27963D01*
Y12270D01*
Y12070D01*
X27370Y12270D02*
Y12070D01*
Y12170D01*
X27503D01*
Y12270D01*
Y12070D01*
X28030Y9400D02*
Y9200D01*
Y9300D01*
X28163D01*
Y9400D01*
Y9200D01*
X27210Y9070D02*
Y8870D01*
Y8970D01*
X27343D01*
Y9070D01*
Y8870D01*
X20960Y9070D02*
Y8870D01*
Y8970D01*
X21093D01*
Y9070D01*
Y8870D01*
X21780Y9400D02*
Y9200D01*
Y9300D01*
X21913D01*
Y9400D01*
Y9200D01*
X21120Y12270D02*
Y12070D01*
Y12170D01*
X21253D01*
Y12270D01*
Y12070D01*
X21580Y12270D02*
Y12070D01*
Y12170D01*
X21713D01*
Y12270D01*
Y12070D01*
X21150Y11630D02*
Y11430D01*
Y11530D01*
X21283D01*
Y11630D01*
Y11430D01*
X21550Y11630D02*
Y11430D01*
Y11530D01*
X21683D01*
Y11630D01*
Y11430D01*
X21150Y9870D02*
Y9670D01*
Y9770D01*
X21283D01*
Y9870D01*
Y9670D01*
X21550Y9870D02*
Y9670D01*
Y9770D01*
X21683D01*
Y9870D01*
Y9670D01*
X15300Y11630D02*
Y11430D01*
Y11530D01*
X15433D01*
Y11630D01*
Y11430D01*
X14900Y11630D02*
Y11430D01*
Y11530D01*
X15033D01*
Y11630D01*
Y11430D01*
X14900Y9870D02*
Y9670D01*
Y9770D01*
X15033D01*
Y9870D01*
Y9670D01*
X15300Y9870D02*
Y9670D01*
Y9770D01*
X15433D01*
Y9870D01*
Y9670D01*
X14710Y9070D02*
Y8870D01*
Y8970D01*
X14843D01*
Y9070D01*
Y8870D01*
X15530Y9400D02*
Y9200D01*
Y9300D01*
X15663D01*
Y9400D01*
Y9200D01*
X14870Y12270D02*
Y12070D01*
Y12170D01*
X15003D01*
Y12270D01*
Y12070D01*
X15330Y12270D02*
Y12070D01*
Y12170D01*
X15463D01*
Y12270D01*
Y12070D01*
X117300Y17200D02*
Y17000D01*
Y17100D01*
X117433D01*
Y17200D01*
Y17000D01*
X117300Y9700D02*
Y9500D01*
Y9600D01*
X117433D01*
Y9700D01*
Y9500D01*
X123750Y74200D02*
Y74000D01*
Y74100D01*
X123883D01*
Y74200D01*
Y74000D01*
X123750Y69300D02*
Y69100D01*
Y69200D01*
X123883D01*
Y69300D01*
Y69100D01*
X119650Y69200D02*
Y69000D01*
Y69100D01*
X119783D01*
Y69200D01*
Y69000D01*
X123750Y71800D02*
Y71600D01*
Y71700D01*
X123883D01*
Y71800D01*
Y71600D01*
X119650Y71850D02*
Y71650D01*
Y71750D01*
X119783D01*
Y71850D01*
Y71650D01*
X119650Y74200D02*
Y74000D01*
Y74100D01*
X119783D01*
Y74200D01*
Y74000D01*
X115550Y71900D02*
Y71700D01*
Y71800D01*
X115683D01*
Y71900D01*
Y71700D01*
X115550Y74200D02*
Y74000D01*
Y74100D01*
X115683D01*
Y74200D01*
Y74000D01*
X124250Y42750D02*
Y42550D01*
Y42650D01*
X124383D01*
Y42750D01*
Y42550D01*
X121850Y48050D02*
Y47850D01*
Y47950D01*
X121983D01*
Y48050D01*
Y47850D01*
X124250Y51300D02*
Y51100D01*
Y51200D01*
X124383D01*
Y51300D01*
Y51100D01*
X124250Y59550D02*
Y59350D01*
Y59450D01*
X124383D01*
Y59550D01*
Y59350D01*
X121850Y56250D02*
Y56050D01*
Y56150D01*
X121983D01*
Y56250D01*
Y56050D01*
X121850Y63429D02*
Y63229D01*
Y63329D01*
X121983D01*
Y63429D01*
Y63229D01*
X96068Y50860D02*
X96035Y50893D01*
X95968D01*
X95935Y50860D01*
Y50726D01*
X95968Y50693D01*
X96035D01*
X96068Y50726D01*
Y50793D01*
X96001D01*
X95635Y50860D02*
X95602Y50893D01*
X95535D01*
X95502Y50860D01*
Y50726D01*
X95535Y50693D01*
X95602D01*
X95635Y50726D01*
Y50793D01*
X95568D01*
X96068Y51293D02*
X96035Y51326D01*
X95968D01*
X95935Y51293D01*
Y51159D01*
X95968Y51126D01*
X96035D01*
X96068Y51159D01*
Y51226D01*
X96001D01*
X95635Y51293D02*
X95602Y51326D01*
X95535D01*
X95502Y51293D01*
Y51159D01*
X95535Y51126D01*
X95602D01*
X95635Y51159D01*
Y51226D01*
X95568D01*
X88718Y50860D02*
X88685Y50893D01*
X88618D01*
X88585Y50860D01*
Y50726D01*
X88618Y50693D01*
X88685D01*
X88718Y50726D01*
Y50793D01*
X88651D01*
X88285Y50860D02*
X88252Y50893D01*
X88185D01*
X88152Y50860D01*
Y50726D01*
X88185Y50693D01*
X88252D01*
X88285Y50726D01*
Y50793D01*
X88218D01*
X88718Y51293D02*
X88685Y51326D01*
X88618D01*
X88585Y51293D01*
Y51159D01*
X88618Y51126D01*
X88685D01*
X88718Y51159D01*
Y51226D01*
X88651D01*
X88285Y51293D02*
X88252Y51326D01*
X88185D01*
X88152Y51293D01*
Y51159D01*
X88185Y51126D01*
X88252D01*
X88285Y51159D01*
Y51226D01*
X88218D01*
X89000Y60950D02*
X88967Y60983D01*
X88900D01*
X88867Y60950D01*
Y60817D01*
X88900Y60783D01*
X88967D01*
X89000Y60817D01*
Y60883D01*
X88933D01*
X89000Y61383D02*
X88967Y61416D01*
X88900D01*
X88867Y61383D01*
Y61250D01*
X88900Y61217D01*
X88967D01*
X89000Y61250D01*
Y61316D01*
X88933D01*
X88567Y60950D02*
X88533Y60983D01*
X88467D01*
X88433Y60950D01*
Y60817D01*
X88467Y60783D01*
X88533D01*
X88567Y60817D01*
Y60883D01*
X88500D01*
X88567Y61383D02*
X88533Y61416D01*
X88467D01*
X88433Y61383D01*
Y61250D01*
X88467Y61217D01*
X88533D01*
X88567Y61250D01*
Y61316D01*
X88500D01*
X103050Y66404D02*
X103017Y66438D01*
X102950D01*
X102917Y66404D01*
Y66271D01*
X102950Y66238D01*
X103017D01*
X103050Y66271D01*
Y66338D01*
X102984D01*
X103050Y65971D02*
X103017Y66005D01*
X102950D01*
X102917Y65971D01*
Y65838D01*
X102950Y65805D01*
X103017D01*
X103050Y65838D01*
Y65905D01*
X102984D01*
X103050Y65538D02*
X103017Y65572D01*
X102950D01*
X102917Y65538D01*
Y65405D01*
X102950Y65372D01*
X103017D01*
X103050Y65405D01*
Y65472D01*
X102984D01*
X103483Y66404D02*
X103450Y66438D01*
X103383D01*
X103350Y66404D01*
Y66271D01*
X103383Y66238D01*
X103450D01*
X103483Y66271D01*
Y66338D01*
X103417D01*
X103483Y65971D02*
X103450Y66005D01*
X103383D01*
X103350Y65971D01*
Y65838D01*
X103383Y65805D01*
X103450D01*
X103483Y65838D01*
Y65905D01*
X103417D01*
X103483Y65538D02*
X103450Y65572D01*
X103383D01*
X103350Y65538D01*
Y65405D01*
X103383Y65372D01*
X103450D01*
X103483Y65405D01*
Y65472D01*
X103417D01*
X103916Y66404D02*
X103883Y66438D01*
X103816D01*
X103783Y66404D01*
Y66271D01*
X103816Y66238D01*
X103883D01*
X103916Y66271D01*
Y66338D01*
X103850D01*
X103916Y65971D02*
X103883Y66005D01*
X103816D01*
X103783Y65971D01*
Y65838D01*
X103816Y65805D01*
X103883D01*
X103916Y65838D01*
Y65905D01*
X103850D01*
X103916Y65538D02*
X103883Y65572D01*
X103816D01*
X103783Y65538D01*
Y65405D01*
X103816Y65372D01*
X103883D01*
X103916Y65405D01*
Y65472D01*
X103850D01*
X46934Y48484D02*
Y48284D01*
Y48384D01*
X47067D01*
Y48484D01*
Y48284D01*
X46934Y48917D02*
Y48717D01*
Y48817D01*
X47067D01*
Y48917D01*
Y48717D01*
X46934Y49350D02*
Y49150D01*
Y49250D01*
X47067D01*
Y49350D01*
Y49150D01*
X46934Y49783D02*
Y49583D01*
Y49683D01*
X47067D01*
Y49783D01*
Y49583D01*
X46934Y50216D02*
Y50016D01*
Y50116D01*
X47067D01*
Y50216D01*
Y50016D01*
X47367Y48484D02*
Y48284D01*
Y48384D01*
X47500D01*
Y48484D01*
Y48284D01*
X47367Y48917D02*
Y48717D01*
Y48817D01*
X47500D01*
Y48917D01*
Y48717D01*
X47367Y49350D02*
Y49150D01*
Y49250D01*
X47500D01*
Y49350D01*
Y49150D01*
X47367Y49783D02*
Y49583D01*
Y49683D01*
X47500D01*
Y49783D01*
Y49583D01*
X47367Y50216D02*
Y50016D01*
Y50116D01*
X47500D01*
Y50216D01*
Y50016D01*
X47800Y48484D02*
Y48284D01*
Y48384D01*
X47933D01*
Y48484D01*
Y48284D01*
X47800Y48917D02*
Y48717D01*
Y48817D01*
X47933D01*
Y48917D01*
Y48717D01*
X47800Y49350D02*
Y49150D01*
Y49250D01*
X47933D01*
Y49350D01*
Y49150D01*
X47800Y49783D02*
Y49583D01*
Y49683D01*
X47933D01*
Y49783D01*
Y49583D01*
X47800Y50216D02*
Y50016D01*
Y50116D01*
X47933D01*
Y50216D01*
Y50016D01*
X48233Y48484D02*
Y48284D01*
Y48384D01*
X48366D01*
Y48484D01*
Y48284D01*
X48233Y48917D02*
Y48717D01*
Y48817D01*
X48366D01*
Y48917D01*
Y48717D01*
X48233Y49350D02*
Y49150D01*
Y49250D01*
X48366D01*
Y49350D01*
Y49150D01*
X48233Y49783D02*
Y49583D01*
Y49683D01*
X48366D01*
Y49783D01*
Y49583D01*
X48233Y50216D02*
Y50016D01*
Y50116D01*
X48366D01*
Y50216D01*
Y50016D01*
X48666Y48484D02*
Y48284D01*
Y48384D01*
X48799D01*
Y48484D01*
Y48284D01*
X48666Y48917D02*
Y48717D01*
Y48817D01*
X48799D01*
Y48917D01*
Y48717D01*
X48666Y49350D02*
Y49150D01*
Y49250D01*
X48799D01*
Y49350D01*
Y49150D01*
X48666Y49783D02*
Y49583D01*
Y49683D01*
X48799D01*
Y49783D01*
Y49583D01*
X48666Y50216D02*
Y50016D01*
Y50116D01*
X48799D01*
Y50216D01*
Y50016D01*
X21538Y64317D02*
X21504Y64350D01*
X21438D01*
X21404Y64317D01*
Y64183D01*
X21438Y64150D01*
X21504D01*
X21538Y64183D01*
Y64250D01*
X21471D01*
X20829Y64317D02*
X20796Y64350D01*
X20729D01*
X20696Y64317D01*
Y64183D01*
X20729Y64150D01*
X20796D01*
X20829Y64183D01*
Y64250D01*
X20762D01*
X21183Y64523D02*
X21150Y64557D01*
X21083D01*
X21050Y64523D01*
Y64390D01*
X21083Y64357D01*
X21150D01*
X21183Y64390D01*
Y64457D01*
X21117D01*
X21183Y64110D02*
X21150Y64143D01*
X21083D01*
X21050Y64110D01*
Y63977D01*
X21083Y63943D01*
X21150D01*
X21183Y63977D01*
Y64043D01*
X21117D01*
X15588Y64317D02*
X15554Y64350D01*
X15488D01*
X15454Y64317D01*
Y64183D01*
X15488Y64150D01*
X15554D01*
X15588Y64183D01*
Y64250D01*
X15521D01*
X14879Y64317D02*
X14846Y64350D01*
X14779D01*
X14746Y64317D01*
Y64183D01*
X14779Y64150D01*
X14846D01*
X14879Y64183D01*
Y64250D01*
X14812D01*
X15233Y64523D02*
X15200Y64557D01*
X15133D01*
X15100Y64523D01*
Y64390D01*
X15133Y64357D01*
X15200D01*
X15233Y64390D01*
Y64457D01*
X15167D01*
X15233Y64110D02*
X15200Y64143D01*
X15133D01*
X15100Y64110D01*
Y63977D01*
X15133Y63943D01*
X15200D01*
X15233Y63977D01*
Y64043D01*
X15167D01*
X58030Y19963D02*
X57997Y19997D01*
X57930D01*
X57897Y19963D01*
Y19830D01*
X57930Y19797D01*
X57997D01*
X58030Y19830D01*
Y19897D01*
X57964D01*
X57636Y19963D02*
X57603Y19997D01*
X57536D01*
X57503Y19963D01*
Y19830D01*
X57536Y19797D01*
X57603D01*
X57636Y19830D01*
Y19897D01*
X57570D01*
X58030Y19570D02*
X57997Y19603D01*
X57930D01*
X57897Y19570D01*
Y19436D01*
X57930Y19403D01*
X57997D01*
X58030Y19436D01*
Y19503D01*
X57964D01*
X57636Y19570D02*
X57603Y19603D01*
X57536D01*
X57503Y19570D01*
Y19436D01*
X57536Y19403D01*
X57603D01*
X57636Y19436D01*
Y19503D01*
X57570D01*
D391*
X30540Y72000D02*
G03*
X30540Y72000I-40J0D01*
G01*
Y71000D02*
G03*
X30540Y71000I-40J0D01*
G01*
X29540Y72000D02*
G03*
X29540Y72000I-40J0D01*
G01*
Y71000D02*
G03*
X29540Y71000I-40J0D01*
G01*
X28540Y72000D02*
G03*
X28540Y72000I-40J0D01*
G01*
Y71000D02*
G03*
X28540Y71000I-40J0D01*
G01*
X27540Y72000D02*
G03*
X27540Y72000I-40J0D01*
G01*
Y71000D02*
G03*
X27540Y71000I-40J0D01*
G01*
X26540Y72000D02*
G03*
X26540Y72000I-40J0D01*
G01*
Y71000D02*
G03*
X26540Y71000I-40J0D01*
G01*
X25540Y72000D02*
G03*
X25540Y72000I-40J0D01*
G01*
Y71000D02*
G03*
X25540Y71000I-40J0D01*
G01*
X24540Y72000D02*
G03*
X24540Y72000I-40J0D01*
G01*
Y71000D02*
G03*
X24540Y71000I-40J0D01*
G01*
X23540Y72000D02*
G03*
X23540Y72000I-40J0D01*
G01*
Y71000D02*
G03*
X23540Y71000I-40J0D01*
G01*
X22540Y72000D02*
G03*
X22540Y72000I-40J0D01*
G01*
Y71000D02*
G03*
X22540Y71000I-40J0D01*
G01*
X21540Y72000D02*
G03*
X21540Y72000I-40J0D01*
G01*
Y71000D02*
G03*
X21540Y71000I-40J0D01*
G01*
X20540Y72000D02*
G03*
X20540Y72000I-40J0D01*
G01*
Y71000D02*
G03*
X20540Y71000I-40J0D01*
G01*
X19540Y72000D02*
G03*
X19540Y72000I-40J0D01*
G01*
Y71000D02*
G03*
X19540Y71000I-40J0D01*
G01*
X18540Y72000D02*
G03*
X18540Y72000I-40J0D01*
G01*
Y71000D02*
G03*
X18540Y71000I-40J0D01*
G01*
X17540Y72000D02*
G03*
X17540Y72000I-40J0D01*
G01*
Y71000D02*
G03*
X17540Y71000I-40J0D01*
G01*
X16540Y72000D02*
G03*
X16540Y72000I-40J0D01*
G01*
Y71000D02*
G03*
X16540Y71000I-40J0D01*
G01*
X15540Y72000D02*
G03*
X15540Y72000I-40J0D01*
G01*
Y71000D02*
G03*
X15540Y71000I-40J0D01*
G01*
X14540Y72000D02*
G03*
X14540Y72000I-40J0D01*
G01*
Y71000D02*
G03*
X14540Y71000I-40J0D01*
G01*
X13540Y72000D02*
G03*
X13540Y72000I-40J0D01*
G01*
Y71000D02*
G03*
X13540Y71000I-40J0D01*
G01*
X12540Y72000D02*
G03*
X12540Y72000I-40J0D01*
G01*
Y71000D02*
G03*
X12540Y71000I-40J0D01*
G01*
X11540Y72000D02*
G03*
X11540Y72000I-40J0D01*
G01*
Y71000D02*
G03*
X11540Y71000I-40J0D01*
G01*
X10540Y72000D02*
G03*
X10540Y72000I-40J0D01*
G01*
Y71000D02*
G03*
X10540Y71000I-40J0D01*
G01*
X9540Y72000D02*
G03*
X9540Y72000I-40J0D01*
G01*
Y71000D02*
G03*
X9540Y71000I-40J0D01*
G01*
M02*
