G04*
G04 #@! TF.GenerationSoftware,Altium Limited,Altium Designer,22.10.1 (41)*
G04*
G04 Layer_Color=8388736*
%FSLAX25Y25*%
%MOIN*%
G70*
G04*
G04 #@! TF.SameCoordinates,72A4C529-D447-4618-9FEB-1D22E0D21F89*
G04*
G04*
G04 #@! TF.FilePolarity,Positive*
G04*
G01*
G75*
%ADD16C,0.00591*%
%ADD18C,0.00787*%
D16*
X219555Y449000D02*
G03*
X219555Y449000I-6555J0D01*
G01*
X1048555Y272500D02*
G03*
X1048555Y272500I-6555J0D01*
G01*
X188555Y223000D02*
G03*
X188555Y223000I-6555J0D01*
G01*
X538555Y185000D02*
G03*
X538555Y185000I-6555J0D01*
G01*
X343555Y367000D02*
G03*
X343555Y367000I-6555J0D01*
G01*
X136055Y370000D02*
G03*
X136055Y370000I-6555J0D01*
G01*
X484555Y427000D02*
G03*
X484555Y427000I-6555J0D01*
G01*
X876555Y229500D02*
G03*
X876555Y229500I-6555J0D01*
G01*
X434555Y298000D02*
G03*
X434555Y298000I-6555J0D01*
G01*
X132555Y518000D02*
G03*
X132555Y518000I-6555J0D01*
G01*
X219055Y533500D02*
G03*
X219055Y533500I-6555J0D01*
G01*
X249055Y454000D02*
G03*
X249055Y454000I-6555J0D01*
G01*
X181555Y486000D02*
G03*
X181555Y486000I-6555J0D01*
G01*
D18*
X141654Y519772D02*
X148346D01*
Y516228D02*
Y519772D01*
X141654Y516228D02*
X148346D01*
X141654D02*
Y519772D01*
X195835Y523272D02*
X202528D01*
Y519728D02*
Y523272D01*
X195835Y519728D02*
X202528D01*
X195835D02*
Y523272D01*
X208653Y519772D02*
X215347D01*
Y516228D02*
Y519772D01*
X208653Y516228D02*
X215347D01*
X208653D02*
Y519772D01*
X197653Y463772D02*
X204346D01*
Y460228D02*
Y463772D01*
X197653Y460228D02*
X204346D01*
X197653D02*
Y463772D01*
X209154Y462772D02*
X215846D01*
Y459228D02*
Y462772D01*
X209154Y459228D02*
X215846D01*
X209154D02*
Y462772D01*
X222654Y459772D02*
X229346D01*
Y456228D02*
Y459772D01*
X222654Y456228D02*
X229346D01*
X222654D02*
Y459772D01*
X217154Y484772D02*
X223847D01*
Y481228D02*
Y484772D01*
X217154Y481228D02*
X223847D01*
X217154D02*
Y484772D01*
X219654Y512272D02*
X226346D01*
Y508728D02*
Y512272D01*
X219654Y508728D02*
X226346D01*
X219654D02*
Y512272D01*
X222153Y525272D02*
X228847D01*
Y521728D02*
Y525272D01*
X222153Y521728D02*
X228847D01*
X222153D02*
Y525272D01*
X173653Y500772D02*
X180347D01*
Y497228D02*
Y500772D01*
X173653Y497228D02*
X180347D01*
X173653D02*
Y500772D01*
X215591Y261614D02*
Y265158D01*
Y261614D02*
X222284D01*
Y265158D01*
X215591D02*
X222284D01*
X349039Y268063D02*
Y275937D01*
X353961D01*
Y268063D02*
Y275937D01*
X349039Y268063D02*
X353961D01*
X1187933Y455118D02*
X1192067D01*
X1187933D02*
Y457283D01*
X1192067D01*
Y455118D02*
Y457283D01*
X223268Y631716D02*
Y633685D01*
X219331D02*
X223268D01*
X219331Y631716D02*
Y633685D01*
Y631716D02*
X223268D01*
X280417Y252008D02*
X282583D01*
Y256142D01*
X280417D02*
X282583D01*
X280417Y252008D02*
Y256142D01*
X429050Y619524D02*
Y629524D01*
Y619524D02*
X457950D01*
Y629524D01*
X429050D02*
X457950D01*
X148736Y655469D02*
X150705D01*
X148736Y651532D02*
Y655469D01*
Y651532D02*
X150705D01*
Y655469D01*
X208236D02*
X210205D01*
X208236Y651532D02*
Y655469D01*
Y651532D02*
X210205D01*
Y655469D01*
X139777Y631756D02*
Y635693D01*
X141746D01*
Y631756D02*
Y635693D01*
X139777Y631756D02*
X141746D01*
X199276D02*
X201244D01*
Y635693D01*
X199276D02*
X201244D01*
X199276Y631756D02*
Y635693D01*
X163768Y631716D02*
Y633685D01*
X159832D02*
X163768D01*
X159832Y631716D02*
Y633685D01*
Y631716D02*
X163768D01*
X980653Y368228D02*
Y371772D01*
Y368228D02*
X987346D01*
Y371772D01*
X980653D02*
X987346D01*
X1096653Y364772D02*
X1103347D01*
Y361228D02*
Y364772D01*
X1096653Y361228D02*
X1103347D01*
X1096653D02*
Y364772D01*
X980653Y238228D02*
X987346D01*
X980653D02*
Y241772D01*
X987346D01*
Y238228D02*
Y241772D01*
X1096653Y238228D02*
X1103347D01*
X1096653D02*
Y241772D01*
X1103347D01*
Y238228D02*
Y241772D01*
X1096653Y163228D02*
Y166772D01*
Y163228D02*
X1103347D01*
Y166772D01*
X1096653D02*
X1103347D01*
X980653D02*
X987346D01*
Y163228D02*
Y166772D01*
X980653Y163228D02*
X987346D01*
X980653D02*
Y166772D01*
X548858Y192976D02*
X555551D01*
X548858D02*
Y196520D01*
X555551D01*
Y192976D02*
Y196520D01*
X333653Y355272D02*
X340347D01*
Y351728D02*
Y355272D01*
X333653Y351728D02*
X340347D01*
X333653D02*
Y355272D01*
X131154Y386272D02*
X137847D01*
Y382728D02*
Y386272D01*
X131154Y382728D02*
X137847D01*
X131154D02*
Y386272D01*
X1096653Y306299D02*
Y309842D01*
Y306299D02*
X1103347D01*
Y309842D01*
X1096653D02*
X1103347D01*
X980653Y306299D02*
Y309842D01*
Y306299D02*
X987346D01*
Y309842D01*
X980653D02*
X987346D01*
X435153Y449772D02*
X441847D01*
Y446228D02*
Y449772D01*
X435153Y446228D02*
X441847D01*
X435153D02*
Y449772D01*
X514153Y476272D02*
X520847D01*
Y472728D02*
Y476272D01*
X514153Y472728D02*
X520847D01*
X514153D02*
Y476272D01*
X422154Y505772D02*
X428847D01*
Y502228D02*
Y505772D01*
X422154Y502228D02*
X428847D01*
X422154D02*
Y505772D01*
X516653Y547228D02*
Y550772D01*
Y547228D02*
X523347D01*
Y550772D01*
X516653D02*
X523347D01*
X600039Y528915D02*
Y532459D01*
Y528915D02*
X606732D01*
Y532459D01*
X600039D02*
X606732D01*
X847653Y278728D02*
Y282272D01*
Y278728D02*
X854346D01*
Y282272D01*
X847653D02*
X854346D01*
M02*
