G04*
G04 #@! TF.GenerationSoftware,Altium Limited,Altium Designer,22.6.1 (34)*
G04*
G04 Layer_Color=8388736*
%FSLAX23Y23*%
%MOIN*%
G70*
G04*
G04 #@! TF.SameCoordinates,48DA0B1C-91FB-4976-8A67-4949CEA53551*
G04*
G04*
G04 #@! TF.FilePolarity,Positive*
G04*
G01*
G75*
%ADD15C,0.006*%
%ADD18C,0.008*%
D15*
X1361Y3700D02*
G03*
X1361Y3700I-66J0D01*
G01*
X1816Y4860D02*
G03*
X1816Y4860I-66J0D01*
G01*
X1326Y5180D02*
G03*
X1326Y5180I-66J0D01*
G01*
X2196Y4490D02*
G03*
X2196Y4490I-66J0D01*
G01*
X2491Y4540D02*
G03*
X2491Y4540I-66J0D01*
G01*
X2191Y5335D02*
G03*
X2191Y5335I-66J0D01*
G01*
X8766Y2295D02*
G03*
X8766Y2295I-66J0D01*
G01*
X10486Y2725D02*
G03*
X10486Y2725I-66J0D01*
G01*
X5386Y1850D02*
G03*
X5386Y1850I-66J0D01*
G01*
X1886Y2230D02*
G03*
X1886Y2230I-66J0D01*
G01*
X4346Y2980D02*
G03*
X4346Y2980I-66J0D01*
G01*
X4846Y4270D02*
G03*
X4846Y4270I-66J0D01*
G01*
X3436Y3670D02*
G03*
X3436Y3670I-66J0D01*
G01*
D18*
X5556Y1930D02*
Y1965D01*
X5489D02*
X5556D01*
X5489Y1930D02*
Y1965D01*
Y1930D02*
X5556D01*
X2804Y2520D02*
Y2561D01*
X2826D01*
Y2520D02*
Y2561D01*
X2804Y2520D02*
X2826D01*
X1398Y6318D02*
X1417D01*
Y6357D01*
X1398D02*
X1417D01*
X1398Y6318D02*
Y6357D01*
X10967Y1668D02*
X11033D01*
Y1632D02*
Y1668D01*
X10967Y1632D02*
X11033D01*
X10967D02*
Y1668D01*
X2197Y5123D02*
X2263D01*
Y5087D02*
Y5123D01*
X2197Y5087D02*
X2263D01*
X2197D02*
Y5123D01*
X2227Y4598D02*
X2293D01*
Y4562D02*
Y4598D01*
X2227Y4562D02*
X2293D01*
X2227D02*
Y4598D01*
X2222Y5253D02*
X2288D01*
Y5217D02*
Y5253D01*
X2222Y5217D02*
X2288D01*
X2222D02*
Y5253D01*
X1417Y5198D02*
X1483D01*
Y5162D02*
Y5198D01*
X1417Y5162D02*
X1483D01*
X1417D02*
Y5198D01*
X1958Y5233D02*
X2025D01*
Y5197D02*
Y5233D01*
X1958Y5197D02*
X2025D01*
X1958D02*
Y5233D01*
X1737Y5008D02*
X1803D01*
Y4972D02*
Y5008D01*
X1737Y4972D02*
X1803D01*
X1737D02*
Y5008D01*
X2087Y5198D02*
X2153D01*
Y5162D02*
Y5198D01*
X2087Y5162D02*
X2153D01*
X2087D02*
Y5198D01*
X2172Y4848D02*
X2238D01*
Y4812D02*
Y4848D01*
X2172Y4812D02*
X2238D01*
X2172D02*
Y4848D01*
X2092Y4628D02*
X2158D01*
Y4592D02*
Y4628D01*
X2092Y4592D02*
X2158D01*
X2092D02*
Y4628D01*
X1977Y4638D02*
X2043D01*
Y4602D02*
Y4638D01*
X1977Y4602D02*
X2043D01*
X1977D02*
Y4638D01*
X5167Y5508D02*
X5233D01*
Y5472D02*
Y5508D01*
X5167Y5472D02*
X5233D01*
X5167D02*
Y5508D01*
X8477Y2823D02*
X8543D01*
Y2787D02*
Y2823D01*
X8477Y2787D02*
X8543D01*
X8477D02*
Y2823D01*
X6000Y5325D02*
X6067D01*
Y5289D02*
Y5325D01*
X6000Y5289D02*
X6067D01*
X6000D02*
Y5325D01*
X4291Y6295D02*
X4580D01*
Y6195D02*
Y6295D01*
X4291Y6195D02*
X4580D01*
X4291D02*
Y6295D01*
X2193Y6317D02*
X2233D01*
X2193D02*
Y6337D01*
X2233D01*
Y6317D02*
Y6337D01*
X1598Y6317D02*
X1638D01*
X1598D02*
Y6337D01*
X1638D01*
Y6317D02*
Y6337D01*
X1993Y6318D02*
Y6357D01*
X2012D01*
Y6318D02*
Y6357D01*
X1993Y6318D02*
X2012D01*
X2102Y6515D02*
Y6555D01*
X2082Y6515D02*
X2102D01*
X2082D02*
Y6555D01*
X2102D01*
X1507Y6515D02*
Y6555D01*
X1487Y6515D02*
X1507D01*
X1487D02*
Y6555D01*
X1507D01*
X9807Y3718D02*
X9873D01*
Y3682D02*
Y3718D01*
X9807Y3682D02*
X9873D01*
X9807D02*
Y3718D01*
Y3098D02*
X9873D01*
Y3063D02*
Y3098D01*
X9807Y3063D02*
X9873D01*
X9807D02*
Y3098D01*
X10967D02*
X11033D01*
Y3063D02*
Y3098D01*
X10967Y3063D02*
X11033D01*
X10967D02*
Y3098D01*
X2156Y2652D02*
X2223D01*
Y2616D02*
Y2652D01*
X2156Y2616D02*
X2223D01*
X2156D02*
Y2652D01*
X11921Y4551D02*
Y4573D01*
X11879D02*
X11921D01*
X11879Y4551D02*
Y4573D01*
Y4551D02*
X11921D01*
X3490Y2681D02*
X3540D01*
Y2759D01*
X3490D02*
X3540D01*
X3490Y2681D02*
Y2759D01*
X4352Y4462D02*
Y4498D01*
Y4462D02*
X4418D01*
Y4498D01*
X4352D02*
X4418D01*
X5142Y4727D02*
Y4763D01*
Y4727D02*
X5208D01*
Y4763D01*
X5142D02*
X5208D01*
X4222Y5022D02*
Y5058D01*
Y5022D02*
X4288D01*
Y5058D01*
X4222D02*
X4288D01*
X10967Y3612D02*
Y3648D01*
Y3612D02*
X11033D01*
Y3648D01*
X10967D02*
X11033D01*
X3337Y3517D02*
Y3553D01*
Y3517D02*
X3403D01*
Y3553D01*
X3337D02*
X3403D01*
X1312Y3827D02*
Y3863D01*
Y3827D02*
X1378D01*
Y3863D01*
X1312D02*
X1378D01*
X9873Y2382D02*
Y2418D01*
X9807D02*
X9873D01*
X9807Y2382D02*
Y2418D01*
Y2382D02*
X9873D01*
X11033D02*
Y2418D01*
X10967D02*
X11033D01*
X10967Y2382D02*
Y2418D01*
Y2382D02*
X11033D01*
X9807Y1632D02*
Y1668D01*
Y1632D02*
X9873D01*
Y1668D01*
X9807D02*
X9873D01*
M02*
