G04*
G04 #@! TF.GenerationSoftware,Altium Limited,Altium Designer,22.6.1 (34)*
G04*
G04 Layer_Physical_Order=10*
G04 Layer_Color=4660084*
%FSLAX23Y23*%
%MOIN*%
G70*
G04*
G04 #@! TF.SameCoordinates,48DA0B1C-91FB-4976-8A67-4949CEA53551*
G04*
G04*
G04 #@! TF.FilePolarity,Positive*
G04*
G01*
G75*
%ADD18C,0.008*%
%ADD192C,0.055*%
%ADD233C,0.012*%
%ADD235C,0.008*%
%ADD246C,0.028*%
%ADD263C,0.110*%
%ADD270C,0.022*%
%ADD273C,0.040*%
%ADD275C,0.028*%
%ADD284C,0.007*%
%ADD285C,0.022*%
G36*
X9260Y6876D02*
Y6557D01*
X9236Y6534D01*
X9098D01*
X9074Y6557D01*
Y6883D01*
X9099Y6908D01*
X9227Y6908D01*
X9260Y6876D01*
D02*
G37*
G36*
X6934Y6115D02*
X6756D01*
X6464Y6115D01*
X6145Y6115D01*
X6145Y6530D01*
X6743D01*
X6746Y6525D01*
X6745Y6520D01*
X6746Y6516D01*
X6743Y6514D01*
X6741Y6513D01*
X6736Y6517D01*
X6730Y6518D01*
X6724Y6517D01*
X6719Y6513D01*
X6715Y6508D01*
X6714Y6502D01*
X6715Y6496D01*
X6719Y6490D01*
X6724Y6487D01*
X6729Y6486D01*
X6731Y6484D01*
X6732Y6481D01*
X6731Y6479D01*
X6730Y6473D01*
X6731Y6467D01*
X6735Y6462D01*
X6740Y6458D01*
X6746Y6457D01*
X6752Y6458D01*
X6758Y6462D01*
X6761Y6467D01*
X6762Y6473D01*
X6761Y6479D01*
X6758Y6485D01*
X6752Y6488D01*
X6747Y6489D01*
X6745Y6491D01*
X6744Y6494D01*
X6745Y6496D01*
X6746Y6502D01*
X6745Y6505D01*
X6749Y6507D01*
X6750Y6508D01*
X6755Y6505D01*
X6761Y6503D01*
X6767Y6505D01*
X6772Y6508D01*
X6776Y6513D01*
X6777Y6520D01*
X6776Y6525D01*
X6779Y6530D01*
X6784D01*
X6786Y6525D01*
X6785Y6520D01*
X6786Y6513D01*
X6790Y6508D01*
X6795Y6505D01*
X6801Y6503D01*
X6808Y6505D01*
X6813Y6508D01*
X6816Y6513D01*
X6818Y6520D01*
X6817Y6525D01*
X6819Y6530D01*
X6903D01*
X6904Y6525D01*
X6900Y6522D01*
X6896Y6517D01*
X6895Y6510D01*
X6896Y6504D01*
X6900Y6499D01*
X6905Y6496D01*
X6911Y6494D01*
X6917Y6496D01*
X6923Y6499D01*
X6926Y6504D01*
X6927Y6510D01*
X6926Y6517D01*
X6923Y6522D01*
X6918Y6525D01*
X6920Y6530D01*
X6934D01*
Y6115D01*
D02*
G37*
G36*
X12126Y6465D02*
X12024D01*
Y6537D01*
X12013Y6548D01*
X10785D01*
Y6680D01*
X12126D01*
Y6465D01*
D02*
G37*
G36*
X10221Y6599D02*
X10121Y6499D01*
X10121Y6462D01*
X10118Y6459D01*
X10028Y6459D01*
X10028Y6574D01*
X10107Y6653D01*
X10107Y6717D01*
X10221Y6717D01*
X10221Y6599D01*
D02*
G37*
G36*
X11940Y6433D02*
X12126D01*
Y6242D01*
Y6219D01*
X12033D01*
X11848Y6403D01*
X11045Y6403D01*
X11042Y6406D01*
X11036Y6408D01*
X11030D01*
X11024Y6406D01*
X11021Y6403D01*
X10493D01*
X10367Y6277D01*
X10028D01*
Y6403D01*
X10198D01*
X10247Y6355D01*
X10287D01*
X10393Y6460D01*
X10398Y6458D01*
Y6454D01*
X10401Y6448D01*
X10405Y6444D01*
X10411Y6442D01*
X10417D01*
X10423Y6444D01*
X10427Y6448D01*
X10430Y6454D01*
Y6461D01*
X10427Y6466D01*
X10423Y6471D01*
X10417Y6473D01*
X10413D01*
X10411Y6478D01*
X10419Y6487D01*
X10519D01*
X10521Y6483D01*
Y6477D01*
X10523Y6471D01*
X10528Y6466D01*
X10534Y6464D01*
X10540D01*
X10546Y6466D01*
X10550Y6471D01*
X10553Y6477D01*
Y6483D01*
X10555Y6487D01*
X11052D01*
X11054Y6483D01*
Y6477D01*
X11057Y6471D01*
X11061Y6467D01*
X11067Y6464D01*
X11073D01*
X11079Y6467D01*
X11083Y6471D01*
X11086Y6477D01*
Y6483D01*
X11088Y6487D01*
X11198D01*
X11200Y6482D01*
X11200Y6482D01*
X11197Y6476D01*
Y6469D01*
X11200Y6464D01*
X11204Y6459D01*
X11210Y6457D01*
X11216D01*
X11222Y6459D01*
X11226Y6464D01*
X11229Y6469D01*
Y6476D01*
X11226Y6482D01*
X11226Y6482D01*
X11228Y6487D01*
X11878D01*
X11940Y6433D01*
D02*
G37*
G36*
X5240Y4374D02*
X4521D01*
Y4896D01*
X4526Y4897D01*
X4528Y4894D01*
X4533Y4890D01*
X4540Y4889D01*
X4546Y4890D01*
X4551Y4894D01*
X4555Y4899D01*
X4556Y4905D01*
X4555Y4911D01*
X4551Y4917D01*
X4546Y4920D01*
X4540Y4921D01*
X4533Y4920D01*
X4528Y4917D01*
X4526Y4913D01*
X4521Y4915D01*
Y5092D01*
X5240Y5092D01*
X5240Y4374D01*
D02*
G37*
G36*
X9703Y3841D02*
X10005D01*
X10005Y3519D01*
X10000Y3518D01*
X10000Y3519D01*
X9996Y3524D01*
X9991Y3528D01*
X9985Y3529D01*
X9979Y3528D01*
X9974Y3524D01*
X9970Y3519D01*
X9969Y3513D01*
X9970Y3507D01*
X9974Y3502D01*
X9979Y3498D01*
X9985Y3497D01*
X9991Y3498D01*
X9996Y3502D01*
X10000Y3507D01*
X10000Y3508D01*
X10005Y3507D01*
X10005Y3256D01*
X9848D01*
X9846Y3258D01*
X9845Y3264D01*
X9841Y3269D01*
X9836Y3273D01*
X9830Y3274D01*
X9824Y3273D01*
X9819Y3269D01*
X9815Y3264D01*
X9814Y3258D01*
X9812Y3256D01*
X9261Y3256D01*
X9261Y1083D01*
X6070Y1083D01*
X6069Y1088D01*
X6066Y1093D01*
X6061Y1096D01*
X6054Y1098D01*
X6048Y1096D01*
X6043Y1093D01*
X6039Y1088D01*
X6039Y1083D01*
X5283D01*
X5281Y1085D01*
X5275Y1086D01*
X5270Y1085D01*
X5268Y1083D01*
X5252D01*
X5250Y1085D01*
X5245Y1086D01*
X5239Y1085D01*
X5237Y1083D01*
X4658Y1083D01*
X4656Y1085D01*
X4650Y1086D01*
X4645Y1085D01*
X4643Y1083D01*
X4627D01*
X4625Y1085D01*
X4620Y1086D01*
X4614Y1085D01*
X4612Y1083D01*
X4033D01*
X4031Y1085D01*
X4025Y1086D01*
X4020Y1085D01*
X4018Y1083D01*
X4002D01*
X4000Y1085D01*
X3994Y1086D01*
X3989Y1085D01*
X3987Y1083D01*
X3408D01*
X3406Y1085D01*
X3401Y1086D01*
X3395Y1085D01*
X3393Y1083D01*
X3377D01*
X3375Y1085D01*
X3369Y1086D01*
X3364Y1085D01*
X3362Y1083D01*
X2783D01*
X2781Y1085D01*
X2776Y1086D01*
X2770Y1085D01*
X2768Y1083D01*
X2752D01*
X2750Y1085D01*
X2744Y1086D01*
X2739Y1085D01*
X2737Y1083D01*
X2158D01*
X2156Y1085D01*
X2151Y1086D01*
X2145Y1085D01*
X2143Y1083D01*
X2127D01*
X2125Y1085D01*
X2119Y1086D01*
X2114Y1085D01*
X2112Y1083D01*
X1533Y1083D01*
X1531Y1085D01*
X1526Y1086D01*
X1520Y1085D01*
X1518Y1083D01*
X1502D01*
X1500Y1085D01*
X1495Y1086D01*
X1489Y1085D01*
X1487Y1083D01*
X908D01*
X906Y1085D01*
X900Y1086D01*
X895Y1085D01*
X893Y1083D01*
X877D01*
X875Y1085D01*
X869Y1086D01*
X864Y1085D01*
X862Y1083D01*
X619D01*
X619Y1944D01*
X3863Y1944D01*
Y2589D01*
X4048D01*
X4051Y2585D01*
X4047Y1627D01*
X4132Y1541D01*
X6801Y1541D01*
X6802Y1541D01*
X6807Y1537D01*
X6813Y1536D01*
X6819Y1537D01*
X6824Y1541D01*
X6825Y1541D01*
X6841D01*
X6841Y1541D01*
X6847Y1537D01*
X6853Y1536D01*
X6859Y1537D01*
X6864Y1541D01*
X6864Y1541D01*
X8281D01*
X8281Y3841D01*
X9703Y3841D01*
D02*
G37*
G36*
X10524Y4403D02*
Y3286D01*
X10524Y2699D01*
X10315Y2490D01*
X10315Y306D01*
X9356D01*
X9355Y311D01*
X9352Y316D01*
X9347Y320D01*
X9340Y321D01*
X9334Y320D01*
X9329Y316D01*
X9326Y311D01*
X9325Y306D01*
X619Y306D01*
X619Y991D01*
X9441Y993D01*
X9441Y3183D01*
X10132Y3183D01*
X10132Y4034D01*
X8101Y4034D01*
X8101Y1659D01*
X7143Y1659D01*
X7138Y1662D01*
X7132Y1664D01*
X7126Y1662D01*
X7121Y1659D01*
X4107Y1659D01*
X4107Y1903D01*
X4725D01*
X4725Y1903D01*
X4729Y1898D01*
X4734Y1894D01*
X4740Y1893D01*
X4746Y1894D01*
X4751Y1898D01*
X4755Y1903D01*
X4755Y1903D01*
X5296Y1903D01*
X5297Y1898D01*
X5293Y1896D01*
X5282Y1888D01*
X5274Y1877D01*
X5268Y1864D01*
X5266Y1850D01*
X5268Y1836D01*
X5274Y1823D01*
X5282Y1812D01*
X5293Y1804D01*
X5306Y1798D01*
X5320Y1796D01*
X5334Y1798D01*
X5347Y1804D01*
X5358Y1812D01*
X5366Y1823D01*
X5372Y1836D01*
X5374Y1850D01*
X5372Y1864D01*
X5366Y1877D01*
X5358Y1888D01*
X5347Y1896D01*
X5343Y1898D01*
X5344Y1903D01*
X7103Y1903D01*
X7324Y2124D01*
Y4403D01*
X10524Y4403D01*
D02*
G37*
G36*
X11860Y3736D02*
Y3180D01*
X11260D01*
X11170Y3270D01*
Y3504D01*
X10849D01*
Y4035D01*
X11561D01*
X11860Y3736D01*
D02*
G37*
G36*
X11233Y3160D02*
X11860Y3160D01*
Y3010D01*
X11188D01*
X11088Y2910D01*
X10849D01*
Y3210D01*
X11183D01*
X11233Y3160D01*
D02*
G37*
G36*
X11860Y2990D02*
Y2840D01*
X11502D01*
X11269Y2607D01*
X11269Y2239D01*
X10849D01*
Y2613D01*
X11226Y2990D01*
X11860Y2990D01*
D02*
G37*
G36*
Y2820D02*
Y2540D01*
X11500D01*
Y1684D01*
X11354Y1538D01*
X10849D01*
Y1765D01*
X11235D01*
X11300Y1830D01*
Y2601D01*
X11519Y2820D01*
X11860Y2820D01*
D02*
G37*
%LPC*%
G36*
X9224Y6731D02*
X9217Y6730D01*
X9212Y6726D01*
X9209Y6721D01*
X9207Y6715D01*
X9209Y6709D01*
X9212Y6704D01*
X9217Y6700D01*
X9224Y6699D01*
X9230Y6700D01*
X9235Y6704D01*
X9238Y6709D01*
X9240Y6715D01*
X9238Y6721D01*
X9235Y6726D01*
X9230Y6730D01*
X9224Y6731D01*
D02*
G37*
G36*
X9115D02*
X9108Y6730D01*
X9103Y6726D01*
X9100Y6721D01*
X9098Y6715D01*
X9100Y6709D01*
X9103Y6704D01*
X9108Y6700D01*
X9115Y6699D01*
X9121Y6700D01*
X9126Y6704D01*
X9129Y6709D01*
X9131Y6715D01*
X9129Y6721D01*
X9126Y6726D01*
X9121Y6730D01*
X9115Y6731D01*
D02*
G37*
G36*
X9171Y6668D02*
X9164Y6667D01*
X9159Y6663D01*
X9156Y6658D01*
X9155Y6652D01*
X9156Y6646D01*
X9159Y6640D01*
X9164Y6637D01*
X9171Y6636D01*
X9177Y6637D01*
X9182Y6640D01*
X9186Y6646D01*
X9187Y6652D01*
X9186Y6658D01*
X9182Y6663D01*
X9177Y6667D01*
X9171Y6668D01*
D02*
G37*
G36*
X6691Y6518D02*
X6685Y6517D01*
X6679Y6513D01*
X6676Y6508D01*
X6675Y6502D01*
X6676Y6496D01*
X6679Y6490D01*
X6685Y6487D01*
X6691Y6486D01*
X6697Y6487D01*
X6702Y6490D01*
X6706Y6496D01*
X6707Y6502D01*
X6706Y6508D01*
X6702Y6513D01*
X6697Y6517D01*
X6691Y6518D01*
D02*
G37*
G36*
X6512Y6489D02*
X6506Y6488D01*
X6501Y6485D01*
X6498Y6479D01*
X6496Y6473D01*
X6498Y6467D01*
X6501Y6462D01*
X6506Y6458D01*
X6512Y6457D01*
X6519Y6458D01*
X6524Y6462D01*
X6527Y6467D01*
X6529Y6473D01*
X6527Y6479D01*
X6524Y6485D01*
X6519Y6488D01*
X6512Y6489D01*
D02*
G37*
G36*
X6321D02*
X6315Y6488D01*
X6310Y6485D01*
X6306Y6479D01*
X6305Y6473D01*
X6306Y6467D01*
X6310Y6462D01*
X6315Y6458D01*
X6321Y6457D01*
X6327Y6458D01*
X6332Y6462D01*
X6336Y6467D01*
X6337Y6473D01*
X6336Y6479D01*
X6332Y6485D01*
X6327Y6488D01*
X6321Y6489D01*
D02*
G37*
G36*
X6179D02*
X6173Y6488D01*
X6168Y6485D01*
X6164Y6479D01*
X6163Y6473D01*
X6164Y6467D01*
X6168Y6462D01*
X6173Y6458D01*
X6179Y6457D01*
X6185Y6458D01*
X6191Y6462D01*
X6194Y6467D01*
X6195Y6473D01*
X6194Y6479D01*
X6191Y6485D01*
X6185Y6488D01*
X6179Y6489D01*
D02*
G37*
G36*
X6628Y6484D02*
X6622Y6483D01*
X6617Y6479D01*
X6613Y6474D01*
X6612Y6468D01*
X6613Y6462D01*
X6617Y6456D01*
X6622Y6453D01*
X6628Y6452D01*
X6634Y6453D01*
X6639Y6456D01*
X6643Y6462D01*
X6644Y6468D01*
X6643Y6474D01*
X6639Y6479D01*
X6634Y6483D01*
X6628Y6484D01*
D02*
G37*
G36*
X6845Y6367D02*
X6839Y6366D01*
X6834Y6362D01*
X6831Y6358D01*
X6831Y6358D01*
X6827D01*
X6826Y6358D01*
X6823Y6362D01*
X6818Y6366D01*
X6812Y6367D01*
X6806Y6366D01*
X6801Y6362D01*
X6797Y6357D01*
X6796Y6351D01*
X6797Y6345D01*
X6801Y6339D01*
X6806Y6336D01*
X6812Y6335D01*
X6818Y6336D01*
X6823Y6339D01*
X6826Y6343D01*
X6827Y6343D01*
X6831D01*
X6831Y6343D01*
X6834Y6339D01*
X6839Y6336D01*
X6845Y6335D01*
X6852Y6336D01*
X6857Y6339D01*
X6860Y6345D01*
X6862Y6351D01*
X6860Y6357D01*
X6857Y6362D01*
X6852Y6366D01*
X6845Y6367D01*
D02*
G37*
G36*
X6613Y6362D02*
X6607Y6361D01*
X6601Y6358D01*
X6598Y6352D01*
X6597Y6346D01*
X6598Y6340D01*
X6601Y6335D01*
X6607Y6331D01*
X6613Y6330D01*
X6619Y6331D01*
X6624Y6335D01*
X6628Y6340D01*
X6629Y6346D01*
X6628Y6352D01*
X6624Y6358D01*
X6619Y6361D01*
X6613Y6362D01*
D02*
G37*
G36*
X6572D02*
X6566Y6361D01*
X6561Y6358D01*
X6557Y6352D01*
X6556Y6346D01*
X6557Y6340D01*
X6561Y6335D01*
X6566Y6331D01*
X6572Y6330D01*
X6579Y6331D01*
X6584Y6335D01*
X6587Y6340D01*
X6589Y6346D01*
X6587Y6352D01*
X6584Y6358D01*
X6579Y6361D01*
X6572Y6362D01*
D02*
G37*
G36*
X6495D02*
X6488Y6361D01*
X6483Y6358D01*
X6480Y6352D01*
X6478Y6346D01*
X6480Y6340D01*
X6483Y6335D01*
X6488Y6331D01*
X6495Y6330D01*
X6501Y6331D01*
X6506Y6335D01*
X6510Y6340D01*
X6511Y6346D01*
X6510Y6352D01*
X6506Y6358D01*
X6501Y6361D01*
X6495Y6362D01*
D02*
G37*
G36*
X6454D02*
X6448Y6361D01*
X6443Y6358D01*
X6439Y6352D01*
X6438Y6346D01*
X6439Y6340D01*
X6443Y6335D01*
X6448Y6331D01*
X6454Y6330D01*
X6460Y6331D01*
X6466Y6335D01*
X6469Y6340D01*
X6470Y6346D01*
X6469Y6352D01*
X6466Y6358D01*
X6460Y6361D01*
X6454Y6362D01*
D02*
G37*
G36*
X6377D02*
X6370Y6361D01*
X6365Y6358D01*
X6362Y6352D01*
X6360Y6346D01*
X6362Y6340D01*
X6365Y6335D01*
X6370Y6331D01*
X6377Y6330D01*
X6383Y6331D01*
X6388Y6335D01*
X6391Y6340D01*
X6393Y6346D01*
X6391Y6352D01*
X6388Y6358D01*
X6383Y6361D01*
X6377Y6362D01*
D02*
G37*
G36*
X6336D02*
X6330Y6361D01*
X6325Y6358D01*
X6321Y6352D01*
X6320Y6346D01*
X6321Y6340D01*
X6325Y6335D01*
X6330Y6331D01*
X6336Y6330D01*
X6342Y6331D01*
X6348Y6335D01*
X6351Y6340D01*
X6352Y6346D01*
X6351Y6352D01*
X6348Y6358D01*
X6342Y6361D01*
X6336Y6362D01*
D02*
G37*
G36*
X6891Y6326D02*
X6885Y6325D01*
X6880Y6322D01*
X6876Y6316D01*
X6875Y6310D01*
X6876Y6304D01*
X6880Y6299D01*
X6885Y6295D01*
X6891Y6294D01*
X6898Y6295D01*
X6903Y6299D01*
X6906Y6304D01*
X6907Y6310D01*
X6906Y6316D01*
X6903Y6322D01*
X6898Y6325D01*
X6891Y6326D01*
D02*
G37*
G36*
X6766D02*
X6760Y6325D01*
X6755Y6322D01*
X6751Y6316D01*
X6750Y6310D01*
X6751Y6304D01*
X6755Y6299D01*
X6760Y6295D01*
X6766Y6294D01*
X6772Y6295D01*
X6777Y6299D01*
X6781Y6304D01*
X6782Y6310D01*
X6781Y6316D01*
X6777Y6322D01*
X6772Y6325D01*
X6766Y6326D01*
D02*
G37*
G36*
X6565Y6326D02*
X6559Y6325D01*
X6554Y6321D01*
X6550Y6316D01*
X6549Y6310D01*
X6550Y6304D01*
X6554Y6299D01*
X6559Y6295D01*
X6565Y6294D01*
X6571Y6295D01*
X6577Y6299D01*
X6580Y6304D01*
X6581Y6310D01*
X6580Y6316D01*
X6577Y6321D01*
X6571Y6325D01*
X6565Y6326D01*
D02*
G37*
G36*
X6525D02*
X6519Y6325D01*
X6513Y6321D01*
X6510Y6316D01*
X6509Y6310D01*
X6510Y6304D01*
X6513Y6299D01*
X6519Y6295D01*
X6525Y6294D01*
X6531Y6295D01*
X6536Y6299D01*
X6540Y6304D01*
X6541Y6310D01*
X6540Y6316D01*
X6536Y6321D01*
X6531Y6325D01*
X6525Y6326D01*
D02*
G37*
G36*
X6447D02*
X6441Y6325D01*
X6436Y6321D01*
X6432Y6316D01*
X6431Y6310D01*
X6432Y6304D01*
X6436Y6299D01*
X6441Y6295D01*
X6447Y6294D01*
X6453Y6295D01*
X6459Y6299D01*
X6462Y6304D01*
X6463Y6310D01*
X6462Y6316D01*
X6459Y6321D01*
X6453Y6325D01*
X6447Y6326D01*
D02*
G37*
G36*
X6407D02*
X6401Y6325D01*
X6395Y6321D01*
X6392Y6316D01*
X6391Y6310D01*
X6392Y6304D01*
X6395Y6299D01*
X6401Y6295D01*
X6407Y6294D01*
X6413Y6295D01*
X6418Y6299D01*
X6422Y6304D01*
X6423Y6310D01*
X6422Y6316D01*
X6418Y6321D01*
X6413Y6325D01*
X6407Y6326D01*
D02*
G37*
G36*
X6891Y6285D02*
X6885Y6283D01*
X6880Y6280D01*
X6876Y6275D01*
X6875Y6269D01*
X6876Y6262D01*
X6880Y6257D01*
X6885Y6254D01*
X6891Y6252D01*
X6898Y6254D01*
X6903Y6257D01*
X6906Y6262D01*
X6907Y6269D01*
X6906Y6275D01*
X6903Y6280D01*
X6898Y6283D01*
X6891Y6285D01*
D02*
G37*
G36*
X6766D02*
X6760Y6283D01*
X6755Y6280D01*
X6751Y6275D01*
X6750Y6269D01*
X6751Y6262D01*
X6755Y6257D01*
X6760Y6254D01*
X6766Y6252D01*
X6772Y6254D01*
X6777Y6257D01*
X6781Y6262D01*
X6782Y6269D01*
X6781Y6275D01*
X6777Y6280D01*
X6772Y6283D01*
X6766Y6285D01*
D02*
G37*
G36*
X6742Y6213D02*
X6736Y6211D01*
X6731Y6208D01*
X6727Y6203D01*
X6726Y6197D01*
X6727Y6190D01*
X6731Y6185D01*
X6736Y6182D01*
X6742Y6180D01*
X6749Y6182D01*
X6754Y6185D01*
X6757Y6190D01*
X6758Y6197D01*
X6757Y6203D01*
X6754Y6208D01*
X6749Y6211D01*
X6742Y6213D01*
D02*
G37*
G36*
X6702D02*
X6696Y6211D01*
X6691Y6208D01*
X6687Y6203D01*
X6686Y6197D01*
X6687Y6190D01*
X6691Y6185D01*
X6696Y6182D01*
X6702Y6180D01*
X6708Y6182D01*
X6713Y6185D01*
X6717Y6190D01*
X6718Y6197D01*
X6717Y6203D01*
X6713Y6208D01*
X6708Y6211D01*
X6702Y6213D01*
D02*
G37*
G36*
X6624Y6195D02*
X6618Y6194D01*
X6612Y6190D01*
X6609Y6185D01*
X6608Y6179D01*
X6609Y6173D01*
X6612Y6167D01*
X6618Y6164D01*
X6624Y6163D01*
X6630Y6164D01*
X6635Y6167D01*
X6639Y6173D01*
X6640Y6179D01*
X6639Y6185D01*
X6635Y6190D01*
X6630Y6194D01*
X6624Y6195D01*
D02*
G37*
G36*
X6584D02*
X6578Y6194D01*
X6573Y6190D01*
X6569Y6185D01*
X6568Y6179D01*
X6569Y6173D01*
X6573Y6167D01*
X6578Y6164D01*
X6584Y6163D01*
X6591Y6164D01*
X6596Y6167D01*
X6599Y6173D01*
X6601Y6179D01*
X6599Y6185D01*
X6596Y6190D01*
X6591Y6194D01*
X6584Y6195D01*
D02*
G37*
G36*
X6694Y6170D02*
X6688Y6169D01*
X6683Y6166D01*
X6679Y6160D01*
X6678Y6154D01*
X6679Y6148D01*
X6683Y6143D01*
X6688Y6139D01*
X6694Y6138D01*
X6700Y6139D01*
X6706Y6143D01*
X6709Y6148D01*
X6710Y6154D01*
X6709Y6160D01*
X6706Y6166D01*
X6700Y6169D01*
X6694Y6170D01*
D02*
G37*
G36*
X6654D02*
X6648Y6169D01*
X6642Y6166D01*
X6639Y6160D01*
X6638Y6154D01*
X6639Y6148D01*
X6642Y6143D01*
X6648Y6139D01*
X6654Y6138D01*
X6660Y6139D01*
X6665Y6143D01*
X6669Y6148D01*
X6670Y6154D01*
X6669Y6160D01*
X6665Y6166D01*
X6660Y6169D01*
X6654Y6170D01*
D02*
G37*
G36*
X6177Y6166D02*
X6171Y6165D01*
X6166Y6161D01*
X6162Y6156D01*
X6161Y6150D01*
X6162Y6144D01*
X6166Y6138D01*
X6171Y6135D01*
X6177Y6134D01*
X6183Y6135D01*
X6188Y6138D01*
X6192Y6144D01*
X6193Y6150D01*
X6192Y6156D01*
X6188Y6161D01*
X6183Y6165D01*
X6177Y6166D01*
D02*
G37*
G36*
X6403Y6164D02*
X6397Y6162D01*
X6392Y6159D01*
X6389Y6154D01*
X6387Y6148D01*
X6389Y6141D01*
X6392Y6136D01*
X6397Y6133D01*
X6403Y6131D01*
X6410Y6133D01*
X6415Y6136D01*
X6418Y6141D01*
X6420Y6148D01*
X6418Y6154D01*
X6415Y6159D01*
X6410Y6162D01*
X6403Y6164D01*
D02*
G37*
G36*
X6262D02*
X6256Y6162D01*
X6250Y6159D01*
X6247Y6154D01*
X6246Y6148D01*
X6247Y6141D01*
X6250Y6136D01*
X6256Y6133D01*
X6262Y6131D01*
X6268Y6133D01*
X6273Y6136D01*
X6277Y6141D01*
X6278Y6148D01*
X6277Y6154D01*
X6273Y6159D01*
X6268Y6162D01*
X6262Y6164D01*
D02*
G37*
G36*
X6876Y6160D02*
X6870Y6159D01*
X6864Y6155D01*
X6861Y6150D01*
X6860Y6144D01*
X6861Y6137D01*
X6864Y6132D01*
X6870Y6129D01*
X6876Y6127D01*
X6882Y6129D01*
X6887Y6132D01*
X6891Y6137D01*
X6892Y6144D01*
X6891Y6150D01*
X6887Y6155D01*
X6882Y6159D01*
X6876Y6160D01*
D02*
G37*
G36*
X11911Y6636D02*
X11904D01*
X11899Y6634D01*
X11894Y6629D01*
X11892Y6624D01*
Y6617D01*
X11894Y6612D01*
X11899Y6607D01*
X11904Y6605D01*
X11911D01*
X11916Y6607D01*
X11921Y6612D01*
X11923Y6617D01*
Y6624D01*
X11921Y6629D01*
X11916Y6634D01*
X11911Y6636D01*
D02*
G37*
G36*
X11363Y6634D02*
X11357D01*
X11351Y6632D01*
X11346Y6627D01*
X11344Y6622D01*
Y6615D01*
X11346Y6610D01*
X11351Y6605D01*
X11357Y6603D01*
X11363D01*
X11369Y6605D01*
X11373Y6610D01*
X11376Y6615D01*
Y6622D01*
X11373Y6627D01*
X11369Y6632D01*
X11363Y6634D01*
D02*
G37*
G36*
X11094Y6630D02*
X11088D01*
X11082Y6627D01*
X11078Y6623D01*
X11076Y6617D01*
Y6611D01*
X11078Y6605D01*
X11082Y6600D01*
X11088Y6598D01*
X11094D01*
X11100Y6600D01*
X11105Y6605D01*
X11107Y6611D01*
Y6617D01*
X11105Y6623D01*
X11100Y6627D01*
X11094Y6630D01*
D02*
G37*
G36*
X10127Y6626D02*
X10121Y6625D01*
X10115Y6621D01*
X10112Y6616D01*
X10111Y6610D01*
X10112Y6604D01*
X10115Y6599D01*
X10121Y6595D01*
X10127Y6594D01*
X10133Y6595D01*
X10138Y6599D01*
X10142Y6604D01*
X10143Y6610D01*
X10142Y6616D01*
X10138Y6621D01*
X10133Y6625D01*
X10127Y6626D01*
D02*
G37*
G36*
X10146Y6586D02*
X10139Y6584D01*
X10134Y6581D01*
X10131Y6576D01*
X10129Y6569D01*
X10131Y6563D01*
X10134Y6558D01*
X10139Y6554D01*
X10146Y6553D01*
X10152Y6554D01*
X10157Y6558D01*
X10160Y6563D01*
X10162Y6569D01*
X10160Y6576D01*
X10157Y6581D01*
X10152Y6584D01*
X10146Y6586D01*
D02*
G37*
G36*
X11036Y6463D02*
X11030D01*
X11024Y6461D01*
X11020Y6457D01*
X11017Y6451D01*
Y6444D01*
X11020Y6439D01*
X11024Y6434D01*
X11030Y6432D01*
X11036D01*
X11042Y6434D01*
X11046Y6439D01*
X11049Y6444D01*
Y6451D01*
X11046Y6457D01*
X11042Y6461D01*
X11036Y6463D01*
D02*
G37*
G36*
X10929Y6460D02*
X10923D01*
X10917Y6458D01*
X10913Y6453D01*
X10910Y6447D01*
Y6441D01*
X10913Y6435D01*
X10917Y6431D01*
X10923Y6428D01*
X10929D01*
X10935Y6431D01*
X10939Y6435D01*
X10942Y6441D01*
Y6447D01*
X10939Y6453D01*
X10935Y6458D01*
X10929Y6460D01*
D02*
G37*
G36*
X10705D02*
X10698D01*
X10693Y6458D01*
X10688Y6453D01*
X10686Y6447D01*
Y6441D01*
X10688Y6435D01*
X10693Y6431D01*
X10698Y6428D01*
X10705D01*
X10711Y6431D01*
X10715Y6435D01*
X10717Y6441D01*
Y6447D01*
X10715Y6453D01*
X10711Y6458D01*
X10705Y6460D01*
D02*
G37*
G36*
X11985Y6423D02*
X11978D01*
X11973Y6420D01*
X11968Y6416D01*
X11966Y6410D01*
Y6404D01*
X11968Y6398D01*
X11973Y6394D01*
X11978Y6391D01*
X11985D01*
X11991Y6394D01*
X11995Y6398D01*
X11997Y6404D01*
Y6410D01*
X11995Y6416D01*
X11991Y6420D01*
X11985Y6423D01*
D02*
G37*
G36*
X10401Y6379D02*
X10395D01*
X10389Y6376D01*
X10384Y6372D01*
X10382Y6366D01*
Y6360D01*
X10384Y6354D01*
X10389Y6349D01*
X10395Y6347D01*
X10401D01*
X10407Y6349D01*
X10411Y6354D01*
X10414Y6360D01*
Y6366D01*
X10411Y6372D01*
X10407Y6376D01*
X10401Y6379D01*
D02*
G37*
G36*
X10368Y6338D02*
X10362D01*
X10356Y6336D01*
X10352Y6331D01*
X10349Y6326D01*
Y6319D01*
X10352Y6314D01*
X10356Y6309D01*
X10362Y6307D01*
X10368D01*
X10374Y6309D01*
X10378Y6314D01*
X10381Y6319D01*
Y6326D01*
X10378Y6331D01*
X10374Y6336D01*
X10368Y6338D01*
D02*
G37*
G36*
X4567Y5086D02*
X4560Y5084D01*
X4555Y5081D01*
X4552Y5076D01*
X4550Y5069D01*
X4552Y5063D01*
X4555Y5058D01*
X4560Y5055D01*
X4567Y5053D01*
X4573Y5055D01*
X4578Y5058D01*
X4581Y5063D01*
X4583Y5069D01*
X4581Y5076D01*
X4578Y5081D01*
X4573Y5084D01*
X4567Y5086D01*
D02*
G37*
G36*
X4878Y5073D02*
X4871Y5072D01*
X4866Y5068D01*
X4863Y5063D01*
X4861Y5057D01*
X4863Y5051D01*
X4866Y5045D01*
X4871Y5042D01*
X4878Y5041D01*
X4884Y5042D01*
X4889Y5045D01*
X4893Y5051D01*
X4894Y5057D01*
X4893Y5063D01*
X4889Y5068D01*
X4884Y5072D01*
X4878Y5073D01*
D02*
G37*
G36*
X4642Y5039D02*
X4635Y5038D01*
X4630Y5035D01*
X4627Y5029D01*
X4625Y5023D01*
X4627Y5017D01*
X4630Y5012D01*
X4635Y5008D01*
X4642Y5007D01*
X4648Y5008D01*
X4653Y5012D01*
X4656Y5017D01*
X4658Y5023D01*
X4656Y5029D01*
X4653Y5035D01*
X4648Y5038D01*
X4642Y5039D01*
D02*
G37*
G36*
X4867Y5018D02*
X4860Y5017D01*
X4855Y5013D01*
X4852Y5008D01*
X4850Y5002D01*
X4852Y4995D01*
X4855Y4990D01*
X4860Y4987D01*
X4867Y4985D01*
X4873Y4987D01*
X4878Y4990D01*
X4882Y4995D01*
X4883Y5002D01*
X4882Y5008D01*
X4878Y5013D01*
X4873Y5017D01*
X4867Y5018D01*
D02*
G37*
G36*
X4823D02*
X4817Y5017D01*
X4812Y5013D01*
X4808Y5008D01*
X4807Y5002D01*
X4808Y4995D01*
X4812Y4990D01*
X4817Y4987D01*
X4823Y4985D01*
X4829Y4987D01*
X4835Y4990D01*
X4838Y4995D01*
X4839Y5002D01*
X4838Y5008D01*
X4835Y5013D01*
X4829Y5017D01*
X4823Y5018D01*
D02*
G37*
G36*
X4780D02*
X4774Y5017D01*
X4769Y5013D01*
X4765Y5008D01*
X4764Y5002D01*
X4765Y4995D01*
X4769Y4990D01*
X4774Y4987D01*
X4780Y4985D01*
X4786Y4987D01*
X4791Y4990D01*
X4795Y4995D01*
X4796Y5002D01*
X4795Y5008D01*
X4791Y5013D01*
X4786Y5017D01*
X4780Y5018D01*
D02*
G37*
G36*
X4737D02*
X4731Y5017D01*
X4725Y5013D01*
X4722Y5008D01*
X4721Y5002D01*
X4722Y4995D01*
X4725Y4990D01*
X4731Y4987D01*
X4737Y4985D01*
X4743Y4987D01*
X4748Y4990D01*
X4752Y4995D01*
X4753Y5002D01*
X4752Y5008D01*
X4748Y5013D01*
X4743Y5017D01*
X4737Y5018D01*
D02*
G37*
G36*
X4693D02*
X4687Y5017D01*
X4682Y5013D01*
X4678Y5008D01*
X4677Y5002D01*
X4678Y4995D01*
X4682Y4990D01*
X4687Y4987D01*
X4693Y4985D01*
X4700Y4987D01*
X4705Y4990D01*
X4708Y4995D01*
X4710Y5002D01*
X4708Y5008D01*
X4705Y5013D01*
X4700Y5017D01*
X4693Y5018D01*
D02*
G37*
G36*
X4909Y5001D02*
X4903Y5000D01*
X4898Y4996D01*
X4895Y4991D01*
X4893Y4985D01*
X4895Y4979D01*
X4898Y4974D01*
X4903Y4970D01*
X4909Y4969D01*
X4916Y4970D01*
X4921Y4974D01*
X4924Y4979D01*
X4926Y4985D01*
X4924Y4991D01*
X4921Y4996D01*
X4916Y5000D01*
X4909Y5001D01*
D02*
G37*
G36*
X4867Y4974D02*
X4860Y4973D01*
X4855Y4970D01*
X4852Y4964D01*
X4850Y4958D01*
X4852Y4952D01*
X4855Y4947D01*
X4860Y4943D01*
X4867Y4942D01*
X4873Y4943D01*
X4878Y4947D01*
X4882Y4952D01*
X4883Y4958D01*
X4882Y4964D01*
X4878Y4970D01*
X4873Y4973D01*
X4867Y4974D01*
D02*
G37*
G36*
X4823D02*
X4817Y4973D01*
X4812Y4970D01*
X4808Y4964D01*
X4807Y4958D01*
X4808Y4952D01*
X4812Y4947D01*
X4817Y4943D01*
X4823Y4942D01*
X4829Y4943D01*
X4835Y4947D01*
X4838Y4952D01*
X4839Y4958D01*
X4838Y4964D01*
X4835Y4970D01*
X4829Y4973D01*
X4823Y4974D01*
D02*
G37*
G36*
X4780D02*
X4774Y4973D01*
X4769Y4970D01*
X4765Y4964D01*
X4764Y4958D01*
X4765Y4952D01*
X4769Y4947D01*
X4774Y4943D01*
X4780Y4942D01*
X4786Y4943D01*
X4791Y4947D01*
X4795Y4952D01*
X4796Y4958D01*
X4795Y4964D01*
X4791Y4970D01*
X4786Y4973D01*
X4780Y4974D01*
D02*
G37*
G36*
X4737D02*
X4731Y4973D01*
X4725Y4970D01*
X4722Y4964D01*
X4721Y4958D01*
X4722Y4952D01*
X4725Y4947D01*
X4731Y4943D01*
X4737Y4942D01*
X4743Y4943D01*
X4748Y4947D01*
X4752Y4952D01*
X4753Y4958D01*
X4752Y4964D01*
X4748Y4970D01*
X4743Y4973D01*
X4737Y4974D01*
D02*
G37*
G36*
X4693D02*
X4687Y4973D01*
X4682Y4970D01*
X4678Y4964D01*
X4677Y4958D01*
X4678Y4952D01*
X4682Y4947D01*
X4687Y4943D01*
X4693Y4942D01*
X4700Y4943D01*
X4705Y4947D01*
X4708Y4952D01*
X4710Y4958D01*
X4708Y4964D01*
X4705Y4970D01*
X4700Y4973D01*
X4693Y4974D01*
D02*
G37*
G36*
X5096Y4941D02*
X5090Y4940D01*
X5085Y4936D01*
X5082Y4931D01*
X5080Y4925D01*
X5082Y4919D01*
X5085Y4914D01*
X5090Y4910D01*
X5096Y4909D01*
X5103Y4910D01*
X5108Y4914D01*
X5111Y4919D01*
X5113Y4925D01*
X5111Y4931D01*
X5108Y4936D01*
X5103Y4940D01*
X5096Y4941D01*
D02*
G37*
G36*
X5059D02*
X5052Y4940D01*
X5047Y4936D01*
X5044Y4931D01*
X5042Y4925D01*
X5044Y4919D01*
X5047Y4914D01*
X5052Y4910D01*
X5059Y4909D01*
X5065Y4910D01*
X5070Y4914D01*
X5073Y4919D01*
X5075Y4925D01*
X5073Y4931D01*
X5070Y4936D01*
X5065Y4940D01*
X5059Y4941D01*
D02*
G37*
G36*
X4867Y4931D02*
X4860Y4930D01*
X4855Y4926D01*
X4852Y4921D01*
X4850Y4915D01*
X4852Y4909D01*
X4855Y4904D01*
X4860Y4900D01*
X4867Y4899D01*
X4873Y4900D01*
X4878Y4904D01*
X4882Y4909D01*
X4883Y4915D01*
X4882Y4921D01*
X4878Y4926D01*
X4873Y4930D01*
X4867Y4931D01*
D02*
G37*
G36*
X4823D02*
X4817Y4930D01*
X4812Y4926D01*
X4808Y4921D01*
X4807Y4915D01*
X4808Y4909D01*
X4812Y4904D01*
X4817Y4900D01*
X4823Y4899D01*
X4829Y4900D01*
X4835Y4904D01*
X4838Y4909D01*
X4839Y4915D01*
X4838Y4921D01*
X4835Y4926D01*
X4829Y4930D01*
X4823Y4931D01*
D02*
G37*
G36*
X4780D02*
X4774Y4930D01*
X4769Y4926D01*
X4765Y4921D01*
X4764Y4915D01*
X4765Y4909D01*
X4769Y4904D01*
X4774Y4900D01*
X4780Y4899D01*
X4786Y4900D01*
X4791Y4904D01*
X4795Y4909D01*
X4796Y4915D01*
X4795Y4921D01*
X4791Y4926D01*
X4786Y4930D01*
X4780Y4931D01*
D02*
G37*
G36*
X4737D02*
X4731Y4930D01*
X4725Y4926D01*
X4722Y4921D01*
X4721Y4915D01*
X4722Y4909D01*
X4725Y4904D01*
X4731Y4900D01*
X4737Y4899D01*
X4743Y4900D01*
X4748Y4904D01*
X4752Y4909D01*
X4753Y4915D01*
X4752Y4921D01*
X4748Y4926D01*
X4743Y4930D01*
X4737Y4931D01*
D02*
G37*
G36*
X4693D02*
X4687Y4930D01*
X4682Y4926D01*
X4678Y4921D01*
X4677Y4915D01*
X4678Y4909D01*
X4682Y4904D01*
X4687Y4900D01*
X4693Y4899D01*
X4700Y4900D01*
X4705Y4904D01*
X4708Y4909D01*
X4710Y4915D01*
X4708Y4921D01*
X4705Y4926D01*
X4700Y4930D01*
X4693Y4931D01*
D02*
G37*
G36*
X4867Y4888D02*
X4860Y4887D01*
X4855Y4883D01*
X4852Y4878D01*
X4850Y4872D01*
X4852Y4866D01*
X4855Y4860D01*
X4860Y4857D01*
X4867Y4856D01*
X4873Y4857D01*
X4878Y4860D01*
X4882Y4866D01*
X4883Y4872D01*
X4882Y4878D01*
X4878Y4883D01*
X4873Y4887D01*
X4867Y4888D01*
D02*
G37*
G36*
X4823D02*
X4817Y4887D01*
X4812Y4883D01*
X4808Y4878D01*
X4807Y4872D01*
X4808Y4866D01*
X4812Y4860D01*
X4817Y4857D01*
X4823Y4856D01*
X4829Y4857D01*
X4835Y4860D01*
X4838Y4866D01*
X4839Y4872D01*
X4838Y4878D01*
X4835Y4883D01*
X4829Y4887D01*
X4823Y4888D01*
D02*
G37*
G36*
X4780D02*
X4774Y4887D01*
X4769Y4883D01*
X4765Y4878D01*
X4764Y4872D01*
X4765Y4866D01*
X4769Y4860D01*
X4774Y4857D01*
X4780Y4856D01*
X4786Y4857D01*
X4791Y4860D01*
X4795Y4866D01*
X4796Y4872D01*
X4795Y4878D01*
X4791Y4883D01*
X4786Y4887D01*
X4780Y4888D01*
D02*
G37*
G36*
X4737D02*
X4731Y4887D01*
X4725Y4883D01*
X4722Y4878D01*
X4721Y4872D01*
X4722Y4866D01*
X4725Y4860D01*
X4731Y4857D01*
X4737Y4856D01*
X4743Y4857D01*
X4748Y4860D01*
X4752Y4866D01*
X4753Y4872D01*
X4752Y4878D01*
X4748Y4883D01*
X4743Y4887D01*
X4737Y4888D01*
D02*
G37*
G36*
X4693D02*
X4687Y4887D01*
X4682Y4883D01*
X4678Y4878D01*
X4677Y4872D01*
X4678Y4866D01*
X4682Y4860D01*
X4687Y4857D01*
X4693Y4856D01*
X4700Y4857D01*
X4705Y4860D01*
X4708Y4866D01*
X4710Y4872D01*
X4708Y4878D01*
X4705Y4883D01*
X4700Y4887D01*
X4693Y4888D01*
D02*
G37*
G36*
X4867Y4845D02*
X4860Y4843D01*
X4855Y4840D01*
X4852Y4835D01*
X4850Y4828D01*
X4852Y4822D01*
X4855Y4817D01*
X4860Y4813D01*
X4867Y4812D01*
X4873Y4813D01*
X4878Y4817D01*
X4882Y4822D01*
X4883Y4828D01*
X4882Y4835D01*
X4878Y4840D01*
X4873Y4843D01*
X4867Y4845D01*
D02*
G37*
G36*
X4823D02*
X4817Y4843D01*
X4812Y4840D01*
X4808Y4835D01*
X4807Y4828D01*
X4808Y4822D01*
X4812Y4817D01*
X4817Y4813D01*
X4823Y4812D01*
X4829Y4813D01*
X4835Y4817D01*
X4838Y4822D01*
X4839Y4828D01*
X4838Y4835D01*
X4835Y4840D01*
X4829Y4843D01*
X4823Y4845D01*
D02*
G37*
G36*
X4780D02*
X4774Y4843D01*
X4769Y4840D01*
X4765Y4835D01*
X4764Y4828D01*
X4765Y4822D01*
X4769Y4817D01*
X4774Y4813D01*
X4780Y4812D01*
X4786Y4813D01*
X4791Y4817D01*
X4795Y4822D01*
X4796Y4828D01*
X4795Y4835D01*
X4791Y4840D01*
X4786Y4843D01*
X4780Y4845D01*
D02*
G37*
G36*
X4737D02*
X4731Y4843D01*
X4725Y4840D01*
X4722Y4835D01*
X4721Y4828D01*
X4722Y4822D01*
X4725Y4817D01*
X4731Y4813D01*
X4737Y4812D01*
X4743Y4813D01*
X4748Y4817D01*
X4752Y4822D01*
X4753Y4828D01*
X4752Y4835D01*
X4748Y4840D01*
X4743Y4843D01*
X4737Y4845D01*
D02*
G37*
G36*
X4693D02*
X4687Y4843D01*
X4682Y4840D01*
X4678Y4835D01*
X4677Y4828D01*
X4678Y4822D01*
X4682Y4817D01*
X4687Y4813D01*
X4693Y4812D01*
X4700Y4813D01*
X4705Y4817D01*
X4708Y4822D01*
X4710Y4828D01*
X4708Y4835D01*
X4705Y4840D01*
X4700Y4843D01*
X4693Y4845D01*
D02*
G37*
G36*
X5054Y4841D02*
X5048Y4840D01*
X5042Y4836D01*
X5039Y4831D01*
X5038Y4825D01*
X5039Y4819D01*
X5042Y4814D01*
X5048Y4810D01*
X5054Y4809D01*
X5060Y4810D01*
X5065Y4814D01*
X5069Y4819D01*
X5070Y4825D01*
X5069Y4831D01*
X5065Y4836D01*
X5060Y4840D01*
X5054Y4841D01*
D02*
G37*
G36*
X4655Y4804D02*
X4649Y4803D01*
X4644Y4799D01*
X4640Y4794D01*
X4639Y4788D01*
X4640Y4782D01*
X4644Y4776D01*
X4649Y4773D01*
X4655Y4772D01*
X4661Y4773D01*
X4666Y4776D01*
X4670Y4782D01*
X4671Y4788D01*
X4670Y4794D01*
X4666Y4799D01*
X4661Y4803D01*
X4655Y4804D01*
D02*
G37*
G36*
X4900Y4798D02*
X4894Y4797D01*
X4889Y4793D01*
X4885Y4788D01*
X4884Y4782D01*
X4885Y4776D01*
X4889Y4770D01*
X4894Y4767D01*
X4900Y4766D01*
X4906Y4767D01*
X4911Y4770D01*
X4915Y4776D01*
X4916Y4782D01*
X4915Y4788D01*
X4911Y4793D01*
X4906Y4797D01*
X4900Y4798D01*
D02*
G37*
G36*
X4979Y4755D02*
X4973Y4753D01*
X4968Y4750D01*
X4964Y4745D01*
X4963Y4739D01*
X4964Y4732D01*
X4968Y4727D01*
X4973Y4724D01*
X4979Y4722D01*
X4986Y4724D01*
X4991Y4727D01*
X4994Y4732D01*
X4995Y4739D01*
X4994Y4745D01*
X4991Y4750D01*
X4986Y4753D01*
X4979Y4755D01*
D02*
G37*
G36*
X4900Y4659D02*
X4894Y4658D01*
X4889Y4654D01*
X4885Y4649D01*
X4884Y4643D01*
X4885Y4637D01*
X4889Y4632D01*
X4894Y4628D01*
X4900Y4627D01*
X4906Y4628D01*
X4911Y4632D01*
X4915Y4637D01*
X4916Y4643D01*
X4915Y4649D01*
X4911Y4654D01*
X4906Y4658D01*
X4900Y4659D01*
D02*
G37*
G36*
X4830D02*
X4824Y4658D01*
X4819Y4654D01*
X4815Y4649D01*
X4814Y4643D01*
X4815Y4637D01*
X4819Y4632D01*
X4824Y4628D01*
X4830Y4627D01*
X4836Y4628D01*
X4841Y4632D01*
X4845Y4637D01*
X4846Y4643D01*
X4845Y4649D01*
X4841Y4654D01*
X4836Y4658D01*
X4830Y4659D01*
D02*
G37*
G36*
X5111Y4604D02*
X5105Y4603D01*
X5100Y4599D01*
X5097Y4594D01*
X5095Y4588D01*
X5097Y4582D01*
X5100Y4576D01*
X5105Y4573D01*
X5111Y4572D01*
X5118Y4573D01*
X5123Y4576D01*
X5126Y4582D01*
X5128Y4588D01*
X5126Y4594D01*
X5123Y4599D01*
X5118Y4603D01*
X5111Y4604D01*
D02*
G37*
G36*
X4989D02*
X4983Y4603D01*
X4978Y4599D01*
X4974Y4594D01*
X4973Y4588D01*
X4974Y4582D01*
X4978Y4576D01*
X4983Y4573D01*
X4989Y4572D01*
X4995Y4573D01*
X5000Y4576D01*
X5004Y4582D01*
X5005Y4588D01*
X5004Y4594D01*
X5000Y4599D01*
X4995Y4603D01*
X4989Y4604D01*
D02*
G37*
G36*
X4952D02*
X4945Y4603D01*
X4940Y4599D01*
X4937Y4594D01*
X4935Y4588D01*
X4937Y4582D01*
X4940Y4576D01*
X4945Y4573D01*
X4952Y4572D01*
X4958Y4573D01*
X4963Y4576D01*
X4966Y4582D01*
X4968Y4588D01*
X4966Y4594D01*
X4963Y4599D01*
X4958Y4603D01*
X4952Y4604D01*
D02*
G37*
G36*
X4589Y4599D02*
X4582Y4597D01*
X4577Y4594D01*
X4574Y4589D01*
X4572Y4583D01*
X4574Y4576D01*
X4577Y4571D01*
X4582Y4568D01*
X4589Y4566D01*
X4595Y4568D01*
X4600Y4571D01*
X4603Y4576D01*
X4605Y4583D01*
X4603Y4589D01*
X4600Y4594D01*
X4595Y4597D01*
X4589Y4599D01*
D02*
G37*
G36*
X5111Y4562D02*
X5105Y4561D01*
X5100Y4557D01*
X5097Y4552D01*
X5095Y4546D01*
X5097Y4540D01*
X5100Y4534D01*
X5105Y4531D01*
X5111Y4530D01*
X5118Y4531D01*
X5123Y4534D01*
X5126Y4540D01*
X5128Y4546D01*
X5126Y4552D01*
X5123Y4557D01*
X5118Y4561D01*
X5111Y4562D01*
D02*
G37*
G36*
X4989D02*
X4983Y4561D01*
X4978Y4557D01*
X4974Y4552D01*
X4973Y4546D01*
X4974Y4540D01*
X4978Y4534D01*
X4983Y4531D01*
X4989Y4530D01*
X4995Y4531D01*
X5000Y4534D01*
X5004Y4540D01*
X5005Y4546D01*
X5004Y4552D01*
X5000Y4557D01*
X4995Y4561D01*
X4989Y4562D01*
D02*
G37*
G36*
X4952D02*
X4945Y4561D01*
X4940Y4557D01*
X4937Y4552D01*
X4935Y4546D01*
X4937Y4540D01*
X4940Y4534D01*
X4945Y4531D01*
X4952Y4530D01*
X4958Y4531D01*
X4963Y4534D01*
X4966Y4540D01*
X4968Y4546D01*
X4966Y4552D01*
X4963Y4557D01*
X4958Y4561D01*
X4952Y4562D01*
D02*
G37*
G36*
X9632Y3700D02*
X9626Y3699D01*
X9621Y3695D01*
X9618Y3691D01*
X9616Y3691D01*
X9614D01*
X9612Y3691D01*
X9609Y3695D01*
X9604Y3699D01*
X9598Y3700D01*
X9592Y3699D01*
X9587Y3695D01*
X9583Y3690D01*
X9582Y3684D01*
X9583Y3678D01*
X9587Y3673D01*
X9592Y3669D01*
X9598Y3668D01*
X9604Y3669D01*
X9609Y3673D01*
X9612Y3677D01*
X9614Y3677D01*
X9616D01*
X9618Y3677D01*
X9621Y3673D01*
X9626Y3669D01*
X9632Y3668D01*
X9638Y3669D01*
X9643Y3673D01*
X9647Y3678D01*
X9648Y3684D01*
X9647Y3690D01*
X9643Y3695D01*
X9638Y3699D01*
X9632Y3700D01*
D02*
G37*
G36*
X9598Y3591D02*
X9592Y3590D01*
X9587Y3586D01*
X9583Y3581D01*
X9582Y3575D01*
X9583Y3569D01*
X9587Y3564D01*
X9592Y3560D01*
X9598Y3559D01*
X9604Y3560D01*
X9609Y3564D01*
X9613Y3569D01*
X9614Y3575D01*
X9613Y3581D01*
X9609Y3586D01*
X9604Y3590D01*
X9598Y3591D01*
D02*
G37*
G36*
X9633Y3577D02*
X9627Y3576D01*
X9622Y3573D01*
X9618Y3567D01*
X9617Y3561D01*
X9618Y3555D01*
X9622Y3550D01*
X9627Y3546D01*
X9633Y3545D01*
X9639Y3546D01*
X9644Y3550D01*
X9648Y3555D01*
X9649Y3561D01*
X9648Y3567D01*
X9644Y3573D01*
X9639Y3576D01*
X9633Y3577D01*
D02*
G37*
G36*
X9601Y3523D02*
X9595Y3522D01*
X9590Y3518D01*
X9586Y3513D01*
X9586Y3513D01*
X9581D01*
X9581Y3513D01*
X9577Y3518D01*
X9572Y3522D01*
X9566Y3523D01*
X9560Y3522D01*
X9555Y3518D01*
X9551Y3513D01*
X9550Y3507D01*
X9551Y3501D01*
X9555Y3496D01*
X9560Y3492D01*
X9566Y3491D01*
X9572Y3492D01*
X9577Y3496D01*
X9581Y3501D01*
X9581Y3501D01*
X9586D01*
X9586Y3501D01*
X9590Y3496D01*
X9595Y3492D01*
X9601Y3491D01*
X9607Y3492D01*
X9612Y3496D01*
X9616Y3501D01*
X9617Y3507D01*
X9616Y3513D01*
X9612Y3518D01*
X9607Y3522D01*
X9601Y3523D01*
D02*
G37*
G36*
X9516Y3491D02*
X9510Y3489D01*
X9505Y3486D01*
X9501Y3481D01*
X9500Y3474D01*
X9501Y3468D01*
X9505Y3463D01*
X9510Y3460D01*
X9516Y3458D01*
X9522Y3460D01*
X9528Y3463D01*
X9531Y3468D01*
X9532Y3474D01*
X9531Y3481D01*
X9528Y3486D01*
X9522Y3489D01*
X9516Y3491D01*
D02*
G37*
G36*
X9765Y3486D02*
X9759Y3485D01*
X9754Y3481D01*
X9750Y3476D01*
X9749Y3470D01*
X9750Y3464D01*
X9754Y3459D01*
X9759Y3455D01*
X9765Y3454D01*
X9771Y3455D01*
X9776Y3459D01*
X9780Y3464D01*
X9781Y3470D01*
X9780Y3476D01*
X9776Y3481D01*
X9771Y3485D01*
X9765Y3486D01*
D02*
G37*
G36*
X9579Y3473D02*
X9573Y3472D01*
X9568Y3468D01*
X9564Y3463D01*
X9563Y3457D01*
X9564Y3450D01*
X9568Y3445D01*
X9573Y3442D01*
X9579Y3441D01*
X9585Y3442D01*
X9590Y3445D01*
X9594Y3450D01*
X9595Y3457D01*
X9594Y3463D01*
X9590Y3468D01*
X9585Y3472D01*
X9579Y3473D01*
D02*
G37*
G36*
X9807Y3395D02*
X9801Y3394D01*
X9796Y3390D01*
X9792Y3385D01*
X9791Y3379D01*
X9792Y3373D01*
X9796Y3368D01*
X9801Y3364D01*
X9807Y3363D01*
X9813Y3364D01*
X9818Y3368D01*
X9822Y3373D01*
X9823Y3379D01*
X9822Y3385D01*
X9818Y3390D01*
X9813Y3394D01*
X9807Y3395D01*
D02*
G37*
G36*
X9916Y3328D02*
X9910Y3327D01*
X9905Y3323D01*
X9901Y3319D01*
X9899Y3318D01*
X9896Y3319D01*
X9893Y3323D01*
X9888Y3327D01*
X9882Y3328D01*
X9875Y3327D01*
X9870Y3323D01*
X9867Y3318D01*
X9865Y3312D01*
X9867Y3306D01*
X9870Y3301D01*
X9875Y3297D01*
X9882Y3296D01*
X9888Y3297D01*
X9893Y3301D01*
X9896Y3305D01*
X9899Y3306D01*
X9901Y3305D01*
X9905Y3301D01*
X9910Y3297D01*
X9916Y3296D01*
X9922Y3297D01*
X9927Y3301D01*
X9931Y3306D01*
X9932Y3312D01*
X9931Y3318D01*
X9927Y3323D01*
X9922Y3327D01*
X9916Y3328D01*
D02*
G37*
G36*
X9060Y3073D02*
X9054Y3072D01*
X9049Y3069D01*
X9045Y3063D01*
X9044Y3057D01*
X9045Y3051D01*
X9049Y3046D01*
X9054Y3042D01*
X9060Y3041D01*
X9066Y3042D01*
X9071Y3046D01*
X9075Y3051D01*
X9076Y3057D01*
X9075Y3063D01*
X9071Y3069D01*
X9066Y3072D01*
X9060Y3073D01*
D02*
G37*
G36*
X8400Y3064D02*
X8394Y3062D01*
X8389Y3059D01*
X8385Y3054D01*
X8384Y3048D01*
X8385Y3041D01*
X8389Y3036D01*
X8394Y3033D01*
X8400Y3031D01*
X8406Y3033D01*
X8411Y3036D01*
X8415Y3041D01*
X8416Y3048D01*
X8415Y3054D01*
X8411Y3059D01*
X8406Y3062D01*
X8400Y3064D01*
D02*
G37*
G36*
X8635Y3064D02*
X8629Y3062D01*
X8624Y3059D01*
X8620Y3054D01*
X8619Y3047D01*
X8620Y3041D01*
X8624Y3036D01*
X8629Y3033D01*
X8635Y3031D01*
X8641Y3033D01*
X8646Y3036D01*
X8650Y3041D01*
X8651Y3047D01*
X8650Y3054D01*
X8646Y3059D01*
X8641Y3062D01*
X8635Y3064D01*
D02*
G37*
G36*
X8560D02*
X8554Y3062D01*
X8549Y3059D01*
X8545Y3054D01*
X8544Y3047D01*
X8545Y3041D01*
X8549Y3036D01*
X8554Y3033D01*
X8560Y3031D01*
X8566Y3033D01*
X8571Y3036D01*
X8575Y3041D01*
X8576Y3047D01*
X8575Y3054D01*
X8571Y3059D01*
X8566Y3062D01*
X8560Y3064D01*
D02*
G37*
G36*
X8485D02*
X8479Y3062D01*
X8474Y3059D01*
X8470Y3054D01*
X8469Y3047D01*
X8470Y3041D01*
X8474Y3036D01*
X8479Y3033D01*
X8485Y3031D01*
X8491Y3033D01*
X8496Y3036D01*
X8500Y3041D01*
X8501Y3047D01*
X8500Y3054D01*
X8496Y3059D01*
X8491Y3062D01*
X8485Y3064D01*
D02*
G37*
G36*
X9092Y3029D02*
X9086Y3028D01*
X9081Y3024D01*
X9077Y3019D01*
X9076Y3013D01*
X9077Y3007D01*
X9081Y3002D01*
X9086Y2998D01*
X9092Y2997D01*
X9099Y2998D01*
X9104Y3002D01*
X9107Y3007D01*
X9108Y3013D01*
X9107Y3019D01*
X9104Y3024D01*
X9099Y3028D01*
X9092Y3029D01*
D02*
G37*
G36*
X8542Y2887D02*
X8536Y2886D01*
X8530Y2882D01*
X8527Y2877D01*
X8526Y2871D01*
X8527Y2865D01*
X8530Y2860D01*
X8536Y2856D01*
X8542Y2855D01*
X8548Y2856D01*
X8553Y2860D01*
X8557Y2865D01*
X8558Y2871D01*
X8557Y2877D01*
X8553Y2882D01*
X8548Y2886D01*
X8542Y2887D01*
D02*
G37*
G36*
X8739Y2775D02*
X8733Y2773D01*
X8728Y2770D01*
X8724Y2765D01*
X8723Y2758D01*
X8724Y2752D01*
X8728Y2747D01*
X8733Y2744D01*
X8739Y2742D01*
X8745Y2744D01*
X8751Y2747D01*
X8754Y2752D01*
X8755Y2758D01*
X8754Y2765D01*
X8751Y2770D01*
X8745Y2773D01*
X8739Y2775D01*
D02*
G37*
G36*
X8678D02*
X8672Y2773D01*
X8667Y2770D01*
X8663Y2765D01*
X8662Y2758D01*
X8663Y2752D01*
X8667Y2747D01*
X8672Y2744D01*
X8678Y2742D01*
X8685Y2744D01*
X8690Y2747D01*
X8693Y2752D01*
X8694Y2758D01*
X8693Y2765D01*
X8690Y2770D01*
X8685Y2773D01*
X8678Y2775D01*
D02*
G37*
G36*
X8617D02*
X8611Y2773D01*
X8606Y2770D01*
X8602Y2765D01*
X8601Y2758D01*
X8602Y2752D01*
X8606Y2747D01*
X8611Y2744D01*
X8617Y2742D01*
X8623Y2744D01*
X8629Y2747D01*
X8632Y2752D01*
X8633Y2758D01*
X8632Y2765D01*
X8629Y2770D01*
X8623Y2773D01*
X8617Y2775D01*
D02*
G37*
G36*
X8556D02*
X8550Y2773D01*
X8545Y2770D01*
X8541Y2765D01*
X8540Y2758D01*
X8541Y2752D01*
X8545Y2747D01*
X8550Y2744D01*
X8556Y2742D01*
X8562Y2744D01*
X8568Y2747D01*
X8571Y2752D01*
X8572Y2758D01*
X8571Y2765D01*
X8568Y2770D01*
X8562Y2773D01*
X8556Y2775D01*
D02*
G37*
G36*
X8495D02*
X8489Y2773D01*
X8484Y2770D01*
X8480Y2765D01*
X8479Y2758D01*
X8480Y2752D01*
X8484Y2747D01*
X8489Y2744D01*
X8495Y2742D01*
X8501Y2744D01*
X8507Y2747D01*
X8510Y2752D01*
X8511Y2758D01*
X8510Y2765D01*
X8507Y2770D01*
X8501Y2773D01*
X8495Y2775D01*
D02*
G37*
G36*
X8434D02*
X8428Y2773D01*
X8423Y2770D01*
X8419Y2765D01*
X8418Y2758D01*
X8419Y2752D01*
X8423Y2747D01*
X8428Y2744D01*
X8434Y2742D01*
X8440Y2744D01*
X8446Y2747D01*
X8449Y2752D01*
X8450Y2758D01*
X8449Y2765D01*
X8446Y2770D01*
X8440Y2773D01*
X8434Y2775D01*
D02*
G37*
G36*
X8373D02*
X8367Y2773D01*
X8362Y2770D01*
X8358Y2765D01*
X8357Y2758D01*
X8358Y2752D01*
X8362Y2747D01*
X8367Y2744D01*
X8373Y2742D01*
X8379Y2744D01*
X8385Y2747D01*
X8388Y2752D01*
X8389Y2758D01*
X8388Y2765D01*
X8385Y2770D01*
X8379Y2773D01*
X8373Y2775D01*
D02*
G37*
G36*
X8740Y2735D02*
X8734Y2734D01*
X8728Y2731D01*
X8725Y2725D01*
X8724Y2719D01*
X8725Y2713D01*
X8728Y2708D01*
X8734Y2704D01*
X8740Y2703D01*
X8746Y2704D01*
X8751Y2708D01*
X8755Y2713D01*
X8756Y2719D01*
X8755Y2725D01*
X8751Y2731D01*
X8746Y2734D01*
X8740Y2735D01*
D02*
G37*
G36*
X8679D02*
X8673Y2734D01*
X8667Y2731D01*
X8664Y2725D01*
X8663Y2719D01*
X8664Y2713D01*
X8667Y2708D01*
X8673Y2704D01*
X8679Y2703D01*
X8685Y2704D01*
X8690Y2708D01*
X8694Y2713D01*
X8695Y2719D01*
X8694Y2725D01*
X8690Y2731D01*
X8685Y2734D01*
X8679Y2735D01*
D02*
G37*
G36*
X8618D02*
X8612Y2734D01*
X8606Y2731D01*
X8603Y2725D01*
X8602Y2719D01*
X8603Y2713D01*
X8606Y2708D01*
X8612Y2704D01*
X8618Y2703D01*
X8624Y2704D01*
X8629Y2708D01*
X8633Y2713D01*
X8634Y2719D01*
X8633Y2725D01*
X8629Y2731D01*
X8624Y2734D01*
X8618Y2735D01*
D02*
G37*
G36*
X8557D02*
X8551Y2734D01*
X8545Y2731D01*
X8542Y2725D01*
X8541Y2719D01*
X8542Y2713D01*
X8545Y2708D01*
X8551Y2704D01*
X8557Y2703D01*
X8563Y2704D01*
X8568Y2708D01*
X8572Y2713D01*
X8573Y2719D01*
X8572Y2725D01*
X8568Y2731D01*
X8563Y2734D01*
X8557Y2735D01*
D02*
G37*
G36*
X8496D02*
X8490Y2734D01*
X8484Y2731D01*
X8481Y2725D01*
X8480Y2719D01*
X8481Y2713D01*
X8484Y2708D01*
X8490Y2704D01*
X8496Y2703D01*
X8502Y2704D01*
X8507Y2708D01*
X8511Y2713D01*
X8512Y2719D01*
X8511Y2725D01*
X8507Y2731D01*
X8502Y2734D01*
X8496Y2735D01*
D02*
G37*
G36*
X8435D02*
X8429Y2734D01*
X8423Y2731D01*
X8420Y2725D01*
X8419Y2719D01*
X8420Y2713D01*
X8423Y2708D01*
X8429Y2704D01*
X8435Y2703D01*
X8441Y2704D01*
X8446Y2708D01*
X8450Y2713D01*
X8451Y2719D01*
X8450Y2725D01*
X8446Y2731D01*
X8441Y2734D01*
X8435Y2735D01*
D02*
G37*
G36*
X8374D02*
X8367Y2734D01*
X8362Y2731D01*
X8359Y2725D01*
X8358Y2719D01*
X8359Y2713D01*
X8362Y2708D01*
X8367Y2704D01*
X8374Y2703D01*
X8380Y2704D01*
X8385Y2708D01*
X8389Y2713D01*
X8390Y2719D01*
X8389Y2725D01*
X8385Y2731D01*
X8380Y2734D01*
X8374Y2735D01*
D02*
G37*
G36*
X8740Y2696D02*
X8734Y2695D01*
X8728Y2691D01*
X8725Y2686D01*
X8724Y2680D01*
X8725Y2674D01*
X8728Y2668D01*
X8734Y2665D01*
X8740Y2664D01*
X8746Y2665D01*
X8751Y2668D01*
X8755Y2674D01*
X8756Y2680D01*
X8755Y2686D01*
X8751Y2691D01*
X8746Y2695D01*
X8740Y2696D01*
D02*
G37*
G36*
X8679D02*
X8673Y2695D01*
X8667Y2691D01*
X8664Y2686D01*
X8663Y2680D01*
X8664Y2674D01*
X8667Y2668D01*
X8673Y2665D01*
X8679Y2664D01*
X8685Y2665D01*
X8690Y2668D01*
X8694Y2674D01*
X8695Y2680D01*
X8694Y2686D01*
X8690Y2691D01*
X8685Y2695D01*
X8679Y2696D01*
D02*
G37*
G36*
X8618D02*
X8612Y2695D01*
X8606Y2691D01*
X8603Y2686D01*
X8602Y2680D01*
X8603Y2674D01*
X8606Y2668D01*
X8612Y2665D01*
X8618Y2664D01*
X8624Y2665D01*
X8629Y2668D01*
X8633Y2674D01*
X8634Y2680D01*
X8633Y2686D01*
X8629Y2691D01*
X8624Y2695D01*
X8618Y2696D01*
D02*
G37*
G36*
X8557D02*
X8551Y2695D01*
X8545Y2691D01*
X8542Y2686D01*
X8541Y2680D01*
X8542Y2674D01*
X8545Y2668D01*
X8551Y2665D01*
X8557Y2664D01*
X8563Y2665D01*
X8568Y2668D01*
X8572Y2674D01*
X8573Y2680D01*
X8572Y2686D01*
X8568Y2691D01*
X8563Y2695D01*
X8557Y2696D01*
D02*
G37*
G36*
X8496D02*
X8490Y2695D01*
X8484Y2691D01*
X8481Y2686D01*
X8480Y2680D01*
X8481Y2674D01*
X8484Y2668D01*
X8490Y2665D01*
X8496Y2664D01*
X8502Y2665D01*
X8507Y2668D01*
X8511Y2674D01*
X8512Y2680D01*
X8511Y2686D01*
X8507Y2691D01*
X8502Y2695D01*
X8496Y2696D01*
D02*
G37*
G36*
X8435D02*
X8429Y2695D01*
X8423Y2691D01*
X8420Y2686D01*
X8419Y2680D01*
X8420Y2674D01*
X8423Y2668D01*
X8429Y2665D01*
X8435Y2664D01*
X8441Y2665D01*
X8446Y2668D01*
X8450Y2674D01*
X8451Y2680D01*
X8450Y2686D01*
X8446Y2691D01*
X8441Y2695D01*
X8435Y2696D01*
D02*
G37*
G36*
X8374D02*
X8367Y2695D01*
X8362Y2691D01*
X8359Y2686D01*
X8358Y2680D01*
X8359Y2674D01*
X8362Y2668D01*
X8367Y2665D01*
X8374Y2664D01*
X8380Y2665D01*
X8385Y2668D01*
X8389Y2674D01*
X8390Y2680D01*
X8389Y2686D01*
X8385Y2691D01*
X8380Y2695D01*
X8374Y2696D01*
D02*
G37*
G36*
X8390Y2476D02*
X8384Y2475D01*
X8379Y2472D01*
X8375Y2466D01*
X8374Y2460D01*
X8375Y2454D01*
X8379Y2449D01*
X8384Y2445D01*
X8390Y2444D01*
X8396Y2445D01*
X8401Y2449D01*
X8405Y2454D01*
X8406Y2460D01*
X8405Y2466D01*
X8401Y2472D01*
X8396Y2475D01*
X8390Y2476D01*
D02*
G37*
G36*
X8660Y2448D02*
X8654Y2447D01*
X8649Y2443D01*
X8645Y2438D01*
X8644Y2432D01*
X8645Y2426D01*
X8649Y2421D01*
X8654Y2417D01*
X8660Y2416D01*
X8666Y2417D01*
X8671Y2421D01*
X8675Y2426D01*
X8676Y2432D01*
X8675Y2438D01*
X8671Y2443D01*
X8666Y2447D01*
X8660Y2448D01*
D02*
G37*
G36*
X8510D02*
X8504Y2447D01*
X8499Y2443D01*
X8495Y2438D01*
X8494Y2432D01*
X8495Y2426D01*
X8499Y2421D01*
X8504Y2417D01*
X8510Y2416D01*
X8516Y2417D01*
X8521Y2421D01*
X8525Y2426D01*
X8526Y2432D01*
X8525Y2438D01*
X8521Y2443D01*
X8516Y2447D01*
X8510Y2448D01*
D02*
G37*
G36*
X8700Y2349D02*
X8686Y2347D01*
X8673Y2341D01*
X8662Y2333D01*
X8654Y2322D01*
X8648Y2309D01*
X8646Y2295D01*
X8648Y2281D01*
X8654Y2268D01*
X8662Y2257D01*
X8673Y2249D01*
X8686Y2243D01*
X8700Y2241D01*
X8714Y2243D01*
X8727Y2249D01*
X8738Y2257D01*
X8746Y2268D01*
X8752Y2281D01*
X8754Y2295D01*
X8752Y2309D01*
X8746Y2322D01*
X8738Y2333D01*
X8727Y2341D01*
X8714Y2347D01*
X8700Y2349D01*
D02*
G37*
G36*
X4025Y2021D02*
X4019Y2020D01*
X4014Y2016D01*
X4010Y2011D01*
X4009Y2005D01*
X4010Y1999D01*
X4014Y1994D01*
X4019Y1990D01*
X4025Y1989D01*
X4031Y1990D01*
X4036Y1994D01*
X4040Y1999D01*
X4041Y2005D01*
X4040Y2011D01*
X4036Y2016D01*
X4031Y2020D01*
X4025Y2021D01*
D02*
G37*
G36*
X3911Y1963D02*
X3905Y1962D01*
X3900Y1959D01*
X3897Y1954D01*
X3895Y1947D01*
X3897Y1941D01*
X3900Y1936D01*
X3905Y1932D01*
X3911Y1931D01*
X3918Y1932D01*
X3923Y1936D01*
X3926Y1941D01*
X3928Y1947D01*
X3926Y1954D01*
X3923Y1959D01*
X3918Y1962D01*
X3911Y1963D01*
D02*
G37*
G36*
X3876Y1894D02*
X3870Y1893D01*
X3865Y1889D01*
X3861Y1884D01*
X3860Y1878D01*
X3861Y1871D01*
X3865Y1866D01*
X3870Y1863D01*
X3876Y1861D01*
X3883Y1863D01*
X3888Y1866D01*
X3891Y1871D01*
X3892Y1878D01*
X3891Y1884D01*
X3888Y1889D01*
X3883Y1893D01*
X3876Y1894D01*
D02*
G37*
G36*
Y1826D02*
X3870Y1825D01*
X3865Y1821D01*
X3861Y1816D01*
X3860Y1810D01*
X3861Y1803D01*
X3865Y1798D01*
X3870Y1795D01*
X3876Y1793D01*
X3883Y1795D01*
X3888Y1798D01*
X3891Y1803D01*
X3892Y1810D01*
X3891Y1816D01*
X3888Y1821D01*
X3883Y1825D01*
X3876Y1826D01*
D02*
G37*
G36*
X3185Y1767D02*
X3179Y1766D01*
X3174Y1762D01*
X3170Y1757D01*
X3169Y1751D01*
X3170Y1745D01*
X3174Y1739D01*
X3179Y1736D01*
X3185Y1735D01*
X3191Y1736D01*
X3197Y1739D01*
X3200Y1745D01*
X3201Y1751D01*
X3200Y1757D01*
X3197Y1762D01*
X3191Y1766D01*
X3185Y1767D01*
D02*
G37*
G36*
X3334Y1766D02*
X3328Y1765D01*
X3323Y1761D01*
X3319Y1756D01*
X3318Y1750D01*
X3319Y1744D01*
X3323Y1738D01*
X3328Y1735D01*
X3334Y1734D01*
X3340Y1735D01*
X3346Y1738D01*
X3349Y1744D01*
X3350Y1750D01*
X3349Y1756D01*
X3346Y1761D01*
X3340Y1765D01*
X3334Y1766D01*
D02*
G37*
G36*
X3256Y1766D02*
X3250Y1765D01*
X3245Y1761D01*
X3242Y1756D01*
X3240Y1750D01*
X3242Y1743D01*
X3245Y1738D01*
X3250Y1735D01*
X3256Y1734D01*
X3263Y1735D01*
X3268Y1738D01*
X3271Y1743D01*
X3273Y1750D01*
X3271Y1756D01*
X3268Y1761D01*
X3263Y1765D01*
X3256Y1766D01*
D02*
G37*
G36*
X3435Y1765D02*
X3428Y1764D01*
X3423Y1761D01*
X3420Y1755D01*
X3418Y1749D01*
X3420Y1743D01*
X3423Y1738D01*
X3428Y1734D01*
X3435Y1733D01*
X3441Y1734D01*
X3446Y1738D01*
X3449Y1743D01*
X3451Y1749D01*
X3449Y1755D01*
X3446Y1761D01*
X3441Y1764D01*
X3435Y1765D01*
D02*
G37*
G36*
X3112Y1765D02*
X3106Y1764D01*
X3101Y1760D01*
X3097Y1755D01*
X3096Y1749D01*
X3097Y1743D01*
X3101Y1738D01*
X3106Y1734D01*
X3112Y1733D01*
X3118Y1734D01*
X3123Y1738D01*
X3127Y1743D01*
X3128Y1749D01*
X3127Y1755D01*
X3123Y1760D01*
X3118Y1764D01*
X3112Y1765D01*
D02*
G37*
G36*
X2933Y1765D02*
X2927Y1764D01*
X2922Y1760D01*
X2918Y1755D01*
X2917Y1749D01*
X2918Y1742D01*
X2922Y1737D01*
X2927Y1734D01*
X2933Y1733D01*
X2939Y1734D01*
X2945Y1737D01*
X2948Y1742D01*
X2949Y1749D01*
X2948Y1755D01*
X2945Y1760D01*
X2939Y1764D01*
X2933Y1765D01*
D02*
G37*
G36*
X3033Y1764D02*
X3026Y1763D01*
X3021Y1760D01*
X3018Y1754D01*
X3016Y1748D01*
X3018Y1742D01*
X3021Y1737D01*
X3026Y1733D01*
X3033Y1732D01*
X3039Y1733D01*
X3044Y1737D01*
X3047Y1742D01*
X3049Y1748D01*
X3047Y1754D01*
X3044Y1760D01*
X3039Y1763D01*
X3033Y1764D01*
D02*
G37*
G36*
X2858Y1762D02*
X2851Y1761D01*
X2846Y1758D01*
X2843Y1752D01*
X2842Y1746D01*
X2843Y1740D01*
X2846Y1735D01*
X2851Y1731D01*
X2858Y1730D01*
X2864Y1731D01*
X2869Y1735D01*
X2873Y1740D01*
X2874Y1746D01*
X2873Y1752D01*
X2869Y1758D01*
X2864Y1761D01*
X2858Y1762D01*
D02*
G37*
G36*
X3517Y1762D02*
X3510Y1761D01*
X3505Y1757D01*
X3502Y1752D01*
X3501Y1746D01*
X3502Y1739D01*
X3505Y1734D01*
X3510Y1731D01*
X3517Y1729D01*
X3523Y1731D01*
X3528Y1734D01*
X3532Y1739D01*
X3533Y1746D01*
X3532Y1752D01*
X3528Y1757D01*
X3523Y1761D01*
X3517Y1762D01*
D02*
G37*
G36*
X3557Y1759D02*
X3550Y1758D01*
X3545Y1754D01*
X3542Y1749D01*
X3541Y1743D01*
X3542Y1737D01*
X3545Y1732D01*
X3550Y1728D01*
X3557Y1727D01*
X3563Y1728D01*
X3568Y1732D01*
X3572Y1737D01*
X3573Y1743D01*
X3572Y1749D01*
X3568Y1754D01*
X3563Y1758D01*
X3557Y1759D01*
D02*
G37*
G36*
X1762Y1851D02*
X1748Y1850D01*
X1736Y1846D01*
X1724Y1839D01*
X1713Y1831D01*
X1705Y1821D01*
X1699Y1809D01*
X1695Y1796D01*
X1693Y1783D01*
X1695Y1769D01*
X1699Y1757D01*
X1705Y1745D01*
X1713Y1734D01*
X1724Y1726D01*
X1736Y1720D01*
X1748Y1716D01*
X1762Y1714D01*
X1775Y1716D01*
X1788Y1720D01*
X1800Y1726D01*
X1810Y1734D01*
X1819Y1745D01*
X1825Y1757D01*
X1829Y1769D01*
X1830Y1783D01*
X1829Y1796D01*
X1825Y1809D01*
X1819Y1821D01*
X1810Y1831D01*
X1800Y1839D01*
X1788Y1846D01*
X1775Y1850D01*
X1762Y1851D01*
D02*
G37*
G36*
X3480Y1735D02*
X3474Y1734D01*
X3469Y1731D01*
X3465Y1725D01*
X3464Y1719D01*
X3465Y1713D01*
X3469Y1708D01*
X3474Y1704D01*
X3480Y1703D01*
X3486Y1704D01*
X3491Y1708D01*
X3495Y1713D01*
X3496Y1719D01*
X3495Y1725D01*
X3491Y1731D01*
X3486Y1734D01*
X3480Y1735D01*
D02*
G37*
G36*
X3409Y1735D02*
X3402Y1734D01*
X3397Y1730D01*
X3394Y1725D01*
X3392Y1719D01*
X3394Y1713D01*
X3397Y1708D01*
X3402Y1704D01*
X3409Y1703D01*
X3415Y1704D01*
X3420Y1708D01*
X3424Y1713D01*
X3425Y1719D01*
X3424Y1725D01*
X3420Y1730D01*
X3415Y1734D01*
X3409Y1735D01*
D02*
G37*
G36*
X2959Y1733D02*
X2952Y1732D01*
X2947Y1729D01*
X2944Y1723D01*
X2942Y1717D01*
X2944Y1711D01*
X2947Y1706D01*
X2952Y1702D01*
X2959Y1701D01*
X2965Y1702D01*
X2970Y1706D01*
X2973Y1711D01*
X2975Y1717D01*
X2973Y1723D01*
X2970Y1729D01*
X2965Y1732D01*
X2959Y1733D01*
D02*
G37*
G36*
X2896Y1731D02*
X2889Y1730D01*
X2884Y1726D01*
X2881Y1721D01*
X2879Y1715D01*
X2881Y1709D01*
X2884Y1703D01*
X2889Y1700D01*
X2896Y1699D01*
X2902Y1700D01*
X2907Y1703D01*
X2910Y1709D01*
X2912Y1715D01*
X2910Y1721D01*
X2907Y1726D01*
X2902Y1730D01*
X2896Y1731D01*
D02*
G37*
G36*
X3256Y1724D02*
X3249Y1723D01*
X3244Y1720D01*
X3241Y1714D01*
X3240Y1708D01*
X3241Y1702D01*
X3244Y1697D01*
X3249Y1693D01*
X3256Y1692D01*
X3262Y1693D01*
X3267Y1697D01*
X3271Y1702D01*
X3272Y1708D01*
X3271Y1714D01*
X3267Y1720D01*
X3262Y1723D01*
X3256Y1724D01*
D02*
G37*
G36*
X3109Y1723D02*
X3103Y1722D01*
X3097Y1718D01*
X3094Y1713D01*
X3093Y1707D01*
X3094Y1701D01*
X3097Y1696D01*
X3103Y1692D01*
X3109Y1691D01*
X3115Y1692D01*
X3120Y1696D01*
X3124Y1701D01*
X3125Y1707D01*
X3124Y1713D01*
X3120Y1718D01*
X3115Y1722D01*
X3109Y1723D01*
D02*
G37*
G36*
X3185Y1723D02*
X3179Y1722D01*
X3174Y1718D01*
X3170Y1713D01*
X3169Y1707D01*
X3170Y1701D01*
X3174Y1696D01*
X3179Y1692D01*
X3185Y1691D01*
X3191Y1692D01*
X3197Y1696D01*
X3200Y1701D01*
X3201Y1707D01*
X3200Y1713D01*
X3197Y1718D01*
X3191Y1722D01*
X3185Y1723D01*
D02*
G37*
G36*
X3031Y1722D02*
X3025Y1721D01*
X3020Y1718D01*
X3016Y1712D01*
X3015Y1706D01*
X3016Y1700D01*
X3020Y1695D01*
X3025Y1691D01*
X3031Y1690D01*
X3037Y1691D01*
X3042Y1695D01*
X3046Y1700D01*
X3047Y1706D01*
X3046Y1712D01*
X3042Y1718D01*
X3037Y1721D01*
X3031Y1722D01*
D02*
G37*
G36*
X6813Y1522D02*
X6807Y1521D01*
X6802Y1518D01*
X6798Y1512D01*
X6797Y1506D01*
X6798Y1500D01*
X6802Y1495D01*
X6807Y1491D01*
X6813Y1490D01*
X6819Y1491D01*
X6824Y1495D01*
X6828Y1500D01*
X6829Y1506D01*
X6828Y1512D01*
X6824Y1518D01*
X6819Y1521D01*
X6813Y1522D01*
D02*
G37*
G36*
X6853Y1522D02*
X6847Y1521D01*
X6841Y1518D01*
X6838Y1512D01*
X6837Y1506D01*
X6838Y1500D01*
X6841Y1495D01*
X6847Y1491D01*
X6853Y1490D01*
X6859Y1491D01*
X6864Y1495D01*
X6868Y1500D01*
X6869Y1506D01*
X6868Y1512D01*
X6864Y1518D01*
X6859Y1521D01*
X6853Y1522D01*
D02*
G37*
G36*
X6014Y1404D02*
X6008Y1403D01*
X6002Y1399D01*
X5999Y1394D01*
X5998Y1388D01*
X5999Y1382D01*
X6002Y1376D01*
X6008Y1373D01*
X6014Y1372D01*
X6020Y1373D01*
X6025Y1376D01*
X6029Y1382D01*
X6030Y1388D01*
X6029Y1394D01*
X6025Y1399D01*
X6020Y1403D01*
X6014Y1404D01*
D02*
G37*
G36*
X6250Y1497D02*
X6237Y1495D01*
X6224Y1491D01*
X6212Y1485D01*
X6202Y1477D01*
X6193Y1466D01*
X6187Y1454D01*
X6183Y1442D01*
X6182Y1428D01*
X6183Y1415D01*
X6187Y1402D01*
X6193Y1390D01*
X6202Y1380D01*
X6212Y1372D01*
X6224Y1365D01*
X6237Y1361D01*
X6250Y1360D01*
X6263Y1361D01*
X6276Y1365D01*
X6288Y1372D01*
X6298Y1380D01*
X6307Y1390D01*
X6313Y1402D01*
X6317Y1415D01*
X6318Y1428D01*
X6317Y1442D01*
X6313Y1454D01*
X6307Y1466D01*
X6298Y1477D01*
X6288Y1485D01*
X6276Y1491D01*
X6263Y1495D01*
X6250Y1497D01*
D02*
G37*
G36*
X5484Y1356D02*
X5478Y1355D01*
X5473Y1351D01*
X5469Y1346D01*
X5468Y1340D01*
X5469Y1334D01*
X5473Y1329D01*
X5478Y1325D01*
X5484Y1324D01*
X5490Y1325D01*
X5495Y1329D01*
X5499Y1334D01*
X5500Y1340D01*
X5499Y1346D01*
X5495Y1351D01*
X5490Y1355D01*
X5484Y1356D01*
D02*
G37*
G36*
X4859D02*
X4853Y1355D01*
X4848Y1351D01*
X4844Y1346D01*
X4843Y1340D01*
X4844Y1334D01*
X4848Y1329D01*
X4853Y1325D01*
X4859Y1324D01*
X4865Y1325D01*
X4870Y1329D01*
X4874Y1334D01*
X4875Y1340D01*
X4874Y1346D01*
X4870Y1351D01*
X4865Y1355D01*
X4859Y1356D01*
D02*
G37*
G36*
X4234D02*
X4228Y1355D01*
X4223Y1351D01*
X4219Y1346D01*
X4218Y1340D01*
X4219Y1334D01*
X4223Y1329D01*
X4228Y1325D01*
X4234Y1324D01*
X4240Y1325D01*
X4245Y1329D01*
X4249Y1334D01*
X4250Y1340D01*
X4249Y1346D01*
X4245Y1351D01*
X4240Y1355D01*
X4234Y1356D01*
D02*
G37*
G36*
X3609D02*
X3603Y1355D01*
X3598Y1351D01*
X3594Y1346D01*
X3593Y1340D01*
X3594Y1334D01*
X3598Y1329D01*
X3603Y1325D01*
X3609Y1324D01*
X3615Y1325D01*
X3620Y1329D01*
X3624Y1334D01*
X3625Y1340D01*
X3624Y1346D01*
X3620Y1351D01*
X3615Y1355D01*
X3609Y1356D01*
D02*
G37*
G36*
X2984D02*
X2978Y1355D01*
X2973Y1351D01*
X2969Y1346D01*
X2968Y1340D01*
X2969Y1334D01*
X2973Y1329D01*
X2978Y1325D01*
X2984Y1324D01*
X2990Y1325D01*
X2995Y1329D01*
X2999Y1334D01*
X3000Y1340D01*
X2999Y1346D01*
X2995Y1351D01*
X2990Y1355D01*
X2984Y1356D01*
D02*
G37*
G36*
X2359D02*
X2353Y1355D01*
X2348Y1351D01*
X2344Y1346D01*
X2343Y1340D01*
X2344Y1334D01*
X2348Y1329D01*
X2353Y1325D01*
X2359Y1324D01*
X2365Y1325D01*
X2370Y1329D01*
X2374Y1334D01*
X2375Y1340D01*
X2374Y1346D01*
X2370Y1351D01*
X2365Y1355D01*
X2359Y1356D01*
D02*
G37*
G36*
X1734D02*
X1728Y1355D01*
X1723Y1351D01*
X1719Y1346D01*
X1718Y1340D01*
X1719Y1334D01*
X1723Y1329D01*
X1728Y1325D01*
X1734Y1324D01*
X1740Y1325D01*
X1745Y1329D01*
X1749Y1334D01*
X1750Y1340D01*
X1749Y1346D01*
X1745Y1351D01*
X1740Y1355D01*
X1734Y1356D01*
D02*
G37*
G36*
X1109D02*
X1103Y1355D01*
X1098Y1351D01*
X1094Y1346D01*
X1093Y1340D01*
X1094Y1334D01*
X1098Y1329D01*
X1103Y1325D01*
X1109Y1324D01*
X1115Y1325D01*
X1120Y1329D01*
X1124Y1334D01*
X1125Y1340D01*
X1124Y1346D01*
X1120Y1351D01*
X1115Y1355D01*
X1109Y1356D01*
D02*
G37*
G36*
X5484Y1271D02*
X5478Y1270D01*
X5473Y1266D01*
X5469Y1261D01*
X5468Y1255D01*
X5469Y1249D01*
X5473Y1244D01*
X5478Y1240D01*
X5484Y1239D01*
X5490Y1240D01*
X5495Y1244D01*
X5499Y1249D01*
X5500Y1255D01*
X5499Y1261D01*
X5495Y1266D01*
X5490Y1270D01*
X5484Y1271D01*
D02*
G37*
G36*
X4859D02*
X4853Y1270D01*
X4848Y1266D01*
X4844Y1261D01*
X4843Y1255D01*
X4844Y1249D01*
X4848Y1244D01*
X4853Y1240D01*
X4859Y1239D01*
X4865Y1240D01*
X4870Y1244D01*
X4874Y1249D01*
X4875Y1255D01*
X4874Y1261D01*
X4870Y1266D01*
X4865Y1270D01*
X4859Y1271D01*
D02*
G37*
G36*
X4234D02*
X4228Y1270D01*
X4223Y1266D01*
X4219Y1261D01*
X4218Y1255D01*
X4219Y1249D01*
X4223Y1244D01*
X4228Y1240D01*
X4234Y1239D01*
X4240Y1240D01*
X4245Y1244D01*
X4249Y1249D01*
X4250Y1255D01*
X4249Y1261D01*
X4245Y1266D01*
X4240Y1270D01*
X4234Y1271D01*
D02*
G37*
G36*
X3609D02*
X3603Y1270D01*
X3598Y1266D01*
X3594Y1261D01*
X3593Y1255D01*
X3594Y1249D01*
X3598Y1244D01*
X3603Y1240D01*
X3609Y1239D01*
X3615Y1240D01*
X3620Y1244D01*
X3624Y1249D01*
X3625Y1255D01*
X3624Y1261D01*
X3620Y1266D01*
X3615Y1270D01*
X3609Y1271D01*
D02*
G37*
G36*
X2984D02*
X2978Y1270D01*
X2973Y1266D01*
X2969Y1261D01*
X2968Y1255D01*
X2969Y1249D01*
X2973Y1244D01*
X2978Y1240D01*
X2984Y1239D01*
X2990Y1240D01*
X2995Y1244D01*
X2999Y1249D01*
X3000Y1255D01*
X2999Y1261D01*
X2995Y1266D01*
X2990Y1270D01*
X2984Y1271D01*
D02*
G37*
G36*
X2359D02*
X2353Y1270D01*
X2348Y1266D01*
X2344Y1261D01*
X2343Y1255D01*
X2344Y1249D01*
X2348Y1244D01*
X2353Y1240D01*
X2359Y1239D01*
X2365Y1240D01*
X2370Y1244D01*
X2374Y1249D01*
X2375Y1255D01*
X2374Y1261D01*
X2370Y1266D01*
X2365Y1270D01*
X2359Y1271D01*
D02*
G37*
G36*
X1734D02*
X1728Y1270D01*
X1723Y1266D01*
X1719Y1261D01*
X1718Y1255D01*
X1719Y1249D01*
X1723Y1244D01*
X1728Y1240D01*
X1734Y1239D01*
X1740Y1240D01*
X1745Y1244D01*
X1749Y1249D01*
X1750Y1255D01*
X1749Y1261D01*
X1745Y1266D01*
X1740Y1270D01*
X1734Y1271D01*
D02*
G37*
G36*
X1109D02*
X1103Y1270D01*
X1098Y1266D01*
X1094Y1261D01*
X1093Y1255D01*
X1094Y1249D01*
X1098Y1244D01*
X1103Y1240D01*
X1109Y1239D01*
X1115Y1240D01*
X1120Y1244D01*
X1124Y1249D01*
X1125Y1255D01*
X1124Y1261D01*
X1120Y1266D01*
X1115Y1270D01*
X1109Y1271D01*
D02*
G37*
G36*
X5283Y1223D02*
X5277Y1222D01*
X5272Y1218D01*
X5268Y1213D01*
X5267Y1207D01*
X5268Y1201D01*
X5272Y1196D01*
X5277Y1192D01*
X5283Y1191D01*
X5289Y1192D01*
X5294Y1196D01*
X5298Y1201D01*
X5299Y1207D01*
X5298Y1213D01*
X5294Y1218D01*
X5289Y1222D01*
X5283Y1223D01*
D02*
G37*
G36*
X5237D02*
X5231Y1222D01*
X5226Y1218D01*
X5222Y1213D01*
X5221Y1207D01*
X5222Y1201D01*
X5226Y1196D01*
X5231Y1192D01*
X5237Y1191D01*
X5243Y1192D01*
X5248Y1196D01*
X5252Y1201D01*
X5253Y1207D01*
X5252Y1213D01*
X5248Y1218D01*
X5243Y1222D01*
X5237Y1223D01*
D02*
G37*
G36*
X4658D02*
X4652Y1222D01*
X4647Y1218D01*
X4643Y1213D01*
X4642Y1207D01*
X4643Y1201D01*
X4647Y1196D01*
X4652Y1192D01*
X4658Y1191D01*
X4664Y1192D01*
X4669Y1196D01*
X4673Y1201D01*
X4674Y1207D01*
X4673Y1213D01*
X4669Y1218D01*
X4664Y1222D01*
X4658Y1223D01*
D02*
G37*
G36*
X4612D02*
X4606Y1222D01*
X4601Y1218D01*
X4597Y1213D01*
X4596Y1207D01*
X4597Y1201D01*
X4601Y1196D01*
X4606Y1192D01*
X4612Y1191D01*
X4618Y1192D01*
X4623Y1196D01*
X4627Y1201D01*
X4628Y1207D01*
X4627Y1213D01*
X4623Y1218D01*
X4618Y1222D01*
X4612Y1223D01*
D02*
G37*
G36*
X4033D02*
X4027Y1222D01*
X4022Y1218D01*
X4018Y1213D01*
X4017Y1207D01*
X4018Y1201D01*
X4022Y1196D01*
X4027Y1192D01*
X4033Y1191D01*
X4039Y1192D01*
X4044Y1196D01*
X4048Y1201D01*
X4049Y1207D01*
X4048Y1213D01*
X4044Y1218D01*
X4039Y1222D01*
X4033Y1223D01*
D02*
G37*
G36*
X3987D02*
X3981Y1222D01*
X3976Y1218D01*
X3972Y1213D01*
X3971Y1207D01*
X3972Y1201D01*
X3976Y1196D01*
X3981Y1192D01*
X3987Y1191D01*
X3993Y1192D01*
X3998Y1196D01*
X4002Y1201D01*
X4003Y1207D01*
X4002Y1213D01*
X3998Y1218D01*
X3993Y1222D01*
X3987Y1223D01*
D02*
G37*
G36*
X3408D02*
X3402Y1222D01*
X3397Y1218D01*
X3393Y1213D01*
X3392Y1207D01*
X3393Y1201D01*
X3397Y1196D01*
X3402Y1192D01*
X3408Y1191D01*
X3414Y1192D01*
X3419Y1196D01*
X3423Y1201D01*
X3424Y1207D01*
X3423Y1213D01*
X3419Y1218D01*
X3414Y1222D01*
X3408Y1223D01*
D02*
G37*
G36*
X3362D02*
X3356Y1222D01*
X3351Y1218D01*
X3347Y1213D01*
X3346Y1207D01*
X3347Y1201D01*
X3351Y1196D01*
X3356Y1192D01*
X3362Y1191D01*
X3368Y1192D01*
X3373Y1196D01*
X3377Y1201D01*
X3378Y1207D01*
X3377Y1213D01*
X3373Y1218D01*
X3368Y1222D01*
X3362Y1223D01*
D02*
G37*
G36*
X2783D02*
X2777Y1222D01*
X2772Y1218D01*
X2768Y1213D01*
X2767Y1207D01*
X2768Y1201D01*
X2772Y1196D01*
X2777Y1192D01*
X2783Y1191D01*
X2789Y1192D01*
X2794Y1196D01*
X2798Y1201D01*
X2799Y1207D01*
X2798Y1213D01*
X2794Y1218D01*
X2789Y1222D01*
X2783Y1223D01*
D02*
G37*
G36*
X2737D02*
X2731Y1222D01*
X2726Y1218D01*
X2722Y1213D01*
X2721Y1207D01*
X2722Y1201D01*
X2726Y1196D01*
X2731Y1192D01*
X2737Y1191D01*
X2743Y1192D01*
X2748Y1196D01*
X2752Y1201D01*
X2753Y1207D01*
X2752Y1213D01*
X2748Y1218D01*
X2743Y1222D01*
X2737Y1223D01*
D02*
G37*
G36*
X2158D02*
X2152Y1222D01*
X2147Y1218D01*
X2143Y1213D01*
X2142Y1207D01*
X2143Y1201D01*
X2147Y1196D01*
X2152Y1192D01*
X2158Y1191D01*
X2164Y1192D01*
X2169Y1196D01*
X2173Y1201D01*
X2174Y1207D01*
X2173Y1213D01*
X2169Y1218D01*
X2164Y1222D01*
X2158Y1223D01*
D02*
G37*
G36*
X2112D02*
X2106Y1222D01*
X2101Y1218D01*
X2097Y1213D01*
X2096Y1207D01*
X2097Y1201D01*
X2101Y1196D01*
X2106Y1192D01*
X2112Y1191D01*
X2118Y1192D01*
X2123Y1196D01*
X2127Y1201D01*
X2128Y1207D01*
X2127Y1213D01*
X2123Y1218D01*
X2118Y1222D01*
X2112Y1223D01*
D02*
G37*
G36*
X1533D02*
X1527Y1222D01*
X1522Y1218D01*
X1518Y1213D01*
X1517Y1207D01*
X1518Y1201D01*
X1522Y1196D01*
X1527Y1192D01*
X1533Y1191D01*
X1539Y1192D01*
X1544Y1196D01*
X1548Y1201D01*
X1549Y1207D01*
X1548Y1213D01*
X1544Y1218D01*
X1539Y1222D01*
X1533Y1223D01*
D02*
G37*
G36*
X1487D02*
X1481Y1222D01*
X1476Y1218D01*
X1472Y1213D01*
X1471Y1207D01*
X1472Y1201D01*
X1476Y1196D01*
X1481Y1192D01*
X1487Y1191D01*
X1493Y1192D01*
X1498Y1196D01*
X1502Y1201D01*
X1503Y1207D01*
X1502Y1213D01*
X1498Y1218D01*
X1493Y1222D01*
X1487Y1223D01*
D02*
G37*
G36*
X908D02*
X902Y1222D01*
X897Y1218D01*
X893Y1213D01*
X892Y1207D01*
X893Y1201D01*
X897Y1196D01*
X902Y1192D01*
X908Y1191D01*
X914Y1192D01*
X919Y1196D01*
X923Y1201D01*
X924Y1207D01*
X923Y1213D01*
X919Y1218D01*
X914Y1222D01*
X908Y1223D01*
D02*
G37*
G36*
X862D02*
X856Y1222D01*
X851Y1218D01*
X847Y1213D01*
X846Y1207D01*
X847Y1201D01*
X851Y1196D01*
X856Y1192D01*
X862Y1191D01*
X868Y1192D01*
X873Y1196D01*
X877Y1201D01*
X878Y1207D01*
X877Y1213D01*
X873Y1218D01*
X868Y1222D01*
X862Y1223D01*
D02*
G37*
G36*
X5457Y1206D02*
X5450Y1205D01*
X5445Y1201D01*
X5442Y1196D01*
X5440Y1190D01*
X5442Y1184D01*
X5445Y1179D01*
X5450Y1175D01*
X5457Y1174D01*
X5463Y1175D01*
X5468Y1179D01*
X5472Y1184D01*
X5473Y1190D01*
X5472Y1196D01*
X5468Y1201D01*
X5463Y1205D01*
X5457Y1206D01*
D02*
G37*
G36*
X4832D02*
X4825Y1205D01*
X4820Y1201D01*
X4817Y1196D01*
X4815Y1190D01*
X4817Y1184D01*
X4820Y1179D01*
X4825Y1175D01*
X4832Y1174D01*
X4838Y1175D01*
X4843Y1179D01*
X4847Y1184D01*
X4848Y1190D01*
X4847Y1196D01*
X4843Y1201D01*
X4838Y1205D01*
X4832Y1206D01*
D02*
G37*
G36*
X4207D02*
X4200Y1205D01*
X4195Y1201D01*
X4192Y1196D01*
X4190Y1190D01*
X4192Y1184D01*
X4195Y1179D01*
X4200Y1175D01*
X4207Y1174D01*
X4213Y1175D01*
X4218Y1179D01*
X4222Y1184D01*
X4223Y1190D01*
X4222Y1196D01*
X4218Y1201D01*
X4213Y1205D01*
X4207Y1206D01*
D02*
G37*
G36*
X3582D02*
X3575Y1205D01*
X3570Y1201D01*
X3567Y1196D01*
X3565Y1190D01*
X3567Y1184D01*
X3570Y1179D01*
X3575Y1175D01*
X3582Y1174D01*
X3588Y1175D01*
X3593Y1179D01*
X3597Y1184D01*
X3598Y1190D01*
X3597Y1196D01*
X3593Y1201D01*
X3588Y1205D01*
X3582Y1206D01*
D02*
G37*
G36*
X2957D02*
X2950Y1205D01*
X2945Y1201D01*
X2942Y1196D01*
X2940Y1190D01*
X2942Y1184D01*
X2945Y1179D01*
X2950Y1175D01*
X2957Y1174D01*
X2963Y1175D01*
X2968Y1179D01*
X2972Y1184D01*
X2973Y1190D01*
X2972Y1196D01*
X2968Y1201D01*
X2963Y1205D01*
X2957Y1206D01*
D02*
G37*
G36*
X2332D02*
X2325Y1205D01*
X2320Y1201D01*
X2317Y1196D01*
X2315Y1190D01*
X2317Y1184D01*
X2320Y1179D01*
X2325Y1175D01*
X2332Y1174D01*
X2338Y1175D01*
X2343Y1179D01*
X2347Y1184D01*
X2348Y1190D01*
X2347Y1196D01*
X2343Y1201D01*
X2338Y1205D01*
X2332Y1206D01*
D02*
G37*
G36*
X1707D02*
X1700Y1205D01*
X1695Y1201D01*
X1692Y1196D01*
X1690Y1190D01*
X1692Y1184D01*
X1695Y1179D01*
X1700Y1175D01*
X1707Y1174D01*
X1713Y1175D01*
X1718Y1179D01*
X1722Y1184D01*
X1723Y1190D01*
X1722Y1196D01*
X1718Y1201D01*
X1713Y1205D01*
X1707Y1206D01*
D02*
G37*
G36*
X1082D02*
X1075Y1205D01*
X1070Y1201D01*
X1067Y1196D01*
X1065Y1190D01*
X1067Y1184D01*
X1070Y1179D01*
X1075Y1175D01*
X1082Y1174D01*
X1088Y1175D01*
X1093Y1179D01*
X1097Y1184D01*
X1098Y1190D01*
X1097Y1196D01*
X1093Y1201D01*
X1088Y1205D01*
X1082Y1206D01*
D02*
G37*
G36*
X5457Y1161D02*
X5450Y1160D01*
X5445Y1156D01*
X5442Y1151D01*
X5440Y1145D01*
X5442Y1139D01*
X5445Y1134D01*
X5450Y1130D01*
X5457Y1129D01*
X5463Y1130D01*
X5468Y1134D01*
X5472Y1139D01*
X5473Y1145D01*
X5472Y1151D01*
X5468Y1156D01*
X5463Y1160D01*
X5457Y1161D01*
D02*
G37*
G36*
X4832D02*
X4825Y1160D01*
X4820Y1156D01*
X4817Y1151D01*
X4815Y1145D01*
X4817Y1139D01*
X4820Y1134D01*
X4825Y1130D01*
X4832Y1129D01*
X4838Y1130D01*
X4843Y1134D01*
X4847Y1139D01*
X4848Y1145D01*
X4847Y1151D01*
X4843Y1156D01*
X4838Y1160D01*
X4832Y1161D01*
D02*
G37*
G36*
X4207D02*
X4200Y1160D01*
X4195Y1156D01*
X4192Y1151D01*
X4190Y1145D01*
X4192Y1139D01*
X4195Y1134D01*
X4200Y1130D01*
X4207Y1129D01*
X4213Y1130D01*
X4218Y1134D01*
X4222Y1139D01*
X4223Y1145D01*
X4222Y1151D01*
X4218Y1156D01*
X4213Y1160D01*
X4207Y1161D01*
D02*
G37*
G36*
X3582D02*
X3575Y1160D01*
X3570Y1156D01*
X3567Y1151D01*
X3565Y1145D01*
X3567Y1139D01*
X3570Y1134D01*
X3575Y1130D01*
X3582Y1129D01*
X3588Y1130D01*
X3593Y1134D01*
X3597Y1139D01*
X3598Y1145D01*
X3597Y1151D01*
X3593Y1156D01*
X3588Y1160D01*
X3582Y1161D01*
D02*
G37*
G36*
X2957D02*
X2950Y1160D01*
X2945Y1156D01*
X2942Y1151D01*
X2940Y1145D01*
X2942Y1139D01*
X2945Y1134D01*
X2950Y1130D01*
X2957Y1129D01*
X2963Y1130D01*
X2968Y1134D01*
X2972Y1139D01*
X2973Y1145D01*
X2972Y1151D01*
X2968Y1156D01*
X2963Y1160D01*
X2957Y1161D01*
D02*
G37*
G36*
X2332D02*
X2325Y1160D01*
X2320Y1156D01*
X2317Y1151D01*
X2315Y1145D01*
X2317Y1139D01*
X2320Y1134D01*
X2325Y1130D01*
X2332Y1129D01*
X2338Y1130D01*
X2343Y1134D01*
X2347Y1139D01*
X2348Y1145D01*
X2347Y1151D01*
X2343Y1156D01*
X2338Y1160D01*
X2332Y1161D01*
D02*
G37*
G36*
X1707D02*
X1700Y1160D01*
X1695Y1156D01*
X1692Y1151D01*
X1690Y1145D01*
X1692Y1139D01*
X1695Y1134D01*
X1700Y1130D01*
X1707Y1129D01*
X1713Y1130D01*
X1718Y1134D01*
X1722Y1139D01*
X1723Y1145D01*
X1722Y1151D01*
X1718Y1156D01*
X1713Y1160D01*
X1707Y1161D01*
D02*
G37*
G36*
X1082D02*
X1075Y1160D01*
X1070Y1156D01*
X1067Y1151D01*
X1065Y1145D01*
X1067Y1139D01*
X1070Y1134D01*
X1075Y1130D01*
X1082Y1129D01*
X1088Y1130D01*
X1093Y1134D01*
X1097Y1139D01*
X1098Y1145D01*
X1097Y1151D01*
X1093Y1156D01*
X1088Y1160D01*
X1082Y1161D01*
D02*
G37*
G36*
X5280Y1159D02*
X5274Y1158D01*
X5269Y1154D01*
X5265Y1149D01*
X5264Y1143D01*
X5265Y1137D01*
X5269Y1132D01*
X5274Y1128D01*
X5280Y1127D01*
X5286Y1128D01*
X5291Y1132D01*
X5295Y1137D01*
X5296Y1143D01*
X5295Y1149D01*
X5291Y1154D01*
X5286Y1158D01*
X5280Y1159D01*
D02*
G37*
G36*
X5240D02*
X5234Y1158D01*
X5229Y1154D01*
X5225Y1149D01*
X5224Y1143D01*
X5225Y1137D01*
X5229Y1132D01*
X5234Y1128D01*
X5240Y1127D01*
X5246Y1128D01*
X5251Y1132D01*
X5255Y1137D01*
X5256Y1143D01*
X5255Y1149D01*
X5251Y1154D01*
X5246Y1158D01*
X5240Y1159D01*
D02*
G37*
G36*
X4655D02*
X4649Y1158D01*
X4644Y1154D01*
X4640Y1149D01*
X4639Y1143D01*
X4640Y1137D01*
X4644Y1132D01*
X4649Y1128D01*
X4655Y1127D01*
X4661Y1128D01*
X4666Y1132D01*
X4670Y1137D01*
X4671Y1143D01*
X4670Y1149D01*
X4666Y1154D01*
X4661Y1158D01*
X4655Y1159D01*
D02*
G37*
G36*
X4615D02*
X4609Y1158D01*
X4604Y1154D01*
X4600Y1149D01*
X4599Y1143D01*
X4600Y1137D01*
X4604Y1132D01*
X4609Y1128D01*
X4615Y1127D01*
X4621Y1128D01*
X4626Y1132D01*
X4630Y1137D01*
X4631Y1143D01*
X4630Y1149D01*
X4626Y1154D01*
X4621Y1158D01*
X4615Y1159D01*
D02*
G37*
G36*
X4030D02*
X4024Y1158D01*
X4019Y1154D01*
X4015Y1149D01*
X4014Y1143D01*
X4015Y1137D01*
X4019Y1132D01*
X4024Y1128D01*
X4030Y1127D01*
X4036Y1128D01*
X4041Y1132D01*
X4045Y1137D01*
X4046Y1143D01*
X4045Y1149D01*
X4041Y1154D01*
X4036Y1158D01*
X4030Y1159D01*
D02*
G37*
G36*
X3990D02*
X3984Y1158D01*
X3979Y1154D01*
X3975Y1149D01*
X3974Y1143D01*
X3975Y1137D01*
X3979Y1132D01*
X3984Y1128D01*
X3990Y1127D01*
X3996Y1128D01*
X4001Y1132D01*
X4005Y1137D01*
X4006Y1143D01*
X4005Y1149D01*
X4001Y1154D01*
X3996Y1158D01*
X3990Y1159D01*
D02*
G37*
G36*
X3405D02*
X3399Y1158D01*
X3394Y1154D01*
X3390Y1149D01*
X3389Y1143D01*
X3390Y1137D01*
X3394Y1132D01*
X3399Y1128D01*
X3405Y1127D01*
X3411Y1128D01*
X3416Y1132D01*
X3420Y1137D01*
X3421Y1143D01*
X3420Y1149D01*
X3416Y1154D01*
X3411Y1158D01*
X3405Y1159D01*
D02*
G37*
G36*
X3365D02*
X3359Y1158D01*
X3354Y1154D01*
X3350Y1149D01*
X3349Y1143D01*
X3350Y1137D01*
X3354Y1132D01*
X3359Y1128D01*
X3365Y1127D01*
X3371Y1128D01*
X3376Y1132D01*
X3380Y1137D01*
X3381Y1143D01*
X3380Y1149D01*
X3376Y1154D01*
X3371Y1158D01*
X3365Y1159D01*
D02*
G37*
G36*
X2780D02*
X2774Y1158D01*
X2769Y1154D01*
X2765Y1149D01*
X2764Y1143D01*
X2765Y1137D01*
X2769Y1132D01*
X2774Y1128D01*
X2780Y1127D01*
X2786Y1128D01*
X2791Y1132D01*
X2795Y1137D01*
X2796Y1143D01*
X2795Y1149D01*
X2791Y1154D01*
X2786Y1158D01*
X2780Y1159D01*
D02*
G37*
G36*
X2740D02*
X2734Y1158D01*
X2729Y1154D01*
X2725Y1149D01*
X2724Y1143D01*
X2725Y1137D01*
X2729Y1132D01*
X2734Y1128D01*
X2740Y1127D01*
X2746Y1128D01*
X2751Y1132D01*
X2755Y1137D01*
X2756Y1143D01*
X2755Y1149D01*
X2751Y1154D01*
X2746Y1158D01*
X2740Y1159D01*
D02*
G37*
G36*
X2155D02*
X2149Y1158D01*
X2144Y1154D01*
X2140Y1149D01*
X2139Y1143D01*
X2140Y1137D01*
X2144Y1132D01*
X2149Y1128D01*
X2155Y1127D01*
X2161Y1128D01*
X2166Y1132D01*
X2170Y1137D01*
X2171Y1143D01*
X2170Y1149D01*
X2166Y1154D01*
X2161Y1158D01*
X2155Y1159D01*
D02*
G37*
G36*
X2115D02*
X2109Y1158D01*
X2104Y1154D01*
X2100Y1149D01*
X2099Y1143D01*
X2100Y1137D01*
X2104Y1132D01*
X2109Y1128D01*
X2115Y1127D01*
X2121Y1128D01*
X2126Y1132D01*
X2130Y1137D01*
X2131Y1143D01*
X2130Y1149D01*
X2126Y1154D01*
X2121Y1158D01*
X2115Y1159D01*
D02*
G37*
G36*
X1530D02*
X1524Y1158D01*
X1519Y1154D01*
X1515Y1149D01*
X1514Y1143D01*
X1515Y1137D01*
X1519Y1132D01*
X1524Y1128D01*
X1530Y1127D01*
X1536Y1128D01*
X1541Y1132D01*
X1545Y1137D01*
X1546Y1143D01*
X1545Y1149D01*
X1541Y1154D01*
X1536Y1158D01*
X1530Y1159D01*
D02*
G37*
G36*
X1490D02*
X1484Y1158D01*
X1479Y1154D01*
X1475Y1149D01*
X1474Y1143D01*
X1475Y1137D01*
X1479Y1132D01*
X1484Y1128D01*
X1490Y1127D01*
X1496Y1128D01*
X1501Y1132D01*
X1505Y1137D01*
X1506Y1143D01*
X1505Y1149D01*
X1501Y1154D01*
X1496Y1158D01*
X1490Y1159D01*
D02*
G37*
G36*
X905D02*
X899Y1158D01*
X894Y1154D01*
X890Y1149D01*
X889Y1143D01*
X890Y1137D01*
X894Y1132D01*
X899Y1128D01*
X905Y1127D01*
X911Y1128D01*
X916Y1132D01*
X920Y1137D01*
X921Y1143D01*
X920Y1149D01*
X916Y1154D01*
X911Y1158D01*
X905Y1159D01*
D02*
G37*
G36*
X865D02*
X859Y1158D01*
X854Y1154D01*
X850Y1149D01*
X849Y1143D01*
X850Y1137D01*
X854Y1132D01*
X859Y1128D01*
X865Y1127D01*
X871Y1128D01*
X876Y1132D01*
X880Y1137D01*
X881Y1143D01*
X880Y1149D01*
X876Y1154D01*
X871Y1158D01*
X865Y1159D01*
D02*
G37*
G36*
X5317Y1129D02*
X5311Y1128D01*
X5306Y1124D01*
X5302Y1119D01*
X5301Y1113D01*
X5302Y1107D01*
X5306Y1102D01*
X5311Y1098D01*
X5317Y1097D01*
X5323Y1098D01*
X5329Y1102D01*
X5332Y1107D01*
X5333Y1113D01*
X5332Y1119D01*
X5329Y1124D01*
X5323Y1128D01*
X5317Y1129D01*
D02*
G37*
G36*
X5203D02*
X5197Y1128D01*
X5191Y1124D01*
X5188Y1119D01*
X5187Y1113D01*
X5188Y1107D01*
X5191Y1102D01*
X5197Y1098D01*
X5203Y1097D01*
X5209Y1098D01*
X5214Y1102D01*
X5218Y1107D01*
X5219Y1113D01*
X5218Y1119D01*
X5214Y1124D01*
X5209Y1128D01*
X5203Y1129D01*
D02*
G37*
G36*
X4692D02*
X4686Y1128D01*
X4681Y1124D01*
X4677Y1119D01*
X4676Y1113D01*
X4677Y1107D01*
X4681Y1102D01*
X4686Y1098D01*
X4692Y1097D01*
X4698Y1098D01*
X4704Y1102D01*
X4707Y1107D01*
X4708Y1113D01*
X4707Y1119D01*
X4704Y1124D01*
X4698Y1128D01*
X4692Y1129D01*
D02*
G37*
G36*
X4578D02*
X4572Y1128D01*
X4566Y1124D01*
X4563Y1119D01*
X4562Y1113D01*
X4563Y1107D01*
X4566Y1102D01*
X4572Y1098D01*
X4578Y1097D01*
X4584Y1098D01*
X4589Y1102D01*
X4593Y1107D01*
X4594Y1113D01*
X4593Y1119D01*
X4589Y1124D01*
X4584Y1128D01*
X4578Y1129D01*
D02*
G37*
G36*
X4067D02*
X4061Y1128D01*
X4056Y1124D01*
X4052Y1119D01*
X4051Y1113D01*
X4052Y1107D01*
X4056Y1102D01*
X4061Y1098D01*
X4067Y1097D01*
X4073Y1098D01*
X4079Y1102D01*
X4082Y1107D01*
X4083Y1113D01*
X4082Y1119D01*
X4079Y1124D01*
X4073Y1128D01*
X4067Y1129D01*
D02*
G37*
G36*
X3953D02*
X3947Y1128D01*
X3941Y1124D01*
X3938Y1119D01*
X3937Y1113D01*
X3938Y1107D01*
X3941Y1102D01*
X3947Y1098D01*
X3953Y1097D01*
X3959Y1098D01*
X3964Y1102D01*
X3968Y1107D01*
X3969Y1113D01*
X3968Y1119D01*
X3964Y1124D01*
X3959Y1128D01*
X3953Y1129D01*
D02*
G37*
G36*
X3442D02*
X3436Y1128D01*
X3431Y1124D01*
X3427Y1119D01*
X3426Y1113D01*
X3427Y1107D01*
X3431Y1102D01*
X3436Y1098D01*
X3442Y1097D01*
X3448Y1098D01*
X3454Y1102D01*
X3457Y1107D01*
X3458Y1113D01*
X3457Y1119D01*
X3454Y1124D01*
X3448Y1128D01*
X3442Y1129D01*
D02*
G37*
G36*
X3328D02*
X3322Y1128D01*
X3316Y1124D01*
X3313Y1119D01*
X3312Y1113D01*
X3313Y1107D01*
X3316Y1102D01*
X3322Y1098D01*
X3328Y1097D01*
X3334Y1098D01*
X3339Y1102D01*
X3343Y1107D01*
X3344Y1113D01*
X3343Y1119D01*
X3339Y1124D01*
X3334Y1128D01*
X3328Y1129D01*
D02*
G37*
G36*
X2817D02*
X2811Y1128D01*
X2806Y1124D01*
X2802Y1119D01*
X2801Y1113D01*
X2802Y1107D01*
X2806Y1102D01*
X2811Y1098D01*
X2817Y1097D01*
X2823Y1098D01*
X2829Y1102D01*
X2832Y1107D01*
X2833Y1113D01*
X2832Y1119D01*
X2829Y1124D01*
X2823Y1128D01*
X2817Y1129D01*
D02*
G37*
G36*
X2703D02*
X2697Y1128D01*
X2691Y1124D01*
X2688Y1119D01*
X2687Y1113D01*
X2688Y1107D01*
X2691Y1102D01*
X2697Y1098D01*
X2703Y1097D01*
X2709Y1098D01*
X2714Y1102D01*
X2718Y1107D01*
X2719Y1113D01*
X2718Y1119D01*
X2714Y1124D01*
X2709Y1128D01*
X2703Y1129D01*
D02*
G37*
G36*
X2192D02*
X2186Y1128D01*
X2181Y1124D01*
X2177Y1119D01*
X2176Y1113D01*
X2177Y1107D01*
X2181Y1102D01*
X2186Y1098D01*
X2192Y1097D01*
X2198Y1098D01*
X2204Y1102D01*
X2207Y1107D01*
X2208Y1113D01*
X2207Y1119D01*
X2204Y1124D01*
X2198Y1128D01*
X2192Y1129D01*
D02*
G37*
G36*
X2078D02*
X2072Y1128D01*
X2066Y1124D01*
X2063Y1119D01*
X2062Y1113D01*
X2063Y1107D01*
X2066Y1102D01*
X2072Y1098D01*
X2078Y1097D01*
X2084Y1098D01*
X2089Y1102D01*
X2093Y1107D01*
X2094Y1113D01*
X2093Y1119D01*
X2089Y1124D01*
X2084Y1128D01*
X2078Y1129D01*
D02*
G37*
G36*
X1567D02*
X1561Y1128D01*
X1556Y1124D01*
X1552Y1119D01*
X1551Y1113D01*
X1552Y1107D01*
X1556Y1102D01*
X1561Y1098D01*
X1567Y1097D01*
X1573Y1098D01*
X1579Y1102D01*
X1582Y1107D01*
X1583Y1113D01*
X1582Y1119D01*
X1579Y1124D01*
X1573Y1128D01*
X1567Y1129D01*
D02*
G37*
G36*
X1453D02*
X1447Y1128D01*
X1441Y1124D01*
X1438Y1119D01*
X1437Y1113D01*
X1438Y1107D01*
X1441Y1102D01*
X1447Y1098D01*
X1453Y1097D01*
X1459Y1098D01*
X1464Y1102D01*
X1468Y1107D01*
X1469Y1113D01*
X1468Y1119D01*
X1464Y1124D01*
X1459Y1128D01*
X1453Y1129D01*
D02*
G37*
G36*
X942D02*
X936Y1128D01*
X931Y1124D01*
X927Y1119D01*
X926Y1113D01*
X927Y1107D01*
X931Y1102D01*
X936Y1098D01*
X942Y1097D01*
X948Y1098D01*
X954Y1102D01*
X957Y1107D01*
X958Y1113D01*
X957Y1119D01*
X954Y1124D01*
X948Y1128D01*
X942Y1129D01*
D02*
G37*
G36*
X828D02*
X822Y1128D01*
X816Y1124D01*
X813Y1119D01*
X812Y1113D01*
X813Y1107D01*
X816Y1102D01*
X822Y1098D01*
X828Y1097D01*
X834Y1098D01*
X839Y1102D01*
X843Y1107D01*
X844Y1113D01*
X843Y1119D01*
X839Y1124D01*
X834Y1128D01*
X828Y1129D01*
D02*
G37*
G36*
X7475Y3481D02*
X7469Y3479D01*
X7464Y3476D01*
X7460Y3471D01*
X7459Y3464D01*
X7460Y3458D01*
X7464Y3453D01*
X7469Y3450D01*
X7475Y3448D01*
X7481Y3450D01*
X7486Y3453D01*
X7490Y3458D01*
X7491Y3464D01*
X7490Y3471D01*
X7486Y3476D01*
X7481Y3479D01*
X7475Y3481D01*
D02*
G37*
G36*
X7425Y3481D02*
X7419Y3479D01*
X7414Y3476D01*
X7410Y3471D01*
X7409Y3464D01*
X7410Y3458D01*
X7414Y3453D01*
X7419Y3450D01*
X7425Y3448D01*
X7431Y3450D01*
X7436Y3453D01*
X7440Y3458D01*
X7441Y3464D01*
X7440Y3471D01*
X7436Y3476D01*
X7431Y3479D01*
X7425Y3481D01*
D02*
G37*
G36*
X7375D02*
X7369Y3479D01*
X7364Y3476D01*
X7360Y3471D01*
X7359Y3464D01*
X7360Y3458D01*
X7364Y3453D01*
X7369Y3450D01*
X7375Y3448D01*
X7381Y3450D01*
X7386Y3453D01*
X7390Y3458D01*
X7391Y3464D01*
X7390Y3471D01*
X7386Y3476D01*
X7381Y3479D01*
X7375Y3481D01*
D02*
G37*
G36*
X10334Y3458D02*
X10328Y3457D01*
X10323Y3453D01*
X10319Y3448D01*
X10318Y3442D01*
X10319Y3436D01*
X10323Y3431D01*
X10328Y3427D01*
X10334Y3426D01*
X10340Y3427D01*
X10345Y3431D01*
X10349Y3436D01*
X10350Y3442D01*
X10349Y3448D01*
X10345Y3453D01*
X10340Y3457D01*
X10334Y3458D01*
D02*
G37*
G36*
X7599Y3408D02*
X7593Y3407D01*
X7587Y3403D01*
X7584Y3398D01*
X7583Y3392D01*
X7584Y3386D01*
X7587Y3380D01*
X7593Y3377D01*
X7599Y3376D01*
X7605Y3377D01*
X7610Y3380D01*
X7614Y3386D01*
X7615Y3392D01*
X7614Y3398D01*
X7610Y3403D01*
X7605Y3407D01*
X7599Y3408D01*
D02*
G37*
G36*
X7559D02*
X7553Y3407D01*
X7548Y3403D01*
X7544Y3398D01*
X7543Y3392D01*
X7544Y3386D01*
X7548Y3380D01*
X7553Y3377D01*
X7559Y3376D01*
X7565Y3377D01*
X7570Y3380D01*
X7574Y3386D01*
X7575Y3392D01*
X7574Y3398D01*
X7570Y3403D01*
X7565Y3407D01*
X7559Y3408D01*
D02*
G37*
G36*
X7516D02*
X7509Y3407D01*
X7504Y3403D01*
X7501Y3398D01*
X7500Y3392D01*
X7501Y3386D01*
X7504Y3380D01*
X7509Y3377D01*
X7516Y3376D01*
X7522Y3377D01*
X7527Y3380D01*
X7531Y3386D01*
X7532Y3392D01*
X7531Y3398D01*
X7527Y3403D01*
X7522Y3407D01*
X7516Y3408D01*
D02*
G37*
G36*
X7431Y3308D02*
X7425Y3307D01*
X7420Y3304D01*
X7416Y3298D01*
X7415Y3292D01*
X7416Y3286D01*
X7420Y3281D01*
X7425Y3277D01*
X7431Y3276D01*
X7437Y3277D01*
X7442Y3281D01*
X7446Y3286D01*
X7447Y3292D01*
X7446Y3298D01*
X7442Y3304D01*
X7437Y3307D01*
X7431Y3308D01*
D02*
G37*
G36*
X10230Y3246D02*
X10224Y3245D01*
X10219Y3241D01*
X10215Y3236D01*
X10214Y3230D01*
X10215Y3224D01*
X10219Y3219D01*
X10224Y3215D01*
X10230Y3214D01*
X10236Y3215D01*
X10241Y3219D01*
X10245Y3224D01*
X10246Y3230D01*
X10245Y3236D01*
X10241Y3241D01*
X10236Y3245D01*
X10230Y3246D01*
D02*
G37*
G36*
X7387Y3139D02*
X7381Y3137D01*
X7376Y3134D01*
X7372Y3129D01*
X7371Y3122D01*
X7372Y3116D01*
X7376Y3111D01*
X7381Y3108D01*
X7387Y3106D01*
X7393Y3108D01*
X7399Y3111D01*
X7402Y3116D01*
X7403Y3122D01*
X7402Y3129D01*
X7399Y3134D01*
X7393Y3137D01*
X7387Y3139D01*
D02*
G37*
G36*
X9974Y2818D02*
X9968Y2817D01*
X9963Y2813D01*
X9959Y2808D01*
X9958Y2802D01*
X9959Y2796D01*
X9963Y2790D01*
X9968Y2787D01*
X9974Y2786D01*
X9980Y2787D01*
X9986Y2790D01*
X9989Y2796D01*
X9990Y2802D01*
X9989Y2808D01*
X9986Y2813D01*
X9980Y2817D01*
X9974Y2818D01*
D02*
G37*
G36*
X9666Y2817D02*
X9660Y2816D01*
X9655Y2812D01*
X9651Y2807D01*
X9650Y2801D01*
X9651Y2795D01*
X9655Y2789D01*
X9660Y2786D01*
X9666Y2785D01*
X9672Y2786D01*
X9677Y2789D01*
X9681Y2795D01*
X9682Y2801D01*
X9681Y2807D01*
X9677Y2812D01*
X9672Y2816D01*
X9666Y2817D01*
D02*
G37*
G36*
X9895Y2767D02*
X9889Y2765D01*
X9884Y2762D01*
X9880Y2757D01*
X9879Y2750D01*
X9880Y2744D01*
X9884Y2739D01*
X9889Y2736D01*
X9895Y2734D01*
X9901Y2736D01*
X9906Y2739D01*
X9910Y2744D01*
X9911Y2750D01*
X9910Y2757D01*
X9906Y2762D01*
X9901Y2765D01*
X9895Y2767D01*
D02*
G37*
G36*
X9745Y2766D02*
X9739Y2765D01*
X9734Y2761D01*
X9730Y2756D01*
X9729Y2750D01*
X9730Y2743D01*
X9734Y2738D01*
X9739Y2735D01*
X9745Y2733D01*
X9751Y2735D01*
X9756Y2738D01*
X9760Y2743D01*
X9761Y2750D01*
X9760Y2756D01*
X9756Y2761D01*
X9751Y2765D01*
X9745Y2766D01*
D02*
G37*
G36*
X9895Y2727D02*
X9889Y2725D01*
X9884Y2722D01*
X9880Y2717D01*
X9879Y2710D01*
X9880Y2704D01*
X9884Y2699D01*
X9889Y2695D01*
X9895Y2694D01*
X9901Y2695D01*
X9906Y2699D01*
X9910Y2704D01*
X9911Y2710D01*
X9910Y2717D01*
X9906Y2722D01*
X9901Y2725D01*
X9895Y2727D01*
D02*
G37*
G36*
X9745D02*
X9739Y2725D01*
X9734Y2722D01*
X9730Y2717D01*
X9729Y2710D01*
X9730Y2704D01*
X9734Y2699D01*
X9739Y2695D01*
X9745Y2694D01*
X9751Y2695D01*
X9756Y2699D01*
X9760Y2704D01*
X9761Y2710D01*
X9760Y2717D01*
X9756Y2722D01*
X9751Y2725D01*
X9745Y2727D01*
D02*
G37*
G36*
X10420Y2779D02*
X10406Y2777D01*
X10393Y2771D01*
X10382Y2763D01*
X10374Y2752D01*
X10368Y2739D01*
X10366Y2725D01*
X10368Y2711D01*
X10374Y2698D01*
X10382Y2687D01*
X10393Y2679D01*
X10406Y2673D01*
X10420Y2671D01*
X10434Y2673D01*
X10447Y2679D01*
X10458Y2687D01*
X10466Y2698D01*
X10472Y2711D01*
X10474Y2725D01*
X10472Y2739D01*
X10466Y2752D01*
X10458Y2763D01*
X10447Y2771D01*
X10434Y2777D01*
X10420Y2779D01*
D02*
G37*
G36*
X9974Y2675D02*
X9968Y2674D01*
X9963Y2671D01*
X9959Y2665D01*
X9958Y2659D01*
X9959Y2653D01*
X9963Y2648D01*
X9968Y2644D01*
X9974Y2643D01*
X9980Y2644D01*
X9985Y2648D01*
X9989Y2653D01*
X9990Y2659D01*
X9989Y2665D01*
X9985Y2671D01*
X9980Y2674D01*
X9974Y2675D01*
D02*
G37*
G36*
X9666D02*
X9660Y2674D01*
X9654Y2671D01*
X9651Y2665D01*
X9650Y2659D01*
X9651Y2653D01*
X9654Y2648D01*
X9660Y2644D01*
X9666Y2643D01*
X9672Y2644D01*
X9677Y2648D01*
X9681Y2653D01*
X9682Y2659D01*
X9681Y2665D01*
X9677Y2671D01*
X9672Y2674D01*
X9666Y2675D01*
D02*
G37*
G36*
X9901Y2502D02*
X9895Y2501D01*
X9889Y2497D01*
X9886Y2492D01*
X9885Y2486D01*
X9886Y2480D01*
X9889Y2474D01*
X9895Y2471D01*
X9901Y2470D01*
X9907Y2471D01*
X9912Y2474D01*
X9916Y2480D01*
X9917Y2486D01*
X9916Y2492D01*
X9912Y2497D01*
X9907Y2501D01*
X9901Y2502D01*
D02*
G37*
G36*
X9840D02*
X9834Y2501D01*
X9829Y2497D01*
X9825Y2492D01*
X9824Y2486D01*
X9825Y2480D01*
X9829Y2474D01*
X9834Y2471D01*
X9840Y2470D01*
X9846Y2471D01*
X9851Y2474D01*
X9855Y2480D01*
X9856Y2486D01*
X9855Y2492D01*
X9851Y2497D01*
X9846Y2501D01*
X9840Y2502D01*
D02*
G37*
G36*
X9779D02*
X9773Y2501D01*
X9767Y2497D01*
X9764Y2492D01*
X9763Y2486D01*
X9764Y2480D01*
X9767Y2474D01*
X9773Y2471D01*
X9779Y2470D01*
X9785Y2471D01*
X9790Y2474D01*
X9794Y2480D01*
X9795Y2486D01*
X9794Y2492D01*
X9790Y2497D01*
X9785Y2501D01*
X9779Y2502D01*
D02*
G37*
G36*
X9718Y2500D02*
X9712Y2499D01*
X9706Y2495D01*
X9703Y2490D01*
X9702Y2484D01*
X9703Y2478D01*
X9706Y2473D01*
X9712Y2469D01*
X9718Y2468D01*
X9724Y2469D01*
X9729Y2473D01*
X9733Y2478D01*
X9734Y2484D01*
X9733Y2490D01*
X9729Y2495D01*
X9724Y2499D01*
X9718Y2500D01*
D02*
G37*
G36*
X9901Y2462D02*
X9895Y2461D01*
X9889Y2458D01*
X9886Y2453D01*
X9885Y2446D01*
X9886Y2440D01*
X9889Y2435D01*
X9895Y2431D01*
X9901Y2430D01*
X9907Y2431D01*
X9912Y2435D01*
X9916Y2440D01*
X9917Y2446D01*
X9916Y2453D01*
X9912Y2458D01*
X9907Y2461D01*
X9901Y2462D01*
D02*
G37*
G36*
X9840D02*
X9834Y2461D01*
X9829Y2458D01*
X9825Y2453D01*
X9824Y2446D01*
X9825Y2440D01*
X9829Y2435D01*
X9834Y2431D01*
X9840Y2430D01*
X9846Y2431D01*
X9851Y2435D01*
X9855Y2440D01*
X9856Y2446D01*
X9855Y2453D01*
X9851Y2458D01*
X9846Y2461D01*
X9840Y2462D01*
D02*
G37*
G36*
X9779D02*
X9773Y2461D01*
X9767Y2458D01*
X9764Y2453D01*
X9763Y2446D01*
X9764Y2440D01*
X9767Y2435D01*
X9773Y2431D01*
X9779Y2430D01*
X9785Y2431D01*
X9790Y2435D01*
X9794Y2440D01*
X9795Y2446D01*
X9794Y2453D01*
X9790Y2458D01*
X9785Y2461D01*
X9779Y2462D01*
D02*
G37*
G36*
X9718Y2461D02*
X9712Y2460D01*
X9706Y2456D01*
X9703Y2451D01*
X9702Y2445D01*
X9703Y2439D01*
X9706Y2433D01*
X9712Y2430D01*
X9718Y2429D01*
X9724Y2430D01*
X9729Y2433D01*
X9733Y2439D01*
X9734Y2445D01*
X9733Y2451D01*
X9729Y2456D01*
X9724Y2460D01*
X9718Y2461D01*
D02*
G37*
G36*
X9901Y2416D02*
X9895Y2415D01*
X9889Y2411D01*
X9886Y2406D01*
X9885Y2400D01*
X9886Y2394D01*
X9889Y2389D01*
X9895Y2385D01*
X9901Y2384D01*
X9907Y2385D01*
X9912Y2389D01*
X9916Y2394D01*
X9917Y2400D01*
X9916Y2406D01*
X9912Y2411D01*
X9907Y2415D01*
X9901Y2416D01*
D02*
G37*
G36*
X9779D02*
X9773Y2415D01*
X9767Y2411D01*
X9764Y2406D01*
X9763Y2400D01*
X9764Y2394D01*
X9767Y2389D01*
X9773Y2385D01*
X9779Y2384D01*
X9785Y2385D01*
X9790Y2389D01*
X9794Y2394D01*
X9795Y2400D01*
X9794Y2406D01*
X9790Y2411D01*
X9785Y2415D01*
X9779Y2416D01*
D02*
G37*
G36*
X9718Y2415D02*
X9712Y2413D01*
X9706Y2410D01*
X9703Y2405D01*
X9702Y2398D01*
X9703Y2392D01*
X9706Y2387D01*
X9712Y2383D01*
X9718Y2382D01*
X9724Y2383D01*
X9729Y2387D01*
X9733Y2392D01*
X9734Y2398D01*
X9733Y2405D01*
X9729Y2410D01*
X9724Y2413D01*
X9718Y2415D01*
D02*
G37*
G36*
X9901Y2372D02*
X9895Y2371D01*
X9889Y2367D01*
X9886Y2362D01*
X9885Y2356D01*
X9886Y2350D01*
X9889Y2344D01*
X9895Y2341D01*
X9901Y2340D01*
X9907Y2341D01*
X9912Y2344D01*
X9916Y2350D01*
X9917Y2356D01*
X9916Y2362D01*
X9912Y2367D01*
X9907Y2371D01*
X9901Y2372D01*
D02*
G37*
G36*
X9840D02*
X9834Y2371D01*
X9829Y2367D01*
X9825Y2362D01*
X9824Y2356D01*
X9825Y2350D01*
X9829Y2344D01*
X9834Y2341D01*
X9840Y2340D01*
X9846Y2341D01*
X9851Y2344D01*
X9855Y2350D01*
X9856Y2356D01*
X9855Y2362D01*
X9851Y2367D01*
X9846Y2371D01*
X9840Y2372D01*
D02*
G37*
G36*
X9779D02*
X9773Y2371D01*
X9767Y2367D01*
X9764Y2362D01*
X9763Y2356D01*
X9764Y2350D01*
X9767Y2344D01*
X9773Y2341D01*
X9779Y2340D01*
X9785Y2341D01*
X9790Y2344D01*
X9794Y2350D01*
X9795Y2356D01*
X9794Y2362D01*
X9790Y2367D01*
X9785Y2371D01*
X9779Y2372D01*
D02*
G37*
G36*
X9718Y2370D02*
X9712Y2369D01*
X9706Y2366D01*
X9703Y2360D01*
X9702Y2354D01*
X9703Y2348D01*
X9706Y2343D01*
X9712Y2339D01*
X9718Y2338D01*
X9724Y2339D01*
X9729Y2343D01*
X9733Y2348D01*
X9734Y2354D01*
X9733Y2360D01*
X9729Y2366D01*
X9724Y2369D01*
X9718Y2370D01*
D02*
G37*
G36*
X9901Y2333D02*
X9895Y2331D01*
X9889Y2328D01*
X9886Y2323D01*
X9885Y2316D01*
X9886Y2310D01*
X9889Y2305D01*
X9895Y2302D01*
X9901Y2300D01*
X9907Y2302D01*
X9912Y2305D01*
X9916Y2310D01*
X9917Y2316D01*
X9916Y2323D01*
X9912Y2328D01*
X9907Y2331D01*
X9901Y2333D01*
D02*
G37*
G36*
X9840D02*
X9834Y2331D01*
X9829Y2328D01*
X9825Y2323D01*
X9824Y2316D01*
X9825Y2310D01*
X9829Y2305D01*
X9834Y2302D01*
X9840Y2300D01*
X9846Y2302D01*
X9851Y2305D01*
X9855Y2310D01*
X9856Y2316D01*
X9855Y2323D01*
X9851Y2328D01*
X9846Y2331D01*
X9840Y2333D01*
D02*
G37*
G36*
X9779D02*
X9773Y2331D01*
X9767Y2328D01*
X9764Y2323D01*
X9763Y2316D01*
X9764Y2310D01*
X9767Y2305D01*
X9773Y2302D01*
X9779Y2300D01*
X9785Y2302D01*
X9790Y2305D01*
X9794Y2310D01*
X9795Y2316D01*
X9794Y2323D01*
X9790Y2328D01*
X9785Y2331D01*
X9779Y2333D01*
D02*
G37*
G36*
X9718Y2331D02*
X9712Y2330D01*
X9706Y2326D01*
X9703Y2321D01*
X9702Y2315D01*
X9703Y2309D01*
X9706Y2303D01*
X9712Y2300D01*
X9718Y2299D01*
X9724Y2300D01*
X9729Y2303D01*
X9733Y2309D01*
X9734Y2315D01*
X9733Y2321D01*
X9729Y2326D01*
X9724Y2330D01*
X9718Y2331D01*
D02*
G37*
G36*
X10069Y2245D02*
X10056Y2243D01*
X10043Y2240D01*
X10031Y2233D01*
X10021Y2225D01*
X10012Y2214D01*
X10006Y2203D01*
X10002Y2190D01*
X10001Y2176D01*
X10002Y2163D01*
X10006Y2150D01*
X10012Y2138D01*
X10021Y2128D01*
X10031Y2120D01*
X10043Y2113D01*
X10056Y2109D01*
X10069Y2108D01*
X10082Y2109D01*
X10095Y2113D01*
X10107Y2120D01*
X10117Y2128D01*
X10126Y2138D01*
X10132Y2150D01*
X10136Y2163D01*
X10137Y2176D01*
X10136Y2190D01*
X10132Y2203D01*
X10126Y2214D01*
X10117Y2225D01*
X10107Y2233D01*
X10095Y2240D01*
X10082Y2243D01*
X10069Y2245D01*
D02*
G37*
G36*
X9895Y1983D02*
X9889Y1981D01*
X9884Y1978D01*
X9880Y1973D01*
X9879Y1967D01*
X9880Y1960D01*
X9884Y1955D01*
X9889Y1952D01*
X9895Y1950D01*
X9901Y1952D01*
X9906Y1955D01*
X9910Y1960D01*
X9911Y1967D01*
X9910Y1973D01*
X9906Y1978D01*
X9901Y1981D01*
X9895Y1983D01*
D02*
G37*
G36*
X9745D02*
X9739Y1981D01*
X9734Y1978D01*
X9730Y1973D01*
X9729Y1967D01*
X9730Y1960D01*
X9734Y1955D01*
X9739Y1952D01*
X9745Y1950D01*
X9751Y1952D01*
X9756Y1955D01*
X9760Y1960D01*
X9761Y1967D01*
X9760Y1973D01*
X9756Y1978D01*
X9751Y1981D01*
X9745Y1983D01*
D02*
G37*
G36*
X9973Y1930D02*
X9967Y1929D01*
X9961Y1926D01*
X9958Y1920D01*
X9957Y1914D01*
X9958Y1908D01*
X9961Y1903D01*
X9967Y1899D01*
X9973Y1898D01*
X9979Y1899D01*
X9984Y1903D01*
X9988Y1908D01*
X9989Y1914D01*
X9988Y1920D01*
X9984Y1926D01*
X9979Y1929D01*
X9973Y1930D01*
D02*
G37*
G36*
X9667Y1930D02*
X9661Y1929D01*
X9656Y1926D01*
X9652Y1920D01*
X9651Y1914D01*
X9652Y1908D01*
X9656Y1903D01*
X9661Y1899D01*
X9667Y1898D01*
X9673Y1899D01*
X9679Y1903D01*
X9682Y1908D01*
X9683Y1914D01*
X9682Y1920D01*
X9679Y1926D01*
X9673Y1929D01*
X9667Y1930D01*
D02*
G37*
G36*
X5937Y1884D02*
X5931Y1882D01*
X5925Y1879D01*
X5922Y1874D01*
X5921Y1868D01*
X5922Y1861D01*
X5925Y1856D01*
X5931Y1853D01*
X5937Y1851D01*
X5943Y1853D01*
X5948Y1856D01*
X5952Y1861D01*
X5953Y1868D01*
X5952Y1874D01*
X5948Y1879D01*
X5943Y1882D01*
X5937Y1884D01*
D02*
G37*
G36*
X4502Y1871D02*
X4496Y1870D01*
X4491Y1866D01*
X4487Y1861D01*
X4486Y1855D01*
X4487Y1849D01*
X4491Y1844D01*
X4496Y1840D01*
X4502Y1839D01*
X4508Y1840D01*
X4513Y1844D01*
X4517Y1849D01*
X4518Y1855D01*
X4517Y1861D01*
X4513Y1866D01*
X4508Y1870D01*
X4502Y1871D01*
D02*
G37*
G36*
X4427Y1861D02*
X4420Y1860D01*
X4415Y1856D01*
X4412Y1851D01*
X4411Y1845D01*
X4412Y1839D01*
X4415Y1834D01*
X4420Y1830D01*
X4427Y1829D01*
X4433Y1830D01*
X4438Y1834D01*
X4442Y1839D01*
X4443Y1845D01*
X4442Y1851D01*
X4438Y1856D01*
X4433Y1860D01*
X4427Y1861D01*
D02*
G37*
G36*
X5610Y1860D02*
X5604Y1859D01*
X5599Y1855D01*
X5595Y1850D01*
X5594Y1844D01*
X5595Y1838D01*
X5599Y1832D01*
X5604Y1829D01*
X5610Y1828D01*
X5616Y1829D01*
X5621Y1832D01*
X5625Y1838D01*
X5626Y1844D01*
X5625Y1850D01*
X5621Y1855D01*
X5616Y1859D01*
X5610Y1860D01*
D02*
G37*
G36*
X5885Y1847D02*
X5879Y1846D01*
X5874Y1843D01*
X5870Y1837D01*
X5869Y1831D01*
X5870Y1825D01*
X5874Y1820D01*
X5879Y1816D01*
X5885Y1815D01*
X5891Y1816D01*
X5896Y1820D01*
X5900Y1825D01*
X5901Y1831D01*
X5900Y1837D01*
X5896Y1843D01*
X5891Y1846D01*
X5885Y1847D01*
D02*
G37*
G36*
X9629Y1822D02*
X9623Y1821D01*
X9618Y1817D01*
X9614Y1812D01*
X9613Y1806D01*
X9614Y1800D01*
X9618Y1794D01*
X9623Y1791D01*
X9629Y1790D01*
X9635Y1791D01*
X9640Y1794D01*
X9644Y1800D01*
X9645Y1806D01*
X9644Y1812D01*
X9640Y1817D01*
X9635Y1821D01*
X9629Y1822D01*
D02*
G37*
G36*
X6361Y1750D02*
X6354Y1748D01*
X6349Y1745D01*
X6346Y1740D01*
X6344Y1733D01*
X6346Y1727D01*
X6349Y1722D01*
X6354Y1719D01*
X6361Y1717D01*
X6367Y1719D01*
X6372Y1722D01*
X6376Y1727D01*
X6377Y1733D01*
X6376Y1740D01*
X6372Y1745D01*
X6367Y1748D01*
X6361Y1750D01*
D02*
G37*
G36*
X9591Y1728D02*
X9585Y1727D01*
X9580Y1723D01*
X9576Y1718D01*
X9575Y1712D01*
X9576Y1706D01*
X9580Y1701D01*
X9585Y1697D01*
X9591Y1696D01*
X9597Y1697D01*
X9602Y1701D01*
X9606Y1706D01*
X9607Y1712D01*
X9606Y1718D01*
X9602Y1723D01*
X9597Y1727D01*
X9591Y1728D01*
D02*
G37*
G36*
X9674Y1728D02*
X9668Y1727D01*
X9663Y1723D01*
X9659Y1718D01*
X9658Y1712D01*
X9659Y1706D01*
X9663Y1701D01*
X9668Y1697D01*
X9674Y1696D01*
X9680Y1697D01*
X9685Y1701D01*
X9689Y1706D01*
X9690Y1712D01*
X9689Y1718D01*
X9685Y1723D01*
X9680Y1727D01*
X9674Y1728D01*
D02*
G37*
G36*
X9757Y1728D02*
X9751Y1727D01*
X9746Y1723D01*
X9742Y1718D01*
X9741Y1712D01*
X9742Y1706D01*
X9746Y1701D01*
X9751Y1697D01*
X9757Y1696D01*
X9763Y1697D01*
X9768Y1701D01*
X9772Y1706D01*
X9773Y1712D01*
X9772Y1718D01*
X9768Y1723D01*
X9763Y1727D01*
X9757Y1728D01*
D02*
G37*
G36*
X9973Y1728D02*
X9967Y1727D01*
X9962Y1723D01*
X9958Y1718D01*
X9957Y1712D01*
X9958Y1706D01*
X9962Y1701D01*
X9967Y1697D01*
X9973Y1696D01*
X9979Y1697D01*
X9984Y1701D01*
X9988Y1706D01*
X9989Y1712D01*
X9988Y1718D01*
X9984Y1723D01*
X9979Y1727D01*
X9973Y1728D01*
D02*
G37*
G36*
X9840D02*
X9834Y1727D01*
X9829Y1723D01*
X9825Y1718D01*
X9824Y1712D01*
X9825Y1706D01*
X9829Y1701D01*
X9834Y1697D01*
X9840Y1696D01*
X9846Y1697D01*
X9851Y1701D01*
X9855Y1706D01*
X9856Y1712D01*
X9855Y1718D01*
X9851Y1723D01*
X9846Y1727D01*
X9840Y1728D01*
D02*
G37*
G36*
X9919Y1728D02*
X9913Y1727D01*
X9908Y1723D01*
X9904Y1718D01*
X9903Y1712D01*
X9904Y1706D01*
X9908Y1701D01*
X9913Y1697D01*
X9919Y1696D01*
X9925Y1697D01*
X9930Y1701D01*
X9934Y1706D01*
X9935Y1712D01*
X9934Y1718D01*
X9930Y1723D01*
X9925Y1727D01*
X9919Y1728D01*
D02*
G37*
G36*
X4519Y1704D02*
X4513Y1702D01*
X4508Y1699D01*
X4504Y1694D01*
X4503Y1688D01*
X4504Y1681D01*
X4508Y1676D01*
X4513Y1673D01*
X4519Y1671D01*
X4525Y1673D01*
X4530Y1676D01*
X4534Y1681D01*
X4535Y1688D01*
X4534Y1694D01*
X4530Y1699D01*
X4525Y1702D01*
X4519Y1704D01*
D02*
G37*
G36*
X4462D02*
X4456Y1702D01*
X4451Y1699D01*
X4447Y1694D01*
X4446Y1688D01*
X4447Y1681D01*
X4451Y1676D01*
X4456Y1673D01*
X4462Y1671D01*
X4469Y1673D01*
X4474Y1676D01*
X4477Y1681D01*
X4479Y1688D01*
X4477Y1694D01*
X4474Y1699D01*
X4469Y1702D01*
X4462Y1704D01*
D02*
G37*
G36*
X9591Y1668D02*
X9585Y1667D01*
X9580Y1664D01*
X9576Y1659D01*
X9575Y1652D01*
X9576Y1646D01*
X9580Y1641D01*
X9585Y1637D01*
X9591Y1636D01*
X9597Y1637D01*
X9602Y1641D01*
X9606Y1646D01*
X9607Y1652D01*
X9606Y1659D01*
X9602Y1664D01*
X9597Y1667D01*
X9591Y1668D01*
D02*
G37*
G36*
X9919Y1668D02*
X9913Y1667D01*
X9908Y1664D01*
X9904Y1659D01*
X9903Y1652D01*
X9904Y1646D01*
X9908Y1641D01*
X9913Y1637D01*
X9919Y1636D01*
X9925Y1637D01*
X9930Y1641D01*
X9934Y1646D01*
X9935Y1652D01*
X9934Y1659D01*
X9930Y1664D01*
X9925Y1667D01*
X9919Y1668D01*
D02*
G37*
G36*
X9674Y1668D02*
X9668Y1667D01*
X9663Y1664D01*
X9659Y1659D01*
X9658Y1652D01*
X9659Y1646D01*
X9663Y1641D01*
X9668Y1637D01*
X9674Y1636D01*
X9680Y1637D01*
X9685Y1641D01*
X9689Y1646D01*
X9690Y1652D01*
X9689Y1659D01*
X9685Y1664D01*
X9680Y1667D01*
X9674Y1668D01*
D02*
G37*
G36*
X9973Y1668D02*
X9967Y1667D01*
X9962Y1664D01*
X9958Y1658D01*
X9957Y1652D01*
X9958Y1646D01*
X9962Y1641D01*
X9967Y1637D01*
X9973Y1636D01*
X9979Y1637D01*
X9984Y1641D01*
X9988Y1646D01*
X9989Y1652D01*
X9988Y1658D01*
X9984Y1664D01*
X9979Y1667D01*
X9973Y1668D01*
D02*
G37*
G36*
X9757D02*
X9751Y1667D01*
X9746Y1664D01*
X9742Y1658D01*
X9741Y1652D01*
X9742Y1646D01*
X9746Y1641D01*
X9751Y1637D01*
X9757Y1636D01*
X9763Y1637D01*
X9768Y1641D01*
X9772Y1646D01*
X9773Y1652D01*
X9772Y1658D01*
X9768Y1664D01*
X9763Y1667D01*
X9757Y1668D01*
D02*
G37*
G36*
X9591Y1609D02*
X9585Y1608D01*
X9580Y1604D01*
X9576Y1599D01*
X9575Y1593D01*
X9576Y1587D01*
X9580Y1581D01*
X9585Y1578D01*
X9591Y1577D01*
X9597Y1578D01*
X9602Y1581D01*
X9606Y1587D01*
X9607Y1593D01*
X9606Y1599D01*
X9602Y1604D01*
X9597Y1608D01*
X9591Y1609D01*
D02*
G37*
G36*
X9674Y1609D02*
X9668Y1608D01*
X9663Y1604D01*
X9659Y1599D01*
X9658Y1593D01*
X9659Y1587D01*
X9663Y1581D01*
X9668Y1578D01*
X9674Y1577D01*
X9680Y1578D01*
X9685Y1581D01*
X9689Y1587D01*
X9690Y1593D01*
X9689Y1599D01*
X9685Y1604D01*
X9680Y1608D01*
X9674Y1609D01*
D02*
G37*
G36*
X9973Y1609D02*
X9967Y1608D01*
X9962Y1604D01*
X9958Y1599D01*
X9957Y1593D01*
X9958Y1587D01*
X9962Y1581D01*
X9967Y1578D01*
X9973Y1577D01*
X9979Y1578D01*
X9984Y1581D01*
X9988Y1587D01*
X9989Y1593D01*
X9988Y1599D01*
X9984Y1604D01*
X9979Y1608D01*
X9973Y1609D01*
D02*
G37*
G36*
X9840D02*
X9834Y1608D01*
X9829Y1604D01*
X9825Y1599D01*
X9824Y1593D01*
X9825Y1587D01*
X9829Y1581D01*
X9834Y1578D01*
X9840Y1577D01*
X9846Y1578D01*
X9851Y1581D01*
X9855Y1587D01*
X9856Y1593D01*
X9855Y1599D01*
X9851Y1604D01*
X9846Y1608D01*
X9840Y1609D01*
D02*
G37*
G36*
X9757D02*
X9751Y1608D01*
X9746Y1604D01*
X9742Y1599D01*
X9741Y1593D01*
X9742Y1587D01*
X9746Y1581D01*
X9751Y1578D01*
X9757Y1577D01*
X9763Y1578D01*
X9768Y1581D01*
X9772Y1587D01*
X9773Y1593D01*
X9772Y1599D01*
X9768Y1604D01*
X9763Y1608D01*
X9757Y1609D01*
D02*
G37*
G36*
X9919Y1609D02*
X9913Y1608D01*
X9908Y1604D01*
X9904Y1599D01*
X9903Y1593D01*
X9904Y1586D01*
X9908Y1581D01*
X9913Y1578D01*
X9919Y1577D01*
X9925Y1578D01*
X9930Y1581D01*
X9934Y1586D01*
X9935Y1593D01*
X9934Y1599D01*
X9930Y1604D01*
X9925Y1608D01*
X9919Y1609D01*
D02*
G37*
G36*
X9591Y1549D02*
X9585Y1548D01*
X9580Y1544D01*
X9576Y1539D01*
X9575Y1533D01*
X9576Y1527D01*
X9580Y1522D01*
X9585Y1518D01*
X9591Y1517D01*
X9597Y1518D01*
X9602Y1522D01*
X9606Y1527D01*
X9607Y1533D01*
X9606Y1539D01*
X9602Y1544D01*
X9597Y1548D01*
X9591Y1549D01*
D02*
G37*
G36*
X9919Y1549D02*
X9913Y1548D01*
X9908Y1544D01*
X9904Y1539D01*
X9903Y1533D01*
X9904Y1527D01*
X9908Y1522D01*
X9913Y1518D01*
X9919Y1517D01*
X9925Y1518D01*
X9930Y1522D01*
X9934Y1527D01*
X9935Y1533D01*
X9934Y1539D01*
X9930Y1544D01*
X9925Y1548D01*
X9919Y1549D01*
D02*
G37*
G36*
X9674D02*
X9668Y1548D01*
X9663Y1544D01*
X9659Y1539D01*
X9658Y1533D01*
X9659Y1527D01*
X9663Y1522D01*
X9668Y1518D01*
X9674Y1517D01*
X9680Y1518D01*
X9685Y1522D01*
X9689Y1527D01*
X9690Y1533D01*
X9689Y1539D01*
X9685Y1544D01*
X9680Y1548D01*
X9674Y1549D01*
D02*
G37*
G36*
X9840Y1549D02*
X9834Y1548D01*
X9829Y1544D01*
X9825Y1539D01*
X9824Y1533D01*
X9825Y1527D01*
X9829Y1522D01*
X9834Y1518D01*
X9840Y1517D01*
X9846Y1518D01*
X9851Y1522D01*
X9855Y1527D01*
X9856Y1533D01*
X9855Y1539D01*
X9851Y1544D01*
X9846Y1548D01*
X9840Y1549D01*
D02*
G37*
G36*
X9757D02*
X9751Y1548D01*
X9746Y1544D01*
X9742Y1539D01*
X9741Y1533D01*
X9742Y1527D01*
X9746Y1522D01*
X9751Y1518D01*
X9757Y1517D01*
X9763Y1518D01*
X9768Y1522D01*
X9772Y1527D01*
X9773Y1533D01*
X9772Y1539D01*
X9768Y1544D01*
X9763Y1548D01*
X9757Y1549D01*
D02*
G37*
G36*
X5280Y983D02*
X5274Y982D01*
X5269Y978D01*
X5265Y973D01*
X5264Y967D01*
X5265Y961D01*
X5269Y956D01*
X5274Y952D01*
X5280Y951D01*
X5286Y952D01*
X5291Y956D01*
X5295Y961D01*
X5296Y967D01*
X5295Y973D01*
X5291Y978D01*
X5286Y982D01*
X5280Y983D01*
D02*
G37*
G36*
X5240D02*
X5234Y982D01*
X5229Y978D01*
X5225Y973D01*
X5224Y967D01*
X5225Y961D01*
X5229Y956D01*
X5234Y952D01*
X5240Y951D01*
X5246Y952D01*
X5251Y956D01*
X5255Y961D01*
X5256Y967D01*
X5255Y973D01*
X5251Y978D01*
X5246Y982D01*
X5240Y983D01*
D02*
G37*
G36*
X4655D02*
X4649Y982D01*
X4644Y978D01*
X4640Y973D01*
X4639Y967D01*
X4640Y961D01*
X4644Y956D01*
X4649Y952D01*
X4655Y951D01*
X4661Y952D01*
X4666Y956D01*
X4670Y961D01*
X4671Y967D01*
X4670Y973D01*
X4666Y978D01*
X4661Y982D01*
X4655Y983D01*
D02*
G37*
G36*
X4615D02*
X4609Y982D01*
X4604Y978D01*
X4600Y973D01*
X4599Y967D01*
X4600Y961D01*
X4604Y956D01*
X4609Y952D01*
X4615Y951D01*
X4621Y952D01*
X4626Y956D01*
X4630Y961D01*
X4631Y967D01*
X4630Y973D01*
X4626Y978D01*
X4621Y982D01*
X4615Y983D01*
D02*
G37*
G36*
X4030D02*
X4024Y982D01*
X4019Y978D01*
X4015Y973D01*
X4014Y967D01*
X4015Y961D01*
X4019Y956D01*
X4024Y952D01*
X4030Y951D01*
X4036Y952D01*
X4041Y956D01*
X4045Y961D01*
X4046Y967D01*
X4045Y973D01*
X4041Y978D01*
X4036Y982D01*
X4030Y983D01*
D02*
G37*
G36*
X3990D02*
X3984Y982D01*
X3979Y978D01*
X3975Y973D01*
X3974Y967D01*
X3975Y961D01*
X3979Y956D01*
X3984Y952D01*
X3990Y951D01*
X3996Y952D01*
X4001Y956D01*
X4005Y961D01*
X4006Y967D01*
X4005Y973D01*
X4001Y978D01*
X3996Y982D01*
X3990Y983D01*
D02*
G37*
G36*
X3405D02*
X3399Y982D01*
X3394Y978D01*
X3390Y973D01*
X3389Y967D01*
X3390Y961D01*
X3394Y956D01*
X3399Y952D01*
X3405Y951D01*
X3411Y952D01*
X3416Y956D01*
X3420Y961D01*
X3421Y967D01*
X3420Y973D01*
X3416Y978D01*
X3411Y982D01*
X3405Y983D01*
D02*
G37*
G36*
X3365D02*
X3359Y982D01*
X3354Y978D01*
X3350Y973D01*
X3349Y967D01*
X3350Y961D01*
X3354Y956D01*
X3359Y952D01*
X3365Y951D01*
X3371Y952D01*
X3376Y956D01*
X3380Y961D01*
X3381Y967D01*
X3380Y973D01*
X3376Y978D01*
X3371Y982D01*
X3365Y983D01*
D02*
G37*
G36*
X2780D02*
X2774Y982D01*
X2769Y978D01*
X2765Y973D01*
X2764Y967D01*
X2765Y961D01*
X2769Y956D01*
X2774Y952D01*
X2780Y951D01*
X2786Y952D01*
X2791Y956D01*
X2795Y961D01*
X2796Y967D01*
X2795Y973D01*
X2791Y978D01*
X2786Y982D01*
X2780Y983D01*
D02*
G37*
G36*
X2740D02*
X2734Y982D01*
X2729Y978D01*
X2725Y973D01*
X2724Y967D01*
X2725Y961D01*
X2729Y956D01*
X2734Y952D01*
X2740Y951D01*
X2746Y952D01*
X2751Y956D01*
X2755Y961D01*
X2756Y967D01*
X2755Y973D01*
X2751Y978D01*
X2746Y982D01*
X2740Y983D01*
D02*
G37*
G36*
X2155D02*
X2149Y982D01*
X2144Y978D01*
X2140Y973D01*
X2139Y967D01*
X2140Y961D01*
X2144Y956D01*
X2149Y952D01*
X2155Y951D01*
X2161Y952D01*
X2166Y956D01*
X2170Y961D01*
X2171Y967D01*
X2170Y973D01*
X2166Y978D01*
X2161Y982D01*
X2155Y983D01*
D02*
G37*
G36*
X2115D02*
X2109Y982D01*
X2104Y978D01*
X2100Y973D01*
X2099Y967D01*
X2100Y961D01*
X2104Y956D01*
X2109Y952D01*
X2115Y951D01*
X2121Y952D01*
X2126Y956D01*
X2130Y961D01*
X2131Y967D01*
X2130Y973D01*
X2126Y978D01*
X2121Y982D01*
X2115Y983D01*
D02*
G37*
G36*
X1530D02*
X1524Y982D01*
X1519Y978D01*
X1515Y973D01*
X1514Y967D01*
X1515Y961D01*
X1519Y956D01*
X1524Y952D01*
X1530Y951D01*
X1536Y952D01*
X1541Y956D01*
X1545Y961D01*
X1546Y967D01*
X1545Y973D01*
X1541Y978D01*
X1536Y982D01*
X1530Y983D01*
D02*
G37*
G36*
X1490D02*
X1484Y982D01*
X1479Y978D01*
X1475Y973D01*
X1474Y967D01*
X1475Y961D01*
X1479Y956D01*
X1484Y952D01*
X1490Y951D01*
X1496Y952D01*
X1501Y956D01*
X1505Y961D01*
X1506Y967D01*
X1505Y973D01*
X1501Y978D01*
X1496Y982D01*
X1490Y983D01*
D02*
G37*
G36*
X905D02*
X899Y982D01*
X894Y978D01*
X890Y973D01*
X889Y967D01*
X890Y961D01*
X894Y956D01*
X899Y952D01*
X905Y951D01*
X911Y952D01*
X916Y956D01*
X920Y961D01*
X921Y967D01*
X920Y973D01*
X916Y978D01*
X911Y982D01*
X905Y983D01*
D02*
G37*
G36*
X865D02*
X859Y982D01*
X854Y978D01*
X850Y973D01*
X849Y967D01*
X850Y961D01*
X854Y956D01*
X859Y952D01*
X865Y951D01*
X871Y952D01*
X876Y956D01*
X880Y961D01*
X881Y967D01*
X880Y973D01*
X876Y978D01*
X871Y982D01*
X865Y983D01*
D02*
G37*
G36*
X5085Y981D02*
X5078Y980D01*
X5073Y976D01*
X5070Y971D01*
X5068Y965D01*
X5070Y959D01*
X5073Y954D01*
X5078Y950D01*
X5085Y949D01*
X5091Y950D01*
X5096Y954D01*
X5100Y959D01*
X5101Y965D01*
X5100Y971D01*
X5096Y976D01*
X5091Y980D01*
X5085Y981D01*
D02*
G37*
G36*
X4460D02*
X4453Y980D01*
X4448Y976D01*
X4445Y971D01*
X4443Y965D01*
X4445Y959D01*
X4448Y954D01*
X4453Y950D01*
X4460Y949D01*
X4466Y950D01*
X4471Y954D01*
X4475Y959D01*
X4476Y965D01*
X4475Y971D01*
X4471Y976D01*
X4466Y980D01*
X4460Y981D01*
D02*
G37*
G36*
X3835D02*
X3828Y980D01*
X3823Y976D01*
X3820Y971D01*
X3818Y965D01*
X3820Y959D01*
X3823Y954D01*
X3828Y950D01*
X3835Y949D01*
X3841Y950D01*
X3846Y954D01*
X3850Y959D01*
X3851Y965D01*
X3850Y971D01*
X3846Y976D01*
X3841Y980D01*
X3835Y981D01*
D02*
G37*
G36*
X3210D02*
X3203Y980D01*
X3198Y976D01*
X3195Y971D01*
X3193Y965D01*
X3195Y959D01*
X3198Y954D01*
X3203Y950D01*
X3210Y949D01*
X3216Y950D01*
X3221Y954D01*
X3225Y959D01*
X3226Y965D01*
X3225Y971D01*
X3221Y976D01*
X3216Y980D01*
X3210Y981D01*
D02*
G37*
G36*
X2585D02*
X2578Y980D01*
X2573Y976D01*
X2570Y971D01*
X2568Y965D01*
X2570Y959D01*
X2573Y954D01*
X2578Y950D01*
X2585Y949D01*
X2591Y950D01*
X2596Y954D01*
X2600Y959D01*
X2601Y965D01*
X2600Y971D01*
X2596Y976D01*
X2591Y980D01*
X2585Y981D01*
D02*
G37*
G36*
X1960D02*
X1953Y980D01*
X1948Y976D01*
X1945Y971D01*
X1943Y965D01*
X1945Y959D01*
X1948Y954D01*
X1953Y950D01*
X1960Y949D01*
X1966Y950D01*
X1971Y954D01*
X1975Y959D01*
X1976Y965D01*
X1975Y971D01*
X1971Y976D01*
X1966Y980D01*
X1960Y981D01*
D02*
G37*
G36*
X1335D02*
X1328Y980D01*
X1323Y976D01*
X1320Y971D01*
X1318Y965D01*
X1320Y959D01*
X1323Y954D01*
X1328Y950D01*
X1335Y949D01*
X1341Y950D01*
X1346Y954D01*
X1350Y959D01*
X1351Y965D01*
X1350Y971D01*
X1346Y976D01*
X1341Y980D01*
X1335Y981D01*
D02*
G37*
G36*
X710D02*
X703Y980D01*
X698Y976D01*
X695Y971D01*
X693Y965D01*
X695Y959D01*
X698Y954D01*
X703Y950D01*
X710Y949D01*
X716Y950D01*
X721Y954D01*
X725Y959D01*
X726Y965D01*
X725Y971D01*
X721Y976D01*
X716Y980D01*
X710Y981D01*
D02*
G37*
G36*
X5084Y943D02*
X5078Y941D01*
X5073Y938D01*
X5069Y933D01*
X5068Y926D01*
X5069Y920D01*
X5073Y915D01*
X5078Y912D01*
X5084Y910D01*
X5090Y912D01*
X5096Y915D01*
X5099Y920D01*
X5100Y926D01*
X5099Y933D01*
X5096Y938D01*
X5090Y941D01*
X5084Y943D01*
D02*
G37*
G36*
X4459D02*
X4453Y941D01*
X4448Y938D01*
X4444Y933D01*
X4443Y926D01*
X4444Y920D01*
X4448Y915D01*
X4453Y912D01*
X4459Y910D01*
X4465Y912D01*
X4471Y915D01*
X4474Y920D01*
X4475Y926D01*
X4474Y933D01*
X4471Y938D01*
X4465Y941D01*
X4459Y943D01*
D02*
G37*
G36*
X3834D02*
X3828Y941D01*
X3823Y938D01*
X3819Y933D01*
X3818Y926D01*
X3819Y920D01*
X3823Y915D01*
X3828Y912D01*
X3834Y910D01*
X3840Y912D01*
X3846Y915D01*
X3849Y920D01*
X3850Y926D01*
X3849Y933D01*
X3846Y938D01*
X3840Y941D01*
X3834Y943D01*
D02*
G37*
G36*
X3209D02*
X3203Y941D01*
X3198Y938D01*
X3194Y933D01*
X3193Y926D01*
X3194Y920D01*
X3198Y915D01*
X3203Y912D01*
X3209Y910D01*
X3215Y912D01*
X3221Y915D01*
X3224Y920D01*
X3225Y926D01*
X3224Y933D01*
X3221Y938D01*
X3215Y941D01*
X3209Y943D01*
D02*
G37*
G36*
X2584D02*
X2578Y941D01*
X2573Y938D01*
X2569Y933D01*
X2568Y926D01*
X2569Y920D01*
X2573Y915D01*
X2578Y912D01*
X2584Y910D01*
X2590Y912D01*
X2596Y915D01*
X2599Y920D01*
X2600Y926D01*
X2599Y933D01*
X2596Y938D01*
X2590Y941D01*
X2584Y943D01*
D02*
G37*
G36*
X1959D02*
X1953Y941D01*
X1948Y938D01*
X1944Y933D01*
X1943Y926D01*
X1944Y920D01*
X1948Y915D01*
X1953Y912D01*
X1959Y910D01*
X1965Y912D01*
X1971Y915D01*
X1974Y920D01*
X1975Y926D01*
X1974Y933D01*
X1971Y938D01*
X1965Y941D01*
X1959Y943D01*
D02*
G37*
G36*
X1334D02*
X1328Y941D01*
X1323Y938D01*
X1319Y933D01*
X1318Y926D01*
X1319Y920D01*
X1323Y915D01*
X1328Y912D01*
X1334Y910D01*
X1340Y912D01*
X1346Y915D01*
X1349Y920D01*
X1350Y926D01*
X1349Y933D01*
X1346Y938D01*
X1340Y941D01*
X1334Y943D01*
D02*
G37*
G36*
X709D02*
X703Y941D01*
X698Y938D01*
X694Y933D01*
X693Y926D01*
X694Y920D01*
X698Y915D01*
X703Y912D01*
X709Y910D01*
X715Y912D01*
X721Y915D01*
X724Y920D01*
X725Y926D01*
X724Y933D01*
X721Y938D01*
X715Y941D01*
X709Y943D01*
D02*
G37*
G36*
X5303Y936D02*
X5297Y935D01*
X5292Y931D01*
X5288Y926D01*
X5287Y920D01*
X5288Y914D01*
X5292Y909D01*
X5297Y905D01*
X5303Y904D01*
X5309Y905D01*
X5314Y909D01*
X5318Y914D01*
X5319Y920D01*
X5318Y926D01*
X5314Y931D01*
X5309Y935D01*
X5303Y936D01*
D02*
G37*
G36*
X4678D02*
X4672Y935D01*
X4667Y931D01*
X4663Y926D01*
X4662Y920D01*
X4663Y914D01*
X4667Y909D01*
X4672Y905D01*
X4678Y904D01*
X4684Y905D01*
X4689Y909D01*
X4693Y914D01*
X4694Y920D01*
X4693Y926D01*
X4689Y931D01*
X4684Y935D01*
X4678Y936D01*
D02*
G37*
G36*
X4053D02*
X4047Y935D01*
X4042Y931D01*
X4038Y926D01*
X4037Y920D01*
X4038Y914D01*
X4042Y909D01*
X4047Y905D01*
X4053Y904D01*
X4059Y905D01*
X4064Y909D01*
X4068Y914D01*
X4069Y920D01*
X4068Y926D01*
X4064Y931D01*
X4059Y935D01*
X4053Y936D01*
D02*
G37*
G36*
X3428D02*
X3422Y935D01*
X3417Y931D01*
X3413Y926D01*
X3412Y920D01*
X3413Y914D01*
X3417Y909D01*
X3422Y905D01*
X3428Y904D01*
X3434Y905D01*
X3439Y909D01*
X3443Y914D01*
X3444Y920D01*
X3443Y926D01*
X3439Y931D01*
X3434Y935D01*
X3428Y936D01*
D02*
G37*
G36*
X2803D02*
X2797Y935D01*
X2792Y931D01*
X2788Y926D01*
X2787Y920D01*
X2788Y914D01*
X2792Y909D01*
X2797Y905D01*
X2803Y904D01*
X2809Y905D01*
X2814Y909D01*
X2818Y914D01*
X2819Y920D01*
X2818Y926D01*
X2814Y931D01*
X2809Y935D01*
X2803Y936D01*
D02*
G37*
G36*
X2178D02*
X2172Y935D01*
X2167Y931D01*
X2163Y926D01*
X2162Y920D01*
X2163Y914D01*
X2167Y909D01*
X2172Y905D01*
X2178Y904D01*
X2184Y905D01*
X2189Y909D01*
X2193Y914D01*
X2194Y920D01*
X2193Y926D01*
X2189Y931D01*
X2184Y935D01*
X2178Y936D01*
D02*
G37*
G36*
X1553D02*
X1547Y935D01*
X1542Y931D01*
X1538Y926D01*
X1537Y920D01*
X1538Y914D01*
X1542Y909D01*
X1547Y905D01*
X1553Y904D01*
X1559Y905D01*
X1564Y909D01*
X1568Y914D01*
X1569Y920D01*
X1568Y926D01*
X1564Y931D01*
X1559Y935D01*
X1553Y936D01*
D02*
G37*
G36*
X928D02*
X922Y935D01*
X917Y931D01*
X913Y926D01*
X912Y920D01*
X913Y914D01*
X917Y909D01*
X922Y905D01*
X928Y904D01*
X934Y905D01*
X939Y909D01*
X943Y914D01*
X944Y920D01*
X943Y926D01*
X939Y931D01*
X934Y935D01*
X928Y936D01*
D02*
G37*
G36*
X8150Y909D02*
X8144Y908D01*
X8139Y904D01*
X8135Y899D01*
X8134Y893D01*
X8135Y887D01*
X8139Y882D01*
X8144Y878D01*
X8150Y877D01*
X8156Y878D01*
X8161Y882D01*
X8165Y887D01*
X8166Y893D01*
X8165Y899D01*
X8161Y904D01*
X8156Y908D01*
X8150Y909D01*
D02*
G37*
G36*
X7955D02*
X7949Y908D01*
X7944Y904D01*
X7940Y899D01*
X7939Y893D01*
X7940Y887D01*
X7944Y882D01*
X7949Y878D01*
X7955Y877D01*
X7961Y878D01*
X7966Y882D01*
X7970Y887D01*
X7971Y893D01*
X7970Y899D01*
X7966Y904D01*
X7961Y908D01*
X7955Y909D01*
D02*
G37*
G36*
X7760D02*
X7754Y908D01*
X7749Y904D01*
X7745Y899D01*
X7744Y893D01*
X7745Y887D01*
X7749Y882D01*
X7754Y878D01*
X7760Y877D01*
X7766Y878D01*
X7771Y882D01*
X7775Y887D01*
X7776Y893D01*
X7775Y899D01*
X7771Y904D01*
X7766Y908D01*
X7760Y909D01*
D02*
G37*
G36*
X7565D02*
X7559Y908D01*
X7554Y904D01*
X7550Y899D01*
X7549Y893D01*
X7550Y887D01*
X7554Y882D01*
X7559Y878D01*
X7565Y877D01*
X7571Y878D01*
X7576Y882D01*
X7580Y887D01*
X7581Y893D01*
X7580Y899D01*
X7576Y904D01*
X7571Y908D01*
X7565Y909D01*
D02*
G37*
G36*
X7370D02*
X7364Y908D01*
X7359Y904D01*
X7355Y899D01*
X7354Y893D01*
X7355Y887D01*
X7359Y882D01*
X7364Y878D01*
X7370Y877D01*
X7376Y878D01*
X7381Y882D01*
X7385Y887D01*
X7386Y893D01*
X7385Y899D01*
X7381Y904D01*
X7376Y908D01*
X7370Y909D01*
D02*
G37*
G36*
X7175D02*
X7169Y908D01*
X7164Y904D01*
X7160Y899D01*
X7159Y893D01*
X7160Y887D01*
X7164Y882D01*
X7169Y878D01*
X7175Y877D01*
X7181Y878D01*
X7186Y882D01*
X7190Y887D01*
X7191Y893D01*
X7190Y899D01*
X7186Y904D01*
X7181Y908D01*
X7175Y909D01*
D02*
G37*
G36*
X6980D02*
X6974Y908D01*
X6969Y904D01*
X6965Y899D01*
X6964Y893D01*
X6965Y887D01*
X6969Y882D01*
X6974Y878D01*
X6980Y877D01*
X6986Y878D01*
X6991Y882D01*
X6995Y887D01*
X6996Y893D01*
X6995Y899D01*
X6991Y904D01*
X6986Y908D01*
X6980Y909D01*
D02*
G37*
G36*
X6785D02*
X6779Y908D01*
X6774Y904D01*
X6770Y899D01*
X6769Y893D01*
X6770Y887D01*
X6774Y882D01*
X6779Y878D01*
X6785Y877D01*
X6791Y878D01*
X6796Y882D01*
X6800Y887D01*
X6801Y893D01*
X6800Y899D01*
X6796Y904D01*
X6791Y908D01*
X6785Y909D01*
D02*
G37*
G36*
X6590D02*
X6584Y908D01*
X6579Y904D01*
X6575Y899D01*
X6574Y893D01*
X6575Y887D01*
X6579Y882D01*
X6584Y878D01*
X6590Y877D01*
X6596Y878D01*
X6601Y882D01*
X6605Y887D01*
X6606Y893D01*
X6605Y899D01*
X6601Y904D01*
X6596Y908D01*
X6590Y909D01*
D02*
G37*
G36*
X5221Y903D02*
X5215Y902D01*
X5210Y898D01*
X5206Y893D01*
X5205Y887D01*
X5206Y881D01*
X5210Y876D01*
X5215Y872D01*
X5221Y871D01*
X5227Y872D01*
X5232Y876D01*
X5236Y881D01*
X5237Y887D01*
X5236Y893D01*
X5232Y898D01*
X5227Y902D01*
X5221Y903D01*
D02*
G37*
G36*
X4596D02*
X4590Y902D01*
X4585Y898D01*
X4581Y893D01*
X4580Y887D01*
X4581Y881D01*
X4585Y876D01*
X4590Y872D01*
X4596Y871D01*
X4602Y872D01*
X4607Y876D01*
X4611Y881D01*
X4612Y887D01*
X4611Y893D01*
X4607Y898D01*
X4602Y902D01*
X4596Y903D01*
D02*
G37*
G36*
X3971D02*
X3965Y902D01*
X3960Y898D01*
X3956Y893D01*
X3955Y887D01*
X3956Y881D01*
X3960Y876D01*
X3965Y872D01*
X3971Y871D01*
X3977Y872D01*
X3982Y876D01*
X3986Y881D01*
X3987Y887D01*
X3986Y893D01*
X3982Y898D01*
X3977Y902D01*
X3971Y903D01*
D02*
G37*
G36*
X3346D02*
X3340Y902D01*
X3335Y898D01*
X3331Y893D01*
X3330Y887D01*
X3331Y881D01*
X3335Y876D01*
X3340Y872D01*
X3346Y871D01*
X3352Y872D01*
X3357Y876D01*
X3361Y881D01*
X3362Y887D01*
X3361Y893D01*
X3357Y898D01*
X3352Y902D01*
X3346Y903D01*
D02*
G37*
G36*
X2721D02*
X2715Y902D01*
X2710Y898D01*
X2706Y893D01*
X2705Y887D01*
X2706Y881D01*
X2710Y876D01*
X2715Y872D01*
X2721Y871D01*
X2727Y872D01*
X2732Y876D01*
X2736Y881D01*
X2737Y887D01*
X2736Y893D01*
X2732Y898D01*
X2727Y902D01*
X2721Y903D01*
D02*
G37*
G36*
X2096D02*
X2090Y902D01*
X2085Y898D01*
X2081Y893D01*
X2080Y887D01*
X2081Y881D01*
X2085Y876D01*
X2090Y872D01*
X2096Y871D01*
X2102Y872D01*
X2107Y876D01*
X2111Y881D01*
X2112Y887D01*
X2111Y893D01*
X2107Y898D01*
X2102Y902D01*
X2096Y903D01*
D02*
G37*
G36*
X1471D02*
X1465Y902D01*
X1460Y898D01*
X1456Y893D01*
X1455Y887D01*
X1456Y881D01*
X1460Y876D01*
X1465Y872D01*
X1471Y871D01*
X1477Y872D01*
X1482Y876D01*
X1486Y881D01*
X1487Y887D01*
X1486Y893D01*
X1482Y898D01*
X1477Y902D01*
X1471Y903D01*
D02*
G37*
G36*
X846D02*
X840Y902D01*
X835Y898D01*
X831Y893D01*
X830Y887D01*
X831Y881D01*
X835Y876D01*
X840Y872D01*
X846Y871D01*
X852Y872D01*
X857Y876D01*
X861Y881D01*
X862Y887D01*
X861Y893D01*
X857Y898D01*
X852Y902D01*
X846Y903D01*
D02*
G37*
G36*
X5032Y901D02*
X5025Y900D01*
X5020Y896D01*
X5017Y891D01*
X5015Y885D01*
X5017Y879D01*
X5020Y874D01*
X5025Y870D01*
X5032Y869D01*
X5038Y870D01*
X5043Y874D01*
X5047Y879D01*
X5048Y885D01*
X5047Y891D01*
X5043Y896D01*
X5038Y900D01*
X5032Y901D01*
D02*
G37*
G36*
X4407D02*
X4400Y900D01*
X4395Y896D01*
X4392Y891D01*
X4390Y885D01*
X4392Y879D01*
X4395Y874D01*
X4400Y870D01*
X4407Y869D01*
X4413Y870D01*
X4418Y874D01*
X4422Y879D01*
X4423Y885D01*
X4422Y891D01*
X4418Y896D01*
X4413Y900D01*
X4407Y901D01*
D02*
G37*
G36*
X3782D02*
X3775Y900D01*
X3770Y896D01*
X3767Y891D01*
X3765Y885D01*
X3767Y879D01*
X3770Y874D01*
X3775Y870D01*
X3782Y869D01*
X3788Y870D01*
X3793Y874D01*
X3797Y879D01*
X3798Y885D01*
X3797Y891D01*
X3793Y896D01*
X3788Y900D01*
X3782Y901D01*
D02*
G37*
G36*
X3157D02*
X3150Y900D01*
X3145Y896D01*
X3142Y891D01*
X3140Y885D01*
X3142Y879D01*
X3145Y874D01*
X3150Y870D01*
X3157Y869D01*
X3163Y870D01*
X3168Y874D01*
X3172Y879D01*
X3173Y885D01*
X3172Y891D01*
X3168Y896D01*
X3163Y900D01*
X3157Y901D01*
D02*
G37*
G36*
X2532D02*
X2525Y900D01*
X2520Y896D01*
X2517Y891D01*
X2515Y885D01*
X2517Y879D01*
X2520Y874D01*
X2525Y870D01*
X2532Y869D01*
X2538Y870D01*
X2543Y874D01*
X2547Y879D01*
X2548Y885D01*
X2547Y891D01*
X2543Y896D01*
X2538Y900D01*
X2532Y901D01*
D02*
G37*
G36*
X1907D02*
X1900Y900D01*
X1895Y896D01*
X1892Y891D01*
X1890Y885D01*
X1892Y879D01*
X1895Y874D01*
X1900Y870D01*
X1907Y869D01*
X1913Y870D01*
X1918Y874D01*
X1922Y879D01*
X1923Y885D01*
X1922Y891D01*
X1918Y896D01*
X1913Y900D01*
X1907Y901D01*
D02*
G37*
G36*
X1282D02*
X1275Y900D01*
X1270Y896D01*
X1267Y891D01*
X1265Y885D01*
X1267Y879D01*
X1270Y874D01*
X1275Y870D01*
X1282Y869D01*
X1288Y870D01*
X1293Y874D01*
X1297Y879D01*
X1298Y885D01*
X1297Y891D01*
X1293Y896D01*
X1288Y900D01*
X1282Y901D01*
D02*
G37*
G36*
X657D02*
X650Y900D01*
X645Y896D01*
X642Y891D01*
X640Y885D01*
X642Y879D01*
X645Y874D01*
X650Y870D01*
X657Y869D01*
X663Y870D01*
X668Y874D01*
X672Y879D01*
X673Y885D01*
X672Y891D01*
X668Y896D01*
X663Y900D01*
X657Y901D01*
D02*
G37*
G36*
X5485Y889D02*
X5479Y888D01*
X5474Y884D01*
X5470Y879D01*
X5469Y873D01*
X5470Y867D01*
X5474Y861D01*
X5479Y858D01*
X5485Y857D01*
X5491Y858D01*
X5496Y861D01*
X5500Y867D01*
X5501Y873D01*
X5500Y879D01*
X5496Y884D01*
X5491Y888D01*
X5485Y889D01*
D02*
G37*
G36*
X4860D02*
X4854Y888D01*
X4849Y884D01*
X4845Y879D01*
X4844Y873D01*
X4845Y867D01*
X4849Y861D01*
X4854Y858D01*
X4860Y857D01*
X4866Y858D01*
X4871Y861D01*
X4875Y867D01*
X4876Y873D01*
X4875Y879D01*
X4871Y884D01*
X4866Y888D01*
X4860Y889D01*
D02*
G37*
G36*
X4235D02*
X4229Y888D01*
X4224Y884D01*
X4220Y879D01*
X4219Y873D01*
X4220Y867D01*
X4224Y861D01*
X4229Y858D01*
X4235Y857D01*
X4241Y858D01*
X4246Y861D01*
X4250Y867D01*
X4251Y873D01*
X4250Y879D01*
X4246Y884D01*
X4241Y888D01*
X4235Y889D01*
D02*
G37*
G36*
X3610D02*
X3604Y888D01*
X3599Y884D01*
X3595Y879D01*
X3594Y873D01*
X3595Y867D01*
X3599Y861D01*
X3604Y858D01*
X3610Y857D01*
X3616Y858D01*
X3621Y861D01*
X3625Y867D01*
X3626Y873D01*
X3625Y879D01*
X3621Y884D01*
X3616Y888D01*
X3610Y889D01*
D02*
G37*
G36*
X2985D02*
X2979Y888D01*
X2974Y884D01*
X2970Y879D01*
X2969Y873D01*
X2970Y867D01*
X2974Y861D01*
X2979Y858D01*
X2985Y857D01*
X2991Y858D01*
X2996Y861D01*
X3000Y867D01*
X3001Y873D01*
X3000Y879D01*
X2996Y884D01*
X2991Y888D01*
X2985Y889D01*
D02*
G37*
G36*
X2360D02*
X2354Y888D01*
X2349Y884D01*
X2345Y879D01*
X2344Y873D01*
X2345Y867D01*
X2349Y861D01*
X2354Y858D01*
X2360Y857D01*
X2366Y858D01*
X2371Y861D01*
X2375Y867D01*
X2376Y873D01*
X2375Y879D01*
X2371Y884D01*
X2366Y888D01*
X2360Y889D01*
D02*
G37*
G36*
X1735D02*
X1729Y888D01*
X1724Y884D01*
X1720Y879D01*
X1719Y873D01*
X1720Y867D01*
X1724Y861D01*
X1729Y858D01*
X1735Y857D01*
X1741Y858D01*
X1746Y861D01*
X1750Y867D01*
X1751Y873D01*
X1750Y879D01*
X1746Y884D01*
X1741Y888D01*
X1735Y889D01*
D02*
G37*
G36*
X1110D02*
X1104Y888D01*
X1099Y884D01*
X1095Y879D01*
X1094Y873D01*
X1095Y867D01*
X1099Y861D01*
X1104Y858D01*
X1110Y857D01*
X1116Y858D01*
X1121Y861D01*
X1125Y867D01*
X1126Y873D01*
X1125Y879D01*
X1121Y884D01*
X1116Y888D01*
X1110Y889D01*
D02*
G37*
G36*
X8214Y877D02*
X8208Y875D01*
X8203Y872D01*
X8199Y867D01*
X8198Y860D01*
X8199Y854D01*
X8203Y849D01*
X8208Y846D01*
X8214Y844D01*
X8220Y846D01*
X8226Y849D01*
X8229Y854D01*
X8230Y860D01*
X8229Y867D01*
X8226Y872D01*
X8220Y875D01*
X8214Y877D01*
D02*
G37*
G36*
X8019D02*
X8013Y875D01*
X8008Y872D01*
X8004Y867D01*
X8003Y860D01*
X8004Y854D01*
X8008Y849D01*
X8013Y846D01*
X8019Y844D01*
X8025Y846D01*
X8031Y849D01*
X8034Y854D01*
X8035Y860D01*
X8034Y867D01*
X8031Y872D01*
X8025Y875D01*
X8019Y877D01*
D02*
G37*
G36*
X7824D02*
X7818Y875D01*
X7813Y872D01*
X7809Y867D01*
X7808Y860D01*
X7809Y854D01*
X7813Y849D01*
X7818Y846D01*
X7824Y844D01*
X7830Y846D01*
X7836Y849D01*
X7839Y854D01*
X7840Y860D01*
X7839Y867D01*
X7836Y872D01*
X7830Y875D01*
X7824Y877D01*
D02*
G37*
G36*
X7629D02*
X7623Y875D01*
X7618Y872D01*
X7614Y867D01*
X7613Y860D01*
X7614Y854D01*
X7618Y849D01*
X7623Y846D01*
X7629Y844D01*
X7635Y846D01*
X7641Y849D01*
X7644Y854D01*
X7645Y860D01*
X7644Y867D01*
X7641Y872D01*
X7635Y875D01*
X7629Y877D01*
D02*
G37*
G36*
X7434D02*
X7428Y875D01*
X7423Y872D01*
X7419Y867D01*
X7418Y860D01*
X7419Y854D01*
X7423Y849D01*
X7428Y846D01*
X7434Y844D01*
X7440Y846D01*
X7446Y849D01*
X7449Y854D01*
X7450Y860D01*
X7449Y867D01*
X7446Y872D01*
X7440Y875D01*
X7434Y877D01*
D02*
G37*
G36*
X7239D02*
X7233Y875D01*
X7228Y872D01*
X7224Y867D01*
X7223Y860D01*
X7224Y854D01*
X7228Y849D01*
X7233Y846D01*
X7239Y844D01*
X7245Y846D01*
X7251Y849D01*
X7254Y854D01*
X7255Y860D01*
X7254Y867D01*
X7251Y872D01*
X7245Y875D01*
X7239Y877D01*
D02*
G37*
G36*
X7044D02*
X7038Y875D01*
X7033Y872D01*
X7029Y867D01*
X7028Y860D01*
X7029Y854D01*
X7033Y849D01*
X7038Y846D01*
X7044Y844D01*
X7050Y846D01*
X7056Y849D01*
X7059Y854D01*
X7060Y860D01*
X7059Y867D01*
X7056Y872D01*
X7050Y875D01*
X7044Y877D01*
D02*
G37*
G36*
X6849D02*
X6843Y875D01*
X6838Y872D01*
X6834Y867D01*
X6833Y860D01*
X6834Y854D01*
X6838Y849D01*
X6843Y846D01*
X6849Y844D01*
X6855Y846D01*
X6861Y849D01*
X6864Y854D01*
X6865Y860D01*
X6864Y867D01*
X6861Y872D01*
X6855Y875D01*
X6849Y877D01*
D02*
G37*
G36*
X6654D02*
X6648Y875D01*
X6643Y872D01*
X6639Y867D01*
X6638Y860D01*
X6639Y854D01*
X6643Y849D01*
X6648Y846D01*
X6654Y844D01*
X6660Y846D01*
X6666Y849D01*
X6669Y854D01*
X6670Y860D01*
X6669Y867D01*
X6666Y872D01*
X6660Y875D01*
X6654Y877D01*
D02*
G37*
G36*
X5415Y873D02*
X5409Y872D01*
X5404Y868D01*
X5400Y863D01*
X5399Y857D01*
X5400Y851D01*
X5404Y846D01*
X5409Y842D01*
X5415Y841D01*
X5421Y842D01*
X5426Y846D01*
X5430Y851D01*
X5431Y857D01*
X5430Y863D01*
X5426Y868D01*
X5421Y872D01*
X5415Y873D01*
D02*
G37*
G36*
X5365D02*
X5359Y872D01*
X5354Y868D01*
X5350Y863D01*
X5349Y857D01*
X5350Y851D01*
X5354Y846D01*
X5359Y842D01*
X5365Y841D01*
X5371Y842D01*
X5376Y846D01*
X5380Y851D01*
X5381Y857D01*
X5380Y863D01*
X5376Y868D01*
X5371Y872D01*
X5365Y873D01*
D02*
G37*
G36*
X4790D02*
X4784Y872D01*
X4779Y868D01*
X4775Y863D01*
X4774Y857D01*
X4775Y851D01*
X4779Y846D01*
X4784Y842D01*
X4790Y841D01*
X4796Y842D01*
X4801Y846D01*
X4805Y851D01*
X4806Y857D01*
X4805Y863D01*
X4801Y868D01*
X4796Y872D01*
X4790Y873D01*
D02*
G37*
G36*
X4740D02*
X4734Y872D01*
X4729Y868D01*
X4725Y863D01*
X4724Y857D01*
X4725Y851D01*
X4729Y846D01*
X4734Y842D01*
X4740Y841D01*
X4746Y842D01*
X4751Y846D01*
X4755Y851D01*
X4756Y857D01*
X4755Y863D01*
X4751Y868D01*
X4746Y872D01*
X4740Y873D01*
D02*
G37*
G36*
X4165D02*
X4159Y872D01*
X4154Y868D01*
X4150Y863D01*
X4149Y857D01*
X4150Y851D01*
X4154Y846D01*
X4159Y842D01*
X4165Y841D01*
X4171Y842D01*
X4176Y846D01*
X4180Y851D01*
X4181Y857D01*
X4180Y863D01*
X4176Y868D01*
X4171Y872D01*
X4165Y873D01*
D02*
G37*
G36*
X4115D02*
X4109Y872D01*
X4104Y868D01*
X4100Y863D01*
X4099Y857D01*
X4100Y851D01*
X4104Y846D01*
X4109Y842D01*
X4115Y841D01*
X4121Y842D01*
X4126Y846D01*
X4130Y851D01*
X4131Y857D01*
X4130Y863D01*
X4126Y868D01*
X4121Y872D01*
X4115Y873D01*
D02*
G37*
G36*
X3540D02*
X3534Y872D01*
X3529Y868D01*
X3525Y863D01*
X3524Y857D01*
X3525Y851D01*
X3529Y846D01*
X3534Y842D01*
X3540Y841D01*
X3546Y842D01*
X3551Y846D01*
X3555Y851D01*
X3556Y857D01*
X3555Y863D01*
X3551Y868D01*
X3546Y872D01*
X3540Y873D01*
D02*
G37*
G36*
X3490D02*
X3484Y872D01*
X3479Y868D01*
X3475Y863D01*
X3474Y857D01*
X3475Y851D01*
X3479Y846D01*
X3484Y842D01*
X3490Y841D01*
X3496Y842D01*
X3501Y846D01*
X3505Y851D01*
X3506Y857D01*
X3505Y863D01*
X3501Y868D01*
X3496Y872D01*
X3490Y873D01*
D02*
G37*
G36*
X2915D02*
X2909Y872D01*
X2904Y868D01*
X2900Y863D01*
X2899Y857D01*
X2900Y851D01*
X2904Y846D01*
X2909Y842D01*
X2915Y841D01*
X2921Y842D01*
X2926Y846D01*
X2930Y851D01*
X2931Y857D01*
X2930Y863D01*
X2926Y868D01*
X2921Y872D01*
X2915Y873D01*
D02*
G37*
G36*
X2865D02*
X2859Y872D01*
X2854Y868D01*
X2850Y863D01*
X2849Y857D01*
X2850Y851D01*
X2854Y846D01*
X2859Y842D01*
X2865Y841D01*
X2871Y842D01*
X2876Y846D01*
X2880Y851D01*
X2881Y857D01*
X2880Y863D01*
X2876Y868D01*
X2871Y872D01*
X2865Y873D01*
D02*
G37*
G36*
X2290D02*
X2284Y872D01*
X2279Y868D01*
X2275Y863D01*
X2274Y857D01*
X2275Y851D01*
X2279Y846D01*
X2284Y842D01*
X2290Y841D01*
X2296Y842D01*
X2301Y846D01*
X2305Y851D01*
X2306Y857D01*
X2305Y863D01*
X2301Y868D01*
X2296Y872D01*
X2290Y873D01*
D02*
G37*
G36*
X2240D02*
X2234Y872D01*
X2229Y868D01*
X2225Y863D01*
X2224Y857D01*
X2225Y851D01*
X2229Y846D01*
X2234Y842D01*
X2240Y841D01*
X2246Y842D01*
X2251Y846D01*
X2255Y851D01*
X2256Y857D01*
X2255Y863D01*
X2251Y868D01*
X2246Y872D01*
X2240Y873D01*
D02*
G37*
G36*
X1665D02*
X1659Y872D01*
X1654Y868D01*
X1650Y863D01*
X1649Y857D01*
X1650Y851D01*
X1654Y846D01*
X1659Y842D01*
X1665Y841D01*
X1671Y842D01*
X1676Y846D01*
X1680Y851D01*
X1681Y857D01*
X1680Y863D01*
X1676Y868D01*
X1671Y872D01*
X1665Y873D01*
D02*
G37*
G36*
X1615D02*
X1609Y872D01*
X1604Y868D01*
X1600Y863D01*
X1599Y857D01*
X1600Y851D01*
X1604Y846D01*
X1609Y842D01*
X1615Y841D01*
X1621Y842D01*
X1626Y846D01*
X1630Y851D01*
X1631Y857D01*
X1630Y863D01*
X1626Y868D01*
X1621Y872D01*
X1615Y873D01*
D02*
G37*
G36*
X1040D02*
X1034Y872D01*
X1029Y868D01*
X1025Y863D01*
X1024Y857D01*
X1025Y851D01*
X1029Y846D01*
X1034Y842D01*
X1040Y841D01*
X1046Y842D01*
X1051Y846D01*
X1055Y851D01*
X1056Y857D01*
X1055Y863D01*
X1051Y868D01*
X1046Y872D01*
X1040Y873D01*
D02*
G37*
G36*
X990D02*
X984Y872D01*
X979Y868D01*
X975Y863D01*
X974Y857D01*
X975Y851D01*
X979Y846D01*
X984Y842D01*
X990Y841D01*
X996Y842D01*
X1001Y846D01*
X1005Y851D01*
X1006Y857D01*
X1005Y863D01*
X1001Y868D01*
X996Y872D01*
X990Y873D01*
D02*
G37*
G36*
X5046Y841D02*
X5040Y840D01*
X5035Y836D01*
X5031Y831D01*
X5030Y825D01*
X5031Y819D01*
X5035Y814D01*
X5040Y810D01*
X5046Y809D01*
X5052Y810D01*
X5058Y814D01*
X5061Y819D01*
X5062Y825D01*
X5061Y831D01*
X5058Y836D01*
X5052Y840D01*
X5046Y841D01*
D02*
G37*
G36*
X4421D02*
X4415Y840D01*
X4410Y836D01*
X4406Y831D01*
X4405Y825D01*
X4406Y819D01*
X4410Y814D01*
X4415Y810D01*
X4421Y809D01*
X4427Y810D01*
X4433Y814D01*
X4436Y819D01*
X4437Y825D01*
X4436Y831D01*
X4433Y836D01*
X4427Y840D01*
X4421Y841D01*
D02*
G37*
G36*
X3796D02*
X3790Y840D01*
X3785Y836D01*
X3781Y831D01*
X3780Y825D01*
X3781Y819D01*
X3785Y814D01*
X3790Y810D01*
X3796Y809D01*
X3802Y810D01*
X3808Y814D01*
X3811Y819D01*
X3812Y825D01*
X3811Y831D01*
X3808Y836D01*
X3802Y840D01*
X3796Y841D01*
D02*
G37*
G36*
X3171D02*
X3165Y840D01*
X3160Y836D01*
X3156Y831D01*
X3155Y825D01*
X3156Y819D01*
X3160Y814D01*
X3165Y810D01*
X3171Y809D01*
X3177Y810D01*
X3183Y814D01*
X3186Y819D01*
X3187Y825D01*
X3186Y831D01*
X3183Y836D01*
X3177Y840D01*
X3171Y841D01*
D02*
G37*
G36*
X2546D02*
X2540Y840D01*
X2535Y836D01*
X2531Y831D01*
X2530Y825D01*
X2531Y819D01*
X2535Y814D01*
X2540Y810D01*
X2546Y809D01*
X2552Y810D01*
X2558Y814D01*
X2561Y819D01*
X2562Y825D01*
X2561Y831D01*
X2558Y836D01*
X2552Y840D01*
X2546Y841D01*
D02*
G37*
G36*
X1921D02*
X1915Y840D01*
X1910Y836D01*
X1906Y831D01*
X1905Y825D01*
X1906Y819D01*
X1910Y814D01*
X1915Y810D01*
X1921Y809D01*
X1927Y810D01*
X1933Y814D01*
X1936Y819D01*
X1937Y825D01*
X1936Y831D01*
X1933Y836D01*
X1927Y840D01*
X1921Y841D01*
D02*
G37*
G36*
X1296D02*
X1290Y840D01*
X1285Y836D01*
X1281Y831D01*
X1280Y825D01*
X1281Y819D01*
X1285Y814D01*
X1290Y810D01*
X1296Y809D01*
X1302Y810D01*
X1308Y814D01*
X1311Y819D01*
X1312Y825D01*
X1311Y831D01*
X1308Y836D01*
X1302Y840D01*
X1296Y841D01*
D02*
G37*
G36*
X671D02*
X665Y840D01*
X660Y836D01*
X656Y831D01*
X655Y825D01*
X656Y819D01*
X660Y814D01*
X665Y810D01*
X671Y809D01*
X677Y810D01*
X683Y814D01*
X686Y819D01*
X687Y825D01*
X686Y831D01*
X683Y836D01*
X677Y840D01*
X671Y841D01*
D02*
G37*
G36*
X5325Y790D02*
X5319Y789D01*
X5314Y785D01*
X5310Y780D01*
X5309Y774D01*
X5310Y768D01*
X5314Y763D01*
X5319Y759D01*
X5325Y758D01*
X5331Y759D01*
X5336Y763D01*
X5340Y768D01*
X5341Y774D01*
X5340Y780D01*
X5336Y785D01*
X5331Y789D01*
X5325Y790D01*
D02*
G37*
G36*
X4700D02*
X4694Y789D01*
X4689Y785D01*
X4685Y780D01*
X4684Y774D01*
X4685Y768D01*
X4689Y763D01*
X4694Y759D01*
X4700Y758D01*
X4706Y759D01*
X4711Y763D01*
X4715Y768D01*
X4716Y774D01*
X4715Y780D01*
X4711Y785D01*
X4706Y789D01*
X4700Y790D01*
D02*
G37*
G36*
X4075D02*
X4069Y789D01*
X4064Y785D01*
X4060Y780D01*
X4059Y774D01*
X4060Y768D01*
X4064Y763D01*
X4069Y759D01*
X4075Y758D01*
X4081Y759D01*
X4086Y763D01*
X4090Y768D01*
X4091Y774D01*
X4090Y780D01*
X4086Y785D01*
X4081Y789D01*
X4075Y790D01*
D02*
G37*
G36*
X3450D02*
X3444Y789D01*
X3439Y785D01*
X3435Y780D01*
X3434Y774D01*
X3435Y768D01*
X3439Y763D01*
X3444Y759D01*
X3450Y758D01*
X3456Y759D01*
X3461Y763D01*
X3465Y768D01*
X3466Y774D01*
X3465Y780D01*
X3461Y785D01*
X3456Y789D01*
X3450Y790D01*
D02*
G37*
G36*
X2825D02*
X2819Y789D01*
X2814Y785D01*
X2810Y780D01*
X2809Y774D01*
X2810Y768D01*
X2814Y763D01*
X2819Y759D01*
X2825Y758D01*
X2831Y759D01*
X2836Y763D01*
X2840Y768D01*
X2841Y774D01*
X2840Y780D01*
X2836Y785D01*
X2831Y789D01*
X2825Y790D01*
D02*
G37*
G36*
X2200D02*
X2194Y789D01*
X2189Y785D01*
X2185Y780D01*
X2184Y774D01*
X2185Y768D01*
X2189Y763D01*
X2194Y759D01*
X2200Y758D01*
X2206Y759D01*
X2211Y763D01*
X2215Y768D01*
X2216Y774D01*
X2215Y780D01*
X2211Y785D01*
X2206Y789D01*
X2200Y790D01*
D02*
G37*
G36*
X1575D02*
X1569Y789D01*
X1564Y785D01*
X1560Y780D01*
X1559Y774D01*
X1560Y768D01*
X1564Y763D01*
X1569Y759D01*
X1575Y758D01*
X1581Y759D01*
X1586Y763D01*
X1590Y768D01*
X1591Y774D01*
X1590Y780D01*
X1586Y785D01*
X1581Y789D01*
X1575Y790D01*
D02*
G37*
G36*
X950D02*
X944Y789D01*
X939Y785D01*
X935Y780D01*
X934Y774D01*
X935Y768D01*
X939Y763D01*
X944Y759D01*
X950Y758D01*
X956Y759D01*
X961Y763D01*
X965Y768D01*
X966Y774D01*
X965Y780D01*
X961Y785D01*
X956Y789D01*
X950Y790D01*
D02*
G37*
G36*
X9521Y783D02*
X9515Y782D01*
X9510Y779D01*
X9507Y773D01*
X9505Y767D01*
X9507Y761D01*
X9510Y756D01*
X9515Y752D01*
X9521Y751D01*
X9528Y752D01*
X9533Y756D01*
X9536Y761D01*
X9538Y767D01*
X9536Y773D01*
X9533Y779D01*
X9528Y782D01*
X9521Y783D01*
D02*
G37*
G36*
X8214Y767D02*
X8208Y765D01*
X8203Y762D01*
X8199Y757D01*
X8198Y750D01*
X8199Y744D01*
X8203Y739D01*
X8208Y736D01*
X8214Y734D01*
X8220Y736D01*
X8226Y739D01*
X8229Y744D01*
X8230Y750D01*
X8229Y757D01*
X8226Y762D01*
X8220Y765D01*
X8214Y767D01*
D02*
G37*
G36*
X8019D02*
X8013Y765D01*
X8008Y762D01*
X8004Y757D01*
X8003Y750D01*
X8004Y744D01*
X8008Y739D01*
X8013Y736D01*
X8019Y734D01*
X8025Y736D01*
X8031Y739D01*
X8034Y744D01*
X8035Y750D01*
X8034Y757D01*
X8031Y762D01*
X8025Y765D01*
X8019Y767D01*
D02*
G37*
G36*
X7824D02*
X7818Y765D01*
X7813Y762D01*
X7809Y757D01*
X7808Y750D01*
X7809Y744D01*
X7813Y739D01*
X7818Y736D01*
X7824Y734D01*
X7830Y736D01*
X7836Y739D01*
X7839Y744D01*
X7840Y750D01*
X7839Y757D01*
X7836Y762D01*
X7830Y765D01*
X7824Y767D01*
D02*
G37*
G36*
X7629D02*
X7623Y765D01*
X7618Y762D01*
X7614Y757D01*
X7613Y750D01*
X7614Y744D01*
X7618Y739D01*
X7623Y736D01*
X7629Y734D01*
X7635Y736D01*
X7641Y739D01*
X7644Y744D01*
X7645Y750D01*
X7644Y757D01*
X7641Y762D01*
X7635Y765D01*
X7629Y767D01*
D02*
G37*
G36*
X7434D02*
X7428Y765D01*
X7423Y762D01*
X7419Y757D01*
X7418Y750D01*
X7419Y744D01*
X7423Y739D01*
X7428Y736D01*
X7434Y734D01*
X7440Y736D01*
X7446Y739D01*
X7449Y744D01*
X7450Y750D01*
X7449Y757D01*
X7446Y762D01*
X7440Y765D01*
X7434Y767D01*
D02*
G37*
G36*
X7239D02*
X7233Y765D01*
X7228Y762D01*
X7224Y757D01*
X7223Y750D01*
X7224Y744D01*
X7228Y739D01*
X7233Y736D01*
X7239Y734D01*
X7245Y736D01*
X7251Y739D01*
X7254Y744D01*
X7255Y750D01*
X7254Y757D01*
X7251Y762D01*
X7245Y765D01*
X7239Y767D01*
D02*
G37*
G36*
X7044D02*
X7038Y765D01*
X7033Y762D01*
X7029Y757D01*
X7028Y750D01*
X7029Y744D01*
X7033Y739D01*
X7038Y736D01*
X7044Y734D01*
X7050Y736D01*
X7056Y739D01*
X7059Y744D01*
X7060Y750D01*
X7059Y757D01*
X7056Y762D01*
X7050Y765D01*
X7044Y767D01*
D02*
G37*
G36*
X6849D02*
X6843Y765D01*
X6838Y762D01*
X6834Y757D01*
X6833Y750D01*
X6834Y744D01*
X6838Y739D01*
X6843Y736D01*
X6849Y734D01*
X6855Y736D01*
X6861Y739D01*
X6864Y744D01*
X6865Y750D01*
X6864Y757D01*
X6861Y762D01*
X6855Y765D01*
X6849Y767D01*
D02*
G37*
G36*
X6654D02*
X6648Y765D01*
X6643Y762D01*
X6639Y757D01*
X6638Y750D01*
X6639Y744D01*
X6643Y739D01*
X6648Y736D01*
X6654Y734D01*
X6660Y736D01*
X6666Y739D01*
X6669Y744D01*
X6670Y750D01*
X6669Y757D01*
X6666Y762D01*
X6660Y765D01*
X6654Y767D01*
D02*
G37*
G36*
X5046Y756D02*
X5040Y755D01*
X5035Y751D01*
X5031Y746D01*
X5030Y740D01*
X5031Y734D01*
X5035Y729D01*
X5040Y725D01*
X5046Y724D01*
X5052Y725D01*
X5058Y729D01*
X5061Y734D01*
X5062Y740D01*
X5061Y746D01*
X5058Y751D01*
X5052Y755D01*
X5046Y756D01*
D02*
G37*
G36*
X4421D02*
X4415Y755D01*
X4410Y751D01*
X4406Y746D01*
X4405Y740D01*
X4406Y734D01*
X4410Y729D01*
X4415Y725D01*
X4421Y724D01*
X4427Y725D01*
X4433Y729D01*
X4436Y734D01*
X4437Y740D01*
X4436Y746D01*
X4433Y751D01*
X4427Y755D01*
X4421Y756D01*
D02*
G37*
G36*
X3796D02*
X3790Y755D01*
X3785Y751D01*
X3781Y746D01*
X3780Y740D01*
X3781Y734D01*
X3785Y729D01*
X3790Y725D01*
X3796Y724D01*
X3802Y725D01*
X3808Y729D01*
X3811Y734D01*
X3812Y740D01*
X3811Y746D01*
X3808Y751D01*
X3802Y755D01*
X3796Y756D01*
D02*
G37*
G36*
X3171D02*
X3165Y755D01*
X3160Y751D01*
X3156Y746D01*
X3155Y740D01*
X3156Y734D01*
X3160Y729D01*
X3165Y725D01*
X3171Y724D01*
X3177Y725D01*
X3183Y729D01*
X3186Y734D01*
X3187Y740D01*
X3186Y746D01*
X3183Y751D01*
X3177Y755D01*
X3171Y756D01*
D02*
G37*
G36*
X2546D02*
X2540Y755D01*
X2535Y751D01*
X2531Y746D01*
X2530Y740D01*
X2531Y734D01*
X2535Y729D01*
X2540Y725D01*
X2546Y724D01*
X2552Y725D01*
X2558Y729D01*
X2561Y734D01*
X2562Y740D01*
X2561Y746D01*
X2558Y751D01*
X2552Y755D01*
X2546Y756D01*
D02*
G37*
G36*
X1921D02*
X1915Y755D01*
X1910Y751D01*
X1906Y746D01*
X1905Y740D01*
X1906Y734D01*
X1910Y729D01*
X1915Y725D01*
X1921Y724D01*
X1927Y725D01*
X1933Y729D01*
X1936Y734D01*
X1937Y740D01*
X1936Y746D01*
X1933Y751D01*
X1927Y755D01*
X1921Y756D01*
D02*
G37*
G36*
X1296D02*
X1290Y755D01*
X1285Y751D01*
X1281Y746D01*
X1280Y740D01*
X1281Y734D01*
X1285Y729D01*
X1290Y725D01*
X1296Y724D01*
X1302Y725D01*
X1308Y729D01*
X1311Y734D01*
X1312Y740D01*
X1311Y746D01*
X1308Y751D01*
X1302Y755D01*
X1296Y756D01*
D02*
G37*
G36*
X671D02*
X665Y755D01*
X660Y751D01*
X656Y746D01*
X655Y740D01*
X656Y734D01*
X660Y729D01*
X665Y725D01*
X671Y724D01*
X677Y725D01*
X683Y729D01*
X686Y734D01*
X687Y740D01*
X686Y746D01*
X683Y751D01*
X677Y755D01*
X671Y756D01*
D02*
G37*
G36*
X5430Y754D02*
X5424Y753D01*
X5419Y749D01*
X5415Y744D01*
X5414Y738D01*
X5415Y732D01*
X5419Y727D01*
X5424Y723D01*
X5430Y722D01*
X5436Y723D01*
X5441Y727D01*
X5445Y732D01*
X5446Y738D01*
X5445Y744D01*
X5441Y749D01*
X5436Y753D01*
X5430Y754D01*
D02*
G37*
G36*
X5393D02*
X5387Y753D01*
X5382Y749D01*
X5378Y744D01*
X5377Y738D01*
X5378Y732D01*
X5382Y727D01*
X5387Y723D01*
X5393Y722D01*
X5399Y723D01*
X5404Y727D01*
X5408Y732D01*
X5409Y738D01*
X5408Y744D01*
X5404Y749D01*
X5399Y753D01*
X5393Y754D01*
D02*
G37*
G36*
X4805D02*
X4799Y753D01*
X4794Y749D01*
X4790Y744D01*
X4789Y738D01*
X4790Y732D01*
X4794Y727D01*
X4799Y723D01*
X4805Y722D01*
X4811Y723D01*
X4816Y727D01*
X4820Y732D01*
X4821Y738D01*
X4820Y744D01*
X4816Y749D01*
X4811Y753D01*
X4805Y754D01*
D02*
G37*
G36*
X4768D02*
X4762Y753D01*
X4757Y749D01*
X4753Y744D01*
X4752Y738D01*
X4753Y732D01*
X4757Y727D01*
X4762Y723D01*
X4768Y722D01*
X4774Y723D01*
X4779Y727D01*
X4783Y732D01*
X4784Y738D01*
X4783Y744D01*
X4779Y749D01*
X4774Y753D01*
X4768Y754D01*
D02*
G37*
G36*
X4180D02*
X4174Y753D01*
X4169Y749D01*
X4165Y744D01*
X4164Y738D01*
X4165Y732D01*
X4169Y727D01*
X4174Y723D01*
X4180Y722D01*
X4186Y723D01*
X4191Y727D01*
X4195Y732D01*
X4196Y738D01*
X4195Y744D01*
X4191Y749D01*
X4186Y753D01*
X4180Y754D01*
D02*
G37*
G36*
X4143D02*
X4137Y753D01*
X4132Y749D01*
X4128Y744D01*
X4127Y738D01*
X4128Y732D01*
X4132Y727D01*
X4137Y723D01*
X4143Y722D01*
X4149Y723D01*
X4154Y727D01*
X4158Y732D01*
X4159Y738D01*
X4158Y744D01*
X4154Y749D01*
X4149Y753D01*
X4143Y754D01*
D02*
G37*
G36*
X3555D02*
X3549Y753D01*
X3544Y749D01*
X3540Y744D01*
X3539Y738D01*
X3540Y732D01*
X3544Y727D01*
X3549Y723D01*
X3555Y722D01*
X3561Y723D01*
X3566Y727D01*
X3570Y732D01*
X3571Y738D01*
X3570Y744D01*
X3566Y749D01*
X3561Y753D01*
X3555Y754D01*
D02*
G37*
G36*
X3518D02*
X3512Y753D01*
X3507Y749D01*
X3503Y744D01*
X3502Y738D01*
X3503Y732D01*
X3507Y727D01*
X3512Y723D01*
X3518Y722D01*
X3524Y723D01*
X3529Y727D01*
X3533Y732D01*
X3534Y738D01*
X3533Y744D01*
X3529Y749D01*
X3524Y753D01*
X3518Y754D01*
D02*
G37*
G36*
X2930D02*
X2924Y753D01*
X2919Y749D01*
X2915Y744D01*
X2914Y738D01*
X2915Y732D01*
X2919Y727D01*
X2924Y723D01*
X2930Y722D01*
X2936Y723D01*
X2941Y727D01*
X2945Y732D01*
X2946Y738D01*
X2945Y744D01*
X2941Y749D01*
X2936Y753D01*
X2930Y754D01*
D02*
G37*
G36*
X2893D02*
X2887Y753D01*
X2882Y749D01*
X2878Y744D01*
X2877Y738D01*
X2878Y732D01*
X2882Y727D01*
X2887Y723D01*
X2893Y722D01*
X2899Y723D01*
X2904Y727D01*
X2908Y732D01*
X2909Y738D01*
X2908Y744D01*
X2904Y749D01*
X2899Y753D01*
X2893Y754D01*
D02*
G37*
G36*
X2305D02*
X2299Y753D01*
X2294Y749D01*
X2290Y744D01*
X2289Y738D01*
X2290Y732D01*
X2294Y727D01*
X2299Y723D01*
X2305Y722D01*
X2311Y723D01*
X2316Y727D01*
X2320Y732D01*
X2321Y738D01*
X2320Y744D01*
X2316Y749D01*
X2311Y753D01*
X2305Y754D01*
D02*
G37*
G36*
X2268D02*
X2262Y753D01*
X2257Y749D01*
X2253Y744D01*
X2252Y738D01*
X2253Y732D01*
X2257Y727D01*
X2262Y723D01*
X2268Y722D01*
X2274Y723D01*
X2279Y727D01*
X2283Y732D01*
X2284Y738D01*
X2283Y744D01*
X2279Y749D01*
X2274Y753D01*
X2268Y754D01*
D02*
G37*
G36*
X1680D02*
X1674Y753D01*
X1669Y749D01*
X1665Y744D01*
X1664Y738D01*
X1665Y732D01*
X1669Y727D01*
X1674Y723D01*
X1680Y722D01*
X1686Y723D01*
X1691Y727D01*
X1695Y732D01*
X1696Y738D01*
X1695Y744D01*
X1691Y749D01*
X1686Y753D01*
X1680Y754D01*
D02*
G37*
G36*
X1643D02*
X1637Y753D01*
X1632Y749D01*
X1628Y744D01*
X1627Y738D01*
X1628Y732D01*
X1632Y727D01*
X1637Y723D01*
X1643Y722D01*
X1649Y723D01*
X1654Y727D01*
X1658Y732D01*
X1659Y738D01*
X1658Y744D01*
X1654Y749D01*
X1649Y753D01*
X1643Y754D01*
D02*
G37*
G36*
X1055D02*
X1049Y753D01*
X1044Y749D01*
X1040Y744D01*
X1039Y738D01*
X1040Y732D01*
X1044Y727D01*
X1049Y723D01*
X1055Y722D01*
X1061Y723D01*
X1066Y727D01*
X1070Y732D01*
X1071Y738D01*
X1070Y744D01*
X1066Y749D01*
X1061Y753D01*
X1055Y754D01*
D02*
G37*
G36*
X1018D02*
X1012Y753D01*
X1007Y749D01*
X1003Y744D01*
X1002Y738D01*
X1003Y732D01*
X1007Y727D01*
X1012Y723D01*
X1018Y722D01*
X1024Y723D01*
X1029Y727D01*
X1033Y732D01*
X1034Y738D01*
X1033Y744D01*
X1029Y749D01*
X1024Y753D01*
X1018Y754D01*
D02*
G37*
G36*
X9601Y748D02*
X9595Y747D01*
X9589Y743D01*
X9586Y738D01*
X9585Y732D01*
X9586Y726D01*
X9589Y720D01*
X9595Y717D01*
X9601Y716D01*
X9607Y717D01*
X9612Y720D01*
X9616Y726D01*
X9617Y732D01*
X9616Y738D01*
X9612Y743D01*
X9607Y747D01*
X9601Y748D01*
D02*
G37*
G36*
X9767Y727D02*
X9761Y726D01*
X9756Y722D01*
X9752Y717D01*
X9751Y711D01*
X9752Y704D01*
X9756Y699D01*
X9761Y696D01*
X9767Y695D01*
X9773Y696D01*
X9779Y699D01*
X9782Y704D01*
X9783Y711D01*
X9782Y717D01*
X9779Y722D01*
X9773Y726D01*
X9767Y727D01*
D02*
G37*
G36*
X9720D02*
X9714Y726D01*
X9709Y722D01*
X9706Y717D01*
X9704Y711D01*
X9706Y704D01*
X9709Y699D01*
X9714Y696D01*
X9720Y695D01*
X9727Y696D01*
X9732Y699D01*
X9735Y704D01*
X9737Y711D01*
X9735Y717D01*
X9732Y722D01*
X9727Y726D01*
X9720Y727D01*
D02*
G37*
G36*
X5333Y702D02*
X5327Y701D01*
X5322Y697D01*
X5318Y692D01*
X5317Y686D01*
X5318Y680D01*
X5322Y675D01*
X5327Y671D01*
X5333Y670D01*
X5339Y671D01*
X5344Y675D01*
X5348Y680D01*
X5349Y686D01*
X5348Y692D01*
X5344Y697D01*
X5339Y701D01*
X5333Y702D01*
D02*
G37*
G36*
X5291D02*
X5285Y701D01*
X5280Y697D01*
X5276Y692D01*
X5275Y686D01*
X5276Y680D01*
X5280Y675D01*
X5285Y671D01*
X5291Y670D01*
X5297Y671D01*
X5302Y675D01*
X5306Y680D01*
X5307Y686D01*
X5306Y692D01*
X5302Y697D01*
X5297Y701D01*
X5291Y702D01*
D02*
G37*
G36*
X4708D02*
X4702Y701D01*
X4697Y697D01*
X4693Y692D01*
X4692Y686D01*
X4693Y680D01*
X4697Y675D01*
X4702Y671D01*
X4708Y670D01*
X4714Y671D01*
X4719Y675D01*
X4723Y680D01*
X4724Y686D01*
X4723Y692D01*
X4719Y697D01*
X4714Y701D01*
X4708Y702D01*
D02*
G37*
G36*
X4666D02*
X4660Y701D01*
X4655Y697D01*
X4651Y692D01*
X4650Y686D01*
X4651Y680D01*
X4655Y675D01*
X4660Y671D01*
X4666Y670D01*
X4672Y671D01*
X4677Y675D01*
X4681Y680D01*
X4682Y686D01*
X4681Y692D01*
X4677Y697D01*
X4672Y701D01*
X4666Y702D01*
D02*
G37*
G36*
X4083D02*
X4077Y701D01*
X4072Y697D01*
X4068Y692D01*
X4067Y686D01*
X4068Y680D01*
X4072Y675D01*
X4077Y671D01*
X4083Y670D01*
X4089Y671D01*
X4094Y675D01*
X4098Y680D01*
X4099Y686D01*
X4098Y692D01*
X4094Y697D01*
X4089Y701D01*
X4083Y702D01*
D02*
G37*
G36*
X4041D02*
X4035Y701D01*
X4030Y697D01*
X4026Y692D01*
X4025Y686D01*
X4026Y680D01*
X4030Y675D01*
X4035Y671D01*
X4041Y670D01*
X4047Y671D01*
X4052Y675D01*
X4056Y680D01*
X4057Y686D01*
X4056Y692D01*
X4052Y697D01*
X4047Y701D01*
X4041Y702D01*
D02*
G37*
G36*
X3458D02*
X3452Y701D01*
X3447Y697D01*
X3443Y692D01*
X3442Y686D01*
X3443Y680D01*
X3447Y675D01*
X3452Y671D01*
X3458Y670D01*
X3464Y671D01*
X3469Y675D01*
X3473Y680D01*
X3474Y686D01*
X3473Y692D01*
X3469Y697D01*
X3464Y701D01*
X3458Y702D01*
D02*
G37*
G36*
X3416D02*
X3410Y701D01*
X3405Y697D01*
X3401Y692D01*
X3400Y686D01*
X3401Y680D01*
X3405Y675D01*
X3410Y671D01*
X3416Y670D01*
X3422Y671D01*
X3427Y675D01*
X3431Y680D01*
X3432Y686D01*
X3431Y692D01*
X3427Y697D01*
X3422Y701D01*
X3416Y702D01*
D02*
G37*
G36*
X2833D02*
X2827Y701D01*
X2822Y697D01*
X2818Y692D01*
X2817Y686D01*
X2818Y680D01*
X2822Y675D01*
X2827Y671D01*
X2833Y670D01*
X2839Y671D01*
X2844Y675D01*
X2848Y680D01*
X2849Y686D01*
X2848Y692D01*
X2844Y697D01*
X2839Y701D01*
X2833Y702D01*
D02*
G37*
G36*
X2791D02*
X2785Y701D01*
X2780Y697D01*
X2776Y692D01*
X2775Y686D01*
X2776Y680D01*
X2780Y675D01*
X2785Y671D01*
X2791Y670D01*
X2797Y671D01*
X2802Y675D01*
X2806Y680D01*
X2807Y686D01*
X2806Y692D01*
X2802Y697D01*
X2797Y701D01*
X2791Y702D01*
D02*
G37*
G36*
X2208D02*
X2202Y701D01*
X2197Y697D01*
X2193Y692D01*
X2192Y686D01*
X2193Y680D01*
X2197Y675D01*
X2202Y671D01*
X2208Y670D01*
X2214Y671D01*
X2219Y675D01*
X2223Y680D01*
X2224Y686D01*
X2223Y692D01*
X2219Y697D01*
X2214Y701D01*
X2208Y702D01*
D02*
G37*
G36*
X2166D02*
X2160Y701D01*
X2155Y697D01*
X2151Y692D01*
X2150Y686D01*
X2151Y680D01*
X2155Y675D01*
X2160Y671D01*
X2166Y670D01*
X2172Y671D01*
X2177Y675D01*
X2181Y680D01*
X2182Y686D01*
X2181Y692D01*
X2177Y697D01*
X2172Y701D01*
X2166Y702D01*
D02*
G37*
G36*
X1583D02*
X1577Y701D01*
X1572Y697D01*
X1568Y692D01*
X1567Y686D01*
X1568Y680D01*
X1572Y675D01*
X1577Y671D01*
X1583Y670D01*
X1589Y671D01*
X1594Y675D01*
X1598Y680D01*
X1599Y686D01*
X1598Y692D01*
X1594Y697D01*
X1589Y701D01*
X1583Y702D01*
D02*
G37*
G36*
X1541D02*
X1535Y701D01*
X1530Y697D01*
X1526Y692D01*
X1525Y686D01*
X1526Y680D01*
X1530Y675D01*
X1535Y671D01*
X1541Y670D01*
X1547Y671D01*
X1552Y675D01*
X1556Y680D01*
X1557Y686D01*
X1556Y692D01*
X1552Y697D01*
X1547Y701D01*
X1541Y702D01*
D02*
G37*
G36*
X958D02*
X952Y701D01*
X947Y697D01*
X943Y692D01*
X942Y686D01*
X943Y680D01*
X947Y675D01*
X952Y671D01*
X958Y670D01*
X964Y671D01*
X969Y675D01*
X973Y680D01*
X974Y686D01*
X973Y692D01*
X969Y697D01*
X964Y701D01*
X958Y702D01*
D02*
G37*
G36*
X916D02*
X910Y701D01*
X905Y697D01*
X901Y692D01*
X900Y686D01*
X901Y680D01*
X905Y675D01*
X910Y671D01*
X916Y670D01*
X922Y671D01*
X927Y675D01*
X931Y680D01*
X932Y686D01*
X931Y692D01*
X927Y697D01*
X922Y701D01*
X916Y702D01*
D02*
G37*
G36*
X5198Y701D02*
X5192Y700D01*
X5187Y696D01*
X5183Y691D01*
X5182Y685D01*
X5183Y679D01*
X5187Y674D01*
X5192Y670D01*
X5198Y669D01*
X5204Y670D01*
X5209Y674D01*
X5213Y679D01*
X5214Y685D01*
X5213Y691D01*
X5209Y696D01*
X5204Y700D01*
X5198Y701D01*
D02*
G37*
G36*
X4573D02*
X4567Y700D01*
X4562Y696D01*
X4558Y691D01*
X4557Y685D01*
X4558Y679D01*
X4562Y674D01*
X4567Y670D01*
X4573Y669D01*
X4579Y670D01*
X4584Y674D01*
X4588Y679D01*
X4589Y685D01*
X4588Y691D01*
X4584Y696D01*
X4579Y700D01*
X4573Y701D01*
D02*
G37*
G36*
X3948D02*
X3942Y700D01*
X3937Y696D01*
X3933Y691D01*
X3932Y685D01*
X3933Y679D01*
X3937Y674D01*
X3942Y670D01*
X3948Y669D01*
X3954Y670D01*
X3959Y674D01*
X3963Y679D01*
X3964Y685D01*
X3963Y691D01*
X3959Y696D01*
X3954Y700D01*
X3948Y701D01*
D02*
G37*
G36*
X3323D02*
X3317Y700D01*
X3312Y696D01*
X3308Y691D01*
X3307Y685D01*
X3308Y679D01*
X3312Y674D01*
X3317Y670D01*
X3323Y669D01*
X3329Y670D01*
X3334Y674D01*
X3338Y679D01*
X3339Y685D01*
X3338Y691D01*
X3334Y696D01*
X3329Y700D01*
X3323Y701D01*
D02*
G37*
G36*
X2698D02*
X2692Y700D01*
X2687Y696D01*
X2683Y691D01*
X2682Y685D01*
X2683Y679D01*
X2687Y674D01*
X2692Y670D01*
X2698Y669D01*
X2704Y670D01*
X2709Y674D01*
X2713Y679D01*
X2714Y685D01*
X2713Y691D01*
X2709Y696D01*
X2704Y700D01*
X2698Y701D01*
D02*
G37*
G36*
X2073D02*
X2067Y700D01*
X2062Y696D01*
X2058Y691D01*
X2057Y685D01*
X2058Y679D01*
X2062Y674D01*
X2067Y670D01*
X2073Y669D01*
X2079Y670D01*
X2084Y674D01*
X2088Y679D01*
X2089Y685D01*
X2088Y691D01*
X2084Y696D01*
X2079Y700D01*
X2073Y701D01*
D02*
G37*
G36*
X1448D02*
X1442Y700D01*
X1437Y696D01*
X1433Y691D01*
X1432Y685D01*
X1433Y679D01*
X1437Y674D01*
X1442Y670D01*
X1448Y669D01*
X1454Y670D01*
X1459Y674D01*
X1463Y679D01*
X1464Y685D01*
X1463Y691D01*
X1459Y696D01*
X1454Y700D01*
X1448Y701D01*
D02*
G37*
G36*
X823D02*
X817Y700D01*
X812Y696D01*
X808Y691D01*
X807Y685D01*
X808Y679D01*
X812Y674D01*
X817Y670D01*
X823Y669D01*
X829Y670D01*
X834Y674D01*
X838Y679D01*
X839Y685D01*
X838Y691D01*
X834Y696D01*
X829Y700D01*
X823Y701D01*
D02*
G37*
G36*
X9344Y692D02*
X9338Y691D01*
X9333Y687D01*
X9330Y682D01*
X9328Y676D01*
X9330Y670D01*
X9333Y664D01*
X9338Y661D01*
X9344Y660D01*
X9351Y661D01*
X9356Y664D01*
X9359Y670D01*
X9361Y676D01*
X9359Y682D01*
X9356Y687D01*
X9351Y691D01*
X9344Y692D01*
D02*
G37*
G36*
X8269Y689D02*
X8263Y688D01*
X8257Y685D01*
X8254Y679D01*
X8253Y673D01*
X8254Y667D01*
X8257Y662D01*
X8263Y658D01*
X8269Y657D01*
X8275Y658D01*
X8280Y662D01*
X8284Y667D01*
X8285Y673D01*
X8284Y679D01*
X8280Y685D01*
X8275Y688D01*
X8269Y689D01*
D02*
G37*
G36*
X8074D02*
X8068Y688D01*
X8062Y685D01*
X8059Y679D01*
X8058Y673D01*
X8059Y667D01*
X8062Y662D01*
X8068Y658D01*
X8074Y657D01*
X8080Y658D01*
X8085Y662D01*
X8089Y667D01*
X8090Y673D01*
X8089Y679D01*
X8085Y685D01*
X8080Y688D01*
X8074Y689D01*
D02*
G37*
G36*
X7879D02*
X7873Y688D01*
X7867Y685D01*
X7864Y679D01*
X7863Y673D01*
X7864Y667D01*
X7867Y662D01*
X7873Y658D01*
X7879Y657D01*
X7885Y658D01*
X7890Y662D01*
X7894Y667D01*
X7895Y673D01*
X7894Y679D01*
X7890Y685D01*
X7885Y688D01*
X7879Y689D01*
D02*
G37*
G36*
X7684D02*
X7678Y688D01*
X7672Y685D01*
X7669Y679D01*
X7668Y673D01*
X7669Y667D01*
X7672Y662D01*
X7678Y658D01*
X7684Y657D01*
X7690Y658D01*
X7695Y662D01*
X7699Y667D01*
X7700Y673D01*
X7699Y679D01*
X7695Y685D01*
X7690Y688D01*
X7684Y689D01*
D02*
G37*
G36*
X7489D02*
X7483Y688D01*
X7477Y685D01*
X7474Y679D01*
X7473Y673D01*
X7474Y667D01*
X7477Y662D01*
X7483Y658D01*
X7489Y657D01*
X7495Y658D01*
X7500Y662D01*
X7504Y667D01*
X7505Y673D01*
X7504Y679D01*
X7500Y685D01*
X7495Y688D01*
X7489Y689D01*
D02*
G37*
G36*
X7294D02*
X7288Y688D01*
X7282Y685D01*
X7279Y679D01*
X7278Y673D01*
X7279Y667D01*
X7282Y662D01*
X7288Y658D01*
X7294Y657D01*
X7300Y658D01*
X7305Y662D01*
X7309Y667D01*
X7310Y673D01*
X7309Y679D01*
X7305Y685D01*
X7300Y688D01*
X7294Y689D01*
D02*
G37*
G36*
X7099D02*
X7093Y688D01*
X7087Y685D01*
X7084Y679D01*
X7083Y673D01*
X7084Y667D01*
X7087Y662D01*
X7093Y658D01*
X7099Y657D01*
X7105Y658D01*
X7110Y662D01*
X7114Y667D01*
X7115Y673D01*
X7114Y679D01*
X7110Y685D01*
X7105Y688D01*
X7099Y689D01*
D02*
G37*
G36*
X6904D02*
X6898Y688D01*
X6892Y685D01*
X6889Y679D01*
X6888Y673D01*
X6889Y667D01*
X6892Y662D01*
X6898Y658D01*
X6904Y657D01*
X6910Y658D01*
X6915Y662D01*
X6919Y667D01*
X6920Y673D01*
X6919Y679D01*
X6915Y685D01*
X6910Y688D01*
X6904Y689D01*
D02*
G37*
G36*
X6709D02*
X6703Y688D01*
X6697Y685D01*
X6694Y679D01*
X6693Y673D01*
X6694Y667D01*
X6697Y662D01*
X6703Y658D01*
X6709Y657D01*
X6715Y658D01*
X6720Y662D01*
X6724Y667D01*
X6725Y673D01*
X6724Y679D01*
X6720Y685D01*
X6715Y688D01*
X6709Y689D01*
D02*
G37*
G36*
X9384Y688D02*
X9378Y687D01*
X9372Y683D01*
X9369Y678D01*
X9368Y672D01*
X9369Y666D01*
X9372Y661D01*
X9378Y657D01*
X9384Y656D01*
X9390Y657D01*
X9395Y661D01*
X9399Y666D01*
X9400Y672D01*
X9399Y678D01*
X9395Y683D01*
X9390Y687D01*
X9384Y688D01*
D02*
G37*
G36*
X9567Y670D02*
X9561Y669D01*
X9556Y666D01*
X9552Y660D01*
X9551Y654D01*
X9552Y648D01*
X9556Y643D01*
X9561Y639D01*
X9567Y638D01*
X9573Y639D01*
X9578Y643D01*
X9582Y648D01*
X9583Y654D01*
X9582Y660D01*
X9578Y666D01*
X9573Y669D01*
X9567Y670D01*
D02*
G37*
G36*
X9476D02*
X9470Y669D01*
X9464Y666D01*
X9461Y660D01*
X9460Y654D01*
X9461Y648D01*
X9464Y643D01*
X9470Y639D01*
X9476Y638D01*
X9482Y639D01*
X9487Y643D01*
X9491Y648D01*
X9492Y654D01*
X9491Y660D01*
X9487Y666D01*
X9482Y669D01*
X9476Y670D01*
D02*
G37*
G36*
X5333Y660D02*
X5327Y659D01*
X5322Y655D01*
X5318Y650D01*
X5317Y644D01*
X5318Y638D01*
X5322Y633D01*
X5327Y629D01*
X5333Y628D01*
X5339Y629D01*
X5344Y633D01*
X5348Y638D01*
X5349Y644D01*
X5348Y650D01*
X5344Y655D01*
X5339Y659D01*
X5333Y660D01*
D02*
G37*
G36*
X5291D02*
X5285Y659D01*
X5280Y655D01*
X5276Y650D01*
X5275Y644D01*
X5276Y638D01*
X5280Y633D01*
X5285Y629D01*
X5291Y628D01*
X5297Y629D01*
X5302Y633D01*
X5306Y638D01*
X5307Y644D01*
X5306Y650D01*
X5302Y655D01*
X5297Y659D01*
X5291Y660D01*
D02*
G37*
G36*
X4708D02*
X4702Y659D01*
X4697Y655D01*
X4693Y650D01*
X4692Y644D01*
X4693Y638D01*
X4697Y633D01*
X4702Y629D01*
X4708Y628D01*
X4714Y629D01*
X4719Y633D01*
X4723Y638D01*
X4724Y644D01*
X4723Y650D01*
X4719Y655D01*
X4714Y659D01*
X4708Y660D01*
D02*
G37*
G36*
X4666D02*
X4660Y659D01*
X4655Y655D01*
X4651Y650D01*
X4650Y644D01*
X4651Y638D01*
X4655Y633D01*
X4660Y629D01*
X4666Y628D01*
X4672Y629D01*
X4677Y633D01*
X4681Y638D01*
X4682Y644D01*
X4681Y650D01*
X4677Y655D01*
X4672Y659D01*
X4666Y660D01*
D02*
G37*
G36*
X4083D02*
X4077Y659D01*
X4072Y655D01*
X4068Y650D01*
X4067Y644D01*
X4068Y638D01*
X4072Y633D01*
X4077Y629D01*
X4083Y628D01*
X4089Y629D01*
X4094Y633D01*
X4098Y638D01*
X4099Y644D01*
X4098Y650D01*
X4094Y655D01*
X4089Y659D01*
X4083Y660D01*
D02*
G37*
G36*
X4041D02*
X4035Y659D01*
X4030Y655D01*
X4026Y650D01*
X4025Y644D01*
X4026Y638D01*
X4030Y633D01*
X4035Y629D01*
X4041Y628D01*
X4047Y629D01*
X4052Y633D01*
X4056Y638D01*
X4057Y644D01*
X4056Y650D01*
X4052Y655D01*
X4047Y659D01*
X4041Y660D01*
D02*
G37*
G36*
X3458D02*
X3452Y659D01*
X3447Y655D01*
X3443Y650D01*
X3442Y644D01*
X3443Y638D01*
X3447Y633D01*
X3452Y629D01*
X3458Y628D01*
X3464Y629D01*
X3469Y633D01*
X3473Y638D01*
X3474Y644D01*
X3473Y650D01*
X3469Y655D01*
X3464Y659D01*
X3458Y660D01*
D02*
G37*
G36*
X3416D02*
X3410Y659D01*
X3405Y655D01*
X3401Y650D01*
X3400Y644D01*
X3401Y638D01*
X3405Y633D01*
X3410Y629D01*
X3416Y628D01*
X3422Y629D01*
X3427Y633D01*
X3431Y638D01*
X3432Y644D01*
X3431Y650D01*
X3427Y655D01*
X3422Y659D01*
X3416Y660D01*
D02*
G37*
G36*
X2833D02*
X2827Y659D01*
X2822Y655D01*
X2818Y650D01*
X2817Y644D01*
X2818Y638D01*
X2822Y633D01*
X2827Y629D01*
X2833Y628D01*
X2839Y629D01*
X2844Y633D01*
X2848Y638D01*
X2849Y644D01*
X2848Y650D01*
X2844Y655D01*
X2839Y659D01*
X2833Y660D01*
D02*
G37*
G36*
X2791D02*
X2785Y659D01*
X2780Y655D01*
X2776Y650D01*
X2775Y644D01*
X2776Y638D01*
X2780Y633D01*
X2785Y629D01*
X2791Y628D01*
X2797Y629D01*
X2802Y633D01*
X2806Y638D01*
X2807Y644D01*
X2806Y650D01*
X2802Y655D01*
X2797Y659D01*
X2791Y660D01*
D02*
G37*
G36*
X2208D02*
X2202Y659D01*
X2197Y655D01*
X2193Y650D01*
X2192Y644D01*
X2193Y638D01*
X2197Y633D01*
X2202Y629D01*
X2208Y628D01*
X2214Y629D01*
X2219Y633D01*
X2223Y638D01*
X2224Y644D01*
X2223Y650D01*
X2219Y655D01*
X2214Y659D01*
X2208Y660D01*
D02*
G37*
G36*
X2166D02*
X2160Y659D01*
X2155Y655D01*
X2151Y650D01*
X2150Y644D01*
X2151Y638D01*
X2155Y633D01*
X2160Y629D01*
X2166Y628D01*
X2172Y629D01*
X2177Y633D01*
X2181Y638D01*
X2182Y644D01*
X2181Y650D01*
X2177Y655D01*
X2172Y659D01*
X2166Y660D01*
D02*
G37*
G36*
X1583D02*
X1577Y659D01*
X1572Y655D01*
X1568Y650D01*
X1567Y644D01*
X1568Y638D01*
X1572Y633D01*
X1577Y629D01*
X1583Y628D01*
X1589Y629D01*
X1594Y633D01*
X1598Y638D01*
X1599Y644D01*
X1598Y650D01*
X1594Y655D01*
X1589Y659D01*
X1583Y660D01*
D02*
G37*
G36*
X1541D02*
X1535Y659D01*
X1530Y655D01*
X1526Y650D01*
X1525Y644D01*
X1526Y638D01*
X1530Y633D01*
X1535Y629D01*
X1541Y628D01*
X1547Y629D01*
X1552Y633D01*
X1556Y638D01*
X1557Y644D01*
X1556Y650D01*
X1552Y655D01*
X1547Y659D01*
X1541Y660D01*
D02*
G37*
G36*
X958D02*
X952Y659D01*
X947Y655D01*
X943Y650D01*
X942Y644D01*
X943Y638D01*
X947Y633D01*
X952Y629D01*
X958Y628D01*
X964Y629D01*
X969Y633D01*
X973Y638D01*
X974Y644D01*
X973Y650D01*
X969Y655D01*
X964Y659D01*
X958Y660D01*
D02*
G37*
G36*
X916D02*
X910Y659D01*
X905Y655D01*
X901Y650D01*
X900Y644D01*
X901Y638D01*
X905Y633D01*
X910Y629D01*
X916Y628D01*
X922Y629D01*
X927Y633D01*
X931Y638D01*
X932Y644D01*
X931Y650D01*
X927Y655D01*
X922Y659D01*
X916Y660D01*
D02*
G37*
G36*
X8269Y624D02*
X8263Y623D01*
X8257Y619D01*
X8254Y614D01*
X8253Y608D01*
X8254Y602D01*
X8257Y597D01*
X8263Y593D01*
X8269Y592D01*
X8275Y593D01*
X8280Y597D01*
X8284Y602D01*
X8285Y608D01*
X8284Y614D01*
X8280Y619D01*
X8275Y623D01*
X8269Y624D01*
D02*
G37*
G36*
X8074D02*
X8068Y623D01*
X8062Y619D01*
X8059Y614D01*
X8058Y608D01*
X8059Y602D01*
X8062Y597D01*
X8068Y593D01*
X8074Y592D01*
X8080Y593D01*
X8085Y597D01*
X8089Y602D01*
X8090Y608D01*
X8089Y614D01*
X8085Y619D01*
X8080Y623D01*
X8074Y624D01*
D02*
G37*
G36*
X7879D02*
X7873Y623D01*
X7867Y619D01*
X7864Y614D01*
X7863Y608D01*
X7864Y602D01*
X7867Y597D01*
X7873Y593D01*
X7879Y592D01*
X7885Y593D01*
X7890Y597D01*
X7894Y602D01*
X7895Y608D01*
X7894Y614D01*
X7890Y619D01*
X7885Y623D01*
X7879Y624D01*
D02*
G37*
G36*
X7684D02*
X7678Y623D01*
X7672Y619D01*
X7669Y614D01*
X7668Y608D01*
X7669Y602D01*
X7672Y597D01*
X7678Y593D01*
X7684Y592D01*
X7690Y593D01*
X7695Y597D01*
X7699Y602D01*
X7700Y608D01*
X7699Y614D01*
X7695Y619D01*
X7690Y623D01*
X7684Y624D01*
D02*
G37*
G36*
X7489D02*
X7483Y623D01*
X7477Y619D01*
X7474Y614D01*
X7473Y608D01*
X7474Y602D01*
X7477Y597D01*
X7483Y593D01*
X7489Y592D01*
X7495Y593D01*
X7500Y597D01*
X7504Y602D01*
X7505Y608D01*
X7504Y614D01*
X7500Y619D01*
X7495Y623D01*
X7489Y624D01*
D02*
G37*
G36*
X7294D02*
X7288Y623D01*
X7282Y619D01*
X7279Y614D01*
X7278Y608D01*
X7279Y602D01*
X7282Y597D01*
X7288Y593D01*
X7294Y592D01*
X7300Y593D01*
X7305Y597D01*
X7309Y602D01*
X7310Y608D01*
X7309Y614D01*
X7305Y619D01*
X7300Y623D01*
X7294Y624D01*
D02*
G37*
G36*
X7099D02*
X7093Y623D01*
X7087Y619D01*
X7084Y614D01*
X7083Y608D01*
X7084Y602D01*
X7087Y597D01*
X7093Y593D01*
X7099Y592D01*
X7105Y593D01*
X7110Y597D01*
X7114Y602D01*
X7115Y608D01*
X7114Y614D01*
X7110Y619D01*
X7105Y623D01*
X7099Y624D01*
D02*
G37*
G36*
X6904D02*
X6898Y623D01*
X6892Y619D01*
X6889Y614D01*
X6888Y608D01*
X6889Y602D01*
X6892Y597D01*
X6898Y593D01*
X6904Y592D01*
X6910Y593D01*
X6915Y597D01*
X6919Y602D01*
X6920Y608D01*
X6919Y614D01*
X6915Y619D01*
X6910Y623D01*
X6904Y624D01*
D02*
G37*
G36*
X6709D02*
X6703Y623D01*
X6697Y619D01*
X6694Y614D01*
X6693Y608D01*
X6694Y602D01*
X6697Y597D01*
X6703Y593D01*
X6709Y592D01*
X6715Y593D01*
X6720Y597D01*
X6724Y602D01*
X6725Y608D01*
X6724Y614D01*
X6720Y619D01*
X6715Y623D01*
X6709Y624D01*
D02*
G37*
G36*
X5390Y600D02*
X5384Y598D01*
X5379Y595D01*
X5375Y590D01*
X5374Y583D01*
X5375Y577D01*
X5379Y572D01*
X5384Y569D01*
X5390Y567D01*
X5396Y569D01*
X5401Y572D01*
X5405Y577D01*
X5406Y583D01*
X5405Y590D01*
X5401Y595D01*
X5396Y598D01*
X5390Y600D01*
D02*
G37*
G36*
X4765D02*
X4759Y598D01*
X4754Y595D01*
X4750Y590D01*
X4749Y583D01*
X4750Y577D01*
X4754Y572D01*
X4759Y569D01*
X4765Y567D01*
X4771Y569D01*
X4776Y572D01*
X4780Y577D01*
X4781Y583D01*
X4780Y590D01*
X4776Y595D01*
X4771Y598D01*
X4765Y600D01*
D02*
G37*
G36*
X4140D02*
X4134Y598D01*
X4129Y595D01*
X4125Y590D01*
X4124Y583D01*
X4125Y577D01*
X4129Y572D01*
X4134Y569D01*
X4140Y567D01*
X4146Y569D01*
X4151Y572D01*
X4155Y577D01*
X4156Y583D01*
X4155Y590D01*
X4151Y595D01*
X4146Y598D01*
X4140Y600D01*
D02*
G37*
G36*
X3515D02*
X3509Y598D01*
X3504Y595D01*
X3500Y590D01*
X3499Y583D01*
X3500Y577D01*
X3504Y572D01*
X3509Y569D01*
X3515Y567D01*
X3521Y569D01*
X3526Y572D01*
X3530Y577D01*
X3531Y583D01*
X3530Y590D01*
X3526Y595D01*
X3521Y598D01*
X3515Y600D01*
D02*
G37*
G36*
X2890D02*
X2884Y598D01*
X2879Y595D01*
X2875Y590D01*
X2874Y583D01*
X2875Y577D01*
X2879Y572D01*
X2884Y569D01*
X2890Y567D01*
X2896Y569D01*
X2901Y572D01*
X2905Y577D01*
X2906Y583D01*
X2905Y590D01*
X2901Y595D01*
X2896Y598D01*
X2890Y600D01*
D02*
G37*
G36*
X2265D02*
X2259Y598D01*
X2254Y595D01*
X2250Y590D01*
X2249Y583D01*
X2250Y577D01*
X2254Y572D01*
X2259Y569D01*
X2265Y567D01*
X2271Y569D01*
X2276Y572D01*
X2280Y577D01*
X2281Y583D01*
X2280Y590D01*
X2276Y595D01*
X2271Y598D01*
X2265Y600D01*
D02*
G37*
G36*
X1640D02*
X1634Y598D01*
X1629Y595D01*
X1625Y590D01*
X1624Y583D01*
X1625Y577D01*
X1629Y572D01*
X1634Y569D01*
X1640Y567D01*
X1646Y569D01*
X1651Y572D01*
X1655Y577D01*
X1656Y583D01*
X1655Y590D01*
X1651Y595D01*
X1646Y598D01*
X1640Y600D01*
D02*
G37*
G36*
X1015D02*
X1009Y598D01*
X1004Y595D01*
X1000Y590D01*
X999Y583D01*
X1000Y577D01*
X1004Y572D01*
X1009Y569D01*
X1015Y567D01*
X1021Y569D01*
X1026Y572D01*
X1030Y577D01*
X1031Y583D01*
X1030Y590D01*
X1026Y595D01*
X1021Y598D01*
X1015Y600D01*
D02*
G37*
G36*
X5460Y599D02*
X5454Y598D01*
X5449Y594D01*
X5445Y589D01*
X5444Y583D01*
X5445Y576D01*
X5449Y571D01*
X5454Y568D01*
X5460Y566D01*
X5466Y568D01*
X5471Y571D01*
X5475Y576D01*
X5476Y583D01*
X5475Y589D01*
X5471Y594D01*
X5466Y598D01*
X5460Y599D01*
D02*
G37*
G36*
X4835D02*
X4829Y598D01*
X4824Y594D01*
X4820Y589D01*
X4819Y583D01*
X4820Y576D01*
X4824Y571D01*
X4829Y568D01*
X4835Y566D01*
X4841Y568D01*
X4846Y571D01*
X4850Y576D01*
X4851Y583D01*
X4850Y589D01*
X4846Y594D01*
X4841Y598D01*
X4835Y599D01*
D02*
G37*
G36*
X4210D02*
X4204Y598D01*
X4199Y594D01*
X4195Y589D01*
X4194Y583D01*
X4195Y576D01*
X4199Y571D01*
X4204Y568D01*
X4210Y566D01*
X4216Y568D01*
X4221Y571D01*
X4225Y576D01*
X4226Y583D01*
X4225Y589D01*
X4221Y594D01*
X4216Y598D01*
X4210Y599D01*
D02*
G37*
G36*
X3585D02*
X3579Y598D01*
X3574Y594D01*
X3570Y589D01*
X3569Y583D01*
X3570Y576D01*
X3574Y571D01*
X3579Y568D01*
X3585Y566D01*
X3591Y568D01*
X3596Y571D01*
X3600Y576D01*
X3601Y583D01*
X3600Y589D01*
X3596Y594D01*
X3591Y598D01*
X3585Y599D01*
D02*
G37*
G36*
X2960D02*
X2954Y598D01*
X2949Y594D01*
X2945Y589D01*
X2944Y583D01*
X2945Y576D01*
X2949Y571D01*
X2954Y568D01*
X2960Y566D01*
X2966Y568D01*
X2971Y571D01*
X2975Y576D01*
X2976Y583D01*
X2975Y589D01*
X2971Y594D01*
X2966Y598D01*
X2960Y599D01*
D02*
G37*
G36*
X2335D02*
X2329Y598D01*
X2324Y594D01*
X2320Y589D01*
X2319Y583D01*
X2320Y576D01*
X2324Y571D01*
X2329Y568D01*
X2335Y566D01*
X2341Y568D01*
X2346Y571D01*
X2350Y576D01*
X2351Y583D01*
X2350Y589D01*
X2346Y594D01*
X2341Y598D01*
X2335Y599D01*
D02*
G37*
G36*
X1710D02*
X1704Y598D01*
X1699Y594D01*
X1695Y589D01*
X1694Y583D01*
X1695Y576D01*
X1699Y571D01*
X1704Y568D01*
X1710Y566D01*
X1716Y568D01*
X1721Y571D01*
X1725Y576D01*
X1726Y583D01*
X1725Y589D01*
X1721Y594D01*
X1716Y598D01*
X1710Y599D01*
D02*
G37*
G36*
X1085D02*
X1079Y598D01*
X1074Y594D01*
X1070Y589D01*
X1069Y583D01*
X1070Y576D01*
X1074Y571D01*
X1079Y568D01*
X1085Y566D01*
X1091Y568D01*
X1096Y571D01*
X1100Y576D01*
X1101Y583D01*
X1100Y589D01*
X1096Y594D01*
X1091Y598D01*
X1085Y599D01*
D02*
G37*
G36*
X9639Y598D02*
X9633Y597D01*
X9628Y593D01*
X9624Y588D01*
X9623Y582D01*
X9624Y576D01*
X9628Y570D01*
X9633Y567D01*
X9639Y566D01*
X9645Y567D01*
X9651Y570D01*
X9654Y576D01*
X9655Y582D01*
X9654Y588D01*
X9651Y593D01*
X9645Y597D01*
X9639Y598D01*
D02*
G37*
G36*
X10199Y593D02*
X10193Y592D01*
X10187Y589D01*
X10184Y583D01*
X10183Y577D01*
X10184Y571D01*
X10187Y566D01*
X10193Y562D01*
X10199Y561D01*
X10205Y562D01*
X10210Y566D01*
X10214Y571D01*
X10215Y577D01*
X10214Y583D01*
X10210Y589D01*
X10205Y592D01*
X10199Y593D01*
D02*
G37*
G36*
X10147D02*
X10140Y592D01*
X10135Y589D01*
X10132Y583D01*
X10130Y577D01*
X10132Y571D01*
X10135Y566D01*
X10140Y562D01*
X10147Y561D01*
X10153Y562D01*
X10158Y566D01*
X10161Y571D01*
X10163Y577D01*
X10161Y583D01*
X10158Y589D01*
X10153Y592D01*
X10147Y593D01*
D02*
G37*
G36*
X9462Y592D02*
X9456Y591D01*
X9451Y587D01*
X9447Y582D01*
X9446Y576D01*
X9447Y569D01*
X9451Y564D01*
X9456Y561D01*
X9462Y559D01*
X9469Y561D01*
X9474Y564D01*
X9477Y569D01*
X9478Y576D01*
X9477Y582D01*
X9474Y587D01*
X9469Y591D01*
X9462Y592D01*
D02*
G37*
G36*
X9512Y592D02*
X9505Y591D01*
X9500Y587D01*
X9497Y582D01*
X9495Y576D01*
X9497Y569D01*
X9500Y564D01*
X9505Y561D01*
X9512Y559D01*
X9518Y561D01*
X9523Y564D01*
X9526Y569D01*
X9528Y576D01*
X9526Y582D01*
X9523Y587D01*
X9518Y591D01*
X9512Y592D01*
D02*
G37*
G36*
X9561Y592D02*
X9555Y591D01*
X9549Y587D01*
X9546Y582D01*
X9545Y576D01*
X9546Y569D01*
X9549Y564D01*
X9555Y561D01*
X9561Y559D01*
X9567Y561D01*
X9572Y564D01*
X9576Y569D01*
X9577Y576D01*
X9576Y582D01*
X9572Y587D01*
X9567Y591D01*
X9561Y592D01*
D02*
G37*
G36*
X9677Y591D02*
X9671Y590D01*
X9666Y586D01*
X9662Y581D01*
X9661Y575D01*
X9662Y569D01*
X9666Y563D01*
X9671Y560D01*
X9677Y559D01*
X9683Y560D01*
X9689Y563D01*
X9692Y569D01*
X9693Y575D01*
X9692Y581D01*
X9689Y586D01*
X9683Y590D01*
X9677Y591D01*
D02*
G37*
G36*
X9384Y578D02*
X9378Y577D01*
X9372Y574D01*
X9369Y568D01*
X9368Y562D01*
X9369Y556D01*
X9372Y551D01*
X9378Y547D01*
X9384Y546D01*
X9390Y547D01*
X9395Y551D01*
X9399Y556D01*
X9400Y562D01*
X9399Y568D01*
X9395Y574D01*
X9390Y577D01*
X9384Y578D01*
D02*
G37*
G36*
X5195Y581D02*
X5189Y580D01*
X5184Y577D01*
X5180Y571D01*
X5179Y565D01*
X5180Y559D01*
X5184Y554D01*
X5189Y550D01*
X5190Y550D01*
Y545D01*
X5189Y545D01*
X5184Y541D01*
X5180Y536D01*
X5179Y530D01*
X5180Y524D01*
X5184Y519D01*
X5189Y515D01*
X5195Y514D01*
X5201Y515D01*
X5206Y519D01*
X5210Y524D01*
X5211Y530D01*
X5210Y536D01*
X5206Y541D01*
X5201Y545D01*
X5200Y545D01*
Y550D01*
X5201Y550D01*
X5206Y554D01*
X5210Y559D01*
X5211Y565D01*
X5210Y571D01*
X5206Y577D01*
X5201Y580D01*
X5195Y581D01*
D02*
G37*
G36*
X4570D02*
X4564Y580D01*
X4559Y577D01*
X4555Y571D01*
X4554Y565D01*
X4555Y559D01*
X4559Y554D01*
X4564Y550D01*
X4565Y550D01*
Y545D01*
X4564Y545D01*
X4559Y541D01*
X4555Y536D01*
X4554Y530D01*
X4555Y524D01*
X4559Y519D01*
X4564Y515D01*
X4570Y514D01*
X4576Y515D01*
X4581Y519D01*
X4585Y524D01*
X4586Y530D01*
X4585Y536D01*
X4581Y541D01*
X4576Y545D01*
X4575Y545D01*
Y550D01*
X4576Y550D01*
X4581Y554D01*
X4585Y559D01*
X4586Y565D01*
X4585Y571D01*
X4581Y577D01*
X4576Y580D01*
X4570Y581D01*
D02*
G37*
G36*
X3945D02*
X3939Y580D01*
X3934Y577D01*
X3930Y571D01*
X3929Y565D01*
X3930Y559D01*
X3934Y554D01*
X3939Y550D01*
X3940Y550D01*
Y545D01*
X3939Y545D01*
X3934Y541D01*
X3930Y536D01*
X3929Y530D01*
X3930Y524D01*
X3934Y519D01*
X3939Y515D01*
X3945Y514D01*
X3951Y515D01*
X3956Y519D01*
X3960Y524D01*
X3961Y530D01*
X3960Y536D01*
X3956Y541D01*
X3951Y545D01*
X3950Y545D01*
Y550D01*
X3951Y550D01*
X3956Y554D01*
X3960Y559D01*
X3961Y565D01*
X3960Y571D01*
X3956Y577D01*
X3951Y580D01*
X3945Y581D01*
D02*
G37*
G36*
X3320D02*
X3314Y580D01*
X3309Y577D01*
X3305Y571D01*
X3304Y565D01*
X3305Y559D01*
X3309Y554D01*
X3314Y550D01*
X3315Y550D01*
Y545D01*
X3314Y545D01*
X3309Y541D01*
X3305Y536D01*
X3304Y530D01*
X3305Y524D01*
X3309Y519D01*
X3314Y515D01*
X3320Y514D01*
X3326Y515D01*
X3331Y519D01*
X3335Y524D01*
X3336Y530D01*
X3335Y536D01*
X3331Y541D01*
X3326Y545D01*
X3325Y545D01*
Y550D01*
X3326Y550D01*
X3331Y554D01*
X3335Y559D01*
X3336Y565D01*
X3335Y571D01*
X3331Y577D01*
X3326Y580D01*
X3320Y581D01*
D02*
G37*
G36*
X2695D02*
X2689Y580D01*
X2684Y577D01*
X2680Y571D01*
X2679Y565D01*
X2680Y559D01*
X2684Y554D01*
X2689Y550D01*
X2690Y550D01*
Y545D01*
X2689Y545D01*
X2684Y541D01*
X2680Y536D01*
X2679Y530D01*
X2680Y524D01*
X2684Y519D01*
X2689Y515D01*
X2695Y514D01*
X2701Y515D01*
X2706Y519D01*
X2710Y524D01*
X2711Y530D01*
X2710Y536D01*
X2706Y541D01*
X2701Y545D01*
X2700Y545D01*
Y550D01*
X2701Y550D01*
X2706Y554D01*
X2710Y559D01*
X2711Y565D01*
X2710Y571D01*
X2706Y577D01*
X2701Y580D01*
X2695Y581D01*
D02*
G37*
G36*
X2070D02*
X2064Y580D01*
X2059Y577D01*
X2055Y571D01*
X2054Y565D01*
X2055Y559D01*
X2059Y554D01*
X2064Y550D01*
X2065Y550D01*
Y545D01*
X2064Y545D01*
X2059Y541D01*
X2055Y536D01*
X2054Y530D01*
X2055Y524D01*
X2059Y519D01*
X2064Y515D01*
X2070Y514D01*
X2076Y515D01*
X2081Y519D01*
X2085Y524D01*
X2086Y530D01*
X2085Y536D01*
X2081Y541D01*
X2076Y545D01*
X2075Y545D01*
Y550D01*
X2076Y550D01*
X2081Y554D01*
X2085Y559D01*
X2086Y565D01*
X2085Y571D01*
X2081Y577D01*
X2076Y580D01*
X2070Y581D01*
D02*
G37*
G36*
X1445D02*
X1439Y580D01*
X1434Y577D01*
X1430Y571D01*
X1429Y565D01*
X1430Y559D01*
X1434Y554D01*
X1439Y550D01*
X1440Y550D01*
Y545D01*
X1439Y545D01*
X1434Y541D01*
X1430Y536D01*
X1429Y530D01*
X1430Y524D01*
X1434Y519D01*
X1439Y515D01*
X1445Y514D01*
X1451Y515D01*
X1456Y519D01*
X1460Y524D01*
X1461Y530D01*
X1460Y536D01*
X1456Y541D01*
X1451Y545D01*
X1450Y545D01*
Y550D01*
X1451Y550D01*
X1456Y554D01*
X1460Y559D01*
X1461Y565D01*
X1460Y571D01*
X1456Y577D01*
X1451Y580D01*
X1445Y581D01*
D02*
G37*
G36*
X820D02*
X814Y580D01*
X809Y577D01*
X805Y571D01*
X804Y565D01*
X805Y559D01*
X809Y554D01*
X814Y550D01*
X815Y550D01*
Y545D01*
X814Y545D01*
X809Y541D01*
X805Y536D01*
X804Y530D01*
X805Y524D01*
X809Y519D01*
X814Y515D01*
X820Y514D01*
X826Y515D01*
X831Y519D01*
X835Y524D01*
X836Y530D01*
X835Y536D01*
X831Y541D01*
X826Y545D01*
X825Y545D01*
Y550D01*
X826Y550D01*
X831Y554D01*
X835Y559D01*
X836Y565D01*
X835Y571D01*
X831Y577D01*
X826Y580D01*
X820Y581D01*
D02*
G37*
G36*
X9462Y543D02*
X9456Y541D01*
X9451Y538D01*
X9447Y533D01*
X9446Y526D01*
X9447Y520D01*
X9451Y515D01*
X9456Y512D01*
X9462Y510D01*
X9469Y512D01*
X9474Y515D01*
X9477Y520D01*
X9478Y526D01*
X9477Y533D01*
X9474Y538D01*
X9469Y541D01*
X9462Y543D01*
D02*
G37*
G36*
X9512Y543D02*
X9505Y541D01*
X9500Y538D01*
X9497Y533D01*
X9495Y526D01*
X9497Y520D01*
X9500Y515D01*
X9505Y512D01*
X9512Y510D01*
X9518Y512D01*
X9523Y515D01*
X9526Y520D01*
X9528Y526D01*
X9526Y533D01*
X9523Y538D01*
X9518Y541D01*
X9512Y543D01*
D02*
G37*
G36*
X9561Y543D02*
X9555Y541D01*
X9549Y538D01*
X9546Y533D01*
X9545Y526D01*
X9546Y520D01*
X9549Y515D01*
X9555Y512D01*
X9561Y510D01*
X9567Y512D01*
X9572Y515D01*
X9576Y520D01*
X9577Y526D01*
X9576Y533D01*
X9572Y538D01*
X9567Y541D01*
X9561Y543D01*
D02*
G37*
G36*
X10199Y535D02*
X10193Y534D01*
X10187Y530D01*
X10184Y525D01*
X10183Y519D01*
X10184Y513D01*
X10187Y507D01*
X10193Y504D01*
X10199Y503D01*
X10205Y504D01*
X10210Y507D01*
X10214Y513D01*
X10215Y519D01*
X10214Y525D01*
X10210Y530D01*
X10205Y534D01*
X10199Y535D01*
D02*
G37*
G36*
X8269Y529D02*
X8263Y528D01*
X8257Y524D01*
X8254Y519D01*
X8253Y513D01*
X8254Y507D01*
X8257Y502D01*
X8263Y498D01*
X8269Y497D01*
X8275Y498D01*
X8280Y502D01*
X8284Y507D01*
X8285Y513D01*
X8284Y519D01*
X8280Y524D01*
X8275Y528D01*
X8269Y529D01*
D02*
G37*
G36*
X8074D02*
X8068Y528D01*
X8062Y524D01*
X8059Y519D01*
X8058Y513D01*
X8059Y507D01*
X8062Y502D01*
X8068Y498D01*
X8074Y497D01*
X8080Y498D01*
X8085Y502D01*
X8089Y507D01*
X8090Y513D01*
X8089Y519D01*
X8085Y524D01*
X8080Y528D01*
X8074Y529D01*
D02*
G37*
G36*
X7879D02*
X7873Y528D01*
X7867Y524D01*
X7864Y519D01*
X7863Y513D01*
X7864Y507D01*
X7867Y502D01*
X7873Y498D01*
X7879Y497D01*
X7885Y498D01*
X7890Y502D01*
X7894Y507D01*
X7895Y513D01*
X7894Y519D01*
X7890Y524D01*
X7885Y528D01*
X7879Y529D01*
D02*
G37*
G36*
X7684D02*
X7678Y528D01*
X7672Y524D01*
X7669Y519D01*
X7668Y513D01*
X7669Y507D01*
X7672Y502D01*
X7678Y498D01*
X7684Y497D01*
X7690Y498D01*
X7695Y502D01*
X7699Y507D01*
X7700Y513D01*
X7699Y519D01*
X7695Y524D01*
X7690Y528D01*
X7684Y529D01*
D02*
G37*
G36*
X7489D02*
X7483Y528D01*
X7477Y524D01*
X7474Y519D01*
X7473Y513D01*
X7474Y507D01*
X7477Y502D01*
X7483Y498D01*
X7489Y497D01*
X7495Y498D01*
X7500Y502D01*
X7504Y507D01*
X7505Y513D01*
X7504Y519D01*
X7500Y524D01*
X7495Y528D01*
X7489Y529D01*
D02*
G37*
G36*
X7294D02*
X7288Y528D01*
X7282Y524D01*
X7279Y519D01*
X7278Y513D01*
X7279Y507D01*
X7282Y502D01*
X7288Y498D01*
X7294Y497D01*
X7300Y498D01*
X7305Y502D01*
X7309Y507D01*
X7310Y513D01*
X7309Y519D01*
X7305Y524D01*
X7300Y528D01*
X7294Y529D01*
D02*
G37*
G36*
X7099D02*
X7093Y528D01*
X7087Y524D01*
X7084Y519D01*
X7083Y513D01*
X7084Y507D01*
X7087Y502D01*
X7093Y498D01*
X7099Y497D01*
X7105Y498D01*
X7110Y502D01*
X7114Y507D01*
X7115Y513D01*
X7114Y519D01*
X7110Y524D01*
X7105Y528D01*
X7099Y529D01*
D02*
G37*
G36*
X6904D02*
X6898Y528D01*
X6892Y524D01*
X6889Y519D01*
X6888Y513D01*
X6889Y507D01*
X6892Y502D01*
X6898Y498D01*
X6904Y497D01*
X6910Y498D01*
X6915Y502D01*
X6919Y507D01*
X6920Y513D01*
X6919Y519D01*
X6915Y524D01*
X6910Y528D01*
X6904Y529D01*
D02*
G37*
G36*
X6709D02*
X6703Y528D01*
X6697Y524D01*
X6694Y519D01*
X6693Y513D01*
X6694Y507D01*
X6697Y502D01*
X6703Y498D01*
X6709Y497D01*
X6715Y498D01*
X6720Y502D01*
X6724Y507D01*
X6725Y513D01*
X6724Y519D01*
X6720Y524D01*
X6715Y528D01*
X6709Y529D01*
D02*
G37*
G36*
X9462Y493D02*
X9456Y492D01*
X9451Y489D01*
X9447Y483D01*
X9446Y477D01*
X9447Y471D01*
X9451Y466D01*
X9456Y462D01*
X9462Y461D01*
X9469Y462D01*
X9474Y466D01*
X9477Y471D01*
X9478Y477D01*
X9477Y483D01*
X9474Y489D01*
X9469Y492D01*
X9462Y493D01*
D02*
G37*
G36*
X9561Y493D02*
X9555Y492D01*
X9549Y489D01*
X9546Y483D01*
X9545Y477D01*
X9546Y471D01*
X9549Y466D01*
X9555Y462D01*
X9561Y461D01*
X9567Y462D01*
X9572Y466D01*
X9576Y471D01*
X9577Y477D01*
X9576Y483D01*
X9572Y489D01*
X9567Y492D01*
X9561Y493D01*
D02*
G37*
G36*
X9512Y493D02*
X9505Y492D01*
X9500Y489D01*
X9497Y483D01*
X9495Y477D01*
X9497Y471D01*
X9500Y466D01*
X9505Y462D01*
X9512Y461D01*
X9518Y462D01*
X9523Y466D01*
X9526Y471D01*
X9528Y477D01*
X9526Y483D01*
X9523Y489D01*
X9518Y492D01*
X9512Y493D01*
D02*
G37*
G36*
X9384Y487D02*
X9378Y486D01*
X9372Y482D01*
X9369Y477D01*
X9368Y471D01*
X9369Y465D01*
X9372Y460D01*
X9378Y456D01*
X9384Y455D01*
X9390Y456D01*
X9395Y460D01*
X9399Y465D01*
X9400Y471D01*
X9399Y477D01*
X9395Y482D01*
X9390Y486D01*
X9384Y487D01*
D02*
G37*
G36*
X9718Y480D02*
X9712Y479D01*
X9707Y476D01*
X9703Y470D01*
X9702Y464D01*
X9703Y458D01*
X9707Y453D01*
X9712Y449D01*
X9718Y448D01*
X9724Y449D01*
X9729Y453D01*
X9733Y458D01*
X9734Y464D01*
X9733Y470D01*
X9729Y476D01*
X9724Y479D01*
X9718Y480D01*
D02*
G37*
G36*
X9908Y480D02*
X9902Y479D01*
X9896Y475D01*
X9893Y470D01*
X9892Y464D01*
X9893Y458D01*
X9896Y452D01*
X9902Y449D01*
X9908Y448D01*
X9914Y449D01*
X9919Y452D01*
X9923Y458D01*
X9924Y464D01*
X9923Y470D01*
X9919Y475D01*
X9914Y479D01*
X9908Y480D01*
D02*
G37*
G36*
X9639Y478D02*
X9633Y476D01*
X9628Y473D01*
X9624Y468D01*
X9623Y461D01*
X9624Y455D01*
X9628Y450D01*
X9633Y447D01*
X9639Y445D01*
X9645Y447D01*
X9651Y450D01*
X9654Y455D01*
X9655Y461D01*
X9654Y468D01*
X9651Y473D01*
X9645Y476D01*
X9639Y478D01*
D02*
G37*
G36*
X10199Y470D02*
X10193Y469D01*
X10187Y466D01*
X10184Y460D01*
X10183Y454D01*
X10184Y448D01*
X10187Y443D01*
X10193Y439D01*
X10199Y438D01*
X10205Y439D01*
X10210Y443D01*
X10214Y448D01*
X10215Y454D01*
X10214Y460D01*
X10210Y466D01*
X10205Y469D01*
X10199Y470D01*
D02*
G37*
G36*
X8269Y464D02*
X8263Y463D01*
X8257Y459D01*
X8254Y454D01*
X8253Y448D01*
X8254Y442D01*
X8257Y436D01*
X8263Y433D01*
X8269Y432D01*
X8275Y433D01*
X8280Y436D01*
X8284Y442D01*
X8285Y448D01*
X8284Y454D01*
X8280Y459D01*
X8275Y463D01*
X8269Y464D01*
D02*
G37*
G36*
X8074D02*
X8068Y463D01*
X8062Y459D01*
X8059Y454D01*
X8058Y448D01*
X8059Y442D01*
X8062Y436D01*
X8068Y433D01*
X8074Y432D01*
X8080Y433D01*
X8085Y436D01*
X8089Y442D01*
X8090Y448D01*
X8089Y454D01*
X8085Y459D01*
X8080Y463D01*
X8074Y464D01*
D02*
G37*
G36*
X7879D02*
X7873Y463D01*
X7867Y459D01*
X7864Y454D01*
X7863Y448D01*
X7864Y442D01*
X7867Y436D01*
X7873Y433D01*
X7879Y432D01*
X7885Y433D01*
X7890Y436D01*
X7894Y442D01*
X7895Y448D01*
X7894Y454D01*
X7890Y459D01*
X7885Y463D01*
X7879Y464D01*
D02*
G37*
G36*
X7684D02*
X7678Y463D01*
X7672Y459D01*
X7669Y454D01*
X7668Y448D01*
X7669Y442D01*
X7672Y436D01*
X7678Y433D01*
X7684Y432D01*
X7690Y433D01*
X7695Y436D01*
X7699Y442D01*
X7700Y448D01*
X7699Y454D01*
X7695Y459D01*
X7690Y463D01*
X7684Y464D01*
D02*
G37*
G36*
X7489D02*
X7483Y463D01*
X7477Y459D01*
X7474Y454D01*
X7473Y448D01*
X7474Y442D01*
X7477Y436D01*
X7483Y433D01*
X7489Y432D01*
X7495Y433D01*
X7500Y436D01*
X7504Y442D01*
X7505Y448D01*
X7504Y454D01*
X7500Y459D01*
X7495Y463D01*
X7489Y464D01*
D02*
G37*
G36*
X7294D02*
X7288Y463D01*
X7282Y459D01*
X7279Y454D01*
X7278Y448D01*
X7279Y442D01*
X7282Y436D01*
X7288Y433D01*
X7294Y432D01*
X7300Y433D01*
X7305Y436D01*
X7309Y442D01*
X7310Y448D01*
X7309Y454D01*
X7305Y459D01*
X7300Y463D01*
X7294Y464D01*
D02*
G37*
G36*
X7099D02*
X7093Y463D01*
X7087Y459D01*
X7084Y454D01*
X7083Y448D01*
X7084Y442D01*
X7087Y436D01*
X7093Y433D01*
X7099Y432D01*
X7105Y433D01*
X7110Y436D01*
X7114Y442D01*
X7115Y448D01*
X7114Y454D01*
X7110Y459D01*
X7105Y463D01*
X7099Y464D01*
D02*
G37*
G36*
X6904D02*
X6898Y463D01*
X6892Y459D01*
X6889Y454D01*
X6888Y448D01*
X6889Y442D01*
X6892Y436D01*
X6898Y433D01*
X6904Y432D01*
X6910Y433D01*
X6915Y436D01*
X6919Y442D01*
X6920Y448D01*
X6919Y454D01*
X6915Y459D01*
X6910Y463D01*
X6904Y464D01*
D02*
G37*
G36*
X6709D02*
X6703Y463D01*
X6697Y459D01*
X6694Y454D01*
X6693Y448D01*
X6694Y442D01*
X6697Y436D01*
X6703Y433D01*
X6709Y432D01*
X6715Y433D01*
X6720Y436D01*
X6724Y442D01*
X6725Y448D01*
X6724Y454D01*
X6720Y459D01*
X6715Y463D01*
X6709Y464D01*
D02*
G37*
G36*
X9778Y433D02*
X9771Y431D01*
X9766Y428D01*
X9763Y423D01*
X9761Y417D01*
X9763Y410D01*
X9766Y405D01*
X9771Y402D01*
X9778Y400D01*
X9784Y402D01*
X9789Y405D01*
X9792Y410D01*
X9794Y417D01*
X9792Y423D01*
X9789Y428D01*
X9784Y431D01*
X9778Y433D01*
D02*
G37*
G36*
X10199Y423D02*
X10193Y422D01*
X10187Y419D01*
X10184Y413D01*
X10183Y407D01*
X10184Y401D01*
X10187Y396D01*
X10193Y392D01*
X10199Y391D01*
X10205Y392D01*
X10210Y396D01*
X10214Y401D01*
X10215Y407D01*
X10214Y413D01*
X10210Y419D01*
X10205Y422D01*
X10199Y423D01*
D02*
G37*
G36*
X5265Y417D02*
X5259Y416D01*
X5254Y412D01*
X5250Y407D01*
X5249Y401D01*
X5250Y395D01*
X5254Y390D01*
X5259Y386D01*
X5265Y385D01*
X5271Y386D01*
X5276Y390D01*
X5280Y395D01*
X5281Y401D01*
X5280Y407D01*
X5276Y412D01*
X5271Y416D01*
X5265Y417D01*
D02*
G37*
G36*
X4640D02*
X4634Y416D01*
X4629Y412D01*
X4625Y407D01*
X4624Y401D01*
X4625Y395D01*
X4629Y390D01*
X4634Y386D01*
X4640Y385D01*
X4646Y386D01*
X4651Y390D01*
X4655Y395D01*
X4656Y401D01*
X4655Y407D01*
X4651Y412D01*
X4646Y416D01*
X4640Y417D01*
D02*
G37*
G36*
X4015D02*
X4009Y416D01*
X4004Y412D01*
X4000Y407D01*
X3999Y401D01*
X4000Y395D01*
X4004Y390D01*
X4009Y386D01*
X4015Y385D01*
X4021Y386D01*
X4026Y390D01*
X4030Y395D01*
X4031Y401D01*
X4030Y407D01*
X4026Y412D01*
X4021Y416D01*
X4015Y417D01*
D02*
G37*
G36*
X3390D02*
X3384Y416D01*
X3379Y412D01*
X3375Y407D01*
X3374Y401D01*
X3375Y395D01*
X3379Y390D01*
X3384Y386D01*
X3390Y385D01*
X3396Y386D01*
X3401Y390D01*
X3405Y395D01*
X3406Y401D01*
X3405Y407D01*
X3401Y412D01*
X3396Y416D01*
X3390Y417D01*
D02*
G37*
G36*
X2765D02*
X2759Y416D01*
X2754Y412D01*
X2750Y407D01*
X2749Y401D01*
X2750Y395D01*
X2754Y390D01*
X2759Y386D01*
X2765Y385D01*
X2771Y386D01*
X2776Y390D01*
X2780Y395D01*
X2781Y401D01*
X2780Y407D01*
X2776Y412D01*
X2771Y416D01*
X2765Y417D01*
D02*
G37*
G36*
X2140D02*
X2134Y416D01*
X2129Y412D01*
X2125Y407D01*
X2124Y401D01*
X2125Y395D01*
X2129Y390D01*
X2134Y386D01*
X2140Y385D01*
X2146Y386D01*
X2151Y390D01*
X2155Y395D01*
X2156Y401D01*
X2155Y407D01*
X2151Y412D01*
X2146Y416D01*
X2140Y417D01*
D02*
G37*
G36*
X1515D02*
X1509Y416D01*
X1504Y412D01*
X1500Y407D01*
X1499Y401D01*
X1500Y395D01*
X1504Y390D01*
X1509Y386D01*
X1515Y385D01*
X1521Y386D01*
X1526Y390D01*
X1530Y395D01*
X1531Y401D01*
X1530Y407D01*
X1526Y412D01*
X1521Y416D01*
X1515Y417D01*
D02*
G37*
G36*
X890D02*
X884Y416D01*
X879Y412D01*
X875Y407D01*
X874Y401D01*
X875Y395D01*
X879Y390D01*
X884Y386D01*
X890Y385D01*
X896Y386D01*
X901Y390D01*
X905Y395D01*
X906Y401D01*
X905Y407D01*
X901Y412D01*
X896Y416D01*
X890Y417D01*
D02*
G37*
G36*
X9567Y415D02*
X9561Y414D01*
X9556Y410D01*
X9552Y405D01*
X9551Y399D01*
X9552Y393D01*
X9556Y387D01*
X9561Y384D01*
X9567Y383D01*
X9573Y384D01*
X9578Y387D01*
X9582Y393D01*
X9583Y399D01*
X9582Y405D01*
X9578Y410D01*
X9573Y414D01*
X9567Y415D01*
D02*
G37*
G36*
X9476D02*
X9470Y414D01*
X9464Y410D01*
X9461Y405D01*
X9460Y399D01*
X9461Y393D01*
X9464Y387D01*
X9470Y384D01*
X9476Y383D01*
X9482Y384D01*
X9487Y387D01*
X9491Y393D01*
X9492Y399D01*
X9491Y405D01*
X9487Y410D01*
X9482Y414D01*
X9476Y415D01*
D02*
G37*
G36*
X9952Y413D02*
X9945Y411D01*
X9940Y408D01*
X9937Y403D01*
X9935Y396D01*
X9937Y390D01*
X9940Y385D01*
X9945Y382D01*
X9952Y380D01*
X9958Y382D01*
X9963Y385D01*
X9966Y390D01*
X9968Y396D01*
X9966Y403D01*
X9963Y408D01*
X9958Y411D01*
X9952Y413D01*
D02*
G37*
G36*
X9704Y373D02*
X9697Y372D01*
X9692Y368D01*
X9689Y363D01*
X9687Y357D01*
X9689Y351D01*
X9692Y345D01*
X9697Y342D01*
X9704Y341D01*
X9710Y342D01*
X9715Y345D01*
X9718Y351D01*
X9720Y357D01*
X9718Y363D01*
X9715Y368D01*
X9710Y372D01*
X9704Y373D01*
D02*
G37*
G36*
X9293Y352D02*
X9287Y351D01*
X9282Y347D01*
X9278Y342D01*
X9277Y336D01*
X9278Y330D01*
X9282Y324D01*
X9287Y321D01*
X9293Y320D01*
X9299Y321D01*
X9304Y324D01*
X9308Y330D01*
X9309Y336D01*
X9308Y342D01*
X9304Y347D01*
X9299Y351D01*
X9293Y352D01*
D02*
G37*
G36*
X10177Y345D02*
X10171Y344D01*
X10165Y340D01*
X10162Y335D01*
X10161Y329D01*
X10162Y323D01*
X10165Y317D01*
X10171Y314D01*
X10177Y313D01*
X10183Y314D01*
X10188Y317D01*
X10192Y323D01*
X10193Y329D01*
X10192Y335D01*
X10188Y340D01*
X10183Y344D01*
X10177Y345D01*
D02*
G37*
G36*
X11296Y3701D02*
X11283D01*
X11270Y3698D01*
X11257Y3693D01*
X11246Y3686D01*
X11237Y3676D01*
X11229Y3665D01*
X11224Y3653D01*
X11221Y3640D01*
Y3626D01*
X11224Y3613D01*
X11229Y3601D01*
X11237Y3590D01*
X11246Y3580D01*
X11257Y3573D01*
X11270Y3568D01*
X11283Y3565D01*
X11296D01*
X11309Y3568D01*
X11322Y3573D01*
X11333Y3580D01*
X11342Y3590D01*
X11350Y3601D01*
X11355Y3613D01*
X11357Y3626D01*
Y3640D01*
X11355Y3653D01*
X11350Y3665D01*
X11342Y3676D01*
X11333Y3686D01*
X11322Y3693D01*
X11309Y3698D01*
X11296Y3701D01*
D02*
G37*
G36*
X11589Y3262D02*
X11583D01*
X11577Y3259D01*
X11573Y3255D01*
X11570Y3249D01*
Y3243D01*
X11573Y3237D01*
X11577Y3233D01*
X11583Y3230D01*
X11589D01*
X11595Y3233D01*
X11599Y3237D01*
X11602Y3243D01*
Y3249D01*
X11599Y3255D01*
X11595Y3259D01*
X11589Y3262D01*
D02*
G37*
G36*
Y3097D02*
X11583D01*
X11577Y3094D01*
X11573Y3090D01*
X11570Y3084D01*
Y3078D01*
X11573Y3072D01*
X11577Y3067D01*
X11583Y3065D01*
X11589D01*
X11595Y3067D01*
X11599Y3072D01*
X11602Y3078D01*
Y3084D01*
X11599Y3090D01*
X11595Y3094D01*
X11589Y3097D01*
D02*
G37*
G36*
Y2931D02*
X11583D01*
X11577Y2929D01*
X11573Y2924D01*
X11570Y2919D01*
Y2912D01*
X11573Y2906D01*
X11577Y2902D01*
X11583Y2900D01*
X11589D01*
X11595Y2902D01*
X11599Y2906D01*
X11602Y2912D01*
Y2919D01*
X11599Y2924D01*
X11595Y2929D01*
X11589Y2931D01*
D02*
G37*
G36*
Y2766D02*
X11583D01*
X11577Y2763D01*
X11573Y2759D01*
X11570Y2753D01*
Y2747D01*
X11573Y2741D01*
X11577Y2737D01*
X11583Y2734D01*
X11589D01*
X11595Y2737D01*
X11599Y2741D01*
X11602Y2747D01*
Y2753D01*
X11599Y2759D01*
X11595Y2763D01*
X11589Y2766D01*
D02*
G37*
%LPD*%
D18*
X1650Y5077D02*
X1943D01*
X1603Y5030D02*
X1650Y5077D01*
X1603Y4883D02*
Y5030D01*
X5941Y4211D02*
Y5669D01*
X6090Y5819D01*
X3534Y3061D02*
X4003D01*
X2753Y3785D02*
X2810D01*
X3534Y3061D01*
X4003D02*
X4348Y3407D01*
X6073Y5962D02*
X6090Y5945D01*
Y5819D02*
Y5945D01*
X4348Y3407D02*
X5137D01*
X5941Y4211D01*
X10394Y5629D02*
X10643Y5878D01*
X7263Y5554D02*
X7416Y5401D01*
X9172D02*
X9401Y5629D01*
X7416Y5401D02*
X9172D01*
X7263Y5921D02*
X7263Y5554D01*
X7183Y5970D02*
X7214D01*
X7263Y5921D01*
X7183Y5970D02*
X7183Y5970D01*
X7206Y5538D02*
Y5946D01*
X9401Y5629D02*
X10394D01*
X10643Y5878D02*
Y6142D01*
X10721Y6220D01*
X10837D01*
X7206Y5538D02*
X7405Y5339D01*
X9595D01*
X9637Y5381D01*
X10839D01*
X4193Y5997D02*
X4465Y5997D01*
X3911Y6279D02*
X4193Y5997D01*
X3911Y6615D02*
X3911Y6279D01*
X3911Y6615D02*
X4009Y6712D01*
X4573D01*
X4617Y6756D01*
Y6898D01*
X4569Y6915D02*
X4601D01*
X4617Y6898D01*
X4465Y5932D02*
X4465Y5932D01*
X4385Y5932D02*
X4465D01*
X4385Y5933D02*
X4385Y5932D01*
X3799Y6040D02*
Y6654D01*
X3908Y6763D01*
X4544Y6763D01*
X4569Y6788D01*
Y6860D01*
D192*
X4435Y6245D02*
D03*
D233*
X11033Y6284D02*
X11085Y6337D01*
X10672Y6284D02*
X11033D01*
X7277Y6028D02*
X7279Y6027D01*
X7324D01*
X7395Y5955D01*
Y5615D02*
Y5955D01*
X7522Y5487D02*
X9151D01*
X7395Y5615D02*
X7522Y5487D01*
X9372Y5709D02*
X10359D01*
X9151Y5487D02*
X9372Y5709D01*
X10359D02*
X10556Y5906D01*
Y6168D01*
X10672Y6284D01*
D235*
X6569Y5971D02*
Y6023D01*
Y5971D02*
X6971Y5569D01*
Y4995D02*
Y5569D01*
X5937Y3962D02*
X6971Y4995D01*
X5937Y3375D02*
Y3962D01*
Y3375D02*
X6106Y3206D01*
X6356D01*
X6390Y3240D01*
X6413D01*
D246*
X6864Y6410D02*
X6939Y6336D01*
X6789Y6198D02*
X6922D01*
X6939Y6215D01*
Y6336D01*
X7685Y7265D02*
X7710Y7289D01*
X7685Y6750D02*
Y7265D01*
X7741Y7289D02*
X7985D01*
X7710D02*
X7741D01*
X6864Y6410D02*
X7634D01*
X7685Y6461D01*
Y6750D02*
X7686Y6751D01*
X7976D01*
X7685Y6461D02*
Y6750D01*
X6864Y6410D02*
Y6468D01*
X6758Y6167D02*
X6789Y6198D01*
X6758Y6145D02*
Y6167D01*
D263*
X11723Y2750D02*
D03*
Y2915D02*
D03*
Y3081D02*
D03*
Y3246D02*
D03*
D270*
X11373Y2592D02*
D03*
Y2768D02*
D03*
Y3083D02*
D03*
Y3246D02*
D03*
Y2891D02*
D03*
X10998Y3176D02*
D03*
Y2967D02*
D03*
X11055Y1650D02*
D03*
X11095Y1606D02*
D03*
X11187D02*
D03*
X11278D02*
D03*
X11057Y2400D02*
D03*
X11059Y3630D02*
D03*
X835Y1320D02*
D03*
X10833Y6571D02*
D03*
X4830Y4782D02*
D03*
X4692Y4782D02*
D03*
X11549Y2646D02*
D03*
X11641Y2645D02*
D03*
X11095Y1698D02*
D03*
X11187D02*
D03*
X11278D02*
D03*
X11458Y2334D02*
D03*
X11373Y1771D02*
D03*
X11458Y1859D02*
D03*
X11373Y1935D02*
D03*
X11458Y2018D02*
D03*
X11373Y2099D02*
D03*
X11458Y2176D02*
D03*
X11373Y2264D02*
D03*
Y2428D02*
D03*
X11458Y1701D02*
D03*
X11139Y2302D02*
D03*
X10997D02*
D03*
X11138Y2418D02*
D03*
X11137Y2767D02*
D03*
X11281Y2768D02*
D03*
Y2891D02*
D03*
X11134Y2534D02*
D03*
Y2651D02*
D03*
X10998Y2534D02*
D03*
Y2651D02*
D03*
X11281Y3083D02*
D03*
X11070Y3081D02*
D03*
X11119Y3127D02*
D03*
X11070Y3033D02*
D03*
Y3127D02*
D03*
X11119Y3033D02*
D03*
X11281Y3246D02*
D03*
Y3403D02*
D03*
X11180Y3530D02*
D03*
X10957Y3535D02*
D03*
X11175Y3799D02*
D03*
X10962Y3799D02*
D03*
X10953Y3957D02*
D03*
X11175Y3956D02*
D03*
X11665Y3841D02*
D03*
X11551Y3967D02*
D03*
X11591Y3402D02*
D03*
Y3554D02*
D03*
Y3705D02*
D03*
X11694D02*
D03*
Y3554D02*
D03*
Y3402D02*
D03*
X11798D02*
D03*
Y3554D02*
D03*
Y3705D02*
D03*
X10059Y6530D02*
D03*
X1603Y4883D02*
D03*
X5789Y5963D02*
D03*
X2753Y3830D02*
D03*
Y3785D02*
D03*
X7206Y5946D02*
D03*
X4573Y6415D02*
D03*
X6392Y6468D02*
D03*
X5813Y5994D02*
D03*
X5836Y5963D02*
D03*
X5860Y5994D02*
D03*
X5907Y5962D02*
D03*
X5931Y5994D02*
D03*
X5955Y5965D02*
D03*
X5978Y5994D02*
D03*
X6026Y5962D02*
D03*
X6049Y5994D02*
D03*
X6073Y5962D02*
D03*
X6096Y5994D02*
D03*
X4465Y5997D02*
D03*
X3799Y6040D02*
D03*
X4465Y5932D02*
D03*
X4385Y5933D02*
D03*
X2475Y6055D02*
D03*
X6758Y6145D02*
D03*
X6250Y6468D02*
D03*
X4335Y6415D02*
D03*
X11085Y6337D02*
D03*
X7183Y5970D02*
D03*
X7277Y6028D02*
D03*
X3861Y607D02*
D03*
X5111D02*
D03*
X6214Y5994D02*
D03*
X4646Y4964D02*
D03*
X5213Y4647D02*
D03*
X5213Y4689D02*
D03*
X5175Y4647D02*
D03*
X5137D02*
D03*
X5175Y4689D02*
D03*
X5137D02*
D03*
X4649Y4835D02*
D03*
X4909Y4825D02*
D03*
Y4925D02*
D03*
X6569Y6023D02*
D03*
X2085Y1320D02*
D03*
X2710D02*
D03*
X4630Y4693D02*
D03*
X3976Y1695D02*
D03*
X10090Y6569D02*
D03*
X10095Y6303D02*
D03*
X10139D02*
D03*
X10198Y6685D02*
D03*
X10398Y6397D02*
D03*
X4135Y1695D02*
D03*
X1460Y1320D02*
D03*
X3335D02*
D03*
X3960D02*
D03*
X4585D02*
D03*
X5210D02*
D03*
X736Y607D02*
D03*
X1361D02*
D03*
X1986D02*
D03*
X2611D02*
D03*
X3236D02*
D03*
X4486D02*
D03*
X6864Y6468D02*
D03*
X6333Y6154D02*
D03*
X9723Y3700D02*
D03*
Y3656D02*
D03*
Y3746D02*
D03*
X9962Y3700D02*
D03*
Y3656D02*
D03*
Y3746D02*
D03*
X9779D02*
D03*
X9901D02*
D03*
Y3656D02*
D03*
X9779D02*
D03*
X9840D02*
D03*
Y3746D02*
D03*
X9901Y3700D02*
D03*
X9779D02*
D03*
X9959Y3050D02*
D03*
Y3107D02*
D03*
Y2991D02*
D03*
X9910Y3080D02*
D03*
Y3135D02*
D03*
Y3026D02*
D03*
Y2971D02*
D03*
X9700Y3080D02*
D03*
Y3135D02*
D03*
Y3026D02*
D03*
Y2971D02*
D03*
X9840Y3135D02*
D03*
Y3026D02*
D03*
Y2971D02*
D03*
X9770D02*
D03*
Y3026D02*
D03*
Y3135D02*
D03*
Y3080D02*
D03*
X1943Y5077D02*
D03*
X4569Y6860D02*
D03*
X4569Y6915D02*
D03*
X5436Y5994D02*
D03*
X2127Y3720D02*
D03*
Y3765D02*
D03*
Y3810D02*
D03*
Y3855D02*
D03*
X2605Y4018D02*
D03*
X2560D02*
D03*
X2515D02*
D03*
X2470D02*
D03*
X2425D02*
D03*
X2380D02*
D03*
X2753Y3740D02*
D03*
Y3695D02*
D03*
X9182Y6568D02*
D03*
X9228D02*
D03*
X9101Y6878D02*
D03*
X9147D02*
D03*
X7384Y6471D02*
D03*
X7455Y6483D02*
D03*
X7985Y7289D02*
D03*
X7741Y7289D02*
D03*
X6413Y3240D02*
D03*
X10837Y6220D02*
D03*
X10839Y5381D02*
D03*
X12095Y6520D02*
D03*
Y6481D02*
D03*
Y6257D02*
D03*
Y6320D02*
D03*
Y6385D02*
D03*
X12050Y6396D02*
D03*
D273*
X3939Y2535D02*
D03*
X4021D02*
D03*
X3978Y2476D02*
D03*
D275*
X7976Y6751D02*
D03*
D284*
X5989Y5866D02*
Y5983D01*
X5978Y5994D02*
X5989Y5983D01*
X5955Y5965D02*
X5965Y5955D01*
X5798Y5675D02*
X5989Y5866D01*
X4665Y5532D02*
X4807Y5675D01*
X5798D01*
X3415Y5532D02*
X4665D01*
X3159Y5277D02*
X3415Y5532D01*
X2560Y4082D02*
X2583Y4106D01*
X2560Y4018D02*
Y4082D01*
X2583Y4106D02*
X2756D01*
X3159Y4509D01*
X2726Y4131D02*
X3121Y4527D01*
X2544Y4131D02*
X2726D01*
X3121Y4527D02*
Y5316D01*
X3159Y4509D02*
Y5277D01*
X2711Y4156D02*
X3084Y4529D01*
X3084Y5350D02*
X3084Y4529D01*
X3084Y5350D02*
X3333Y5598D01*
X3121Y5316D02*
X3371Y5565D01*
X5750Y5519D02*
X6049Y5818D01*
X5712Y5533D02*
X6010Y5831D01*
X5712Y4120D02*
Y5533D01*
X5750Y4092D02*
Y5519D01*
X5783Y5703D02*
X5965Y5885D01*
X4782Y5703D02*
X5783D01*
X5965Y5885D02*
Y5955D01*
X4644Y5565D02*
X4782Y5703D01*
X4631Y5598D02*
X4766Y5734D01*
X5775D02*
X5931Y5890D01*
X4766Y5734D02*
X5775D01*
X4757Y5769D02*
X5771D01*
X5892Y5889D01*
X4622Y5634D02*
X4757Y5769D01*
X5764Y5797D02*
X5860Y5893D01*
X4747Y5797D02*
X5764D01*
X4619Y5669D02*
X4747Y5797D01*
X5753Y5825D02*
X5836Y5908D01*
X4616Y5710D02*
X4731Y5825D01*
X5753D01*
X4606Y5747D02*
X4711Y5853D01*
X5741D02*
X5813Y5925D01*
X4711Y5853D02*
X5741D01*
X4580Y5777D02*
X4685Y5883D01*
X5688D02*
X5768Y5962D01*
X4685Y5883D02*
X5688D01*
X3371Y5565D02*
X4644D01*
X3333Y5598D02*
X3333Y5598D01*
X4631D01*
X3310Y5634D02*
X4622D01*
X3050Y5374D02*
X3310Y5634D01*
X3294Y5669D02*
X4619D01*
X3022Y5397D02*
X3294Y5669D01*
X2983Y5413D02*
X3280Y5710D01*
X4616D01*
X2948Y5432D02*
X3264Y5747D01*
X4606D01*
X3229Y5777D02*
X4580D01*
X2917Y5465D02*
X3229Y5777D01*
X4554Y5809D02*
X4654Y5908D01*
X3207Y5809D02*
X4554D01*
X2881Y5483D02*
X3207Y5809D01*
X2515Y4018D02*
Y4102D01*
X2544Y4131D01*
X2470Y4132D02*
X2494Y4156D01*
X2380Y4018D02*
Y4175D01*
X2470Y4018D02*
Y4132D01*
X2425Y4018D02*
Y4161D01*
X2494Y4156D02*
X2711D01*
X2695Y4184D02*
X3050Y4539D01*
Y5374D01*
X5892Y5889D02*
Y5947D01*
X5931Y5890D02*
Y5994D01*
X2425Y4161D02*
X2448Y4184D01*
X2695D01*
X2664Y4207D02*
X3022Y4565D01*
Y5397D01*
X2412Y4207D02*
X2664D01*
X5892Y5947D02*
X5907Y5962D01*
X2380Y4175D02*
X2412Y4207D01*
X5860Y5893D02*
Y5994D01*
X2006Y3855D02*
X2127D01*
X1970Y3891D02*
X2006Y3855D01*
X1970Y3891D02*
Y4075D01*
X1936Y4081D02*
X2109Y4254D01*
X2122Y4228D02*
X2636D01*
X1970Y4075D02*
X2122Y4228D01*
X2109Y4254D02*
X2615D01*
X2948Y4588D01*
X2636Y4228D02*
X2983Y4575D01*
Y5413D01*
X5836Y5908D02*
Y5963D01*
X2917Y4598D02*
Y5465D01*
X2948Y4588D02*
Y5432D01*
X2093Y4300D02*
X2619D01*
X2917Y4598D01*
X2881Y4610D02*
Y5483D01*
X2048Y4326D02*
X2597D01*
X2881Y4610D01*
X1957Y3810D02*
X2127D01*
X1936Y3831D02*
X1957Y3810D01*
X1936Y3831D02*
Y4081D01*
X5813Y5925D02*
Y5994D01*
X5789Y5962D02*
X5789Y5963D01*
X5768Y5962D02*
X5789D01*
X1900Y3795D02*
Y4107D01*
Y3795D02*
X1929Y3765D01*
X1900Y4107D02*
X2093Y4300D01*
X1929Y3765D02*
X2127D01*
X1857Y4135D02*
X2048Y4326D01*
X1857Y3774D02*
Y4135D01*
X1911Y3720D02*
X2127D01*
X1857Y3774D02*
X1911Y3720D01*
X4654Y5908D02*
X5415D01*
X5436Y5929D01*
Y5994D01*
X2776Y3695D02*
X3487Y2984D01*
X2753Y3695D02*
X2776D01*
X3487Y2984D02*
X4060D01*
X2605Y4018D02*
X2682D01*
X3579Y3122D01*
X3934D01*
X4318Y3505D01*
X2753Y3830D02*
X2819D01*
X3563Y3087D01*
X3954D01*
X2753Y3740D02*
X2795D01*
X3507Y3028D02*
X4048D01*
X2795Y3740D02*
X3507Y3028D01*
X3954Y3087D02*
X4334Y3467D01*
X4048Y3028D02*
X4369Y3350D01*
X4060Y2984D02*
X4367Y3291D01*
X4334Y3467D02*
X5125D01*
X4318Y3505D02*
X5097D01*
X5712Y4120D01*
X6010Y5831D02*
Y5947D01*
X6026Y5962D01*
X5125Y3467D02*
X5750Y4092D01*
X6049Y5818D02*
Y5994D01*
X4369Y3350D02*
X5142D01*
X4367Y3291D02*
X5172D01*
X5142Y3350D02*
X6842Y5050D01*
X6546Y5840D02*
X6842Y5544D01*
Y5050D02*
Y5544D01*
X6122Y5923D02*
X6205Y5840D01*
X6546D01*
X6118Y5993D02*
X6122Y5989D01*
Y5923D02*
Y5989D01*
X6097Y5993D02*
X6118D01*
X6096Y5994D02*
X6097Y5993D01*
X5172Y3291D02*
X6898Y5017D01*
Y5560D01*
X6233Y5875D02*
X6583D01*
X6898Y5560D01*
X6191Y5990D02*
X6195Y5994D01*
X6214D01*
X6191Y5917D02*
Y5990D01*
Y5917D02*
X6233Y5875D01*
X7455Y6483D02*
Y7023D01*
X3784Y7212D02*
X7265D01*
X7455Y7023D01*
X3344Y6772D02*
X3784Y7212D01*
X2903Y6772D02*
X3344D01*
X2801Y6670D02*
X2903Y6772D01*
X2801Y6221D02*
Y6670D01*
X2635Y6055D02*
X2801Y6221D01*
X2475Y6055D02*
X2635D01*
X7309Y6504D02*
Y6884D01*
X7238Y6955D02*
X7309Y6884D01*
Y6504D02*
X7341Y6471D01*
X5044Y6955D02*
X7238D01*
X7341Y6471D02*
X7384D01*
X4755Y6666D02*
X5044Y6955D01*
X4218Y6666D02*
X4755D01*
X4180Y6628D02*
X4218Y6666D01*
X4180Y6400D02*
Y6628D01*
Y6400D02*
X4234Y6345D01*
X4414D02*
X4435Y6324D01*
X4234Y6345D02*
X4414D01*
X4435Y6245D02*
Y6324D01*
D285*
X4335Y6415D02*
X4573D01*
X5085Y6243D02*
X6209D01*
X4985Y6344D02*
X5085Y6243D01*
X4777Y6344D02*
X4985D01*
X4706Y6415D02*
X4777Y6344D01*
X4573Y6415D02*
X4706D01*
X4573Y6415D02*
X4573Y6415D01*
M02*
