G04*
G04 #@! TF.GenerationSoftware,Altium Limited,Altium Designer,22.10.1 (41)*
G04*
G04 Layer_Color=255*
%FSLAX25Y25*%
%MOIN*%
G70*
G04*
G04 #@! TF.SameCoordinates,72A4C529-D447-4618-9FEB-1D22E0D21F89*
G04*
G04*
G04 #@! TF.FilePolarity,Positive*
G04*
G01*
G75*
%ADD31R,0.07087X0.03937*%
%ADD32R,0.02362X0.04724*%
%ADD33R,0.04724X0.03937*%
%ADD34R,0.05118X0.01772*%
%ADD35R,0.02165X0.03740*%
%ADD36R,0.02600X0.00900*%
G04:AMPARAMS|DCode=37|XSize=7.87mil|YSize=17.72mil|CornerRadius=1.97mil|HoleSize=0mil|Usage=FLASHONLY|Rotation=180.000|XOffset=0mil|YOffset=0mil|HoleType=Round|Shape=RoundedRectangle|*
%AMROUNDEDRECTD37*
21,1,0.00787,0.01378,0,0,180.0*
21,1,0.00394,0.01772,0,0,180.0*
1,1,0.00394,-0.00197,0.00689*
1,1,0.00394,0.00197,0.00689*
1,1,0.00394,0.00197,-0.00689*
1,1,0.00394,-0.00197,-0.00689*
%
%ADD37ROUNDEDRECTD37*%
%ADD38R,0.04331X0.02362*%
%ADD39R,0.00984X0.00591*%
%ADD40R,0.00984X0.01968*%
%ADD41R,0.02362X0.03150*%
%ADD42R,0.01968X0.01968*%
%ADD43R,0.04921X0.06890*%
%ADD44R,0.01378X0.02756*%
%ADD45R,0.09252X0.06221*%
%ADD46R,0.05200X0.02300*%
%ADD47R,0.04375X0.02365*%
%ADD48O,0.00984X0.03543*%
%ADD49O,0.03543X0.00984*%
%ADD51R,0.01200X0.03200*%
%ADD52R,0.03200X0.01200*%
%ADD53R,0.03150X0.03740*%
%ADD54R,0.02362X0.02559*%
%ADD55R,0.03543X0.03937*%
%ADD56R,0.02756X0.03543*%
%ADD57R,0.02165X0.01772*%
%ADD58R,0.03347X0.03543*%
%ADD59R,0.02362X0.02165*%
%ADD60R,0.02165X0.03740*%
%ADD61R,0.01063X0.00984*%
%ADD62R,0.05512X0.01772*%
%ADD63R,0.05709X0.07874*%
%ADD64R,0.03150X0.05906*%
%ADD65R,0.01083X0.00984*%
%ADD66R,0.00984X0.01083*%
%ADD67R,0.04528X0.05709*%
%ADD68R,0.01181X0.02756*%
%ADD69R,0.01968X0.01378*%
%ADD70R,0.01378X0.01968*%
%ADD71R,0.01181X0.05906*%
%ADD72R,0.05906X0.01181*%
%ADD73R,0.10827X0.03937*%
%ADD74R,0.05339X0.04152*%
%ADD75R,0.02362X0.02362*%
%ADD76R,0.01073X0.01860*%
%ADD77R,0.02047X0.02047*%
%ADD78R,0.02323X0.02441*%
%ADD79O,0.03543X0.00787*%
%ADD80O,0.00787X0.03543*%
%ADD81O,0.05315X0.01181*%
%ADD82R,0.17700X0.18100*%
%ADD83R,0.01400X0.07900*%
G04:AMPARAMS|DCode=84|XSize=21.65mil|YSize=31.5mil|CornerRadius=1.95mil|HoleSize=0mil|Usage=FLASHONLY|Rotation=90.000|XOffset=0mil|YOffset=0mil|HoleType=Round|Shape=RoundedRectangle|*
%AMROUNDEDRECTD84*
21,1,0.02165,0.02760,0,0,90.0*
21,1,0.01776,0.03150,0,0,90.0*
1,1,0.00390,0.01380,0.00888*
1,1,0.00390,0.01380,-0.00888*
1,1,0.00390,-0.01380,-0.00888*
1,1,0.00390,-0.01380,0.00888*
%
%ADD84ROUNDEDRECTD84*%
%ADD85R,0.01535X0.03956*%
%ADD86R,0.03956X0.01535*%
%ADD87R,0.05472X0.03583*%
%ADD88R,0.03543X0.02756*%
%ADD89R,0.02284X0.02598*%
%ADD90R,0.02835X0.02047*%
%ADD91R,0.02441X0.02598*%
%ADD92R,0.03937X0.04134*%
%ADD93R,0.02200X0.02000*%
%ADD94R,0.02362X0.03740*%
%ADD95R,0.03850X0.02200*%
%ADD96R,0.05512X0.01181*%
%ADD97R,0.03740X0.03150*%
%ADD98R,0.03543X0.02953*%
%ADD99R,0.01860X0.01073*%
%ADD100R,0.04528X0.05512*%
%ADD101R,0.02953X0.03701*%
%ADD102R,0.02598X0.02441*%
%ADD103R,0.05512X0.04528*%
%ADD104R,0.03740X0.02165*%
%ADD105R,0.04331X0.03937*%
%ADD106R,0.02047X0.02835*%
%ADD107R,0.02953X0.03543*%
%ADD108R,0.02756X0.01181*%
%ADD109R,0.02441X0.02323*%
%ADD111R,0.01772X0.02165*%
%ADD112R,0.02165X0.02362*%
%ADD113R,0.02000X0.02200*%
%ADD114R,0.04921X0.02362*%
G04:AMPARAMS|DCode=115|XSize=7.87mil|YSize=17.72mil|CornerRadius=1.97mil|HoleSize=0mil|Usage=FLASHONLY|Rotation=90.000|XOffset=0mil|YOffset=0mil|HoleType=Round|Shape=RoundedRectangle|*
%AMROUNDEDRECTD115*
21,1,0.00787,0.01378,0,0,90.0*
21,1,0.00394,0.01772,0,0,90.0*
1,1,0.00394,0.00689,0.00197*
1,1,0.00394,0.00689,-0.00197*
1,1,0.00394,-0.00689,-0.00197*
1,1,0.00394,-0.00689,0.00197*
%
%ADD115ROUNDEDRECTD115*%
%ADD117R,0.05906X0.20472*%
%ADD118R,0.06299X0.19291*%
%ADD139R,0.01600X0.01000*%
%ADD140R,0.01000X0.01600*%
%ADD141R,0.13200X0.13200*%
%ADD160R,0.12800X0.12800*%
%ADD161R,0.09449X0.09449*%
%ADD184R,0.09449X0.09449*%
G04:AMPARAMS|DCode=187|XSize=45.28mil|YSize=70.87mil|CornerRadius=22.64mil|HoleSize=0mil|Usage=FLASHONLY|Rotation=90.000|XOffset=0mil|YOffset=0mil|HoleType=Round|Shape=RoundedRectangle|*
%AMROUNDEDRECTD187*
21,1,0.04528,0.02559,0,0,90.0*
21,1,0.00000,0.07087,0,0,90.0*
1,1,0.04528,0.01280,0.00000*
1,1,0.04528,0.01280,0.00000*
1,1,0.04528,-0.01280,0.00000*
1,1,0.04528,-0.01280,0.00000*
%
%ADD187ROUNDEDRECTD187*%
G04:AMPARAMS|DCode=188|XSize=57.09mil|YSize=78.74mil|CornerRadius=28.54mil|HoleSize=0mil|Usage=FLASHONLY|Rotation=90.000|XOffset=0mil|YOffset=0mil|HoleType=Round|Shape=RoundedRectangle|*
%AMROUNDEDRECTD188*
21,1,0.05709,0.02165,0,0,90.0*
21,1,0.00000,0.07874,0,0,90.0*
1,1,0.05709,0.01083,0.00000*
1,1,0.05709,0.01083,0.00000*
1,1,0.05709,-0.01083,0.00000*
1,1,0.05709,-0.01083,0.00000*
%
%ADD188ROUNDEDRECTD188*%
%ADD189C,0.03150*%
%ADD199C,0.05469*%
%ADD200R,0.05469X0.05469*%
%ADD201C,0.09646*%
%ADD202C,0.06300*%
%ADD210C,0.05500*%
%ADD219R,0.20472X0.20472*%
%ADD220R,0.06500X0.06500*%
%ADD221R,0.08268X0.08268*%
%ADD222R,0.21654X0.21654*%
%ADD223R,0.06500X0.06500*%
%ADD224C,0.02165*%
%ADD251C,0.10000*%
%ADD252R,0.06496X0.06496*%
%ADD253C,0.06496*%
%ADD254C,0.02000*%
%ADD255C,0.30000*%
%ADD256C,0.06000*%
%ADD257C,0.07874*%
%ADD258C,0.11000*%
%ADD259C,0.03000*%
%ADD260R,0.06791X0.06791*%
%ADD261C,0.08300*%
%ADD262C,0.05512*%
G04:AMPARAMS|DCode=263|XSize=55.12mil|YSize=55.12mil|CornerRadius=13.78mil|HoleSize=0mil|Usage=FLASHONLY|Rotation=270.000|XOffset=0mil|YOffset=0mil|HoleType=Round|Shape=RoundedRectangle|*
%AMROUNDEDRECTD263*
21,1,0.05512,0.02756,0,0,270.0*
21,1,0.02756,0.05512,0,0,270.0*
1,1,0.02756,-0.01378,-0.01378*
1,1,0.02756,-0.01378,0.01378*
1,1,0.02756,0.01378,0.01378*
1,1,0.02756,0.01378,-0.01378*
%
%ADD263ROUNDEDRECTD263*%
%ADD264C,0.05984*%
%ADD265C,0.09449*%
%ADD266C,0.12402*%
%ADD267C,0.15400*%
%ADD268C,0.02854*%
G04:AMPARAMS|DCode=269|XSize=62.99mil|YSize=120.08mil|CornerRadius=15.75mil|HoleSize=0mil|Usage=FLASHONLY|Rotation=90.000|XOffset=0mil|YOffset=0mil|HoleType=Round|Shape=RoundedRectangle|*
%AMROUNDEDRECTD269*
21,1,0.06299,0.08858,0,0,90.0*
21,1,0.03150,0.12008,0,0,90.0*
1,1,0.03150,0.04429,0.01575*
1,1,0.03150,0.04429,-0.01575*
1,1,0.03150,-0.04429,-0.01575*
1,1,0.03150,-0.04429,0.01575*
%
%ADD269ROUNDEDRECTD269*%
D31*
X145000Y518000D02*
D03*
X199181Y521500D02*
D03*
X212000Y518000D02*
D03*
X201000Y462000D02*
D03*
X212500Y461000D02*
D03*
X226000Y458000D02*
D03*
X220500Y483095D02*
D03*
X223000Y510500D02*
D03*
X225500Y523500D02*
D03*
X177000Y499000D02*
D03*
X218972Y263386D02*
D03*
X984000Y370000D02*
D03*
X1100000Y363000D02*
D03*
X984000Y240000D02*
D03*
X1100000D02*
D03*
Y165000D02*
D03*
X984000D02*
D03*
X552205Y194748D02*
D03*
X337000Y353500D02*
D03*
X134500Y384500D02*
D03*
X1100000Y308071D02*
D03*
X984000D02*
D03*
X438500Y448000D02*
D03*
X517500Y474500D02*
D03*
X425500Y504000D02*
D03*
X520000Y549000D02*
D03*
X603386Y530687D02*
D03*
X851000Y280500D02*
D03*
D32*
X1137260Y631579D02*
D03*
X1144740D02*
D03*
X1141000Y641421D02*
D03*
X1152260Y631579D02*
D03*
X1159740D02*
D03*
X1156000Y641421D02*
D03*
X1167260Y631579D02*
D03*
X1174740D02*
D03*
X1171000Y641421D02*
D03*
X1182260Y631579D02*
D03*
X1189740D02*
D03*
X1186000Y641421D02*
D03*
D33*
X975158Y51642D02*
D03*
Y66996D02*
D03*
X995158D02*
D03*
Y51642D02*
D03*
D34*
X1225583Y663118D02*
D03*
Y660559D02*
D03*
Y658000D02*
D03*
Y655441D02*
D03*
Y652882D02*
D03*
D35*
X224000Y349764D02*
D03*
Y345236D02*
D03*
D36*
X1119250Y643713D02*
D03*
Y641744D02*
D03*
Y639776D02*
D03*
X1112750D02*
D03*
Y641744D02*
D03*
Y643713D02*
D03*
X237250Y605469D02*
D03*
Y603500D02*
D03*
Y601532D02*
D03*
X243750D02*
D03*
Y603500D02*
D03*
Y605469D02*
D03*
D37*
X501532Y523445D02*
D03*
X503500D02*
D03*
X505469D02*
D03*
Y516555D02*
D03*
X503500D02*
D03*
X501532D02*
D03*
X231492Y369264D02*
D03*
X229524D02*
D03*
X227555D02*
D03*
Y362374D02*
D03*
X229524D02*
D03*
X231492D02*
D03*
D38*
X885276Y572740D02*
D03*
Y569000D02*
D03*
Y565260D02*
D03*
X894724D02*
D03*
Y572740D02*
D03*
D39*
X921220Y651189D02*
D03*
Y649811D02*
D03*
D40*
X923779Y650500D02*
D03*
D41*
X1002902Y51642D02*
D03*
X1008413D02*
D03*
X503256Y556000D02*
D03*
X497744D02*
D03*
D42*
X717500Y67319D02*
D03*
Y63776D02*
D03*
Y57819D02*
D03*
Y54276D02*
D03*
X447000Y434772D02*
D03*
Y431228D02*
D03*
Y421728D02*
D03*
Y425272D02*
D03*
Y412228D02*
D03*
Y415772D02*
D03*
X795500Y48319D02*
D03*
Y44776D02*
D03*
Y57819D02*
D03*
Y54276D02*
D03*
Y67319D02*
D03*
Y63776D02*
D03*
X698000Y48319D02*
D03*
Y44776D02*
D03*
Y57819D02*
D03*
Y54276D02*
D03*
Y67319D02*
D03*
Y63776D02*
D03*
X776000Y48319D02*
D03*
Y44776D02*
D03*
Y57819D02*
D03*
Y54276D02*
D03*
Y67319D02*
D03*
Y63776D02*
D03*
X678500Y48319D02*
D03*
Y44776D02*
D03*
Y57819D02*
D03*
Y54276D02*
D03*
Y67319D02*
D03*
Y63776D02*
D03*
X756500Y48319D02*
D03*
Y44776D02*
D03*
Y57819D02*
D03*
Y54276D02*
D03*
Y67319D02*
D03*
Y63776D02*
D03*
X659000Y48319D02*
D03*
Y44776D02*
D03*
Y57819D02*
D03*
Y54276D02*
D03*
Y67319D02*
D03*
Y63776D02*
D03*
X737000Y48319D02*
D03*
Y44776D02*
D03*
Y57819D02*
D03*
Y54276D02*
D03*
Y67319D02*
D03*
Y63776D02*
D03*
X815000Y48319D02*
D03*
Y44776D02*
D03*
Y57819D02*
D03*
Y54276D02*
D03*
Y67319D02*
D03*
Y63776D02*
D03*
X717500Y48319D02*
D03*
Y44776D02*
D03*
D43*
X478942Y538232D02*
D03*
X469257D02*
D03*
X478942Y554374D02*
D03*
X469257D02*
D03*
D44*
X214339Y647307D02*
D03*
X211779D02*
D03*
X209221D02*
D03*
X206661D02*
D03*
Y635693D02*
D03*
X209221D02*
D03*
X211779D02*
D03*
X214339D02*
D03*
X154839Y647307D02*
D03*
X152279D02*
D03*
X149721D02*
D03*
X147161D02*
D03*
Y635693D02*
D03*
X149721D02*
D03*
X152279D02*
D03*
X154839D02*
D03*
D45*
X210500Y641500D02*
D03*
X151000D02*
D03*
D46*
X1017000Y639000D02*
D03*
X1009000Y635260D02*
D03*
Y642740D02*
D03*
D47*
X1114791Y538000D02*
D03*
X1101209D02*
D03*
X1114791Y622000D02*
D03*
X1101209D02*
D03*
D48*
X492764Y508724D02*
D03*
X490795D02*
D03*
X488827D02*
D03*
X486858D02*
D03*
X484890D02*
D03*
X482921D02*
D03*
X480953D02*
D03*
X478984D02*
D03*
X477016D02*
D03*
X475047D02*
D03*
X473079D02*
D03*
X471110D02*
D03*
X469142D02*
D03*
X467173D02*
D03*
X465205D02*
D03*
X463236D02*
D03*
Y474276D02*
D03*
X465205D02*
D03*
X467173D02*
D03*
X469142D02*
D03*
X471110D02*
D03*
X473079D02*
D03*
X475047D02*
D03*
X477016D02*
D03*
X478984D02*
D03*
X480953D02*
D03*
X482921D02*
D03*
X484890D02*
D03*
X486858D02*
D03*
X488827D02*
D03*
X490795D02*
D03*
X492764D02*
D03*
D49*
X460776Y506264D02*
D03*
Y504295D02*
D03*
Y502327D02*
D03*
Y500358D02*
D03*
Y498390D02*
D03*
Y496421D02*
D03*
Y494453D02*
D03*
Y492484D02*
D03*
Y490516D02*
D03*
Y488547D02*
D03*
Y486579D02*
D03*
Y484610D02*
D03*
Y482642D02*
D03*
Y480673D02*
D03*
Y478705D02*
D03*
Y476736D02*
D03*
X495224D02*
D03*
Y478705D02*
D03*
Y480673D02*
D03*
Y482642D02*
D03*
Y484610D02*
D03*
Y486579D02*
D03*
Y488547D02*
D03*
Y490516D02*
D03*
Y492484D02*
D03*
Y494453D02*
D03*
Y496421D02*
D03*
Y498390D02*
D03*
Y500358D02*
D03*
Y502327D02*
D03*
Y504295D02*
D03*
Y506264D02*
D03*
D51*
X403953Y99700D02*
D03*
X401984D02*
D03*
X400016D02*
D03*
X398047D02*
D03*
Y111300D02*
D03*
X400016D02*
D03*
X401984D02*
D03*
X403953D02*
D03*
X528953D02*
D03*
X526984D02*
D03*
X525016D02*
D03*
X523047D02*
D03*
Y99700D02*
D03*
X525016D02*
D03*
X526984D02*
D03*
X528953D02*
D03*
X254890Y380950D02*
D03*
X252921D02*
D03*
X250953D02*
D03*
X248984D02*
D03*
X247016D02*
D03*
X245047D02*
D03*
X243079D02*
D03*
X241110D02*
D03*
Y362050D02*
D03*
X243079D02*
D03*
X245047D02*
D03*
X247016D02*
D03*
X248984D02*
D03*
X250953D02*
D03*
X252921D02*
D03*
X254890D02*
D03*
X419453Y206300D02*
D03*
X417484D02*
D03*
X415516D02*
D03*
X413547D02*
D03*
Y194700D02*
D03*
X415516D02*
D03*
X417484D02*
D03*
X419453D02*
D03*
X91453Y111300D02*
D03*
X89484D02*
D03*
X87516D02*
D03*
X85547D02*
D03*
Y99700D02*
D03*
X87516D02*
D03*
X89484D02*
D03*
X91453D02*
D03*
X153953D02*
D03*
X151984D02*
D03*
X150016D02*
D03*
X148047D02*
D03*
Y111300D02*
D03*
X150016D02*
D03*
X151984D02*
D03*
X153953D02*
D03*
X216453Y99700D02*
D03*
X214484D02*
D03*
X212516D02*
D03*
X210547D02*
D03*
Y111300D02*
D03*
X212516D02*
D03*
X214484D02*
D03*
X216453D02*
D03*
X278953Y99700D02*
D03*
X276984D02*
D03*
X275016D02*
D03*
X273047D02*
D03*
Y111300D02*
D03*
X275016D02*
D03*
X276984D02*
D03*
X278953D02*
D03*
X341453D02*
D03*
X339484D02*
D03*
X337516D02*
D03*
X335547D02*
D03*
Y99700D02*
D03*
X337516D02*
D03*
X339484D02*
D03*
X341453D02*
D03*
X466453Y111300D02*
D03*
X464484D02*
D03*
X462516D02*
D03*
X460547D02*
D03*
Y99700D02*
D03*
X462516D02*
D03*
X464484D02*
D03*
X466453D02*
D03*
D52*
X395200Y102547D02*
D03*
Y104516D02*
D03*
Y106484D02*
D03*
Y108453D02*
D03*
X406800D02*
D03*
Y106484D02*
D03*
Y104516D02*
D03*
Y102547D02*
D03*
X531800D02*
D03*
Y104516D02*
D03*
Y106484D02*
D03*
Y108453D02*
D03*
X520200D02*
D03*
Y106484D02*
D03*
Y104516D02*
D03*
Y102547D02*
D03*
X257450Y364610D02*
D03*
Y366579D02*
D03*
Y368547D02*
D03*
Y370516D02*
D03*
Y372484D02*
D03*
Y374453D02*
D03*
Y376421D02*
D03*
Y378390D02*
D03*
X238550D02*
D03*
Y376421D02*
D03*
Y374453D02*
D03*
Y372484D02*
D03*
Y370516D02*
D03*
Y368547D02*
D03*
Y366579D02*
D03*
Y364610D02*
D03*
X410700Y203453D02*
D03*
Y201484D02*
D03*
Y199516D02*
D03*
Y197547D02*
D03*
X422300D02*
D03*
Y199516D02*
D03*
Y201484D02*
D03*
Y203453D02*
D03*
X94300Y102547D02*
D03*
Y104516D02*
D03*
Y106484D02*
D03*
Y108453D02*
D03*
X82700D02*
D03*
Y106484D02*
D03*
Y104516D02*
D03*
Y102547D02*
D03*
X145200D02*
D03*
Y104516D02*
D03*
Y106484D02*
D03*
Y108453D02*
D03*
X156800D02*
D03*
Y106484D02*
D03*
Y104516D02*
D03*
Y102547D02*
D03*
X207700D02*
D03*
Y104516D02*
D03*
Y106484D02*
D03*
Y108453D02*
D03*
X219300D02*
D03*
Y106484D02*
D03*
Y104516D02*
D03*
Y102547D02*
D03*
X270200D02*
D03*
Y104516D02*
D03*
Y106484D02*
D03*
Y108453D02*
D03*
X281800D02*
D03*
Y106484D02*
D03*
Y104516D02*
D03*
Y102547D02*
D03*
X344300D02*
D03*
Y104516D02*
D03*
Y106484D02*
D03*
Y108453D02*
D03*
X332700D02*
D03*
Y106484D02*
D03*
Y104516D02*
D03*
Y102547D02*
D03*
X469300D02*
D03*
Y104516D02*
D03*
Y106484D02*
D03*
Y108453D02*
D03*
X457700D02*
D03*
Y106484D02*
D03*
Y104516D02*
D03*
Y102547D02*
D03*
D53*
X486342Y524000D02*
D03*
X491657D02*
D03*
X376039Y686721D02*
D03*
X382535D02*
D03*
X434252Y686000D02*
D03*
X440748D02*
D03*
X247748Y248000D02*
D03*
X241252D02*
D03*
X891752Y580000D02*
D03*
X898248D02*
D03*
X104752Y608000D02*
D03*
X111248D02*
D03*
X1198252Y627000D02*
D03*
X1204748D02*
D03*
X434252Y691500D02*
D03*
X440748D02*
D03*
D54*
X675500Y595327D02*
D03*
Y598673D02*
D03*
D55*
X505150Y442000D02*
D03*
X498850D02*
D03*
D56*
X1008413Y57142D02*
D03*
X1002902D02*
D03*
X258756Y242500D02*
D03*
X253244D02*
D03*
X1009044Y653000D02*
D03*
X1014556D02*
D03*
X451756Y691500D02*
D03*
X446244D02*
D03*
X446244Y686000D02*
D03*
X451756D02*
D03*
X388231Y686721D02*
D03*
X393743D02*
D03*
X258756Y248000D02*
D03*
X253244D02*
D03*
D57*
X1090000Y48772D02*
D03*
Y45228D02*
D03*
X511500Y510976D02*
D03*
Y514520D02*
D03*
X473079Y469272D02*
D03*
Y465728D02*
D03*
X506500Y503114D02*
D03*
Y499571D02*
D03*
X663000Y365728D02*
D03*
Y369272D02*
D03*
X288500Y246228D02*
D03*
Y249772D02*
D03*
X351500Y264272D02*
D03*
Y260728D02*
D03*
X347500D02*
D03*
Y264272D02*
D03*
X254232Y327272D02*
D03*
Y323728D02*
D03*
X250768D02*
D03*
Y327272D02*
D03*
X397000Y189528D02*
D03*
Y193072D02*
D03*
Y211472D02*
D03*
Y207928D02*
D03*
X430500Y215072D02*
D03*
Y211528D02*
D03*
X447000Y403272D02*
D03*
Y399728D02*
D03*
X77500Y92272D02*
D03*
Y88728D02*
D03*
X140000D02*
D03*
Y92272D02*
D03*
X202500Y88728D02*
D03*
Y92272D02*
D03*
X265000Y88728D02*
D03*
Y92272D02*
D03*
X327500Y88728D02*
D03*
Y92272D02*
D03*
X390000Y88728D02*
D03*
Y92272D02*
D03*
X452500D02*
D03*
Y88728D02*
D03*
X515000Y92272D02*
D03*
Y88728D02*
D03*
X81500Y92272D02*
D03*
Y88728D02*
D03*
X144000D02*
D03*
Y92272D02*
D03*
X206500Y88728D02*
D03*
Y92272D02*
D03*
X269000Y88728D02*
D03*
Y92272D02*
D03*
X331500Y88728D02*
D03*
Y92272D02*
D03*
X394000Y88728D02*
D03*
Y92272D02*
D03*
X456500D02*
D03*
Y88728D02*
D03*
X519000Y92272D02*
D03*
Y88728D02*
D03*
X77500Y96228D02*
D03*
Y99772D02*
D03*
X140000D02*
D03*
Y96228D02*
D03*
X202500Y99772D02*
D03*
Y96228D02*
D03*
X265000Y99772D02*
D03*
Y96228D02*
D03*
X327500Y99772D02*
D03*
Y96228D02*
D03*
X390000Y99772D02*
D03*
Y96228D02*
D03*
X452500D02*
D03*
Y99772D02*
D03*
X515000Y96228D02*
D03*
Y99772D02*
D03*
X99500Y96228D02*
D03*
Y99772D02*
D03*
X162000D02*
D03*
Y96228D02*
D03*
X224500Y99772D02*
D03*
Y96228D02*
D03*
X287000Y99772D02*
D03*
Y96228D02*
D03*
X349500Y99772D02*
D03*
Y96228D02*
D03*
X412000Y99772D02*
D03*
Y96228D02*
D03*
X474500D02*
D03*
Y99772D02*
D03*
X537000Y96228D02*
D03*
Y99772D02*
D03*
X99500Y103728D02*
D03*
Y107272D02*
D03*
X162000D02*
D03*
Y103728D02*
D03*
X224500Y107272D02*
D03*
Y103728D02*
D03*
X287000Y107272D02*
D03*
Y103728D02*
D03*
X349500Y107272D02*
D03*
Y103728D02*
D03*
X412000Y107272D02*
D03*
Y103728D02*
D03*
X474500D02*
D03*
Y107272D02*
D03*
X537000Y103728D02*
D03*
Y107272D02*
D03*
X77500Y103728D02*
D03*
Y107272D02*
D03*
X140000D02*
D03*
Y103728D02*
D03*
X202500Y107272D02*
D03*
Y103728D02*
D03*
X265000Y107272D02*
D03*
Y103728D02*
D03*
X327500Y107272D02*
D03*
Y103728D02*
D03*
X390000Y107272D02*
D03*
Y103728D02*
D03*
X452500D02*
D03*
Y107272D02*
D03*
X515000Y103728D02*
D03*
Y107272D02*
D03*
X795500Y82319D02*
D03*
Y78776D02*
D03*
X698000Y82319D02*
D03*
Y78776D02*
D03*
X776000Y82319D02*
D03*
Y78776D02*
D03*
X678500Y82319D02*
D03*
Y78776D02*
D03*
X756500Y82319D02*
D03*
Y78776D02*
D03*
X659000Y82319D02*
D03*
Y78776D02*
D03*
X737000Y82319D02*
D03*
Y78776D02*
D03*
X815000Y82319D02*
D03*
Y78776D02*
D03*
X717500Y82319D02*
D03*
Y78776D02*
D03*
X875500Y476728D02*
D03*
Y480272D02*
D03*
X879500Y476728D02*
D03*
Y480272D02*
D03*
X883500Y476728D02*
D03*
Y480272D02*
D03*
X887500Y476728D02*
D03*
Y480272D02*
D03*
X891500Y476728D02*
D03*
Y480272D02*
D03*
X949000Y476728D02*
D03*
Y480272D02*
D03*
X953000Y476728D02*
D03*
Y480272D02*
D03*
X957000Y476728D02*
D03*
Y480272D02*
D03*
X961000Y476728D02*
D03*
Y480272D02*
D03*
X965000Y476728D02*
D03*
Y480272D02*
D03*
D58*
X497449Y549000D02*
D03*
X503551D02*
D03*
D59*
X812673Y643000D02*
D03*
X809327D02*
D03*
X1112327Y633500D02*
D03*
X1115673D02*
D03*
X1088327Y622000D02*
D03*
X1091673D02*
D03*
X1088327Y538000D02*
D03*
X1091673D02*
D03*
X649673Y354000D02*
D03*
X646327D02*
D03*
X649673Y349000D02*
D03*
X646327D02*
D03*
X649673Y344000D02*
D03*
X646327D02*
D03*
X649673Y339000D02*
D03*
X646327D02*
D03*
X649673Y334000D02*
D03*
X646327D02*
D03*
X649673Y329000D02*
D03*
X646327D02*
D03*
X649673Y319000D02*
D03*
X646327D02*
D03*
X649673Y314000D02*
D03*
X646327D02*
D03*
Y324000D02*
D03*
X649673D02*
D03*
X285673Y239126D02*
D03*
X282327D02*
D03*
X267327Y369500D02*
D03*
X270673D02*
D03*
X267327Y374000D02*
D03*
X270673D02*
D03*
X267327Y378500D02*
D03*
X270673D02*
D03*
X267327Y383000D02*
D03*
X270673D02*
D03*
X221173Y385500D02*
D03*
X217827D02*
D03*
Y381000D02*
D03*
X221173D02*
D03*
X217827Y376500D02*
D03*
X221173D02*
D03*
X217827Y372000D02*
D03*
X221173D02*
D03*
X812673Y635500D02*
D03*
X809327D02*
D03*
D60*
X478854Y641500D02*
D03*
X473146D02*
D03*
X467854D02*
D03*
X462146D02*
D03*
D61*
X1090000Y34000D02*
D03*
X1088327D02*
D03*
D62*
X166886Y598839D02*
D03*
Y596279D02*
D03*
Y593720D02*
D03*
Y591161D02*
D03*
X190114Y598839D02*
D03*
Y596279D02*
D03*
Y593720D02*
D03*
Y591161D02*
D03*
X92386Y598839D02*
D03*
Y596279D02*
D03*
Y593720D02*
D03*
Y591161D02*
D03*
X115614Y598839D02*
D03*
Y596279D02*
D03*
Y593720D02*
D03*
Y591161D02*
D03*
D63*
X862933Y671496D02*
D03*
Y704173D02*
D03*
X917067D02*
D03*
Y671496D02*
D03*
D64*
X902618Y681732D02*
D03*
X898287D02*
D03*
X893957D02*
D03*
X889626D02*
D03*
X885295D02*
D03*
X880965D02*
D03*
X876634D02*
D03*
X872303D02*
D03*
D65*
X971982Y600118D02*
D03*
Y602087D02*
D03*
Y604055D02*
D03*
Y606024D02*
D03*
X965978D02*
D03*
Y604055D02*
D03*
Y602087D02*
D03*
Y600118D02*
D03*
D66*
X969965Y606073D02*
D03*
X967997D02*
D03*
Y600069D02*
D03*
X969965D02*
D03*
D67*
X970980Y626598D02*
D03*
Y617543D02*
D03*
D68*
X523941Y37150D02*
D03*
X526500D02*
D03*
X529059D02*
D03*
Y30850D02*
D03*
X526500D02*
D03*
X523941D02*
D03*
X86441D02*
D03*
X89000D02*
D03*
X91559D02*
D03*
Y37150D02*
D03*
X89000D02*
D03*
X86441D02*
D03*
X148941D02*
D03*
X151500D02*
D03*
X154059D02*
D03*
Y30850D02*
D03*
X151500D02*
D03*
X148941D02*
D03*
X211441Y37150D02*
D03*
X214000D02*
D03*
X216559D02*
D03*
Y30850D02*
D03*
X214000D02*
D03*
X211441D02*
D03*
X273941Y37150D02*
D03*
X276500D02*
D03*
X279059D02*
D03*
Y30850D02*
D03*
X276500D02*
D03*
X273941D02*
D03*
X336441Y37150D02*
D03*
X339000D02*
D03*
X341559D02*
D03*
Y30850D02*
D03*
X339000D02*
D03*
X336441D02*
D03*
X398941Y37150D02*
D03*
X401500D02*
D03*
X404059D02*
D03*
Y30850D02*
D03*
X401500D02*
D03*
X398941D02*
D03*
X461441D02*
D03*
X464000D02*
D03*
X466559D02*
D03*
Y37150D02*
D03*
X464000D02*
D03*
X461441D02*
D03*
D69*
X950095Y514016D02*
D03*
Y512048D02*
D03*
Y510079D02*
D03*
Y508111D02*
D03*
Y506143D02*
D03*
Y504174D02*
D03*
X964268D02*
D03*
Y506143D02*
D03*
Y508111D02*
D03*
Y510079D02*
D03*
Y512048D02*
D03*
Y514016D02*
D03*
X876595D02*
D03*
Y512048D02*
D03*
Y510079D02*
D03*
Y508111D02*
D03*
Y506143D02*
D03*
Y504174D02*
D03*
X890768D02*
D03*
Y506143D02*
D03*
Y508111D02*
D03*
Y510079D02*
D03*
Y512048D02*
D03*
Y514016D02*
D03*
D70*
X952260Y502009D02*
D03*
X954229D02*
D03*
X956197D02*
D03*
X958166D02*
D03*
X960134D02*
D03*
X962103D02*
D03*
Y516182D02*
D03*
X960134D02*
D03*
X958166D02*
D03*
X956197D02*
D03*
X954229D02*
D03*
X952260D02*
D03*
X947819Y599071D02*
D03*
X945260D02*
D03*
X942701D02*
D03*
X940142D02*
D03*
Y607071D02*
D03*
X942701D02*
D03*
X945260D02*
D03*
X947819D02*
D03*
X878760Y502009D02*
D03*
X880729D02*
D03*
X882697D02*
D03*
X884666D02*
D03*
X886634D02*
D03*
X888603D02*
D03*
Y516182D02*
D03*
X886634D02*
D03*
X884666D02*
D03*
X882697D02*
D03*
X880729D02*
D03*
X878760D02*
D03*
D71*
X723622Y380512D02*
D03*
X721654D02*
D03*
X719685D02*
D03*
X717717D02*
D03*
X715748D02*
D03*
X713779D02*
D03*
X711811D02*
D03*
X709842D02*
D03*
X707874D02*
D03*
X705905D02*
D03*
X703937D02*
D03*
X701968D02*
D03*
X700000D02*
D03*
X698032D02*
D03*
X696063D02*
D03*
X694095D02*
D03*
X692126D02*
D03*
X690158D02*
D03*
X688189D02*
D03*
X686221D02*
D03*
X684252D02*
D03*
X682283D02*
D03*
X680315D02*
D03*
X678346D02*
D03*
X676378D02*
D03*
Y319488D02*
D03*
X678346D02*
D03*
X680315D02*
D03*
X682283D02*
D03*
X684252D02*
D03*
X686221D02*
D03*
X688189D02*
D03*
X690158D02*
D03*
X692126D02*
D03*
X694095D02*
D03*
X696063D02*
D03*
X698032D02*
D03*
X700000D02*
D03*
X701968D02*
D03*
X703937D02*
D03*
X705905D02*
D03*
X707874D02*
D03*
X709842D02*
D03*
X711811D02*
D03*
X713779D02*
D03*
X715748D02*
D03*
X717717D02*
D03*
X719685D02*
D03*
X721654D02*
D03*
X723622D02*
D03*
D72*
X669488Y373622D02*
D03*
Y371654D02*
D03*
Y369685D02*
D03*
Y367717D02*
D03*
Y365748D02*
D03*
Y363779D02*
D03*
Y361811D02*
D03*
Y359842D02*
D03*
Y357874D02*
D03*
Y355906D02*
D03*
Y353937D02*
D03*
Y351969D02*
D03*
Y350000D02*
D03*
Y348031D02*
D03*
Y346063D02*
D03*
Y344094D02*
D03*
Y342126D02*
D03*
Y340158D02*
D03*
Y338189D02*
D03*
Y336221D02*
D03*
Y334252D02*
D03*
Y332283D02*
D03*
Y330315D02*
D03*
Y328346D02*
D03*
Y326378D02*
D03*
X730512D02*
D03*
Y328346D02*
D03*
Y330315D02*
D03*
Y332283D02*
D03*
Y334252D02*
D03*
Y336221D02*
D03*
Y338189D02*
D03*
Y340158D02*
D03*
Y342126D02*
D03*
Y344094D02*
D03*
Y346063D02*
D03*
Y348031D02*
D03*
Y350000D02*
D03*
Y351969D02*
D03*
Y353937D02*
D03*
Y355906D02*
D03*
Y357874D02*
D03*
Y359842D02*
D03*
Y361811D02*
D03*
Y363779D02*
D03*
Y365748D02*
D03*
Y367717D02*
D03*
Y369685D02*
D03*
Y371654D02*
D03*
Y373622D02*
D03*
D73*
X810000Y720000D02*
D03*
Y712126D02*
D03*
Y704252D02*
D03*
Y696378D02*
D03*
Y688504D02*
D03*
Y680630D02*
D03*
Y672756D02*
D03*
X826772D02*
D03*
Y680630D02*
D03*
Y688504D02*
D03*
Y696378D02*
D03*
Y704252D02*
D03*
Y712126D02*
D03*
Y720000D02*
D03*
D74*
X351500Y269143D02*
D03*
Y274857D02*
D03*
D75*
X1192067Y456201D02*
D03*
X1187933D02*
D03*
D76*
X219331Y632701D02*
D03*
X223268D02*
D03*
X159832D02*
D03*
X163768D02*
D03*
D77*
X281500Y255650D02*
D03*
Y252500D02*
D03*
D78*
X358709Y269142D02*
D03*
X362291D02*
D03*
X947791Y690000D02*
D03*
X944209D02*
D03*
X726291Y60797D02*
D03*
X722709D02*
D03*
X441791Y428250D02*
D03*
X438209D02*
D03*
Y418750D02*
D03*
X441791D02*
D03*
X804291Y51297D02*
D03*
X800709D02*
D03*
X804291Y60797D02*
D03*
X800709D02*
D03*
X706791Y51297D02*
D03*
X703209D02*
D03*
X706791Y60797D02*
D03*
X703209D02*
D03*
X784791Y51297D02*
D03*
X781209D02*
D03*
X784791Y60797D02*
D03*
X781209D02*
D03*
X687291Y51297D02*
D03*
X683709D02*
D03*
X687291Y60797D02*
D03*
X683709D02*
D03*
X765291Y51297D02*
D03*
X761709D02*
D03*
X765291Y60797D02*
D03*
X761709D02*
D03*
X667791Y51297D02*
D03*
X664209D02*
D03*
X667791Y60797D02*
D03*
X664209D02*
D03*
X745791Y51297D02*
D03*
X742209D02*
D03*
X745791Y60797D02*
D03*
X742209D02*
D03*
X823791Y51297D02*
D03*
X820209D02*
D03*
X823791Y60797D02*
D03*
X820209D02*
D03*
X726291Y51297D02*
D03*
X722709D02*
D03*
X954272Y617571D02*
D03*
X950689D02*
D03*
X498209Y539500D02*
D03*
X501791D02*
D03*
X959398Y617571D02*
D03*
X962980D02*
D03*
D79*
X299276Y232827D02*
D03*
Y234402D02*
D03*
Y235976D02*
D03*
Y237551D02*
D03*
Y239126D02*
D03*
Y240701D02*
D03*
Y242276D02*
D03*
Y243850D02*
D03*
Y245425D02*
D03*
Y247000D02*
D03*
Y248575D02*
D03*
Y250150D02*
D03*
Y251724D02*
D03*
Y253299D02*
D03*
Y254874D02*
D03*
Y256449D02*
D03*
Y258024D02*
D03*
Y259598D02*
D03*
Y261173D02*
D03*
X333724D02*
D03*
Y259598D02*
D03*
Y258024D02*
D03*
Y256449D02*
D03*
Y254874D02*
D03*
Y253299D02*
D03*
Y251724D02*
D03*
Y250150D02*
D03*
Y248575D02*
D03*
Y247000D02*
D03*
Y245425D02*
D03*
Y243850D02*
D03*
Y242276D02*
D03*
Y240701D02*
D03*
Y239126D02*
D03*
Y237551D02*
D03*
Y235976D02*
D03*
Y234402D02*
D03*
Y232827D02*
D03*
D80*
X302327Y264224D02*
D03*
X303902D02*
D03*
X305476D02*
D03*
X307051D02*
D03*
X308626D02*
D03*
X310201D02*
D03*
X311776D02*
D03*
X313350D02*
D03*
X314925D02*
D03*
X316500D02*
D03*
X318075D02*
D03*
X319650D02*
D03*
X321224D02*
D03*
X322799D02*
D03*
X324374D02*
D03*
X325949D02*
D03*
X327524D02*
D03*
X329098D02*
D03*
X330673D02*
D03*
Y229776D02*
D03*
X329098D02*
D03*
X327524D02*
D03*
X325949D02*
D03*
X324374D02*
D03*
X322799D02*
D03*
X321224D02*
D03*
X319650D02*
D03*
X318075D02*
D03*
X316500D02*
D03*
X314925D02*
D03*
X313350D02*
D03*
X311776D02*
D03*
X310201D02*
D03*
X308626D02*
D03*
X307051D02*
D03*
X305476D02*
D03*
X303902D02*
D03*
X302327D02*
D03*
D81*
X1078760Y653128D02*
D03*
Y655096D02*
D03*
Y657065D02*
D03*
Y659033D02*
D03*
Y661002D02*
D03*
X1061240Y653128D02*
D03*
Y655096D02*
D03*
Y657065D02*
D03*
Y659033D02*
D03*
Y661002D02*
D03*
D82*
X753150Y672244D02*
D03*
X496850D02*
D03*
D83*
X750176Y641150D02*
D03*
X748995Y608850D02*
D03*
X747814Y641150D02*
D03*
X746633Y608850D02*
D03*
X745452Y641150D02*
D03*
X744271Y608850D02*
D03*
X743090Y641150D02*
D03*
X741909Y608850D02*
D03*
X740728Y641150D02*
D03*
X739547Y608850D02*
D03*
X738366Y641150D02*
D03*
X737185Y608850D02*
D03*
X736004Y641150D02*
D03*
X734823Y608850D02*
D03*
X733642Y641150D02*
D03*
X732461Y608850D02*
D03*
X731280Y641150D02*
D03*
X730099Y608850D02*
D03*
X728918Y641150D02*
D03*
X727737Y608850D02*
D03*
X726556Y641150D02*
D03*
X725375Y608850D02*
D03*
X724194Y641150D02*
D03*
X723013Y608850D02*
D03*
X721832Y641150D02*
D03*
X720651Y608850D02*
D03*
X719470Y641150D02*
D03*
X718289Y608850D02*
D03*
X717108Y641150D02*
D03*
X715927Y608850D02*
D03*
X714746Y641150D02*
D03*
X713565Y608850D02*
D03*
X712384Y641150D02*
D03*
X711203Y608850D02*
D03*
X710022Y641150D02*
D03*
X708841Y608850D02*
D03*
X707660Y641150D02*
D03*
X706479Y608850D02*
D03*
X705298Y641150D02*
D03*
X704117Y608850D02*
D03*
X702936Y641150D02*
D03*
X701755Y608850D02*
D03*
X700574Y641150D02*
D03*
X699393Y608850D02*
D03*
X698212Y641150D02*
D03*
X697031Y608850D02*
D03*
X695850Y641150D02*
D03*
X694669Y608850D02*
D03*
X693488Y641150D02*
D03*
X692307Y608850D02*
D03*
X691126Y641150D02*
D03*
X689945Y608850D02*
D03*
X688764Y641150D02*
D03*
X687583Y608850D02*
D03*
X686402Y641150D02*
D03*
X685221Y608850D02*
D03*
X684040Y641150D02*
D03*
X682859Y608850D02*
D03*
X681678Y641150D02*
D03*
X680497Y608850D02*
D03*
X679316Y641150D02*
D03*
X678135Y608850D02*
D03*
X676954Y641150D02*
D03*
X675773Y608850D02*
D03*
X674592Y641150D02*
D03*
X673411Y608850D02*
D03*
X672230Y641150D02*
D03*
X671049Y608850D02*
D03*
X669868Y641150D02*
D03*
X668687Y608850D02*
D03*
X667506Y641150D02*
D03*
X666325Y608850D02*
D03*
X665144Y641150D02*
D03*
X663963Y608850D02*
D03*
X662782Y641150D02*
D03*
X661601Y608850D02*
D03*
X660420Y641150D02*
D03*
X659239Y608850D02*
D03*
X658058Y641150D02*
D03*
X656877Y608850D02*
D03*
X655696Y641150D02*
D03*
X654515Y608850D02*
D03*
X653334Y641150D02*
D03*
X652153Y608850D02*
D03*
X650972Y641150D02*
D03*
X649791Y608850D02*
D03*
X648610Y641150D02*
D03*
X647429Y608850D02*
D03*
X646248Y641150D02*
D03*
X645067Y608850D02*
D03*
X643886Y641150D02*
D03*
X642705Y608850D02*
D03*
X641524Y641150D02*
D03*
X640343Y608850D02*
D03*
X639162Y641150D02*
D03*
X637981Y608850D02*
D03*
X636800Y641150D02*
D03*
X635619Y608850D02*
D03*
X634438Y641150D02*
D03*
X633257Y608850D02*
D03*
X632076Y641150D02*
D03*
X630895Y608850D02*
D03*
X629714Y641150D02*
D03*
X628533Y608850D02*
D03*
X627352Y641150D02*
D03*
X626171Y608850D02*
D03*
X624990Y641150D02*
D03*
X623809Y608850D02*
D03*
X622628Y641150D02*
D03*
X621447Y608850D02*
D03*
X620266Y641150D02*
D03*
X617904D02*
D03*
X616723Y608850D02*
D03*
X615542Y641150D02*
D03*
X614361Y608850D02*
D03*
X613180Y641150D02*
D03*
X611999Y608850D02*
D03*
X610818Y641150D02*
D03*
X609637Y608850D02*
D03*
X608456Y641150D02*
D03*
X607275Y608850D02*
D03*
X606094Y641150D02*
D03*
X604913Y608850D02*
D03*
X603732Y641150D02*
D03*
X602551Y608850D02*
D03*
X601370Y641150D02*
D03*
X600189Y608850D02*
D03*
X599008Y641150D02*
D03*
X597827Y608850D02*
D03*
X596646Y641150D02*
D03*
X595465Y608850D02*
D03*
X594284Y641150D02*
D03*
X593103Y608850D02*
D03*
X591922Y641150D02*
D03*
X590741Y608850D02*
D03*
X589560Y641150D02*
D03*
X588379Y608850D02*
D03*
X587198Y641150D02*
D03*
X586017Y608850D02*
D03*
X584836Y641150D02*
D03*
X583655Y608850D02*
D03*
X582474Y641150D02*
D03*
X581293Y608850D02*
D03*
X580112Y641150D02*
D03*
X578931Y608850D02*
D03*
X577750Y641150D02*
D03*
X576569Y608850D02*
D03*
X575388Y641150D02*
D03*
X574207Y608850D02*
D03*
X573026Y641150D02*
D03*
X571845Y608850D02*
D03*
X570664Y641150D02*
D03*
X569483Y608850D02*
D03*
X568302Y641150D02*
D03*
X567121Y608850D02*
D03*
X565940Y641150D02*
D03*
X564759Y608850D02*
D03*
X563578Y641150D02*
D03*
X562397Y608850D02*
D03*
X547043Y641150D02*
D03*
X545862Y608850D02*
D03*
X544681Y641150D02*
D03*
X543500Y608850D02*
D03*
X542319Y641150D02*
D03*
X541138Y608850D02*
D03*
X539957Y641150D02*
D03*
X538776Y608850D02*
D03*
X537595Y641150D02*
D03*
X536414Y608850D02*
D03*
X535233Y641150D02*
D03*
X534052Y608850D02*
D03*
X532871Y641150D02*
D03*
X531690Y608850D02*
D03*
X530509Y641150D02*
D03*
X529328Y608850D02*
D03*
X528147Y641150D02*
D03*
X526966Y608850D02*
D03*
X525785Y641150D02*
D03*
X524604Y608850D02*
D03*
X523423Y641150D02*
D03*
X522242Y608850D02*
D03*
X521061Y641150D02*
D03*
X519880Y608850D02*
D03*
X518699Y641150D02*
D03*
X517518Y608850D02*
D03*
X516337Y641150D02*
D03*
X515156Y608850D02*
D03*
X513975Y641150D02*
D03*
X512794Y608850D02*
D03*
X511613Y641150D02*
D03*
X510432Y608850D02*
D03*
X509251Y641150D02*
D03*
X508070Y608850D02*
D03*
X506889Y641150D02*
D03*
X505708Y608850D02*
D03*
X504527Y641150D02*
D03*
X503346Y608850D02*
D03*
X502165Y641150D02*
D03*
X500984Y608850D02*
D03*
X619085D02*
D03*
D84*
X1187020Y173740D02*
D03*
Y166260D02*
D03*
X1176980D02*
D03*
Y170000D02*
D03*
Y173740D02*
D03*
X792020Y635760D02*
D03*
Y639500D02*
D03*
Y643240D02*
D03*
X781980D02*
D03*
Y635760D02*
D03*
X1187020Y98740D02*
D03*
Y91260D02*
D03*
X1176980D02*
D03*
Y95000D02*
D03*
Y98740D02*
D03*
D85*
X535000Y73793D02*
D03*
X532441D02*
D03*
X529882D02*
D03*
X527323D02*
D03*
Y59207D02*
D03*
X529882D02*
D03*
X532441D02*
D03*
X535000D02*
D03*
X451661Y198207D02*
D03*
X454220D02*
D03*
X456779D02*
D03*
X459339D02*
D03*
Y212793D02*
D03*
X456779D02*
D03*
X454220D02*
D03*
X451661D02*
D03*
X97500Y73793D02*
D03*
X94941D02*
D03*
X92382D02*
D03*
X89823D02*
D03*
Y59207D02*
D03*
X92382D02*
D03*
X94941D02*
D03*
X97500D02*
D03*
X160000D02*
D03*
X157441D02*
D03*
X154882D02*
D03*
X152323D02*
D03*
Y73793D02*
D03*
X154882D02*
D03*
X157441D02*
D03*
X160000D02*
D03*
X222500Y59207D02*
D03*
X219941D02*
D03*
X217382D02*
D03*
X214823D02*
D03*
Y73793D02*
D03*
X217382D02*
D03*
X219941D02*
D03*
X222500D02*
D03*
X285000Y59207D02*
D03*
X282441D02*
D03*
X279882D02*
D03*
X277323D02*
D03*
Y73793D02*
D03*
X279882D02*
D03*
X282441D02*
D03*
X285000D02*
D03*
X347500Y59207D02*
D03*
X344941D02*
D03*
X342382D02*
D03*
X339823D02*
D03*
Y73793D02*
D03*
X342382D02*
D03*
X344941D02*
D03*
X347500D02*
D03*
X410000Y59207D02*
D03*
X407441D02*
D03*
X404882D02*
D03*
X402323D02*
D03*
Y73793D02*
D03*
X404882D02*
D03*
X407441D02*
D03*
X410000D02*
D03*
X472500D02*
D03*
X469941D02*
D03*
X467382D02*
D03*
X464823D02*
D03*
Y59207D02*
D03*
X467382D02*
D03*
X469941D02*
D03*
X472500D02*
D03*
D86*
X523869Y70339D02*
D03*
Y67779D02*
D03*
Y65220D02*
D03*
Y62661D02*
D03*
X538454D02*
D03*
Y65220D02*
D03*
Y67779D02*
D03*
Y70339D02*
D03*
X448207Y209339D02*
D03*
Y206780D02*
D03*
Y204221D02*
D03*
Y201661D02*
D03*
X462793D02*
D03*
Y204221D02*
D03*
Y206780D02*
D03*
Y209339D02*
D03*
X86369Y70339D02*
D03*
Y67779D02*
D03*
Y65220D02*
D03*
Y62661D02*
D03*
X100954D02*
D03*
Y65220D02*
D03*
Y67779D02*
D03*
Y70339D02*
D03*
X163454D02*
D03*
Y67779D02*
D03*
Y65220D02*
D03*
Y62661D02*
D03*
X148869D02*
D03*
Y65220D02*
D03*
Y67779D02*
D03*
Y70339D02*
D03*
X225954D02*
D03*
Y67779D02*
D03*
Y65220D02*
D03*
Y62661D02*
D03*
X211368D02*
D03*
Y65220D02*
D03*
Y67779D02*
D03*
Y70339D02*
D03*
X288454D02*
D03*
Y67779D02*
D03*
Y65220D02*
D03*
Y62661D02*
D03*
X273868D02*
D03*
Y65220D02*
D03*
Y67779D02*
D03*
Y70339D02*
D03*
X350954D02*
D03*
Y67779D02*
D03*
Y65220D02*
D03*
Y62661D02*
D03*
X336368D02*
D03*
Y65220D02*
D03*
Y67779D02*
D03*
Y70339D02*
D03*
X413454D02*
D03*
Y67779D02*
D03*
Y65220D02*
D03*
Y62661D02*
D03*
X398868D02*
D03*
Y65220D02*
D03*
Y67779D02*
D03*
Y70339D02*
D03*
X461369D02*
D03*
Y67779D02*
D03*
Y65220D02*
D03*
Y62661D02*
D03*
X475954D02*
D03*
Y65220D02*
D03*
Y67779D02*
D03*
Y70339D02*
D03*
D87*
X1014657Y51870D02*
D03*
Y45413D02*
D03*
D88*
X939000Y697256D02*
D03*
Y691744D02*
D03*
X433500Y637429D02*
D03*
Y631917D02*
D03*
X505150Y453756D02*
D03*
Y448244D02*
D03*
X1117000Y593944D02*
D03*
Y599456D02*
D03*
X1117000Y550444D02*
D03*
Y555956D02*
D03*
X1107000Y644756D02*
D03*
Y639244D02*
D03*
X1125000Y641744D02*
D03*
Y647256D02*
D03*
X789500Y724256D02*
D03*
Y718744D02*
D03*
X776500Y724256D02*
D03*
Y718744D02*
D03*
X796000Y724256D02*
D03*
Y718744D02*
D03*
X783000Y724256D02*
D03*
Y718744D02*
D03*
X952000Y664756D02*
D03*
Y659244D02*
D03*
Y676756D02*
D03*
Y671244D02*
D03*
D89*
X722492Y67319D02*
D03*
X726508D02*
D03*
X442008Y434772D02*
D03*
X437992D02*
D03*
X442008Y412228D02*
D03*
X437992D02*
D03*
X800492Y44776D02*
D03*
X804508D02*
D03*
X800492Y67319D02*
D03*
X804508D02*
D03*
X702992Y44776D02*
D03*
X707008D02*
D03*
X702992Y67319D02*
D03*
X707008D02*
D03*
X780992Y44776D02*
D03*
X785008D02*
D03*
X780992Y67319D02*
D03*
X785008D02*
D03*
X683492Y44776D02*
D03*
X687508D02*
D03*
X683492Y67319D02*
D03*
X687508D02*
D03*
X761492Y44776D02*
D03*
X765508D02*
D03*
X761492Y67319D02*
D03*
X765508D02*
D03*
X663992Y44776D02*
D03*
X668008D02*
D03*
X663992Y67319D02*
D03*
X668008D02*
D03*
X741992Y44776D02*
D03*
X746008D02*
D03*
X741992Y67319D02*
D03*
X746008D02*
D03*
X819992Y44776D02*
D03*
X824008D02*
D03*
X819992Y67319D02*
D03*
X824008D02*
D03*
X722492Y44776D02*
D03*
X726508D02*
D03*
D90*
X537000Y114335D02*
D03*
Y118665D02*
D03*
X470500Y197335D02*
D03*
Y201665D02*
D03*
X97500Y44835D02*
D03*
Y49165D02*
D03*
X160000D02*
D03*
Y44835D02*
D03*
X222500Y49165D02*
D03*
Y44835D02*
D03*
X285000Y49165D02*
D03*
Y44835D02*
D03*
X347500Y49165D02*
D03*
Y44835D02*
D03*
X410000Y49165D02*
D03*
Y44835D02*
D03*
X472500D02*
D03*
Y49165D02*
D03*
X535000Y44835D02*
D03*
Y49165D02*
D03*
X92500Y80835D02*
D03*
Y85165D02*
D03*
X155000D02*
D03*
Y80835D02*
D03*
X217500Y85165D02*
D03*
Y80835D02*
D03*
X280000D02*
D03*
Y85165D02*
D03*
X342500D02*
D03*
Y80835D02*
D03*
X405000Y85165D02*
D03*
Y80835D02*
D03*
X467500D02*
D03*
Y85165D02*
D03*
X530000Y80835D02*
D03*
Y85165D02*
D03*
X77500Y114335D02*
D03*
Y118665D02*
D03*
X140000D02*
D03*
Y114335D02*
D03*
X202500Y118665D02*
D03*
Y114335D02*
D03*
X265000Y118665D02*
D03*
Y114335D02*
D03*
X327500Y118665D02*
D03*
Y114335D02*
D03*
X390000Y118665D02*
D03*
Y114335D02*
D03*
X452500D02*
D03*
Y118665D02*
D03*
X515000Y114335D02*
D03*
Y118665D02*
D03*
X99500Y114335D02*
D03*
Y118665D02*
D03*
X162000D02*
D03*
Y114335D02*
D03*
X224500Y118665D02*
D03*
Y114335D02*
D03*
X287000Y118665D02*
D03*
Y114335D02*
D03*
X349500Y118665D02*
D03*
Y114335D02*
D03*
X412000Y118665D02*
D03*
Y114335D02*
D03*
X474500D02*
D03*
Y118665D02*
D03*
D91*
X473000Y529732D02*
D03*
Y526268D02*
D03*
X474000Y519732D02*
D03*
Y516268D02*
D03*
X478984Y519732D02*
D03*
Y516268D02*
D03*
X491657Y530268D02*
D03*
Y533732D02*
D03*
X1130000Y641768D02*
D03*
Y645232D02*
D03*
X657500Y364732D02*
D03*
Y361268D02*
D03*
X747500Y342732D02*
D03*
Y339268D02*
D03*
X742500Y342732D02*
D03*
Y339268D02*
D03*
X737500Y342732D02*
D03*
Y339268D02*
D03*
X353000Y254482D02*
D03*
Y251018D02*
D03*
X358000Y254482D02*
D03*
Y251018D02*
D03*
X329500Y272268D02*
D03*
Y275732D02*
D03*
X324500Y272268D02*
D03*
Y275732D02*
D03*
X234500Y350768D02*
D03*
Y354232D02*
D03*
X229500Y346768D02*
D03*
Y350232D02*
D03*
X402500Y206732D02*
D03*
Y203268D02*
D03*
Y194268D02*
D03*
Y197732D02*
D03*
X896000Y611268D02*
D03*
Y614732D02*
D03*
X934000Y691768D02*
D03*
Y695232D02*
D03*
X929000Y691768D02*
D03*
Y695232D02*
D03*
X924000Y691768D02*
D03*
Y695232D02*
D03*
X995158Y46374D02*
D03*
Y42909D02*
D03*
D92*
X198000Y598839D02*
D03*
Y604744D02*
D03*
X123500Y596279D02*
D03*
Y602185D02*
D03*
D93*
X963909Y28980D02*
D03*
Y32980D02*
D03*
X940370Y28980D02*
D03*
Y32980D02*
D03*
X948217Y28980D02*
D03*
Y32980D02*
D03*
X956063Y28980D02*
D03*
Y32980D02*
D03*
D94*
X505740Y434626D02*
D03*
X498260D02*
D03*
X502000Y425374D02*
D03*
D95*
X940375Y659260D02*
D03*
Y663000D02*
D03*
X929625Y666740D02*
D03*
Y663000D02*
D03*
Y659260D02*
D03*
X940375Y666740D02*
D03*
D96*
X1205370Y464075D02*
D03*
Y462106D02*
D03*
Y460138D02*
D03*
Y458169D02*
D03*
Y456201D02*
D03*
Y435925D02*
D03*
Y437894D02*
D03*
Y439862D02*
D03*
Y441831D02*
D03*
Y443799D02*
D03*
D97*
X878000Y579248D02*
D03*
Y572752D02*
D03*
X133500Y602776D02*
D03*
Y596279D02*
D03*
X208000Y605335D02*
D03*
Y598839D02*
D03*
X478984Y530657D02*
D03*
Y525343D02*
D03*
D98*
X166000Y652032D02*
D03*
Y647307D02*
D03*
X225500Y652032D02*
D03*
Y647307D02*
D03*
X489500Y556138D02*
D03*
Y560862D02*
D03*
X511500D02*
D03*
Y556138D02*
D03*
X932500Y673638D02*
D03*
Y678362D02*
D03*
D99*
X149721Y651532D02*
D03*
Y655469D02*
D03*
X209221Y651532D02*
D03*
Y655469D02*
D03*
X140761Y631756D02*
D03*
Y635693D02*
D03*
X200260D02*
D03*
Y631756D02*
D03*
D100*
X179154Y608000D02*
D03*
X185846D02*
D03*
X1204846Y635000D02*
D03*
X1198153D02*
D03*
D101*
X533744Y510000D02*
D03*
X539256D02*
D03*
X533744Y515500D02*
D03*
X539256D02*
D03*
D102*
X511268Y503547D02*
D03*
X514732D02*
D03*
X511268Y499138D02*
D03*
X514732D02*
D03*
X1186268Y625000D02*
D03*
X1189732D02*
D03*
X1171268D02*
D03*
X1174732D02*
D03*
X1156268D02*
D03*
X1159732D02*
D03*
X1141268D02*
D03*
X1144732D02*
D03*
X360807Y244291D02*
D03*
X357343D02*
D03*
X258732Y337000D02*
D03*
X255268D02*
D03*
X246268D02*
D03*
X249732D02*
D03*
X254232Y332000D02*
D03*
X250768D02*
D03*
X229488Y358465D02*
D03*
X226024D02*
D03*
X243232Y354500D02*
D03*
X239768D02*
D03*
X243232Y349500D02*
D03*
X239768D02*
D03*
X452232Y221000D02*
D03*
X448768D02*
D03*
X452232Y226500D02*
D03*
X448768D02*
D03*
X82768Y117500D02*
D03*
X86232D02*
D03*
X148732D02*
D03*
X145268D02*
D03*
X211232D02*
D03*
X207768D02*
D03*
X273732D02*
D03*
X270268D02*
D03*
X336232D02*
D03*
X332768D02*
D03*
X398732D02*
D03*
X395268D02*
D03*
X457768D02*
D03*
X461232D02*
D03*
X520268D02*
D03*
X523732D02*
D03*
X94232D02*
D03*
X90768D02*
D03*
X153268D02*
D03*
X156732D02*
D03*
X215768D02*
D03*
X219232D02*
D03*
X278268D02*
D03*
X281732D02*
D03*
X340768D02*
D03*
X344232D02*
D03*
X403268D02*
D03*
X406732D02*
D03*
X469232D02*
D03*
X465768D02*
D03*
X531732D02*
D03*
X528268D02*
D03*
X943213Y611071D02*
D03*
X939748D02*
D03*
X979213Y606024D02*
D03*
X975748D02*
D03*
X504268Y527500D02*
D03*
X507732D02*
D03*
X974213Y610071D02*
D03*
X970748D02*
D03*
X878268Y593000D02*
D03*
X881732D02*
D03*
D103*
X650500Y366846D02*
D03*
Y360154D02*
D03*
X365000Y257596D02*
D03*
Y250904D02*
D03*
D104*
X243764Y344000D02*
D03*
X239236D02*
D03*
D105*
X449646Y233500D02*
D03*
X455354D02*
D03*
X449646Y241000D02*
D03*
X455354D02*
D03*
D106*
X438335Y189500D02*
D03*
X442665D02*
D03*
X473665Y209339D02*
D03*
X469335D02*
D03*
X435835Y204221D02*
D03*
X440165D02*
D03*
X406665Y189500D02*
D03*
X402335D02*
D03*
X406665Y211500D02*
D03*
X402335D02*
D03*
X73165Y88500D02*
D03*
X68835D02*
D03*
X131335D02*
D03*
X135665D02*
D03*
X193835D02*
D03*
X198165D02*
D03*
X256335D02*
D03*
X260665D02*
D03*
X318835D02*
D03*
X323165D02*
D03*
X381335D02*
D03*
X385665D02*
D03*
X448165D02*
D03*
X443835D02*
D03*
X510665D02*
D03*
X506335D02*
D03*
X85335Y53000D02*
D03*
X89665D02*
D03*
X152165D02*
D03*
X147835D02*
D03*
X214665D02*
D03*
X210335D02*
D03*
X277165D02*
D03*
X272835D02*
D03*
X339665D02*
D03*
X335335D02*
D03*
X402165D02*
D03*
X397835D02*
D03*
X460335D02*
D03*
X464665D02*
D03*
X527165D02*
D03*
X522835D02*
D03*
D107*
X939118Y617571D02*
D03*
X943843D02*
D03*
X503638Y533500D02*
D03*
X508362D02*
D03*
D108*
X483150Y197941D02*
D03*
Y200500D02*
D03*
Y203059D02*
D03*
X476850D02*
D03*
Y200500D02*
D03*
Y197941D02*
D03*
D109*
X445484Y248949D02*
D03*
Y252532D02*
D03*
X1205000Y647791D02*
D03*
Y644209D02*
D03*
D111*
X455772Y478705D02*
D03*
X452228D02*
D03*
X276772Y252500D02*
D03*
X273228D02*
D03*
X281272Y230000D02*
D03*
X277728D02*
D03*
X281272Y234000D02*
D03*
X277728D02*
D03*
X349803Y244291D02*
D03*
X353346D02*
D03*
X292772Y207000D02*
D03*
X289228D02*
D03*
X300272D02*
D03*
X296728D02*
D03*
X307772D02*
D03*
X304228D02*
D03*
X315272D02*
D03*
X311728D02*
D03*
X322772D02*
D03*
X319228D02*
D03*
X330272D02*
D03*
X326728D02*
D03*
X337772D02*
D03*
X334228D02*
D03*
X345272D02*
D03*
X341728D02*
D03*
X353179Y210500D02*
D03*
X356722D02*
D03*
X429728Y196000D02*
D03*
X433272D02*
D03*
X429728Y189500D02*
D03*
X433272D02*
D03*
X425772D02*
D03*
X422228D02*
D03*
X425772Y211500D02*
D03*
X422228D02*
D03*
X418272D02*
D03*
X414728D02*
D03*
X418272Y189500D02*
D03*
X414728D02*
D03*
X443428Y407500D02*
D03*
X446972D02*
D03*
X443428Y395500D02*
D03*
X446972D02*
D03*
X77728Y123000D02*
D03*
X81272D02*
D03*
X143772D02*
D03*
X140228D02*
D03*
X206272D02*
D03*
X202728D02*
D03*
X268772D02*
D03*
X265228D02*
D03*
X331272D02*
D03*
X327728D02*
D03*
X393772D02*
D03*
X390228D02*
D03*
X452728D02*
D03*
X456272D02*
D03*
X515228D02*
D03*
X518772D02*
D03*
X99272D02*
D03*
X95728D02*
D03*
X161772D02*
D03*
X158228D02*
D03*
X220728D02*
D03*
X224272D02*
D03*
X283228D02*
D03*
X286772D02*
D03*
X345728D02*
D03*
X349272D02*
D03*
X408228D02*
D03*
X411772D02*
D03*
X474272D02*
D03*
X470728D02*
D03*
X536772D02*
D03*
X533228D02*
D03*
X99272Y92000D02*
D03*
X95728D02*
D03*
X161772D02*
D03*
X158228D02*
D03*
X224272D02*
D03*
X220728D02*
D03*
X286772D02*
D03*
X283228D02*
D03*
X349272D02*
D03*
X345728D02*
D03*
X411772D02*
D03*
X408228D02*
D03*
X470728D02*
D03*
X474272D02*
D03*
X533228D02*
D03*
X536772D02*
D03*
X773772Y701500D02*
D03*
X770228D02*
D03*
X773772Y713500D02*
D03*
X770228D02*
D03*
X773772Y695500D02*
D03*
X770228D02*
D03*
X773772Y707500D02*
D03*
X770228D02*
D03*
X1171728Y212500D02*
D03*
X1175272D02*
D03*
X1169272Y222500D02*
D03*
X1165728D02*
D03*
X795500Y75047D02*
D03*
X799043D02*
D03*
X795500Y86047D02*
D03*
X799043D02*
D03*
X698000Y75047D02*
D03*
X701543D02*
D03*
X698000Y86047D02*
D03*
X701543D02*
D03*
X776000Y75047D02*
D03*
X779543D02*
D03*
X776000Y86047D02*
D03*
X779543D02*
D03*
X678500D02*
D03*
X682043D02*
D03*
X678500Y75047D02*
D03*
X682043D02*
D03*
X756500D02*
D03*
X760043D02*
D03*
X756500Y86047D02*
D03*
X760043D02*
D03*
X659000D02*
D03*
X662543D02*
D03*
X659000Y75047D02*
D03*
X662543D02*
D03*
X737000D02*
D03*
X740543D02*
D03*
X737000Y86047D02*
D03*
X740543D02*
D03*
X815000Y75047D02*
D03*
X818543D02*
D03*
X815000Y86047D02*
D03*
X818543D02*
D03*
X717500Y75047D02*
D03*
X721043D02*
D03*
X717500Y86047D02*
D03*
X721043D02*
D03*
X964886Y51657D02*
D03*
X968429D02*
D03*
X851228Y519000D02*
D03*
X854772D02*
D03*
X851228Y515000D02*
D03*
X854772D02*
D03*
X851228Y511000D02*
D03*
X854772D02*
D03*
X851228Y507000D02*
D03*
X854772D02*
D03*
X851228Y503000D02*
D03*
X854772D02*
D03*
X851228Y499000D02*
D03*
X854772D02*
D03*
X915772Y515000D02*
D03*
X912228D02*
D03*
X915772Y511000D02*
D03*
X912228D02*
D03*
X915772Y507000D02*
D03*
X912228D02*
D03*
X915772Y503000D02*
D03*
X912228D02*
D03*
X915772Y499000D02*
D03*
X912228D02*
D03*
X928272Y519500D02*
D03*
X924728D02*
D03*
Y515500D02*
D03*
X928272D02*
D03*
X924728Y511500D02*
D03*
X928272D02*
D03*
X924728Y507500D02*
D03*
X928272D02*
D03*
X924728Y503500D02*
D03*
X928272D02*
D03*
Y499500D02*
D03*
X924728D02*
D03*
X989272Y516500D02*
D03*
X985728D02*
D03*
X989272Y512500D02*
D03*
X985728D02*
D03*
X989272Y508500D02*
D03*
X985728D02*
D03*
X989272Y504500D02*
D03*
X985728D02*
D03*
X989272Y500500D02*
D03*
X985728D02*
D03*
D112*
X672500Y299673D02*
D03*
Y296327D02*
D03*
X667500Y299673D02*
D03*
Y296327D02*
D03*
X682500Y299673D02*
D03*
Y296327D02*
D03*
X677500Y299673D02*
D03*
Y296327D02*
D03*
X692500Y299673D02*
D03*
Y296327D02*
D03*
X687500Y299673D02*
D03*
Y296327D02*
D03*
X702500Y299673D02*
D03*
Y296327D02*
D03*
X697500Y299673D02*
D03*
Y296327D02*
D03*
X712500Y299673D02*
D03*
Y296327D02*
D03*
X707500Y299673D02*
D03*
Y296327D02*
D03*
X695500Y403673D02*
D03*
Y400327D02*
D03*
X690500Y403673D02*
D03*
Y400327D02*
D03*
X260500Y396673D02*
D03*
Y393327D02*
D03*
X256000Y396673D02*
D03*
Y393327D02*
D03*
X251500Y396673D02*
D03*
Y393327D02*
D03*
X247000Y396673D02*
D03*
Y393327D02*
D03*
X242500Y396673D02*
D03*
Y393327D02*
D03*
X238000Y396673D02*
D03*
Y393327D02*
D03*
D113*
X935740Y72402D02*
D03*
X931740D02*
D03*
X927496Y63429D02*
D03*
X931496D02*
D03*
Y55581D02*
D03*
X927496D02*
D03*
X931496Y47734D02*
D03*
X927496D02*
D03*
Y39886D02*
D03*
X931496D02*
D03*
D114*
X527634Y509010D02*
D03*
Y516490D02*
D03*
X519366Y512750D02*
D03*
D115*
X313555Y273969D02*
D03*
Y272000D02*
D03*
Y270031D02*
D03*
X320445D02*
D03*
Y272000D02*
D03*
Y273969D02*
D03*
D117*
X97500Y10986D02*
D03*
X1090000D02*
D03*
X160000D02*
D03*
X222500D02*
D03*
X285000D02*
D03*
X347500D02*
D03*
X410000D02*
D03*
X472500D02*
D03*
X535000D02*
D03*
D118*
X114232Y11576D02*
D03*
X80768D02*
D03*
X1106732D02*
D03*
X1073268D02*
D03*
X143268D02*
D03*
X176732D02*
D03*
X205768D02*
D03*
X239232D02*
D03*
X268268D02*
D03*
X301732D02*
D03*
X330768D02*
D03*
X364232D02*
D03*
X393268D02*
D03*
X426732D02*
D03*
X489232D02*
D03*
X455768D02*
D03*
X551732D02*
D03*
X518268D02*
D03*
D139*
X960803Y51657D02*
D03*
X941512Y57564D02*
D03*
Y53626D02*
D03*
Y49688D02*
D03*
Y45750D02*
D03*
X960803D02*
D03*
Y47719D02*
D03*
Y49688D02*
D03*
Y53626D02*
D03*
Y55595D02*
D03*
Y57564D02*
D03*
Y59533D02*
D03*
X941512D02*
D03*
Y55595D02*
D03*
Y51657D02*
D03*
Y47719D02*
D03*
D140*
X946235Y62287D02*
D03*
Y42996D02*
D03*
X950173D02*
D03*
X954111D02*
D03*
X958049D02*
D03*
Y62287D02*
D03*
X956080D02*
D03*
X954111D02*
D03*
X952142D02*
D03*
X950173D02*
D03*
X948204D02*
D03*
X944266D02*
D03*
Y42996D02*
D03*
X948204D02*
D03*
X952142D02*
D03*
X956080D02*
D03*
D141*
X951157Y52642D02*
D03*
D160*
X248000Y371500D02*
D03*
D161*
X531161Y66500D02*
D03*
X93661D02*
D03*
X156161D02*
D03*
X218661D02*
D03*
X281161D02*
D03*
X343661D02*
D03*
X406161D02*
D03*
X468661D02*
D03*
D184*
X455500Y205500D02*
D03*
D187*
X1240543Y673256D02*
D03*
Y642744D02*
D03*
D188*
X1225583Y672665D02*
D03*
Y643335D02*
D03*
D189*
X1229716Y648158D02*
D03*
Y667842D02*
D03*
D199*
X453500Y624524D02*
D03*
X443500D02*
D03*
D200*
X433500D02*
D03*
D201*
X213000Y449000D02*
D03*
X1042000Y272500D02*
D03*
X182000Y223000D02*
D03*
X532000Y185000D02*
D03*
X337000Y367000D02*
D03*
X129500Y370000D02*
D03*
X478000Y427000D02*
D03*
X870000Y229500D02*
D03*
X428000Y298000D02*
D03*
X126000Y518000D02*
D03*
X212500Y533500D02*
D03*
X242500Y454000D02*
D03*
X175000Y486000D02*
D03*
D202*
X756496Y625000D02*
D03*
D210*
X1199500Y90000D02*
D03*
Y100000D02*
D03*
Y110000D02*
D03*
Y155000D02*
D03*
Y165000D02*
D03*
Y175000D02*
D03*
D219*
X478000Y491500D02*
D03*
D220*
X401000Y105500D02*
D03*
X526000D02*
D03*
X88500D02*
D03*
X151000D02*
D03*
X213500D02*
D03*
X276000D02*
D03*
X338500D02*
D03*
X463500D02*
D03*
D221*
X957181Y509095D02*
D03*
X883681D02*
D03*
D222*
X316500Y247000D02*
D03*
D223*
X416500Y200500D02*
D03*
D224*
X479943Y278758D02*
D03*
X306819Y312772D02*
D03*
X306819Y315921D02*
D03*
X300394Y391260D02*
D03*
X356484Y491898D02*
D03*
X356485Y495047D02*
D03*
X1169909Y441240D02*
D03*
X1169911Y444390D02*
D03*
D251*
X569882Y288504D02*
D03*
X625000Y142835D02*
D03*
X951772Y548347D02*
D03*
X34449Y44409D02*
D03*
X1215551D02*
D03*
X34449Y705827D02*
D03*
X176181Y178268D02*
D03*
X1006890Y217638D02*
D03*
X152559Y351496D02*
D03*
X1128937Y363307D02*
D03*
X373031Y536535D02*
D03*
D252*
X95000Y710000D02*
D03*
D253*
Y720000D02*
D03*
X105000Y710000D02*
D03*
Y720000D02*
D03*
X115000Y710000D02*
D03*
Y720000D02*
D03*
X125000Y710000D02*
D03*
Y720000D02*
D03*
X135000Y710000D02*
D03*
Y720000D02*
D03*
X145000Y710000D02*
D03*
Y720000D02*
D03*
X155000Y710000D02*
D03*
Y720000D02*
D03*
X165000Y710000D02*
D03*
Y720000D02*
D03*
X175000Y710000D02*
D03*
Y720000D02*
D03*
X185000Y710000D02*
D03*
Y720000D02*
D03*
X195000Y710000D02*
D03*
Y720000D02*
D03*
X205000Y710000D02*
D03*
Y720000D02*
D03*
X215000Y710000D02*
D03*
Y720000D02*
D03*
X225000Y710000D02*
D03*
Y720000D02*
D03*
X235000Y710000D02*
D03*
Y720000D02*
D03*
X245000Y710000D02*
D03*
Y720000D02*
D03*
X255000Y710000D02*
D03*
Y720000D02*
D03*
X265000Y710000D02*
D03*
Y720000D02*
D03*
X275000Y710000D02*
D03*
Y720000D02*
D03*
X285000Y710000D02*
D03*
Y720000D02*
D03*
X295000Y710000D02*
D03*
Y720000D02*
D03*
X305000Y710000D02*
D03*
Y720000D02*
D03*
D254*
X399450Y103950D02*
D03*
Y107050D02*
D03*
X402550Y103950D02*
D03*
Y107050D02*
D03*
X527550D02*
D03*
Y103950D02*
D03*
X524450Y107050D02*
D03*
Y103950D02*
D03*
X414950Y202050D02*
D03*
X418050D02*
D03*
X414950Y198950D02*
D03*
X418050D02*
D03*
X90050Y107050D02*
D03*
Y103950D02*
D03*
X86950Y107050D02*
D03*
Y103950D02*
D03*
X149450D02*
D03*
Y107050D02*
D03*
X152550Y103950D02*
D03*
Y107050D02*
D03*
X211950Y103950D02*
D03*
Y107050D02*
D03*
X215050Y103950D02*
D03*
Y107050D02*
D03*
X274450Y103950D02*
D03*
Y107050D02*
D03*
X277550Y103950D02*
D03*
Y107050D02*
D03*
X340050D02*
D03*
Y103950D02*
D03*
X336950Y107050D02*
D03*
Y103950D02*
D03*
X465050Y107050D02*
D03*
Y103950D02*
D03*
X461950Y107050D02*
D03*
Y103950D02*
D03*
D255*
X1164370Y690079D02*
D03*
D256*
X750189Y735236D02*
D03*
X499795D02*
D03*
D257*
X240000Y637307D02*
D03*
Y647307D02*
D03*
X180500Y637307D02*
D03*
Y647307D02*
D03*
D258*
X1194000Y275000D02*
D03*
Y291535D02*
D03*
Y308071D02*
D03*
Y324606D02*
D03*
X1172346D02*
D03*
Y308071D02*
D03*
Y291535D02*
D03*
Y275000D02*
D03*
D259*
X818386Y676693D02*
D03*
Y716063D02*
D03*
D260*
X1196000Y222500D02*
D03*
X1185000Y212500D02*
D03*
Y222500D02*
D03*
X1196000Y212500D02*
D03*
D261*
X493496Y625000D02*
D03*
D262*
X1148126Y560020D02*
D03*
Y591988D02*
D03*
Y568012D02*
D03*
Y576004D02*
D03*
Y583996D02*
D03*
X1138126Y556043D02*
D03*
Y603957D02*
D03*
Y564035D02*
D03*
Y595965D02*
D03*
Y572028D02*
D03*
Y587972D02*
D03*
D263*
X1148126Y599980D02*
D03*
D264*
X1128126Y556024D02*
D03*
Y603976D02*
D03*
Y566024D02*
D03*
Y593976D02*
D03*
D265*
X1220646Y548248D02*
D03*
Y611752D02*
D03*
D266*
X1208126Y605000D02*
D03*
Y555000D02*
D03*
D267*
X1233500Y84500D02*
D03*
Y115500D02*
D03*
Y149500D02*
D03*
Y180500D02*
D03*
D268*
X1217575Y458268D02*
D03*
Y441732D02*
D03*
D269*
X1216000Y467700D02*
D03*
Y432300D02*
D03*
X1233500Y429500D02*
D03*
Y470500D02*
D03*
M02*
