G04*
G04 #@! TF.GenerationSoftware,Altium Limited,Altium Designer,22.7.1 (60)*
G04*
G04 Layer_Color=16711935*
%FSLAX24Y24*%
%MOIN*%
G70*
G04*
G04 #@! TF.SameCoordinates,7C93F560-B747-4E79-9DF0-8179935B0740*
G04*
G04*
G04 #@! TF.FilePolarity,Positive*
G04*
G01*
G75*
%ADD13C,0.0039*%
%ADD16C,0.0059*%
%ADD17C,0.0200*%
%ADD18C,0.0079*%
%ADD19C,0.0050*%
%ADD23C,0.0030*%
%ADD384C,0.0010*%
%ADD385C,0.0000*%
%ADD386R,0.0413X0.0095*%
%ADD387R,0.0095X0.0413*%
D13*
X21483Y64386D02*
G03*
X21483Y64386I-197J0D01*
G01*
X49414Y50567D02*
G03*
X49414Y50567I-197J0D01*
G01*
X17515Y59756D02*
G03*
X17515Y59756I-197J0D01*
G01*
X57641Y19344D02*
G03*
X57641Y19344I-197J0D01*
G01*
X89309Y60537D02*
G03*
X89309Y60537I-197J0D01*
G01*
X95462Y51362D02*
G03*
X95462Y51362I-197J0D01*
G01*
X102901Y66450D02*
G03*
X102901Y66450I-197J0D01*
G01*
X72598Y37402D02*
G03*
X72598Y37402I-197J0D01*
G01*
X30430Y23283D02*
G03*
X30430Y23283I-197J0D01*
G01*
X107453Y65451D02*
G03*
X107453Y65451I-197J0D01*
G01*
X17714Y51320D02*
G03*
X17714Y51320I-197J0D01*
G01*
X94733Y60445D02*
G03*
X94733Y60445I-197J0D01*
G01*
X124043Y61702D02*
G03*
X122912Y61730I-805J-9682D01*
G01*
X125100Y61321D02*
G03*
X124043Y61702I-1656J-2933D01*
G01*
X122912Y61730D02*
G03*
X122727Y61720I-12J-1434D01*
G01*
X121908Y61778D02*
G03*
X122171Y61717I241J437D01*
G01*
X122912Y54270D02*
G03*
X124043Y54298I326J9710D01*
G01*
D02*
G03*
X125100Y54679I-598J3314D01*
G01*
X122727Y54280D02*
G03*
X122912Y54270I173J1423D01*
G01*
X122171Y54283D02*
G03*
X121908Y54222I-22J-499D01*
G01*
X121118Y46654D02*
G03*
X121196Y46575I79J0D01*
G01*
Y46968D02*
G03*
X121118Y46890I0J-79D01*
G01*
X122082D02*
G03*
X122004Y46968I-79J0D01*
G01*
Y46575D02*
G03*
X122082Y46654I0J79D01*
G01*
X121118Y43110D02*
G03*
X121196Y43032I79J0D01*
G01*
Y43425D02*
G03*
X121118Y43346I0J-79D01*
G01*
X122082D02*
G03*
X122004Y43425I-79J0D01*
G01*
Y43032D02*
G03*
X122082Y43110I0J79D01*
G01*
X122870Y46929D02*
G03*
X122948Y46850I79J0D01*
G01*
Y47244D02*
G03*
X122870Y47165I0J-79D01*
G01*
X123834D02*
G03*
X123756Y47244I-79J0D01*
G01*
Y46850D02*
G03*
X123834Y46929I0J79D01*
G01*
X122870Y42835D02*
G03*
X122948Y42756I79J0D01*
G01*
Y43150D02*
G03*
X122870Y43071I0J-79D01*
G01*
X123834D02*
G03*
X123756Y43150I-79J0D01*
G01*
Y42756D02*
G03*
X123834Y42835I0J79D01*
G01*
X109153Y58856D02*
G03*
X109153Y58856I-197J0D01*
G01*
Y57156D02*
G03*
X109153Y57156I-197J0D01*
G01*
X15533Y64386D02*
G03*
X15533Y64386I-197J0D01*
G01*
X10065Y59756D02*
G03*
X10065Y59756I-197J0D01*
G01*
X88112Y51362D02*
G03*
X88112Y51362I-197J0D01*
G01*
X35192Y18876D02*
X35408D01*
X35192Y18463D02*
X35408D01*
X35192D02*
Y18876D01*
X35408Y18463D02*
Y18876D01*
X35592Y18463D02*
X35808D01*
X35592Y18876D02*
X35808D01*
Y18463D02*
Y18876D01*
X35592Y18463D02*
Y18876D01*
X35293Y19111D02*
Y19328D01*
X35707Y19111D02*
Y19328D01*
X35293Y19111D02*
X35707D01*
X35293Y19328D02*
X35707D01*
X113519Y63345D02*
Y63955D01*
X114681D01*
Y63345D02*
Y63955D01*
X113519Y63345D02*
X114681D01*
X113519Y63719D02*
X113893Y63345D01*
X115019D02*
Y63955D01*
X116181D01*
Y63345D02*
Y63955D01*
X115019Y63345D02*
X116181D01*
X115019Y63719D02*
X115393Y63345D01*
X116519D02*
Y63955D01*
X117681D01*
Y63345D02*
Y63955D01*
X116519Y63345D02*
X117681D01*
X116519Y63719D02*
X116893Y63345D01*
X118019D02*
Y63955D01*
X119181D01*
Y63345D02*
Y63955D01*
X118019Y63345D02*
X119181D01*
X118019Y63719D02*
X118393Y63345D01*
X22193Y35104D02*
X22607D01*
X22193Y34396D02*
X22607D01*
Y35104D01*
X22193Y34396D02*
Y35104D01*
X50685Y51744D02*
Y52256D01*
X50015Y51744D02*
Y52256D01*
X50685D01*
X50015Y51744D02*
X50685D01*
X36501Y33611D02*
Y36189D01*
X37899Y33611D02*
Y36189D01*
X36501Y33611D02*
X37899D01*
X36501Y36189D02*
X37899D01*
X88656Y56300D02*
Y57500D01*
X89344Y56300D02*
Y57500D01*
X88656D02*
X89344D01*
X88656Y56300D02*
X89344D01*
X46662Y53544D02*
Y55752D01*
X48158Y53544D02*
Y55752D01*
X46662Y53544D02*
X48158D01*
X46662Y55752D02*
X48158D01*
X26261Y48035D02*
Y49965D01*
X27639Y48035D02*
Y49965D01*
X26261D02*
X27639D01*
X26261Y48035D02*
X27639D01*
X20440Y64760D02*
X21660D01*
X20440Y63540D02*
X21660D01*
Y64760D01*
X20440Y63540D02*
Y64760D01*
X113244Y42657D02*
X113756D01*
Y43807D01*
X113244D02*
X113756D01*
X113244Y42657D02*
Y43807D01*
Y43032D02*
X113618Y42657D01*
X46028Y50922D02*
X49572D01*
X46028Y47378D02*
X49572D01*
Y50922D01*
X46028Y47378D02*
Y50922D01*
X7500Y69750D02*
Y73329D01*
X32579D01*
Y69750D02*
Y73329D01*
X7500Y69750D02*
X32579D01*
X48556Y52587D02*
X49244D01*
X48556Y52213D02*
X49244D01*
X48556D02*
Y52587D01*
X49244Y52213D02*
Y52587D01*
X98606Y35736D02*
Y36110D01*
X99294Y35736D02*
Y36110D01*
X98606Y35736D02*
X99294D01*
X98606Y36110D02*
X99294D01*
X67432Y59483D02*
Y59917D01*
X67668Y59483D02*
Y59917D01*
X67432Y59483D02*
X67668D01*
X67432Y59917D02*
X67668D01*
X50535Y44013D02*
Y44387D01*
X49865Y44013D02*
Y44387D01*
Y44013D02*
X50535D01*
X49865Y44387D02*
X50535D01*
X56463Y52115D02*
Y52785D01*
X56837Y52115D02*
Y52785D01*
X56463D02*
X56837D01*
X56463Y52115D02*
X56837D01*
X100900Y5527D02*
Y5901D01*
X100231Y5527D02*
Y5901D01*
Y5527D02*
X100900D01*
X100231Y5901D02*
X100900D01*
X34412Y19593D02*
X34628D01*
X34412Y20007D02*
X34628D01*
Y19593D02*
Y20007D01*
X34412Y19593D02*
Y20007D01*
X108892Y4907D02*
X109108D01*
X108892Y4493D02*
X109108D01*
Y4907D01*
X108892Y4493D02*
Y4907D01*
X49715Y54723D02*
Y55077D01*
X50385Y54723D02*
Y55077D01*
X49715D02*
X50385D01*
X49715Y54723D02*
X50385D01*
X81307Y64192D02*
Y64408D01*
X80893Y64192D02*
Y64408D01*
Y64192D02*
X81307D01*
X80893Y64408D02*
X81307D01*
X25313Y47225D02*
X25687D01*
X25313Y46575D02*
X25687D01*
X25313D02*
Y47225D01*
X25687Y46575D02*
Y47225D01*
X47295Y63977D02*
X47905D01*
X47295Y64323D02*
X47905D01*
Y63977D02*
Y64323D01*
X47295Y63977D02*
Y64323D01*
X23785Y67090D02*
Y68310D01*
X23115Y67090D02*
Y68310D01*
X23785D01*
X23115Y67090D02*
X23785D01*
X16964Y58890D02*
Y60110D01*
X18736Y58890D02*
Y60110D01*
X16964D02*
X18736D01*
X16964Y58890D02*
X18736D01*
X116143Y32579D02*
X116457D01*
Y32343D02*
Y32579D01*
X116143Y32343D02*
X116457D01*
X116143D02*
Y32579D01*
X92676Y22603D02*
Y26697D01*
X89054Y22603D02*
Y26697D01*
X92676D01*
X89054Y22603D02*
X92676D01*
X96504Y59913D02*
X97292D01*
Y60701D01*
X96504Y59913D02*
Y60701D01*
X97292D01*
X37614Y68515D02*
Y68830D01*
X38244Y68515D02*
Y68830D01*
X37614D02*
X38244D01*
X37614Y68515D02*
X38244D01*
X43415Y68777D02*
X44085D01*
X43415Y68423D02*
X44085D01*
X43415D02*
Y68777D01*
X44085Y68423D02*
Y68777D01*
X57090Y18990D02*
Y20210D01*
X58310Y18990D02*
Y20210D01*
X57090Y18990D02*
X58310D01*
X57090Y20210D02*
X58310D01*
X97452Y61538D02*
Y62876D01*
X96744Y61538D02*
Y62876D01*
X97452D01*
X96744Y61538D02*
X97452D01*
X53044Y3154D02*
Y3646D01*
X52256Y3154D02*
Y3646D01*
X53044D01*
X52256Y3154D02*
X53044D01*
X34692Y17993D02*
Y18407D01*
X34908Y17993D02*
Y18407D01*
X34692D02*
X34908D01*
X34692Y17993D02*
X34908D01*
X109390Y12690D02*
X110610D01*
X109390Y13910D02*
X110610D01*
X109390Y12690D02*
Y13910D01*
X110610Y12690D02*
Y13910D01*
X87833Y60183D02*
Y61817D01*
X89467Y60183D02*
Y61817D01*
X87833D02*
X89467D01*
X87833Y60183D02*
X89467D01*
X94911Y50102D02*
Y51717D01*
X96525Y50102D02*
Y51717D01*
X94911D02*
X96525D01*
X94911Y50102D02*
X96525D01*
X104350Y64805D02*
Y66805D01*
X102350Y64805D02*
Y66805D01*
Y64805D02*
X104350D01*
X102350Y66805D02*
X104350D01*
X67244Y37756D02*
X72756D01*
X67244Y32244D02*
X72756D01*
Y37756D01*
X67244Y32244D02*
Y37756D01*
X119139Y21831D02*
X120061D01*
X119139D02*
Y22669D01*
X120061D01*
Y21831D02*
Y22669D01*
X35843Y27022D02*
X36257D01*
X35843Y26806D02*
X36257D01*
X35843D02*
Y27022D01*
X36257Y26806D02*
Y27022D01*
X45226Y6043D02*
X45443D01*
X45226Y6457D02*
X45443D01*
Y6043D02*
Y6457D01*
X45226Y6043D02*
Y6457D01*
X94807Y68892D02*
Y69108D01*
X94393Y68892D02*
Y69108D01*
Y68892D02*
X94807D01*
X94393Y69108D02*
X94807D01*
X30044Y22928D02*
X33256D01*
X33422Y23094D01*
Y26306D01*
X33256Y26472D02*
X33422Y26306D01*
X30044Y26472D02*
X33256D01*
X29878Y26306D02*
X30044Y26472D01*
X29878Y23094D02*
Y26306D01*
Y23094D02*
X30044Y22928D01*
X107610Y65096D02*
Y66317D01*
X106390Y65096D02*
Y66317D01*
Y65096D02*
X107610D01*
X106390Y66317D02*
X107610D01*
X61123Y52181D02*
X61477D01*
X61123Y51669D02*
X61477D01*
X61123D02*
Y52181D01*
X61477Y51669D02*
Y52181D01*
X10749Y37961D02*
Y40539D01*
X9351Y37961D02*
Y40539D01*
X10749D01*
X9351Y37961D02*
X10749D01*
X63851Y54014D02*
X65249D01*
X63851Y51435D02*
X65249D01*
Y54014D01*
X63851Y51435D02*
Y54014D01*
X117856Y16400D02*
X118544D01*
X117856Y17600D02*
X118544D01*
Y16400D02*
Y17600D01*
X117856Y16400D02*
Y17600D01*
X17163Y52934D02*
X18737D01*
X17163Y50966D02*
X18737D01*
Y52934D01*
X17163Y50966D02*
Y52934D01*
X101220Y4470D02*
X101712D01*
Y5258D01*
X101220D02*
X101712D01*
X101220Y4470D02*
Y5258D01*
X114685Y43350D02*
X115315D01*
Y43665D01*
X114685D02*
X115315D01*
X114685Y43350D02*
Y43665D01*
X92949Y3535D02*
X93343D01*
Y3732D01*
X92949D02*
X93343D01*
X92949Y3535D02*
Y3732D01*
X94087Y69106D02*
Y69794D01*
X93713Y69106D02*
Y69794D01*
X94087D01*
X93713Y69106D02*
X94087D01*
X54787Y6206D02*
Y6894D01*
X54413Y6206D02*
Y6894D01*
Y6206D02*
X54787D01*
X54413Y6894D02*
X54787D01*
X72224Y6850D02*
X72676D01*
X72224Y6614D02*
X72676D01*
X72224D02*
Y6850D01*
X72676Y6614D02*
Y6850D01*
X53562Y11414D02*
Y11886D01*
X53838Y11414D02*
Y11886D01*
X53562Y11414D02*
X53838D01*
X53562Y11886D02*
X53838D01*
X22292Y67293D02*
Y67707D01*
X22508Y67293D02*
Y67707D01*
X22292D02*
X22508D01*
X22292Y67293D02*
X22508D01*
X96543Y35985D02*
X96857D01*
X96543Y36615D02*
X96857D01*
Y35985D02*
Y36615D01*
X96543Y35985D02*
Y36615D01*
X35485Y22420D02*
X36115D01*
X35485Y23680D02*
X36115D01*
Y22420D02*
Y23680D01*
X35485Y22420D02*
Y23680D01*
X69942Y66907D02*
X70158D01*
X69942Y66493D02*
X70158D01*
X69942D02*
Y66907D01*
X70158Y66493D02*
Y66907D01*
X47408Y52593D02*
Y53007D01*
X47192Y52593D02*
Y53007D01*
X47408D01*
X47192Y52593D02*
X47408D01*
X72657Y5971D02*
Y6188D01*
X72243Y5971D02*
Y6188D01*
Y5971D02*
X72657D01*
X72243Y6188D02*
X72657D01*
X24135Y24643D02*
X24765D01*
X24135Y24957D02*
X24765D01*
Y24643D02*
Y24957D01*
X24135Y24643D02*
Y24957D01*
X98072Y6460D02*
X98859D01*
X98072Y5968D02*
X98859D01*
Y6460D01*
X98072Y5968D02*
Y6460D01*
X36892Y23778D02*
X38073D01*
X36892Y22322D02*
X38073D01*
X36892D02*
Y23778D01*
X38073Y22322D02*
Y23778D01*
X19613Y59835D02*
X19987D01*
X19613Y60524D02*
X19987D01*
X19613Y59835D02*
Y60524D01*
X19987Y59835D02*
Y60524D01*
X20037Y39116D02*
Y39804D01*
X19663Y39116D02*
Y39804D01*
Y39116D02*
X20037D01*
X19663Y39804D02*
X20037D01*
X34087Y22706D02*
Y23394D01*
X33713Y22706D02*
Y23394D01*
Y22706D02*
X34087D01*
X33713Y23394D02*
X34087D01*
X93906Y59815D02*
Y60799D01*
X94890Y59815D02*
Y60799D01*
X93906Y59815D02*
X94890D01*
X93906Y60799D02*
X94890D01*
X49609Y43276D02*
X50791D01*
X49609Y42724D02*
X50791D01*
Y43276D01*
X49609Y42724D02*
Y43276D01*
X112100Y54679D02*
X125100D01*
Y61321D01*
X112100D02*
X125100D01*
X112100Y54679D02*
Y61321D01*
X122171Y61717D02*
X122727Y61720D01*
X122171Y54283D02*
X122727Y54280D01*
X121265Y43110D02*
Y43346D01*
X121167Y43110D02*
X121364D01*
X121620Y43346D02*
X121757D01*
Y43110D02*
Y43346D01*
X121856D02*
X121994D01*
X121856Y43228D02*
Y43346D01*
Y43228D02*
X121994D01*
Y43110D02*
Y43228D01*
X121856Y43110D02*
X121994D01*
X121265Y46654D02*
Y46890D01*
X121167Y46654D02*
X121364D01*
X121620Y46890D02*
X121757D01*
Y46654D02*
Y46890D01*
X121856D02*
X121994D01*
X121856Y46772D02*
Y46890D01*
Y46772D02*
X121994D01*
Y46654D02*
Y46772D01*
X121856Y46654D02*
X121994D01*
X123017Y46929D02*
Y47165D01*
X122919Y46929D02*
X123116D01*
X123372Y47165D02*
X123509D01*
Y46929D02*
Y47165D01*
X123608D02*
X123746D01*
X123608Y47047D02*
Y47165D01*
Y47047D02*
X123746D01*
Y46929D02*
Y47047D01*
X123608Y46929D02*
X123746D01*
X123017Y42835D02*
Y43071D01*
X122919Y42835D02*
X123116D01*
X123372Y43071D02*
X123509D01*
Y42835D02*
Y43071D01*
X123608D02*
X123746D01*
X123608Y42953D02*
Y43071D01*
Y42953D02*
X123746D01*
Y42835D02*
Y42953D01*
X123608Y42835D02*
X123746D01*
X121118Y46654D02*
Y46890D01*
X121196Y46968D02*
X122004D01*
X122082Y46654D02*
Y46890D01*
X121196Y46575D02*
X122004D01*
X121118Y43110D02*
Y43346D01*
X121196Y43425D02*
X122004D01*
X122082Y43110D02*
Y43346D01*
X121196Y43032D02*
X122004D01*
X122870Y46929D02*
Y47165D01*
X122948Y47244D02*
X123756D01*
X123834Y46929D02*
Y47165D01*
X122948Y46850D02*
X123756D01*
X122870Y42835D02*
Y43071D01*
X122948Y43150D02*
X123756D01*
X123834Y42835D02*
Y43071D01*
X122948Y42756D02*
X123756D01*
X121423Y43110D02*
X121541D01*
Y43346D01*
X121423D02*
X121541D01*
X121423Y43110D02*
Y43346D01*
Y46654D02*
X121541D01*
Y46890D01*
X121423D02*
X121541D01*
X121423Y46654D02*
Y46890D01*
X123175Y46929D02*
X123293D01*
Y47165D01*
X123175D02*
X123293D01*
X123175Y46929D02*
Y47165D01*
Y42835D02*
X123293D01*
Y43071D01*
X123175D02*
X123293D01*
X123175Y42835D02*
Y43071D01*
X97069Y37913D02*
X98251D01*
X97069Y39370D02*
X98251D01*
Y37913D02*
Y39370D01*
X97069Y37913D02*
Y39370D01*
X98569Y37913D02*
X99751D01*
X98569Y39370D02*
X99751D01*
Y37913D02*
Y39370D01*
X98569Y37913D02*
Y39370D01*
X96859Y25322D02*
X98041D01*
X96859Y26778D02*
X98041D01*
Y25322D02*
Y26778D01*
X96859Y25322D02*
Y26778D01*
X98359Y25322D02*
X99541D01*
X98359Y26778D02*
X99541D01*
Y25322D02*
Y26778D01*
X98359Y25322D02*
Y26778D01*
X96859Y17872D02*
X98041D01*
X96859Y19328D02*
X98041D01*
Y17872D02*
Y19328D01*
X96859Y17872D02*
Y19328D01*
X98359Y17872D02*
X99541D01*
X98359Y19328D02*
X99541D01*
Y17872D02*
Y19328D01*
X98359Y17872D02*
Y19328D01*
X19260Y27471D02*
Y28101D01*
X19575Y27471D02*
Y28101D01*
X19260D02*
X19575D01*
X19260Y27471D02*
X19575D01*
X19260Y26171D02*
Y26801D01*
X19575Y26171D02*
Y26801D01*
X19260D02*
X19575D01*
X19260Y26171D02*
X19575D01*
Y28771D02*
Y29401D01*
X19260Y28771D02*
Y29401D01*
Y28771D02*
X19575D01*
X19260Y29401D02*
X19575D01*
X58693Y18685D02*
X59007D01*
X58693Y19315D02*
X59007D01*
Y18685D02*
Y19315D01*
X58693Y18685D02*
Y19315D01*
X55943Y18835D02*
X56257D01*
X55943Y19465D02*
X56257D01*
Y18835D02*
Y19465D01*
X55943Y18835D02*
Y19465D01*
X56708Y20043D02*
Y20457D01*
X56492Y20043D02*
Y20457D01*
Y20043D02*
X56708D01*
X56492Y20457D02*
X56708D01*
X35207Y34235D02*
Y34865D01*
X34893Y34235D02*
Y34865D01*
Y34235D02*
X35207D01*
X34893Y34865D02*
X35207D01*
Y35535D02*
Y36165D01*
X34893Y35535D02*
Y36165D01*
Y35535D02*
X35207D01*
X34893Y36165D02*
X35207D01*
X34893Y32935D02*
Y33565D01*
X35207Y32935D02*
Y33565D01*
X34893D02*
X35207D01*
X34893Y32935D02*
X35207D01*
X11943Y39335D02*
Y39965D01*
X12257Y39335D02*
Y39965D01*
X11943D02*
X12257D01*
X11943Y39335D02*
X12257D01*
X11943Y38035D02*
Y38665D01*
X12257Y38035D02*
Y38665D01*
X11943D02*
X12257D01*
X11943Y38035D02*
X12257D01*
Y40635D02*
Y41265D01*
X11943Y40635D02*
Y41265D01*
Y40635D02*
X12257D01*
X11943Y41265D02*
X12257D01*
X89185Y58157D02*
X89815D01*
X89185Y57843D02*
X89815D01*
X89185D02*
Y58157D01*
X89815Y57843D02*
Y58157D01*
X87643Y57915D02*
X87957D01*
X87643Y57285D02*
X87957D01*
Y57915D01*
X87643Y57285D02*
Y57915D01*
X96859Y27822D02*
Y29278D01*
X98041Y27822D02*
Y29278D01*
X96859D02*
X98041D01*
X96859Y27822D02*
X98041D01*
X98359Y27830D02*
Y29287D01*
X99541Y27830D02*
Y29287D01*
X98359D02*
X99541D01*
X98359Y27830D02*
X99541D01*
X42493Y46085D02*
Y46715D01*
X42807Y46085D02*
Y46715D01*
X42493D02*
X42807D01*
X42493Y46085D02*
X42807D01*
X42493Y44885D02*
Y45515D01*
X42807Y44885D02*
Y45515D01*
X42493D02*
X42807D01*
X42493Y44885D02*
X42807D01*
Y47285D02*
Y47915D01*
X42493Y47285D02*
Y47915D01*
Y47285D02*
X42807D01*
X42493Y47915D02*
X42807D01*
X53107Y46735D02*
Y47365D01*
X52793Y46735D02*
Y47365D01*
Y46735D02*
X53107D01*
X52793Y47365D02*
X53107D01*
Y45535D02*
Y46165D01*
X52793Y45535D02*
Y46165D01*
Y45535D02*
X53107D01*
X52793Y46165D02*
X53107D01*
X52793Y44335D02*
Y44965D01*
X53107Y44335D02*
Y44965D01*
X52793D02*
X53107D01*
X52793Y44335D02*
X53107D01*
X38593Y49785D02*
Y50415D01*
X38907Y49785D02*
Y50415D01*
X38593D02*
X38907D01*
X38593Y49785D02*
X38907D01*
X41393D02*
Y50415D01*
X41707Y49785D02*
Y50415D01*
X41393D02*
X41707D01*
X41393Y49785D02*
X41707D01*
X38907Y51185D02*
Y51815D01*
X38593Y51185D02*
Y51815D01*
Y51185D02*
X38907D01*
X38593Y51815D02*
X38907D01*
X53207Y52785D02*
Y53415D01*
X52893Y52785D02*
Y53415D01*
Y52785D02*
X53207D01*
X52893Y53415D02*
X53207D01*
X56007Y52785D02*
Y53415D01*
X55693Y52785D02*
Y53415D01*
Y52785D02*
X56007D01*
X55693Y53415D02*
X56007D01*
X55693Y51385D02*
Y52015D01*
X56007Y51385D02*
Y52015D01*
X55693D02*
X56007D01*
X55693Y51385D02*
X56007D01*
X83843Y30115D02*
X84157D01*
X83843Y29485D02*
X84157D01*
X83843D02*
Y30115D01*
X84157Y29485D02*
Y30115D01*
X84509Y26128D02*
X85691D01*
X84509Y24672D02*
X85691D01*
X84509D02*
Y26128D01*
X85691Y24672D02*
Y26128D01*
X86009D02*
X87191D01*
X86009Y24672D02*
X87191D01*
X86009D02*
Y26128D01*
X87191Y24672D02*
Y26128D01*
X62443Y51060D02*
X62757D01*
X62443Y51690D02*
X62757D01*
Y51060D02*
Y51690D01*
X62443Y51060D02*
Y51690D01*
X94558Y24493D02*
Y24907D01*
X94342Y24493D02*
Y24907D01*
Y24493D02*
X94558D01*
X94342Y24907D02*
X94558D01*
X62443Y53890D02*
X62757D01*
X62443Y53260D02*
X62757D01*
X62443D02*
Y53890D01*
X62757Y53260D02*
Y53890D01*
X108608Y19843D02*
Y20257D01*
X108392Y19843D02*
Y20257D01*
Y19843D02*
X108608D01*
X108392Y20257D02*
X108608D01*
X108392Y18493D02*
Y18907D01*
X108608Y18493D02*
Y18907D01*
X108392D02*
X108608D01*
X108392Y18493D02*
X108608D01*
X107892D02*
X108108D01*
X107892Y18907D02*
X108108D01*
Y18493D02*
Y18907D01*
X107892Y18493D02*
Y18907D01*
X76304Y60406D02*
Y61194D01*
X76796Y60406D02*
Y61194D01*
X76304D02*
X76796D01*
X76304Y60406D02*
X76796D01*
X75454D02*
Y61194D01*
X75946Y60406D02*
Y61194D01*
X75454D02*
X75946D01*
X75454Y60406D02*
X75946D01*
X74793Y60385D02*
Y61015D01*
X75107Y60385D02*
Y61015D01*
X74793D02*
X75107D01*
X74793Y60385D02*
X75107D01*
X61042Y61096D02*
X61830D01*
X61042Y60604D02*
X61830D01*
Y61096D01*
X61042Y60604D02*
Y61096D01*
X57017Y61007D02*
X57647D01*
X57017Y60693D02*
X57647D01*
Y61007D01*
X57017Y60693D02*
Y61007D01*
X59385Y60693D02*
Y61007D01*
X60015Y60693D02*
Y61007D01*
X59385Y60693D02*
X60015D01*
X59385Y61007D02*
X60015D01*
X58562Y65615D02*
X58877D01*
X58562Y64985D02*
X58877D01*
X58562D02*
Y65615D01*
X58877Y64985D02*
Y65615D01*
X66003Y61146D02*
X66790D01*
X66003Y60654D02*
X66790D01*
Y61146D01*
X66003Y60654D02*
Y61146D01*
X64577Y61007D02*
X65207D01*
X64577Y60693D02*
X65207D01*
Y61007D01*
X64577Y60693D02*
Y61007D01*
X61239Y64985D02*
Y65615D01*
X60924Y64985D02*
Y65615D01*
Y64985D02*
X61239D01*
X60924Y65615D02*
X61239D01*
X66121D02*
X66436D01*
X66121Y64985D02*
X66436D01*
X66121D02*
Y65615D01*
X66436Y64985D02*
Y65615D01*
X49454Y60756D02*
X49946D01*
X49454Y61544D02*
X49946D01*
Y60756D02*
Y61544D01*
X49454Y60756D02*
Y61544D01*
X48604Y60756D02*
X49096D01*
X48604Y61544D02*
X49096D01*
Y60756D02*
Y61544D01*
X48604Y60756D02*
Y61544D01*
X50293Y60735D02*
X50607D01*
X50293Y61365D02*
X50607D01*
Y60735D02*
Y61365D01*
X50293Y60735D02*
Y61365D01*
X83654Y25794D02*
X84146D01*
X83654Y25006D02*
X84146D01*
X83654D02*
Y25794D01*
X84146Y25006D02*
Y25794D01*
X86507Y29485D02*
Y30115D01*
X86193Y29485D02*
Y30115D01*
Y29485D02*
X86507D01*
X86193Y30115D02*
X86507D01*
X85757Y29485D02*
Y30115D01*
X85443Y29485D02*
Y30115D01*
Y29485D02*
X85757D01*
X85443Y30115D02*
X85757D01*
X85007Y29485D02*
Y30115D01*
X84693Y29485D02*
Y30115D01*
Y29485D02*
X85007D01*
X84693Y30115D02*
X85007D01*
X63670Y65024D02*
Y65811D01*
X64162Y65024D02*
Y65811D01*
X63670D02*
X64162D01*
X63670Y65024D02*
X64162D01*
X68483Y65615D02*
X68798D01*
X68483Y64985D02*
X68798D01*
X68483D02*
Y65615D01*
X68798Y64985D02*
Y65615D01*
X63965Y60693D02*
Y61007D01*
X63335Y60693D02*
Y61007D01*
X63965D01*
X63335Y60693D02*
X63965D01*
X62342Y65615D02*
X62657D01*
X62342Y64985D02*
X62657D01*
X62342D02*
Y65615D01*
X62657Y64985D02*
Y65615D01*
X13507Y59638D02*
Y60268D01*
X13193Y59638D02*
Y60268D01*
X13507D01*
X13193Y59638D02*
X13507D01*
X12163Y59579D02*
X12537D01*
X12163Y60268D02*
X12537D01*
X12163Y59579D02*
Y60268D01*
X12537Y59579D02*
Y60268D01*
X10485Y60957D02*
X11115D01*
X10485Y60643D02*
X11115D01*
X10485D02*
Y60957D01*
X11115Y60643D02*
Y60957D01*
X20957Y59894D02*
Y60524D01*
X20643Y59894D02*
Y60524D01*
X20957D01*
X20643Y59894D02*
X20957D01*
X17856Y60554D02*
Y61046D01*
X18644Y60554D02*
Y61046D01*
X17856D02*
X18644D01*
X17856Y60554D02*
X18644D01*
X53965Y50843D02*
Y51157D01*
X53335D02*
X53965D01*
X53335Y50843D02*
Y51157D01*
Y50843D02*
X53965D01*
Y51393D02*
Y51707D01*
X53335D02*
X53965D01*
X53335Y51393D02*
Y51707D01*
Y51393D02*
X53965D01*
X45943Y51485D02*
Y52115D01*
X46257Y51485D02*
Y52115D01*
X45943D02*
X46257D01*
X45943Y51485D02*
X46257D01*
X51093Y50463D02*
X51507D01*
X51093Y50246D02*
X51507D01*
X51093D02*
Y50463D01*
X51507Y50246D02*
Y50463D01*
X51093Y50022D02*
X51507D01*
X51093Y49806D02*
X51507D01*
X51093D02*
Y50022D01*
X51507Y49806D02*
Y50022D01*
X47292Y52007D02*
X47508D01*
X47292Y51593D02*
X47508D01*
Y52007D01*
X47292Y51593D02*
Y52007D01*
X47790D02*
X48007D01*
X47790Y51593D02*
X48007D01*
Y52007D01*
X47790Y51593D02*
Y52007D01*
X44193Y51485D02*
Y52115D01*
X44507Y51485D02*
Y52115D01*
X44193D02*
X44507D01*
X44193Y51485D02*
X44507D01*
X46143Y45835D02*
X46457D01*
X46143Y46465D02*
X46457D01*
Y45835D02*
Y46465D01*
X46143Y45835D02*
Y46465D01*
X45385Y48196D02*
Y48511D01*
X46015Y48196D02*
Y48511D01*
X45385Y48196D02*
X46015D01*
X45385Y48511D02*
X46015D01*
X50215Y48093D02*
Y48407D01*
X49585Y48093D02*
Y48407D01*
X50215D01*
X49585Y48093D02*
X50215D01*
X48143Y46735D02*
X48457D01*
X48143Y47365D02*
X48457D01*
Y46735D02*
Y47365D01*
X48143Y46735D02*
Y47365D01*
X50215Y49093D02*
Y49407D01*
X49585Y49093D02*
Y49407D01*
X50215D01*
X49585Y49093D02*
X50215D01*
X49057Y52993D02*
Y53407D01*
X49274Y52993D02*
Y53407D01*
X49057Y52993D02*
X49274D01*
X49057Y53407D02*
X49274D01*
X50215Y49693D02*
Y50007D01*
X49585Y49693D02*
Y50007D01*
X50215D01*
X49585Y49693D02*
X50215D01*
X48843Y46735D02*
X49157D01*
X48843Y47365D02*
X49157D01*
Y46735D02*
Y47365D01*
X48843Y46735D02*
Y47365D01*
X45093Y46535D02*
X45407D01*
X45093Y47165D02*
X45407D01*
Y46535D02*
Y47165D01*
X45093Y46535D02*
Y47165D01*
X118593Y62392D02*
Y62608D01*
X119007Y62392D02*
Y62608D01*
X118593D02*
X119007D01*
X118593Y62392D02*
X119007D01*
X117093D02*
Y62608D01*
X117507Y62392D02*
Y62608D01*
X117093D02*
X117507D01*
X117093Y62392D02*
X117507D01*
X115593D02*
Y62608D01*
X116007Y62392D02*
Y62608D01*
X115593D02*
X116007D01*
X115593Y62392D02*
X116007D01*
X114093D02*
Y62608D01*
X114507Y62392D02*
Y62608D01*
X114093D02*
X114507D01*
X114093Y62392D02*
X114507D01*
X112892Y64143D02*
Y64557D01*
X113108Y64143D02*
Y64557D01*
X112892Y64143D02*
X113108D01*
X112892Y64557D02*
X113108D01*
X65296Y35956D02*
Y36744D01*
X64804Y35956D02*
Y36744D01*
X65296D01*
X64804Y35956D02*
X65296D01*
X65642Y36507D02*
X65858D01*
X65642Y36093D02*
X65858D01*
Y36507D01*
X65642Y36093D02*
Y36507D01*
X74642Y34307D02*
X74858D01*
X74642Y33893D02*
X74858D01*
Y34307D01*
X74642Y33893D02*
Y34307D01*
X74142D02*
X74358D01*
X74142Y33893D02*
X74358D01*
Y34307D01*
X74142Y33893D02*
Y34307D01*
X73642D02*
X73858D01*
X73642Y33893D02*
X73858D01*
Y34307D01*
X73642Y33893D02*
Y34307D01*
X21659Y31679D02*
Y32093D01*
X21876Y31679D02*
Y32093D01*
X21659D02*
X21876D01*
X21659Y31679D02*
X21876D01*
X22376Y32629D02*
Y33043D01*
X22159Y32629D02*
Y33043D01*
Y32629D02*
X22376D01*
X22159Y33043D02*
X22376D01*
X21876Y32629D02*
Y33043D01*
X21659Y32629D02*
Y33043D01*
Y32629D02*
X21876D01*
X21659Y33043D02*
X21876D01*
X25256Y24063D02*
X25944D01*
X25256Y24437D02*
X25944D01*
Y24063D02*
Y24437D01*
X25256Y24063D02*
Y24437D01*
X69508Y16093D02*
Y16507D01*
X69292Y16093D02*
Y16507D01*
Y16093D02*
X69508D01*
X69292Y16507D02*
X69508D01*
X36746Y25031D02*
Y25819D01*
X36254Y25031D02*
Y25819D01*
X36746D01*
X36254Y25031D02*
X36746D01*
X35192Y25482D02*
X35408D01*
X35192Y25068D02*
X35408D01*
Y25482D01*
X35192Y25068D02*
Y25482D01*
X35692D02*
X35908D01*
X35692Y25068D02*
X35908D01*
Y25482D01*
X35692Y25068D02*
Y25482D01*
X36114Y24321D02*
Y24537D01*
X35701Y24321D02*
Y24537D01*
Y24321D02*
X36114D01*
X35701Y24537D02*
X36114D01*
X69292Y15143D02*
Y15557D01*
X69508Y15143D02*
Y15557D01*
X69292D02*
X69508D01*
X69292Y15143D02*
X69508D01*
X68792D02*
Y15557D01*
X69008Y15143D02*
Y15557D01*
X68792D02*
X69008D01*
X68792Y15143D02*
X69008D01*
X32842Y27193D02*
Y27607D01*
X33058Y27193D02*
Y27607D01*
X32842Y27193D02*
X33058D01*
X32842Y27607D02*
X33058D01*
X32342Y27193D02*
Y27607D01*
X32558Y27193D02*
Y27607D01*
X32342Y27193D02*
X32558D01*
X32342Y27607D02*
X32558D01*
X26685Y27430D02*
X27315D01*
X26685Y26170D02*
X27315D01*
X26685D02*
Y27430D01*
X27315Y26170D02*
Y27430D01*
X28713Y26456D02*
X29087D01*
X28713Y27144D02*
X29087D01*
Y26456D02*
Y27144D01*
X28713Y26456D02*
Y27144D01*
X29263Y26456D02*
X29637D01*
X29263Y27144D02*
X29637D01*
Y26456D02*
Y27144D01*
X29263Y26456D02*
Y27144D01*
X28163Y26456D02*
X28537D01*
X28163Y27144D02*
X28537D01*
Y26456D02*
Y27144D01*
X28163Y26456D02*
Y27144D01*
X29957Y25592D02*
Y25808D01*
X29543Y25592D02*
Y25808D01*
X29957D01*
X29543Y25592D02*
X29957D01*
Y24642D02*
Y24858D01*
X29543Y24642D02*
Y24858D01*
X29957D01*
X29543Y24642D02*
X29957D01*
Y23742D02*
Y23958D01*
X29543Y23742D02*
Y23958D01*
X29957D01*
X29543Y23742D02*
X29957D01*
Y23242D02*
Y23458D01*
X29543Y23242D02*
Y23458D01*
X29957D01*
X29543Y23242D02*
X29957D01*
Y25242D02*
Y25458D01*
X29543Y25242D02*
Y25458D01*
X29957D01*
X29543Y25242D02*
X29957D01*
X27504Y26406D02*
X27996D01*
X27504Y27194D02*
X27996D01*
Y26406D02*
Y27194D01*
X27504Y26406D02*
Y27194D01*
X42292Y23778D02*
X43473D01*
X42292Y22322D02*
X43473D01*
X42292D02*
Y23778D01*
X43473Y22322D02*
Y23778D01*
X40942D02*
X42123D01*
X40942Y22322D02*
X42123D01*
X40942D02*
Y23778D01*
X42123Y22322D02*
Y23778D01*
X39592D02*
X40773D01*
X39592Y22322D02*
X40773D01*
X39592D02*
Y23778D01*
X40773Y22322D02*
Y23778D01*
X38242D02*
X39423D01*
X38242Y22322D02*
X39423D01*
X38242D02*
Y23778D01*
X39423Y22322D02*
Y23778D01*
X35296Y22656D02*
Y23444D01*
X34804Y22656D02*
Y23444D01*
Y22656D02*
X35296D01*
X34804Y23444D02*
X35296D01*
X32993Y23892D02*
Y24108D01*
X33407Y23892D02*
Y24108D01*
X32993Y23892D02*
X33407D01*
X32993Y24108D02*
X33407D01*
X32993Y23242D02*
Y23458D01*
X33407Y23242D02*
Y23458D01*
X32993Y23242D02*
X33407D01*
X32993Y23458D02*
X33407D01*
X32993Y25542D02*
Y25758D01*
X33407Y25542D02*
Y25758D01*
X32993Y25542D02*
X33407D01*
X32993Y25758D02*
X33407D01*
X32993Y24992D02*
Y25208D01*
X33407Y24992D02*
Y25208D01*
X32993Y24992D02*
X33407D01*
X32993Y25208D02*
X33407D01*
X32993Y24442D02*
Y24658D01*
X33407Y24442D02*
Y24658D01*
X32993Y24442D02*
X33407D01*
X32993Y24658D02*
X33407D01*
X34637Y22706D02*
Y23394D01*
X34263Y22706D02*
Y23394D01*
Y22706D02*
X34637D01*
X34263Y23394D02*
X34637D01*
X25493Y33592D02*
X25907D01*
X25493Y33808D02*
X25907D01*
Y33592D02*
Y33808D01*
X25493Y33592D02*
Y33808D01*
X24593Y33808D02*
X25007D01*
X24593Y33592D02*
X25007D01*
X24593D02*
Y33808D01*
X25007Y33592D02*
Y33808D01*
X25043Y33092D02*
X25457D01*
X25043Y33308D02*
X25457D01*
Y33092D02*
Y33308D01*
X25043Y33092D02*
Y33308D01*
X22982Y35738D02*
Y35955D01*
X22569Y35738D02*
Y35955D01*
Y35738D02*
X22982D01*
X22569Y35955D02*
X22982D01*
X23943Y35342D02*
X24357D01*
X23943Y35558D02*
X24357D01*
Y35342D02*
Y35558D01*
X23943Y35342D02*
Y35558D01*
X24504Y34193D02*
Y34607D01*
X23796Y34193D02*
Y34607D01*
Y34193D02*
X24504D01*
X23796Y34607D02*
X24504D01*
X23943Y34842D02*
X24357D01*
X23943Y35058D02*
X24357D01*
Y34842D02*
Y35058D01*
X23943Y34842D02*
Y35058D01*
X23342Y35043D02*
Y35457D01*
X23558Y35043D02*
Y35457D01*
X23342Y35043D02*
X23558D01*
X23342Y35457D02*
X23558D01*
X22842Y34643D02*
Y35057D01*
X23058Y34643D02*
Y35057D01*
X22842Y34643D02*
X23058D01*
X22842Y35057D02*
X23058D01*
X48542Y31707D02*
X48758D01*
X48542Y31293D02*
X48758D01*
X48542D02*
Y31707D01*
X48758Y31293D02*
Y31707D01*
X11242Y46443D02*
X11458D01*
X11242Y46857D02*
X11458D01*
Y46443D02*
Y46857D01*
X11242Y46443D02*
Y46857D01*
X48042Y30343D02*
X48258D01*
X48042Y30757D02*
X48258D01*
Y30343D02*
Y30757D01*
X48042Y30343D02*
Y30757D01*
X48542Y30343D02*
X48758D01*
X48542Y30757D02*
X48758D01*
Y30343D02*
Y30757D01*
X48542Y30343D02*
Y30757D01*
X11742Y47807D02*
X11958D01*
X11742Y47393D02*
X11958D01*
X11742D02*
Y47807D01*
X11958Y47393D02*
Y47807D01*
X11242D02*
X11458D01*
X11242Y47393D02*
X11458D01*
X11242D02*
Y47807D01*
X11458Y47393D02*
Y47807D01*
X27604Y35544D02*
X28096D01*
X27604Y34756D02*
X28096D01*
X27604D02*
Y35544D01*
X28096Y34756D02*
Y35544D01*
X26142Y35357D02*
X26358D01*
X26142Y34943D02*
X26358D01*
X26142D02*
Y35357D01*
X26358Y34943D02*
Y35357D01*
X26513Y34806D02*
X26887D01*
X26513Y35494D02*
X26887D01*
Y34806D02*
Y35494D01*
X26513Y34806D02*
Y35494D01*
X25792Y35357D02*
X26008D01*
X25792Y34943D02*
X26008D01*
X25792D02*
Y35357D01*
X26008Y34943D02*
Y35357D01*
X27063Y34806D02*
X27437D01*
X27063Y35494D02*
X27437D01*
Y34806D02*
Y35494D01*
X27063Y34806D02*
Y35494D01*
X19113Y39804D02*
X19487D01*
X19113Y39116D02*
X19487D01*
X19113D02*
Y39804D01*
X19487Y39116D02*
Y39804D01*
X21313D02*
X21687D01*
X21313Y39116D02*
X21687D01*
X21313D02*
Y39804D01*
X21687Y39116D02*
Y39804D01*
X20763D02*
X21137D01*
X20763Y39116D02*
X21137D01*
X20763D02*
Y39804D01*
X21137Y39116D02*
Y39804D01*
X20587Y39116D02*
Y39804D01*
X20213Y39116D02*
Y39804D01*
Y39116D02*
X20587D01*
X20213Y39804D02*
X20587D01*
X18454Y39066D02*
X18946D01*
X18454Y39854D02*
X18946D01*
Y39066D02*
Y39854D01*
X18454Y39066D02*
Y39854D01*
X23242Y39253D02*
Y39667D01*
X23458Y39253D02*
Y39667D01*
X23242D02*
X23458D01*
X23242Y39253D02*
X23458D01*
X22892D02*
X23108D01*
X22892Y39667D02*
X23108D01*
Y39253D02*
Y39667D01*
X22892Y39253D02*
Y39667D01*
X22542Y39253D02*
Y39667D01*
X22758Y39253D02*
Y39667D01*
X22542D02*
X22758D01*
X22542Y39253D02*
X22758D01*
X22192D02*
Y39667D01*
X22408Y39253D02*
Y39667D01*
X22192D02*
X22408D01*
X22192Y39253D02*
X22408D01*
X21842D02*
Y39667D01*
X22058Y39253D02*
Y39667D01*
X21842D02*
X22058D01*
X21842Y39253D02*
X22058D01*
X45257Y21992D02*
Y22208D01*
X44843Y21992D02*
Y22208D01*
Y21992D02*
X45257D01*
X44843Y22208D02*
X45257D01*
X44906Y23163D02*
Y23537D01*
X45594Y23163D02*
Y23537D01*
X44906D02*
X45594D01*
X44906Y23163D02*
X45594D01*
X45257Y22542D02*
Y22758D01*
X44843Y22542D02*
Y22758D01*
Y22542D02*
X45257D01*
X44843Y22758D02*
X45257D01*
X44906Y23913D02*
Y24287D01*
X45594Y23913D02*
Y24287D01*
X44906D02*
X45594D01*
X44906Y23913D02*
X45594D01*
X39393Y19992D02*
X39807D01*
X39393Y20208D02*
X39807D01*
X39393Y19992D02*
Y20208D01*
X39807Y19992D02*
Y20208D01*
X43543Y18108D02*
X43957D01*
X43543Y17892D02*
X43957D01*
Y18108D01*
X43543Y17892D02*
Y18108D01*
X39393Y19542D02*
X39807D01*
X39393Y19758D02*
X39807D01*
X39393Y19542D02*
Y19758D01*
X39807Y19542D02*
Y19758D01*
X43543Y18558D02*
X43957D01*
X43543Y18342D02*
X43957D01*
Y18558D01*
X43543Y18342D02*
Y18558D01*
X39206Y18654D02*
Y19146D01*
X39994Y18654D02*
Y19146D01*
X39206Y18654D02*
X39994D01*
X39206Y19146D02*
X39994D01*
X44144Y17054D02*
Y17546D01*
X43356Y17054D02*
Y17546D01*
X44144D01*
X43356Y17054D02*
X44144D01*
X40142Y20707D02*
X40358D01*
X40142Y20293D02*
X40358D01*
Y20707D01*
X40142Y20293D02*
Y20707D01*
X39206Y17704D02*
Y18196D01*
X39994Y17704D02*
Y18196D01*
X39206Y17704D02*
X39994D01*
X39206Y18196D02*
X39994D01*
X44144Y16204D02*
Y16696D01*
X43356Y16204D02*
Y16696D01*
X44144D01*
X43356Y16204D02*
X44144D01*
X40142Y19393D02*
X40358D01*
X40142Y19807D02*
X40358D01*
X40142Y19393D02*
Y19807D01*
X40358Y19393D02*
Y19807D01*
X43814Y19088D02*
X44286D01*
X43814Y18812D02*
X44286D01*
X43814D02*
Y19088D01*
X44286Y18812D02*
Y19088D01*
X46914Y20796D02*
X47386D01*
X46914Y21072D02*
X47386D01*
Y20796D02*
Y21072D01*
X46914Y20796D02*
Y21072D01*
X46912Y19714D02*
Y20186D01*
X47188Y19714D02*
Y20186D01*
X46912Y19714D02*
X47188D01*
X46912Y20186D02*
X47188D01*
X43564Y20284D02*
Y20560D01*
X44036Y20284D02*
Y20560D01*
X43564D02*
X44036D01*
X43564Y20284D02*
X44036D01*
X40214Y18812D02*
X40686D01*
X40214Y19088D02*
X40686D01*
Y18812D02*
Y19088D01*
X40214Y18812D02*
Y19088D01*
Y21012D02*
X40686D01*
X40214Y21288D02*
X40686D01*
Y21012D02*
Y21288D01*
X40214Y21012D02*
Y21288D01*
X43774Y43359D02*
X44226D01*
X43774Y43595D02*
X44226D01*
Y43359D02*
Y43595D01*
X43774Y43359D02*
Y43595D01*
X43793Y42717D02*
X44207D01*
X43793Y42933D02*
X44207D01*
Y42717D02*
Y42933D01*
X43793Y42717D02*
Y42933D01*
Y41767D02*
Y41983D01*
X44207Y41767D02*
Y41983D01*
X43793D02*
X44207D01*
X43793Y41767D02*
X44207D01*
X43774Y41105D02*
X44226D01*
X43774Y41341D02*
X44226D01*
Y41105D02*
Y41341D01*
X43774Y41105D02*
Y41341D01*
X10292Y8307D02*
X10508D01*
X10292Y7893D02*
X10508D01*
X10292D02*
Y8307D01*
X10508Y7893D02*
Y8307D01*
X16542D02*
X16758D01*
X16542Y7893D02*
X16758D01*
X16542D02*
Y8307D01*
X16758Y7893D02*
Y8307D01*
X22792D02*
X23008D01*
X22792Y7893D02*
X23008D01*
X22792D02*
Y8307D01*
X23008Y7893D02*
Y8307D01*
X29042D02*
X29258D01*
X29042Y7893D02*
X29258D01*
X29042D02*
Y8307D01*
X29258Y7893D02*
Y8307D01*
X35292D02*
X35508D01*
X35292Y7893D02*
X35508D01*
X35292D02*
Y8307D01*
X35508Y7893D02*
Y8307D01*
X41542D02*
X41758D01*
X41542Y7893D02*
X41758D01*
X41542D02*
Y8307D01*
X41758Y7893D02*
Y8307D01*
X48008Y7893D02*
Y8307D01*
X47792Y7893D02*
Y8307D01*
Y7893D02*
X48008D01*
X47792Y8307D02*
X48008D01*
X54258Y7893D02*
Y8307D01*
X54042Y7893D02*
Y8307D01*
Y7893D02*
X54258D01*
X54042Y8307D02*
X54258D01*
X9963Y6894D02*
X10337D01*
X9963Y6206D02*
X10337D01*
X9963D02*
Y6894D01*
X10337Y6206D02*
Y6894D01*
X16213D02*
X16587D01*
X16213Y6206D02*
X16587D01*
X16213D02*
Y6894D01*
X16587Y6206D02*
Y6894D01*
X22463D02*
X22837D01*
X22463Y6206D02*
X22837D01*
X22463D02*
Y6894D01*
X22837Y6206D02*
Y6894D01*
X28713D02*
X29087D01*
X28713Y6206D02*
X29087D01*
X28713D02*
Y6894D01*
X29087Y6206D02*
Y6894D01*
X34963D02*
X35337D01*
X34963Y6206D02*
X35337D01*
X34963D02*
Y6894D01*
X35337Y6206D02*
Y6894D01*
X41213D02*
X41587D01*
X41213Y6206D02*
X41587D01*
X41213D02*
Y6894D01*
X41587Y6206D02*
Y6894D01*
X47837Y6206D02*
Y6894D01*
X47463Y6206D02*
Y6894D01*
Y6206D02*
X47837D01*
X47463Y6894D02*
X47837D01*
X54087Y6206D02*
Y6894D01*
X53713Y6206D02*
Y6894D01*
Y6206D02*
X54087D01*
X53713Y6894D02*
X54087D01*
X9792Y8307D02*
X10008D01*
X9792Y7893D02*
X10008D01*
X9792D02*
Y8307D01*
X10008Y7893D02*
Y8307D01*
X16042D02*
X16258D01*
X16042Y7893D02*
X16258D01*
X16042D02*
Y8307D01*
X16258Y7893D02*
Y8307D01*
X22292D02*
X22508D01*
X22292Y7893D02*
X22508D01*
X22292D02*
Y8307D01*
X22508Y7893D02*
Y8307D01*
X28542D02*
X28758D01*
X28542Y7893D02*
X28758D01*
X28542D02*
Y8307D01*
X28758Y7893D02*
Y8307D01*
X34792D02*
X35008D01*
X34792Y7893D02*
X35008D01*
X34792D02*
Y8307D01*
X35008Y7893D02*
Y8307D01*
X41042D02*
X41258D01*
X41042Y7893D02*
X41258D01*
X41042D02*
Y8307D01*
X41258Y7893D02*
Y8307D01*
X47508Y7893D02*
Y8307D01*
X47292Y7893D02*
Y8307D01*
Y7893D02*
X47508D01*
X47292Y8307D02*
X47508D01*
X53758Y7893D02*
Y8307D01*
X53542Y7893D02*
Y8307D01*
Y7893D02*
X53758D01*
X53542Y8307D02*
X53758D01*
X10663Y6894D02*
X11037D01*
X10663Y6206D02*
X11037D01*
X10663D02*
Y6894D01*
X11037Y6206D02*
Y6894D01*
X16913D02*
X17287D01*
X16913Y6206D02*
X17287D01*
X16913D02*
Y6894D01*
X17287Y6206D02*
Y6894D01*
X23163D02*
X23537D01*
X23163Y6206D02*
X23537D01*
X23163D02*
Y6894D01*
X23537Y6206D02*
Y6894D01*
X29413D02*
X29787D01*
X29413Y6206D02*
X29787D01*
X29413D02*
Y6894D01*
X29787Y6206D02*
Y6894D01*
X35663D02*
X36037D01*
X35663Y6206D02*
X36037D01*
X35663D02*
Y6894D01*
X36037Y6206D02*
Y6894D01*
X41913D02*
X42287D01*
X41913Y6206D02*
X42287D01*
X41913D02*
Y6894D01*
X42287Y6206D02*
Y6894D01*
X48537Y6206D02*
Y6894D01*
X48163Y6206D02*
Y6894D01*
Y6206D02*
X48537D01*
X48163Y6894D02*
X48537D01*
X10093Y11792D02*
Y12008D01*
X10507Y11792D02*
Y12008D01*
X10093Y11792D02*
X10507D01*
X10093Y12008D02*
X10507D01*
X16343Y11792D02*
Y12008D01*
X16757Y11792D02*
Y12008D01*
X16343Y11792D02*
X16757D01*
X16343Y12008D02*
X16757D01*
X22593Y11792D02*
Y12008D01*
X23007Y11792D02*
Y12008D01*
X22593Y11792D02*
X23007D01*
X22593Y12008D02*
X23007D01*
X28843Y11792D02*
Y12008D01*
X29257Y11792D02*
Y12008D01*
X28843Y11792D02*
X29257D01*
X28843Y12008D02*
X29257D01*
X35093Y11792D02*
Y12008D01*
X35507Y11792D02*
Y12008D01*
X35093Y11792D02*
X35507D01*
X35093Y12008D02*
X35507D01*
X41343Y11792D02*
Y12008D01*
X41757Y11792D02*
Y12008D01*
X41343Y11792D02*
X41757D01*
X41343Y12008D02*
X41757D01*
X47593D02*
X48007D01*
X47593Y11792D02*
X48007D01*
Y12008D01*
X47593Y11792D02*
Y12008D01*
X53843D02*
X54257D01*
X53843Y11792D02*
X54257D01*
Y12008D01*
X53843Y11792D02*
Y12008D01*
X7857Y9092D02*
Y9308D01*
X7443Y9092D02*
Y9308D01*
X7857D01*
X7443Y9092D02*
X7857D01*
X14107D02*
Y9308D01*
X13693Y9092D02*
Y9308D01*
X14107D01*
X13693Y9092D02*
X14107D01*
X20357D02*
Y9308D01*
X19943Y9092D02*
Y9308D01*
X20357D01*
X19943Y9092D02*
X20357D01*
X26607D02*
Y9308D01*
X26193Y9092D02*
Y9308D01*
X26607D01*
X26193Y9092D02*
X26607D01*
X32857D02*
Y9308D01*
X32443Y9092D02*
Y9308D01*
X32857D01*
X32443Y9092D02*
X32857D01*
X39107D02*
Y9308D01*
X38693Y9092D02*
Y9308D01*
X39107D01*
X38693Y9092D02*
X39107D01*
X44943D02*
X45357D01*
X44943Y9308D02*
X45357D01*
X44943Y9092D02*
Y9308D01*
X45357Y9092D02*
Y9308D01*
X51193Y9092D02*
X51607D01*
X51193Y9308D02*
X51607D01*
X51193Y9092D02*
Y9308D01*
X51607Y9092D02*
Y9308D01*
X10093Y11342D02*
Y11558D01*
X10507Y11342D02*
Y11558D01*
X10093Y11342D02*
X10507D01*
X10093Y11558D02*
X10507D01*
X16343Y11342D02*
Y11558D01*
X16757Y11342D02*
Y11558D01*
X16343Y11342D02*
X16757D01*
X16343Y11558D02*
X16757D01*
X22593Y11342D02*
Y11558D01*
X23007Y11342D02*
Y11558D01*
X22593Y11342D02*
X23007D01*
X22593Y11558D02*
X23007D01*
X28843Y11342D02*
Y11558D01*
X29257Y11342D02*
Y11558D01*
X28843Y11342D02*
X29257D01*
X28843Y11558D02*
X29257D01*
X35093Y11342D02*
Y11558D01*
X35507Y11342D02*
Y11558D01*
X35093Y11342D02*
X35507D01*
X35093Y11558D02*
X35507D01*
X41343Y11342D02*
Y11558D01*
X41757Y11342D02*
Y11558D01*
X41343Y11342D02*
X41757D01*
X41343Y11558D02*
X41757D01*
X47593D02*
X48007D01*
X47593Y11342D02*
X48007D01*
Y11558D01*
X47593Y11342D02*
Y11558D01*
X53843D02*
X54257D01*
X53843Y11342D02*
X54257D01*
Y11558D01*
X53843Y11342D02*
Y11558D01*
X7857Y9542D02*
Y9758D01*
X7443Y9542D02*
Y9758D01*
X7857D01*
X7443Y9542D02*
X7857D01*
X14107D02*
Y9758D01*
X13693Y9542D02*
Y9758D01*
X14107D01*
X13693Y9542D02*
X14107D01*
X20357D02*
Y9758D01*
X19943Y9542D02*
Y9758D01*
X20357D01*
X19943Y9542D02*
X20357D01*
X26607D02*
Y9758D01*
X26193Y9542D02*
Y9758D01*
X26607D01*
X26193Y9542D02*
X26607D01*
X32857D02*
Y9758D01*
X32443Y9542D02*
Y9758D01*
X32857D01*
X32443Y9542D02*
X32857D01*
X39107D02*
Y9758D01*
X38693Y9542D02*
Y9758D01*
X39107D01*
X38693Y9542D02*
X39107D01*
X44943D02*
X45357D01*
X44943Y9758D02*
X45357D01*
X44943Y9542D02*
Y9758D01*
X45357Y9542D02*
Y9758D01*
X51193Y9542D02*
X51607D01*
X51193Y9758D02*
X51607D01*
X51193Y9542D02*
Y9758D01*
X51607Y9542D02*
Y9758D01*
X9906Y12304D02*
X10694D01*
X9906Y12796D02*
X10694D01*
X9906Y12304D02*
Y12796D01*
X10694Y12304D02*
Y12796D01*
X16156Y12304D02*
X16944D01*
X16156Y12796D02*
X16944D01*
X16156Y12304D02*
Y12796D01*
X16944Y12304D02*
Y12796D01*
X22406Y12304D02*
X23194D01*
X22406Y12796D02*
X23194D01*
X22406Y12304D02*
Y12796D01*
X23194Y12304D02*
Y12796D01*
X28656Y12304D02*
X29444D01*
X28656Y12796D02*
X29444D01*
X28656Y12304D02*
Y12796D01*
X29444Y12304D02*
Y12796D01*
X34906Y12304D02*
X35694D01*
X34906Y12796D02*
X35694D01*
X34906Y12304D02*
Y12796D01*
X35694Y12304D02*
Y12796D01*
X41156Y12304D02*
X41944D01*
X41156Y12796D02*
X41944D01*
X41156Y12304D02*
Y12796D01*
X41944Y12304D02*
Y12796D01*
X48194Y12304D02*
Y12796D01*
X47406Y12304D02*
Y12796D01*
X48194D01*
X47406Y12304D02*
X48194D01*
X54444D02*
Y12796D01*
X53656Y12304D02*
Y12796D01*
X54444D01*
X53656Y12304D02*
X54444D01*
X7106Y7646D02*
X7894D01*
X7106Y7154D02*
X7894D01*
Y7646D01*
X7106Y7154D02*
Y7646D01*
X13356D02*
X14144D01*
X13356Y7154D02*
X14144D01*
Y7646D01*
X13356Y7154D02*
Y7646D01*
X19606D02*
X20394D01*
X19606Y7154D02*
X20394D01*
Y7646D01*
X19606Y7154D02*
Y7646D01*
X25856D02*
X26644D01*
X25856Y7154D02*
X26644D01*
Y7646D01*
X25856Y7154D02*
Y7646D01*
X32106D02*
X32894D01*
X32106Y7154D02*
X32894D01*
Y7646D01*
X32106Y7154D02*
Y7646D01*
X38356D02*
X39144D01*
X38356Y7154D02*
X39144D01*
Y7646D01*
X38356Y7154D02*
Y7646D01*
X44606Y7154D02*
Y7646D01*
X45394Y7154D02*
Y7646D01*
X44606Y7154D02*
X45394D01*
X44606Y7646D02*
X45394D01*
X50856Y7154D02*
Y7646D01*
X51644Y7154D02*
Y7646D01*
X50856Y7154D02*
X51644D01*
X50856Y7646D02*
X51644D01*
X8243Y11642D02*
Y11858D01*
X8657Y11642D02*
Y11858D01*
X8243D02*
X8657D01*
X8243Y11642D02*
X8657D01*
X14493D02*
X14907D01*
X14493Y11858D02*
X14907D01*
Y11642D02*
Y11858D01*
X14493Y11642D02*
Y11858D01*
X20743Y11642D02*
X21157D01*
X20743Y11858D02*
X21157D01*
Y11642D02*
Y11858D01*
X20743Y11642D02*
Y11858D01*
X26993Y11642D02*
X27407D01*
X26993Y11858D02*
X27407D01*
Y11642D02*
Y11858D01*
X26993Y11642D02*
Y11858D01*
X33243Y11642D02*
X33657D01*
X33243Y11858D02*
X33657D01*
Y11642D02*
Y11858D01*
X33243Y11642D02*
Y11858D01*
X39493Y11642D02*
X39907D01*
X39493Y11858D02*
X39907D01*
Y11642D02*
Y11858D01*
X39493Y11642D02*
Y11858D01*
X45743Y11642D02*
Y11858D01*
X46157Y11642D02*
Y11858D01*
X45743D02*
X46157D01*
X45743Y11642D02*
X46157D01*
X51993D02*
Y11858D01*
X52407Y11642D02*
Y11858D01*
X51993D02*
X52407D01*
X51993Y11642D02*
X52407D01*
X9906Y13154D02*
X10694D01*
X9906Y13646D02*
X10694D01*
X9906Y13154D02*
Y13646D01*
X10694Y13154D02*
Y13646D01*
X16156Y13154D02*
X16944D01*
X16156Y13646D02*
X16944D01*
X16156Y13154D02*
Y13646D01*
X16944Y13154D02*
Y13646D01*
X22406Y13154D02*
X23194D01*
X22406Y13646D02*
X23194D01*
X22406Y13154D02*
Y13646D01*
X23194Y13154D02*
Y13646D01*
X28656Y13154D02*
X29444D01*
X28656Y13646D02*
X29444D01*
X28656Y13154D02*
Y13646D01*
X29444Y13154D02*
Y13646D01*
X34906Y13154D02*
X35694D01*
X34906Y13646D02*
X35694D01*
X34906Y13154D02*
Y13646D01*
X35694Y13154D02*
Y13646D01*
X41156Y13154D02*
X41944D01*
X41156Y13646D02*
X41944D01*
X41156Y13154D02*
Y13646D01*
X41944Y13154D02*
Y13646D01*
X48194Y13154D02*
Y13646D01*
X47406Y13154D02*
Y13646D01*
X48194D01*
X47406Y13154D02*
X48194D01*
X54444D02*
Y13646D01*
X53656Y13154D02*
Y13646D01*
X54444D01*
X53656Y13154D02*
X54444D01*
X7106Y8496D02*
X7894D01*
X7106Y8004D02*
X7894D01*
Y8496D01*
X7106Y8004D02*
Y8496D01*
X13356D02*
X14144D01*
X13356Y8004D02*
X14144D01*
Y8496D01*
X13356Y8004D02*
Y8496D01*
X19606D02*
X20394D01*
X19606Y8004D02*
X20394D01*
Y8496D01*
X19606Y8004D02*
Y8496D01*
X25856D02*
X26644D01*
X25856Y8004D02*
X26644D01*
Y8496D01*
X25856Y8004D02*
Y8496D01*
X32106D02*
X32894D01*
X32106Y8004D02*
X32894D01*
Y8496D01*
X32106Y8004D02*
Y8496D01*
X38356D02*
X39144D01*
X38356Y8004D02*
X39144D01*
Y8496D01*
X38356Y8004D02*
Y8496D01*
X44606Y8004D02*
Y8496D01*
X45394Y8004D02*
Y8496D01*
X44606Y8004D02*
X45394D01*
X44606Y8496D02*
X45394D01*
X50856Y8004D02*
Y8496D01*
X51644Y8004D02*
Y8496D01*
X50856Y8004D02*
X51644D01*
X50856Y8496D02*
X51644D01*
X9457Y11642D02*
Y11858D01*
X9043Y11642D02*
Y11858D01*
Y11642D02*
X9457D01*
X9043Y11858D02*
X9457D01*
X15293D02*
X15707D01*
X15293Y11642D02*
X15707D01*
X15293D02*
Y11858D01*
X15707Y11642D02*
Y11858D01*
X21543D02*
X21957D01*
X21543Y11642D02*
X21957D01*
X21543D02*
Y11858D01*
X21957Y11642D02*
Y11858D01*
X27793D02*
X28207D01*
X27793Y11642D02*
X28207D01*
X27793D02*
Y11858D01*
X28207Y11642D02*
Y11858D01*
X34043D02*
X34457D01*
X34043Y11642D02*
X34457D01*
X34043D02*
Y11858D01*
X34457Y11642D02*
Y11858D01*
X40293D02*
X40707D01*
X40293Y11642D02*
X40707D01*
X40293D02*
Y11858D01*
X40707Y11642D02*
Y11858D01*
X46957Y11642D02*
Y11858D01*
X46543Y11642D02*
Y11858D01*
Y11642D02*
X46957D01*
X46543Y11858D02*
X46957D01*
X53207Y11642D02*
Y11858D01*
X52793Y11642D02*
Y11858D01*
Y11642D02*
X53207D01*
X52793Y11858D02*
X53207D01*
X6864Y8712D02*
X7336D01*
X6864Y8988D02*
X7336D01*
Y8712D02*
Y8988D01*
X6864Y8712D02*
Y8988D01*
X13114Y8712D02*
Y8988D01*
X13586Y8712D02*
Y8988D01*
X13114D02*
X13586D01*
X13114Y8712D02*
X13586D01*
X19364D02*
Y8988D01*
X19836Y8712D02*
Y8988D01*
X19364D02*
X19836D01*
X19364Y8712D02*
X19836D01*
X25614D02*
Y8988D01*
X26086Y8712D02*
Y8988D01*
X25614D02*
X26086D01*
X25614Y8712D02*
X26086D01*
X31864D02*
Y8988D01*
X32336Y8712D02*
Y8988D01*
X31864D02*
X32336D01*
X31864Y8712D02*
X32336D01*
X38114D02*
Y8988D01*
X38586Y8712D02*
Y8988D01*
X38114D02*
X38586D01*
X38114Y8712D02*
X38586D01*
X44364D02*
X44836D01*
X44364Y8988D02*
X44836D01*
Y8712D02*
Y8988D01*
X44364Y8712D02*
Y8988D01*
X50614Y8712D02*
X51086D01*
X50614Y8988D02*
X51086D01*
Y8712D02*
Y8988D01*
X50614Y8712D02*
Y8988D01*
X9612Y4464D02*
Y4936D01*
X9888Y4464D02*
Y4936D01*
X9612Y4464D02*
X9888D01*
X9612Y4936D02*
X9888D01*
X15862D02*
X16138D01*
X15862Y4464D02*
X16138D01*
Y4936D01*
X15862Y4464D02*
Y4936D01*
X22112D02*
X22388D01*
X22112Y4464D02*
X22388D01*
Y4936D01*
X22112Y4464D02*
Y4936D01*
X28362D02*
X28638D01*
X28362Y4464D02*
X28638D01*
Y4936D01*
X28362Y4464D02*
Y4936D01*
X34612D02*
X34888D01*
X34612Y4464D02*
X34888D01*
Y4936D01*
X34612Y4464D02*
Y4936D01*
X40862D02*
X41138D01*
X40862Y4464D02*
X41138D01*
Y4936D01*
X40862Y4464D02*
Y4936D01*
X47112Y4464D02*
Y4936D01*
X47388Y4464D02*
Y4936D01*
X47112Y4464D02*
X47388D01*
X47112Y4936D02*
X47388D01*
X53362Y4464D02*
Y4936D01*
X53638Y4464D02*
Y4936D01*
X53362Y4464D02*
X53638D01*
X53362Y4936D02*
X53638D01*
X8514Y5438D02*
X8986D01*
X8514Y5162D02*
X8986D01*
X8514D02*
Y5438D01*
X8986Y5162D02*
Y5438D01*
X15236Y5162D02*
Y5438D01*
X14764Y5162D02*
Y5438D01*
Y5162D02*
X15236D01*
X14764Y5438D02*
X15236D01*
X21486Y5162D02*
Y5438D01*
X21014Y5162D02*
Y5438D01*
Y5162D02*
X21486D01*
X21014Y5438D02*
X21486D01*
X27736Y5162D02*
Y5438D01*
X27264Y5162D02*
Y5438D01*
Y5162D02*
X27736D01*
X27264Y5438D02*
X27736D01*
X33986Y5162D02*
Y5438D01*
X33514Y5162D02*
Y5438D01*
Y5162D02*
X33986D01*
X33514Y5438D02*
X33986D01*
X40236Y5162D02*
Y5438D01*
X39764Y5162D02*
Y5438D01*
Y5162D02*
X40236D01*
X39764Y5438D02*
X40236D01*
X46014D02*
X46486D01*
X46014Y5162D02*
X46486D01*
X46014D02*
Y5438D01*
X46486Y5162D02*
Y5438D01*
X52736Y5162D02*
Y5438D01*
X52264Y5162D02*
Y5438D01*
Y5162D02*
X52736D01*
X52264Y5438D02*
X52736D01*
X9112Y8064D02*
Y8536D01*
X9388Y8064D02*
Y8536D01*
X9112Y8064D02*
X9388D01*
X9112Y8536D02*
X9388D01*
X15362D02*
X15638D01*
X15362Y8064D02*
X15638D01*
Y8536D01*
X15362Y8064D02*
Y8536D01*
X21612D02*
X21888D01*
X21612Y8064D02*
X21888D01*
Y8536D01*
X21612Y8064D02*
Y8536D01*
X27862Y8064D02*
Y8536D01*
X28138Y8064D02*
Y8536D01*
X27862Y8064D02*
X28138D01*
X27862Y8536D02*
X28138D01*
X34112D02*
X34388D01*
X34112Y8064D02*
X34388D01*
Y8536D01*
X34112Y8064D02*
Y8536D01*
X40362D02*
X40638D01*
X40362Y8064D02*
X40638D01*
Y8536D01*
X40362Y8064D02*
Y8536D01*
X46612Y8064D02*
Y8536D01*
X46888Y8064D02*
Y8536D01*
X46612Y8064D02*
X46888D01*
X46612Y8536D02*
X46888D01*
X52862Y8064D02*
Y8536D01*
X53138Y8064D02*
Y8536D01*
X52862Y8064D02*
X53138D01*
X52862Y8536D02*
X53138D01*
X7612Y11414D02*
Y11886D01*
X7888Y11414D02*
Y11886D01*
X7612Y11414D02*
X7888D01*
X7612Y11886D02*
X7888D01*
X13862D02*
X14138D01*
X13862Y11414D02*
X14138D01*
Y11886D01*
X13862Y11414D02*
Y11886D01*
X20112D02*
X20388D01*
X20112Y11414D02*
X20388D01*
Y11886D01*
X20112Y11414D02*
Y11886D01*
X26362D02*
X26638D01*
X26362Y11414D02*
X26638D01*
Y11886D01*
X26362Y11414D02*
Y11886D01*
X32612D02*
X32888D01*
X32612Y11414D02*
X32888D01*
Y11886D01*
X32612Y11414D02*
Y11886D01*
X38862D02*
X39138D01*
X38862Y11414D02*
X39138D01*
Y11886D01*
X38862Y11414D02*
Y11886D01*
X45112Y11414D02*
Y11886D01*
X45388Y11414D02*
Y11886D01*
X45112Y11414D02*
X45388D01*
X45112Y11886D02*
X45388D01*
X51362Y11414D02*
Y11886D01*
X51638Y11414D02*
Y11886D01*
X51362Y11414D02*
X51638D01*
X51362Y11886D02*
X51638D01*
X9812Y11414D02*
Y11886D01*
X10088Y11414D02*
Y11886D01*
X9812Y11414D02*
X10088D01*
X9812Y11886D02*
X10088D01*
X16062D02*
X16338D01*
X16062Y11414D02*
X16338D01*
Y11886D01*
X16062Y11414D02*
Y11886D01*
X22312D02*
X22588D01*
X22312Y11414D02*
X22588D01*
Y11886D01*
X22312Y11414D02*
Y11886D01*
X28562D02*
X28838D01*
X28562Y11414D02*
X28838D01*
Y11886D01*
X28562Y11414D02*
Y11886D01*
X34812D02*
X35088D01*
X34812Y11414D02*
X35088D01*
Y11886D01*
X34812Y11414D02*
Y11886D01*
X41062D02*
X41338D01*
X41062Y11414D02*
X41338D01*
Y11886D01*
X41062Y11414D02*
Y11886D01*
X47312Y11414D02*
Y11886D01*
X47588Y11414D02*
Y11886D01*
X47312Y11414D02*
X47588D01*
X47312Y11886D02*
X47588D01*
X28443Y18642D02*
Y18858D01*
X28857Y18642D02*
Y18858D01*
X28443Y18642D02*
X28857D01*
X28443Y18858D02*
X28857D01*
X29293Y18642D02*
Y18858D01*
X29707Y18642D02*
Y18858D01*
X29293Y18642D02*
X29707D01*
X29293Y18858D02*
X29707D01*
X30143Y18642D02*
Y18858D01*
X30557Y18642D02*
Y18858D01*
X30143Y18642D02*
X30557D01*
X30143Y18858D02*
X30557D01*
X30993Y18642D02*
Y18858D01*
X31407Y18642D02*
Y18858D01*
X30993Y18642D02*
X31407D01*
X30993Y18858D02*
X31407D01*
X31843Y18642D02*
Y18858D01*
X32257Y18642D02*
Y18858D01*
X31843Y18642D02*
X32257D01*
X31843Y18858D02*
X32257D01*
X32693Y18642D02*
Y18858D01*
X33107Y18642D02*
Y18858D01*
X32693Y18642D02*
X33107D01*
X32693Y18858D02*
X33107D01*
X33543Y18642D02*
Y18858D01*
X33957Y18642D02*
Y18858D01*
X33543Y18642D02*
X33957D01*
X33543Y18858D02*
X33957D01*
X34393Y18642D02*
Y18858D01*
X34807Y18642D02*
Y18858D01*
X34393Y18642D02*
X34807D01*
X34393Y18858D02*
X34807D01*
X101243Y66742D02*
Y66958D01*
X101657Y66742D02*
Y66958D01*
X101243Y66742D02*
X101657D01*
X101243Y66958D02*
X101657D01*
X107593Y65598D02*
Y65815D01*
X108007Y65598D02*
Y65815D01*
X107593Y65598D02*
X108007D01*
X107593Y65815D02*
X108007D01*
X105107Y64692D02*
Y64908D01*
X104693Y64692D02*
Y64908D01*
X105107D01*
X104693Y64692D02*
X105107D01*
X120544Y63254D02*
Y63746D01*
X119756Y63254D02*
Y63746D01*
Y63254D02*
X120544D01*
X119756Y63746D02*
X120544D01*
X119835Y62543D02*
Y62857D01*
X120465Y62543D02*
Y62857D01*
X119835D02*
X120465D01*
X119835Y62543D02*
X120465D01*
X103542Y63593D02*
X103758D01*
X103542Y64007D02*
X103758D01*
Y63593D02*
Y64007D01*
X103542Y63593D02*
Y64007D01*
X100836Y65487D02*
X101524D01*
X100836Y65113D02*
X101524D01*
X100836D02*
Y65487D01*
X101524Y65113D02*
Y65487D01*
X114685Y42800D02*
X115315D01*
Y43115D01*
X114685D02*
X115315D01*
X114685Y42800D02*
Y43115D01*
X108608Y33143D02*
Y33557D01*
X108392Y33143D02*
Y33557D01*
Y33143D02*
X108608D01*
X108392Y33557D02*
X108608D01*
Y13393D02*
Y13807D01*
X108392Y13393D02*
Y13807D01*
Y13393D02*
X108608D01*
X108392Y13807D02*
X108608D01*
X94355Y60999D02*
Y61215D01*
X93941Y60999D02*
Y61215D01*
Y60999D02*
X94355D01*
X93941Y61215D02*
X94355D01*
X108392Y32043D02*
Y32457D01*
X108608Y32043D02*
Y32457D01*
X108392D02*
X108608D01*
X108392Y32043D02*
X108608D01*
X108392Y12293D02*
X108608D01*
X108392Y12707D02*
X108608D01*
Y12293D02*
Y12707D01*
X108392Y12293D02*
Y12707D01*
X99442Y32693D02*
Y33107D01*
X99658Y32693D02*
Y33107D01*
X99442D02*
X99658D01*
X99442Y32693D02*
X99658D01*
X97541Y60494D02*
X97955D01*
X97541Y60711D02*
X97955D01*
Y60494D02*
Y60711D01*
X97541Y60494D02*
Y60711D01*
X103358Y33193D02*
Y33607D01*
X103142Y33193D02*
Y33607D01*
Y33193D02*
X103358D01*
X103142Y33607D02*
X103358D01*
X50393Y52858D02*
X50807D01*
X50393Y52642D02*
X50807D01*
X50393D02*
Y52858D01*
X50807Y52642D02*
Y52858D01*
X97041Y60899D02*
X97455D01*
X97041Y61115D02*
X97455D01*
Y60899D02*
Y61115D01*
X97041Y60899D02*
Y61115D01*
X98192Y33093D02*
Y33507D01*
X98408Y33093D02*
Y33507D01*
X98192D02*
X98408D01*
X98192Y33093D02*
X98408D01*
X97343Y31792D02*
X97757D01*
X97343Y32008D02*
X97757D01*
X97343Y31792D02*
Y32008D01*
X97757Y31792D02*
Y32008D01*
X96308Y36093D02*
Y36507D01*
X96092Y36093D02*
Y36507D01*
Y36093D02*
X96308D01*
X96092Y36507D02*
X96308D01*
X99692Y35543D02*
Y35957D01*
X99908Y35543D02*
Y35957D01*
X99692D02*
X99908D01*
X99692Y35543D02*
X99908D01*
X87793Y59408D02*
X88207D01*
X87793Y59192D02*
X88207D01*
X87793D02*
Y59408D01*
X88207Y59192D02*
Y59408D01*
X89492Y61093D02*
Y61507D01*
X89708Y61093D02*
Y61507D01*
X89492Y61093D02*
X89708D01*
X89492Y61507D02*
X89708D01*
X93292Y69143D02*
Y69557D01*
X93508Y69143D02*
Y69557D01*
X93292Y69143D02*
X93508D01*
X93292Y69557D02*
X93508D01*
X92792Y69143D02*
Y69557D01*
X93008Y69143D02*
Y69557D01*
X92792Y69143D02*
X93008D01*
X92792Y69557D02*
X93008D01*
X92292Y69143D02*
Y69557D01*
X92508Y69143D02*
Y69557D01*
X92292Y69143D02*
X92508D01*
X92292Y69557D02*
X92508D01*
X80024Y4596D02*
X80476D01*
X80024Y4359D02*
X80476D01*
X80024D02*
Y4596D01*
X80476Y4359D02*
Y4596D01*
X80457Y5021D02*
Y5238D01*
X80043Y5021D02*
Y5238D01*
Y5021D02*
X80457D01*
X80043Y5238D02*
X80457D01*
Y5971D02*
Y6188D01*
X80043Y5971D02*
Y6188D01*
Y5971D02*
X80457D01*
X80043Y6188D02*
X80457D01*
X80024Y6850D02*
X80476D01*
X80024Y6614D02*
X80476D01*
X80024D02*
Y6850D01*
X80476Y6614D02*
Y6850D01*
X70274Y4596D02*
X70726D01*
X70274Y4359D02*
X70726D01*
X70274D02*
Y4596D01*
X70726Y4359D02*
Y4596D01*
X70707Y5021D02*
Y5238D01*
X70293Y5021D02*
Y5238D01*
Y5021D02*
X70707D01*
X70293Y5238D02*
X70707D01*
Y5971D02*
Y6188D01*
X70293Y5971D02*
Y6188D01*
Y5971D02*
X70707D01*
X70293Y6188D02*
X70707D01*
X70274Y6850D02*
X70726D01*
X70274Y6614D02*
X70726D01*
X70274D02*
Y6850D01*
X70726Y6614D02*
Y6850D01*
X78074Y4596D02*
X78526D01*
X78074Y4359D02*
X78526D01*
X78074D02*
Y4596D01*
X78526Y4359D02*
Y4596D01*
X78507Y5021D02*
Y5238D01*
X78093Y5021D02*
Y5238D01*
Y5021D02*
X78507D01*
X78093Y5238D02*
X78507D01*
Y5971D02*
Y6188D01*
X78093Y5971D02*
Y6188D01*
Y5971D02*
X78507D01*
X78093Y6188D02*
X78507D01*
X78074Y6850D02*
X78526D01*
X78074Y6614D02*
X78526D01*
X78074D02*
Y6850D01*
X78526Y6614D02*
Y6850D01*
X68324Y4596D02*
X68776D01*
X68324Y4359D02*
X68776D01*
X68324D02*
Y4596D01*
X68776Y4359D02*
Y4596D01*
X68757Y5021D02*
Y5238D01*
X68343Y5021D02*
Y5238D01*
Y5021D02*
X68757D01*
X68343Y5238D02*
X68757D01*
Y5971D02*
Y6188D01*
X68343Y5971D02*
Y6188D01*
Y5971D02*
X68757D01*
X68343Y6188D02*
X68757D01*
X68324Y6850D02*
X68776D01*
X68324Y6614D02*
X68776D01*
X68324D02*
Y6850D01*
X68776Y6614D02*
Y6850D01*
X76124Y4596D02*
X76576D01*
X76124Y4359D02*
X76576D01*
X76124D02*
Y4596D01*
X76576Y4359D02*
Y4596D01*
X76557Y5021D02*
Y5238D01*
X76143Y5021D02*
Y5238D01*
Y5021D02*
X76557D01*
X76143Y5238D02*
X76557D01*
Y5971D02*
Y6188D01*
X76143Y5971D02*
Y6188D01*
Y5971D02*
X76557D01*
X76143Y6188D02*
X76557D01*
X76124Y6850D02*
X76576D01*
X76124Y6614D02*
X76576D01*
X76124D02*
Y6850D01*
X76576Y6614D02*
Y6850D01*
X66374Y4596D02*
X66826D01*
X66374Y4359D02*
X66826D01*
X66374D02*
Y4596D01*
X66826Y4359D02*
Y4596D01*
X66807Y5021D02*
Y5238D01*
X66393Y5021D02*
Y5238D01*
Y5021D02*
X66807D01*
X66393Y5238D02*
X66807D01*
Y5971D02*
Y6188D01*
X66393Y5971D02*
Y6188D01*
Y5971D02*
X66807D01*
X66393Y6188D02*
X66807D01*
X66374Y6850D02*
X66826D01*
X66374Y6614D02*
X66826D01*
X66374D02*
Y6850D01*
X66826Y6614D02*
Y6850D01*
X74174Y4596D02*
X74626D01*
X74174Y4359D02*
X74626D01*
X74174D02*
Y4596D01*
X74626Y4359D02*
Y4596D01*
X74607Y5021D02*
Y5238D01*
X74193Y5021D02*
Y5238D01*
Y5021D02*
X74607D01*
X74193Y5238D02*
X74607D01*
Y5971D02*
Y6188D01*
X74193Y5971D02*
Y6188D01*
Y5971D02*
X74607D01*
X74193Y6188D02*
X74607D01*
X74174Y6850D02*
X74626D01*
X74174Y6614D02*
X74626D01*
X74174D02*
Y6850D01*
X74626Y6614D02*
Y6850D01*
X81974Y4596D02*
X82426D01*
X81974Y4359D02*
X82426D01*
X81974D02*
Y4596D01*
X82426Y4359D02*
Y4596D01*
X82407Y5021D02*
Y5238D01*
X81993Y5021D02*
Y5238D01*
Y5021D02*
X82407D01*
X81993Y5238D02*
X82407D01*
Y5971D02*
Y6188D01*
X81993Y5971D02*
Y6188D01*
Y5971D02*
X82407D01*
X81993Y6188D02*
X82407D01*
X81974Y6850D02*
X82426D01*
X81974Y6614D02*
X82426D01*
X81974D02*
Y6850D01*
X82426Y6614D02*
Y6850D01*
X72224Y4596D02*
X72676D01*
X72224Y4359D02*
X72676D01*
X72224D02*
Y4596D01*
X72676Y4359D02*
Y4596D01*
X72657Y5021D02*
Y5238D01*
X72243Y5021D02*
Y5238D01*
Y5021D02*
X72657D01*
X72243Y5238D02*
X72657D01*
X97087Y4264D02*
X97480D01*
X97087Y4067D02*
Y4264D01*
Y4067D02*
X97480D01*
Y4264D01*
X95594Y7142D02*
X95988D01*
X95594Y6945D02*
Y7142D01*
Y6945D02*
X95988D01*
Y7142D01*
X93346Y6069D02*
Y6463D01*
Y6069D02*
X93543D01*
Y6463D01*
X93346D02*
X93543D01*
X99407Y4671D02*
X99624D01*
X99407Y4257D02*
X99624D01*
Y4671D01*
X99407Y4257D02*
Y4671D01*
X98072Y5268D02*
X98859D01*
Y5760D01*
X98072D02*
X98859D01*
X98072Y5268D02*
Y5760D01*
X9492Y67293D02*
X9708D01*
X9492Y67707D02*
X9708D01*
Y67293D02*
Y67707D01*
X9492Y67293D02*
Y67707D01*
X12692Y67293D02*
X12908D01*
X12692Y67707D02*
X12908D01*
Y67293D02*
Y67707D01*
X12692Y67293D02*
Y67707D01*
X15892Y67293D02*
X16108D01*
X15892Y67707D02*
X16108D01*
Y67293D02*
Y67707D01*
X15892Y67293D02*
Y67707D01*
X19092Y67293D02*
X19308D01*
X19092Y67707D02*
X19308D01*
Y67293D02*
Y67707D01*
X19092Y67293D02*
Y67707D01*
X19272Y46999D02*
X20059D01*
X19272Y47491D02*
X20059D01*
X19272Y46999D02*
Y47491D01*
X20059Y46999D02*
Y47491D01*
X19443Y47963D02*
X19857D01*
X19443Y47746D02*
X19857D01*
Y47963D01*
X19443Y47746D02*
Y47963D01*
X15646Y51106D02*
Y51894D01*
X15154Y51106D02*
Y51894D01*
Y51106D02*
X15646D01*
X15154Y51894D02*
X15646D01*
X15942Y51293D02*
X16158D01*
X15942Y51707D02*
X16158D01*
Y51293D02*
Y51707D01*
X15942Y51293D02*
Y51707D01*
X20307Y50542D02*
Y50758D01*
X19893Y50542D02*
Y50758D01*
X20307D01*
X19893Y50542D02*
X20307D01*
X26896Y46506D02*
Y47294D01*
X26404Y46506D02*
Y47294D01*
Y46506D02*
X26896D01*
X26404Y47294D02*
X26896D01*
X25942Y46693D02*
X26158D01*
X25942Y47107D02*
X26158D01*
Y46693D02*
Y47107D01*
X25942Y46693D02*
Y47107D01*
X95342Y52307D02*
X95558D01*
X95342Y51893D02*
X95558D01*
X95342D02*
Y52307D01*
X95558Y51893D02*
Y52307D01*
X87992D02*
X88208D01*
X87992Y51893D02*
X88208D01*
X87992D02*
Y52307D01*
X88208Y51893D02*
Y52307D01*
X116143Y27618D02*
X116457D01*
Y27382D02*
Y27618D01*
X116143Y27382D02*
X116457D01*
X116143D02*
Y27618D01*
Y29272D02*
X116457D01*
Y29035D02*
Y29272D01*
X116143Y29035D02*
X116457D01*
X116143D02*
Y29272D01*
Y30925D02*
X116457D01*
Y30689D02*
Y30925D01*
X116143Y30689D02*
X116457D01*
X116143D02*
Y30925D01*
X20690Y28180D02*
Y28692D01*
X21044Y28180D02*
Y28692D01*
X20690D02*
X21044D01*
X20690Y28180D02*
X21044D01*
X34077Y33644D02*
Y34156D01*
X33723Y33644D02*
Y34156D01*
Y33644D02*
X34077D01*
X33723Y34156D02*
X34077D01*
X13073Y40044D02*
Y40556D01*
X13427Y40044D02*
Y40556D01*
X13073D02*
X13427D01*
X13073Y40044D02*
X13427D01*
X43923Y46744D02*
Y47256D01*
X44277Y46744D02*
Y47256D01*
X43923D02*
X44277D01*
X43923Y46744D02*
X44277D01*
X51677Y44994D02*
Y45506D01*
X51323Y44994D02*
Y45506D01*
Y44994D02*
X51677D01*
X51323Y45506D02*
X51677D01*
X37023Y50544D02*
Y51056D01*
X37377Y50544D02*
Y51056D01*
X37023D02*
X37377D01*
X37023Y50544D02*
X37377D01*
X57577Y52194D02*
Y52706D01*
X57223Y52194D02*
Y52706D01*
Y52194D02*
X57577D01*
X57223Y52706D02*
X57577D01*
X43415Y69327D02*
X44085D01*
X43415Y68973D02*
X44085D01*
X43415D02*
Y69327D01*
X44085Y68973D02*
Y69327D01*
X108090Y57990D02*
X109310D01*
X108090Y59210D02*
X109310D01*
X108090Y57990D02*
Y59210D01*
X109310Y57990D02*
Y59210D01*
X108090Y56290D02*
X109310D01*
X108090Y57510D02*
X109310D01*
X108090Y56290D02*
Y57510D01*
X109310Y56290D02*
Y57510D01*
X48246Y19656D02*
Y20444D01*
X47754Y19656D02*
Y20444D01*
Y19656D02*
X48246D01*
X47754Y20444D02*
X48246D01*
X8506Y3154D02*
X9294D01*
X8506Y3646D02*
X9294D01*
X8506Y3154D02*
Y3646D01*
X9294Y3154D02*
Y3646D01*
X15544Y3154D02*
Y3646D01*
X14756Y3154D02*
Y3646D01*
X15544D01*
X14756Y3154D02*
X15544D01*
X21794D02*
Y3646D01*
X21006Y3154D02*
Y3646D01*
X21794D01*
X21006Y3154D02*
X21794D01*
X28044D02*
Y3646D01*
X27256Y3154D02*
Y3646D01*
X28044D01*
X27256Y3154D02*
X28044D01*
X34294D02*
Y3646D01*
X33506Y3154D02*
Y3646D01*
X34294D01*
X33506Y3154D02*
X34294D01*
X40544D02*
Y3646D01*
X39756Y3154D02*
Y3646D01*
X40544D01*
X39756Y3154D02*
X40544D01*
X46006D02*
X46794D01*
X46006Y3646D02*
X46794D01*
X46006Y3154D02*
Y3646D01*
X46794Y3154D02*
Y3646D01*
X78440Y69665D02*
X79660D01*
X78440Y70335D02*
X79660D01*
Y69665D02*
Y70335D01*
X78440Y69665D02*
Y70335D01*
X89285Y64390D02*
Y65610D01*
X88615Y64390D02*
Y65610D01*
X89285D01*
X88615Y64390D02*
X89285D01*
X88340Y66985D02*
X89560D01*
X88340Y66315D02*
X89560D01*
X88340D02*
Y66985D01*
X89560Y66315D02*
Y66985D01*
X10985Y67090D02*
Y68310D01*
X10315Y67090D02*
Y68310D01*
X10985D01*
X10315Y67090D02*
X10985D01*
X14185D02*
Y68310D01*
X13515Y67090D02*
Y68310D01*
X14185D01*
X13515Y67090D02*
X14185D01*
X17385D02*
Y68310D01*
X16715Y67090D02*
Y68310D01*
X17385D01*
X16715Y67090D02*
X17385D01*
X20585D02*
Y68310D01*
X19915Y67090D02*
Y68310D01*
X20585D01*
X19915Y67090D02*
X20585D01*
X100435Y36961D02*
Y38339D01*
X102365Y36961D02*
Y38339D01*
X100435Y36961D02*
X102365D01*
X100435Y38339D02*
X102365D01*
X100435Y23311D02*
Y24689D01*
X102365Y23311D02*
Y24689D01*
X100435Y23311D02*
X102365D01*
X100435Y24689D02*
X102365D01*
X100435Y15811D02*
Y17189D01*
X102365Y15811D02*
Y17189D01*
X100435Y15811D02*
X102365D01*
X100435Y17189D02*
X102365D01*
X100435Y30111D02*
Y31489D01*
X102365Y30111D02*
Y31489D01*
X100435Y30111D02*
X102365D01*
X100435Y31489D02*
X102365D01*
X87185Y28061D02*
Y29439D01*
X89115Y28061D02*
Y29439D01*
X87185Y28061D02*
X89115D01*
X87185Y29439D02*
X89115D01*
X45093Y52408D02*
X45507D01*
X45093Y52192D02*
X45507D01*
Y52408D01*
X45093Y52192D02*
Y52408D01*
X28807Y35342D02*
Y35558D01*
X28393Y35342D02*
Y35558D01*
X28807D01*
X28393Y35342D02*
X28807D01*
X17743Y39234D02*
X18157D01*
X17743Y39017D02*
X18157D01*
Y39234D01*
X17743Y39017D02*
Y39234D01*
X44440Y24867D02*
Y25281D01*
X44657Y24867D02*
Y25281D01*
X44440Y24867D02*
X44657D01*
X44440Y25281D02*
X44657D01*
X40093Y16842D02*
Y17058D01*
X40507Y16842D02*
Y17058D01*
X40093Y16842D02*
X40507D01*
X40093Y17058D02*
X40507D01*
X41793Y16842D02*
Y17058D01*
X42207Y16842D02*
Y17058D01*
X41793Y16842D02*
X42207D01*
X41793Y17058D02*
X42207D01*
X11208Y7893D02*
Y8307D01*
X10992Y7893D02*
Y8307D01*
Y7893D02*
X11208D01*
X10992Y8307D02*
X11208D01*
X17458Y7893D02*
Y8307D01*
X17242Y7893D02*
Y8307D01*
Y7893D02*
X17458D01*
X17242Y8307D02*
X17458D01*
X23708Y7893D02*
Y8307D01*
X23492Y7893D02*
Y8307D01*
Y7893D02*
X23708D01*
X23492Y8307D02*
X23708D01*
X29958Y7893D02*
Y8307D01*
X29742Y7893D02*
Y8307D01*
Y7893D02*
X29958D01*
X29742Y8307D02*
X29958D01*
X36208Y7893D02*
Y8307D01*
X35992Y7893D02*
Y8307D01*
Y7893D02*
X36208D01*
X35992Y8307D02*
X36208D01*
X42458Y7893D02*
Y8307D01*
X42242Y7893D02*
Y8307D01*
Y7893D02*
X42458D01*
X42242Y8307D02*
X42458D01*
X48492D02*
X48708D01*
X48492Y7893D02*
X48708D01*
X48492D02*
Y8307D01*
X48708Y7893D02*
Y8307D01*
X54742D02*
X54958D01*
X54742Y7893D02*
X54958D01*
X54742D02*
Y8307D01*
X54958Y7893D02*
Y8307D01*
X8793Y13308D02*
X9207D01*
X8793Y13092D02*
X9207D01*
Y13308D01*
X8793Y13092D02*
Y13308D01*
X15043D02*
X15457D01*
X15043Y13092D02*
X15457D01*
Y13308D01*
X15043Y13092D02*
Y13308D01*
X21293D02*
X21707D01*
X21293Y13092D02*
X21707D01*
Y13308D01*
X21293Y13092D02*
Y13308D01*
X27543D02*
X27957D01*
X27543Y13092D02*
X27957D01*
Y13308D01*
X27543Y13092D02*
Y13308D01*
X33793D02*
X34207D01*
X33793Y13092D02*
X34207D01*
Y13308D01*
X33793Y13092D02*
Y13308D01*
X40043D02*
X40457D01*
X40043Y13092D02*
X40457D01*
Y13308D01*
X40043Y13092D02*
Y13308D01*
X46293Y13092D02*
Y13308D01*
X46707Y13092D02*
Y13308D01*
X46293Y13092D02*
X46707D01*
X46293Y13308D02*
X46707D01*
X52543Y13092D02*
Y13308D01*
X52957Y13092D02*
Y13308D01*
X52543Y13092D02*
X52957D01*
X52543Y13308D02*
X52957D01*
X51476Y6043D02*
X51693D01*
X51476Y6457D02*
X51693D01*
Y6043D02*
Y6457D01*
X51476Y6043D02*
Y6457D01*
X120392Y64807D02*
X120608D01*
X120392Y64393D02*
X120608D01*
Y64807D01*
X120392Y64393D02*
Y64807D01*
X95041Y61649D02*
X95455D01*
X95041Y61865D02*
X95455D01*
Y61649D02*
Y61865D01*
X95041Y61649D02*
Y61865D01*
X106843Y32328D02*
Y32544D01*
X107257Y32328D02*
Y32544D01*
X106843Y32328D02*
X107257D01*
X106843Y32544D02*
X107257D01*
X106843Y12578D02*
Y12794D01*
X107257Y12578D02*
Y12794D01*
X106843Y12578D02*
X107257D01*
X106843Y12794D02*
X107257D01*
X49793Y53842D02*
Y54058D01*
X50207Y53842D02*
Y54058D01*
X49793D02*
X50207D01*
X49793Y53842D02*
X50207D01*
X95912Y61649D02*
Y61865D01*
X96326Y61649D02*
Y61865D01*
X95912D02*
X96326D01*
X95912Y61649D02*
X96326D01*
X96817Y3785D02*
Y4199D01*
X96600Y3785D02*
Y4199D01*
Y3785D02*
X96817D01*
X96600Y4199D02*
X96817D01*
X95106Y7010D02*
Y7423D01*
X95322Y7010D02*
Y7423D01*
X95106D02*
X95322D01*
X95106Y7010D02*
X95322D01*
X93730Y6059D02*
Y6472D01*
X93947Y6059D02*
Y6472D01*
X93730D02*
X93947D01*
X93730Y6059D02*
X93947D01*
X93829Y3254D02*
Y3667D01*
X93612Y3254D02*
Y3667D01*
Y3254D02*
X93829D01*
X93612Y3667D02*
X93829D01*
X19892Y46243D02*
Y46657D01*
X20108Y46243D02*
Y46657D01*
X19892D02*
X20108D01*
X19892Y46243D02*
X20108D01*
X14293Y51958D02*
X14707D01*
X14293Y51742D02*
X14707D01*
Y51958D01*
X14293Y51742D02*
Y51958D01*
X28342Y18407D02*
X28558D01*
X28342Y17993D02*
X28558D01*
X28342D02*
Y18407D01*
X28558Y17993D02*
Y18407D01*
X29192D02*
X29408D01*
X29192Y17993D02*
X29408D01*
X29192D02*
Y18407D01*
X29408Y17993D02*
Y18407D01*
X30042D02*
X30258D01*
X30042Y17993D02*
X30258D01*
X30042D02*
Y18407D01*
X30258Y17993D02*
Y18407D01*
X30892D02*
X31108D01*
X30892Y17993D02*
X31108D01*
X30892D02*
Y18407D01*
X31108Y17993D02*
Y18407D01*
X31742D02*
X31958D01*
X31742Y17993D02*
X31958D01*
X31742D02*
Y18407D01*
X31958Y17993D02*
Y18407D01*
X32592D02*
X32808D01*
X32592Y17993D02*
X32808D01*
X32592D02*
Y18407D01*
X32808Y17993D02*
Y18407D01*
X33442D02*
X33658D01*
X33442Y17993D02*
X33658D01*
X33442D02*
Y18407D01*
X33658Y17993D02*
Y18407D01*
X34292D02*
X34508D01*
X34292Y17993D02*
X34508D01*
X34292D02*
Y18407D01*
X34508Y17993D02*
Y18407D01*
X28742Y17993D02*
Y18407D01*
X28958Y17993D02*
Y18407D01*
X28742D02*
X28958D01*
X28742Y17993D02*
X28958D01*
X29592D02*
X29808D01*
X29592Y18407D02*
X29808D01*
Y17993D02*
Y18407D01*
X29592Y17993D02*
Y18407D01*
X30442Y17993D02*
X30658D01*
X30442Y18407D02*
X30658D01*
Y17993D02*
Y18407D01*
X30442Y17993D02*
Y18407D01*
X31292Y17993D02*
X31508D01*
X31292Y18407D02*
X31508D01*
Y17993D02*
Y18407D01*
X31292Y17993D02*
Y18407D01*
X32142Y17993D02*
X32358D01*
X32142Y18407D02*
X32358D01*
Y17993D02*
Y18407D01*
X32142Y17993D02*
Y18407D01*
X32992Y17993D02*
X33208D01*
X32992Y18407D02*
X33208D01*
Y17993D02*
Y18407D01*
X32992Y17993D02*
Y18407D01*
X33842Y17993D02*
X34058D01*
X33842Y18407D02*
X34058D01*
Y17993D02*
Y18407D01*
X33842Y17993D02*
Y18407D01*
X19980Y28101D02*
X20354D01*
X19980Y28770D02*
X20354D01*
Y28101D02*
Y28770D01*
X19980Y28101D02*
Y28770D01*
X34263Y34235D02*
X34637D01*
X34263Y33565D02*
X34637D01*
X34263D02*
Y34235D01*
X34637Y33565D02*
Y34235D01*
X12513Y40635D02*
X12887D01*
X12513Y39965D02*
X12887D01*
X12513D02*
Y40635D01*
X12887Y39965D02*
Y40635D01*
X43213Y46665D02*
Y47335D01*
X43587Y46665D02*
Y47335D01*
X43213D02*
X43587D01*
X43213Y46665D02*
X43587D01*
X52387Y44915D02*
Y45585D01*
X52013Y44915D02*
Y45585D01*
Y44915D02*
X52387D01*
X52013Y45585D02*
X52387D01*
X37763Y50465D02*
Y51135D01*
X38137Y50465D02*
Y51135D01*
X37763D02*
X38137D01*
X37763Y50465D02*
X38137D01*
X62087Y51616D02*
Y52285D01*
X61713Y51616D02*
Y52285D01*
Y51616D02*
X62087D01*
X61713Y52285D02*
X62087D01*
X95137Y24365D02*
Y25035D01*
X94763Y24365D02*
Y25035D01*
Y24365D02*
X95137D01*
X94763Y25035D02*
X95137D01*
X45235Y68963D02*
Y69337D01*
X44565Y68963D02*
Y69337D01*
Y68963D02*
X45235D01*
X44565Y69337D02*
X45235D01*
X93737Y27065D02*
Y27735D01*
X93363Y27065D02*
Y27735D01*
Y27065D02*
X93737D01*
X93363Y27735D02*
X93737D01*
X44191Y60463D02*
Y60837D01*
X44860Y60463D02*
Y60837D01*
X44191Y60463D02*
X44860D01*
X44191Y60837D02*
X44860D01*
X44191Y58463D02*
Y58837D01*
X44860Y58463D02*
Y58837D01*
X44191Y58463D02*
X44860D01*
X44191Y58837D02*
X44860D01*
X43537Y63133D02*
Y63802D01*
X43163Y63133D02*
Y63802D01*
X43537D01*
X43163Y63133D02*
X43537D01*
X107643Y19958D02*
X108057D01*
X107643Y19742D02*
X108057D01*
Y19958D01*
X107643Y19742D02*
Y19958D01*
X44565Y68413D02*
Y68787D01*
X45235Y68413D02*
Y68787D01*
X44565D02*
X45235D01*
X44565Y68413D02*
X45235D01*
X107643Y20358D02*
X108057D01*
X107643Y20142D02*
X108057D01*
Y20358D01*
X107643Y20142D02*
Y20358D01*
X39513Y60735D02*
X39887D01*
X39513Y60065D02*
X39887D01*
X39513D02*
Y60735D01*
X39887Y60065D02*
Y60735D01*
X37287Y59915D02*
Y60585D01*
X36913Y59915D02*
Y60585D01*
Y59915D02*
X37287D01*
X36913Y60585D02*
X37287D01*
X45193Y47762D02*
X45607D01*
X45193Y47979D02*
X45607D01*
Y47762D02*
Y47979D01*
X45193Y47762D02*
Y47979D01*
X51042Y51068D02*
Y51481D01*
X51258Y51068D02*
Y51481D01*
X51042Y51068D02*
X51258D01*
X51042Y51481D02*
X51258D01*
X47416Y46543D02*
Y46957D01*
X47200Y46543D02*
Y46957D01*
X47416D01*
X47200Y46543D02*
X47416D01*
X50702Y44765D02*
Y45435D01*
X50328Y44765D02*
Y45435D01*
X50702D01*
X50328Y44765D02*
X50702D01*
X38764Y68859D02*
X39433D01*
X38764Y68485D02*
X39433D01*
X38764D02*
Y68859D01*
X39433Y68485D02*
Y68859D01*
X50758Y49928D02*
Y50341D01*
X50542Y49928D02*
Y50341D01*
X50758D01*
X50542Y49928D02*
X50758D01*
X47711Y53144D02*
X48085D01*
X47711Y52456D02*
X48085D01*
Y53144D01*
X47711Y52456D02*
Y53144D01*
X111513Y59335D02*
Y60005D01*
X111887Y59335D02*
Y60005D01*
X111513Y59335D02*
X111887D01*
X111513Y60005D02*
X111887D01*
X111513Y54985D02*
X111887D01*
X111513Y55655D02*
X111887D01*
X111513Y54985D02*
Y55655D01*
X111887Y54985D02*
Y55655D01*
X110887Y63865D02*
Y64535D01*
X110513Y63865D02*
Y64535D01*
X110887D01*
X110513Y63865D02*
X110887D01*
X111193Y63458D02*
X111607D01*
X111193Y63242D02*
X111607D01*
X111193D02*
Y63458D01*
X111607Y63242D02*
Y63458D01*
X112313Y64115D02*
Y64785D01*
X112687Y64115D02*
Y64785D01*
X112313Y64115D02*
X112687D01*
X112313Y64785D02*
X112687D01*
X108793Y62308D02*
X109207D01*
X108793Y62092D02*
X109207D01*
X108793D02*
Y62308D01*
X109207Y62092D02*
Y62308D01*
X108793Y53908D02*
X109207D01*
X108793Y53692D02*
X109207D01*
X108793D02*
Y53908D01*
X109207Y53692D02*
Y53908D01*
X65007Y35292D02*
Y35508D01*
X64593Y35292D02*
Y35508D01*
Y35292D02*
X65007D01*
X64593Y35508D02*
X65007D01*
X66192Y36543D02*
X66408D01*
X66192Y36957D02*
X66408D01*
X66192Y36543D02*
Y36957D01*
X66408Y36543D02*
Y36957D01*
X65007Y34792D02*
Y35008D01*
X64593Y34792D02*
Y35008D01*
Y34792D02*
X65007D01*
X64593Y35008D02*
X65007D01*
Y34292D02*
Y34508D01*
X64593Y34292D02*
Y34508D01*
Y34292D02*
X65007D01*
X64593Y34508D02*
X65007D01*
Y33792D02*
Y34008D01*
X64593Y33792D02*
Y34008D01*
Y33792D02*
X65007D01*
X64593Y34008D02*
X65007D01*
Y33292D02*
Y33508D01*
X64593Y33292D02*
Y33508D01*
Y33292D02*
X65007D01*
X64593Y33508D02*
X65007D01*
Y32792D02*
Y33008D01*
X64593Y32792D02*
Y33008D01*
Y32792D02*
X65007D01*
X64593Y33008D02*
X65007D01*
Y31792D02*
Y32008D01*
X64593Y31792D02*
Y32008D01*
Y31792D02*
X65007D01*
X64593Y32008D02*
X65007D01*
Y31292D02*
Y31508D01*
X64593Y31292D02*
Y31508D01*
Y31292D02*
X65007D01*
X64593Y31508D02*
X65007D01*
X67142Y30007D02*
X67358D01*
X67142Y29593D02*
X67358D01*
Y30007D01*
X67142Y29593D02*
Y30007D01*
X66642D02*
X66858D01*
X66642Y29593D02*
X66858D01*
Y30007D01*
X66642Y29593D02*
Y30007D01*
X68142D02*
X68358D01*
X68142Y29593D02*
X68358D01*
Y30007D01*
X68142Y29593D02*
Y30007D01*
X67642D02*
X67858D01*
X67642Y29593D02*
X67858D01*
Y30007D01*
X67642Y29593D02*
Y30007D01*
X69142D02*
X69358D01*
X69142Y29593D02*
X69358D01*
Y30007D01*
X69142Y29593D02*
Y30007D01*
X68642D02*
X68858D01*
X68642Y29593D02*
X68858D01*
Y30007D01*
X68642Y29593D02*
Y30007D01*
X70142D02*
X70358D01*
X70142Y29593D02*
X70358D01*
Y30007D01*
X70142Y29593D02*
Y30007D01*
X69642D02*
X69858D01*
X69642Y29593D02*
X69858D01*
Y30007D01*
X69642Y29593D02*
Y30007D01*
X71142D02*
X71358D01*
X71142Y29593D02*
X71358D01*
Y30007D01*
X71142Y29593D02*
Y30007D01*
X70642D02*
X70858D01*
X70642Y29593D02*
X70858D01*
Y30007D01*
X70642Y29593D02*
Y30007D01*
X64593Y32292D02*
Y32508D01*
X65007Y32292D02*
Y32508D01*
X64593D02*
X65007D01*
X64593Y32292D02*
X65007D01*
X69442Y40407D02*
X69658D01*
X69442Y39993D02*
X69658D01*
Y40407D01*
X69442Y39993D02*
Y40407D01*
X68942D02*
X69158D01*
X68942Y39993D02*
X69158D01*
Y40407D01*
X68942Y39993D02*
Y40407D01*
X22261Y31978D02*
X22674D01*
X22261Y32194D02*
X22674D01*
X22261Y31978D02*
Y32194D01*
X22674Y31978D02*
Y32194D01*
X22261Y31578D02*
X22674D01*
X22261Y31794D02*
X22674D01*
X22261Y31578D02*
Y31794D01*
X22674Y31578D02*
Y31794D01*
X28742Y24593D02*
Y25007D01*
X28958Y24593D02*
Y25007D01*
X28742Y24593D02*
X28958D01*
X28742Y25007D02*
X28958D01*
X28193Y23804D02*
X28607D01*
X28193Y24021D02*
X28607D01*
Y23804D02*
Y24021D01*
X28193Y23804D02*
Y24021D01*
X35258Y26043D02*
Y26457D01*
X35042Y26043D02*
Y26457D01*
X35258D01*
X35042Y26043D02*
X35258D01*
X34642D02*
X34858D01*
X34642Y26457D02*
X34858D01*
X34642Y26043D02*
Y26457D01*
X34858Y26043D02*
Y26457D01*
X27293Y25142D02*
X27707D01*
X27293Y25358D02*
X27707D01*
Y25142D02*
Y25358D01*
X27293Y25142D02*
Y25358D01*
X25265Y24613D02*
X25935D01*
X25265Y24987D02*
X25935D01*
Y24613D02*
Y24987D01*
X25265Y24613D02*
Y24987D01*
X27743Y22892D02*
X28157D01*
X27743Y23108D02*
X28157D01*
Y22892D02*
Y23108D01*
X27743Y22892D02*
Y23108D01*
Y23292D02*
X28157D01*
X27743Y23508D02*
X28157D01*
Y23292D02*
Y23508D01*
X27743Y23292D02*
Y23508D01*
X68493Y16208D02*
X68907D01*
X68493Y15992D02*
X68907D01*
Y16208D01*
X68493Y15992D02*
Y16208D01*
Y16608D02*
X68907D01*
X68493Y16392D02*
X68907D01*
Y16608D01*
X68493Y16392D02*
Y16608D01*
X34951Y24321D02*
Y24537D01*
X35364Y24321D02*
Y24537D01*
X34951D02*
X35364D01*
X34951Y24321D02*
X35364D01*
X28893Y20592D02*
X29307D01*
X28893Y20808D02*
X29307D01*
Y20592D02*
Y20808D01*
X28893Y20592D02*
Y20808D01*
X29643Y20592D02*
X30057D01*
X29643Y20808D02*
X30057D01*
Y20592D02*
Y20808D01*
X29643Y20592D02*
Y20808D01*
X30393Y20592D02*
X30807D01*
X30393Y20808D02*
X30807D01*
Y20592D02*
Y20808D01*
X30393Y20592D02*
Y20808D01*
X31143Y20592D02*
X31557D01*
X31143Y20808D02*
X31557D01*
Y20592D02*
Y20808D01*
X31143Y20592D02*
Y20808D01*
X31893Y20592D02*
X32307D01*
X31893Y20808D02*
X32307D01*
Y20592D02*
Y20808D01*
X31893Y20592D02*
Y20808D01*
X32643Y20592D02*
X33057D01*
X32643Y20808D02*
X33057D01*
Y20592D02*
Y20808D01*
X32643Y20592D02*
Y20808D01*
X33393Y20592D02*
X33807D01*
X33393Y20808D02*
X33807D01*
Y20592D02*
Y20808D01*
X33393Y20592D02*
Y20808D01*
X34143Y20592D02*
X34557D01*
X34143Y20808D02*
X34557D01*
Y20592D02*
Y20808D01*
X34143Y20592D02*
Y20808D01*
X35288Y20942D02*
Y21158D01*
X35702Y20942D02*
Y21158D01*
X35288D02*
X35702D01*
X35288Y20942D02*
X35702D01*
X25531Y32343D02*
Y32757D01*
X25315Y32343D02*
Y32757D01*
X25531D01*
X25315Y32343D02*
X25531D01*
X24969D02*
X25185D01*
X24969Y32757D02*
X25185D01*
X24969Y32343D02*
Y32757D01*
X25185Y32343D02*
Y32757D01*
X26693Y36842D02*
Y37058D01*
X27107Y36842D02*
Y37058D01*
X26693D02*
X27107D01*
X26693Y36842D02*
X27107D01*
X26693Y37292D02*
Y37508D01*
X27107Y37292D02*
Y37508D01*
X26693D02*
X27107D01*
X26693Y37292D02*
X27107D01*
X26693Y37742D02*
Y37958D01*
X27107Y37742D02*
Y37958D01*
X26693D02*
X27107D01*
X26693Y37742D02*
X27107D01*
X26693Y38192D02*
Y38408D01*
X27107Y38192D02*
Y38408D01*
X26693D02*
X27107D01*
X26693Y38192D02*
X27107D01*
X26158Y39293D02*
Y39707D01*
X25942Y39293D02*
Y39707D01*
X26158D01*
X25942Y39293D02*
X26158D01*
X25708D02*
Y39707D01*
X25492Y39293D02*
Y39707D01*
X25708D01*
X25492Y39293D02*
X25708D01*
X25258D02*
Y39707D01*
X25042Y39293D02*
Y39707D01*
X25258D01*
X25042Y39293D02*
X25258D01*
X24808D02*
Y39707D01*
X24592Y39293D02*
Y39707D01*
X24808D01*
X24592Y39293D02*
X24808D01*
X24358D02*
Y39707D01*
X24142Y39293D02*
Y39707D01*
X24358D01*
X24142Y39293D02*
X24358D01*
X23908D02*
Y39707D01*
X23692Y39293D02*
Y39707D01*
X23908D01*
X23692Y39293D02*
X23908D01*
X22157Y38442D02*
Y38658D01*
X21743Y38442D02*
Y38658D01*
Y38442D02*
X22157D01*
X21743Y38658D02*
X22157D01*
X21743Y38208D02*
X22157D01*
X21743Y37992D02*
X22157D01*
X21743D02*
Y38208D01*
X22157Y37992D02*
Y38208D01*
X21743Y37758D02*
X22157D01*
X21743Y37542D02*
X22157D01*
X21743D02*
Y37758D01*
X22157Y37542D02*
Y37758D01*
X21743Y37308D02*
X22157D01*
X21743Y37092D02*
X22157D01*
X21743D02*
Y37308D01*
X22157Y37092D02*
Y37308D01*
X47793Y31192D02*
Y31408D01*
X48207Y31192D02*
Y31408D01*
X47793Y31192D02*
X48207D01*
X47793Y31408D02*
X48207D01*
X12207Y46742D02*
Y46958D01*
X11793Y46742D02*
Y46958D01*
X12207D01*
X11793Y46742D02*
X12207D01*
X47793Y31592D02*
Y31808D01*
X48207Y31592D02*
Y31808D01*
X47793Y31592D02*
X48207D01*
X47793Y31808D02*
X48207D01*
X12207Y46342D02*
Y46558D01*
X11793Y46342D02*
Y46558D01*
X12207D01*
X11793Y46342D02*
X12207D01*
X42943Y19492D02*
Y19708D01*
X43357Y19492D02*
Y19708D01*
X42943D02*
X43357D01*
X42943Y19492D02*
X43357D01*
X42943Y18842D02*
Y19058D01*
X43357Y18842D02*
Y19058D01*
X42943D02*
X43357D01*
X42943Y18842D02*
X43357D01*
X42607Y18842D02*
Y19058D01*
X42193Y18842D02*
Y19058D01*
Y18842D02*
X42607D01*
X42193Y19058D02*
X42607D01*
X39592Y18923D02*
X39808D01*
X39592Y19337D02*
X39808D01*
X39592Y18923D02*
Y19337D01*
X39808Y18923D02*
Y19337D01*
X39592Y21177D02*
X39808D01*
X39592Y20763D02*
X39808D01*
Y21177D01*
X39592Y20763D02*
Y21177D01*
X42607Y21042D02*
Y21258D01*
X42193Y21042D02*
Y21258D01*
Y21042D02*
X42607D01*
X42193Y21258D02*
X42607D01*
X42942Y21537D02*
X43158D01*
X42942Y21123D02*
X43158D01*
Y21537D01*
X42942Y21123D02*
Y21537D01*
X41857Y21042D02*
Y21258D01*
X41443Y21042D02*
Y21258D01*
Y21042D02*
X41857D01*
X41443Y21258D02*
X41857D01*
Y18842D02*
Y19058D01*
X41443Y18842D02*
Y19058D01*
Y18842D02*
X41857D01*
X41443Y19058D02*
X41857D01*
X35212Y19893D02*
Y20307D01*
X35428Y19893D02*
Y20307D01*
X35212D02*
X35428D01*
X35212Y19893D02*
X35428D01*
X35562D02*
Y20307D01*
X35778Y19893D02*
Y20307D01*
X35562D02*
X35778D01*
X35562Y19893D02*
X35778D01*
X44592Y40357D02*
X44808D01*
X44592Y39943D02*
X44808D01*
Y40357D01*
X44592Y39943D02*
Y40357D01*
X44313Y40642D02*
Y40858D01*
X44727Y40642D02*
Y40858D01*
X44313D02*
X44727D01*
X44313Y40642D02*
X44727D01*
X44313Y39442D02*
Y39658D01*
X44727Y39442D02*
Y39658D01*
X44313D02*
X44727D01*
X44313Y39442D02*
X44727D01*
X7642Y9257D02*
X7858D01*
X7642Y8843D02*
X7858D01*
Y9257D01*
X7642Y8843D02*
Y9257D01*
X13892Y8843D02*
Y9257D01*
X14108Y8843D02*
Y9257D01*
X13892Y8843D02*
X14108D01*
X13892Y9257D02*
X14108D01*
X20142Y8843D02*
Y9257D01*
X20358Y8843D02*
Y9257D01*
X20142Y8843D02*
X20358D01*
X20142Y9257D02*
X20358D01*
X26392Y8843D02*
Y9257D01*
X26608Y8843D02*
Y9257D01*
X26392Y8843D02*
X26608D01*
X26392Y9257D02*
X26608D01*
X32642Y8843D02*
Y9257D01*
X32858Y8843D02*
Y9257D01*
X32642Y8843D02*
X32858D01*
X32642Y9257D02*
X32858D01*
X38892Y8843D02*
Y9257D01*
X39108Y8843D02*
Y9257D01*
X38892Y8843D02*
X39108D01*
X38892Y9257D02*
X39108D01*
X45142D02*
X45358D01*
X45142Y8843D02*
X45358D01*
Y9257D01*
X45142Y8843D02*
Y9257D01*
X51392D02*
X51608D01*
X51392Y8843D02*
X51608D01*
Y9257D01*
X51392Y8843D02*
Y9257D01*
X8042D02*
X8258D01*
X8042Y8843D02*
X8258D01*
Y9257D01*
X8042Y8843D02*
Y9257D01*
X14292Y8843D02*
Y9257D01*
X14508Y8843D02*
Y9257D01*
X14292Y8843D02*
X14508D01*
X14292Y9257D02*
X14508D01*
X20542Y8843D02*
Y9257D01*
X20758Y8843D02*
Y9257D01*
X20542Y8843D02*
X20758D01*
X20542Y9257D02*
X20758D01*
X26792Y8843D02*
Y9257D01*
X27008Y8843D02*
Y9257D01*
X26792Y8843D02*
X27008D01*
X26792Y9257D02*
X27008D01*
X33042Y8843D02*
Y9257D01*
X33258Y8843D02*
Y9257D01*
X33042Y8843D02*
X33258D01*
X33042Y9257D02*
X33258D01*
X39292Y8843D02*
Y9257D01*
X39508Y8843D02*
Y9257D01*
X39292Y8843D02*
X39508D01*
X39292Y9257D02*
X39508D01*
X45542D02*
X45758D01*
X45542Y8843D02*
X45758D01*
Y9257D01*
X45542Y8843D02*
Y9257D01*
X51792D02*
X52008D01*
X51792Y8843D02*
X52008D01*
Y9257D01*
X51792Y8843D02*
Y9257D01*
X7642Y9593D02*
X7858D01*
X7642Y10007D02*
X7858D01*
X7642Y9593D02*
Y10007D01*
X7858Y9593D02*
Y10007D01*
X14108Y9593D02*
Y10007D01*
X13892Y9593D02*
Y10007D01*
X14108D01*
X13892Y9593D02*
X14108D01*
X20358D02*
Y10007D01*
X20142Y9593D02*
Y10007D01*
X20358D01*
X20142Y9593D02*
X20358D01*
X26608D02*
Y10007D01*
X26392Y9593D02*
Y10007D01*
X26608D01*
X26392Y9593D02*
X26608D01*
X32858D02*
Y10007D01*
X32642Y9593D02*
Y10007D01*
X32858D01*
X32642Y9593D02*
X32858D01*
X39108D02*
Y10007D01*
X38892Y9593D02*
Y10007D01*
X39108D01*
X38892Y9593D02*
X39108D01*
X45142D02*
X45358D01*
X45142Y10007D02*
X45358D01*
X45142Y9593D02*
Y10007D01*
X45358Y9593D02*
Y10007D01*
X51392Y9593D02*
X51608D01*
X51392Y10007D02*
X51608D01*
X51392Y9593D02*
Y10007D01*
X51608Y9593D02*
Y10007D01*
X7743Y12192D02*
Y12408D01*
X8157Y12192D02*
Y12408D01*
X7743D02*
X8157D01*
X7743Y12192D02*
X8157D01*
X13993D02*
X14407D01*
X13993Y12408D02*
X14407D01*
Y12192D02*
Y12408D01*
X13993Y12192D02*
Y12408D01*
X20243Y12192D02*
X20657D01*
X20243Y12408D02*
X20657D01*
Y12192D02*
Y12408D01*
X20243Y12192D02*
Y12408D01*
X26493Y12192D02*
X26907D01*
X26493Y12408D02*
X26907D01*
Y12192D02*
Y12408D01*
X26493Y12192D02*
Y12408D01*
X32743Y12192D02*
X33157D01*
X32743Y12408D02*
X33157D01*
Y12192D02*
Y12408D01*
X32743Y12192D02*
Y12408D01*
X38993Y12192D02*
X39407D01*
X38993Y12408D02*
X39407D01*
Y12192D02*
Y12408D01*
X38993Y12192D02*
Y12408D01*
X45243Y12192D02*
Y12408D01*
X45657Y12192D02*
Y12408D01*
X45243D02*
X45657D01*
X45243Y12192D02*
X45657D01*
X51493D02*
Y12408D01*
X51907Y12192D02*
Y12408D01*
X51493D02*
X51907D01*
X51493Y12192D02*
X51907D01*
X9957Y12192D02*
Y12408D01*
X9543Y12192D02*
Y12408D01*
Y12192D02*
X9957D01*
X9543Y12408D02*
X9957D01*
X16207Y12192D02*
Y12408D01*
X15793Y12192D02*
Y12408D01*
Y12192D02*
X16207D01*
X15793Y12408D02*
X16207D01*
X22043D02*
X22457D01*
X22043Y12192D02*
X22457D01*
X22043D02*
Y12408D01*
X22457Y12192D02*
Y12408D01*
X28293D02*
X28707D01*
X28293Y12192D02*
X28707D01*
X28293D02*
Y12408D01*
X28707Y12192D02*
Y12408D01*
X34543D02*
X34957D01*
X34543Y12192D02*
X34957D01*
X34543D02*
Y12408D01*
X34957Y12192D02*
Y12408D01*
X40793D02*
X41207D01*
X40793Y12192D02*
X41207D01*
X40793D02*
Y12408D01*
X41207Y12192D02*
Y12408D01*
X47457Y12192D02*
Y12408D01*
X47043Y12192D02*
Y12408D01*
Y12192D02*
X47457D01*
X47043Y12408D02*
X47457D01*
X53707Y12192D02*
Y12408D01*
X53293Y12192D02*
Y12408D01*
Y12192D02*
X53707D01*
X53293Y12408D02*
X53707D01*
X9842Y9593D02*
X10058D01*
X9842Y10007D02*
X10058D01*
X9842Y9593D02*
Y10007D01*
X10058Y9593D02*
Y10007D01*
X16308Y9593D02*
Y10007D01*
X16092Y9593D02*
Y10007D01*
X16308D01*
X16092Y9593D02*
X16308D01*
X22558D02*
Y10007D01*
X22342Y9593D02*
Y10007D01*
X22558D01*
X22342Y9593D02*
X22558D01*
X28808D02*
Y10007D01*
X28592Y9593D02*
Y10007D01*
X28808D01*
X28592Y9593D02*
X28808D01*
X35058D02*
Y10007D01*
X34842Y9593D02*
Y10007D01*
X35058D01*
X34842Y9593D02*
X35058D01*
X41308D02*
Y10007D01*
X41092Y9593D02*
Y10007D01*
X41308D01*
X41092Y9593D02*
X41308D01*
X47342D02*
X47558D01*
X47342Y10007D02*
X47558D01*
X47342Y9593D02*
Y10007D01*
X47558Y9593D02*
Y10007D01*
X53592Y9593D02*
X53808D01*
X53592Y10007D02*
X53808D01*
X53592Y9593D02*
Y10007D01*
X53808Y9593D02*
Y10007D01*
X9543Y9092D02*
X9957D01*
X9543Y9308D02*
X9957D01*
Y9092D02*
Y9308D01*
X9543Y9092D02*
Y9308D01*
X15793Y9092D02*
X16207D01*
X15793Y9308D02*
X16207D01*
Y9092D02*
Y9308D01*
X15793Y9092D02*
Y9308D01*
X22043Y9092D02*
X22457D01*
X22043Y9308D02*
X22457D01*
Y9092D02*
Y9308D01*
X22043Y9092D02*
Y9308D01*
X28293Y9092D02*
X28707D01*
X28293Y9308D02*
X28707D01*
Y9092D02*
Y9308D01*
X28293Y9092D02*
Y9308D01*
X34543Y9092D02*
X34957D01*
X34543Y9308D02*
X34957D01*
Y9092D02*
Y9308D01*
X34543Y9092D02*
Y9308D01*
X40793Y9092D02*
X41207D01*
X40793Y9308D02*
X41207D01*
Y9092D02*
Y9308D01*
X40793Y9092D02*
Y9308D01*
X47043Y9092D02*
Y9308D01*
X47457Y9092D02*
Y9308D01*
X47043D02*
X47457D01*
X47043Y9092D02*
X47457D01*
X53293D02*
Y9308D01*
X53707Y9092D02*
Y9308D01*
X53293D02*
X53707D01*
X53293Y9092D02*
X53707D01*
X9842Y10343D02*
X10058D01*
X9842Y10757D02*
X10058D01*
X9842Y10343D02*
Y10757D01*
X10058Y10343D02*
Y10757D01*
X16308Y10343D02*
Y10757D01*
X16092Y10343D02*
Y10757D01*
X16308D01*
X16092Y10343D02*
X16308D01*
X22558D02*
Y10757D01*
X22342Y10343D02*
Y10757D01*
X22558D01*
X22342Y10343D02*
X22558D01*
X28808D02*
Y10757D01*
X28592Y10343D02*
Y10757D01*
X28808D01*
X28592Y10343D02*
X28808D01*
X35058D02*
Y10757D01*
X34842Y10343D02*
Y10757D01*
X35058D01*
X34842Y10343D02*
X35058D01*
X41308D02*
Y10757D01*
X41092Y10343D02*
Y10757D01*
X41308D01*
X41092Y10343D02*
X41308D01*
X47342D02*
X47558D01*
X47342Y10757D02*
X47558D01*
X47342Y10343D02*
Y10757D01*
X47558Y10343D02*
Y10757D01*
X53592Y10343D02*
X53808D01*
X53592Y10757D02*
X53808D01*
X53592Y10343D02*
Y10757D01*
X53808Y10343D02*
Y10757D01*
X28822Y19593D02*
X29038D01*
X28822Y20007D02*
X29038D01*
Y19593D02*
Y20007D01*
X28822Y19593D02*
Y20007D01*
X29572Y19593D02*
X29788D01*
X29572Y20007D02*
X29788D01*
Y19593D02*
Y20007D01*
X29572Y19593D02*
Y20007D01*
X30322Y19593D02*
X30538D01*
X30322Y20007D02*
X30538D01*
Y19593D02*
Y20007D01*
X30322Y19593D02*
Y20007D01*
X31072Y19593D02*
X31288D01*
X31072Y20007D02*
X31288D01*
Y19593D02*
Y20007D01*
X31072Y19593D02*
Y20007D01*
X31822Y19593D02*
X32038D01*
X31822Y20007D02*
X32038D01*
Y19593D02*
Y20007D01*
X31822Y19593D02*
Y20007D01*
X32572Y19593D02*
Y20007D01*
X32788Y19593D02*
Y20007D01*
X32572D02*
X32788D01*
X32572Y19593D02*
X32788D01*
X33322D02*
Y20007D01*
X33538Y19593D02*
Y20007D01*
X33322D02*
X33538D01*
X33322Y19593D02*
X33538D01*
X34072D02*
Y20007D01*
X34288Y19593D02*
Y20007D01*
X34072D02*
X34288D01*
X34072Y19593D02*
X34288D01*
X29162D02*
X29378D01*
X29162Y20007D02*
X29378D01*
Y19593D02*
Y20007D01*
X29162Y19593D02*
Y20007D01*
X29912Y19593D02*
Y20007D01*
X30128Y19593D02*
Y20007D01*
X29912D02*
X30128D01*
X29912Y19593D02*
X30128D01*
X30662D02*
X30878D01*
X30662Y20007D02*
X30878D01*
Y19593D02*
Y20007D01*
X30662Y19593D02*
Y20007D01*
X31412Y19593D02*
X31628D01*
X31412Y20007D02*
X31628D01*
Y19593D02*
Y20007D01*
X31412Y19593D02*
Y20007D01*
X32162Y19593D02*
X32378D01*
X32162Y20007D02*
X32378D01*
Y19593D02*
Y20007D01*
X32162Y19593D02*
Y20007D01*
X32912Y19593D02*
X33128D01*
X32912Y20007D02*
X33128D01*
Y19593D02*
Y20007D01*
X32912Y19593D02*
Y20007D01*
X33662Y19593D02*
X33878D01*
X33662Y20007D02*
X33878D01*
Y19593D02*
Y20007D01*
X33662Y19593D02*
Y20007D01*
X7642Y10343D02*
X7858D01*
X7642Y10757D02*
X7858D01*
X7642Y10343D02*
Y10757D01*
X7858Y10343D02*
Y10757D01*
X14108Y10343D02*
Y10757D01*
X13892Y10343D02*
Y10757D01*
X14108D01*
X13892Y10343D02*
X14108D01*
X20358D02*
Y10757D01*
X20142Y10343D02*
Y10757D01*
X20358D01*
X20142Y10343D02*
X20358D01*
X26608D02*
Y10757D01*
X26392Y10343D02*
Y10757D01*
X26608D01*
X26392Y10343D02*
X26608D01*
X32858D02*
Y10757D01*
X32642Y10343D02*
Y10757D01*
X32858D01*
X32642Y10343D02*
X32858D01*
X39108D02*
Y10757D01*
X38892Y10343D02*
Y10757D01*
X39108D01*
X38892Y10343D02*
X39108D01*
X45142D02*
X45358D01*
X45142Y10757D02*
X45358D01*
X45142Y10343D02*
Y10757D01*
X45358Y10343D02*
Y10757D01*
X51392Y10343D02*
X51608D01*
X51392Y10757D02*
X51608D01*
X51392Y10343D02*
Y10757D01*
X51608Y10343D02*
Y10757D01*
X101957Y65992D02*
Y66208D01*
X101543Y65992D02*
Y66208D01*
X101957D01*
X101543Y65992D02*
X101957D01*
X102907Y67292D02*
Y67508D01*
X102493Y67292D02*
Y67508D01*
X102907D01*
X102493Y67292D02*
X102907D01*
X79137Y71815D02*
Y72485D01*
X78763Y71815D02*
Y72485D01*
X79137D01*
X78763Y71815D02*
X79137D01*
X77837D02*
Y72485D01*
X77463Y71815D02*
Y72485D01*
X77837D01*
X77463Y71815D02*
X77837D01*
X79787D02*
Y72485D01*
X79413Y71815D02*
Y72485D01*
X79787D01*
X79413Y71815D02*
X79787D01*
X78487D02*
Y72485D01*
X78113Y71815D02*
Y72485D01*
X78487D01*
X78113Y71815D02*
X78487D01*
X76993Y70042D02*
X77407D01*
X76993Y70258D02*
X77407D01*
Y70042D02*
Y70258D01*
X76993Y70042D02*
Y70258D01*
Y71242D02*
X77407D01*
X76993Y71458D02*
X77407D01*
Y71242D02*
Y71458D01*
X76993Y71242D02*
Y71458D01*
Y69442D02*
X77407D01*
X76993Y69658D02*
X77407D01*
Y69442D02*
Y69658D01*
X76993Y69442D02*
Y69658D01*
Y70642D02*
X77407D01*
X76993Y70858D02*
X77407D01*
Y70642D02*
Y70858D01*
X76993Y70642D02*
Y70858D01*
X69942Y65793D02*
X70158D01*
X69942Y66207D02*
X70158D01*
Y65793D02*
Y66207D01*
X69942Y65793D02*
Y66207D01*
X46195Y63977D02*
X46805D01*
X46195Y64323D02*
X46805D01*
Y63977D02*
Y64323D01*
X46195Y63977D02*
Y64323D01*
X108057Y33042D02*
Y33258D01*
X107643Y33042D02*
Y33258D01*
X108057D01*
X107643Y33042D02*
X108057D01*
Y13292D02*
Y13508D01*
X107643Y13292D02*
Y13508D01*
X108057D01*
X107643Y13292D02*
X108057D01*
Y33442D02*
Y33658D01*
X107643Y33442D02*
Y33658D01*
X108057D01*
X107643Y33442D02*
X108057D01*
Y13692D02*
Y13908D01*
X107643Y13692D02*
Y13908D01*
X108057D01*
X107643Y13692D02*
X108057D01*
X102763Y34735D02*
X103137D01*
X102763Y34065D02*
X103137D01*
X102763D02*
Y34735D01*
X103137Y34065D02*
Y34735D01*
X103643Y33092D02*
Y33308D01*
X104057Y33092D02*
Y33308D01*
X103643Y33092D02*
X104057D01*
X103643Y33308D02*
X104057D01*
X100315Y32113D02*
Y32487D01*
X100985Y32113D02*
Y32487D01*
X100315Y32113D02*
X100985D01*
X100315Y32487D02*
X100985D01*
X103643Y33492D02*
Y33708D01*
X104057Y33492D02*
Y33708D01*
X103643Y33492D02*
X104057D01*
X103643Y33708D02*
X104057D01*
X101365Y32113D02*
Y32487D01*
X102035Y32113D02*
Y32487D01*
X101365Y32113D02*
X102035D01*
X101365Y32487D02*
X102035D01*
X95713Y32635D02*
X96087D01*
X95713Y31965D02*
X96087D01*
X95713D02*
Y32635D01*
X96087Y31965D02*
Y32635D01*
X95713Y33785D02*
X96087D01*
X95713Y33115D02*
X96087D01*
X95713D02*
Y33785D01*
X96087Y33115D02*
Y33785D01*
X95013Y66535D02*
X95387D01*
X95013Y65865D02*
X95387D01*
Y66535D01*
X95013Y65865D02*
Y66535D01*
Y67735D02*
X95387D01*
X95013Y67065D02*
X95387D01*
Y67735D01*
X95013Y67065D02*
Y67735D01*
X117143Y21142D02*
Y21358D01*
X117557Y21142D02*
Y21358D01*
X117143D02*
X117557D01*
X117143Y21142D02*
X117557D01*
X116543Y22142D02*
X116957D01*
X116543Y22358D02*
X116957D01*
Y22142D02*
Y22358D01*
X116543Y22142D02*
Y22358D01*
X81307Y63442D02*
Y63658D01*
X80893Y63442D02*
Y63658D01*
Y63442D02*
X81307D01*
X80893Y63658D02*
X81307D01*
X79658Y7848D02*
Y8261D01*
X79442Y7848D02*
Y8261D01*
X79658D01*
X79442Y7848D02*
X79658D01*
X69908D02*
Y8261D01*
X69692Y7848D02*
Y8261D01*
X69908D01*
X69692Y7848D02*
X69908D01*
X79520Y7613D02*
X79934D01*
X79520Y7396D02*
X79934D01*
X79520D02*
Y7613D01*
X79934Y7396D02*
Y7613D01*
X79520Y8713D02*
X79934D01*
X79520Y8496D02*
X79934D01*
X79520D02*
Y8713D01*
X79934Y8496D02*
Y8713D01*
X69770Y7613D02*
X70184D01*
X69770Y7396D02*
X70184D01*
X69770D02*
Y7613D01*
X70184Y7396D02*
Y7613D01*
X69770Y8713D02*
X70184D01*
X69770Y8496D02*
X70184D01*
X69770D02*
Y8713D01*
X70184Y8496D02*
Y8713D01*
X77708Y7848D02*
Y8261D01*
X77492Y7848D02*
Y8261D01*
X77708D01*
X77492Y7848D02*
X77708D01*
X67958D02*
Y8261D01*
X67742Y7848D02*
Y8261D01*
X67958D01*
X67742Y7848D02*
X67958D01*
X77570Y7613D02*
X77984D01*
X77570Y7396D02*
X77984D01*
X77570D02*
Y7613D01*
X77984Y7396D02*
Y7613D01*
X77570Y8713D02*
X77984D01*
X77570Y8496D02*
X77984D01*
X77570D02*
Y8713D01*
X77984Y8496D02*
Y8713D01*
X67820D02*
X68234D01*
X67820Y8496D02*
X68234D01*
X67820D02*
Y8713D01*
X68234Y8496D02*
Y8713D01*
X67820Y7613D02*
X68234D01*
X67820Y7396D02*
X68234D01*
X67820D02*
Y7613D01*
X68234Y7396D02*
Y7613D01*
X75758Y7848D02*
Y8261D01*
X75542Y7848D02*
Y8261D01*
X75758D01*
X75542Y7848D02*
X75758D01*
X66008D02*
Y8261D01*
X65792Y7848D02*
Y8261D01*
X66008D01*
X65792Y7848D02*
X66008D01*
X75620Y7613D02*
X76034D01*
X75620Y7396D02*
X76034D01*
X75620D02*
Y7613D01*
X76034Y7396D02*
Y7613D01*
X75620Y8713D02*
X76034D01*
X75620Y8496D02*
X76034D01*
X75620D02*
Y8713D01*
X76034Y8496D02*
Y8713D01*
X65870D02*
X66284D01*
X65870Y8496D02*
X66284D01*
X65870D02*
Y8713D01*
X66284Y8496D02*
Y8713D01*
X65870Y7613D02*
X66284D01*
X65870Y7396D02*
X66284D01*
X65870D02*
Y7613D01*
X66284Y7396D02*
Y7613D01*
X73808Y7848D02*
Y8261D01*
X73592Y7848D02*
Y8261D01*
X73808D01*
X73592Y7848D02*
X73808D01*
X81608D02*
Y8261D01*
X81392Y7848D02*
Y8261D01*
X81608D01*
X81392Y7848D02*
X81608D01*
X73670Y7613D02*
X74084D01*
X73670Y7396D02*
X74084D01*
X73670D02*
Y7613D01*
X74084Y7396D02*
Y7613D01*
X73670Y8713D02*
X74084D01*
X73670Y8496D02*
X74084D01*
X73670D02*
Y8713D01*
X74084Y8496D02*
Y8713D01*
X81470Y7613D02*
X81884D01*
X81470Y7396D02*
X81884D01*
X81470D02*
Y7613D01*
X81884Y7396D02*
Y7613D01*
X81470Y8713D02*
X81884D01*
X81470Y8496D02*
X81884D01*
X81470D02*
Y8713D01*
X81884Y8496D02*
Y8713D01*
X71858Y7848D02*
Y8261D01*
X71642Y7848D02*
Y8261D01*
X71858D01*
X71642Y7848D02*
X71858D01*
X71720Y7613D02*
X72134D01*
X71720Y7396D02*
X72134D01*
X71720D02*
Y7613D01*
X72134Y7396D02*
Y7613D01*
X71720Y8713D02*
X72134D01*
X71720Y8496D02*
X72134D01*
X71720D02*
Y8713D01*
X72134Y8496D02*
Y8713D01*
X96459Y5274D02*
X96872D01*
X96459Y5057D02*
X96872D01*
X96459D02*
Y5274D01*
X96872Y5057D02*
Y5274D01*
X25313Y48475D02*
X25687D01*
X25313Y49125D02*
X25687D01*
Y48475D02*
Y49125D01*
X25313Y48475D02*
Y49125D01*
X85093Y52008D02*
X85507D01*
X85093Y51792D02*
X85507D01*
X85093D02*
Y52008D01*
X85507Y51792D02*
Y52008D01*
X85093Y51608D02*
X85507D01*
X85093Y51392D02*
X85507D01*
X85093D02*
Y51608D01*
X85507Y51392D02*
Y51608D01*
X85093Y51208D02*
X85507D01*
X85093Y50992D02*
X85507D01*
X85093D02*
Y51208D01*
X85507Y50992D02*
Y51208D01*
X85093Y50808D02*
X85507D01*
X85093Y50592D02*
X85507D01*
X85093D02*
Y50808D01*
X85507Y50592D02*
Y50808D01*
X85093Y50408D02*
X85507D01*
X85093Y50192D02*
X85507D01*
X85093D02*
Y50408D01*
X85507Y50192D02*
Y50408D01*
X85093Y50008D02*
X85507D01*
X85093Y49792D02*
X85507D01*
X85093D02*
Y50008D01*
X85507Y49792D02*
Y50008D01*
X87442Y47643D02*
Y48057D01*
X87658Y47643D02*
Y48057D01*
X87442Y47643D02*
X87658D01*
X87442Y48057D02*
X87658D01*
X87842Y47643D02*
Y48057D01*
X88058Y47643D02*
Y48057D01*
X87842Y47643D02*
X88058D01*
X87842Y48057D02*
X88058D01*
X88242Y47643D02*
Y48057D01*
X88458Y47643D02*
Y48057D01*
X88242Y47643D02*
X88458D01*
X88242Y48057D02*
X88458D01*
X88642Y47643D02*
Y48057D01*
X88858Y47643D02*
Y48057D01*
X88642Y47643D02*
X88858D01*
X88642Y48057D02*
X88858D01*
X91193Y51392D02*
X91607D01*
X91193Y51608D02*
X91607D01*
Y51392D02*
Y51608D01*
X91193Y51392D02*
Y51608D01*
Y50992D02*
X91607D01*
X91193Y51208D02*
X91607D01*
Y50992D02*
Y51208D01*
X91193Y50992D02*
Y51208D01*
Y50592D02*
X91607D01*
X91193Y50808D02*
X91607D01*
Y50592D02*
Y50808D01*
X91193Y50592D02*
Y50808D01*
Y50192D02*
X91607D01*
X91193Y50408D02*
X91607D01*
Y50192D02*
Y50408D01*
X91193Y50192D02*
Y50408D01*
Y49792D02*
X91607D01*
X91193Y50008D02*
X91607D01*
Y49792D02*
Y50008D01*
X91193Y49792D02*
Y50008D01*
X89042Y47643D02*
Y48057D01*
X89258Y47643D02*
Y48057D01*
X89042Y47643D02*
X89258D01*
X89042Y48057D02*
X89258D01*
X92857Y51842D02*
Y52058D01*
X92443Y51842D02*
Y52058D01*
Y51842D02*
X92857D01*
X92443Y52058D02*
X92857D01*
X92443Y51658D02*
X92857D01*
X92443Y51442D02*
X92857D01*
X92443D02*
Y51658D01*
X92857Y51442D02*
Y51658D01*
X92443Y51258D02*
X92857D01*
X92443Y51042D02*
X92857D01*
X92443D02*
Y51258D01*
X92857Y51042D02*
Y51258D01*
X92443Y50858D02*
X92857D01*
X92443Y50642D02*
X92857D01*
X92443D02*
Y50858D01*
X92857Y50642D02*
Y50858D01*
X92443Y50458D02*
X92857D01*
X92443Y50242D02*
X92857D01*
X92443D02*
Y50458D01*
X92857Y50242D02*
Y50458D01*
Y49842D02*
Y50058D01*
X92443Y49842D02*
Y50058D01*
Y49842D02*
X92857D01*
X92443Y50058D02*
X92857D01*
X94792Y47643D02*
Y48057D01*
X95008Y47643D02*
Y48057D01*
X94792Y47643D02*
X95008D01*
X94792Y48057D02*
X95008D01*
X95192Y47643D02*
Y48057D01*
X95408Y47643D02*
Y48057D01*
X95192Y47643D02*
X95408D01*
X95192Y48057D02*
X95408D01*
X95592Y47643D02*
Y48057D01*
X95808Y47643D02*
Y48057D01*
X95592Y47643D02*
X95808D01*
X95592Y48057D02*
X95808D01*
X95992Y47643D02*
Y48057D01*
X96208Y47643D02*
Y48057D01*
X95992Y47643D02*
X96208D01*
X95992Y48057D02*
X96208D01*
X98543Y51542D02*
X98957D01*
X98543Y51758D02*
X98957D01*
Y51542D02*
Y51758D01*
X98543Y51542D02*
Y51758D01*
Y51142D02*
X98957D01*
X98543Y51358D02*
X98957D01*
Y51142D02*
Y51358D01*
X98543Y51142D02*
Y51358D01*
Y50742D02*
X98957D01*
X98543Y50958D02*
X98957D01*
Y50742D02*
Y50958D01*
X98543Y50742D02*
Y50958D01*
Y50342D02*
X98957D01*
X98543Y50558D02*
X98957D01*
Y50342D02*
Y50558D01*
X98543Y50342D02*
Y50558D01*
Y49942D02*
X98957D01*
X98543Y50158D02*
X98957D01*
Y49942D02*
Y50158D01*
X98543Y49942D02*
Y50158D01*
X96392Y47643D02*
Y48057D01*
X96608Y47643D02*
Y48057D01*
X96392Y47643D02*
X96608D01*
X96392Y48057D02*
X96608D01*
X118039Y20831D02*
X118961D01*
X118039D02*
Y21669D01*
X118961D01*
Y20831D02*
Y21669D01*
X118039Y21831D02*
X118961D01*
X118039D02*
Y22669D01*
X118961D01*
Y21831D02*
Y22669D01*
X120061Y20831D02*
Y21669D01*
X119139D02*
X120061D01*
X119139Y20831D02*
Y21669D01*
Y20831D02*
X120061D01*
X16568Y26296D02*
X17966D01*
X16568Y28875D02*
X17966D01*
X16568Y26296D02*
Y28875D01*
X17966Y26296D02*
Y28875D01*
X40001Y44811D02*
X41399D01*
X40001Y47389D02*
X41399D01*
X40001Y44811D02*
Y47389D01*
X41399Y44811D02*
Y47389D01*
X54201D02*
X55599D01*
X54201Y44811D02*
X55599D01*
Y47389D01*
X54201Y44811D02*
Y47389D01*
X39806Y50200D02*
Y51400D01*
X40494Y50200D02*
Y51400D01*
X39806Y50200D02*
X40494D01*
X39806Y51400D02*
X40494D01*
X54106Y51800D02*
X54794D01*
X54106Y53000D02*
X54794D01*
X54106Y51800D02*
Y53000D01*
X54794Y51800D02*
Y53000D01*
X109390Y19140D02*
X110610D01*
X109390Y20360D02*
X110610D01*
X109390Y19140D02*
Y20360D01*
X110610Y19140D02*
Y20360D01*
X14490Y64760D02*
X15710D01*
X14490Y63540D02*
X15710D01*
Y64760D01*
X14490Y63540D02*
Y64760D01*
X9514Y58890D02*
Y60110D01*
X11286Y58890D02*
Y60110D01*
X9514D02*
X11286D01*
X9514Y58890D02*
X11286D01*
X52094Y50700D02*
X52606D01*
X52094D02*
Y51850D01*
X52606D01*
Y50700D02*
Y51850D01*
X52232Y50700D02*
X52606Y51074D01*
X19557Y32796D02*
X20778D01*
X19557Y31576D02*
X20778D01*
Y32796D01*
X19557Y31576D02*
Y32796D01*
X70390Y15390D02*
X71610D01*
X70390Y16610D02*
X71610D01*
X70390Y15390D02*
Y16610D01*
X71610Y15390D02*
Y16610D01*
X31444Y26865D02*
Y27535D01*
X31956Y26865D02*
Y27535D01*
X31444D02*
X31956D01*
X31444Y26865D02*
X31956D01*
X22618Y36838D02*
X23287D01*
X22618Y36326D02*
X23287D01*
Y36838D01*
X22618Y36326D02*
Y36838D01*
X50810Y30590D02*
Y31810D01*
X49590Y30590D02*
Y31810D01*
X50810D01*
X49590Y30590D02*
X50810D01*
X9190Y46340D02*
Y47560D01*
X10410Y46340D02*
Y47560D01*
X9190Y46340D02*
X10410D01*
X9190Y47560D02*
X10410D01*
X109390Y32440D02*
X110610D01*
X109390Y33660D02*
X110610D01*
X109390Y32440D02*
Y33660D01*
X110610Y32440D02*
Y33660D01*
X79044Y63350D02*
Y64550D01*
X78356Y63350D02*
Y64550D01*
Y63350D02*
X79044D01*
X78356Y64550D02*
X79044D01*
X117856Y8900D02*
X118544D01*
X117856Y10100D02*
X118544D01*
Y8900D02*
Y10100D01*
X117856Y8900D02*
Y10100D01*
X87561Y50102D02*
Y51717D01*
X89175Y50102D02*
Y51717D01*
X87561D02*
X89175D01*
X87561Y50102D02*
X89175D01*
X7726Y6043D02*
Y6457D01*
X7943Y6043D02*
Y6457D01*
X7726D02*
X7943D01*
X7726Y6043D02*
X7943D01*
X13976D02*
Y6457D01*
X14193Y6043D02*
Y6457D01*
X13976D02*
X14193D01*
X13976Y6043D02*
X14193D01*
X20226D02*
Y6457D01*
X20443Y6043D02*
Y6457D01*
X20226D02*
X20443D01*
X20226Y6043D02*
X20443D01*
X26476D02*
Y6457D01*
X26693Y6043D02*
Y6457D01*
X26476D02*
X26693D01*
X26476Y6043D02*
X26693D01*
X32726D02*
Y6457D01*
X32943Y6043D02*
Y6457D01*
X32726D02*
X32943D01*
X32726Y6043D02*
X32943D01*
X38976D02*
Y6457D01*
X39193Y6043D02*
Y6457D01*
X38976D02*
X39193D01*
X38976Y6043D02*
X39193D01*
D16*
X123943Y47047D02*
X125261D01*
Y42953D02*
Y47047D01*
X123943Y42953D02*
X125261D01*
X120675Y47047D02*
X120900D01*
X120691Y42953D02*
X120900D01*
X120675D02*
Y47047D01*
D17*
X119350Y11000D02*
G03*
X119350Y11000I-150J0D01*
G01*
Y17500D02*
G03*
X119350Y17500I-150J0D01*
G01*
D18*
X109034Y3341D02*
Y3459D01*
X108798Y3341D02*
X109034D01*
X108798D02*
Y3459D01*
X109034D01*
D19*
X99594Y6700D02*
G03*
X99594Y6700I-79J0D01*
G01*
D02*
G03*
X99594Y6700I-79J0D01*
G01*
X99516Y5172D02*
Y6700D01*
X97516Y5172D02*
X99516D01*
X97516D02*
Y6700D01*
X99516D01*
D23*
X110214Y53967D02*
X110547Y53633D01*
X110214D02*
X110547Y53967D01*
X110214Y53800D02*
X110547D01*
X110381Y53633D02*
Y53967D01*
X40645Y9990D02*
X40312Y10323D01*
X40645D02*
X40312Y9990D01*
X40645Y10156D02*
X40312D01*
X40478Y10323D02*
Y9990D01*
X53145D02*
X52812Y10323D01*
X53145D02*
X52812Y9990D01*
X53145Y10156D02*
X52812D01*
X52978Y10323D02*
Y9990D01*
X24465Y50662D02*
X24132Y50328D01*
X24465D02*
X24132Y50662D01*
X24465Y50495D02*
X24132D01*
X24298Y50328D02*
Y50662D01*
X96025Y4310D02*
X95692Y4643D01*
X96025D02*
X95692Y4310D01*
X96025Y4477D02*
X95692D01*
X95859Y4643D02*
Y4310D01*
X48913Y63865D02*
X48580D01*
X48913Y64198D01*
Y64282D01*
X48830Y64365D01*
X48663D01*
X48580Y64282D01*
Y60635D02*
X48747D01*
X48663D01*
Y61135D01*
X48580Y61052D01*
X25710Y36196D02*
X25377Y36529D01*
X25710D02*
X25377Y36196D01*
X25710Y36363D02*
X25377D01*
X25543Y36529D02*
Y36196D01*
X20109Y48654D02*
X19775Y48987D01*
Y48654D02*
X20109Y48987D01*
X19942Y48654D02*
Y48987D01*
X19775Y48821D02*
X20109D01*
X53794Y7307D02*
X53461Y6973D01*
Y7307D02*
X53794Y6973D01*
X53628Y7307D02*
Y6973D01*
X53461Y7140D02*
X53794D01*
X93820Y65823D02*
X93487Y66157D01*
X93820D02*
X93487Y65823D01*
X93820Y65990D02*
X93487D01*
X93653Y66157D02*
Y65823D01*
X90767Y28864D02*
X90433Y29197D01*
Y28864D02*
X90767Y29197D01*
X90600Y28864D02*
Y29197D01*
X90433Y29031D02*
X90767D01*
X110214Y62367D02*
X110547Y62033D01*
X110214D02*
X110547Y62367D01*
X110214Y62200D02*
X110547D01*
X110381Y62033D02*
Y62367D01*
X42210Y20595D02*
X41877Y20262D01*
Y20595D02*
X42210Y20262D01*
X42044Y20595D02*
Y20262D01*
X41877Y20428D02*
X42210D01*
X9395Y9990D02*
X9062Y10323D01*
X9395D02*
X9062Y9990D01*
X9395Y10156D02*
X9062D01*
X9228Y10323D02*
Y9990D01*
X15645D02*
X15312Y10323D01*
X15645D02*
X15312Y9990D01*
X15645Y10156D02*
X15312D01*
X15478Y10323D02*
Y9990D01*
X21895D02*
X21562Y10323D01*
X21895D02*
X21562Y9990D01*
X21895Y10156D02*
X21562D01*
X21728Y10323D02*
Y9990D01*
X28145D02*
X27812Y10323D01*
X28145D02*
X27812Y9990D01*
X28145Y10156D02*
X27812D01*
X27978Y10323D02*
Y9990D01*
X34395D02*
X34062Y10323D01*
X34395D02*
X34062Y9990D01*
X34395Y10156D02*
X34062D01*
X34228Y10323D02*
Y9990D01*
X46895D02*
X46562Y10323D01*
X46895D02*
X46562Y9990D01*
X46895Y10156D02*
X46562D01*
X46728Y10323D02*
Y9990D01*
X44893Y21228D02*
X45227Y20895D01*
X44893D02*
X45227Y21228D01*
X44893Y21062D02*
X45227D01*
X45060Y20895D02*
Y21228D01*
X10044Y7307D02*
X9711Y6973D01*
Y7307D02*
X10044Y6973D01*
X9878Y7307D02*
Y6973D01*
X9711Y7140D02*
X10044D01*
X16294Y7307D02*
X15961Y6973D01*
Y7307D02*
X16294Y6973D01*
X16128Y7307D02*
Y6973D01*
X15961Y7140D02*
X16294D01*
X22544Y7307D02*
X22211Y6973D01*
Y7307D02*
X22544Y6973D01*
X22378Y7307D02*
Y6973D01*
X22211Y7140D02*
X22544D01*
X28794Y7307D02*
X28461Y6973D01*
Y7307D02*
X28794Y6973D01*
X28628Y7307D02*
Y6973D01*
X28461Y7140D02*
X28794D01*
X35044Y7307D02*
X34711Y6973D01*
Y7307D02*
X35044Y6973D01*
X34878Y7307D02*
Y6973D01*
X34711Y7140D02*
X35044D01*
X41294Y7307D02*
X40961Y6973D01*
Y7307D02*
X41294Y6973D01*
X41128Y7307D02*
Y6973D01*
X40961Y7140D02*
X41294D01*
X47544Y7307D02*
X47211Y6973D01*
Y7307D02*
X47544Y6973D01*
X47378Y7307D02*
Y6973D01*
X47211Y7140D02*
X47544D01*
D384*
X111365Y63859D02*
Y64489D01*
X111835D01*
Y63859D02*
Y64489D01*
X111365Y63859D02*
X111835D01*
X101025Y64500D02*
X101575D01*
Y63300D02*
Y64500D01*
X101025Y63300D02*
X101575D01*
X101025D02*
Y64500D01*
X101575Y64005D02*
X101820D01*
Y63795D02*
Y64005D01*
X101575Y63795D02*
X101820D01*
X101575D02*
Y64005D01*
X100780Y63421D02*
X101025D01*
X100780D02*
Y63631D01*
X101025D01*
Y63421D02*
Y63631D01*
X100780Y64169D02*
X101025D01*
X100780D02*
Y64379D01*
X101025D01*
Y64169D02*
Y64379D01*
X110239Y53534D02*
Y54066D01*
X111361D01*
Y53534D02*
Y54066D01*
X110239Y53534D02*
X111361D01*
X110239Y53667D02*
X110372Y53534D01*
X110239Y53933D02*
X110372Y54066D01*
X111361Y53908D02*
X111558D01*
Y53692D02*
Y53908D01*
X111361Y53692D02*
X111558D01*
X111361D02*
Y53908D01*
X110042Y53692D02*
X110239D01*
X110042D02*
Y53908D01*
X110239D01*
Y53692D02*
Y53908D01*
X40720Y9930D02*
Y11170D01*
X39480Y9930D02*
X40720D01*
X39480D02*
Y11170D01*
X40720D01*
X39480Y10195D02*
Y10315D01*
Y10195D02*
Y10315D01*
Y10392D02*
Y10512D01*
Y10392D02*
Y10512D01*
Y10588D02*
Y10708D01*
Y10588D02*
Y10708D01*
Y10785D02*
Y10905D01*
Y10785D02*
Y10905D01*
X39745Y11170D02*
X39865D01*
X39745D02*
X39865D01*
X39942D02*
X40062D01*
X39942D02*
X40062D01*
X40138D02*
X40258D01*
X40138D02*
X40258D01*
X40335D02*
X40455D01*
X40335D02*
X40455D01*
X40720Y10785D02*
Y10905D01*
Y10785D02*
Y10905D01*
Y10588D02*
Y10708D01*
Y10588D02*
Y10708D01*
Y10392D02*
Y10512D01*
Y10392D02*
Y10512D01*
Y10195D02*
Y10315D01*
Y10195D02*
Y10315D01*
X40335Y9930D02*
X40455D01*
X40335D02*
X40455D01*
X40138D02*
X40258D01*
X40138D02*
X40258D01*
X39942D02*
X40062D01*
X39942D02*
X40062D01*
X39745D02*
X39865D01*
X39745D02*
X39865D01*
X40220D02*
X40720Y10430D01*
X52720Y9930D02*
X53220Y10430D01*
X52245Y9930D02*
X52365D01*
X52245D02*
X52365D01*
X52442D02*
X52562D01*
X52442D02*
X52562D01*
X52638D02*
X52758D01*
X52638D02*
X52758D01*
X52835D02*
X52955D01*
X52835D02*
X52955D01*
X53220Y10195D02*
Y10315D01*
Y10195D02*
Y10315D01*
Y10392D02*
Y10512D01*
Y10392D02*
Y10512D01*
Y10588D02*
Y10708D01*
Y10588D02*
Y10708D01*
Y10785D02*
Y10905D01*
Y10785D02*
Y10905D01*
X52835Y11170D02*
X52955D01*
X52835D02*
X52955D01*
X52638D02*
X52758D01*
X52638D02*
X52758D01*
X52442D02*
X52562D01*
X52442D02*
X52562D01*
X52245D02*
X52365D01*
X52245D02*
X52365D01*
X51980Y10785D02*
Y10905D01*
Y10785D02*
Y10905D01*
Y10588D02*
Y10708D01*
Y10588D02*
Y10708D01*
Y10392D02*
Y10512D01*
Y10392D02*
Y10512D01*
Y10195D02*
Y10315D01*
Y10195D02*
Y10315D01*
Y11170D02*
X53220D01*
X51980Y9930D02*
Y11170D01*
Y9930D02*
X53220D01*
Y11170D01*
X68649Y62690D02*
Y62830D01*
X68719D01*
Y62690D02*
Y62830D01*
X68649Y62690D02*
X68719D01*
X68529D02*
Y62830D01*
X68459Y62690D02*
X68529D01*
X68459D02*
Y62830D01*
X68529D01*
X68459Y62690D02*
X68719D01*
X68459D02*
Y62830D01*
X68719D01*
Y62690D02*
Y62830D01*
X21465Y49575D02*
X21835D01*
Y50225D01*
X21465D02*
X21835D01*
X21465Y49575D02*
Y50225D01*
X21835Y50025D02*
Y50225D01*
X21465D02*
X21835D01*
X21465Y50025D02*
Y50225D01*
Y50025D02*
X21835D01*
X21465Y49575D02*
Y49775D01*
Y49575D02*
X21835D01*
Y49775D01*
X21465D02*
X21835D01*
X24490Y47325D02*
Y50775D01*
X22910D02*
X24490D01*
X22910Y47325D02*
Y50775D01*
Y47325D02*
X24490D01*
X22480Y50650D02*
X22910D01*
X22480Y50450D02*
Y50650D01*
Y50450D02*
X22910D01*
Y50650D01*
X22480Y50150D02*
X22910D01*
X22480Y49950D02*
Y50150D01*
Y49950D02*
X22910D01*
Y50150D01*
X22480Y49650D02*
X22910D01*
X22480Y49450D02*
Y49650D01*
Y49450D02*
X22910D01*
Y49650D01*
X22480Y49150D02*
X22910D01*
X22480Y48950D02*
Y49150D01*
Y48950D02*
X22910D01*
Y49150D01*
X22480Y48650D02*
X22910D01*
X22480Y48450D02*
Y48650D01*
Y48450D02*
X22910D01*
Y48650D01*
X22480Y48150D02*
X22910D01*
X22480Y47950D02*
Y48150D01*
Y47950D02*
X22910D01*
Y48150D01*
X22480Y47650D02*
X22910D01*
X22480Y47450D02*
Y47650D01*
Y47450D02*
X22910D01*
Y47650D01*
X24490Y47450D02*
X24920D01*
Y47650D01*
X24490D02*
X24920D01*
X24490Y47450D02*
Y47650D01*
Y47950D02*
X24920D01*
Y48150D01*
X24490D02*
X24920D01*
X24490Y47950D02*
Y48150D01*
Y48450D02*
X24920D01*
Y48650D01*
X24490D02*
X24920D01*
X24490Y48450D02*
Y48650D01*
Y48950D02*
X24920D01*
Y49150D01*
X24490D02*
X24920D01*
X24490Y48950D02*
Y49150D01*
Y49450D02*
X24920D01*
Y49650D01*
X24490D02*
X24920D01*
X24490Y49450D02*
Y49650D01*
Y49950D02*
X24920D01*
Y50150D01*
X24490D02*
X24920D01*
X24490Y49950D02*
Y50150D01*
Y50450D02*
X24920D01*
Y50650D01*
X24490D02*
X24920D01*
X24490Y50450D02*
Y50650D01*
X95601Y4279D02*
X96101Y4779D01*
X94131Y6249D02*
X96101D01*
X94131Y4279D02*
Y6249D01*
Y4279D02*
X96101D01*
Y6249D01*
X106850Y29630D02*
Y30970D01*
X104250D02*
X106850D01*
X104250Y29630D02*
Y30970D01*
Y29630D02*
X106850D01*
X30425Y33170D02*
Y34230D01*
Y33170D02*
X32475D01*
Y34230D01*
X30425D02*
X32475D01*
X49030Y60490D02*
X75970D01*
Y70726D01*
X74621D02*
X75970D01*
X50379Y64510D02*
Y70726D01*
Y64510D02*
X74621D01*
Y70726D01*
X49030D02*
X50379D01*
X49030Y60490D02*
Y70726D01*
X100465Y33050D02*
Y33250D01*
X100030Y33050D02*
X100465D01*
X100030D02*
Y33250D01*
X100465D01*
Y33550D02*
Y33750D01*
X100030Y33550D02*
X100465D01*
X100030D02*
Y33750D01*
X100465D01*
Y34050D02*
Y34250D01*
X100030Y34050D02*
X100465D01*
X100030D02*
Y34250D01*
X100465D01*
Y34550D02*
Y34750D01*
X100030Y34550D02*
X100465D01*
X100030D02*
Y34750D01*
X100465D01*
X102035Y34550D02*
Y34750D01*
X102470D01*
Y34550D02*
Y34750D01*
X102035Y34550D02*
X102470D01*
X102035Y34050D02*
Y34250D01*
X102470D01*
Y34050D02*
Y34250D01*
X102035Y34050D02*
X102470D01*
X102035Y33550D02*
Y33750D01*
X102470D01*
Y33550D02*
Y33750D01*
X102035Y33550D02*
X102470D01*
X102035Y33050D02*
Y33250D01*
X102470D01*
Y33050D02*
Y33250D01*
X102035Y33050D02*
X102470D01*
X100465Y34885D02*
X102035D01*
Y32915D02*
Y34885D01*
X100465Y32915D02*
X102035D01*
X100465D02*
Y34885D01*
X25285Y36165D02*
X25785Y36665D01*
X24051Y36165D02*
X24171D01*
X24051D02*
X24171D01*
X24248D02*
X24368D01*
X24248D02*
X24368D01*
X24445D02*
X24565D01*
X24445D02*
X24565D01*
X24642D02*
X24762D01*
X24642D02*
X24762D01*
X24838D02*
X24958D01*
X24838D02*
X24958D01*
X25035D02*
X25155D01*
X25035D02*
X25155D01*
X25232D02*
X25352D01*
X25232D02*
X25352D01*
X25429D02*
X25549D01*
X25429D02*
X25549D01*
X25785Y36401D02*
Y36521D01*
Y36401D02*
Y36521D01*
Y36598D02*
Y36718D01*
Y36598D02*
Y36718D01*
Y36795D02*
Y36915D01*
Y36795D02*
Y36915D01*
Y36992D02*
Y37112D01*
Y36992D02*
Y37112D01*
Y37188D02*
Y37308D01*
Y37188D02*
Y37308D01*
Y37385D02*
Y37505D01*
Y37385D02*
Y37505D01*
Y37582D02*
Y37702D01*
Y37582D02*
Y37702D01*
Y37779D02*
Y37899D01*
Y37779D02*
Y37899D01*
X25429Y38135D02*
X25549D01*
X25429D02*
X25549D01*
X25232D02*
X25352D01*
X25232D02*
X25352D01*
X25035D02*
X25155D01*
X25035D02*
X25155D01*
X24838D02*
X24958D01*
X24838D02*
X24958D01*
X24642D02*
X24762D01*
X24642D02*
X24762D01*
X24445D02*
X24565D01*
X24445D02*
X24565D01*
X24248D02*
X24368D01*
X24248D02*
X24368D01*
X24051D02*
X24171D01*
X24051D02*
X24171D01*
X23815Y37779D02*
Y37899D01*
Y37779D02*
Y37899D01*
Y37582D02*
Y37702D01*
Y37582D02*
Y37702D01*
Y37385D02*
Y37505D01*
Y37385D02*
Y37505D01*
Y37188D02*
Y37308D01*
Y37188D02*
Y37308D01*
Y36992D02*
Y37112D01*
Y36992D02*
Y37112D01*
Y36795D02*
Y36915D01*
Y36795D02*
Y36915D01*
Y36598D02*
Y36718D01*
Y36598D02*
Y36718D01*
Y36401D02*
Y36521D01*
Y36401D02*
Y36521D01*
Y38135D02*
X25785D01*
X23815Y36165D02*
Y38135D01*
Y36165D02*
X25785D01*
Y38135D01*
X19737Y48563D02*
X20237Y49063D01*
Y49685D02*
Y49803D01*
X20257D01*
Y49685D02*
Y49803D01*
X20237Y49685D02*
X20257D01*
X20237Y49488D02*
Y49606D01*
X20257D01*
Y49488D02*
Y49606D01*
X20237Y49488D02*
X20257D01*
X20237Y49291D02*
Y49409D01*
X20257D01*
Y49291D02*
Y49409D01*
X20237Y49291D02*
X20257D01*
X20237Y49094D02*
Y49212D01*
X20257D01*
Y49094D02*
Y49212D01*
X20237Y49094D02*
X20257D01*
X20237Y48897D02*
Y49015D01*
X20257D01*
Y48897D02*
Y49015D01*
X20237Y48897D02*
X20257D01*
X19785Y48563D02*
X19903D01*
Y48543D02*
Y48563D01*
X19785Y48543D02*
X19903D01*
X19785D02*
Y48563D01*
X19588D02*
X19706D01*
Y48543D02*
Y48563D01*
X19588Y48543D02*
X19706D01*
X19588D02*
Y48563D01*
X19391D02*
X19509D01*
Y48543D02*
Y48563D01*
X19391Y48543D02*
X19509D01*
X19391D02*
Y48563D01*
X19194D02*
X19312D01*
Y48543D02*
Y48563D01*
X19194Y48543D02*
X19312D01*
X19194D02*
Y48563D01*
X18997D02*
X19115D01*
Y48543D02*
Y48563D01*
X18997Y48543D02*
X19115D01*
X18997D02*
Y48563D01*
X18663Y48897D02*
Y49015D01*
X18643Y48897D02*
X18663D01*
X18643D02*
Y49015D01*
X18663D01*
Y49094D02*
Y49212D01*
X18643Y49094D02*
X18663D01*
X18643D02*
Y49212D01*
X18663D01*
Y49291D02*
Y49409D01*
X18643Y49291D02*
X18663D01*
X18643D02*
Y49409D01*
X18663D01*
Y49488D02*
Y49606D01*
X18643Y49488D02*
X18663D01*
X18643D02*
Y49606D01*
X18663D01*
Y49685D02*
Y49803D01*
X18643Y49685D02*
X18663D01*
X18643D02*
Y49803D01*
X18663D01*
X18997Y50137D02*
X19115D01*
X18997D02*
Y50157D01*
X19115D01*
Y50137D02*
Y50157D01*
X19194Y50137D02*
X19312D01*
X19194D02*
Y50157D01*
X19312D01*
Y50137D02*
Y50157D01*
X19391Y50137D02*
X19509D01*
X19391D02*
Y50157D01*
X19509D01*
Y50137D02*
Y50157D01*
X19588Y50137D02*
X19706D01*
X19588D02*
Y50157D01*
X19706D01*
Y50137D02*
Y50157D01*
X19785Y50137D02*
X19903D01*
X19785D02*
Y50157D01*
X19903D01*
Y50137D02*
Y50157D01*
X18663Y48563D02*
Y50137D01*
X20237D01*
Y48563D02*
Y50137D01*
X18663Y48563D02*
X20237D01*
X53404Y7437D02*
X53904Y6937D01*
Y6189D02*
Y6343D01*
Y6189D02*
X53923D01*
Y6343D01*
X53904D02*
X53923D01*
X53904Y6445D02*
Y6599D01*
Y6445D02*
X53923D01*
Y6599D01*
X53904D02*
X53923D01*
X53904Y6701D02*
Y6855D01*
Y6701D02*
X53923D01*
Y6855D01*
X53904D02*
X53923D01*
X53904Y6957D02*
Y7111D01*
Y6957D02*
X53923D01*
Y7111D01*
X53904D02*
X53923D01*
X53423Y7437D02*
X53577D01*
Y7457D01*
X53423D02*
X53577D01*
X53423Y7437D02*
Y7457D01*
X53167Y7437D02*
X53321D01*
Y7457D01*
X53167D02*
X53321D01*
X53167Y7437D02*
Y7457D01*
X52911Y7437D02*
X53065D01*
Y7457D01*
X52911D02*
X53065D01*
X52911Y7437D02*
Y7457D01*
X52656Y7437D02*
X52809D01*
Y7457D01*
X52656D02*
X52809D01*
X52656Y7437D02*
Y7457D01*
X52329Y6957D02*
Y7111D01*
X52309D02*
X52329D01*
X52309Y6957D02*
Y7111D01*
Y6957D02*
X52329D01*
Y6701D02*
Y6855D01*
X52309D02*
X52329D01*
X52309Y6701D02*
Y6855D01*
Y6701D02*
X52329D01*
Y6445D02*
Y6599D01*
X52309D02*
X52329D01*
X52309Y6445D02*
Y6599D01*
Y6445D02*
X52329D01*
Y6189D02*
Y6343D01*
X52309D02*
X52329D01*
X52309Y6189D02*
Y6343D01*
Y6189D02*
X52329D01*
X52656Y5863D02*
X52809D01*
X52656Y5843D02*
Y5863D01*
Y5843D02*
X52809D01*
Y5863D01*
X52911D02*
X53065D01*
X52911Y5843D02*
Y5863D01*
Y5843D02*
X53065D01*
Y5863D01*
X53167D02*
X53321D01*
X53167Y5843D02*
Y5863D01*
Y5843D02*
X53321D01*
Y5863D01*
X53423D02*
X53577D01*
X53423Y5843D02*
Y5863D01*
Y5843D02*
X53577D01*
Y5863D01*
X52329D02*
Y7437D01*
Y5863D02*
X53904D01*
Y7437D01*
X52329D02*
X53904D01*
X96281Y3318D02*
X96501D01*
Y2878D02*
Y3318D01*
X96281Y2878D02*
X96501D01*
X96281D02*
Y3318D01*
X96501Y2878D02*
Y2998D01*
X96281Y2878D02*
X96501D01*
X96281D02*
Y2998D01*
X96501D01*
X96281Y3198D02*
Y3318D01*
X96501D01*
Y3198D02*
Y3318D01*
X96281Y3198D02*
X96501D01*
X119550Y12000D02*
X124900D01*
Y8000D02*
Y12000D01*
X119550Y8000D02*
X124900D01*
X119550D02*
Y12000D01*
X93845Y65826D02*
Y66026D01*
Y65826D02*
X94090D01*
Y66026D01*
X93845D02*
X94090D01*
X93845Y66200D02*
Y66400D01*
Y66200D02*
X94090D01*
Y66400D01*
X93845D02*
X94090D01*
X93845Y66574D02*
Y66774D01*
Y66574D02*
X94090D01*
Y66774D01*
X93845D02*
X94090D01*
X93155Y66574D02*
Y66774D01*
X92910D02*
X93155D01*
X92910Y66574D02*
Y66774D01*
Y66574D02*
X93155D01*
Y66200D02*
Y66400D01*
X92910D02*
X93155D01*
X92910Y66200D02*
Y66400D01*
Y66200D02*
X93155D01*
Y65826D02*
Y66026D01*
X92910D02*
X93155D01*
X92910Y65826D02*
Y66026D01*
Y65826D02*
X93155D01*
Y66890D02*
X93845D01*
X93155Y65710D02*
Y66890D01*
Y65710D02*
X93845D01*
Y66890D01*
X90334Y28889D02*
X90866D01*
Y30011D01*
X90334D02*
X90866D01*
X90334Y28889D02*
Y30011D01*
Y29022D02*
X90467Y28889D01*
X90733D02*
X90866Y29022D01*
X90708Y30011D02*
Y30208D01*
X90492D02*
X90708D01*
X90492Y30011D02*
Y30208D01*
Y30011D02*
X90708D01*
X90492Y28692D02*
Y28889D01*
Y28692D02*
X90708D01*
Y28889D01*
X90492D02*
X90708D01*
X110239Y61934D02*
Y62466D01*
X111361D01*
Y61934D02*
Y62466D01*
X110239Y61934D02*
X111361D01*
X110239Y62067D02*
X110372Y61934D01*
X110239Y62333D02*
X110372Y62466D01*
X111361Y62308D02*
X111558D01*
Y62092D02*
Y62308D01*
X111361Y62092D02*
X111558D01*
X111361D02*
Y62308D01*
X110042Y62092D02*
X110239D01*
X110042D02*
Y62308D01*
X110239D01*
Y62092D02*
Y62308D01*
X119550Y18500D02*
X124900D01*
Y14500D02*
Y18500D01*
X119550Y14500D02*
X124900D01*
X119550D02*
Y18500D01*
X41770Y20670D02*
X42270Y20170D01*
Y19695D02*
Y19815D01*
Y19695D02*
Y19815D01*
Y19892D02*
Y20012D01*
Y19892D02*
Y20012D01*
Y20088D02*
Y20208D01*
Y20088D02*
Y20208D01*
Y20285D02*
Y20405D01*
Y20285D02*
Y20405D01*
X41885Y20670D02*
X42005D01*
X41885D02*
X42005D01*
X41688D02*
X41808D01*
X41688D02*
X41808D01*
X41492D02*
X41612D01*
X41492D02*
X41612D01*
X41295D02*
X41415D01*
X41295D02*
X41415D01*
X41030Y20285D02*
Y20405D01*
Y20285D02*
Y20405D01*
Y20088D02*
Y20208D01*
Y20088D02*
Y20208D01*
Y19892D02*
Y20012D01*
Y19892D02*
Y20012D01*
Y19695D02*
Y19815D01*
Y19695D02*
Y19815D01*
X41295Y19430D02*
X41415D01*
X41295D02*
X41415D01*
X41492D02*
X41612D01*
X41492D02*
X41612D01*
X41688D02*
X41808D01*
X41688D02*
X41808D01*
X41885D02*
X42005D01*
X41885D02*
X42005D01*
X41030D02*
Y20670D01*
Y19430D02*
X42270D01*
Y20670D01*
X41030D02*
X42270D01*
X8970Y9930D02*
X9470Y10430D01*
X8495Y9930D02*
X8615D01*
X8495D02*
X8615D01*
X8692D02*
X8812D01*
X8692D02*
X8812D01*
X8888D02*
X9008D01*
X8888D02*
X9008D01*
X9085D02*
X9205D01*
X9085D02*
X9205D01*
X9470Y10195D02*
Y10315D01*
Y10195D02*
Y10315D01*
Y10392D02*
Y10512D01*
Y10392D02*
Y10512D01*
Y10588D02*
Y10708D01*
Y10588D02*
Y10708D01*
Y10785D02*
Y10905D01*
Y10785D02*
Y10905D01*
X9085Y11170D02*
X9205D01*
X9085D02*
X9205D01*
X8888D02*
X9008D01*
X8888D02*
X9008D01*
X8692D02*
X8812D01*
X8692D02*
X8812D01*
X8495D02*
X8615D01*
X8495D02*
X8615D01*
X8230Y10785D02*
Y10905D01*
Y10785D02*
Y10905D01*
Y10588D02*
Y10708D01*
Y10588D02*
Y10708D01*
Y10392D02*
Y10512D01*
Y10392D02*
Y10512D01*
Y10195D02*
Y10315D01*
Y10195D02*
Y10315D01*
Y11170D02*
X9470D01*
X8230Y9930D02*
Y11170D01*
Y9930D02*
X9470D01*
Y11170D01*
X15720Y9930D02*
Y11170D01*
X14480Y9930D02*
X15720D01*
X14480D02*
Y11170D01*
X15720D01*
X14480Y10195D02*
Y10315D01*
Y10195D02*
Y10315D01*
Y10392D02*
Y10512D01*
Y10392D02*
Y10512D01*
Y10588D02*
Y10708D01*
Y10588D02*
Y10708D01*
Y10785D02*
Y10905D01*
Y10785D02*
Y10905D01*
X14745Y11170D02*
X14865D01*
X14745D02*
X14865D01*
X14942D02*
X15062D01*
X14942D02*
X15062D01*
X15138D02*
X15258D01*
X15138D02*
X15258D01*
X15335D02*
X15455D01*
X15335D02*
X15455D01*
X15720Y10785D02*
Y10905D01*
Y10785D02*
Y10905D01*
Y10588D02*
Y10708D01*
Y10588D02*
Y10708D01*
Y10392D02*
Y10512D01*
Y10392D02*
Y10512D01*
Y10195D02*
Y10315D01*
Y10195D02*
Y10315D01*
X15335Y9930D02*
X15455D01*
X15335D02*
X15455D01*
X15138D02*
X15258D01*
X15138D02*
X15258D01*
X14942D02*
X15062D01*
X14942D02*
X15062D01*
X14745D02*
X14865D01*
X14745D02*
X14865D01*
X15220D02*
X15720Y10430D01*
X21970Y9930D02*
Y11170D01*
X20730Y9930D02*
X21970D01*
X20730D02*
Y11170D01*
X21970D01*
X20730Y10195D02*
Y10315D01*
Y10195D02*
Y10315D01*
Y10392D02*
Y10512D01*
Y10392D02*
Y10512D01*
Y10588D02*
Y10708D01*
Y10588D02*
Y10708D01*
Y10785D02*
Y10905D01*
Y10785D02*
Y10905D01*
X20995Y11170D02*
X21115D01*
X20995D02*
X21115D01*
X21192D02*
X21312D01*
X21192D02*
X21312D01*
X21388D02*
X21508D01*
X21388D02*
X21508D01*
X21585D02*
X21705D01*
X21585D02*
X21705D01*
X21970Y10785D02*
Y10905D01*
Y10785D02*
Y10905D01*
Y10588D02*
Y10708D01*
Y10588D02*
Y10708D01*
Y10392D02*
Y10512D01*
Y10392D02*
Y10512D01*
Y10195D02*
Y10315D01*
Y10195D02*
Y10315D01*
X21585Y9930D02*
X21705D01*
X21585D02*
X21705D01*
X21388D02*
X21508D01*
X21388D02*
X21508D01*
X21192D02*
X21312D01*
X21192D02*
X21312D01*
X20995D02*
X21115D01*
X20995D02*
X21115D01*
X21470D02*
X21970Y10430D01*
X28220Y9930D02*
Y11170D01*
X26980Y9930D02*
X28220D01*
X26980D02*
Y11170D01*
X28220D01*
X26980Y10195D02*
Y10315D01*
Y10195D02*
Y10315D01*
Y10392D02*
Y10512D01*
Y10392D02*
Y10512D01*
Y10588D02*
Y10708D01*
Y10588D02*
Y10708D01*
Y10785D02*
Y10905D01*
Y10785D02*
Y10905D01*
X27245Y11170D02*
X27365D01*
X27245D02*
X27365D01*
X27442D02*
X27562D01*
X27442D02*
X27562D01*
X27638D02*
X27758D01*
X27638D02*
X27758D01*
X27835D02*
X27955D01*
X27835D02*
X27955D01*
X28220Y10785D02*
Y10905D01*
Y10785D02*
Y10905D01*
Y10588D02*
Y10708D01*
Y10588D02*
Y10708D01*
Y10392D02*
Y10512D01*
Y10392D02*
Y10512D01*
Y10195D02*
Y10315D01*
Y10195D02*
Y10315D01*
X27835Y9930D02*
X27955D01*
X27835D02*
X27955D01*
X27638D02*
X27758D01*
X27638D02*
X27758D01*
X27442D02*
X27562D01*
X27442D02*
X27562D01*
X27245D02*
X27365D01*
X27245D02*
X27365D01*
X27720D02*
X28220Y10430D01*
X33970Y9930D02*
X34470Y10430D01*
X33495Y9930D02*
X33615D01*
X33495D02*
X33615D01*
X33692D02*
X33812D01*
X33692D02*
X33812D01*
X33888D02*
X34008D01*
X33888D02*
X34008D01*
X34085D02*
X34205D01*
X34085D02*
X34205D01*
X34470Y10195D02*
Y10315D01*
Y10195D02*
Y10315D01*
Y10392D02*
Y10512D01*
Y10392D02*
Y10512D01*
Y10588D02*
Y10708D01*
Y10588D02*
Y10708D01*
Y10785D02*
Y10905D01*
Y10785D02*
Y10905D01*
X34085Y11170D02*
X34205D01*
X34085D02*
X34205D01*
X33888D02*
X34008D01*
X33888D02*
X34008D01*
X33692D02*
X33812D01*
X33692D02*
X33812D01*
X33495D02*
X33615D01*
X33495D02*
X33615D01*
X33230Y10785D02*
Y10905D01*
Y10785D02*
Y10905D01*
Y10588D02*
Y10708D01*
Y10588D02*
Y10708D01*
Y10392D02*
Y10512D01*
Y10392D02*
Y10512D01*
Y10195D02*
Y10315D01*
Y10195D02*
Y10315D01*
Y11170D02*
X34470D01*
X33230Y9930D02*
Y11170D01*
Y9930D02*
X34470D01*
Y11170D01*
X46470Y9930D02*
X46970Y10430D01*
X45995Y9930D02*
X46115D01*
X45995D02*
X46115D01*
X46192D02*
X46312D01*
X46192D02*
X46312D01*
X46388D02*
X46508D01*
X46388D02*
X46508D01*
X46585D02*
X46705D01*
X46585D02*
X46705D01*
X46970Y10195D02*
Y10315D01*
Y10195D02*
Y10315D01*
Y10392D02*
Y10512D01*
Y10392D02*
Y10512D01*
Y10588D02*
Y10708D01*
Y10588D02*
Y10708D01*
Y10785D02*
Y10905D01*
Y10785D02*
Y10905D01*
X46585Y11170D02*
X46705D01*
X46585D02*
X46705D01*
X46388D02*
X46508D01*
X46388D02*
X46508D01*
X46192D02*
X46312D01*
X46192D02*
X46312D01*
X45995D02*
X46115D01*
X45995D02*
X46115D01*
X45730Y10785D02*
Y10905D01*
Y10785D02*
Y10905D01*
Y10588D02*
Y10708D01*
Y10588D02*
Y10708D01*
Y10392D02*
Y10512D01*
Y10392D02*
Y10512D01*
Y10195D02*
Y10315D01*
Y10195D02*
Y10315D01*
Y11170D02*
X46970D01*
X45730Y9930D02*
Y11170D01*
Y9930D02*
X46970D01*
Y11170D01*
X44565Y59415D02*
Y59885D01*
X43935Y59415D02*
X44565D01*
X43935D02*
Y59885D01*
X44565D01*
X38465D02*
X38935D01*
X38465D02*
Y60515D01*
X38935D01*
Y59885D02*
Y60515D01*
X23815Y60035D02*
X24285D01*
Y60665D01*
X23815D02*
X24285D01*
X23815Y60035D02*
Y60665D01*
X104250Y35080D02*
X106850D01*
X104250D02*
Y36420D01*
X106850D01*
Y35080D02*
Y36420D01*
X104250Y22830D02*
X106850D01*
X104250D02*
Y24170D01*
X106850D01*
Y22830D02*
Y24170D01*
Y15330D02*
Y16670D01*
X104250D02*
X106850D01*
X104250Y15330D02*
Y16670D01*
Y15330D02*
X106850D01*
X23192Y27056D02*
X25242D01*
X23192D02*
Y28116D01*
X25242D01*
Y27056D02*
Y28116D01*
X64675Y18370D02*
Y19430D01*
Y18370D02*
X66725D01*
Y19430D01*
X64675D02*
X66725D01*
X16025Y41470D02*
Y42530D01*
X13975D02*
X16025D01*
X13975Y41470D02*
Y42530D01*
Y41470D02*
X16025D01*
X93474Y7130D02*
Y7350D01*
Y7130D02*
X93594D01*
Y7350D01*
X93474D02*
X93594D01*
X93274Y7130D02*
Y7350D01*
X93154D02*
X93274D01*
X93154Y7130D02*
Y7350D01*
Y7130D02*
X93274D01*
X93154Y7350D02*
X93594D01*
X93154Y7130D02*
Y7350D01*
Y7130D02*
X93594D01*
Y7350D01*
X93170Y6233D02*
Y6453D01*
X92730Y6233D02*
X93170D01*
X92730D02*
Y6453D01*
X93170D01*
X92730Y6233D02*
X92850D01*
X92730D02*
Y6453D01*
X92850D01*
Y6233D02*
Y6453D01*
X93050D02*
X93170D01*
Y6233D02*
Y6453D01*
X93050Y6233D02*
X93170D01*
X93050D02*
Y6453D01*
Y5448D02*
Y5668D01*
Y5448D02*
X93170D01*
Y5668D01*
X93050D02*
X93170D01*
X92850Y5448D02*
Y5668D01*
X92730D02*
X92850D01*
X92730Y5448D02*
Y5668D01*
Y5448D02*
X92850D01*
X92730Y5668D02*
X93170D01*
X92730Y5448D02*
Y5668D01*
Y5448D02*
X93170D01*
Y5668D01*
X93050Y4663D02*
Y4883D01*
Y4663D02*
X93170D01*
Y4883D01*
X93050D02*
X93170D01*
X92850Y4663D02*
Y4883D01*
X92730D02*
X92850D01*
X92730Y4663D02*
Y4883D01*
Y4663D02*
X92850D01*
X92730Y4883D02*
X93170D01*
X92730Y4663D02*
Y4883D01*
Y4663D02*
X93170D01*
Y4883D01*
Y3879D02*
Y4099D01*
X92730Y3879D02*
X93170D01*
X92730D02*
Y4099D01*
X93170D01*
X92730Y3879D02*
X92850D01*
X92730D02*
Y4099D01*
X92850D01*
Y3879D02*
Y4099D01*
X93050D02*
X93170D01*
Y3879D02*
Y4099D01*
X93050Y3879D02*
X93170D01*
X93050D02*
Y4099D01*
X93927Y3318D02*
X94147D01*
Y2878D02*
Y3318D01*
X93927Y2878D02*
X94147D01*
X93927D02*
Y3318D01*
X94147Y2878D02*
Y2998D01*
X93927Y2878D02*
X94147D01*
X93927D02*
Y2998D01*
X94147D01*
X93927Y3198D02*
Y3318D01*
X94147D01*
Y3198D02*
Y3318D01*
X93927Y3198D02*
X94147D01*
X94712Y3318D02*
X94932D01*
Y2878D02*
Y3318D01*
X94712Y2878D02*
X94932D01*
X94712D02*
Y3318D01*
X94932Y2878D02*
Y2998D01*
X94712Y2878D02*
X94932D01*
X94712D02*
Y2998D01*
X94932D01*
X94712Y3198D02*
Y3318D01*
X94932D01*
Y3198D02*
Y3318D01*
X94712Y3198D02*
X94932D01*
X95496Y3318D02*
X95716D01*
Y2878D02*
Y3318D01*
X95496Y2878D02*
X95716D01*
X95496D02*
Y3318D01*
X95716Y2878D02*
Y2998D01*
X95496Y2878D02*
X95716D01*
X95496D02*
Y2998D01*
X95716D01*
X95496Y3198D02*
Y3318D01*
X95716D01*
Y3198D02*
Y3318D01*
X95496Y3198D02*
X95716D01*
X24002Y46315D02*
Y46685D01*
X23352D02*
X24002D01*
X23352Y46315D02*
Y46685D01*
Y46315D02*
X24002D01*
X23352Y46685D02*
X23552D01*
X23352Y46315D02*
Y46685D01*
Y46315D02*
X23552D01*
Y46685D01*
X23802Y46315D02*
X24002D01*
Y46685D01*
X23802D02*
X24002D01*
X23802Y46315D02*
Y46685D01*
X23275Y51265D02*
Y51635D01*
Y51265D02*
X23925D01*
Y51635D01*
X23275D02*
X23925D01*
X23725Y51265D02*
X23925D01*
Y51635D01*
X23725D02*
X23925D01*
X23725Y51265D02*
Y51635D01*
X23275D02*
X23475D01*
X23275Y51265D02*
Y51635D01*
Y51265D02*
X23475D01*
Y51635D01*
X44763Y20837D02*
X45263Y21337D01*
X45857D02*
X46011D01*
Y21357D01*
X45857D02*
X46011D01*
X45857Y21337D02*
Y21357D01*
X45601Y21337D02*
X45755D01*
Y21357D01*
X45601D02*
X45755D01*
X45601Y21337D02*
Y21357D01*
X45345Y21337D02*
X45499D01*
Y21357D01*
X45345D02*
X45499D01*
X45345Y21337D02*
Y21357D01*
X45089Y21337D02*
X45243D01*
Y21357D01*
X45089D02*
X45243D01*
X45089Y21337D02*
Y21357D01*
X44763Y20857D02*
Y21011D01*
X44743D02*
X44763D01*
X44743Y20857D02*
Y21011D01*
Y20857D02*
X44763D01*
Y20601D02*
Y20755D01*
X44743D02*
X44763D01*
X44743Y20601D02*
Y20755D01*
Y20601D02*
X44763D01*
Y20345D02*
Y20499D01*
X44743D02*
X44763D01*
X44743Y20345D02*
Y20499D01*
Y20345D02*
X44763D01*
Y20089D02*
Y20243D01*
X44743D02*
X44763D01*
X44743Y20089D02*
Y20243D01*
Y20089D02*
X44763D01*
X45089Y19763D02*
X45243D01*
X45089Y19743D02*
Y19763D01*
Y19743D02*
X45243D01*
Y19763D01*
X45345D02*
X45499D01*
X45345Y19743D02*
Y19763D01*
Y19743D02*
X45499D01*
Y19763D01*
X45601D02*
X45755D01*
X45601Y19743D02*
Y19763D01*
Y19743D02*
X45755D01*
Y19763D01*
X45857D02*
X46011D01*
X45857Y19743D02*
Y19763D01*
Y19743D02*
X46011D01*
Y19763D01*
X46337Y20089D02*
Y20243D01*
Y20089D02*
X46357D01*
Y20243D01*
X46337D02*
X46357D01*
X46337Y20345D02*
Y20499D01*
Y20345D02*
X46357D01*
Y20499D01*
X46337D02*
X46357D01*
X46337Y20601D02*
Y20755D01*
Y20601D02*
X46357D01*
Y20755D01*
X46337D02*
X46357D01*
X46337Y20857D02*
Y21011D01*
Y20857D02*
X46357D01*
Y21011D01*
X46337D02*
X46357D01*
X44763Y19763D02*
X46337D01*
Y21337D01*
X44763D02*
X46337D01*
X44763Y19763D02*
Y21337D01*
X9654Y7437D02*
X10154Y6937D01*
Y6189D02*
Y6343D01*
Y6189D02*
X10173D01*
Y6343D01*
X10154D02*
X10173D01*
X10154Y6445D02*
Y6599D01*
Y6445D02*
X10173D01*
Y6599D01*
X10154D02*
X10173D01*
X10154Y6701D02*
Y6855D01*
Y6701D02*
X10173D01*
Y6855D01*
X10154D02*
X10173D01*
X10154Y6957D02*
Y7111D01*
Y6957D02*
X10173D01*
Y7111D01*
X10154D02*
X10173D01*
X9673Y7437D02*
X9827D01*
Y7457D01*
X9673D02*
X9827D01*
X9673Y7437D02*
Y7457D01*
X9417Y7437D02*
X9571D01*
Y7457D01*
X9417D02*
X9571D01*
X9417Y7437D02*
Y7457D01*
X9161Y7437D02*
X9315D01*
Y7457D01*
X9161D02*
X9315D01*
X9161Y7437D02*
Y7457D01*
X8906Y7437D02*
X9059D01*
Y7457D01*
X8906D02*
X9059D01*
X8906Y7437D02*
Y7457D01*
X8579Y6957D02*
Y7111D01*
X8559D02*
X8579D01*
X8559Y6957D02*
Y7111D01*
Y6957D02*
X8579D01*
Y6701D02*
Y6855D01*
X8559D02*
X8579D01*
X8559Y6701D02*
Y6855D01*
Y6701D02*
X8579D01*
Y6445D02*
Y6599D01*
X8559D02*
X8579D01*
X8559Y6445D02*
Y6599D01*
Y6445D02*
X8579D01*
Y6189D02*
Y6343D01*
X8559D02*
X8579D01*
X8559Y6189D02*
Y6343D01*
Y6189D02*
X8579D01*
X8906Y5863D02*
X9059D01*
X8906Y5843D02*
Y5863D01*
Y5843D02*
X9059D01*
Y5863D01*
X9161D02*
X9315D01*
X9161Y5843D02*
Y5863D01*
Y5843D02*
X9315D01*
Y5863D01*
X9417D02*
X9571D01*
X9417Y5843D02*
Y5863D01*
Y5843D02*
X9571D01*
Y5863D01*
X9673D02*
X9827D01*
X9673Y5843D02*
Y5863D01*
Y5843D02*
X9827D01*
Y5863D01*
X8579D02*
Y7437D01*
Y5863D02*
X10154D01*
Y7437D01*
X8579D02*
X10154D01*
X14829D02*
X16404D01*
Y5863D02*
Y7437D01*
X14829Y5863D02*
X16404D01*
X14829D02*
Y7437D01*
X16077Y5843D02*
Y5863D01*
X15923Y5843D02*
X16077D01*
X15923D02*
Y5863D01*
X16077D01*
X15821Y5843D02*
Y5863D01*
X15667Y5843D02*
X15821D01*
X15667D02*
Y5863D01*
X15821D01*
X15565Y5843D02*
Y5863D01*
X15411Y5843D02*
X15565D01*
X15411D02*
Y5863D01*
X15565D01*
X15309Y5843D02*
Y5863D01*
X15156Y5843D02*
X15309D01*
X15156D02*
Y5863D01*
X15309D01*
X14809Y6189D02*
X14829D01*
X14809D02*
Y6343D01*
X14829D01*
Y6189D02*
Y6343D01*
X14809Y6445D02*
X14829D01*
X14809D02*
Y6599D01*
X14829D01*
Y6445D02*
Y6599D01*
X14809Y6701D02*
X14829D01*
X14809D02*
Y6855D01*
X14829D01*
Y6701D02*
Y6855D01*
X14809Y6957D02*
X14829D01*
X14809D02*
Y7111D01*
X14829D01*
Y6957D02*
Y7111D01*
X15156Y7437D02*
Y7457D01*
X15309D01*
Y7437D02*
Y7457D01*
X15156Y7437D02*
X15309D01*
X15411D02*
Y7457D01*
X15565D01*
Y7437D02*
Y7457D01*
X15411Y7437D02*
X15565D01*
X15667D02*
Y7457D01*
X15821D01*
Y7437D02*
Y7457D01*
X15667Y7437D02*
X15821D01*
X15923D02*
Y7457D01*
X16077D01*
Y7437D02*
Y7457D01*
X15923Y7437D02*
X16077D01*
X16404Y7111D02*
X16423D01*
Y6957D02*
Y7111D01*
X16404Y6957D02*
X16423D01*
X16404D02*
Y7111D01*
Y6855D02*
X16423D01*
Y6701D02*
Y6855D01*
X16404Y6701D02*
X16423D01*
X16404D02*
Y6855D01*
Y6599D02*
X16423D01*
Y6445D02*
Y6599D01*
X16404Y6445D02*
X16423D01*
X16404D02*
Y6599D01*
Y6343D02*
X16423D01*
Y6189D02*
Y6343D01*
X16404Y6189D02*
X16423D01*
X16404D02*
Y6343D01*
X15904Y7437D02*
X16404Y6937D01*
X21079Y7437D02*
X22654D01*
Y5863D02*
Y7437D01*
X21079Y5863D02*
X22654D01*
X21079D02*
Y7437D01*
X22327Y5843D02*
Y5863D01*
X22173Y5843D02*
X22327D01*
X22173D02*
Y5863D01*
X22327D01*
X22071Y5843D02*
Y5863D01*
X21917Y5843D02*
X22071D01*
X21917D02*
Y5863D01*
X22071D01*
X21815Y5843D02*
Y5863D01*
X21661Y5843D02*
X21815D01*
X21661D02*
Y5863D01*
X21815D01*
X21559Y5843D02*
Y5863D01*
X21406Y5843D02*
X21559D01*
X21406D02*
Y5863D01*
X21559D01*
X21059Y6189D02*
X21079D01*
X21059D02*
Y6343D01*
X21079D01*
Y6189D02*
Y6343D01*
X21059Y6445D02*
X21079D01*
X21059D02*
Y6599D01*
X21079D01*
Y6445D02*
Y6599D01*
X21059Y6701D02*
X21079D01*
X21059D02*
Y6855D01*
X21079D01*
Y6701D02*
Y6855D01*
X21059Y6957D02*
X21079D01*
X21059D02*
Y7111D01*
X21079D01*
Y6957D02*
Y7111D01*
X21406Y7437D02*
Y7457D01*
X21559D01*
Y7437D02*
Y7457D01*
X21406Y7437D02*
X21559D01*
X21661D02*
Y7457D01*
X21815D01*
Y7437D02*
Y7457D01*
X21661Y7437D02*
X21815D01*
X21917D02*
Y7457D01*
X22071D01*
Y7437D02*
Y7457D01*
X21917Y7437D02*
X22071D01*
X22173D02*
Y7457D01*
X22327D01*
Y7437D02*
Y7457D01*
X22173Y7437D02*
X22327D01*
X22654Y7111D02*
X22673D01*
Y6957D02*
Y7111D01*
X22654Y6957D02*
X22673D01*
X22654D02*
Y7111D01*
Y6855D02*
X22673D01*
Y6701D02*
Y6855D01*
X22654Y6701D02*
X22673D01*
X22654D02*
Y6855D01*
Y6599D02*
X22673D01*
Y6445D02*
Y6599D01*
X22654Y6445D02*
X22673D01*
X22654D02*
Y6599D01*
Y6343D02*
X22673D01*
Y6189D02*
Y6343D01*
X22654Y6189D02*
X22673D01*
X22654D02*
Y6343D01*
X22154Y7437D02*
X22654Y6937D01*
X27329Y7437D02*
X28904D01*
Y5863D02*
Y7437D01*
X27329Y5863D02*
X28904D01*
X27329D02*
Y7437D01*
X28577Y5843D02*
Y5863D01*
X28423Y5843D02*
X28577D01*
X28423D02*
Y5863D01*
X28577D01*
X28321Y5843D02*
Y5863D01*
X28167Y5843D02*
X28321D01*
X28167D02*
Y5863D01*
X28321D01*
X28065Y5843D02*
Y5863D01*
X27911Y5843D02*
X28065D01*
X27911D02*
Y5863D01*
X28065D01*
X27809Y5843D02*
Y5863D01*
X27656Y5843D02*
X27809D01*
X27656D02*
Y5863D01*
X27809D01*
X27309Y6189D02*
X27329D01*
X27309D02*
Y6343D01*
X27329D01*
Y6189D02*
Y6343D01*
X27309Y6445D02*
X27329D01*
X27309D02*
Y6599D01*
X27329D01*
Y6445D02*
Y6599D01*
X27309Y6701D02*
X27329D01*
X27309D02*
Y6855D01*
X27329D01*
Y6701D02*
Y6855D01*
X27309Y6957D02*
X27329D01*
X27309D02*
Y7111D01*
X27329D01*
Y6957D02*
Y7111D01*
X27656Y7437D02*
Y7457D01*
X27809D01*
Y7437D02*
Y7457D01*
X27656Y7437D02*
X27809D01*
X27911D02*
Y7457D01*
X28065D01*
Y7437D02*
Y7457D01*
X27911Y7437D02*
X28065D01*
X28167D02*
Y7457D01*
X28321D01*
Y7437D02*
Y7457D01*
X28167Y7437D02*
X28321D01*
X28423D02*
Y7457D01*
X28577D01*
Y7437D02*
Y7457D01*
X28423Y7437D02*
X28577D01*
X28904Y7111D02*
X28923D01*
Y6957D02*
Y7111D01*
X28904Y6957D02*
X28923D01*
X28904D02*
Y7111D01*
Y6855D02*
X28923D01*
Y6701D02*
Y6855D01*
X28904Y6701D02*
X28923D01*
X28904D02*
Y6855D01*
Y6599D02*
X28923D01*
Y6445D02*
Y6599D01*
X28904Y6445D02*
X28923D01*
X28904D02*
Y6599D01*
Y6343D02*
X28923D01*
Y6189D02*
Y6343D01*
X28904Y6189D02*
X28923D01*
X28904D02*
Y6343D01*
X28404Y7437D02*
X28904Y6937D01*
X33579Y7437D02*
X35154D01*
Y5863D02*
Y7437D01*
X33579Y5863D02*
X35154D01*
X33579D02*
Y7437D01*
X34827Y5843D02*
Y5863D01*
X34673Y5843D02*
X34827D01*
X34673D02*
Y5863D01*
X34827D01*
X34571Y5843D02*
Y5863D01*
X34417Y5843D02*
X34571D01*
X34417D02*
Y5863D01*
X34571D01*
X34315Y5843D02*
Y5863D01*
X34161Y5843D02*
X34315D01*
X34161D02*
Y5863D01*
X34315D01*
X34059Y5843D02*
Y5863D01*
X33906Y5843D02*
X34059D01*
X33906D02*
Y5863D01*
X34059D01*
X33559Y6189D02*
X33579D01*
X33559D02*
Y6343D01*
X33579D01*
Y6189D02*
Y6343D01*
X33559Y6445D02*
X33579D01*
X33559D02*
Y6599D01*
X33579D01*
Y6445D02*
Y6599D01*
X33559Y6701D02*
X33579D01*
X33559D02*
Y6855D01*
X33579D01*
Y6701D02*
Y6855D01*
X33559Y6957D02*
X33579D01*
X33559D02*
Y7111D01*
X33579D01*
Y6957D02*
Y7111D01*
X33906Y7437D02*
Y7457D01*
X34059D01*
Y7437D02*
Y7457D01*
X33906Y7437D02*
X34059D01*
X34161D02*
Y7457D01*
X34315D01*
Y7437D02*
Y7457D01*
X34161Y7437D02*
X34315D01*
X34417D02*
Y7457D01*
X34571D01*
Y7437D02*
Y7457D01*
X34417Y7437D02*
X34571D01*
X34673D02*
Y7457D01*
X34827D01*
Y7437D02*
Y7457D01*
X34673Y7437D02*
X34827D01*
X35154Y7111D02*
X35173D01*
Y6957D02*
Y7111D01*
X35154Y6957D02*
X35173D01*
X35154D02*
Y7111D01*
Y6855D02*
X35173D01*
Y6701D02*
Y6855D01*
X35154Y6701D02*
X35173D01*
X35154D02*
Y6855D01*
Y6599D02*
X35173D01*
Y6445D02*
Y6599D01*
X35154Y6445D02*
X35173D01*
X35154D02*
Y6599D01*
Y6343D02*
X35173D01*
Y6189D02*
Y6343D01*
X35154Y6189D02*
X35173D01*
X35154D02*
Y6343D01*
X34654Y7437D02*
X35154Y6937D01*
X39829Y7437D02*
X41404D01*
Y5863D02*
Y7437D01*
X39829Y5863D02*
X41404D01*
X39829D02*
Y7437D01*
X41077Y5843D02*
Y5863D01*
X40923Y5843D02*
X41077D01*
X40923D02*
Y5863D01*
X41077D01*
X40821Y5843D02*
Y5863D01*
X40667Y5843D02*
X40821D01*
X40667D02*
Y5863D01*
X40821D01*
X40565Y5843D02*
Y5863D01*
X40411Y5843D02*
X40565D01*
X40411D02*
Y5863D01*
X40565D01*
X40309Y5843D02*
Y5863D01*
X40156Y5843D02*
X40309D01*
X40156D02*
Y5863D01*
X40309D01*
X39809Y6189D02*
X39829D01*
X39809D02*
Y6343D01*
X39829D01*
Y6189D02*
Y6343D01*
X39809Y6445D02*
X39829D01*
X39809D02*
Y6599D01*
X39829D01*
Y6445D02*
Y6599D01*
X39809Y6701D02*
X39829D01*
X39809D02*
Y6855D01*
X39829D01*
Y6701D02*
Y6855D01*
X39809Y6957D02*
X39829D01*
X39809D02*
Y7111D01*
X39829D01*
Y6957D02*
Y7111D01*
X40156Y7437D02*
Y7457D01*
X40309D01*
Y7437D02*
Y7457D01*
X40156Y7437D02*
X40309D01*
X40411D02*
Y7457D01*
X40565D01*
Y7437D02*
Y7457D01*
X40411Y7437D02*
X40565D01*
X40667D02*
Y7457D01*
X40821D01*
Y7437D02*
Y7457D01*
X40667Y7437D02*
X40821D01*
X40923D02*
Y7457D01*
X41077D01*
Y7437D02*
Y7457D01*
X40923Y7437D02*
X41077D01*
X41404Y7111D02*
X41423D01*
Y6957D02*
Y7111D01*
X41404Y6957D02*
X41423D01*
X41404D02*
Y7111D01*
Y6855D02*
X41423D01*
Y6701D02*
Y6855D01*
X41404Y6701D02*
X41423D01*
X41404D02*
Y6855D01*
Y6599D02*
X41423D01*
Y6445D02*
Y6599D01*
X41404Y6445D02*
X41423D01*
X41404D02*
Y6599D01*
Y6343D02*
X41423D01*
Y6189D02*
Y6343D01*
X41404Y6189D02*
X41423D01*
X41404D02*
Y6343D01*
X40904Y7437D02*
X41404Y6937D01*
X47154Y7437D02*
X47654Y6937D01*
Y6189D02*
Y6343D01*
Y6189D02*
X47673D01*
Y6343D01*
X47654D02*
X47673D01*
X47654Y6445D02*
Y6599D01*
Y6445D02*
X47673D01*
Y6599D01*
X47654D02*
X47673D01*
X47654Y6701D02*
Y6855D01*
Y6701D02*
X47673D01*
Y6855D01*
X47654D02*
X47673D01*
X47654Y6957D02*
Y7111D01*
Y6957D02*
X47673D01*
Y7111D01*
X47654D02*
X47673D01*
X47173Y7437D02*
X47327D01*
Y7457D01*
X47173D02*
X47327D01*
X47173Y7437D02*
Y7457D01*
X46917Y7437D02*
X47071D01*
Y7457D01*
X46917D02*
X47071D01*
X46917Y7437D02*
Y7457D01*
X46661Y7437D02*
X46815D01*
Y7457D01*
X46661D02*
X46815D01*
X46661Y7437D02*
Y7457D01*
X46406Y7437D02*
X46559D01*
Y7457D01*
X46406D02*
X46559D01*
X46406Y7437D02*
Y7457D01*
X46079Y6957D02*
Y7111D01*
X46059D02*
X46079D01*
X46059Y6957D02*
Y7111D01*
Y6957D02*
X46079D01*
Y6701D02*
Y6855D01*
X46059D02*
X46079D01*
X46059Y6701D02*
Y6855D01*
Y6701D02*
X46079D01*
Y6445D02*
Y6599D01*
X46059D02*
X46079D01*
X46059Y6445D02*
Y6599D01*
Y6445D02*
X46079D01*
Y6189D02*
Y6343D01*
X46059D02*
X46079D01*
X46059Y6189D02*
Y6343D01*
Y6189D02*
X46079D01*
X46406Y5863D02*
X46559D01*
X46406Y5843D02*
Y5863D01*
Y5843D02*
X46559D01*
Y5863D01*
X46661D02*
X46815D01*
X46661Y5843D02*
Y5863D01*
Y5843D02*
X46815D01*
Y5863D01*
X46917D02*
X47071D01*
X46917Y5843D02*
Y5863D01*
Y5843D02*
X47071D01*
Y5863D01*
X47173D02*
X47327D01*
X47173Y5843D02*
Y5863D01*
Y5843D02*
X47327D01*
Y5863D01*
X46079D02*
Y7437D01*
Y5863D02*
X47654D01*
Y7437D01*
X46079D02*
X47654D01*
X68044Y62958D02*
Y63098D01*
X68114D01*
Y62958D02*
Y63098D01*
X68044Y62958D02*
X68114D01*
X67924D02*
Y63098D01*
X67854Y62958D02*
X67924D01*
X67854D02*
Y63098D01*
X67924D01*
X67854Y62958D02*
X68114D01*
X67854D02*
Y63098D01*
X68114D01*
Y62958D02*
Y63098D01*
X68529Y62958D02*
Y63098D01*
X68459Y62958D02*
X68529D01*
X68459D02*
Y63098D01*
X68529D01*
X68649Y62958D02*
Y63098D01*
X68719D01*
Y62958D02*
Y63098D01*
X68649Y62958D02*
X68719D01*
X68459Y63098D02*
X68719D01*
Y62958D02*
Y63098D01*
X68459Y62958D02*
X68719D01*
X68459D02*
Y63098D01*
X67924Y62690D02*
Y62830D01*
X67854Y62690D02*
X67924D01*
X67854D02*
Y62830D01*
X67924D01*
X68044Y62690D02*
Y62830D01*
X68114D01*
Y62690D02*
Y62830D01*
X68044Y62690D02*
X68114D01*
X67854Y62830D02*
X68114D01*
Y62690D02*
Y62830D01*
X67854Y62690D02*
X68114D01*
X67854D02*
Y62830D01*
D385*
X111480Y64489D02*
G03*
X111720Y64489I120J0D01*
G01*
X101175Y64400D02*
G03*
X101175Y64400I-50J0D01*
G01*
X23580Y50775D02*
G03*
X23820Y50775I120J0D01*
G01*
X50128Y61280D02*
G03*
X50128Y61280I-100J0D01*
G01*
X101370Y32915D02*
G03*
X101130Y32915I-120J0D01*
G01*
X93620Y65710D02*
G03*
X93380Y65710I-120J0D01*
G01*
X43935Y59530D02*
G03*
X43935Y59770I0J120D01*
G01*
X38580Y60515D02*
G03*
X38820Y60515I120J0D01*
G01*
X23930Y60665D02*
G03*
X24170Y60665I120J0D01*
G01*
D386*
X22400Y35057D02*
D03*
D387*
X24457Y34400D02*
D03*
M02*
