%TF.GenerationSoftware,Altium Limited,Altium Designer,22.6.1 (34)*%
G04 Layer_Color=16711935*
%FSLAX26Y26*%
%MOIN*%
%TF.SameCoordinates,08F94D22-2ED8-4738-ABBF-34BB79D8E07D*%
%TF.FilePolarity,Negative*%
%TF.FileFunction,Soldermask,Bot*%
%TF.Part,Single*%
G01*
G75*
%TA.AperFunction,SMDPad,CuDef*%
%ADD27R,0.029528X0.035433*%
%TA.AperFunction,ConnectorPad*%
%ADD57R,0.062992X0.192913*%
%TA.AperFunction,SMDPad,CuDef*%
%ADD68R,0.035433X0.029528*%
%ADD73R,0.026000X0.009000*%
%TA.AperFunction,ComponentPad*%
%ADD144C,0.096457*%
%ADD146R,0.054685X0.054685*%
%ADD147C,0.054685*%
%ADD148C,0.031496*%
G04:AMPARAMS|DCode=149|XSize=57.087mil|YSize=78.74mil|CornerRadius=28.543mil|HoleSize=0mil|Usage=FLASHONLY|Rotation=90.000|XOffset=0mil|YOffset=0mil|HoleType=Round|Shape=RoundedRectangle|*
%AMROUNDEDRECTD149*
21,1,0.057087,0.021654,0,0,90.0*
21,1,0.000000,0.078740,0,0,90.0*
1,1,0.057087,0.010827,0.000000*
1,1,0.057087,0.010827,0.000000*
1,1,0.057087,-0.010827,0.000000*
1,1,0.057087,-0.010827,0.000000*
%
%ADD149ROUNDEDRECTD149*%
G04:AMPARAMS|DCode=150|XSize=45.276mil|YSize=70.866mil|CornerRadius=22.638mil|HoleSize=0mil|Usage=FLASHONLY|Rotation=90.000|XOffset=0mil|YOffset=0mil|HoleType=Round|Shape=RoundedRectangle|*
%AMROUNDEDRECTD150*
21,1,0.045276,0.025590,0,0,90.0*
21,1,0.000000,0.070866,0,0,90.0*
1,1,0.045276,0.012795,0.000000*
1,1,0.045276,0.012795,0.000000*
1,1,0.045276,-0.012795,0.000000*
1,1,0.045276,-0.012795,0.000000*
%
%ADD150ROUNDEDRECTD150*%
%ADD151C,0.055000*%
%ADD159C,0.063000*%
%TA.AperFunction,SMDPad,CuDef*%
%ADD193R,0.100000X0.061000*%
%ADD200R,0.023654X0.043748*%
%ADD201R,0.128000X0.075000*%
G04:AMPARAMS|DCode=204|XSize=43.307mil|YSize=23.622mil|CornerRadius=2.008mil|HoleSize=0mil|Usage=FLASHONLY|Rotation=90.000|XOffset=0mil|YOffset=0mil|HoleType=Round|Shape=RoundedRectangle|*
%AMROUNDEDRECTD204*
21,1,0.043307,0.019606,0,0,90.0*
21,1,0.039291,0.023622,0,0,90.0*
1,1,0.004016,0.009803,0.019646*
1,1,0.004016,0.009803,-0.019646*
1,1,0.004016,-0.009803,-0.019646*
1,1,0.004016,-0.009803,0.019646*
%
%ADD204ROUNDEDRECTD204*%
%ADD205R,0.053150X0.015748*%
%ADD208R,0.015000X0.014000*%
%ADD211R,0.090000X0.024000*%
%ADD215R,0.102362X0.102362*%
%ADD216R,0.035622X0.011811*%
%ADD217R,0.011811X0.035622*%
%ADD226R,0.009000X0.026000*%
%ADD257R,0.039496X0.045402*%
%ADD258R,0.043433X0.035559*%
%ADD259R,0.045402X0.039496*%
%ADD260R,0.043827X0.062724*%
%ADD261R,0.053276X0.063118*%
%ADD262R,0.024535X0.032409*%
%ADD263R,0.032409X0.031228*%
%ADD264R,0.032409X0.024535*%
%ADD265R,0.023748X0.029654*%
G04:AMPARAMS|DCode=266|XSize=31.622mil|YSize=78.866mil|CornerRadius=6.008mil|HoleSize=0mil|Usage=FLASHONLY|Rotation=270.000|XOffset=0mil|YOffset=0mil|HoleType=Round|Shape=RoundedRectangle|*
%AMROUNDEDRECTD266*
21,1,0.031622,0.066850,0,0,270.0*
21,1,0.019606,0.078866,0,0,270.0*
1,1,0.012016,-0.033425,-0.009803*
1,1,0.012016,-0.033425,0.009803*
1,1,0.012016,0.033425,0.009803*
1,1,0.012016,0.033425,-0.009803*
%
%ADD266ROUNDEDRECTD266*%
G04:AMPARAMS|DCode=267|XSize=132.016mil|YSize=78.866mil|CornerRadius=6.126mil|HoleSize=0mil|Usage=FLASHONLY|Rotation=270.000|XOffset=0mil|YOffset=0mil|HoleType=Round|Shape=RoundedRectangle|*
%AMROUNDEDRECTD267*
21,1,0.132016,0.066614,0,0,270.0*
21,1,0.119764,0.078866,0,0,270.0*
1,1,0.012252,-0.033307,-0.059882*
1,1,0.012252,-0.033307,0.059882*
1,1,0.012252,0.033307,0.059882*
1,1,0.012252,0.033307,-0.059882*
%
%ADD267ROUNDEDRECTD267*%
G04:AMPARAMS|DCode=268|XSize=29.654mil|YSize=39.496mil|CornerRadius=5.949mil|HoleSize=0mil|Usage=FLASHONLY|Rotation=270.000|XOffset=0mil|YOffset=0mil|HoleType=Round|Shape=RoundedRectangle|*
%AMROUNDEDRECTD268*
21,1,0.029654,0.027599,0,0,270.0*
21,1,0.017756,0.039496,0,0,270.0*
1,1,0.011898,-0.013799,-0.008878*
1,1,0.011898,-0.013799,0.008878*
1,1,0.011898,0.013799,0.008878*
1,1,0.011898,0.013799,-0.008878*
%
%ADD268ROUNDEDRECTD268*%
%ADD269R,0.031228X0.032409*%
G04:AMPARAMS|DCode=270|XSize=31.622mil|YSize=90.677mil|CornerRadius=6.008mil|HoleSize=0mil|Usage=FLASHONLY|Rotation=90.000|XOffset=0mil|YOffset=0mil|HoleType=Round|Shape=RoundedRectangle|*
%AMROUNDEDRECTD270*
21,1,0.031622,0.078661,0,0,90.0*
21,1,0.019606,0.090677,0,0,90.0*
1,1,0.012016,0.039331,0.009803*
1,1,0.012016,0.039331,-0.009803*
1,1,0.012016,-0.039331,-0.009803*
1,1,0.012016,-0.039331,0.009803*
%
%ADD270ROUNDEDRECTD270*%
G04:AMPARAMS|DCode=271|XSize=133.984mil|YSize=90.677mil|CornerRadius=6.067mil|HoleSize=0mil|Usage=FLASHONLY|Rotation=90.000|XOffset=0mil|YOffset=0mil|HoleType=Round|Shape=RoundedRectangle|*
%AMROUNDEDRECTD271*
21,1,0.133984,0.078543,0,0,90.0*
21,1,0.121850,0.090677,0,0,90.0*
1,1,0.012134,0.039272,0.060925*
1,1,0.012134,0.039272,-0.060925*
1,1,0.012134,-0.039272,-0.060925*
1,1,0.012134,-0.039272,0.060925*
%
%ADD271ROUNDEDRECTD271*%
G04:AMPARAMS|DCode=272|XSize=19.811mil|YSize=61.15mil|CornerRadius=5.949mil|HoleSize=0mil|Usage=FLASHONLY|Rotation=270.000|XOffset=0mil|YOffset=0mil|HoleType=Round|Shape=RoundedRectangle|*
%AMROUNDEDRECTD272*
21,1,0.019811,0.049252,0,0,270.0*
21,1,0.007913,0.061150,0,0,270.0*
1,1,0.011898,-0.024626,-0.003957*
1,1,0.011898,-0.024626,0.003957*
1,1,0.011898,0.024626,0.003957*
1,1,0.011898,0.024626,-0.003957*
%
%ADD272ROUNDEDRECTD272*%
%ADD273R,0.032409X0.033984*%
%ADD274R,0.031622X0.029654*%
%ADD275R,0.126110X0.072961*%
%ADD276R,0.063118X0.053276*%
%ADD277R,0.047370X0.049339*%
%ADD278R,0.076898X0.053276*%
%ADD279R,0.334772X0.425323*%
%ADD280R,0.094614X0.049339*%
%ADD281R,0.076898X0.153669*%
%ADD282R,0.086000X0.030000*%
%ADD283R,0.035559X0.043433*%
%ADD284R,0.043433X0.049339*%
%ADD285R,0.033984X0.032409*%
%ADD286R,0.047370X0.051307*%
%ADD287R,0.033591X0.029654*%
%ADD288R,0.153669X0.076898*%
%ADD289R,0.036000X0.045000*%
%ADD290R,0.045402X0.037528*%
%ADD291R,0.045000X0.036000*%
G04:AMPARAMS|DCode=292|XSize=31.622mil|YSize=65.087mil|CornerRadius=6.008mil|HoleSize=0mil|Usage=FLASHONLY|Rotation=270.000|XOffset=0mil|YOffset=0mil|HoleType=Round|Shape=RoundedRectangle|*
%AMROUNDEDRECTD292*
21,1,0.031622,0.053071,0,0,270.0*
21,1,0.019606,0.065087,0,0,270.0*
1,1,0.012016,-0.026535,-0.009803*
1,1,0.012016,-0.026535,0.009803*
1,1,0.012016,0.026535,0.009803*
1,1,0.012016,0.026535,-0.009803*
%
%ADD292ROUNDEDRECTD292*%
%ADD293R,0.047370X0.027685*%
%ADD294R,0.027685X0.047370*%
%ADD295O,0.017843X0.045402*%
%ADD296O,0.045402X0.017843*%
%ADD297R,0.106425X0.106425*%
%ADD298R,0.057213X0.031622*%
%ADD299R,0.037528X0.045008*%
%ADD300R,0.029654X0.025716*%
%ADD301R,0.019811X0.025716*%
%ADD302R,0.025716X0.019811*%
%ADD303R,0.133984X0.133984*%
%ADD304O,0.057874X0.016535*%
%ADD305R,0.051307X0.051307*%
%ADD306R,0.092646X0.133984*%
%ADD307R,0.092646X0.035559*%
%ADD308R,0.071779X0.101701*%
%ADD309R,0.029654X0.021779*%
%ADD310R,0.022173X0.017843*%
%TA.AperFunction,ComponentPad*%
%ADD311R,0.075913X0.075913*%
%ADD312C,0.028000*%
%ADD313C,0.086740*%
%ADD314C,0.162000*%
%ADD315C,0.072961*%
%ADD316R,0.072961X0.072961*%
%ADD317C,0.068000*%
G04:AMPARAMS|DCode=318|XSize=70.992mil|YSize=128.079mil|CornerRadius=19.748mil|HoleSize=0mil|Usage=FLASHONLY|Rotation=90.000|XOffset=0mil|YOffset=0mil|HoleType=Round|Shape=RoundedRectangle|*
%AMROUNDEDRECTD318*
21,1,0.070992,0.088583,0,0,90.0*
21,1,0.031496,0.128079,0,0,90.0*
1,1,0.039496,0.044291,0.015748*
1,1,0.039496,0.044291,-0.015748*
1,1,0.039496,-0.044291,-0.015748*
1,1,0.039496,-0.044291,0.015748*
%
%ADD318ROUNDEDRECTD318*%
%ADD319C,0.036543*%
%ADD320C,0.091000*%
%ADD321C,0.108000*%
%ADD322C,0.308000*%
%ADD323C,0.118000*%
%ADD324C,0.050520*%
%ADD325C,0.132016*%
%ADD326C,0.102488*%
%ADD327C,0.067843*%
%ADD328C,0.063118*%
G04:AMPARAMS|DCode=329|XSize=63.118mil|YSize=63.118mil|CornerRadius=17.779mil|HoleSize=0mil|Usage=FLASHONLY|Rotation=270.000|XOffset=0mil|YOffset=0mil|HoleType=Round|Shape=RoundedRectangle|*
%AMROUNDEDRECTD329*
21,1,0.063118,0.027559,0,0,270.0*
21,1,0.027559,0.063118,0,0,270.0*
1,1,0.035559,-0.013780,-0.013780*
1,1,0.035559,-0.013780,0.013780*
1,1,0.035559,0.013780,0.013780*
1,1,0.035559,0.013780,-0.013780*
%
%ADD329ROUNDEDRECTD329*%
%TA.AperFunction,ViaPad*%
%ADD330C,0.029654*%
%ADD331C,0.048000*%
%ADD332C,0.027000*%
%ADD333C,0.035559*%
%ADD334C,0.038000*%
%ADD335C,0.027685*%
D27*
X6281378Y5452480D02*
D03*
X6328622D02*
D03*
X1873110Y2548583D02*
D03*
X1920354D02*
D03*
X5376378Y4810000D02*
D03*
X5423622D02*
D03*
X4178622Y4430000D02*
D03*
X4131378D02*
D03*
X1118622Y3740000D02*
D03*
X1071378D02*
D03*
X3573622Y3685000D02*
D03*
X3526378D02*
D03*
D57*
X10732677Y115764D02*
D03*
X4557677D02*
D03*
X4892323D02*
D03*
X5182677D02*
D03*
X5517323D02*
D03*
X11067323D02*
D03*
X4267323D02*
D03*
X3932677D02*
D03*
X3642323D02*
D03*
X3307677D02*
D03*
X3017323D02*
D03*
X2682677D02*
D03*
X2392323D02*
D03*
X2057677D02*
D03*
X1767323D02*
D03*
X1432677D02*
D03*
X1142323D02*
D03*
X807677D02*
D03*
D68*
X4155000Y5173622D02*
D03*
Y5126378D02*
D03*
X10790000Y3196378D02*
D03*
Y3243622D02*
D03*
Y1268622D02*
D03*
Y1221378D02*
D03*
X2740000Y4713622D02*
D03*
Y4666378D02*
D03*
X5305000Y5193622D02*
D03*
Y5146378D02*
D03*
D73*
X3837500Y6039685D02*
D03*
Y6020000D02*
D03*
Y6000315D02*
D03*
X3902500D02*
D03*
Y6020000D02*
D03*
Y6039685D02*
D03*
D144*
X1295000Y3700000D02*
D03*
X1750000Y4860000D02*
D03*
X1260000Y5180000D02*
D03*
X2130000Y4490000D02*
D03*
X2425000Y4540000D02*
D03*
X2125000Y5335000D02*
D03*
X8700000Y2295000D02*
D03*
X10420000Y2725000D02*
D03*
X5320000Y1850000D02*
D03*
X1820000Y2230000D02*
D03*
X4280000Y2980000D02*
D03*
X4780000Y4270000D02*
D03*
X3370000Y3670000D02*
D03*
D146*
X4335000Y6245236D02*
D03*
D147*
X4435000D02*
D03*
X4535000D02*
D03*
D148*
X12297165Y6678425D02*
D03*
Y6481575D02*
D03*
D149*
X12255827Y6433346D02*
D03*
Y6726654D02*
D03*
D150*
X12405433Y6427441D02*
D03*
Y6732559D02*
D03*
D151*
X11995000Y1750000D02*
D03*
Y1650000D02*
D03*
Y1550000D02*
D03*
Y1100000D02*
D03*
Y1000000D02*
D03*
Y900000D02*
D03*
D159*
X7564961Y6250000D02*
D03*
D193*
X2343732Y2714083D02*
D03*
Y2803083D02*
D03*
X2499732D02*
D03*
Y2714083D02*
D03*
X1578000Y4155500D02*
D03*
Y4244500D02*
D03*
X1422000D02*
D03*
Y4155500D02*
D03*
X3067000Y3414500D02*
D03*
Y3325500D02*
D03*
X3223000D02*
D03*
Y3414500D02*
D03*
X6492000Y1934500D02*
D03*
Y1845500D02*
D03*
X6648000D02*
D03*
Y1934500D02*
D03*
D200*
X9060000Y2877087D02*
D03*
Y3012913D02*
D03*
D201*
X10451500Y2300500D02*
D03*
Y2399500D02*
D03*
X10658500D02*
D03*
Y2300500D02*
D03*
Y2980500D02*
D03*
Y3079500D02*
D03*
X10451500D02*
D03*
Y2980500D02*
D03*
Y3525500D02*
D03*
Y3624500D02*
D03*
X10658500D02*
D03*
Y3525500D02*
D03*
Y1550500D02*
D03*
Y1649500D02*
D03*
X10451500D02*
D03*
Y1550500D02*
D03*
D204*
X9697598Y3268819D02*
D03*
X9772402Y3371181D02*
D03*
X9697598D02*
D03*
X9735000Y3268819D02*
D03*
X9772402D02*
D03*
D205*
X9834646Y3456614D02*
D03*
X9665354Y3533386D02*
D03*
Y3507795D02*
D03*
Y3482205D02*
D03*
Y3456614D02*
D03*
X9834646Y3482205D02*
D03*
Y3507795D02*
D03*
Y3533386D02*
D03*
D208*
X6872394Y6302756D02*
D03*
X6845394D02*
D03*
X6784921D02*
D03*
X6811921D02*
D03*
X6845398Y6275984D02*
D03*
X6872398D02*
D03*
X6811925D02*
D03*
X6784925D02*
D03*
D211*
X2469000Y5055000D02*
D03*
Y5005000D02*
D03*
Y4955000D02*
D03*
Y4905000D02*
D03*
Y4855000D02*
D03*
Y4805000D02*
D03*
Y4755000D02*
D03*
X2271000D02*
D03*
Y4805000D02*
D03*
Y4855000D02*
D03*
Y4905000D02*
D03*
Y4955000D02*
D03*
Y5005000D02*
D03*
Y5055000D02*
D03*
D215*
X1945000Y4935000D02*
D03*
D216*
X2019898Y4895630D02*
D03*
Y4915315D02*
D03*
Y4935000D02*
D03*
Y4954685D02*
D03*
Y4974370D02*
D03*
X1870102D02*
D03*
Y4954685D02*
D03*
Y4935000D02*
D03*
Y4915315D02*
D03*
Y4895630D02*
D03*
D217*
X1984370Y5009898D02*
D03*
X1964685D02*
D03*
X1945000D02*
D03*
X1925315D02*
D03*
X1905630D02*
D03*
Y4860102D02*
D03*
X1925315D02*
D03*
X1945000D02*
D03*
X1964685D02*
D03*
X1984370D02*
D03*
D226*
X4405315Y5932500D02*
D03*
X4425000D02*
D03*
X4444685D02*
D03*
Y5997500D02*
D03*
X4425000D02*
D03*
X4405315D02*
D03*
D257*
X5700748Y6085000D02*
D03*
X5765709D02*
D03*
X6456732D02*
D03*
X6521693D02*
D03*
X4957520Y4985000D02*
D03*
X5022480D02*
D03*
X4602480Y4835315D02*
D03*
X4537520D02*
D03*
X4957520Y4825000D02*
D03*
X5022480D02*
D03*
X4957520Y4925000D02*
D03*
X5022480D02*
D03*
X6332520Y6085000D02*
D03*
X6397480D02*
D03*
X6002480D02*
D03*
X5937520D02*
D03*
D258*
X3710000Y6052559D02*
D03*
Y5997441D02*
D03*
X6190000Y5222598D02*
D03*
Y5167480D02*
D03*
X2016732Y2871142D02*
D03*
Y2816024D02*
D03*
X9495000Y2497559D02*
D03*
Y2442441D02*
D03*
X9355000Y2767559D02*
D03*
Y2712441D02*
D03*
X10295000Y3412441D02*
D03*
Y3467559D02*
D03*
X9590000Y3202441D02*
D03*
Y3257559D02*
D03*
Y3317441D02*
D03*
Y3372559D02*
D03*
X3970000Y6012441D02*
D03*
Y6067559D02*
D03*
X1270000Y4002441D02*
D03*
Y4057559D02*
D03*
X3445000Y3362441D02*
D03*
Y3417559D02*
D03*
D259*
X6108189Y6562480D02*
D03*
Y6497520D02*
D03*
X6260000Y5169961D02*
D03*
Y5105000D02*
D03*
Y5325000D02*
D03*
Y5389961D02*
D03*
X4610000Y5147520D02*
D03*
Y5212480D02*
D03*
X4435000Y5147520D02*
D03*
Y5212480D02*
D03*
X1941732Y2616102D02*
D03*
Y2681063D02*
D03*
Y2941063D02*
D03*
Y2876102D02*
D03*
Y2746102D02*
D03*
Y2811063D02*
D03*
X5045000Y6137480D02*
D03*
Y6072520D02*
D03*
X8635000Y3012480D02*
D03*
Y2947520D02*
D03*
X8400000D02*
D03*
Y3012480D02*
D03*
X8485000D02*
D03*
Y2947520D02*
D03*
X8560000Y3012480D02*
D03*
Y2947520D02*
D03*
X9670000Y3662480D02*
D03*
Y3597520D02*
D03*
X4630000Y4647480D02*
D03*
Y4582520D02*
D03*
X4525000Y4717480D02*
D03*
Y4652520D02*
D03*
X4900000Y4737480D02*
D03*
Y4672520D02*
D03*
X4830000Y4737480D02*
D03*
Y4672520D02*
D03*
X6249921Y6497520D02*
D03*
Y6562480D02*
D03*
X6864016Y6497520D02*
D03*
Y6562480D02*
D03*
X6627835Y6497520D02*
D03*
Y6562480D02*
D03*
X5871968Y6497520D02*
D03*
Y6562480D02*
D03*
X7495000Y6037520D02*
D03*
Y6102480D02*
D03*
X5585000Y5342480D02*
D03*
Y5277520D02*
D03*
Y5137520D02*
D03*
Y5202480D02*
D03*
X5305000Y5342480D02*
D03*
Y5277520D02*
D03*
X3875000Y5182480D02*
D03*
Y5117520D02*
D03*
X4155000Y4977520D02*
D03*
Y5042480D02*
D03*
X3875000Y4977520D02*
D03*
Y5042480D02*
D03*
X5295000Y4432520D02*
D03*
Y4497480D02*
D03*
Y4617480D02*
D03*
Y4552520D02*
D03*
Y4737480D02*
D03*
Y4672520D02*
D03*
X4265000Y4607520D02*
D03*
Y4672480D02*
D03*
Y4487520D02*
D03*
Y4552480D02*
D03*
Y4792480D02*
D03*
Y4727520D02*
D03*
X1210000Y4127480D02*
D03*
Y4062520D02*
D03*
Y3802520D02*
D03*
Y3867480D02*
D03*
Y3932520D02*
D03*
Y3997480D02*
D03*
X3505000Y3617480D02*
D03*
Y3552520D02*
D03*
Y3292520D02*
D03*
Y3357480D02*
D03*
Y3487480D02*
D03*
Y3422520D02*
D03*
X5610000Y1947480D02*
D03*
Y1882520D02*
D03*
X5885000Y1932480D02*
D03*
Y1867520D02*
D03*
D260*
X9878858Y551418D02*
D03*
X9814291D02*
D03*
D261*
X9813110Y621417D02*
D03*
X9880039D02*
D03*
X4746535Y1340000D02*
D03*
X4813465D02*
D03*
X4746535Y1255000D02*
D03*
X4813465D02*
D03*
X4533465Y825000D02*
D03*
X4466535D02*
D03*
X4533465Y740000D02*
D03*
X4466535D02*
D03*
X5371535Y1255000D02*
D03*
X5438465D02*
D03*
X5371535Y1340000D02*
D03*
X5438465D02*
D03*
X5158465Y740000D02*
D03*
X5091535D02*
D03*
X5158465Y825000D02*
D03*
X5091535D02*
D03*
X1998465Y4730000D02*
D03*
X1931535D02*
D03*
X3841535Y825000D02*
D03*
X3908465D02*
D03*
X4188465Y1255000D02*
D03*
X4121535D02*
D03*
X3841535Y740000D02*
D03*
X3908465D02*
D03*
X4188465Y1340000D02*
D03*
X4121535D02*
D03*
X3216535Y825000D02*
D03*
X3283465D02*
D03*
X3216535Y740000D02*
D03*
X3283465D02*
D03*
X3563465Y1255000D02*
D03*
X3496535D02*
D03*
X3563465Y1340000D02*
D03*
X3496535D02*
D03*
X2591535Y825000D02*
D03*
X2658465D02*
D03*
X2938465Y1255000D02*
D03*
X2871535D02*
D03*
X2938465Y1340000D02*
D03*
X2871535D02*
D03*
X2591535Y740000D02*
D03*
X2658465D02*
D03*
X1966535Y825000D02*
D03*
X2033465D02*
D03*
X2313465Y1340000D02*
D03*
X2246535D02*
D03*
X2313465Y1255000D02*
D03*
X2246535D02*
D03*
X1966535Y740000D02*
D03*
X2033465D02*
D03*
X1341535Y825000D02*
D03*
X1408465D02*
D03*
X1688465Y1255000D02*
D03*
X1621535D02*
D03*
X1341535Y740000D02*
D03*
X1408465D02*
D03*
X1688465Y1340000D02*
D03*
X1621535D02*
D03*
X1063465Y1255000D02*
D03*
X996535D02*
D03*
X1063465Y1340000D02*
D03*
X996535D02*
D03*
X716535Y825000D02*
D03*
X783465D02*
D03*
X716535Y740000D02*
D03*
X783465D02*
D03*
X3993465Y1795000D02*
D03*
X3926535D02*
D03*
X4341535Y1730000D02*
D03*
X4408465D02*
D03*
X3993465Y1890000D02*
D03*
X3926535D02*
D03*
X4341535Y1645000D02*
D03*
X4408465D02*
D03*
X6606168Y6090000D02*
D03*
X6673098D02*
D03*
X6110148Y6085000D02*
D03*
X6177078D02*
D03*
D262*
X9706693Y416535D02*
D03*
X9750000D02*
D03*
X9336220Y363386D02*
D03*
X9292913D02*
D03*
X9557480Y704331D02*
D03*
X9600787D02*
D03*
D263*
X9670866Y417126D02*
D03*
Y381299D02*
D03*
X9521417Y703740D02*
D03*
Y739567D02*
D03*
X9383858Y608661D02*
D03*
Y644488D02*
D03*
X9372047Y363976D02*
D03*
Y328150D02*
D03*
X4533465Y642913D02*
D03*
Y607087D02*
D03*
X3908465D02*
D03*
Y642913D02*
D03*
X3283465Y607087D02*
D03*
Y642913D02*
D03*
X2658465Y607087D02*
D03*
Y642913D02*
D03*
X2033465Y607087D02*
D03*
Y642913D02*
D03*
X1408465Y607087D02*
D03*
Y642913D02*
D03*
X783465Y607087D02*
D03*
Y642913D02*
D03*
X4860000Y792087D02*
D03*
Y827913D02*
D03*
X3480000Y1802087D02*
D03*
Y1837913D02*
D03*
X2885000Y1802087D02*
D03*
Y1837913D02*
D03*
X5485000Y792087D02*
D03*
Y827913D02*
D03*
X5158465Y642913D02*
D03*
Y607087D02*
D03*
X2000000Y4627087D02*
D03*
Y4662913D02*
D03*
X3440000Y1802087D02*
D03*
Y1837913D02*
D03*
X3395000D02*
D03*
Y1802087D02*
D03*
X3355000D02*
D03*
Y1837913D02*
D03*
X3270000Y1802087D02*
D03*
Y1837913D02*
D03*
X3310000D02*
D03*
Y1802087D02*
D03*
X4235000Y827913D02*
D03*
Y792087D02*
D03*
X3225000Y1837913D02*
D03*
Y1802087D02*
D03*
X3185000D02*
D03*
Y1837913D02*
D03*
X3610000Y827913D02*
D03*
Y792087D02*
D03*
X3100000Y1802087D02*
D03*
Y1837913D02*
D03*
X3140000D02*
D03*
Y1802087D02*
D03*
X2985000Y827913D02*
D03*
Y792087D02*
D03*
X3015000Y1802087D02*
D03*
Y1837913D02*
D03*
X3055000D02*
D03*
Y1802087D02*
D03*
X2360000Y827913D02*
D03*
Y792087D02*
D03*
X2970000Y1837913D02*
D03*
Y1802087D02*
D03*
X2930000D02*
D03*
Y1837913D02*
D03*
X1735000Y827913D02*
D03*
Y792087D02*
D03*
X2845000Y1802087D02*
D03*
Y1837913D02*
D03*
X1110000Y827913D02*
D03*
Y792087D02*
D03*
X3570000Y1812087D02*
D03*
Y1847913D02*
D03*
X3530000D02*
D03*
Y1812087D02*
D03*
D264*
X9344488Y604921D02*
D03*
Y648228D02*
D03*
D265*
X6130000Y5160984D02*
D03*
Y5223976D02*
D03*
X2086732Y2812086D02*
D03*
Y2875079D02*
D03*
X5740000Y5276496D02*
D03*
Y5213504D02*
D03*
X3720000Y5048504D02*
D03*
Y5111496D02*
D03*
X5150000Y4556496D02*
D03*
Y4493504D02*
D03*
X4410000Y4668504D02*
D03*
Y4731496D02*
D03*
X1325000Y3998504D02*
D03*
Y4061496D02*
D03*
X3390000Y3421496D02*
D03*
Y3358504D02*
D03*
D266*
X6339842Y5172480D02*
D03*
Y5222480D02*
D03*
Y5272480D02*
D03*
Y5322480D02*
D03*
Y5372480D02*
D03*
X4185158Y4710000D02*
D03*
Y4660000D02*
D03*
Y4610000D02*
D03*
Y4560000D02*
D03*
Y4510000D02*
D03*
X5374842D02*
D03*
Y4560000D02*
D03*
Y4610000D02*
D03*
Y4660000D02*
D03*
Y4710000D02*
D03*
D267*
X6570158Y5272480D02*
D03*
X3954843Y4610000D02*
D03*
X5605158D02*
D03*
D268*
X4065197Y5042598D02*
D03*
Y5117401D02*
D03*
X3964803D02*
D03*
Y5080000D02*
D03*
Y5042598D02*
D03*
X5495197Y5277402D02*
D03*
Y5240000D02*
D03*
Y5202599D02*
D03*
X5394803D02*
D03*
Y5277402D02*
D03*
D269*
X4512087Y5230000D02*
D03*
X4547913D02*
D03*
X2842087Y3545000D02*
D03*
X2877913D02*
D03*
X10722913Y3243622D02*
D03*
X10687087D02*
D03*
X10722913Y1268622D02*
D03*
X10687087D02*
D03*
X4667913Y1320000D02*
D03*
X4632087D02*
D03*
X5292913D02*
D03*
X5257087D02*
D03*
X1432087Y5185000D02*
D03*
X1467913D02*
D03*
X4007087Y1320000D02*
D03*
X4042913D02*
D03*
X3382087D02*
D03*
X3417913D02*
D03*
X2132087D02*
D03*
X2167913D02*
D03*
X2757087D02*
D03*
X2792913D02*
D03*
X1507087D02*
D03*
X1542913D02*
D03*
X882087D02*
D03*
X917913D02*
D03*
X4047913Y1695000D02*
D03*
X4012087D02*
D03*
X4217913D02*
D03*
X4182087D02*
D03*
X1777087Y3912535D02*
D03*
X1812913D02*
D03*
D270*
X1843858Y2858583D02*
D03*
Y2808583D02*
D03*
Y2758583D02*
D03*
Y2708583D02*
D03*
Y2658583D02*
D03*
X1122126Y3825000D02*
D03*
Y3875000D02*
D03*
Y3925000D02*
D03*
Y3975000D02*
D03*
Y4025000D02*
D03*
D271*
X1609606Y2758583D02*
D03*
X887874Y3925000D02*
D03*
D272*
X1929134Y3257953D02*
D03*
Y3238268D02*
D03*
Y3218583D02*
D03*
Y3198898D02*
D03*
X2104331Y3257953D02*
D03*
Y3238268D02*
D03*
Y3218583D02*
D03*
Y3198898D02*
D03*
X1929134Y3179213D02*
D03*
X2104331D02*
D03*
X11087598Y3265630D02*
D03*
Y3285315D02*
D03*
Y3305000D02*
D03*
Y3324685D02*
D03*
X10912401Y3265630D02*
D03*
Y3285315D02*
D03*
Y3305000D02*
D03*
Y3324685D02*
D03*
X11087598Y3344370D02*
D03*
X10912401D02*
D03*
Y1290630D02*
D03*
X11087598D02*
D03*
Y1310315D02*
D03*
Y1330000D02*
D03*
Y1349685D02*
D03*
X10912401Y1310315D02*
D03*
Y1330000D02*
D03*
Y1349685D02*
D03*
X11087598Y1369370D02*
D03*
X10912401D02*
D03*
X11087598Y1935630D02*
D03*
Y1955315D02*
D03*
Y1975000D02*
D03*
Y1994685D02*
D03*
X10912401Y1935630D02*
D03*
Y1955315D02*
D03*
Y1975000D02*
D03*
Y1994685D02*
D03*
X11087598Y2014370D02*
D03*
X10912401D02*
D03*
X7187598Y1560630D02*
D03*
Y1580315D02*
D03*
Y1600000D02*
D03*
Y1619685D02*
D03*
X7012401Y1560630D02*
D03*
Y1580315D02*
D03*
Y1600000D02*
D03*
Y1619685D02*
D03*
X7187598Y1639370D02*
D03*
X7012401D02*
D03*
X1067599Y4655630D02*
D03*
X892402D02*
D03*
X1067599Y4675315D02*
D03*
Y4695000D02*
D03*
Y4714685D02*
D03*
Y4734370D02*
D03*
X892402Y4675315D02*
D03*
Y4695000D02*
D03*
Y4714685D02*
D03*
Y4734370D02*
D03*
X4932401Y3159370D02*
D03*
X5107598D02*
D03*
X4932401Y3139685D02*
D03*
Y3120000D02*
D03*
Y3100315D02*
D03*
Y3080630D02*
D03*
X5107598Y3139685D02*
D03*
Y3120000D02*
D03*
Y3100315D02*
D03*
Y3080630D02*
D03*
D273*
X2176732Y3171260D02*
D03*
Y3205905D02*
D03*
X2226732Y3300905D02*
D03*
Y3266260D02*
D03*
X2176732Y3300905D02*
D03*
Y3266260D02*
D03*
X10800000Y1887323D02*
D03*
Y1852677D02*
D03*
X2590000Y3497677D02*
D03*
Y3532323D02*
D03*
X2625000Y3497677D02*
D03*
Y3532323D02*
D03*
X2300000Y3963323D02*
D03*
Y3928677D02*
D03*
X9445000Y2487323D02*
D03*
Y2452677D02*
D03*
X10325000Y3357323D02*
D03*
Y3322677D02*
D03*
X10850000Y2022323D02*
D03*
Y1987677D02*
D03*
X9955000Y3272677D02*
D03*
Y3307323D02*
D03*
X9830000Y3312677D02*
D03*
Y3347323D02*
D03*
X10850000Y3207677D02*
D03*
Y3242323D02*
D03*
Y3352323D02*
D03*
Y3317677D02*
D03*
X9620000Y3647323D02*
D03*
Y3612677D02*
D03*
X9980000Y3557677D02*
D03*
Y3592323D02*
D03*
X10850000Y1852677D02*
D03*
Y1887323D02*
D03*
Y1377323D02*
D03*
Y1342677D02*
D03*
Y1267323D02*
D03*
Y1232677D02*
D03*
X6890000Y1517677D02*
D03*
Y1552323D02*
D03*
X6940000Y1517677D02*
D03*
Y1552323D02*
D03*
Y1647323D02*
D03*
Y1612677D02*
D03*
X4740000Y827323D02*
D03*
Y792677D02*
D03*
X4790000Y827323D02*
D03*
Y792677D02*
D03*
X5365000Y827323D02*
D03*
Y792677D02*
D03*
X5415000Y827323D02*
D03*
Y792677D02*
D03*
X9545000Y5192677D02*
D03*
Y5227323D02*
D03*
X8810000Y5192677D02*
D03*
Y5227323D02*
D03*
X2605000Y4707323D02*
D03*
Y4672677D02*
D03*
X1605000Y5167323D02*
D03*
Y5132677D02*
D03*
X1600000Y6767323D02*
D03*
Y6732677D02*
D03*
X2240000D02*
D03*
Y6767323D02*
D03*
X1920000D02*
D03*
Y6732677D02*
D03*
X1280000Y6767323D02*
D03*
Y6732677D02*
D03*
X960000Y6767323D02*
D03*
Y6732677D02*
D03*
X7005000Y6652677D02*
D03*
Y6687323D02*
D03*
X10365000Y6397323D02*
D03*
Y6362677D02*
D03*
X4165000Y792677D02*
D03*
Y827323D02*
D03*
X4115000Y792677D02*
D03*
Y827323D02*
D03*
X3490000Y792677D02*
D03*
Y827323D02*
D03*
X3540000Y792677D02*
D03*
Y827323D02*
D03*
X2240000Y792677D02*
D03*
Y827323D02*
D03*
X2865000Y792677D02*
D03*
Y827323D02*
D03*
X2915000Y792677D02*
D03*
Y827323D02*
D03*
X2290000Y792677D02*
D03*
Y827323D02*
D03*
X1665000Y792677D02*
D03*
Y827323D02*
D03*
X1615000Y792677D02*
D03*
Y827323D02*
D03*
X990000Y792677D02*
D03*
Y827323D02*
D03*
X1040000Y792677D02*
D03*
Y827323D02*
D03*
X2335000Y3928677D02*
D03*
Y3963323D02*
D03*
X2265000Y3928677D02*
D03*
Y3963323D02*
D03*
X2230000Y3928677D02*
D03*
Y3963323D02*
D03*
X2195000Y3928677D02*
D03*
Y3963323D02*
D03*
X1185000Y4742677D02*
D03*
Y4777323D02*
D03*
X1135000Y4682323D02*
D03*
Y4647677D02*
D03*
Y4742677D02*
D03*
Y4777323D02*
D03*
X4865000Y3132677D02*
D03*
Y3167323D02*
D03*
Y3072323D02*
D03*
Y3037677D02*
D03*
X4815000Y3072323D02*
D03*
Y3037677D02*
D03*
X5660000Y2042323D02*
D03*
Y2007677D02*
D03*
D274*
X2263465Y3208583D02*
D03*
X2230000D02*
D03*
X2263465Y3168583D02*
D03*
X2230000D02*
D03*
X10401732Y3320000D02*
D03*
X10368268D02*
D03*
X10401732Y3360000D02*
D03*
X10368268D02*
D03*
X10768268Y2025000D02*
D03*
X10801732D02*
D03*
X10768268Y1985000D02*
D03*
X10801732D02*
D03*
X10768268Y3315000D02*
D03*
X10801732D02*
D03*
X10768268Y3355000D02*
D03*
X10801732D02*
D03*
X10768268Y1380000D02*
D03*
X10801732D02*
D03*
X10768268Y1340000D02*
D03*
X10801732D02*
D03*
X6853268Y1650000D02*
D03*
X6886732D02*
D03*
X6853268Y1610000D02*
D03*
X6886732D02*
D03*
X10158268Y6610000D02*
D03*
X10191732D02*
D03*
X10253268Y6740000D02*
D03*
X10286732D02*
D03*
X1183268Y4645000D02*
D03*
X1216732D02*
D03*
X1183268Y4685000D02*
D03*
X1216732D02*
D03*
X4816732Y3170000D02*
D03*
X4783268D02*
D03*
X4816732Y3130000D02*
D03*
X4783268D02*
D03*
D275*
X9745000Y2909134D02*
D03*
X4288268Y2250866D02*
D03*
Y2359134D02*
D03*
X3748268Y2250866D02*
D03*
Y2359134D02*
D03*
X3883268Y2250866D02*
D03*
Y2359134D02*
D03*
X4018268Y2250866D02*
D03*
Y2359134D02*
D03*
X4153268Y2250866D02*
D03*
Y2359134D02*
D03*
X8660000Y2485866D02*
D03*
Y2594134D02*
D03*
X8510000Y2485866D02*
D03*
Y2594134D02*
D03*
X9895000Y2801732D02*
D03*
Y2910000D02*
D03*
Y2659134D02*
D03*
Y2550866D02*
D03*
Y1914134D02*
D03*
Y1805866D02*
D03*
X9916000Y3918268D02*
D03*
Y3810000D02*
D03*
X9766000Y3918268D02*
D03*
Y3810000D02*
D03*
X9745000Y1914134D02*
D03*
Y1805866D02*
D03*
Y2659134D02*
D03*
Y2550866D02*
D03*
Y2800866D02*
D03*
D276*
X4885000Y6148465D02*
D03*
Y6081535D02*
D03*
X4970000Y6148465D02*
D03*
Y6081535D02*
D03*
X2785000Y3481535D02*
D03*
Y3548465D02*
D03*
X2775000Y2713465D02*
D03*
Y2646535D02*
D03*
X8390000Y2506535D02*
D03*
Y2573465D02*
D03*
X2665000Y4723465D02*
D03*
Y4656535D02*
D03*
X1540000Y5183465D02*
D03*
Y5116535D02*
D03*
X1870000Y3979465D02*
D03*
Y3912535D02*
D03*
X3505000Y2338465D02*
D03*
Y2271535D02*
D03*
X6391614Y6508268D02*
D03*
Y6575197D02*
D03*
X7570000Y6046535D02*
D03*
Y6113465D02*
D03*
X7655000Y6046535D02*
D03*
Y6113465D02*
D03*
D277*
X2670000Y3544528D02*
D03*
Y3485472D02*
D03*
X2725000Y3544528D02*
D03*
Y3485472D02*
D03*
X2945000Y2709528D02*
D03*
Y2650472D02*
D03*
X2890000Y2709528D02*
D03*
Y2650472D02*
D03*
X2835000Y2709528D02*
D03*
Y2650472D02*
D03*
X1930000Y3916472D02*
D03*
Y3975528D02*
D03*
X2150000Y3916472D02*
D03*
Y3975528D02*
D03*
X2095000Y3916472D02*
D03*
Y3975528D02*
D03*
X2040000D02*
D03*
Y3916472D02*
D03*
X1985000Y3975528D02*
D03*
Y3916472D02*
D03*
X3445000Y2334528D02*
D03*
Y2275472D02*
D03*
X3390000Y2334528D02*
D03*
Y2275472D02*
D03*
D278*
X3580000Y2362087D02*
D03*
Y2247913D02*
D03*
X2700000Y2622913D02*
D03*
Y2737087D02*
D03*
D279*
X9003858Y2465000D02*
D03*
D280*
X9354252Y2365000D02*
D03*
Y2565000D02*
D03*
D281*
X8918346Y2875000D02*
D03*
X8711654D02*
D03*
X10243346Y3080000D02*
D03*
X10036654D02*
D03*
X10243346Y2400000D02*
D03*
X10036654D02*
D03*
X10243346Y1650000D02*
D03*
X10036654D02*
D03*
X10243346Y3765000D02*
D03*
X10036654D02*
D03*
D282*
X10222000Y3415000D02*
D03*
X10028000D02*
D03*
X10222000Y3315000D02*
D03*
Y3365000D02*
D03*
Y3465000D02*
D03*
X10028000D02*
D03*
Y3365000D02*
D03*
Y3315000D02*
D03*
D283*
X10092559Y3230000D02*
D03*
X10037441D02*
D03*
X10197559D02*
D03*
X10142441D02*
D03*
X4480118Y5865000D02*
D03*
X4425000D02*
D03*
X4480118Y6065000D02*
D03*
X4425000D02*
D03*
D284*
X9923543Y3592323D02*
D03*
X9866457D02*
D03*
D285*
X9772323Y3190000D02*
D03*
X9737677D02*
D03*
X4762677Y1145000D02*
D03*
X4797323D02*
D03*
X4762677Y1190000D02*
D03*
X4797323D02*
D03*
X4532323Y920000D02*
D03*
X4497677D02*
D03*
X4532323Y965000D02*
D03*
X4497677D02*
D03*
X5387677Y1190000D02*
D03*
X5422323D02*
D03*
X5387677Y1145000D02*
D03*
X5422323D02*
D03*
X5157323Y920000D02*
D03*
X5122677D02*
D03*
X5157323Y965000D02*
D03*
X5122677D02*
D03*
X1992677Y5065000D02*
D03*
X2027323D02*
D03*
X1982323Y4795000D02*
D03*
X1947677D02*
D03*
X10162323Y6685000D02*
D03*
X10127677D02*
D03*
X10797323Y6571000D02*
D03*
X10762677D02*
D03*
X10472677Y6480000D02*
D03*
X10507323D02*
D03*
X3477323Y1875000D02*
D03*
X3442677D02*
D03*
X3392323D02*
D03*
X3357677D02*
D03*
X3307323D02*
D03*
X3272677D02*
D03*
X3872677Y965000D02*
D03*
X3907323D02*
D03*
X4172323Y1190000D02*
D03*
X4137677D02*
D03*
X3872677Y920000D02*
D03*
X3907323D02*
D03*
X4172323Y1145000D02*
D03*
X4137677D02*
D03*
X3222323Y1875000D02*
D03*
X3187677D02*
D03*
X3247677Y920000D02*
D03*
X3282323D02*
D03*
X3547323Y1190000D02*
D03*
X3512677D02*
D03*
X3247677Y965000D02*
D03*
X3282323D02*
D03*
X3547323Y1145000D02*
D03*
X3512677D02*
D03*
X3137323Y1875000D02*
D03*
X3102677D02*
D03*
X2922323Y1145000D02*
D03*
X2887677D02*
D03*
X2622677Y920000D02*
D03*
X2657323D02*
D03*
X2922323Y1190000D02*
D03*
X2887677D02*
D03*
X2622677Y965000D02*
D03*
X2657323D02*
D03*
X3052323Y1875000D02*
D03*
X3017677D02*
D03*
X2297323Y1190000D02*
D03*
X2262677D02*
D03*
X2297323Y1145000D02*
D03*
X2262677D02*
D03*
X1997677Y965000D02*
D03*
X2032323D02*
D03*
X1997677Y920000D02*
D03*
X2032323D02*
D03*
X2967323Y1875000D02*
D03*
X2932677D02*
D03*
X1672323Y1145000D02*
D03*
X1637677D02*
D03*
X1372677Y965000D02*
D03*
X1407323D02*
D03*
X1372677Y920000D02*
D03*
X1407323D02*
D03*
X1672323Y1190000D02*
D03*
X1637677D02*
D03*
X2882323Y1875000D02*
D03*
X2847677D02*
D03*
X1047323Y1145000D02*
D03*
X1012677D02*
D03*
X1047323Y1190000D02*
D03*
X1012677D02*
D03*
X747677Y965000D02*
D03*
X782323D02*
D03*
X747677Y920000D02*
D03*
X782323D02*
D03*
X3532677Y1885000D02*
D03*
X3567323D02*
D03*
X3977323Y1965000D02*
D03*
X3942677D02*
D03*
X4357677Y1800000D02*
D03*
X4392323D02*
D03*
X3977323Y2010000D02*
D03*
X3942677D02*
D03*
X4357677Y1845000D02*
D03*
X4392323D02*
D03*
X3337323Y2565000D02*
D03*
X3302677D02*
D03*
X3337323Y2335000D02*
D03*
X3302677D02*
D03*
X3337323Y2400000D02*
D03*
X3302677D02*
D03*
X3337323Y2455000D02*
D03*
X3302677D02*
D03*
X3337323Y2510000D02*
D03*
X3302677D02*
D03*
X2957677Y2475000D02*
D03*
X2992323D02*
D03*
X2957677Y2535000D02*
D03*
X2992323D02*
D03*
X2957677Y2570000D02*
D03*
X2992323D02*
D03*
X2957677Y2335000D02*
D03*
X2992323D02*
D03*
X2957677Y2385000D02*
D03*
X2992323D02*
D03*
D286*
X4835000Y683543D02*
D03*
Y626457D02*
D03*
X4765000Y683543D02*
D03*
Y626457D02*
D03*
X5390000Y683543D02*
D03*
Y626457D02*
D03*
X5460000Y683543D02*
D03*
Y626457D02*
D03*
X4210000D02*
D03*
Y683543D02*
D03*
X4140000Y626457D02*
D03*
Y683543D02*
D03*
X3585000Y626457D02*
D03*
Y683543D02*
D03*
X3515000Y626457D02*
D03*
Y683543D02*
D03*
X2890000Y626457D02*
D03*
Y683543D02*
D03*
X2960000Y626457D02*
D03*
Y683543D02*
D03*
X2265000Y626457D02*
D03*
Y683543D02*
D03*
X2335000Y626457D02*
D03*
Y683543D02*
D03*
X1640000Y626457D02*
D03*
Y683543D02*
D03*
X1710000Y626457D02*
D03*
Y683543D02*
D03*
X1085000Y626457D02*
D03*
Y683543D02*
D03*
X1015000Y626457D02*
D03*
Y683543D02*
D03*
D287*
X3268000Y1960315D02*
D03*
Y1999685D02*
D03*
X3343000Y1960315D02*
D03*
Y1999685D02*
D03*
X3002000Y1960315D02*
D03*
Y1999685D02*
D03*
X3418000Y1960315D02*
D03*
Y1999685D02*
D03*
X3452000D02*
D03*
Y1960315D02*
D03*
X3377000Y1999685D02*
D03*
Y1960315D02*
D03*
X3302000Y1999685D02*
D03*
Y1960315D02*
D03*
X3227000Y1999685D02*
D03*
Y1960315D02*
D03*
X3193000Y1999685D02*
D03*
Y1960315D02*
D03*
X3152000Y1999685D02*
D03*
Y1960315D02*
D03*
X3118000Y1999685D02*
D03*
Y1960315D02*
D03*
X3077000Y1999685D02*
D03*
Y1960315D02*
D03*
X3043000Y1999685D02*
D03*
Y1960315D02*
D03*
X2968000Y1999685D02*
D03*
Y1960315D02*
D03*
X2927000Y1999685D02*
D03*
Y1960315D02*
D03*
X2893000Y1999685D02*
D03*
Y1960315D02*
D03*
D288*
X2695000Y4796654D02*
D03*
Y5003346D02*
D03*
D289*
X2333500Y5145000D02*
D03*
X2386500D02*
D03*
Y4650000D02*
D03*
X2333500D02*
D03*
D290*
X2550000Y4664409D02*
D03*
Y4715591D02*
D03*
Y4905591D02*
D03*
Y4854409D02*
D03*
D291*
X2165000Y4963500D02*
D03*
Y5016500D02*
D03*
D292*
X1687716Y5120000D02*
D03*
Y5170000D02*
D03*
Y5220000D02*
D03*
Y5270000D02*
D03*
X1902283Y5120000D02*
D03*
Y5170000D02*
D03*
Y5220000D02*
D03*
Y5270000D02*
D03*
D293*
X2291850Y6807402D02*
D03*
Y6770000D02*
D03*
Y6732599D02*
D03*
X2398150D02*
D03*
Y6770000D02*
D03*
Y6807402D02*
D03*
X1971850D02*
D03*
Y6770000D02*
D03*
Y6732599D02*
D03*
X2078150D02*
D03*
Y6770000D02*
D03*
Y6807402D02*
D03*
X1331850D02*
D03*
Y6770000D02*
D03*
Y6732599D02*
D03*
X1438150D02*
D03*
Y6770000D02*
D03*
Y6807402D02*
D03*
X1651850D02*
D03*
Y6770000D02*
D03*
Y6732599D02*
D03*
X1758150D02*
D03*
Y6770000D02*
D03*
Y6807402D02*
D03*
X1011850D02*
D03*
Y6770000D02*
D03*
Y6732599D02*
D03*
X1118150D02*
D03*
Y6770000D02*
D03*
Y6807402D02*
D03*
X8841850Y6537402D02*
D03*
Y6500000D02*
D03*
Y6462599D02*
D03*
X8948150D02*
D03*
Y6500000D02*
D03*
Y6537402D02*
D03*
D294*
X8857598Y6611850D02*
D03*
X8895000D02*
D03*
X8932401D02*
D03*
Y6718150D02*
D03*
X8895000D02*
D03*
X8857598D02*
D03*
X7942402Y7053150D02*
D03*
X7905000D02*
D03*
X7867599D02*
D03*
Y6946850D02*
D03*
X7905000D02*
D03*
X7942402D02*
D03*
D295*
X8914212Y6025197D02*
D03*
X8894528D02*
D03*
X8874843D02*
D03*
X8855157D02*
D03*
X8835472D02*
D03*
X8815787D02*
D03*
Y6174803D02*
D03*
X8835472D02*
D03*
X8855157D02*
D03*
X8874843D02*
D03*
X8894528D02*
D03*
X8914212D02*
D03*
D296*
X8790197Y6050788D02*
D03*
Y6070472D02*
D03*
Y6090158D02*
D03*
Y6109843D02*
D03*
Y6129528D02*
D03*
Y6149213D02*
D03*
X8939803D02*
D03*
Y6129528D02*
D03*
Y6109843D02*
D03*
Y6090158D02*
D03*
Y6070472D02*
D03*
Y6050788D02*
D03*
D297*
X8865000Y6100000D02*
D03*
D298*
X11391339Y4323228D02*
D03*
X11308661Y4360630D02*
D03*
Y4285827D02*
D03*
D299*
X11527559Y4295732D02*
D03*
X11472441D02*
D03*
X11527559Y4350744D02*
D03*
X11472441D02*
D03*
D300*
X7005000Y6617717D02*
D03*
Y6582283D02*
D03*
X3567000Y1992284D02*
D03*
Y2027717D02*
D03*
X3532000Y1992284D02*
D03*
Y2027717D02*
D03*
D301*
X10266102Y6668071D02*
D03*
X10285787D02*
D03*
X10305472D02*
D03*
X10325157D02*
D03*
X10344843D02*
D03*
X10364528D02*
D03*
X10384213D02*
D03*
X10403898D02*
D03*
Y6492874D02*
D03*
X10384213D02*
D03*
X10364528D02*
D03*
X10344843D02*
D03*
X10325157D02*
D03*
X10305472D02*
D03*
X10285787D02*
D03*
X10266102D02*
D03*
D302*
X10422599Y6649370D02*
D03*
Y6629685D02*
D03*
Y6610000D02*
D03*
Y6590315D02*
D03*
Y6570630D02*
D03*
Y6550945D02*
D03*
Y6531260D02*
D03*
Y6511575D02*
D03*
X10247402D02*
D03*
Y6531260D02*
D03*
Y6550945D02*
D03*
Y6570630D02*
D03*
Y6590315D02*
D03*
Y6610000D02*
D03*
Y6629685D02*
D03*
Y6649370D02*
D03*
D303*
X10335000Y6580472D02*
D03*
D304*
X10957598Y5729370D02*
D03*
Y5709685D02*
D03*
Y5690000D02*
D03*
Y5670315D02*
D03*
Y5650630D02*
D03*
X10782401Y5729370D02*
D03*
Y5709685D02*
D03*
Y5690000D02*
D03*
Y5670315D02*
D03*
Y5650630D02*
D03*
X10957598Y5899370D02*
D03*
Y5879685D02*
D03*
Y5860000D02*
D03*
Y5840315D02*
D03*
Y5820630D02*
D03*
X10782401Y5899370D02*
D03*
Y5879685D02*
D03*
Y5860000D02*
D03*
Y5840315D02*
D03*
Y5820630D02*
D03*
D305*
X5665000Y5209567D02*
D03*
Y5280433D02*
D03*
X3795000Y5044567D02*
D03*
Y5115433D02*
D03*
X5220000Y4560433D02*
D03*
Y4489567D02*
D03*
X4340000Y4664567D02*
D03*
Y4735433D02*
D03*
D306*
X3839095Y3490000D02*
D03*
D307*
X3600905Y3590000D02*
D03*
Y3540000D02*
D03*
Y3490000D02*
D03*
Y3440000D02*
D03*
Y3390000D02*
D03*
D308*
X5770000Y1960000D02*
D03*
D309*
X5820591Y1989527D02*
D03*
Y1969842D02*
D03*
Y1950157D02*
D03*
Y1930472D02*
D03*
X5719409Y1989527D02*
D03*
Y1969842D02*
D03*
Y1950157D02*
D03*
Y1930472D02*
D03*
D310*
X11646535Y3246063D02*
D03*
X11613465D02*
D03*
X11646535Y3080709D02*
D03*
X11613465D02*
D03*
X11646535Y2915354D02*
D03*
X11613465D02*
D03*
X11646535Y2750000D02*
D03*
X11613465D02*
D03*
D311*
X11850000Y2125000D02*
D03*
Y2225000D02*
D03*
X11960000Y2125000D02*
D03*
Y2225000D02*
D03*
D312*
X4619500Y1039500D02*
D03*
Y1070500D02*
D03*
X4650500Y1039500D02*
D03*
Y1070500D02*
D03*
X5244500Y1039500D02*
D03*
Y1070500D02*
D03*
X5275500Y1039500D02*
D03*
Y1070500D02*
D03*
X3369500Y1039500D02*
D03*
Y1070500D02*
D03*
X3400500Y1039500D02*
D03*
Y1070500D02*
D03*
X869500Y1039500D02*
D03*
Y1070500D02*
D03*
X900500Y1039500D02*
D03*
Y1070500D02*
D03*
X4180500Y1989500D02*
D03*
X4149500D02*
D03*
X4180500Y2020500D02*
D03*
X4149500D02*
D03*
X4025500Y1070500D02*
D03*
Y1039500D02*
D03*
X3994500Y1070500D02*
D03*
Y1039500D02*
D03*
X2775500Y1070500D02*
D03*
Y1039500D02*
D03*
X2744500Y1070500D02*
D03*
Y1039500D02*
D03*
X2150500Y1070500D02*
D03*
Y1039500D02*
D03*
X2119500Y1070500D02*
D03*
Y1039500D02*
D03*
X1525500Y1070500D02*
D03*
Y1039500D02*
D03*
X1494500Y1070500D02*
D03*
Y1039500D02*
D03*
D313*
X1805000Y6473071D02*
D03*
Y6373071D02*
D03*
X2400000Y6473071D02*
D03*
Y6373071D02*
D03*
D314*
X12335000Y1805000D02*
D03*
Y1495000D02*
D03*
Y1155000D02*
D03*
Y845000D02*
D03*
D315*
X3050000Y7200000D02*
D03*
Y7100000D02*
D03*
X2950000Y7200000D02*
D03*
Y7100000D02*
D03*
X2850000Y7200000D02*
D03*
Y7100000D02*
D03*
X2750000Y7200000D02*
D03*
Y7100000D02*
D03*
X2650000Y7200000D02*
D03*
Y7100000D02*
D03*
X2550000Y7200000D02*
D03*
Y7100000D02*
D03*
X2450000Y7200000D02*
D03*
Y7100000D02*
D03*
X2350000Y7200000D02*
D03*
Y7100000D02*
D03*
X2250000Y7200000D02*
D03*
Y7100000D02*
D03*
X2150000Y7200000D02*
D03*
Y7100000D02*
D03*
X2050000Y7200000D02*
D03*
Y7100000D02*
D03*
X1950000Y7200000D02*
D03*
Y7100000D02*
D03*
X1850000Y7200000D02*
D03*
Y7100000D02*
D03*
X1750000Y7200000D02*
D03*
Y7100000D02*
D03*
X1650000Y7200000D02*
D03*
Y7100000D02*
D03*
X1550000Y7200000D02*
D03*
Y7100000D02*
D03*
X1450000Y7200000D02*
D03*
Y7100000D02*
D03*
X1350000Y7200000D02*
D03*
Y7100000D02*
D03*
X1250000Y7200000D02*
D03*
Y7100000D02*
D03*
X1150000Y7200000D02*
D03*
Y7100000D02*
D03*
X1050000Y7200000D02*
D03*
Y7100000D02*
D03*
X950000Y7200000D02*
D03*
D316*
Y7100000D02*
D03*
D317*
X7502000Y7352000D02*
D03*
X4998000D02*
D03*
D318*
X12335000Y4705000D02*
D03*
Y4295000D02*
D03*
X12160000Y4323000D02*
D03*
Y4677000D02*
D03*
D319*
X12175748Y4417323D02*
D03*
Y4582677D02*
D03*
D320*
X4934961Y6250000D02*
D03*
D321*
X344488Y7058268D02*
D03*
Y444094D02*
D03*
X9517717Y5483465D02*
D03*
X3730315Y5365354D02*
D03*
X11289370Y3633071D02*
D03*
X5698819Y2885039D02*
D03*
X1525591Y3514961D02*
D03*
X10068898Y2176378D02*
D03*
X6250000Y1428347D02*
D03*
X1761811Y1782677D02*
D03*
X12155512Y444094D02*
D03*
D322*
X11643701Y6900787D02*
D03*
D323*
X11723465Y2750000D02*
D03*
Y2915354D02*
D03*
Y3080709D02*
D03*
Y3246063D02*
D03*
X11940000D02*
D03*
Y3080709D02*
D03*
Y2915354D02*
D03*
Y2750000D02*
D03*
D324*
X8183858Y7160630D02*
D03*
Y6766929D02*
D03*
D325*
X12081260Y5550000D02*
D03*
Y6050000D02*
D03*
D326*
X12206457Y6117520D02*
D03*
Y5482480D02*
D03*
D327*
X11281260Y5939764D02*
D03*
Y5660236D02*
D03*
Y6039764D02*
D03*
Y5560236D02*
D03*
D328*
X11381260Y5879724D02*
D03*
Y5720276D02*
D03*
Y5959646D02*
D03*
Y5640354D02*
D03*
Y6039567D02*
D03*
Y5560433D02*
D03*
X11481260Y5839961D02*
D03*
Y5760039D02*
D03*
Y5680118D02*
D03*
Y5919882D02*
D03*
Y5600197D02*
D03*
D329*
Y5999803D02*
D03*
D330*
X6892126Y2082284D02*
D03*
X6773622Y2220472D02*
D03*
X7019291Y1941339D02*
D03*
X6644488Y2074016D02*
D03*
X6727559Y2008661D02*
D03*
X6645669Y2006299D02*
D03*
X6783465Y1933465D02*
D03*
X6729528Y1933858D02*
D03*
X5105118Y6011811D02*
D03*
X4332283Y4812992D02*
D03*
X4830000Y4781890D02*
D03*
X4691725Y4782099D02*
D03*
X6444409Y3601535D02*
D03*
X9515276Y6924109D02*
D03*
Y6874808D02*
D03*
X10925984Y6444095D02*
D03*
X11907480Y6620472D02*
D03*
X11359843Y6618504D02*
D03*
X11091339Y6613779D02*
D03*
X10701575Y6444095D02*
D03*
X9003543Y6404724D02*
D03*
X8944488Y6403937D02*
D03*
X8893307Y6402756D02*
D03*
X8854331Y6403150D02*
D03*
X8803543Y6402362D02*
D03*
X8802362Y6273228D02*
D03*
X8755512Y6233858D02*
D03*
X7009842Y5628346D02*
D03*
X8145276Y5917717D02*
D03*
X8343307Y5826772D02*
D03*
X8341339Y5731102D02*
D03*
X8361811Y5958268D02*
D03*
X8062205Y5866535D02*
D03*
X7950787Y5866142D02*
D03*
X7698032Y5868110D02*
D03*
X7516929Y5899213D02*
D03*
Y5637008D02*
D03*
X7354331Y5902362D02*
D03*
Y5822835D02*
D03*
X7346063Y5670472D02*
D03*
X7011417Y5898819D02*
D03*
X6931496Y5823228D02*
D03*
X7086221Y5821260D02*
D03*
X7088189Y5671654D02*
D03*
X6929134Y5671260D02*
D03*
X5589764Y4358268D02*
D03*
X6385039Y4071260D02*
D03*
X6631102Y4441732D02*
D03*
X3859843Y3257874D02*
D03*
X945276Y2567716D02*
D03*
X938976Y2784648D02*
D03*
X940158Y3005905D02*
D03*
X938583Y3207874D02*
D03*
X1220866Y3082677D02*
D03*
X1222441Y2880709D02*
D03*
X1221260Y2659451D02*
D03*
X1227559Y2442520D02*
D03*
X2396063Y2108661D02*
D03*
X2249724D02*
D03*
Y2017362D02*
D03*
X2396063D02*
D03*
X2555669Y2108661D02*
D03*
Y2017362D02*
D03*
X11548819Y2646063D02*
D03*
X11640945Y2645276D02*
D03*
X11095276Y1698425D02*
D03*
X11094488Y1606299D02*
D03*
X11179921Y1699606D02*
D03*
X11179134Y1607480D02*
D03*
X11277165Y1612992D02*
D03*
X11277953Y1705118D02*
D03*
X11458268Y2334437D02*
D03*
X11372559Y1771018D02*
D03*
X11452756Y1861811D02*
D03*
X11372559Y1929198D02*
D03*
X11453543Y2012598D02*
D03*
X11372559Y2081888D02*
D03*
X11453151Y2160158D02*
D03*
X11372559Y2245562D02*
D03*
Y2427910D02*
D03*
X11459843Y1701181D02*
D03*
X11138976Y2301575D02*
D03*
X10997244Y2300000D02*
D03*
X11138189Y2408661D02*
D03*
X11136614Y2767323D02*
D03*
X11271260Y2768110D02*
D03*
X11272835Y2890551D02*
D03*
X11134252Y2554134D02*
D03*
Y2673228D02*
D03*
X10997913Y2554134D02*
D03*
Y2673228D02*
D03*
X11278740Y3082677D02*
D03*
X11070175Y3080709D02*
D03*
X11119175Y3126798D02*
D03*
X11070175Y3032848D02*
D03*
Y3126798D02*
D03*
X11119175Y3032848D02*
D03*
X11275984Y3246457D02*
D03*
X11281102Y3402756D02*
D03*
X11179921Y3529921D02*
D03*
X10957480Y3535433D02*
D03*
X11175197Y3798819D02*
D03*
X10961811Y3799213D02*
D03*
X10952756Y3957087D02*
D03*
X11175197Y3955905D02*
D03*
X11664567Y3841339D02*
D03*
X11550787Y3966929D02*
D03*
X11590551Y3402362D02*
D03*
Y3553543D02*
D03*
Y3704724D02*
D03*
X11694094D02*
D03*
Y3553543D02*
D03*
Y3402362D02*
D03*
X11797638D02*
D03*
Y3553543D02*
D03*
Y3704724D02*
D03*
X4332283Y4859189D02*
D03*
X503150Y4566535D02*
D03*
Y4816929D02*
D03*
X746063Y4566538D02*
D03*
Y4816929D02*
D03*
X358661Y3955905D02*
D03*
Y4206299D02*
D03*
Y3705512D02*
D03*
Y3455118D02*
D03*
Y3204724D02*
D03*
Y2954331D02*
D03*
Y2703937D02*
D03*
X681102D02*
D03*
Y2954328D02*
D03*
Y3204720D02*
D03*
Y3455111D02*
D03*
Y3705503D02*
D03*
Y4206285D02*
D03*
Y3955894D02*
D03*
X3458870Y4619908D02*
D03*
X3577771D02*
D03*
X3520866Y4531496D02*
D03*
X6281496Y2453937D02*
D03*
X6013779Y1387795D02*
D03*
X6054331Y1081496D02*
D03*
X6951968Y2227559D02*
D03*
X6360630Y1733465D02*
D03*
X5531102Y2716929D02*
D03*
X5902756Y3252362D02*
D03*
X5610630Y3643701D02*
D03*
X7162598Y4590551D02*
D03*
X6213779Y4659842D02*
D03*
X2536197Y3584867D02*
D03*
X2603428Y3705079D02*
D03*
X2470116Y3585730D02*
D03*
X2442151Y3575849D02*
D03*
X2893000Y2028071D02*
D03*
X2927000D02*
D03*
X9907874Y463740D02*
D03*
X9344488Y675788D02*
D03*
X9383858Y672047D02*
D03*
X9521417Y767126D02*
D03*
X9600787Y731890D02*
D03*
X9292913Y335827D02*
D03*
X9340500Y304673D02*
D03*
X9703543Y356693D02*
D03*
X9777559Y416535D02*
D03*
X9639291Y461417D02*
D03*
Y581890D02*
D03*
X9567052Y654134D02*
D03*
X9475792D02*
D03*
X9475788Y398701D02*
D03*
X9567047D02*
D03*
X9383858Y470945D02*
D03*
Y562205D02*
D03*
X9677165Y574803D02*
D03*
X9560787Y477205D02*
D03*
X9462362Y477205D02*
D03*
X9560787Y575630D02*
D03*
X9462362Y575630D02*
D03*
Y526418D02*
D03*
X9560787Y526417D02*
D03*
X9511575Y526417D02*
D03*
Y575630D02*
D03*
Y477205D02*
D03*
X8390000Y2460150D02*
D03*
X8510000Y2432008D02*
D03*
X8660000D02*
D03*
X6639646Y6030256D02*
D03*
X2940897Y2506320D02*
D03*
X9764173Y6265984D02*
D03*
X9709803Y6315354D02*
D03*
X10413954Y6457365D02*
D03*
X11699213Y4443898D02*
D03*
Y4412402D02*
D03*
X3567009Y2056111D02*
D03*
X3532009D02*
D03*
X3418000Y2028071D02*
D03*
X3452000D02*
D03*
X5624409Y2042913D02*
D03*
X7057154Y1577136D02*
D03*
X5610000Y1843727D02*
D03*
X5464646Y1947480D02*
D03*
X2700000Y2779088D02*
D03*
X2775000Y2754821D02*
D03*
X2835000Y2750884D02*
D03*
X2890000D02*
D03*
X2945000D02*
D03*
X1053896Y3925000D02*
D03*
X3234646Y3645748D02*
D03*
Y3702756D02*
D03*
X3183858D02*
D03*
Y3645748D02*
D03*
X3133071Y3702756D02*
D03*
Y3645756D02*
D03*
X1803543Y3979449D02*
D03*
X2212500Y4001787D02*
D03*
X2247500D02*
D03*
X2282500D02*
D03*
X2317500D02*
D03*
X6765984Y6268504D02*
D03*
X6765980Y6310236D02*
D03*
X6891335D02*
D03*
X6891339Y6268504D02*
D03*
X10058868Y6530000D02*
D03*
X10126898Y6610000D02*
D03*
X10090000Y6685000D02*
D03*
X7874016Y5794095D02*
D03*
X8735772Y5824766D02*
D03*
X8688700D02*
D03*
X7696620Y5920670D02*
D03*
X8456611Y5925197D02*
D03*
X8379559Y6025197D02*
D03*
X8341559Y6058463D02*
D03*
X7770829Y6955000D02*
D03*
Y7015000D02*
D03*
X8023268Y6806498D02*
D03*
X9045518Y6733078D02*
D03*
Y6657834D02*
D03*
X9002677D02*
D03*
X8959000Y6733078D02*
D03*
X8895000Y6665075D02*
D03*
X8902344Y5949217D02*
D03*
X8939803Y6025348D02*
D03*
X9000227Y6056260D02*
D03*
X9026329Y6083898D02*
D03*
X9026680Y6138947D02*
D03*
X8999475Y6159724D02*
D03*
X8929578Y6210391D02*
D03*
X8874843Y6211585D02*
D03*
X8718110Y6090168D02*
D03*
X8745630Y6129528D02*
D03*
X6911268Y6510433D02*
D03*
X1602756Y4883071D02*
D03*
X4342339Y4121963D02*
D03*
X4344504Y4282179D02*
D03*
Y4187179D02*
D03*
X4396701Y4074679D02*
D03*
Y3954679D02*
D03*
X1995278Y2941063D02*
D03*
X3516651Y1745623D02*
D03*
X3434527Y1749183D02*
D03*
X2582362Y4049296D02*
D03*
X4270000Y5499000D02*
D03*
X4895000Y5639022D02*
D03*
X5115307Y5641422D02*
D03*
X2402500Y4049296D02*
D03*
X2079271Y3787500D02*
D03*
X5789095Y5962599D02*
D03*
X2079271Y3742500D02*
D03*
X2753067Y3830000D02*
D03*
X2780994Y3762500D02*
D03*
X2753067Y3785000D02*
D03*
X2780994Y3717500D02*
D03*
X3355431Y3427255D02*
D03*
X6005356Y5503390D02*
D03*
Y5452480D02*
D03*
X6091535Y5389961D02*
D03*
X6005354D02*
D03*
X7206165Y5945888D02*
D03*
X8900043Y5621799D02*
D03*
X8842456Y5613390D02*
D03*
X8775473D02*
D03*
X1011850Y6703974D02*
D03*
X960170Y6807402D02*
D03*
X6584409Y6178823D02*
D03*
X6623692D02*
D03*
X5092756Y6473309D02*
D03*
X5021890D02*
D03*
X5163623D02*
D03*
X1164232Y6732599D02*
D03*
X1118150Y6834880D02*
D03*
X6653765Y6154217D02*
D03*
X6694119D02*
D03*
X4572609Y6415000D02*
D03*
X1596975Y6041984D02*
D03*
X1280170Y6807402D02*
D03*
X1331850Y6703974D02*
D03*
X6701989Y6196539D02*
D03*
X6742343D02*
D03*
X6565191Y6309925D02*
D03*
X6524837D02*
D03*
X4826549Y6415000D02*
D03*
X5470434Y6350680D02*
D03*
X1484232Y6732599D02*
D03*
X6336165Y6346146D02*
D03*
X1438150Y6834880D02*
D03*
X6391835Y6467855D02*
D03*
X6320991Y6473315D02*
D03*
X6336643Y6575197D02*
D03*
X1651850Y6703974D02*
D03*
X1600170Y6807402D02*
D03*
X6454265Y6346146D02*
D03*
X6391614Y6620957D02*
D03*
X6494620Y6346146D02*
D03*
X6447091Y6309925D02*
D03*
X6406737D02*
D03*
X2287933Y6136685D02*
D03*
X1912000Y6080000D02*
D03*
X1980000Y6084599D02*
D03*
X1804232Y6732599D02*
D03*
X1758150Y6834880D02*
D03*
X6512460Y6473315D02*
D03*
X1971850Y6703974D02*
D03*
X1920170Y6807402D02*
D03*
X6572365Y6346146D02*
D03*
X2124232Y6732599D02*
D03*
X6612720Y6346146D02*
D03*
X2078150Y6834880D02*
D03*
X6628065Y6467880D02*
D03*
X6627835Y6606339D02*
D03*
X6729983Y6501823D02*
D03*
X2291850Y6703974D02*
D03*
X6690700Y6501823D02*
D03*
X2240170Y6807402D02*
D03*
X6665152Y6562480D02*
D03*
X6761040Y6519539D02*
D03*
X6801395D02*
D03*
X2255000Y6561000D02*
D03*
X2358180Y6770000D02*
D03*
X2444232Y6732599D02*
D03*
X2398150Y6834880D02*
D03*
X5806994Y6150162D02*
D03*
X5759750D02*
D03*
X5695073Y6149914D02*
D03*
X5812717Y5994095D02*
D03*
X5836339Y5962599D02*
D03*
X5860157Y5994095D02*
D03*
X5884010Y6145841D02*
D03*
X5907396Y5962288D02*
D03*
X5931018Y5993783D02*
D03*
X5954640Y5965447D02*
D03*
X5978262Y5993783D02*
D03*
X6025506Y5962288D02*
D03*
X6049128Y5993783D02*
D03*
X6072750Y5962288D02*
D03*
X6096372Y5993783D02*
D03*
X6120000Y6146744D02*
D03*
X6755000Y5911953D02*
D03*
X6828813Y6025398D02*
D03*
X6804961Y5994538D02*
D03*
X6852205Y5994449D02*
D03*
X6875827Y6143628D02*
D03*
X6899679Y6025398D02*
D03*
X6923071Y5994449D02*
D03*
X6946923Y6025398D02*
D03*
X6970315Y5994723D02*
D03*
X6994167Y6025398D02*
D03*
X7112047Y6148036D02*
D03*
X6376520Y6346146D02*
D03*
X4465136Y5997480D02*
D03*
X4003578Y6067559D02*
D03*
X3799468Y6039685D02*
D03*
X3837500Y5972963D02*
D03*
X4465136Y5932480D02*
D03*
X4384864Y5932520D02*
D03*
X4425000Y6108238D02*
D03*
X4518342Y5865000D02*
D03*
Y6065000D02*
D03*
X8344449Y7200000D02*
D03*
X2474803Y6054685D02*
D03*
X6757961Y6145336D02*
D03*
X6249921Y6606339D02*
D03*
X6287239Y6562480D02*
D03*
X6250152Y6467880D02*
D03*
X6108189Y6606339D02*
D03*
X6108420Y6467880D02*
D03*
X6145507Y6562480D02*
D03*
X4335000Y6415008D02*
D03*
X5305315Y6473309D02*
D03*
X5328713Y6500039D02*
D03*
X6982351Y6473315D02*
D03*
X6746151D02*
D03*
X6179271D02*
D03*
X5990311D02*
D03*
X5754111D02*
D03*
X2208781Y6732677D02*
D03*
Y6767323D02*
D03*
X1888781Y6732677D02*
D03*
Y6767323D02*
D03*
X2038180Y6770000D02*
D03*
X1568781Y6732677D02*
D03*
Y6767323D02*
D03*
X1718180Y6770000D02*
D03*
X1248781Y6732677D02*
D03*
Y6767323D02*
D03*
X1398180Y6770000D02*
D03*
X1078180D02*
D03*
X928781Y6767323D02*
D03*
Y6732677D02*
D03*
X11586068Y3246063D02*
D03*
Y3080709D02*
D03*
Y2915354D02*
D03*
Y2750000D02*
D03*
X4133795Y4610000D02*
D03*
X8643315Y5050988D02*
D03*
X2587761Y3611211D02*
D03*
X2833000Y3481535D02*
D03*
X2242089Y3618202D02*
D03*
X2348661Y3618898D02*
D03*
X2228596Y3584646D02*
D03*
X2260236Y3556798D02*
D03*
X2294882D02*
D03*
X2337822Y3694235D02*
D03*
X2295236Y3658189D02*
D03*
X6784646Y3743075D02*
D03*
X9508332Y5225756D02*
D03*
X9408429Y5109532D02*
D03*
X9719803Y5953386D02*
D03*
X9679961Y5952894D02*
D03*
X9389764Y5942913D02*
D03*
X9438661D02*
D03*
X9364173Y5151393D02*
D03*
X9404331Y5187220D02*
D03*
X10900000Y520236D02*
D03*
X6845388Y6350766D02*
D03*
X6811934D02*
D03*
X9749174Y6020866D02*
D03*
X9824044Y6060236D02*
D03*
X9774044Y6100709D02*
D03*
X9478189Y5958273D02*
D03*
X9452598Y6047069D02*
D03*
X9391181Y6211748D02*
D03*
X9358632Y6175709D02*
D03*
X9568346D02*
D03*
X11837992Y4307480D02*
D03*
Y4338976D02*
D03*
X11427116Y4323238D02*
D03*
X5157874Y5127480D02*
D03*
X3515000Y2791874D02*
D03*
X7131873Y1647558D02*
D03*
X11032019Y1281184D02*
D03*
X10800000Y1917125D02*
D03*
X9717751Y2314789D02*
D03*
Y2354159D02*
D03*
X9895000Y1966573D02*
D03*
X9745000D02*
D03*
X9667168Y1914134D02*
D03*
X9840000Y1712000D02*
D03*
X9940984Y5014173D02*
D03*
X9516142Y3474409D02*
D03*
X11085000Y6336535D02*
D03*
X7389162Y6017930D02*
D03*
X7425412D02*
D03*
X7294682Y5970158D02*
D03*
X7330932D02*
D03*
X9018009Y5800000D02*
D03*
X7223822Y5989842D02*
D03*
X7260072D02*
D03*
X7183249Y5969567D02*
D03*
X7129342Y6018071D02*
D03*
X7165592D02*
D03*
X7277356Y6028272D02*
D03*
X7454600Y5993331D02*
D03*
X4979359Y4738533D02*
D03*
X5244319Y4195120D02*
D03*
X4588583Y4582520D02*
D03*
X4342339Y4347395D02*
D03*
X4483232Y4652520D02*
D03*
X4982598Y4314000D02*
D03*
X9717933Y464173D02*
D03*
X3861024Y607087D02*
D03*
X5303000Y920000D02*
D03*
X5221000Y887000D02*
D03*
X5195000Y530000D02*
D03*
X5111024Y607087D02*
D03*
X8214133Y750473D02*
D03*
X8268779Y607973D02*
D03*
X8149999Y892992D02*
D03*
X8214133Y860473D02*
D03*
X8268779Y673189D02*
D03*
Y512973D02*
D03*
Y447756D02*
D03*
X6903779Y673189D02*
D03*
Y607973D02*
D03*
X6849134Y750473D02*
D03*
X6654134D02*
D03*
X6708779Y607973D02*
D03*
Y673189D02*
D03*
X7488779Y607973D02*
D03*
X7098779D02*
D03*
Y673189D02*
D03*
X7293779D02*
D03*
Y607973D02*
D03*
X7488779Y673189D02*
D03*
X6708779Y512973D02*
D03*
X7293779D02*
D03*
X7434134Y750473D02*
D03*
X7044134D02*
D03*
X7239134D02*
D03*
X7488779Y512973D02*
D03*
X7098779D02*
D03*
X6903779D02*
D03*
X7683779Y673189D02*
D03*
X7878779Y512973D02*
D03*
Y447756D02*
D03*
X7683779Y607973D02*
D03*
X7878779Y673189D02*
D03*
Y607973D02*
D03*
X7683779Y512973D02*
D03*
X7629134Y750473D02*
D03*
X8073779Y673189D02*
D03*
Y607973D02*
D03*
Y512973D02*
D03*
X8019134Y750473D02*
D03*
X7824133D02*
D03*
X7488779Y447756D02*
D03*
X7683779D02*
D03*
X6903779D02*
D03*
X6708779D02*
D03*
X7098779D02*
D03*
X7293779D02*
D03*
X8073779D02*
D03*
X7239134Y860473D02*
D03*
X7175000Y892992D02*
D03*
X7044134Y860473D02*
D03*
X7434134D02*
D03*
X6785000Y892992D02*
D03*
X6980000D02*
D03*
X6590000D02*
D03*
X6654134Y860473D02*
D03*
X6849134D02*
D03*
X7824133D02*
D03*
X7759999Y892992D02*
D03*
X7565000D02*
D03*
X7370000D02*
D03*
X7629134Y860473D02*
D03*
X8019134D02*
D03*
X7955000Y892992D02*
D03*
X9767275Y710669D02*
D03*
X9720433D02*
D03*
X9951575Y396417D02*
D03*
X10146575Y577126D02*
D03*
X10198740Y454134D02*
D03*
Y577126D02*
D03*
Y407197D02*
D03*
Y518701D02*
D03*
X10176884Y328733D02*
D03*
X4015000Y5118491D02*
D03*
X4858506Y5608622D02*
D03*
X5199049Y5962288D02*
D03*
X4155000Y5205905D02*
D03*
X4015000Y5043866D02*
D03*
X5069912Y5608622D02*
D03*
X1775628Y2758583D02*
D03*
X3133786Y2756992D02*
D03*
X3205989Y2759028D02*
D03*
X3300621Y2610113D02*
D03*
X3227984Y2608608D02*
D03*
X3086251D02*
D03*
X3030779Y2571614D02*
D03*
Y2517244D02*
D03*
X2690810Y2515043D02*
D03*
X2815000Y2592520D02*
D03*
X2537402Y4049296D02*
D03*
X2627323D02*
D03*
X2492441D02*
D03*
X2447500D02*
D03*
X2897309Y2548378D02*
D03*
X2858354Y2569311D02*
D03*
X2897136Y2589441D02*
D03*
X2950740Y2604470D02*
D03*
X2991981Y2640033D02*
D03*
X4226849Y4792480D02*
D03*
X4545000Y5311496D02*
D03*
X3650000Y2625256D02*
D03*
X6238090Y5962288D02*
D03*
X3749606Y2558740D02*
D03*
X6214482Y5993783D02*
D03*
X6261705Y6147528D02*
D03*
X6285333Y5993783D02*
D03*
X6308953Y5962599D02*
D03*
X5866150Y5182921D02*
D03*
X5852150Y5226921D02*
D03*
X5999079Y5218146D02*
D03*
X5999535Y5177882D02*
D03*
X6040401Y5218146D02*
D03*
X6040394Y5177882D02*
D03*
X6491527Y5968671D02*
D03*
X5542120Y5342480D02*
D03*
X5585000Y5384409D02*
D03*
X5345725Y5342480D02*
D03*
X5305000Y5381263D02*
D03*
X5445000Y5240000D02*
D03*
Y5202598D02*
D03*
Y5277402D02*
D03*
X5585000Y5094882D02*
D03*
X6260000Y5076614D02*
D03*
X6301181D02*
D03*
X6550158Y5503386D02*
D03*
Y5452480D02*
D03*
X6790085Y5264161D02*
D03*
X6702093Y5373153D02*
D03*
X6665748Y5452480D02*
D03*
Y5503386D02*
D03*
X6550145Y5227074D02*
D03*
Y5272480D02*
D03*
Y5318170D02*
D03*
X6589495Y5227074D02*
D03*
Y5272480D02*
D03*
Y5318170D02*
D03*
X6395214Y5272480D02*
D03*
X6206040Y5332539D02*
D03*
X6260000Y5281162D02*
D03*
X6206040D02*
D03*
X6159724D02*
D03*
X6159705Y5332539D02*
D03*
X6113370Y5281162D02*
D03*
Y5332539D02*
D03*
X6222441Y5389961D02*
D03*
X6246863Y5452480D02*
D03*
X6081722Y5218146D02*
D03*
Y5177882D02*
D03*
X5824150Y5192921D02*
D03*
X5809150Y5230921D02*
D03*
X5786900Y5263921D02*
D03*
X5830150D02*
D03*
X5180996Y5393883D02*
D03*
X5221260Y5352790D02*
D03*
X5180996D02*
D03*
X5221260Y5394112D02*
D03*
Y5435433D02*
D03*
X5180996Y5434977D02*
D03*
X4539628Y4905158D02*
D03*
X4646434Y4963762D02*
D03*
X4641533Y5023268D02*
D03*
X4495079Y5042953D02*
D03*
X4566508Y5069459D02*
D03*
X4475591Y5100394D02*
D03*
X5434747Y4610000D02*
D03*
X5624495Y4655690D02*
D03*
Y4610000D02*
D03*
Y4564593D02*
D03*
X5585145D02*
D03*
Y4655690D02*
D03*
Y4610000D02*
D03*
X4951575Y4545748D02*
D03*
Y4587795D02*
D03*
X4988976Y4545748D02*
D03*
Y4587795D02*
D03*
X5111417Y4545748D02*
D03*
Y4587795D02*
D03*
X5213228Y4647323D02*
D03*
X5213228Y4689370D02*
D03*
X5175197Y4647323D02*
D03*
X5137165D02*
D03*
X5175197Y4689370D02*
D03*
X5137165D02*
D03*
X5423622Y4842905D02*
D03*
X5452854Y4810000D02*
D03*
X5262095Y4737480D02*
D03*
X5295000Y4766713D02*
D03*
Y4394988D02*
D03*
X3596553Y5025591D02*
D03*
X3596097Y5065855D02*
D03*
X3637419D02*
D03*
X3678740Y5025591D02*
D03*
Y5065855D02*
D03*
X3637647Y5025591D02*
D03*
X3795000Y5182480D02*
D03*
X4316535Y5040000D02*
D03*
X4401033Y5147520D02*
D03*
X4562846D02*
D03*
X4664173Y5132087D02*
D03*
X3935505Y4655407D02*
D03*
X3974855D02*
D03*
Y4564310D02*
D03*
X3935505D02*
D03*
Y4610000D02*
D03*
X3974855D02*
D03*
X4102146Y4429606D02*
D03*
X4131870Y4397095D02*
D03*
X4303438Y4792480D02*
D03*
X4457610Y4720197D02*
D03*
Y4678197D02*
D03*
X4440852Y4623346D02*
D03*
X4340000Y4623343D02*
D03*
X4390426Y4623346D02*
D03*
X4297905Y4488012D02*
D03*
X4265394Y4458287D02*
D03*
X4309173Y4527354D02*
D03*
Y4564520D02*
D03*
X4497598Y4835315D02*
D03*
X4648819D02*
D03*
X4655042Y4787778D02*
D03*
X4830000Y4642913D02*
D03*
X4900000D02*
D03*
Y4781890D02*
D03*
X5053847Y4825000D02*
D03*
X4909488D02*
D03*
X5058504Y4925000D02*
D03*
X5096417D02*
D03*
X4909488D02*
D03*
X4909488Y4985000D02*
D03*
X6505000Y3719045D02*
D03*
X6528552Y3061851D02*
D03*
X6356193Y6013882D02*
D03*
X6392709Y5992662D02*
D03*
X6474293Y5993783D02*
D03*
X6568773Y6023400D02*
D03*
X6545153Y5995571D02*
D03*
X6445406Y6028228D02*
D03*
X6521535Y6028543D02*
D03*
X3690133Y2691406D02*
D03*
X3467021Y2674733D02*
D03*
X3302559Y2537795D02*
D03*
Y2481890D02*
D03*
Y2426772D02*
D03*
X3360351Y2688225D02*
D03*
X3387477Y2659206D02*
D03*
X3418738Y2564488D02*
D03*
X3377309Y2541136D02*
D03*
X3473504Y2568110D02*
D03*
X3465354Y2516929D02*
D03*
X3495000Y2544823D02*
D03*
X3696347Y2517452D02*
D03*
X3704773Y2575965D02*
D03*
X3683071Y2426772D02*
D03*
X3472748Y2442913D02*
D03*
X3644748Y2442512D02*
D03*
X3486413Y2389118D02*
D03*
X3653150Y2348425D02*
D03*
X3417716Y2377559D02*
D03*
X3381836Y2383224D02*
D03*
X4445000Y2576000D02*
D03*
X1296280Y740000D02*
D03*
Y825000D02*
D03*
X2084646Y1320000D02*
D03*
X4605000Y2500000D02*
D03*
X6415394Y3139990D02*
D03*
Y3190020D02*
D03*
X2200000Y774000D02*
D03*
X1921280Y740000D02*
D03*
X4440000Y2235000D02*
D03*
X4605000D02*
D03*
X2709646Y1320000D02*
D03*
X3608980Y1340000D02*
D03*
X3876338Y1809610D02*
D03*
X3911423Y1947348D02*
D03*
X4605000Y2369000D02*
D03*
X4765000Y583481D02*
D03*
X6850000Y2868622D02*
D03*
X5936785Y1867520D02*
D03*
X6800000Y2868622D02*
D03*
X6700000Y2868605D02*
D03*
X6750000Y2868622D02*
D03*
X3610000Y872853D02*
D03*
X4865000Y1980295D02*
D03*
X4630000Y4692520D02*
D03*
X4358228Y4564520D02*
D03*
X4407283D02*
D03*
X4358228Y4527354D02*
D03*
X4407283D02*
D03*
X2531607Y885000D02*
D03*
X4406607D02*
D03*
X2895533Y1714781D02*
D03*
X2857648Y1746159D02*
D03*
X2125732Y2812086D02*
D03*
X1987126Y2616102D02*
D03*
X2189732Y2688583D02*
D03*
X1952803Y2548583D02*
D03*
X2297717Y3310709D02*
D03*
X1980906Y3229764D02*
D03*
X2056760Y3238268D02*
D03*
X1980912Y3266466D02*
D03*
X2297732Y3266260D02*
D03*
X1974997Y3189055D02*
D03*
X1586705Y2712893D02*
D03*
X1633556Y2803989D02*
D03*
Y2712893D02*
D03*
Y2758583D02*
D03*
X1586705Y2803989D02*
D03*
Y2758583D02*
D03*
X3193000Y2028071D02*
D03*
X3227000D02*
D03*
X3268000D02*
D03*
X3302000D02*
D03*
X3976032Y1695000D02*
D03*
X3343000Y2028071D02*
D03*
X3377000D02*
D03*
X4519035Y1687500D02*
D03*
X4462404D02*
D03*
X3152000Y2028071D02*
D03*
X3118000D02*
D03*
X3077000D02*
D03*
X3043000D02*
D03*
X3002000D02*
D03*
X2968000D02*
D03*
X5151805Y6026875D02*
D03*
X5045061Y6173199D02*
D03*
X2030000Y5988386D02*
D03*
X1540503Y5947813D02*
D03*
X1668858Y5883857D02*
D03*
X1285000Y5962795D02*
D03*
X1235000Y6059008D02*
D03*
X1164712Y6080000D02*
D03*
X923858Y5883857D02*
D03*
X872561Y6030002D02*
D03*
X795503Y5947813D02*
D03*
X2260000Y6327008D02*
D03*
X2092205Y6582000D02*
D03*
X2018000Y6473071D02*
D03*
X2002614Y6290244D02*
D03*
X2143386Y6327000D02*
D03*
X2092205Y6290236D02*
D03*
X1497205D02*
D03*
X1548386Y6327000D02*
D03*
X1407614Y6290244D02*
D03*
X1423000Y6473071D02*
D03*
X1660000Y6561000D02*
D03*
X1497205Y6582000D02*
D03*
X1665000Y6327008D02*
D03*
X10090433Y6569142D02*
D03*
X10145559Y6490606D02*
D03*
Y6569393D02*
D03*
X10095000Y6303000D02*
D03*
X10139000D02*
D03*
X10225000Y6435000D02*
D03*
X10462953Y6557162D02*
D03*
Y6521728D02*
D03*
X10493228Y6573027D02*
D03*
Y6513442D02*
D03*
X10462400Y6778433D02*
D03*
X10214345Y6740000D02*
D03*
X10325079Y6697849D02*
D03*
X10198000Y6685000D02*
D03*
X10222439Y6531260D02*
D03*
X10266102Y6467911D02*
D03*
X10365000Y6322521D02*
D03*
X10397898Y6362677D02*
D03*
X10397913Y6397323D02*
D03*
X10322000Y6460787D02*
D03*
X10536864Y6479700D02*
D03*
X1020027Y4714685D02*
D03*
X911823Y3925000D02*
D03*
X864973D02*
D03*
Y3879310D02*
D03*
Y3970407D02*
D03*
X911823Y3879310D02*
D03*
Y3970407D02*
D03*
X1242126Y4127480D02*
D03*
X1210000Y4156841D02*
D03*
X1325000Y3970000D02*
D03*
X1071459Y3703670D02*
D03*
X1035366Y3740183D02*
D03*
X1209952Y3770409D02*
D03*
X1245118Y3802520D02*
D03*
X1285559Y3845000D02*
D03*
X2625000Y3461000D02*
D03*
X2725000Y3447000D02*
D03*
X2670000Y3447008D02*
D03*
X2785000Y3438160D02*
D03*
X3445000Y3454961D02*
D03*
X3390000D02*
D03*
X3476847Y3292520D02*
D03*
X3505000Y3263159D02*
D03*
X3467992Y3671694D02*
D03*
X3467995Y3618715D02*
D03*
X3863044Y3535407D02*
D03*
Y3444310D02*
D03*
X3816194Y3535407D02*
D03*
Y3444310D02*
D03*
Y3490000D02*
D03*
X3863044D02*
D03*
X3665015D02*
D03*
X3435000Y3570000D02*
D03*
X5055236Y3061000D02*
D03*
X5054732Y3100315D02*
D03*
X4936332Y3047816D02*
D03*
X4733015Y3026213D02*
D03*
X4772739Y3026090D02*
D03*
X4733015Y3072323D02*
D03*
X4772739D02*
D03*
X4977165Y3100315D02*
D03*
X2933205Y1748647D02*
D03*
X2958526Y1717269D02*
D03*
X3032519Y1748200D02*
D03*
X3031055Y1706217D02*
D03*
X3112012Y1749041D02*
D03*
X3108784Y1707058D02*
D03*
X3185272Y1750699D02*
D03*
X3185311Y1707058D02*
D03*
X3256443Y1749674D02*
D03*
X3255668Y1708174D02*
D03*
X3334238Y1749862D02*
D03*
X3408626Y1718918D02*
D03*
X3480000Y1719138D02*
D03*
X3486508Y1999685D02*
D03*
X3556645Y1742963D02*
D03*
X4502000Y1855000D02*
D03*
X4135389Y1695000D02*
D03*
X3876338Y1877624D02*
D03*
X1081614Y1145000D02*
D03*
Y1190000D02*
D03*
X1108980Y1255000D02*
D03*
Y1340000D02*
D03*
X834646Y1320000D02*
D03*
X1706614Y1145000D02*
D03*
Y1190000D02*
D03*
X1733980Y1255000D02*
D03*
Y1340000D02*
D03*
X1459646Y1320000D02*
D03*
X2331614Y1145000D02*
D03*
Y1190000D02*
D03*
X2358980Y1255000D02*
D03*
Y1340000D02*
D03*
X2956614Y1145000D02*
D03*
Y1190000D02*
D03*
X2983980Y1255000D02*
D03*
Y1340000D02*
D03*
X3581614Y1145000D02*
D03*
Y1190000D02*
D03*
X3608980Y1255000D02*
D03*
X3334646Y1320000D02*
D03*
X4206614Y1145000D02*
D03*
Y1190000D02*
D03*
X4233980Y1255000D02*
D03*
Y1340000D02*
D03*
X3959646Y1320000D02*
D03*
X4831614Y1145000D02*
D03*
Y1190000D02*
D03*
X4858980Y1255000D02*
D03*
Y1340000D02*
D03*
X4584646Y1320000D02*
D03*
X5209646D02*
D03*
X5483980Y1340000D02*
D03*
Y1255000D02*
D03*
X5456614Y1190000D02*
D03*
Y1145000D02*
D03*
X1085000Y582627D02*
D03*
X1015000Y583481D02*
D03*
X1110000Y872853D02*
D03*
X1040000Y856941D02*
D03*
X990000D02*
D03*
X820000Y565321D02*
D03*
X736024Y607087D02*
D03*
X671280Y740000D02*
D03*
Y825000D02*
D03*
X709134Y926431D02*
D03*
X709606Y965000D02*
D03*
X1710000Y582627D02*
D03*
X1640000Y583481D02*
D03*
X1735000Y872853D02*
D03*
X1665000Y856941D02*
D03*
X1615000D02*
D03*
X1445000Y565321D02*
D03*
X1361024Y607087D02*
D03*
X1334134Y926431D02*
D03*
X1334606Y965000D02*
D03*
X2335000Y582627D02*
D03*
X2265000Y583481D02*
D03*
X2360000Y872853D02*
D03*
X2290000Y856941D02*
D03*
X2240000D02*
D03*
X2070000Y565321D02*
D03*
X1986024Y607087D02*
D03*
X1921280Y825000D02*
D03*
X1959134Y926431D02*
D03*
X1959606Y965000D02*
D03*
X2960000Y582627D02*
D03*
X2890000Y583481D02*
D03*
X2985000Y872853D02*
D03*
X2915000Y856941D02*
D03*
X2865000D02*
D03*
X2695000Y565321D02*
D03*
X2611024Y607087D02*
D03*
X2546280Y740000D02*
D03*
Y825000D02*
D03*
X2584134Y926431D02*
D03*
X2584606Y965000D02*
D03*
X3585000Y582627D02*
D03*
X3515000Y583481D02*
D03*
X3540000Y856941D02*
D03*
X3490000D02*
D03*
X3320000Y565321D02*
D03*
X3236024Y607087D02*
D03*
X3171280Y740000D02*
D03*
Y825000D02*
D03*
X3209134Y926431D02*
D03*
X3209606Y965000D02*
D03*
X4210000Y582627D02*
D03*
X4140000Y583481D02*
D03*
X4235000Y872853D02*
D03*
X4165000Y856941D02*
D03*
X4115000D02*
D03*
X3945000Y565321D02*
D03*
X3796280Y740000D02*
D03*
Y825000D02*
D03*
X3834134Y926431D02*
D03*
X3834606Y965000D02*
D03*
X4835000Y582627D02*
D03*
X4860000Y872853D02*
D03*
X4790000Y856941D02*
D03*
X4740000D02*
D03*
X4570000Y565321D02*
D03*
X4486024Y607087D02*
D03*
X4421280Y740000D02*
D03*
Y825000D02*
D03*
X4459134Y926431D02*
D03*
X4459606Y965000D02*
D03*
X656607Y885000D02*
D03*
X1281607D02*
D03*
X1906607D02*
D03*
X3156607D02*
D03*
X3781607D02*
D03*
X5031607D02*
D03*
X5084606Y965000D02*
D03*
X5084134Y926431D02*
D03*
X5046280Y825000D02*
D03*
Y740000D02*
D03*
X823000Y685000D02*
D03*
X1448000D02*
D03*
X2073000D02*
D03*
X2698000D02*
D03*
X3323000D02*
D03*
X3948000D02*
D03*
X4573000D02*
D03*
X5198000D02*
D03*
X5195000Y565321D02*
D03*
X5365000Y856941D02*
D03*
X5415000D02*
D03*
X5485000Y872853D02*
D03*
X5390000Y583481D02*
D03*
X5460000Y582627D02*
D03*
X7005000Y6721743D02*
D03*
X6901333Y6562480D02*
D03*
X6864016Y6606339D02*
D03*
X6864246Y6467880D02*
D03*
X5909286Y6562480D02*
D03*
X5871968Y6606339D02*
D03*
X5872199Y6467880D02*
D03*
X4884992Y6039099D02*
D03*
Y6192795D02*
D03*
X4970000Y6035433D02*
D03*
Y6192795D02*
D03*
X5045000Y6032578D02*
D03*
X5700748Y6028268D02*
D03*
X5765709D02*
D03*
X5937520Y6150039D02*
D03*
X6002480D02*
D03*
X6177078Y6149760D02*
D03*
X6332520Y6154122D02*
D03*
X6403425Y6147528D02*
D03*
X6673098Y6025104D02*
D03*
X7532480Y5967017D02*
D03*
X7493997Y6000028D02*
D03*
X7612520Y5967017D02*
D03*
X7493983Y6150915D02*
D03*
X7569984Y6000406D02*
D03*
X7570000Y6150269D02*
D03*
X7655000Y5998082D02*
D03*
Y6147945D02*
D03*
X5885000Y1831214D02*
D03*
X9765984Y3970707D02*
D03*
X9688152Y3918283D02*
D03*
X9915984Y3970707D02*
D03*
X9993832Y3918268D02*
D03*
X10960500Y3285755D02*
D03*
X9722717Y3700000D02*
D03*
Y3655787D02*
D03*
Y3746339D02*
D03*
X9961811Y3700000D02*
D03*
Y3655787D02*
D03*
Y3746339D02*
D03*
X9778858D02*
D03*
X9900906D02*
D03*
Y3655787D02*
D03*
X9778858D02*
D03*
X9840000D02*
D03*
Y3746339D02*
D03*
X9900906Y3700000D02*
D03*
X9778858D02*
D03*
X11036386Y3324685D02*
D03*
X11033200Y3292151D02*
D03*
X11133594Y3344370D02*
D03*
X10751781Y3196378D02*
D03*
X10790000Y3163487D02*
D03*
X10645380Y3243622D02*
D03*
X9632000Y3684000D02*
D03*
X9598000D02*
D03*
X9633000Y3561307D02*
D03*
X9598000Y3575000D02*
D03*
X9601000Y3507000D02*
D03*
X9566000D02*
D03*
X9579000Y3456658D02*
D03*
X9765000Y3470000D02*
D03*
X10033000Y3513000D02*
D03*
X9985000D02*
D03*
X10334000Y3442000D02*
D03*
X10230000Y3230000D02*
D03*
X9975252Y3233685D02*
D03*
X9932252D02*
D03*
X9881560Y3312000D02*
D03*
X9916000D02*
D03*
X9807000Y3379000D02*
D03*
X9830000Y3258000D02*
D03*
X9811000Y3222000D02*
D03*
X9959000Y3050000D02*
D03*
Y3107000D02*
D03*
Y2991000D02*
D03*
X9910000Y3080333D02*
D03*
Y3135000D02*
D03*
Y3025667D02*
D03*
Y2971000D02*
D03*
X9700000Y3080333D02*
D03*
Y3135000D02*
D03*
Y3025667D02*
D03*
Y2971000D02*
D03*
X9840000Y3135000D02*
D03*
Y3025667D02*
D03*
Y2971000D02*
D03*
X9770000D02*
D03*
Y3025667D02*
D03*
Y3135000D02*
D03*
Y3080333D02*
D03*
X11032019Y1314192D02*
D03*
X11087598Y1394165D02*
D03*
X11133594Y1369370D02*
D03*
X11032019Y1349685D02*
D03*
X10959747Y1310334D02*
D03*
X10790000Y1189006D02*
D03*
X10753858Y1221378D02*
D03*
X10647881Y1268622D02*
D03*
X9629000Y1805866D02*
D03*
X9591016Y1533008D02*
D03*
Y1592693D02*
D03*
Y1652339D02*
D03*
X9591000Y1712024D02*
D03*
X9674016Y1533000D02*
D03*
Y1592685D02*
D03*
Y1652331D02*
D03*
X9674000Y1712016D02*
D03*
X9757000Y1712008D02*
D03*
X9757016Y1652323D02*
D03*
Y1592677D02*
D03*
Y1532992D02*
D03*
X9972992Y1592677D02*
D03*
X9973000Y1712000D02*
D03*
Y1652323D02*
D03*
X9919016Y1533000D02*
D03*
Y1592667D02*
D03*
Y1652333D02*
D03*
X9919000Y1712000D02*
D03*
X9840000Y1532992D02*
D03*
Y1592677D02*
D03*
X9972832Y1914134D02*
D03*
X11133594Y2014370D02*
D03*
X11087598Y2039165D02*
D03*
X11028832Y1961312D02*
D03*
Y1923767D02*
D03*
X11032019Y1994685D02*
D03*
X10766535Y1887323D02*
D03*
X10763851Y1852677D02*
D03*
X10800000Y1824134D02*
D03*
X10962016Y1954858D02*
D03*
X9778858Y2316417D02*
D03*
X9840000D02*
D03*
X9900906D02*
D03*
Y2485709D02*
D03*
X9840000D02*
D03*
X9778858D02*
D03*
Y2446339D02*
D03*
X9900906D02*
D03*
Y2355787D02*
D03*
X9778858D02*
D03*
X9840000D02*
D03*
Y2446339D02*
D03*
X9900906Y2400000D02*
D03*
X9778858D02*
D03*
X9717751Y2398372D02*
D03*
Y2444710D02*
D03*
Y2484081D02*
D03*
X9895000Y2750465D02*
D03*
X9974235Y2801732D02*
D03*
X9745000Y2749599D02*
D03*
X9665996Y2800866D02*
D03*
X9974004Y2659134D02*
D03*
X9895000Y2710401D02*
D03*
X9665765Y2659134D02*
D03*
X9745000Y2710401D02*
D03*
X8678875Y2679829D02*
D03*
X8739781D02*
D03*
X8617733D02*
D03*
Y2719200D02*
D03*
X8678875D02*
D03*
X8739781D02*
D03*
X8739251Y2758427D02*
D03*
X8678345D02*
D03*
X8617204D02*
D03*
X8495157D02*
D03*
X8556298D02*
D03*
X8556828Y2719200D02*
D03*
X8495686D02*
D03*
Y2679829D02*
D03*
X8556828D02*
D03*
X8373109Y2758427D02*
D03*
X8434251D02*
D03*
X8434781Y2719200D02*
D03*
X8373639D02*
D03*
Y2679829D02*
D03*
X8434781D02*
D03*
X8541755Y2870989D02*
D03*
X8560000Y3047485D02*
D03*
X8635000D02*
D03*
X8485000D02*
D03*
X8400000Y3047505D02*
D03*
X9060000Y3057241D02*
D03*
X9092337Y3012992D02*
D03*
X7131873Y1613934D02*
D03*
X6852739Y1506090D02*
D03*
X6813015Y1506213D02*
D03*
X6852739Y1552323D02*
D03*
X6813015D02*
D03*
X5846949Y1969842D02*
D03*
X7942402Y6993926D02*
D03*
X7866674Y6893587D02*
D03*
X7905000Y6902575D02*
D03*
X7940000Y7100433D02*
D03*
X7905046Y7104804D02*
D03*
X7867644Y7007078D02*
D03*
X9067976Y6503038D02*
D03*
X8995400Y6537402D02*
D03*
X8987599Y6462599D02*
D03*
X9027709Y6472961D02*
D03*
X8906127Y6500000D02*
D03*
X8800276Y6462599D02*
D03*
Y6537402D02*
D03*
X8806964Y6665031D02*
D03*
X8720350Y6581395D02*
D03*
X8737799Y6739799D02*
D03*
X9002677Y6733078D02*
D03*
X4965641Y6604641D02*
D03*
X4931763Y5980713D02*
D03*
X840358Y4655630D02*
D03*
X946534Y4709172D02*
D03*
X946341Y4743150D02*
D03*
X1222480Y4787126D02*
D03*
X1260984D02*
D03*
X1222496Y4742677D02*
D03*
X1261000D02*
D03*
X1795000Y5170213D02*
D03*
Y5123362D02*
D03*
Y5263718D02*
D03*
Y5216868D02*
D03*
X771567Y5401468D02*
D03*
X869596D02*
D03*
X954578D02*
D03*
X1048438D02*
D03*
X1152447D02*
D03*
X1239332D02*
D03*
X1333826D02*
D03*
X1418175D02*
D03*
X1508864D02*
D03*
X1591310D02*
D03*
X1678195D02*
D03*
X1772688D02*
D03*
X1860207D02*
D03*
X2075834D02*
D03*
X1409945Y5282229D02*
D03*
X1543979Y5334129D02*
D03*
X1394438Y5185000D02*
D03*
X1426166Y5222786D02*
D03*
X1489415Y5218655D02*
D03*
X1482558Y5116535D02*
D03*
X1540000Y5069158D02*
D03*
X2590581Y5204317D02*
D03*
X2523494Y5235534D02*
D03*
X2556526D02*
D03*
X2590581D02*
D03*
X2754352Y5125308D02*
D03*
X2790022Y5064509D02*
D03*
X2594899D02*
D03*
X2639587Y5125308D02*
D03*
X2677581D02*
D03*
X2715579D02*
D03*
X2819733Y4730901D02*
D03*
X2729000Y4587000D02*
D03*
X2539693Y4625962D02*
D03*
X2672155Y4587000D02*
D03*
X2617125D02*
D03*
X2565000D02*
D03*
X2255000Y5174976D02*
D03*
X2152598Y4866000D02*
D03*
X2152581Y4897534D02*
D03*
X2187581Y4897148D02*
D03*
X2117936Y4897534D02*
D03*
X2260000Y4632115D02*
D03*
X2069200Y4935000D02*
D03*
X2120000Y5140968D02*
D03*
X2126614Y4654000D02*
D03*
X2165000Y5054729D02*
D03*
X2106740Y4830959D02*
D03*
X2027270Y5100471D02*
D03*
X1978997Y4967520D02*
D03*
X1944941D02*
D03*
X1911910Y4936302D02*
D03*
X1944941D02*
D03*
X1978997D02*
D03*
X1911910Y4903482D02*
D03*
X1944941D02*
D03*
X1978997D02*
D03*
X1911910Y4967520D02*
D03*
X1991794Y5167729D02*
D03*
X1943313Y5077222D02*
D03*
X1942505Y5047397D02*
D03*
X1884508Y5009882D02*
D03*
X2032874Y4572835D02*
D03*
X1986023D02*
D03*
X1885331Y4730000D02*
D03*
X2031643Y4663891D02*
D03*
X1940804Y4824433D02*
D03*
X1884508Y4860118D02*
D03*
X1827400Y4954685D02*
D03*
X4309764Y6860009D02*
D03*
X4309745Y6915000D02*
D03*
X4569392Y6860000D02*
D03*
X4568595Y6915000D02*
D03*
X5458852Y6027839D02*
D03*
X5435872Y5993783D02*
D03*
X5411382Y5962288D02*
D03*
X5387986Y6027839D02*
D03*
X5364138Y5993783D02*
D03*
X5340516Y5962288D02*
D03*
X5317120Y6027839D02*
D03*
X5293275Y5993783D02*
D03*
X5269663Y5962288D02*
D03*
X5246254Y6028150D02*
D03*
X5222423Y5993783D02*
D03*
X5175427Y6157751D02*
D03*
X4818577Y6033114D02*
D03*
Y5980713D02*
D03*
X5009130Y5980709D02*
D03*
X5447041Y6473315D02*
D03*
X5375954Y6473417D02*
D03*
X5234489Y6473309D02*
D03*
X4902189Y6604641D02*
D03*
X5039943D02*
D03*
X2370887Y2480000D02*
D03*
X2501485Y2425000D02*
D03*
X3030779Y2422744D02*
D03*
Y2387272D02*
D03*
X2911350Y2412603D02*
D03*
X2951161Y2413966D02*
D03*
X2754291Y2300000D02*
D03*
Y2340000D02*
D03*
X2796693Y2391260D02*
D03*
X3032685Y2332270D02*
D03*
X2958469Y2302815D02*
D03*
X2949404Y2268682D02*
D03*
X2851142Y2260000D02*
D03*
X2851150Y2340000D02*
D03*
Y2300000D02*
D03*
X2195000Y3891000D02*
D03*
X2311399Y3851209D02*
D03*
X2381747Y3809898D02*
D03*
X2265000Y3890984D02*
D03*
X2126811Y3720000D02*
D03*
Y3765000D02*
D03*
Y3810000D02*
D03*
Y3855000D02*
D03*
X2079271Y3832500D02*
D03*
X2605000Y4018189D02*
D03*
X2560000D02*
D03*
X2515000D02*
D03*
X2470000D02*
D03*
X2425000D02*
D03*
X2380000D02*
D03*
X2438388Y3760318D02*
D03*
X2481026D02*
D03*
X2524530Y3717167D02*
D03*
Y3760318D02*
D03*
Y3675615D02*
D03*
X2465000Y3545000D02*
D03*
X2430709Y3839219D02*
D03*
X2780994Y3807500D02*
D03*
X2753067Y3740000D02*
D03*
Y3695000D02*
D03*
X2572285Y3584867D02*
D03*
X2670000Y3589478D02*
D03*
X2725000D02*
D03*
X2785000D02*
D03*
X2542323Y3209507D02*
D03*
X2507677D02*
D03*
X2617875Y3370000D02*
D03*
X2431258D02*
D03*
X2240000Y3412000D02*
D03*
X2295000Y3427727D02*
D03*
X2345000Y3472433D02*
D03*
X2481026Y3717167D02*
D03*
X2438388D02*
D03*
X2481026Y3675615D02*
D03*
X2438388D02*
D03*
X8744828Y5962813D02*
D03*
X8817323Y5968993D02*
D03*
X8960000Y6184387D02*
D03*
X8903249Y6227411D02*
D03*
X8999458Y6112677D02*
D03*
X9611058Y6553000D02*
D03*
X9520000Y6804000D02*
D03*
X9181932Y6567598D02*
D03*
X9227932D02*
D03*
X9357283Y6630000D02*
D03*
X9401000Y6783622D02*
D03*
X9430166Y6972559D02*
D03*
X9390000Y7008512D02*
D03*
X9101087Y6877583D02*
D03*
X9147087D02*
D03*
X8982480Y6772244D02*
D03*
X8939173D02*
D03*
X8852559D02*
D03*
X8722638D02*
D03*
X9025787D02*
D03*
X8809252D02*
D03*
X8765945D02*
D03*
X9114505Y6714961D02*
D03*
X9170669Y6651748D02*
D03*
X9223591Y6714961D02*
D03*
X9114505Y7041732D02*
D03*
X9170669Y6978519D02*
D03*
X9223591Y7041732D02*
D03*
X8573166Y6714961D02*
D03*
X8629331Y6651748D02*
D03*
X8682252Y6714961D02*
D03*
Y7041732D02*
D03*
X8629331Y6978519D02*
D03*
X8573166Y7041732D02*
D03*
X7265782Y6473315D02*
D03*
X7171333D02*
D03*
X7430942Y6357544D02*
D03*
X7383892Y6470851D02*
D03*
X7487216Y6576063D02*
D03*
X7614497D02*
D03*
X7554789D02*
D03*
X7454528Y6483269D02*
D03*
X7005748Y6510433D02*
D03*
X7797500Y7105000D02*
D03*
Y7045000D02*
D03*
Y6985000D02*
D03*
X7770829Y7075000D02*
D03*
X7774593Y7135000D02*
D03*
X7985000Y7289370D02*
D03*
X7740548Y7289381D02*
D03*
X8023268Y6885039D02*
D03*
Y6963780D02*
D03*
Y7042520D02*
D03*
X8344449Y7121260D02*
D03*
Y7042520D02*
D03*
Y6963779D02*
D03*
Y6885039D02*
D03*
Y6806299D02*
D03*
Y6727559D02*
D03*
X7870000Y6394057D02*
D03*
X9437794Y4734724D02*
D03*
X9708228D02*
D03*
X9940984Y5164922D02*
D03*
X9579383Y5226953D02*
D03*
X9607248Y5259496D02*
D03*
X9577804Y5190535D02*
D03*
X9677867Y5164632D02*
D03*
X9729953Y5165000D02*
D03*
X9756382Y5125000D02*
D03*
X9729374Y5085000D02*
D03*
X9760083Y5045000D02*
D03*
X9729370Y5005000D02*
D03*
X9646220Y4910984D02*
D03*
X9610000Y4936000D02*
D03*
X8823976Y4983999D02*
D03*
X9581658Y4911342D02*
D03*
X9558976Y4983999D02*
D03*
X9530000Y4924000D02*
D03*
X9490000Y4889016D02*
D03*
X9202500Y5195000D02*
D03*
X9202520Y4953954D02*
D03*
X9387602Y5075000D02*
D03*
X9415358Y5046146D02*
D03*
X9375437Y5019299D02*
D03*
X8843038Y5232262D02*
D03*
X8865440Y5256435D02*
D03*
X8844546Y5193197D02*
D03*
X8773332Y5225756D02*
D03*
X8946258Y5163450D02*
D03*
X8967527Y5127173D02*
D03*
X9029102Y5100795D02*
D03*
X8952173Y5073787D02*
D03*
X8990086Y5043748D02*
D03*
X8939850Y5013630D02*
D03*
X8463819Y5190000D02*
D03*
Y5148661D02*
D03*
X8640086Y5149413D02*
D03*
X8669496Y5127957D02*
D03*
X8639106Y5100795D02*
D03*
X8672055Y5075280D02*
D03*
X8672370Y5025831D02*
D03*
X9068548Y4737528D02*
D03*
X9068602Y4701154D02*
D03*
X8911220Y4910984D02*
D03*
X8875000Y4936000D02*
D03*
X8847000Y4911000D02*
D03*
X8795000Y4924000D02*
D03*
X8770000Y4889000D02*
D03*
X7387277Y3122489D02*
D03*
X7277244Y2989916D02*
D03*
X7559000Y3391772D02*
D03*
X7598685D02*
D03*
X7515654D02*
D03*
X7375000Y3464409D02*
D03*
X7425000D02*
D03*
X7475000Y3464414D02*
D03*
X7431038Y3292202D02*
D03*
X7258392Y3440949D02*
D03*
X7050258Y3919095D02*
D03*
X7098425Y3912209D02*
D03*
X7074300Y3873886D02*
D03*
X7120499Y3874059D02*
D03*
X7058409Y3749140D02*
D03*
X7097779Y3748665D02*
D03*
X7156834Y3749439D02*
D03*
X7078094Y3723289D02*
D03*
X6904990Y4094859D02*
D03*
X6954990D02*
D03*
X6960709Y3854681D02*
D03*
X6746158Y3696850D02*
D03*
X6630000Y3722716D02*
D03*
X6444414Y3668465D02*
D03*
X6739511Y3578740D02*
D03*
X6763312Y3547938D02*
D03*
X6744489Y3519685D02*
D03*
X6415394Y3540000D02*
D03*
X6374583Y3515000D02*
D03*
X6415394Y3489999D02*
D03*
Y3440009D02*
D03*
X6374409Y3465000D02*
D03*
X6415394Y3391236D02*
D03*
X6374409Y3365000D02*
D03*
X6415394Y3339990D02*
D03*
Y3290000D02*
D03*
X6413160Y3240000D02*
D03*
X6374413Y3265000D02*
D03*
X6444947Y3106636D02*
D03*
X6668551Y3169324D02*
D03*
X6900000Y2868622D02*
D03*
X6950000D02*
D03*
X7000000D02*
D03*
X7050000D02*
D03*
X7125000Y2908386D02*
D03*
X7151855Y2934193D02*
D03*
X7075000Y2908386D02*
D03*
X7025000D02*
D03*
X6975000D02*
D03*
X6925000D02*
D03*
X6875000D02*
D03*
X6825000D02*
D03*
X6775000D02*
D03*
X6725000D02*
D03*
X6675000D02*
D03*
X7039370Y3238401D02*
D03*
X3302555Y2359764D02*
D03*
X3331545Y2297756D02*
D03*
X3325511Y2722677D02*
D03*
X3326082Y2757323D02*
D03*
X3295000Y2790771D02*
D03*
X4994646Y5165551D02*
D03*
X4877624Y5056904D02*
D03*
X5076597Y5234449D02*
D03*
X4993019Y5235820D02*
D03*
X5079203Y5387000D02*
D03*
X5112000D02*
D03*
X4945066Y5395000D02*
D03*
X4829223Y5125345D02*
D03*
X4844552Y5153117D02*
D03*
X4669695Y5249726D02*
D03*
Y5283832D02*
D03*
X4740000Y5224000D02*
D03*
X4692575Y5325286D02*
D03*
X4645903Y5382323D02*
D03*
X4916575Y5367350D02*
D03*
X4107008Y1947000D02*
D03*
Y2062992D02*
D03*
X942323Y1113000D02*
D03*
X827677D02*
D03*
X1567323D02*
D03*
X1452677D02*
D03*
X2192323D02*
D03*
X2077677D02*
D03*
X2817323D02*
D03*
X2702677D02*
D03*
X3442323D02*
D03*
X3327677D02*
D03*
X4067323D02*
D03*
X3952677D02*
D03*
X4692323D02*
D03*
X4577677D02*
D03*
X5202677D02*
D03*
X5317323D02*
D03*
X11195020Y6372980D02*
D03*
X11378966Y6250000D02*
D03*
X11412677Y6217283D02*
D03*
X11528966Y6250000D02*
D03*
X11562677Y6217283D02*
D03*
X11678966Y6250000D02*
D03*
X11712677Y6217283D02*
D03*
X11862677D02*
D03*
X11828966Y6250000D02*
D03*
X11339960Y6312835D02*
D03*
X11489960D02*
D03*
X11639960D02*
D03*
X11789960D02*
D03*
X10837094Y6219854D02*
D03*
X10838858Y5381053D02*
D03*
X11170000Y6035975D02*
D03*
X11128753Y5994559D02*
D03*
X11111527Y5504441D02*
D03*
X11169292Y5457518D02*
D03*
X11033000Y6392441D02*
D03*
Y6447559D02*
D03*
X11070000Y6480000D02*
D03*
X11250000Y6505000D02*
D03*
X11213000Y6472559D02*
D03*
X11680000Y1750000D02*
D03*
X11620000Y2225000D02*
D03*
X11680000Y2125000D02*
D03*
X11620000Y1650000D02*
D03*
X11680000Y900000D02*
D03*
X11620000Y1000000D02*
D03*
X10833000Y6571000D02*
D03*
X10668000D02*
D03*
X10731000D02*
D03*
X12095000Y6520000D02*
D03*
Y6481000D02*
D03*
Y6257000D02*
D03*
Y6320000D02*
D03*
Y6385000D02*
D03*
X12050000Y6396043D02*
D03*
X11982520Y6225000D02*
D03*
X11981536Y6407000D02*
D03*
X12194000Y6631181D02*
D03*
X4552000Y2500000D02*
D03*
X4343000Y2150716D02*
D03*
X4360000Y1960000D02*
D03*
X4426654Y1845000D02*
D03*
X4077000Y1985000D02*
D03*
Y2025000D02*
D03*
X4253000Y1985000D02*
D03*
Y2025000D02*
D03*
X4025000Y2005000D02*
D03*
X4434614Y2068000D02*
D03*
X4516614Y1935000D02*
D03*
X4737000Y2006000D02*
D03*
X4740000Y1909000D02*
D03*
X4705000Y1928000D02*
D03*
X4534000Y2076386D02*
D03*
Y2034386D02*
D03*
X4576000Y2076386D02*
D03*
Y2034386D02*
D03*
X11067323Y244677D02*
D03*
X10733323D02*
D03*
X890000Y401000D02*
D03*
X808000Y245000D02*
D03*
X1142000D02*
D03*
X820000Y530000D02*
D03*
X1018000Y738000D02*
D03*
X1055000D02*
D03*
X950000Y774000D02*
D03*
X916000Y644000D02*
D03*
X958000D02*
D03*
X865000Y279000D02*
D03*
X916000Y686000D02*
D03*
X958000D02*
D03*
X5265000Y401000D02*
D03*
X5183000Y245000D02*
D03*
X5517000D02*
D03*
X5393000Y738000D02*
D03*
X5430000D02*
D03*
X5325000Y774000D02*
D03*
X5291000Y644000D02*
D03*
X5333000D02*
D03*
X5240000Y279000D02*
D03*
X5291000Y686000D02*
D03*
X5333000D02*
D03*
X4640000Y401000D02*
D03*
X4558000Y245000D02*
D03*
X4892000D02*
D03*
X4570000Y530000D02*
D03*
X4768000Y738000D02*
D03*
X4805000D02*
D03*
X4700000Y774000D02*
D03*
X4666000Y644000D02*
D03*
X4708000D02*
D03*
X4615000Y279000D02*
D03*
X4666000Y686000D02*
D03*
X4708000D02*
D03*
X4015000Y401000D02*
D03*
X3933000Y245000D02*
D03*
X4267000D02*
D03*
X3945000Y530000D02*
D03*
X4143000Y738000D02*
D03*
X4180000D02*
D03*
X4075000Y774000D02*
D03*
X4041000Y644000D02*
D03*
X4083000D02*
D03*
X3990000Y279000D02*
D03*
X4041000Y686000D02*
D03*
X4083000D02*
D03*
X3390000Y401000D02*
D03*
X3308000Y245000D02*
D03*
X3642000D02*
D03*
X3320000Y530000D02*
D03*
X3518000Y738000D02*
D03*
X3555000D02*
D03*
X3450000Y774000D02*
D03*
X3416000Y644000D02*
D03*
X3458000D02*
D03*
X3365000Y279000D02*
D03*
X3416000Y686000D02*
D03*
X3458000D02*
D03*
X2765000Y401000D02*
D03*
X2683000Y245000D02*
D03*
X3017000D02*
D03*
X2695000Y530000D02*
D03*
X2893000Y738000D02*
D03*
X2930000D02*
D03*
X2825000Y774000D02*
D03*
X2791000Y644000D02*
D03*
X2833000D02*
D03*
X2740000Y279000D02*
D03*
X2791000Y686000D02*
D03*
X2833000D02*
D03*
X1583000D02*
D03*
X1541000D02*
D03*
X1490000Y279000D02*
D03*
X1583000Y644000D02*
D03*
X1541000D02*
D03*
X1575000Y774000D02*
D03*
X1680000Y738000D02*
D03*
X1643000D02*
D03*
X1445000Y530000D02*
D03*
X1767000Y245000D02*
D03*
X1433000D02*
D03*
X1515000Y401000D02*
D03*
X2140000D02*
D03*
X2058000Y245000D02*
D03*
X2392000D02*
D03*
X2070000Y530000D02*
D03*
X2268000Y738000D02*
D03*
X2305000D02*
D03*
X2166000Y644000D02*
D03*
X2208000D02*
D03*
X2115000Y279000D02*
D03*
X2166000Y686000D02*
D03*
X2208000D02*
D03*
X4053000Y920000D02*
D03*
X846000Y887000D02*
D03*
X928000Y920000D02*
D03*
X862000Y1207000D02*
D03*
X908000D02*
D03*
X865000Y1143000D02*
D03*
X905000D02*
D03*
X865000Y967000D02*
D03*
X905000D02*
D03*
X4655000D02*
D03*
X4615000D02*
D03*
X4655000Y1143000D02*
D03*
X4615000D02*
D03*
X4658000Y1207000D02*
D03*
X4612000D02*
D03*
X4678000Y920000D02*
D03*
X4596000Y887000D02*
D03*
X5280000Y967000D02*
D03*
X5240000D02*
D03*
X5280000Y1143000D02*
D03*
X5240000D02*
D03*
X5283000Y1207000D02*
D03*
X5237000D02*
D03*
X4030000Y967000D02*
D03*
X3990000D02*
D03*
X4030000Y1143000D02*
D03*
X3990000D02*
D03*
X4033000Y1207000D02*
D03*
X3987000D02*
D03*
X3971000Y887000D02*
D03*
X3405000Y967000D02*
D03*
X3365000D02*
D03*
X3405000Y1143000D02*
D03*
X3365000D02*
D03*
X3408000Y1207000D02*
D03*
X3362000D02*
D03*
X3428000Y920000D02*
D03*
X3346000Y887000D02*
D03*
X2780000Y967000D02*
D03*
X2740000D02*
D03*
X2780000Y1143000D02*
D03*
X2740000D02*
D03*
X2783000Y1207000D02*
D03*
X2737000D02*
D03*
X2803000Y920000D02*
D03*
X2721000Y887000D02*
D03*
X2096000D02*
D03*
X2178000Y920000D02*
D03*
X2112000Y1207000D02*
D03*
X2158000D02*
D03*
X2115000Y1143000D02*
D03*
X2155000D02*
D03*
X2115000Y967000D02*
D03*
X2155000D02*
D03*
X1530000Y1143000D02*
D03*
X1490000D02*
D03*
Y967000D02*
D03*
X1530000D02*
D03*
X1471000Y887000D02*
D03*
X1553000Y920000D02*
D03*
X1487000Y1207000D02*
D03*
X1533000D02*
D03*
X11730000Y1700000D02*
D03*
Y950000D02*
D03*
X12375000Y7400000D02*
D03*
Y6910000D02*
D03*
X11950000Y6900000D02*
D03*
X12375000Y7160000D02*
D03*
X11950000Y7165000D02*
D03*
X11945000Y7400000D02*
D03*
X11555000Y7170000D02*
D03*
Y7400000D02*
D03*
X12425000Y4255000D02*
D03*
X12165000Y4785000D02*
D03*
X12425000Y5110000D02*
D03*
Y5935000D02*
D03*
X12185000Y5605000D02*
D03*
X12210000Y6322913D02*
D03*
X10778000Y340000D02*
D03*
X4693386Y4828386D02*
D03*
Y4871693D02*
D03*
Y4915000D02*
D03*
Y4958307D02*
D03*
Y5001614D02*
D03*
X4736693Y4828386D02*
D03*
Y4871693D02*
D03*
Y4915000D02*
D03*
Y4958307D02*
D03*
Y5001614D02*
D03*
X4780000Y4828386D02*
D03*
Y4871693D02*
D03*
Y4915000D02*
D03*
Y4958307D02*
D03*
Y5001614D02*
D03*
X4823307Y4828386D02*
D03*
Y4871693D02*
D03*
Y4915000D02*
D03*
Y4958307D02*
D03*
Y5001614D02*
D03*
X4866614Y4828386D02*
D03*
Y4871693D02*
D03*
Y4915000D02*
D03*
Y4958307D02*
D03*
Y5001614D02*
D03*
D331*
X3939370Y2535039D02*
D03*
X4021370D02*
D03*
X3978370Y2476039D02*
D03*
D332*
X11004171Y5853359D02*
D03*
X10915440D02*
D03*
X10740526D02*
D03*
X11027793Y5869689D02*
D03*
Y5912793D02*
D03*
X11004171Y5678973D02*
D03*
X10915440Y5711633D02*
D03*
X10740526D02*
D03*
X11027793Y5695303D02*
D03*
Y5740303D02*
D03*
X11004171Y5638859D02*
D03*
Y5808859D02*
D03*
D333*
X7976037Y6751491D02*
D03*
D334*
X11838000Y4562000D02*
D03*
D335*
X9593469Y5069299D02*
D03*
X9550162D02*
D03*
X9593469Y5112606D02*
D03*
X9550162D02*
D03*
X8858469Y5069299D02*
D03*
X8815162D02*
D03*
X8858469Y5112606D02*
D03*
X8815162D02*
D03*
X8886654Y6078346D02*
D03*
Y6121654D02*
D03*
X8843346Y6078346D02*
D03*
Y6121654D02*
D03*
X10291693Y6623779D02*
D03*
Y6580472D02*
D03*
Y6537165D02*
D03*
X10335000Y6623779D02*
D03*
Y6580472D02*
D03*
Y6537165D02*
D03*
X10378307Y6623779D02*
D03*
Y6580472D02*
D03*
Y6537165D02*
D03*
X3251614Y2556614D02*
D03*
Y2513307D02*
D03*
Y2470000D02*
D03*
Y2426693D02*
D03*
Y2383386D02*
D03*
X3208307Y2556614D02*
D03*
Y2513307D02*
D03*
Y2470000D02*
D03*
Y2426693D02*
D03*
Y2383386D02*
D03*
X3165000Y2556614D02*
D03*
Y2513307D02*
D03*
Y2470000D02*
D03*
Y2426693D02*
D03*
Y2383386D02*
D03*
X3121693Y2556614D02*
D03*
Y2513307D02*
D03*
Y2470000D02*
D03*
Y2426693D02*
D03*
Y2383386D02*
D03*
X3078386Y2556614D02*
D03*
Y2513307D02*
D03*
Y2470000D02*
D03*
Y2426693D02*
D03*
Y2383386D02*
D03*
X2140433Y6415000D02*
D03*
X2069567D02*
D03*
X2105000Y6435669D02*
D03*
Y6394331D02*
D03*
X1545433Y6415000D02*
D03*
X1474567D02*
D03*
X1510000Y6435669D02*
D03*
Y6394331D02*
D03*
X5789685Y1979685D02*
D03*
X5750315D02*
D03*
X5789685Y1940315D02*
D03*
X5750315D02*
D03*
%TF.MD5,0d02253c06afb1b4afd667c23d3992c0*%
M02*
