G04*
G04 #@! TF.GenerationSoftware,Altium Limited,Altium Designer,22.7.1 (60)*
G04*
G04 Layer_Color=32896*
%FSLAX24Y24*%
%MOIN*%
G70*
G04*
G04 #@! TF.SameCoordinates,6B1DEC42-A22B-484D-B378-F803C718722A*
G04*
G04*
G04 #@! TF.FilePolarity,Positive*
G04*
G01*
G75*
%ADD15C,0.0059*%
%ADD18C,0.0079*%
D15*
X67693Y4340D02*
X68007D01*
Y4970D01*
X67693D02*
X68007D01*
X67693Y4340D02*
Y4970D01*
Y5290D02*
X68007D01*
Y5920D01*
X67693D02*
X68007D01*
X67693Y5290D02*
Y5920D01*
Y6240D02*
X68007D01*
Y6870D01*
X67693D02*
X68007D01*
X67693Y6240D02*
Y6870D01*
X93833Y61600D02*
X94463D01*
X93833D02*
Y61915D01*
X94463D01*
Y61600D02*
Y61915D01*
X81343Y6240D02*
Y6870D01*
X81657D01*
Y6240D02*
Y6870D01*
X81343Y6240D02*
X81657D01*
X81343Y5290D02*
Y5920D01*
X81657D01*
Y5290D02*
Y5920D01*
X81343Y5290D02*
X81657D01*
X81343Y4340D02*
Y4970D01*
X81657D01*
Y4340D02*
Y4970D01*
X81343Y4340D02*
X81657D01*
X69643D02*
Y4970D01*
X69957D01*
Y4340D02*
Y4970D01*
X69643Y4340D02*
X69957D01*
X69643Y5290D02*
Y5920D01*
X69957D01*
Y5290D02*
Y5920D01*
X69643Y5290D02*
X69957D01*
X71593Y4340D02*
Y4970D01*
X71907D01*
Y4340D02*
Y4970D01*
X71593Y4340D02*
X71907D01*
X71593Y5290D02*
Y5920D01*
X71907D01*
Y5290D02*
Y5920D01*
X71593Y5290D02*
X71907D01*
X71593Y6240D02*
Y6870D01*
X71907D01*
Y6240D02*
Y6870D01*
X71593Y6240D02*
X71907D01*
X69643D02*
Y6870D01*
X69957D01*
Y6240D02*
Y6870D01*
X69643Y6240D02*
X69957D01*
X75493Y4340D02*
Y4970D01*
X75807D01*
Y4340D02*
Y4970D01*
X75493Y4340D02*
X75807D01*
X73543D02*
Y4970D01*
X73857D01*
Y4340D02*
Y4970D01*
X73543Y4340D02*
X73857D01*
X73543Y5290D02*
Y5920D01*
X73857D01*
Y5290D02*
Y5920D01*
X73543Y5290D02*
X73857D01*
X75493D02*
Y5920D01*
X75807D01*
Y5290D02*
Y5920D01*
X75493Y5290D02*
X75807D01*
X75493Y6240D02*
Y6870D01*
X75807D01*
Y6240D02*
Y6870D01*
X75493Y6240D02*
X75807D01*
X73543D02*
Y6870D01*
X73857D01*
Y6240D02*
Y6870D01*
X73543Y6240D02*
X73857D01*
X65743Y4340D02*
Y4970D01*
X66057D01*
Y4340D02*
Y4970D01*
X65743Y4340D02*
X66057D01*
X65743Y6240D02*
Y6870D01*
X66057D01*
Y6240D02*
Y6870D01*
X65743Y6240D02*
X66057D01*
X65743Y5290D02*
Y5920D01*
X66057D01*
Y5290D02*
Y5920D01*
X65743Y5290D02*
X66057D01*
X77443Y4340D02*
Y4970D01*
X77757D01*
Y4340D02*
Y4970D01*
X77443Y4340D02*
X77757D01*
X77443Y5290D02*
Y5920D01*
X77757D01*
Y5290D02*
Y5920D01*
X77443Y5290D02*
X77757D01*
X77443Y6240D02*
Y6870D01*
X77757D01*
Y6240D02*
Y6870D01*
X77443Y6240D02*
X77757D01*
X79393D02*
Y6870D01*
X79707D01*
Y6240D02*
Y6870D01*
X79393Y6240D02*
X79707D01*
X79393Y5290D02*
Y5920D01*
X79707D01*
Y5290D02*
Y5920D01*
X79393Y5290D02*
X79707D01*
X79393Y4340D02*
Y4970D01*
X79707D01*
Y4340D02*
Y4970D01*
X79393Y4340D02*
X79707D01*
X100251Y5007D02*
Y5322D01*
Y5007D02*
X100881D01*
Y5322D01*
X100251D02*
X100881D01*
X63365Y54367D02*
Y54682D01*
X62735Y54367D02*
X63365D01*
X62735D02*
Y54682D01*
X63365D01*
X41393Y51185D02*
X41707D01*
X41393D02*
Y51815D01*
X41707D01*
Y51185D02*
Y51815D01*
X18652Y25328D02*
X19282D01*
Y25643D01*
X18652D02*
X19282D01*
X18652Y25328D02*
Y25643D01*
X107743Y32515D02*
X108057D01*
Y31885D02*
Y32515D01*
X107743Y31885D02*
X108057D01*
X107743D02*
Y32515D01*
Y12135D02*
Y12765D01*
Y12135D02*
X108057D01*
Y12765D01*
X107743D02*
X108057D01*
X98140Y34310D02*
Y35590D01*
X96860Y34310D02*
X98140D01*
X96860D02*
Y35590D01*
X98140D01*
X45376Y1630D02*
X49124D01*
Y-5240D02*
Y1630D01*
X45376Y-5240D02*
X49124D01*
X45376D02*
Y1630D01*
X45222Y-240D02*
X49278D01*
X51626Y1630D02*
X55374D01*
Y-5240D02*
Y1630D01*
X51626Y-5240D02*
X55374D01*
X51626D02*
Y1630D01*
X51472Y-240D02*
X55528D01*
X27243Y46585D02*
Y47215D01*
Y46585D02*
X27557D01*
Y47215D01*
X27243D02*
X27557D01*
X44543Y43615D02*
X44857D01*
X44543Y42985D02*
Y43615D01*
Y42985D02*
X44857D01*
Y43615D01*
X50993Y55535D02*
Y56165D01*
X51307D01*
Y55535D02*
Y56165D01*
X50993Y55535D02*
X51307D01*
X22393Y64652D02*
Y65282D01*
X22707D01*
Y64652D02*
Y65282D01*
X22393Y64652D02*
X22707D01*
X16443D02*
Y65282D01*
X16757D01*
Y64652D02*
Y65282D01*
X16443Y64652D02*
X16757D01*
X52893Y51385D02*
Y52015D01*
Y51385D02*
X53207D01*
Y52015D01*
X52893D02*
X53207D01*
X53685Y47943D02*
X54315D01*
Y48257D01*
X53685D02*
X54315D01*
X53685Y47943D02*
Y48257D01*
X41235Y44457D02*
X41865D01*
X41235Y44143D02*
Y44457D01*
Y44143D02*
X41865D01*
Y44457D01*
X10635Y37557D02*
X11265D01*
X10635Y37243D02*
Y37557D01*
Y37243D02*
X11265D01*
Y37557D01*
X35185Y37007D02*
X35815D01*
X35185Y36693D02*
Y37007D01*
Y36693D02*
X35815D01*
Y37007D01*
X107126Y1630D02*
X110874D01*
Y-5240D02*
Y1630D01*
X107126Y-5240D02*
X110874D01*
X107126D02*
Y1630D01*
X106972Y-240D02*
X111028D01*
X44857Y41085D02*
Y41715D01*
X44543Y41085D02*
X44857D01*
X44543D02*
Y41715D01*
X44857D01*
Y42035D02*
Y42665D01*
X44543Y42035D02*
X44857D01*
X44543D02*
Y42665D01*
X44857D01*
X38972Y-240D02*
X43028D01*
X39126Y-5240D02*
Y1630D01*
Y-5240D02*
X42874D01*
Y1630D01*
X39126D02*
X42874D01*
X32722Y-240D02*
X36778D01*
X32876Y-5240D02*
Y1630D01*
Y-5240D02*
X36624D01*
Y1630D01*
X32876D02*
X36624D01*
X26472Y-240D02*
X30528D01*
X26626Y-5240D02*
Y1630D01*
Y-5240D02*
X30374D01*
Y1630D01*
X26626D02*
X30374D01*
X20222Y-240D02*
X24278D01*
X20376Y-5240D02*
Y1630D01*
Y-5240D02*
X24124D01*
Y1630D01*
X20376D02*
X24124D01*
X13972Y-240D02*
X18028D01*
X14126Y-5240D02*
Y1630D01*
Y-5240D02*
X17874D01*
Y1630D01*
X14126D02*
X17874D01*
X7722Y-240D02*
X11778D01*
X7876Y-5240D02*
Y1630D01*
Y-5240D02*
X11624D01*
Y1630D01*
X7876D02*
X11624D01*
X86323Y71854D02*
X91677D01*
Y66146D02*
Y71854D01*
X86323Y66146D02*
X91677D01*
X86323D02*
Y71854D01*
X92053Y65168D02*
X92447D01*
X92053Y64932D02*
Y65168D01*
Y64932D02*
X92447D01*
Y65168D01*
X93093Y67285D02*
X93407D01*
Y67915D01*
X93093D02*
X93407D01*
X93093Y67285D02*
Y67915D01*
X50285Y53193D02*
Y53507D01*
Y53193D02*
X50915D01*
Y53507D01*
X50285D02*
X50915D01*
X49735Y55757D02*
X50365D01*
Y55443D02*
Y55757D01*
X49735Y55443D02*
X50365D01*
X49735D02*
Y55757D01*
X48793Y55535D02*
X49107D01*
Y56165D01*
X48793D02*
X49107D01*
X48793Y55535D02*
Y56165D01*
D18*
X96750Y32856D02*
X97950D01*
X96750D02*
Y33544D01*
X97950D01*
Y32856D02*
Y33544D01*
X122361Y64186D02*
Y67414D01*
X125039D01*
Y64186D02*
Y67414D01*
X122361Y64186D02*
X125039D01*
X124763Y64009D02*
Y67591D01*
M02*
