G04*
G04 #@! TF.GenerationSoftware,Altium Limited,Altium Designer,22.7.1 (60)*
G04*
G04 Layer_Color=32768*
%FSLAX24Y24*%
%MOIN*%
G70*
G04*
G04 #@! TF.SameCoordinates,7C93F560-B747-4E79-9DF0-8179935B0740*
G04*
G04*
G04 #@! TF.FilePolarity,Positive*
G04*
G01*
G75*
%ADD18C,0.0079*%
D18*
X21300Y44205D02*
G03*
X21300Y45595I0J695D01*
G01*
D02*
G03*
X21300Y44205I0J-695D01*
G01*
X103505Y27250D02*
G03*
X104895Y27250I695J0D01*
G01*
D02*
G03*
X103505Y27250I-695J0D01*
G01*
X17505Y22300D02*
G03*
X18895Y22300I695J0D01*
G01*
D02*
G03*
X17505Y22300I-695J0D01*
G01*
X52505Y18500D02*
G03*
X53895Y18500I695J0D01*
G01*
D02*
G03*
X52505Y18500I-695J0D01*
G01*
X34395Y36700D02*
G03*
X33005Y36700I-695J0D01*
G01*
D02*
G03*
X34395Y36700I695J0D01*
G01*
X13645Y37000D02*
G03*
X12255Y37000I-695J0D01*
G01*
D02*
G03*
X13645Y37000I695J0D01*
G01*
X48495Y42700D02*
G03*
X47105Y42700I-695J0D01*
G01*
D02*
G03*
X48495Y42700I695J0D01*
G01*
X86305Y22950D02*
G03*
X87695Y22950I695J0D01*
G01*
D02*
G03*
X86305Y22950I-695J0D01*
G01*
X43495Y29800D02*
G03*
X42105Y29800I-695J0D01*
G01*
D02*
G03*
X43495Y29800I695J0D01*
G01*
X12600Y51105D02*
G03*
X12600Y52495I0J695D01*
G01*
D02*
G03*
X12600Y51105I0J-695D01*
G01*
X21250Y52655D02*
G03*
X21250Y54045I0J695D01*
G01*
D02*
G03*
X21250Y52655I0J-695D01*
G01*
X24250Y44705D02*
G03*
X24250Y46095I0J695D01*
G01*
D02*
G03*
X24250Y44705I0J-695D01*
G01*
X17500Y47905D02*
G03*
X17500Y49295I0J695D01*
G01*
D02*
G03*
X17500Y47905I0J-695D01*
G01*
X21500Y26102D02*
Y26575D01*
Y26102D02*
X22287D01*
Y26575D01*
X21500D02*
X22287D01*
X21656Y48064D02*
Y48536D01*
Y48064D02*
X22444D01*
Y48536D01*
X21656D02*
X22444D01*
X21906Y50814D02*
Y51286D01*
Y50814D02*
X22694D01*
Y51286D01*
X21906D02*
X22694D01*
X34825Y26667D02*
Y27733D01*
X35475D01*
Y26667D02*
Y27733D01*
X34825Y26667D02*
X35475D01*
X118636Y45463D02*
X119364D01*
X118636D02*
Y45778D01*
X119364D01*
Y45463D02*
Y45778D01*
X22420Y63122D02*
Y63418D01*
X21840D02*
X22420D01*
X21840Y63122D02*
Y63418D01*
Y63122D02*
X22420D01*
X27993Y25093D02*
X28307D01*
Y25722D01*
X27993D02*
X28307D01*
X27993Y25093D02*
Y25722D01*
X42866Y61913D02*
Y62992D01*
Y61913D02*
X45834D01*
Y62992D01*
X42866D02*
X45834D01*
X14824Y65640D02*
X15120D01*
X14824Y65060D02*
Y65640D01*
Y65060D02*
X15120D01*
Y65640D01*
X20774D02*
X21070D01*
X20774Y65060D02*
Y65640D01*
Y65060D02*
X21070D01*
Y65640D01*
X13929Y63083D02*
Y63662D01*
X14224D01*
Y63083D02*
Y63662D01*
X13929Y63083D02*
X14224D01*
X19878D02*
X20174D01*
Y63662D01*
X19878D02*
X20174D01*
X19878Y63083D02*
Y63662D01*
X16470Y63122D02*
Y63418D01*
X15890D02*
X16470D01*
X15890Y63122D02*
Y63418D01*
Y63122D02*
X16470D01*
X98006Y36764D02*
Y37236D01*
Y36764D02*
X98794D01*
Y37236D01*
X98006D02*
X98794D01*
X109606Y36536D02*
X110394D01*
Y36064D02*
Y36536D01*
X109606Y36064D02*
X110394D01*
X109606D02*
Y36536D01*
X98006Y23764D02*
X98794D01*
X98006D02*
Y24236D01*
X98794D01*
Y23764D02*
Y24236D01*
X109606Y23764D02*
X110394D01*
X109606D02*
Y24236D01*
X110394D01*
Y23764D02*
Y24236D01*
X109606Y16264D02*
Y16736D01*
Y16264D02*
X110394D01*
Y16736D01*
X109606D02*
X110394D01*
X98006D02*
X98794D01*
Y16264D02*
Y16736D01*
X98006Y16264D02*
X98794D01*
X98006D02*
Y16736D01*
X54827Y19239D02*
X55614D01*
X54827D02*
Y19711D01*
X55614D01*
Y19239D02*
Y19711D01*
X33306Y35586D02*
X34094D01*
Y35114D02*
Y35586D01*
X33306Y35114D02*
X34094D01*
X33306D02*
Y35586D01*
X13056Y38686D02*
X13844D01*
Y38214D02*
Y38686D01*
X13056Y38214D02*
X13844D01*
X13056D02*
Y38686D01*
X109606Y30571D02*
Y31043D01*
Y30571D02*
X110394D01*
Y31043D01*
X109606D02*
X110394D01*
X98006Y30571D02*
Y31043D01*
Y30571D02*
X98794D01*
Y31043D01*
X98006D02*
X98794D01*
X43456Y45036D02*
X44244D01*
Y44564D02*
Y45036D01*
X43456Y44564D02*
X44244D01*
X43456D02*
Y45036D01*
X51356Y47686D02*
X52144D01*
Y47214D02*
Y47686D01*
X51356Y47214D02*
X52144D01*
X51356D02*
Y47686D01*
X42156Y50636D02*
X42944D01*
Y50164D02*
Y50636D01*
X42156Y50164D02*
X42944D01*
X42156D02*
Y50636D01*
X51606Y54664D02*
Y55136D01*
Y54664D02*
X52394D01*
Y55136D01*
X51606D02*
X52394D01*
X59945Y52832D02*
Y53305D01*
Y52832D02*
X60732D01*
Y53305D01*
X59945D02*
X60732D01*
X84706Y27814D02*
Y28286D01*
Y27814D02*
X85494D01*
Y28286D01*
X84706D02*
X85494D01*
X19706Y45964D02*
Y46436D01*
Y45964D02*
X20494D01*
Y46436D01*
X19706D02*
X20494D01*
X20856Y45864D02*
Y46336D01*
Y45864D02*
X21644D01*
Y46336D01*
X20856D02*
X21644D01*
X20806Y51564D02*
Y52036D01*
Y51564D02*
X21594D01*
Y52036D01*
X20806D02*
X21594D01*
X17306Y49664D02*
Y50136D01*
Y49664D02*
X18094D01*
Y50136D01*
X17306D02*
X18094D01*
X19524Y51914D02*
Y52386D01*
Y51914D02*
X20312D01*
Y52386D01*
X19524D02*
X20312D01*
X14106Y51564D02*
Y52036D01*
Y51564D02*
X14894D01*
Y52036D01*
X14106D02*
X14894D01*
X22156Y52114D02*
Y52586D01*
Y52114D02*
X22944D01*
Y52586D01*
X22156D02*
X22944D01*
X22206Y45564D02*
Y46036D01*
Y45564D02*
X22994D01*
Y46036D01*
X22206D02*
X22994D01*
M02*
