G04*
G04 #@! TF.GenerationSoftware,Altium Limited,Altium Designer,22.10.1 (41)*
G04*
G04 Layer_Color=16711935*
%FSLAX25Y25*%
%MOIN*%
G70*
G04*
G04 #@! TF.SameCoordinates,72A4C529-D447-4618-9FEB-1D22E0D21F89*
G04*
G04*
G04 #@! TF.FilePolarity,Negative*
G04*
G01*
G75*
%ADD36R,0.02600X0.00900*%
%ADD98R,0.03543X0.02953*%
%ADD107R,0.02953X0.03543*%
%ADD118R,0.06299X0.19291*%
%ADD130R,0.03950X0.04540*%
%ADD133R,0.03556X0.04343*%
%ADD134R,0.02965X0.02572*%
%ADD136R,0.03162X0.02965*%
%ADD153R,0.03123X0.03241*%
%ADD157O,0.05787X0.01654*%
G04:AMPARAMS|DCode=159|XSize=29.65mil|YSize=39.5mil|CornerRadius=5.95mil|HoleSize=0mil|Usage=FLASHONLY|Rotation=90.000|XOffset=0mil|YOffset=0mil|HoleType=Round|Shape=RoundedRectangle|*
%AMROUNDEDRECTD159*
21,1,0.02965,0.02760,0,0,90.0*
21,1,0.01776,0.03950,0,0,90.0*
1,1,0.01190,0.01380,0.00888*
1,1,0.01190,0.01380,-0.00888*
1,1,0.01190,-0.01380,-0.00888*
1,1,0.01190,-0.01380,0.00888*
%
%ADD159ROUNDEDRECTD159*%
%ADD163R,0.04343X0.03556*%
%ADD166R,0.03241X0.03398*%
%ADD167R,0.04737X0.04934*%
%ADD170R,0.04540X0.03950*%
%ADD171R,0.05328X0.06312*%
%ADD172R,0.03753X0.04501*%
%ADD173R,0.03398X0.03241*%
%ADD174R,0.06312X0.05328*%
%ADD179R,0.03241X0.03123*%
%ADD182R,0.05721X0.03162*%
%ADD185C,0.02965*%
%ADD186C,0.10800*%
G04:AMPARAMS|DCode=187|XSize=45.28mil|YSize=70.87mil|CornerRadius=22.64mil|HoleSize=0mil|Usage=FLASHONLY|Rotation=90.000|XOffset=0mil|YOffset=0mil|HoleType=Round|Shape=RoundedRectangle|*
%AMROUNDEDRECTD187*
21,1,0.04528,0.02559,0,0,90.0*
21,1,0.00000,0.07087,0,0,90.0*
1,1,0.04528,0.01280,0.00000*
1,1,0.04528,0.01280,0.00000*
1,1,0.04528,-0.01280,0.00000*
1,1,0.04528,-0.01280,0.00000*
%
%ADD187ROUNDEDRECTD187*%
G04:AMPARAMS|DCode=188|XSize=57.09mil|YSize=78.74mil|CornerRadius=28.54mil|HoleSize=0mil|Usage=FLASHONLY|Rotation=90.000|XOffset=0mil|YOffset=0mil|HoleType=Round|Shape=RoundedRectangle|*
%AMROUNDEDRECTD188*
21,1,0.05709,0.02165,0,0,90.0*
21,1,0.00000,0.07874,0,0,90.0*
1,1,0.05709,0.01083,0.00000*
1,1,0.05709,0.01083,0.00000*
1,1,0.05709,-0.01083,0.00000*
1,1,0.05709,-0.01083,0.00000*
%
%ADD188ROUNDEDRECTD188*%
%ADD189C,0.03150*%
%ADD190R,0.07296X0.07296*%
%ADD191C,0.07296*%
%ADD192C,0.02800*%
%ADD193C,0.30800*%
%ADD194C,0.06800*%
%ADD195C,0.08674*%
%ADD196C,0.11800*%
%ADD197C,0.03800*%
%ADD198R,0.07591X0.07591*%
%ADD199C,0.05469*%
%ADD200R,0.05469X0.05469*%
%ADD201C,0.09646*%
%ADD202C,0.06300*%
%ADD203C,0.09100*%
%ADD204C,0.06312*%
G04:AMPARAMS|DCode=205|XSize=63.12mil|YSize=63.12mil|CornerRadius=17.78mil|HoleSize=0mil|Usage=FLASHONLY|Rotation=270.000|XOffset=0mil|YOffset=0mil|HoleType=Round|Shape=RoundedRectangle|*
%AMROUNDEDRECTD205*
21,1,0.06312,0.02756,0,0,270.0*
21,1,0.02756,0.06312,0,0,270.0*
1,1,0.03556,-0.01378,-0.01378*
1,1,0.03556,-0.01378,0.01378*
1,1,0.03556,0.01378,0.01378*
1,1,0.03556,0.01378,-0.01378*
%
%ADD205ROUNDEDRECTD205*%
%ADD206C,0.06784*%
%ADD207C,0.10249*%
%ADD208C,0.13202*%
%ADD209C,0.16200*%
%ADD210C,0.05500*%
%ADD211C,0.03654*%
G04:AMPARAMS|DCode=212|XSize=70.99mil|YSize=128.08mil|CornerRadius=19.75mil|HoleSize=0mil|Usage=FLASHONLY|Rotation=90.000|XOffset=0mil|YOffset=0mil|HoleType=Round|Shape=RoundedRectangle|*
%AMROUNDEDRECTD212*
21,1,0.07099,0.08858,0,0,90.0*
21,1,0.03150,0.12808,0,0,90.0*
1,1,0.03950,0.04429,0.01575*
1,1,0.03950,0.04429,-0.01575*
1,1,0.03950,-0.04429,-0.01575*
1,1,0.03950,-0.04429,0.01575*
%
%ADD212ROUNDEDRECTD212*%
%ADD213C,0.03300*%
%ADD214C,0.02769*%
%ADD215C,0.04800*%
%ADD216C,0.02700*%
%ADD217C,0.03556*%
G04:AMPARAMS|DCode=286|XSize=43.31mil|YSize=23.62mil|CornerRadius=2.01mil|HoleSize=0mil|Usage=FLASHONLY|Rotation=90.000|XOffset=0mil|YOffset=0mil|HoleType=Round|Shape=RoundedRectangle|*
%AMROUNDEDRECTD286*
21,1,0.04331,0.01961,0,0,90.0*
21,1,0.03929,0.02362,0,0,90.0*
1,1,0.00402,0.00980,0.01965*
1,1,0.00402,0.00980,-0.01965*
1,1,0.00402,-0.00980,-0.01965*
1,1,0.00402,-0.00980,0.01965*
%
%ADD286ROUNDEDRECTD286*%
%ADD291R,0.01500X0.01400*%
%ADD294R,0.09000X0.02400*%
%ADD297R,0.12800X0.07500*%
%ADD298R,0.10000X0.06100*%
%ADD301R,0.05315X0.01575*%
%ADD318R,0.01181X0.03562*%
%ADD319R,0.03562X0.01181*%
%ADD320R,0.10236X0.10236*%
%ADD327R,0.02365X0.04375*%
%ADD329R,0.00900X0.02600*%
%ADD339R,0.13819X0.13622*%
%ADD340R,0.12894X0.12674*%
%ADD341R,0.07690X0.15367*%
%ADD342R,0.09265X0.03556*%
%ADD343R,0.09265X0.13398*%
%ADD344R,0.15367X0.07690*%
%ADD345R,0.04343X0.04934*%
%ADD346R,0.05131X0.05131*%
%ADD347R,0.03359X0.02965*%
%ADD348R,0.04540X0.03753*%
%ADD349R,0.04500X0.03600*%
%ADD350R,0.04737X0.02769*%
%ADD351R,0.02217X0.01784*%
%ADD352R,0.09461X0.04934*%
%ADD353R,0.33477X0.42532*%
%ADD354R,0.02965X0.02178*%
%ADD355R,0.07178X0.10170*%
G04:AMPARAMS|DCode=356|XSize=19.81mil|YSize=61.15mil|CornerRadius=5.95mil|HoleSize=0mil|Usage=FLASHONLY|Rotation=90.000|XOffset=0mil|YOffset=0mil|HoleType=Round|Shape=RoundedRectangle|*
%AMROUNDEDRECTD356*
21,1,0.01981,0.04925,0,0,90.0*
21,1,0.00791,0.06115,0,0,90.0*
1,1,0.01190,0.02463,0.00396*
1,1,0.01190,0.02463,-0.00396*
1,1,0.01190,-0.02463,-0.00396*
1,1,0.01190,-0.02463,0.00396*
%
%ADD356ROUNDEDRECTD356*%
%ADD357R,0.10642X0.10642*%
%ADD358O,0.04540X0.01784*%
%ADD359O,0.01784X0.04540*%
%ADD360R,0.13398X0.13398*%
%ADD361R,0.02572X0.01981*%
%ADD362R,0.01981X0.02572*%
%ADD363R,0.02375X0.02965*%
G04:AMPARAMS|DCode=364|XSize=31.62mil|YSize=90.68mil|CornerRadius=6.01mil|HoleSize=0mil|Usage=FLASHONLY|Rotation=90.000|XOffset=0mil|YOffset=0mil|HoleType=Round|Shape=RoundedRectangle|*
%AMROUNDEDRECTD364*
21,1,0.03162,0.07866,0,0,90.0*
21,1,0.01961,0.09068,0,0,90.0*
1,1,0.01202,0.03933,0.00980*
1,1,0.01202,0.03933,-0.00980*
1,1,0.01202,-0.03933,-0.00980*
1,1,0.01202,-0.03933,0.00980*
%
%ADD364ROUNDEDRECTD364*%
G04:AMPARAMS|DCode=365|XSize=133.98mil|YSize=90.68mil|CornerRadius=6.07mil|HoleSize=0mil|Usage=FLASHONLY|Rotation=90.000|XOffset=0mil|YOffset=0mil|HoleType=Round|Shape=RoundedRectangle|*
%AMROUNDEDRECTD365*
21,1,0.13398,0.07854,0,0,90.0*
21,1,0.12185,0.09068,0,0,90.0*
1,1,0.01213,0.03927,0.06093*
1,1,0.01213,0.03927,-0.06093*
1,1,0.01213,-0.03927,-0.06093*
1,1,0.01213,-0.03927,0.06093*
%
%ADD365ROUNDEDRECTD365*%
G04:AMPARAMS|DCode=366|XSize=132.02mil|YSize=78.87mil|CornerRadius=6.13mil|HoleSize=0mil|Usage=FLASHONLY|Rotation=270.000|XOffset=0mil|YOffset=0mil|HoleType=Round|Shape=RoundedRectangle|*
%AMROUNDEDRECTD366*
21,1,0.13202,0.06661,0,0,270.0*
21,1,0.11976,0.07887,0,0,270.0*
1,1,0.01225,-0.03331,-0.05988*
1,1,0.01225,-0.03331,0.05988*
1,1,0.01225,0.03331,0.05988*
1,1,0.01225,0.03331,-0.05988*
%
%ADD366ROUNDEDRECTD366*%
G04:AMPARAMS|DCode=367|XSize=31.62mil|YSize=78.87mil|CornerRadius=6.01mil|HoleSize=0mil|Usage=FLASHONLY|Rotation=270.000|XOffset=0mil|YOffset=0mil|HoleType=Round|Shape=RoundedRectangle|*
%AMROUNDEDRECTD367*
21,1,0.03162,0.06685,0,0,270.0*
21,1,0.01961,0.07887,0,0,270.0*
1,1,0.01202,-0.03343,-0.00980*
1,1,0.01202,-0.03343,0.00980*
1,1,0.01202,0.03343,0.00980*
1,1,0.01202,0.03343,-0.00980*
%
%ADD367ROUNDEDRECTD367*%
%ADD368R,0.08600X0.03000*%
G04:AMPARAMS|DCode=369|XSize=31.62mil|YSize=65.09mil|CornerRadius=6.01mil|HoleSize=0mil|Usage=FLASHONLY|Rotation=270.000|XOffset=0mil|YOffset=0mil|HoleType=Round|Shape=RoundedRectangle|*
%AMROUNDEDRECTD369*
21,1,0.03162,0.05307,0,0,270.0*
21,1,0.01961,0.06509,0,0,270.0*
1,1,0.01202,-0.02653,-0.00980*
1,1,0.01202,-0.02653,0.00980*
1,1,0.01202,0.02653,0.00980*
1,1,0.01202,0.02653,-0.00980*
%
%ADD369ROUNDEDRECTD369*%
%ADD370R,0.02454X0.03241*%
%ADD371R,0.04737X0.05131*%
%ADD372R,0.07690X0.05328*%
%ADD373R,0.12611X0.07296*%
%ADD374R,0.03241X0.02454*%
%ADD375R,0.04383X0.06272*%
%ADD376R,0.02769X0.04737*%
%ADD377R,0.03600X0.04500*%
G36*
X327327Y257818D02*
X327369Y257776D01*
X327369Y235790D01*
X305678D01*
X305593Y257464D01*
X305946Y257818D01*
X327327Y257818D01*
D02*
G37*
D36*
X390250Y603968D02*
D03*
Y602000D02*
D03*
Y600032D02*
D03*
X383750D02*
D03*
Y602000D02*
D03*
Y603968D02*
D03*
D98*
X274000Y466638D02*
D03*
Y471362D02*
D03*
X415500Y512638D02*
D03*
Y517362D02*
D03*
X530500Y514638D02*
D03*
Y519362D02*
D03*
X1079000Y324362D02*
D03*
Y319638D02*
D03*
Y122138D02*
D03*
Y126862D02*
D03*
D107*
X192035Y254858D02*
D03*
X187311D02*
D03*
X352638Y368500D02*
D03*
X357362D02*
D03*
X107138Y374000D02*
D03*
X111862D02*
D03*
X413138Y443000D02*
D03*
X417862D02*
D03*
X542362Y481000D02*
D03*
X537638D02*
D03*
X632862Y545248D02*
D03*
X628138D02*
D03*
D118*
X1106732Y11576D02*
D03*
X1073268D02*
D03*
X80768D02*
D03*
X114232D02*
D03*
X143268D02*
D03*
X176732D02*
D03*
X205768D02*
D03*
X239232D02*
D03*
X268268D02*
D03*
X301732D02*
D03*
X330768D02*
D03*
X364232D02*
D03*
X393268D02*
D03*
X426732D02*
D03*
X489232D02*
D03*
X455768D02*
D03*
X551732D02*
D03*
X518268D02*
D03*
D130*
X576571Y608500D02*
D03*
X570075D02*
D03*
X593752D02*
D03*
X600248D02*
D03*
X652169D02*
D03*
X645673D02*
D03*
X639748D02*
D03*
X633252D02*
D03*
X453752Y483532D02*
D03*
X460248D02*
D03*
X502248Y482500D02*
D03*
X495752D02*
D03*
X502248Y492500D02*
D03*
X495752D02*
D03*
X502248Y498500D02*
D03*
X495752D02*
D03*
D133*
X442500Y606500D02*
D03*
X448012D02*
D03*
X442500Y586500D02*
D03*
X448012D02*
D03*
X1003744Y323000D02*
D03*
X1009256D02*
D03*
X1014244D02*
D03*
X1019756D02*
D03*
D134*
X353200Y202772D02*
D03*
Y199228D02*
D03*
X356700Y202772D02*
D03*
Y199228D02*
D03*
X700500Y658228D02*
D03*
Y661772D02*
D03*
D136*
X1080173Y198500D02*
D03*
X1076827D02*
D03*
X1080173Y202500D02*
D03*
X1076827D02*
D03*
X223000Y320858D02*
D03*
X226346D02*
D03*
X223000Y316858D02*
D03*
X226346D02*
D03*
X688673Y161000D02*
D03*
X685327D02*
D03*
X688673Y165000D02*
D03*
X685327D02*
D03*
X478327Y313000D02*
D03*
X481673D02*
D03*
X121673Y468500D02*
D03*
X118327D02*
D03*
X478327Y317000D02*
D03*
X481673D02*
D03*
X121673Y464500D02*
D03*
X118327D02*
D03*
X1019173Y661000D02*
D03*
X1015827D02*
D03*
X1028673Y674000D02*
D03*
X1025327D02*
D03*
X1080173Y331500D02*
D03*
X1076827D02*
D03*
X1080173Y134000D02*
D03*
X1076827D02*
D03*
X1080173Y335500D02*
D03*
X1076827D02*
D03*
X1080173Y138000D02*
D03*
X1076827D02*
D03*
X1036827Y332000D02*
D03*
X1040173D02*
D03*
X1036827Y336000D02*
D03*
X1040173D02*
D03*
D153*
X454791Y523000D02*
D03*
X451209D02*
D03*
X287791Y354500D02*
D03*
X284209D02*
D03*
X181291Y391253D02*
D03*
X177709D02*
D03*
X401209Y169500D02*
D03*
X404791D02*
D03*
X418209D02*
D03*
X421791D02*
D03*
X91791Y132000D02*
D03*
X88209D02*
D03*
X154291D02*
D03*
X150709D02*
D03*
X216791D02*
D03*
X213209D02*
D03*
X279291D02*
D03*
X275709D02*
D03*
X341791D02*
D03*
X338209D02*
D03*
X404291D02*
D03*
X400709D02*
D03*
X463209D02*
D03*
X466791D02*
D03*
X525709D02*
D03*
X529291D02*
D03*
X1068709Y324362D02*
D03*
X1072291D02*
D03*
X1068709Y126862D02*
D03*
X1072291D02*
D03*
X146791Y518500D02*
D03*
X143209D02*
D03*
D157*
X1078240Y582063D02*
D03*
Y584031D02*
D03*
Y586000D02*
D03*
Y587968D02*
D03*
Y589937D02*
D03*
X1095760Y582063D02*
D03*
Y584031D02*
D03*
Y586000D02*
D03*
Y587968D02*
D03*
Y589937D02*
D03*
X1078240Y565063D02*
D03*
Y567031D02*
D03*
Y569000D02*
D03*
Y570968D02*
D03*
Y572937D02*
D03*
X1095760Y565063D02*
D03*
Y567031D02*
D03*
Y569000D02*
D03*
Y570968D02*
D03*
Y572937D02*
D03*
D159*
X396480Y504260D02*
D03*
Y508000D02*
D03*
Y511740D02*
D03*
X406520D02*
D03*
Y504260D02*
D03*
X539480Y527740D02*
D03*
Y520260D02*
D03*
X549520D02*
D03*
Y524000D02*
D03*
Y527740D02*
D03*
D163*
X201673Y281602D02*
D03*
Y287114D02*
D03*
X344500Y341756D02*
D03*
Y336244D02*
D03*
X127000Y405756D02*
D03*
Y400244D02*
D03*
X619000Y516748D02*
D03*
Y522260D02*
D03*
X949500Y244244D02*
D03*
Y249756D02*
D03*
X935500Y271244D02*
D03*
Y276756D02*
D03*
X397000Y606756D02*
D03*
Y601244D02*
D03*
X371000Y599744D02*
D03*
Y605256D02*
D03*
X1029500Y346756D02*
D03*
Y341244D02*
D03*
X959000Y325756D02*
D03*
Y320244D02*
D03*
Y337256D02*
D03*
Y331744D02*
D03*
D166*
X224000Y676732D02*
D03*
Y673268D02*
D03*
X700500Y668732D02*
D03*
Y665268D02*
D03*
X566000Y200768D02*
D03*
Y204232D02*
D03*
X944500Y245268D02*
D03*
Y248732D02*
D03*
X1085000Y198768D02*
D03*
Y202232D02*
D03*
Y188732D02*
D03*
Y185268D02*
D03*
X1080000D02*
D03*
Y188732D02*
D03*
X217673Y320590D02*
D03*
Y317126D02*
D03*
X222673Y326626D02*
D03*
Y330090D02*
D03*
X217673Y326626D02*
D03*
Y330090D02*
D03*
X694000Y161268D02*
D03*
Y164732D02*
D03*
Y155232D02*
D03*
Y151768D02*
D03*
X689000Y155232D02*
D03*
Y151768D02*
D03*
X486500Y316732D02*
D03*
Y313268D02*
D03*
X113500Y464768D02*
D03*
Y468232D02*
D03*
X481500Y303768D02*
D03*
Y307232D02*
D03*
X486500Y303768D02*
D03*
Y307232D02*
D03*
X118500Y477732D02*
D03*
Y474268D02*
D03*
X113500Y477732D02*
D03*
Y474268D02*
D03*
X262500Y353232D02*
D03*
Y349768D02*
D03*
X259000Y353232D02*
D03*
Y349768D02*
D03*
X233500Y396332D02*
D03*
Y392868D02*
D03*
X230000D02*
D03*
Y396332D02*
D03*
X226500D02*
D03*
Y392868D02*
D03*
X223000Y396332D02*
D03*
Y392868D02*
D03*
X219500Y396332D02*
D03*
Y392868D02*
D03*
X104000Y82732D02*
D03*
Y79268D02*
D03*
X166500Y82732D02*
D03*
Y79268D02*
D03*
X229000Y82732D02*
D03*
Y79268D02*
D03*
X291500Y82732D02*
D03*
Y79268D02*
D03*
X354000Y82732D02*
D03*
Y79268D02*
D03*
X416500Y82732D02*
D03*
Y79268D02*
D03*
X479000D02*
D03*
Y82732D02*
D03*
X541500Y79268D02*
D03*
Y82732D02*
D03*
X99000D02*
D03*
Y79268D02*
D03*
X161500Y82732D02*
D03*
Y79268D02*
D03*
X224000Y82732D02*
D03*
Y79268D02*
D03*
X286500Y82732D02*
D03*
Y79268D02*
D03*
X349000Y82732D02*
D03*
Y79268D02*
D03*
X411500Y82732D02*
D03*
Y79268D02*
D03*
X474000D02*
D03*
Y82732D02*
D03*
X536500Y79268D02*
D03*
Y82732D02*
D03*
X1036500Y636268D02*
D03*
Y639732D02*
D03*
X1085000Y331768D02*
D03*
Y335232D02*
D03*
Y134268D02*
D03*
Y137732D02*
D03*
Y324232D02*
D03*
Y320768D02*
D03*
Y123268D02*
D03*
Y126732D02*
D03*
X995500Y330732D02*
D03*
Y327268D02*
D03*
X1032500Y332268D02*
D03*
Y335732D02*
D03*
X983000Y334732D02*
D03*
Y331268D02*
D03*
X962000Y361268D02*
D03*
Y364732D02*
D03*
X998000Y359232D02*
D03*
Y355768D02*
D03*
X96000Y673268D02*
D03*
Y676732D02*
D03*
X128000Y673268D02*
D03*
Y676732D02*
D03*
X160000Y673268D02*
D03*
Y676732D02*
D03*
X192000Y673268D02*
D03*
Y676732D02*
D03*
X160500Y513268D02*
D03*
Y516732D02*
D03*
X260500Y467268D02*
D03*
Y470732D02*
D03*
X954500Y522732D02*
D03*
Y519268D02*
D03*
X881000Y522732D02*
D03*
Y519268D02*
D03*
D167*
X198500Y391647D02*
D03*
Y397553D02*
D03*
X339000Y227547D02*
D03*
Y233453D02*
D03*
X289000Y265047D02*
D03*
Y270953D02*
D03*
X294500Y265047D02*
D03*
Y270953D02*
D03*
X283500Y265047D02*
D03*
Y270953D02*
D03*
X344500Y227547D02*
D03*
Y233453D02*
D03*
X267000Y348547D02*
D03*
Y354453D02*
D03*
X272500Y348547D02*
D03*
Y354453D02*
D03*
X193000Y397553D02*
D03*
Y391647D02*
D03*
X215000Y397553D02*
D03*
Y391647D02*
D03*
X209500Y397553D02*
D03*
Y391647D02*
D03*
X204000D02*
D03*
Y397553D02*
D03*
D170*
X967000Y359752D02*
D03*
Y366248D02*
D03*
X194173Y281106D02*
D03*
Y274610D02*
D03*
Y268106D02*
D03*
Y261610D02*
D03*
Y287610D02*
D03*
Y294106D02*
D03*
X588500Y186752D02*
D03*
Y193248D02*
D03*
X561000Y188252D02*
D03*
Y194748D02*
D03*
X350500Y342252D02*
D03*
Y348748D02*
D03*
Y355252D02*
D03*
Y361748D02*
D03*
Y335748D02*
D03*
Y329252D02*
D03*
X121000Y399748D02*
D03*
Y393252D02*
D03*
Y386748D02*
D03*
Y380252D02*
D03*
Y406252D02*
D03*
Y412748D02*
D03*
X426500Y467248D02*
D03*
Y460752D02*
D03*
Y455248D02*
D03*
Y448752D02*
D03*
Y472752D02*
D03*
Y479248D02*
D03*
X529500Y467252D02*
D03*
Y473748D02*
D03*
Y455252D02*
D03*
Y461748D02*
D03*
Y449748D02*
D03*
Y443252D02*
D03*
X387500Y504248D02*
D03*
Y497752D02*
D03*
X415500Y504248D02*
D03*
Y497752D02*
D03*
X387500Y511752D02*
D03*
Y518248D02*
D03*
X530500Y527752D02*
D03*
Y534248D02*
D03*
X558500Y527752D02*
D03*
Y534248D02*
D03*
Y520248D02*
D03*
Y513752D02*
D03*
X840000Y301248D02*
D03*
Y294752D02*
D03*
X626000Y510500D02*
D03*
Y516996D02*
D03*
Y538996D02*
D03*
Y532500D02*
D03*
X749500Y610248D02*
D03*
Y603752D02*
D03*
X587197Y656248D02*
D03*
Y649752D02*
D03*
X610819D02*
D03*
Y656248D02*
D03*
X662783D02*
D03*
Y649752D02*
D03*
X504500Y607252D02*
D03*
Y613748D02*
D03*
X863500Y294752D02*
D03*
Y301248D02*
D03*
X856000Y294752D02*
D03*
Y301248D02*
D03*
X848500Y294752D02*
D03*
Y301248D02*
D03*
X686402Y656248D02*
D03*
Y649752D02*
D03*
X624992Y656248D02*
D03*
Y649752D02*
D03*
X461000Y521248D02*
D03*
Y514752D02*
D03*
X443500Y521248D02*
D03*
Y514752D02*
D03*
X463000Y458252D02*
D03*
Y464748D02*
D03*
X483000Y467252D02*
D03*
Y473748D02*
D03*
X490000Y467252D02*
D03*
Y473748D02*
D03*
X452500Y465252D02*
D03*
Y471748D02*
D03*
D171*
X988004Y62142D02*
D03*
X981311D02*
D03*
X617708Y608500D02*
D03*
X611015D02*
D03*
X667310Y609000D02*
D03*
X660617D02*
D03*
X392653Y189000D02*
D03*
X399346D02*
D03*
X440846Y173000D02*
D03*
X434154D02*
D03*
X392653Y179500D02*
D03*
X399346D02*
D03*
X440846Y164500D02*
D03*
X434154D02*
D03*
X99654Y125500D02*
D03*
X106346D02*
D03*
X162153D02*
D03*
X168846D02*
D03*
X224654D02*
D03*
X231347D02*
D03*
X287154D02*
D03*
X293847D02*
D03*
X349654D02*
D03*
X356347D02*
D03*
X412153D02*
D03*
X418847D02*
D03*
X481347D02*
D03*
X474653D02*
D03*
X543847D02*
D03*
X537153D02*
D03*
X78347Y74000D02*
D03*
X71653D02*
D03*
X140847D02*
D03*
X134153D02*
D03*
X203346D02*
D03*
X196653D02*
D03*
X265846D02*
D03*
X259154D02*
D03*
X328346D02*
D03*
X321654D02*
D03*
X390846D02*
D03*
X384154D02*
D03*
X446654D02*
D03*
X453346D02*
D03*
X509154D02*
D03*
X515846D02*
D03*
X99654Y134000D02*
D03*
X106346D02*
D03*
X162153D02*
D03*
X168846D02*
D03*
X224654D02*
D03*
X231347D02*
D03*
X287154D02*
D03*
X293847D02*
D03*
X349654D02*
D03*
X356347D02*
D03*
X412153D02*
D03*
X418847D02*
D03*
X481347D02*
D03*
X474653D02*
D03*
X543847D02*
D03*
X537153D02*
D03*
X78347Y82500D02*
D03*
X71653D02*
D03*
X140847D02*
D03*
X134153D02*
D03*
X203346D02*
D03*
X196653D02*
D03*
X265846D02*
D03*
X259154D02*
D03*
X328346D02*
D03*
X321654D02*
D03*
X390846D02*
D03*
X384154D02*
D03*
X446654D02*
D03*
X453346D02*
D03*
X509154D02*
D03*
X515846D02*
D03*
X193311Y472449D02*
D03*
X200004D02*
D03*
D172*
X1147244Y435074D02*
D03*
X1152756D02*
D03*
X1147244Y429573D02*
D03*
X1152756D02*
D03*
D173*
X353268Y192197D02*
D03*
X356732D02*
D03*
X299232Y257000D02*
D03*
X295768D02*
D03*
X299232Y247500D02*
D03*
X295768D02*
D03*
X299232Y238500D02*
D03*
X295768D02*
D03*
X299232Y233500D02*
D03*
X295768D02*
D03*
X299232Y253500D02*
D03*
X295768D02*
D03*
X330268Y240000D02*
D03*
X333732D02*
D03*
X330268Y233500D02*
D03*
X333732D02*
D03*
X330268Y256500D02*
D03*
X333732D02*
D03*
X330268Y251000D02*
D03*
X333732D02*
D03*
X330268Y245500D02*
D03*
X333732D02*
D03*
X394268Y201000D02*
D03*
X397732D02*
D03*
X439232Y180000D02*
D03*
X435768D02*
D03*
X394268Y196500D02*
D03*
X397732D02*
D03*
X439232Y184500D02*
D03*
X435768D02*
D03*
X101268Y119000D02*
D03*
X104732D02*
D03*
X163768D02*
D03*
X167232D02*
D03*
X226268D02*
D03*
X229732D02*
D03*
X288768D02*
D03*
X292232D02*
D03*
X351268D02*
D03*
X354732D02*
D03*
X413768D02*
D03*
X417232D02*
D03*
X479732D02*
D03*
X476268D02*
D03*
X542232D02*
D03*
X538768D02*
D03*
X78232Y92000D02*
D03*
X74768D02*
D03*
X140732D02*
D03*
X137268D02*
D03*
X203232D02*
D03*
X199768D02*
D03*
X265732D02*
D03*
X262268D02*
D03*
X328232D02*
D03*
X324768D02*
D03*
X390732D02*
D03*
X387268D02*
D03*
X449768D02*
D03*
X453232D02*
D03*
X512268D02*
D03*
X515732D02*
D03*
X101268Y114500D02*
D03*
X104732D02*
D03*
X163768D02*
D03*
X167232D02*
D03*
X226268D02*
D03*
X229732D02*
D03*
X288768D02*
D03*
X292232D02*
D03*
X351268D02*
D03*
X354732D02*
D03*
X413768D02*
D03*
X417232D02*
D03*
X479732D02*
D03*
X476268D02*
D03*
X542232D02*
D03*
X538768D02*
D03*
X78232Y96500D02*
D03*
X74768D02*
D03*
X140732D02*
D03*
X137268D02*
D03*
X203232D02*
D03*
X199768D02*
D03*
X265732D02*
D03*
X262268D02*
D03*
X328232D02*
D03*
X324768D02*
D03*
X390732D02*
D03*
X387268D02*
D03*
X449768D02*
D03*
X453232D02*
D03*
X512268D02*
D03*
X515732D02*
D03*
X284768Y187500D02*
D03*
X288232D02*
D03*
X293268D02*
D03*
X296732D02*
D03*
X301768D02*
D03*
X305232D02*
D03*
X310268D02*
D03*
X313732D02*
D03*
X318768D02*
D03*
X322232D02*
D03*
X327268D02*
D03*
X330732D02*
D03*
X335768D02*
D03*
X339232D02*
D03*
X344268D02*
D03*
X347732D02*
D03*
X1012768Y668500D02*
D03*
X1016232D02*
D03*
X1076268Y657065D02*
D03*
X1079732D02*
D03*
X1050732Y648000D02*
D03*
X1047268D02*
D03*
X973768Y319000D02*
D03*
X977232D02*
D03*
X198232Y478543D02*
D03*
X194768D02*
D03*
X202732Y506500D02*
D03*
X199268D02*
D03*
D174*
X765500Y611346D02*
D03*
Y604654D02*
D03*
X757000Y611346D02*
D03*
Y604654D02*
D03*
X497000Y608153D02*
D03*
Y614847D02*
D03*
X488500Y608153D02*
D03*
Y614847D02*
D03*
X839000Y257347D02*
D03*
Y250654D02*
D03*
X639161Y657520D02*
D03*
Y650827D02*
D03*
X277500Y264653D02*
D03*
Y271346D02*
D03*
X350500Y227153D02*
D03*
Y233846D02*
D03*
X278500Y354847D02*
D03*
Y348153D02*
D03*
X187000Y391253D02*
D03*
Y397947D02*
D03*
X154000Y511654D02*
D03*
Y518347D02*
D03*
X266500Y465654D02*
D03*
Y472346D02*
D03*
D179*
X353000Y188488D02*
D03*
Y184906D02*
D03*
X357000D02*
D03*
Y188488D02*
D03*
X348000Y183791D02*
D03*
Y180209D02*
D03*
X453346Y60709D02*
D03*
Y64291D02*
D03*
X111000Y79209D02*
D03*
Y82791D02*
D03*
X173500Y79209D02*
D03*
Y82791D02*
D03*
X236000Y79209D02*
D03*
Y82791D02*
D03*
X298500Y79209D02*
D03*
Y82791D02*
D03*
X361000Y79209D02*
D03*
Y82791D02*
D03*
X423500Y79209D02*
D03*
Y82791D02*
D03*
X486000D02*
D03*
Y79209D02*
D03*
X548500Y82791D02*
D03*
Y79209D02*
D03*
X515846Y60709D02*
D03*
Y64291D02*
D03*
X967087Y38130D02*
D03*
Y41713D02*
D03*
X952142Y73957D02*
D03*
Y70374D02*
D03*
X938386Y64449D02*
D03*
Y60866D02*
D03*
X937205Y32815D02*
D03*
Y36398D02*
D03*
X200000Y466291D02*
D03*
Y462709D02*
D03*
X284500Y183791D02*
D03*
Y180209D02*
D03*
X293000Y183791D02*
D03*
Y180209D02*
D03*
X301500Y183791D02*
D03*
Y180209D02*
D03*
X310000Y183791D02*
D03*
Y180209D02*
D03*
X318500Y183791D02*
D03*
Y180209D02*
D03*
X327000Y183791D02*
D03*
Y180209D02*
D03*
X335500Y183791D02*
D03*
Y180209D02*
D03*
X344000Y183791D02*
D03*
Y180209D02*
D03*
X288500Y183791D02*
D03*
Y180209D02*
D03*
X297000D02*
D03*
Y183791D02*
D03*
X305500Y180209D02*
D03*
Y183791D02*
D03*
X314000Y180209D02*
D03*
Y183791D02*
D03*
X322500Y180209D02*
D03*
Y183791D02*
D03*
X331000Y180209D02*
D03*
Y183791D02*
D03*
X339500Y180209D02*
D03*
Y183791D02*
D03*
X78347Y64291D02*
D03*
Y60709D02*
D03*
X140847Y64291D02*
D03*
Y60709D02*
D03*
X203346Y64291D02*
D03*
Y60709D02*
D03*
X265846Y64291D02*
D03*
Y60709D02*
D03*
X328346Y64291D02*
D03*
Y60709D02*
D03*
X390846Y64291D02*
D03*
Y60709D02*
D03*
D182*
X1130866Y428583D02*
D03*
Y436063D02*
D03*
X1139134Y432323D02*
D03*
D185*
X695850Y651043D02*
D03*
X679008Y526416D02*
D03*
X687583Y614363D02*
D03*
X558514Y465569D02*
D03*
X562450D02*
D03*
X509400Y442000D02*
D03*
X990091Y231642D02*
D03*
X1105945Y395709D02*
D03*
Y379882D02*
D03*
X1117520Y395590D02*
D03*
X296800Y202807D02*
D03*
X300200D02*
D03*
X289300D02*
D03*
X292700D02*
D03*
X335500Y174614D02*
D03*
X331000Y170622D02*
D03*
X354291Y174449D02*
D03*
X353000Y179313D02*
D03*
X348000Y170622D02*
D03*
X339500D02*
D03*
X313307Y370276D02*
D03*
X318386D02*
D03*
X323465D02*
D03*
X346799Y367169D02*
D03*
X313307Y364576D02*
D03*
X318386Y364575D02*
D03*
X323465D02*
D03*
X350500Y326316D02*
D03*
X385984Y325787D02*
D03*
X346799Y361872D02*
D03*
X335543Y342725D02*
D03*
X386304Y344431D02*
D03*
X344500Y345496D02*
D03*
X381619Y344431D02*
D03*
X339000Y345496D02*
D03*
X347685Y329252D02*
D03*
X262732Y404930D02*
D03*
X439670Y395468D02*
D03*
X485851Y560862D02*
D03*
X506991D02*
D03*
X489500Y563902D02*
D03*
X511531Y564142D02*
D03*
X784685Y585472D02*
D03*
X486661Y500161D02*
D03*
Y495831D02*
D03*
Y491500D02*
D03*
Y487169D02*
D03*
Y482839D02*
D03*
X482331Y500161D02*
D03*
Y495831D02*
D03*
Y491500D02*
D03*
Y487169D02*
D03*
Y482839D02*
D03*
X478000Y500161D02*
D03*
Y495831D02*
D03*
Y491500D02*
D03*
Y487169D02*
D03*
Y482839D02*
D03*
X473669Y500161D02*
D03*
Y495831D02*
D03*
Y491500D02*
D03*
Y487169D02*
D03*
Y482839D02*
D03*
X469339Y500161D02*
D03*
Y495831D02*
D03*
Y491500D02*
D03*
Y487169D02*
D03*
Y482839D02*
D03*
X226000Y463211D02*
D03*
X1085461Y34000D02*
D03*
X1137256Y259213D02*
D03*
Y276811D02*
D03*
Y308268D02*
D03*
Y324646D02*
D03*
Y289055D02*
D03*
X1099791Y317598D02*
D03*
Y296732D02*
D03*
X1105512Y165000D02*
D03*
X1109528Y160630D02*
D03*
X1118661D02*
D03*
X1127795D02*
D03*
X1105669Y240000D02*
D03*
X1105945Y363000D02*
D03*
X122244Y295433D02*
D03*
X337700Y202807D02*
D03*
X334300D02*
D03*
X330200D02*
D03*
X326800D02*
D03*
X322700D02*
D03*
X319300D02*
D03*
X311800D02*
D03*
X315200D02*
D03*
X304300D02*
D03*
X307700D02*
D03*
X294750Y210835D02*
D03*
X303269Y233227D02*
D03*
X322798Y260861D02*
D03*
X308625D02*
D03*
X303078Y238727D02*
D03*
Y257161D02*
D03*
Y242274D02*
D03*
X330062Y261011D02*
D03*
X338184Y238322D02*
D03*
X333155Y229776D02*
D03*
X337731Y254114D02*
D03*
X303078Y251724D02*
D03*
X302250Y210835D02*
D03*
X341800Y202807D02*
D03*
X345200D02*
D03*
X327000Y174614D02*
D03*
X293000D02*
D03*
X284500Y174616D02*
D03*
X288500Y170622D02*
D03*
X239606Y201736D02*
D03*
X255567D02*
D03*
X224972D02*
D03*
X83465Y132000D02*
D03*
X339000Y222598D02*
D03*
X339750Y210835D02*
D03*
X397244Y686721D02*
D03*
X496811Y420157D02*
D03*
X371356Y686708D02*
D03*
X344500Y222598D02*
D03*
X440197Y218228D02*
D03*
X438622Y225087D02*
D03*
X365039D02*
D03*
X358000Y220300D02*
D03*
X287250Y210835D02*
D03*
X347250D02*
D03*
X332250D02*
D03*
X324750D02*
D03*
X317250D02*
D03*
X309750D02*
D03*
X963504Y601102D02*
D03*
X1049323Y651208D02*
D03*
X1046295Y652338D02*
D03*
Y655882D02*
D03*
X1049323Y657303D02*
D03*
X1083300Y657065D02*
D03*
X1073100D02*
D03*
X1066800D02*
D03*
X689213Y208228D02*
D03*
X677362Y222047D02*
D03*
X701929Y194134D02*
D03*
X664449Y207402D02*
D03*
X672756Y200866D02*
D03*
X664567Y200630D02*
D03*
X678346Y193347D02*
D03*
X672953Y193386D02*
D03*
X510512Y601181D02*
D03*
X433228Y481299D02*
D03*
X483000Y478189D02*
D03*
X469172Y478210D02*
D03*
X644441Y360154D02*
D03*
X951528Y692411D02*
D03*
Y687481D02*
D03*
X1092598Y644410D02*
D03*
X1190748Y662047D02*
D03*
X1135984Y661850D02*
D03*
X1109134Y661378D02*
D03*
X1070158Y644410D02*
D03*
X836181Y595827D02*
D03*
X558976Y435827D02*
D03*
X638504Y407126D02*
D03*
X663110Y444173D02*
D03*
X94528Y245354D02*
D03*
X93898Y270394D02*
D03*
X94016Y295433D02*
D03*
X93858Y320472D02*
D03*
X122087D02*
D03*
X122126Y270394D02*
D03*
X122756Y245354D02*
D03*
X239606Y210866D02*
D03*
X224972D02*
D03*
X255567D02*
D03*
X1154882Y264606D02*
D03*
X1164095Y264528D02*
D03*
X1109528Y169843D02*
D03*
X1118661D02*
D03*
X1127795D02*
D03*
X1145827Y233444D02*
D03*
X1137256Y177102D02*
D03*
X1145827Y185950D02*
D03*
X1137256Y193524D02*
D03*
X1145827Y201781D02*
D03*
X1137256Y209946D02*
D03*
X1145827Y217612D02*
D03*
X1137256Y226369D02*
D03*
Y242791D02*
D03*
X1145827Y170118D02*
D03*
X1113898Y230157D02*
D03*
X1099724D02*
D03*
X1113819Y241801D02*
D03*
X1113661Y276732D02*
D03*
X1128110Y276811D02*
D03*
Y289055D02*
D03*
X1113425Y253445D02*
D03*
Y265089D02*
D03*
X1099791Y253445D02*
D03*
Y265087D02*
D03*
X1128110Y308268D02*
D03*
X1107018Y308071D02*
D03*
X1111917Y312680D02*
D03*
X1107018Y303285D02*
D03*
Y312680D02*
D03*
X1111917Y303285D02*
D03*
X1128110Y324646D02*
D03*
Y340276D02*
D03*
X1095748Y353543D02*
D03*
X1096181Y379921D02*
D03*
X1095276Y395709D02*
D03*
X1166457Y384134D02*
D03*
X1155079Y396693D02*
D03*
X1159055Y340236D02*
D03*
Y355354D02*
D03*
Y370472D02*
D03*
X1169409D02*
D03*
Y355354D02*
D03*
Y340236D02*
D03*
X1179764D02*
D03*
Y355354D02*
D03*
Y370472D02*
D03*
X433228Y485919D02*
D03*
X50315Y456653D02*
D03*
Y481693D02*
D03*
X74606Y456654D02*
D03*
Y481693D02*
D03*
X35866Y395590D02*
D03*
Y420630D02*
D03*
Y370551D02*
D03*
Y345512D02*
D03*
Y320472D02*
D03*
Y295433D02*
D03*
Y270394D02*
D03*
X68110D02*
D03*
Y295433D02*
D03*
Y320472D02*
D03*
Y345511D02*
D03*
Y370550D02*
D03*
Y420628D02*
D03*
Y395589D02*
D03*
X345887Y461991D02*
D03*
X357777D02*
D03*
X352087Y453150D02*
D03*
X628150Y245394D02*
D03*
X601378Y138779D02*
D03*
X605433Y108150D02*
D03*
X695197Y222756D02*
D03*
X636063Y173346D02*
D03*
X553110Y271693D02*
D03*
X590276Y325236D02*
D03*
X561063Y364370D02*
D03*
X716260Y459055D02*
D03*
X621378Y465984D02*
D03*
X253620Y358487D02*
D03*
X260343Y370508D02*
D03*
X247012Y358573D02*
D03*
X244215Y357585D02*
D03*
X990787Y46374D02*
D03*
X934449Y67579D02*
D03*
X938386Y67205D02*
D03*
X952142Y76713D02*
D03*
X960079Y73189D02*
D03*
X929291Y33583D02*
D03*
X934050Y30467D02*
D03*
X970354Y35669D02*
D03*
X977756Y41653D02*
D03*
X963929Y46142D02*
D03*
Y58189D02*
D03*
X956705Y65413D02*
D03*
X947579D02*
D03*
X947579Y39870D02*
D03*
X956705D02*
D03*
X938386Y47095D02*
D03*
Y56221D02*
D03*
X967717Y57480D02*
D03*
X956079Y47721D02*
D03*
X946236Y47721D02*
D03*
X956079Y57563D02*
D03*
X946236Y57563D02*
D03*
Y52642D02*
D03*
X956079Y52642D02*
D03*
X951157Y52642D02*
D03*
Y57563D02*
D03*
Y47721D02*
D03*
X839000Y246015D02*
D03*
X851000Y243201D02*
D03*
X866000D02*
D03*
X663965Y603026D02*
D03*
X294090Y250632D02*
D03*
X976417Y626598D02*
D03*
X970980Y631535D02*
D03*
X1041395Y645737D02*
D03*
X356701Y205611D02*
D03*
X353201D02*
D03*
X562441Y204291D02*
D03*
X705715Y157714D02*
D03*
X561000Y184373D02*
D03*
X546465Y194748D02*
D03*
X270000Y277909D02*
D03*
X277500Y275482D02*
D03*
X283500Y275088D02*
D03*
X289000D02*
D03*
X294500D02*
D03*
X105390Y392500D02*
D03*
X180354Y397945D02*
D03*
X221250Y400179D02*
D03*
X224750D02*
D03*
X228250D02*
D03*
X231750D02*
D03*
X676598Y626850D02*
D03*
X676598Y631024D02*
D03*
X689134D02*
D03*
X689134Y626850D02*
D03*
X1005887Y653000D02*
D03*
X1012690Y661000D02*
D03*
X1009000Y668500D02*
D03*
X873577Y582477D02*
D03*
X868870D02*
D03*
X769662Y592067D02*
D03*
X845661Y592520D02*
D03*
X837956Y602520D02*
D03*
X834156Y605846D02*
D03*
X777083Y695500D02*
D03*
Y701500D02*
D03*
X802327Y680650D02*
D03*
X889500Y666507D02*
D03*
X890234Y594922D02*
D03*
X893980Y602535D02*
D03*
X900023Y605626D02*
D03*
X902633Y608390D02*
D03*
X902668Y613895D02*
D03*
X899947Y615972D02*
D03*
X892958Y621039D02*
D03*
X887484Y621159D02*
D03*
X871811Y609017D02*
D03*
X874563Y612953D02*
D03*
X691127Y651043D02*
D03*
X160276Y488307D02*
D03*
X434234Y412196D02*
D03*
X434450Y428218D02*
D03*
Y418718D02*
D03*
X439670Y407468D02*
D03*
X199528Y294106D02*
D03*
X344000Y174614D02*
D03*
X258236Y404930D02*
D03*
X240250D02*
D03*
X207927Y378750D02*
D03*
X578909Y596260D02*
D03*
X207927Y374250D02*
D03*
X275307Y383000D02*
D03*
X278099Y376250D02*
D03*
X275307Y378500D02*
D03*
X278099Y371750D02*
D03*
X600536Y550339D02*
D03*
Y545248D02*
D03*
X609154Y538996D02*
D03*
X600535D02*
D03*
X720616Y594589D02*
D03*
X890004Y562180D02*
D03*
X884246Y561339D02*
D03*
X877547D02*
D03*
X101185Y670397D02*
D03*
X96017Y680740D02*
D03*
X658441Y617882D02*
D03*
X662369D02*
D03*
X509276Y647331D02*
D03*
X502189D02*
D03*
X516362D02*
D03*
X116423Y673260D02*
D03*
X111815Y683488D02*
D03*
X665377Y615422D02*
D03*
X669412D02*
D03*
X457261Y641500D02*
D03*
X159697Y604198D02*
D03*
X128017Y680740D02*
D03*
X133185Y670397D02*
D03*
X670199Y619654D02*
D03*
X674234D02*
D03*
X656519Y630993D02*
D03*
X652484D02*
D03*
X482655Y641500D02*
D03*
X547043Y635068D02*
D03*
X148423Y673260D02*
D03*
X633616Y634615D02*
D03*
X143815Y683488D02*
D03*
X639184Y646785D02*
D03*
X632099Y647331D02*
D03*
X633664Y657520D02*
D03*
X165185Y670397D02*
D03*
X160017Y680740D02*
D03*
X645427Y634615D02*
D03*
X639161Y662096D02*
D03*
X649462Y634615D02*
D03*
X644709Y630993D02*
D03*
X640674D02*
D03*
X228793Y613668D02*
D03*
X191200Y608000D02*
D03*
X198000Y608460D02*
D03*
X180423Y673260D02*
D03*
X175815Y683488D02*
D03*
X651246Y647331D02*
D03*
X197185Y670397D02*
D03*
X192017Y680740D02*
D03*
X657236Y634615D02*
D03*
X212423Y673260D02*
D03*
X661272Y634615D02*
D03*
X207815Y683488D02*
D03*
X662807Y646788D02*
D03*
X662783Y660634D02*
D03*
X672998Y650182D02*
D03*
X229185Y670397D02*
D03*
X669070Y650182D02*
D03*
X224017Y680740D02*
D03*
X666515Y656248D02*
D03*
X676104Y651954D02*
D03*
X680139D02*
D03*
X225500Y656100D02*
D03*
X235818Y677000D02*
D03*
X244423Y673260D02*
D03*
X239815Y683488D02*
D03*
X580699Y615016D02*
D03*
X575975D02*
D03*
X569507Y614991D02*
D03*
X581272Y599409D02*
D03*
X583634Y596260D02*
D03*
X586016Y599409D02*
D03*
X588401Y614584D02*
D03*
X590740Y596229D02*
D03*
X593102Y599378D02*
D03*
X595464Y596545D02*
D03*
X597826Y599378D02*
D03*
X602551Y596229D02*
D03*
X604913Y599378D02*
D03*
X607275Y596229D02*
D03*
X609637Y599378D02*
D03*
X612000Y614674D02*
D03*
X675500Y591195D02*
D03*
X682881Y602540D02*
D03*
X680496Y599454D02*
D03*
X685220Y599445D02*
D03*
X689968Y602540D02*
D03*
X692307Y599445D02*
D03*
X694692Y602540D02*
D03*
X697031Y599472D02*
D03*
X699417Y602540D02*
D03*
X711205Y614804D02*
D03*
X637652Y634615D02*
D03*
X446514Y599748D02*
D03*
X400358Y606756D02*
D03*
X379947Y603968D02*
D03*
X383750Y597296D02*
D03*
X446514Y593248D02*
D03*
X438486Y593252D02*
D03*
X442500Y610824D02*
D03*
X451834Y586500D02*
D03*
Y606500D02*
D03*
X834445Y720000D02*
D03*
X247480Y605469D02*
D03*
X675796Y614534D02*
D03*
X624992Y660634D02*
D03*
X628724Y656248D02*
D03*
X625015Y646788D02*
D03*
X610819Y660634D02*
D03*
X610842Y646788D02*
D03*
X614551Y656248D02*
D03*
X433500Y641501D02*
D03*
X530532Y647331D02*
D03*
X532871Y650004D02*
D03*
X698235Y647331D02*
D03*
X674615D02*
D03*
X617927D02*
D03*
X599031D02*
D03*
X575411D02*
D03*
X220878Y673268D02*
D03*
Y676732D02*
D03*
X188878Y673268D02*
D03*
Y676732D02*
D03*
X203818Y677000D02*
D03*
X156878Y673268D02*
D03*
Y676732D02*
D03*
X171818Y677000D02*
D03*
X124878Y673268D02*
D03*
Y676732D02*
D03*
X139818Y677000D02*
D03*
X107818D02*
D03*
X92878Y676732D02*
D03*
Y673268D02*
D03*
X1158607Y324606D02*
D03*
Y308071D02*
D03*
Y291535D02*
D03*
Y275000D02*
D03*
X413379Y461000D02*
D03*
X864332Y505099D02*
D03*
X258776Y361121D02*
D03*
X283300Y348153D02*
D03*
X224209Y361820D02*
D03*
X234866Y361890D02*
D03*
X222860Y358465D02*
D03*
X226024Y355680D02*
D03*
X229488D02*
D03*
X233782Y369424D02*
D03*
X229524Y365819D02*
D03*
X678465Y374307D02*
D03*
X950833Y522576D02*
D03*
X940843Y510953D02*
D03*
X971980Y595339D02*
D03*
X967996Y595289D02*
D03*
X938976Y594291D02*
D03*
X943866D02*
D03*
X936417Y515139D02*
D03*
X940433Y518722D02*
D03*
X1090000Y52024D02*
D03*
X684539Y635077D02*
D03*
X681193D02*
D03*
X974917Y602087D02*
D03*
X982404Y606024D02*
D03*
X977404Y610071D02*
D03*
X947819Y595827D02*
D03*
X945260Y604707D02*
D03*
X939118Y621175D02*
D03*
X935863Y617571D02*
D03*
X956835D02*
D03*
X1183799Y430748D02*
D03*
Y433898D02*
D03*
X1142712Y432324D02*
D03*
X515787Y512748D02*
D03*
X351500Y279187D02*
D03*
X713187Y164756D02*
D03*
X1103202Y128118D02*
D03*
X1080000Y191712D02*
D03*
X971775Y231479D02*
D03*
Y235416D02*
D03*
X989500Y196657D02*
D03*
X974500D02*
D03*
X966717Y191413D02*
D03*
X984000Y171200D02*
D03*
X994098Y501417D02*
D03*
X951614Y347441D02*
D03*
X1108500Y633653D02*
D03*
X738916Y601793D02*
D03*
X742541D02*
D03*
X729468Y597016D02*
D03*
X733093D02*
D03*
X901801Y580000D02*
D03*
X722382Y598984D02*
D03*
X726007D02*
D03*
X718325Y596957D02*
D03*
X712934Y601807D02*
D03*
X716559D02*
D03*
X727736Y602827D02*
D03*
X745460Y599333D02*
D03*
X497936Y473853D02*
D03*
X458858Y458252D02*
D03*
X434234Y434739D02*
D03*
X448323Y465252D02*
D03*
X498260Y431400D02*
D03*
X971793Y46417D02*
D03*
X386102Y60709D02*
D03*
X530300Y92000D02*
D03*
X522100Y88700D02*
D03*
X519500Y53000D02*
D03*
X511102Y60709D02*
D03*
X821413Y75047D02*
D03*
X826878Y60797D02*
D03*
X815000Y89299D02*
D03*
X821413Y86047D02*
D03*
X826878Y67319D02*
D03*
Y51297D02*
D03*
Y44776D02*
D03*
X690378Y67319D02*
D03*
Y60797D02*
D03*
X684913Y75047D02*
D03*
X665413D02*
D03*
X670878Y60797D02*
D03*
Y67319D02*
D03*
X748878Y60797D02*
D03*
X709878D02*
D03*
Y67319D02*
D03*
X729378D02*
D03*
Y60797D02*
D03*
X748878Y67319D02*
D03*
X670878Y51297D02*
D03*
X729378D02*
D03*
X743413Y75047D02*
D03*
X704413D02*
D03*
X723913D02*
D03*
X748878Y51297D02*
D03*
X709878D02*
D03*
X690378D02*
D03*
X768378Y67319D02*
D03*
X787878Y51297D02*
D03*
Y44776D02*
D03*
X768378Y60797D02*
D03*
X787878Y67319D02*
D03*
Y60797D02*
D03*
X768378Y51297D02*
D03*
X762913Y75047D02*
D03*
X807378Y67319D02*
D03*
Y60797D02*
D03*
Y51297D02*
D03*
X801913Y75047D02*
D03*
X782413D02*
D03*
X748878Y44776D02*
D03*
X768378D02*
D03*
X690378D02*
D03*
X670878D02*
D03*
X709878D02*
D03*
X729378D02*
D03*
X807378D02*
D03*
X723913Y86047D02*
D03*
X717500Y89299D02*
D03*
X704413Y86047D02*
D03*
X743413D02*
D03*
X678500Y89299D02*
D03*
X698000D02*
D03*
X659000D02*
D03*
X665413Y86047D02*
D03*
X684913D02*
D03*
X782413D02*
D03*
X776000Y89299D02*
D03*
X756500D02*
D03*
X737000D02*
D03*
X762913Y86047D02*
D03*
X801913D02*
D03*
X795500Y89299D02*
D03*
X976727Y71067D02*
D03*
X972043D02*
D03*
X995158Y39642D02*
D03*
X1014657Y57713D02*
D03*
X1019874Y45413D02*
D03*
Y57713D02*
D03*
Y40720D02*
D03*
Y51870D02*
D03*
X1017688Y32873D02*
D03*
X401500Y511849D02*
D03*
X519905Y596229D02*
D03*
X415500Y520590D02*
D03*
X401500Y504387D02*
D03*
X177563Y275858D02*
D03*
X313379Y275699D02*
D03*
X320599Y275903D02*
D03*
X269081Y251504D02*
D03*
X281500Y259252D02*
D03*
X253740Y404930D02*
D03*
X249244D02*
D03*
X244750D02*
D03*
X289731Y254838D02*
D03*
X285835Y256931D02*
D03*
X289714Y258944D02*
D03*
X295074Y260447D02*
D03*
X299198Y264003D02*
D03*
X422685Y479248D02*
D03*
X365000Y262526D02*
D03*
X623809Y596229D02*
D03*
X374961Y255874D02*
D03*
X621448Y599378D02*
D03*
X626170Y614753D02*
D03*
X628533Y599378D02*
D03*
X630895Y596260D02*
D03*
X586615Y518292D02*
D03*
X585215Y522692D02*
D03*
X599908Y521815D02*
D03*
X599954Y517788D02*
D03*
X604040Y521815D02*
D03*
X604039Y517788D02*
D03*
X649153Y596867D02*
D03*
X554212Y534248D02*
D03*
X558500Y538441D02*
D03*
X534573Y534248D02*
D03*
X530500Y538126D02*
D03*
X544500Y524000D02*
D03*
Y520260D02*
D03*
Y527740D02*
D03*
X558500Y509488D02*
D03*
X626000Y507661D02*
D03*
X630118D02*
D03*
X655016Y550339D02*
D03*
Y545248D02*
D03*
X666575D02*
D03*
Y550339D02*
D03*
X655015Y522707D02*
D03*
Y527248D02*
D03*
Y531817D02*
D03*
X658950Y522707D02*
D03*
Y527248D02*
D03*
Y531817D02*
D03*
X639521Y527248D02*
D03*
X620604Y533254D02*
D03*
X626000Y528116D02*
D03*
X620604D02*
D03*
X615972D02*
D03*
X615971Y533254D02*
D03*
X611337Y528116D02*
D03*
Y533254D02*
D03*
X622244Y538996D02*
D03*
X624686Y545248D02*
D03*
X608172Y521815D02*
D03*
Y517788D02*
D03*
X582415Y519292D02*
D03*
X580915Y523092D02*
D03*
X578690Y526392D02*
D03*
X583015D02*
D03*
X518100Y539388D02*
D03*
X522126Y535279D02*
D03*
X518100D02*
D03*
X522126Y539411D02*
D03*
Y543543D02*
D03*
X518100Y543498D02*
D03*
X453963Y490516D02*
D03*
X464643Y496376D02*
D03*
X464153Y502327D02*
D03*
X449508Y504295D02*
D03*
X456651Y506946D02*
D03*
X447559Y510039D02*
D03*
X543475Y461000D02*
D03*
X562450D02*
D03*
Y456459D02*
D03*
X558514D02*
D03*
Y461000D02*
D03*
X495157Y454575D02*
D03*
Y458779D02*
D03*
X498898Y454575D02*
D03*
Y458779D02*
D03*
X511142Y454575D02*
D03*
Y458779D02*
D03*
X521323Y464732D02*
D03*
X521323Y468937D02*
D03*
X517520Y464732D02*
D03*
X513717D02*
D03*
X517520Y468937D02*
D03*
X513717D02*
D03*
X542362Y484291D02*
D03*
X545285Y481000D02*
D03*
X526209Y473748D02*
D03*
X529500Y476671D02*
D03*
Y439499D02*
D03*
X359655Y502559D02*
D03*
X359610Y506586D02*
D03*
X363742D02*
D03*
X367874Y502559D02*
D03*
Y506586D02*
D03*
X363765Y502559D02*
D03*
X379500Y518248D02*
D03*
X431653Y504000D02*
D03*
X440103Y514752D02*
D03*
X456285D02*
D03*
X466417Y513209D02*
D03*
X393550Y465541D02*
D03*
X397485D02*
D03*
Y456431D02*
D03*
X393550D02*
D03*
Y461000D02*
D03*
X397485D02*
D03*
X410215Y442961D02*
D03*
X413187Y439710D02*
D03*
X430344Y479248D02*
D03*
X445761Y472020D02*
D03*
Y467820D02*
D03*
X444085Y462335D02*
D03*
X434000Y462334D02*
D03*
X439043Y462335D02*
D03*
X429790Y448801D02*
D03*
X426539Y445829D02*
D03*
X430917Y452735D02*
D03*
Y456452D02*
D03*
X449760Y483532D02*
D03*
X464882D02*
D03*
X465504Y478778D02*
D03*
X483000Y464291D02*
D03*
X490000D02*
D03*
Y478189D02*
D03*
X505385Y482500D02*
D03*
X490949D02*
D03*
X505850Y492500D02*
D03*
X509642D02*
D03*
X490949D02*
D03*
X490949Y498500D02*
D03*
X650500Y371904D02*
D03*
X652855Y306185D02*
D03*
X635619Y601388D02*
D03*
X639271Y599266D02*
D03*
X647429Y599378D02*
D03*
X656877Y602340D02*
D03*
X654515Y599557D02*
D03*
X644541Y602823D02*
D03*
X652153Y602854D02*
D03*
X369013Y269141D02*
D03*
X346702Y267473D02*
D03*
X330256Y253780D02*
D03*
Y248189D02*
D03*
Y242677D02*
D03*
X336035Y268823D02*
D03*
X338748Y265921D02*
D03*
X341874Y256449D02*
D03*
X347350Y256811D02*
D03*
X346535Y251693D02*
D03*
X349500Y254482D02*
D03*
X369635Y251745D02*
D03*
X370477Y257596D02*
D03*
X368307Y242677D02*
D03*
X347275Y244291D02*
D03*
X364475Y244251D02*
D03*
X348641Y238912D02*
D03*
X365315Y234842D02*
D03*
X341772Y237756D02*
D03*
X445484Y256340D02*
D03*
X129628Y74000D02*
D03*
Y82500D02*
D03*
X208465Y132000D02*
D03*
X460500Y250000D02*
D03*
X641539Y313999D02*
D03*
Y319002D02*
D03*
X220000Y77400D02*
D03*
X192128Y74000D02*
D03*
X444000Y223500D02*
D03*
X460394Y224291D02*
D03*
X270965Y132000D02*
D03*
X360898Y134000D02*
D03*
X387634Y180961D02*
D03*
X391142Y194735D02*
D03*
X460500Y236900D02*
D03*
X476500Y58348D02*
D03*
X685000Y286862D02*
D03*
X593679Y186752D02*
D03*
X680000Y286862D02*
D03*
X670000Y286860D02*
D03*
X675000Y286862D02*
D03*
X361000Y87285D02*
D03*
X486500Y198029D02*
D03*
X463000Y469252D02*
D03*
X435823Y456452D02*
D03*
X440728D02*
D03*
X435823Y452735D02*
D03*
X440728D02*
D03*
X253161Y88500D02*
D03*
X440661D02*
D03*
X212573Y281209D02*
D03*
X198713Y261610D02*
D03*
X218973Y268858D02*
D03*
X195280Y254858D02*
D03*
X229772Y331071D02*
D03*
X198091Y322976D02*
D03*
X205676Y323827D02*
D03*
X198091Y326647D02*
D03*
X229773Y326626D02*
D03*
X197500Y318905D02*
D03*
X158670Y271289D02*
D03*
X163356Y280399D02*
D03*
Y271289D02*
D03*
Y275858D02*
D03*
X158670Y280399D02*
D03*
Y275858D02*
D03*
X397603Y169500D02*
D03*
X451903Y168750D02*
D03*
X446240D02*
D03*
X515180Y602688D02*
D03*
X504506Y617320D02*
D03*
X203000Y598839D02*
D03*
X154050Y594781D02*
D03*
X166886Y588386D02*
D03*
X128500Y596279D02*
D03*
X123500Y605901D02*
D03*
X116471Y608000D02*
D03*
X92386Y588386D02*
D03*
X87256Y603000D02*
D03*
X79550Y594781D02*
D03*
X226000Y632701D02*
D03*
X209221Y658200D02*
D03*
X201800Y647307D02*
D03*
X200261Y629024D02*
D03*
X214339Y632700D02*
D03*
X209221Y629024D02*
D03*
X149721D02*
D03*
X154839Y632700D02*
D03*
X140761Y629024D02*
D03*
X142300Y647307D02*
D03*
X166000Y656100D02*
D03*
X149721Y658200D02*
D03*
X166500Y632701D02*
D03*
X1009043Y656914D02*
D03*
X1014556Y649061D02*
D03*
Y656939D02*
D03*
X1009500Y630300D02*
D03*
X1013900D02*
D03*
X1022500Y643500D02*
D03*
X1046240Y677843D02*
D03*
X1021434Y674000D02*
D03*
X1032508Y669785D02*
D03*
X1019800Y668500D02*
D03*
X1022244Y653126D02*
D03*
X1026610Y646791D02*
D03*
X1036500Y632252D02*
D03*
X1039790Y636268D02*
D03*
X1039791Y639732D02*
D03*
X1032200Y646079D02*
D03*
X1053686Y647970D02*
D03*
X102003Y471468D02*
D03*
X91182Y392500D02*
D03*
X86497D02*
D03*
Y387931D02*
D03*
Y397041D02*
D03*
X91182Y387931D02*
D03*
Y397041D02*
D03*
X124213Y412748D02*
D03*
X121000Y415684D02*
D03*
X132500Y397000D02*
D03*
X107146Y370367D02*
D03*
X103537Y374018D02*
D03*
X120995Y377041D02*
D03*
X124512Y380252D02*
D03*
X128556Y384500D02*
D03*
X262500Y346100D02*
D03*
X272500Y344700D02*
D03*
X267000Y344701D02*
D03*
X278500Y343816D02*
D03*
X386304Y353541D02*
D03*
X381619D02*
D03*
Y349000D02*
D03*
X386304D02*
D03*
X366501D02*
D03*
X343500Y357000D02*
D03*
X505524Y306100D02*
D03*
X505473Y310032D02*
D03*
X493633Y304782D02*
D03*
X473302Y302621D02*
D03*
X477274Y302609D02*
D03*
X473302Y307232D02*
D03*
X477274D02*
D03*
X497717Y310032D02*
D03*
X297000Y170622D02*
D03*
X301500Y174614D02*
D03*
X305500Y170622D02*
D03*
X310000Y174614D02*
D03*
X314000Y170622D02*
D03*
X318500Y174614D02*
D03*
X322500Y170622D02*
D03*
X348651Y199969D02*
D03*
X450200Y185500D02*
D03*
X413539Y169500D02*
D03*
X387634Y187762D02*
D03*
X108161Y114500D02*
D03*
Y119000D02*
D03*
X110898Y125500D02*
D03*
Y134000D02*
D03*
X170661Y114500D02*
D03*
Y119000D02*
D03*
X173398Y125500D02*
D03*
Y134000D02*
D03*
X145965Y132000D02*
D03*
X233161Y114500D02*
D03*
Y119000D02*
D03*
X235898Y125500D02*
D03*
Y134000D02*
D03*
X295661Y114500D02*
D03*
Y119000D02*
D03*
X298398Y125500D02*
D03*
Y134000D02*
D03*
X358161Y114500D02*
D03*
Y119000D02*
D03*
X360898Y125500D02*
D03*
X333465Y132000D02*
D03*
X420661Y114500D02*
D03*
Y119000D02*
D03*
X423398Y125500D02*
D03*
Y134000D02*
D03*
X395965Y132000D02*
D03*
X483161Y114500D02*
D03*
Y119000D02*
D03*
X485898Y125500D02*
D03*
Y134000D02*
D03*
X458465Y132000D02*
D03*
X520965D02*
D03*
X548398Y134000D02*
D03*
Y125500D02*
D03*
X545661Y119000D02*
D03*
Y114500D02*
D03*
X108500Y58263D02*
D03*
X101500Y58348D02*
D03*
X111000Y87285D02*
D03*
X104000Y85694D02*
D03*
X99000D02*
D03*
X82000Y56532D02*
D03*
X73602Y60709D02*
D03*
X67128Y74000D02*
D03*
Y82500D02*
D03*
X70913Y92643D02*
D03*
X70961Y96500D02*
D03*
X171000Y58263D02*
D03*
X164000Y58348D02*
D03*
X173500Y87285D02*
D03*
X166500Y85694D02*
D03*
X161500D02*
D03*
X144500Y56532D02*
D03*
X136102Y60709D02*
D03*
X133413Y92643D02*
D03*
X133461Y96500D02*
D03*
X233500Y58263D02*
D03*
X226500Y58348D02*
D03*
X236000Y87285D02*
D03*
X229000Y85694D02*
D03*
X224000D02*
D03*
X207000Y56532D02*
D03*
X198602Y60709D02*
D03*
X192128Y82500D02*
D03*
X195913Y92643D02*
D03*
X195961Y96500D02*
D03*
X296000Y58263D02*
D03*
X289000Y58348D02*
D03*
X298500Y87285D02*
D03*
X291500Y85694D02*
D03*
X286500D02*
D03*
X269500Y56532D02*
D03*
X261102Y60709D02*
D03*
X254628Y74000D02*
D03*
Y82500D02*
D03*
X258413Y92643D02*
D03*
X258461Y96500D02*
D03*
X358500Y58263D02*
D03*
X351500Y58348D02*
D03*
X354000Y85694D02*
D03*
X349000D02*
D03*
X332000Y56532D02*
D03*
X323602Y60709D02*
D03*
X317128Y74000D02*
D03*
Y82500D02*
D03*
X320913Y92643D02*
D03*
X320961Y96500D02*
D03*
X421000Y58263D02*
D03*
X414000Y58348D02*
D03*
X423500Y87285D02*
D03*
X416500Y85694D02*
D03*
X411500D02*
D03*
X394500Y56532D02*
D03*
X379628Y74000D02*
D03*
Y82500D02*
D03*
X383413Y92643D02*
D03*
X383461Y96500D02*
D03*
X483500Y58263D02*
D03*
X486000Y87285D02*
D03*
X479000Y85694D02*
D03*
X474000D02*
D03*
X457000Y56532D02*
D03*
X448602Y60709D02*
D03*
X442128Y74000D02*
D03*
Y82500D02*
D03*
X445913Y92643D02*
D03*
X445961Y96500D02*
D03*
X65661Y88500D02*
D03*
X128161D02*
D03*
X190661D02*
D03*
X315661D02*
D03*
X378161D02*
D03*
X503161D02*
D03*
X508461Y96500D02*
D03*
X508413Y92643D02*
D03*
X504628Y82500D02*
D03*
Y74000D02*
D03*
X82300Y68500D02*
D03*
X144800D02*
D03*
X207300D02*
D03*
X269800D02*
D03*
X332300D02*
D03*
X394800D02*
D03*
X457300D02*
D03*
X519800D02*
D03*
X519500Y56532D02*
D03*
X536500Y85694D02*
D03*
X541500D02*
D03*
X548500Y87285D02*
D03*
X539000Y58348D02*
D03*
X546000Y58263D02*
D03*
X700500Y672174D02*
D03*
X690133Y656248D02*
D03*
X686402Y660634D02*
D03*
X686425Y646788D02*
D03*
X590929Y656248D02*
D03*
X587197Y660634D02*
D03*
X587220Y646788D02*
D03*
X488499Y603910D02*
D03*
Y619279D02*
D03*
X497000Y603543D02*
D03*
Y619279D02*
D03*
X504500Y603258D02*
D03*
X570075Y602827D02*
D03*
X576571D02*
D03*
X593752Y615004D02*
D03*
X600248D02*
D03*
X617708Y614976D02*
D03*
X633252Y615412D02*
D03*
X640343Y614753D02*
D03*
X667310Y602510D02*
D03*
X753248Y596702D02*
D03*
X749400Y600003D02*
D03*
X761252Y596702D02*
D03*
X749398Y615092D02*
D03*
X756998Y600041D02*
D03*
X757000Y615027D02*
D03*
X765500Y599808D02*
D03*
Y614794D02*
D03*
X588500Y183121D02*
D03*
X976598Y397071D02*
D03*
X968815Y391828D02*
D03*
X991598Y397071D02*
D03*
X999383Y391827D02*
D03*
X1096050Y328575D02*
D03*
X972272Y370000D02*
D03*
Y365579D02*
D03*
Y374634D02*
D03*
X996181Y370000D02*
D03*
Y365579D02*
D03*
Y374634D02*
D03*
X977886D02*
D03*
X990091D02*
D03*
Y365579D02*
D03*
X977886D02*
D03*
X984000D02*
D03*
Y374634D02*
D03*
X990091Y370000D02*
D03*
X977886D02*
D03*
X1103639Y332469D02*
D03*
X1103320Y329215D02*
D03*
X1113359Y334437D02*
D03*
X1075178Y319638D02*
D03*
X1079000Y316349D02*
D03*
X1064538Y324362D02*
D03*
X963200Y368400D02*
D03*
X959800D02*
D03*
X963300Y356131D02*
D03*
X959800Y357500D02*
D03*
X960100Y350700D02*
D03*
X956600D02*
D03*
X957900Y345666D02*
D03*
X976500Y347000D02*
D03*
X1003300Y351300D02*
D03*
X998500D02*
D03*
X1033400Y344200D02*
D03*
X1023000Y323000D02*
D03*
X997525Y323369D02*
D03*
X993225D02*
D03*
X988156Y331200D02*
D03*
X991600D02*
D03*
X980700Y337900D02*
D03*
X983000Y325800D02*
D03*
X981100Y322200D02*
D03*
X995900Y305000D02*
D03*
Y310700D02*
D03*
Y299100D02*
D03*
X991000Y308033D02*
D03*
Y313500D02*
D03*
Y302567D02*
D03*
Y297100D02*
D03*
X970000Y308033D02*
D03*
Y313500D02*
D03*
Y302567D02*
D03*
Y297100D02*
D03*
X984000Y313500D02*
D03*
Y302567D02*
D03*
Y297100D02*
D03*
X977000D02*
D03*
Y302567D02*
D03*
Y313500D02*
D03*
Y308033D02*
D03*
X1103202Y131419D02*
D03*
X1108760Y139417D02*
D03*
X1113359Y136937D02*
D03*
X1103202Y134968D02*
D03*
X1095975Y131033D02*
D03*
X1079000Y118901D02*
D03*
X1075386Y122138D02*
D03*
X1064788Y126862D02*
D03*
X962900Y180587D02*
D03*
X959102Y153301D02*
D03*
Y159269D02*
D03*
Y165234D02*
D03*
X959100Y171202D02*
D03*
X967402Y153300D02*
D03*
Y159268D02*
D03*
Y165233D02*
D03*
X967400Y171202D02*
D03*
X975700Y171201D02*
D03*
X975702Y165232D02*
D03*
Y159268D02*
D03*
Y153299D02*
D03*
X997299Y159268D02*
D03*
X997300Y171200D02*
D03*
Y165232D02*
D03*
X991902Y153300D02*
D03*
Y159267D02*
D03*
Y165233D02*
D03*
X991900Y171200D02*
D03*
X984000Y153299D02*
D03*
Y159268D02*
D03*
X997283Y191413D02*
D03*
X1113359Y201437D02*
D03*
X1108760Y203917D02*
D03*
X1102883Y196131D02*
D03*
Y192377D02*
D03*
X1103202Y199469D02*
D03*
X1076653Y188732D02*
D03*
X1076385Y185268D02*
D03*
X1080000Y182413D02*
D03*
X1096202Y195486D02*
D03*
X977886Y231642D02*
D03*
X984000D02*
D03*
X990091Y248571D02*
D03*
X984000D02*
D03*
X977886D02*
D03*
Y244634D02*
D03*
X990091D02*
D03*
Y235579D02*
D03*
X977886D02*
D03*
X984000D02*
D03*
Y244634D02*
D03*
X990091Y240000D02*
D03*
X977886D02*
D03*
X971775Y239837D02*
D03*
Y244471D02*
D03*
Y248408D02*
D03*
X989500Y275046D02*
D03*
X997423Y280173D02*
D03*
X974500Y274960D02*
D03*
X966600Y280087D02*
D03*
X997400Y265913D02*
D03*
X989500Y271040D02*
D03*
X966576Y265913D02*
D03*
X974500Y271040D02*
D03*
X867887Y267983D02*
D03*
X873978D02*
D03*
X861773D02*
D03*
Y271920D02*
D03*
X867887D02*
D03*
X873978D02*
D03*
X873925Y275843D02*
D03*
X867834D02*
D03*
X861720D02*
D03*
X849516D02*
D03*
X855630D02*
D03*
X855683Y271920D02*
D03*
X849569D02*
D03*
Y267983D02*
D03*
X855683D02*
D03*
X837311Y275843D02*
D03*
X843425D02*
D03*
X843478Y271920D02*
D03*
X837364D02*
D03*
Y267983D02*
D03*
X843478D02*
D03*
X854175Y287099D02*
D03*
X856000Y304749D02*
D03*
X863500D02*
D03*
X848500D02*
D03*
X840000Y304750D02*
D03*
X906000Y305724D02*
D03*
X909234Y301299D02*
D03*
X713187Y161393D02*
D03*
X685274Y150609D02*
D03*
X681301Y150621D02*
D03*
X685274Y155232D02*
D03*
X681301D02*
D03*
X584695Y196984D02*
D03*
X794240Y699393D02*
D03*
X786667Y689359D02*
D03*
X790500Y690258D02*
D03*
X794000Y710043D02*
D03*
X790505Y710480D02*
D03*
X786764Y700708D02*
D03*
X899540Y653740D02*
D03*
X898760Y646260D02*
D03*
X890613Y650000D02*
D03*
X880028Y646260D02*
D03*
Y653740D02*
D03*
X496564Y660464D02*
D03*
X493176Y598071D02*
D03*
X84036Y465563D02*
D03*
X94653Y470917D02*
D03*
X94634Y474315D02*
D03*
X122248Y478713D02*
D03*
X126098D02*
D03*
X122250Y474268D02*
D03*
X126100D02*
D03*
X179500Y517021D02*
D03*
Y512336D02*
D03*
Y526372D02*
D03*
Y521687D02*
D03*
X77157Y540147D02*
D03*
X86960D02*
D03*
X95458D02*
D03*
X104844D02*
D03*
X115245D02*
D03*
X123933D02*
D03*
X133383D02*
D03*
X141817D02*
D03*
X150886D02*
D03*
X159131D02*
D03*
X167819D02*
D03*
X177269D02*
D03*
X186021D02*
D03*
X207583D02*
D03*
X140995Y528223D02*
D03*
X154398Y533413D02*
D03*
X139444Y518500D02*
D03*
X142617Y522279D02*
D03*
X148942Y521866D02*
D03*
X148256Y511654D02*
D03*
X154000Y506916D02*
D03*
X259058Y520432D02*
D03*
X252349Y523553D02*
D03*
X255653D02*
D03*
X259058D02*
D03*
X275435Y512531D02*
D03*
X279002Y506451D02*
D03*
X259490D02*
D03*
X263959Y512531D02*
D03*
X267758D02*
D03*
X271558D02*
D03*
X281973Y473090D02*
D03*
X272900Y458700D02*
D03*
X253969Y462596D02*
D03*
X267215Y458700D02*
D03*
X261713D02*
D03*
X256500D02*
D03*
X225500Y517498D02*
D03*
X215260Y486600D02*
D03*
X215258Y489753D02*
D03*
X218758Y489715D02*
D03*
X211794Y489753D02*
D03*
X206920Y493500D02*
D03*
X212000Y514097D02*
D03*
X212661Y465400D02*
D03*
X216500Y505473D02*
D03*
X210674Y483096D02*
D03*
X202727Y510047D02*
D03*
X197900Y496752D02*
D03*
X194494D02*
D03*
X191191Y493630D02*
D03*
X194494D02*
D03*
X197900D02*
D03*
X191191Y490348D02*
D03*
X194494D02*
D03*
X197900D02*
D03*
X191191Y496752D02*
D03*
X199179Y516773D02*
D03*
X194331Y507722D02*
D03*
X194251Y504740D02*
D03*
X188451Y500988D02*
D03*
X203287Y457283D02*
D03*
X198602D02*
D03*
X188691Y472449D02*
D03*
X203164Y466389D02*
D03*
X194080Y482443D02*
D03*
X188451Y486012D02*
D03*
X182740Y495469D02*
D03*
X430976Y686001D02*
D03*
X430974Y691500D02*
D03*
X456939Y686000D02*
D03*
X456859Y691500D02*
D03*
X545885Y602784D02*
D03*
X543587Y599378D02*
D03*
X541138Y596229D02*
D03*
X538799Y602784D02*
D03*
X536414Y599378D02*
D03*
X534052Y596229D02*
D03*
X531712Y602784D02*
D03*
X529327Y599378D02*
D03*
X526966Y596229D02*
D03*
X524625Y602815D02*
D03*
X522242Y599378D02*
D03*
X517543Y615775D02*
D03*
X481858Y603311D02*
D03*
Y598071D02*
D03*
X500913Y598071D02*
D03*
X544704Y647331D02*
D03*
X537595Y647342D02*
D03*
X523449Y647331D02*
D03*
X490219Y660464D02*
D03*
X503994D02*
D03*
X237089Y248000D02*
D03*
X250149Y242500D02*
D03*
X291135Y241260D02*
D03*
X295116Y241397D02*
D03*
X275429Y230000D02*
D03*
Y234000D02*
D03*
X279669Y239126D02*
D03*
X295847Y230281D02*
D03*
X294940Y226868D02*
D03*
X285114Y226000D02*
D03*
X285115Y234000D02*
D03*
Y230000D02*
D03*
X219500Y389100D02*
D03*
X231140Y385121D02*
D03*
X238175Y380990D02*
D03*
X226500Y389098D02*
D03*
X212681Y372000D02*
D03*
Y376500D02*
D03*
Y381000D02*
D03*
Y385500D02*
D03*
X207927Y383250D02*
D03*
X260500Y401819D02*
D03*
X256000D02*
D03*
X251500D02*
D03*
X247000D02*
D03*
X242500D02*
D03*
X238000D02*
D03*
X243839Y376032D02*
D03*
X248103D02*
D03*
X252453Y371717D02*
D03*
Y376032D02*
D03*
Y367562D02*
D03*
X246500Y354500D02*
D03*
X243071Y383922D02*
D03*
X278099Y380750D02*
D03*
X275307Y374000D02*
D03*
Y369500D02*
D03*
X257228Y358487D02*
D03*
X267000Y358948D02*
D03*
X272500D02*
D03*
X278500D02*
D03*
X254232Y320951D02*
D03*
X250768D02*
D03*
X261788Y337000D02*
D03*
X243126D02*
D03*
X224000Y341200D02*
D03*
X229500Y342773D02*
D03*
X234500Y347243D02*
D03*
X248103Y371717D02*
D03*
X243839D02*
D03*
X248103Y367562D02*
D03*
X243839D02*
D03*
X874483Y596281D02*
D03*
X881732Y596899D02*
D03*
X896000Y618439D02*
D03*
X890325Y622741D02*
D03*
X899946Y611268D02*
D03*
X961106Y655300D02*
D03*
X952000Y680400D02*
D03*
X918193Y656760D02*
D03*
X922793D02*
D03*
X935728Y663000D02*
D03*
X940100Y678362D02*
D03*
X943017Y697256D02*
D03*
X939000Y700851D02*
D03*
X910109Y687758D02*
D03*
X914709D02*
D03*
X898248Y677224D02*
D03*
X893917D02*
D03*
X885256D02*
D03*
X872264D02*
D03*
X902579D02*
D03*
X880925D02*
D03*
X876595D02*
D03*
X911450Y671496D02*
D03*
X917067Y665175D02*
D03*
X922359Y671496D02*
D03*
X911450Y704173D02*
D03*
X917067Y697852D02*
D03*
X922359Y704173D02*
D03*
X857317Y671496D02*
D03*
X862933Y665175D02*
D03*
X868225Y671496D02*
D03*
Y704173D02*
D03*
X862933Y697852D02*
D03*
X857317Y704173D02*
D03*
X726578Y647331D02*
D03*
X717133D02*
D03*
X743094Y635754D02*
D03*
X738389Y647085D02*
D03*
X748722Y657606D02*
D03*
X761450D02*
D03*
X755479D02*
D03*
X745453Y648327D02*
D03*
X700575Y651043D02*
D03*
X779750Y710500D02*
D03*
Y704500D02*
D03*
Y698500D02*
D03*
X777083Y707500D02*
D03*
X777459Y713500D02*
D03*
X798500Y728937D02*
D03*
X774055Y728938D02*
D03*
X802327Y688504D02*
D03*
Y696378D02*
D03*
Y704252D02*
D03*
X834445Y712126D02*
D03*
Y704252D02*
D03*
Y696378D02*
D03*
Y688504D02*
D03*
Y680630D02*
D03*
Y672756D02*
D03*
X787000Y639406D02*
D03*
X943779Y473472D02*
D03*
X970823D02*
D03*
X994098Y516492D02*
D03*
X957938Y522695D02*
D03*
X960725Y525950D02*
D03*
X957780Y519054D02*
D03*
X967787Y516463D02*
D03*
X972995Y516500D02*
D03*
X975638Y512500D02*
D03*
X972937Y508500D02*
D03*
X976008Y504500D02*
D03*
X972937Y500500D02*
D03*
X964622Y491098D02*
D03*
X961000Y493600D02*
D03*
X882398Y498400D02*
D03*
X958166Y491134D02*
D03*
X955898Y498400D02*
D03*
X953000Y492400D02*
D03*
X949000Y488902D02*
D03*
X920250Y519500D02*
D03*
X920252Y495395D02*
D03*
X938760Y507500D02*
D03*
X941536Y504615D02*
D03*
X937544Y501930D02*
D03*
X884304Y523226D02*
D03*
X886544Y525643D02*
D03*
X884455Y519320D02*
D03*
X877333Y522576D02*
D03*
X894626Y516345D02*
D03*
X896753Y512717D02*
D03*
X902910Y510079D02*
D03*
X895217Y507379D02*
D03*
X899009Y504375D02*
D03*
X893985Y501363D02*
D03*
X846382Y519000D02*
D03*
Y514866D02*
D03*
X864009Y514941D02*
D03*
X866950Y512796D02*
D03*
X863911Y510079D02*
D03*
X867206Y507528D02*
D03*
X867237Y502583D02*
D03*
X906855Y473753D02*
D03*
X906860Y470115D02*
D03*
X891122Y491098D02*
D03*
X887500Y493600D02*
D03*
X884700Y491100D02*
D03*
X879500Y492400D02*
D03*
X877000Y488900D02*
D03*
X738728Y312249D02*
D03*
X727724Y298992D02*
D03*
X755900Y339177D02*
D03*
X759868D02*
D03*
X751565D02*
D03*
X737500Y346441D02*
D03*
X742500D02*
D03*
X747500Y346441D02*
D03*
X743104Y329220D02*
D03*
X725839Y344095D02*
D03*
X705026Y391910D02*
D03*
X709842Y391221D02*
D03*
X707430Y387389D02*
D03*
X712050Y387406D02*
D03*
X705841Y374914D02*
D03*
X709778Y374867D02*
D03*
X715683Y374944D02*
D03*
X707809Y372329D02*
D03*
X690499Y409486D02*
D03*
X695499D02*
D03*
X696071Y385468D02*
D03*
X674616Y369685D02*
D03*
X663000Y372272D02*
D03*
X644441Y366846D02*
D03*
X673951Y357874D02*
D03*
X676331Y354794D02*
D03*
X674449Y351969D02*
D03*
X641539Y354000D02*
D03*
X637458Y351500D02*
D03*
X641539Y349000D02*
D03*
Y344001D02*
D03*
X637441Y346500D02*
D03*
X641539Y339124D02*
D03*
X637441Y336500D02*
D03*
X641539Y333999D02*
D03*
Y329000D02*
D03*
X641316Y324000D02*
D03*
X637441Y326500D02*
D03*
X644495Y310664D02*
D03*
X666855Y316932D02*
D03*
X690000Y286862D02*
D03*
X695000D02*
D03*
X700000D02*
D03*
X705000D02*
D03*
X712500Y290839D02*
D03*
X715185Y293419D02*
D03*
X707500Y290839D02*
D03*
X702500D02*
D03*
X697500D02*
D03*
X692500D02*
D03*
X687500D02*
D03*
X682500D02*
D03*
X677500D02*
D03*
X672500D02*
D03*
X667500D02*
D03*
X703937Y323840D02*
D03*
X330256Y235976D02*
D03*
X332551Y272268D02*
D03*
X332608Y275732D02*
D03*
X329500Y279077D02*
D03*
X499465Y516555D02*
D03*
X487762Y505690D02*
D03*
X507660Y523445D02*
D03*
X499302Y523582D02*
D03*
X507920Y538700D02*
D03*
X511200D02*
D03*
X494507Y539500D02*
D03*
X482922Y512535D02*
D03*
X484455Y515312D02*
D03*
X466969Y524973D02*
D03*
Y528383D02*
D03*
X474000Y522400D02*
D03*
X464590Y538232D02*
D03*
X491657Y536735D02*
D03*
X410701Y194700D02*
D03*
Y206299D02*
D03*
X94232Y111300D02*
D03*
X82768D02*
D03*
X156732D02*
D03*
X145268D02*
D03*
X219232D02*
D03*
X207768D02*
D03*
X281732D02*
D03*
X270268D02*
D03*
X344232D02*
D03*
X332768D02*
D03*
X406732D02*
D03*
X395268D02*
D03*
X469232D02*
D03*
X457768D02*
D03*
X520268D02*
D03*
X531732D02*
D03*
X1119502Y637298D02*
D03*
X1137897Y625000D02*
D03*
X1141268Y621728D02*
D03*
X1152897Y625000D02*
D03*
X1156268Y621728D02*
D03*
X1167897Y625000D02*
D03*
X1171268Y621728D02*
D03*
X1186268D02*
D03*
X1182897Y625000D02*
D03*
X1133996Y631284D02*
D03*
X1148996D02*
D03*
X1163996D02*
D03*
X1178996D02*
D03*
X1083709Y621985D02*
D03*
X1083886Y538105D02*
D03*
X1117000Y603597D02*
D03*
X1112875Y599456D02*
D03*
X1111153Y550444D02*
D03*
X1116929Y545752D02*
D03*
X1103300Y639244D02*
D03*
Y644756D02*
D03*
X1107000Y648000D02*
D03*
X1125000Y650500D02*
D03*
X1121300Y647256D02*
D03*
X1168000Y175000D02*
D03*
X1162000Y222500D02*
D03*
X1168000Y212500D02*
D03*
X1162000Y165000D02*
D03*
X1168000Y90000D02*
D03*
X1162000Y100000D02*
D03*
X1209500Y652000D02*
D03*
Y648100D02*
D03*
Y625700D02*
D03*
Y632000D02*
D03*
Y638500D02*
D03*
X1205000Y639604D02*
D03*
X1198252Y622500D02*
D03*
X1198154Y640700D02*
D03*
X1219400Y663118D02*
D03*
X455200Y250000D02*
D03*
X434300Y215072D02*
D03*
X436000Y196000D02*
D03*
X442665Y184500D02*
D03*
X407700Y198500D02*
D03*
Y202500D02*
D03*
X425300Y198500D02*
D03*
Y202500D02*
D03*
X402500Y200500D02*
D03*
X443461Y206800D02*
D03*
X451661Y193500D02*
D03*
X473700Y200600D02*
D03*
X474000Y190900D02*
D03*
X470500Y192800D02*
D03*
X453400Y207639D02*
D03*
Y203439D02*
D03*
X457600Y207639D02*
D03*
Y203439D02*
D03*
X1106732Y24468D02*
D03*
X1073332D02*
D03*
X89000Y40100D02*
D03*
X80800Y24500D02*
D03*
X114200D02*
D03*
X82000Y53000D02*
D03*
X101800Y73800D02*
D03*
X105500D02*
D03*
X95000Y77400D02*
D03*
X91600Y64400D02*
D03*
X95800D02*
D03*
X86500Y27900D02*
D03*
X91600Y68600D02*
D03*
X95800D02*
D03*
X526500Y40100D02*
D03*
X518300Y24500D02*
D03*
X551700D02*
D03*
X539300Y73800D02*
D03*
X543000D02*
D03*
X532500Y77400D02*
D03*
X529100Y64400D02*
D03*
X533300D02*
D03*
X524000Y27900D02*
D03*
X529100Y68600D02*
D03*
X533300D02*
D03*
X464000Y40100D02*
D03*
X455800Y24500D02*
D03*
X489200D02*
D03*
X457000Y53000D02*
D03*
X476800Y73800D02*
D03*
X480500D02*
D03*
X470000Y77400D02*
D03*
X466600Y64400D02*
D03*
X470800D02*
D03*
X461500Y27900D02*
D03*
X466600Y68600D02*
D03*
X470800D02*
D03*
X401500Y40100D02*
D03*
X393300Y24500D02*
D03*
X426700D02*
D03*
X394500Y53000D02*
D03*
X414300Y73800D02*
D03*
X418000D02*
D03*
X407500Y77400D02*
D03*
X404100Y64400D02*
D03*
X408300D02*
D03*
X399000Y27900D02*
D03*
X404100Y68600D02*
D03*
X408300D02*
D03*
X339000Y40100D02*
D03*
X330800Y24500D02*
D03*
X364200D02*
D03*
X332000Y53000D02*
D03*
X351800Y73800D02*
D03*
X355500D02*
D03*
X345000Y77400D02*
D03*
X341600Y64400D02*
D03*
X345800D02*
D03*
X336500Y27900D02*
D03*
X341600Y68600D02*
D03*
X345800D02*
D03*
X276500Y40100D02*
D03*
X268300Y24500D02*
D03*
X301700D02*
D03*
X269500Y53000D02*
D03*
X289300Y73800D02*
D03*
X293000D02*
D03*
X282500Y77400D02*
D03*
X279100Y64400D02*
D03*
X283300D02*
D03*
X274000Y27900D02*
D03*
X279100Y68600D02*
D03*
X283300D02*
D03*
X158300D02*
D03*
X154100D02*
D03*
X149000Y27900D02*
D03*
X158300Y64400D02*
D03*
X154100D02*
D03*
X157500Y77400D02*
D03*
X168000Y73800D02*
D03*
X164300D02*
D03*
X144500Y53000D02*
D03*
X176700Y24500D02*
D03*
X143300D02*
D03*
X151500Y40100D02*
D03*
X214000D02*
D03*
X205800Y24500D02*
D03*
X239200D02*
D03*
X207000Y53000D02*
D03*
X226800Y73800D02*
D03*
X230500D02*
D03*
X216600Y64400D02*
D03*
X220800D02*
D03*
X211500Y27900D02*
D03*
X216600Y68600D02*
D03*
X220800D02*
D03*
X405300Y92000D02*
D03*
X84600Y88700D02*
D03*
X92800Y92000D02*
D03*
X86200Y120700D02*
D03*
X90800D02*
D03*
X86500Y114300D02*
D03*
X90500D02*
D03*
X86500Y96700D02*
D03*
X90500D02*
D03*
X465500D02*
D03*
X461500D02*
D03*
X465500Y114300D02*
D03*
X461500D02*
D03*
X465800Y120700D02*
D03*
X461200D02*
D03*
X467800Y92000D02*
D03*
X459600Y88700D02*
D03*
X528000Y96700D02*
D03*
X524000D02*
D03*
X528000Y114300D02*
D03*
X524000D02*
D03*
X528300Y120700D02*
D03*
X523700D02*
D03*
X403000Y96700D02*
D03*
X399000D02*
D03*
X403000Y114300D02*
D03*
X399000D02*
D03*
X403300Y120700D02*
D03*
X398700D02*
D03*
X397100Y88700D02*
D03*
X340500Y96700D02*
D03*
X336500D02*
D03*
X340500Y114300D02*
D03*
X336500D02*
D03*
X340800Y120700D02*
D03*
X336200D02*
D03*
X342800Y92000D02*
D03*
X334600Y88700D02*
D03*
X278000Y96700D02*
D03*
X274000D02*
D03*
X278000Y114300D02*
D03*
X274000D02*
D03*
X278300Y120700D02*
D03*
X273700D02*
D03*
X280300Y92000D02*
D03*
X272100Y88700D02*
D03*
X209600D02*
D03*
X217800Y92000D02*
D03*
X211200Y120700D02*
D03*
X215800D02*
D03*
X211500Y114300D02*
D03*
X215500D02*
D03*
X211500Y96700D02*
D03*
X215500D02*
D03*
X153000Y114300D02*
D03*
X149000D02*
D03*
Y96700D02*
D03*
X153000D02*
D03*
X147100Y88700D02*
D03*
X155300Y92000D02*
D03*
X148700Y120700D02*
D03*
X153300D02*
D03*
X1173000Y170000D02*
D03*
Y95000D02*
D03*
X1237500Y740000D02*
D03*
Y691000D02*
D03*
X1196500Y690000D02*
D03*
X1237500Y716000D02*
D03*
X1196500Y716500D02*
D03*
Y740000D02*
D03*
X1155500Y717000D02*
D03*
Y740000D02*
D03*
X1242500Y425500D02*
D03*
X1218500Y478500D02*
D03*
X1242500Y511000D02*
D03*
Y593500D02*
D03*
X1218500Y560500D02*
D03*
Y632291D02*
D03*
D186*
X569882Y288504D02*
D03*
X625000Y142835D02*
D03*
X951772Y548347D02*
D03*
X34449Y44409D02*
D03*
X1215551D02*
D03*
X34449Y705827D02*
D03*
X176181Y178268D02*
D03*
X1006890Y217638D02*
D03*
X152559Y351496D02*
D03*
X1128937Y363307D02*
D03*
X373031Y536535D02*
D03*
D187*
X1240543Y673256D02*
D03*
Y642744D02*
D03*
D188*
X1225583Y672665D02*
D03*
Y643335D02*
D03*
D189*
X1229716Y648158D02*
D03*
Y667842D02*
D03*
D190*
X95000Y710000D02*
D03*
D191*
Y720000D02*
D03*
X105000Y710000D02*
D03*
Y720000D02*
D03*
X115000Y710000D02*
D03*
Y720000D02*
D03*
X125000Y710000D02*
D03*
Y720000D02*
D03*
X135000Y710000D02*
D03*
Y720000D02*
D03*
X145000Y710000D02*
D03*
Y720000D02*
D03*
X155000Y710000D02*
D03*
Y720000D02*
D03*
X165000Y710000D02*
D03*
Y720000D02*
D03*
X175000Y710000D02*
D03*
Y720000D02*
D03*
X185000Y710000D02*
D03*
Y720000D02*
D03*
X195000Y710000D02*
D03*
Y720000D02*
D03*
X205000Y710000D02*
D03*
Y720000D02*
D03*
X215000Y710000D02*
D03*
Y720000D02*
D03*
X225000Y710000D02*
D03*
Y720000D02*
D03*
X235000Y710000D02*
D03*
Y720000D02*
D03*
X245000Y710000D02*
D03*
Y720000D02*
D03*
X255000Y710000D02*
D03*
Y720000D02*
D03*
X265000Y710000D02*
D03*
Y720000D02*
D03*
X275000Y710000D02*
D03*
Y720000D02*
D03*
X285000Y710000D02*
D03*
Y720000D02*
D03*
X295000Y710000D02*
D03*
Y720000D02*
D03*
X305000Y710000D02*
D03*
Y720000D02*
D03*
D192*
X399450Y103950D02*
D03*
Y107050D02*
D03*
X402550Y103950D02*
D03*
Y107050D02*
D03*
X527550D02*
D03*
Y103950D02*
D03*
X524450Y107050D02*
D03*
Y103950D02*
D03*
X414950Y202050D02*
D03*
X418050D02*
D03*
X414950Y198950D02*
D03*
X418050D02*
D03*
X90050Y107050D02*
D03*
Y103950D02*
D03*
X86950Y107050D02*
D03*
Y103950D02*
D03*
X149450D02*
D03*
Y107050D02*
D03*
X152550Y103950D02*
D03*
Y107050D02*
D03*
X211950Y103950D02*
D03*
Y107050D02*
D03*
X215050Y103950D02*
D03*
Y107050D02*
D03*
X274450Y103950D02*
D03*
Y107050D02*
D03*
X277550Y103950D02*
D03*
Y107050D02*
D03*
X340050D02*
D03*
Y103950D02*
D03*
X336950Y107050D02*
D03*
Y103950D02*
D03*
X465050Y107050D02*
D03*
Y103950D02*
D03*
X461950Y107050D02*
D03*
Y103950D02*
D03*
D193*
X1164370Y690079D02*
D03*
D194*
X750189Y735236D02*
D03*
X499795D02*
D03*
D195*
X240000Y637307D02*
D03*
Y647307D02*
D03*
X180500Y637307D02*
D03*
Y647307D02*
D03*
D196*
X1194000Y275000D02*
D03*
Y291535D02*
D03*
Y308071D02*
D03*
Y324606D02*
D03*
X1172346D02*
D03*
Y308071D02*
D03*
Y291535D02*
D03*
Y275000D02*
D03*
D197*
X818386Y676693D02*
D03*
Y716063D02*
D03*
X1183800Y456200D02*
D03*
D198*
X1196000Y222500D02*
D03*
X1185000Y212500D02*
D03*
Y222500D02*
D03*
X1196000Y212500D02*
D03*
D199*
X453500Y624524D02*
D03*
X443500D02*
D03*
D200*
X433500D02*
D03*
D201*
X213000Y449000D02*
D03*
X1042000Y272500D02*
D03*
X182000Y223000D02*
D03*
X532000Y185000D02*
D03*
X337000Y367000D02*
D03*
X129500Y370000D02*
D03*
X478000Y427000D02*
D03*
X870000Y229500D02*
D03*
X428000Y298000D02*
D03*
X126000Y518000D02*
D03*
X212500Y533500D02*
D03*
X242500Y454000D02*
D03*
X175000Y486000D02*
D03*
D202*
X756496Y625000D02*
D03*
D203*
X493496D02*
D03*
D204*
X1148126Y560020D02*
D03*
Y591988D02*
D03*
Y568012D02*
D03*
Y576004D02*
D03*
Y583996D02*
D03*
X1138126Y556043D02*
D03*
Y603957D02*
D03*
Y564035D02*
D03*
Y595965D02*
D03*
Y572028D02*
D03*
Y587972D02*
D03*
D205*
X1148126Y599980D02*
D03*
D206*
X1128126Y556024D02*
D03*
Y603976D02*
D03*
Y566024D02*
D03*
Y593976D02*
D03*
D207*
X1220646Y548248D02*
D03*
Y611752D02*
D03*
D208*
X1208126Y605000D02*
D03*
Y555000D02*
D03*
D209*
X1233500Y84500D02*
D03*
Y115500D02*
D03*
Y149500D02*
D03*
Y180500D02*
D03*
D210*
X1199500Y90000D02*
D03*
Y100000D02*
D03*
Y110000D02*
D03*
Y155000D02*
D03*
Y165000D02*
D03*
Y175000D02*
D03*
D211*
X1217575Y458268D02*
D03*
Y441732D02*
D03*
D212*
X1216000Y467700D02*
D03*
Y432300D02*
D03*
X1233500Y429500D02*
D03*
Y470500D02*
D03*
D213*
X391653Y362165D02*
D03*
X410114Y340231D02*
D03*
X413189Y336575D02*
D03*
X407035Y343886D02*
D03*
X403961Y347542D02*
D03*
X400882Y351198D02*
D03*
X397807Y354854D02*
D03*
X394728Y358509D02*
D03*
X188110Y331726D02*
D03*
X184744Y327127D02*
D03*
X181378Y322528D02*
D03*
X178012Y317930D02*
D03*
X174646Y313331D02*
D03*
X171280Y308733D02*
D03*
X167913Y304134D02*
D03*
D214*
X210500Y639433D02*
D03*
Y643567D02*
D03*
X206957Y641500D02*
D03*
X214043D02*
D03*
X575032Y194032D02*
D03*
X578968D02*
D03*
X575032Y197968D02*
D03*
X578968D02*
D03*
X884335Y612165D02*
D03*
Y607835D02*
D03*
X888665Y612165D02*
D03*
Y607835D02*
D03*
X955016Y511261D02*
D03*
X959347D02*
D03*
X955016Y506930D02*
D03*
X959347D02*
D03*
X1037831Y653717D02*
D03*
Y658047D02*
D03*
Y662378D02*
D03*
X1033500Y653717D02*
D03*
Y658047D02*
D03*
Y662378D02*
D03*
X1029169Y653717D02*
D03*
Y658047D02*
D03*
Y662378D02*
D03*
X325161Y255661D02*
D03*
Y251331D02*
D03*
Y247000D02*
D03*
Y242669D02*
D03*
Y238339D02*
D03*
X320831Y255661D02*
D03*
Y251331D02*
D03*
Y247000D02*
D03*
Y242669D02*
D03*
Y238339D02*
D03*
X316500Y255661D02*
D03*
Y251331D02*
D03*
Y247000D02*
D03*
Y242669D02*
D03*
Y238339D02*
D03*
X312169Y255661D02*
D03*
Y251331D02*
D03*
Y247000D02*
D03*
Y242669D02*
D03*
Y238339D02*
D03*
X307839Y255661D02*
D03*
Y251331D02*
D03*
Y247000D02*
D03*
Y242669D02*
D03*
Y238339D02*
D03*
X151000Y639433D02*
D03*
Y643567D02*
D03*
X147457Y641500D02*
D03*
X154543D02*
D03*
X881516Y511261D02*
D03*
X885847D02*
D03*
X881516Y506930D02*
D03*
X885847D02*
D03*
D215*
X393937Y253504D02*
D03*
X402137D02*
D03*
X397837Y247604D02*
D03*
D216*
X1100417Y585336D02*
D03*
X1091544D02*
D03*
X1074053D02*
D03*
X1102779Y586969D02*
D03*
Y591279D02*
D03*
X1100417Y567897D02*
D03*
X1091544Y571163D02*
D03*
X1074053D02*
D03*
X1102779Y569530D02*
D03*
Y574030D02*
D03*
X1100417Y563886D02*
D03*
Y580886D02*
D03*
D217*
X797604Y675149D02*
D03*
D286*
X977240Y326882D02*
D03*
X973500D02*
D03*
X969760Y337118D02*
D03*
X977240D02*
D03*
X969760Y326882D02*
D03*
D291*
X687240Y627598D02*
D03*
X684540D02*
D03*
X681192Y630276D02*
D03*
X678492D02*
D03*
X684539D02*
D03*
X687239D02*
D03*
X678492Y627598D02*
D03*
X681192D02*
D03*
D294*
X227100Y505500D02*
D03*
Y500500D02*
D03*
Y495500D02*
D03*
Y490500D02*
D03*
Y485500D02*
D03*
Y480500D02*
D03*
Y475500D02*
D03*
X246900D02*
D03*
Y480500D02*
D03*
Y485500D02*
D03*
Y490500D02*
D03*
Y495500D02*
D03*
Y500500D02*
D03*
Y505500D02*
D03*
D297*
X1045150Y298050D02*
D03*
Y307950D02*
D03*
X1065850D02*
D03*
Y298050D02*
D03*
Y352550D02*
D03*
Y362450D02*
D03*
X1045150D02*
D03*
Y352550D02*
D03*
X1065850Y230050D02*
D03*
Y239950D02*
D03*
X1045150D02*
D03*
Y230050D02*
D03*
Y155050D02*
D03*
Y164950D02*
D03*
X1065850D02*
D03*
Y155050D02*
D03*
D298*
X322300Y341450D02*
D03*
Y332550D02*
D03*
X306700D02*
D03*
Y341450D02*
D03*
X249973Y271408D02*
D03*
Y280308D02*
D03*
X234373D02*
D03*
Y271408D02*
D03*
X664800Y193450D02*
D03*
Y184550D02*
D03*
X649200D02*
D03*
Y193450D02*
D03*
X142200Y415550D02*
D03*
Y424450D02*
D03*
X157800D02*
D03*
Y415550D02*
D03*
D301*
X983465Y353339D02*
D03*
Y350780D02*
D03*
Y348220D02*
D03*
X966535Y345661D02*
D03*
Y348220D02*
D03*
Y350780D02*
D03*
Y353339D02*
D03*
X983465Y345661D02*
D03*
D318*
X198437Y486010D02*
D03*
X196468D02*
D03*
X194500D02*
D03*
X192532D02*
D03*
X190563D02*
D03*
Y500990D02*
D03*
X192532D02*
D03*
X194500D02*
D03*
X196468D02*
D03*
X198437D02*
D03*
D319*
X187010Y489563D02*
D03*
Y491532D02*
D03*
Y493500D02*
D03*
Y495469D02*
D03*
Y497437D02*
D03*
X201990D02*
D03*
Y495469D02*
D03*
Y493500D02*
D03*
Y491532D02*
D03*
Y489563D02*
D03*
D320*
X194500Y493500D02*
D03*
D327*
X906000Y301291D02*
D03*
Y287709D02*
D03*
D329*
X440531Y599750D02*
D03*
X442500D02*
D03*
X444468D02*
D03*
Y593250D02*
D03*
X442500D02*
D03*
X440531D02*
D03*
D339*
X951240Y52638D02*
D03*
D340*
X248025Y371427D02*
D03*
D341*
X1024335Y241968D02*
D03*
X1003665D02*
D03*
Y376500D02*
D03*
X1024335D02*
D03*
X1003665Y165000D02*
D03*
X1024335D02*
D03*
Y308000D02*
D03*
X1003665D02*
D03*
X871165Y287500D02*
D03*
X891835D02*
D03*
D342*
X360090Y339000D02*
D03*
Y344000D02*
D03*
Y349000D02*
D03*
Y354000D02*
D03*
Y359000D02*
D03*
D343*
X383910Y349000D02*
D03*
D344*
X269500Y500335D02*
D03*
Y479665D02*
D03*
D345*
X986646Y359232D02*
D03*
X992354D02*
D03*
D346*
X566500Y528043D02*
D03*
Y520957D02*
D03*
X434000Y473543D02*
D03*
Y466457D02*
D03*
X522000Y448957D02*
D03*
Y456043D02*
D03*
X379500Y511543D02*
D03*
Y504457D02*
D03*
D347*
X345200Y196031D02*
D03*
Y199969D02*
D03*
X289300Y196031D02*
D03*
Y199969D02*
D03*
X296800Y196031D02*
D03*
Y199969D02*
D03*
X304300Y196031D02*
D03*
Y199969D02*
D03*
X311800Y196031D02*
D03*
Y199969D02*
D03*
X319300Y196031D02*
D03*
Y199969D02*
D03*
X326800D02*
D03*
Y196031D02*
D03*
X334300Y199969D02*
D03*
Y196031D02*
D03*
X341800Y199969D02*
D03*
Y196031D02*
D03*
X292700D02*
D03*
Y199969D02*
D03*
X300200D02*
D03*
Y196031D02*
D03*
X307700D02*
D03*
Y199969D02*
D03*
X315200Y196031D02*
D03*
Y199969D02*
D03*
X322700Y196031D02*
D03*
Y199969D02*
D03*
X330200Y196031D02*
D03*
Y199969D02*
D03*
X337700Y196031D02*
D03*
Y199969D02*
D03*
D348*
X255000Y471559D02*
D03*
Y466441D02*
D03*
Y485441D02*
D03*
Y490559D02*
D03*
D349*
X216500Y501650D02*
D03*
Y496350D02*
D03*
D350*
X239815Y680740D02*
D03*
Y677000D02*
D03*
Y673260D02*
D03*
X229185D02*
D03*
Y677000D02*
D03*
Y680740D02*
D03*
X894815Y653740D02*
D03*
Y650000D02*
D03*
Y646260D02*
D03*
X884185D02*
D03*
Y650000D02*
D03*
Y653740D02*
D03*
X111815Y680740D02*
D03*
Y677000D02*
D03*
Y673260D02*
D03*
X101185D02*
D03*
Y677000D02*
D03*
Y680740D02*
D03*
X143815D02*
D03*
Y677000D02*
D03*
Y673260D02*
D03*
X133185D02*
D03*
Y677000D02*
D03*
Y680740D02*
D03*
X175815D02*
D03*
Y677000D02*
D03*
Y673260D02*
D03*
X165185D02*
D03*
Y677000D02*
D03*
Y680740D02*
D03*
X207815D02*
D03*
Y677000D02*
D03*
Y673260D02*
D03*
X197185D02*
D03*
Y677000D02*
D03*
Y680740D02*
D03*
D351*
X1161347Y324606D02*
D03*
X1164653D02*
D03*
X1161347Y275000D02*
D03*
X1164653D02*
D03*
X1161347Y291535D02*
D03*
X1164653D02*
D03*
X1161347Y308071D02*
D03*
X1164653D02*
D03*
D352*
X935425Y256500D02*
D03*
Y236500D02*
D03*
D353*
X900386Y246500D02*
D03*
D354*
X571941Y193047D02*
D03*
Y195016D02*
D03*
Y196984D02*
D03*
Y198953D02*
D03*
X582059Y193047D02*
D03*
Y195016D02*
D03*
Y196984D02*
D03*
Y198953D02*
D03*
D355*
X577000Y196000D02*
D03*
D356*
X1091240Y136937D02*
D03*
X1108760D02*
D03*
X1091240Y134968D02*
D03*
Y133000D02*
D03*
Y131032D02*
D03*
X1108760Y134968D02*
D03*
Y133000D02*
D03*
Y131032D02*
D03*
Y129063D02*
D03*
X1091240D02*
D03*
Y201437D02*
D03*
X1108760D02*
D03*
X1091240Y199469D02*
D03*
Y197500D02*
D03*
Y195531D02*
D03*
Y193563D02*
D03*
X1108760Y199469D02*
D03*
Y197500D02*
D03*
Y195531D02*
D03*
Y193563D02*
D03*
X210433Y317921D02*
D03*
X192913D02*
D03*
X210433Y319890D02*
D03*
Y321858D02*
D03*
Y323827D02*
D03*
Y325795D02*
D03*
X192913Y319890D02*
D03*
Y321858D02*
D03*
Y323827D02*
D03*
Y325795D02*
D03*
X701240Y163937D02*
D03*
X718760D02*
D03*
X701240Y161969D02*
D03*
Y160000D02*
D03*
Y158031D02*
D03*
Y156063D02*
D03*
X718760Y161969D02*
D03*
Y160000D02*
D03*
Y158031D02*
D03*
Y156063D02*
D03*
X510760Y308063D02*
D03*
Y310032D02*
D03*
Y312000D02*
D03*
Y313968D02*
D03*
X493240Y308063D02*
D03*
Y310032D02*
D03*
Y312000D02*
D03*
Y313968D02*
D03*
X510760Y315937D02*
D03*
X493240D02*
D03*
X89240Y473437D02*
D03*
Y471468D02*
D03*
Y469500D02*
D03*
Y467531D02*
D03*
X106760Y473437D02*
D03*
Y471468D02*
D03*
Y469500D02*
D03*
Y467531D02*
D03*
X89240Y465563D02*
D03*
X106760D02*
D03*
X1091240Y334437D02*
D03*
X1108760D02*
D03*
X1091240Y332469D02*
D03*
Y330500D02*
D03*
Y328532D02*
D03*
Y326563D02*
D03*
X1108760Y332469D02*
D03*
Y330500D02*
D03*
Y328532D02*
D03*
Y326563D02*
D03*
D357*
X886500Y610000D02*
D03*
D358*
X893980Y605079D02*
D03*
Y607047D02*
D03*
Y609016D02*
D03*
Y610984D02*
D03*
Y612953D02*
D03*
Y614921D02*
D03*
X879020D02*
D03*
Y612953D02*
D03*
Y610984D02*
D03*
Y609016D02*
D03*
Y607047D02*
D03*
Y605079D02*
D03*
D359*
X891421Y617480D02*
D03*
X889453D02*
D03*
X887484D02*
D03*
X885516D02*
D03*
X883547D02*
D03*
X881579D02*
D03*
Y602520D02*
D03*
X883547D02*
D03*
X885516D02*
D03*
X887484D02*
D03*
X889453D02*
D03*
X891421D02*
D03*
D360*
X1033500Y658047D02*
D03*
D361*
X1024740Y664937D02*
D03*
Y662968D02*
D03*
Y661000D02*
D03*
Y659031D02*
D03*
Y657063D02*
D03*
Y655094D02*
D03*
Y653126D02*
D03*
Y651158D02*
D03*
X1042260D02*
D03*
Y653126D02*
D03*
Y655094D02*
D03*
Y657063D02*
D03*
Y659031D02*
D03*
Y661000D02*
D03*
Y662968D02*
D03*
Y664937D02*
D03*
D362*
X1026610Y649287D02*
D03*
X1028579D02*
D03*
X1030547D02*
D03*
X1032516D02*
D03*
X1034484D02*
D03*
X1036453D02*
D03*
X1038421D02*
D03*
X1040390D02*
D03*
Y666807D02*
D03*
X1038421D02*
D03*
X1036453D02*
D03*
X1034484D02*
D03*
X1032516D02*
D03*
X1030547D02*
D03*
X1028579D02*
D03*
X1026610D02*
D03*
D363*
X613000Y522398D02*
D03*
Y516098D02*
D03*
X208673Y287508D02*
D03*
Y281209D02*
D03*
X339000Y335850D02*
D03*
Y342150D02*
D03*
X132500Y406150D02*
D03*
Y399850D02*
D03*
X441000Y473150D02*
D03*
Y466850D02*
D03*
X515000Y449350D02*
D03*
Y455650D02*
D03*
X372000Y511150D02*
D03*
Y504850D02*
D03*
X574000Y521350D02*
D03*
Y527650D02*
D03*
D364*
X112213Y402500D02*
D03*
Y397500D02*
D03*
Y392500D02*
D03*
Y387500D02*
D03*
Y382500D02*
D03*
X184386Y265858D02*
D03*
Y270858D02*
D03*
Y275858D02*
D03*
Y280858D02*
D03*
Y285858D02*
D03*
D365*
X88787Y392500D02*
D03*
X160961Y275858D02*
D03*
D366*
X657016Y527248D02*
D03*
X395484Y461000D02*
D03*
X560516D02*
D03*
D367*
X633984Y537248D02*
D03*
Y532248D02*
D03*
Y527248D02*
D03*
Y522248D02*
D03*
Y517248D02*
D03*
X418516Y451000D02*
D03*
Y456000D02*
D03*
Y461000D02*
D03*
Y466000D02*
D03*
Y471000D02*
D03*
X537484D02*
D03*
Y466000D02*
D03*
Y461000D02*
D03*
Y456000D02*
D03*
Y451000D02*
D03*
D368*
X1002800Y331500D02*
D03*
Y336500D02*
D03*
Y346500D02*
D03*
X1022200D02*
D03*
Y336500D02*
D03*
Y331500D02*
D03*
X1002800Y341500D02*
D03*
X1022200D02*
D03*
D369*
X190228Y527000D02*
D03*
Y522000D02*
D03*
Y517000D02*
D03*
Y512000D02*
D03*
X168772Y527000D02*
D03*
Y522000D02*
D03*
Y517000D02*
D03*
Y512000D02*
D03*
D370*
X929291Y36339D02*
D03*
X933622D02*
D03*
X975000Y41653D02*
D03*
X970669D02*
D03*
X960079Y70433D02*
D03*
X955748D02*
D03*
D371*
X546000Y62646D02*
D03*
Y68354D02*
D03*
X101500D02*
D03*
Y62646D02*
D03*
X164000Y68354D02*
D03*
Y62646D02*
D03*
X226500Y68354D02*
D03*
Y62646D02*
D03*
X289000Y68354D02*
D03*
Y62646D02*
D03*
X351500Y68354D02*
D03*
Y62646D02*
D03*
X414000Y68354D02*
D03*
Y62646D02*
D03*
X476500D02*
D03*
Y68354D02*
D03*
X539000Y62646D02*
D03*
Y68354D02*
D03*
X108500D02*
D03*
Y62646D02*
D03*
X171000Y68354D02*
D03*
Y62646D02*
D03*
X233500Y68354D02*
D03*
Y62646D02*
D03*
X296000Y68354D02*
D03*
Y62646D02*
D03*
X358500Y68354D02*
D03*
Y62646D02*
D03*
X421000Y68354D02*
D03*
Y62646D02*
D03*
X483500D02*
D03*
Y68354D02*
D03*
D372*
X358000Y224791D02*
D03*
Y236209D02*
D03*
X270000Y273709D02*
D03*
Y262291D02*
D03*
D373*
X374827Y235913D02*
D03*
Y225087D02*
D03*
X976600Y381000D02*
D03*
Y391827D02*
D03*
X991600Y381000D02*
D03*
Y391827D02*
D03*
X974500Y255087D02*
D03*
Y265913D02*
D03*
X989500Y255087D02*
D03*
Y265913D02*
D03*
X974500Y180587D02*
D03*
Y191413D02*
D03*
X989500Y180587D02*
D03*
Y191413D02*
D03*
X974500Y280087D02*
D03*
Y290913D02*
D03*
X989500Y280173D02*
D03*
Y291000D02*
D03*
X851000Y259413D02*
D03*
Y248587D02*
D03*
X866000Y259413D02*
D03*
Y248587D02*
D03*
X428827Y235913D02*
D03*
Y225087D02*
D03*
X415327Y235913D02*
D03*
Y225087D02*
D03*
X401827Y235913D02*
D03*
Y225087D02*
D03*
X388327Y235913D02*
D03*
Y225087D02*
D03*
D374*
X934449Y64823D02*
D03*
Y60492D02*
D03*
D375*
X981429Y55142D02*
D03*
X987886D02*
D03*
D376*
X794240Y694685D02*
D03*
X790500D02*
D03*
X786760D02*
D03*
Y705315D02*
D03*
X790500D02*
D03*
X794240D02*
D03*
X885760Y671815D02*
D03*
X889500D02*
D03*
X893240D02*
D03*
Y661185D02*
D03*
X889500D02*
D03*
X885760D02*
D03*
D377*
X234122Y465000D02*
D03*
X239422D02*
D03*
X238650Y514500D02*
D03*
X233350D02*
D03*
M02*
