M48
;Layer_Color=9474304
;FILE_FORMAT=2:5
INCH,LZ
;TYPE=PLATED
T6F00S00C0.02165
T8F00S00C0.03346
T12F00S00C0.03937
;TYPE=NON_PLATED
T23F00S00C0.04252
%
G90
G05
T06
G00X1241823Y0642744
M15
G01X1239264
M16
G00X1241823Y0673256
M15
G01X1239264
M16
T08
G00X1226665Y0643335
M15
G01X12245
M16
G00X1226665Y0672665
M15
G01X12245
M16
T12
G00X1218854Y04323
M15
G01X1213146
M16
G00X1236354Y04295
M15
G01X1230646
M16
G00X1236354Y04705
M15
G01X1230646
M16
G00X1218854Y04677
M15
G01X1213146
M16
T23
G00X0818386Y0676693
M15
G01Y0676693
M16
G00X0818386Y0716063
M15
G01Y0716063
M16
M17
M30
