G04*
G04 #@! TF.GenerationSoftware,Altium Limited,Altium Designer,22.10.1 (41)*
G04*
G04 Layer_Color=32896*
%FSLAX25Y25*%
%MOIN*%
G70*
G04*
G04 #@! TF.SameCoordinates,72A4C529-D447-4618-9FEB-1D22E0D21F89*
G04*
G04*
G04 #@! TF.FilePolarity,Positive*
G04*
G01*
G75*
%ADD16C,0.00591*%
%ADD18C,0.00787*%
D16*
X924469Y649319D02*
Y651681D01*
X920531Y649319D02*
X924469D01*
X920531D02*
Y651681D01*
X924469D01*
X1002508Y53216D02*
X1008807D01*
Y50067D02*
Y53216D01*
X1002508Y50067D02*
X1008807D01*
X1002508D02*
Y53216D01*
X715925Y62398D02*
X719075D01*
Y68697D01*
X715925D02*
X719075D01*
X715925Y62398D02*
Y68697D01*
Y52898D02*
X719075D01*
Y59197D01*
X715925D02*
X719075D01*
X715925Y52898D02*
Y59197D01*
X863228Y661457D02*
Y718543D01*
Y661457D02*
X916772D01*
Y718543D01*
X863228D02*
X916772D01*
X968602Y355898D02*
X981398D01*
X968602Y343102D02*
Y355898D01*
Y343102D02*
X981398D01*
Y355898D01*
X272425Y472150D02*
X275575D01*
Y465850D02*
Y472150D01*
X272425Y465850D02*
X275575D01*
X272425D02*
Y472150D01*
X1069724Y-2400D02*
X1110276D01*
X1071260Y-52400D02*
Y16301D01*
Y-52400D02*
X1108740D01*
Y16301D01*
X1071260D02*
X1108740D01*
X186524Y253284D02*
Y256433D01*
X192823D01*
Y253284D02*
Y256433D01*
X186524Y253284D02*
X192823D01*
X358150Y366925D02*
Y370075D01*
X351850Y366925D02*
X358150D01*
X351850D02*
Y370075D01*
X358150D01*
X112650Y372425D02*
Y375575D01*
X106350Y372425D02*
X112650D01*
X106350D02*
Y375575D01*
X112650D01*
X418650Y441425D02*
Y444575D01*
X412350Y441425D02*
X418650D01*
X412350D02*
Y444575D01*
X418650D01*
X536850Y479425D02*
Y482575D01*
X543150D01*
Y479425D02*
Y482575D01*
X536850Y479425D02*
X543150D01*
X417075Y511850D02*
Y518150D01*
X413925D02*
X417075D01*
X413925Y511850D02*
Y518150D01*
Y511850D02*
X417075D01*
X528925Y520150D02*
X532075D01*
Y513850D02*
Y520150D01*
X528925Y513850D02*
X532075D01*
X528925D02*
Y520150D01*
X627350Y546823D02*
X633650D01*
X627350Y543673D02*
Y546823D01*
Y543673D02*
X633650D01*
Y546823D01*
X164425Y646520D02*
X167575D01*
Y652819D01*
X164425D02*
X167575D01*
X164425Y646520D02*
Y652819D01*
X223925Y646520D02*
X227075D01*
Y652819D01*
X223925D02*
X227075D01*
X223925Y646520D02*
Y652819D01*
X487925Y555350D02*
Y561650D01*
X491075D01*
Y555350D02*
Y561650D01*
X487925Y555350D02*
X491075D01*
X509925D02*
X513075D01*
Y561650D01*
X509925D02*
X513075D01*
X509925Y555350D02*
Y561650D01*
X944630Y615996D02*
Y619146D01*
X938331D02*
X944630D01*
X938331Y615996D02*
Y619146D01*
Y615996D02*
X944630D01*
X1077425Y318850D02*
Y325150D01*
Y318850D02*
X1080575D01*
Y325150D01*
X1077425D02*
X1080575D01*
X1077425Y127650D02*
X1080575D01*
Y121350D02*
Y127650D01*
X1077425Y121350D02*
X1080575D01*
X1077425D02*
Y127650D01*
X502850Y535075D02*
X509150D01*
Y531925D02*
Y535075D01*
X502850Y531925D02*
X509150D01*
X502850D02*
Y535075D01*
X930925Y672850D02*
Y679150D01*
X934075D01*
Y672850D02*
Y679150D01*
X930925Y672850D02*
X934075D01*
X78760Y16301D02*
X116240D01*
Y-52400D02*
Y16301D01*
X78760Y-52400D02*
X116240D01*
X78760D02*
Y16301D01*
X77224Y-2400D02*
X117776D01*
X141260Y16301D02*
X178740D01*
Y-52400D02*
Y16301D01*
X141260Y-52400D02*
X178740D01*
X141260D02*
Y16301D01*
X139724Y-2400D02*
X180276D01*
X203760Y16301D02*
X241240D01*
Y-52400D02*
Y16301D01*
X203760Y-52400D02*
X241240D01*
X203760D02*
Y16301D01*
X202224Y-2400D02*
X242776D01*
X266260Y16301D02*
X303740D01*
Y-52400D02*
Y16301D01*
X266260Y-52400D02*
X303740D01*
X266260D02*
Y16301D01*
X264724Y-2400D02*
X305276D01*
X328760Y16301D02*
X366240D01*
Y-52400D02*
Y16301D01*
X328760Y-52400D02*
X366240D01*
X328760D02*
Y16301D01*
X327224Y-2400D02*
X367776D01*
X391260Y16301D02*
X428740D01*
Y-52400D02*
Y16301D01*
X391260Y-52400D02*
X428740D01*
X391260D02*
Y16301D01*
X389724Y-2400D02*
X430276D01*
X452224D02*
X492776D01*
X453760Y-52400D02*
Y16301D01*
Y-52400D02*
X491240D01*
Y16301D01*
X453760D02*
X491240D01*
X514724Y-2400D02*
X555276D01*
X516260Y-52400D02*
Y16301D01*
Y-52400D02*
X553740D01*
Y16301D01*
X516260D02*
X553740D01*
X497350Y554425D02*
Y557575D01*
Y554425D02*
X503650D01*
Y557575D01*
X497350D02*
X503650D01*
X448575Y429850D02*
Y436150D01*
X445425Y429850D02*
X448575D01*
X445425D02*
Y436150D01*
X448575D01*
X445425Y426650D02*
X448575D01*
X445425Y420350D02*
Y426650D01*
Y420350D02*
X448575D01*
Y426650D01*
X445425Y417150D02*
X448575D01*
X445425Y410850D02*
Y417150D01*
Y410850D02*
X448575D01*
Y417150D01*
X793925Y43398D02*
X797075D01*
Y49697D01*
X793925D02*
X797075D01*
X793925Y43398D02*
Y49697D01*
Y52898D02*
X797075D01*
Y59197D01*
X793925D02*
X797075D01*
X793925Y52898D02*
Y59197D01*
Y62398D02*
X797075D01*
Y68697D01*
X793925D02*
X797075D01*
X793925Y62398D02*
Y68697D01*
X696425Y43398D02*
X699575D01*
Y49697D01*
X696425D02*
X699575D01*
X696425Y43398D02*
Y49697D01*
Y52898D02*
X699575D01*
Y59197D01*
X696425D02*
X699575D01*
X696425Y52898D02*
Y59197D01*
Y62398D02*
X699575D01*
Y68697D01*
X696425D02*
X699575D01*
X696425Y62398D02*
Y68697D01*
X774425Y43398D02*
X777575D01*
Y49697D01*
X774425D02*
X777575D01*
X774425Y43398D02*
Y49697D01*
Y52898D02*
X777575D01*
Y59197D01*
X774425D02*
X777575D01*
X774425Y52898D02*
Y59197D01*
Y62398D02*
X777575D01*
Y68697D01*
X774425D02*
X777575D01*
X774425Y62398D02*
Y68697D01*
X676925Y43398D02*
X680075D01*
Y49697D01*
X676925D02*
X680075D01*
X676925Y43398D02*
Y49697D01*
Y52898D02*
X680075D01*
Y59197D01*
X676925D02*
X680075D01*
X676925Y52898D02*
Y59197D01*
Y62398D02*
X680075D01*
Y68697D01*
X676925D02*
X680075D01*
X676925Y62398D02*
Y68697D01*
X754925Y43398D02*
X758075D01*
Y49697D01*
X754925D02*
X758075D01*
X754925Y43398D02*
Y49697D01*
Y52898D02*
X758075D01*
Y59197D01*
X754925D02*
X758075D01*
X754925Y52898D02*
Y59197D01*
Y62398D02*
X758075D01*
Y68697D01*
X754925D02*
X758075D01*
X754925Y62398D02*
Y68697D01*
X657425Y43398D02*
X660575D01*
Y49697D01*
X657425D02*
X660575D01*
X657425Y43398D02*
Y49697D01*
Y52898D02*
X660575D01*
Y59197D01*
X657425D02*
X660575D01*
X657425Y52898D02*
Y59197D01*
Y62398D02*
X660575D01*
Y68697D01*
X657425D02*
X660575D01*
X657425Y62398D02*
Y68697D01*
X735425Y43398D02*
X738575D01*
Y49697D01*
X735425D02*
X738575D01*
X735425Y43398D02*
Y49697D01*
Y52898D02*
X738575D01*
Y59197D01*
X735425D02*
X738575D01*
X735425Y52898D02*
Y59197D01*
Y62398D02*
X738575D01*
Y68697D01*
X735425D02*
X738575D01*
X735425Y62398D02*
Y68697D01*
X813425Y43398D02*
X816575D01*
Y49697D01*
X813425D02*
X816575D01*
X813425Y43398D02*
Y49697D01*
Y52898D02*
X816575D01*
Y59197D01*
X813425D02*
X816575D01*
X813425Y52898D02*
Y59197D01*
Y62398D02*
X816575D01*
Y68697D01*
X813425D02*
X816575D01*
X813425Y62398D02*
Y68697D01*
X715925Y43398D02*
X719075D01*
Y49697D01*
X715925D02*
X719075D01*
X715925Y43398D02*
Y49697D01*
D18*
X1247630Y640087D02*
Y675913D01*
X1223614Y641858D02*
X1250386D01*
Y674142D01*
X1223614D02*
X1250386D01*
X1223614Y641858D02*
Y674142D01*
X979504Y328555D02*
Y335445D01*
X967496D02*
X979504D01*
X967496Y328555D02*
Y335445D01*
Y328555D02*
X979504D01*
M02*
