%TF.GenerationSoftware,Altium Limited,Altium Designer,22.6.1 (34)*%
G04 Layer_Color=128*
%FSLAX26Y26*%
%MOIN*%
%TF.SameCoordinates,08F94D22-2ED8-4738-ABBF-34BB79D8E07D*%
%TF.FilePolarity,Positive*%
%TF.FileFunction,Paste,Bot*%
%TF.Part,Single*%
G01*
G75*
%TA.AperFunction,SMDPad,CuDef*%
%ADD19R,0.035433X0.027559*%
%ADD21R,0.025984X0.024409*%
%ADD26R,0.023228X0.024409*%
%ADD27R,0.029528X0.035433*%
%ADD29R,0.021654X0.017716*%
%ADD36R,0.024409X0.025984*%
%ADD37R,0.027559X0.035433*%
%ADD41R,0.055118X0.045276*%
%ADD45R,0.037402X0.031496*%
%ADD46O,0.053150X0.011811*%
G04:AMPARAMS|DCode=50|XSize=21.654mil|YSize=31.496mil|CornerRadius=1.949mil|HoleSize=0mil|Usage=FLASHONLY|Rotation=90.000|XOffset=0mil|YOffset=0mil|HoleType=Round|Shape=RoundedRectangle|*
%AMROUNDEDRECTD50*
21,1,0.021654,0.027599,0,0,90.0*
21,1,0.017756,0.031496,0,0,90.0*
1,1,0.003898,0.013799,0.008878*
1,1,0.003898,0.013799,-0.008878*
1,1,0.003898,-0.013799,-0.008878*
1,1,0.003898,-0.013799,0.008878*
%
%ADD50ROUNDEDRECTD50*%
%ADD52R,0.023622X0.021654*%
%TA.AperFunction,ConnectorPad*%
%ADD57R,0.062992X0.192913*%
%TA.AperFunction,SMDPad,CuDef*%
%ADD68R,0.035433X0.029528*%
%ADD72R,0.049213X0.023622*%
%ADD73R,0.026000X0.009000*%
%ADD76R,0.031496X0.037402*%
%ADD83R,0.024409X0.023228*%
%ADD97R,0.039370X0.041339*%
%ADD99R,0.045276X0.055118*%
%ADD103R,0.029528X0.037008*%
%ADD185R,0.035827X0.054724*%
%ADD186R,0.016535X0.024409*%
%ADD187R,0.024409X0.016535*%
%ADD188R,0.015748X0.021654*%
G04:AMPARAMS|DCode=189|XSize=23.622mil|YSize=70.866mil|CornerRadius=2.008mil|HoleSize=0mil|Usage=FLASHONLY|Rotation=270.000|XOffset=0mil|YOffset=0mil|HoleType=Round|Shape=RoundedRectangle|*
%AMROUNDEDRECTD189*
21,1,0.023622,0.066850,0,0,270.0*
21,1,0.019606,0.070866,0,0,270.0*
1,1,0.004016,-0.033425,-0.009803*
1,1,0.004016,-0.033425,0.009803*
1,1,0.004016,0.033425,0.009803*
1,1,0.004016,0.033425,-0.009803*
%
%ADD189ROUNDEDRECTD189*%
G04:AMPARAMS|DCode=190|XSize=124.016mil|YSize=70.866mil|CornerRadius=2.126mil|HoleSize=0mil|Usage=FLASHONLY|Rotation=270.000|XOffset=0mil|YOffset=0mil|HoleType=Round|Shape=RoundedRectangle|*
%AMROUNDEDRECTD190*
21,1,0.124016,0.066614,0,0,270.0*
21,1,0.119764,0.070866,0,0,270.0*
1,1,0.004252,-0.033307,-0.059882*
1,1,0.004252,-0.033307,0.059882*
1,1,0.004252,0.033307,0.059882*
1,1,0.004252,0.033307,-0.059882*
%
%ADD190ROUNDEDRECTD190*%
G04:AMPARAMS|DCode=191|XSize=23.622mil|YSize=82.677mil|CornerRadius=2.008mil|HoleSize=0mil|Usage=FLASHONLY|Rotation=90.000|XOffset=0mil|YOffset=0mil|HoleType=Round|Shape=RoundedRectangle|*
%AMROUNDEDRECTD191*
21,1,0.023622,0.078661,0,0,90.0*
21,1,0.019606,0.082677,0,0,90.0*
1,1,0.004016,0.039331,0.009803*
1,1,0.004016,0.039331,-0.009803*
1,1,0.004016,-0.039331,-0.009803*
1,1,0.004016,-0.039331,0.009803*
%
%ADD191ROUNDEDRECTD191*%
G04:AMPARAMS|DCode=192|XSize=125.984mil|YSize=82.677mil|CornerRadius=2.067mil|HoleSize=0mil|Usage=FLASHONLY|Rotation=90.000|XOffset=0mil|YOffset=0mil|HoleType=Round|Shape=RoundedRectangle|*
%AMROUNDEDRECTD192*
21,1,0.125984,0.078543,0,0,90.0*
21,1,0.121850,0.082677,0,0,90.0*
1,1,0.004134,0.039272,0.060925*
1,1,0.004134,0.039272,-0.060925*
1,1,0.004134,-0.039272,-0.060925*
1,1,0.004134,-0.039272,0.060925*
%
%ADD192ROUNDEDRECTD192*%
%ADD193R,0.100000X0.061000*%
G04:AMPARAMS|DCode=194|XSize=11.811mil|YSize=53.15mil|CornerRadius=1.949mil|HoleSize=0mil|Usage=FLASHONLY|Rotation=270.000|XOffset=0mil|YOffset=0mil|HoleType=Round|Shape=RoundedRectangle|*
%AMROUNDEDRECTD194*
21,1,0.011811,0.049252,0,0,270.0*
21,1,0.007913,0.053150,0,0,270.0*
1,1,0.003898,-0.024626,-0.003957*
1,1,0.003898,-0.024626,0.003957*
1,1,0.003898,0.024626,0.003957*
1,1,0.003898,0.024626,-0.003957*
%
%ADD194ROUNDEDRECTD194*%
%ADD195R,0.118110X0.064961*%
%ADD196R,0.068898X0.045276*%
%ADD197R,0.326772X0.417323*%
%ADD198R,0.086614X0.041339*%
%ADD199R,0.068898X0.145669*%
%ADD200R,0.023654X0.043748*%
%ADD201R,0.128000X0.075000*%
%ADD202R,0.078000X0.022000*%
%ADD203R,0.035433X0.041339*%
G04:AMPARAMS|DCode=204|XSize=43.307mil|YSize=23.622mil|CornerRadius=2.008mil|HoleSize=0mil|Usage=FLASHONLY|Rotation=90.000|XOffset=0mil|YOffset=0mil|HoleType=Round|Shape=RoundedRectangle|*
%AMROUNDEDRECTD204*
21,1,0.043307,0.019606,0,0,90.0*
21,1,0.039291,0.023622,0,0,90.0*
1,1,0.004016,0.009803,0.019646*
1,1,0.004016,0.009803,-0.019646*
1,1,0.004016,-0.009803,-0.019646*
1,1,0.004016,-0.009803,0.019646*
%
%ADD204ROUNDEDRECTD204*%
%ADD205R,0.053150X0.015748*%
%ADD206R,0.039370X0.043307*%
%ADD207R,0.025591X0.021654*%
%ADD208R,0.015000X0.014000*%
%ADD209R,0.145669X0.068898*%
%ADD210R,0.028000X0.037000*%
%ADD211R,0.090000X0.024000*%
%ADD212R,0.037402X0.029528*%
%ADD213R,0.037000X0.028000*%
G04:AMPARAMS|DCode=214|XSize=23.622mil|YSize=57.087mil|CornerRadius=2.008mil|HoleSize=0mil|Usage=FLASHONLY|Rotation=270.000|XOffset=0mil|YOffset=0mil|HoleType=Round|Shape=RoundedRectangle|*
%AMROUNDEDRECTD214*
21,1,0.023622,0.053071,0,0,270.0*
21,1,0.019606,0.057087,0,0,270.0*
1,1,0.004016,-0.026535,-0.009803*
1,1,0.004016,-0.026535,0.009803*
1,1,0.004016,0.026535,0.009803*
1,1,0.004016,0.026535,-0.009803*
%
%ADD214ROUNDEDRECTD214*%
%ADD216R,0.035622X0.011811*%
%ADD217R,0.011811X0.035622*%
%ADD218R,0.039370X0.019685*%
%ADD219R,0.019685X0.039370*%
%ADD220O,0.009842X0.037402*%
%ADD221O,0.037402X0.009842*%
%ADD223R,0.011811X0.017716*%
%ADD224R,0.017716X0.011811*%
%ADD226R,0.009000X0.026000*%
%ADD227R,0.043307X0.043307*%
%ADD228R,0.084646X0.125984*%
%ADD229R,0.084646X0.027559*%
%ADD230R,0.063779X0.093701*%
%ADD231R,0.021654X0.013780*%
%ADD232R,0.014173X0.009842*%
%TA.AperFunction,NonConductor*%
%ADD242R,0.042520X0.042520*%
%ADD243R,0.011811X0.023622*%
%TA.AperFunction,SMDPad,CuDef*%
%ADD244R,0.001000X0.001000*%
G36*
X1941063Y4931063D02*
Y4887756D01*
X1897756D01*
Y4931063D01*
X1941063D01*
D02*
G37*
G36*
Y4982244D02*
Y4938937D01*
X1897756D01*
Y4982244D01*
X1941063D01*
D02*
G37*
G36*
X1992244Y4931063D02*
Y4887756D01*
X1948937D01*
Y4931063D01*
X1992244D01*
D02*
G37*
G36*
Y4982244D02*
Y4938937D01*
X1948937D01*
Y4982244D01*
X1992244D01*
D02*
G37*
D19*
X3710000Y6052559D02*
D03*
Y5997441D02*
D03*
X6190000Y5222598D02*
D03*
Y5167480D02*
D03*
X2016732Y2871142D02*
D03*
Y2816024D02*
D03*
X9495000Y2497559D02*
D03*
Y2442441D02*
D03*
X9355000Y2767559D02*
D03*
Y2712441D02*
D03*
X10295000Y3412441D02*
D03*
Y3467559D02*
D03*
X9590000Y3202441D02*
D03*
Y3257559D02*
D03*
Y3317441D02*
D03*
Y3372559D02*
D03*
X3970000Y6012441D02*
D03*
Y6067559D02*
D03*
X1270000Y4002441D02*
D03*
Y4057559D02*
D03*
X3445000Y3362441D02*
D03*
Y3417559D02*
D03*
D21*
X9772323Y3190000D02*
D03*
X9737677D02*
D03*
X4762677Y1145000D02*
D03*
X4797323D02*
D03*
X4762677Y1190000D02*
D03*
X4797323D02*
D03*
X4532323Y920000D02*
D03*
X4497677D02*
D03*
X4532323Y965000D02*
D03*
X4497677D02*
D03*
X5387677Y1190000D02*
D03*
X5422323D02*
D03*
X5387677Y1145000D02*
D03*
X5422323D02*
D03*
X5157323Y920000D02*
D03*
X5122677D02*
D03*
X5157323Y965000D02*
D03*
X5122677D02*
D03*
X1992677Y5065000D02*
D03*
X2027323D02*
D03*
X1982323Y4795000D02*
D03*
X1947677D02*
D03*
X10162323Y6685000D02*
D03*
X10127677D02*
D03*
X10797323Y6571000D02*
D03*
X10762677D02*
D03*
X10472677Y6480000D02*
D03*
X10507323D02*
D03*
X3477323Y1875000D02*
D03*
X3442677D02*
D03*
X3392323D02*
D03*
X3357677D02*
D03*
X3307323D02*
D03*
X3272677D02*
D03*
X3872677Y965000D02*
D03*
X3907323D02*
D03*
X4172323Y1190000D02*
D03*
X4137677D02*
D03*
X3872677Y920000D02*
D03*
X3907323D02*
D03*
X4172323Y1145000D02*
D03*
X4137677D02*
D03*
X3222323Y1875000D02*
D03*
X3187677D02*
D03*
X3247677Y920000D02*
D03*
X3282323D02*
D03*
X3547323Y1190000D02*
D03*
X3512677D02*
D03*
X3247677Y965000D02*
D03*
X3282323D02*
D03*
X3547323Y1145000D02*
D03*
X3512677D02*
D03*
X3137323Y1875000D02*
D03*
X3102677D02*
D03*
X2922323Y1145000D02*
D03*
X2887677D02*
D03*
X2622677Y920000D02*
D03*
X2657323D02*
D03*
X2922323Y1190000D02*
D03*
X2887677D02*
D03*
X2622677Y965000D02*
D03*
X2657323D02*
D03*
X3052323Y1875000D02*
D03*
X3017677D02*
D03*
X2297323Y1190000D02*
D03*
X2262677D02*
D03*
X2297323Y1145000D02*
D03*
X2262677D02*
D03*
X1997677Y965000D02*
D03*
X2032323D02*
D03*
X1997677Y920000D02*
D03*
X2032323D02*
D03*
X2967323Y1875000D02*
D03*
X2932677D02*
D03*
X1672323Y1145000D02*
D03*
X1637677D02*
D03*
X1372677Y965000D02*
D03*
X1407323D02*
D03*
X1372677Y920000D02*
D03*
X1407323D02*
D03*
X1672323Y1190000D02*
D03*
X1637677D02*
D03*
X2882323Y1875000D02*
D03*
X2847677D02*
D03*
X1047323Y1145000D02*
D03*
X1012677D02*
D03*
X1047323Y1190000D02*
D03*
X1012677D02*
D03*
X747677Y965000D02*
D03*
X782323D02*
D03*
X747677Y920000D02*
D03*
X782323D02*
D03*
X3532677Y1885000D02*
D03*
X3567323D02*
D03*
X3977323Y1965000D02*
D03*
X3942677D02*
D03*
X4357677Y1800000D02*
D03*
X4392323D02*
D03*
X3977323Y2010000D02*
D03*
X3942677D02*
D03*
X4357677Y1845000D02*
D03*
X4392323D02*
D03*
X3337323Y2565000D02*
D03*
X3302677D02*
D03*
X3337323Y2335000D02*
D03*
X3302677D02*
D03*
X3337323Y2400000D02*
D03*
X3302677D02*
D03*
X3337323Y2455000D02*
D03*
X3302677D02*
D03*
X3337323Y2510000D02*
D03*
X3302677D02*
D03*
X2957677Y2475000D02*
D03*
X2992323D02*
D03*
X2957677Y2535000D02*
D03*
X2992323D02*
D03*
X2957677Y2570000D02*
D03*
X2992323D02*
D03*
X2957677Y2335000D02*
D03*
X2992323D02*
D03*
X2957677Y2385000D02*
D03*
X2992323D02*
D03*
D26*
X4512087Y5230000D02*
D03*
X4547913D02*
D03*
X2842087Y3545000D02*
D03*
X2877913D02*
D03*
X10722913Y3243622D02*
D03*
X10687087D02*
D03*
X10722913Y1268622D02*
D03*
X10687087D02*
D03*
X4667913Y1320000D02*
D03*
X4632087D02*
D03*
X5292913D02*
D03*
X5257087D02*
D03*
X1432087Y5185000D02*
D03*
X1467913D02*
D03*
X4007087Y1320000D02*
D03*
X4042913D02*
D03*
X3382087D02*
D03*
X3417913D02*
D03*
X2132087D02*
D03*
X2167913D02*
D03*
X2757087D02*
D03*
X2792913D02*
D03*
X1507087D02*
D03*
X1542913D02*
D03*
X882087D02*
D03*
X917913D02*
D03*
X4047913Y1695000D02*
D03*
X4012087D02*
D03*
X4217913D02*
D03*
X4182087D02*
D03*
X1777087Y3912535D02*
D03*
X1812913D02*
D03*
D27*
X6281378Y5452480D02*
D03*
X6328622D02*
D03*
X1873110Y2548583D02*
D03*
X1920354D02*
D03*
X5376378Y4810000D02*
D03*
X5423622D02*
D03*
X4178622Y4430000D02*
D03*
X4131378D02*
D03*
X1118622Y3740000D02*
D03*
X1071378D02*
D03*
X3573622Y3685000D02*
D03*
X3526378D02*
D03*
D29*
X7005000Y6617717D02*
D03*
Y6582283D02*
D03*
X3567000Y1992284D02*
D03*
Y2027717D02*
D03*
X3532000Y1992284D02*
D03*
Y2027717D02*
D03*
D36*
X2176732Y3171260D02*
D03*
Y3205905D02*
D03*
X2226732Y3300905D02*
D03*
Y3266260D02*
D03*
X2176732Y3300905D02*
D03*
Y3266260D02*
D03*
X10800000Y1887323D02*
D03*
Y1852677D02*
D03*
X2590000Y3497677D02*
D03*
Y3532323D02*
D03*
X2625000Y3497677D02*
D03*
Y3532323D02*
D03*
X2300000Y3963323D02*
D03*
Y3928677D02*
D03*
X9445000Y2487323D02*
D03*
Y2452677D02*
D03*
X10325000Y3357323D02*
D03*
Y3322677D02*
D03*
X10850000Y2022323D02*
D03*
Y1987677D02*
D03*
X9955000Y3272677D02*
D03*
Y3307323D02*
D03*
X9830000Y3312677D02*
D03*
Y3347323D02*
D03*
X10850000Y3207677D02*
D03*
Y3242323D02*
D03*
Y3352323D02*
D03*
Y3317677D02*
D03*
X9620000Y3647323D02*
D03*
Y3612677D02*
D03*
X9980000Y3557677D02*
D03*
Y3592323D02*
D03*
X10850000Y1852677D02*
D03*
Y1887323D02*
D03*
Y1377323D02*
D03*
Y1342677D02*
D03*
Y1267323D02*
D03*
Y1232677D02*
D03*
X6890000Y1517677D02*
D03*
Y1552323D02*
D03*
X6940000Y1517677D02*
D03*
Y1552323D02*
D03*
Y1647323D02*
D03*
Y1612677D02*
D03*
X4740000Y827323D02*
D03*
Y792677D02*
D03*
X4790000Y827323D02*
D03*
Y792677D02*
D03*
X5365000Y827323D02*
D03*
Y792677D02*
D03*
X5415000Y827323D02*
D03*
Y792677D02*
D03*
X9545000Y5192677D02*
D03*
Y5227323D02*
D03*
X8810000Y5192677D02*
D03*
Y5227323D02*
D03*
X2605000Y4707323D02*
D03*
Y4672677D02*
D03*
X1605000Y5167323D02*
D03*
Y5132677D02*
D03*
X1600000Y6767323D02*
D03*
Y6732677D02*
D03*
X2240000D02*
D03*
Y6767323D02*
D03*
X1920000D02*
D03*
Y6732677D02*
D03*
X1280000Y6767323D02*
D03*
Y6732677D02*
D03*
X960000Y6767323D02*
D03*
Y6732677D02*
D03*
X7005000Y6652677D02*
D03*
Y6687323D02*
D03*
X10365000Y6397323D02*
D03*
Y6362677D02*
D03*
X4165000Y792677D02*
D03*
Y827323D02*
D03*
X4115000Y792677D02*
D03*
Y827323D02*
D03*
X3490000Y792677D02*
D03*
Y827323D02*
D03*
X3540000Y792677D02*
D03*
Y827323D02*
D03*
X2240000Y792677D02*
D03*
Y827323D02*
D03*
X2865000Y792677D02*
D03*
Y827323D02*
D03*
X2915000Y792677D02*
D03*
Y827323D02*
D03*
X2290000Y792677D02*
D03*
Y827323D02*
D03*
X1665000Y792677D02*
D03*
Y827323D02*
D03*
X1615000Y792677D02*
D03*
Y827323D02*
D03*
X990000Y792677D02*
D03*
Y827323D02*
D03*
X1040000Y792677D02*
D03*
Y827323D02*
D03*
X2335000Y3928677D02*
D03*
Y3963323D02*
D03*
X2265000Y3928677D02*
D03*
Y3963323D02*
D03*
X2230000Y3928677D02*
D03*
Y3963323D02*
D03*
X2195000Y3928677D02*
D03*
Y3963323D02*
D03*
X1185000Y4742677D02*
D03*
Y4777323D02*
D03*
X1135000Y4682323D02*
D03*
Y4647677D02*
D03*
Y4742677D02*
D03*
Y4777323D02*
D03*
X4865000Y3132677D02*
D03*
Y3167323D02*
D03*
Y3072323D02*
D03*
Y3037677D02*
D03*
X4815000Y3072323D02*
D03*
Y3037677D02*
D03*
X5660000Y2042323D02*
D03*
Y2007677D02*
D03*
D37*
X10092559Y3230000D02*
D03*
X10037441D02*
D03*
X10197559D02*
D03*
X10142441D02*
D03*
X4480118Y5865000D02*
D03*
X4425000D02*
D03*
X4480118Y6065000D02*
D03*
X4425000D02*
D03*
D41*
X4885000Y6148465D02*
D03*
Y6081535D02*
D03*
X4970000Y6148465D02*
D03*
Y6081535D02*
D03*
X2785000Y3481535D02*
D03*
Y3548465D02*
D03*
X2775000Y2713465D02*
D03*
Y2646535D02*
D03*
X8390000Y2506535D02*
D03*
Y2573465D02*
D03*
X2665000Y4723465D02*
D03*
Y4656535D02*
D03*
X1540000Y5183465D02*
D03*
Y5116535D02*
D03*
X1870000Y3979465D02*
D03*
Y3912535D02*
D03*
X3505000Y2338465D02*
D03*
Y2271535D02*
D03*
X6391614Y6508268D02*
D03*
Y6575197D02*
D03*
X7570000Y6046535D02*
D03*
Y6113465D02*
D03*
X7655000Y6046535D02*
D03*
Y6113465D02*
D03*
D45*
X6108189Y6562480D02*
D03*
Y6497520D02*
D03*
X6260000Y5169961D02*
D03*
Y5105000D02*
D03*
Y5325000D02*
D03*
Y5389961D02*
D03*
X4610000Y5147520D02*
D03*
Y5212480D02*
D03*
X4435000Y5147520D02*
D03*
Y5212480D02*
D03*
X1941732Y2616102D02*
D03*
Y2681063D02*
D03*
Y2941063D02*
D03*
Y2876102D02*
D03*
Y2746102D02*
D03*
Y2811063D02*
D03*
X5045000Y6137480D02*
D03*
Y6072520D02*
D03*
X8635000Y3012480D02*
D03*
Y2947520D02*
D03*
X8400000D02*
D03*
Y3012480D02*
D03*
X8485000D02*
D03*
Y2947520D02*
D03*
X8560000Y3012480D02*
D03*
Y2947520D02*
D03*
X9670000Y3662480D02*
D03*
Y3597520D02*
D03*
X4630000Y4647480D02*
D03*
Y4582520D02*
D03*
X4525000Y4717480D02*
D03*
Y4652520D02*
D03*
X4900000Y4737480D02*
D03*
Y4672520D02*
D03*
X4830000Y4737480D02*
D03*
Y4672520D02*
D03*
X6249921Y6497520D02*
D03*
Y6562480D02*
D03*
X6864016Y6497520D02*
D03*
Y6562480D02*
D03*
X6627835Y6497520D02*
D03*
Y6562480D02*
D03*
X5871968Y6497520D02*
D03*
Y6562480D02*
D03*
X7495000Y6037520D02*
D03*
Y6102480D02*
D03*
X5585000Y5342480D02*
D03*
Y5277520D02*
D03*
Y5137520D02*
D03*
Y5202480D02*
D03*
X5305000Y5342480D02*
D03*
Y5277520D02*
D03*
X3875000Y5182480D02*
D03*
Y5117520D02*
D03*
X4155000Y4977520D02*
D03*
Y5042480D02*
D03*
X3875000Y4977520D02*
D03*
Y5042480D02*
D03*
X5295000Y4432520D02*
D03*
Y4497480D02*
D03*
Y4617480D02*
D03*
Y4552520D02*
D03*
Y4737480D02*
D03*
Y4672520D02*
D03*
X4265000Y4607520D02*
D03*
Y4672480D02*
D03*
Y4487520D02*
D03*
Y4552480D02*
D03*
Y4792480D02*
D03*
Y4727520D02*
D03*
X1210000Y4127480D02*
D03*
Y4062520D02*
D03*
Y3802520D02*
D03*
Y3867480D02*
D03*
Y3932520D02*
D03*
Y3997480D02*
D03*
X3505000Y3617480D02*
D03*
Y3552520D02*
D03*
Y3292520D02*
D03*
Y3357480D02*
D03*
Y3487480D02*
D03*
Y3422520D02*
D03*
X5610000Y1947480D02*
D03*
Y1882520D02*
D03*
X5885000Y1932480D02*
D03*
Y1867520D02*
D03*
D46*
X10957598Y5729370D02*
D03*
Y5709685D02*
D03*
Y5690000D02*
D03*
Y5670315D02*
D03*
Y5650630D02*
D03*
X10782401Y5729370D02*
D03*
Y5709685D02*
D03*
Y5690000D02*
D03*
Y5670315D02*
D03*
Y5650630D02*
D03*
X10957598Y5899370D02*
D03*
Y5879685D02*
D03*
Y5860000D02*
D03*
Y5840315D02*
D03*
Y5820630D02*
D03*
X10782401Y5899370D02*
D03*
Y5879685D02*
D03*
Y5860000D02*
D03*
Y5840315D02*
D03*
Y5820630D02*
D03*
D50*
X4065197Y5042598D02*
D03*
Y5117401D02*
D03*
X3964803D02*
D03*
Y5080000D02*
D03*
Y5042598D02*
D03*
X5495197Y5277402D02*
D03*
Y5240000D02*
D03*
Y5202599D02*
D03*
X5394803D02*
D03*
Y5277402D02*
D03*
D52*
X2263465Y3208583D02*
D03*
X2230000D02*
D03*
X2263465Y3168583D02*
D03*
X2230000D02*
D03*
X10401732Y3320000D02*
D03*
X10368268D02*
D03*
X10401732Y3360000D02*
D03*
X10368268D02*
D03*
X10768268Y2025000D02*
D03*
X10801732D02*
D03*
X10768268Y1985000D02*
D03*
X10801732D02*
D03*
X10768268Y3315000D02*
D03*
X10801732D02*
D03*
X10768268Y3355000D02*
D03*
X10801732D02*
D03*
X10768268Y1380000D02*
D03*
X10801732D02*
D03*
X10768268Y1340000D02*
D03*
X10801732D02*
D03*
X6853268Y1650000D02*
D03*
X6886732D02*
D03*
X6853268Y1610000D02*
D03*
X6886732D02*
D03*
X10158268Y6610000D02*
D03*
X10191732D02*
D03*
X10253268Y6740000D02*
D03*
X10286732D02*
D03*
X1183268Y4645000D02*
D03*
X1216732D02*
D03*
X1183268Y4685000D02*
D03*
X1216732D02*
D03*
X4816732Y3170000D02*
D03*
X4783268D02*
D03*
X4816732Y3130000D02*
D03*
X4783268D02*
D03*
D57*
X10732677Y115764D02*
D03*
X4557677D02*
D03*
X4892323D02*
D03*
X5182677D02*
D03*
X5517323D02*
D03*
X11067323D02*
D03*
X4267323D02*
D03*
X3932677D02*
D03*
X3642323D02*
D03*
X3307677D02*
D03*
X3017323D02*
D03*
X2682677D02*
D03*
X2392323D02*
D03*
X2057677D02*
D03*
X1767323D02*
D03*
X1432677D02*
D03*
X1142323D02*
D03*
X807677D02*
D03*
D68*
X4155000Y5173622D02*
D03*
Y5126378D02*
D03*
X10790000Y3196378D02*
D03*
Y3243622D02*
D03*
Y1268622D02*
D03*
Y1221378D02*
D03*
X2740000Y4713622D02*
D03*
Y4666378D02*
D03*
X5305000Y5193622D02*
D03*
Y5146378D02*
D03*
D72*
X11391339Y4323228D02*
D03*
X11308661Y4360630D02*
D03*
Y4285827D02*
D03*
D73*
X3837500Y6039685D02*
D03*
Y6020000D02*
D03*
Y6000315D02*
D03*
X3902500D02*
D03*
Y6020000D02*
D03*
Y6039685D02*
D03*
D76*
X5700748Y6085000D02*
D03*
X5765709D02*
D03*
X6456732D02*
D03*
X6521693D02*
D03*
X4957520Y4985000D02*
D03*
X5022480D02*
D03*
X4602480Y4835315D02*
D03*
X4537520D02*
D03*
X4957520Y4825000D02*
D03*
X5022480D02*
D03*
X4957520Y4925000D02*
D03*
X5022480D02*
D03*
X6332520Y6085000D02*
D03*
X6397480D02*
D03*
X6002480D02*
D03*
X5937520D02*
D03*
D83*
X9670866Y417126D02*
D03*
Y381299D02*
D03*
X9521417Y703740D02*
D03*
Y739567D02*
D03*
X9383858Y608661D02*
D03*
Y644488D02*
D03*
X9372047Y363976D02*
D03*
Y328150D02*
D03*
X4533465Y642913D02*
D03*
Y607087D02*
D03*
X3908465D02*
D03*
Y642913D02*
D03*
X3283465Y607087D02*
D03*
Y642913D02*
D03*
X2658465Y607087D02*
D03*
Y642913D02*
D03*
X2033465Y607087D02*
D03*
Y642913D02*
D03*
X1408465Y607087D02*
D03*
Y642913D02*
D03*
X783465Y607087D02*
D03*
Y642913D02*
D03*
X4860000Y792087D02*
D03*
Y827913D02*
D03*
X3480000Y1802087D02*
D03*
Y1837913D02*
D03*
X2885000Y1802087D02*
D03*
Y1837913D02*
D03*
X5485000Y792087D02*
D03*
Y827913D02*
D03*
X5158465Y642913D02*
D03*
Y607087D02*
D03*
X2000000Y4627087D02*
D03*
Y4662913D02*
D03*
X3440000Y1802087D02*
D03*
Y1837913D02*
D03*
X3395000D02*
D03*
Y1802087D02*
D03*
X3355000D02*
D03*
Y1837913D02*
D03*
X3270000Y1802087D02*
D03*
Y1837913D02*
D03*
X3310000D02*
D03*
Y1802087D02*
D03*
X4235000Y827913D02*
D03*
Y792087D02*
D03*
X3225000Y1837913D02*
D03*
Y1802087D02*
D03*
X3185000D02*
D03*
Y1837913D02*
D03*
X3610000Y827913D02*
D03*
Y792087D02*
D03*
X3100000Y1802087D02*
D03*
Y1837913D02*
D03*
X3140000D02*
D03*
Y1802087D02*
D03*
X2985000Y827913D02*
D03*
Y792087D02*
D03*
X3015000Y1802087D02*
D03*
Y1837913D02*
D03*
X3055000D02*
D03*
Y1802087D02*
D03*
X2360000Y827913D02*
D03*
Y792087D02*
D03*
X2970000Y1837913D02*
D03*
Y1802087D02*
D03*
X2930000D02*
D03*
Y1837913D02*
D03*
X1735000Y827913D02*
D03*
Y792087D02*
D03*
X2845000Y1802087D02*
D03*
Y1837913D02*
D03*
X1110000Y827913D02*
D03*
Y792087D02*
D03*
X3570000Y1812087D02*
D03*
Y1847913D02*
D03*
X3530000D02*
D03*
Y1812087D02*
D03*
D97*
X2670000Y3544528D02*
D03*
Y3485472D02*
D03*
X2725000Y3544528D02*
D03*
Y3485472D02*
D03*
X2945000Y2709528D02*
D03*
Y2650472D02*
D03*
X2890000Y2709528D02*
D03*
Y2650472D02*
D03*
X2835000Y2709528D02*
D03*
Y2650472D02*
D03*
X1930000Y3916472D02*
D03*
Y3975528D02*
D03*
X2150000Y3916472D02*
D03*
Y3975528D02*
D03*
X2095000Y3916472D02*
D03*
Y3975528D02*
D03*
X2040000D02*
D03*
Y3916472D02*
D03*
X1985000Y3975528D02*
D03*
Y3916472D02*
D03*
X3445000Y2334528D02*
D03*
Y2275472D02*
D03*
X3390000Y2334528D02*
D03*
Y2275472D02*
D03*
D99*
X9813110Y621417D02*
D03*
X9880039D02*
D03*
X4746535Y1340000D02*
D03*
X4813465D02*
D03*
X4746535Y1255000D02*
D03*
X4813465D02*
D03*
X4533465Y825000D02*
D03*
X4466535D02*
D03*
X4533465Y740000D02*
D03*
X4466535D02*
D03*
X5371535Y1255000D02*
D03*
X5438465D02*
D03*
X5371535Y1340000D02*
D03*
X5438465D02*
D03*
X5158465Y740000D02*
D03*
X5091535D02*
D03*
X5158465Y825000D02*
D03*
X5091535D02*
D03*
X1998465Y4730000D02*
D03*
X1931535D02*
D03*
X3841535Y825000D02*
D03*
X3908465D02*
D03*
X4188465Y1255000D02*
D03*
X4121535D02*
D03*
X3841535Y740000D02*
D03*
X3908465D02*
D03*
X4188465Y1340000D02*
D03*
X4121535D02*
D03*
X3216535Y825000D02*
D03*
X3283465D02*
D03*
X3216535Y740000D02*
D03*
X3283465D02*
D03*
X3563465Y1255000D02*
D03*
X3496535D02*
D03*
X3563465Y1340000D02*
D03*
X3496535D02*
D03*
X2591535Y825000D02*
D03*
X2658465D02*
D03*
X2938465Y1255000D02*
D03*
X2871535D02*
D03*
X2938465Y1340000D02*
D03*
X2871535D02*
D03*
X2591535Y740000D02*
D03*
X2658465D02*
D03*
X1966535Y825000D02*
D03*
X2033465D02*
D03*
X2313465Y1340000D02*
D03*
X2246535D02*
D03*
X2313465Y1255000D02*
D03*
X2246535D02*
D03*
X1966535Y740000D02*
D03*
X2033465D02*
D03*
X1341535Y825000D02*
D03*
X1408465D02*
D03*
X1688465Y1255000D02*
D03*
X1621535D02*
D03*
X1341535Y740000D02*
D03*
X1408465D02*
D03*
X1688465Y1340000D02*
D03*
X1621535D02*
D03*
X1063465Y1255000D02*
D03*
X996535D02*
D03*
X1063465Y1340000D02*
D03*
X996535D02*
D03*
X716535Y825000D02*
D03*
X783465D02*
D03*
X716535Y740000D02*
D03*
X783465D02*
D03*
X3993465Y1795000D02*
D03*
X3926535D02*
D03*
X4341535Y1730000D02*
D03*
X4408465D02*
D03*
X3993465Y1890000D02*
D03*
X3926535D02*
D03*
X4341535Y1645000D02*
D03*
X4408465D02*
D03*
X6606168Y6090000D02*
D03*
X6673098D02*
D03*
X6110148Y6085000D02*
D03*
X6177078D02*
D03*
D103*
X11527559Y4295732D02*
D03*
X11472441D02*
D03*
X11527559Y4350744D02*
D03*
X11472441D02*
D03*
D185*
X9878858Y551418D02*
D03*
X9814291D02*
D03*
D186*
X9706693Y416535D02*
D03*
X9750000D02*
D03*
X9336220Y363386D02*
D03*
X9292913D02*
D03*
X9557480Y704331D02*
D03*
X9600787D02*
D03*
D187*
X9344488Y604921D02*
D03*
Y648228D02*
D03*
D188*
X6130000Y5160984D02*
D03*
Y5223976D02*
D03*
X2086732Y2812086D02*
D03*
Y2875079D02*
D03*
X5740000Y5276496D02*
D03*
Y5213504D02*
D03*
X3720000Y5048504D02*
D03*
Y5111496D02*
D03*
X5150000Y4556496D02*
D03*
Y4493504D02*
D03*
X4410000Y4668504D02*
D03*
Y4731496D02*
D03*
X1325000Y3998504D02*
D03*
Y4061496D02*
D03*
X3390000Y3421496D02*
D03*
Y3358504D02*
D03*
D189*
X6339842Y5172480D02*
D03*
Y5222480D02*
D03*
Y5272480D02*
D03*
Y5322480D02*
D03*
Y5372480D02*
D03*
X4185158Y4710000D02*
D03*
Y4660000D02*
D03*
Y4610000D02*
D03*
Y4560000D02*
D03*
Y4510000D02*
D03*
X5374842D02*
D03*
Y4560000D02*
D03*
Y4610000D02*
D03*
Y4660000D02*
D03*
Y4710000D02*
D03*
D190*
X6570158Y5272480D02*
D03*
X3954843Y4610000D02*
D03*
X5605158D02*
D03*
D191*
X1843858Y2858583D02*
D03*
Y2808583D02*
D03*
Y2758583D02*
D03*
Y2708583D02*
D03*
Y2658583D02*
D03*
X1122126Y3825000D02*
D03*
Y3875000D02*
D03*
Y3925000D02*
D03*
Y3975000D02*
D03*
Y4025000D02*
D03*
D192*
X1609606Y2758583D02*
D03*
X887874Y3925000D02*
D03*
D193*
X2343732Y2714083D02*
D03*
Y2803083D02*
D03*
X2499732D02*
D03*
Y2714083D02*
D03*
X1578000Y4155500D02*
D03*
Y4244500D02*
D03*
X1422000D02*
D03*
Y4155500D02*
D03*
X3067000Y3414500D02*
D03*
Y3325500D02*
D03*
X3223000D02*
D03*
Y3414500D02*
D03*
X6492000Y1934500D02*
D03*
Y1845500D02*
D03*
X6648000D02*
D03*
Y1934500D02*
D03*
D194*
X1929134Y3257953D02*
D03*
Y3238268D02*
D03*
Y3218583D02*
D03*
Y3198898D02*
D03*
X2104331Y3257953D02*
D03*
Y3238268D02*
D03*
Y3218583D02*
D03*
Y3198898D02*
D03*
X1929134Y3179213D02*
D03*
X2104331D02*
D03*
X11087598Y3265630D02*
D03*
Y3285315D02*
D03*
Y3305000D02*
D03*
Y3324685D02*
D03*
X10912401Y3265630D02*
D03*
Y3285315D02*
D03*
Y3305000D02*
D03*
Y3324685D02*
D03*
X11087598Y3344370D02*
D03*
X10912401D02*
D03*
Y1290630D02*
D03*
X11087598D02*
D03*
Y1310315D02*
D03*
Y1330000D02*
D03*
Y1349685D02*
D03*
X10912401Y1310315D02*
D03*
Y1330000D02*
D03*
Y1349685D02*
D03*
X11087598Y1369370D02*
D03*
X10912401D02*
D03*
X11087598Y1935630D02*
D03*
Y1955315D02*
D03*
Y1975000D02*
D03*
Y1994685D02*
D03*
X10912401Y1935630D02*
D03*
Y1955315D02*
D03*
Y1975000D02*
D03*
Y1994685D02*
D03*
X11087598Y2014370D02*
D03*
X10912401D02*
D03*
X7187598Y1560630D02*
D03*
Y1580315D02*
D03*
Y1600000D02*
D03*
Y1619685D02*
D03*
X7012401Y1560630D02*
D03*
Y1580315D02*
D03*
Y1600000D02*
D03*
Y1619685D02*
D03*
X7187598Y1639370D02*
D03*
X7012401D02*
D03*
X1067599Y4655630D02*
D03*
X892402D02*
D03*
X1067599Y4675315D02*
D03*
Y4695000D02*
D03*
Y4714685D02*
D03*
Y4734370D02*
D03*
X892402Y4675315D02*
D03*
Y4695000D02*
D03*
Y4714685D02*
D03*
Y4734370D02*
D03*
X4932401Y3159370D02*
D03*
X5107598D02*
D03*
X4932401Y3139685D02*
D03*
Y3120000D02*
D03*
Y3100315D02*
D03*
Y3080630D02*
D03*
X5107598Y3139685D02*
D03*
Y3120000D02*
D03*
Y3100315D02*
D03*
Y3080630D02*
D03*
D195*
X9745000Y2909134D02*
D03*
X4288268Y2250866D02*
D03*
Y2359134D02*
D03*
X3748268Y2250866D02*
D03*
Y2359134D02*
D03*
X3883268Y2250866D02*
D03*
Y2359134D02*
D03*
X4018268Y2250866D02*
D03*
Y2359134D02*
D03*
X4153268Y2250866D02*
D03*
Y2359134D02*
D03*
X8660000Y2485866D02*
D03*
Y2594134D02*
D03*
X8510000Y2485866D02*
D03*
Y2594134D02*
D03*
X9895000Y2801732D02*
D03*
Y2910000D02*
D03*
Y2659134D02*
D03*
Y2550866D02*
D03*
Y1914134D02*
D03*
Y1805866D02*
D03*
X9916000Y3918268D02*
D03*
Y3810000D02*
D03*
X9766000Y3918268D02*
D03*
Y3810000D02*
D03*
X9745000Y1914134D02*
D03*
Y1805866D02*
D03*
Y2659134D02*
D03*
Y2550866D02*
D03*
Y2800866D02*
D03*
D196*
X3580000Y2362087D02*
D03*
Y2247913D02*
D03*
X2700000Y2622913D02*
D03*
Y2737087D02*
D03*
D197*
X9003858Y2465000D02*
D03*
D198*
X9354252Y2365000D02*
D03*
Y2565000D02*
D03*
D199*
X8918346Y2875000D02*
D03*
X8711654D02*
D03*
X10243346Y3080000D02*
D03*
X10036654D02*
D03*
X10243346Y2400000D02*
D03*
X10036654D02*
D03*
X10243346Y1650000D02*
D03*
X10036654D02*
D03*
X10243346Y3765000D02*
D03*
X10036654D02*
D03*
D200*
X9060000Y2877087D02*
D03*
Y3012913D02*
D03*
D201*
X10451500Y2300500D02*
D03*
Y2399500D02*
D03*
X10658500D02*
D03*
Y2300500D02*
D03*
Y2980500D02*
D03*
Y3079500D02*
D03*
X10451500D02*
D03*
Y2980500D02*
D03*
Y3525500D02*
D03*
Y3624500D02*
D03*
X10658500D02*
D03*
Y3525500D02*
D03*
Y1550500D02*
D03*
Y1649500D02*
D03*
X10451500D02*
D03*
Y1550500D02*
D03*
D202*
X10222000Y3415000D02*
D03*
X10028000D02*
D03*
X10222000Y3315000D02*
D03*
Y3365000D02*
D03*
Y3465000D02*
D03*
X10028000D02*
D03*
Y3365000D02*
D03*
Y3315000D02*
D03*
D203*
X9923543Y3592323D02*
D03*
X9866457D02*
D03*
D204*
X9697598Y3268819D02*
D03*
X9772402Y3371181D02*
D03*
X9697598D02*
D03*
X9735000Y3268819D02*
D03*
X9772402D02*
D03*
D205*
X9834646Y3456614D02*
D03*
X9665354Y3533386D02*
D03*
Y3507795D02*
D03*
Y3482205D02*
D03*
Y3456614D02*
D03*
X9834646Y3482205D02*
D03*
Y3507795D02*
D03*
Y3533386D02*
D03*
D206*
X4835000Y683543D02*
D03*
Y626457D02*
D03*
X4765000Y683543D02*
D03*
Y626457D02*
D03*
X5390000Y683543D02*
D03*
Y626457D02*
D03*
X5460000Y683543D02*
D03*
Y626457D02*
D03*
X4210000D02*
D03*
Y683543D02*
D03*
X4140000Y626457D02*
D03*
Y683543D02*
D03*
X3585000Y626457D02*
D03*
Y683543D02*
D03*
X3515000Y626457D02*
D03*
Y683543D02*
D03*
X2890000Y626457D02*
D03*
Y683543D02*
D03*
X2960000Y626457D02*
D03*
Y683543D02*
D03*
X2265000Y626457D02*
D03*
Y683543D02*
D03*
X2335000Y626457D02*
D03*
Y683543D02*
D03*
X1640000Y626457D02*
D03*
Y683543D02*
D03*
X1710000Y626457D02*
D03*
Y683543D02*
D03*
X1085000Y626457D02*
D03*
Y683543D02*
D03*
X1015000Y626457D02*
D03*
Y683543D02*
D03*
D207*
X3268000Y1960315D02*
D03*
Y1999685D02*
D03*
X3343000Y1960315D02*
D03*
Y1999685D02*
D03*
X3002000Y1960315D02*
D03*
Y1999685D02*
D03*
X3418000Y1960315D02*
D03*
Y1999685D02*
D03*
X3452000D02*
D03*
Y1960315D02*
D03*
X3377000Y1999685D02*
D03*
Y1960315D02*
D03*
X3302000Y1999685D02*
D03*
Y1960315D02*
D03*
X3227000Y1999685D02*
D03*
Y1960315D02*
D03*
X3193000Y1999685D02*
D03*
Y1960315D02*
D03*
X3152000Y1999685D02*
D03*
Y1960315D02*
D03*
X3118000Y1999685D02*
D03*
Y1960315D02*
D03*
X3077000Y1999685D02*
D03*
Y1960315D02*
D03*
X3043000Y1999685D02*
D03*
Y1960315D02*
D03*
X2968000Y1999685D02*
D03*
Y1960315D02*
D03*
X2927000Y1999685D02*
D03*
Y1960315D02*
D03*
X2893000Y1999685D02*
D03*
Y1960315D02*
D03*
D208*
X6872394Y6302756D02*
D03*
X6845394D02*
D03*
X6784921D02*
D03*
X6811921D02*
D03*
X6845398Y6275984D02*
D03*
X6872398D02*
D03*
X6811925D02*
D03*
X6784925D02*
D03*
D209*
X2695000Y4796654D02*
D03*
Y5003346D02*
D03*
D210*
X2333500Y5145000D02*
D03*
X2386500D02*
D03*
Y4650000D02*
D03*
X2333500D02*
D03*
D211*
X2469000Y5055000D02*
D03*
Y5005000D02*
D03*
Y4955000D02*
D03*
Y4905000D02*
D03*
Y4855000D02*
D03*
Y4805000D02*
D03*
Y4755000D02*
D03*
X2271000D02*
D03*
Y4805000D02*
D03*
Y4855000D02*
D03*
Y4905000D02*
D03*
Y4955000D02*
D03*
Y5005000D02*
D03*
Y5055000D02*
D03*
D212*
X2550000Y4664409D02*
D03*
Y4715591D02*
D03*
Y4905591D02*
D03*
Y4854409D02*
D03*
D213*
X2165000Y4963500D02*
D03*
Y5016500D02*
D03*
D214*
X1687716Y5120000D02*
D03*
Y5170000D02*
D03*
Y5220000D02*
D03*
Y5270000D02*
D03*
X1902283Y5120000D02*
D03*
Y5170000D02*
D03*
Y5220000D02*
D03*
Y5270000D02*
D03*
D216*
X2019898Y4895630D02*
D03*
Y4915315D02*
D03*
Y4935000D02*
D03*
Y4954685D02*
D03*
Y4974370D02*
D03*
X1870102D02*
D03*
Y4954685D02*
D03*
Y4935000D02*
D03*
Y4915315D02*
D03*
Y4895630D02*
D03*
D217*
X1984370Y5009898D02*
D03*
X1964685D02*
D03*
X1945000D02*
D03*
X1925315D02*
D03*
X1905630D02*
D03*
Y4860102D02*
D03*
X1925315D02*
D03*
X1945000D02*
D03*
X1964685D02*
D03*
X1984370D02*
D03*
D218*
X2291850Y6807402D02*
D03*
Y6770000D02*
D03*
Y6732599D02*
D03*
X2398150D02*
D03*
Y6770000D02*
D03*
Y6807402D02*
D03*
X1971850D02*
D03*
Y6770000D02*
D03*
Y6732599D02*
D03*
X2078150D02*
D03*
Y6770000D02*
D03*
Y6807402D02*
D03*
X1331850D02*
D03*
Y6770000D02*
D03*
Y6732599D02*
D03*
X1438150D02*
D03*
Y6770000D02*
D03*
Y6807402D02*
D03*
X1651850D02*
D03*
Y6770000D02*
D03*
Y6732599D02*
D03*
X1758150D02*
D03*
Y6770000D02*
D03*
Y6807402D02*
D03*
X1011850D02*
D03*
Y6770000D02*
D03*
Y6732599D02*
D03*
X1118150D02*
D03*
Y6770000D02*
D03*
Y6807402D02*
D03*
X8841850Y6537402D02*
D03*
Y6500000D02*
D03*
Y6462599D02*
D03*
X8948150D02*
D03*
Y6500000D02*
D03*
Y6537402D02*
D03*
D219*
X8857598Y6611850D02*
D03*
X8895000D02*
D03*
X8932401D02*
D03*
Y6718150D02*
D03*
X8895000D02*
D03*
X8857598D02*
D03*
X7942402Y7053150D02*
D03*
X7905000D02*
D03*
X7867599D02*
D03*
Y6946850D02*
D03*
X7905000D02*
D03*
X7942402D02*
D03*
D220*
X8914212Y6025197D02*
D03*
X8894528D02*
D03*
X8874843D02*
D03*
X8855157D02*
D03*
X8835472D02*
D03*
X8815787D02*
D03*
Y6174803D02*
D03*
X8835472D02*
D03*
X8855157D02*
D03*
X8874843D02*
D03*
X8894528D02*
D03*
X8914212D02*
D03*
D221*
X8790197Y6050788D02*
D03*
Y6070472D02*
D03*
Y6090158D02*
D03*
Y6109843D02*
D03*
Y6129528D02*
D03*
Y6149213D02*
D03*
X8939803D02*
D03*
Y6129528D02*
D03*
Y6109843D02*
D03*
Y6090158D02*
D03*
Y6070472D02*
D03*
Y6050788D02*
D03*
D223*
X10266102Y6668071D02*
D03*
X10285787D02*
D03*
X10305472D02*
D03*
X10325157D02*
D03*
X10344843D02*
D03*
X10364528D02*
D03*
X10384213D02*
D03*
X10403898D02*
D03*
Y6492874D02*
D03*
X10384213D02*
D03*
X10364528D02*
D03*
X10344843D02*
D03*
X10325157D02*
D03*
X10305472D02*
D03*
X10285787D02*
D03*
X10266102D02*
D03*
D224*
X10422599Y6649370D02*
D03*
Y6629685D02*
D03*
Y6610000D02*
D03*
Y6590315D02*
D03*
Y6570630D02*
D03*
Y6550945D02*
D03*
Y6531260D02*
D03*
Y6511575D02*
D03*
X10247402D02*
D03*
Y6531260D02*
D03*
Y6550945D02*
D03*
Y6570630D02*
D03*
Y6590315D02*
D03*
Y6610000D02*
D03*
Y6629685D02*
D03*
Y6649370D02*
D03*
D226*
X4405315Y5932500D02*
D03*
X4425000D02*
D03*
X4444685D02*
D03*
Y5997500D02*
D03*
X4425000D02*
D03*
X4405315D02*
D03*
D227*
X5665000Y5209567D02*
D03*
Y5280433D02*
D03*
X3795000Y5044567D02*
D03*
Y5115433D02*
D03*
X5220000Y4560433D02*
D03*
Y4489567D02*
D03*
X4340000Y4664567D02*
D03*
Y4735433D02*
D03*
D228*
X3839095Y3490000D02*
D03*
D229*
X3600905Y3590000D02*
D03*
Y3540000D02*
D03*
Y3490000D02*
D03*
Y3440000D02*
D03*
Y3390000D02*
D03*
D230*
X5770000Y1960000D02*
D03*
D231*
X5820591Y1989527D02*
D03*
Y1969842D02*
D03*
Y1950157D02*
D03*
Y1930472D02*
D03*
X5719409Y1989527D02*
D03*
Y1969842D02*
D03*
Y1950157D02*
D03*
Y1930472D02*
D03*
D232*
X11646535Y3246063D02*
D03*
X11613465D02*
D03*
X11646535Y3080709D02*
D03*
X11613465D02*
D03*
X11646535Y2915354D02*
D03*
X11613465D02*
D03*
X11646535Y2750000D02*
D03*
X11613465D02*
D03*
D242*
X8840980Y6124404D02*
D03*
X8840979Y6075595D02*
D03*
X8889808Y6124405D02*
D03*
X8889808Y6075596D02*
D03*
D243*
X10305350Y6540786D02*
D03*
X10325075D02*
D03*
X10344778Y6540768D02*
D03*
X10364463D02*
D03*
X10384148D02*
D03*
X10305332Y6580177D02*
D03*
X10325056D02*
D03*
X10344760Y6580159D02*
D03*
X10364445D02*
D03*
X10384130D02*
D03*
X10285704Y6540786D02*
D03*
X10285686Y6580177D02*
D03*
X10384130Y6619568D02*
D03*
X10364445D02*
D03*
X10344760D02*
D03*
X10325056Y6619586D02*
D03*
X10305332Y6619602D02*
D03*
X10285704Y6619617D02*
D03*
D244*
X1945000Y4935000D02*
D03*
%TF.MD5,3a25ac14ed86161d3dfc487b367ccb18*%
M02*
