%TF.GenerationSoftware,Altium Limited,Altium Designer,22.6.1 (34)*%
G04 Layer_Physical_Order=4*
G04 Layer_Color=6736896*
%FSLAX26Y26*%
%MOIN*%
%TF.SameCoordinates,08F94D22-2ED8-4738-ABBF-34BB79D8E07D*%
%TF.FilePolarity,Positive*%
%TF.FileFunction,Copper,L4,Inr,Signal*%
%TF.Part,Single*%
G01*
G75*
%TA.AperFunction,Conductor*%
%ADD112C,0.009842*%
%ADD114C,0.007874*%
%ADD115C,0.010000*%
%ADD118C,0.005984*%
%ADD121C,0.019685*%
%ADD124C,0.006142*%
%TA.AperFunction,ComponentPad*%
%ADD142R,0.067913X0.067913*%
%ADD143C,0.020000*%
%ADD144C,0.096457*%
%ADD145C,0.078740*%
%ADD146R,0.054685X0.054685*%
%ADD147C,0.054685*%
%ADD148C,0.031496*%
G04:AMPARAMS|DCode=149|XSize=57.087mil|YSize=78.74mil|CornerRadius=28.543mil|HoleSize=0mil|Usage=FLASHONLY|Rotation=90.000|XOffset=0mil|YOffset=0mil|HoleType=Round|Shape=RoundedRectangle|*
%AMROUNDEDRECTD149*
21,1,0.057087,0.021654,0,0,90.0*
21,1,0.000000,0.078740,0,0,90.0*
1,1,0.057087,0.010827,0.000000*
1,1,0.057087,0.010827,0.000000*
1,1,0.057087,-0.010827,0.000000*
1,1,0.057087,-0.010827,0.000000*
%
%ADD149ROUNDEDRECTD149*%
G04:AMPARAMS|DCode=150|XSize=45.276mil|YSize=70.866mil|CornerRadius=22.638mil|HoleSize=0mil|Usage=FLASHONLY|Rotation=90.000|XOffset=0mil|YOffset=0mil|HoleType=Round|Shape=RoundedRectangle|*
%AMROUNDEDRECTD150*
21,1,0.045276,0.025590,0,0,90.0*
21,1,0.000000,0.070866,0,0,90.0*
1,1,0.045276,0.012795,0.000000*
1,1,0.045276,0.012795,0.000000*
1,1,0.045276,-0.012795,0.000000*
1,1,0.045276,-0.012795,0.000000*
%
%ADD150ROUNDEDRECTD150*%
%ADD151C,0.055000*%
%ADD152C,0.154000*%
%ADD153C,0.064961*%
%ADD154R,0.064961X0.064961*%
%ADD155C,0.060000*%
G04:AMPARAMS|DCode=156|XSize=62.992mil|YSize=120.079mil|CornerRadius=15.748mil|HoleSize=0mil|Usage=FLASHONLY|Rotation=90.000|XOffset=0mil|YOffset=0mil|HoleType=Round|Shape=RoundedRectangle|*
%AMROUNDEDRECTD156*
21,1,0.062992,0.088583,0,0,90.0*
21,1,0.031496,0.120079,0,0,90.0*
1,1,0.031496,0.044291,0.015748*
1,1,0.031496,0.044291,-0.015748*
1,1,0.031496,-0.044291,-0.015748*
1,1,0.031496,-0.044291,0.015748*
%
%ADD156ROUNDEDRECTD156*%
%ADD157C,0.028543*%
%ADD158C,0.083000*%
%ADD159C,0.063000*%
%ADD160C,0.100000*%
%ADD161C,0.300000*%
%ADD162C,0.110000*%
%ADD163C,0.042520*%
%ADD164C,0.124016*%
%ADD165C,0.094488*%
%ADD166C,0.059843*%
%ADD167C,0.055118*%
G04:AMPARAMS|DCode=168|XSize=55.118mil|YSize=55.118mil|CornerRadius=13.78mil|HoleSize=0mil|Usage=FLASHONLY|Rotation=270.000|XOffset=0mil|YOffset=0mil|HoleType=Round|Shape=RoundedRectangle|*
%AMROUNDEDRECTD168*
21,1,0.055118,0.027559,0,0,270.0*
21,1,0.027559,0.055118,0,0,270.0*
1,1,0.027559,-0.013780,-0.013780*
1,1,0.027559,-0.013780,0.013780*
1,1,0.027559,0.013780,0.013780*
1,1,0.027559,0.013780,-0.013780*
%
%ADD168ROUNDEDRECTD168*%
%TA.AperFunction,ViaPad*%
%ADD169C,0.021654*%
%ADD170C,0.040000*%
%ADD171C,0.019000*%
%ADD172C,0.027559*%
%ADD173C,0.030000*%
%ADD174C,0.019685*%
%TA.AperFunction,Conductor*%
%ADD178C,0.003661*%
%ADD179C,0.003661*%
%ADD180C,0.003661*%
%ADD181C,0.004027*%
D112*
X5766396Y2183465D02*
G03*
X5773329Y2186321I0J9842D01*
G01*
X6556045Y2964961D02*
G03*
X6549112Y2962104I0J-9842D01*
G01*
X5801041Y2134252D02*
G03*
X5807975Y2137109I0J9842D01*
G01*
X6583329Y2908386D02*
G03*
X6576395Y2905529I0J-9842D01*
G01*
X5102896Y2134252D02*
G03*
X5095936Y2131369I0J-9842D01*
G01*
X5741732Y2234252D02*
X6548425Y3040945D01*
X7189370D01*
X5563386Y1038976D02*
X5767323Y1242913D01*
X5563386Y803937D02*
Y1038976D01*
X5198000Y618142D02*
Y685000D01*
Y618142D02*
X5250787Y565354D01*
X5324803D01*
X5563386Y803937D01*
X5325000Y878543D02*
X5744095Y1297638D01*
X6330709D01*
X5767323Y1242913D02*
X6353937Y1242913D01*
X6558661Y1447638D01*
X6330709Y1297638D02*
X6487795Y1454724D01*
X6558661Y1447638D02*
Y2109843D01*
X6487795Y1454724D02*
Y2128740D01*
X6558661Y2109843D02*
X7025000Y2576181D01*
X6487795Y2128740D02*
X6975000Y2615945D01*
X6245276Y2029528D02*
X6925000Y2709252D01*
X6975000Y2615945D02*
Y2908386D01*
X6925000Y2709252D02*
Y2908386D01*
X6174016Y2057480D02*
X6875000Y2758465D01*
Y2908386D01*
X7025000Y2576181D02*
Y2908386D01*
X5325000Y774000D02*
Y878543D01*
X4573000Y618338D02*
Y685000D01*
Y618338D02*
X4625591Y565748D01*
X4691732D01*
X4925197Y799213D01*
Y1004724D01*
X4987402Y1066929D02*
Y1407874D01*
X4925197Y1004724D02*
X4987402Y1066929D01*
X5045276Y1465748D02*
X5948819D01*
X4987402Y1407874D02*
X5045276Y1465748D01*
X5948819D02*
X6245276Y1762205D01*
Y2029528D01*
X4700000Y774000D02*
Y879528D01*
X4930709Y1110236D01*
Y1444488D01*
X5045275Y1559055D01*
X5934252Y1559055D01*
X6174016Y1798819D01*
X4834646Y1634646D02*
X5881496Y1634646D01*
X6174016Y1798819D02*
Y2057480D01*
X6825000Y2807283D02*
Y2908386D01*
X6818367Y2800650D02*
X6825000Y2807283D01*
X6087402Y2069685D02*
X6818367Y2800650D01*
X6818367D01*
X6087402Y1840551D02*
Y2069685D01*
X5881496Y1634646D02*
X6087402Y1840551D01*
X3948000Y631528D02*
Y685000D01*
Y631528D02*
X4017717Y561811D01*
X4074410D01*
X4290551Y777953D01*
Y1010236D01*
X4374409Y1094094D01*
Y1360630D02*
X4436220Y1422441D01*
X4374409Y1094094D02*
Y1360630D01*
X4436220Y1422441D02*
X4622441D01*
X4834646Y1634646D01*
X6015354Y2088976D02*
X6775000Y2848622D01*
Y2908386D01*
X4316535Y1129921D02*
Y1386220D01*
X4075000Y774000D02*
Y888386D01*
X4316535Y1129921D01*
Y1386220D02*
X4398819Y1468504D01*
X4595276D01*
X4885039Y1758268D01*
X5908268Y1758268D01*
X6015354Y1865354D01*
Y2088976D01*
X6529528Y2798819D02*
X6678740D01*
X6725000Y2845079D02*
Y2908386D01*
X6678740Y2798819D02*
X6725000Y2845079D01*
X3377559Y564173D02*
X3441339D01*
X3323000Y618732D02*
Y685000D01*
Y618732D02*
X3377559Y564173D01*
X3441339D02*
X3666929Y789764D01*
Y1029527D01*
X3752756Y1115354D01*
Y1415748D01*
X3698425Y1142913D02*
Y1423228D01*
X3450000Y894488D02*
X3698425Y1142913D01*
X3752756Y1415748D02*
X3877165Y1540158D01*
X4571260D01*
X3857086Y1581890D02*
X4546457Y1581890D01*
X4571260Y1540158D02*
X5118898Y2087795D01*
X5818504D01*
X6529528Y2798819D01*
X6556045Y2964961D02*
X7096063D01*
X4837795Y2183465D02*
X5766396D01*
X5773329Y2186321D02*
X6549112Y2962104D01*
X5807975Y2137109D02*
X6576395Y2905529D01*
X6583329Y2908386D02*
X6675000D01*
X5102896Y2134252D02*
X5801041D01*
X4546457Y1581890D02*
X5095936Y2131369D01*
X3450000Y774000D02*
Y894488D01*
X3698425Y1423228D02*
X3857086Y1581890D01*
X4434614Y2068000D02*
Y2068472D01*
X4507087Y2140945D01*
X4611417D01*
X4704724Y2234252D01*
X5741732D01*
X7189370Y3040945D02*
X7216535Y3013780D01*
Y2892126D02*
Y3013780D01*
X7191732Y2867323D02*
X7216535Y2892126D01*
X7075000Y2908386D02*
X7116063Y2867323D01*
X7191732D01*
X4516614Y1935000D02*
X4589331D01*
X4837795Y2183465D01*
X7096063Y2964961D02*
X7125000Y2936024D01*
Y2908386D02*
Y2936024D01*
D114*
X6946923Y5974337D02*
Y6025398D01*
Y5974337D02*
X6953937Y5967323D01*
X7024409D01*
X7215354Y6158268D01*
X7370472D02*
X7721654Y6509449D01*
X7215354Y6158268D02*
X7370472D01*
X7721654Y6509449D02*
X8389764D01*
X7705512Y6546063D02*
X8401575D01*
X8574409Y6373228D01*
X9540157D01*
X8561417Y6337795D02*
X9564173D01*
X9540157Y6373228D02*
X9906929Y6740000D01*
X8389764Y6509449D02*
X8561417Y6337795D01*
X9564173D02*
X9836378Y6610000D01*
X10126898D01*
X7348032Y6188583D02*
X7705512Y6546063D01*
X6970315Y5994723D02*
X7012833D01*
X7206693Y6188583D01*
X7348032D01*
X9906929Y6740000D02*
X10214345D01*
D115*
X3656299Y1784646D02*
Y2145669D01*
X921654Y1550787D02*
X3422441D01*
X3656299Y1784646D01*
X3698425Y1773622D02*
Y2127559D01*
X3446850Y1522047D02*
X3698425Y1773622D01*
X939370Y1522047D02*
X3446850D01*
X3464567Y1492126D02*
X3737795Y1765354D01*
X1363780Y1492126D02*
X3464567D01*
X3737795Y1765354D02*
Y2111811D01*
X1403937Y1454331D02*
X3472441D01*
X3775591Y1757480D02*
Y2103937D01*
X3472441Y1454331D02*
X3775591Y1757480D01*
X3983465Y2356693D02*
X4330315Y2703543D01*
X5286614D01*
X6214016Y3540000D02*
X6415394D01*
X6136614Y3331496D02*
X6245127Y3440009D01*
X6223858Y3489999D02*
X6415394D01*
X6079921Y3196457D02*
Y3346063D01*
X6223858Y3489999D01*
X5286614Y2703543D02*
X5636220Y3053150D01*
X6033071Y3359055D02*
X6214016Y3540000D01*
X6033071Y3214567D02*
Y3359055D01*
X6269189Y3391236D02*
X6415394D01*
X6245127Y3440009D02*
X6415394D01*
X6189370Y3311417D02*
X6269189Y3391236D01*
X6189370Y3108662D02*
Y3311417D01*
X6136614Y3118110D02*
Y3331496D01*
X5871654Y3053150D02*
X6033071Y3214567D01*
X5636220Y3053150D02*
X5871654D01*
X4385827Y2303149D02*
X5691339Y2303150D01*
X6415394Y3027205D01*
Y3139990D01*
X3803937Y1737008D02*
Y2075197D01*
X1977559Y1416535D02*
X3483465D01*
X3803937Y1737008D01*
X2019291Y1374803D02*
X3501181D01*
X3841732Y1715354D01*
Y2059449D01*
X555512Y751575D02*
Y1184646D01*
Y751575D02*
X622087Y685000D01*
X555512Y1184646D02*
X921654Y1550787D01*
X606693Y1189370D02*
X939370Y1522047D01*
X622087Y685000D02*
X823000D01*
X1180315Y1308661D02*
X1363780Y1492126D01*
X3656299Y2145669D02*
X3867323Y2356693D01*
X3983465D01*
X5657087Y2998819D02*
X5882283D01*
X5311417Y2653150D02*
X5657087Y2998819D01*
X4350000Y2653150D02*
X5311417D01*
X4015748Y2318898D02*
X4350000Y2653150D01*
X3889764Y2318898D02*
X4015748D01*
X3698425Y2127559D02*
X3889764Y2318898D01*
X606693Y839764D02*
Y1189370D01*
X672457Y774000D02*
X950000D01*
X606693Y839764D02*
X672457Y774000D01*
X5882283Y2998819D02*
X6079921Y3196457D01*
X3841732Y2059449D02*
X3953149Y2170866D01*
X3938189Y1758268D02*
Y2070866D01*
X3459843Y1279921D02*
X3938189Y1758268D01*
X2613386Y1279921D02*
X3459843D01*
X3974803Y1745669D02*
Y2037402D01*
X2644882Y1230709D02*
X3459843D01*
X3974803Y1745669D01*
X1244528Y685000D02*
X1448000D01*
X1180315Y749213D02*
X1244528Y685000D01*
X1180315Y749213D02*
Y1308661D01*
X3737795Y2111811D02*
X3913386Y2287402D01*
X4039764D01*
X4351968Y2599606D01*
X5618110Y2599606D01*
X6136614Y3118110D01*
X5609842Y2529134D02*
X6189370Y3108662D01*
X4361417Y2529134D02*
X5609842D01*
X3775591Y2103937D02*
X3921653Y2250000D01*
X4082284D02*
X4361417Y2529134D01*
X3921653Y2250000D02*
X4082284D01*
X1242913Y1293307D02*
X1403937Y1454331D01*
X1242913Y824409D02*
Y1293307D01*
Y824409D02*
X1293323Y774000D01*
X1575000D01*
X1814567Y1253543D02*
X1977559Y1416535D01*
X1814567Y735827D02*
Y1253543D01*
X1814567Y1253543D01*
X3803937Y2075197D02*
X3936220Y2207480D01*
X3938189Y2070866D02*
X3996850Y2129528D01*
X4167323D01*
X3953149Y2170866D02*
X4138976D01*
X3936220Y2207480D02*
X4104724D01*
X4342126Y2444882D01*
X5595276D01*
X6242913Y3092520D01*
Y3286614D02*
X6296289Y3339990D01*
X6242913Y3092520D02*
Y3286614D01*
X1814567Y735827D02*
X1865394Y685000D01*
X2073000D01*
X1864173Y1219685D02*
X2019291Y1374803D01*
X4370866Y2402756D02*
X5620866Y2402756D01*
X4138976Y2170866D02*
X4370866Y2402756D01*
X6296289Y3339990D02*
X6415394D01*
X1864173Y813386D02*
Y1219685D01*
Y813386D02*
X1903559Y774000D01*
X2200000Y774000D01*
X5620866Y2402756D02*
X6292126Y3074016D01*
Y3235433D01*
X6346693Y3290000D01*
X6355905Y3039370D02*
Y3170079D01*
X6375846Y3190020D01*
X6415394D01*
X6346693Y3290000D02*
X6415394D01*
X2510669Y685000D02*
X2698000D01*
X2422835Y772835D02*
Y1089370D01*
Y772835D02*
X2510669Y685000D01*
X2422835Y1089370D02*
X2613386Y1279921D01*
X4167323Y2129528D02*
X4379528Y2341732D01*
X4177559Y2094882D02*
X4385827Y2303149D01*
X4379528Y2341732D02*
X5658268D01*
X6355905Y3039370D01*
X3974803Y2037402D02*
X4032283Y2094882D01*
X2474803Y1060630D02*
X2644882Y1230709D01*
X2532693Y774000D02*
X2825000D01*
X2474803Y831890D02*
X2532693Y774000D01*
X2474803Y1060630D02*
X2474803Y831890D01*
X4032283Y2094882D02*
X4177559D01*
D118*
X3129377Y2659206D02*
X3387477D01*
X2884252Y2904331D02*
X3129377Y2659206D01*
X2624016Y2904331D02*
X2884252D01*
X2507677Y3020669D02*
X2624016Y2904331D01*
X2507677Y3020669D02*
Y3209507D01*
X3133822Y2688225D02*
X3360351D01*
X2888583Y2933465D02*
X3133822Y2688225D01*
X2632284Y2933465D02*
X2888583D01*
X2542323Y3023425D02*
X2632284Y2933465D01*
X2542323Y3023425D02*
Y3209507D01*
D121*
X3031055Y1706217D02*
X3395393D01*
X2895533Y1714781D02*
X3022491D01*
X3031055Y1706217D01*
X3556645Y1731841D02*
Y1742963D01*
X3500000Y1711417D02*
X3536220D01*
X3556645Y1731841D01*
X3480377Y1718762D02*
X3492656D01*
X3480000Y1719138D02*
X3480377Y1718762D01*
X3492656D02*
X3500000Y1711417D01*
X3479890Y1719028D02*
X3480000Y1719138D01*
X3408736Y1719028D02*
X3479890D01*
X1161811Y3901968D02*
X1624409Y4364567D01*
X2174803D02*
X2260000Y4449764D01*
X1624409Y4364567D02*
X2174803D01*
X2260000Y4449764D02*
Y4632115D01*
X3408626Y1718918D02*
X3408736Y1719028D01*
X3395393Y1706217D02*
X3408093Y1718918D01*
X3408626D01*
X2142306Y1714781D02*
X2895533Y1714781D01*
X1333071Y2524016D02*
X2142306Y1714781D01*
X1333071Y2524016D02*
Y3283071D01*
X1161811Y3454331D02*
X1333071Y3283071D01*
X1161811Y3454331D02*
Y3901968D01*
D124*
X9677165Y574803D02*
Y618110D01*
X9653150Y642126D02*
X9677165Y618110D01*
X9653150Y642126D02*
Y902362D01*
X8174409Y2381102D02*
X9653150Y902362D01*
X3470079Y5475591D02*
X5087008D01*
X3232284Y5237796D02*
X3470079Y5475591D01*
X5081102Y5572047D02*
X5401968Y5892913D01*
X6209449Y5892913D01*
X11463386Y2580315D02*
X11680000Y2363701D01*
X10839764Y4420866D02*
X11463386Y3797244D01*
Y2580315D02*
Y3797244D01*
X10397638Y5296850D02*
X10839764Y4854724D01*
Y4420866D02*
Y4854724D01*
X9593701Y5296850D02*
X10397638D01*
X9578740Y5281890D02*
X9593701Y5296850D01*
X9578740Y5227596D02*
X9579383Y5226953D01*
X9578740Y5227596D02*
Y5281890D01*
X10803150Y4409055D02*
Y4836221D01*
X9607248Y5259496D02*
X10379874Y5259496D01*
X10803150Y4836221D01*
Y4409055D02*
X11429921Y3782284D01*
X11429921Y2555905D01*
X11680000Y2125000D02*
Y2363701D01*
X11429921Y2555905D02*
X11620000Y2365827D01*
Y2225000D02*
Y2365827D01*
X4979359Y4713949D02*
Y4738533D01*
Y4713949D02*
X5048819Y4644488D01*
X4945669Y4710236D02*
Y5093701D01*
X4914026Y5125345D02*
X4945669Y5093701D01*
Y4710236D02*
X5024409Y4631496D01*
X5048819Y4206693D02*
Y4644488D01*
Y4206693D02*
X5196457Y4059055D01*
X5185827Y4032677D02*
X5401575D01*
X5024409Y4194095D02*
X5185827Y4032677D01*
X4902362Y3966929D02*
X5417323D01*
X4915748Y3998425D02*
X5411811D01*
X4555118Y4359055D02*
X4915748Y3998425D01*
X5196457Y4059055D02*
X5392913D01*
X5568898Y4235039D01*
X7006299D01*
X7120499Y4120839D01*
X5580709Y4211811D02*
X6997638D01*
X5401575Y4032677D02*
X5580709Y4211811D01*
X6997638D02*
X7098425Y4111024D01*
X7120499Y3874059D02*
Y4120839D01*
X7098425Y3912209D02*
Y4111024D01*
X4829223Y5125345D02*
X4914026D01*
X5024409Y4194095D02*
Y4631496D01*
X5604724Y4191339D02*
X6986221D01*
X5411811Y3998425D02*
X5604724Y4191339D01*
X6986221D02*
X7074300Y4103259D01*
X5417323Y3966929D02*
X5618110Y4167717D01*
X6979134D01*
X7050258Y4096592D01*
X7074300Y3873886D02*
Y4103259D01*
X4654451Y5249726D02*
X4669695D01*
X4644095Y5239370D02*
X4654451Y5249726D01*
X4644095Y5177165D02*
Y5239370D01*
X4600000Y5133071D02*
X4644095Y5177165D01*
X3735433Y4642126D02*
X4440945Y5347638D01*
X4766929D01*
X3735433Y4642124D02*
Y4642126D01*
Y4642124D02*
X3735433Y4199212D01*
X4766929Y5347638D02*
X4838583Y5275984D01*
X4421259Y5361811D02*
X4784646D01*
X4261811Y5202362D02*
X4421259Y5361811D01*
X4784646D02*
X4841732Y5304724D01*
X4600000Y4911024D02*
Y5133071D01*
X4555118Y4866142D02*
X4600000Y4911024D01*
X4555118Y4359055D02*
Y4866142D01*
X4523228Y4888757D02*
X4539628Y4905158D01*
X4523228Y4346063D02*
Y4888757D01*
Y4346063D02*
X4902362Y3966929D01*
X7050258Y3919095D02*
Y4096592D01*
X3653150Y2348425D02*
X3725984D01*
X3860236Y2482677D01*
Y2565748D01*
X4131890Y2837402D01*
X4131890Y3802756D02*
X4131890Y2837402D01*
X3735433Y4199212D02*
X4131890Y3802756D01*
X4838583Y5275984D02*
X5343307D01*
X5378740Y5311417D01*
Y5529921D01*
X5570866Y5722047D01*
X6312992Y5722047D01*
X3486413Y2389118D02*
X3724157D01*
X3833465Y2498425D01*
Y2576378D01*
X4099606Y2842520D01*
X4099606Y3785039D02*
X4099606Y2842520D01*
X3708268Y4176378D02*
X4099606Y3785039D01*
X3708268Y4648819D02*
X3708268Y4176378D01*
X3708268Y4648819D02*
X4261811Y5202362D01*
X4841732Y5304724D02*
X5234252D01*
X5257874Y5328346D01*
Y5517323D01*
X5499606Y5759055D01*
X6281912D01*
X6491527Y5968671D01*
X3683071Y2426772D02*
X3722047D01*
X3805905Y2510630D01*
Y2590945D01*
X4061024Y2846063D01*
Y3771260D01*
X3300000Y4532284D02*
X4061024Y3771260D01*
X3300000Y4532284D02*
Y5087008D01*
X3447244Y5234252D01*
X3753937D01*
X3945276Y5425591D01*
X5119291Y5425591D01*
X5480315Y5786614D01*
X6267124Y5786614D01*
X3472748Y2442913D02*
X3533858D01*
X3564961Y2474016D01*
X3728740D01*
X3783071Y2528346D01*
Y2618898D01*
X4024016Y2859843D01*
X4024016Y3753150D02*
X4024016Y2859843D01*
X3264173Y4512992D02*
X4024016Y3753150D01*
X3264173Y5221653D02*
X3264173Y4512992D01*
X3494882Y5452362D02*
X3494882Y5452362D01*
X5106693D02*
X5460236Y5805905D01*
X3264173Y5221653D02*
X3494882Y5452362D01*
X3494882Y5452362D02*
X5106693D01*
X5087008Y5475591D02*
X5440551Y5829134D01*
X5460236Y5805905D02*
X6253543Y5805905D01*
X3749606Y2558740D02*
X3749606Y2636614D01*
X3998032Y2885039D01*
X3998032Y3731102D01*
X3232283Y4496851D02*
X3998032Y3731102D01*
X3232283Y4496851D02*
X3232284Y5237796D01*
X5440551Y5829134D02*
X6237795Y5829134D01*
X3197244Y4473228D02*
X3969291Y3701181D01*
X3197244Y4473228D02*
Y5259055D01*
X3969291Y2903937D02*
Y3701181D01*
X3465354Y2516929D02*
X3582283Y2516929D01*
X3969291Y2903937D01*
X3197244Y5259055D02*
X3468110Y5529921D01*
X5105118Y5529921D01*
X5427559Y5852362D01*
X6228740Y5852362D01*
X3473504Y2568110D02*
X3507874D01*
X3945669Y3005905D01*
X3945669Y3682283D01*
X3168898Y4459055D02*
X3945669Y3682283D01*
X3168898Y4459055D02*
Y5272441D01*
X3445275Y5548819D01*
X5090551Y5548819D01*
X5412992Y5871260D01*
X6217323Y5871260D01*
X3518898Y2616535D02*
X3916535Y3014173D01*
X3470785Y2616535D02*
X3518898D01*
X3916535Y3014173D02*
Y3653937D01*
X3418738Y2564488D02*
X3470785Y2616535D01*
X3138976Y4431496D02*
X3916535Y3653937D01*
X3138976Y4431496D02*
Y5277953D01*
X3433071Y5572047D01*
X5081102Y5572047D01*
X6209449Y5892913D02*
X6238090Y5921555D01*
X3451968Y5674803D02*
X5123228D01*
X5408393Y5959968D01*
X3451968Y5674803D02*
X3451968Y5674803D01*
X3056693Y5279527D02*
X3451968Y5674803D01*
X5408728Y5959633D02*
X5411382Y5962288D01*
X3056693Y4500000D02*
Y5279527D01*
X2677559Y4120866D02*
X3056693Y4500000D01*
X5118898Y5698032D02*
X5364138Y5943272D01*
X3422834Y5698032D02*
X5118898D01*
X3025984Y5301181D02*
X3422834Y5698032D01*
X5114173Y5721260D02*
X5339830Y5946917D01*
X3398425Y5721260D02*
X5114173D01*
X2995276Y5318110D02*
X3398425Y5721260D01*
X3376771Y5743307D02*
X5103937D01*
X2964173Y5330709D02*
X3376771Y5743307D01*
X5103937D02*
X5293275Y5932645D01*
X5092520Y5766142D02*
X5269663Y5943285D01*
X3345275Y5766142D02*
X5092520D01*
X2931102Y5351968D02*
X3345275Y5766142D01*
X5364138Y5943272D02*
Y5993783D01*
X3025984Y4519685D02*
Y5301181D01*
X2665354Y4159055D02*
X3025984Y4519685D01*
X5075984Y5787008D02*
X5222423Y5933447D01*
X2900394Y5370079D02*
X3317323Y5787008D01*
X5075984D01*
X5075591Y5815354D02*
X5199049Y5938813D01*
X2867323Y5381496D02*
X3301181Y5815354D01*
X5075591D01*
X5339830Y5961602D02*
X5340516Y5962288D01*
X5339830Y5946917D02*
Y5961602D01*
X2995276Y4528346D02*
Y5318110D01*
X2659055Y4192126D02*
X2995276Y4528346D01*
X5293275Y5932645D02*
Y5993783D01*
X2964173Y4537008D02*
Y5330709D01*
X2649213Y4222047D02*
X2964173Y4537008D01*
X5269663Y5943285D02*
Y5962288D01*
X2931102Y4552756D02*
Y5351968D01*
X2628740Y4250394D02*
X2931102Y4552756D01*
X5222423Y5933447D02*
Y5993783D01*
X2900394Y4561024D02*
Y5370079D01*
X2619291Y4279921D02*
X2900394Y4561024D01*
X5199049Y5938813D02*
Y5962288D01*
X2867323Y4567717D02*
Y5381496D01*
X2611024Y4311417D02*
X2867323Y4567717D01*
X7756693Y3223228D02*
X8174409Y2805512D01*
Y2381102D02*
Y2805512D01*
X7272047Y3223228D02*
X7756693D01*
X6975591Y3519685D02*
X7272047Y3223228D01*
X8200787Y2397244D02*
X9683858Y914173D01*
X8200787Y2397244D02*
Y2815354D01*
X9683858Y650000D02*
Y914173D01*
Y650000D02*
X9717933Y615925D01*
X7769685Y3246457D02*
X8200787Y2815354D01*
X6744489Y3519685D02*
X6975591D01*
X7287795Y3246457D02*
X7769685D01*
X6986314Y3547938D02*
X7287795Y3246457D01*
X6763312Y3547938D02*
X6986314D01*
X9717933Y464173D02*
Y615925D01*
X2198819Y4279921D02*
X2619291D01*
X2191732Y4311417D02*
X2611024D01*
X1679134Y3798819D02*
X2191732Y4311417D01*
X1711417Y3792520D02*
X2198819Y4279921D01*
X1743307Y3781496D02*
X2212205Y4250394D01*
X2628740D01*
X1807480Y3752756D02*
X2246850Y4192126D01*
X2659055D01*
X1770866Y3766142D02*
X2226772Y4222047D01*
X2649213D01*
X1850000Y3740551D02*
X2268504Y4159055D01*
X2665354D01*
X2278740Y4120866D02*
X2677559D01*
X1887008Y3729134D02*
X2278740Y4120866D01*
X1679134Y2975590D02*
Y3798819D01*
X1711417Y2988189D02*
Y3792520D01*
X1743307Y3000394D02*
Y3781496D01*
X1770866Y3016536D02*
Y3766142D01*
X1807480Y3024016D02*
Y3752756D01*
X1850000Y3165748D02*
Y3740551D01*
X1887008Y3182677D02*
Y3729134D01*
X1679134Y2975590D02*
X2469685Y2185039D01*
X2851142Y2232244D02*
Y2260000D01*
X2803937Y2185039D02*
X2851142Y2232244D01*
X2469685Y2185039D02*
X2803937D01*
X1711417Y2988189D02*
X2482677Y2216929D01*
X2740945D01*
X1743307Y3000394D02*
X2498425Y2245276D01*
X2735433D01*
X2272441Y2514961D02*
X2690727D01*
X1770866Y3016536D02*
X2272441Y2514961D01*
X1807480Y3024016D02*
X2283110Y2548386D01*
X2897309D01*
X2824016Y2300000D02*
X2851150D01*
X2740945Y2216929D02*
X2824016Y2300000D01*
X2830157Y2340000D02*
X2851150D01*
X2735433Y2245276D02*
X2830157Y2340000D01*
X2690727Y2514961D02*
X2690810Y2515043D01*
X2446437Y2569311D02*
X2858354D01*
X1850000Y3165748D02*
X2446437Y2569311D01*
X1887008Y3182677D02*
X2443701Y2625984D01*
X2833465D01*
X2870008Y2589441D01*
X2897136D01*
X6217323Y5871260D02*
X6285333Y5939270D01*
X6228740Y5852362D02*
X6308953Y5932575D01*
X6238090Y5921555D02*
Y5962288D01*
X6285333Y5939270D02*
Y5993783D01*
X6488983Y5966127D02*
X6491527Y5968671D01*
X6308953Y5932575D02*
Y5962599D01*
X6237795Y5829134D02*
X6356193Y5947532D01*
Y6013882D01*
X6253543Y5805905D02*
X6392709Y5945071D01*
Y5992662D01*
X6267124Y5786614D02*
X6474293Y5993783D01*
X6491527Y5968299D02*
Y5968671D01*
X6312992Y5722047D02*
X6545153Y5954208D01*
Y5995571D01*
X11680000Y1750000D02*
Y2125000D01*
X11620000Y1650000D02*
Y2225000D01*
X11680000Y900000D02*
Y1750000D01*
X11620000Y1000000D02*
Y1650000D01*
D142*
X11850000Y2125000D02*
D03*
Y2225000D02*
D03*
X11960000Y2125000D02*
D03*
Y2225000D02*
D03*
D143*
X4619500Y1039500D02*
D03*
Y1070500D02*
D03*
X4650500Y1039500D02*
D03*
Y1070500D02*
D03*
X5244500Y1039500D02*
D03*
Y1070500D02*
D03*
X5275500Y1039500D02*
D03*
Y1070500D02*
D03*
X3369500Y1039500D02*
D03*
Y1070500D02*
D03*
X3400500Y1039500D02*
D03*
Y1070500D02*
D03*
X869500Y1039500D02*
D03*
Y1070500D02*
D03*
X900500Y1039500D02*
D03*
Y1070500D02*
D03*
X4180500Y1989500D02*
D03*
X4149500D02*
D03*
X4180500Y2020500D02*
D03*
X4149500D02*
D03*
X4025500Y1070500D02*
D03*
Y1039500D02*
D03*
X3994500Y1070500D02*
D03*
Y1039500D02*
D03*
X2775500Y1070500D02*
D03*
Y1039500D02*
D03*
X2744500Y1070500D02*
D03*
Y1039500D02*
D03*
X2150500Y1070500D02*
D03*
Y1039500D02*
D03*
X2119500Y1070500D02*
D03*
Y1039500D02*
D03*
X1525500Y1070500D02*
D03*
Y1039500D02*
D03*
X1494500Y1070500D02*
D03*
Y1039500D02*
D03*
D144*
X1295000Y3700000D02*
D03*
X1750000Y4860000D02*
D03*
X1260000Y5180000D02*
D03*
X2130000Y4490000D02*
D03*
X2425000Y4540000D02*
D03*
X2125000Y5335000D02*
D03*
X8700000Y2295000D02*
D03*
X10420000Y2725000D02*
D03*
X5320000Y1850000D02*
D03*
X1820000Y2230000D02*
D03*
X4280000Y2980000D02*
D03*
X4780000Y4270000D02*
D03*
X3370000Y3670000D02*
D03*
D145*
X1805000Y6473071D02*
D03*
Y6373071D02*
D03*
X2400000Y6473071D02*
D03*
Y6373071D02*
D03*
D146*
X4335000Y6245236D02*
D03*
D147*
X4435000D02*
D03*
X4535000D02*
D03*
D148*
X12297165Y6678425D02*
D03*
Y6481575D02*
D03*
D149*
X12255827Y6433346D02*
D03*
Y6726654D02*
D03*
D150*
X12405433Y6427441D02*
D03*
Y6732559D02*
D03*
D151*
X11995000Y1750000D02*
D03*
Y1650000D02*
D03*
Y1550000D02*
D03*
Y1100000D02*
D03*
Y1000000D02*
D03*
Y900000D02*
D03*
D152*
X12335000Y1805000D02*
D03*
Y1495000D02*
D03*
Y1155000D02*
D03*
Y845000D02*
D03*
D153*
X3050000Y7200000D02*
D03*
Y7100000D02*
D03*
X2950000Y7200000D02*
D03*
Y7100000D02*
D03*
X2850000Y7200000D02*
D03*
Y7100000D02*
D03*
X2750000Y7200000D02*
D03*
Y7100000D02*
D03*
X2650000Y7200000D02*
D03*
Y7100000D02*
D03*
X2550000Y7200000D02*
D03*
Y7100000D02*
D03*
X2450000Y7200000D02*
D03*
Y7100000D02*
D03*
X2350000Y7200000D02*
D03*
Y7100000D02*
D03*
X2250000Y7200000D02*
D03*
Y7100000D02*
D03*
X2150000Y7200000D02*
D03*
Y7100000D02*
D03*
X2050000Y7200000D02*
D03*
Y7100000D02*
D03*
X1950000Y7200000D02*
D03*
Y7100000D02*
D03*
X1850000Y7200000D02*
D03*
Y7100000D02*
D03*
X1750000Y7200000D02*
D03*
Y7100000D02*
D03*
X1650000Y7200000D02*
D03*
Y7100000D02*
D03*
X1550000Y7200000D02*
D03*
Y7100000D02*
D03*
X1450000Y7200000D02*
D03*
Y7100000D02*
D03*
X1350000Y7200000D02*
D03*
Y7100000D02*
D03*
X1250000Y7200000D02*
D03*
Y7100000D02*
D03*
X1150000Y7200000D02*
D03*
Y7100000D02*
D03*
X1050000Y7200000D02*
D03*
Y7100000D02*
D03*
X950000Y7200000D02*
D03*
D154*
Y7100000D02*
D03*
D155*
X7502000Y7352000D02*
D03*
X4998000D02*
D03*
D156*
X12335000Y4705000D02*
D03*
Y4295000D02*
D03*
X12160000Y4323000D02*
D03*
Y4677000D02*
D03*
D157*
X12175748Y4417323D02*
D03*
Y4582677D02*
D03*
D158*
X4934961Y6250000D02*
D03*
D159*
X7564961D02*
D03*
D160*
X344488Y7058268D02*
D03*
Y444094D02*
D03*
X9517717Y5483465D02*
D03*
X3730315Y5365354D02*
D03*
X11289370Y3633071D02*
D03*
X5698819Y2885039D02*
D03*
X1525591Y3514961D02*
D03*
X10068898Y2176378D02*
D03*
X6250000Y1428347D02*
D03*
X1761811Y1782677D02*
D03*
X12155512Y444094D02*
D03*
D161*
X11643701Y6900787D02*
D03*
D162*
X11723465Y2750000D02*
D03*
Y2915354D02*
D03*
Y3080709D02*
D03*
Y3246063D02*
D03*
X11940000D02*
D03*
Y3080709D02*
D03*
Y2915354D02*
D03*
Y2750000D02*
D03*
D163*
X8183858Y7160630D02*
D03*
Y6766929D02*
D03*
D164*
X12081260Y5550000D02*
D03*
Y6050000D02*
D03*
D165*
X12206457Y6117520D02*
D03*
Y5482480D02*
D03*
D166*
X11281260Y5939764D02*
D03*
Y5660236D02*
D03*
Y6039764D02*
D03*
Y5560236D02*
D03*
D167*
X11381260Y5879724D02*
D03*
Y5720276D02*
D03*
Y5959646D02*
D03*
Y5640354D02*
D03*
Y6039567D02*
D03*
Y5560433D02*
D03*
X11481260Y5839961D02*
D03*
Y5760039D02*
D03*
Y5680118D02*
D03*
Y5919882D02*
D03*
Y5600197D02*
D03*
D168*
Y5999803D02*
D03*
D169*
X6892126Y2082284D02*
D03*
X6773622Y2220472D02*
D03*
X7019291Y1941339D02*
D03*
X6644488Y2074016D02*
D03*
X6727559Y2008661D02*
D03*
X6645669Y2006299D02*
D03*
X6783465Y1933465D02*
D03*
X6729528Y1933858D02*
D03*
X5105118Y6011811D02*
D03*
X4332283Y4812992D02*
D03*
X4830000Y4781890D02*
D03*
X4691725Y4782099D02*
D03*
X6444409Y3601535D02*
D03*
X9515276Y6924109D02*
D03*
Y6874808D02*
D03*
X10925984Y6444095D02*
D03*
X11907480Y6620472D02*
D03*
X11359843Y6618504D02*
D03*
X11091339Y6613779D02*
D03*
X10701575Y6444095D02*
D03*
X9003543Y6404724D02*
D03*
X8944488Y6403937D02*
D03*
X8893307Y6402756D02*
D03*
X8854331Y6403150D02*
D03*
X8803543Y6402362D02*
D03*
X8802362Y6273228D02*
D03*
X8755512Y6233858D02*
D03*
X7009842Y5628346D02*
D03*
X8145276Y5917717D02*
D03*
X8343307Y5826772D02*
D03*
X8341339Y5731102D02*
D03*
X8361811Y5958268D02*
D03*
X8062205Y5866535D02*
D03*
X7950787Y5866142D02*
D03*
X7698032Y5868110D02*
D03*
X7516929Y5899213D02*
D03*
Y5637008D02*
D03*
X7354331Y5902362D02*
D03*
Y5822835D02*
D03*
X7346063Y5670472D02*
D03*
X7011417Y5898819D02*
D03*
X6931496Y5823228D02*
D03*
X7086221Y5821260D02*
D03*
X7088189Y5671654D02*
D03*
X6929134Y5671260D02*
D03*
X5589764Y4358268D02*
D03*
X6385039Y4071260D02*
D03*
X6631102Y4441732D02*
D03*
X3859843Y3257874D02*
D03*
X945276Y2567716D02*
D03*
X938976Y2784648D02*
D03*
X940158Y3005905D02*
D03*
X938583Y3207874D02*
D03*
X1220866Y3082677D02*
D03*
X1222441Y2880709D02*
D03*
X1221260Y2659451D02*
D03*
X1227559Y2442520D02*
D03*
X2396063Y2108661D02*
D03*
X2249724D02*
D03*
Y2017362D02*
D03*
X2396063D02*
D03*
X2555669Y2108661D02*
D03*
Y2017362D02*
D03*
X11548819Y2646063D02*
D03*
X11640945Y2645276D02*
D03*
X11095276Y1698425D02*
D03*
X11094488Y1606299D02*
D03*
X11179921Y1699606D02*
D03*
X11179134Y1607480D02*
D03*
X11277165Y1612992D02*
D03*
X11277953Y1705118D02*
D03*
X11458268Y2334437D02*
D03*
X11372559Y1771018D02*
D03*
X11452756Y1861811D02*
D03*
X11372559Y1929198D02*
D03*
X11453543Y2012598D02*
D03*
X11372559Y2081888D02*
D03*
X11453151Y2160158D02*
D03*
X11372559Y2245562D02*
D03*
Y2427910D02*
D03*
X11459843Y1701181D02*
D03*
X11138976Y2301575D02*
D03*
X10997244Y2300000D02*
D03*
X11138189Y2408661D02*
D03*
X11136614Y2767323D02*
D03*
X11271260Y2768110D02*
D03*
X11272835Y2890551D02*
D03*
X11134252Y2554134D02*
D03*
Y2673228D02*
D03*
X10997913Y2554134D02*
D03*
Y2673228D02*
D03*
X11278740Y3082677D02*
D03*
X11070175Y3080709D02*
D03*
X11119175Y3126798D02*
D03*
X11070175Y3032848D02*
D03*
Y3126798D02*
D03*
X11119175Y3032848D02*
D03*
X11275984Y3246457D02*
D03*
X11281102Y3402756D02*
D03*
X11179921Y3529921D02*
D03*
X10957480Y3535433D02*
D03*
X11175197Y3798819D02*
D03*
X10961811Y3799213D02*
D03*
X10952756Y3957087D02*
D03*
X11175197Y3955905D02*
D03*
X11664567Y3841339D02*
D03*
X11550787Y3966929D02*
D03*
X11590551Y3402362D02*
D03*
Y3553543D02*
D03*
Y3704724D02*
D03*
X11694094D02*
D03*
Y3553543D02*
D03*
Y3402362D02*
D03*
X11797638D02*
D03*
Y3553543D02*
D03*
Y3704724D02*
D03*
X4332283Y4859189D02*
D03*
X503150Y4566535D02*
D03*
Y4816929D02*
D03*
X746063Y4566538D02*
D03*
Y4816929D02*
D03*
X358661Y3955905D02*
D03*
Y4206299D02*
D03*
Y3705512D02*
D03*
Y3455118D02*
D03*
Y3204724D02*
D03*
Y2954331D02*
D03*
Y2703937D02*
D03*
X681102D02*
D03*
Y2954328D02*
D03*
Y3204720D02*
D03*
Y3455111D02*
D03*
Y3705503D02*
D03*
Y4206285D02*
D03*
Y3955894D02*
D03*
X3458870Y4619908D02*
D03*
X3577771D02*
D03*
X3520866Y4531496D02*
D03*
X6281496Y2453937D02*
D03*
X6013779Y1387795D02*
D03*
X6054331Y1081496D02*
D03*
X6951968Y2227559D02*
D03*
X6360630Y1733465D02*
D03*
X5531102Y2716929D02*
D03*
X5902756Y3252362D02*
D03*
X5610630Y3643701D02*
D03*
X7162598Y4590551D02*
D03*
X6213779Y4659842D02*
D03*
X2536197Y3584867D02*
D03*
X2603428Y3705079D02*
D03*
X2470116Y3585730D02*
D03*
X2442151Y3575849D02*
D03*
X2893000Y2028071D02*
D03*
X2927000D02*
D03*
X9907874Y463740D02*
D03*
X9344488Y675788D02*
D03*
X9383858Y672047D02*
D03*
X9521417Y767126D02*
D03*
X9600787Y731890D02*
D03*
X9292913Y335827D02*
D03*
X9340500Y304673D02*
D03*
X9703543Y356693D02*
D03*
X9777559Y416535D02*
D03*
X9639291Y461417D02*
D03*
Y581890D02*
D03*
X9567052Y654134D02*
D03*
X9475792D02*
D03*
X9475788Y398701D02*
D03*
X9567047D02*
D03*
X9383858Y470945D02*
D03*
Y562205D02*
D03*
X9677165Y574803D02*
D03*
X9560787Y477205D02*
D03*
X9462362Y477205D02*
D03*
X9560787Y575630D02*
D03*
X9462362Y575630D02*
D03*
Y526418D02*
D03*
X9560787Y526417D02*
D03*
X9511575Y526417D02*
D03*
Y575630D02*
D03*
Y477205D02*
D03*
X8390000Y2460150D02*
D03*
X8510000Y2432008D02*
D03*
X8660000D02*
D03*
X6639646Y6030256D02*
D03*
X2940897Y2506320D02*
D03*
X9764173Y6265984D02*
D03*
X9709803Y6315354D02*
D03*
X10413954Y6457365D02*
D03*
X11699213Y4443898D02*
D03*
Y4412402D02*
D03*
X3567009Y2056111D02*
D03*
X3532009D02*
D03*
X3418000Y2028071D02*
D03*
X3452000D02*
D03*
X5624409Y2042913D02*
D03*
X7057154Y1577136D02*
D03*
X5610000Y1843727D02*
D03*
X5464646Y1947480D02*
D03*
X2700000Y2779088D02*
D03*
X2775000Y2754821D02*
D03*
X2835000Y2750884D02*
D03*
X2890000D02*
D03*
X2945000D02*
D03*
X1053896Y3925000D02*
D03*
X3234646Y3645748D02*
D03*
Y3702756D02*
D03*
X3183858D02*
D03*
Y3645748D02*
D03*
X3133071Y3702756D02*
D03*
Y3645756D02*
D03*
X1803543Y3979449D02*
D03*
X2212500Y4001787D02*
D03*
X2247500D02*
D03*
X2282500D02*
D03*
X2317500D02*
D03*
X6765984Y6268504D02*
D03*
X6765980Y6310236D02*
D03*
X6891335D02*
D03*
X6891339Y6268504D02*
D03*
X10058868Y6530000D02*
D03*
X10126898Y6610000D02*
D03*
X10090000Y6685000D02*
D03*
X7874016Y5794095D02*
D03*
X8735772Y5824766D02*
D03*
X8688700D02*
D03*
X7696620Y5920670D02*
D03*
X8456611Y5925197D02*
D03*
X8379559Y6025197D02*
D03*
X8341559Y6058463D02*
D03*
X7770829Y6955000D02*
D03*
Y7015000D02*
D03*
X8023268Y6806498D02*
D03*
X9045518Y6733078D02*
D03*
Y6657834D02*
D03*
X9002677D02*
D03*
X8959000Y6733078D02*
D03*
X8895000Y6665075D02*
D03*
X8902344Y5949217D02*
D03*
X8939803Y6025348D02*
D03*
X9000227Y6056260D02*
D03*
X9026329Y6083898D02*
D03*
X9026680Y6138947D02*
D03*
X8999475Y6159724D02*
D03*
X8929578Y6210391D02*
D03*
X8874843Y6211585D02*
D03*
X8718110Y6090168D02*
D03*
X8745630Y6129528D02*
D03*
X6911268Y6510433D02*
D03*
X1602756Y4883071D02*
D03*
X4342339Y4121963D02*
D03*
X4344504Y4282179D02*
D03*
Y4187179D02*
D03*
X4396701Y4074679D02*
D03*
Y3954679D02*
D03*
X1995278Y2941063D02*
D03*
X3516651Y1745623D02*
D03*
X3434527Y1749183D02*
D03*
X2582362Y4049296D02*
D03*
X4270000Y5499000D02*
D03*
X4895000Y5639022D02*
D03*
X5115307Y5641422D02*
D03*
X2402500Y4049296D02*
D03*
X2079271Y3787500D02*
D03*
X5789095Y5962599D02*
D03*
X2079271Y3742500D02*
D03*
X2753067Y3830000D02*
D03*
X2780994Y3762500D02*
D03*
X2753067Y3785000D02*
D03*
X2780994Y3717500D02*
D03*
X3355431Y3427255D02*
D03*
X6005356Y5503390D02*
D03*
Y5452480D02*
D03*
X6091535Y5389961D02*
D03*
X6005354D02*
D03*
X7206165Y5945888D02*
D03*
X8900043Y5621799D02*
D03*
X8842456Y5613390D02*
D03*
X8775473D02*
D03*
X1011850Y6703974D02*
D03*
X960170Y6807402D02*
D03*
X6584409Y6178823D02*
D03*
X6623692D02*
D03*
X5092756Y6473309D02*
D03*
X5021890D02*
D03*
X5163623D02*
D03*
X1164232Y6732599D02*
D03*
X1118150Y6834880D02*
D03*
X6653765Y6154217D02*
D03*
X6694119D02*
D03*
X4572609Y6415000D02*
D03*
X1596975Y6041984D02*
D03*
X1280170Y6807402D02*
D03*
X1331850Y6703974D02*
D03*
X6701989Y6196539D02*
D03*
X6742343D02*
D03*
X6565191Y6309925D02*
D03*
X6524837D02*
D03*
X4826549Y6415000D02*
D03*
X5470434Y6350680D02*
D03*
X1484232Y6732599D02*
D03*
X6336165Y6346146D02*
D03*
X1438150Y6834880D02*
D03*
X6391835Y6467855D02*
D03*
X6320991Y6473315D02*
D03*
X6336643Y6575197D02*
D03*
X1651850Y6703974D02*
D03*
X1600170Y6807402D02*
D03*
X6454265Y6346146D02*
D03*
X6391614Y6620957D02*
D03*
X6494620Y6346146D02*
D03*
X6447091Y6309925D02*
D03*
X6406737D02*
D03*
X2287933Y6136685D02*
D03*
X1912000Y6080000D02*
D03*
X1980000Y6084599D02*
D03*
X1804232Y6732599D02*
D03*
X1758150Y6834880D02*
D03*
X6512460Y6473315D02*
D03*
X1971850Y6703974D02*
D03*
X1920170Y6807402D02*
D03*
X6572365Y6346146D02*
D03*
X2124232Y6732599D02*
D03*
X6612720Y6346146D02*
D03*
X2078150Y6834880D02*
D03*
X6628065Y6467880D02*
D03*
X6627835Y6606339D02*
D03*
X6729983Y6501823D02*
D03*
X2291850Y6703974D02*
D03*
X6690700Y6501823D02*
D03*
X2240170Y6807402D02*
D03*
X6665152Y6562480D02*
D03*
X6761040Y6519539D02*
D03*
X6801395D02*
D03*
X2255000Y6561000D02*
D03*
X2358180Y6770000D02*
D03*
X2444232Y6732599D02*
D03*
X2398150Y6834880D02*
D03*
X5806994Y6150162D02*
D03*
X5759750D02*
D03*
X5695073Y6149914D02*
D03*
X5812717Y5994095D02*
D03*
X5836339Y5962599D02*
D03*
X5860157Y5994095D02*
D03*
X5884010Y6145841D02*
D03*
X5907396Y5962288D02*
D03*
X5931018Y5993783D02*
D03*
X5954640Y5965447D02*
D03*
X5978262Y5993783D02*
D03*
X6025506Y5962288D02*
D03*
X6049128Y5993783D02*
D03*
X6072750Y5962288D02*
D03*
X6096372Y5993783D02*
D03*
X6120000Y6146744D02*
D03*
X6755000Y5911953D02*
D03*
X6828813Y6025398D02*
D03*
X6804961Y5994538D02*
D03*
X6852205Y5994449D02*
D03*
X6875827Y6143628D02*
D03*
X6899679Y6025398D02*
D03*
X6923071Y5994449D02*
D03*
X6946923Y6025398D02*
D03*
X6970315Y5994723D02*
D03*
X6994167Y6025398D02*
D03*
X7112047Y6148036D02*
D03*
X6376520Y6346146D02*
D03*
X4465136Y5997480D02*
D03*
X4003578Y6067559D02*
D03*
X3799468Y6039685D02*
D03*
X3837500Y5972963D02*
D03*
X4465136Y5932480D02*
D03*
X4384864Y5932520D02*
D03*
X4425000Y6108238D02*
D03*
X4518342Y5865000D02*
D03*
Y6065000D02*
D03*
X8344449Y7200000D02*
D03*
X2474803Y6054685D02*
D03*
X6757961Y6145336D02*
D03*
X6249921Y6606339D02*
D03*
X6287239Y6562480D02*
D03*
X6250152Y6467880D02*
D03*
X6108189Y6606339D02*
D03*
X6108420Y6467880D02*
D03*
X6145507Y6562480D02*
D03*
X4335000Y6415008D02*
D03*
X5305315Y6473309D02*
D03*
X5328713Y6500039D02*
D03*
X6982351Y6473315D02*
D03*
X6746151D02*
D03*
X6179271D02*
D03*
X5990311D02*
D03*
X5754111D02*
D03*
X2208781Y6732677D02*
D03*
Y6767323D02*
D03*
X1888781Y6732677D02*
D03*
Y6767323D02*
D03*
X2038180Y6770000D02*
D03*
X1568781Y6732677D02*
D03*
Y6767323D02*
D03*
X1718180Y6770000D02*
D03*
X1248781Y6732677D02*
D03*
Y6767323D02*
D03*
X1398180Y6770000D02*
D03*
X1078180D02*
D03*
X928781Y6767323D02*
D03*
Y6732677D02*
D03*
X11586068Y3246063D02*
D03*
Y3080709D02*
D03*
Y2915354D02*
D03*
Y2750000D02*
D03*
X4133795Y4610000D02*
D03*
X8643315Y5050988D02*
D03*
X2587761Y3611211D02*
D03*
X2833000Y3481535D02*
D03*
X2242089Y3618202D02*
D03*
X2348661Y3618898D02*
D03*
X2228596Y3584646D02*
D03*
X2260236Y3556798D02*
D03*
X2294882D02*
D03*
X2337822Y3694235D02*
D03*
X2295236Y3658189D02*
D03*
X6784646Y3743075D02*
D03*
X9508332Y5225756D02*
D03*
X9408429Y5109532D02*
D03*
X9719803Y5953386D02*
D03*
X9679961Y5952894D02*
D03*
X9389764Y5942913D02*
D03*
X9438661D02*
D03*
X9364173Y5151393D02*
D03*
X9404331Y5187220D02*
D03*
X10900000Y520236D02*
D03*
X6845388Y6350766D02*
D03*
X6811934D02*
D03*
X9749174Y6020866D02*
D03*
X9824044Y6060236D02*
D03*
X9774044Y6100709D02*
D03*
X9478189Y5958273D02*
D03*
X9452598Y6047069D02*
D03*
X9391181Y6211748D02*
D03*
X9358632Y6175709D02*
D03*
X9568346D02*
D03*
X11837992Y4307480D02*
D03*
Y4338976D02*
D03*
X11427116Y4323238D02*
D03*
X5157874Y5127480D02*
D03*
X3515000Y2791874D02*
D03*
X7131873Y1647558D02*
D03*
X11032019Y1281184D02*
D03*
X10800000Y1917125D02*
D03*
X9717751Y2314789D02*
D03*
Y2354159D02*
D03*
X9895000Y1966573D02*
D03*
X9745000D02*
D03*
X9667168Y1914134D02*
D03*
X9840000Y1712000D02*
D03*
X9940984Y5014173D02*
D03*
X9516142Y3474409D02*
D03*
X11085000Y6336535D02*
D03*
X7389162Y6017930D02*
D03*
X7425412D02*
D03*
X7294682Y5970158D02*
D03*
X7330932D02*
D03*
X9018009Y5800000D02*
D03*
X7223822Y5989842D02*
D03*
X7260072D02*
D03*
X7183249Y5969567D02*
D03*
X7129342Y6018071D02*
D03*
X7165592D02*
D03*
X7277356Y6028272D02*
D03*
X7454600Y5993331D02*
D03*
X4979359Y4738533D02*
D03*
X5244319Y4195120D02*
D03*
X4588583Y4582520D02*
D03*
X4342339Y4347395D02*
D03*
X4483232Y4652520D02*
D03*
X4982598Y4314000D02*
D03*
X9717933Y464173D02*
D03*
X3861024Y607087D02*
D03*
X5303000Y920000D02*
D03*
X5221000Y887000D02*
D03*
X5195000Y530000D02*
D03*
X5111024Y607087D02*
D03*
X8214133Y750473D02*
D03*
X8268779Y607973D02*
D03*
X8149999Y892992D02*
D03*
X8214133Y860473D02*
D03*
X8268779Y673189D02*
D03*
Y512973D02*
D03*
Y447756D02*
D03*
X6903779Y673189D02*
D03*
Y607973D02*
D03*
X6849134Y750473D02*
D03*
X6654134D02*
D03*
X6708779Y607973D02*
D03*
Y673189D02*
D03*
X7488779Y607973D02*
D03*
X7098779D02*
D03*
Y673189D02*
D03*
X7293779D02*
D03*
Y607973D02*
D03*
X7488779Y673189D02*
D03*
X6708779Y512973D02*
D03*
X7293779D02*
D03*
X7434134Y750473D02*
D03*
X7044134D02*
D03*
X7239134D02*
D03*
X7488779Y512973D02*
D03*
X7098779D02*
D03*
X6903779D02*
D03*
X7683779Y673189D02*
D03*
X7878779Y512973D02*
D03*
Y447756D02*
D03*
X7683779Y607973D02*
D03*
X7878779Y673189D02*
D03*
Y607973D02*
D03*
X7683779Y512973D02*
D03*
X7629134Y750473D02*
D03*
X8073779Y673189D02*
D03*
Y607973D02*
D03*
Y512973D02*
D03*
X8019134Y750473D02*
D03*
X7824133D02*
D03*
X7488779Y447756D02*
D03*
X7683779D02*
D03*
X6903779D02*
D03*
X6708779D02*
D03*
X7098779D02*
D03*
X7293779D02*
D03*
X8073779D02*
D03*
X7239134Y860473D02*
D03*
X7175000Y892992D02*
D03*
X7044134Y860473D02*
D03*
X7434134D02*
D03*
X6785000Y892992D02*
D03*
X6980000D02*
D03*
X6590000D02*
D03*
X6654134Y860473D02*
D03*
X6849134D02*
D03*
X7824133D02*
D03*
X7759999Y892992D02*
D03*
X7565000D02*
D03*
X7370000D02*
D03*
X7629134Y860473D02*
D03*
X8019134D02*
D03*
X7955000Y892992D02*
D03*
X9767275Y710669D02*
D03*
X9720433D02*
D03*
X9951575Y396417D02*
D03*
X10146575Y577126D02*
D03*
X10198740Y454134D02*
D03*
Y577126D02*
D03*
Y407197D02*
D03*
Y518701D02*
D03*
X10176884Y328733D02*
D03*
X4015000Y5118491D02*
D03*
X4858506Y5608622D02*
D03*
X5199049Y5962288D02*
D03*
X4155000Y5205905D02*
D03*
X4015000Y5043866D02*
D03*
X5069912Y5608622D02*
D03*
X1775628Y2758583D02*
D03*
X3133786Y2756992D02*
D03*
X3205989Y2759028D02*
D03*
X3300621Y2610113D02*
D03*
X3227984Y2608608D02*
D03*
X3086251D02*
D03*
X3030779Y2571614D02*
D03*
Y2517244D02*
D03*
X2690810Y2515043D02*
D03*
X2815000Y2592520D02*
D03*
X2537402Y4049296D02*
D03*
X2627323D02*
D03*
X2492441D02*
D03*
X2447500D02*
D03*
X2897309Y2548378D02*
D03*
X2858354Y2569311D02*
D03*
X2897136Y2589441D02*
D03*
X2950740Y2604470D02*
D03*
X2991981Y2640033D02*
D03*
X4226849Y4792480D02*
D03*
X4545000Y5311496D02*
D03*
X3650000Y2625256D02*
D03*
X6238090Y5962288D02*
D03*
X3749606Y2558740D02*
D03*
X6214482Y5993783D02*
D03*
X6261705Y6147528D02*
D03*
X6285333Y5993783D02*
D03*
X6308953Y5962599D02*
D03*
X5866150Y5182921D02*
D03*
X5852150Y5226921D02*
D03*
X5999079Y5218146D02*
D03*
X5999535Y5177882D02*
D03*
X6040401Y5218146D02*
D03*
X6040394Y5177882D02*
D03*
X6491527Y5968671D02*
D03*
X5542120Y5342480D02*
D03*
X5585000Y5384409D02*
D03*
X5345725Y5342480D02*
D03*
X5305000Y5381263D02*
D03*
X5445000Y5240000D02*
D03*
Y5202598D02*
D03*
Y5277402D02*
D03*
X5585000Y5094882D02*
D03*
X6260000Y5076614D02*
D03*
X6301181D02*
D03*
X6550158Y5503386D02*
D03*
Y5452480D02*
D03*
X6790085Y5264161D02*
D03*
X6702093Y5373153D02*
D03*
X6665748Y5452480D02*
D03*
Y5503386D02*
D03*
X6550145Y5227074D02*
D03*
Y5272480D02*
D03*
Y5318170D02*
D03*
X6589495Y5227074D02*
D03*
Y5272480D02*
D03*
Y5318170D02*
D03*
X6395214Y5272480D02*
D03*
X6206040Y5332539D02*
D03*
X6260000Y5281162D02*
D03*
X6206040D02*
D03*
X6159724D02*
D03*
X6159705Y5332539D02*
D03*
X6113370Y5281162D02*
D03*
Y5332539D02*
D03*
X6222441Y5389961D02*
D03*
X6246863Y5452480D02*
D03*
X6081722Y5218146D02*
D03*
Y5177882D02*
D03*
X5824150Y5192921D02*
D03*
X5809150Y5230921D02*
D03*
X5786900Y5263921D02*
D03*
X5830150D02*
D03*
X5180996Y5393883D02*
D03*
X5221260Y5352790D02*
D03*
X5180996D02*
D03*
X5221260Y5394112D02*
D03*
Y5435433D02*
D03*
X5180996Y5434977D02*
D03*
X4539628Y4905158D02*
D03*
X4646434Y4963762D02*
D03*
X4641533Y5023268D02*
D03*
X4495079Y5042953D02*
D03*
X4566508Y5069459D02*
D03*
X4475591Y5100394D02*
D03*
X5434747Y4610000D02*
D03*
X5624495Y4655690D02*
D03*
Y4610000D02*
D03*
Y4564593D02*
D03*
X5585145D02*
D03*
Y4655690D02*
D03*
Y4610000D02*
D03*
X4951575Y4545748D02*
D03*
Y4587795D02*
D03*
X4988976Y4545748D02*
D03*
Y4587795D02*
D03*
X5111417Y4545748D02*
D03*
Y4587795D02*
D03*
X5213228Y4647323D02*
D03*
X5213228Y4689370D02*
D03*
X5175197Y4647323D02*
D03*
X5137165D02*
D03*
X5175197Y4689370D02*
D03*
X5137165D02*
D03*
X5423622Y4842905D02*
D03*
X5452854Y4810000D02*
D03*
X5262095Y4737480D02*
D03*
X5295000Y4766713D02*
D03*
Y4394988D02*
D03*
X3596553Y5025591D02*
D03*
X3596097Y5065855D02*
D03*
X3637419D02*
D03*
X3678740Y5025591D02*
D03*
Y5065855D02*
D03*
X3637647Y5025591D02*
D03*
X3795000Y5182480D02*
D03*
X4316535Y5040000D02*
D03*
X4401033Y5147520D02*
D03*
X4562846D02*
D03*
X4664173Y5132087D02*
D03*
X3935505Y4655407D02*
D03*
X3974855D02*
D03*
Y4564310D02*
D03*
X3935505D02*
D03*
Y4610000D02*
D03*
X3974855D02*
D03*
X4102146Y4429606D02*
D03*
X4131870Y4397095D02*
D03*
X4303438Y4792480D02*
D03*
X4457610Y4720197D02*
D03*
Y4678197D02*
D03*
X4440852Y4623346D02*
D03*
X4340000Y4623343D02*
D03*
X4390426Y4623346D02*
D03*
X4297905Y4488012D02*
D03*
X4265394Y4458287D02*
D03*
X4309173Y4527354D02*
D03*
Y4564520D02*
D03*
X4497598Y4835315D02*
D03*
X4648819D02*
D03*
X4655042Y4787778D02*
D03*
X4830000Y4642913D02*
D03*
X4900000D02*
D03*
Y4781890D02*
D03*
X5053847Y4825000D02*
D03*
X4909488D02*
D03*
X5058504Y4925000D02*
D03*
X5096417D02*
D03*
X4909488D02*
D03*
X4909488Y4985000D02*
D03*
X6505000Y3719045D02*
D03*
X6528552Y3061851D02*
D03*
X6356193Y6013882D02*
D03*
X6392709Y5992662D02*
D03*
X6474293Y5993783D02*
D03*
X6568773Y6023400D02*
D03*
X6545153Y5995571D02*
D03*
X6445406Y6028228D02*
D03*
X6521535Y6028543D02*
D03*
X3690133Y2691406D02*
D03*
X3467021Y2674733D02*
D03*
X3302559Y2537795D02*
D03*
Y2481890D02*
D03*
Y2426772D02*
D03*
X3360351Y2688225D02*
D03*
X3387477Y2659206D02*
D03*
X3418738Y2564488D02*
D03*
X3377309Y2541136D02*
D03*
X3473504Y2568110D02*
D03*
X3465354Y2516929D02*
D03*
X3495000Y2544823D02*
D03*
X3696347Y2517452D02*
D03*
X3704773Y2575965D02*
D03*
X3683071Y2426772D02*
D03*
X3472748Y2442913D02*
D03*
X3644748Y2442512D02*
D03*
X3486413Y2389118D02*
D03*
X3653150Y2348425D02*
D03*
X3417716Y2377559D02*
D03*
X3381836Y2383224D02*
D03*
X4445000Y2576000D02*
D03*
X1296280Y740000D02*
D03*
Y825000D02*
D03*
X2084646Y1320000D02*
D03*
X4605000Y2500000D02*
D03*
X6415394Y3139990D02*
D03*
Y3190020D02*
D03*
X2200000Y774000D02*
D03*
X1921280Y740000D02*
D03*
X4440000Y2235000D02*
D03*
X4605000D02*
D03*
X2709646Y1320000D02*
D03*
X3608980Y1340000D02*
D03*
X3876338Y1809610D02*
D03*
X3911423Y1947348D02*
D03*
X4605000Y2369000D02*
D03*
X4765000Y583481D02*
D03*
X6850000Y2868622D02*
D03*
X5936785Y1867520D02*
D03*
X6800000Y2868622D02*
D03*
X6700000Y2868605D02*
D03*
X6750000Y2868622D02*
D03*
X3610000Y872853D02*
D03*
X4865000Y1980295D02*
D03*
X4630000Y4692520D02*
D03*
X4358228Y4564520D02*
D03*
X4407283D02*
D03*
X4358228Y4527354D02*
D03*
X4407283D02*
D03*
X2531607Y885000D02*
D03*
X4406607D02*
D03*
X2895533Y1714781D02*
D03*
X2857648Y1746159D02*
D03*
X2125732Y2812086D02*
D03*
X1987126Y2616102D02*
D03*
X2189732Y2688583D02*
D03*
X1952803Y2548583D02*
D03*
X2297717Y3310709D02*
D03*
X1980906Y3229764D02*
D03*
X2056760Y3238268D02*
D03*
X1980912Y3266466D02*
D03*
X2297732Y3266260D02*
D03*
X1974997Y3189055D02*
D03*
X1586705Y2712893D02*
D03*
X1633556Y2803989D02*
D03*
Y2712893D02*
D03*
Y2758583D02*
D03*
X1586705Y2803989D02*
D03*
Y2758583D02*
D03*
X3193000Y2028071D02*
D03*
X3227000D02*
D03*
X3268000D02*
D03*
X3302000D02*
D03*
X3976032Y1695000D02*
D03*
X3343000Y2028071D02*
D03*
X3377000D02*
D03*
X4519035Y1687500D02*
D03*
X4462404D02*
D03*
X3152000Y2028071D02*
D03*
X3118000D02*
D03*
X3077000D02*
D03*
X3043000D02*
D03*
X3002000D02*
D03*
X2968000D02*
D03*
X5151805Y6026875D02*
D03*
X5045061Y6173199D02*
D03*
X2030000Y5988386D02*
D03*
X1540503Y5947813D02*
D03*
X1668858Y5883857D02*
D03*
X1285000Y5962795D02*
D03*
X1235000Y6059008D02*
D03*
X1164712Y6080000D02*
D03*
X923858Y5883857D02*
D03*
X872561Y6030002D02*
D03*
X795503Y5947813D02*
D03*
X2260000Y6327008D02*
D03*
X2092205Y6582000D02*
D03*
X2018000Y6473071D02*
D03*
X2002614Y6290244D02*
D03*
X2143386Y6327000D02*
D03*
X2092205Y6290236D02*
D03*
X1497205D02*
D03*
X1548386Y6327000D02*
D03*
X1407614Y6290244D02*
D03*
X1423000Y6473071D02*
D03*
X1660000Y6561000D02*
D03*
X1497205Y6582000D02*
D03*
X1665000Y6327008D02*
D03*
X10090433Y6569142D02*
D03*
X10145559Y6490606D02*
D03*
Y6569393D02*
D03*
X10095000Y6303000D02*
D03*
X10139000D02*
D03*
X10225000Y6435000D02*
D03*
X10462953Y6557162D02*
D03*
Y6521728D02*
D03*
X10493228Y6573027D02*
D03*
Y6513442D02*
D03*
X10462400Y6778433D02*
D03*
X10214345Y6740000D02*
D03*
X10325079Y6697849D02*
D03*
X10198000Y6685000D02*
D03*
X10222439Y6531260D02*
D03*
X10266102Y6467911D02*
D03*
X10365000Y6322521D02*
D03*
X10397898Y6362677D02*
D03*
X10397913Y6397323D02*
D03*
X10322000Y6460787D02*
D03*
X10536864Y6479700D02*
D03*
X1020027Y4714685D02*
D03*
X911823Y3925000D02*
D03*
X864973D02*
D03*
Y3879310D02*
D03*
Y3970407D02*
D03*
X911823Y3879310D02*
D03*
Y3970407D02*
D03*
X1242126Y4127480D02*
D03*
X1210000Y4156841D02*
D03*
X1325000Y3970000D02*
D03*
X1071459Y3703670D02*
D03*
X1035366Y3740183D02*
D03*
X1209952Y3770409D02*
D03*
X1245118Y3802520D02*
D03*
X1285559Y3845000D02*
D03*
X2625000Y3461000D02*
D03*
X2725000Y3447000D02*
D03*
X2670000Y3447008D02*
D03*
X2785000Y3438160D02*
D03*
X3445000Y3454961D02*
D03*
X3390000D02*
D03*
X3476847Y3292520D02*
D03*
X3505000Y3263159D02*
D03*
X3467992Y3671694D02*
D03*
X3467995Y3618715D02*
D03*
X3863044Y3535407D02*
D03*
Y3444310D02*
D03*
X3816194Y3535407D02*
D03*
Y3444310D02*
D03*
Y3490000D02*
D03*
X3863044D02*
D03*
X3665015D02*
D03*
X3435000Y3570000D02*
D03*
X5055236Y3061000D02*
D03*
X5054732Y3100315D02*
D03*
X4936332Y3047816D02*
D03*
X4733015Y3026213D02*
D03*
X4772739Y3026090D02*
D03*
X4733015Y3072323D02*
D03*
X4772739D02*
D03*
X4977165Y3100315D02*
D03*
X2933205Y1748647D02*
D03*
X2958526Y1717269D02*
D03*
X3032519Y1748200D02*
D03*
X3031055Y1706217D02*
D03*
X3112012Y1749041D02*
D03*
X3108784Y1707058D02*
D03*
X3185272Y1750699D02*
D03*
X3185311Y1707058D02*
D03*
X3256443Y1749674D02*
D03*
X3255668Y1708174D02*
D03*
X3334238Y1749862D02*
D03*
X3408626Y1718918D02*
D03*
X3480000Y1719138D02*
D03*
X3486508Y1999685D02*
D03*
X3556645Y1742963D02*
D03*
X4502000Y1855000D02*
D03*
X4135389Y1695000D02*
D03*
X3876338Y1877624D02*
D03*
X1081614Y1145000D02*
D03*
Y1190000D02*
D03*
X1108980Y1255000D02*
D03*
Y1340000D02*
D03*
X834646Y1320000D02*
D03*
X1706614Y1145000D02*
D03*
Y1190000D02*
D03*
X1733980Y1255000D02*
D03*
Y1340000D02*
D03*
X1459646Y1320000D02*
D03*
X2331614Y1145000D02*
D03*
Y1190000D02*
D03*
X2358980Y1255000D02*
D03*
Y1340000D02*
D03*
X2956614Y1145000D02*
D03*
Y1190000D02*
D03*
X2983980Y1255000D02*
D03*
Y1340000D02*
D03*
X3581614Y1145000D02*
D03*
Y1190000D02*
D03*
X3608980Y1255000D02*
D03*
X3334646Y1320000D02*
D03*
X4206614Y1145000D02*
D03*
Y1190000D02*
D03*
X4233980Y1255000D02*
D03*
Y1340000D02*
D03*
X3959646Y1320000D02*
D03*
X4831614Y1145000D02*
D03*
Y1190000D02*
D03*
X4858980Y1255000D02*
D03*
Y1340000D02*
D03*
X4584646Y1320000D02*
D03*
X5209646D02*
D03*
X5483980Y1340000D02*
D03*
Y1255000D02*
D03*
X5456614Y1190000D02*
D03*
Y1145000D02*
D03*
X1085000Y582627D02*
D03*
X1015000Y583481D02*
D03*
X1110000Y872853D02*
D03*
X1040000Y856941D02*
D03*
X990000D02*
D03*
X820000Y565321D02*
D03*
X736024Y607087D02*
D03*
X671280Y740000D02*
D03*
Y825000D02*
D03*
X709134Y926431D02*
D03*
X709606Y965000D02*
D03*
X1710000Y582627D02*
D03*
X1640000Y583481D02*
D03*
X1735000Y872853D02*
D03*
X1665000Y856941D02*
D03*
X1615000D02*
D03*
X1445000Y565321D02*
D03*
X1361024Y607087D02*
D03*
X1334134Y926431D02*
D03*
X1334606Y965000D02*
D03*
X2335000Y582627D02*
D03*
X2265000Y583481D02*
D03*
X2360000Y872853D02*
D03*
X2290000Y856941D02*
D03*
X2240000D02*
D03*
X2070000Y565321D02*
D03*
X1986024Y607087D02*
D03*
X1921280Y825000D02*
D03*
X1959134Y926431D02*
D03*
X1959606Y965000D02*
D03*
X2960000Y582627D02*
D03*
X2890000Y583481D02*
D03*
X2985000Y872853D02*
D03*
X2915000Y856941D02*
D03*
X2865000D02*
D03*
X2695000Y565321D02*
D03*
X2611024Y607087D02*
D03*
X2546280Y740000D02*
D03*
Y825000D02*
D03*
X2584134Y926431D02*
D03*
X2584606Y965000D02*
D03*
X3585000Y582627D02*
D03*
X3515000Y583481D02*
D03*
X3540000Y856941D02*
D03*
X3490000D02*
D03*
X3320000Y565321D02*
D03*
X3236024Y607087D02*
D03*
X3171280Y740000D02*
D03*
Y825000D02*
D03*
X3209134Y926431D02*
D03*
X3209606Y965000D02*
D03*
X4210000Y582627D02*
D03*
X4140000Y583481D02*
D03*
X4235000Y872853D02*
D03*
X4165000Y856941D02*
D03*
X4115000D02*
D03*
X3945000Y565321D02*
D03*
X3796280Y740000D02*
D03*
Y825000D02*
D03*
X3834134Y926431D02*
D03*
X3834606Y965000D02*
D03*
X4835000Y582627D02*
D03*
X4860000Y872853D02*
D03*
X4790000Y856941D02*
D03*
X4740000D02*
D03*
X4570000Y565321D02*
D03*
X4486024Y607087D02*
D03*
X4421280Y740000D02*
D03*
Y825000D02*
D03*
X4459134Y926431D02*
D03*
X4459606Y965000D02*
D03*
X656607Y885000D02*
D03*
X1281607D02*
D03*
X1906607D02*
D03*
X3156607D02*
D03*
X3781607D02*
D03*
X5031607D02*
D03*
X5084606Y965000D02*
D03*
X5084134Y926431D02*
D03*
X5046280Y825000D02*
D03*
Y740000D02*
D03*
X823000Y685000D02*
D03*
X1448000D02*
D03*
X2073000D02*
D03*
X2698000D02*
D03*
X3323000D02*
D03*
X3948000D02*
D03*
X4573000D02*
D03*
X5198000D02*
D03*
X5195000Y565321D02*
D03*
X5365000Y856941D02*
D03*
X5415000D02*
D03*
X5485000Y872853D02*
D03*
X5390000Y583481D02*
D03*
X5460000Y582627D02*
D03*
X7005000Y6721743D02*
D03*
X6901333Y6562480D02*
D03*
X6864016Y6606339D02*
D03*
X6864246Y6467880D02*
D03*
X5909286Y6562480D02*
D03*
X5871968Y6606339D02*
D03*
X5872199Y6467880D02*
D03*
X4884992Y6039099D02*
D03*
Y6192795D02*
D03*
X4970000Y6035433D02*
D03*
Y6192795D02*
D03*
X5045000Y6032578D02*
D03*
X5700748Y6028268D02*
D03*
X5765709D02*
D03*
X5937520Y6150039D02*
D03*
X6002480D02*
D03*
X6177078Y6149760D02*
D03*
X6332520Y6154122D02*
D03*
X6403425Y6147528D02*
D03*
X6673098Y6025104D02*
D03*
X7532480Y5967017D02*
D03*
X7493997Y6000028D02*
D03*
X7612520Y5967017D02*
D03*
X7493983Y6150915D02*
D03*
X7569984Y6000406D02*
D03*
X7570000Y6150269D02*
D03*
X7655000Y5998082D02*
D03*
Y6147945D02*
D03*
X5885000Y1831214D02*
D03*
X9765984Y3970707D02*
D03*
X9688152Y3918283D02*
D03*
X9915984Y3970707D02*
D03*
X9993832Y3918268D02*
D03*
X10960500Y3285755D02*
D03*
X9722717Y3700000D02*
D03*
Y3655787D02*
D03*
Y3746339D02*
D03*
X9961811Y3700000D02*
D03*
Y3655787D02*
D03*
Y3746339D02*
D03*
X9778858D02*
D03*
X9900906D02*
D03*
Y3655787D02*
D03*
X9778858D02*
D03*
X9840000D02*
D03*
Y3746339D02*
D03*
X9900906Y3700000D02*
D03*
X9778858D02*
D03*
X11036386Y3324685D02*
D03*
X11033200Y3292151D02*
D03*
X11133594Y3344370D02*
D03*
X10751781Y3196378D02*
D03*
X10790000Y3163487D02*
D03*
X10645380Y3243622D02*
D03*
X9632000Y3684000D02*
D03*
X9598000D02*
D03*
X9633000Y3561307D02*
D03*
X9598000Y3575000D02*
D03*
X9601000Y3507000D02*
D03*
X9566000D02*
D03*
X9579000Y3456658D02*
D03*
X9765000Y3470000D02*
D03*
X10033000Y3513000D02*
D03*
X9985000D02*
D03*
X10334000Y3442000D02*
D03*
X10230000Y3230000D02*
D03*
X9975252Y3233685D02*
D03*
X9932252D02*
D03*
X9881560Y3312000D02*
D03*
X9916000D02*
D03*
X9807000Y3379000D02*
D03*
X9830000Y3258000D02*
D03*
X9811000Y3222000D02*
D03*
X9959000Y3050000D02*
D03*
Y3107000D02*
D03*
Y2991000D02*
D03*
X9910000Y3080333D02*
D03*
Y3135000D02*
D03*
Y3025667D02*
D03*
Y2971000D02*
D03*
X9700000Y3080333D02*
D03*
Y3135000D02*
D03*
Y3025667D02*
D03*
Y2971000D02*
D03*
X9840000Y3135000D02*
D03*
Y3025667D02*
D03*
Y2971000D02*
D03*
X9770000D02*
D03*
Y3025667D02*
D03*
Y3135000D02*
D03*
Y3080333D02*
D03*
X11032019Y1314192D02*
D03*
X11087598Y1394165D02*
D03*
X11133594Y1369370D02*
D03*
X11032019Y1349685D02*
D03*
X10959747Y1310334D02*
D03*
X10790000Y1189006D02*
D03*
X10753858Y1221378D02*
D03*
X10647881Y1268622D02*
D03*
X9629000Y1805866D02*
D03*
X9591016Y1533008D02*
D03*
Y1592693D02*
D03*
Y1652339D02*
D03*
X9591000Y1712024D02*
D03*
X9674016Y1533000D02*
D03*
Y1592685D02*
D03*
Y1652331D02*
D03*
X9674000Y1712016D02*
D03*
X9757000Y1712008D02*
D03*
X9757016Y1652323D02*
D03*
Y1592677D02*
D03*
Y1532992D02*
D03*
X9972992Y1592677D02*
D03*
X9973000Y1712000D02*
D03*
Y1652323D02*
D03*
X9919016Y1533000D02*
D03*
Y1592667D02*
D03*
Y1652333D02*
D03*
X9919000Y1712000D02*
D03*
X9840000Y1532992D02*
D03*
Y1592677D02*
D03*
X9972832Y1914134D02*
D03*
X11133594Y2014370D02*
D03*
X11087598Y2039165D02*
D03*
X11028832Y1961312D02*
D03*
Y1923767D02*
D03*
X11032019Y1994685D02*
D03*
X10766535Y1887323D02*
D03*
X10763851Y1852677D02*
D03*
X10800000Y1824134D02*
D03*
X10962016Y1954858D02*
D03*
X9778858Y2316417D02*
D03*
X9840000D02*
D03*
X9900906D02*
D03*
Y2485709D02*
D03*
X9840000D02*
D03*
X9778858D02*
D03*
Y2446339D02*
D03*
X9900906D02*
D03*
Y2355787D02*
D03*
X9778858D02*
D03*
X9840000D02*
D03*
Y2446339D02*
D03*
X9900906Y2400000D02*
D03*
X9778858D02*
D03*
X9717751Y2398372D02*
D03*
Y2444710D02*
D03*
Y2484081D02*
D03*
X9895000Y2750465D02*
D03*
X9974235Y2801732D02*
D03*
X9745000Y2749599D02*
D03*
X9665996Y2800866D02*
D03*
X9974004Y2659134D02*
D03*
X9895000Y2710401D02*
D03*
X9665765Y2659134D02*
D03*
X9745000Y2710401D02*
D03*
X8678875Y2679829D02*
D03*
X8739781D02*
D03*
X8617733D02*
D03*
Y2719200D02*
D03*
X8678875D02*
D03*
X8739781D02*
D03*
X8739251Y2758427D02*
D03*
X8678345D02*
D03*
X8617204D02*
D03*
X8495157D02*
D03*
X8556298D02*
D03*
X8556828Y2719200D02*
D03*
X8495686D02*
D03*
Y2679829D02*
D03*
X8556828D02*
D03*
X8373109Y2758427D02*
D03*
X8434251D02*
D03*
X8434781Y2719200D02*
D03*
X8373639D02*
D03*
Y2679829D02*
D03*
X8434781D02*
D03*
X8541755Y2870989D02*
D03*
X8560000Y3047485D02*
D03*
X8635000D02*
D03*
X8485000D02*
D03*
X8400000Y3047505D02*
D03*
X9060000Y3057241D02*
D03*
X9092337Y3012992D02*
D03*
X7131873Y1613934D02*
D03*
X6852739Y1506090D02*
D03*
X6813015Y1506213D02*
D03*
X6852739Y1552323D02*
D03*
X6813015D02*
D03*
X5846949Y1969842D02*
D03*
X7942402Y6993926D02*
D03*
X7866674Y6893587D02*
D03*
X7905000Y6902575D02*
D03*
X7940000Y7100433D02*
D03*
X7905046Y7104804D02*
D03*
X7867644Y7007078D02*
D03*
X9067976Y6503038D02*
D03*
X8995400Y6537402D02*
D03*
X8987599Y6462599D02*
D03*
X9027709Y6472961D02*
D03*
X8906127Y6500000D02*
D03*
X8800276Y6462599D02*
D03*
Y6537402D02*
D03*
X8806964Y6665031D02*
D03*
X8720350Y6581395D02*
D03*
X8737799Y6739799D02*
D03*
X9002677Y6733078D02*
D03*
X4965641Y6604641D02*
D03*
X4931763Y5980713D02*
D03*
X840358Y4655630D02*
D03*
X946534Y4709172D02*
D03*
X946341Y4743150D02*
D03*
X1222480Y4787126D02*
D03*
X1260984D02*
D03*
X1222496Y4742677D02*
D03*
X1261000D02*
D03*
X1795000Y5170213D02*
D03*
Y5123362D02*
D03*
Y5263718D02*
D03*
Y5216868D02*
D03*
X771567Y5401468D02*
D03*
X869596D02*
D03*
X954578D02*
D03*
X1048438D02*
D03*
X1152447D02*
D03*
X1239332D02*
D03*
X1333826D02*
D03*
X1418175D02*
D03*
X1508864D02*
D03*
X1591310D02*
D03*
X1678195D02*
D03*
X1772688D02*
D03*
X1860207D02*
D03*
X2075834D02*
D03*
X1409945Y5282229D02*
D03*
X1543979Y5334129D02*
D03*
X1394438Y5185000D02*
D03*
X1426166Y5222786D02*
D03*
X1489415Y5218655D02*
D03*
X1482558Y5116535D02*
D03*
X1540000Y5069158D02*
D03*
X2590581Y5204317D02*
D03*
X2523494Y5235534D02*
D03*
X2556526D02*
D03*
X2590581D02*
D03*
X2754352Y5125308D02*
D03*
X2790022Y5064509D02*
D03*
X2594899D02*
D03*
X2639587Y5125308D02*
D03*
X2677581D02*
D03*
X2715579D02*
D03*
X2819733Y4730901D02*
D03*
X2729000Y4587000D02*
D03*
X2539693Y4625962D02*
D03*
X2672155Y4587000D02*
D03*
X2617125D02*
D03*
X2565000D02*
D03*
X2255000Y5174976D02*
D03*
X2152598Y4866000D02*
D03*
X2152581Y4897534D02*
D03*
X2187581Y4897148D02*
D03*
X2117936Y4897534D02*
D03*
X2260000Y4632115D02*
D03*
X2069200Y4935000D02*
D03*
X2120000Y5140968D02*
D03*
X2126614Y4654000D02*
D03*
X2165000Y5054729D02*
D03*
X2106740Y4830959D02*
D03*
X2027270Y5100471D02*
D03*
X1978997Y4967520D02*
D03*
X1944941D02*
D03*
X1911910Y4936302D02*
D03*
X1944941D02*
D03*
X1978997D02*
D03*
X1911910Y4903482D02*
D03*
X1944941D02*
D03*
X1978997D02*
D03*
X1911910Y4967520D02*
D03*
X1991794Y5167729D02*
D03*
X1943313Y5077222D02*
D03*
X1942505Y5047397D02*
D03*
X1884508Y5009882D02*
D03*
X2032874Y4572835D02*
D03*
X1986023D02*
D03*
X1885331Y4730000D02*
D03*
X2031643Y4663891D02*
D03*
X1940804Y4824433D02*
D03*
X1884508Y4860118D02*
D03*
X1827400Y4954685D02*
D03*
X4309764Y6860009D02*
D03*
X4309745Y6915000D02*
D03*
X4569392Y6860000D02*
D03*
X4568595Y6915000D02*
D03*
X5458852Y6027839D02*
D03*
X5435872Y5993783D02*
D03*
X5411382Y5962288D02*
D03*
X5387986Y6027839D02*
D03*
X5364138Y5993783D02*
D03*
X5340516Y5962288D02*
D03*
X5317120Y6027839D02*
D03*
X5293275Y5993783D02*
D03*
X5269663Y5962288D02*
D03*
X5246254Y6028150D02*
D03*
X5222423Y5993783D02*
D03*
X5175427Y6157751D02*
D03*
X4818577Y6033114D02*
D03*
Y5980713D02*
D03*
X5009130Y5980709D02*
D03*
X5447041Y6473315D02*
D03*
X5375954Y6473417D02*
D03*
X5234489Y6473309D02*
D03*
X4902189Y6604641D02*
D03*
X5039943D02*
D03*
X2370887Y2480000D02*
D03*
X2501485Y2425000D02*
D03*
X3030779Y2422744D02*
D03*
Y2387272D02*
D03*
X2911350Y2412603D02*
D03*
X2951161Y2413966D02*
D03*
X2754291Y2300000D02*
D03*
Y2340000D02*
D03*
X2796693Y2391260D02*
D03*
X3032685Y2332270D02*
D03*
X2958469Y2302815D02*
D03*
X2949404Y2268682D02*
D03*
X2851142Y2260000D02*
D03*
X2851150Y2340000D02*
D03*
Y2300000D02*
D03*
X2195000Y3891000D02*
D03*
X2311399Y3851209D02*
D03*
X2381747Y3809898D02*
D03*
X2265000Y3890984D02*
D03*
X2126811Y3720000D02*
D03*
Y3765000D02*
D03*
Y3810000D02*
D03*
Y3855000D02*
D03*
X2079271Y3832500D02*
D03*
X2605000Y4018189D02*
D03*
X2560000D02*
D03*
X2515000D02*
D03*
X2470000D02*
D03*
X2425000D02*
D03*
X2380000D02*
D03*
X2438388Y3760318D02*
D03*
X2481026D02*
D03*
X2524530Y3717167D02*
D03*
Y3760318D02*
D03*
Y3675615D02*
D03*
X2465000Y3545000D02*
D03*
X2430709Y3839219D02*
D03*
X2780994Y3807500D02*
D03*
X2753067Y3740000D02*
D03*
Y3695000D02*
D03*
X2572285Y3584867D02*
D03*
X2670000Y3589478D02*
D03*
X2725000D02*
D03*
X2785000D02*
D03*
X2542323Y3209507D02*
D03*
X2507677D02*
D03*
X2617875Y3370000D02*
D03*
X2431258D02*
D03*
X2240000Y3412000D02*
D03*
X2295000Y3427727D02*
D03*
X2345000Y3472433D02*
D03*
X2481026Y3717167D02*
D03*
X2438388D02*
D03*
X2481026Y3675615D02*
D03*
X2438388D02*
D03*
X8744828Y5962813D02*
D03*
X8817323Y5968993D02*
D03*
X8960000Y6184387D02*
D03*
X8903249Y6227411D02*
D03*
X8999458Y6112677D02*
D03*
X9611058Y6553000D02*
D03*
X9520000Y6804000D02*
D03*
X9181932Y6567598D02*
D03*
X9227932D02*
D03*
X9357283Y6630000D02*
D03*
X9401000Y6783622D02*
D03*
X9430166Y6972559D02*
D03*
X9390000Y7008512D02*
D03*
X9101087Y6877583D02*
D03*
X9147087D02*
D03*
X8982480Y6772244D02*
D03*
X8939173D02*
D03*
X8852559D02*
D03*
X8722638D02*
D03*
X9025787D02*
D03*
X8809252D02*
D03*
X8765945D02*
D03*
X9114505Y6714961D02*
D03*
X9170669Y6651748D02*
D03*
X9223591Y6714961D02*
D03*
X9114505Y7041732D02*
D03*
X9170669Y6978519D02*
D03*
X9223591Y7041732D02*
D03*
X8573166Y6714961D02*
D03*
X8629331Y6651748D02*
D03*
X8682252Y6714961D02*
D03*
Y7041732D02*
D03*
X8629331Y6978519D02*
D03*
X8573166Y7041732D02*
D03*
X7265782Y6473315D02*
D03*
X7171333D02*
D03*
X7430942Y6357544D02*
D03*
X7383892Y6470851D02*
D03*
X7487216Y6576063D02*
D03*
X7614497D02*
D03*
X7554789D02*
D03*
X7454528Y6483269D02*
D03*
X7005748Y6510433D02*
D03*
X7797500Y7105000D02*
D03*
Y7045000D02*
D03*
Y6985000D02*
D03*
X7770829Y7075000D02*
D03*
X7774593Y7135000D02*
D03*
X7985000Y7289370D02*
D03*
X7740548Y7289381D02*
D03*
X8023268Y6885039D02*
D03*
Y6963780D02*
D03*
Y7042520D02*
D03*
X8344449Y7121260D02*
D03*
Y7042520D02*
D03*
Y6963779D02*
D03*
Y6885039D02*
D03*
Y6806299D02*
D03*
Y6727559D02*
D03*
X7870000Y6394057D02*
D03*
X9437794Y4734724D02*
D03*
X9708228D02*
D03*
X9940984Y5164922D02*
D03*
X9579383Y5226953D02*
D03*
X9607248Y5259496D02*
D03*
X9577804Y5190535D02*
D03*
X9677867Y5164632D02*
D03*
X9729953Y5165000D02*
D03*
X9756382Y5125000D02*
D03*
X9729374Y5085000D02*
D03*
X9760083Y5045000D02*
D03*
X9729370Y5005000D02*
D03*
X9646220Y4910984D02*
D03*
X9610000Y4936000D02*
D03*
X8823976Y4983999D02*
D03*
X9581658Y4911342D02*
D03*
X9558976Y4983999D02*
D03*
X9530000Y4924000D02*
D03*
X9490000Y4889016D02*
D03*
X9202500Y5195000D02*
D03*
X9202520Y4953954D02*
D03*
X9387602Y5075000D02*
D03*
X9415358Y5046146D02*
D03*
X9375437Y5019299D02*
D03*
X8843038Y5232262D02*
D03*
X8865440Y5256435D02*
D03*
X8844546Y5193197D02*
D03*
X8773332Y5225756D02*
D03*
X8946258Y5163450D02*
D03*
X8967527Y5127173D02*
D03*
X9029102Y5100795D02*
D03*
X8952173Y5073787D02*
D03*
X8990086Y5043748D02*
D03*
X8939850Y5013630D02*
D03*
X8463819Y5190000D02*
D03*
Y5148661D02*
D03*
X8640086Y5149413D02*
D03*
X8669496Y5127957D02*
D03*
X8639106Y5100795D02*
D03*
X8672055Y5075280D02*
D03*
X8672370Y5025831D02*
D03*
X9068548Y4737528D02*
D03*
X9068602Y4701154D02*
D03*
X8911220Y4910984D02*
D03*
X8875000Y4936000D02*
D03*
X8847000Y4911000D02*
D03*
X8795000Y4924000D02*
D03*
X8770000Y4889000D02*
D03*
X7387277Y3122489D02*
D03*
X7277244Y2989916D02*
D03*
X7559000Y3391772D02*
D03*
X7598685D02*
D03*
X7515654D02*
D03*
X7375000Y3464409D02*
D03*
X7425000D02*
D03*
X7475000Y3464414D02*
D03*
X7431038Y3292202D02*
D03*
X7258392Y3440949D02*
D03*
X7050258Y3919095D02*
D03*
X7098425Y3912209D02*
D03*
X7074300Y3873886D02*
D03*
X7120499Y3874059D02*
D03*
X7058409Y3749140D02*
D03*
X7097779Y3748665D02*
D03*
X7156834Y3749439D02*
D03*
X7078094Y3723289D02*
D03*
X6904990Y4094859D02*
D03*
X6954990D02*
D03*
X6960709Y3854681D02*
D03*
X6746158Y3696850D02*
D03*
X6630000Y3722716D02*
D03*
X6444414Y3668465D02*
D03*
X6739511Y3578740D02*
D03*
X6763312Y3547938D02*
D03*
X6744489Y3519685D02*
D03*
X6415394Y3540000D02*
D03*
X6374583Y3515000D02*
D03*
X6415394Y3489999D02*
D03*
Y3440009D02*
D03*
X6374409Y3465000D02*
D03*
X6415394Y3391236D02*
D03*
X6374409Y3365000D02*
D03*
X6415394Y3339990D02*
D03*
Y3290000D02*
D03*
X6413160Y3240000D02*
D03*
X6374413Y3265000D02*
D03*
X6444947Y3106636D02*
D03*
X6668551Y3169324D02*
D03*
X6900000Y2868622D02*
D03*
X6950000D02*
D03*
X7000000D02*
D03*
X7050000D02*
D03*
X7125000Y2908386D02*
D03*
X7151855Y2934193D02*
D03*
X7075000Y2908386D02*
D03*
X7025000D02*
D03*
X6975000D02*
D03*
X6925000D02*
D03*
X6875000D02*
D03*
X6825000D02*
D03*
X6775000D02*
D03*
X6725000D02*
D03*
X6675000D02*
D03*
X7039370Y3238401D02*
D03*
X3302555Y2359764D02*
D03*
X3331545Y2297756D02*
D03*
X3325511Y2722677D02*
D03*
X3326082Y2757323D02*
D03*
X3295000Y2790771D02*
D03*
X4994646Y5165551D02*
D03*
X4877624Y5056904D02*
D03*
X5076597Y5234449D02*
D03*
X4993019Y5235820D02*
D03*
X5079203Y5387000D02*
D03*
X5112000D02*
D03*
X4945066Y5395000D02*
D03*
X4829223Y5125345D02*
D03*
X4844552Y5153117D02*
D03*
X4669695Y5249726D02*
D03*
Y5283832D02*
D03*
X4740000Y5224000D02*
D03*
X4692575Y5325286D02*
D03*
X4645903Y5382323D02*
D03*
X4916575Y5367350D02*
D03*
X4107008Y1947000D02*
D03*
Y2062992D02*
D03*
X942323Y1113000D02*
D03*
X827677D02*
D03*
X1567323D02*
D03*
X1452677D02*
D03*
X2192323D02*
D03*
X2077677D02*
D03*
X2817323D02*
D03*
X2702677D02*
D03*
X3442323D02*
D03*
X3327677D02*
D03*
X4067323D02*
D03*
X3952677D02*
D03*
X4692323D02*
D03*
X4577677D02*
D03*
X5202677D02*
D03*
X5317323D02*
D03*
X11195020Y6372980D02*
D03*
X11378966Y6250000D02*
D03*
X11412677Y6217283D02*
D03*
X11528966Y6250000D02*
D03*
X11562677Y6217283D02*
D03*
X11678966Y6250000D02*
D03*
X11712677Y6217283D02*
D03*
X11862677D02*
D03*
X11828966Y6250000D02*
D03*
X11339960Y6312835D02*
D03*
X11489960D02*
D03*
X11639960D02*
D03*
X11789960D02*
D03*
X10837094Y6219854D02*
D03*
X10838858Y5381053D02*
D03*
X11170000Y6035975D02*
D03*
X11128753Y5994559D02*
D03*
X11111527Y5504441D02*
D03*
X11169292Y5457518D02*
D03*
X11033000Y6392441D02*
D03*
Y6447559D02*
D03*
X11070000Y6480000D02*
D03*
X11250000Y6505000D02*
D03*
X11213000Y6472559D02*
D03*
X11680000Y1750000D02*
D03*
X11620000Y2225000D02*
D03*
X11680000Y2125000D02*
D03*
X11620000Y1650000D02*
D03*
X11680000Y900000D02*
D03*
X11620000Y1000000D02*
D03*
X10833000Y6571000D02*
D03*
X10668000D02*
D03*
X10731000D02*
D03*
X12095000Y6520000D02*
D03*
Y6481000D02*
D03*
Y6257000D02*
D03*
Y6320000D02*
D03*
Y6385000D02*
D03*
X12050000Y6396043D02*
D03*
X11982520Y6225000D02*
D03*
X11981536Y6407000D02*
D03*
X12194000Y6631181D02*
D03*
X4552000Y2500000D02*
D03*
X4343000Y2150716D02*
D03*
X4360000Y1960000D02*
D03*
X4426654Y1845000D02*
D03*
X4077000Y1985000D02*
D03*
Y2025000D02*
D03*
X4253000Y1985000D02*
D03*
Y2025000D02*
D03*
X4025000Y2005000D02*
D03*
X4434614Y2068000D02*
D03*
X4516614Y1935000D02*
D03*
X4737000Y2006000D02*
D03*
X4740000Y1909000D02*
D03*
X4705000Y1928000D02*
D03*
X4534000Y2076386D02*
D03*
Y2034386D02*
D03*
X4576000Y2076386D02*
D03*
Y2034386D02*
D03*
X11067323Y244677D02*
D03*
X10733323D02*
D03*
X890000Y401000D02*
D03*
X808000Y245000D02*
D03*
X1142000D02*
D03*
X820000Y530000D02*
D03*
X1018000Y738000D02*
D03*
X1055000D02*
D03*
X950000Y774000D02*
D03*
X916000Y644000D02*
D03*
X958000D02*
D03*
X865000Y279000D02*
D03*
X916000Y686000D02*
D03*
X958000D02*
D03*
X5265000Y401000D02*
D03*
X5183000Y245000D02*
D03*
X5517000D02*
D03*
X5393000Y738000D02*
D03*
X5430000D02*
D03*
X5325000Y774000D02*
D03*
X5291000Y644000D02*
D03*
X5333000D02*
D03*
X5240000Y279000D02*
D03*
X5291000Y686000D02*
D03*
X5333000D02*
D03*
X4640000Y401000D02*
D03*
X4558000Y245000D02*
D03*
X4892000D02*
D03*
X4570000Y530000D02*
D03*
X4768000Y738000D02*
D03*
X4805000D02*
D03*
X4700000Y774000D02*
D03*
X4666000Y644000D02*
D03*
X4708000D02*
D03*
X4615000Y279000D02*
D03*
X4666000Y686000D02*
D03*
X4708000D02*
D03*
X4015000Y401000D02*
D03*
X3933000Y245000D02*
D03*
X4267000D02*
D03*
X3945000Y530000D02*
D03*
X4143000Y738000D02*
D03*
X4180000D02*
D03*
X4075000Y774000D02*
D03*
X4041000Y644000D02*
D03*
X4083000D02*
D03*
X3990000Y279000D02*
D03*
X4041000Y686000D02*
D03*
X4083000D02*
D03*
X3390000Y401000D02*
D03*
X3308000Y245000D02*
D03*
X3642000D02*
D03*
X3320000Y530000D02*
D03*
X3518000Y738000D02*
D03*
X3555000D02*
D03*
X3450000Y774000D02*
D03*
X3416000Y644000D02*
D03*
X3458000D02*
D03*
X3365000Y279000D02*
D03*
X3416000Y686000D02*
D03*
X3458000D02*
D03*
X2765000Y401000D02*
D03*
X2683000Y245000D02*
D03*
X3017000D02*
D03*
X2695000Y530000D02*
D03*
X2893000Y738000D02*
D03*
X2930000D02*
D03*
X2825000Y774000D02*
D03*
X2791000Y644000D02*
D03*
X2833000D02*
D03*
X2740000Y279000D02*
D03*
X2791000Y686000D02*
D03*
X2833000D02*
D03*
X1583000D02*
D03*
X1541000D02*
D03*
X1490000Y279000D02*
D03*
X1583000Y644000D02*
D03*
X1541000D02*
D03*
X1575000Y774000D02*
D03*
X1680000Y738000D02*
D03*
X1643000D02*
D03*
X1445000Y530000D02*
D03*
X1767000Y245000D02*
D03*
X1433000D02*
D03*
X1515000Y401000D02*
D03*
X2140000D02*
D03*
X2058000Y245000D02*
D03*
X2392000D02*
D03*
X2070000Y530000D02*
D03*
X2268000Y738000D02*
D03*
X2305000D02*
D03*
X2166000Y644000D02*
D03*
X2208000D02*
D03*
X2115000Y279000D02*
D03*
X2166000Y686000D02*
D03*
X2208000D02*
D03*
X4053000Y920000D02*
D03*
X846000Y887000D02*
D03*
X928000Y920000D02*
D03*
X862000Y1207000D02*
D03*
X908000D02*
D03*
X865000Y1143000D02*
D03*
X905000D02*
D03*
X865000Y967000D02*
D03*
X905000D02*
D03*
X4655000D02*
D03*
X4615000D02*
D03*
X4655000Y1143000D02*
D03*
X4615000D02*
D03*
X4658000Y1207000D02*
D03*
X4612000D02*
D03*
X4678000Y920000D02*
D03*
X4596000Y887000D02*
D03*
X5280000Y967000D02*
D03*
X5240000D02*
D03*
X5280000Y1143000D02*
D03*
X5240000D02*
D03*
X5283000Y1207000D02*
D03*
X5237000D02*
D03*
X4030000Y967000D02*
D03*
X3990000D02*
D03*
X4030000Y1143000D02*
D03*
X3990000D02*
D03*
X4033000Y1207000D02*
D03*
X3987000D02*
D03*
X3971000Y887000D02*
D03*
X3405000Y967000D02*
D03*
X3365000D02*
D03*
X3405000Y1143000D02*
D03*
X3365000D02*
D03*
X3408000Y1207000D02*
D03*
X3362000D02*
D03*
X3428000Y920000D02*
D03*
X3346000Y887000D02*
D03*
X2780000Y967000D02*
D03*
X2740000D02*
D03*
X2780000Y1143000D02*
D03*
X2740000D02*
D03*
X2783000Y1207000D02*
D03*
X2737000D02*
D03*
X2803000Y920000D02*
D03*
X2721000Y887000D02*
D03*
X2096000D02*
D03*
X2178000Y920000D02*
D03*
X2112000Y1207000D02*
D03*
X2158000D02*
D03*
X2115000Y1143000D02*
D03*
X2155000D02*
D03*
X2115000Y967000D02*
D03*
X2155000D02*
D03*
X1530000Y1143000D02*
D03*
X1490000D02*
D03*
Y967000D02*
D03*
X1530000D02*
D03*
X1471000Y887000D02*
D03*
X1553000Y920000D02*
D03*
X1487000Y1207000D02*
D03*
X1533000D02*
D03*
X11730000Y1700000D02*
D03*
Y950000D02*
D03*
X12375000Y7400000D02*
D03*
Y6910000D02*
D03*
X11950000Y6900000D02*
D03*
X12375000Y7160000D02*
D03*
X11950000Y7165000D02*
D03*
X11945000Y7400000D02*
D03*
X11555000Y7170000D02*
D03*
Y7400000D02*
D03*
X12425000Y4255000D02*
D03*
X12165000Y4785000D02*
D03*
X12425000Y5110000D02*
D03*
Y5935000D02*
D03*
X12185000Y5605000D02*
D03*
X12210000Y6322913D02*
D03*
X10778000Y340000D02*
D03*
X4693386Y4828386D02*
D03*
Y4871693D02*
D03*
Y4915000D02*
D03*
Y4958307D02*
D03*
Y5001614D02*
D03*
X4736693Y4828386D02*
D03*
Y4871693D02*
D03*
Y4915000D02*
D03*
Y4958307D02*
D03*
Y5001614D02*
D03*
X4780000Y4828386D02*
D03*
Y4871693D02*
D03*
Y4915000D02*
D03*
Y4958307D02*
D03*
Y5001614D02*
D03*
X4823307Y4828386D02*
D03*
Y4871693D02*
D03*
Y4915000D02*
D03*
Y4958307D02*
D03*
Y5001614D02*
D03*
X4866614Y4828386D02*
D03*
Y4871693D02*
D03*
Y4915000D02*
D03*
Y4958307D02*
D03*
Y5001614D02*
D03*
D170*
X3939370Y2535039D02*
D03*
X4021370D02*
D03*
X3978370Y2476039D02*
D03*
D171*
X11004171Y5853359D02*
D03*
X10915440D02*
D03*
X10740526D02*
D03*
X11027793Y5869689D02*
D03*
Y5912793D02*
D03*
X11004171Y5678973D02*
D03*
X10915440Y5711633D02*
D03*
X10740526D02*
D03*
X11027793Y5695303D02*
D03*
Y5740303D02*
D03*
X11004171Y5638859D02*
D03*
Y5808859D02*
D03*
D172*
X7976037Y6751491D02*
D03*
D173*
X11838000Y4562000D02*
D03*
D174*
X9593469Y5069299D02*
D03*
X9550162D02*
D03*
X9593469Y5112606D02*
D03*
X9550162D02*
D03*
X8858469Y5069299D02*
D03*
X8815162D02*
D03*
X8858469Y5112606D02*
D03*
X8815162D02*
D03*
X8886654Y6078346D02*
D03*
Y6121654D02*
D03*
X8843346Y6078346D02*
D03*
Y6121654D02*
D03*
X10291693Y6623779D02*
D03*
Y6580472D02*
D03*
Y6537165D02*
D03*
X10335000Y6623779D02*
D03*
Y6580472D02*
D03*
Y6537165D02*
D03*
X10378307Y6623779D02*
D03*
Y6580472D02*
D03*
Y6537165D02*
D03*
X3251614Y2556614D02*
D03*
Y2513307D02*
D03*
Y2470000D02*
D03*
Y2426693D02*
D03*
Y2383386D02*
D03*
X3208307Y2556614D02*
D03*
Y2513307D02*
D03*
Y2470000D02*
D03*
Y2426693D02*
D03*
Y2383386D02*
D03*
X3165000Y2556614D02*
D03*
Y2513307D02*
D03*
Y2470000D02*
D03*
Y2426693D02*
D03*
Y2383386D02*
D03*
X3121693Y2556614D02*
D03*
Y2513307D02*
D03*
Y2470000D02*
D03*
Y2426693D02*
D03*
Y2383386D02*
D03*
X3078386Y2556614D02*
D03*
Y2513307D02*
D03*
Y2470000D02*
D03*
Y2426693D02*
D03*
Y2383386D02*
D03*
X2140433Y6415000D02*
D03*
X2069567D02*
D03*
X2105000Y6435669D02*
D03*
Y6394331D02*
D03*
X1545433Y6415000D02*
D03*
X1474567D02*
D03*
X1510000Y6435669D02*
D03*
Y6394331D02*
D03*
X5789685Y1979685D02*
D03*
X5750315D02*
D03*
X5789685Y1940315D02*
D03*
X5750315D02*
D03*
D178*
X983465Y6807480D02*
Y6944123D01*
Y6464936D02*
Y6807480D01*
X983386Y6807402D02*
X983465Y6807480D01*
X960170Y6807402D02*
X983386D01*
X993226Y6468979D02*
Y6940079D01*
X983465Y6464936D02*
X1372232Y6076169D01*
X983465Y6944123D02*
X995119Y6955777D01*
X4852862Y6467635D02*
X5104043Y6216454D01*
X4500550Y6667242D02*
X4700156Y6467635D01*
X3564092Y6667242D02*
X4500550D01*
X4700156Y6467635D02*
X4852862D01*
X2729528Y5832677D02*
X3564092Y6667242D01*
X1967323Y5832677D02*
X2729528D01*
X1007025Y7100000D02*
X1050000D01*
X1004881Y6951734D02*
Y7097855D01*
X1007025Y7100000D01*
X993226Y6940079D02*
X1004881Y6951734D01*
X1379134Y6083071D02*
X1716929D01*
X993226Y6468979D02*
X1379134Y6083071D01*
X1716929D02*
X1967323Y5832677D01*
X4496507Y6657480D02*
X4696113Y6457874D01*
X3568135Y6657480D02*
X4496507D01*
X4848819Y6457874D02*
X5100000Y6206693D01*
X4696113Y6457874D02*
X4848819D01*
X2733571Y5822916D02*
X3568135Y6657480D01*
X1960420Y5825775D02*
Y5825775D01*
X1963279Y5822916D02*
X2733571D01*
X1960420Y5825775D02*
X1963279Y5822916D01*
X995119Y6955777D02*
Y7097855D01*
X950000Y7100000D02*
X992975D01*
X995119Y7097855D01*
X1372232Y6076169D02*
X1375091Y6073310D01*
X1372232Y6076169D02*
Y6076169D01*
X1712886Y6073310D02*
X1960420Y5825775D01*
X1375091Y6073310D02*
X1712886D01*
X5100000Y6206693D02*
X6592477D01*
X5104043Y6216454D02*
X6596520D01*
X6592477Y6206693D02*
X6599170Y6200000D01*
X6596520Y6216454D02*
X6608931Y6204043D01*
Y6193584D02*
Y6204043D01*
X6599170Y6193584D02*
Y6200000D01*
X6608931Y6193584D02*
X6623692Y6178823D01*
X6584409D02*
X6599170Y6193584D01*
X6633474Y6236199D02*
X6669061Y6200611D01*
X5121756Y6245960D02*
X6637517D01*
X1137089Y6390445D02*
Y6915435D01*
X5117713Y6236199D02*
X6633474D01*
X1146850Y6394488D02*
Y6911392D01*
X6637517Y6245960D02*
X6678823Y6204654D01*
X4860524Y6493388D02*
X5117713Y6236199D01*
X4864567Y6503150D02*
X5121756Y6245960D01*
X1302837Y6307768D02*
Y6881290D01*
X5144094Y6275591D02*
X6687390D01*
X4718185Y6503150D02*
X4864567D01*
X4877559Y6542126D02*
X5144094Y6275591D01*
X4873516Y6532365D02*
X5140051Y6265829D01*
X1312598Y6311811D02*
Y6877247D01*
X5140051Y6265829D02*
X6683346D01*
X4732949Y6542126D02*
X4877559D01*
X6687390Y6275591D02*
X6727047Y6235933D01*
X4714142Y6493388D02*
X4860524D01*
X4728906Y6532365D02*
X4873516D01*
X4504381Y6703150D02*
X4714142Y6493388D01*
X4516389Y6744882D02*
X4728906Y6532365D01*
X4508424Y6712911D02*
X4718185Y6503150D01*
X4520432Y6754643D02*
X4732949Y6542126D01*
X6683346Y6265829D02*
X6717286Y6231890D01*
X3543620Y6712911D02*
X4508424D01*
X2701968Y5871260D02*
X3543620Y6712911D01*
X1204881Y7097855D02*
X1207025Y7100000D01*
X1250000D01*
X1146850Y6911392D02*
X1204881Y6969422D01*
Y7097855D01*
X1402756Y6138583D02*
X1729134D01*
X1146850Y6394488D02*
X1402756Y6138583D01*
X1996457Y5871260D02*
X2701968D01*
X1729134Y6138583D02*
X1996457Y5871260D01*
X3547663Y6703150D02*
X4504381D01*
X1150000Y7100000D02*
X1192975D01*
X1195119Y7097855D01*
Y6973466D02*
Y7097855D01*
X1137089Y6915435D02*
X1195119Y6973466D01*
X2706012Y5861498D02*
X3547663Y6703150D01*
X1989554Y5864357D02*
Y5864358D01*
X1992413Y5861498D02*
X2706012D01*
X1989554Y5864357D02*
X1992413Y5861498D01*
X1137089Y6390445D02*
X1398713Y6128821D01*
X1725091D02*
X1989554Y5864358D01*
X1398713Y6128821D02*
X1725091D01*
X6669061Y6169513D02*
Y6200611D01*
X6678823Y6169513D02*
Y6204654D01*
X6653765Y6154217D02*
X6669061Y6169513D01*
X6678823D02*
X6694119Y6154217D01*
X3529447Y6754643D02*
X4520432D01*
X2020079Y5901575D02*
X2676378D01*
X2016035Y5891813D02*
X2680421D01*
X2013176Y5894672D02*
X2016035Y5891813D01*
X2680421D02*
X3533490Y6744882D01*
X1735720Y6172128D02*
X2013176Y5894672D01*
X2676378Y5901575D02*
X3529447Y6754643D01*
X2013176Y5894672D02*
Y5894672D01*
X1739764Y6181890D02*
X2020079Y5901575D01*
X3533490Y6744882D02*
X4516389D01*
X1392975Y7100000D02*
X1395119Y7097855D01*
X1350000Y7100000D02*
X1392975D01*
X1395119Y6973572D02*
Y7097855D01*
X1302837Y6881290D02*
X1395119Y6973572D01*
X1435617Y6174987D02*
X1438476Y6172128D01*
X1435617Y6174987D02*
Y6174988D01*
X1438476Y6172128D02*
X1735720D01*
X1302837Y6307768D02*
X1435617Y6174988D01*
X1404881Y7097855D02*
X1407025Y7100000D01*
X1450000D01*
X1312598Y6877247D02*
X1404881Y6969529D01*
Y7097855D01*
X1442520Y6181890D02*
X1739764D01*
X1312598Y6311811D02*
X1442520Y6181890D01*
X6701989Y6196539D02*
X6717286Y6211836D01*
Y6231890D01*
X6727047Y6211836D02*
X6742343Y6196539D01*
X6727047Y6211836D02*
Y6235933D01*
X6539950Y6325039D02*
Y6857645D01*
X6550077Y6325039D02*
Y6861840D01*
Y6325039D02*
X6565191Y6309925D01*
X6313386Y7098531D02*
X6550077Y6861840D01*
X6524837Y6309925D02*
X6539950Y6325039D01*
X2317820Y6003440D02*
X2650709D01*
X2646666Y6013202D02*
X3639473Y7006009D01*
X2321863Y6013202D02*
X2646666D01*
X2650709Y6003440D02*
X3643517Y6996247D01*
X2309658Y5969107D02*
X2664776D01*
X2162911Y6158349D02*
X2314961Y6006299D01*
Y6006299D02*
X2317820Y6003440D01*
X2305615Y5959346D02*
X2668820D01*
X2302756Y5962205D02*
Y5962205D01*
X1622916Y6653437D02*
Y6875384D01*
X1632677Y6657480D02*
Y6871341D01*
X1466535Y6713386D02*
Y6871341D01*
X2664776Y5969107D02*
X3656009Y6960339D01*
X1456774Y6709342D02*
Y6875384D01*
X2146851Y6118110D02*
X2302756Y5962205D01*
X2668820Y5959346D02*
X3660052Y6950578D01*
X2314961Y6006299D02*
Y6006299D01*
X2302756Y5962205D02*
X2305615Y5959346D01*
X2150894Y6127872D02*
X2309658Y5969107D01*
X2166954Y6168110D02*
X2321863Y6013202D01*
X1607025Y7100000D02*
X1650000D01*
X1604881Y7097855D02*
X1607025Y7100000D01*
X1604881Y6976272D02*
Y7097855D01*
X1552706Y6924097D02*
X1604881Y6976272D01*
X1519291Y6924097D02*
X1552706D01*
X1466535Y6871341D02*
X1519291Y6924097D01*
X1619685Y6267717D02*
X1660630Y6226772D01*
X1859161D01*
X1619685Y6267717D02*
Y6560236D01*
X1958062Y6127872D02*
X2150894D01*
X1859161Y6226772D02*
X1958062Y6127872D01*
X1466535Y6713386D02*
X1619685Y6560236D01*
X6351462Y6361442D02*
Y6496850D01*
X6332564Y6515748D02*
X6351462Y6496850D01*
X6269579Y6515748D02*
X6332564D01*
X6177247Y6608080D02*
X6269579Y6515748D01*
X6336165Y6346146D02*
X6351462Y6361442D01*
X1550000Y7100000D02*
X1592975D01*
X1595119Y7097855D01*
Y6980315D02*
Y7097855D01*
X1548663Y6933858D02*
X1595119Y6980315D01*
X1515248Y6933858D02*
X1548663D01*
X1456774Y6875384D02*
X1515248Y6933858D01*
X1656586Y6217010D02*
X1855118D01*
X1954018Y6118110D01*
X1609924Y6263673D02*
X1656586Y6217010D01*
X1954018Y6118110D02*
X2146851D01*
X1609924Y6263673D02*
Y6556193D01*
X1456774Y6709342D02*
X1609924Y6556193D01*
X6174225Y6861602D02*
X6177247Y6858580D01*
X6174225Y6861602D02*
X6174225D01*
X6167323Y6868504D02*
X6174225Y6861602D01*
X6167323Y6868504D02*
Y6868504D01*
X6174225Y6875406D02*
X6174225D01*
X6089292Y6960339D02*
X6174225Y6875406D01*
X6174225D02*
X6187008Y6862624D01*
X6177247Y6608080D02*
Y6858580D01*
X6085249Y6950578D02*
X6167323Y6868504D01*
X3660052Y6950578D02*
X6085249D01*
X3656009Y6960339D02*
X6089292D01*
X6266745Y6996247D02*
X6422033Y6840959D01*
X6431795Y6325222D02*
Y6845002D01*
X6270788Y7006009D02*
X6431795Y6845002D01*
X3639473Y7006009D02*
X6270788D01*
X6422033Y6325222D02*
Y6840959D01*
X6187008Y6612123D02*
X6273622Y6525509D01*
X6187008Y6612123D02*
Y6862624D01*
X6361223Y6361442D02*
Y6500894D01*
X6336607Y6525509D02*
X6361223Y6500894D01*
X6273622Y6525509D02*
X6336607D01*
X6361223Y6361442D02*
X6376520Y6346146D01*
X1968870Y6168110D02*
X2166954D01*
X1964826Y6158349D02*
X2162911D01*
X6295059Y7042994D02*
X6469562Y6868492D01*
X3643517Y6996247D02*
X6266745D01*
X2763099Y6185121D02*
X3620972Y7042994D01*
X2759055Y6194882D02*
X3616929Y7052756D01*
X3620972Y7042994D02*
X6295059D01*
X6299103Y7052756D02*
X6479323Y6872535D01*
X3616929Y7052756D02*
X6299103D01*
X1871416Y6265564D02*
X1968870Y6168110D01*
X1807025Y7100000D02*
X1850000D01*
X1804881Y7097855D02*
X1807025Y7100000D01*
X1804881Y6977846D02*
Y7097855D01*
X1747982Y6920947D02*
X1804881Y6977846D01*
X1682284Y6920947D02*
X1747982D01*
X1632677Y6871341D02*
X1682284Y6920947D01*
X1736627Y6282690D02*
Y6553531D01*
X1632677Y6657480D02*
X1736627Y6553531D01*
X1753753Y6265564D02*
X1871416D01*
X1736627Y6282690D02*
X1753753Y6265564D01*
X1795119Y6981890D02*
Y7097855D01*
X1867373Y6255802D02*
X1964826Y6158349D01*
X1750000Y7100000D02*
X1792975D01*
X1795119Y7097855D01*
X1743938Y6930709D02*
X1795119Y6981890D01*
X1678240Y6930709D02*
X1743938D01*
X1622916Y6875384D02*
X1678240Y6930709D01*
X1746850Y6258661D02*
Y6258662D01*
X1726865Y6278646D02*
X1746850Y6258662D01*
X1749709Y6255802D02*
X1867373D01*
X1746850Y6258661D02*
X1749709Y6255802D01*
X1726865Y6278646D02*
Y6549488D01*
X1622916Y6653437D02*
X1726865Y6549488D01*
X6431795Y6325222D02*
X6447091Y6309925D01*
X6406737D02*
X6422033Y6325222D01*
X6479323Y6361442D02*
Y6872535D01*
X1777640Y6662492D02*
Y6877666D01*
X6454265Y6346146D02*
X6469562Y6361442D01*
X6479323D02*
X6494620Y6346146D01*
X6469562Y6361442D02*
Y6868492D01*
X1902837Y6269972D02*
X1987689Y6185121D01*
X1902837Y6269972D02*
Y6537295D01*
X1912598Y6274016D02*
Y6541339D01*
X1991732Y6194882D02*
X2759055D01*
X1987689Y6185121D02*
X2763099D01*
X1912598Y6274016D02*
X1991732Y6194882D01*
X1777640Y6662492D02*
X1902837Y6537295D01*
X1787402Y6666535D02*
X1912598Y6541339D01*
X2007025Y7100000D02*
X2050000D01*
X2004881Y6988476D02*
Y7097855D01*
X2007025Y7100000D01*
X1952312Y6935908D02*
X2004881Y6988476D01*
X1849687Y6935908D02*
X1952312D01*
X1787402Y6873622D02*
X1849687Y6935908D01*
X1787402Y6732874D02*
Y6873622D01*
Y6666535D02*
Y6732874D01*
X1995119Y6992520D02*
Y7097855D01*
X1992975Y7100000D02*
X1995119Y7097855D01*
X1950000Y7100000D02*
X1992975D01*
X1948269Y6945669D02*
X1995119Y6992520D01*
X1845644Y6945669D02*
X1948269D01*
X1777640Y6877666D02*
X1845644Y6945669D01*
X6337355Y7060241D02*
X6539950Y6857645D01*
X2416425Y6834880D02*
X2416560Y6835015D01*
Y6872572D01*
X2482571Y6938583D01*
X2426862Y6869069D02*
X2486614Y6928821D01*
X2426862Y6733145D02*
Y6869069D01*
X2807026Y7100000D02*
X2850000D01*
X2804881Y7097855D02*
X2807026Y7100000D01*
X2804881Y6971547D02*
Y7097855D01*
X2762155Y6928821D02*
X2804881Y6971547D01*
X2486614Y6928821D02*
X2762155D01*
X2758111Y6938583D02*
X2795119Y6975591D01*
X2792974Y7100000D02*
X2795119Y7097855D01*
X2750000Y7100000D02*
X2792974D01*
X2795119Y6975591D02*
Y7097855D01*
X2482571Y6938583D02*
X2758111D01*
D179*
X8077196Y5538501D02*
X8093908D01*
X8101771Y5530639D01*
Y5529936D02*
Y5530639D01*
Y5529936D02*
X8115431D01*
Y5553137D01*
X8121149Y5558855D01*
X8142896D01*
X8148614Y5553137D01*
Y5521548D02*
Y5553137D01*
Y5521548D02*
X8162275D01*
Y5553137D01*
X8167992Y5558855D01*
X8189739D01*
X8195457Y5553137D01*
Y5521548D02*
Y5553137D01*
Y5521548D02*
X8209118D01*
Y5553137D01*
X8214835Y5558855D01*
X8236583D01*
X8242300Y5553137D01*
Y5521548D02*
Y5553137D01*
Y5521548D02*
X8255961D01*
Y5553137D01*
X8261679Y5558855D01*
X8283426D01*
X8289143Y5553137D01*
Y5521548D02*
Y5553137D01*
Y5521548D02*
X8302804D01*
Y5553137D01*
X8308522Y5558855D01*
X8330269D01*
X8335987Y5553137D01*
Y5521548D02*
Y5553137D01*
Y5521548D02*
X8349647D01*
Y5553137D01*
X8355365Y5558855D01*
X8377112D01*
X8382830Y5553137D01*
Y5521548D02*
Y5553137D01*
Y5521548D02*
X8396491D01*
Y5553137D01*
X8402208Y5558855D01*
X8423955D01*
X8429673Y5553137D01*
Y5521548D02*
Y5553137D01*
Y5521548D02*
X8443334D01*
Y5553137D01*
X8449051Y5558855D01*
X8470799D01*
X8476516Y5553137D01*
Y5521548D02*
Y5553137D01*
Y5521548D02*
X8490177D01*
Y5553137D01*
X8495895Y5558855D01*
X8517642D01*
X8523359Y5553137D01*
Y5521548D02*
Y5553137D01*
Y5521548D02*
X8537020D01*
Y5553137D01*
X8542738Y5558855D01*
X8564485D01*
X8570203Y5553137D01*
Y5521548D02*
Y5553137D01*
Y5521548D02*
X8583863D01*
Y5553137D01*
X8589581Y5558855D01*
X8611328D01*
X8617046Y5553137D01*
Y5521548D02*
Y5553137D01*
Y5521548D02*
X8630707D01*
Y5553137D01*
X8636424Y5558855D01*
X8658171D01*
X8663889Y5553137D01*
Y5521548D02*
Y5553137D01*
Y5521548D02*
X8677550D01*
Y5553137D01*
X8683267Y5558855D01*
X8705014D01*
X8710732Y5553137D01*
Y5521548D02*
Y5553137D01*
Y5521548D02*
X8724393D01*
Y5553137D01*
X8730111Y5558855D01*
X8751858D01*
X8757575Y5553137D01*
Y5521548D02*
Y5553137D01*
Y5521548D02*
X8771236D01*
Y5553137D01*
X8776954Y5558855D01*
X8798701D01*
X8804419Y5553137D01*
Y5521548D02*
Y5553137D01*
Y5521548D02*
X8818079D01*
Y5553137D01*
X8823797Y5558855D01*
X8845544D01*
X8851262Y5553137D01*
Y5521548D02*
Y5553137D01*
Y5521548D02*
X8864923D01*
Y5553137D01*
X8870640Y5558855D01*
X8892387D01*
X8898105Y5553137D01*
Y5521548D02*
Y5553137D01*
Y5521548D02*
X8911766D01*
Y5553137D01*
X8917484Y5558855D01*
X8939230D01*
X8944948Y5553137D01*
Y5521548D02*
Y5553137D01*
Y5521548D02*
X8958609D01*
Y5553137D01*
X8964327Y5558855D01*
X8986074D01*
X8991791Y5553137D01*
Y5521548D02*
Y5553137D01*
Y5521548D02*
X9005452D01*
Y5530639D01*
X9013314Y5538501D01*
X9022047D01*
X8077196Y5528740D02*
X8089865D01*
X8092010Y5526596D01*
Y5525893D02*
Y5526596D01*
Y5525893D02*
X8097727Y5520175D01*
X8119475D01*
X8125192Y5525893D01*
Y5549094D01*
X8138853D01*
Y5517505D02*
Y5549094D01*
Y5517505D02*
X8144571Y5511787D01*
X8166318D01*
X8172035Y5517505D01*
Y5549094D01*
X8185696D01*
Y5517505D02*
Y5549094D01*
Y5517505D02*
X8191414Y5511787D01*
X8213161D01*
X8218879Y5517505D01*
Y5549094D01*
X8232539D01*
Y5517505D02*
Y5549094D01*
Y5517505D02*
X8238257Y5511787D01*
X8260004D01*
X8265722Y5517505D01*
Y5549094D01*
X8279383D01*
Y5517505D02*
Y5549094D01*
Y5517505D02*
X8285100Y5511787D01*
X8306847D01*
X8312565Y5517505D01*
Y5549094D01*
X8326226D01*
Y5517505D02*
Y5549094D01*
Y5517505D02*
X8331943Y5511787D01*
X8353691D01*
X8359408Y5517505D01*
Y5549094D01*
X8373069D01*
Y5517505D02*
Y5549094D01*
Y5517505D02*
X8378787Y5511787D01*
X8400534D01*
X8406251Y5517505D01*
Y5549094D01*
X8419912D01*
Y5517505D02*
Y5549094D01*
Y5517505D02*
X8425630Y5511787D01*
X8447377D01*
X8453095Y5517505D01*
Y5549094D01*
X8466755D01*
Y5517505D02*
Y5549094D01*
Y5517505D02*
X8472473Y5511787D01*
X8494220D01*
X8499938Y5517505D01*
Y5549094D01*
X8513599D01*
Y5517505D02*
Y5549094D01*
Y5517505D02*
X8519316Y5511787D01*
X8541063D01*
X8546781Y5517505D01*
Y5549094D01*
X8560442D01*
Y5517505D02*
Y5549094D01*
Y5517505D02*
X8566159Y5511787D01*
X8587906D01*
X8593624Y5517505D01*
Y5549094D01*
X8607285D01*
Y5517505D02*
Y5549094D01*
Y5517505D02*
X8613003Y5511787D01*
X8634750D01*
X8640467Y5517505D01*
Y5549094D01*
X8654128D01*
Y5517505D02*
Y5549094D01*
Y5517505D02*
X8659846Y5511787D01*
X8681593D01*
X8687311Y5517505D01*
Y5549094D01*
X8700971D01*
Y5517505D02*
Y5549094D01*
Y5517505D02*
X8706689Y5511787D01*
X8728436D01*
X8734154Y5517505D01*
Y5549094D01*
X8747815D01*
Y5517505D02*
Y5549094D01*
Y5517505D02*
X8753532Y5511787D01*
X8775279D01*
X8780997Y5517505D01*
Y5549094D01*
X8794658D01*
Y5517505D02*
Y5549094D01*
Y5517505D02*
X8800376Y5511787D01*
X8822122D01*
X8827840Y5517505D01*
Y5549094D01*
X8841501D01*
Y5517505D02*
Y5549094D01*
Y5517505D02*
X8847219Y5511787D01*
X8868966D01*
X8874683Y5517505D01*
Y5549094D01*
X8888344D01*
Y5517505D02*
Y5549094D01*
Y5517505D02*
X8894062Y5511787D01*
X8915809D01*
X8921527Y5517505D01*
Y5549094D01*
X8935187D01*
Y5517505D02*
Y5549094D01*
Y5517505D02*
X8940905Y5511787D01*
X8962652D01*
X8968370Y5517505D01*
Y5549094D01*
X8982031D01*
Y5517505D02*
Y5549094D01*
Y5517505D02*
X8987748Y5511787D01*
X9009495D01*
X9015213Y5517505D01*
Y5526596D01*
X9017357Y5528740D01*
X9022047D01*
X7263386Y5538501D02*
X8077196D01*
X7259343Y5528740D02*
X8077196D01*
X9022047Y5538501D02*
X9070366D01*
X9022047Y5528740D02*
X9074409D01*
X9202148Y5656479D01*
X9070366Y5538501D02*
X9198105Y5666239D01*
X7142587Y5645497D02*
X7259343Y5528740D01*
X7152347Y5649539D02*
X7263386Y5538501D01*
X10080902Y5737877D02*
X10920760D01*
X10080902Y5747638D02*
X10924803D01*
X10041065Y5737877D02*
X10080902D01*
X10038921Y5735733D02*
X10041065Y5737877D01*
X10038921Y5719282D02*
Y5735733D01*
X10033203Y5713565D02*
X10038921Y5719282D01*
X10011456Y5713565D02*
X10033203D01*
X10005738Y5719282D02*
X10011456Y5713565D01*
X10005738Y5719282D02*
Y5758745D01*
X9992078D02*
X10005738D01*
X9992078Y5719282D02*
Y5758745D01*
X9986360Y5713565D02*
X9992078Y5719282D01*
X9964613Y5713565D02*
X9986360D01*
X9958895Y5719282D02*
X9964613Y5713565D01*
X9958895Y5719282D02*
Y5758745D01*
X9945234D02*
X9958895D01*
X9945234Y5719282D02*
Y5758745D01*
X9939517Y5713565D02*
X9945234Y5719282D01*
X9917770Y5713565D02*
X9939517D01*
X9912052Y5719282D02*
X9917770Y5713565D01*
X9912052Y5719282D02*
Y5758745D01*
X9898391D02*
X9912052D01*
X9898391Y5719282D02*
Y5758745D01*
X9892674Y5713565D02*
X9898391Y5719282D01*
X9870926Y5713565D02*
X9892674D01*
X9865209Y5719282D02*
X9870926Y5713565D01*
X9865209Y5719282D02*
Y5758745D01*
X9851548D02*
X9865209D01*
X9851548Y5719282D02*
Y5758745D01*
X9845830Y5713565D02*
X9851548Y5719282D01*
X9824083Y5713565D02*
X9845830D01*
X9818366Y5719282D02*
X9824083Y5713565D01*
X9818366Y5719282D02*
Y5758745D01*
X9804705D02*
X9818366D01*
X9804705Y5719282D02*
Y5758745D01*
X9798987Y5713565D02*
X9804705Y5719282D01*
X9777240Y5713565D02*
X9798987D01*
X9771522Y5719282D02*
X9777240Y5713565D01*
X9771522Y5719282D02*
Y5758745D01*
X9757862D02*
X9771522D01*
X9757862Y5719282D02*
Y5758745D01*
X9752144Y5713565D02*
X9757862Y5719282D01*
X9730397Y5713565D02*
X9752144D01*
X9724679Y5719282D02*
X9730397Y5713565D01*
X9724679Y5719282D02*
Y5758745D01*
X9711018D02*
X9724679D01*
X9711018Y5719282D02*
Y5758745D01*
X9705301Y5713565D02*
X9711018Y5719282D01*
X9683554Y5713565D02*
X9705301D01*
X9677836Y5719282D02*
X9683554Y5713565D01*
X9677836Y5719282D02*
Y5758745D01*
X9664175D02*
X9677836D01*
X9664175Y5719282D02*
Y5758745D01*
X9658458Y5713565D02*
X9664175Y5719282D01*
X9636710Y5713565D02*
X9658458D01*
X9630993Y5719282D02*
X9636710Y5713565D01*
X9630993Y5719282D02*
Y5758745D01*
X9617332D02*
X9630993D01*
X9617332Y5719282D02*
Y5758745D01*
X9611614Y5713565D02*
X9617332Y5719282D01*
X9589867Y5713565D02*
X9611614D01*
X9584150Y5719282D02*
X9589867Y5713565D01*
X9584150Y5719282D02*
Y5758745D01*
X9570489D02*
X9584150D01*
X9570489Y5719282D02*
Y5758745D01*
X9564771Y5713565D02*
X9570489Y5719282D01*
X9543024Y5713565D02*
X9564771D01*
X9537306Y5719282D02*
X9543024Y5713565D01*
X9537306Y5719282D02*
Y5758745D01*
X9523646D02*
X9537306D01*
X9523646Y5719282D02*
Y5758745D01*
X9517928Y5713565D02*
X9523646Y5719282D01*
X9496181Y5713565D02*
X9517928D01*
X9490463Y5719282D02*
X9496181Y5713565D01*
X9490463Y5719282D02*
Y5758745D01*
X9476802D02*
X9490463D01*
X9476802Y5719282D02*
Y5758745D01*
X9471085Y5713565D02*
X9476802Y5719282D01*
X9449338Y5713565D02*
X9471085D01*
X9443620Y5719282D02*
X9449338Y5713565D01*
X9443620Y5719282D02*
Y5758745D01*
X9429959D02*
X9443620D01*
X9429959Y5719282D02*
Y5758745D01*
X9424242Y5713565D02*
X9429959Y5719282D01*
X9402495Y5713565D02*
X9424242D01*
X9396777Y5719282D02*
X9402495Y5713565D01*
X9396777Y5719282D02*
Y5758745D01*
X9383116D02*
X9396777D01*
X9383116Y5719282D02*
Y5758745D01*
X9377398Y5713565D02*
X9383116Y5719282D01*
X9355651Y5713565D02*
X9377398D01*
X9349934Y5719282D02*
X9355651Y5713565D01*
X9349934Y5719282D02*
Y5758745D01*
X9336273D02*
X9349934D01*
X9336273Y5719282D02*
Y5758745D01*
X9330555Y5713565D02*
X9336273Y5719282D01*
X9308808Y5713565D02*
X9330555D01*
X9303090Y5719282D02*
X9308808Y5713565D01*
X9303090Y5719282D02*
Y5758745D01*
X9289430D02*
X9303090D01*
X9289430Y5745739D02*
Y5758745D01*
X9281567Y5737877D02*
X9289430Y5745739D01*
X9272835Y5737877D02*
X9281567D01*
X10037022Y5747638D02*
X10080902D01*
X10029160Y5739776D02*
X10037022Y5747638D01*
X10029160Y5723325D02*
Y5739776D01*
X10015499Y5723325D02*
X10029160D01*
X10015499D02*
Y5762789D01*
X10009781Y5768506D02*
X10015499Y5762789D01*
X9988034Y5768506D02*
X10009781D01*
X9982317Y5762789D02*
X9988034Y5768506D01*
X9982317Y5723325D02*
Y5762789D01*
X9968656Y5723325D02*
X9982317D01*
X9968656D02*
Y5762789D01*
X9962938Y5768506D02*
X9968656Y5762789D01*
X9941191Y5768506D02*
X9962938D01*
X9935474Y5762789D02*
X9941191Y5768506D01*
X9935474Y5723325D02*
Y5762789D01*
X9921813Y5723325D02*
X9935474D01*
X9921813D02*
Y5762789D01*
X9916095Y5768506D02*
X9921813Y5762789D01*
X9894348Y5768506D02*
X9916095D01*
X9888630Y5762789D02*
X9894348Y5768506D01*
X9888630Y5723325D02*
Y5762789D01*
X9874970Y5723325D02*
X9888630D01*
X9874970D02*
Y5762789D01*
X9869252Y5768506D02*
X9874970Y5762789D01*
X9847505Y5768506D02*
X9869252D01*
X9841787Y5762789D02*
X9847505Y5768506D01*
X9841787Y5723325D02*
Y5762789D01*
X9828126Y5723325D02*
X9841787D01*
X9828126D02*
Y5762789D01*
X9822409Y5768506D02*
X9828126Y5762789D01*
X9800662Y5768506D02*
X9822409D01*
X9794944Y5762789D02*
X9800662Y5768506D01*
X9794944Y5723325D02*
Y5762789D01*
X9781283Y5723325D02*
X9794944D01*
X9781283D02*
Y5762789D01*
X9775566Y5768506D02*
X9781283Y5762789D01*
X9753818Y5768506D02*
X9775566D01*
X9748101Y5762789D02*
X9753818Y5768506D01*
X9748101Y5723325D02*
Y5762789D01*
X9734440Y5723325D02*
X9748101D01*
X9734440D02*
Y5762789D01*
X9728722Y5768506D02*
X9734440Y5762789D01*
X9706975Y5768506D02*
X9728722D01*
X9701258Y5762789D02*
X9706975Y5768506D01*
X9701258Y5723325D02*
Y5762789D01*
X9687597Y5723325D02*
X9701258D01*
X9687597D02*
Y5762789D01*
X9681879Y5768506D02*
X9687597Y5762789D01*
X9660132Y5768506D02*
X9681879D01*
X9654414Y5762789D02*
X9660132Y5768506D01*
X9654414Y5723325D02*
Y5762789D01*
X9640754Y5723325D02*
X9654414D01*
X9640754D02*
Y5762789D01*
X9635036Y5768506D02*
X9640754Y5762789D01*
X9613289Y5768506D02*
X9635036D01*
X9607571Y5762789D02*
X9613289Y5768506D01*
X9607571Y5723325D02*
Y5762789D01*
X9593910Y5723325D02*
X9607571D01*
X9593910D02*
Y5762789D01*
X9588193Y5768506D02*
X9593910Y5762789D01*
X9566446Y5768506D02*
X9588193D01*
X9560728Y5762789D02*
X9566446Y5768506D01*
X9560728Y5723325D02*
Y5762789D01*
X9547067Y5723325D02*
X9560728D01*
X9547067D02*
Y5762789D01*
X9541350Y5768506D02*
X9547067Y5762789D01*
X9519603Y5768506D02*
X9541350D01*
X9513885Y5762789D02*
X9519603Y5768506D01*
X9513885Y5723325D02*
Y5762789D01*
X9500224Y5723325D02*
X9513885D01*
X9500224D02*
Y5762789D01*
X9494506Y5768506D02*
X9500224Y5762789D01*
X9472759Y5768506D02*
X9494506D01*
X9467042Y5762789D02*
X9472759Y5768506D01*
X9467042Y5723325D02*
Y5762789D01*
X9453381Y5723325D02*
X9467042D01*
X9453381D02*
Y5762789D01*
X9447663Y5768506D02*
X9453381Y5762789D01*
X9425916Y5768506D02*
X9447663D01*
X9420198Y5762789D02*
X9425916Y5768506D01*
X9420198Y5723325D02*
Y5762789D01*
X9406538Y5723325D02*
X9420198D01*
X9406538D02*
Y5762789D01*
X9400820Y5768506D02*
X9406538Y5762789D01*
X9379073Y5768506D02*
X9400820D01*
X9373355Y5762789D02*
X9379073Y5768506D01*
X9373355Y5723325D02*
Y5762789D01*
X9359694Y5723325D02*
X9373355D01*
X9359694D02*
Y5762789D01*
X9353977Y5768506D02*
X9359694Y5762789D01*
X9332230Y5768506D02*
X9353977D01*
X9326512Y5762789D02*
X9332230Y5768506D01*
X9326512Y5723325D02*
Y5762789D01*
X9312851Y5723325D02*
X9326512D01*
X9312851D02*
Y5762789D01*
X9307133Y5768506D02*
X9312851Y5762789D01*
X9285387Y5768506D02*
X9307133D01*
X9279669Y5762789D02*
X9285387Y5768506D01*
X9279669Y5749782D02*
Y5762789D01*
X9277524Y5747638D02*
X9279669Y5749782D01*
X9272835Y5747638D02*
X9277524D01*
X8699688Y5737877D02*
X9272835D01*
X8695645Y5747638D02*
X9272835D01*
X10920760Y5737877D02*
X10945715Y5712923D01*
X8569188Y5607377D02*
X8699688Y5737877D01*
X10924803Y5747638D02*
X10949758Y5722683D01*
X8565145Y5617138D02*
X8695645Y5747638D01*
X10949758Y5722683D02*
X11025649D01*
X10945715Y5712923D02*
X11025649D01*
X8408352Y5687402D02*
X8479528D01*
X8406208Y5685257D02*
X8408352Y5687402D01*
X8406208Y5669161D02*
Y5685257D01*
X8400490Y5663444D02*
X8406208Y5669161D01*
X8378743Y5663444D02*
X8400490D01*
X8373025Y5669161D02*
X8378743Y5663444D01*
X8373025Y5669161D02*
Y5702402D01*
X8359364D02*
X8373025D01*
X8359364Y5669161D02*
Y5702402D01*
X8353647Y5663444D02*
X8359364Y5669161D01*
X8331900Y5663444D02*
X8353647D01*
X8326182Y5669161D02*
X8331900Y5663444D01*
X8326182Y5669161D02*
Y5702402D01*
X8312521D02*
X8326182D01*
X8312521Y5669161D02*
Y5702402D01*
X8306804Y5663444D02*
X8312521Y5669161D01*
X8285057Y5663444D02*
X8306804D01*
X8279339Y5669161D02*
X8285057Y5663444D01*
X8279339Y5669161D02*
Y5702402D01*
X8265678D02*
X8279339D01*
X8265678Y5669161D02*
Y5702402D01*
X8259960Y5663444D02*
X8265678Y5669161D01*
X8238213Y5663444D02*
X8259960D01*
X8232496Y5669161D02*
X8238213Y5663444D01*
X8232496Y5669161D02*
Y5702402D01*
X8218835D02*
X8232496D01*
X8218835Y5669161D02*
Y5702402D01*
X8213117Y5663444D02*
X8218835Y5669161D01*
X8191370Y5663444D02*
X8213117D01*
X8185653Y5669161D02*
X8191370Y5663444D01*
X8185653Y5669161D02*
Y5702402D01*
X8171992D02*
X8185653D01*
X8171992Y5669161D02*
Y5702402D01*
X8166274Y5663444D02*
X8171992Y5669161D01*
X8144527Y5663444D02*
X8166274D01*
X8138809Y5669161D02*
X8144527Y5663444D01*
X8138809Y5669161D02*
Y5702402D01*
X8125149D02*
X8138809D01*
X8125149Y5669161D02*
Y5702402D01*
X8119431Y5663444D02*
X8125149Y5669161D01*
X8097684Y5663444D02*
X8119431D01*
X8091966Y5669161D02*
X8097684Y5663444D01*
X8091966Y5669161D02*
Y5702402D01*
X8078305D02*
X8091966D01*
X8078305Y5669161D02*
Y5702402D01*
X8072588Y5663444D02*
X8078305Y5669161D01*
X8050841Y5663444D02*
X8072588D01*
X8045123Y5669161D02*
X8050841Y5663444D01*
X8045123Y5669161D02*
Y5702402D01*
X8031462D02*
X8045123D01*
X8031462Y5669161D02*
Y5702402D01*
X8025744Y5663444D02*
X8031462Y5669161D01*
X8003997Y5663444D02*
X8025744D01*
X7998280Y5669161D02*
X8003997Y5663444D01*
X7998280Y5669161D02*
Y5702402D01*
X7984619D02*
X7998280D01*
X7984619Y5669161D02*
Y5702402D01*
X7978901Y5663444D02*
X7984619Y5669161D01*
X7957154Y5663444D02*
X7978901D01*
X7951436Y5669161D02*
X7957154Y5663444D01*
X7951436Y5669161D02*
Y5702402D01*
X7937776D02*
X7951436D01*
X7937776Y5669161D02*
Y5702402D01*
X7932058Y5663444D02*
X7937776Y5669161D01*
X7910311Y5663444D02*
X7932058D01*
X7904593Y5669161D02*
X7910311Y5663444D01*
X7904593Y5669161D02*
Y5702402D01*
X7890932D02*
X7904593D01*
X7890932Y5669161D02*
Y5702402D01*
X7885215Y5663444D02*
X7890932Y5669161D01*
X7863468Y5663444D02*
X7885215D01*
X7857750Y5669161D02*
X7863468Y5663444D01*
X7857750Y5669161D02*
Y5702402D01*
X7844089D02*
X7857750D01*
X7844089Y5669161D02*
Y5702402D01*
X7838372Y5663444D02*
X7844089Y5669161D01*
X7816625Y5663444D02*
X7838372D01*
X7810907Y5669161D02*
X7816625Y5663444D01*
X7810907Y5669161D02*
Y5702402D01*
X7797246D02*
X7810907D01*
X7797246Y5669161D02*
Y5702402D01*
X7791528Y5663444D02*
X7797246Y5669161D01*
X7769781Y5663444D02*
X7791528D01*
X7764064Y5669161D02*
X7769781Y5663444D01*
X7764064Y5669161D02*
Y5702402D01*
X7750403D02*
X7764064D01*
X7750403Y5669161D02*
Y5702402D01*
X7744685Y5663444D02*
X7750403Y5669161D01*
X7722938Y5663444D02*
X7744685D01*
X7717221Y5669161D02*
X7722938Y5663444D01*
X7717221Y5669161D02*
Y5702402D01*
X7703560D02*
X7717221D01*
X7703560Y5669161D02*
Y5702402D01*
X7697842Y5663444D02*
X7703560Y5669161D01*
X7676095Y5663444D02*
X7697842D01*
X7670377Y5669161D02*
X7676095Y5663444D01*
X7670377Y5669161D02*
Y5702402D01*
X7656717D02*
X7670377D01*
X7656717Y5669161D02*
Y5702402D01*
X7650999Y5663444D02*
X7656717Y5669161D01*
X7629252Y5663444D02*
X7650999D01*
X7623534Y5669161D02*
X7629252Y5663444D01*
X7623534Y5669161D02*
Y5702402D01*
X7609873D02*
X7623534D01*
X7609873Y5669161D02*
Y5702402D01*
X7604156Y5663444D02*
X7609873Y5669161D01*
X7582409Y5663444D02*
X7604156D01*
X7576691Y5669161D02*
X7582409Y5663444D01*
X7576691Y5669161D02*
Y5702402D01*
X7563030D02*
X7576691D01*
X7563030Y5669161D02*
Y5702402D01*
X7557312Y5663444D02*
X7563030Y5669161D01*
X7535565Y5663444D02*
X7557312D01*
X7529848Y5669161D02*
X7535565Y5663444D01*
X7529848Y5669161D02*
Y5702402D01*
X7516187D02*
X7529848D01*
X7516187Y5669161D02*
Y5702402D01*
X7510469Y5663444D02*
X7516187Y5669161D01*
X7488722Y5663444D02*
X7510469D01*
X7483005Y5669161D02*
X7488722Y5663444D01*
X7483005Y5669161D02*
Y5702402D01*
X7469344D02*
X7483005D01*
X7469344Y5669161D02*
Y5702402D01*
X7463626Y5663444D02*
X7469344Y5669161D01*
X7441879Y5663444D02*
X7463626D01*
X7436161Y5669161D02*
X7441879Y5663444D01*
X7436161Y5669161D02*
Y5702402D01*
X7422501D02*
X7436161D01*
X7422501Y5695264D02*
Y5702402D01*
X7414638Y5687402D02*
X7422501Y5695264D01*
X7405905Y5687402D02*
X7414638D01*
X8404309Y5697162D02*
X8479528D01*
X8396447Y5689300D02*
X8404309Y5697162D01*
X8396447Y5673204D02*
Y5689300D01*
X8382786Y5673204D02*
X8396447D01*
X8382786D02*
Y5706445D01*
X8377068Y5712162D02*
X8382786Y5706445D01*
X8355321Y5712162D02*
X8377068D01*
X8349604Y5706445D02*
X8355321Y5712162D01*
X8349604Y5673204D02*
Y5706445D01*
X8335943Y5673204D02*
X8349604D01*
X8335943D02*
Y5706445D01*
X8330225Y5712162D02*
X8335943Y5706445D01*
X8308478Y5712162D02*
X8330225D01*
X8302761Y5706445D02*
X8308478Y5712162D01*
X8302761Y5673204D02*
Y5706445D01*
X8289100Y5673204D02*
X8302761D01*
X8289100D02*
Y5706445D01*
X8283382Y5712162D02*
X8289100Y5706445D01*
X8261635Y5712162D02*
X8283382D01*
X8255917Y5706445D02*
X8261635Y5712162D01*
X8255917Y5673204D02*
Y5706445D01*
X8242256Y5673204D02*
X8255917D01*
X8242256D02*
Y5706445D01*
X8236539Y5712162D02*
X8242256Y5706445D01*
X8214792Y5712162D02*
X8236539D01*
X8209074Y5706445D02*
X8214792Y5712162D01*
X8209074Y5673204D02*
Y5706445D01*
X8195413Y5673204D02*
X8209074D01*
X8195413D02*
Y5706445D01*
X8189696Y5712162D02*
X8195413Y5706445D01*
X8167949Y5712162D02*
X8189696D01*
X8162231Y5706445D02*
X8167949Y5712162D01*
X8162231Y5673204D02*
Y5706445D01*
X8148570Y5673204D02*
X8162231D01*
X8148570D02*
Y5706445D01*
X8142852Y5712162D02*
X8148570Y5706445D01*
X8121105Y5712162D02*
X8142852D01*
X8115388Y5706445D02*
X8121105Y5712162D01*
X8115388Y5673204D02*
Y5706445D01*
X8101727Y5673204D02*
X8115388D01*
X8101727D02*
Y5706445D01*
X8096009Y5712162D02*
X8101727Y5706445D01*
X8074262Y5712162D02*
X8096009D01*
X8068544Y5706445D02*
X8074262Y5712162D01*
X8068544Y5673204D02*
Y5706445D01*
X8054884Y5673204D02*
X8068544D01*
X8054884D02*
Y5706445D01*
X8049166Y5712162D02*
X8054884Y5706445D01*
X8027419Y5712162D02*
X8049166D01*
X8021701Y5706445D02*
X8027419Y5712162D01*
X8021701Y5673204D02*
Y5706445D01*
X8008041Y5673204D02*
X8021701D01*
X8008041D02*
Y5706445D01*
X8002323Y5712162D02*
X8008041Y5706445D01*
X7980576Y5712162D02*
X8002323D01*
X7974858Y5706445D02*
X7980576Y5712162D01*
X7974858Y5673204D02*
Y5706445D01*
X7961197Y5673204D02*
X7974858D01*
X7961197D02*
Y5706445D01*
X7955480Y5712162D02*
X7961197Y5706445D01*
X7933733Y5712162D02*
X7955480D01*
X7928015Y5706445D02*
X7933733Y5712162D01*
X7928015Y5673204D02*
Y5706445D01*
X7914354Y5673204D02*
X7928015D01*
X7914354D02*
Y5706445D01*
X7908636Y5712162D02*
X7914354Y5706445D01*
X7886889Y5712162D02*
X7908636D01*
X7881172Y5706445D02*
X7886889Y5712162D01*
X7881172Y5673204D02*
Y5706445D01*
X7867511Y5673204D02*
X7881172D01*
X7867511D02*
Y5706445D01*
X7861793Y5712162D02*
X7867511Y5706445D01*
X7840046Y5712162D02*
X7861793D01*
X7834328Y5706445D02*
X7840046Y5712162D01*
X7834328Y5673204D02*
Y5706445D01*
X7820668Y5673204D02*
X7834328D01*
X7820668D02*
Y5706445D01*
X7814950Y5712162D02*
X7820668Y5706445D01*
X7793203Y5712162D02*
X7814950D01*
X7787485Y5706445D02*
X7793203Y5712162D01*
X7787485Y5673204D02*
Y5706445D01*
X7773824Y5673204D02*
X7787485D01*
X7773824D02*
Y5706445D01*
X7768107Y5712162D02*
X7773824Y5706445D01*
X7746360Y5712162D02*
X7768107D01*
X7740642Y5706445D02*
X7746360Y5712162D01*
X7740642Y5673204D02*
Y5706445D01*
X7726981Y5673204D02*
X7740642D01*
X7726981D02*
Y5706445D01*
X7721264Y5712162D02*
X7726981Y5706445D01*
X7699517Y5712162D02*
X7721264D01*
X7693799Y5706445D02*
X7699517Y5712162D01*
X7693799Y5673204D02*
Y5706445D01*
X7680138Y5673204D02*
X7693799D01*
X7680138D02*
Y5706445D01*
X7674420Y5712162D02*
X7680138Y5706445D01*
X7652673Y5712162D02*
X7674420D01*
X7646956Y5706445D02*
X7652673Y5712162D01*
X7646956Y5673204D02*
Y5706445D01*
X7633295Y5673204D02*
X7646956D01*
X7633295D02*
Y5706445D01*
X7627577Y5712162D02*
X7633295Y5706445D01*
X7605830Y5712162D02*
X7627577D01*
X7600113Y5706445D02*
X7605830Y5712162D01*
X7600113Y5673204D02*
Y5706445D01*
X7586452Y5673204D02*
X7600113D01*
X7586452D02*
Y5706445D01*
X7580734Y5712162D02*
X7586452Y5706445D01*
X7558987Y5712162D02*
X7580734D01*
X7553269Y5706445D02*
X7558987Y5712162D01*
X7553269Y5673204D02*
Y5706445D01*
X7539609Y5673204D02*
X7553269D01*
X7539609D02*
Y5706445D01*
X7533891Y5712162D02*
X7539609Y5706445D01*
X7512144Y5712162D02*
X7533891D01*
X7506426Y5706445D02*
X7512144Y5712162D01*
X7506426Y5673204D02*
Y5706445D01*
X7492765Y5673204D02*
X7506426D01*
X7492765D02*
Y5706445D01*
X7487048Y5712162D02*
X7492765Y5706445D01*
X7465301Y5712162D02*
X7487048D01*
X7459583Y5706445D02*
X7465301Y5712162D01*
X7459583Y5673204D02*
Y5706445D01*
X7445922Y5673204D02*
X7459583D01*
X7445922D02*
Y5706445D01*
X7440204Y5712162D02*
X7445922Y5706445D01*
X7418457Y5712162D02*
X7440204D01*
X7412740Y5706445D02*
X7418457Y5712162D01*
X7412740Y5699307D02*
Y5706445D01*
X7410595Y5697162D02*
X7412740Y5699307D01*
X7405905Y5697162D02*
X7410595D01*
X8479528D02*
X8491626D01*
X8656772Y5862308D01*
X8479528Y5687402D02*
X8495669D01*
X7388952D02*
X7405905D01*
X7392995Y5697162D02*
X7405905D01*
X8495669Y5687402D02*
X8660815Y5852547D01*
X7317687Y5772470D02*
X7392995Y5697162D01*
X7307926Y5768427D02*
X7388952Y5687402D01*
X8660815Y5852547D02*
X9100972D01*
X8656772Y5862308D02*
X9105015D01*
X10751669Y5886361D02*
X11025649D01*
X10751669Y5896122D02*
X11025649D01*
X10696618Y5886361D02*
X10751669D01*
X10694474Y5884217D02*
X10696618Y5886361D01*
X10694474Y5864928D02*
Y5884217D01*
X10688756Y5859211D02*
X10694474Y5864928D01*
X10667009Y5859211D02*
X10688756D01*
X10661291Y5864928D02*
X10667009Y5859211D01*
X10661291Y5864928D02*
Y5902001D01*
X10647631D02*
X10661291D01*
X10647631Y5864928D02*
Y5902001D01*
X10641913Y5859211D02*
X10647631Y5864928D01*
X10620166Y5859211D02*
X10641913D01*
X10614448Y5864928D02*
X10620166Y5859211D01*
X10614448Y5864928D02*
Y5902001D01*
X10600787D02*
X10614448D01*
X10600787Y5864928D02*
Y5902001D01*
X10595070Y5859211D02*
X10600787Y5864928D01*
X10573323Y5859211D02*
X10595070D01*
X10567605Y5864928D02*
X10573323Y5859211D01*
X10567605Y5864928D02*
Y5902001D01*
X10553944D02*
X10567605D01*
X10553944Y5864928D02*
Y5902001D01*
X10548227Y5859211D02*
X10553944Y5864928D01*
X10526479Y5859211D02*
X10548227D01*
X10520762Y5864928D02*
X10526479Y5859211D01*
X10520762Y5864928D02*
Y5902001D01*
X10507101D02*
X10520762D01*
X10507101Y5864928D02*
Y5902001D01*
X10501383Y5859211D02*
X10507101Y5864928D01*
X10479636Y5859211D02*
X10501383D01*
X10473919Y5864928D02*
X10479636Y5859211D01*
X10473919Y5864928D02*
Y5902001D01*
X10460258D02*
X10473919D01*
X10460258Y5864928D02*
Y5902001D01*
X10454540Y5859211D02*
X10460258Y5864928D01*
X10432793Y5859211D02*
X10454540D01*
X10427075Y5864928D02*
X10432793Y5859211D01*
X10427075Y5864928D02*
Y5902001D01*
X10413415D02*
X10427075D01*
X10413415Y5864928D02*
Y5902001D01*
X10407697Y5859211D02*
X10413415Y5864928D01*
X10385950Y5859211D02*
X10407697D01*
X10380232Y5864928D02*
X10385950Y5859211D01*
X10380232Y5864928D02*
Y5902001D01*
X10366571D02*
X10380232D01*
X10366571Y5864928D02*
Y5902001D01*
X10360854Y5859211D02*
X10366571Y5864928D01*
X10339107Y5859211D02*
X10360854D01*
X10333389Y5864928D02*
X10339107Y5859211D01*
X10333389Y5864928D02*
Y5902001D01*
X10319728D02*
X10333389D01*
X10319728Y5864928D02*
Y5902001D01*
X10314011Y5859211D02*
X10319728Y5864928D01*
X10292263Y5859211D02*
X10314011D01*
X10286546Y5864928D02*
X10292263Y5859211D01*
X10286546Y5864928D02*
Y5902001D01*
X10272885D02*
X10286546D01*
X10272885Y5864928D02*
Y5902001D01*
X10267167Y5859211D02*
X10272885Y5864928D01*
X10245420Y5859211D02*
X10267167D01*
X10239703Y5864928D02*
X10245420Y5859211D01*
X10239703Y5864928D02*
Y5902001D01*
X10226042D02*
X10239703D01*
X10226042Y5864928D02*
Y5902001D01*
X10220324Y5859211D02*
X10226042Y5864928D01*
X10198577Y5859211D02*
X10220324D01*
X10192859Y5864928D02*
X10198577Y5859211D01*
X10192859Y5864928D02*
Y5902001D01*
X10179199D02*
X10192859D01*
X10179199Y5864928D02*
Y5902001D01*
X10173481Y5859211D02*
X10179199Y5864928D01*
X10151734Y5859211D02*
X10173481D01*
X10146016Y5864928D02*
X10151734Y5859211D01*
X10146016Y5864928D02*
Y5902001D01*
X10132355D02*
X10146016D01*
X10132355Y5864928D02*
Y5902001D01*
X10126638Y5859211D02*
X10132355Y5864928D01*
X10104891Y5859211D02*
X10126638D01*
X10099173Y5864928D02*
X10104891Y5859211D01*
X10099173Y5864928D02*
Y5902001D01*
X10085512D02*
X10099173D01*
X10085512Y5864928D02*
Y5902001D01*
X10079794Y5859211D02*
X10085512Y5864928D01*
X10058048Y5859211D02*
X10079794D01*
X10052330Y5864928D02*
X10058048Y5859211D01*
X10052330Y5864928D02*
Y5902001D01*
X10038669D02*
X10052330D01*
X10038669Y5864928D02*
Y5902001D01*
X10032951Y5859211D02*
X10038669Y5864928D01*
X10011204Y5859211D02*
X10032951D01*
X10005487Y5864928D02*
X10011204Y5859211D01*
X10005487Y5864928D02*
Y5902001D01*
X9991826D02*
X10005487D01*
X9991826Y5864928D02*
Y5902001D01*
X9986108Y5859211D02*
X9991826Y5864928D01*
X9964361Y5859211D02*
X9986108D01*
X9958643Y5864928D02*
X9964361Y5859211D01*
X9958643Y5864928D02*
Y5902001D01*
X9944983D02*
X9958643D01*
X9944983Y5864928D02*
Y5902001D01*
X9939265Y5859211D02*
X9944983Y5864928D01*
X9917518Y5859211D02*
X9939265D01*
X9911800Y5864928D02*
X9917518Y5859211D01*
X9911800Y5864928D02*
Y5902001D01*
X9898139D02*
X9911800D01*
X9898139Y5864928D02*
Y5902001D01*
X9892422Y5859211D02*
X9898139Y5864928D01*
X9870675Y5859211D02*
X9892422D01*
X9864957Y5864928D02*
X9870675Y5859211D01*
X9864957Y5864928D02*
Y5902001D01*
X9851296D02*
X9864957D01*
X9851296Y5864928D02*
Y5902001D01*
X9845578Y5859211D02*
X9851296Y5864928D01*
X9823832Y5859211D02*
X9845578D01*
X9818114Y5864928D02*
X9823832Y5859211D01*
X9818114Y5864928D02*
Y5902001D01*
X9804453D02*
X9818114D01*
X9804453Y5864928D02*
Y5902001D01*
X9798735Y5859211D02*
X9804453Y5864928D01*
X9776988Y5859211D02*
X9798735D01*
X9771271Y5864928D02*
X9776988Y5859211D01*
X9771271Y5864928D02*
Y5902001D01*
X9757610D02*
X9771271D01*
X9757610Y5864928D02*
Y5902001D01*
X9751892Y5859211D02*
X9757610Y5864928D01*
X9730145Y5859211D02*
X9751892D01*
X9724427Y5864928D02*
X9730145Y5859211D01*
X9724427Y5864928D02*
Y5902001D01*
X9710767D02*
X9724427D01*
X9710767Y5864928D02*
Y5902001D01*
X9705049Y5859211D02*
X9710767Y5864928D01*
X9683302Y5859211D02*
X9705049D01*
X9677584Y5864928D02*
X9683302Y5859211D01*
X9677584Y5864928D02*
Y5902001D01*
X9663923D02*
X9677584D01*
X9663923Y5894223D02*
Y5902001D01*
X9656061Y5886361D02*
X9663923Y5894223D01*
X9647328Y5886361D02*
X9656061D01*
X10692575Y5896122D02*
X10751669D01*
X10684713Y5888260D02*
X10692575Y5896122D01*
X10684713Y5868971D02*
Y5888260D01*
X10671052Y5868971D02*
X10684713D01*
X10671052D02*
Y5906044D01*
X10665335Y5911762D02*
X10671052Y5906044D01*
X10643587Y5911762D02*
X10665335D01*
X10637870Y5906044D02*
X10643587Y5911762D01*
X10637870Y5868971D02*
Y5906044D01*
X10624209Y5868971D02*
X10637870D01*
X10624209D02*
Y5906044D01*
X10618491Y5911762D02*
X10624209Y5906044D01*
X10596744Y5911762D02*
X10618491D01*
X10591027Y5906044D02*
X10596744Y5911762D01*
X10591027Y5868971D02*
Y5906044D01*
X10577366Y5868971D02*
X10591027D01*
X10577366D02*
Y5906044D01*
X10571648Y5911762D02*
X10577366Y5906044D01*
X10549901Y5911762D02*
X10571648D01*
X10544183Y5906044D02*
X10549901Y5911762D01*
X10544183Y5868971D02*
Y5906044D01*
X10530523Y5868971D02*
X10544183D01*
X10530523D02*
Y5906044D01*
X10524805Y5911762D02*
X10530523Y5906044D01*
X10503058Y5911762D02*
X10524805D01*
X10497340Y5906044D02*
X10503058Y5911762D01*
X10497340Y5868971D02*
Y5906044D01*
X10483679Y5868971D02*
X10497340D01*
X10483679D02*
Y5906044D01*
X10477962Y5911762D02*
X10483679Y5906044D01*
X10456215Y5911762D02*
X10477962D01*
X10450497Y5906044D02*
X10456215Y5911762D01*
X10450497Y5868971D02*
Y5906044D01*
X10436836Y5868971D02*
X10450497D01*
X10436836D02*
Y5906044D01*
X10431119Y5911762D02*
X10436836Y5906044D01*
X10409371Y5911762D02*
X10431119D01*
X10403654Y5906044D02*
X10409371Y5911762D01*
X10403654Y5868971D02*
Y5906044D01*
X10389993Y5868971D02*
X10403654D01*
X10389993D02*
Y5906044D01*
X10384275Y5911762D02*
X10389993Y5906044D01*
X10362528Y5911762D02*
X10384275D01*
X10356811Y5906044D02*
X10362528Y5911762D01*
X10356811Y5868971D02*
Y5906044D01*
X10343150Y5868971D02*
X10356811D01*
X10343150D02*
Y5906044D01*
X10337432Y5911762D02*
X10343150Y5906044D01*
X10315685Y5911762D02*
X10337432D01*
X10309967Y5906044D02*
X10315685Y5911762D01*
X10309967Y5868971D02*
Y5906044D01*
X10296307Y5868971D02*
X10309967D01*
X10296307D02*
Y5906044D01*
X10290589Y5911762D02*
X10296307Y5906044D01*
X10268842Y5911762D02*
X10290589D01*
X10263124Y5906044D02*
X10268842Y5911762D01*
X10263124Y5868971D02*
Y5906044D01*
X10249463Y5868971D02*
X10263124D01*
X10249463D02*
Y5906044D01*
X10243746Y5911762D02*
X10249463Y5906044D01*
X10221999Y5911762D02*
X10243746D01*
X10216281Y5906044D02*
X10221999Y5911762D01*
X10216281Y5868971D02*
Y5906044D01*
X10202620Y5868971D02*
X10216281D01*
X10202620D02*
Y5906044D01*
X10196903Y5911762D02*
X10202620Y5906044D01*
X10175156Y5911762D02*
X10196903D01*
X10169438Y5906044D02*
X10175156Y5911762D01*
X10169438Y5868971D02*
Y5906044D01*
X10155777Y5868971D02*
X10169438D01*
X10155777D02*
Y5906044D01*
X10150059Y5911762D02*
X10155777Y5906044D01*
X10128312Y5911762D02*
X10150059D01*
X10122595Y5906044D02*
X10128312Y5911762D01*
X10122595Y5868971D02*
Y5906044D01*
X10108934Y5868971D02*
X10122595D01*
X10108934D02*
Y5906044D01*
X10103216Y5911762D02*
X10108934Y5906044D01*
X10081469Y5911762D02*
X10103216D01*
X10075751Y5906044D02*
X10081469Y5911762D01*
X10075751Y5868971D02*
Y5906044D01*
X10062091Y5868971D02*
X10075751D01*
X10062091D02*
Y5906044D01*
X10056373Y5911762D02*
X10062091Y5906044D01*
X10034626Y5911762D02*
X10056373D01*
X10028908Y5906044D02*
X10034626Y5911762D01*
X10028908Y5868971D02*
Y5906044D01*
X10015247Y5868971D02*
X10028908D01*
X10015247D02*
Y5906044D01*
X10009530Y5911762D02*
X10015247Y5906044D01*
X9987783Y5911762D02*
X10009530D01*
X9982065Y5906044D02*
X9987783Y5911762D01*
X9982065Y5868971D02*
Y5906044D01*
X9968404Y5868971D02*
X9982065D01*
X9968404D02*
Y5906044D01*
X9962686Y5911762D02*
X9968404Y5906044D01*
X9940940Y5911762D02*
X9962686D01*
X9935222Y5906044D02*
X9940940Y5911762D01*
X9935222Y5868971D02*
Y5906044D01*
X9921561Y5868971D02*
X9935222D01*
X9921561D02*
Y5906044D01*
X9915843Y5911762D02*
X9921561Y5906044D01*
X9894096Y5911762D02*
X9915843D01*
X9888379Y5906044D02*
X9894096Y5911762D01*
X9888379Y5868971D02*
Y5906044D01*
X9874718Y5868971D02*
X9888379D01*
X9874718D02*
Y5906044D01*
X9869000Y5911762D02*
X9874718Y5906044D01*
X9847253Y5911762D02*
X9869000D01*
X9841535Y5906044D02*
X9847253Y5911762D01*
X9841535Y5868971D02*
Y5906044D01*
X9827875Y5868971D02*
X9841535D01*
X9827875D02*
Y5906044D01*
X9822157Y5911762D02*
X9827875Y5906044D01*
X9800410Y5911762D02*
X9822157D01*
X9794692Y5906044D02*
X9800410Y5911762D01*
X9794692Y5868971D02*
Y5906044D01*
X9781031Y5868971D02*
X9794692D01*
X9781031D02*
Y5906044D01*
X9775314Y5911762D02*
X9781031Y5906044D01*
X9753567Y5911762D02*
X9775314D01*
X9747849Y5906044D02*
X9753567Y5911762D01*
X9747849Y5868971D02*
Y5906044D01*
X9734188Y5868971D02*
X9747849D01*
X9734188D02*
Y5906044D01*
X9728470Y5911762D02*
X9734188Y5906044D01*
X9706724Y5911762D02*
X9728470D01*
X9701006Y5906044D02*
X9706724Y5911762D01*
X9701006Y5868971D02*
Y5906044D01*
X9687345Y5868971D02*
X9701006D01*
X9687345D02*
Y5906044D01*
X9681627Y5911762D02*
X9687345Y5906044D01*
X9659880Y5911762D02*
X9681627D01*
X9654163Y5906044D02*
X9659880Y5911762D01*
X9654163Y5898266D02*
Y5906044D01*
X9652018Y5896122D02*
X9654163Y5898266D01*
X9647328Y5896122D02*
X9652018D01*
X9151016Y5886361D02*
X9647328D01*
X9155059Y5896122D02*
X9647328D01*
X9125881Y5925300D02*
X9155059Y5896122D01*
X9133228Y5834095D02*
X11000128D01*
X9129185Y5824334D02*
X11004171D01*
Y5838138D02*
Y5838384D01*
X9105015Y5862308D02*
X9133228Y5834095D01*
X11000128D02*
X11004171Y5838138D01*
X9100972Y5852547D02*
X9129185Y5824334D01*
X9121838Y5915539D02*
X9151016Y5886361D01*
X8593492Y5915539D02*
X9121838D01*
X8589449Y5925300D02*
X9125881D01*
X7476272Y5750869D02*
X8428822D01*
X7412167Y5828778D02*
X7480315Y5760630D01*
X8424779D01*
X8589449Y5925300D01*
X7402407Y5824734D02*
X7476272Y5750869D01*
X8428822D02*
X8593492Y5915539D01*
X11324650Y5914805D02*
X11379115D01*
X11296207Y5886361D02*
X11324650Y5914805D01*
X11381260Y5879724D02*
Y5912660D01*
X11379115Y5914805D02*
X11381260Y5912660D01*
X11027793Y5884216D02*
X11029938Y5886361D01*
X11296207D01*
X11381260Y5926710D02*
Y5959646D01*
X11379115Y5924565D02*
X11381260Y5926710D01*
X11320607Y5924565D02*
X11379115D01*
X11292164Y5896122D02*
X11320607Y5924565D01*
X11027793Y5898266D02*
X11029938Y5896122D01*
X11292164D01*
X7412167Y6004685D02*
X7425412Y6017930D01*
X7412167Y5828778D02*
Y6004685D01*
X7389162Y6017930D02*
X7402407Y6004685D01*
Y5824734D02*
Y6004685D01*
X11027793Y5898266D02*
Y5912793D01*
Y5869689D02*
Y5884216D01*
X11004171Y5838384D02*
Y5853359D01*
X11025649Y5886361D02*
X11027793Y5884216D01*
X11025649Y5896122D02*
X11027793Y5898266D01*
X11462311Y5875041D02*
X11479115D01*
X11413749Y5826479D02*
X11462311Y5875041D01*
X11481260Y5839961D02*
Y5872896D01*
X11479115Y5875041D02*
X11481260Y5872896D01*
X11006316Y5826479D02*
X11413749D01*
X11004171Y5824334D02*
X11006316Y5826479D01*
X11481260Y5886946D02*
Y5919882D01*
X11479115Y5884802D02*
X11481260Y5886946D01*
X11458268Y5884802D02*
X11479115D01*
X11409706Y5836239D02*
X11458268Y5884802D01*
X11004171Y5838384D02*
X11006316Y5836239D01*
X11409706D01*
X7317687Y5772470D02*
Y5956913D01*
X7294682Y5970158D02*
X7307926Y5956913D01*
X7317687D02*
X7330932Y5970158D01*
X7307926Y5768427D02*
Y5956913D01*
X11004171Y5808859D02*
Y5824334D01*
X11393476Y5756693D02*
X11434971Y5715198D01*
X11339370Y5756693D02*
X11393476D01*
X11479115Y5715198D02*
X11481260Y5713054D01*
X11434971Y5715198D02*
X11479115D01*
X11320657Y5737980D02*
X11339370Y5756693D01*
X11175545Y5712923D02*
X11200603Y5737980D01*
X11320657D01*
X11029938Y5712923D02*
X11175545D01*
X11481260Y5680118D02*
Y5713054D01*
X11027793Y5710778D02*
X11029938Y5712923D01*
X11335327Y5766454D02*
X11397519D01*
X11481260Y5727104D02*
Y5760039D01*
X11397519Y5766454D02*
X11439014Y5724959D01*
X11316614Y5747741D02*
X11335327Y5766454D01*
X11196560Y5747741D02*
X11316614D01*
X11479115Y5724959D02*
X11481260Y5727104D01*
X11171502Y5722683D02*
X11196560Y5747741D01*
X11439014Y5724959D02*
X11479115D01*
X11029938Y5722683D02*
X11171502D01*
X11027793Y5724828D02*
X11029938Y5722683D01*
X7246827Y5722858D02*
Y5976598D01*
X7223822Y5989842D02*
X7237066Y5976598D01*
Y5718815D02*
X7348504Y5607377D01*
X7246827Y5722858D02*
X7352547Y5617138D01*
X7246827Y5976598D02*
X7260072Y5989842D01*
X7237066Y5718815D02*
Y5976598D01*
X7352547Y5617138D02*
X8565145D01*
X7348504Y5607377D02*
X8569188D01*
X11027793Y5724828D02*
Y5740303D01*
X11025649Y5722683D02*
X11027793Y5724828D01*
X11004171Y5668384D02*
Y5678973D01*
X11027793Y5695303D02*
Y5710778D01*
X11025649Y5712923D02*
X11027793Y5710778D01*
X7142587Y5645497D02*
Y6004826D01*
X11006316Y5666239D02*
X11189861D01*
X11241257Y5717635D01*
X11193904Y5656479D02*
X11245300Y5707874D01*
X11326035D01*
X11006316Y5656479D02*
X11193904D01*
X11241257Y5717635D02*
X11330078D01*
X11326035Y5707874D02*
X11358475Y5675435D01*
X11330078Y5717635D02*
X11362517Y5685195D01*
X11379115Y5675435D02*
X11381260Y5673290D01*
X11358475Y5675435D02*
X11379115D01*
X11004171Y5654334D02*
X11006316Y5656479D01*
X11381260Y5640354D02*
Y5673290D01*
Y5687340D02*
Y5720276D01*
X11379115Y5685195D02*
X11381260Y5687340D01*
X11362517Y5685195D02*
X11379115D01*
X11004171Y5668384D02*
X11006316Y5666239D01*
X7152347Y6004826D02*
X7165592Y6018071D01*
X7129342D02*
X7142587Y6004826D01*
X7152347Y5649539D02*
Y6004826D01*
X11002027Y5666239D02*
X11004171Y5668384D01*
Y5638859D02*
Y5654334D01*
X9202148Y5656479D02*
X11002027D01*
X9198105Y5666239D02*
X11002027D01*
Y5656479D02*
X11004171Y5654334D01*
D180*
X993273Y6703974D02*
X1011850D01*
X1147268Y6732874D02*
X1164232D01*
X1118150Y6834880D02*
X1136145D01*
X1280170Y6807402D02*
X1301388D01*
X1313273Y6703974D02*
X1331850D01*
X1952756Y6287008D02*
Y6850869D01*
X1942995Y6282965D02*
Y6854912D01*
X1467268Y6732874D02*
X1484232D01*
X1438150Y6834880D02*
X1456145D01*
X3028740Y6641732D02*
X3597244Y7210236D01*
X6405431Y7200475D02*
X6678346Y6927559D01*
X6308642Y7088770D02*
X6337172Y7060241D01*
X2753649Y6227641D02*
X3614779Y7088770D01*
X3601287Y7200475D02*
X6405431D01*
X6409474Y7210236D02*
X6685248Y6934462D01*
X3579921Y7249213D02*
X6437820D01*
X3007874Y6677165D02*
X3579921Y7249213D01*
X3060342Y6600082D02*
X3601681Y7141420D01*
X3597244Y7210236D02*
X6409474D01*
X3056299Y6609843D02*
X3597638Y7151181D01*
X3583964Y7239452D02*
X6433777D01*
X6345588Y7141420D02*
X6549606Y6937402D01*
X6437820Y7249213D02*
X6773831Y6913201D01*
X3610736Y7098531D02*
X6313386D01*
X2749606Y6237402D02*
X3610736Y7098531D01*
X6433777Y7239452D02*
X6766929Y6906299D01*
X3032784Y6631971D02*
X3601287Y7200475D01*
X3597638Y7151181D02*
X6349631D01*
X3614779Y7088770D02*
X6308642D01*
X6349631Y7151181D02*
X6556508Y6944304D01*
X3011917Y6667404D02*
X3583964Y7239452D01*
X3601681Y7141420D02*
X6345588D01*
X1633273Y6703974D02*
X1651850D01*
X1600170Y6807402D02*
X1621388D01*
X1787402Y6732874D02*
X1804232D01*
X1758150Y6834880D02*
X1776145D01*
X6685248Y6934461D02*
Y6934462D01*
X6773831Y6913201D02*
Y6913201D01*
X6556508Y6944304D02*
Y6944304D01*
X2207025Y7100000D02*
X2250000D01*
X2204881Y7097855D02*
X2207025Y7100000D01*
X2204881Y7049106D02*
Y7097855D01*
X2060580Y6904806D02*
X2204881Y7049106D01*
X2006693Y6904806D02*
X2060580D01*
X1952756Y6850869D02*
X2006693Y6904806D01*
X1952756Y6287008D02*
X2002362Y6237402D01*
X2749606D01*
X1953273Y6703974D02*
X1971850D01*
X2195119Y7053150D02*
Y7097855D01*
X2192975Y7100000D02*
X2195119Y7097855D01*
X2150000Y7100000D02*
X2192975D01*
X2056537Y6914567D02*
X2195119Y7053150D01*
X2002650Y6914567D02*
X2056537D01*
X1942995Y6854912D02*
X2002650Y6914567D01*
X1920170Y6807402D02*
X1941388D01*
X1995460Y6230499D02*
Y6230500D01*
X1942995Y6282965D02*
X1995460Y6230500D01*
X1998319Y6227641D02*
X2753649D01*
X1995460Y6230499D02*
X1998319Y6227641D01*
X2096145Y6697532D02*
Y6834880D01*
X6572365Y6346146D02*
X6587662Y6361442D01*
X6597423D02*
Y6903389D01*
Y6361442D02*
X6612720Y6346146D01*
X2105906Y6701575D02*
Y6906774D01*
X6587662Y6361442D02*
Y6899346D01*
X6556508Y6944304D02*
X6597423Y6903389D01*
X6556508Y6930500D02*
X6556508D01*
X6549606Y6937402D02*
X6556508Y6930500D01*
X6549606Y6937402D02*
Y6937402D01*
X6556508Y6944304D02*
X6556508D01*
Y6930500D02*
X6587662Y6899346D01*
X2107268Y6732874D02*
X2124232D01*
X2404881Y7097855D02*
X2407025Y7100000D01*
X2450000D01*
X2386170Y6985515D02*
X2404881Y7004225D01*
Y7097855D01*
X2105906Y6906774D02*
X2184646Y6985515D01*
X2386170D01*
X2149213Y6658268D02*
X2149213D01*
X2105906Y6701575D02*
X2149213Y6658268D01*
X2197638Y6609843D02*
X3056299D01*
X2149213Y6658268D02*
X2197638Y6609843D01*
X2395119Y7008268D02*
Y7097855D01*
X2350000Y7100000D02*
X2392975D01*
X2395119Y7097855D01*
X2382127Y6995276D02*
X2395119Y7008268D01*
X2180603Y6995276D02*
X2382127D01*
X2096145Y6834880D02*
Y6910818D01*
X2180603Y6995276D01*
X2078150Y6834880D02*
X2096145D01*
X2145170Y6648507D02*
X2190736Y6602941D01*
Y6602941D02*
Y6602941D01*
X2145169Y6648507D02*
X2145170D01*
X2193595Y6600082D02*
X3060342D01*
X2190736Y6602941D02*
X2193595Y6600082D01*
X2096145Y6697532D02*
X2145169Y6648507D01*
X2261388Y6668115D02*
Y6807402D01*
X2398150Y6834880D02*
X2416425D01*
X2416560Y6834744D01*
Y6707037D02*
X2453334Y6670263D01*
X2416560Y6707037D02*
Y6834744D01*
X2453334Y6670263D02*
X2456193Y6667404D01*
X3011917D01*
X2453334Y6670263D02*
Y6670263D01*
X2427268Y6732874D02*
X2444232D01*
X2460236Y6677165D02*
X3007874D01*
X2426862Y6710540D02*
Y6733145D01*
Y6710540D02*
X2460236Y6677165D01*
X6685249Y6934461D02*
X6715222Y6904488D01*
Y6516584D02*
Y6904488D01*
Y6516584D02*
X6729983Y6501823D01*
X2604881Y7097855D02*
X2607025Y7100000D01*
X2650000D01*
X2592470Y6962286D02*
X2604881Y6974697D01*
Y7097855D01*
X2273273Y6913118D02*
X2322441Y6962286D01*
X2592470D01*
X2301575Y6641732D02*
X3028740D01*
X2273273Y6670034D02*
X2301575Y6641732D01*
X2273273Y6670034D02*
Y6703974D01*
Y6913118D01*
Y6703974D02*
X2291850D01*
X6690700Y6501823D02*
X6705461Y6516584D01*
X2595119Y6978740D02*
Y7097855D01*
X2592975Y7100000D02*
X2595119Y7097855D01*
X2550000Y7100000D02*
X2592975D01*
X2588427Y6972047D02*
X2595119Y6978740D01*
X2318398Y6972047D02*
X2588427D01*
X2261388Y6807402D02*
Y6915038D01*
X2318398Y6972047D01*
X2240170Y6807402D02*
X2261388D01*
X2294673Y6634830D02*
Y6634830D01*
X2297532Y6631971D02*
X3032784D01*
X2294673Y6634830D02*
X2297532Y6631971D01*
X2261388Y6668115D02*
X2294673Y6634830D01*
X6681206Y6924700D02*
X6705461Y6900445D01*
X6678346Y6927559D02*
Y6927559D01*
X6685248Y6934461D02*
X6685249D01*
X6705461Y6516584D02*
Y6900445D01*
X6681205Y6924700D02*
X6681206D01*
X6678346Y6927559D02*
X6681205Y6924700D01*
X6786098Y6534836D02*
Y6900935D01*
X6761040Y6519539D02*
X6776337Y6534836D01*
X6766929Y6906299D02*
Y6906299D01*
X6773831Y6899397D02*
X6776337Y6896892D01*
X6766929Y6906299D02*
X6773831Y6899397D01*
X6773831D01*
X6776337Y6534836D02*
Y6896892D01*
X6786098Y6534836D02*
X6801395Y6519539D01*
X6773831Y6913201D02*
X6786098Y6900935D01*
X6773831Y6913201D02*
X6773831D01*
D181*
X6337172Y7060241D02*
X6337355D01*
%TF.MD5,d9fdb3f01b69d8ee63a620d58af980d4*%
M02*
