M48
;Layer_Color=9474304
;FILE_FORMAT=2:3
INCH,LZ
;TYPE=PLATED
T1F00S00C0.008
T2F00S00C0.010
T3F00S00C0.015
T4F00S00C0.020
T6F00S00C0.028
T8F00S00C0.035
T9F00S00C0.039
T11F00S00C0.040
T12F00S00C0.043
T14F00S00C0.045
T15F00S00C0.063
T16F00S00C0.071
T17F00S00C0.126
T18F00S00C0.134
;TYPE=NON_PLATED
T19F00S00C0.031
T20F00S00C0.057
T21F00S00C0.089
T22F00S00C0.124
T23F00S00C0.126
%
T01
X0575Y0194
Y0198
X0579
Y0194
X03252Y02383
X03208
X03165
X03122
X03078
Y02427
Y0247
Y02513
Y02557
X03122
Y02513
Y0247
Y02427
X03165
Y0247
Y02513
Y02557
X03208
Y02513
Y0247
Y02427
X03252
Y0247
Y02513
Y02557
X08815Y05069
X08858
Y05113
X08815
X0955
Y05069
X09593
Y05113
X02105Y06394
Y06436
X0207Y06415
X01545
X0151Y06436
Y06394
X01475Y06415
X0214
X08843Y06122
X08887
Y06078
X08843
X10292Y06537
Y0658
Y06624
X10335
Y0658
Y06537
X10378
Y0658
Y06624
X10741Y05853
Y05712
X10915
X11004Y05679
X11028Y05695
Y0574
X11004Y05809
Y05853
X11028Y0587
Y05913
X10915Y05853
X11004Y05639
T02
X00808Y00245
X00865Y00279
X0089Y00401
X0082Y0053
X01142Y00245
X01433
X0149Y00279
X01515Y00401
X01445Y0053
X01767Y00245
X02058
X02115Y00279
X0207Y0053
X0214Y00401
X02392Y00245
X02683
X0274Y00279
X02765Y00401
X02695Y0053
X03017Y00245
X03308
X03365Y00279
X0339Y00401
X0332Y0053
X03642Y00245
X03933
X0399Y00279
X04015Y00401
X03945Y0053
X04267Y00245
X04558
X04615Y00279
X0464Y00401
X0457Y0053
X04892Y00245
X05183
X0524Y00279
X05195Y0053
X05265Y00401
X05517Y00245
X06709Y00448
Y00513
X06904
Y00448
X07099
Y00513
X07294
Y00448
X07489
Y00513
X07684
Y00448
X07879
Y00513
X08074
Y00448
X08269
Y00513
X09384Y00471
X09462Y00477
Y00526
X09512Y00526
X09561Y00526
Y00477
X09512Y00477
X09476Y00399
X09567
X09639Y00461
X09718Y00464
X09778Y00417
X09704Y00357
X09908Y00464
X09384Y00562
X0934Y00305
X09293Y00336
X09952Y00396
X10199Y00407
Y00454
Y00519
X10177Y00329
X10778Y0034
X10733Y00245
X11067
X109Y0052
X1168Y009
X1173Y0095
X1162Y01
Y0165
X1168Y0175
X1173Y017
X11458Y01701
X11373Y01771
Y01935
X11458Y01859
Y02018
X11373Y02099
X11134Y02014
X11088Y02039
X11032Y01995
X11029Y01961
Y01924
X10962Y01955
X108Y01917
X10767Y01887
X10764Y01853
X108Y01824
X11095Y01698
X11055Y0165
X11095Y01606
X11187
X11278
Y01698
X11187
X11134Y01369
X11088Y01394
X11032Y0135
Y01314
Y01281
X1096Y0131
X1079Y01189
X10754Y01221
X10648Y01269
X09973Y01593
X09973Y01652
Y01712
X09973Y01914
X10147Y00577
X10199
X09677Y00575
X09639Y00582
X09561Y00576
X09512Y00576
X09462Y00576
X09476Y00654
X09567
X09601Y00732
X09521Y00767
X09384Y00672
X09344Y00676
X0972Y00711
X09767
X09757Y01533
Y01593
Y01652
X09757Y01712
X0984Y01712
X09919Y01712
X09919Y01652
Y01593
Y01533
X0984Y01533
Y01593
X09674Y01593
Y01652
X09674Y01712
X09591Y01712
X09591Y01652
Y01593
Y01533
X09674Y01533
X09629Y01806
X09667Y01914
X09745Y01967
X09895
X08214Y0086
X0815Y00893
X08019Y0086
X07955Y00893
X07824Y0086
X0776Y00893
X07629Y0086
X07565Y00893
X07434Y0086
X0737Y00893
X07239Y0086
X07175Y00893
X07044Y0086
X0698Y00893
X06849Y0086
Y0075
X06904Y00673
Y00608
X07099
Y00673
X07044Y0075
X07239
X07294Y00673
Y00608
X07489
Y00673
X07434Y0075
X07629
X07684Y00673
Y00608
X07879
Y00673
X07824Y0075
X08019
X08074Y00673
Y00608
X08269
Y00673
X08214Y0075
X07132Y01614
Y01648
X07057Y01577
X06853Y01552
X06813
Y01506
X06853Y01506
X07019Y01941
X06892Y02082
X06728Y02009
X0673Y01934
X06783Y01933
X06646Y02006
X06644Y02074
X06361Y01733
X05937Y01868
X05885Y01831
X05847Y0197
X05624Y02043
X0561Y01844
X05465Y01947
X05484Y0134
Y01255
X05457Y0119
Y01145
X05317Y01113
X0528Y01143
X05283Y01207
X05275Y01071
Y01039
X0528Y00967
X05303Y0092
X05365Y00857
X05415
X05485Y00873
X0543Y00738
X05393
X05325Y00774
X05333Y00686
Y00644
X05291
Y00686
X0539Y00583
X0546Y00583
X06054Y01081
X06014Y01388
X0659Y00893
X06654Y0086
Y0075
X06709Y00673
Y00608
X06785Y00893
X05221Y00887
X0524Y00967
X05245Y01039
Y01071
X0524Y01143
X05237Y01207
X05203Y01113
X0521Y0132
X04859Y0134
Y01255
X04832Y0119
Y01145
X04692Y01113
X04655Y01143
X04615
X04612Y01207
X04658
X0465Y01071
X0462
Y01039
X0465
X04655Y00967
X04615
X04596Y00887
X04678Y0092
X0474Y00857
X0479
X0486Y00873
X05032Y00885
X05046Y00825
Y0074
X05111Y00607
X05195Y00565
X05198Y00685
X05084Y00926
X05085Y00965
X04805Y00738
X04768
X047Y00774
X04708Y00686
Y00644
X04666
Y00686
X04573Y00685
X0457Y00565
X04486Y00607
X04421Y0074
Y00825
X04407Y00885
X04459Y00926
X0446Y00965
X04578Y01113
X04585Y0132
X04234Y0134
Y01255
X04207Y0119
Y01145
X04067Y01113
X0403Y01143
X0399
X03987Y01207
X04033
X04025Y01071
Y01039
X03994
Y01071
X03953Y01113
X0399Y00967
X0403
X04053Y0092
X03971Y00887
X04115Y00857
X04165
X04235Y00873
X0418Y00738
X04143
X04075Y00774
X04083Y00686
Y00644
X04041
Y00686
X03948Y00685
X03945Y00565
X03861Y00607
X03796Y0074
Y00825
X03782Y00885
X03834Y00926
X03835Y00965
X0396Y0132
X03976Y01695
X04135
X04107Y01947
X04077Y01985
Y02025
X04107Y02063
X04149Y0202
Y0199
X04181
Y0202
X04253Y02025
Y01985
X0436Y0196
X04517Y01935
X04502Y01855
X04427Y01845
X04462Y01688
X04519
X04534Y02034
Y02076
X04576
Y02034
X04435Y02068
X04737Y02006
X0474Y01909
X04705Y01928
X04865Y0198
X04025Y02005
X03911Y01947
X03876Y01878
Y0181
X0414Y00583
X0421Y00583
X04765Y00583
X04835Y00583
X03585
X03515Y00583
X03458Y00644
X03416
Y00686
X03458
X0345Y00774
X03518Y00738
X03555
X0354Y00857
X0349
X03428Y0092
X03405Y00967
X03365
X03369Y01039
Y01071
X03401
Y01039
X03405Y01143
X03365
X03362Y01207
X03408
X03442Y01113
X03328
X03335Y0132
X03609Y0134
Y01255
X03582Y0119
Y01145
X0361Y00873
X03346Y00887
X03209Y00926
X0321Y00965
X03157Y00885
X03171Y00825
Y0074
X03236Y00607
X0332Y00565
X03323Y00685
X0293Y00738
X02893
X02825Y00774
X02833Y00686
Y00644
X02791
Y00686
X02698Y00685
X02695Y00565
X02611Y00607
X02546Y0074
Y00825
X02532Y00885
X02584Y00926
X02585Y00965
X0274Y00967
X0278
X02803Y0092
X02721Y00887
X02865Y00857
X02915
X02985Y00873
X02957Y01145
Y0119
X02984Y01255
Y0134
X0271Y0132
X02737Y01207
X02783
X0278Y01143
X0274
X02703Y01113
X02744Y01071
X02776
Y01039
X02744
X02817Y01113
X02332Y01145
Y0119
X02359Y01255
Y0134
X02158Y01207
X02155Y01143
X02192Y01113
X02151Y01071
Y01039
X02155Y00967
X02178Y0092
X0224Y00857
X0229
X0236Y00873
X02305Y00738
X02268
X022Y00774
X02208Y00686
Y00644
X02166
Y00686
X02265Y00583
X02335Y00583
X0289Y00583
X0296Y00583
X02959Y01717
X02933Y01749
X02896Y01715
X02858Y01746
X03033Y01748
X03031Y01706
X03109Y01707
X03112Y01749
X03185Y01751
X03185Y01707
X03256Y01708
X03256Y0175
X03334Y0175
X03435Y01749
X03409Y01719
X0348Y01719
X03517Y01746
X03557Y01743
X03567Y02056
X03532
X03487Y02
X03452Y02028
X03418
X03377
X03343
X03302
X03268
X03227
X03193
X03152
X03118
X03077
X03043
X03002
X02968
X02927
X02893
X02872Y02108
X02947
X03023
X03098
X03172
X03247
X03322
X03398
X03473
X02556Y02109
Y02017
X02396
Y02109
X0225
Y02017
X02085Y0132
X02112Y01207
X02115Y01143
X02078Y01113
X02119Y01071
Y01039
X02115Y00967
X02096Y00887
X01959Y00926
X0196Y00965
X01907Y00885
X01921Y00825
Y0074
X01986Y00607
X0207Y00565
X02073Y00685
X0168Y00738
X01643
X01575Y00774
X01583Y00686
X01541
Y00644
X01583
X0164Y00583
X0171Y00583
X01445Y00565
X01448Y00685
X01361Y00607
X01296Y0074
Y00825
X01282Y00885
X01334Y00926
X01335Y00965
X0149Y00967
X0153
X01553Y0092
X01471Y00887
X01615Y00857
X01665
X01735Y00873
X01707Y01145
Y0119
X01734Y01255
Y0134
X0146Y0132
X01487Y01207
X01533
X0153Y01143
X0149
X01453Y01113
X01495Y01071
X01526
Y01039
X01495
X01567Y01113
X01082Y01145
Y0119
X01109Y01255
Y0134
X00835Y0132
X00862Y01207
X00908
X00905Y01143
X00865
X00828Y01113
X00869Y01071
Y01039
X009
Y01071
X00942Y01113
X00905Y00967
X00865
X00846Y00887
X00928Y0092
X0099Y00857
X0104
X0111Y00873
X01055Y00738
X01018
X0095Y00774
X00958Y00686
Y00644
X00916
Y00686
X00823Y00685
X0082Y00565
X00736Y00607
X00671Y0074
Y00825
X00657Y00885
X00709Y00926
X0071Y00965
X01015Y00583
X01085Y00583
X00359Y02704
Y02954
Y03205
Y03455
X00681Y03455
Y03205
Y02954
Y02704
X00939
X0094Y02954
X00939Y03205
X01221
X01222Y02954
X01221Y02704
X01228Y02454
X00945
X01587Y02713
Y02759
Y02804
X01634
Y02759
Y02713
X01776Y02759
X01987Y02616
X01953Y02549
X01995Y02941
X01975Y03189
X01981Y0323
X01981Y03266
X02057Y03238
X02298Y03266
X02298Y03311
X02295Y03428
X0224Y03412
X0226Y03557
X02295
X02229Y03585
X02242Y03618
X02295Y03658
X02349Y03619
X02442Y03576
X0247Y03586
X02465Y03545
X02536Y03585
X02572
X02588Y03611
X0267Y03589
X02725
X02785
Y03438
X02725Y03447
X0267Y03447
X02625Y03461
X02618Y0337
X02431
X02345Y03472
X02438Y03676
X02481
X02525
X02508Y0321
X02542
X02833Y03482
X03133Y03646
X03184Y03646
X03235
X03468Y03672
X03468Y03619
X03435Y0357
X03445Y03455
X0339
X03355Y03427
X03477Y03293
X03505Y03263
X03665Y0349
X03515Y02792
X03467Y02675
X03387Y02659
X0336Y02688
X03326Y02723
X03326Y02757
X03295Y02791
X03206Y02759
X03134Y02757
X02945Y02751
X0289
X02835
X02775Y02755
X027Y02779
X02691Y02515
X02815Y02593
X02858Y02569
X02897Y02589
X02897Y02548
X02941Y02506
X03031Y02517
Y02572
X03086Y02609
X02992Y0264
X02951Y02604
X02951Y02414
X02911Y02413
X03031Y02423
Y02387
X03033Y02332
X02958Y02303
X02949Y02269
X02851Y0226
X02851Y023
Y0234
X02754
Y023
X02797Y02391
X02501Y02425
X02371Y0248
X0219Y02689
X02126Y02812
X03068Y03128
Y03159
X03228Y02609
X03301Y0261
X03303Y02538
Y02482
Y02427
X03303Y0236
X03332Y02298
X0339Y02226
X03445
X0358Y02203
X0365Y02251
X03653Y02348
X03645Y02443
X03683Y02427
X03473Y02443
X03486Y02389
X03418Y02378
X03382Y02383
X03377Y02541
X03419Y02564
X03474Y02568
X03495Y02545
X03465Y02517
X0365Y02625
X03705Y02576
X0375Y02559
X03696Y02517
X0369Y02691
X0386Y03258
X03863Y03444
Y0349
Y03535
X03816
Y0349
Y03444
X04733Y03072
X04773
Y03026
X04733Y03026
X04936Y03048
X04977Y031
X05055
X05055Y03061
X04799Y02788
X04605Y025
X04552
X04455Y02563
X0444Y02235
X04386Y02251
X04402Y02182
X04343Y02151
X04604Y02243
X04605Y02369
X05531Y02717
X05903Y03252
X06374Y03265
X06413Y0324
X06415Y0319
Y0314
X06445Y03107
X06529Y03062
X06669Y03169
X06675Y02908
X06725
X06775
X068Y02869
X0675
X067Y02869
X06744Y0352
X06763Y03548
X0674Y03579
X06444Y03602
X06444Y03668
X06415Y0354
Y0349
Y0344
Y03391
Y0334
Y0329
X06374Y03365
Y03465
X06375Y03515
X05611Y03644
X06281Y02454
X06774Y0222
X06952Y02228
X0695Y02869
X069
X0685
X06875Y02908
X06925
X06975
X07025
X07075
X07125
X07152Y02934
X0705Y02869
X07
X06825Y02908
X07277Y0299
X07387Y03122
X07431Y03292
X07425Y03464
X07375
X07475Y03464
X07516Y03392
X07559
X07599
X07258Y03441
X07039Y03238
X08373Y02758
X08374Y02719
Y0268
X08435
Y02719
X08434Y02758
X08495
X08496Y02719
Y0268
X08557
Y02719
X08556Y02758
X08617
X08618Y02719
Y0268
X08679
Y02719
X08678Y02758
X08739
X0874Y02719
Y0268
X0866Y02432
X0851
X0839Y0246
X08542Y02871
X0856Y03047
X08635
X08485
X084Y03048
X0906Y03057
X09092Y03013
X097Y03026
Y0308
Y03135
X0977
Y0308
Y03026
Y02971
X097
X0984
Y03026
X0991
Y0308
Y03135
X0984
X09811Y03222
X0983Y03258
X09882Y03312
X09916
X09932Y03234
X09807Y03379
X09765Y0347
X09579Y03457
X09566Y03507
X09601
X09598Y03575
X09633Y03561
X09632Y03684
X09598
X09723Y03656
X09779
X0984
X09901
X09516Y03474
X09666Y02801
X09745Y0275
X09745Y0271
X09666Y02659
X09718Y02484
Y02445
Y02398
Y02354
Y02315
X09779Y02316
Y02356
Y024
Y02446
Y02486
X0984
Y02446
X09901
Y02486
Y024
Y02356
Y02316
X0984
Y02356
X09895Y0271
Y0275
X0991Y02971
X09959Y02991
Y0305
Y03107
X09975Y03234
X1023Y0323
X10334Y03442
X10033Y03513
X09985
X09962Y03656
X09974Y02802
X09974Y02659
X10998Y02651
Y02534
X11134
Y02651
X11137Y02767
X11281Y02768
X11373
Y02891
X11281
Y03083
X11373
Y03246
X11281
Y03403
X11134Y03344
X11036Y03325
X11033Y03292
X1096Y03286
X10998Y03176
X1107Y03127
Y03081
Y03033
X11119
Y03127
X10998Y02967
X1079Y03163
X10752Y03196
X10645Y03244
X10957Y03535
X11059Y0363
X1118Y0353
X11373Y02592
X11373Y02428
Y02264
X11458Y02334
Y02176
X11139Y02302
X11138Y02418
X11057Y024
X10997Y02302
X1162Y02225
X1168Y02125
X11641Y02645
X11549Y02646
X11586Y0275
Y02915
Y03081
Y03246
X11591Y03402
X11694
X11798
Y03554
X11694
X11591
Y03705
X11694
X11798
X11665Y03841
X11551Y03967
X11699Y04412
Y04444
X11838Y04339
Y04307
X12425Y04255
X12185Y04785
X12425Y0511
X11427Y04323
X11175Y03956
Y03799
X10962Y03799
X10953Y03957
X09994Y03918
X09962Y03746
Y037
X09941Y05014
Y05165
X0973Y05165
X09678Y05165
X09756Y05125
X09729Y05085
X0976Y05045
X09729Y05005
X09646Y04911
X0961Y04936
X09582Y04911
X0953Y04924
X0949Y04889
X09559Y04984
X09415Y05046
X09388Y05075
X09408Y0511
X09404Y05187
X09364Y05151
X09375Y05019
X09203Y04954
X09203Y05195
X09029Y05101
X08968Y05127
X08946Y05163
X08952Y05074
X0899Y05044
X0894Y05014
X08911Y04911
X08875Y04936
X08847Y04911
X08795Y04924
X0877Y04889
X08824Y04984
X08672Y05026
X08672Y05075
X08643Y05051
X08639Y05101
X0864Y05149
X08669Y05128
X08773Y05226
X08843Y05232
X08845Y05193
X08464Y0519
Y05149
X09069Y04738
X09069Y04701
X09438Y04735
X09708
X09578Y05191
X09579Y05227
X09508Y05226
X09688Y03918
X09766Y03971
X09916
X09901Y03746
Y037
X0984Y03746
X09779
Y037
X09723
Y03746
X07157Y03749
X07098Y03749
X07058Y03749
X07078Y03723
X07074Y03874
X0712Y03874
X07098Y03912
X0705Y03919
X06961Y03855
X06955Y04095
X06905
X07163Y04591
X06631Y04442
X06385Y04071
X06505Y03719
X0663Y03723
X06746Y03697
X06785Y03743
X06214Y0466
X0626Y05077
X06301
X06082Y05178
Y05218
X0604
X0604Y05178
X06
X05999Y05218
X05852Y05227
X05809Y05231
X05824Y05193
X05866Y05183
X05585Y05095
X05445Y05203
Y0524
X05424Y04843
X05453Y0481
X05295Y04767
X05262Y04737
X05435Y0461
X05585
X05624
Y04565
X05585
Y04656
X05624
X0559Y04358
X05295Y04395
X0655Y05227
X06589
X05077Y05234
X04993Y05236
X04995Y05166
X04845Y05153
X04829Y05125
X04878Y05057
X04867Y05002
X04823
X0478
X04737
X04693
Y04958
Y04915
Y04872
Y04828
X04737
Y04872
Y04915
Y04958
X0478
Y04915
Y04872
Y04828
X04823
Y04872
Y04915
Y04958
X04867
Y04915
Y04872
Y04828
X04909Y04825
X049Y04782
X0483
X04692Y04782
X04655Y04788
X04649Y04835
X04646Y04964
X04642Y05023
X04567Y05069
X04563Y05148
X04664Y05132
X0467Y0525
X0474Y05224
X04476Y051
X04495Y05043
X04317Y0504
X04401Y05148
X04155Y05206
X04015Y05118
Y05044
X03795Y05182
X03936Y04655
X03975
Y0461
X03936
Y04564
X03975
X04134Y0461
X04102Y0443
X04132Y04397
X04265Y04458
X04298Y04488
X04309Y04527
Y04565
X04358
Y04527
X04407
Y04565
X0439Y04623
X04441
X04483Y04653
X04458Y04678
Y0472
X04498Y04835
X0454Y04905
X04332Y04859
Y04813
X04303Y04792
X04227
X0434Y04623
X04342Y04347
X04345Y04282
Y04187
X04342Y04122
X04397Y04075
Y03955
X04968Y04202
X04983Y04314
X04989Y04546
X04952
Y04588
X04989
X05111
Y04546
X05137Y04647
X05175
X05213
X05213Y04689
X05175
X05137
X04979Y04739
X05054Y04825
X05059Y04925
X05096
X04909
X04909Y04985
X049Y04643
X0483
X0463Y04693
X04589Y04583
X05158Y05127
X03679Y05066
Y05026
X03638
X03637Y05066
X03596
X03597Y05026
X03565Y0495
Y04919
X03578Y0462
X03459
X03521Y04531
X02729Y04587
X02672
X02617
X02565
X0254Y04626
X0226Y04632
X02127Y04654
X02153Y04866
X02153Y04898
X02188Y04897
X02165Y05055
X02255Y05175
X02523Y05236
X02557
X02591
Y05204
X0264Y05125
X02678
X02716
X02754
X0279Y05065
X02595
X0282Y04731
X02627Y04049
X02582
X02537
X02492
X02447
X02402
X02425Y04018
X0247
X02515
X0256
X02605
X0238
X02318Y04002
X02283
X02247
X02213
X02195Y03891
X02265Y03891
X02311Y03851
X02382Y0381
X02431Y03839
X02438Y0376
X02481
Y03717
X02438
X02525
Y0376
X02603Y03705
X02753Y03695
Y0374
Y03785
Y0383
X02781Y03807
Y03763
Y03717
X03133Y03703
X03184
X03235
X03004Y03913
X02338Y03694
X02127Y0372
Y03765
Y0381
Y03855
X02079Y03832
Y03787
Y03743
X01804Y03979
X01325Y0397
X01286Y03845
X01245Y03803
X0121Y0377
X01035Y0374
X01071Y03704
X01054Y03925
X00912Y03925
Y0397
X00865
Y03925
Y03879
X00912
X00681Y03956
Y03706
Y04206
X00746Y04567
X0084Y04656
X00947Y04709
X00946Y04743
X0102Y04715
X01222Y04743
X01261
X01261Y04787
X01222
X01603Y04883
X0154Y05069
X01483Y05117
X01489Y05219
X01426Y05223
X01394Y05185
X01795Y0517
Y05217
Y05123
X01943Y05077
X01943Y05047
X01945Y04968
Y04936
Y04903
X01912
Y04936
Y04968
X01979
Y04936
Y04903
X01941Y04824
X01885Y0486
X01887Y04724
X02032Y04664
X02033Y04573
X01986
X02107Y04831
X02118Y04898
X02069Y04935
X02027Y051
X01992Y05168
X0212Y05141
X01885Y0501
X01827Y04955
X00746Y04817
X0121Y04157
X01242Y04127
X00359Y04206
Y03956
Y03706
X00503Y04567
Y04817
X00772Y05401
X0087
X00955
X01048
X01152
X01239
X01334
X01418
X01509
X01591
X01678
X01773
X0186
X01795Y05264
X01544Y05334
X0141Y05282
X02076Y05401
X0203Y05988
X0198Y06085
X01912Y0608
X02003Y0629
X02092Y0629
X02018Y06473
X02092Y06582
X02124Y06733
X02038Y0677
X01972Y06704
X01889Y06733
Y06767
X0192Y06807
X01804Y06733
X01718Y0677
X01652Y06704
X01569Y06733
Y06767
X016Y06807
X01484Y06733
X01398Y0677
X01332Y06704
X01249Y06733
Y06767
X0128Y06807
X01164Y06733
X01078Y0677
X01012Y06704
X00929Y06733
Y06767
X0096Y06807
X01497Y06582
X01423Y06473
X01408Y0629
X01497Y0629
X01548Y06327
X01665Y06327
X0166Y06561
X01597Y06042
X01541Y05948
X01669Y05884
X01285Y05963
X01235Y06059
X01165Y0608
X00873Y0603
X00796Y05948
X00924Y05884
X02288Y06137
X0226Y06327
X02143Y06327
X02255Y06561
X02292Y06704
X02209Y06733
Y06767
X0224Y06807
X02358Y0677
X02444Y06733
X02475Y06055
X03799Y0604
X03838Y05973
X04004Y06068
X04425Y06108
X04518Y06065
X04465Y05997
Y05932
X04385Y05933
X04518Y05865
X04819Y05981
Y06033
X04885Y06039
X0497Y06035
X05045Y06033
X05105Y06012
X05152Y06027
X05246Y06028
X05222Y05994
X05199Y05962
X05009Y05981
X04932Y05981
X0497Y06193
X04885
X05045Y06173
X05175Y06158
X05164Y06473
X05093
X05022
X0504Y06605
X04966
X04902
X04827Y06415
X04573
X04335Y06415
X05234Y06473
X05115Y05641
X0507Y05609
X04895Y05639
X04859Y05609
X04917Y05367
X04945Y05395
X05079Y05387
X05112
X05181Y05394
X05221Y05394
Y05353
X05181
Y05435
X05221Y05435
X04646Y05382
X04693Y05325
X0467Y05284
X05305Y05381
X05346Y05342
X05445Y05277
X05542Y05342
X05585Y05384
X05787Y05264
X0583
X06113Y05281
X0616
X06206
Y05333
X0616
X06113
X06092Y0539
X06005
X06005Y05452
Y05503
X06247Y05452
X06222Y0539
X0626Y05281
X06395Y05272
X0655
X06589
Y05318
X0655
X0655Y05452
Y05503
X06666
Y05452
X06702Y05373
X0679Y05264
X06755Y05912
X06805Y05995
X06673Y06025
X0664Y0603
X06569Y06023
X06545Y05996
X06522Y06029
X06445Y06028
X06474Y05994
X06492Y05969
X06393Y05993
X06356Y06014
X06285Y05994
X06309Y05963
X06238Y05962
X06214Y05994
X06096
X06049
X06026Y05962
X06073
X05955Y05965
X05907Y05962
X05931Y05994
X05978
X0586Y05994
X05813
X05789Y05963
X05836
X05766Y06028
X05701
X05695Y0615
X0576Y0615
X05807
X05884Y06146
X05938Y0615
X06002
X0612Y06147
X06177Y0615
X06262Y06148
X06333Y06154
X06403Y06148
X06407Y0631
X06447
X06454Y06346
X06495
X06525Y0631
X06565
X06572Y06346
X06613
X06628Y06468
X06691Y06502
X0673
X06746Y06473
X06761Y0652
X06801
X06665Y06562
X06628Y06606
X06512Y06473
X06392Y06468
X06321Y06473
X0625Y06468
X06179Y06473
X06108Y06468
X0599Y06473
X05872Y06468
X05754Y06473
X05909Y06562
X05872Y06606
X06108
X06146Y06562
X06287
X06337Y06575
X06392Y06621
X0625Y06606
X06336Y06346
X06377
X06584Y06179
X06624
X06654Y06154
X06694
X06702Y06197
X06742
X06758Y06145
X06766Y06269
X06766Y0631
X06812Y06351
X0547Y06351
X05447Y06473
X05376Y06473
X05305Y06473
X05329Y065
X05317Y06028
X05293Y05994
X0527Y05962
X05341
X05364Y05994
X05388Y06028
X05459
X05436Y05994
X05411Y05962
X06852Y05994
X06829Y06025
X069
X06947
X06994
X0697Y05995
X06923Y05994
X06931Y05823
X06929Y05671
X0701Y05628
X07088Y05672
X07086Y05821
X07011Y05899
X07129Y06018
X07166
X07183Y0597
X07206Y05946
X07224Y0599
X0726
X07295Y0597
X07331
X07354Y05902
Y05823
X07346Y0567
X07517Y05637
Y05899
X07532Y05967
X0757Y06
X07613Y05967
X07655Y05998
X07697Y05921
X07698Y05868
X07874Y05794
X07951Y05866
X08062Y05867
X08145Y05918
X08362Y05958
X08342Y06058
X08343Y05827
X08341Y05731
X08344Y06728
Y06806
X08023Y06806
X07976Y06751
X0787Y06394
X07614Y06576
X07555
X07487
X07455Y06483
X07384Y06471
X07266Y06473
X07171
X06982
X07006Y0651
X06911
X06901Y06562
X06864Y06606
X06864Y06468
X06845Y06351
X06891Y0631
X06891Y06269
X06876Y06144
X07112Y06148
X07277Y06028
X07389Y06018
X07425
X07455Y05993
X07494Y06
X07494Y06151
X0757Y0615
X07655Y06148
X07431Y06358
X07005Y06722
X08573Y06715
X08682
X08738Y0674
X08723Y06772
X08766
X08809
X08853
X08939
X08982
X09026
X09046Y06733
X09003
X08959
X09003Y06658
X09046
X09115Y06715
X09224
X09171Y06652
X09182Y06568
X09228
X09357Y0663
X09401Y06784
X0952Y06804
X09611Y06553
X0971Y06315
X09764Y06266
X09774Y06101
X09824Y0606
X09749Y06021
X0972Y05953
X0968Y05953
X09635Y06011
X09478Y05958
X09439Y05943
X0939
X09453Y06047
X09359Y06176
X09391Y06212
X09568Y06176
X09027Y06139
X08999Y0616
X08999Y06113
X09026Y06084
X09Y06056
X0894Y06025
X08902Y05949
X08817Y05969
X08745Y05963
X08736Y05825
X08689
X08718Y0609
X08746Y0613
X08756Y06234
X08802Y06273
X08804Y06402
X08854Y06403
X08893Y06403
X08944Y06404
X09004Y06405
X08988Y06463
X09028Y06473
X09068Y06503
X08995Y06537
X08906Y065
X088Y06463
Y06537
X0872Y06581
X08629Y06652
X08807Y06665
X08895Y06665
X08903Y06227
X0893Y0621
X08875Y06212
X0896Y06184
X09018Y058
X089Y05622
X08842Y05613
X08775
X08865Y05256
X09607Y05259
X08457Y05925
X0838Y06025
X10095Y06303
X10139
X10146Y06491
Y06569
X1009Y06569
X10059Y0653
X10127Y0661
X1009Y06685
X10198
X10214Y0674
X10325Y06698
X10462Y06778
X10463Y06559
Y06523
X10493Y06512
Y06573
X10537Y0648
X10414Y06457
X10398Y06397
X10398Y06363
X10365Y06323
X10322Y06461
X10266Y06468
X10225Y06435
X10222Y06531
X10668Y06571
X10731
X10833
X10926Y06444
X11033Y06448
Y06392
X11085Y06337
X11195Y06373
X11213Y06473
X1125Y06505
X1107Y0648
X11091Y06614
X1136Y06619
X1134Y06313
X11379Y0625
X11413Y06217
X1149Y06313
X1117Y06036
X11129Y05995
X11112Y05504
X11169Y05458
X10839Y05381
X10837Y0622
X10702Y06444
X11529Y0625
X11563Y06217
X11679Y0625
X11713Y06217
X11829Y0625
X11863Y06217
X11983Y06225
X12095Y06257
Y0632
Y06385
X1205Y06396
X11982Y06407
X12095Y06481
Y0652
X12194Y06631
X11907Y0662
X1179Y06313
X1164
X12185Y06323
X12425Y05935
X12185Y05605
X12375Y0691
Y0716
Y074
X11965
Y07165
Y069
X11555Y0717
Y074
X09515Y06924
Y06875
X0943Y06973
X0939Y07009
X09224Y07042
X09115
X09171Y06979
X09147Y06878
X09101
X08629Y06979
X08682Y07042
X08573
X08344Y07043
Y07121
Y072
Y06964
Y06885
X08023Y06885
Y06964
Y07043
X07942Y06994
X07868Y07007
X07798Y06985
X07771Y06955
Y07015
X07798Y07045
X07771Y07075
X07798Y07105
X07775Y07135
X07905Y07105
X0794Y071
X07905Y06903
X07867Y06894
X07985Y07289
X07741Y07289
X04569Y06915
X04569Y0686
X0431Y0686
X0431Y06915
X03972Y06867
X03714Y06867
X02398Y06835
X02078
X01758
X01438
X01118
T03
X01679Y03041
X01713Y03087
X01746Y03133
X0178Y03179
X01814Y03225
X01847Y03271
X01881Y03317
X04132Y03366
X04101Y03402
X0407Y03439
X0404Y03475
X04009Y03512
X03978Y03549
X03947Y03585
X03917Y03622
T04
X11838Y04562
T06
X03978Y02476
X03939Y02535
X04021
T08
X11995Y009
Y01
Y011
Y0155
Y0165
Y0175
X04535Y06245
X04435
X04335
X11381Y0604
Y0596
Y0588
X11481Y0584
Y0576
Y0568
Y056
X11381Y0556
Y0564
Y0572
X11481Y0592
Y06
T09
X01805Y06373
Y06473
X024
Y06373
T11
X11281Y0556
Y0566
Y0594
Y0604
T12
X07565Y0625
X0305Y071
Y072
X0295
Y071
X0285
Y072
X0275
Y071
X0265
Y072
X0255
Y071
X0245
Y072
X0235
Y071
X0225
Y072
X0215
Y071
X0205
Y072
X0195
Y071
X0185
Y072
X0175
Y071
X0165
Y072
X0155
Y071
X0145
Y072
X0135
Y071
X0125
Y072
X0115
Y071
X0105
Y072
X0095
Y071
T14
X1185Y02125
Y02225
X1196
Y02125
T15
X0532Y0185
X0182Y0223
X0337Y0367
X0428Y0298
X087Y02295
X1042Y02725
X0478Y0427
X02425Y0454
X0213Y0449
X0175Y0486
X0126Y0518
X01295Y037
X02125Y05335
X04935Y0625
X12206Y06118
Y05482
T16
X11723Y0275
Y02915
Y03081
Y03246
X1194
Y03081
Y02915
Y0275
T17
X11644Y06901
T18
X12335Y00845
Y01155
Y01495
Y01805
T19
X12297Y06482
Y06678
T20
X12176Y04417
Y04583
T21
X07502Y07352
X04998
T22
X12081Y0555
Y0605
T23
X00344Y00444
X12156
X0625Y01428
X01762Y01783
X01526Y03515
X05699Y02885
X10069Y02176
X11289Y03633
X0373Y05365
X09518Y05483
X00344Y07058
M30
