M48
;Layer_Color=9474304
;FILE_FORMAT=4:4
METRIC,LZ
;TYPE=PLATED
T4F00S00C0.5000
T5F00S00C0.6000
T12F00S00C1.0800
;TYPE=NON_PLATED
T21F00S00C3.4000
%
G90
G05
T04
G00X02249299Y021085
M15
G01Y021015
M16
G00X02249299Y021255
M15
G01Y021185
M16
G00X02333549Y021255
M15
G01Y021185
M16
G00X02333549Y021085
M15
G01Y021015
M16
T05
G00X02255549Y02091
M15
G01Y02087
M16
G00X02327549Y02091
M15
G01Y02087
M16
T12
G00X01691466Y01957692
M15
G01Y01957692
M16
G00X01691466Y02057692
M15
G01Y02057692
M16
T21
G00X030257Y0148396
M15
G01Y0148396
M16
G00X030257Y0159826
M15
G01Y0159826
M16
M17
M30
