M48
;Layer_Color=9474304
;FILE_FORMAT=4:4
METRIC,LZ
;TYPE=PLATED
T1F00S00C0.2032
T2F00S00C0.2540
T3F00S00C0.5000
T6F00S00C0.7620
T7F00S00C0.8000
T8F00S00C0.8900
T9F00S00C0.9000
T10F00S00C1.0000
T11F00S00C1.0300
T13F00S00C1.0922
T14F00S00C1.5700
T15F00S00C1.6002
T16F00S00C1.7000
T17F00S00C1.8000
T18F00S00C3.1000
T19F00S00C4.1656
;TYPE=NON_PLATED
T20F00S00C3.2000
%
T01
X02689534Y01719503
Y0176305
X02733962
X027565Y0176002
Y0175111
X027625Y01766309
Y0177532
Y0173147
Y0172256
X027565Y0171677
Y0170746
X02733962Y01719503
T02
X00012Y0030899
Y0038507
X00060108Y00265
X00136188
X00212268
X00288348
X0036668Y00300475
X00358911Y00331996
X00370747Y00355399
X00352323Y00378953
X0035197Y00388484
X0047845
Y0037875
X00496177Y00355399
X00484341Y00331996
X0049325Y00300475
X0054405Y0030149
X0058399Y00265
X00622641Y00300475
X00614381Y00331996
X00626217Y00355399
X0060791Y00388488
X0073509Y00388489
X00753751Y00355399
X00741916Y00331996
X00749722Y00300475
X00673441Y0030149
X00706448Y00265
X00450751
X0041748Y0030149
X00800521
X0083366Y00265
X00876752Y00300475
X00869101Y00331996
X00880937Y00355399
X0086205Y00388493
X0098999Y00388489
X0100851Y00355399
X00996675Y00331996
X01004732Y00300475
X01055532Y0030149
X0108937Y00265
X01130386Y00300475
X01121671Y00331996
X01133507Y00355399
X011156Y00388493
X01181186Y0030149
X00964366Y00265
X00927552Y0030149
X0121467Y00265
X01258955Y00300475
X01251462Y00331996
X01263297Y00355399
X0124448Y00388493
X01309755Y0030149
X01352058Y00265
X01428137
X01504217
X01580297
X01548379Y00311488
X01473653Y00365255
X01706944Y00387126
X01699654Y00292351
X01732457Y00265
X01656377
X01808537
X01884617
X01960697
X01973951Y0029326
X01925655Y00378924
X01872798Y00346115
X02036777Y00265
X02112857
X02110648Y0029873
X02188937Y00265
X02265017
X02341097
X02348491Y003278
X02232759Y00325155
X02385Y00311164
Y00387243
X02643783Y00355309
X02644463Y0034565
X02666301Y00336363
X02675499Y00355159
X0270671Y0035377
Y00345536
X02693896Y00335895
X02845485Y00353356
X02860772
X02857807Y00377778
X02844756Y00377583
X02829468
X02873094Y00377778
X02880714Y0032717
X02901599
X02924157
X02858232Y00326944
X02992Y0033356
X02992262Y00265
X03068342
X03125Y00298095
Y00374175
Y00450255
Y00526335
Y00602415
Y00678495
Y00754575
X03057259Y0076792
Y00788337
X0299052Y00788331
Y00767919
X02956784Y00759597
X02889936Y00739909
X02859305Y00742412
Y00753207
Y00730478
X02838095
X02858765Y00706359
X02906298
X0288533Y00632972
X0285002Y00633836
X02832905Y0060935
X0281989Y00595841
X02873217Y0060578
X0290538Y00575168
X0289238Y00549478
X0289888Y00541188
X02911502Y0052
X02914018Y0048988
X02931364Y0043708
X0292488Y00429051
X02882878Y00427513
X02883853Y0041783
X0287528Y00436673
X0287063Y00447675
X0283173Y00443865
X0283843Y00436123
X0284843Y0042548
X02820988Y0045562
X02835422Y0052
X02944328Y00597054
X02929521Y00613391
X02992Y00485721
Y00409641
X02859305Y00783306
X02758159Y00685156
X02748725Y00673144
X02739313Y00650411
X02712533Y00658456
X02701538Y00669341
X02678303Y0069652
X0266662Y00702818
X026525Y00691515
Y006825
Y00674116
X02634143Y0068152
X0263633Y0062345
X0267459
X026625Y0059217
X0261933Y00594564
X026088Y0058393
X02583563Y00580843
X02574216Y005894
X0256518
X0255248Y00577314
X0253978Y00577066
X0252708Y00578418
X02518669Y0056513
X02531102Y0052
X02520684Y0046913
X02527479Y0045629
X0255858Y00452409
X0256518Y00445205
X0257391Y0044517
X0258138Y00452409
X02582139Y00423435
X02566851
X02565852Y00400899
X0258114
X02600539Y0042242
X02615827
X0262638Y0042298
X0262003Y00430975
X02609287Y0044273
X0263633Y0041298
X0267203Y0041548
X0267213Y0040463
X02663008Y00425533
X0266013Y0043488
X02721515Y0042548
X02713484Y0041548
X02701902Y0047718
X02683262Y0052
X02687329Y00529368
X02680972Y00537718
X0269358Y00562287
X02759342Y0052
X02607182
X0258918Y00649028
X0258Y006575
X02551274Y0066901
X0258231Y00712003
X0259252Y0072107
X0240807Y00762446
Y00773676
X023926Y00762446
Y00752446
Y00785446
X02442968Y00544547
X02455022Y0052
X02385Y00463324
X02328448Y00461852
X02275593Y00431779
X02307999Y00529464
X02168885Y0057417
Y0045655
X02108826Y0039715
X0209586Y00511246
X02036239Y00548395
X02016695Y0057417
Y0045655
X02039496Y00674585
Y00792205
X02118661Y00729281
X02191686Y00792205
X02319686Y00786793
X02334499Y0078607
X02346057Y00785707
Y00773937
Y00762707
Y00752707
X02361127Y00752595
Y00762595
Y00773825
Y00785595
X0237707Y00785446
Y00773676
Y00762446
Y00752446
X02334499Y00761864
X02333776Y00773425
X02297116Y00750736
X02296013Y00733944
X02308398Y0073477
X0194041Y0070648
X0193111Y00688196
X01864667
X01867385Y00643556
X01876461Y0075106
X0189555
Y00733977
Y0076956
Y007912
X0187293
Y0076956
X0184951
Y007912
X0165811Y0079285
X016086
Y0063242
Y0059293
X0165811
X0169426
Y0063242
X0165811
X01633129Y00433602
X01855824Y00484512
X01865914Y00484481
Y00495416
X01855824Y00495682
X01917836Y00502527
X01936814Y00511874
Y00520414
X0194041Y0058886
X01531786Y00622013
X0151373
X01495509
X01479063
Y00640903
X01495509
X0151373
X01531786
Y00659793
X0151373
X01495509
X01479063
Y00678683
X01495509
X0151373
X01531786
Y00697573
X0151373
X01495509
X01479063
X01458728
Y00678683
Y00659793
Y00640903
Y00622013
X0144045Y0059589
X0142658
X01415201Y0065958
X01369942Y00662008
X01368809Y00649717
Y00629621
X01356029Y00629817
X01344159
Y00649717
X01336068Y00682999
X0131118Y0059433
Y0057283
X0130587Y0055635
Y005433
X01277605Y005363
X01268962Y00544275
X01256096Y00544272
X0124814Y005363
X01258713Y00525247
Y00517373
X01266587
Y00525247
X01270843Y00497381
X01257367Y00497379
X01251647Y00479808
X01275165Y0048764
X01278276Y00450236
X01280788Y00430417
X01269238
Y0041744
X01280788
X01292452Y00441196
X01303575Y00441909
X01302584Y0046741
X01314406
X01335712Y00472774
X01333467Y00403617
X01316112Y00403834
X0124448Y00397465
X01229572Y0041939
X01238891Y00432848
X0122625Y0044434
Y00465826
X012266Y00489
Y0049936
X0121135Y0048615
X0119851Y00481423
X0120237Y0040429
X0125664Y00560257
X01269105
X01237824Y00598368
X0123776Y00750017
X01213891Y0076246
X0121442Y00736524
X01205829Y0074158
X0141542Y00748531
Y0073215
X01425273Y00719569
X01460868Y00746029
Y00756029
X01470868
Y00746029
X01485413Y0075353
X0149446Y00718318
X01508231Y0072761
X01534153Y00743253
X01546023
X01558803Y00743057
Y00763153
X01546023
X01534153
X0143706Y00779875
X0142372Y00783568
X01415508Y00791
X01519217Y00427223
X0118433Y0040429
X01151877Y0041744
X01140327
Y00430417
X01151877
X01149199Y0044966
X01164748Y00441427
X0117427
X0117447Y00471449
X0118597Y00471585
X01144955Y0048811
X01140835Y00496786
X0112842Y0049641
X0112296Y0047978
X0109821Y0049086
X01097751Y005009
X01094812Y0046591
X01093408Y00446676
X01109124Y0043008
X0109911Y00418562
X011156Y00397459
X0107391Y0040558
X0105587
X01026268Y0041744
X01014718
Y00430417
X01026268
X01039138Y00441427
X01048319Y00444104
X01050442Y0047322
X0103855
X01028345Y00457569
X01019276Y0048789
X01014549Y00497177
X01002898Y0049682
X00998762Y0047968
X0097207Y0048888
X0097196Y0049888
X0096941Y0046669
X00968095Y0044792
X00976362Y00424096
X00986622Y00432984
X0098999Y00397461
X0094477Y0040411
X00926858
X00898328Y0041744
X00886778
Y00430417
X00898328
X0089565Y0044966
X00909646Y00441802
X00920011Y00443851
X0092108Y0047222
X0090904
X00892315Y00487961
X0088476Y0049793
X00874975
X00876343Y00517373
Y00525247
X00884217
Y00517373
X0088478Y005443
X00874915
X0087405Y00560257
X00886292
X00894791Y005363
X0086555
X0084321Y0049616
Y00488676
X0084008Y0046607
Y0044647
X00840597Y00417811
X00856766Y00428967
X0086205Y00397465
X008151Y0040508
X00797049
X00794791Y00443655
X0079677Y00470774
X008153Y00472417
X0082282Y0047968
X008718Y00479492
X0095071Y0047968
X00944235Y00472147
X00926662Y00545532
Y00557313
X00930864Y00573902
X00929882Y00595472
X00985404Y0059985
X0100183Y00560257
X01014072
X0101256Y005443
X01002695
X0099333Y005363
X01004123Y00525247
Y00517373
X01011997
Y00525247
X01022571Y005363
X01054092Y00545532
Y00557313
X01057312Y00573963
Y00595472
X01111191Y0059985
X0112751Y00560257
X01139752
X0113824Y005443
X01128375
X0111901Y005363
X01129803Y00525247
Y00517373
X01137677
Y00525247
X01148251Y005363
X0117707Y005445
Y005562
X0118216Y0057366
Y0059516
X01148344Y00694409
X0113396Y00694552
X0112686Y00723282
X01144687Y00735242
X01160726Y00742359
X0116443Y0077038
Y00781129
X01175291Y007811
Y0077038
X01139336Y00778748
X0111974Y0075152
X0109536Y00757562
Y00768059
X01075977Y00767049
Y00759175
X01068103
Y00767049
X0104847Y00767612
Y00757747
X01036665Y0076319
X01058046Y00748603
Y00778066
X01003911Y00754697
X00995Y00736987
Y00719711
X0101863Y00691488
X01065304Y0069302
X00917778Y00696522
X00904738Y00697198
X0089553Y0069072
X00877283
X00883542Y00698351
X00857946Y0069858
X00838355
X008386Y00688039
X00820569Y00687916
X0081989Y0069858
X0080177
X00801393Y00687916
X0080597Y00768
X0081457
X0082511
X0083361
X008434
X00852
X0086179
X0087039
X0088018
X0088878
X00897545Y0076112
X00909363Y00777498
X00917853
X00892115Y00788973
X00876131Y0078863
X0085698
X00838504
X00819856
X0080117
X0079618Y00768
X0080089Y0057614
X0079767Y0055949
Y0054771
X00858297Y0059985
X01076222Y00479662
X010747Y00469676
X0078492Y00470991
X0078331Y00443506
X00768639Y00449869
X00771368Y00430417
X00759818
Y0041744
X00771368
X0073509Y00397461
X00729629Y00432904
X0071423Y0044648
Y0046608
X0071682Y004889
Y004967
X00747745Y0049659
X0075753
X00763761Y00488117
X00743145Y00479811
X00749113Y00517373
Y00525247
X00756987
Y00517373
X0075755Y005443
X00747685
X0074682Y00560257
X00759062
X00767561Y005363
X0073832
X00727454Y00599846
X00673532Y0059443
Y0057293
X00672112Y0055642
Y0054492
X00640521Y005363
X00630721Y005443
X00620875
X0061978Y00560257
X00632021
X00629947Y00525247
X00622073
Y00517373
X00629947
X00630907Y0049659
X00620935Y00496554
X00614944Y00479811
X0063895Y0048789
X006568Y0046848
X006683Y00468293
X0068376Y00479492
X006957Y0047968
X00665823Y00443438
X00655971Y0044196
X00644328Y00430417
X00632778
Y0041744
X00644328
X00641657Y00451207
X00601792Y00428756
X00604824Y00418057
X0060791Y00397816
X0055599Y00408405
X0053804Y0040834
X00514928Y0041744
X00503378
Y00430417
X00514928
X0051225Y00450503
X00526517Y0044196
X00536994Y004451
X0053732Y00470228
X0052566Y00469846
X0050962Y00488107
X00501381Y0049793
X00491535
X00492673Y00517373
Y00525247
X00500547
Y00517373
X00501321Y005443
X00491475
X0049038Y00560257
X00502621
X00511121Y005363
X0048188
X00460211Y0049678
X0045666Y0048864
X00456852Y004657
X00453857Y004442
X00480055Y00433023
X00491821Y00399587
X00432086Y00412839
X0040234Y00401195
X00399649Y00441955
X0040876Y0047031
X00426727Y00472881
X0043598Y0047968
X00487146Y00479735
X0055303Y00483088
X0056538Y0047968
X005804Y004657
Y004442
X0058885Y00488101
Y004967
X0061128Y005363
X00601971Y0059451
X0054381Y0059443
Y0057293
X0054239Y0055642
Y0054492
X00418832Y00544814
X0041876Y00556266
X00427288Y0057293
X004266Y0059443
X00465446Y00594511
X0053412Y00738144
Y00763544
Y00788944
X005983Y0076999
Y007468
X0063547
Y0076999
X0067601
Y007468
X0070743Y00762401
X007508Y00768
X007594
X0076919
X0077779
X0078758
X00783237Y0078863
X00764214
X00744264
X00737767Y0069858
X00747832Y0069061
X00763629
X00756755Y0069858
X00781753
X00781824Y00687916
X00710936Y00421727
X0068535Y0040325
X0066731Y00403012
X00388248Y0041744
X00376698
Y00430417
X00388248
X00385382Y00450499
X0039671Y0047031
X00382263Y00488145
X00374699Y0049793
X00364853
X00365991Y00517373
Y00525247
X00373865
Y00517373
X00374639Y005443
X00364793
X003638Y00560257
X0037587
X00384439Y005363
X00355466
X00298475Y00535928
X00290215Y0052021
X00261082
X00241745Y0050437
X00225365
X00201346
X00184627
X00184915Y00547344
X00201385Y00547894
X00225365
X00241745Y00547344
X0026099Y0056373
X00290215
X00298475Y00579284
X00290215Y006065
X00298475Y00623084
X00290247Y006523
X00298475Y00668634
X00300294Y00685019
X00290215Y0070294
X00298475Y00719044
X00290351Y00754286
X00298475Y00769334
X00261006Y00753667
X00241745Y00738174
X00225365Y00738724
X00201385Y0073633
X0018487
X00184915Y00785464
X00201385Y00786014
X00225365
X00241745Y00785464
Y0068679
X0022517
X00201385Y0068669
X0018493
X0018484Y00636779
X00201388Y00636629
X00225453Y0063696
X00241791
X00261058Y006523
X00261295Y006065
X00241745Y00591404
X00225365Y00591954
X00201385
X00184915Y00591404
X0011476Y00598571
X00090471Y00599972
X00093474Y00608752
X00079388Y00622465
Y00633465
X00068388
Y00622465
X00052915Y00607886
X00057386Y00600073
X00045666Y0057272
X00023887Y0058932
X00012Y0061331
X00045198Y0064047
X0003773Y0067851
Y00690408
X00012Y0068939
Y0076547
X00109468Y0075621
X0011711Y0077271
X00107956Y00689587
X0012262Y00679811
X00102786Y0057272
X00012Y0053723
Y00461149
X0018496Y0045639
X00201385
X00225365Y00458724
X00241745Y00458174
X00261043Y00473079
X00290408Y00471751
X00298475Y00489384
X00312963Y00479612
X00314741Y0046381
X00314825Y004423
X00298475Y00444838
X00290259Y00426472
X00261247Y00429328
X0024179Y00412926
X00225332Y00413076
X00201215Y00412387
X0018479Y00412384
X0034332Y00399588
X00354811Y00432721
X00360242Y00479642
X0032509Y00489651
Y0049952
X00360237Y0058944
X00261251Y0070294
X0026108Y007991
X00290215
X00298475Y00816234
X00294331Y0086225
X0031582Y00920602
X00327725
Y00933378
Y00943738
X0031582
Y00933378
X0036417Y00931441
X00286781Y0095627
X00203654
X0020408Y01014452
Y01080238
Y01150728
X0012774
X0007327
X00012Y0114587
Y0106979
X0007327Y01080238
X0012774
Y01014452
X0007327
Y00956274
X0012774Y0095627
Y0089979
X0007327
X0007346Y0085625
Y0084172
X000883Y0085625
X00103637
X00116422
X00136352Y00850699
X0011711Y0079421
X0020114Y0086225
X00012Y0084155
Y0091763
Y0099371
X0027602Y010652
X0033965Y0106517
X00339921Y01012905
X00417261Y01018053
X00418906Y01029286
X00418763Y01037516
X00438972Y01030106
X0049713Y01038494
Y01048592
X00537052Y01107039
X00515646Y0113562
X0050332Y01189284
X0058355Y0117422
X00579963Y01164905
X00588Y0115864
X0059634Y01157413
X00605426Y01164905
X0060987Y0117284
X00596597Y01184326
X0063288Y01187925
X0064371
X0065476
X00658426Y01162861
X00667026Y01164719
X00670957Y0117141
X00695457Y0116462
X00712628
X00712589Y01172342
X0073359Y0116462
X00733684Y01124282
X00745084Y011353
X00754783Y01106236
X0075532Y01095009
X00720143Y01100683
X00709292Y01087377
X00690069Y01086886
X00689945Y0109525
X00678614Y0111318
X00680428Y01133897
X00695119Y0113062
X00713064Y01128506
X00633697Y0111318
X00627578Y01116824
X00615537Y01116709
X00597628Y0110686
X00595899Y01085381
X00597819Y01130747
X00586309
X0063229Y01159762
X00639678Y01161596
X006499Y01075675
X00660993
X00690433Y01040455
X0066628Y01006009
X0066021Y00958668
X006838Y00951873
X0070336Y0095049
X0072086
X0073836
X007407Y00906285
X00750551Y00911398
X00750594Y00900968
X007616Y00890295
X0078443Y0089307
Y0090688
X00774641Y00924261
X00757753Y00922077
X00764166Y00915228
X00729249Y00911579
X0069975Y00892921
X00723896Y00861084
X0071396Y0084987
Y0084127
X0073887
Y0085049
X00737097Y00830516
X00763761Y00829938
X00766063Y00838608
X00784914Y00846089
X0078443Y0086006
Y0086907
X00764207Y0086684
X00754095Y00866494
X00649111Y00870958
X00615396Y00884238
X00610025Y00847134
X0059409Y00861807
X00558162Y0082155
X0056834Y00808114
X0053412Y00814344
Y00839744
X00454155Y00882892
X00408706Y00883086
X00416337Y00897587
X00446226Y00924987
X00434338Y00938119
X00418255Y0097945
X00409202Y0084635
X0070706Y00988505
X007508Y0098789
X007762
X008016
X00827
X008524
X008778
X009032Y00988347
X00907538Y00967486
X009286Y0098789
X00954
X0094887Y00939985
X00948762Y009076
X00959294Y0090361
X00949164Y00890304
X009489Y00870133
X00936901Y00874546
X00897092Y00874541
X00900161Y00860529
X00883067Y00857099
X00873598Y00859029
X00853461Y0085307
X0085282Y00869678
X00840522Y00870073
X00829522
X00818522
X00807522
X00796522
Y00859073
X00807522
X00818522
X00829522
X00840522
Y00881073
X00829522
X00818522
X00807522
X00796522
Y00892073
Y00903073
X00807522
Y00892073
X00818522
Y00903073
X00829522
Y00892073
X00840522
Y00903073
X0085282Y00898314
Y00883741
X0085297Y00916662
X00834328Y0091652
X0079852
X00804567Y0093951
X0080984Y00953906
X00828179Y00954423
X00850551Y00962221
X0085859Y0095358
Y0094508
X00868141Y00936502
X00875031Y00929131
X00895014Y00933368
X00896948Y00905254
X00901643Y00898663
X0089475Y0089214
X00882972Y00905359
X00872514Y00899128
X00860825Y0083732
X0087649Y00821058
X0091336Y00820841
X0093593Y0081985
X0090213Y0083426
X00959355Y00850442
X0098899Y0082278
X0102741
X0106582
X0110424
X0111762Y0079992
X0114265Y00822816
X0118264Y00823461
Y00857092
Y0088273
X01171526Y00888085
X0114576Y00906661
X01121449Y01014858
X01096736Y01030344
X01091227Y00989064
X0116784Y01132087
X00981333Y01128935
X00969433
Y01141715
Y01152073
X00981333
Y01141715
X00931034Y0114054
X0087526Y0113155
X00861092
X008524Y01124513
X00872528Y01157007
X0088136Y01171724
X0088086Y01185181
X00883608Y01090021
X00890759Y01082563
X0093485Y0092012
X01246572Y00970529
X01233127Y00989978
X0122562Y0099845
Y0100996
X01225053Y01021458
X0122562Y0103296
Y0104446
Y01059144
Y01069159
Y01080659
Y01093615
X01215822Y0108707
X0121544Y01074914
X0121579Y01051282
X01215211Y0102692
X01282132Y00997827
X0128449Y0093952
X0129599
X013076
X0131981
X0133171
X0134332
X0135482
X0136632
X0137782
X0138933
X01396151Y00946075
X01403185Y0093952
X01371602Y00929416
X01360102
X01348602
X01337489Y00929417
X01325092Y00929416
X01312882
X01301272
X01289772
X0136917Y008501
X0137634Y0082843
Y0081656
Y0080378
X01356243
X0135644Y0081656
Y0082843
X01415161Y00872553
X0142372Y00880103
X01469205Y00887103
X01460532Y00895874
X01461415Y0084136
X01499894Y00842635
Y00852994
X01511794
Y00842635
Y00829855
X01499894
X01516719Y00794719
X0156981Y0083382
Y0087874
Y0092465
Y0095981
X01528974Y0092465
X0143674Y00952258
X01464689Y00985931
X01475804Y01029038
X0149329Y0105433
X015043
X0151438
X0148409Y0107278
X0147199Y0107329
X0146049Y0107285
X01431952Y0106682
X01406156Y01145176
X01391156Y0114498
X01381156Y01145101
X01386156Y01138534
X01385192Y01176786
X01396927Y0117683
X0140442Y0118239
X0141132Y0117447
X0139132Y0118652
X01379086Y01188269
X0135632Y01171908
X0131162Y0114356
X01301844Y0113182
X01300156Y01101819
X01306201Y01093995
X0130142Y01086819
X0127422Y0113924
X0124756Y01137268
X01232171Y01126801
X0123207Y0110785
X0137632Y01015373
X016086Y0100664
Y0095981
Y0092465
Y0087874
Y0083382
X0165811
Y0087874
Y0092465
Y0095981
Y0100664
Y0103888
X01630358
X0165811Y0107915
X01765906Y01089642
X0188805Y01147283
X01959506Y01137066
X01980162Y01137061
X0198026Y01063891
X01980394Y01053927
Y01043927
X01964924
Y01053927
X0196479Y01063891
X0194926
X01949394Y01053927
Y01043927
X0195431Y00990968
X01946561Y00914903
X01934766Y00797267
X0189555Y008088
Y00825942
X0187293Y00826401
Y008088
X0184951
X0182384
X01861741Y00851964
X01782576Y00914887
X0198438Y0098432
X0202215
X02026924Y01043927
Y01053927
X0202679Y01063891
X0204226
X02042394Y01053927
Y01043927
X02011394
Y01053927
X0201126Y01063891
X0199579
X01995924Y01053927
Y01043927
X01992096Y01092481
X01997665Y01137061
X02015167
X02123502Y0114271
X02131715Y0113147
X02354031Y01130776
Y01120776
X02369561
Y01153775
Y01163775
X02354031
Y01153775
Y01142005
X02345Y0118
X02355Y01190031
X02339523Y01079037
X02346646Y01056983
X0235965Y01065717
X0232652Y01044203
X02349486Y00996678
Y00986678
Y00974909
Y00963679
Y00953679
X02365007Y00954092
Y00964092
Y00975322
Y00987092
Y00997092
X02380537
Y00987092
Y00964092
Y00954092
X02368633Y0084982
X02330651
X02310525Y0083704
X02301795Y0081184
X02301245Y00793949
X0237707Y00795446
X023926
X0238876Y008365
X02396007Y00954092
Y00964092
Y00975322
Y00987092
Y00997092
X02404755Y01043663
X02397632Y01065717
X02384628Y01056983
X02417758Y01078497
X02420521Y01116727
Y01126727
Y01137957
Y01149727
Y01159727
X02400132Y01164235
Y01154235
Y01142465
Y01131235
Y01121235
X02385031Y01120776
Y01130776
Y01142005
Y01153775
Y01163775
X02605727Y01077393
X02615229Y01068928
X02624601Y01077473
X0262679Y0088231
X0262598Y00873833
Y00864296
X02609009Y00872194
X02568402Y00868587
X02559902Y00861018
X0255922Y00852768
X02568402Y00845268
X0258191Y00918
X0259Y0091059
X02640907Y00893608
X0265259Y0088731
X02676138Y00863083
X02685565Y00853576
X02712666Y0084412
X02722226Y0086918
X02730453Y00878676
X02824619Y00925654
X02844762Y00926049
X0284384Y00908027
X0287942Y00909783
Y0093543
X0291519Y0093543
Y00974214
X0287942Y0097421
Y0100818
Y0103843
X02878464Y01071331
X0287942Y01104714
X02881353Y01121953
X02880773Y01145817
X02904922Y01131122
Y01173122
X02840118Y01170134
X02841149Y01150025
X02841791Y01130301
X02815884Y01150928
X02814853Y01170005
X02817686Y01098333
X0284384Y01071936
Y0103843
Y0100818
X0280921
Y0103843
X02904922Y01047122
Y01089121
X0291519Y01014391
X0296272
Y00974214
Y0093543
Y00893857
Y00847541
X0299052Y00829157
Y0080874
X03057259Y00808746
Y00829159
X03125Y00830655
Y00906735
Y00982815
Y01058895
Y01134975
X0291519Y00893857
Y00847541
X02859055Y00806548
X02859305Y00795117
X02838095Y00806548
X0287291Y0119204
X02873105Y01224837
X02872237Y01264144
X02863044Y01292918
X0283743Y0129134
Y01303274
Y01314069
Y01344168
Y01355979
X0283718Y0136741
X0281622
Y0129134
X02881563Y0133583
X02910153Y01314054
X0291519Y01264144
X02916057Y01224837
X02915862Y0119204
X02963395
X0296359Y01224837
X0296272Y01264144
X02948649Y0134133
X02945Y01393818
X02903469Y01374453
X0287022Y01457712
X0288022Y01470412
X02877844Y01493747
X02870224
X02862604
X02852527Y01479323
X0287522Y01515959
X0286522Y01528961
X02871504Y01550379
X02880953Y01567892
X0288096Y0157797
X02945Y01469898
X0300504Y014461
X0310231
Y01552726
X03023658Y0154776
X0305293Y01513441
X03019297Y01345
X03095377
X03125Y01287135
Y01211055
X02743199Y01228063
X0273189Y01266317
X02682184Y0124152
X02691631Y01231488
X02658348Y01268172
X02633539Y01263054
X0263273Y0125479
X0261442Y01253321
X02590927Y01288
X025825Y01280922
X0257121Y01224616
X02561762Y01233401
X02534363Y0124487
X02503922Y0121935
X02473919Y012315
X0246471Y0123935
X0244896Y01234225
X02442675Y012269
X02422025Y01211475
X024025Y01211624
Y01220384
Y01201624
Y011925
X02390043Y01316366
Y01326366
Y01337596
Y01349366
Y01359366
X02400935Y01405069
X02641276Y01437197
X02758896
X027042Y01516362
X02357273Y01549303
X02342917Y01418203
X02322791Y01405423
X0232988Y01359307
X0234535
X02359043Y01359366
Y01349366
Y01337596
Y01326366
Y01316366
X02374573
Y01326366
Y01349366
Y01359366
X02380808Y01418388
X02344203Y01315223
X02328733
X02294065Y01199573
X02145312Y0120361
Y0132123
X02037322Y01335993
X01993122Y0132123
Y0120361
X02072287Y01258306
X02205083Y01431683
Y01549303
X021218Y0155631
X0205311
X01983226Y01557018
X0198324Y01547779
X01904263Y01587421
X01870969Y01445116
X01873634Y0132483
X01919702Y01335993
X01807506Y01336064
Y01218445
X01767249Y01197812
X01734481Y01273141
X01655316Y01218445
Y01336064
X01718779Y01445116
X0159877Y0158658
X0158821Y0157937
X01580095Y0158676
X01480152Y01585568
X01470205
X01459277
X01382611Y01586118
X01382785Y01576088
X0134682Y01554032
X01287197Y0154327
X01265852Y01543502
X01266266Y01525654
X01228474Y01522054
X0122458Y01515
X01236874Y01497616
X01234078Y01483573
Y01472572
Y01461573
Y01450573
Y01439572
X01223077
Y01450573
Y01461573
Y01472572
Y01483573
X01212077
Y01472572
Y01461573
Y01450573
Y01439572
X01201077
Y01450573
Y01461573
Y01472572
Y01483573
X0124605Y01478928
X01245975Y0146399
X01246291Y01439078
X01239723Y01427316
X01224745Y01427539
X01209656Y01427816
X01206743Y01391042
X0119999Y0138331
Y0137387
Y0136399
X01218268Y01354091
X01225818Y01345833
X01243353Y0133119
X01243069Y01287642
X012251Y01274828
X01221285Y0123843
X01231877
X01210153
X01201223Y01310054
X0119162Y01310053
X01193988Y01394206
X01226183Y01391125
X0124269Y01392139
X01262714Y0141675
X01271414
X01280088Y01412495
X01289528
X01299408
Y01423174
X01289528
X01280088
X01282217Y0143886
X01307766Y01438627
X01317206
X01327086
Y01449307
X01317206
X01307766
X0129328Y0146366
X0128365Y0146353
X01336411Y01461939
X01344669Y01469489
X01384446Y01473313
X01376896Y01481571
X01379466Y01427193
X01417463Y01427074
Y01416715
X01429363
Y01427074
Y01439854
X01417463
X0141835Y01548253
X01296341Y0158337
X0128801
X01253701Y0158376
X01247034Y01577709
X0119076Y01565403
X01202948Y01541581
X0127617Y01317854
X0134357Y01287801
X0134477Y01369842
X0135125Y01205896
X0115742Y01274571
X0111529Y0127449
X0110136Y01286729
Y013028
Y0132678
Y01343168
X01143205Y01332892
X01161317Y01347108
X0116967Y01356215
X0118931Y0136399
Y0137387
Y0138331
X01165029Y0138042
X01174722Y01408159
X01157692Y01425563
X0114261Y0142691
X01132045Y01427616
X01118315Y01427455
X01107169Y01427939
X0110695Y0141321
Y0140377
X0111941
Y0141321
X01094162
X01093567Y0140377
X01091134Y01393141
X01082876Y01385591
X01041647Y01379109
X01049197Y01370851
X01049704Y0142471
X01010323Y01425169
Y01435528
X00998423
Y01425169
Y01412389
X01010323
X01073682Y0146971
X01093135
X01132384Y0147378
X01141366
X01141228Y01491617
X0112702Y01494564
X01122071Y01504935
X01131356Y0151319
X01162773Y0151513
X01157851Y01500805
X01176907Y0148907
X01178132Y01473958
X01190078Y01472572
Y01483573
Y01461573
Y01450573
Y01439572
X01178446Y01454175
X01151923Y01455676
X0114261Y01440074
X01125422Y01439569
X01140414Y01397189
X0118235Y01309889
X0111529Y012444
X0109909Y0153374
X01059973Y01572735
X0102003Y01553027
X01020585Y01534072
X0094283Y01529645
X00932883
Y01539872
X0094283
X00921839
X00921955Y01529645
X00957491Y01572084
X00857057Y01486682
X00864686Y01474883
X0084205Y0146293
X00853149Y0143646
X0088335
X00868896Y01414003
X01185806Y01516709
X0118406Y01546593
Y01555256
X01178905Y0157989
X01153259Y0156299
X00730502Y01579693
X00615639Y01583436
Y01573784
Y01563936
X00600196Y01554876
X0059951Y01538582
X00614953Y01527232
Y01517581
Y0150793
Y01498081
X0059951Y01489021
X00627673Y01468213
X00649356Y01492273
X00603112Y0143789
X0055669
Y01392
X00513441
X0048488Y0144363
X00451587Y01448173
X0044605Y0146376
X00454849Y01474091
Y0148202
X00463239
Y01474091
X00471889
Y0148202
X00458079Y01502707
X0044605Y0149236
X00437002Y0152106
X0044605Y01530252
X0045501Y01540588
Y01548517
X004634
Y01540588
X0047205
Y01548517
X0044605Y01558852
X00448633Y01572756
X0042638Y01562627
X00417341Y01579553
X00405026Y01556564
X00404821Y01548989
X0040544Y015287
Y01520771
Y01512434
X0039705
Y01520771
Y015287
X0041409
Y01520771
Y01512434
X00404389Y01492356
X00427462Y01451578
X00427775Y0142845
X00415875
X0052509Y01468498
X00539638Y014804
X005325Y0152538
X00513641
X00525215Y01537267
X0053723Y0154756
X00492297Y01517792
X0048488Y01511071
X00486012Y01572245
X0048488Y0158037
X00482437Y0127102
X00500583
X00565442
X00576358
X0058777
X006006
X00619842Y01274327
X00631345
X00642875
X0065458
X00666352
X00678148
X00683694Y01282229
X00671898
X00660125
X0064842
X00636716Y01282302
X00625387Y01282229
X0063081Y012296
X00618374Y01222153
X0063288Y0120944
X0064371
Y0119848
X0063288
X0065476
Y0120944
X006748Y01195409
X00712617Y01191954
Y01203456
Y01214959
X00722213Y01213778
X00721749Y01230372
X00712617Y01226461
X00706851Y0123764
X00719711Y01197837
X00607192Y01192779
X00600505Y01232645
X00585858Y0124336
X00561416
X00554075Y01232995
Y01221493
Y0120999
Y01198488
X00542Y01203456
Y01216532
Y01227051
X00326664Y01229835
X00316257Y0122009
X00307325Y01211934
X00262329Y01203767
X00271497Y01194493
X00269487Y0125072
X00230815Y01252264
Y01262622
X00218915
Y01252264
Y01239484
X00230815
X00227423Y01343496
X00254392Y013576
X00254342Y0136623
X00273059Y01359
X0025433Y0139438
X0018305
X0017443Y01326366
X0012774Y01347753
X0007327Y01359504
Y01293137
Y01228695
X0012774Y01216944
Y01281387
X00012Y0129803
Y0137411
Y0145019
X00083173Y01449941
X00147615
X00213982
X00186073Y01504246
X00205105Y0153972
X00227397Y01522443
X00255872Y01504458
X00289701Y015218
X00290742Y01481597
X00316657Y01469307
X00389076Y0146718
X0039009Y0150142
Y0153946
X00375584Y0152544
X00366332Y01567631
Y01579531
X0030136Y01551886
X0028677Y0156392
X00264885Y01581057
X00138739Y0153972
X00150749Y01524798
X0012274Y01503901
X00087568Y01524511
X00074296Y0153972
X00012Y0152627
Y0122195
X0033684Y0126178
X00344328Y0126837
X00314488Y01301598
X00307337Y01309055
X00321373Y013673
X00331153
Y013774
X00321373
X00288512Y01589858
X00272944Y01590655
X00268396Y01607983
X00270487Y0163827
X00249062
X0022506
X00229342Y01622002
X00230532Y01657518
X00240112
X00254152
X00263732
X00276252
X00285832
X00299872
X00309452
X00320702
X00330282
X00344322Y01657618
X00353902Y01657518
X00366295Y01657518
X00375875
X00391092Y01657618
X00382763Y0163827
X00360533
X00336532
X00314463
X00293522
X00302441Y01621166
X00366685Y01603282
Y01591382
X00354899Y0170472
X00336746Y01717725
X00312849Y0170472
X00294696Y01717725
X00265599Y0170472
X00247446Y01717725
X00217962Y0170472
X00199806Y0171772
X00170671Y0170472
X00152519Y0171772
X00124889Y0170472
X00107032Y01718018
X00100468Y01657933
X00090888Y01658033
X00114003Y01658252
X00123583Y01658152
X00136732Y01657715
X00146312Y01657615
X00160352
X00169932Y01657515
X00185065Y01657715
X00194645Y01657615
X00208685
X00218265Y01657518
X00202992Y0163827
X00176574
X00152733
X00156908Y01622837
X00131148Y0163827
X00106248
X00092149Y01623836
X00128869Y01605813
X00196797Y01606147
X00012Y0160235
Y0167843
Y0175451
Y0183059
Y0190667
Y0198275
X0014799Y0197691
X00167595Y01969141
X00206222Y0197649
X00226444Y0197694
X00247943Y01968
X00289054Y01976529
X00303002Y0197788
X00326663Y01969618
X00366944Y01976557
X00385218Y0197613
X00396738Y0191635
X00289377Y01922092
X00304172Y01878795
X00314544Y01854205
X00289289Y01855819
X00336774Y0186255
X00233664Y01882312
X0022534Y01907034
X0020978Y01906326
X001474Y01862545
X0012517Y018542
X0009991Y01855814
X00114793Y0187879
X00099999Y01922088
X00383058Y0171772
X0040121Y01704715
X00400672Y01657518
X00422672Y01656955
X00432252Y0165685
X00446292
X00455872
X00479642
X00494882
X00504916Y01703142
X00485916Y01716142
X00457231Y0170472
X00439073Y0171772
X00437532Y0163827
X005221Y01590999
X00600196Y01604437
X00615639Y01593086
X00622854Y01654659
X00636904
X00638084Y01695782
X0062358Y01717602
X0057139Y01716682
X00585851Y01694933
X00585907Y01645172
X00571407
X00671936Y01612171
X00730502Y0161141
X0073262Y0165016
Y01660667
X00702441Y01701686
X00683437Y01714686
X00650233Y0177579
X00640247Y0178495
X00622224
X00612253Y0177588
X00598659Y0177554
X00588776Y0178495
X00568519
X00558388Y0177554
X00751398Y0177346
Y0175895
X00791798Y01732495
X00775817Y0186332
X00756172
X00765434Y01946341
X00740694Y01946597
X00719347Y019498
X00683624Y01948312
X0064558Y01946341
X0062084Y01946597
X0052655Y01976771
X00486078Y01967381
X0047185Y0197007
X0046028
X0044715Y0197647
X00408045Y01968446
X00419796Y01919177
X00432322Y0189417
X0049287Y01929839
X00805853Y01948515
X00842237Y019498
X00860096Y0191116
X00876213
X00895085
X008905Y01877801
X009085
X009265
X009445
X0096249
X0098049
X0099849
X01004532Y01846552
X0100149Y0176465
X00995653Y01756
X00989433Y01748
X00971433
X00977432Y01756
X0098349Y0176465
X0096549
X00959433Y01756
X00953436Y01748
X009355
X00941437Y01756
X0094749Y0176465
X009235Y01764405
X0091545Y0175757
X0089718Y0176599
X0087877
X00887261Y01754239
X00867609Y0175268
X008585Y01766921
X0083886Y0176599
Y0175268
X00817805Y0175882
X00817625Y0177346
X00826255Y0172865
X00844597Y01718885
X00801538Y01715357
X008323Y01681745
X00844101Y01669518
X00851728Y01675301
X00888348Y01715716
X00878714Y01732714
X00929669Y0173979
X009295Y01797544
X00897196Y0180063
X0087877Y0180596
X008585
X00840625Y01863115
X0107649Y01877801
X0110648Y0187654
X0113648Y01877801
X0116648Y0187654
X0118448Y01877801
X01175957Y0190005
X0116642Y0191119
X011064
X01115879Y0190005
X0112271Y0179556
X0110948Y01794623
X01089918Y0179572
X01077918
X0106149Y01795657
X0106301Y0176463
X0107949
X0109143Y01756
X0110348
X0109743Y01748
X0108543
X0111542
X0112742
X0113342Y01756
X0112142
X0115142
X0116342
X0115742Y01748
X0114542
X0113948Y0179556
X01157717Y01794852
X0116948
X0118392Y01795489
X01062229Y0173833
X01050097Y0172468
X01043756Y01713077
X0105252Y01700775
X01028316Y0170618
X01038349Y0174944
X01094926Y01608529
X00824833Y0161594
X0122885Y0163684
X0123812Y01644562
X0127425Y0163684
X0128578Y01645171
X01302093Y01627913
Y01617966
X0131232
Y01627913
Y01607038
X01302093Y01606922
X0134876Y0162163
X01359104Y01611779
X01372764Y01633616
X01382612Y01594932
X01407458Y0161098
X01418249Y0162163
X01459161Y01595795
X01470205
X01480152
X01524362Y01603772
X01524246Y01613999
X01535291
X01545237
Y01603772
X01535291
X01550506Y0163148
X01563111
X01574044
Y0164453
X01562829
X01550506
X0154496Y0165773
X0151892
X01494419Y01640956
X01578395Y01659484
X01584003Y01673587
X01587476Y0163148
X01566202Y01741302
X0157253Y01756299
X0155563Y01758425
X01544903Y0175004
X01528148
X0153647Y01758425
X0151822
X0150841Y01755885
X01501458Y01762137
X0149225
X0147701Y0175
X01467802
X01458913Y01755
X01449705
X01439354Y01749849
X01444823Y01742334
X014351Y01762167
X01425892
X0139146Y0176403
X0137946
X0136746
X0137346Y0175609
X0138546
X0135546
X01343957Y01755775
X0134946Y0176403
X0131123Y01763097
X0130147Y01765264
X01283638Y0176463
X01271413
X01276956Y01756
X01259412
X01265411Y01748
X01251846Y0176455
X01238748Y01755636
X01229473Y01761026
X01211416Y01756
X01217415Y01748
X01199416
X0119342Y01756
X0120548Y0179485
X0122347Y01796527
X0124147Y01794852
X01242253Y018363
X01252503
X0125425Y018455
X012645
X0127225Y018363
X012825
X012843Y018455
X0129455
X01314297
X01324547
X0133225Y018363
X013425
X013275Y018075
X0131725
X0131525Y0179675
X01305
X0129736Y01803
X01287382
X0133146Y01794498
X0136146Y01793981
X0142146Y01795101
X0146339Y0176476
X01518216Y0179675
X01536474Y0179649
X0155563
X01585979Y01860067
Y01909855
X01549082Y0190382
X01533916
X01516753
X0150845Y0188025
X0149645Y0188451
X0149045Y01877175
X0146045Y01877801
X0143646
X0138846
X0139446Y01892942
X01368359Y0190057
X01358351Y0191119
X0135846Y0187654
X0132846Y01877801
X0129847Y0187654
X0126847Y01877801
X0123847Y0187654
X0122047Y01877801
X0120248Y0187654
X0120241Y0191119
X01214037Y01900076
X01224447Y01904246
X01238686Y01915433
X0129824Y0191119
X01309872Y01900725
X0139446Y01940665
X01502401Y01848395
X01234577Y018455
X01224327
X01303085Y01729386
X01300951Y01710473
X0132359Y01721965
X0133197Y01734502
X0129298Y01681468
X01610813Y01711817
X01617138Y01726643
X01646538Y01726814
X01674877Y01768216
X01681205Y01785308
X01709547Y0178548
X01728944Y0175855
X01722443Y01743013
X01757415Y0175855
X01807614Y0175179
X01826028Y0175336
X01848518Y01754315
X0185731Y01768436
X0187266Y0177629
X0187929Y0178331
X01872103Y01789723
X01873Y0180257
X0187991Y0179729
X0186237Y01808082
X01854713Y01815437
X01848457Y0181901
X0184081Y0181574
X01832592Y0181901
X0182189
X0180799Y01803014
Y01795942
Y01788867
X01805327Y01777457
X01793996Y01791165
X0183281Y01792897
Y01781897
X0184381
Y01792897
X01875379Y01732307
X01885948Y01727889
X0191802Y01763156
X01929391Y01757613
X01974004Y01764336
X01984182Y01764437
X01960373Y01810477
X01950119Y01802186
X01940521Y0184726
X0197429Y01885356
X0191475Y01927164
X01928012Y01943409
X01900304Y0194322
X01878Y01958
X01867
X01856
X018451
X01834
X01823
X01812
X01801
X01806538Y0194011
X01790742Y0194364
X01763034Y0194345
X0177748Y01927394
X0182766Y0192234
X01833642Y01940113
X0185634Y0192234
X01869362Y01898
X0186738Y01879
X01846423Y01888763
X018198Y01898
X01806357Y01896678
X0179745Y0188783
X01797805Y0187939
X018198Y01879
X018451Y0198132
X01732256Y01967692
Y01947692
X0163868Y0195377
X01650677Y01967742
X01636393Y01816477
X01630065Y0179932
X0166579Y01816649
X01601927Y01756299
X01622721Y0162921
X0166087Y0162782
X01661619Y01618839
X0167277Y0162782
Y016406
X0166087
X01700669Y01654781
X01723019Y01627097
X0182663Y0164564
Y0165614
X01833223Y0168036
X01840719Y01681217
X01816209Y0168036
X01811072Y0172759
X01799115
X01872198Y0165507
X0187158Y0164497
X01871331Y01632621
X018724Y0161997
X018797Y0162614
X0187978Y0161358
X0187905Y0163952
X01916049Y0163562
Y0162462
X01927049
Y0163562
X01923513Y0165609
X0192313Y01666012
X0192882Y01672152
X01905424Y0166436
X01949348Y01648534
X0195475Y0163932
X0195085Y0162576
X0196063Y0161828
X0194772Y0161048
X01940451Y0158963
X01931819Y0159366
X01923581Y0158963
X01910719Y01593493
X01918037Y01602431
X0197039Y0163262
X0200272Y0165736
X02003094Y01596134
X0203587Y0161219
X0204601Y0161901
X0203896Y0162668
X0204425Y0163511
X0208025Y0163589
Y0162489
X0209125
Y0163589
X02087271Y01655684
X02087672Y01664934
X0209475Y016732
X02070446Y01664257
X0205862Y0166585
X0207916Y01698434
X02112687Y01649104
X02125917Y01644681
X0213263Y0163565
X0212577Y0162514
X0213357Y0161464
X0212577Y0160414
X0210739Y0158931
X0209888Y0159366
X02090214Y0158931
X02075623Y0159366
X02066747Y0158931
X02082489Y01603224
X0217363Y0160647
Y0164476
X02126622Y01758553
X02127254Y01828373
X02149707Y01834987
X02091105Y01801812
X02081951Y0181008
X02053897Y0182208
X02023858Y0186331
X02011614
X02010427Y0188037
X0199976Y01889707
X02009003Y01910743
X0200274Y01983851
X01999699Y0180183
X019908Y01809937
X01987466Y01786074
X02009003Y01758553
X02230325Y0179988
X02238502Y01811147
X02258195Y017998
X02260928Y01788836
X02263566Y0182198
X0228238Y018245
Y018355
X0229338
X0230438
Y018245
X0229338
Y018135
X0230438
X0230588Y01795909
X0229762Y0178253
Y01768666
X0230763Y01760578
X02317632Y0178253
X02340301Y01787765
X02332939Y01797274
X02321971Y01807
X02323778Y01826688
X02324649Y01844554
X02340236Y01841828
X02348835Y01843615
X02359034Y0183504
X02369836Y01825477
X02347464Y01766512
X0233944Y01755408
X0228238Y018135
X02299301Y01857
X02308301
X02310406Y0186469
X02295271
X0231847Y01873798
X02285516Y01910294
X02285181Y01925836
X02285049Y01952072
X02239605Y01957625
Y019379
X022053
X02188402Y01936024
X022053Y0195762
X02215531Y01976791
X02243098Y0185686
X0238997Y0181614
X02425946Y01810177
Y0182368
X02474502Y01819877
X02499776Y01899911
X02450644Y01918508
X02588248Y01904805
X02587582Y01866615
X02642158Y01866755
X02679801Y01876315
X02687235Y01883605
X02687108Y01892105
X02679869Y01899861
X02669378Y01904755
X0276284Y01905102
X02761687Y01918715
X02771971Y0192856
X02776328Y0188906
X0272142Y01860529
Y01631337
X02758896Y01589387
X02641276
X02592122Y01667687
X02474502
X0257234Y01965417
X02808123Y01924937
X02817605Y01932937
X0280432Y01901016
X02839218Y01876979
X02849123Y01862599
X0285809Y01854519
X02887348Y01862829
X02895672Y01854519
X02925341Y01862988
X02933998Y01854519
X02963003Y01862829
X02972068Y01854519
X02986Y01843768
X02953264Y01876979
X02914763Y01876979
X02876991
X02797752Y01808875
X02786797Y01798355
X02778899Y01672556
X02793571Y01660638
X02871589Y01596086
X02945Y01622058
X02967797Y01690578
X0305293Y01687046
Y01638763
X0310231Y01629983
Y01724432
Y01845264
Y01962728
X03048065Y0191634
X02986Y01919848
Y01767688
Y0205152
X02971641Y02117267
X02919804Y0209845
X02862026Y02113922
X02805815Y0209845
X02842886Y0205152
X0303065Y0209845
X03080178Y02118496
X02756545Y02113456
X02766807Y0205152
X02690727
X02692288Y0209845
X02634571Y02114613
X02579544Y0209845
X02529524Y02116921
X0247635Y0209845
X02474835Y02053136
X02484855
Y02041786
X02474835
X02464365Y02041891
X02454165
X02443895Y02041786
X02433895Y02041891
Y02053136
X02443895
X02454165
X02464365
X02420811Y02035536
X02422412Y0200524
X02409395Y02012286
X02399895
X02386407Y01999
X02434126Y01993786
X02426402Y02114997
X02538566Y0205152
X02614647
X0257234Y01986101
X02338922Y02021185
X02338751Y02034052
X02278078Y02068848
X02235511Y0205152
X02159876
X02104335Y02052156
X02054101Y0212206
X02161285Y02115767
X02196685Y0209845
X02215531Y01989998
X0200274Y01996374
X02379972Y0209845
X01978021Y0212206
X01901941
X01825861
X01749781
X01732256Y02067692
Y02047692
Y02027692
Y02007692
Y01987692
X0177748Y02010394
X01790742Y0202664
X01763034Y0202645
X01650677Y02027692
Y02007692
Y01987692
X0162022Y01992081
X01610485Y01989798
X0161072Y02018639
X0162972Y02015284
Y02042351
X0162022Y02043462
X01592227Y02044198
Y02027678
Y0201231
X0164165Y02089851
X01637692Y0212206
X01900534Y0202645
X01928242Y0202664
X0191498Y02010394
X01970004Y02018022
X01980206Y0200889
X01585107Y02004672
Y02020592
Y02035522
Y02051582
X0157634Y02089844
X01521541Y0212206
X01445461
X01369381
X01293301
X01217221
X01141141
X01065061
X00988981
X00912901
X00836821
X00760741
X00684661
X00608581
X00532501
X00456421
X0045317Y0198628
X00425382Y0198601
X00434476Y02003641
X00473615Y01995773
X00502808Y0198601
X00513368Y02002469
X0062084Y01986157
X0064558Y01986083
X00740694Y01986157
X00765434Y01986083
X0039348Y0199551
X0038522Y0198463
X00343202Y01986057
X00353498Y02001966
X0031401Y0199556
X0030304Y0198638
X00265312Y01986029
X00264907Y01995529
X0023451Y0199556
X00226444Y0198544
X00184364Y0198599
X00194463Y02002469
X0015439Y0199549
X0014799Y01985291
X00152101Y0212206
X00076021
X00012Y0205883
X00228181Y0212206
X00304261
X00380341
T03
X00054618Y01799507
Y01812207
X00263732Y01880315
Y01893015
T06
X02985406Y00587858
X03010407
X03011527Y00624389
X02986527Y00624953
X00497866Y00738144
Y00763544
Y00788944
Y00814344
Y00839744
X00671994Y00832786
X00692374
X00750802Y01020005
X00776202
X00665569Y0113
X0064581
X00801602Y01020005
X00827Y01020365
X008524
X008778
X009032
X009286
X00954
X0088571Y00942279
X00570509Y0207
X00550509
X00530509
X00510509
X00490509
X00470509
X00450509
X00430509
X00410509
Y0209
X00430509
X00450509
X00470509
X00490509
X00510509
X00530509
X00550509
X00570509
X00390509
X00370509
X00350509
X00330509
X00310509
X00290509
X0027051
X0025051
X0023051
X0021051
X0019051
X0017051
X0015051
X00150509Y0207
X00170509
X00190509
X00210509
X00230509
X00250509
X00270509
X00290509
X00310509
X00330509
X00350509
X00370509
X00390509
T07
X0260123Y0031773
X0262123
X0264123
X0266123
X0268123
X0270123
X0272123
X028206Y003117
X028406
X028606
X028806
X029006
X029206
T08
X029368Y0150936
Y0153476
Y0156016
Y0158556
X029622Y0157286
Y0154746
Y0152206
Y0149666
X02877014Y01697277
Y01717577
Y01737877
Y01758177
Y01778477
Y01798777
X02851614Y01808877
Y01788577
Y01768277
Y01727777
Y01707477
Y01687177
T09
X00052499Y01860162
Y01885562
Y01910962
X00756424Y01819941
X0078182
X0080722
T10
X02629413Y00384188
X02654813
X02680213
X0284025Y00391149
X0286565
X02891047
X01722749Y00751609
X01697349
X01697319Y0078882
X01722719
X01722942Y00829532
X01697542
X02592863Y01934555
X02618263
X02642298Y01934332
X02667698
T11
X02826214Y01686827
Y01712227
Y01783827
Y01809227
T13
X01536438Y01821083
T14
X029952Y0146366
Y0161856
X03061214Y01666277
Y01829777
T15
X00868418Y01821083
T16
X02573559Y00390676
X02853292Y00343133
X0243532Y00755862
X01389236Y00775508
X01351652Y0071703
X00462546Y00767032
X00232054Y00876501
X00462658Y0082058
X0062555Y00835273
X00753766Y0104665
X00799818
X00847307
X00891783
X00937882Y01046651
X00854805Y0117623
X01385723Y00889075
X02043893Y00966378
X02314544Y0091822
X02326224Y01142232
X02336071Y01337248
X01317805Y01371515
X01247641Y01376331
X01112379Y01366675
X01087603Y01506974
X00513641Y0144363
X00451587Y01414848
X0039583Y01444081
X00359872Y01502069
X00232828Y01577983
X00328847Y01200719
X00452482Y01618663
X01331574Y01653553
X020462Y0191966
X0208812
X02130308Y01919659
Y01973598
X0208812
X020462
X02140789Y01871082
T17
X02940479Y01047484
Y01089484
Y01131484
Y01173484
X02995479Y01173484
Y01131484
Y01089484
Y01047484
T18
X03077921Y02003104
T19
X00069524Y0032886
X0307307
X02937358Y01965365
X0006989Y0200829
T20
X03029414Y01684527
Y01811527
M30
