M48
;Layer_Color=9474304
;FILE_FORMAT=2:5
INCH,LZ
;TYPE=PLATED
T1F00S00C0.00800
T2F00S00C0.01000
T3F00S00C0.01968
T5F00S00C0.03000
T6F00S00C0.03150
T8F00S00C0.03504
T9F00S00C0.03543
T10F00S00C0.03937
T11F00S00C0.04055
T13F00S00C0.04300
T14F00S00C0.06181
T15F00S00C0.06300
T16F00S00C0.06693
T17F00S00C0.07087
T18F00S00C0.12205
T19F00S00C0.16400
;TYPE=NON_PLATED
T20F00S00C0.03150
T21F00S00C0.12598
%
T01
X1058872Y067697
Y0694114
X1076363
X1085236Y06935
X1087598Y0695083
Y0699393
X1085236Y0689
X1087598Y0682
Y06775
X1085236Y0676212
Y0672
X1076363Y067697
T02
X0144362Y0118297
X0141304Y0130707
X0145963Y0139921
X013871Y0149194
X0138571Y0152946
X0188366
Y0149114
X0195345Y0139921
X0190686Y0130707
X0194193Y0118297
X0214193Y0118697
X0245134Y0118297
X0241882Y0130707
X0246542Y0139921
X0239335Y0152948
X0289405Y0152948
X0296753Y0139921
X0292093Y0130707
X0295166Y0118297
X0265135Y0118697
X0164362
X0315166
X0345178Y0118297
X0342166Y0130707
X0346826Y0139921
X033939Y015295
X038976Y0152948
X0397051Y0139921
X0392392Y0130707
X0395564Y0118297
X0415564Y0118697
X0445034Y0118297
X0441603Y0130707
X0446263Y0139921
X0439213Y015295
X0465034Y0118697
X0365178
X0495652Y0118297
X0492701Y0130707
X0497361Y0139921
X0489953Y015295
X0515652Y0118697
X0580178Y0143801
X0609598Y0122633
X0669155Y0115099
X0672025Y0152412
X0737322Y0136266
X0758132Y0149183
X0777146Y0115457
X0830964Y011761
X0879039Y0128014
X0924603Y0129055
X1125288Y0128718
X1134139Y0128807
X1142362
X1151243
X1142362Y0213196
X1134139Y0216395
X1159184Y0235061
X1153355Y0241493
X1144212Y0278094
X1125498
X112571Y028759
Y0292288
Y0296538
Y0308388
X113777Y0291303
X111736Y028759
X1164088Y0299054
X117737Y030233
Y0310367
X1203645Y0310369
Y0302331
X108589Y0269746
X1082175Y0265017
X107847Y0256067
X1067926Y0259235
X1063598Y026352
X105445Y027422
X104985Y02767
X1044291Y027225
Y0268701
Y02654
X1037064Y0268315
X1019362Y0255523
X1015748Y0258858
X1004439Y026339
X1016658Y0280316
X1020677Y0283886
X1004913Y0227289
X0999913Y0227191
X0961799Y0214389
X1055412Y0211506
X10632Y02083
X0948059Y0300176
Y0304597
X0941968Y0300176
Y0296239
Y0309231
X0935854
Y0304597
Y0300176
Y0296239
X0929577Y0296297
Y0300234
Y0304656
Y0309289
X0923645Y0309333
Y0304699
Y0300278
Y0296341
X0919094Y0299946
X091881Y0304498
X0919094Y0309476
X0913262Y0309761
X0904376Y0295565
X0903942Y0288954
X0908818Y028928
X0862869Y0311892
X0834119Y0287119
X0802951Y0265585
Y0311892
X0793974Y0226051
X0801669Y0215904
X0825142Y0201278
X0830246Y0156358
X0853892Y0179744
Y0226051
X0908661Y0208451
X0916712Y0181832
X0895903Y0169992
X0793974Y0179744
X0762525Y0201525
Y0204887
X0755053Y0197845
X0734612Y0195045
X073064Y019515
Y0190753
X0734612Y0190741
X0735191Y0253369
X0734121Y0270943
X076028
X0763941Y0278142
X0746279Y0288967
Y0295693
Y0302976
Y0311496
X0737374
Y0302976
X0738764Y0295693
X0728154Y0302976
Y0311496
X0652799Y0312146
X0633307
Y0248984
Y0233437
X0652799
X0667031
Y0248984
X0652799
X0642964Y0170709
X0763941Y0231835
X0603065Y0244887
X0595957
X0588783
X0582308
Y0252324
X0588783
X0595957
X0603065
Y0259761
X0595957
X0588783
X0582308
Y0267198
X0588783
X0595957
X0603065
Y0274635
X0595957
X0588783
X0582308
X0574302
Y0267198
Y0259761
Y0252324
Y0244887
X0567106Y0234602
X0561646
X0557166Y0259677
X0539347Y0260633
X0538901Y0255794
Y0247882
X053387Y0247959
X0529196
Y0255794
X0526011Y0268897
X0516213Y0233988
Y0225524
X0514122Y0219035
Y0213898
X0502994Y0211142
X0499591Y0214281
X0494526Y0214281
X0491394Y0211142
X0495556Y020679
Y020369
X0498656
Y020679
X0500332Y0195819
X0495026Y0195818
X0492774Y0188901
X0502034Y0191984
X0503258Y0177258
X0504247Y0169456
X04997
Y0164346
X0504247
X0508839Y0173699
X0513218Y017398
X0512828Y018402
X0517483
X0525871Y0186131
X0524987Y0158904
X0518154Y015899
X0489953Y0156482
X0484084Y0165114
X0487752Y0170413
X0482776Y0174937
Y0183396
X0482913Y019252
Y0196598
X0476909Y0191398
X0471854Y0189537
X0473374Y0159169
X049474Y0220574
X0499647
X0487332Y0235578
X0487307Y0295282
X047791Y0300181
X0478118Y028997
X0474736Y0291961
X0557252Y0294697
Y0288248
X0561131Y0283295
X0575145Y0293712
Y0297649
X0579082
Y0293712
X0584808Y0296665
X058837Y0282803
X0593792Y0286461
X0603997Y0292619
X060867
X0613702Y0292542
Y0300454
X060867
X0603997
X0565772Y0307038
X056052Y0308491
X0557287Y0311417
X0598117Y0168198
X0466272Y0159169
X0453495Y0164346
X0448948
Y0169456
X0453495
X0452441Y0177032
X0458562Y017379
X0462311
X046239Y018561
X0466917Y0185663
X045077Y0192169
X0449148Y0195585
X044426Y0195437
X044211Y018889
X0432366Y0193252
X0432186Y0197205
X0431028Y0183429
X0430475Y0175857
X0436663Y0169323
X043272Y0164788
X0439213Y015648
X0422799Y0159677
X0415697
X0404042Y0164346
X0399495
Y0169456
X0404042
X040911Y017379
X0412724Y0174844
X041356Y0186307
X0408878
X040486Y0180145
X040129Y0192083
X0399429Y0195739
X0394842Y0195598
X0393213Y018885
X0382705Y0192472
X0382661Y0196409
X0381657Y0183736
X038114Y0176347
X0384394Y0166967
X0388434Y0170466
X038976Y0156481
X0371957Y0159098
X0364905
X0353672Y0164346
X0349125
Y0169456
X0353672
X0352618Y0177032
X0358128Y0173938
X0362209Y0174744
X036263Y0185913
X035789
X0351305Y0192111
X0348331Y0196035
X0344478
X0345017Y020369
Y020679
X0348117
Y020369
X0348339Y0214291
X0344455
X0344114Y0220574
X0348934
X035228Y0211142
X0340768
X0331972Y0195339
Y0192392
X033074Y0183492
Y0175776
X0330944Y0164492
X0337309Y0168885
X033939Y0156482
X0320905Y015948
X0313799
X031291Y0174667
X0313689Y0185344
X0320984Y0185991
X0323945Y018885
X0343229Y0188776
X0374295Y018885
X0371746Y0185884
X0364828Y0214777
Y0219414
X0366482Y0225946
X0366095Y0234438
X0387954Y0236161
X0394421Y0220574
X0399241
X0398646Y0214291
X0394762
X0391075Y0211142
X0395324Y020679
Y020369
X0398424
Y020679
X0402587Y0211142
X0414997Y0214777
Y0219414
X0416265Y022597
Y0234438
X0437477Y0236161
X0443902Y0220574
X0448721
X0448126Y0214291
X0444242
X0440555Y0211142
X0444804Y020679
Y020369
X0447904
Y020679
X0452068Y0211142
X0463413Y021437
Y0218976
X0465417Y022585
Y0234315
X0452104Y0273389
X0446441Y0273446
X0443646Y0284757
X0450664Y0289465
X0456979Y0292267
X0458437Y0303299
Y0307531
X0462713Y030752
Y0303299
X0448558Y0306594
X0440842Y0295874
X0431244Y0298253
Y0302385
X0423613Y0301988
Y0298888
X0420513
Y0301988
X0412783Y0302209
Y0298326
X0408136Y0300468
X0416553Y0294725
Y0306325
X0395241Y0297125
X0391732Y0290152
Y0283351
X0401035Y0272239
X0419411Y0272843
X036133Y0274221
X0356196Y0274487
X0352571Y0271937
X0345387
X0347851Y0274941
X0337774Y0275031
X0330061
X0330158Y0270882
X0323059Y0270833
X0322792Y0275031
X0315657
X0315509Y0270833
X0317311Y0302362
X0320697
X0324846
X0328193
X0332047
X0335433
X0339287
X0342673
X0346528
X0349913
X0353364Y0299654
X0358017Y0306101
X036136
X0351226Y0310619
X0344933Y0310484
X0337393
X033012
X0322778
X0315421
X0313457Y0302362
X0315311Y0226827
X0314043Y0220272
Y0215634
X0337912Y0236161
X0423709Y0188843
X042311Y0184912
X0309024Y018543
X030839Y0174609
X0302614Y0177114
X0303688Y0169456
X0299141
Y0164346
X0303688
X0289405Y0156481
X0287256Y0170435
X0281193Y0175779
Y0183496
X0282213Y0192481
Y0195551
X0294388Y0195508
X029824
X0300693Y0192172
X0293594Y0188776
X0294926Y020369
Y020679
X0298026
Y020369
X0298248Y0214291
X0294364
X0294024Y0220574
X0298843
X030219Y0211142
X0290677
X0286399Y023616
X026517Y0234028
Y0225563
X0264611Y0219063
Y0214535
X0252174Y0211142
X0248315Y0214291
X0244439
X0244008Y0220574
X0248827
X0248011Y020679
X0244911
Y020369
X0248011
X0248389Y0195508
X0244463Y0195494
X0242104Y0188902
X0251555Y0192083
X0258583Y0184441
X026311Y0184367
X0269197Y0188776
X0273898Y018885
X0262135Y0174582
X0258256Y0174
X0253672Y0169456
X0249125
Y0164346
X0253672
X0252621Y0177641
X0236926Y0168802
X023812Y0164589
X0239335Y015662
X0218894Y016079
X0211827Y0160764
X0202728Y0164346
X019818
Y0169456
X0202728
X0201673Y0177364
X020729Y0174
X0211415Y0175236
X0211543Y0185129
X0206953Y0184979
X0200638Y0192168
X0197394Y0196035
X0193518
X0193966Y020369
Y020679
X0197066
Y020369
X0197371Y0214291
X0193494
X0193063Y0220574
X0197882
X0201229Y0211142
X0189716
X0181186Y0195583
X0179787Y0192378
X0179863Y0183346
X0178684Y0174882
X0188998Y0170482
X019363Y0157318
X0170113Y0162535
X0158402Y0157951
X0157342Y0173998
X0160929Y0185161
X0168003Y0186174
X0171646Y018885
X019179Y0188872
X0217728Y0190192
X022259Y018885
X0228504Y0183346
Y0174882
X0231831Y0192166
Y0195551
X0240661Y0211142
X0236996Y0234059
X0214098Y0234028
Y0225563
X0213539Y0219063
Y0214535
X0164894Y0214494
X0164866Y0219002
X0168224Y0225563
X0167953Y0234028
X0183246Y023406
X0210284Y0290608
Y0300608
Y0310608
X0235551Y0303146
Y0294016
X0250185
Y0303146
X0266146
Y0294016
X0278516Y0300158
X029559Y0302362
X0298976
X0302831
X0306217
X0310071
X0308361Y0310484
X0300872
X0293017
X0290459Y0275031
X0294422Y0271894
X0300641
X0297935Y0275031
X0307777
X0307805Y0270833
X0279896Y0166034
X0269823Y015876
X026272Y0158666
X0152854Y0164346
X0148306
Y0169456
X0152854
X0151725Y0177362
X0156185Y0185161
X0150497Y0192183
X0147519Y0196035
X0143643
X0144091Y020369
Y020679
X0147191
Y020369
X0147496Y0214291
X0143619
X0143228Y0220574
X014798
X0151354Y0211142
X0139947
X011751Y0210996
X0114258Y0204807
X0102788
X0095175Y0198571
X0088726
X007927
X0072688
X0072801Y021549
X0079286Y0215706
X0088726
X0095175Y021549
X0102752Y0221941
X0114258
X011751Y0228064
X0114258Y0238779
X011751Y0245308
X0114271Y0256811
X011751Y0263242
X0118226Y0269692
X0114258Y0276748
X011751Y0283088
X0114312Y0296963
X011751Y0302887
X0102758Y0296719
X0095175Y029062
X0088726Y0290836
X0079286Y0289894
X0072783
X0072801Y0309238
X0079286Y0309454
X0088726
X0095175Y0309238
Y027039
X0088649
X0079286Y027035
X0072807
X0072772Y02507
X0079287Y0250641
X0088761Y0250772
X0095193
X0102779Y0256811
X0102872Y0238779
X0095175Y0232836
X0088726Y0233053
X0079286
X0072801Y0232836
X0045181Y0235658
X0035618Y0236209
X0036801Y0239666
X0031255Y0245065
Y0249396
X0026925
Y0245065
X0020833Y0239325
X0022593Y0236249
X0017979Y022548
X0009404Y0232016
X0017795Y0252153
X0014854Y026713
Y0271814
X0042502Y0271491
X0048276Y0267642
X0043098Y0297721
X0046106Y0304217
X0102855Y0276748
X0141825Y0232063
X0141827Y0188835
X0127988Y0192776
Y0196661
X0123214Y0188823
X0123914Y0182602
X0123947Y0174134
X011751Y0175133
X0114275Y0167902
X0102853Y0169027
X0095193Y0162569
X0088714Y0162628
X0079219Y0162357
X0072752Y0162356
X0072819Y0179681
X0079286
X0088726Y01806
X0095175Y0180383
X0102773Y0186251
X0114334Y0185729
X011751Y0192671
X0139689Y0170363
X0135165Y0157318
X0040467Y022548
X0046106Y0312681
X0045835Y0337106
X0040802
X0034764
X0028921
Y0331386
X0028846Y0354248
X0050291
Y0376484
X0028846Y0376486
Y0399391
X0050291
Y042529
X0028846
Y0453043
X0050291
X0080347
Y042529
Y0399391
X0080179Y0376484
X0112906
X0124339Y037155
Y0367472
X0129025
Y037155
Y0362442
X0124339
X0143374Y0366709
X0133827Y0398781
X0133721Y0419358
X0108669Y041937
X0115878Y0339469
X011751Y0321352
X0114258Y0314606
X0102787
X0079189Y0339469
X0053682Y0334921
X0161103Y0333209
X0160908Y0347672
X0163912Y035338
X0178801Y0347595
X017568Y0364168
X0170999Y0369338
X0164667Y038561
X0164276Y0400808
X0164924Y0405231
X0164867Y0408471
X0172824Y0405553
X0195721Y0408856
Y0412831
X0211438Y0435842
X020301Y0447094
X0198158Y0468222
X0229744Y0462291
X0228332Y0458624
X0231496Y0456157
X023478Y0455675
X0238357Y0458624
X0240106Y0461748
X0234881Y046627
X0249165Y0467687
X0253429
X025778
X0259223Y0457819
X0262609Y0458551
X0264156Y0461185
X0273802Y0458512
X0280562
X0280547Y0461552
X0288815Y0458512
X0288852Y0442631
X029334Y0446968
X0297159Y0435526
X029737Y0431106
X0283521Y043334
X0279249Y0428101
X0271681Y0427908
X0271632Y0431201
X0267171Y043826
X0267885Y0446416
X0273669Y0445126
X0280734Y0444294
X0249487Y043826
X0247078Y0439694
X0242338Y0439649
X0235286Y0435772
X0234606Y0427315
X0235362Y0445176
X023083
X0248933Y0456599
X0251842Y0457321
X0255866Y0423494
X0260234
X0271824Y0409628
X0262315Y0396067
X0259925Y0377429
X0269213Y0374753
X0276913Y0374209
X0283803
X0290693
X0291614Y0356805
X0295492Y0358818
X029551Y0354712
X0299843Y035051
X0308831Y0351602
Y0357039
X0304977Y0363882
X0298328Y0363022
X0300853Y0360326
X0287106Y0358889
X0275492Y0351544
X0284998Y0339009
X0281087Y0334594
Y0331209
X0290894
Y0334839
X0290196Y0326975
X0300693Y0326747
X03016Y0330161
X0309021Y0333106
X0308831Y0338606
Y0342154
X0300869Y0341276
X0296888Y0341139
X0255556Y0342897
X0242282Y0348125
X0240167Y0333518
X0233893Y0339294
X0219749Y0323445
X0223756Y0318155
X0210284Y0320608
Y0330608
X027837Y0389175
X029559Y0388933
X0305591
X0315591
X032559
X0335591
X034559
X0355591Y0389113
X0357298Y03809
X0365591Y0388933
X037559
X0373571Y0370073
X0373529Y0357323
X0377675Y0355752
X0373687Y0350513
X0373583Y0342572
X0368859Y0344309
X0353186Y0344307
X0354394Y0338791
X0347664Y0337441
X0343936Y03382
X0336008Y0335854
X0335756Y0342393
X0330914Y0342548
X0326584
X0322253
X0317922
X0313591
Y0338218
X0317922
X0322253
X0326584
X0330914
Y0346879
X0326584
X0322253
X0317922
X0313591
Y035121
Y035554
X0317922
Y035121
X0322253
Y035554
X0326584
Y035121
X0330914
Y035554
X0335756Y0353667
Y034793
X0335815Y036089
X0328476Y0360835
X0314378
X0316759Y0369886
X0318834Y0375553
X0326055Y0375757
X0334862Y0378827
X0338028Y0375425
Y0372079
X0341788Y0368702
X03445Y03658
X0352367Y0367468
X0353129Y0356399
X0354977Y0353804
X0352264Y0351236
X0347627Y0356441
X034351Y0353988
X0338907Y0329654
X0345075Y0323251
X0359591Y0323166
X0368476Y0322776
X0355169Y0328449
X0377699Y033482
X0389366Y0323929
X0404492
X0419614
X043474
X0440008Y0314929
X0449862Y0323943
X0465606Y0324197
Y0337438
Y0347532
X0461231Y034964
X0451087Y0356953
X0441515Y0399551
X0431786Y0405647
X0429617Y0389395
X0459779Y0445704
X0386352Y0444462
X0381667
Y0449494
Y0453572
X0386352
Y0449494
X0366549Y0449031
X034459Y0445492
X0339013
X033559Y0442722
X0343515Y0455514
X0346992Y0461309
X0346795Y0466607
X0347877Y0429142
X0350693Y0426206
X0368051Y0362252
X0490776Y0382098
X0485483Y0389755
X0482528Y0393091
Y0397622
X0482304Y0402149
X0482528Y0406677
Y0411205
Y0416986
Y0420929
Y0425456
Y0430557
X047867Y042798
X047852Y0423195
X0478657Y0413891
X047843Y0404299
X0504776Y0392845
X0505705Y036989
X0510232
X0514803
X051961
X0524295
X0528866
X0533394
X0537921
X0542449
X054698
X0549666Y037247
X0540001Y0365912
X0535473
X0530946
X0526571Y0365912
X052169Y0365912
X0516883
X0512312
X0507784
X0539043Y0334685
X0541866Y0326153
Y032148
Y0316449
X0533954
X0534031Y032148
Y0326153
X055715Y0343525
X056052Y0346497
X0578427Y0349253
X0575013Y0352706
X057536Y0331244
X0590509Y0331746
Y0335824
X0595194
Y0331746
Y0326715
X0590509
X0597133Y0312882
X0618035Y0328276
Y0345961
Y0364035
Y0377878
X0601958Y0364035
X0565646Y0374905
X0576649Y0388162
X0581025Y0405133
X058791Y0415091
X0592244
X0596213
X0584287Y0422354
X0579524Y0422555
X0574996Y0422382
X0563761Y0420008
X0553605Y0450857
X0547699Y0450779
X0543762Y0450827
X0545731Y0448242
X0545351Y0463302
X0549971Y0463319
X0552921Y0465508
X0555638Y046239
X0547764Y0467134
X0542947Y0467823
X0533984Y0461381
X0516386Y045022
X0512537Y0445598
X0511872Y0433787
X0514252Y0430707
X051237Y0427881
X0501661Y044852
X0491165Y0447743
X0485107Y0443622
X0485067Y0436162
X0541858Y0399753
X0633307Y0396315
Y0377878
Y0364035
Y0345961
Y0328276
X0652799
Y0345961
Y0364035
Y0377878
Y0396315
Y0409008
X0641873
X0652799Y0424862
X0695238Y0428993
X0743327Y0451686
X0771459Y0447664
X0779591Y0447662
X077963Y0418855
X0779683Y0414932
Y0410995
X0773592
Y0414932
X0773539Y0418855
X0767425
X0767478Y0414932
Y0410995
X0769413Y0390145
X0766363Y0360198
X0761719Y0313885
X0746279Y0318425
Y0325174
X0737374Y0325355
Y0318425
X0728154
X0718047
X0732969Y0335419
X0701801Y0360192
X0781252Y0387528
X0796122
X0798002Y0410995
Y0414932
X0797949Y0418855
X0804039
X0804092Y0414932
Y0410995
X0791888
Y0414932
X0791835Y0418855
X0785744
X0785797Y0414932
Y0410995
X078429Y0430111
X0786482Y0447662
X0793373
X0836024Y0449886
X0839258Y0445461
X0926784Y0445187
Y044125
X0932898
Y0454242
Y0458179
X0926784
Y0454242
Y0449608
X0923228Y0464567
X0927165Y0468516
X0921072Y0424818
X0923876Y0416135
X0928996Y0419574
X0915953Y0411104
X0924994Y0392393
Y0388456
Y0383822
Y0379401
Y0375464
X0931105Y0375627
Y0379564
Y0383985
Y0388619
Y0392556
X0937219
Y0388619
Y0379564
Y0375627
X0932533Y0334575
X0917579
X0909655Y0329543
X0906219Y0319622
X0906002Y0312578
X0935854Y0313168
X0941968
X0940457Y0329331
X094331Y0375627
Y0379564
Y0383985
Y0388619
Y0392556
X0946754Y0410891
X094395Y0419574
X093883Y0416135
X0951873Y0424605
X0952961Y0439656
Y0443593
Y0448015
Y0452648
Y0456586
X0944934Y045836
Y0454423
Y0449789
Y0445368
Y0441431
X0938989Y044125
Y0445187
Y0449608
Y0454242
Y0458179
X1025877Y042417
X1029618Y0420838
X1033307Y0424202
X1034169Y0347366
X103385Y0344029
Y0340274
X1027169Y0343383
X1011182Y0341964
X1007835Y0338983
X1007567Y0335735
X1011182Y0332783
X10165Y0361417
X1019685Y03585
X1039727Y0351814
X1044327Y0349335
X1053598Y0339796
X1057309Y0336054
X1067979Y0332331
X1071742Y0342197
X1074982Y0345936
X1112055Y0364431
X1119985Y0364586
X1119622Y0357491
X113363Y0358182
Y036828
X1147713Y036828
Y0383549
X113363Y0383547
Y0396921
Y0408831
X1133253Y0421784
X113363Y0434927
X1134391Y0441714
X1134163Y0451109
X114367Y0445324
Y0461859
X1118157Y0460683
X1118563Y0452766
X1118816Y0445
X1108616Y0453121
X110821Y0460632
X1109325Y0432414
X1119622Y0422022
Y0408831
Y0396921
X1105988
Y0408831
X114367Y0412253
Y0428788
X1147713Y0399367
X1166425
Y0383549
Y036828
Y0351912
Y0333678
X117737Y032644
Y0318402
X1203645Y0318404
Y032644
X1147713Y0333678
Y0351912
X1125612Y0317539
X112571Y0313038
X111736Y0317539
X1131067Y0469307
X1131144Y048222
X1130802Y0497694
X1127182Y0509023
X1117098Y0508402
Y05131
Y051735
Y05292
Y053385
X1117Y053835
X1108748
Y0508402
X1134474Y0525917
X114573Y0517344
X1147713Y0497694
X1148054Y048222
X1147977Y0469307
X1166691
X1166768Y048222
X1166425Y0497694
X1160886Y0528083
X1143098Y0541123
X1130008Y0573902
X1133945Y0578902
X1133009Y0588089
X1130009
X1127009
X1123042Y0582411
X1131976Y0596834
X1128039Y0601953
X1130513Y0610385
X11375Y0616
Y06225
X1190417Y0609354
X1201941Y0595843
X1221382Y0611309
Y0569331
X1183087
X1086179Y0565826
X1039872
X1064645Y0596993
X1075547Y049855
X108Y0483489
X1059697Y0484838
X1055978Y0488787
X1046594Y049928
X1036826Y0497265
X1036508Y0494012
X1029299Y0493434
X102005Y0507087
X1016732Y05043
X1012287Y0482132
X1008568Y0485591
X0997781Y0490106
X0985796Y0480059
X0973984Y0484842
X0970358Y0487933
X0964157Y0485915
X0961683Y0483032
X0953553Y0476959
X0945866Y0477017
Y0480466
Y047308
Y0469488
X0940962Y0518254
Y0522191
Y0526613
Y0531247
Y0535184
X094525Y0553177
X0937326Y0558421
X0922408Y0558348
X0914485Y0553316
X0917276Y053516
X0923366
X0928757Y0535184
Y0531247
Y0526613
Y0522191
Y0518254
X0934871
Y0522191
Y0531247
Y0535184
X0922915Y0517804
X0916824
X0903175Y0472273
X0844611Y0473862
Y0520169
X0802095Y0525981
X0784694Y0520169
Y0473862
X0815861Y0495396
X0868143Y0563655
Y0609962
X0835354Y061272
X0808311
X092806Y0609962
X0780803Y0609362
X0780798Y0612999
X074971Y0624969
X0736602Y0568943
X0737651Y0521587
X0755788Y0525981
X0711617Y052601
Y0479703
X0695767Y0471579
X0682867Y0501236
X0651699Y0479703
Y052601
X0676685Y0568943
X0629437Y0624638
X062528Y0621799
X0622085Y0624709
X0582737Y0624239
X0578821
X0574518
X0544335Y0624456
X0544404Y0620507
X0530244Y0611824
X050677Y0607586
X0498367Y0607678
X049853Y0600651
X0483651Y0599234
X0482118Y0596457
X0486958Y0589613
X0485857Y0584084
Y0579753
Y0575422
Y0571092
Y0566761
X0481527
Y0571092
Y0575422
Y0579753
Y0584084
X0477196
Y0579753
Y0575422
Y0571092
Y0566761
X0472865
Y0571092
Y0575422
Y0579753
Y0584084
X0490571Y0582255
X0490541Y0576374
X0490666Y0566566
X048808Y0561936
X0482183Y0562023
X0476242Y0562132
X0475096Y0547654
X0472437Y054461
Y0540894
Y0537004
X0479633Y0533107
X0482605Y0529855
X0489509Y0524091
X0489397Y0506946
X0482323Y0501901
X0480821Y0487571
X0484991
X0476438
X0472922Y0515769
X0469142Y0515769
X0470074Y05489
X0482749Y0547687
X0489248Y0548086
X0497132Y0557776
X0500557
X0503972Y05561
X0507688
X0511578
Y0560305
X0507688
X0503972
X050481Y056648
X0514869Y0566389
X0518585
X0522475
Y0570593
X0518585
X0514869
X0509165Y0576244
X0505374Y0576193
X0526146Y0575566
X0529397Y0578539
X0545058Y0580044
X0542085Y0583295
X0543097Y0561887
X0558056Y056184
Y0557762
X0562741
Y056184
Y0566872
X0558056
X0558405Y0609548
X051037Y0623374
X0507091
X0493583Y0623528
X0490958Y0621145
X0468803Y06163
X0473602Y0606922
X0502429Y051884
X0528965Y0507008
X0529437Y0539308
X0531988Y0474762
X0455677Y05018
X043909Y0501768
X0433606Y0506586
Y0512913
Y0522354
Y0528806
X0450081Y0524761
X0457211Y0530358
X04605Y0533943
X0468232Y0537004
Y0540894
Y054461
X0458673Y0543472
X0462489Y0554393
X0455784Y0561245
X0449847Y0561776
X0445687Y0562054
X0440281Y056199
X0435893Y0562181
X0435807Y0556382
Y0552665
X0440713
Y0556382
X0430772
X0430538Y0552665
X042958Y0548481
X0426329Y0545508
X0410097Y0542956
X041307Y0539705
X0413269Y056091
X0397765Y056109
Y0565168
X039308
Y056109
Y0556059
X0397765
X0422709Y0578626
X0430368
X044582Y0580228
X0449357
X0449302Y0587251
X0443709Y0588411
X044176Y0592494
X0445416Y0595744
X0457785Y0596508
X0455847Y0590868
X0463349Y0586248
X0463831Y0580299
X0468534Y0579753
Y0584084
Y0575422
Y0571092
Y0566761
X0463955Y057251
X0453513Y0573101
X0449847Y0566958
X044308Y056676
X0448982Y0550074
X0465492Y0515704
X0439747Y0490578
X0432713Y0603835
X0417312Y0619187
X0401587Y0611428
X0401805Y0603965
X0371193Y0602222
X0367277
Y0606249
X0371193
X0362929
X0362974Y0602222
X0376965Y0618931
X0337424Y0585308
X0340427Y0580663
X0331516Y0575957
X0335886Y0565535
X0347776
X0342085Y0556694
X0466853Y0597129
X0466165Y0608895
Y0612305
X0464136Y0622004
X0454039Y061535
X0287599Y0621926
X0240577Y0617477
X02367
X02329
X0229101
X0224632Y0611398
X0244144
X0255652Y0587509
X0247115Y0578037
X02381Y05632
X0232416
X0226912
X02217
X0219169Y0567096
Y0548032
X0202142
X0190898Y0568358
X017779Y0570147
X0168292Y0571488
X0168415Y0562382
X016373
X0159208Y0587542
X0159622Y0595447
Y0598729
Y060185
X0156319
Y0598729
Y0595447
X0163028
Y0598729
Y060185
X0159378Y0609838
X0159459Y0612821
X0167866Y0615207
X0164307Y0621871
X0176627Y0619195
X0181889Y0610979
X01804Y05947
Y0591273
X01839Y0594661
X0176936Y05947
X0175802Y0588194
X0172048Y0598842
X0190898Y0622193
X0189936Y0500402
X019708
X0222615
X0226912
X0231405
X0236457
X0244033Y0501704
X0248561
X02531
X0257709
X0262344
X0266988
X0269171Y0504814
X0264527
X0259892
X0255283
X0250676Y0504843
X0246216Y0504814
X024835Y0484094
X0243454Y0481163
X0249165Y0476158
X0253429
Y0471842
X0249165
X025778
Y0476158
X0265669Y0470634
X0280558Y0469273
Y0473802
Y047833
X0284336Y0477865
X0284153Y0484399
X0280558Y0482859
X0278288Y048726
X0283351Y0471589
X0239052Y0469598
X0236419Y0485293
X0230653Y0489512
X022103
X021814Y0485431
Y0480903
Y0476374
Y0471846
X0213386Y0473802
Y047895
Y0483091
X0128608Y0484187
X0124511Y048035
X0120994Y0477139
X0103279Y0473924
X0106888Y0470273
X0106097Y049241
X0090872Y0493017
Y0497095
X0086187
Y0493017
Y0487986
X0090872
X0089536Y0528935
X0100154Y0534488
X0100135Y0537886
X0107503Y0535039
X010013Y0548969
X0072067
X0068673Y0522191
X0050291Y0530611
X0028846Y0535238
Y0509109
Y0483738
X0050291Y0479112
Y0504483
X0058116Y0570843
X0032745
X0034475Y0600201
X002925Y0606189
X0054621
X005935Y0600314
X0048323Y0592087
X0073257Y0592223
X008075Y0606189
X0089526Y0599387
X0100737Y0592306
X0114055Y0599134
X0114465Y0583306
X0118646Y0610979
X0112901Y0615717
X0104285Y0622464
X0144225Y0621863
Y0617178
X0147868Y0600567
X0153579Y0606087
Y059111
X0153179Y057763
X0130375Y0542283
X0126525
Y0538307
X0130375
X0120999Y0515376
X0123814Y051244
X0132614Y0496764
X0135562Y0499358
X0084245Y0570843
X0077479Y0632341
X0079918Y0644988
X0088606
X0090292Y0638584
X0098056Y0644988
X0106491
X011556
X0123804
X0132493
X0141942
X0150694
X0147982Y0652566
X0144211
X0139331Y0652566
X013556Y0652605
X0130032Y0652566
X0126261
X0121832
X011806
X0112532
X0108761
X0103832
X010006
X0094532
X0090761
X0085931
X0082159Y0652604
X0076632
X007286Y0652644
X0066902Y0652565
X0063131Y0652604
X0057603
X0053832Y0652644
X0048655Y0652816
X0044883Y0652855
X0039555Y065273
X0035783Y0652769
X004183Y0644988
X0051633
X0060131
X0061775Y0638912
X0069517Y0644988
X0067193Y067115
X0060047Y0676268
X0049169Y067115
X0042138Y0676385
X0078664Y0676268
X0085812Y067115
X009742Y067627
X0104566Y067115
X0116022Y067627
X0123169Y067115
X0132577Y067627
X0139724Y067115
X015081Y0676268
X0153973Y0652605
X0144364Y0631213
Y0626528
X0113587Y0625928
X0107458Y0626242
X0105668Y0633064
X0119071Y0638254
X0050736Y063221
X0036279Y0639305
X0039335Y0730636
X0049279Y073
X0058031Y0733286
X0045194Y0739681
X0039369Y0756728
X0058264Y0778311
X0065982Y0775252
X008119Y0778146
X0089151Y0778323
X0097615Y0774803
X0113801Y0778161
X0119292Y0778693
X0128608Y077544
X0144466Y0778172
X0151661Y0778004
X0156196Y0754468
X0113928Y0756729
X0119753Y0739683
X0123836Y0730002
X0113893Y0730637
X0132588Y0733287
X0091994Y0741068
X0088717Y0750801
X008259Y0750522
X0165274Y0755582
X0170205Y0745736
X0194043Y0760035
X0191369Y0774559
X0185768Y0775618
X0181213
X0176043Y0778138
X0160648Y0774979
X0207303Y0778256
X0244425Y0766377
X0254165Y0766276
X0269143Y0767052
X0283207Y0767638
X0290432Y0767557
X0301352Y0766276
X0297706Y0733591
X030544
X0295826Y0698213
Y06925
X0311732Y0682085
X0276552Y0669955
X026907Y0675073
X0245504Y0676221
X0251214Y0667631
X025075Y065144
X0245218
X0230672Y0647706
X023065Y0667296
X0224957Y0675859
X0198786Y0670528
X0191306Y0675646
X0180012Y067115
X0172863Y0676268
X0157957Y0671148
X0157745Y0652566
X0166406Y0652344
X0170178Y0652303
X0175706
X0179477
X0188836
X0194836
X0172257Y0644988
X0217491Y06285
X0220795
X02242
Y0625378
X0264542Y0634713
X0287599Y0634413
X0288433Y0649669
Y0653806
X0255997Y0699326
X0252066Y0702736
X024497
X0241044Y0699326
X0235693
X0231801Y0702736
X03219Y0698213
X0321971Y0692449
X033026Y0690031
Y0695272
X0337992Y0695638
X0345972Y0695272
X0353221
X0349315Y0690645
X0341579Y0690031
X034595Y0682171
X0349744Y0675479
X0332519Y0676726
X032391Y0680571
X0315566Y0675338
X0327677Y0662105
X0332323Y0657291
X0335326Y0659567
X0324737Y0636197
X0337992Y0711008
X0345972
X0353227Y0709334
X0365945Y0707695
X0363583Y0694648
X0360413Y0691957
X0370644Y0691339
X0368307Y0688189
X0366011Y0684957
X0375368Y0688189
X037773Y0691339
X0380114Y0694744
X0373028
X0387201
X0384816Y0691339
X0382454Y0688189
X038954
X0391989Y0691339
X0394287Y0694744
X0408799Y0688756
X04182Y0684382
X0413424Y0679008
X0410928Y067444
X0414378Y0669596
X0404849Y0671724
X0418508Y0694736
X0424996
X0429697Y0691339
X0434441
X0432059Y0688189
X0427335
X0439142
X0443866
X0446228Y0691339
X0441504
X0453315
X0458039
X0455677Y0688189
X0450953
X0448614Y0706913
X0442012
X0436803Y0706544
X0429102Y0706976
X0424377
X0417909Y0706952
X0455794Y0706635
X0460425
X046611Y0706885
X0466331Y0739292
X0459244Y0738795
X0447433Y0739292
X0435622Y0738795
X0423815Y0739292
X0439322Y0748051
X0435591Y0752437
X0459221
X0462975Y0748051
X0393106Y0739292
X038602
X0378933
X037185
X0364764
X0357677
X035059
X0352396Y0752425
X0344966
X033862
X0331589Y0767638
X0317265Y0767132
X0330955Y073351
X0395485Y0726989
X0431073Y0633279
X0483799Y0644425
X0487449Y0647465
X0501673Y0644425
X0506213Y0647705
X0512635Y0640911
Y0636995
X0516661
Y0640911
Y0632692
X0512635Y0632646
X0531008Y0638437
X053508Y0634559
X0540458Y0643156
X0544336Y0627926
X0554117Y0634244
X0558366Y0638437
X0574473Y0628266
X0578821
X0582737
X0600142Y0631406
X0600097Y0635433
X0604445
X0608361
Y0631406
X0604445
X0610435Y0642315
X0615398
X0619702
Y0647453
X0615287
X0610435
X0608252Y065265
X0598
X0588354Y0646045
X0621415Y065334
X0623623Y0658893
X0624991Y0642315
X0616615Y0685552
X0619106Y0691456
X0612453Y0692293
X060823Y0688992
X0601633
X060491Y0692293
X0597724
X0593862Y0691293
X0591125Y0693755
X05875
X05815Y0688976
X0577875
X0574375Y0690945
X057075
X0566675Y0688917
X0568828Y0685958
X0565Y0693767
X0561375
X0547819Y06945
X0543094
X053837
X0540732Y0691374
X0545457
X0533646
X0529117Y069125
X0531284Y06945
X0516232Y0694133
X051239Y0694986
X0505369Y0694736
X0500557
X0502739Y0691339
X0495831
X0498193Y0688189
X0492853Y0694705
X0487696Y0691195
X0484045Y0693317
X0476935Y0691339
X0479297Y0688189
X0472211
X046985Y0691339
X0474598Y0706634
X0481681Y0707294
X0488768Y0706635
X0489076Y0722953
X0493111
X0493799Y0726575
X0497835
X0500886Y0722953
X0504921
X050563Y0726575
X0509665
X051744
X0521475
X0524508Y0722953
X0528543
X0522638Y0711614
X0518602
X0517815Y0707382
X0513779
X0510772Y0709842
X0506843
X0524197Y0706495
X0536008Y0706292
X055963Y0706733
X0576138Y0694787
X0597723Y0707382
X0604911Y0707279
X0612453
X0624401Y073231
Y0751912
X0609875Y0749535
X0603904
X0597147
X0593878Y0740256
X0589153Y0741933
X0586791Y0739045
X057498Y0739292
X0565535
X0546638
X0549Y0745253
X0538724Y0748256
X0534784Y0752437
X0534827Y0738795
X0523016Y0739292
X0511209Y0738795
X0499398Y0739292
X0487587Y0738795
X04805Y0739292
X0473417Y0738795
X047339Y0752437
X0477968Y0748062
X0482066Y0749703
X0487672Y0754108
X0511118Y0752437
X0515697Y0748317
X0549Y0764041
X0591496Y0727715
X0486054Y0726575
X0482019
X0513026Y0680861
X0512185Y0673415
X0521098Y0677939
X0524398Y0682875
X0509047Y0661995
X0634178Y0673944
X0636668Y0679781
X0648243Y0679848
X06594Y0696148
X0661892Y0702877
X067305Y0702945
X0680687Y0692343
X0678127Y0686226
X0691896Y0692343
X0711659Y0689681
X0718909Y0690299
X0727763Y0690675
X0731224Y0696235
X0737268Y0699327
X0739878Y0702091
X0737048Y0704615
X0737402Y0709673
X0740122Y0707594
X0733217Y0711843
X0730202Y0714739
X0727739Y0716146
X0724728Y0714858
X0721493Y0716146
X0717279
X0711807Y0709848
Y0707064
Y0704278
X0710758Y0699786
X0706298Y0705183
X0721579Y0705865
Y0701534
X072591
Y0705865
X071302Y0680154
X0708313
X0715043Y0661559
X0721741
X0724693Y0661897
X0719146Y0652024
Y064789
X0736842Y0647626
X0737086Y0651602
X0739783Y064548
X0740039Y0640213
X0740071Y0635268
X0737165Y0637783
X0736744Y0642764
X075435Y0643945
Y0639614
X0758681
Y0643945
X0757289Y0652004
X0757138Y065591
X0759378Y0658328
X0750167Y065526
X076746Y0649029
X0769587Y0645402
X0768051Y0640063
X0771902Y0637118
X0766819Y0634047
X0763957Y0625839
X0760559Y0627425
X0757315Y0625839
X0752251Y0627359
X0755133Y0630878
X0775744Y0642764
X0777167Y0694621
X0781174Y069466
X0759603Y0691974
X0755126Y0694156
X0767763Y0709522
X0771801Y0712786
X0763985Y0727268
X077728Y0742266
X0753838Y0758726
X075906Y0765122
X0748151Y0765047
X073937Y0770866
X0735039
X0730709
X0726417
X0722047
X0717717
X0713386
X0709055
X0711236Y0763823
X0705017Y0765212
X0694108Y0765138
X0699795Y0758816
X0719551Y0756827
X0721906Y0763824
X0730842Y0756827
X0735969Y0747244
X0735189Y0739764
X0726938Y0743608
X0716457Y0747244
X0711164Y0746724
X0707657Y074324
X0707797Y0739917
X0716457Y0739764
X0726417Y0780047
X0681991Y0774682
Y0766808
X064515Y0769201
X0649873Y0774702
X0644249Y0715148
X0641758Y0708394
X0655823Y0715216
X063068Y0691456
X0638867Y0641421
X0653886Y0640874
X0654181Y0637338
X0658571Y0640874
Y0645905
X0653886
X0669555Y0651488
X0678354Y0640589
X0737953Y0678712
X0790946Y0692344
X0782467Y0703179
X0783779Y0712574
X0787283Y0709382
X0791974Y0733587
X0796795
X0791507Y0740303
X0787307Y0743979
X0790946Y0752261
X078848Y0781044
X0808621Y0717354
X0819666Y071263
X082327Y0709375
X0837502Y0719832
X0846341Y0722436
X08813Y071305
X0878081Y0708614
X0889053Y0708583
X0890129Y0704266
X0891168Y0717315
X0898575Y0718307
Y0722638
X0902905
X0907236
Y0718307
X0902905
Y0713976
X0907236
X0907827Y0707051
X0904575Y0701784
Y0696325
X0908516Y0693141
X0912453Y0701784
X0921378Y0703844
X091848Y0707588
X0914162Y0711417
X0914873Y0719169
X0915216Y0726202
X0921353Y0725129
X0924738Y0725833
X0928754Y0722457
X0933006Y0718692
X0924198Y0695477
X0921039Y0691106
X0898575Y0713976
X0905237Y0731102
X090878
X0909609Y073413
X090365
X0912783Y0737716
X0899809Y0752084
X0899677Y0758203
X0899625Y0768533
X0881734Y0770718
Y0762953
X0868228
X0861576Y0762214
X0868228Y0770716
X0872256Y0778264
X0883109Y0731047
X085576Y0647543
Y0632469
X0839988Y0635685
X0836917Y0631551
Y0639819
X0839618Y0643957
X0836975Y0647512
X0831767Y0649254
X082176Y0651844
X0821918Y0655486
X0824705Y065874
X0815136Y0655219
X081048Y0655847
X0804823Y0643744
X080274Y0640425
X0805516Y0637405
X0801524Y0634721
X078862Y0628399
X0788472Y0652504
X0818996Y0644051
Y063972
X0823327
Y0644051
X0819878Y063119
X0817175Y0627425
X081368Y0625713
X0822919
X0826331Y0627425
X0829681Y0625713
X0818567Y0668675
X0974214Y065657
X102052
X1039872Y0625743
X1086179
X1071425Y0642259
Y0732492
X1057967Y0741577
X1057917Y0744923
X1055066Y0747977
X1050936Y0749904
X105504Y0738706
X104022Y0734943
X1018733Y0734888
X1018995Y0749923
X1012732Y0773786
X0984164Y0747997
X096482Y0755318
X0955097Y0717984
Y0712668
X0940933Y0715016
X0974214Y0716487
X1093043Y0743724
X1087732Y075004
X1087278Y07554
X1091327Y0759275
X110556Y0757849
X1109293Y0760999
X1104063Y0748432
X1117803Y0738968
X1121702Y0733307
X1125232Y0730126
X1136751Y0733397
X1140028Y0730126
X1151709Y073346
X1155117Y0730126
X1166537Y0733397
X1170105Y0730126
X1162702Y0738968
X1147545Y0738968
X1132674
X1101477Y0712155
X1097164Y0708014
X1094055Y0658487
X1099831Y0653794
X1130547Y062838
X1201941Y0645182
Y0664191
X1221382Y067891
Y0641726
Y0726482
Y0772727
X1200026Y0754465
X1193169Y0826161
X1212668Y0834054
X1169937Y083357
X1149529Y0826161
X1126782Y0832253
X1104652Y0826161
X1085254Y0832069
X1059956Y0826161
X1037232Y0832525
X1015569Y0826161
X0995876Y0833434
X0974941Y0826161
X0974344Y0808321
X0978289
Y0803853
X0974344
X0970222Y0803894
X0966207
X0962163Y0803853
X0958226Y0803894
Y0808321
X0962163
X0966207
X0970222
X0953075Y0801392
X0953706Y0789465
X0948581Y0792239
X0944841
X0958317Y0784955
X0955276Y0832676
X1012732Y078193
X0920835Y0795742
X0920768Y0800808
X0896881Y0814507
X0864837Y0826161
X08509Y0832979
X0872256Y0783464
X078848Y0785974
X0936997Y0826161
X0779609Y0790902
X0775592Y0794497
X075915Y079789
X0748242Y0797815
X0753929Y0791494
X0699795
X0705017Y079789
X0694108Y0797815
X0681991Y0798304
Y0806178
Y0814052
Y079043
Y0782556
X0649873
Y079043
Y0798304
X0641622Y0793419
X0634142Y079474
X0626861Y0792248
Y0798299
Y0804802
X0637882Y0804513
X0641622Y0804075
X0646319Y0822776
X0637882Y0784284
X0634049Y0783385
X0624058Y0789241
Y0795508
Y0801387
Y0807709
X0620607Y0822773
X0301352Y0781922
X0291612Y0781952
X0254165Y0781922
X0244425Y0781952
X0197956Y0781894
X0202113Y0788374
X0186463Y0785738
X0178413Y0782
X0167473Y0781894
X0171054Y0788835
X0154913Y0785634
X0151661Y078135
X0135119Y0781912
X0139172Y0788175
X0123626Y0785653
X0119307Y0782039
X0104454Y0781901
X010845Y0788175
X0092327Y0785653
X0089151Y0781669
X0072584Y0781886
X007656Y0788374
X0060783Y0785626
X0058264Y078161
T03
X0021503Y0708467
Y0713467
X0103832Y0740282
Y0745282
T05
X1175357Y023144
X11852
X1185641Y0245822
X1175798Y0246044
X019601Y0290608
Y0300608
Y0310608
Y0320608
Y0330608
X0264564Y0327869
X0272588
X0295591Y0401577
X0305591
X0262035Y0444882
X0254256
X0315591Y0401577
X032559Y0401718
X0335591
X034559
X0355591
X0365591
X037559
X0348705Y0370976
X022461Y0814961
X0216736
X0208862
X0200988
X0193114
X018524
X0177366
X0169492
X0161618
Y0822835
X0169492
X0177366
X018524
X0193114
X0200988
X0208862
X0216736
X022461
X0153744
X014587
X0137996
X0130122
X0122248
X0114374
X01065
X0098626
X0090752
X0082878
X0075004
X006713
X0059256
X0059256Y0814961
X006713
X0075004
X0082878
X0090752
X0098626
X01065
X0114374
X0122248
X0130122
X0137996
X014587
X0153744
T06
X1024106Y0125091
X103198
X1039854
X1047728
X1055602
X1063476
X107135
X1110472Y0122716
X1118347
X1126221
X1134095
X1141969
X1149842
T08
X1156221Y0594236
Y0604236
Y0614236
Y0624236
X116622Y0619236
Y0609236
Y0599236
Y0589236
X1132683Y0668219
Y0676212
Y0684204
Y0692196
Y0700188
Y070818
X1122683Y0712156
Y0704164
Y0696172
Y0680227
Y0672235
Y0664243
T09
X0020669Y0732347
Y0742347
Y0752347
X0297805Y0716512
X0307803
X0317803
T10
X0668248Y0295909
X0678248
X0678236Y0310559
X0668236
X0668324Y0326588
X0678324
X1020812Y0761636
X1030812
X1040275Y0761548
X1050275
T11
X1112683Y0664105
Y0674105
Y0702294
Y0712294
T13
X0604897Y0716962
T14
X1179213Y0576244
Y0637228
X1205202Y0656015
Y0720385
T15
X0341897Y0716962
T16
X0958787Y0297583
X0546943Y0305318
X0532147Y0282295
X0182105Y0301981
X009136Y0345079
X0182149Y0323063
X024628Y0328848
X0296758Y0412067
X0314889
X0333586
X0351096
X0369245Y0412068
X0336538Y0463083
X054556Y0350029
X0804682Y0380464
X0911238Y0361504
X0915836Y0449698
X0919713Y0526475
X0518821Y0539966
X0491197Y0541863
X0437945Y0538061
X042819Y0593297
X02071Y05618
X017779Y0557027
X0141682Y0591366
X0091665Y0621253
X0129467Y0472724
X0178142Y0637269
X0524242Y0651005
X0805591Y0755772
X0822094
X0838704Y0755771
Y0777007
X0822094
X0805591
X084283Y0736646
T17
X1157669Y0412395
Y0428931
Y0445466
Y0462002
X1179322Y0462002
Y0445466
Y0428931
Y0412395
T18
X121178Y0788624
T19
X0027372Y0129472
X120987
X115644Y0773766
X0027516Y0790665
T20
X0892157Y0824117
X0911843
T21
X1192683Y06632
Y07132
M30
