G04*
G04 #@! TF.GenerationSoftware,Altium Limited,Altium Designer,20.2.6 (244)*
G04*
G04 Layer_Color=8421504*
%FSLAX25Y25*%
%MOIN*%
G70*
G04*
G04 #@! TF.SameCoordinates,C0FDDEC0-252B-4CE6-8BE1-5BCEE630C73E*
G04*
G04*
G04 #@! TF.FilePolarity,Positive*
G04*
G01*
G75*
%ADD29R,0.05236X0.05236*%
%ADD30R,0.03150X0.03150*%
%ADD31R,0.01772X0.01772*%
%ADD32R,0.01772X0.01772*%
%ADD33R,0.02953X0.02953*%
%ADD34R,0.05866X0.05866*%
%ADD35R,0.04331X0.02362*%
%ADD36R,0.04528X0.05709*%
%ADD37R,0.01083X0.00984*%
%ADD38R,0.00984X0.01083*%
%ADD39R,0.02598X0.02441*%
%ADD40R,0.02441X0.02598*%
%ADD41R,0.08268X0.05118*%
%ADD42R,0.03543X0.02953*%
%ADD43R,0.00984X0.01968*%
%ADD44R,0.00984X0.00591*%
%ADD45R,0.03850X0.02200*%
%ADD46R,0.03543X0.02756*%
%ADD47R,0.03740X0.03150*%
%ADD48R,0.05709X0.07874*%
%ADD49R,0.03150X0.05906*%
%ADD50R,0.17700X0.18100*%
%ADD51R,0.01400X0.07900*%
%ADD52R,0.05512X0.01181*%
%ADD53R,0.03150X0.03740*%
G04:AMPARAMS|DCode=54|XSize=21.65mil|YSize=31.5mil|CornerRadius=1.95mil|HoleSize=0mil|Usage=FLASHONLY|Rotation=0.000|XOffset=0mil|YOffset=0mil|HoleType=Round|Shape=RoundedRectangle|*
%AMROUNDEDRECTD54*
21,1,0.02165,0.02760,0,0,0.0*
21,1,0.01776,0.03150,0,0,0.0*
1,1,0.00390,0.00888,-0.01380*
1,1,0.00390,-0.00888,-0.01380*
1,1,0.00390,-0.00888,0.01380*
1,1,0.00390,0.00888,0.01380*
%
%ADD54ROUNDEDRECTD54*%
%ADD55R,0.03937X0.11024*%
%ADD56R,0.02362X0.02165*%
G04:AMPARAMS|DCode=57|XSize=21.65mil|YSize=31.5mil|CornerRadius=1.95mil|HoleSize=0mil|Usage=FLASHONLY|Rotation=270.000|XOffset=0mil|YOffset=0mil|HoleType=Round|Shape=RoundedRectangle|*
%AMROUNDEDRECTD57*
21,1,0.02165,0.02760,0,0,270.0*
21,1,0.01776,0.03150,0,0,270.0*
1,1,0.00390,-0.01380,-0.00888*
1,1,0.00390,-0.01380,0.00888*
1,1,0.00390,0.01380,0.00888*
1,1,0.00390,0.01380,-0.00888*
%
%ADD57ROUNDEDRECTD57*%
%ADD58R,0.02600X0.00900*%
%ADD59R,0.06299X0.19291*%
%ADD60R,0.05906X0.20472*%
%ADD61R,0.01181X0.02756*%
%ADD62R,0.02300X0.05200*%
%ADD63R,0.03740X0.03347*%
%ADD64R,0.01772X0.05118*%
%ADD65R,0.04528X0.05512*%
%ADD66R,0.02047X0.02047*%
%ADD67O,0.01181X0.05315*%
%ADD68R,0.03937X0.04134*%
%ADD69R,0.10827X0.03937*%
%ADD70R,0.02047X0.02835*%
%ADD71R,0.01772X0.02165*%
%ADD72R,0.05512X0.01772*%
%ADD73R,0.02165X0.01772*%
%ADD74R,0.03937X0.04724*%
%ADD75R,0.02165X0.02165*%
%ADD76R,0.02284X0.02598*%
%ADD77R,0.02323X0.02441*%
%ADD78R,0.01968X0.01968*%
%ADD79R,0.05512X0.04921*%
%ADD80R,0.04921X0.05512*%
%ADD81O,0.00984X0.03543*%
%ADD82O,0.03543X0.00984*%
%ADD83R,0.04375X0.02365*%
%ADD84O,0.00984X0.03150*%
%ADD85O,0.03150X0.00984*%
%ADD86R,0.01378X0.01968*%
%ADD87R,0.01968X0.01378*%
%ADD88R,0.03956X0.01535*%
%ADD89R,0.01535X0.03956*%
%ADD90O,0.00787X0.03543*%
%ADD91O,0.03543X0.00787*%
%ADD92R,0.02441X0.02323*%
%ADD93R,0.02835X0.02047*%
%ADD94R,0.01968X0.01968*%
%ADD95R,0.02598X0.02284*%
%ADD96R,0.05906X0.01181*%
%ADD97R,0.01181X0.05906*%
%ADD98R,0.03740X0.02362*%
%ADD99R,0.02953X0.03543*%
%ADD100R,0.04331X0.03937*%
G04:AMPARAMS|DCode=101|XSize=7.87mil|YSize=17.72mil|CornerRadius=1.97mil|HoleSize=0mil|Usage=FLASHONLY|Rotation=180.000|XOffset=0mil|YOffset=0mil|HoleType=Round|Shape=RoundedRectangle|*
%AMROUNDEDRECTD101*
21,1,0.00787,0.01378,0,0,180.0*
21,1,0.00394,0.01772,0,0,180.0*
1,1,0.00394,-0.00197,0.00689*
1,1,0.00394,0.00197,0.00689*
1,1,0.00394,0.00197,-0.00689*
1,1,0.00394,-0.00197,-0.00689*
%
%ADD101ROUNDEDRECTD101*%
%ADD102R,0.05512X0.04528*%
%ADD103R,0.02756X0.01378*%
%ADD104R,0.00100X0.00100*%
%ADD105R,0.01200X0.03200*%
%ADD106R,0.03200X0.01200*%
%ADD107R,0.03937X0.03543*%
%ADD108R,0.02756X0.01181*%
%ADD109R,0.00100X0.00100*%
%ADD110R,0.02756X0.03543*%
%ADD111R,0.02165X0.02362*%
%ADD112R,0.02953X0.01772*%
%ADD113R,0.02165X0.03740*%
%ADD114R,0.02362X0.04134*%
%ADD115R,0.03543X0.03937*%
%ADD116R,0.02362X0.03740*%
%ADD117R,0.04921X0.06890*%
%ADD118R,0.03347X0.03543*%
%ADD119R,0.02362X0.03150*%
%ADD120R,0.03150X0.02362*%
%ADD121R,0.03347X0.03740*%
%ADD122R,0.03740X0.02165*%
G04:AMPARAMS|DCode=123|XSize=7.87mil|YSize=17.72mil|CornerRadius=1.97mil|HoleSize=0mil|Usage=FLASHONLY|Rotation=90.000|XOffset=0mil|YOffset=0mil|HoleType=Round|Shape=RoundedRectangle|*
%AMROUNDEDRECTD123*
21,1,0.00787,0.01378,0,0,90.0*
21,1,0.00394,0.01772,0,0,90.0*
1,1,0.00394,0.00689,0.00197*
1,1,0.00394,0.00689,-0.00197*
1,1,0.00394,-0.00689,-0.00197*
1,1,0.00394,-0.00689,0.00197*
%
%ADD123ROUNDEDRECTD123*%
G36*
X259278Y472066D02*
X253665D01*
Y477679D01*
X259278D01*
Y472066D01*
D02*
G37*
G36*
X252878D02*
X247265D01*
Y477679D01*
X252878D01*
Y472066D01*
D02*
G37*
G36*
X259278Y465666D02*
X253665D01*
Y471279D01*
X259278D01*
Y465666D01*
D02*
G37*
G36*
X252878D02*
X247265D01*
Y471279D01*
X252878D01*
Y465666D01*
D02*
G37*
G36*
X425018Y302381D02*
X424564D01*
X424007Y302938D01*
Y303393D01*
X425018D01*
Y302381D01*
D02*
G37*
G36*
X423219Y302938D02*
X422662Y302381D01*
X421463D01*
X420907Y302938D01*
Y303393D01*
X423219D01*
Y302938D01*
D02*
G37*
G36*
X420119D02*
X419562Y302381D01*
X419108D01*
Y303393D01*
X420119D01*
Y302938D01*
D02*
G37*
G36*
X425018Y299282D02*
X424564D01*
X424007Y299838D01*
Y301037D01*
X424564Y301594D01*
X425018D01*
Y299282D01*
D02*
G37*
G36*
X423219Y301037D02*
Y299838D01*
X422662Y299282D01*
X421463D01*
X420907Y299838D01*
Y301037D01*
X421463Y301594D01*
X422662D01*
X423219Y301037D01*
D02*
G37*
G36*
X420119D02*
Y299838D01*
X419562Y299282D01*
X419108D01*
Y301594D01*
X419562D01*
X420119Y301037D01*
D02*
G37*
G36*
X425018Y297483D02*
X424007D01*
Y297937D01*
X424564Y298494D01*
X425018D01*
Y297483D01*
D02*
G37*
G36*
X423219Y297937D02*
Y297483D01*
X420907D01*
Y297937D01*
X421463Y298494D01*
X422662D01*
X423219Y297937D01*
D02*
G37*
G36*
X420119D02*
Y297483D01*
X419108D01*
Y298494D01*
X419562D01*
X420119Y297937D01*
D02*
G37*
G36*
X500061Y207184D02*
X499607D01*
X499050Y207741D01*
Y208195D01*
X500061D01*
Y207184D01*
D02*
G37*
G36*
X498263Y207741D02*
X497706Y207184D01*
X496507D01*
X495950Y207741D01*
Y208195D01*
X498263D01*
Y207741D01*
D02*
G37*
G36*
X495163D02*
X494606Y207184D01*
X494151D01*
Y208195D01*
X495163D01*
Y207741D01*
D02*
G37*
G36*
X449309Y207184D02*
X448855D01*
X448298Y207741D01*
Y208195D01*
X449309D01*
Y207184D01*
D02*
G37*
G36*
X447511Y207741D02*
X446954Y207184D01*
X445755D01*
X445198Y207741D01*
Y208195D01*
X447511D01*
Y207741D01*
D02*
G37*
G36*
X444411D02*
X443854Y207184D01*
X443399D01*
Y208195D01*
X444411D01*
Y207741D01*
D02*
G37*
G36*
X399829Y207184D02*
X399375D01*
X398818Y207741D01*
Y208195D01*
X399829D01*
Y207184D01*
D02*
G37*
G36*
X398030Y207741D02*
X397474Y207184D01*
X396274D01*
X395718Y207741D01*
Y208195D01*
X398030D01*
Y207741D01*
D02*
G37*
G36*
X394930D02*
X394373Y207184D01*
X393919D01*
Y208195D01*
X394930D01*
Y207741D01*
D02*
G37*
G36*
X349522Y207184D02*
X349067D01*
X348511Y207741D01*
Y208195D01*
X349522D01*
Y207184D01*
D02*
G37*
G36*
X347723Y207741D02*
X347166Y207184D01*
X345967D01*
X345411Y207741D01*
Y208195D01*
X347723D01*
Y207741D01*
D02*
G37*
G36*
X344623D02*
X344066Y207184D01*
X343612D01*
Y208195D01*
X344623D01*
Y207741D01*
D02*
G37*
G36*
X299431Y207184D02*
X298977D01*
X298420Y207741D01*
Y208195D01*
X299431D01*
Y207184D01*
D02*
G37*
G36*
X297633Y207741D02*
X297076Y207184D01*
X295877D01*
X295320Y207741D01*
Y208195D01*
X297633D01*
Y207741D01*
D02*
G37*
G36*
X294533D02*
X293976Y207184D01*
X293521D01*
Y208195D01*
X294533D01*
Y207741D01*
D02*
G37*
G36*
X249416Y207184D02*
X248961D01*
X248404Y207741D01*
Y208195D01*
X249416D01*
Y207184D01*
D02*
G37*
G36*
X247617Y207741D02*
X247060Y207184D01*
X245861D01*
X245304Y207741D01*
Y208195D01*
X247617D01*
Y207741D01*
D02*
G37*
G36*
X244517D02*
X243960Y207184D01*
X243506D01*
Y208195D01*
X244517D01*
Y207741D01*
D02*
G37*
G36*
X198471Y207184D02*
X198016D01*
X197459Y207741D01*
Y208195D01*
X198471D01*
Y207184D01*
D02*
G37*
G36*
X196672Y207741D02*
X196115Y207184D01*
X194916D01*
X194359Y207741D01*
Y208195D01*
X196672D01*
Y207741D01*
D02*
G37*
G36*
X193572D02*
X193015Y207184D01*
X192561D01*
Y208195D01*
X193572D01*
Y207741D01*
D02*
G37*
G36*
X148596Y207184D02*
X148141D01*
X147584Y207741D01*
Y208195D01*
X148596D01*
Y207184D01*
D02*
G37*
G36*
X146797Y207741D02*
X146240Y207184D01*
X145041D01*
X144484Y207741D01*
Y208195D01*
X146797D01*
Y207741D01*
D02*
G37*
G36*
X143697D02*
X143140Y207184D01*
X142686D01*
Y208195D01*
X143697D01*
Y207741D01*
D02*
G37*
G36*
X500061Y204084D02*
X499607D01*
X499050Y204641D01*
Y205840D01*
X499607Y206397D01*
X500061D01*
Y204084D01*
D02*
G37*
G36*
X498263Y205840D02*
Y204641D01*
X497706Y204084D01*
X496507D01*
X495950Y204641D01*
Y205840D01*
X496507Y206397D01*
X497706D01*
X498263Y205840D01*
D02*
G37*
G36*
X495163D02*
Y204641D01*
X494606Y204084D01*
X494151D01*
Y206397D01*
X494606D01*
X495163Y205840D01*
D02*
G37*
G36*
X449309Y204084D02*
X448855D01*
X448298Y204641D01*
Y205840D01*
X448855Y206397D01*
X449309D01*
Y204084D01*
D02*
G37*
G36*
X447511Y205840D02*
Y204641D01*
X446954Y204084D01*
X445755D01*
X445198Y204641D01*
Y205840D01*
X445755Y206397D01*
X446954D01*
X447511Y205840D01*
D02*
G37*
G36*
X444411D02*
Y204641D01*
X443854Y204084D01*
X443399D01*
Y206397D01*
X443854D01*
X444411Y205840D01*
D02*
G37*
G36*
X399829Y204084D02*
X399375D01*
X398818Y204641D01*
Y205840D01*
X399375Y206397D01*
X399829D01*
Y204084D01*
D02*
G37*
G36*
X398030Y205840D02*
Y204641D01*
X397474Y204084D01*
X396274D01*
X395718Y204641D01*
Y205840D01*
X396274Y206397D01*
X397474D01*
X398030Y205840D01*
D02*
G37*
G36*
X394930D02*
Y204641D01*
X394373Y204084D01*
X393919D01*
Y206397D01*
X394373D01*
X394930Y205840D01*
D02*
G37*
G36*
X349522Y204084D02*
X349067D01*
X348511Y204641D01*
Y205840D01*
X349067Y206397D01*
X349522D01*
Y204084D01*
D02*
G37*
G36*
X347723Y205840D02*
Y204641D01*
X347166Y204084D01*
X345967D01*
X345411Y204641D01*
Y205840D01*
X345967Y206397D01*
X347166D01*
X347723Y205840D01*
D02*
G37*
G36*
X344623D02*
Y204641D01*
X344066Y204084D01*
X343612D01*
Y206397D01*
X344066D01*
X344623Y205840D01*
D02*
G37*
G36*
X299431Y204084D02*
X298977D01*
X298420Y204641D01*
Y205840D01*
X298977Y206397D01*
X299431D01*
Y204084D01*
D02*
G37*
G36*
X297633Y205840D02*
Y204641D01*
X297076Y204084D01*
X295877D01*
X295320Y204641D01*
Y205840D01*
X295877Y206397D01*
X297076D01*
X297633Y205840D01*
D02*
G37*
G36*
X294533D02*
Y204641D01*
X293976Y204084D01*
X293521D01*
Y206397D01*
X293976D01*
X294533Y205840D01*
D02*
G37*
G36*
X249416Y204084D02*
X248961D01*
X248404Y204641D01*
Y205840D01*
X248961Y206397D01*
X249416D01*
Y204084D01*
D02*
G37*
G36*
X247617Y205840D02*
Y204641D01*
X247060Y204084D01*
X245861D01*
X245304Y204641D01*
Y205840D01*
X245861Y206397D01*
X247060D01*
X247617Y205840D01*
D02*
G37*
G36*
X244517D02*
Y204641D01*
X243960Y204084D01*
X243506D01*
Y206397D01*
X243960D01*
X244517Y205840D01*
D02*
G37*
G36*
X198471Y204084D02*
X198016D01*
X197459Y204641D01*
Y205840D01*
X198016Y206397D01*
X198471D01*
Y204084D01*
D02*
G37*
G36*
X196672Y205840D02*
Y204641D01*
X196115Y204084D01*
X194916D01*
X194359Y204641D01*
Y205840D01*
X194916Y206397D01*
X196115D01*
X196672Y205840D01*
D02*
G37*
G36*
X193572D02*
Y204641D01*
X193015Y204084D01*
X192561D01*
Y206397D01*
X193015D01*
X193572Y205840D01*
D02*
G37*
G36*
X148596Y204084D02*
X148141D01*
X147584Y204641D01*
Y205840D01*
X148141Y206397D01*
X148596D01*
Y204084D01*
D02*
G37*
G36*
X146797Y205840D02*
Y204641D01*
X146240Y204084D01*
X145041D01*
X144484Y204641D01*
Y205840D01*
X145041Y206397D01*
X146240D01*
X146797Y205840D01*
D02*
G37*
G36*
X143697D02*
Y204641D01*
X143140Y204084D01*
X142686D01*
Y206397D01*
X143140D01*
X143697Y205840D01*
D02*
G37*
G36*
X500061Y202285D02*
X499050D01*
Y202740D01*
X499607Y203296D01*
X500061D01*
Y202285D01*
D02*
G37*
G36*
X498263Y202740D02*
Y202285D01*
X495950D01*
Y202740D01*
X496507Y203296D01*
X497706D01*
X498263Y202740D01*
D02*
G37*
G36*
X495163D02*
Y202285D01*
X494151D01*
Y203296D01*
X494606D01*
X495163Y202740D01*
D02*
G37*
G36*
X449309Y202285D02*
X448298D01*
Y202740D01*
X448855Y203296D01*
X449309D01*
Y202285D01*
D02*
G37*
G36*
X447511Y202740D02*
Y202285D01*
X445198D01*
Y202740D01*
X445755Y203296D01*
X446954D01*
X447511Y202740D01*
D02*
G37*
G36*
X444411D02*
Y202285D01*
X443399D01*
Y203296D01*
X443854D01*
X444411Y202740D01*
D02*
G37*
G36*
X399829Y202285D02*
X398818D01*
Y202740D01*
X399375Y203296D01*
X399829D01*
Y202285D01*
D02*
G37*
G36*
X398030Y202740D02*
Y202285D01*
X395718D01*
Y202740D01*
X396274Y203296D01*
X397474D01*
X398030Y202740D01*
D02*
G37*
G36*
X394930D02*
Y202285D01*
X393919D01*
Y203296D01*
X394373D01*
X394930Y202740D01*
D02*
G37*
G36*
X349522Y202285D02*
X348511D01*
Y202740D01*
X349067Y203296D01*
X349522D01*
Y202285D01*
D02*
G37*
G36*
X347723Y202740D02*
Y202285D01*
X345411D01*
Y202740D01*
X345967Y203296D01*
X347166D01*
X347723Y202740D01*
D02*
G37*
G36*
X344623D02*
Y202285D01*
X343612D01*
Y203296D01*
X344066D01*
X344623Y202740D01*
D02*
G37*
G36*
X299431Y202285D02*
X298420D01*
Y202740D01*
X298977Y203296D01*
X299431D01*
Y202285D01*
D02*
G37*
G36*
X297633Y202740D02*
Y202285D01*
X295320D01*
Y202740D01*
X295877Y203296D01*
X297076D01*
X297633Y202740D01*
D02*
G37*
G36*
X294533D02*
Y202285D01*
X293521D01*
Y203296D01*
X293976D01*
X294533Y202740D01*
D02*
G37*
G36*
X249416Y202285D02*
X248404D01*
Y202740D01*
X248961Y203296D01*
X249416D01*
Y202285D01*
D02*
G37*
G36*
X247617Y202740D02*
Y202285D01*
X245304D01*
Y202740D01*
X245861Y203296D01*
X247060D01*
X247617Y202740D01*
D02*
G37*
G36*
X244517D02*
Y202285D01*
X243506D01*
Y203296D01*
X243960D01*
X244517Y202740D01*
D02*
G37*
G36*
X198471Y202285D02*
X197459D01*
Y202740D01*
X198016Y203296D01*
X198471D01*
Y202285D01*
D02*
G37*
G36*
X196672Y202740D02*
Y202285D01*
X194359D01*
Y202740D01*
X194916Y203296D01*
X196115D01*
X196672Y202740D01*
D02*
G37*
G36*
X193572D02*
Y202285D01*
X192561D01*
Y203296D01*
X193015D01*
X193572Y202740D01*
D02*
G37*
G36*
X148596Y202285D02*
X147584D01*
Y202740D01*
X148141Y203296D01*
X148596D01*
Y202285D01*
D02*
G37*
G36*
X146797Y202740D02*
Y202285D01*
X144484D01*
Y202740D01*
X145041Y203296D01*
X146240D01*
X146797Y202740D01*
D02*
G37*
G36*
X143697D02*
Y202285D01*
X142686D01*
Y203296D01*
X143140D01*
X143697Y202740D01*
D02*
G37*
D29*
X483649Y581865D02*
D03*
X483642Y575426D02*
D03*
Y568997D02*
D03*
X477227Y581865D02*
D03*
X470796Y581859D02*
D03*
X470790Y575420D02*
D03*
X477221Y575426D02*
D03*
X470790Y568991D02*
D03*
X477221Y568997D02*
D03*
D30*
X26955Y249408D02*
D03*
X31282Y249408D02*
D03*
X26955Y245082D02*
D03*
X31282Y245081D02*
D03*
D31*
X758572Y639654D02*
D03*
Y641717D02*
D03*
X756505Y639654D02*
D03*
Y641717D02*
D03*
X754447Y639654D02*
D03*
X754439Y641717D02*
D03*
X823219Y639760D02*
D03*
Y641823D02*
D03*
X821152Y639760D02*
D03*
Y641823D02*
D03*
X819092Y639760D02*
D03*
X819085Y641823D02*
D03*
D32*
X758572Y643788D02*
D03*
X756505D02*
D03*
X754352Y643803D02*
D03*
X823219Y643894D02*
D03*
X821152D02*
D03*
X818998Y643910D02*
D03*
D33*
X458691Y307349D02*
D03*
X462820Y307349D02*
D03*
X458691Y303216D02*
D03*
X462820Y303216D02*
D03*
X202468Y168536D02*
D03*
X202468Y164406D02*
D03*
X198335Y168536D02*
D03*
X198334Y164406D02*
D03*
X353414Y168535D02*
D03*
Y164406D02*
D03*
X349280Y168535D02*
D03*
Y164406D02*
D03*
X403785Y168542D02*
D03*
X403779Y164406D02*
D03*
X399651Y168542D02*
D03*
X399645Y164406D02*
D03*
X453236Y168535D02*
D03*
X453236Y164406D02*
D03*
X449102Y168535D02*
D03*
X449102Y164406D02*
D03*
X503989Y168529D02*
D03*
X503995Y164406D02*
D03*
X499855Y168529D02*
D03*
X499861Y164406D02*
D03*
X253433Y168529D02*
D03*
X253439Y164406D02*
D03*
X249299Y168529D02*
D03*
X249305Y164406D02*
D03*
X303429Y168542D02*
D03*
X303423Y164406D02*
D03*
X299295Y168542D02*
D03*
X299289Y164406D02*
D03*
X152599Y168535D02*
D03*
X152598Y164406D02*
D03*
X148465Y168535D02*
D03*
X148465Y164406D02*
D03*
D34*
X315243Y346808D02*
D03*
Y353863D02*
D03*
X315237Y339775D02*
D03*
X329312D02*
D03*
X322257D02*
D03*
X322263Y346808D02*
D03*
X329318D02*
D03*
X322263Y353863D02*
D03*
X329318D02*
D03*
D35*
X732200Y672980D02*
D03*
Y665500D02*
D03*
X722751D02*
D03*
Y669240D02*
D03*
Y672980D02*
D03*
D36*
X762700Y700028D02*
D03*
Y690972D02*
D03*
D37*
X779532Y699341D02*
D03*
Y701310D02*
D03*
Y703278D02*
D03*
Y705247D02*
D03*
X773528D02*
D03*
Y703278D02*
D03*
Y701310D02*
D03*
Y699341D02*
D03*
D38*
X777515Y705296D02*
D03*
X775546D02*
D03*
Y699292D02*
D03*
X777515D02*
D03*
D39*
X783837Y709382D02*
D03*
X780372D02*
D03*
X365932Y344300D02*
D03*
X362468D02*
D03*
X35873Y297721D02*
D03*
X39337D02*
D03*
X718715Y686700D02*
D03*
X715250D02*
D03*
X506856Y611485D02*
D03*
X503392D02*
D03*
X457515Y324525D02*
D03*
X454050D02*
D03*
X457485Y319997D02*
D03*
X454021D02*
D03*
X491335Y217547D02*
D03*
X494799D02*
D03*
X440496D02*
D03*
X443961D02*
D03*
X391016D02*
D03*
X394480D02*
D03*
X352339D02*
D03*
X348875D02*
D03*
X290618D02*
D03*
X294083D02*
D03*
X252233D02*
D03*
X248768D02*
D03*
X201288D02*
D03*
X197823D02*
D03*
X151386D02*
D03*
X147921D02*
D03*
X503053D02*
D03*
X499588D02*
D03*
X452127D02*
D03*
X448662D02*
D03*
X402646D02*
D03*
X399182D02*
D03*
X340709D02*
D03*
X344173D02*
D03*
X302249D02*
D03*
X298784D02*
D03*
X240602D02*
D03*
X244067D02*
D03*
X189657D02*
D03*
X193122D02*
D03*
X139823D02*
D03*
X143287D02*
D03*
X246388Y450089D02*
D03*
X242924D02*
D03*
X246388Y454201D02*
D03*
X242924D02*
D03*
X234905Y458639D02*
D03*
X231440D02*
D03*
X1125060Y733397D02*
D03*
X1128525D02*
D03*
X1139982D02*
D03*
X1143446D02*
D03*
X1155021D02*
D03*
X1158486D02*
D03*
X1170061D02*
D03*
X1173525D02*
D03*
X513941Y583306D02*
D03*
X510476D02*
D03*
X515017Y596668D02*
D03*
X511552D02*
D03*
X513941Y587547D02*
D03*
X510476D02*
D03*
X515017Y592140D02*
D03*
X511552D02*
D03*
X276985Y461598D02*
D03*
X273521D02*
D03*
X259783Y433859D02*
D03*
X256318D02*
D03*
X264116Y438260D02*
D03*
X260651Y438258D02*
D03*
X252629Y438260D02*
D03*
X256093D02*
D03*
D40*
X769442Y695444D02*
D03*
Y698908D02*
D03*
X761143Y788816D02*
D03*
Y785352D02*
D03*
X766142Y788816D02*
D03*
Y785352D02*
D03*
X770671Y788816D02*
D03*
Y785352D02*
D03*
X733357Y708194D02*
D03*
Y704729D02*
D03*
X829570Y717394D02*
D03*
Y713930D02*
D03*
X408108Y294187D02*
D03*
Y297652D02*
D03*
X408136Y307007D02*
D03*
Y303542D02*
D03*
X235360Y452052D02*
D03*
Y448588D02*
D03*
X230832Y452052D02*
D03*
Y448588D02*
D03*
X242338Y442213D02*
D03*
Y445678D02*
D03*
X247078Y442213D02*
D03*
Y445678D02*
D03*
X330448Y375484D02*
D03*
Y372020D02*
D03*
X334977Y375484D02*
D03*
Y372020D02*
D03*
X362280Y353965D02*
D03*
Y350500D02*
D03*
X358321Y353965D02*
D03*
Y350500D02*
D03*
X574996Y418913D02*
D03*
Y415449D02*
D03*
X579524Y418913D02*
D03*
Y415449D02*
D03*
X584287Y418913D02*
D03*
Y415449D02*
D03*
X496914Y440370D02*
D03*
Y436905D02*
D03*
X1114216Y755645D02*
D03*
Y752180D02*
D03*
X490946Y618131D02*
D03*
Y614666D02*
D03*
X478181Y603435D02*
D03*
Y599970D02*
D03*
X473653Y603435D02*
D03*
Y599970D02*
D03*
X472551Y610561D02*
D03*
Y614026D02*
D03*
D41*
X930100Y482600D02*
D03*
X190898Y563200D02*
D03*
Y628500D02*
D03*
X188207Y615717D02*
D03*
X110514Y622095D02*
D03*
X134327Y484236D02*
D03*
X1118561Y523324D02*
D03*
X178701Y360265D02*
D03*
X164723Y626371D02*
D03*
X425576Y603968D02*
D03*
X1122047Y302045D02*
D03*
X1126978Y446850D02*
D03*
X1120558Y377953D02*
D03*
X778583Y423228D02*
D03*
X544732Y334660D02*
D03*
X563096Y294202D02*
D03*
X532104Y268833D02*
D03*
X337224Y453543D02*
D03*
X166142Y567354D02*
D03*
X142370Y604331D02*
D03*
X177394Y566142D02*
D03*
X185827Y588000D02*
D03*
X177425Y623161D02*
D03*
X603150Y644095D02*
D03*
X438366Y548090D02*
D03*
X519186Y562062D02*
D03*
X524022Y640836D02*
D03*
X934931Y526552D02*
D03*
X937154Y383980D02*
D03*
X941650Y304423D02*
D03*
X932898Y449608D02*
D03*
D42*
X769300Y771762D02*
D03*
Y767038D02*
D03*
X327304Y762469D02*
D03*
Y767194D02*
D03*
X279128Y762645D02*
D03*
Y767370D02*
D03*
X823270Y717354D02*
D03*
Y712630D02*
D03*
X487448Y639701D02*
D03*
X487449Y644425D02*
D03*
X506182Y639701D02*
D03*
Y644425D02*
D03*
X984112Y755538D02*
D03*
Y750814D02*
D03*
D43*
X760882Y743808D02*
D03*
D44*
X758323Y743119D02*
D03*
Y744497D02*
D03*
D45*
X766397Y752560D02*
D03*
Y756300D02*
D03*
Y760040D02*
D03*
X777147D02*
D03*
Y756300D02*
D03*
Y752560D02*
D03*
D46*
X788700Y758156D02*
D03*
Y752644D02*
D03*
X788480Y770256D02*
D03*
Y764744D02*
D03*
X231787Y680834D02*
D03*
Y686344D02*
D03*
X908514Y701784D02*
D03*
X908516Y696272D02*
D03*
X244998Y685912D02*
D03*
X244998Y680399D02*
D03*
X643643Y818091D02*
D03*
Y812579D02*
D03*
X629975Y818091D02*
D03*
Y812579D02*
D03*
X623052Y818091D02*
D03*
Y812579D02*
D03*
X252100Y680723D02*
D03*
X252100Y686236D02*
D03*
X112461Y681189D02*
D03*
Y686701D02*
D03*
X222492Y465305D02*
D03*
Y459793D02*
D03*
X198158Y459808D02*
D03*
X198158Y465319D02*
D03*
X28954Y319438D02*
D03*
Y324950D02*
D03*
X1091465Y749933D02*
D03*
Y755446D02*
D03*
X37864Y664457D02*
D03*
Y658945D02*
D03*
X63977Y681189D02*
D03*
Y686701D02*
D03*
X75052Y664457D02*
D03*
Y658945D02*
D03*
X75102Y681189D02*
D03*
Y686701D02*
D03*
X176847Y658945D02*
D03*
Y664457D02*
D03*
X176783Y681190D02*
D03*
Y686702D02*
D03*
X154748Y658945D02*
D03*
Y664457D02*
D03*
X147268Y664457D02*
D03*
Y658945D02*
D03*
X147248Y681189D02*
D03*
Y686701D02*
D03*
X128965Y664457D02*
D03*
Y658945D02*
D03*
X119941Y686701D02*
D03*
Y681189D02*
D03*
X265567Y664457D02*
D03*
Y658945D02*
D03*
X265382Y680894D02*
D03*
Y686406D02*
D03*
X188244Y680923D02*
D03*
Y686435D02*
D03*
X46165Y681146D02*
D03*
Y686657D02*
D03*
X64171Y658945D02*
D03*
Y664457D02*
D03*
X56096Y664457D02*
D03*
Y658945D02*
D03*
X38645Y681191D02*
D03*
Y686702D02*
D03*
X56497Y681189D02*
D03*
Y686701D02*
D03*
X82882Y658945D02*
D03*
Y664457D02*
D03*
X101339Y658945D02*
D03*
Y664457D02*
D03*
X93858Y664457D02*
D03*
Y658945D02*
D03*
X82583Y681189D02*
D03*
Y686701D02*
D03*
X101339Y681189D02*
D03*
Y686701D02*
D03*
X93858Y681189D02*
D03*
Y686701D02*
D03*
X169367Y664457D02*
D03*
Y658945D02*
D03*
X169303Y681190D02*
D03*
Y686702D02*
D03*
X154728Y681189D02*
D03*
Y686701D02*
D03*
X136445Y658945D02*
D03*
Y664457D02*
D03*
X119495Y664452D02*
D03*
Y658940D02*
D03*
X136496Y681189D02*
D03*
Y686701D02*
D03*
X129016Y681189D02*
D03*
Y686701D02*
D03*
X111531Y658945D02*
D03*
Y664457D02*
D03*
X273047Y658945D02*
D03*
Y664457D02*
D03*
X272882Y681141D02*
D03*
Y686653D02*
D03*
X195346Y680923D02*
D03*
Y686435D02*
D03*
X45987Y658945D02*
D03*
Y664457D02*
D03*
X775592Y790902D02*
D03*
X775593Y785391D02*
D03*
X297807Y729418D02*
D03*
X297805Y723906D02*
D03*
X1101541Y702502D02*
D03*
X1101541Y708014D02*
D03*
X1099902Y663999D02*
D03*
X1099902Y658487D02*
D03*
X1109293Y752337D02*
D03*
Y757849D02*
D03*
X510069Y540265D02*
D03*
Y534753D02*
D03*
X429230Y618361D02*
D03*
Y612849D02*
D03*
X969151Y760830D02*
D03*
Y755318D02*
D03*
X271844Y400489D02*
D03*
Y406001D02*
D03*
X230672Y664173D02*
D03*
X230672Y658661D02*
D03*
X245220Y664173D02*
D03*
X245218Y658661D02*
D03*
X188079Y658945D02*
D03*
X188079Y664457D02*
D03*
X250750Y658661D02*
D03*
X250748Y664173D02*
D03*
X195559Y664457D02*
D03*
X195559Y658945D02*
D03*
X636809Y812579D02*
D03*
Y818091D02*
D03*
D47*
X174828Y745852D02*
D03*
Y752348D02*
D03*
X96899Y741252D02*
D03*
Y747748D02*
D03*
X478489Y614963D02*
D03*
Y609648D02*
D03*
X42434Y267523D02*
D03*
Y261027D02*
D03*
X717384Y672106D02*
D03*
Y678602D02*
D03*
X198158Y447704D02*
D03*
Y454200D02*
D03*
X278370Y400462D02*
D03*
Y393966D02*
D03*
X429213Y623027D02*
D03*
Y629523D02*
D03*
X966208Y790428D02*
D03*
Y796924D02*
D03*
D48*
X699724Y765138D02*
D03*
Y797815D02*
D03*
X753858D02*
D03*
Y765138D02*
D03*
D49*
X739409Y775374D02*
D03*
X735079D02*
D03*
X730748D02*
D03*
X726417D02*
D03*
X722087D02*
D03*
X717756D02*
D03*
X713425D02*
D03*
X709094D02*
D03*
D50*
X601550Y764206D02*
D03*
X345251D02*
D03*
D51*
X598577Y733112D02*
D03*
X597396Y700812D02*
D03*
X596215Y733112D02*
D03*
X595034Y700812D02*
D03*
X593853Y733112D02*
D03*
X592672Y700812D02*
D03*
X591491Y733112D02*
D03*
X590310Y700812D02*
D03*
X589129Y733112D02*
D03*
X587948Y700812D02*
D03*
X586767Y733112D02*
D03*
X585586Y700812D02*
D03*
X584405Y733112D02*
D03*
X583224Y700812D02*
D03*
X582043Y733112D02*
D03*
X580862Y700812D02*
D03*
X579681Y733112D02*
D03*
X578500Y700812D02*
D03*
X577319Y733112D02*
D03*
X576138Y700812D02*
D03*
X574957Y733112D02*
D03*
X573776Y700812D02*
D03*
X572595Y733112D02*
D03*
X571414Y700812D02*
D03*
X570233Y733112D02*
D03*
X569052Y700812D02*
D03*
X567871Y733112D02*
D03*
X566690Y700812D02*
D03*
X565509Y733112D02*
D03*
X564328Y700812D02*
D03*
X563147Y733112D02*
D03*
X561966Y700812D02*
D03*
X560785Y733112D02*
D03*
X559604Y700812D02*
D03*
X558423Y733112D02*
D03*
X557242Y700812D02*
D03*
X556061Y733112D02*
D03*
X554880Y700812D02*
D03*
X553699Y733112D02*
D03*
X552518Y700812D02*
D03*
X551337Y733112D02*
D03*
X550156Y700812D02*
D03*
X548975Y733112D02*
D03*
X547794Y700812D02*
D03*
X546613Y733112D02*
D03*
X545432Y700812D02*
D03*
X544251Y733112D02*
D03*
X543070Y700812D02*
D03*
X541889Y733112D02*
D03*
X540708Y700812D02*
D03*
X539527Y733112D02*
D03*
X538346Y700812D02*
D03*
X537165Y733112D02*
D03*
X535984Y700812D02*
D03*
X534803Y733112D02*
D03*
X533622Y700812D02*
D03*
X532441Y733112D02*
D03*
X531260Y700812D02*
D03*
X530079Y733112D02*
D03*
X528898Y700812D02*
D03*
X527717Y733112D02*
D03*
X526536Y700812D02*
D03*
X525355Y733112D02*
D03*
X524174Y700812D02*
D03*
X522993Y733112D02*
D03*
X521812Y700812D02*
D03*
X520631Y733112D02*
D03*
X519450Y700812D02*
D03*
X518269Y733112D02*
D03*
X517088Y700812D02*
D03*
X515907Y733112D02*
D03*
X514726Y700812D02*
D03*
X513545Y733112D02*
D03*
X512364Y700812D02*
D03*
X511183Y733112D02*
D03*
X510002Y700812D02*
D03*
X508821Y733112D02*
D03*
X507640Y700812D02*
D03*
X506459Y733112D02*
D03*
X505278Y700812D02*
D03*
X504097Y733112D02*
D03*
X502916Y700812D02*
D03*
X501735Y733112D02*
D03*
X500554Y700812D02*
D03*
X499373Y733112D02*
D03*
X498192Y700812D02*
D03*
X497011Y733112D02*
D03*
X495830Y700812D02*
D03*
X494649Y733112D02*
D03*
X493468Y700812D02*
D03*
X492287Y733112D02*
D03*
X491106Y700812D02*
D03*
X489925Y733112D02*
D03*
X488744Y700812D02*
D03*
X487563Y733112D02*
D03*
X486382Y700812D02*
D03*
X485201Y733112D02*
D03*
X484020Y700812D02*
D03*
X482839Y733112D02*
D03*
X481658Y700812D02*
D03*
X480477Y733112D02*
D03*
X479296Y700812D02*
D03*
X478115Y733112D02*
D03*
X476934Y700812D02*
D03*
X475753Y733112D02*
D03*
X474572Y700812D02*
D03*
X473391Y733112D02*
D03*
X472210Y700812D02*
D03*
X471029Y733112D02*
D03*
X469848Y700812D02*
D03*
X468667Y733112D02*
D03*
X467486Y700812D02*
D03*
X466305Y733112D02*
D03*
X465124Y700812D02*
D03*
X463943Y733112D02*
D03*
X462762Y700812D02*
D03*
X461581Y733112D02*
D03*
X460400Y700812D02*
D03*
X459219Y733112D02*
D03*
X458038Y700812D02*
D03*
X456857Y733112D02*
D03*
X455676Y700812D02*
D03*
X454495Y733112D02*
D03*
X453314Y700812D02*
D03*
X452133Y733112D02*
D03*
X450952Y700812D02*
D03*
X449771Y733112D02*
D03*
X448590Y700812D02*
D03*
X447409Y733112D02*
D03*
X446228Y700812D02*
D03*
X445047Y733112D02*
D03*
X443866Y700812D02*
D03*
X442685Y733112D02*
D03*
X441504Y700812D02*
D03*
X440323Y733112D02*
D03*
X439142Y700812D02*
D03*
X437961Y733112D02*
D03*
X436780Y700812D02*
D03*
X435599Y733112D02*
D03*
X434418Y700812D02*
D03*
X433237Y733112D02*
D03*
X432056Y700812D02*
D03*
X430875Y733112D02*
D03*
X429694Y700812D02*
D03*
X428513Y733112D02*
D03*
X427332Y700812D02*
D03*
X426151Y733112D02*
D03*
X424970Y700812D02*
D03*
X423789Y733112D02*
D03*
X422608Y700812D02*
D03*
X421427Y733112D02*
D03*
X420246Y700812D02*
D03*
X419065Y733112D02*
D03*
X417884Y700812D02*
D03*
X416703Y733112D02*
D03*
X415522Y700812D02*
D03*
X414341Y733112D02*
D03*
X413160Y700812D02*
D03*
X411979Y733112D02*
D03*
X410798Y700812D02*
D03*
X395444Y733112D02*
D03*
X394263Y700812D02*
D03*
X393082Y733112D02*
D03*
X391901Y700812D02*
D03*
X390720Y733112D02*
D03*
X389539Y700812D02*
D03*
X388358Y733112D02*
D03*
X387177Y700812D02*
D03*
X385996Y733112D02*
D03*
X384815Y700812D02*
D03*
X383634Y733112D02*
D03*
X382453Y700812D02*
D03*
X381272Y733112D02*
D03*
X380091Y700812D02*
D03*
X378910Y733112D02*
D03*
X377729Y700812D02*
D03*
X376548Y733112D02*
D03*
X375367Y700812D02*
D03*
X374186Y733112D02*
D03*
X373005Y700812D02*
D03*
X371824Y733112D02*
D03*
X370643Y700812D02*
D03*
X369462Y733112D02*
D03*
X368281Y700812D02*
D03*
X367100Y733112D02*
D03*
X365919Y700812D02*
D03*
X364738Y733112D02*
D03*
X363557Y700812D02*
D03*
X362376Y733112D02*
D03*
X361195Y700812D02*
D03*
X360014Y733112D02*
D03*
X358833Y700812D02*
D03*
X357652Y733112D02*
D03*
X356471Y700812D02*
D03*
X355290Y733112D02*
D03*
X354109Y700812D02*
D03*
X352928Y733112D02*
D03*
X351747Y700812D02*
D03*
X350566Y733112D02*
D03*
X349385Y700812D02*
D03*
D52*
X1190370Y620275D02*
D03*
Y618306D02*
D03*
Y616338D02*
D03*
Y614369D02*
D03*
Y612401D02*
D03*
Y592125D02*
D03*
Y594094D02*
D03*
Y596062D02*
D03*
Y598031D02*
D03*
Y599999D02*
D03*
D53*
X490737Y609148D02*
D03*
X485423D02*
D03*
X77367Y750522D02*
D03*
X70871D02*
D03*
X727904Y678712D02*
D03*
X734400D02*
D03*
X561163Y643118D02*
D03*
X554667D02*
D03*
X305668Y692449D02*
D03*
X299172D02*
D03*
X305677Y698213D02*
D03*
X299181D02*
D03*
X1188197Y326441D02*
D03*
X1181701Y326439D02*
D03*
Y302330D02*
D03*
X1188197Y302331D02*
D03*
X1181701Y310367D02*
D03*
X1188197Y310366D02*
D03*
X517785Y506996D02*
D03*
X524281D02*
D03*
X231896Y435772D02*
D03*
X225400Y435773D02*
D03*
X78676Y548969D02*
D03*
X85173Y548970D02*
D03*
X129886Y419358D02*
D03*
X123390D02*
D03*
X252941Y348125D02*
D03*
X246445D02*
D03*
X756333Y270943D02*
D03*
X749837D02*
D03*
D54*
X1063240Y135780D02*
D03*
X1055760D02*
D03*
Y145820D02*
D03*
X1059500D02*
D03*
X1063240D02*
D03*
X1141940Y135780D02*
D03*
X1134460D02*
D03*
Y145820D02*
D03*
X1138200D02*
D03*
X1141940D02*
D03*
D55*
X265124Y788575D02*
D03*
X249376D02*
D03*
X265124Y765740D02*
D03*
X249376D02*
D03*
X1009108Y777927D02*
D03*
X993360D02*
D03*
X1009108Y755092D02*
D03*
X993360D02*
D03*
X296644Y765929D02*
D03*
X312392D02*
D03*
X296644Y788763D02*
D03*
X312392D02*
D03*
D56*
X649559Y736557D02*
D03*
X646212D02*
D03*
X649559Y729274D02*
D03*
X646212D02*
D03*
X1097177Y743724D02*
D03*
X1100524Y743724D02*
D03*
X487315Y402149D02*
D03*
X490661D02*
D03*
X974367Y755318D02*
D03*
X977713D02*
D03*
X226632Y471846D02*
D03*
X223286D02*
D03*
X226632Y476374D02*
D03*
X223286D02*
D03*
X226632Y480903D02*
D03*
X223286D02*
D03*
X226632Y485431D02*
D03*
X223286D02*
D03*
X272578Y482859D02*
D03*
X275925D02*
D03*
X272578Y478330D02*
D03*
X275925D02*
D03*
X272578Y473802D02*
D03*
X275925D02*
D03*
X272578Y469273D02*
D03*
X275925D02*
D03*
X287697Y338968D02*
D03*
X291043Y338969D02*
D03*
X490661Y393092D02*
D03*
X487315D02*
D03*
X490661Y397620D02*
D03*
X487315D02*
D03*
X490661Y406677D02*
D03*
X487315D02*
D03*
X490661Y411206D02*
D03*
X487315D02*
D03*
X490661Y416862D02*
D03*
X487315D02*
D03*
X490661Y420928D02*
D03*
X487315D02*
D03*
X490661Y425456D02*
D03*
X487315D02*
D03*
X490661Y430614D02*
D03*
X487315D02*
D03*
X1079213Y642153D02*
D03*
X1075866D02*
D03*
X1079213Y732492D02*
D03*
X1075866D02*
D03*
D57*
X629077Y729433D02*
D03*
Y733173D02*
D03*
Y736913D02*
D03*
X619038D02*
D03*
Y729433D02*
D03*
D58*
X202550Y752568D02*
D03*
Y750600D02*
D03*
Y748631D02*
D03*
X209050D02*
D03*
Y750600D02*
D03*
Y752568D02*
D03*
X1097274Y754370D02*
D03*
Y752402D02*
D03*
Y750433D02*
D03*
X1103774D02*
D03*
Y752402D02*
D03*
Y754370D02*
D03*
D59*
X522432Y111876D02*
D03*
X488968D02*
D03*
X471732D02*
D03*
X438268D02*
D03*
X422232D02*
D03*
X388768D02*
D03*
X371832D02*
D03*
X338368D02*
D03*
X321932D02*
D03*
X288468D02*
D03*
X271732D02*
D03*
X238268D02*
D03*
X220732D02*
D03*
X187268D02*
D03*
X171248D02*
D03*
X137784D02*
D03*
D60*
X505700Y111286D02*
D03*
X455000D02*
D03*
X405500D02*
D03*
X355100D02*
D03*
X305200D02*
D03*
X255000D02*
D03*
X204000D02*
D03*
X154516D02*
D03*
D61*
X192787Y130709D02*
D03*
X195346D02*
D03*
X197906D02*
D03*
Y137008D02*
D03*
X195346D02*
D03*
X192787D02*
D03*
X143405Y130709D02*
D03*
X145965D02*
D03*
X148524D02*
D03*
Y137008D02*
D03*
X145965D02*
D03*
X143405D02*
D03*
X344268Y130709D02*
D03*
X346827D02*
D03*
X349386D02*
D03*
Y137008D02*
D03*
X346827D02*
D03*
X344268D02*
D03*
X494803D02*
D03*
X497362D02*
D03*
X499921D02*
D03*
Y130709D02*
D03*
X497362D02*
D03*
X494803D02*
D03*
X443705Y137008D02*
D03*
X446264D02*
D03*
X448823D02*
D03*
Y130709D02*
D03*
X446264D02*
D03*
X443705D02*
D03*
X394493Y137008D02*
D03*
X397051D02*
D03*
X399611D02*
D03*
Y130709D02*
D03*
X397053D02*
D03*
X394493D02*
D03*
X294195Y137008D02*
D03*
X296754D02*
D03*
X299313D02*
D03*
Y130709D02*
D03*
X296754D02*
D03*
X294195D02*
D03*
X243984Y137008D02*
D03*
X246543D02*
D03*
X249102D02*
D03*
Y130709D02*
D03*
X246543D02*
D03*
X243984D02*
D03*
D62*
X921800Y701800D02*
D03*
X925540Y693800D02*
D03*
X918060D02*
D03*
D63*
X231787Y699031D02*
D03*
Y692732D02*
D03*
X244998Y692866D02*
D03*
Y699165D02*
D03*
X252100Y692831D02*
D03*
Y699130D02*
D03*
X195346Y693356D02*
D03*
Y699656D02*
D03*
X188244Y693356D02*
D03*
Y699656D02*
D03*
X265382Y693358D02*
D03*
Y699657D02*
D03*
X272882Y693358D02*
D03*
Y699657D02*
D03*
X45881Y693408D02*
D03*
Y699708D02*
D03*
X37608Y693262D02*
D03*
Y699561D02*
D03*
X63842Y693417D02*
D03*
Y699717D02*
D03*
X56398Y693406D02*
D03*
Y699706D02*
D03*
X82583Y693417D02*
D03*
Y699717D02*
D03*
X75102Y693417D02*
D03*
Y699717D02*
D03*
X101339Y693417D02*
D03*
Y699717D02*
D03*
X93858Y693417D02*
D03*
Y699717D02*
D03*
X169303Y693417D02*
D03*
Y699717D02*
D03*
X176784Y693417D02*
D03*
Y699717D02*
D03*
X147248Y693417D02*
D03*
Y699717D02*
D03*
X154728Y693417D02*
D03*
Y699717D02*
D03*
X136496Y693417D02*
D03*
Y699717D02*
D03*
X129016Y693417D02*
D03*
Y699717D02*
D03*
X119941D02*
D03*
Y693417D02*
D03*
X112461Y699717D02*
D03*
Y693417D02*
D03*
D64*
X896882Y819983D02*
D03*
X899441D02*
D03*
X902000D02*
D03*
X904559D02*
D03*
X907118D02*
D03*
D65*
X148618Y754468D02*
D03*
X141925D02*
D03*
X41357Y304218D02*
D03*
X34664Y304217D02*
D03*
D66*
X287167Y355976D02*
D03*
Y352827D02*
D03*
D67*
X895807Y746384D02*
D03*
X897775D02*
D03*
X899743D02*
D03*
X901712D02*
D03*
X903681D02*
D03*
X895807Y763903D02*
D03*
X897775D02*
D03*
X899743D02*
D03*
X901712D02*
D03*
X903681D02*
D03*
D68*
X88717Y741179D02*
D03*
Y747085D02*
D03*
X165274Y751642D02*
D03*
Y745736D02*
D03*
D69*
X674318Y814052D02*
D03*
Y806178D02*
D03*
Y798304D02*
D03*
Y790430D02*
D03*
Y782556D02*
D03*
Y774682D02*
D03*
Y766808D02*
D03*
X657546D02*
D03*
Y774682D02*
D03*
Y782556D02*
D03*
Y790430D02*
D03*
Y798304D02*
D03*
Y806178D02*
D03*
Y814052D02*
D03*
D70*
X247443Y152943D02*
D03*
X243112D02*
D03*
X408323Y311385D02*
D03*
X412654D02*
D03*
X441311Y304078D02*
D03*
X445642D02*
D03*
X447673Y289477D02*
D03*
X443342D02*
D03*
X408323Y289475D02*
D03*
X412654D02*
D03*
X476925Y188638D02*
D03*
X481256D02*
D03*
X498061Y152945D02*
D03*
X493731D02*
D03*
X426173Y188850D02*
D03*
X430504D02*
D03*
X447323Y152945D02*
D03*
X442992D02*
D03*
X397870Y152943D02*
D03*
X393539D02*
D03*
X376693Y188850D02*
D03*
X381024D02*
D03*
X326343D02*
D03*
X330673D02*
D03*
X347500Y152945D02*
D03*
X343169D02*
D03*
X276295Y188850D02*
D03*
X280626D02*
D03*
X297516Y152943D02*
D03*
X293185D02*
D03*
X226279Y188850D02*
D03*
X230610D02*
D03*
X175335D02*
D03*
X179665D02*
D03*
X196476Y152941D02*
D03*
X192146D02*
D03*
X473059Y309114D02*
D03*
X477391D02*
D03*
X146682Y152941D02*
D03*
X142351D02*
D03*
X126475Y188878D02*
D03*
X130806D02*
D03*
D71*
X283183Y352539D02*
D03*
X279640D02*
D03*
X442449Y501768D02*
D03*
X445992D02*
D03*
X442449Y489921D02*
D03*
X445992D02*
D03*
X1162448Y235059D02*
D03*
X1165991D02*
D03*
X1156549Y241492D02*
D03*
X1160092D02*
D03*
X420342Y311385D02*
D03*
X423886D02*
D03*
X438651Y295932D02*
D03*
X435107D02*
D03*
X438453Y289477D02*
D03*
X434909D02*
D03*
X427626D02*
D03*
X431169D02*
D03*
X420342Y289475D02*
D03*
X423886D02*
D03*
X504480Y222913D02*
D03*
X508024D02*
D03*
Y191983D02*
D03*
X504480Y191984D02*
D03*
X489689Y222913D02*
D03*
X486146D02*
D03*
X438937D02*
D03*
X435394D02*
D03*
X453728D02*
D03*
X457272D02*
D03*
Y192168D02*
D03*
X453728Y192169D02*
D03*
X404248Y222913D02*
D03*
X407791D02*
D03*
X389457D02*
D03*
X385913D02*
D03*
X407791Y192083D02*
D03*
X404248D02*
D03*
X353941Y222913D02*
D03*
X357484D02*
D03*
X339106D02*
D03*
X335563D02*
D03*
X357484Y192083D02*
D03*
X353941D02*
D03*
X307437D02*
D03*
X303894D02*
D03*
X304075Y222913D02*
D03*
X307618D02*
D03*
X289059D02*
D03*
X285516D02*
D03*
X257421Y192083D02*
D03*
X253878D02*
D03*
Y222941D02*
D03*
X257421D02*
D03*
X239043Y222913D02*
D03*
X235500D02*
D03*
X202961D02*
D03*
X206504D02*
D03*
Y192168D02*
D03*
X202961D02*
D03*
X188098Y222913D02*
D03*
X184555D02*
D03*
X349977Y307221D02*
D03*
X346433D02*
D03*
X342764D02*
D03*
X339220D02*
D03*
X335551D02*
D03*
X332008D02*
D03*
X328318D02*
D03*
X324775D02*
D03*
X320741D02*
D03*
X317198D02*
D03*
X313452D02*
D03*
X309909D02*
D03*
X306307D02*
D03*
X302764D02*
D03*
X299060D02*
D03*
X295517D02*
D03*
X44548Y253326D02*
D03*
X48092D02*
D03*
X44548Y248979D02*
D03*
X48092D02*
D03*
X44548Y244631D02*
D03*
X48092D02*
D03*
X43740Y240279D02*
D03*
X47283D02*
D03*
X110278Y175131D02*
D03*
X106734D02*
D03*
X110278Y192671D02*
D03*
X106734D02*
D03*
X110278Y210994D02*
D03*
X106734D02*
D03*
X110278Y228064D02*
D03*
X106734D02*
D03*
X110278Y245308D02*
D03*
X106734D02*
D03*
X110278Y263242D02*
D03*
X106734D02*
D03*
X110278Y302887D02*
D03*
X106734D02*
D03*
X357942Y310266D02*
D03*
X361486D02*
D03*
X808228Y655864D02*
D03*
X804685D02*
D03*
X850933Y643957D02*
D03*
X847390D02*
D03*
X850933Y631551D02*
D03*
X847390D02*
D03*
X850933Y635685D02*
D03*
X847390D02*
D03*
X850933Y639819D02*
D03*
X847390D02*
D03*
X850933Y648091D02*
D03*
X847390D02*
D03*
X792480Y635961D02*
D03*
X796024D02*
D03*
X792480Y644232D02*
D03*
X796024D02*
D03*
X792480Y640098D02*
D03*
X796024D02*
D03*
X792480Y648366D02*
D03*
X796024D02*
D03*
X792480Y652504D02*
D03*
X796024D02*
D03*
X783693Y631194D02*
D03*
X780150D02*
D03*
X783693Y639464D02*
D03*
X780150D02*
D03*
X783693Y635329D02*
D03*
X780150D02*
D03*
X783693Y643598D02*
D03*
X780150D02*
D03*
X783693Y647733D02*
D03*
X780150D02*
D03*
X723992Y652024D02*
D03*
X727535D02*
D03*
X723992Y647890D02*
D03*
X727535D02*
D03*
X723992Y643752D02*
D03*
X727535D02*
D03*
X723992Y639619D02*
D03*
X727535D02*
D03*
X723992Y635484D02*
D03*
X727535D02*
D03*
X723992Y631350D02*
D03*
X727535D02*
D03*
X110278Y283084D02*
D03*
X106734D02*
D03*
X110278Y321352D02*
D03*
X106734D02*
D03*
X427626Y311385D02*
D03*
X431169D02*
D03*
X359024Y344262D02*
D03*
X355481D02*
D03*
X286929Y334594D02*
D03*
X283386D02*
D03*
X286984Y331209D02*
D03*
X283441D02*
D03*
X153079Y222913D02*
D03*
X156622D02*
D03*
X138224D02*
D03*
X134681D02*
D03*
X156646Y192032D02*
D03*
X153102D02*
D03*
X621117Y795553D02*
D03*
X617573D02*
D03*
X621117Y807709D02*
D03*
X617573D02*
D03*
X451299Y576378D02*
D03*
X454843D02*
D03*
X617573Y801387D02*
D03*
X621117D02*
D03*
X617131Y789241D02*
D03*
X620674D02*
D03*
D72*
X155817Y736063D02*
D03*
Y738622D02*
D03*
Y741181D02*
D03*
Y743740D02*
D03*
X132588Y736063D02*
D03*
Y738622D02*
D03*
Y741181D02*
D03*
Y743740D02*
D03*
X81258Y736063D02*
D03*
Y738622D02*
D03*
Y741181D02*
D03*
Y743740D02*
D03*
X58031Y736063D02*
D03*
X58030Y738622D02*
D03*
Y741181D02*
D03*
Y743740D02*
D03*
D73*
X255866Y429815D02*
D03*
Y426272D02*
D03*
X445913Y497614D02*
D03*
Y494071D02*
D03*
X403563Y307810D02*
D03*
Y311353D02*
D03*
Y293117D02*
D03*
Y289573D02*
D03*
X508024Y199677D02*
D03*
Y196134D02*
D03*
Y206961D02*
D03*
Y203417D02*
D03*
X486146Y206961D02*
D03*
Y203417D02*
D03*
Y199677D02*
D03*
Y196134D02*
D03*
X490280Y188850D02*
D03*
Y192394D02*
D03*
X486146Y188850D02*
D03*
Y192394D02*
D03*
X435394Y199677D02*
D03*
Y196134D02*
D03*
Y206961D02*
D03*
Y203417D02*
D03*
X457272Y206961D02*
D03*
Y203417D02*
D03*
X439529Y188850D02*
D03*
Y192394D02*
D03*
X435394Y188850D02*
D03*
Y192394D02*
D03*
X407791Y199677D02*
D03*
Y196134D02*
D03*
Y206961D02*
D03*
Y203417D02*
D03*
X385913Y206961D02*
D03*
Y203417D02*
D03*
Y199677D02*
D03*
Y196134D02*
D03*
X390048Y188850D02*
D03*
Y192394D02*
D03*
X385913Y188850D02*
D03*
Y192394D02*
D03*
X357484Y199677D02*
D03*
Y196134D02*
D03*
Y206961D02*
D03*
Y203417D02*
D03*
X335563Y206961D02*
D03*
Y203417D02*
D03*
Y199677D02*
D03*
Y196134D02*
D03*
Y188850D02*
D03*
Y192394D02*
D03*
X339698Y188850D02*
D03*
Y192394D02*
D03*
X307618Y199677D02*
D03*
Y196134D02*
D03*
Y206961D02*
D03*
Y203417D02*
D03*
X285516Y206961D02*
D03*
Y203417D02*
D03*
Y199677D02*
D03*
Y196134D02*
D03*
X289651Y188850D02*
D03*
Y192394D02*
D03*
X285516Y188850D02*
D03*
Y192394D02*
D03*
X257421Y199677D02*
D03*
Y196134D02*
D03*
Y206961D02*
D03*
Y203417D02*
D03*
X235500Y206961D02*
D03*
Y203417D02*
D03*
Y199677D02*
D03*
Y196134D02*
D03*
X239635Y188850D02*
D03*
Y192394D02*
D03*
X235500Y188850D02*
D03*
Y192394D02*
D03*
X206504Y206961D02*
D03*
Y203417D02*
D03*
X184555Y206961D02*
D03*
Y203417D02*
D03*
Y199677D02*
D03*
Y196134D02*
D03*
X188690Y188850D02*
D03*
Y192394D02*
D03*
X35679Y231016D02*
D03*
Y227472D02*
D03*
X31332Y231016D02*
D03*
Y227472D02*
D03*
X26984Y231016D02*
D03*
Y227472D02*
D03*
X22637Y231016D02*
D03*
Y227472D02*
D03*
X15477Y240782D02*
D03*
Y237239D02*
D03*
X114258Y175133D02*
D03*
Y171590D02*
D03*
X102797Y175133D02*
D03*
Y171590D02*
D03*
X114258Y192671D02*
D03*
Y189127D02*
D03*
X102797Y192671D02*
D03*
Y189127D02*
D03*
X114258Y210994D02*
D03*
Y207450D02*
D03*
X102797Y210994D02*
D03*
Y207450D02*
D03*
X114258Y228064D02*
D03*
Y224521D02*
D03*
X102797Y228064D02*
D03*
Y224521D02*
D03*
X114258Y245308D02*
D03*
Y241765D02*
D03*
X102797Y245309D02*
D03*
Y241765D02*
D03*
Y263240D02*
D03*
Y259697D02*
D03*
X114258Y283088D02*
D03*
Y279545D02*
D03*
X102799Y302887D02*
D03*
Y299344D02*
D03*
X830267Y615976D02*
D03*
Y619520D02*
D03*
X825936Y615976D02*
D03*
Y619520D02*
D03*
X821802Y615976D02*
D03*
Y619520D02*
D03*
X817666Y615976D02*
D03*
Y619520D02*
D03*
X813531Y615976D02*
D03*
Y619520D02*
D03*
X765443Y615976D02*
D03*
Y619520D02*
D03*
X761096Y615975D02*
D03*
Y619518D02*
D03*
X756748Y615975D02*
D03*
Y619518D02*
D03*
X752251Y615975D02*
D03*
Y619518D02*
D03*
X748053Y615975D02*
D03*
Y619518D02*
D03*
X269898Y465167D02*
D03*
Y461623D02*
D03*
X114258Y263242D02*
D03*
Y259697D02*
D03*
X102797Y283082D02*
D03*
Y279545D02*
D03*
X114258Y302887D02*
D03*
Y299344D02*
D03*
X102797Y321352D02*
D03*
Y317809D02*
D03*
X114258Y321352D02*
D03*
Y317809D02*
D03*
X435304Y311385D02*
D03*
Y314929D02*
D03*
X457272Y199677D02*
D03*
Y196134D02*
D03*
X206504Y199650D02*
D03*
Y196106D02*
D03*
X184555Y188850D02*
D03*
Y192394D02*
D03*
X134681Y206961D02*
D03*
Y203417D02*
D03*
X156622Y206961D02*
D03*
Y203417D02*
D03*
X138816Y188850D02*
D03*
Y192394D02*
D03*
X134681Y188850D02*
D03*
Y192394D02*
D03*
Y199677D02*
D03*
Y196134D02*
D03*
X156622Y199650D02*
D03*
Y196106D02*
D03*
X466370Y549535D02*
D03*
Y553079D02*
D03*
X506082Y583602D02*
D03*
Y587145D02*
D03*
X507169Y596014D02*
D03*
Y592471D02*
D03*
X33999Y259619D02*
D03*
Y263162D02*
D03*
X260234Y426272D02*
D03*
Y429815D02*
D03*
X294075Y349488D02*
D03*
Y345945D02*
D03*
X353165Y364266D02*
D03*
X353164Y360723D02*
D03*
X357298Y364198D02*
D03*
Y360655D02*
D03*
X501661Y445520D02*
D03*
Y441976D02*
D03*
D74*
X33999Y290244D02*
D03*
X18644D02*
D03*
Y270244D02*
D03*
X33999D02*
D03*
D75*
X524398Y690550D02*
D03*
Y687006D02*
D03*
D76*
X441162Y528838D02*
D03*
X437146D02*
D03*
X440637Y506464D02*
D03*
X436621D02*
D03*
D77*
X436838Y522354D02*
D03*
X440420Y522354D02*
D03*
X436838Y512913D02*
D03*
X440420Y512913D02*
D03*
X937049Y804343D02*
D03*
X940632D02*
D03*
X816188Y717354D02*
D03*
X812605D02*
D03*
X500868Y623527D02*
D03*
X497285Y623528D02*
D03*
X784690Y783537D02*
D03*
X781108D02*
D03*
X363266Y370074D02*
D03*
X366849D02*
D03*
D78*
X445913Y506464D02*
D03*
Y510007D02*
D03*
Y515834D02*
D03*
Y519377D02*
D03*
Y525294D02*
D03*
Y528838D02*
D03*
D79*
X357383Y370074D02*
D03*
Y376570D02*
D03*
D80*
X34762Y331666D02*
D03*
X41258D02*
D03*
X34705Y312913D02*
D03*
X41201D02*
D03*
D81*
X491960Y592647D02*
D03*
X489991D02*
D03*
X488023D02*
D03*
X486054D02*
D03*
X484086D02*
D03*
X482117D02*
D03*
X480149D02*
D03*
X478180D02*
D03*
X476212D02*
D03*
X474243D02*
D03*
X472275D02*
D03*
X470306D02*
D03*
X468338D02*
D03*
X466369D02*
D03*
X464401D02*
D03*
X462432D02*
D03*
Y558198D02*
D03*
X464401D02*
D03*
X466369D02*
D03*
X468338D02*
D03*
X470306D02*
D03*
X472275D02*
D03*
X474243D02*
D03*
X476212D02*
D03*
X478180D02*
D03*
X480149D02*
D03*
X482117D02*
D03*
X484086D02*
D03*
X486054D02*
D03*
X488023D02*
D03*
X489991D02*
D03*
X491960D02*
D03*
D82*
X459971Y590186D02*
D03*
Y588217D02*
D03*
Y586249D02*
D03*
Y584280D02*
D03*
Y582312D02*
D03*
Y580343D02*
D03*
Y578375D02*
D03*
Y576406D02*
D03*
Y574438D02*
D03*
Y572470D02*
D03*
Y570501D02*
D03*
Y568533D02*
D03*
Y566564D02*
D03*
Y564596D02*
D03*
Y562627D02*
D03*
Y560659D02*
D03*
X494420D02*
D03*
Y562627D02*
D03*
Y564596D02*
D03*
Y566564D02*
D03*
Y568533D02*
D03*
Y570501D02*
D03*
Y572470D02*
D03*
Y574438D02*
D03*
Y576406D02*
D03*
Y578375D02*
D03*
Y580343D02*
D03*
Y582312D02*
D03*
Y584280D02*
D03*
Y586249D02*
D03*
Y588217D02*
D03*
Y590186D02*
D03*
D83*
X1087201Y732492D02*
D03*
X1100783D02*
D03*
X1087201Y642134D02*
D03*
X1100784D02*
D03*
D84*
X34011Y239848D02*
D03*
X32043D02*
D03*
X30074D02*
D03*
X28106D02*
D03*
X26137D02*
D03*
X24169D02*
D03*
Y254612D02*
D03*
X26137D02*
D03*
X28106D02*
D03*
X30074D02*
D03*
X32043D02*
D03*
X34011D02*
D03*
D85*
X21708Y242309D02*
D03*
Y244278D02*
D03*
Y246246D02*
D03*
Y248215D02*
D03*
Y250183D02*
D03*
Y252153D02*
D03*
X36472Y252152D02*
D03*
Y250183D02*
D03*
Y248215D02*
D03*
Y246246D02*
D03*
Y244278D02*
D03*
Y242309D02*
D03*
D86*
X751594Y648866D02*
D03*
X753563D02*
D03*
X755531D02*
D03*
X757500D02*
D03*
X759468D02*
D03*
X761437D02*
D03*
Y634693D02*
D03*
X759468D02*
D03*
X757500D02*
D03*
X755531D02*
D03*
X753563D02*
D03*
X751594D02*
D03*
X816240Y648972D02*
D03*
X818209D02*
D03*
X820177D02*
D03*
X822146D02*
D03*
X824114D02*
D03*
X826083D02*
D03*
Y634799D02*
D03*
X824114D02*
D03*
X822146D02*
D03*
X820177D02*
D03*
X818209D02*
D03*
X816240D02*
D03*
D87*
X763602Y646701D02*
D03*
Y644732D02*
D03*
Y642764D02*
D03*
Y640795D02*
D03*
Y638827D02*
D03*
Y636858D02*
D03*
X749429D02*
D03*
Y638827D02*
D03*
Y640795D02*
D03*
Y642764D02*
D03*
Y644732D02*
D03*
Y646701D02*
D03*
X828248Y646807D02*
D03*
Y644839D02*
D03*
Y642870D02*
D03*
Y640902D02*
D03*
Y638933D02*
D03*
Y636965D02*
D03*
X814075D02*
D03*
Y638933D02*
D03*
Y640902D02*
D03*
Y642870D02*
D03*
Y644839D02*
D03*
Y646807D02*
D03*
X835059Y722360D02*
D03*
Y719801D02*
D03*
Y717242D02*
D03*
Y714683D02*
D03*
X843059D02*
D03*
Y717242D02*
D03*
Y719801D02*
D03*
Y722358D02*
D03*
D88*
X453465Y309113D02*
D03*
Y306554D02*
D03*
Y303995D02*
D03*
Y301436D02*
D03*
X468050D02*
D03*
Y303995D02*
D03*
Y306554D02*
D03*
Y309113D02*
D03*
X193101Y170307D02*
D03*
Y167748D02*
D03*
Y165189D02*
D03*
Y162630D02*
D03*
X207687D02*
D03*
Y165189D02*
D03*
Y167748D02*
D03*
Y170307D02*
D03*
X344046D02*
D03*
Y167748D02*
D03*
Y165189D02*
D03*
Y162630D02*
D03*
X358632D02*
D03*
Y165189D02*
D03*
Y167748D02*
D03*
Y170307D02*
D03*
X394417D02*
D03*
Y167748D02*
D03*
Y165189D02*
D03*
Y162630D02*
D03*
X409003D02*
D03*
Y165189D02*
D03*
Y167748D02*
D03*
Y170307D02*
D03*
X443868D02*
D03*
Y167748D02*
D03*
Y165189D02*
D03*
Y162630D02*
D03*
X458454D02*
D03*
Y165189D02*
D03*
Y167748D02*
D03*
Y170307D02*
D03*
X494621D02*
D03*
Y167748D02*
D03*
Y165189D02*
D03*
Y162630D02*
D03*
X509207D02*
D03*
Y165189D02*
D03*
Y167748D02*
D03*
Y170307D02*
D03*
X244065D02*
D03*
Y167748D02*
D03*
Y165189D02*
D03*
Y162630D02*
D03*
X258651D02*
D03*
Y165189D02*
D03*
Y167748D02*
D03*
Y170307D02*
D03*
X294061D02*
D03*
Y167748D02*
D03*
Y165189D02*
D03*
Y162630D02*
D03*
X308647D02*
D03*
Y165189D02*
D03*
Y167748D02*
D03*
Y170307D02*
D03*
X143231D02*
D03*
Y167748D02*
D03*
Y165189D02*
D03*
Y162630D02*
D03*
X157817D02*
D03*
Y165189D02*
D03*
Y167748D02*
D03*
Y170307D02*
D03*
D89*
X456919Y297982D02*
D03*
X459478D02*
D03*
X462037D02*
D03*
X464596D02*
D03*
Y312567D02*
D03*
X462037D02*
D03*
X459478D02*
D03*
X456919D02*
D03*
X204232Y173761D02*
D03*
X201673D02*
D03*
X199114D02*
D03*
X196555D02*
D03*
Y159176D02*
D03*
X199114D02*
D03*
X201673D02*
D03*
X204232D02*
D03*
X355178Y173761D02*
D03*
X352619D02*
D03*
X350060D02*
D03*
X347501D02*
D03*
Y159176D02*
D03*
X350060D02*
D03*
X352619D02*
D03*
X355178D02*
D03*
X405548Y173761D02*
D03*
X402989D02*
D03*
X400430D02*
D03*
X397871D02*
D03*
Y159176D02*
D03*
X400430D02*
D03*
X402989D02*
D03*
X405548D02*
D03*
X455000Y173761D02*
D03*
X452441D02*
D03*
X449882D02*
D03*
X447323D02*
D03*
Y159176D02*
D03*
X449882D02*
D03*
X452441D02*
D03*
X455000D02*
D03*
X505753Y173761D02*
D03*
X503194D02*
D03*
X500634D02*
D03*
X498075D02*
D03*
Y159176D02*
D03*
X500634D02*
D03*
X503194D02*
D03*
X505753D02*
D03*
X255197Y173761D02*
D03*
X252638D02*
D03*
X250079D02*
D03*
X247520D02*
D03*
Y159176D02*
D03*
X250079D02*
D03*
X252638D02*
D03*
X255197D02*
D03*
X305193Y173761D02*
D03*
X302634D02*
D03*
X300075D02*
D03*
X297516D02*
D03*
Y159176D02*
D03*
X300075D02*
D03*
X302634D02*
D03*
X305193D02*
D03*
X154362Y173761D02*
D03*
X151803D02*
D03*
X149244D02*
D03*
X146685D02*
D03*
Y159176D02*
D03*
X149244D02*
D03*
X151803D02*
D03*
X154362D02*
D03*
D90*
X308080Y329655D02*
D03*
X309653D02*
D03*
X311229D02*
D03*
X312804D02*
D03*
X314379D02*
D03*
X315954D02*
D03*
X317528D02*
D03*
X319103D02*
D03*
X320678D02*
D03*
X322253D02*
D03*
X323828D02*
D03*
X325402D02*
D03*
X326977D02*
D03*
X328552D02*
D03*
X330127D02*
D03*
X331702D02*
D03*
X333276D02*
D03*
X334851D02*
D03*
X336426Y329654D02*
D03*
X336425Y364104D02*
D03*
X334851D02*
D03*
X333276D02*
D03*
X331702D02*
D03*
X330127D02*
D03*
X328552D02*
D03*
X326977D02*
D03*
X325402D02*
D03*
X323828D02*
D03*
X322253D02*
D03*
X320678D02*
D03*
X319103D02*
D03*
X317528D02*
D03*
X315954D02*
D03*
X314378D02*
D03*
X312804D02*
D03*
X311229D02*
D03*
X309654D02*
D03*
X308080D02*
D03*
D91*
X339477Y332706D02*
D03*
Y334281D02*
D03*
Y335854D02*
D03*
Y337430D02*
D03*
Y339005D02*
D03*
Y340580D02*
D03*
Y342155D02*
D03*
Y343729D02*
D03*
Y345304D02*
D03*
Y346879D02*
D03*
Y348454D02*
D03*
Y350029D02*
D03*
Y351604D02*
D03*
Y353178D02*
D03*
Y354753D02*
D03*
Y356328D02*
D03*
Y357903D02*
D03*
Y359477D02*
D03*
Y361052D02*
D03*
X305028D02*
D03*
Y359477D02*
D03*
Y357903D02*
D03*
Y356328D02*
D03*
Y354753D02*
D03*
Y353178D02*
D03*
Y351602D02*
D03*
Y350029D02*
D03*
Y348454D02*
D03*
Y346879D02*
D03*
Y345304D02*
D03*
Y343729D02*
D03*
Y342154D02*
D03*
Y340580D02*
D03*
Y339005D02*
D03*
Y337430D02*
D03*
Y335856D02*
D03*
Y334281D02*
D03*
Y332706D02*
D03*
D92*
X48380Y260935D02*
D03*
Y264517D02*
D03*
X451085Y349694D02*
D03*
X451087Y353276D02*
D03*
X769300Y713067D02*
D03*
Y716651D02*
D03*
X88726Y187053D02*
D03*
Y183470D02*
D03*
X79286Y187053D02*
D03*
Y183470D02*
D03*
X88726Y205505D02*
D03*
Y201923D02*
D03*
X79286Y205505D02*
D03*
Y201923D02*
D03*
X88726Y222483D02*
D03*
Y218900D02*
D03*
X79286Y222483D02*
D03*
Y218900D02*
D03*
X88726Y239505D02*
D03*
Y235923D02*
D03*
X79286Y239505D02*
D03*
Y235923D02*
D03*
X88726Y257919D02*
D03*
Y254336D02*
D03*
X79286Y257919D02*
D03*
Y254336D02*
D03*
Y315907D02*
D03*
Y312324D02*
D03*
X88726Y277604D02*
D03*
Y274021D02*
D03*
X79286Y277604D02*
D03*
Y274021D02*
D03*
Y297289D02*
D03*
Y293706D02*
D03*
X88726Y297289D02*
D03*
Y293706D02*
D03*
Y315907D02*
D03*
Y312324D02*
D03*
X88726Y169728D02*
D03*
Y166146D02*
D03*
X79286Y169728D02*
D03*
Y166146D02*
D03*
D93*
X508024Y218850D02*
D03*
Y214520D02*
D03*
X486146Y218850D02*
D03*
Y214520D02*
D03*
X500634Y184535D02*
D03*
Y180205D02*
D03*
X505753Y149339D02*
D03*
Y145008D02*
D03*
X435394Y218850D02*
D03*
Y214520D02*
D03*
X457272Y218850D02*
D03*
Y214520D02*
D03*
X449882Y184535D02*
D03*
Y180205D02*
D03*
X455000Y149339D02*
D03*
Y145008D02*
D03*
X407791Y218850D02*
D03*
Y214520D02*
D03*
X385913Y218850D02*
D03*
Y214520D02*
D03*
X400429Y184535D02*
D03*
Y180205D02*
D03*
X405548Y149339D02*
D03*
Y145008D02*
D03*
X357484Y218850D02*
D03*
Y214520D02*
D03*
X335563Y218850D02*
D03*
Y214520D02*
D03*
X350122Y184535D02*
D03*
Y180205D02*
D03*
X355178Y149339D02*
D03*
Y145008D02*
D03*
X250059Y184535D02*
D03*
Y180205D02*
D03*
X300075Y184535D02*
D03*
Y180205D02*
D03*
X307618Y218850D02*
D03*
Y214520D02*
D03*
X285516Y218850D02*
D03*
Y214520D02*
D03*
X305193Y149339D02*
D03*
Y145008D02*
D03*
X257421Y218850D02*
D03*
Y214520D02*
D03*
X235500Y218850D02*
D03*
Y214520D02*
D03*
X255177Y149339D02*
D03*
Y145008D02*
D03*
X206504Y218850D02*
D03*
Y214520D02*
D03*
X184555Y218850D02*
D03*
Y214520D02*
D03*
X199114Y184535D02*
D03*
Y180205D02*
D03*
X204232Y149339D02*
D03*
Y145008D02*
D03*
X474579Y301436D02*
D03*
Y297105D02*
D03*
X156622Y218779D02*
D03*
Y214449D02*
D03*
X134681Y218850D02*
D03*
Y214520D02*
D03*
X149240Y185074D02*
D03*
Y180743D02*
D03*
X154362Y149339D02*
D03*
Y145008D02*
D03*
D94*
X95079Y245299D02*
D03*
X91535D02*
D03*
X86008D02*
D03*
X82465D02*
D03*
X76345D02*
D03*
X72801D02*
D03*
X95079Y321402D02*
D03*
X91535D02*
D03*
X86008D02*
D03*
X82465D02*
D03*
X76345D02*
D03*
X72801D02*
D03*
X95079Y263409D02*
D03*
X91535D02*
D03*
X86008D02*
D03*
X82465D02*
D03*
X76345D02*
D03*
X72801D02*
D03*
X95079Y227976D02*
D03*
X91535D02*
D03*
X86008D02*
D03*
X82465D02*
D03*
X76345D02*
D03*
X72801D02*
D03*
X95079Y302780D02*
D03*
X91535D02*
D03*
X86008D02*
D03*
X82465D02*
D03*
X76345D02*
D03*
X72801D02*
D03*
X95079Y211000D02*
D03*
X91535D02*
D03*
X86008D02*
D03*
X82465D02*
D03*
X76345D02*
D03*
X72801D02*
D03*
X95079Y283095D02*
D03*
X91535D02*
D03*
X86008D02*
D03*
X82465D02*
D03*
X76345D02*
D03*
X72801D02*
D03*
X95079Y192543D02*
D03*
X91535D02*
D03*
X86008D02*
D03*
X82465D02*
D03*
X76345D02*
D03*
X72801D02*
D03*
X95079Y175228D02*
D03*
X91535D02*
D03*
X86008D02*
D03*
X82465D02*
D03*
X76345D02*
D03*
X72801D02*
D03*
D95*
X95175Y183253D02*
D03*
Y187269D02*
D03*
Y201706D02*
D03*
Y205722D02*
D03*
Y218684D02*
D03*
Y222699D02*
D03*
Y235706D02*
D03*
Y239722D02*
D03*
Y293490D02*
D03*
Y297505D02*
D03*
Y254120D02*
D03*
Y258135D02*
D03*
Y273805D02*
D03*
Y277820D02*
D03*
Y312108D02*
D03*
Y316124D02*
D03*
X72801Y293490D02*
D03*
Y297505D02*
D03*
Y312108D02*
D03*
Y316124D02*
D03*
Y273805D02*
D03*
Y277820D02*
D03*
Y254120D02*
D03*
Y258135D02*
D03*
Y235706D02*
D03*
Y239722D02*
D03*
X72798Y218684D02*
D03*
Y222699D02*
D03*
X72801Y201706D02*
D03*
Y205722D02*
D03*
Y183253D02*
D03*
Y187269D02*
D03*
X95175Y165929D02*
D03*
Y169945D02*
D03*
X72793Y165929D02*
D03*
Y169945D02*
D03*
D96*
X568433Y449535D02*
D03*
Y447567D02*
D03*
Y445598D02*
D03*
Y443630D02*
D03*
Y441661D02*
D03*
Y439692D02*
D03*
Y437724D02*
D03*
Y435755D02*
D03*
Y433787D02*
D03*
Y431818D02*
D03*
Y429850D02*
D03*
Y427881D02*
D03*
Y425913D02*
D03*
Y423945D02*
D03*
Y421976D02*
D03*
Y420008D02*
D03*
Y418039D02*
D03*
Y416070D02*
D03*
Y414102D02*
D03*
Y412133D02*
D03*
Y410165D02*
D03*
Y408196D02*
D03*
Y406228D02*
D03*
Y404259D02*
D03*
Y402291D02*
D03*
X507409D02*
D03*
Y404259D02*
D03*
Y406228D02*
D03*
Y408196D02*
D03*
Y410165D02*
D03*
Y412133D02*
D03*
Y414102D02*
D03*
Y416070D02*
D03*
Y418039D02*
D03*
Y420008D02*
D03*
Y421976D02*
D03*
Y423945D02*
D03*
Y425913D02*
D03*
Y427881D02*
D03*
Y429850D02*
D03*
Y431818D02*
D03*
Y433787D02*
D03*
Y435755D02*
D03*
Y437724D02*
D03*
Y439692D02*
D03*
Y441661D02*
D03*
Y443630D02*
D03*
Y445598D02*
D03*
Y447567D02*
D03*
Y449535D02*
D03*
D97*
X561543Y395401D02*
D03*
X559575D02*
D03*
X557606D02*
D03*
X555638D02*
D03*
X553669D02*
D03*
X551701D02*
D03*
X549732D02*
D03*
X547764D02*
D03*
X545795D02*
D03*
X543827D02*
D03*
X541858D02*
D03*
X539890D02*
D03*
X537921D02*
D03*
X535953D02*
D03*
X533984D02*
D03*
X532016D02*
D03*
X530047D02*
D03*
X528079D02*
D03*
X526110D02*
D03*
X524142D02*
D03*
X522173D02*
D03*
X520205D02*
D03*
X518236D02*
D03*
X516268D02*
D03*
X514299D02*
D03*
Y456425D02*
D03*
X516268D02*
D03*
X518236D02*
D03*
X520205D02*
D03*
X522173D02*
D03*
X524142D02*
D03*
X526110D02*
D03*
X528079D02*
D03*
X530047D02*
D03*
X532016D02*
D03*
X533984D02*
D03*
X535953D02*
D03*
X537921D02*
D03*
X539890D02*
D03*
X541858D02*
D03*
X543827D02*
D03*
X545795D02*
D03*
X547764D02*
D03*
X549732D02*
D03*
X551701D02*
D03*
X553669D02*
D03*
X555638D02*
D03*
X557606D02*
D03*
X559575D02*
D03*
X561543D02*
D03*
D98*
X576912Y639551D02*
D03*
Y647031D02*
D03*
X567660Y643291D02*
D03*
X444200Y609148D02*
D03*
Y616629D02*
D03*
X434948Y612888D02*
D03*
X215350Y453552D02*
D03*
Y446071D02*
D03*
X224602Y449812D02*
D03*
D99*
X503208Y617805D02*
D03*
X507932D02*
D03*
D100*
X460814Y330234D02*
D03*
X455105D02*
D03*
X460814Y337123D02*
D03*
X455105D02*
D03*
D101*
X500597Y600651D02*
D03*
X502565D02*
D03*
X504534D02*
D03*
Y607541D02*
D03*
X502565D02*
D03*
X500597D02*
D03*
X236762Y462549D02*
D03*
X234793D02*
D03*
X232825D02*
D03*
Y469438D02*
D03*
X234793D02*
D03*
X236762D02*
D03*
D102*
X491165Y435992D02*
D03*
Y442685D02*
D03*
X958317Y796156D02*
D03*
Y789465D02*
D03*
X368051Y350632D02*
D03*
X368051Y357323D02*
D03*
D103*
X230666Y673353D02*
D03*
Y671384D02*
D03*
Y669416D02*
D03*
X224957D02*
D03*
Y671384D02*
D03*
X224957Y673353D02*
D03*
X251214Y670084D02*
D03*
X251213Y672053D02*
D03*
Y674021D02*
D03*
X245504D02*
D03*
X245505Y672053D02*
D03*
Y670084D02*
D03*
D104*
X253272Y471673D02*
D03*
X497106Y205240D02*
D03*
X396874D02*
D03*
X446354D02*
D03*
X346567D02*
D03*
X296476D02*
D03*
X246461D02*
D03*
X195516D02*
D03*
X145641D02*
D03*
D105*
X260161Y462223D02*
D03*
X258193D02*
D03*
X256224D02*
D03*
X254256D02*
D03*
X252287D02*
D03*
X250319D02*
D03*
X248350D02*
D03*
X246382D02*
D03*
Y481123D02*
D03*
X248350D02*
D03*
X250319D02*
D03*
X252287D02*
D03*
X254256D02*
D03*
X256224D02*
D03*
X258193D02*
D03*
X260161D02*
D03*
X425016Y294638D02*
D03*
X423047D02*
D03*
X421079D02*
D03*
X419110D02*
D03*
Y306238D02*
D03*
X421079D02*
D03*
X423047D02*
D03*
X425016D02*
D03*
X500059Y199440D02*
D03*
X498091D02*
D03*
X496122D02*
D03*
X494153D02*
D03*
Y211040D02*
D03*
X496122D02*
D03*
X498091D02*
D03*
X500059D02*
D03*
X399827Y199440D02*
D03*
X397858D02*
D03*
X395890D02*
D03*
X393921D02*
D03*
Y211040D02*
D03*
X395890D02*
D03*
X397858D02*
D03*
X399827D02*
D03*
X449307Y199440D02*
D03*
X447339D02*
D03*
X445370D02*
D03*
X443402D02*
D03*
Y211040D02*
D03*
X445370D02*
D03*
X447339D02*
D03*
X449307D02*
D03*
X349520Y199440D02*
D03*
X347551D02*
D03*
X345583D02*
D03*
X343614D02*
D03*
Y211040D02*
D03*
X345583D02*
D03*
X347551D02*
D03*
X349520D02*
D03*
X299429Y199440D02*
D03*
X297461D02*
D03*
X295492D02*
D03*
X293524D02*
D03*
Y211040D02*
D03*
X295492D02*
D03*
X297461D02*
D03*
X299429D02*
D03*
X249413Y199440D02*
D03*
X247445D02*
D03*
X245476D02*
D03*
X243508D02*
D03*
Y211040D02*
D03*
X245476D02*
D03*
X247445D02*
D03*
X249413D02*
D03*
X198468Y199440D02*
D03*
X196500D02*
D03*
X194532D02*
D03*
X192563D02*
D03*
Y211040D02*
D03*
X194532D02*
D03*
X196500D02*
D03*
X198468D02*
D03*
X148594Y199440D02*
D03*
X146625D02*
D03*
X144657D02*
D03*
X142688D02*
D03*
Y211040D02*
D03*
X144657D02*
D03*
X146625D02*
D03*
X148594D02*
D03*
D106*
X243822Y464783D02*
D03*
Y466751D02*
D03*
Y468720D02*
D03*
Y470688D02*
D03*
Y472657D02*
D03*
Y474625D02*
D03*
Y476594D02*
D03*
Y478562D02*
D03*
X262722D02*
D03*
Y476594D02*
D03*
Y474625D02*
D03*
Y472657D02*
D03*
Y470688D02*
D03*
Y468720D02*
D03*
Y466751D02*
D03*
Y464783D02*
D03*
X427863Y303391D02*
D03*
Y301422D02*
D03*
Y299453D02*
D03*
Y297485D02*
D03*
X416263D02*
D03*
Y299453D02*
D03*
Y301422D02*
D03*
Y303391D02*
D03*
X491306Y202287D02*
D03*
Y204256D02*
D03*
Y206224D02*
D03*
Y208193D02*
D03*
X502906D02*
D03*
Y206224D02*
D03*
Y204256D02*
D03*
Y202287D02*
D03*
X391074D02*
D03*
Y204256D02*
D03*
Y206224D02*
D03*
Y208193D02*
D03*
X402674D02*
D03*
Y206224D02*
D03*
Y204256D02*
D03*
Y202287D02*
D03*
X440554D02*
D03*
Y204256D02*
D03*
Y206224D02*
D03*
Y208193D02*
D03*
X452154D02*
D03*
Y206224D02*
D03*
Y204256D02*
D03*
Y202287D02*
D03*
X340767D02*
D03*
Y204256D02*
D03*
Y206224D02*
D03*
Y208193D02*
D03*
X352367D02*
D03*
Y206224D02*
D03*
Y204256D02*
D03*
Y202287D02*
D03*
X290676D02*
D03*
Y204256D02*
D03*
Y206224D02*
D03*
Y208193D02*
D03*
X302276D02*
D03*
Y206224D02*
D03*
Y204256D02*
D03*
Y202287D02*
D03*
X240661D02*
D03*
Y204256D02*
D03*
Y206224D02*
D03*
Y208193D02*
D03*
X252261D02*
D03*
Y206224D02*
D03*
Y204256D02*
D03*
Y202287D02*
D03*
X189716D02*
D03*
Y204256D02*
D03*
Y206224D02*
D03*
Y208193D02*
D03*
X201316D02*
D03*
Y206224D02*
D03*
Y204256D02*
D03*
Y202287D02*
D03*
X139841D02*
D03*
Y204256D02*
D03*
Y206224D02*
D03*
Y208193D02*
D03*
X151441D02*
D03*
Y206224D02*
D03*
Y204256D02*
D03*
Y202287D02*
D03*
D107*
X208480Y453395D02*
D03*
Y447094D02*
D03*
X583704Y639693D02*
D03*
Y645992D02*
D03*
X449695Y609050D02*
D03*
Y615350D02*
D03*
D108*
X480984Y297622D02*
D03*
Y300181D02*
D03*
Y302740D02*
D03*
X487284D02*
D03*
Y300181D02*
D03*
Y297622D02*
D03*
D109*
X422063Y300438D02*
D03*
D110*
X316787Y692449D02*
D03*
X311275D02*
D03*
X311284Y698213D02*
D03*
X316796D02*
D03*
X1193803Y302331D02*
D03*
X1199315D02*
D03*
X1193803Y326441D02*
D03*
X1199315D02*
D03*
X1193803Y310366D02*
D03*
X1199315D02*
D03*
X549162Y643156D02*
D03*
X543650D02*
D03*
X594925Y639747D02*
D03*
X589414D02*
D03*
X511874Y506996D02*
D03*
X506362D02*
D03*
X460917Y608732D02*
D03*
X455405D02*
D03*
X220657Y435831D02*
D03*
X215146Y435831D02*
D03*
X91486Y548970D02*
D03*
X96998Y548969D02*
D03*
X117570Y419300D02*
D03*
X112058D02*
D03*
X264163Y342897D02*
D03*
X258651D02*
D03*
X264163Y348212D02*
D03*
X258651D02*
D03*
X742946Y270943D02*
D03*
X737434Y270943D02*
D03*
D111*
X244033Y493212D02*
D03*
Y496558D02*
D03*
X248561Y493212D02*
D03*
Y496558D02*
D03*
X253100Y493212D02*
D03*
Y496558D02*
D03*
X257709Y493212D02*
D03*
Y496558D02*
D03*
X262344Y493212D02*
D03*
Y496558D02*
D03*
X266872Y493212D02*
D03*
Y496558D02*
D03*
X531989Y468950D02*
D03*
X531988Y465603D02*
D03*
X542450Y378724D02*
D03*
X542449Y375378D02*
D03*
X546979Y378724D02*
D03*
X546980Y375378D02*
D03*
X533393Y378724D02*
D03*
X533394Y375378D02*
D03*
X537922Y378724D02*
D03*
X537921Y375378D02*
D03*
X524294Y378724D02*
D03*
X524295Y375378D02*
D03*
X528865Y378724D02*
D03*
X528866Y375378D02*
D03*
X514802Y378724D02*
D03*
X514803Y375378D02*
D03*
X519612Y378724D02*
D03*
X519610Y375378D02*
D03*
X505705Y378724D02*
D03*
X505705Y375378D02*
D03*
X510234Y378724D02*
D03*
X510232Y375378D02*
D03*
D112*
X56485Y671150D02*
D03*
Y673709D02*
D03*
X56486Y676268D02*
D03*
X63967D02*
D03*
X63965Y673709D02*
D03*
Y671150D02*
D03*
X75104D02*
D03*
Y673709D02*
D03*
X75102Y676268D02*
D03*
X82583D02*
D03*
X82584Y673709D02*
D03*
Y671150D02*
D03*
X147250D02*
D03*
Y673709D02*
D03*
X147248Y676268D02*
D03*
X154728D02*
D03*
X154730Y673709D02*
D03*
Y671150D02*
D03*
X129017D02*
D03*
Y673709D02*
D03*
X129016Y676268D02*
D03*
X136496D02*
D03*
X136497Y673709D02*
D03*
Y671150D02*
D03*
X265567Y670066D02*
D03*
X265565Y672625D02*
D03*
Y675185D02*
D03*
X273046D02*
D03*
Y672625D02*
D03*
X273047Y670066D02*
D03*
X188079Y670528D02*
D03*
X188078Y673087D02*
D03*
Y675646D02*
D03*
X195558D02*
D03*
X195559Y673087D02*
D03*
X195558Y670528D02*
D03*
X38461Y671150D02*
D03*
Y673709D02*
D03*
Y676267D02*
D03*
X45941Y676268D02*
D03*
Y673709D02*
D03*
Y671149D02*
D03*
X93858Y671150D02*
D03*
X93859Y673709D02*
D03*
X93858Y676268D02*
D03*
X101339D02*
D03*
X101340Y673709D02*
D03*
X101339Y671150D02*
D03*
X169304D02*
D03*
Y673709D02*
D03*
X169303Y676268D02*
D03*
X176784D02*
D03*
X176784Y673709D02*
D03*
Y671150D02*
D03*
X119943D02*
D03*
Y673709D02*
D03*
X119941Y676268D02*
D03*
X112461D02*
D03*
X112462Y673709D02*
D03*
Y671150D02*
D03*
D113*
X310324Y733591D02*
D03*
X316033Y733591D02*
D03*
X321365D02*
D03*
X327073Y733591D02*
D03*
D114*
X1121066Y738968D02*
D03*
X1128547D02*
D03*
X1124806Y749401D02*
D03*
X1135937Y738968D02*
D03*
X1143418D02*
D03*
X1139678Y749401D02*
D03*
X1150809Y738968D02*
D03*
X1158289D02*
D03*
X1154549Y749401D02*
D03*
X1165966Y738968D02*
D03*
X1173446Y738968D02*
D03*
X1169706Y749401D02*
D03*
D115*
X509968Y529043D02*
D03*
X503668D02*
D03*
D116*
X509910Y522251D02*
D03*
X502429D02*
D03*
X506169Y512999D02*
D03*
D117*
X468804Y638148D02*
D03*
X478489D02*
D03*
X468803Y622004D02*
D03*
X478489Y622006D02*
D03*
D118*
X493719Y633152D02*
D03*
X499822D02*
D03*
D119*
X499571Y639504D02*
D03*
X494059D02*
D03*
D120*
X34664Y324789D02*
D03*
Y319277D02*
D03*
D121*
X878049Y762953D02*
D03*
X871750D02*
D03*
X878049Y770718D02*
D03*
X871750Y770716D02*
D03*
D122*
X1048999Y728506D02*
D03*
Y722797D02*
D03*
X1042108Y728506D02*
D03*
Y722797D02*
D03*
D123*
X319011Y373823D02*
D03*
Y371854D02*
D03*
Y369886D02*
D03*
X325901Y369886D02*
D03*
Y371854D02*
D03*
Y373823D02*
D03*
M02*
