G04*
G04 #@! TF.GenerationSoftware,Altium Limited,Altium Designer,20.2.6 (244)*
G04*
G04 Layer_Physical_Order=4*
G04 Layer_Color=6736896*
%FSLAX25Y25*%
%MOIN*%
G70*
G04*
G04 #@! TF.SameCoordinates,C0FDDEC0-252B-4CE6-8BE1-5BCEE630C73E*
G04*
G04*
G04 #@! TF.FilePolarity,Positive*
G04*
G01*
G75*
%ADD13C,0.00600*%
%ADD242C,0.01968*%
%ADD251C,0.00613*%
%ADD265R,0.06201X0.06201*%
%ADD266C,0.06201*%
%ADD269C,0.05512*%
%ADD279C,0.02165*%
%ADD282C,0.02500*%
%ADD283C,0.01900*%
%ADD290C,0.00366*%
%ADD291C,0.00366*%
G36*
X22521Y239019D02*
X22427Y239014D01*
X22333Y239001D01*
X22240Y238978D01*
X22148Y238947D01*
X22056Y238906D01*
X21965Y238856D01*
X21874Y238798D01*
X21784Y238730D01*
X21695Y238653D01*
X21606Y238567D01*
Y240083D01*
X21695Y239997D01*
X21784Y239920D01*
X21874Y239853D01*
X21965Y239794D01*
X22056Y239744D01*
X22148Y239704D01*
X22240Y239672D01*
X22333Y239649D01*
X22427Y239636D01*
X22521Y239631D01*
Y239019D01*
D02*
G37*
G36*
X38489Y239360D02*
X38395Y239355D01*
X38301Y239342D01*
X38208Y239319D01*
X38116Y239288D01*
X38024Y239247D01*
X37933Y239197D01*
X37842Y239139D01*
X37752Y239071D01*
X37663Y238994D01*
X37574Y238908D01*
Y240424D01*
X37663Y240338D01*
X37752Y240262D01*
X37842Y240194D01*
X37933Y240135D01*
X38024Y240085D01*
X38116Y240045D01*
X38208Y240013D01*
X38301Y239990D01*
X38395Y239977D01*
X38489Y239972D01*
Y239360D01*
D02*
G37*
G36*
X138001Y170669D02*
X138095Y170674D01*
X138189Y170687D01*
X138282Y170710D01*
X138374Y170741D01*
X138466Y170782D01*
X138557Y170832D01*
X138648Y170890D01*
X138738Y170958D01*
X138827Y171035D01*
X138916Y171121D01*
Y169605D01*
X138827Y169691D01*
X138738Y169767D01*
X138648Y169835D01*
X138557Y169894D01*
X138466Y169943D01*
X138374Y169984D01*
X138282Y170016D01*
X138189Y170038D01*
X138095Y170052D01*
X138001Y170056D01*
Y170669D01*
D02*
G37*
G36*
X150037Y177668D02*
X150131Y177673D01*
X150225Y177686D01*
X150318Y177709D01*
X150410Y177740D01*
X150502Y177781D01*
X150593Y177831D01*
X150684Y177889D01*
X150774Y177957D01*
X150863Y178034D01*
X150952Y178120D01*
Y176604D01*
X150863Y176690D01*
X150774Y176766D01*
X150684Y176834D01*
X150593Y176893D01*
X150502Y176943D01*
X150410Y176983D01*
X150318Y177015D01*
X150225Y177037D01*
X150131Y177051D01*
X150037Y177055D01*
Y177668D01*
D02*
G37*
G36*
X187310Y170788D02*
X187404Y170792D01*
X187497Y170806D01*
X187591Y170828D01*
X187683Y170860D01*
X187775Y170901D01*
X187866Y170950D01*
X187956Y171009D01*
X188047Y171077D01*
X188136Y171154D01*
X188225Y171239D01*
Y169724D01*
X188136Y169809D01*
X188047Y169886D01*
X187956Y169954D01*
X187866Y170013D01*
X187775Y170062D01*
X187683Y170103D01*
X187591Y170135D01*
X187497Y170157D01*
X187404Y170171D01*
X187310Y170175D01*
Y170788D01*
D02*
G37*
G36*
X199985Y177670D02*
X200079Y177674D01*
X200173Y177688D01*
X200266Y177710D01*
X200358Y177742D01*
X200450Y177783D01*
X200541Y177832D01*
X200632Y177891D01*
X200722Y177959D01*
X200811Y178036D01*
X200900Y178121D01*
Y176606D01*
X200811Y176691D01*
X200722Y176768D01*
X200632Y176836D01*
X200541Y176895D01*
X200450Y176944D01*
X200358Y176985D01*
X200266Y177017D01*
X200173Y177039D01*
X200079Y177053D01*
X199985Y177057D01*
Y177670D01*
D02*
G37*
G36*
X237232Y170490D02*
X237237Y170396D01*
X237250Y170302D01*
X237273Y170209D01*
X237304Y170117D01*
X237345Y170025D01*
X237395Y169934D01*
X237454Y169843D01*
X237521Y169753D01*
X237598Y169664D01*
X237684Y169575D01*
X236168D01*
X236254Y169664D01*
X236331Y169753D01*
X236398Y169843D01*
X236457Y169934D01*
X236507Y170025D01*
X236547Y170117D01*
X236579Y170209D01*
X236602Y170302D01*
X236615Y170396D01*
X236620Y170490D01*
X237232D01*
D02*
G37*
G36*
X250933Y177947D02*
X251027Y177951D01*
X251120Y177965D01*
X251214Y177988D01*
X251306Y178019D01*
X251398Y178060D01*
X251489Y178109D01*
X251579Y178168D01*
X251670Y178236D01*
X251759Y178313D01*
X251848Y178399D01*
Y176883D01*
X251759Y176969D01*
X251670Y177045D01*
X251579Y177113D01*
X251489Y177172D01*
X251398Y177221D01*
X251306Y177262D01*
X251214Y177294D01*
X251120Y177316D01*
X251027Y177330D01*
X250933Y177334D01*
Y177947D01*
D02*
G37*
G36*
X285567Y170741D02*
X285662Y170746D01*
X285755Y170759D01*
X285848Y170782D01*
X285941Y170813D01*
X286032Y170854D01*
X286123Y170904D01*
X286214Y170962D01*
X286304Y171030D01*
X286393Y171107D01*
X286482Y171193D01*
Y169677D01*
X286393Y169763D01*
X286304Y169839D01*
X286214Y169907D01*
X286123Y169966D01*
X286032Y170016D01*
X285941Y170056D01*
X285848Y170088D01*
X285755Y170110D01*
X285662Y170124D01*
X285567Y170128D01*
Y170741D01*
D02*
G37*
G36*
X300926Y177420D02*
X301020Y177425D01*
X301113Y177438D01*
X301206Y177461D01*
X301299Y177492D01*
X301391Y177533D01*
X301482Y177583D01*
X301572Y177641D01*
X301662Y177709D01*
X301752Y177786D01*
X301840Y177872D01*
Y176356D01*
X301752Y176442D01*
X301662Y176519D01*
X301572Y176586D01*
X301482Y176645D01*
X301391Y176695D01*
X301299Y176735D01*
X301206Y176767D01*
X301113Y176790D01*
X301020Y176803D01*
X300926Y176808D01*
Y177420D01*
D02*
G37*
G36*
X289889Y325287D02*
X289885Y325381D01*
X289871Y325474D01*
X289849Y325567D01*
X289817Y325660D01*
X289776Y325752D01*
X289727Y325843D01*
X289668Y325933D01*
X289600Y326023D01*
X289524Y326113D01*
X289438Y326202D01*
X290954D01*
X290868Y326113D01*
X290791Y326023D01*
X290723Y325933D01*
X290665Y325843D01*
X290615Y325752D01*
X290574Y325660D01*
X290543Y325567D01*
X290520Y325474D01*
X290507Y325381D01*
X290502Y325287D01*
X289889D01*
D02*
G37*
G36*
X289206Y331515D02*
X289300Y331519D01*
X289393Y331533D01*
X289486Y331556D01*
X289579Y331587D01*
X289670Y331628D01*
X289762Y331678D01*
X289852Y331736D01*
X289942Y331804D01*
X290032Y331881D01*
X290121Y331966D01*
Y330451D01*
X290032Y330537D01*
X289942Y330613D01*
X289852Y330681D01*
X289762Y330740D01*
X289670Y330789D01*
X289579Y330830D01*
X289486Y330862D01*
X289393Y330884D01*
X289300Y330898D01*
X289206Y330902D01*
Y331515D01*
D02*
G37*
G36*
Y335145D02*
X289300Y335149D01*
X289393Y335163D01*
X289486Y335186D01*
X289579Y335217D01*
X289670Y335258D01*
X289762Y335307D01*
X289852Y335366D01*
X289942Y335434D01*
X290032Y335511D01*
X290121Y335596D01*
Y334081D01*
X290032Y334167D01*
X289942Y334243D01*
X289852Y334311D01*
X289762Y334370D01*
X289670Y334419D01*
X289579Y334460D01*
X289486Y334492D01*
X289393Y334514D01*
X289300Y334528D01*
X289206Y334532D01*
Y335145D01*
D02*
G37*
G36*
X273804Y351850D02*
X273898Y351854D01*
X273992Y351868D01*
X274085Y351891D01*
X274177Y351922D01*
X274269Y351963D01*
X274360Y352012D01*
X274451Y352071D01*
X274541Y352139D01*
X274630Y352216D01*
X274719Y352302D01*
Y350786D01*
X274630Y350872D01*
X274541Y350948D01*
X274451Y351016D01*
X274360Y351075D01*
X274269Y351125D01*
X274177Y351165D01*
X274085Y351197D01*
X273992Y351219D01*
X273898Y351233D01*
X273804Y351237D01*
Y351850D01*
D02*
G37*
G36*
X289892Y356954D02*
X289989Y356959D01*
X290083Y356973D01*
X290175Y356998D01*
X290263Y357032D01*
X290349Y357076D01*
X290433Y357130D01*
X290513Y357193D01*
X290591Y357266D01*
X290666Y357349D01*
X290739Y357442D01*
X290960Y355943D01*
X290855Y356018D01*
X290651Y356146D01*
X290552Y356198D01*
X290454Y356242D01*
X290357Y356277D01*
X290262Y356305D01*
X290169Y356325D01*
X290077Y356337D01*
X289986Y356341D01*
X289892Y356954D01*
D02*
G37*
G36*
X295203Y353170D02*
X295201Y353261D01*
X295194Y353345D01*
X295183Y353422D01*
X295167Y353492D01*
X295146Y353555D01*
X295121Y353612D01*
X295091Y353662D01*
X295057Y353705D01*
X295018Y353741D01*
X294974Y353771D01*
X296045D01*
X296001Y353741D01*
X295962Y353705D01*
X295928Y353662D01*
X295898Y353612D01*
X295873Y353555D01*
X295852Y353492D01*
X295836Y353422D01*
X295825Y353345D01*
X295818Y353261D01*
X295816Y353170D01*
X295203D01*
D02*
G37*
G36*
X337003Y167196D02*
X336999Y167291D01*
X336985Y167384D01*
X336962Y167477D01*
X336931Y167569D01*
X336890Y167661D01*
X336841Y167752D01*
X336782Y167843D01*
X336714Y167933D01*
X336637Y168023D01*
X336551Y168111D01*
X338067D01*
X337981Y168023D01*
X337905Y167933D01*
X337837Y167843D01*
X337778Y167752D01*
X337729Y167661D01*
X337688Y167569D01*
X337656Y167477D01*
X337634Y167384D01*
X337620Y167291D01*
X337615Y167196D01*
X337003D01*
D02*
G37*
G36*
X354306Y176725D02*
X354212Y176721D01*
X354118Y176707D01*
X354026Y176685D01*
X353933Y176653D01*
X353841Y176612D01*
X353750Y176563D01*
X353660Y176504D01*
X353570Y176436D01*
X353480Y176359D01*
X353391Y176274D01*
Y177789D01*
X353480Y177704D01*
X353570Y177627D01*
X353660Y177559D01*
X353750Y177500D01*
X353841Y177451D01*
X353933Y177410D01*
X354026Y177378D01*
X354118Y177356D01*
X354212Y177342D01*
X354306Y177338D01*
Y176725D01*
D02*
G37*
G36*
X388128Y168778D02*
X388123Y168872D01*
X388110Y168966D01*
X388087Y169059D01*
X388055Y169151D01*
X388015Y169243D01*
X387965Y169334D01*
X387906Y169424D01*
X387839Y169515D01*
X387762Y169604D01*
X387676Y169693D01*
X389192D01*
X389106Y169604D01*
X389029Y169515D01*
X388962Y169424D01*
X388903Y169334D01*
X388853Y169243D01*
X388812Y169151D01*
X388781Y169059D01*
X388758Y168966D01*
X388745Y168872D01*
X388740Y168778D01*
X388128D01*
D02*
G37*
G36*
X436357Y167635D02*
X436352Y167729D01*
X436339Y167822D01*
X436316Y167915D01*
X436285Y168008D01*
X436244Y168100D01*
X436194Y168191D01*
X436135Y168281D01*
X436068Y168371D01*
X435991Y168461D01*
X435905Y168550D01*
X437421D01*
X437335Y168461D01*
X437258Y168371D01*
X437191Y168281D01*
X437132Y168191D01*
X437082Y168100D01*
X437042Y168008D01*
X437010Y167915D01*
X436987Y167822D01*
X436974Y167729D01*
X436969Y167635D01*
X436357D01*
D02*
G37*
G36*
X405166Y181833D02*
X405171Y181739D01*
X405184Y181646D01*
X405207Y181553D01*
X405239Y181460D01*
X405279Y181368D01*
X405329Y181277D01*
X405388Y181187D01*
X405455Y181096D01*
X405532Y181007D01*
X405618Y180918D01*
X404102D01*
X404188Y181007D01*
X404265Y181096D01*
X404332Y181187D01*
X404391Y181277D01*
X404441Y181368D01*
X404482Y181460D01*
X404513Y181553D01*
X404536Y181646D01*
X404549Y181739D01*
X404554Y181833D01*
X405166D01*
D02*
G37*
G36*
X452747Y178720D02*
X452751Y178625D01*
X452765Y178532D01*
X452787Y178439D01*
X452819Y178347D01*
X452860Y178255D01*
X452910Y178164D01*
X452968Y178073D01*
X453036Y177983D01*
X453113Y177893D01*
X453198Y177805D01*
X451683D01*
X451769Y177893D01*
X451845Y177983D01*
X451913Y178073D01*
X451972Y178164D01*
X452022Y178255D01*
X452062Y178347D01*
X452094Y178439D01*
X452116Y178532D01*
X452130Y178625D01*
X452134Y178720D01*
X452747D01*
D02*
G37*
G36*
X457285Y293841D02*
X457288Y293746D01*
X457296Y293658D01*
X457309Y293577D01*
X457328Y293502D01*
X457351Y293433D01*
X457381Y293371D01*
X457415Y293315D01*
X457455Y293266D01*
X457501Y293223D01*
X457551Y293186D01*
X456406D01*
X456457Y293223D01*
X456502Y293266D01*
X456542Y293315D01*
X456577Y293371D01*
X456606Y293433D01*
X456630Y293502D01*
X456648Y293577D01*
X456662Y293658D01*
X456670Y293746D01*
X456672Y293841D01*
X457285D01*
D02*
G37*
G36*
X450246Y306287D02*
X450151Y306283D01*
X450058Y306269D01*
X449965Y306247D01*
X449872Y306215D01*
X449781Y306174D01*
X449689Y306125D01*
X449599Y306066D01*
X449509Y305998D01*
X449419Y305922D01*
X449331Y305836D01*
Y307352D01*
X449419Y307266D01*
X449509Y307189D01*
X449599Y307121D01*
X449689Y307063D01*
X449781Y307013D01*
X449872Y306972D01*
X449965Y306941D01*
X450058Y306918D01*
X450151Y306905D01*
X450246Y306900D01*
Y306287D01*
D02*
G37*
G36*
X354841Y343905D02*
X354749Y343901D01*
X354656Y343888D01*
X354562Y343867D01*
X354468Y343838D01*
X354374Y343800D01*
X354278Y343754D01*
X354182Y343699D01*
X354085Y343636D01*
X353987Y343564D01*
X353889Y343484D01*
X354023Y344994D01*
X354102Y344903D01*
X354183Y344822D01*
X354266Y344751D01*
X354350Y344689D01*
X354437Y344637D01*
X354525Y344594D01*
X354615Y344561D01*
X354708Y344537D01*
X354802Y344523D01*
X354898Y344518D01*
X354841Y343905D01*
D02*
G37*
G36*
X353951Y350926D02*
X353857Y350922D01*
X353763Y350908D01*
X353670Y350886D01*
X353578Y350854D01*
X353486Y350813D01*
X353394Y350764D01*
X353304Y350705D01*
X353213Y350638D01*
X353123Y350561D01*
X353034Y350476D01*
X353040Y351991D01*
X353128Y351905D01*
X353217Y351828D01*
X353307Y351760D01*
X353397Y351701D01*
X353488Y351652D01*
X353580Y351611D01*
X353672Y351579D01*
X353765Y351557D01*
X353859Y351543D01*
X353953Y351538D01*
X353951Y350926D01*
D02*
G37*
G36*
X349322Y356162D02*
X349228Y356157D01*
X349134Y356143D01*
X349041Y356120D01*
X348949Y356088D01*
X348859Y356047D01*
X348769Y355996D01*
X348680Y355937D01*
X348592Y355868D01*
X348505Y355790D01*
X348419Y355703D01*
X348380Y357218D01*
X348472Y357134D01*
X348564Y357058D01*
X348656Y356992D01*
X348748Y356934D01*
X348840Y356885D01*
X348933Y356845D01*
X349026Y356814D01*
X349119Y356792D01*
X349213Y356779D01*
X349306Y356774D01*
X349322Y356162D01*
D02*
G37*
G36*
X354817Y356093D02*
X354723Y356088D01*
X354629Y356075D01*
X354536Y356052D01*
X354444Y356021D01*
X354352Y355980D01*
X354261Y355930D01*
X354170Y355872D01*
X354080Y355804D01*
X353991Y355727D01*
X353902Y355641D01*
Y357157D01*
X353991Y357071D01*
X354080Y356994D01*
X354170Y356927D01*
X354261Y356868D01*
X354352Y356818D01*
X354444Y356778D01*
X354536Y356746D01*
X354629Y356723D01*
X354723Y356710D01*
X354817Y356705D01*
Y356093D01*
D02*
G37*
G36*
X356082Y338485D02*
X355988Y338480D01*
X355894Y338467D01*
X355802Y338444D01*
X355709Y338412D01*
X355617Y338372D01*
X355526Y338322D01*
X355436Y338263D01*
X355346Y338196D01*
X355256Y338119D01*
X355167Y338033D01*
Y339549D01*
X355256Y339463D01*
X355346Y339386D01*
X355436Y339318D01*
X355526Y339260D01*
X355617Y339210D01*
X355709Y339169D01*
X355802Y339138D01*
X355894Y339115D01*
X355988Y339102D01*
X356082Y339097D01*
Y338485D01*
D02*
G37*
G36*
X375271Y342266D02*
X375177Y342261D01*
X375083Y342248D01*
X374990Y342225D01*
X374898Y342193D01*
X374806Y342153D01*
X374715Y342103D01*
X374624Y342044D01*
X374534Y341977D01*
X374445Y341900D01*
X374356Y341814D01*
Y343330D01*
X374445Y343244D01*
X374534Y343167D01*
X374624Y343099D01*
X374715Y343041D01*
X374806Y342991D01*
X374898Y342950D01*
X374990Y342919D01*
X375083Y342896D01*
X375177Y342883D01*
X375271Y342878D01*
Y342266D01*
D02*
G37*
G36*
X379298Y334513D02*
X379201Y334510D01*
X379110Y334502D01*
X379025Y334487D01*
X378946Y334466D01*
X378872Y334439D01*
X378805Y334406D01*
X378745Y334368D01*
X378690Y334323D01*
X378641Y334273D01*
X378598Y334216D01*
Y335423D01*
X378641Y335366D01*
X378690Y335316D01*
X378745Y335271D01*
X378805Y335233D01*
X378872Y335200D01*
X378946Y335173D01*
X379025Y335153D01*
X379110Y335138D01*
X379201Y335129D01*
X379298Y335126D01*
Y334513D01*
D02*
G37*
G36*
X378023Y357427D02*
X378027Y357334D01*
X378040Y357240D01*
X378062Y357147D01*
X378093Y357054D01*
X378132Y356961D01*
X378181Y356868D01*
X378238Y356775D01*
X378304Y356682D01*
X378378Y356589D01*
X378462Y356496D01*
X376947Y356554D01*
X377035Y356638D01*
X377114Y356724D01*
X377183Y356811D01*
X377243Y356899D01*
X377294Y356988D01*
X377336Y357079D01*
X377368Y357170D01*
X377392Y357263D01*
X377405Y357357D01*
X377410Y357452D01*
X378023Y357427D01*
D02*
G37*
G36*
X371317Y690477D02*
X371240Y690387D01*
X371172Y690297D01*
X371113Y690206D01*
X371064Y690115D01*
X371023Y690024D01*
X370991Y689931D01*
X370969Y689838D01*
X370955Y689745D01*
X370951Y689650D01*
X370338D01*
X370334Y689745D01*
X370320Y689838D01*
X370298Y689931D01*
X370266Y690024D01*
X370225Y690115D01*
X370176Y690206D01*
X370117Y690297D01*
X370049Y690387D01*
X369972Y690477D01*
X369887Y690565D01*
X371402D01*
X371317Y690477D01*
D02*
G37*
G36*
X376041Y687327D02*
X375964Y687238D01*
X375896Y687148D01*
X375837Y687057D01*
X375788Y686966D01*
X375747Y686874D01*
X375715Y686782D01*
X375693Y686689D01*
X375679Y686595D01*
X375675Y686501D01*
X375062D01*
X375058Y686595D01*
X375044Y686689D01*
X375022Y686782D01*
X374990Y686874D01*
X374949Y686966D01*
X374900Y687057D01*
X374841Y687148D01*
X374773Y687238D01*
X374696Y687327D01*
X374611Y687416D01*
X376126D01*
X376041Y687327D01*
D02*
G37*
G36*
X368979D02*
X368902Y687238D01*
X368835Y687148D01*
X368776Y687057D01*
X368726Y686966D01*
X368686Y686874D01*
X368654Y686782D01*
X368631Y686689D01*
X368618Y686595D01*
X368613Y686501D01*
X368001D01*
X367996Y686595D01*
X367983Y686689D01*
X367960Y686782D01*
X367929Y686874D01*
X367888Y686966D01*
X367838Y687057D01*
X367779Y687148D01*
X367712Y687238D01*
X367635Y687327D01*
X367549Y687416D01*
X369065D01*
X368979Y687327D01*
D02*
G37*
G36*
X260905Y422631D02*
X260827Y422541D01*
X260758Y422450D01*
X260698Y422359D01*
X260648Y422267D01*
X260607Y422175D01*
X260575Y422083D01*
X260552Y421990D01*
X260538Y421898D01*
X260534Y421804D01*
X259934D01*
X259929Y421898D01*
X259915Y421990D01*
X259892Y422083D01*
X259860Y422175D01*
X259819Y422267D01*
X259769Y422359D01*
X259709Y422450D01*
X259641Y422541D01*
X259563Y422631D01*
X259476Y422721D01*
X260992D01*
X260905Y422631D01*
D02*
G37*
G36*
X256537D02*
X256459Y422541D01*
X256391Y422450D01*
X256331Y422359D01*
X256281Y422267D01*
X256239Y422175D01*
X256207Y422083D01*
X256184Y421990D01*
X256171Y421898D01*
X256166Y421804D01*
X255566D01*
X255561Y421898D01*
X255548Y421990D01*
X255525Y422083D01*
X255493Y422175D01*
X255452Y422267D01*
X255401Y422359D01*
X255342Y422450D01*
X255273Y422541D01*
X255195Y422631D01*
X255108Y422721D01*
X256624D01*
X256537Y422631D01*
D02*
G37*
G36*
X341015Y367944D02*
X340925Y368031D01*
X340834Y368109D01*
X340744Y368177D01*
X340653Y368237D01*
X340561Y368287D01*
X340469Y368328D01*
X340377Y368360D01*
X340284Y368383D01*
X340191Y368397D01*
X340098Y368402D01*
Y369002D01*
X340191Y369006D01*
X340284Y369020D01*
X340377Y369043D01*
X340469Y369075D01*
X340561Y369116D01*
X340653Y369166D01*
X340744Y369226D01*
X340834Y369295D01*
X340925Y369373D01*
X341015Y369460D01*
Y367944D01*
D02*
G37*
G36*
X343727Y365042D02*
X343637Y365129D01*
X343547Y365207D01*
X343456Y365275D01*
X343365Y365335D01*
X343274Y365385D01*
X343182Y365426D01*
X343090Y365458D01*
X342997Y365481D01*
X342904Y365495D01*
X342811Y365500D01*
Y366100D01*
X342904Y366104D01*
X342997Y366118D01*
X343090Y366141D01*
X343182Y366173D01*
X343274Y366214D01*
X343365Y366265D01*
X343456Y366324D01*
X343547Y366393D01*
X343637Y366471D01*
X343727Y366558D01*
Y365042D01*
D02*
G37*
G36*
X294678Y358104D02*
X294596Y358193D01*
X294512Y358272D01*
X294426Y358342D01*
X294339Y358403D01*
X294251Y358455D01*
X294161Y358497D01*
X294070Y358529D01*
X293978Y358553D01*
X293884Y358567D01*
X293789Y358572D01*
X293824Y359184D01*
X293917Y359188D01*
X294010Y359201D01*
X294103Y359223D01*
X294197Y359253D01*
X294290Y359292D01*
X294384Y359340D01*
X294478Y359396D01*
X294573Y359461D01*
X294667Y359535D01*
X294762Y359617D01*
X294678Y358104D01*
D02*
G37*
G36*
X480958Y397929D02*
X481052Y397931D01*
X481140Y397939D01*
X481221Y397952D01*
X481295Y397970D01*
X481363Y397994D01*
X481425Y398023D01*
X481480Y398057D01*
X481528Y398096D01*
X481570Y398140D01*
X481606Y398190D01*
Y397055D01*
X481570Y397104D01*
X481528Y397149D01*
X481480Y397188D01*
X481425Y397222D01*
X481363Y397251D01*
X481295Y397274D01*
X481221Y397292D01*
X481140Y397305D01*
X481052Y397313D01*
X480958Y397316D01*
Y397929D01*
D02*
G37*
G36*
X480839Y406984D02*
X480934Y406988D01*
X481027Y407002D01*
X481120Y407024D01*
X481213Y407056D01*
X481304Y407096D01*
X481395Y407146D01*
X481486Y407205D01*
X481576Y407273D01*
X481666Y407349D01*
X481754Y407435D01*
Y405920D01*
X481666Y406005D01*
X481576Y406082D01*
X481486Y406150D01*
X481395Y406209D01*
X481304Y406258D01*
X481213Y406299D01*
X481120Y406330D01*
X481027Y406353D01*
X480934Y406367D01*
X480839Y406371D01*
Y406984D01*
D02*
G37*
G36*
Y411511D02*
X480934Y411516D01*
X481027Y411529D01*
X481120Y411552D01*
X481213Y411583D01*
X481304Y411624D01*
X481395Y411674D01*
X481486Y411732D01*
X481576Y411800D01*
X481666Y411877D01*
X481754Y411963D01*
Y410447D01*
X481666Y410533D01*
X481576Y410610D01*
X481486Y410677D01*
X481395Y410736D01*
X481304Y410786D01*
X481213Y410826D01*
X481120Y410858D01*
X481027Y410881D01*
X480934Y410894D01*
X480839Y410899D01*
Y411511D01*
D02*
G37*
G36*
Y417292D02*
X480934Y417297D01*
X481027Y417310D01*
X481120Y417333D01*
X481213Y417365D01*
X481304Y417405D01*
X481395Y417455D01*
X481486Y417514D01*
X481576Y417581D01*
X481666Y417658D01*
X481754Y417744D01*
Y416228D01*
X481666Y416314D01*
X481576Y416391D01*
X481486Y416458D01*
X481395Y416517D01*
X481304Y416567D01*
X481213Y416608D01*
X481120Y416639D01*
X481027Y416662D01*
X480934Y416675D01*
X480839Y416680D01*
Y417292D01*
D02*
G37*
G36*
Y421235D02*
X480934Y421239D01*
X481027Y421253D01*
X481120Y421276D01*
X481213Y421307D01*
X481304Y421348D01*
X481395Y421397D01*
X481486Y421456D01*
X481576Y421524D01*
X481666Y421601D01*
X481754Y421687D01*
Y420171D01*
X481666Y420257D01*
X481576Y420333D01*
X481486Y420401D01*
X481395Y420460D01*
X481304Y420509D01*
X481213Y420550D01*
X481120Y420582D01*
X481027Y420604D01*
X480934Y420618D01*
X480839Y420622D01*
Y421235D01*
D02*
G37*
G36*
Y425763D02*
X480934Y425767D01*
X481027Y425780D01*
X481120Y425803D01*
X481213Y425835D01*
X481304Y425875D01*
X481395Y425925D01*
X481486Y425984D01*
X481576Y426052D01*
X481666Y426128D01*
X481754Y426214D01*
Y424698D01*
X481666Y424784D01*
X481576Y424861D01*
X481486Y424929D01*
X481395Y424987D01*
X481304Y425037D01*
X481213Y425078D01*
X481120Y425109D01*
X481027Y425132D01*
X480934Y425145D01*
X480839Y425150D01*
Y425763D01*
D02*
G37*
G36*
Y430863D02*
X480934Y430868D01*
X481027Y430881D01*
X481120Y430904D01*
X481213Y430935D01*
X481304Y430976D01*
X481395Y431026D01*
X481486Y431085D01*
X481576Y431152D01*
X481666Y431229D01*
X481754Y431315D01*
Y429799D01*
X481666Y429885D01*
X481576Y429962D01*
X481486Y430029D01*
X481395Y430088D01*
X481304Y430138D01*
X481213Y430178D01*
X481120Y430210D01*
X481027Y430233D01*
X480934Y430246D01*
X480839Y430251D01*
Y430863D01*
D02*
G37*
G36*
X453207Y571413D02*
X453202Y571507D01*
X453189Y571600D01*
X453166Y571693D01*
X453134Y571786D01*
X453094Y571877D01*
X453044Y571969D01*
X452985Y572059D01*
X452918Y572149D01*
X452841Y572239D01*
X452755Y572327D01*
X454271D01*
X454185Y572239D01*
X454108Y572149D01*
X454040Y572059D01*
X453982Y571969D01*
X453932Y571877D01*
X453891Y571786D01*
X453860Y571693D01*
X453837Y571600D01*
X453824Y571507D01*
X453819Y571413D01*
X453207D01*
D02*
G37*
G36*
X377423Y689650D02*
X377419Y689745D01*
X377405Y689838D01*
X377383Y689931D01*
X377351Y690024D01*
X377310Y690115D01*
X377261Y690206D01*
X377202Y690297D01*
X377134Y690387D01*
X377058Y690477D01*
X376972Y690565D01*
X378487D01*
X378402Y690477D01*
X378325Y690387D01*
X378257Y690297D01*
X378199Y690206D01*
X378149Y690115D01*
X378108Y690024D01*
X378077Y689931D01*
X378054Y689838D01*
X378040Y689745D01*
X378036Y689650D01*
X377423D01*
D02*
G37*
G36*
X382148Y686501D02*
X382143Y686595D01*
X382129Y686689D01*
X382107Y686782D01*
X382075Y686874D01*
X382035Y686966D01*
X381985Y687057D01*
X381926Y687148D01*
X381858Y687238D01*
X381782Y687327D01*
X381696Y687416D01*
X383212D01*
X383126Y687327D01*
X383049Y687238D01*
X382981Y687148D01*
X382923Y687057D01*
X382873Y686966D01*
X382832Y686874D01*
X382801Y686782D01*
X382778Y686689D01*
X382765Y686595D01*
X382760Y686501D01*
X382148D01*
D02*
G37*
G36*
X384510Y689650D02*
X384505Y689745D01*
X384492Y689838D01*
X384469Y689931D01*
X384437Y690024D01*
X384397Y690115D01*
X384347Y690206D01*
X384288Y690297D01*
X384221Y690387D01*
X384144Y690477D01*
X384058Y690565D01*
X385574D01*
X385488Y690477D01*
X385411Y690387D01*
X385344Y690297D01*
X385285Y690206D01*
X385235Y690115D01*
X385194Y690024D01*
X385163Y689931D01*
X385140Y689838D01*
X385127Y689745D01*
X385122Y689650D01*
X384510D01*
D02*
G37*
G36*
X389234Y686501D02*
X389230Y686595D01*
X389216Y686689D01*
X389194Y686782D01*
X389162Y686874D01*
X389121Y686966D01*
X389071Y687057D01*
X389013Y687148D01*
X388945Y687238D01*
X388868Y687327D01*
X388783Y687416D01*
X390298D01*
X390212Y687327D01*
X390136Y687238D01*
X390068Y687148D01*
X390009Y687057D01*
X389960Y686966D01*
X389919Y686874D01*
X389887Y686782D01*
X389865Y686689D01*
X389851Y686595D01*
X389847Y686501D01*
X389234D01*
D02*
G37*
G36*
X464611Y609201D02*
X464704Y609204D01*
X464789Y609211D01*
X464868Y609223D01*
X464940Y609240D01*
X465006Y609262D01*
X465064Y609289D01*
X465116Y609320D01*
X465162Y609357D01*
X465201Y609398D01*
X465233Y609445D01*
Y608345D01*
X465201Y608391D01*
X465162Y608433D01*
X465116Y608469D01*
X465064Y608501D01*
X465006Y608528D01*
X464940Y608550D01*
X464868Y608567D01*
X464789Y608579D01*
X464704Y608586D01*
X464611Y608589D01*
Y609201D01*
D02*
G37*
G36*
X471905Y686501D02*
X471900Y686595D01*
X471887Y686689D01*
X471864Y686782D01*
X471833Y686874D01*
X471792Y686966D01*
X471742Y687057D01*
X471684Y687148D01*
X471616Y687238D01*
X471539Y687327D01*
X471453Y687416D01*
X472969D01*
X472883Y687327D01*
X472807Y687238D01*
X472739Y687148D01*
X472680Y687057D01*
X472630Y686966D01*
X472590Y686874D01*
X472558Y686782D01*
X472536Y686689D01*
X472522Y686595D01*
X472517Y686501D01*
X471905D01*
D02*
G37*
G36*
X478991D02*
X478986Y686595D01*
X478973Y686689D01*
X478950Y686782D01*
X478919Y686874D01*
X478878Y686966D01*
X478828Y687057D01*
X478770Y687148D01*
X478702Y687238D01*
X478625Y687327D01*
X478539Y687416D01*
X480055D01*
X479969Y687327D01*
X479892Y687238D01*
X479825Y687148D01*
X479766Y687057D01*
X479716Y686966D01*
X479676Y686874D01*
X479644Y686782D01*
X479622Y686689D01*
X479608Y686595D01*
X479603Y686501D01*
X478991D01*
D02*
G37*
G36*
X476629Y689650D02*
X476625Y689745D01*
X476611Y689838D01*
X476589Y689931D01*
X476557Y690024D01*
X476516Y690115D01*
X476467Y690206D01*
X476408Y690297D01*
X476340Y690387D01*
X476263Y690477D01*
X476178Y690565D01*
X477693D01*
X477607Y690477D01*
X477531Y690387D01*
X477463Y690297D01*
X477404Y690206D01*
X477355Y690115D01*
X477314Y690024D01*
X477282Y689931D01*
X477260Y689838D01*
X477246Y689745D01*
X477242Y689650D01*
X476629D01*
D02*
G37*
G36*
X564989Y692684D02*
X564834Y692683D01*
X564555Y692664D01*
X564431Y692646D01*
X564318Y692623D01*
X564216Y692594D01*
X564125Y692560D01*
X564045Y692520D01*
X563975Y692474D01*
X563915Y692423D01*
X563657Y692682D01*
X563708Y692741D01*
X563753Y692811D01*
X563793Y692892D01*
X563827Y692983D01*
X563856Y693085D01*
X563879Y693198D01*
X563897Y693321D01*
X563916Y693600D01*
X563917Y693756D01*
X564989Y692684D01*
D02*
G37*
G36*
X562459Y693600D02*
X562478Y693321D01*
X562496Y693198D01*
X562519Y693085D01*
X562548Y692983D01*
X562582Y692892D01*
X562622Y692811D01*
X562667Y692741D01*
X562718Y692682D01*
X562460Y692423D01*
X562400Y692474D01*
X562330Y692520D01*
X562250Y692560D01*
X562159Y692594D01*
X562057Y692623D01*
X561944Y692646D01*
X561821Y692664D01*
X561541Y692683D01*
X561386Y692684D01*
X562458Y693756D01*
X562459Y693600D01*
D02*
G37*
G36*
X484717Y692455D02*
X484640Y692366D01*
X484572Y692276D01*
X484513Y692185D01*
X484464Y692094D01*
X484423Y692002D01*
X484391Y691910D01*
X484369Y691817D01*
X484355Y691723D01*
X484351Y691629D01*
X483738D01*
X483734Y691723D01*
X483720Y691817D01*
X483698Y691910D01*
X483666Y692002D01*
X483625Y692094D01*
X483576Y692185D01*
X483517Y692276D01*
X483449Y692366D01*
X483372Y692455D01*
X483287Y692544D01*
X484802D01*
X484717Y692455D01*
D02*
G37*
G36*
X503411Y690477D02*
X503334Y690387D01*
X503266Y690297D01*
X503207Y690206D01*
X503158Y690115D01*
X503117Y690024D01*
X503086Y689931D01*
X503063Y689838D01*
X503050Y689745D01*
X503045Y689650D01*
X502432D01*
X502428Y689745D01*
X502414Y689838D01*
X502392Y689931D01*
X502360Y690024D01*
X502319Y690115D01*
X502270Y690206D01*
X502211Y690297D01*
X502143Y690387D01*
X502067Y690477D01*
X501981Y690565D01*
X503497D01*
X503411Y690477D01*
D02*
G37*
G36*
X496503D02*
X496427Y690387D01*
X496359Y690297D01*
X496300Y690206D01*
X496251Y690115D01*
X496210Y690024D01*
X496178Y689931D01*
X496156Y689838D01*
X496142Y689745D01*
X496138Y689650D01*
X495525D01*
X495521Y689745D01*
X495507Y689838D01*
X495485Y689931D01*
X495453Y690024D01*
X495412Y690115D01*
X495363Y690206D01*
X495304Y690297D01*
X495236Y690387D01*
X495159Y690477D01*
X495074Y690565D01*
X496589D01*
X496503Y690477D01*
D02*
G37*
G36*
X574364Y689862D02*
X574209Y689861D01*
X573930Y689842D01*
X573806Y689824D01*
X573693Y689801D01*
X573591Y689772D01*
X573500Y689738D01*
X573420Y689698D01*
X573350Y689652D01*
X573290Y689602D01*
X573032Y689860D01*
X573083Y689920D01*
X573128Y689989D01*
X573168Y690070D01*
X573202Y690161D01*
X573231Y690263D01*
X573254Y690376D01*
X573272Y690499D01*
X573291Y690778D01*
X573292Y690934D01*
X574364Y689862D01*
D02*
G37*
G36*
X571834Y690778D02*
X571853Y690499D01*
X571871Y690376D01*
X571894Y690263D01*
X571923Y690161D01*
X571957Y690070D01*
X571997Y689989D01*
X572042Y689920D01*
X572093Y689860D01*
X571835Y689602D01*
X571775Y689652D01*
X571705Y689698D01*
X571625Y689738D01*
X571534Y689772D01*
X571432Y689801D01*
X571319Y689824D01*
X571196Y689842D01*
X570916Y689861D01*
X570761Y689862D01*
X571833Y690934D01*
X571834Y690778D01*
D02*
G37*
G36*
X488368Y690333D02*
X488291Y690244D01*
X488224Y690154D01*
X488165Y690063D01*
X488115Y689972D01*
X488075Y689880D01*
X488043Y689788D01*
X488020Y689695D01*
X488007Y689601D01*
X488002Y689507D01*
X487390D01*
X487385Y689601D01*
X487372Y689695D01*
X487349Y689788D01*
X487318Y689880D01*
X487277Y689972D01*
X487227Y690063D01*
X487169Y690154D01*
X487101Y690244D01*
X487024Y690333D01*
X486938Y690422D01*
X488454D01*
X488368Y690333D01*
D02*
G37*
G36*
X578959Y688810D02*
X578978Y688531D01*
X578996Y688407D01*
X579019Y688295D01*
X579048Y688193D01*
X579082Y688101D01*
X579122Y688021D01*
X579167Y687951D01*
X579218Y687892D01*
X578960Y687633D01*
X578900Y687684D01*
X578830Y687730D01*
X578750Y687769D01*
X578659Y687804D01*
X578557Y687833D01*
X578444Y687856D01*
X578321Y687874D01*
X578041Y687893D01*
X577886Y687894D01*
X578958Y688966D01*
X578959Y688810D01*
D02*
G37*
G36*
X498865Y687327D02*
X498788Y687238D01*
X498721Y687148D01*
X498662Y687057D01*
X498612Y686966D01*
X498572Y686874D01*
X498540Y686782D01*
X498518Y686689D01*
X498504Y686595D01*
X498499Y686501D01*
X497887D01*
X497882Y686595D01*
X497869Y686689D01*
X497846Y686782D01*
X497815Y686874D01*
X497774Y686966D01*
X497724Y687057D01*
X497666Y687148D01*
X497598Y687238D01*
X497521Y687327D01*
X497435Y687416D01*
X498951D01*
X498865Y687327D01*
D02*
G37*
G36*
X482980Y597129D02*
X483070Y597052D01*
X483160Y596984D01*
X483250Y596925D01*
X483341Y596876D01*
X483433Y596835D01*
X483526Y596804D01*
X483618Y596781D01*
X483712Y596768D01*
X483806Y596763D01*
Y596150D01*
X483712Y596146D01*
X483618Y596132D01*
X483526Y596110D01*
X483433Y596078D01*
X483341Y596037D01*
X483250Y595988D01*
X483160Y595929D01*
X483070Y595861D01*
X482980Y595785D01*
X482891Y595699D01*
Y597215D01*
X482980Y597129D01*
D02*
G37*
G36*
X497804Y556914D02*
X497727Y556824D01*
X497659Y556734D01*
X497601Y556643D01*
X497551Y556552D01*
X497510Y556461D01*
X497479Y556368D01*
X497456Y556275D01*
X497442Y556182D01*
X497438Y556087D01*
X496826D01*
X496821Y556182D01*
X496807Y556275D01*
X496785Y556368D01*
X496753Y556461D01*
X496712Y556552D01*
X496663Y556643D01*
X496604Y556734D01*
X496536Y556824D01*
X496460Y556914D01*
X496374Y557002D01*
X497890D01*
X497804Y556914D01*
D02*
G37*
G36*
X543258Y469416D02*
X543271Y469323D01*
X543294Y469230D01*
X543326Y469137D01*
X543366Y469046D01*
X543416Y468955D01*
X543475Y468864D01*
X543542Y468774D01*
X543619Y468684D01*
X543705Y468596D01*
X542189D01*
X542275Y468684D01*
X542352Y468774D01*
X542419Y468864D01*
X542478Y468955D01*
X542528Y469046D01*
X542569Y469137D01*
X542600Y469230D01*
X542623Y469323D01*
X542636Y469416D01*
X542641Y469511D01*
X543253D01*
X543258Y469416D01*
D02*
G37*
G36*
X548074Y468728D02*
X548088Y468634D01*
X548111Y468541D01*
X548142Y468449D01*
X548183Y468357D01*
X548233Y468266D01*
X548291Y468175D01*
X548359Y468085D01*
X548436Y467996D01*
X548522Y467907D01*
X547006D01*
X547092Y467996D01*
X547168Y468085D01*
X547236Y468175D01*
X547295Y468266D01*
X547345Y468357D01*
X547385Y468449D01*
X547417Y468541D01*
X547439Y468634D01*
X547453Y468728D01*
X547458Y468822D01*
X548070D01*
X548074Y468728D01*
D02*
G37*
G36*
X553783Y466180D02*
X553873Y466103D01*
X553963Y466035D01*
X554053Y465977D01*
X554144Y465927D01*
X554236Y465886D01*
X554329Y465855D01*
X554422Y465832D01*
X554515Y465819D01*
X554609Y465814D01*
X554609Y465202D01*
X554515Y465197D01*
X554422Y465184D01*
X554329Y465161D01*
X554236Y465129D01*
X554144Y465089D01*
X554053Y465039D01*
X553963Y464980D01*
X553873Y464913D01*
X553783Y464836D01*
X553694Y464750D01*
X553694Y466266D01*
X553783Y466180D01*
D02*
G37*
G36*
X550282Y464913D02*
X550295Y464819D01*
X550318Y464726D01*
X550350Y464634D01*
X550390Y464542D01*
X550440Y464451D01*
X550499Y464360D01*
X550566Y464270D01*
X550643Y464181D01*
X550729Y464092D01*
X549213D01*
X549299Y464181D01*
X549376Y464270D01*
X549444Y464360D01*
X549502Y464451D01*
X549552Y464542D01*
X549593Y464634D01*
X549624Y464726D01*
X549647Y464819D01*
X549660Y464913D01*
X549665Y465007D01*
X550278D01*
X550282Y464913D01*
D02*
G37*
G36*
X545662Y464895D02*
X545676Y464802D01*
X545698Y464709D01*
X545730Y464617D01*
X545771Y464525D01*
X545820Y464434D01*
X545879Y464343D01*
X545947Y464253D01*
X546023Y464164D01*
X546109Y464075D01*
X544593D01*
X544679Y464164D01*
X544756Y464253D01*
X544824Y464343D01*
X544882Y464434D01*
X544932Y464525D01*
X544973Y464617D01*
X545004Y464709D01*
X545027Y464802D01*
X545041Y464895D01*
X545045Y464990D01*
X545657D01*
X545662Y464895D01*
D02*
G37*
G36*
X556500Y463062D02*
X556589Y462985D01*
X556679Y462917D01*
X556770Y462859D01*
X556861Y462809D01*
X556953Y462768D01*
X557045Y462737D01*
X557138Y462714D01*
X557232Y462701D01*
X557326Y462696D01*
Y462083D01*
X557232Y462079D01*
X557138Y462066D01*
X557045Y462043D01*
X556953Y462011D01*
X556861Y461971D01*
X556770Y461921D01*
X556679Y461862D01*
X556589Y461795D01*
X556500Y461718D01*
X556411Y461632D01*
Y463148D01*
X556500Y463062D01*
D02*
G37*
G36*
X514563Y432301D02*
X514577Y432207D01*
X514599Y432114D01*
X514631Y432022D01*
X514672Y431930D01*
X514721Y431839D01*
X514780Y431748D01*
X514848Y431658D01*
X514924Y431569D01*
X515010Y431480D01*
X513495D01*
X513580Y431569D01*
X513657Y431658D01*
X513725Y431748D01*
X513784Y431839D01*
X513833Y431930D01*
X513874Y432022D01*
X513905Y432114D01*
X513928Y432207D01*
X513942Y432301D01*
X513946Y432395D01*
X514559D01*
X514563Y432301D01*
D02*
G37*
G36*
X511597Y427124D02*
X511508Y427209D01*
X511419Y427286D01*
X511329Y427354D01*
X511238Y427413D01*
X511147Y427462D01*
X511055Y427503D01*
X510963Y427535D01*
X510870Y427557D01*
X510776Y427571D01*
X510682Y427575D01*
Y428188D01*
X510776Y428192D01*
X510870Y428206D01*
X510963Y428228D01*
X511055Y428260D01*
X511147Y428301D01*
X511238Y428350D01*
X511329Y428409D01*
X511419Y428477D01*
X511508Y428553D01*
X511597Y428639D01*
X511597Y427124D01*
D02*
G37*
G36*
X483200Y392229D02*
X483123Y392139D01*
X483055Y392049D01*
X482996Y391959D01*
X482947Y391867D01*
X482906Y391776D01*
X482874Y391683D01*
X482852Y391590D01*
X482838Y391497D01*
X482834Y391403D01*
X482221D01*
X482217Y391497D01*
X482203Y391590D01*
X482181Y391683D01*
X482149Y391776D01*
X482108Y391867D01*
X482059Y391959D01*
X482000Y392049D01*
X481932Y392139D01*
X481855Y392229D01*
X481770Y392318D01*
X483285D01*
X483200Y392229D01*
D02*
G37*
G36*
X547291Y371484D02*
X547305Y371390D01*
X547327Y371297D01*
X547359Y371205D01*
X547400Y371113D01*
X547449Y371022D01*
X547508Y370931D01*
X547576Y370841D01*
X547652Y370752D01*
X547738Y370663D01*
X546222D01*
X546308Y370752D01*
X546385Y370841D01*
X546453Y370931D01*
X546512Y371022D01*
X546561Y371113D01*
X546602Y371205D01*
X546633Y371297D01*
X546656Y371390D01*
X546669Y371484D01*
X546674Y371578D01*
X547287D01*
X547291Y371484D01*
D02*
G37*
G36*
X543534Y369756D02*
X543542Y369638D01*
X543558Y369526D01*
X543581Y369421D01*
X543610Y369321D01*
X543646Y369228D01*
X543689Y369140D01*
X543739Y369058D01*
X543796Y368982D01*
X543859Y368913D01*
X543426Y368480D01*
X543356Y368543D01*
X543280Y368600D01*
X543199Y368649D01*
X543111Y368692D01*
X543017Y368728D01*
X542918Y368758D01*
X542812Y368780D01*
X542701Y368796D01*
X542583Y368805D01*
X542460Y368807D01*
X543531Y369879D01*
X543534Y369756D01*
D02*
G37*
G36*
X538593Y369028D02*
X538517Y368938D01*
X538449Y368848D01*
X538390Y368758D01*
X538340Y368667D01*
X538300Y368575D01*
X538268Y368482D01*
X538246Y368389D01*
X538232Y368296D01*
X538228Y368202D01*
X537615D01*
X537610Y368296D01*
X537597Y368389D01*
X537574Y368482D01*
X537543Y368575D01*
X537502Y368667D01*
X537452Y368758D01*
X537394Y368848D01*
X537326Y368938D01*
X537249Y369028D01*
X537163Y369117D01*
X538679D01*
X538593Y369028D01*
D02*
G37*
G36*
X534066D02*
X533989Y368938D01*
X533921Y368848D01*
X533862Y368758D01*
X533813Y368667D01*
X533772Y368575D01*
X533741Y368482D01*
X533718Y368389D01*
X533705Y368296D01*
X533700Y368202D01*
X533087D01*
X533083Y368296D01*
X533069Y368389D01*
X533047Y368482D01*
X533015Y368575D01*
X532974Y368667D01*
X532925Y368758D01*
X532866Y368848D01*
X532798Y368938D01*
X532722Y369028D01*
X532636Y369117D01*
X534152D01*
X534066Y369028D01*
D02*
G37*
G36*
X529538D02*
X529461Y368938D01*
X529394Y368848D01*
X529335Y368758D01*
X529285Y368667D01*
X529245Y368575D01*
X529213Y368482D01*
X529190Y368389D01*
X529177Y368296D01*
X529172Y368202D01*
X528560D01*
X528555Y368296D01*
X528542Y368389D01*
X528519Y368482D01*
X528488Y368575D01*
X528447Y368667D01*
X528397Y368758D01*
X528339Y368848D01*
X528271Y368938D01*
X528194Y369028D01*
X528108Y369117D01*
X529624D01*
X529538Y369028D01*
D02*
G37*
G36*
X524967D02*
X524891Y368938D01*
X524823Y368848D01*
X524764Y368758D01*
X524714Y368667D01*
X524674Y368575D01*
X524642Y368482D01*
X524620Y368389D01*
X524606Y368296D01*
X524602Y368202D01*
X523989D01*
X523984Y368296D01*
X523971Y368389D01*
X523948Y368482D01*
X523917Y368575D01*
X523876Y368667D01*
X523826Y368758D01*
X523768Y368848D01*
X523700Y368938D01*
X523623Y369028D01*
X523537Y369117D01*
X525053D01*
X524967Y369028D01*
D02*
G37*
G36*
X520282D02*
X520205Y368938D01*
X520138Y368848D01*
X520079Y368758D01*
X520029Y368667D01*
X519989Y368575D01*
X519957Y368482D01*
X519935Y368389D01*
X519921Y368296D01*
X519916Y368202D01*
X519304D01*
X519300Y368296D01*
X519286Y368389D01*
X519263Y368482D01*
X519232Y368575D01*
X519191Y368667D01*
X519141Y368758D01*
X519083Y368848D01*
X519015Y368938D01*
X518938Y369028D01*
X518852Y369117D01*
X520368D01*
X520282Y369028D01*
D02*
G37*
G36*
X515475D02*
X515398Y368938D01*
X515331Y368848D01*
X515272Y368758D01*
X515222Y368667D01*
X515182Y368575D01*
X515150Y368482D01*
X515128Y368389D01*
X515114Y368296D01*
X515109Y368202D01*
X514497D01*
X514492Y368296D01*
X514479Y368389D01*
X514456Y368482D01*
X514425Y368575D01*
X514384Y368667D01*
X514334Y368758D01*
X514276Y368848D01*
X514208Y368938D01*
X514131Y369028D01*
X514045Y369117D01*
X515561D01*
X515475Y369028D01*
D02*
G37*
G36*
X510904D02*
X510828Y368938D01*
X510760Y368848D01*
X510701Y368758D01*
X510651Y368667D01*
X510611Y368575D01*
X510579Y368482D01*
X510557Y368389D01*
X510543Y368296D01*
X510538Y368202D01*
X509926D01*
X509922Y368296D01*
X509908Y368389D01*
X509885Y368482D01*
X509854Y368575D01*
X509813Y368667D01*
X509763Y368758D01*
X509705Y368848D01*
X509637Y368938D01*
X509560Y369028D01*
X509474Y369117D01*
X510990D01*
X510904Y369028D01*
D02*
G37*
G36*
X506377D02*
X506300Y368938D01*
X506232Y368848D01*
X506174Y368758D01*
X506124Y368667D01*
X506083Y368575D01*
X506052Y368482D01*
X506029Y368389D01*
X506015Y368296D01*
X506011Y368202D01*
X505399D01*
X505394Y368296D01*
X505380Y368389D01*
X505358Y368482D01*
X505326Y368575D01*
X505286Y368667D01*
X505236Y368758D01*
X505177Y368848D01*
X505109Y368938D01*
X505033Y369028D01*
X504947Y369117D01*
X506463D01*
X506377Y369028D01*
D02*
G37*
G36*
X503977Y178082D02*
X504189Y177962D01*
X504291Y177913D01*
X504391Y177871D01*
X504489Y177837D01*
X504585Y177811D01*
X504678Y177792D01*
X504769Y177781D01*
X504858Y177777D01*
X504986Y177165D01*
X504889Y177160D01*
X504795Y177145D01*
X504704Y177120D01*
X504617Y177085D01*
X504533Y177040D01*
X504452Y176986D01*
X504375Y176921D01*
X504302Y176846D01*
X504232Y176762D01*
X504165Y176667D01*
X503867Y178153D01*
X503977Y178082D01*
D02*
G37*
G36*
X488424Y169551D02*
X488347Y169461D01*
X488280Y169371D01*
X488221Y169281D01*
X488171Y169189D01*
X488131Y169098D01*
X488099Y169005D01*
X488076Y168912D01*
X488063Y168819D01*
X488058Y168725D01*
X487446D01*
X487441Y168819D01*
X487428Y168912D01*
X487405Y169005D01*
X487374Y169098D01*
X487333Y169189D01*
X487283Y169281D01*
X487225Y169371D01*
X487157Y169461D01*
X487080Y169551D01*
X486994Y169639D01*
X488510D01*
X488424Y169551D01*
D02*
G37*
G36*
X822780Y656158D02*
X822870Y656081D01*
X822960Y656013D01*
X823050Y655955D01*
X823141Y655905D01*
X823233Y655864D01*
X823326Y655833D01*
X823419Y655810D01*
X823512Y655797D01*
X823606Y655792D01*
Y655180D01*
X823512Y655175D01*
X823419Y655162D01*
X823326Y655139D01*
X823233Y655107D01*
X823141Y655067D01*
X823050Y655017D01*
X822960Y654958D01*
X822870Y654890D01*
X822780Y654814D01*
X822691Y654728D01*
Y656244D01*
X822780Y656158D01*
D02*
G37*
G36*
X1005224Y228883D02*
X1005238Y228789D01*
X1005260Y228696D01*
X1005292Y228604D01*
X1005333Y228512D01*
X1005382Y228421D01*
X1005441Y228330D01*
X1005509Y228240D01*
X1005585Y228151D01*
X1005671Y228062D01*
X1004156D01*
X1004241Y228151D01*
X1004318Y228240D01*
X1004386Y228330D01*
X1004445Y228421D01*
X1004494Y228512D01*
X1004535Y228604D01*
X1004566Y228696D01*
X1004589Y228789D01*
X1004603Y228883D01*
X1004607Y228977D01*
X1005220D01*
X1005224Y228883D01*
D02*
G37*
G36*
X1000224Y228785D02*
X1000238Y228692D01*
X1000260Y228599D01*
X1000292Y228506D01*
X1000333Y228415D01*
X1000382Y228323D01*
X1000441Y228233D01*
X1000509Y228143D01*
X1000585Y228053D01*
X1000671Y227964D01*
X999156D01*
X999241Y228053D01*
X999318Y228143D01*
X999386Y228233D01*
X999445Y228323D01*
X999494Y228415D01*
X999535Y228506D01*
X999566Y228599D01*
X999589Y228692D01*
X999603Y228785D01*
X999607Y228879D01*
X1000220D01*
X1000224Y228785D01*
D02*
G37*
G36*
X1056274Y212178D02*
X1056364Y212101D01*
X1056454Y212034D01*
X1056544Y211975D01*
X1056635Y211925D01*
X1056727Y211885D01*
X1056820Y211853D01*
X1056913Y211830D01*
X1057006Y211817D01*
X1057100Y211812D01*
X1057100Y211200D01*
X1057006Y211195D01*
X1056913Y211182D01*
X1056820Y211159D01*
X1056727Y211128D01*
X1056635Y211087D01*
X1056544Y211037D01*
X1056454Y210979D01*
X1056364Y210911D01*
X1056274Y210834D01*
X1056185Y210748D01*
X1056185Y212264D01*
X1056274Y212178D01*
D02*
G37*
G36*
X580157Y687892D02*
X580208Y687951D01*
X580253Y688021D01*
X580293Y688101D01*
X580327Y688193D01*
X580356Y688295D01*
X580379Y688407D01*
X580397Y688531D01*
X580416Y688810D01*
X580417Y688966D01*
X581489Y687894D01*
X581334Y687893D01*
X581054Y687874D01*
X580931Y687856D01*
X580818Y687833D01*
X580716Y687804D01*
X580625Y687769D01*
X580545Y687730D01*
X580475Y687684D01*
X580415Y687633D01*
X580157Y687892D01*
D02*
G37*
G36*
X588585Y692411D02*
X588525Y692462D01*
X588455Y692508D01*
X588375Y692548D01*
X588284Y692582D01*
X588182Y692611D01*
X588069Y692634D01*
X587946Y692652D01*
X587666Y692671D01*
X587511Y692672D01*
X588583Y693744D01*
X588584Y693588D01*
X588603Y693309D01*
X588621Y693186D01*
X588644Y693073D01*
X588673Y692971D01*
X588707Y692880D01*
X588747Y692799D01*
X588792Y692729D01*
X588843Y692670D01*
X588585Y692411D01*
D02*
G37*
G36*
X589782Y692670D02*
X589833Y692729D01*
X589878Y692799D01*
X589918Y692880D01*
X589952Y692971D01*
X589981Y693073D01*
X590004Y693186D01*
X590022Y693309D01*
X590041Y693588D01*
X590042Y693744D01*
X591114Y692672D01*
X590959Y692671D01*
X590680Y692652D01*
X590556Y692634D01*
X590443Y692611D01*
X590341Y692582D01*
X590250Y692548D01*
X590169Y692508D01*
X590100Y692462D01*
X590040Y692411D01*
X589782Y692670D01*
D02*
G37*
G36*
X826393Y658434D02*
X826299Y658429D01*
X826205Y658416D01*
X826112Y658393D01*
X826020Y658362D01*
X825928Y658321D01*
X825837Y658271D01*
X825746Y658213D01*
X825656Y658145D01*
X825567Y658068D01*
X825478Y657982D01*
Y659498D01*
X825567Y659412D01*
X825656Y659336D01*
X825746Y659268D01*
X825837Y659209D01*
X825928Y659159D01*
X826020Y659119D01*
X826112Y659087D01*
X826205Y659064D01*
X826299Y659051D01*
X826393Y659046D01*
Y658434D01*
D02*
G37*
G36*
X1085419Y673403D02*
X1085423Y673328D01*
X1085433Y673256D01*
X1085450Y673187D01*
X1085475Y673122D01*
X1085506Y673059D01*
X1085544Y672999D01*
X1085589Y672942D01*
X1085641Y672888D01*
X1085699Y672837D01*
X1085765Y672789D01*
X1084707D01*
X1084773Y672837D01*
X1084832Y672888D01*
X1084884Y672942D01*
X1084929Y672999D01*
X1084967Y673059D01*
X1084998Y673122D01*
X1085022Y673187D01*
X1085039Y673256D01*
X1085050Y673328D01*
X1085053Y673403D01*
X1085419D01*
D02*
G37*
G36*
X1085053Y674808D02*
X1085050Y674883D01*
X1085039Y674955D01*
X1085022Y675024D01*
X1084998Y675090D01*
X1084967Y675153D01*
X1084929Y675213D01*
X1084884Y675270D01*
X1084832Y675324D01*
X1084773Y675374D01*
X1084707Y675422D01*
X1085765D01*
X1085699Y675374D01*
X1085641Y675324D01*
X1085589Y675270D01*
X1085544Y675213D01*
X1085506Y675153D01*
X1085475Y675090D01*
X1085450Y675024D01*
X1085433Y674955D01*
X1085423Y674883D01*
X1085419Y674808D01*
X1085053D01*
D02*
G37*
G36*
X1087782Y679002D02*
X1087786Y678931D01*
X1087801Y678857D01*
X1087825Y678781D01*
X1087859Y678702D01*
X1087902Y678621D01*
X1087955Y678537D01*
X1088018Y678451D01*
X1088090Y678363D01*
X1088263Y678178D01*
X1086933D01*
X1087025Y678272D01*
X1087179Y678451D01*
X1087242Y678537D01*
X1087295Y678621D01*
X1087338Y678702D01*
X1087372Y678781D01*
X1087396Y678857D01*
X1087411Y678931D01*
X1087415Y679002D01*
X1087782D01*
D02*
G37*
G36*
X1087415Y680498D02*
X1087411Y680569D01*
X1087396Y680643D01*
X1087372Y680720D01*
X1087338Y680798D01*
X1087295Y680879D01*
X1087242Y680963D01*
X1087179Y681049D01*
X1087107Y681137D01*
X1086933Y681322D01*
X1088263D01*
X1088172Y681228D01*
X1088018Y681049D01*
X1087955Y680963D01*
X1087902Y680879D01*
X1087859Y680798D01*
X1087825Y680720D01*
X1087801Y680643D01*
X1087786Y680569D01*
X1087782Y680498D01*
X1087415D01*
D02*
G37*
G36*
X1085419Y690502D02*
X1085424Y690431D01*
X1085439Y690357D01*
X1085463Y690280D01*
X1085496Y690202D01*
X1085540Y690121D01*
X1085593Y690037D01*
X1085655Y689951D01*
X1085728Y689863D01*
X1085901Y689678D01*
X1084571D01*
X1084663Y689772D01*
X1084817Y689951D01*
X1084880Y690037D01*
X1084933Y690121D01*
X1084976Y690202D01*
X1085010Y690280D01*
X1085034Y690357D01*
X1085048Y690431D01*
X1085053Y690502D01*
X1085419D01*
D02*
G37*
G36*
X1085053Y691998D02*
X1085048Y692069D01*
X1085034Y692143D01*
X1085010Y692219D01*
X1084976Y692298D01*
X1084933Y692379D01*
X1084880Y692463D01*
X1084817Y692549D01*
X1084745Y692637D01*
X1084571Y692822D01*
X1085901D01*
X1085810Y692728D01*
X1085655Y692549D01*
X1085593Y692463D01*
X1085540Y692379D01*
X1085496Y692298D01*
X1085463Y692219D01*
X1085439Y692143D01*
X1085424Y692069D01*
X1085419Y691998D01*
X1085053D01*
D02*
G37*
G36*
X1087782Y696536D02*
X1087786Y696459D01*
X1087798Y696383D01*
X1087818Y696309D01*
X1087846Y696236D01*
X1087882Y696165D01*
X1087927Y696095D01*
X1087979Y696027D01*
X1088040Y695960D01*
X1088108Y695894D01*
X1088185Y695830D01*
X1087012D01*
X1087089Y695894D01*
X1087157Y695960D01*
X1087218Y696027D01*
X1087270Y696095D01*
X1087315Y696165D01*
X1087351Y696236D01*
X1087379Y696309D01*
X1087399Y696383D01*
X1087411Y696459D01*
X1087415Y696536D01*
X1087782D01*
D02*
G37*
G36*
X1087415Y697941D02*
X1087411Y698018D01*
X1087399Y698093D01*
X1087379Y698168D01*
X1087351Y698240D01*
X1087315Y698311D01*
X1087270Y698381D01*
X1087218Y698450D01*
X1087157Y698517D01*
X1087089Y698582D01*
X1087012Y698646D01*
X1088185D01*
X1088108Y698582D01*
X1088040Y698517D01*
X1087979Y698450D01*
X1087927Y698381D01*
X1087882Y698311D01*
X1087846Y698240D01*
X1087818Y698168D01*
X1087798Y698093D01*
X1087786Y698018D01*
X1087782Y697941D01*
X1087415D01*
D02*
G37*
G36*
X1132451Y216702D02*
X1132545Y216706D01*
X1132639Y216720D01*
X1132732Y216742D01*
X1132824Y216774D01*
X1132916Y216814D01*
X1133007Y216864D01*
X1133098Y216923D01*
X1133188Y216991D01*
X1133277Y217067D01*
X1133366Y217153D01*
Y215637D01*
X1133277Y215723D01*
X1133188Y215800D01*
X1133098Y215868D01*
X1133007Y215927D01*
X1132916Y215976D01*
X1132824Y216017D01*
X1132732Y216048D01*
X1132639Y216071D01*
X1132545Y216085D01*
X1132451Y216089D01*
Y216702D01*
D02*
G37*
G36*
X1135827Y216089D02*
X1135733Y216085D01*
X1135640Y216071D01*
X1135547Y216048D01*
X1135454Y216017D01*
X1135363Y215976D01*
X1135271Y215927D01*
X1135181Y215868D01*
X1135091Y215800D01*
X1135001Y215723D01*
X1134912Y215637D01*
Y217153D01*
X1135001Y217067D01*
X1135091Y216991D01*
X1135181Y216923D01*
X1135271Y216864D01*
X1135363Y216814D01*
X1135454Y216774D01*
X1135547Y216742D01*
X1135640Y216720D01*
X1135733Y216706D01*
X1135827Y216702D01*
Y216089D01*
D02*
G37*
G36*
X1140674Y213502D02*
X1140768Y213506D01*
X1140861Y213520D01*
X1140954Y213543D01*
X1141047Y213574D01*
X1141139Y213615D01*
X1141230Y213665D01*
X1141320Y213723D01*
X1141410Y213791D01*
X1141500Y213868D01*
X1141589Y213953D01*
Y212438D01*
X1141500Y212524D01*
X1141410Y212600D01*
X1141320Y212668D01*
X1141230Y212727D01*
X1141139Y212776D01*
X1141047Y212817D01*
X1140954Y212849D01*
X1140861Y212871D01*
X1140768Y212885D01*
X1140674Y212889D01*
Y213502D01*
D02*
G37*
G36*
X1144050Y212889D02*
X1143956Y212885D01*
X1143862Y212871D01*
X1143769Y212849D01*
X1143677Y212817D01*
X1143585Y212776D01*
X1143494Y212727D01*
X1143403Y212668D01*
X1143313Y212600D01*
X1143224Y212524D01*
X1143135Y212438D01*
Y213953D01*
X1143224Y213868D01*
X1143313Y213791D01*
X1143403Y213723D01*
X1143494Y213665D01*
X1143585Y213615D01*
X1143677Y213574D01*
X1143769Y213543D01*
X1143862Y213520D01*
X1143956Y213506D01*
X1144050Y213502D01*
Y212889D01*
D02*
G37*
G36*
X1158793Y233401D02*
X1158788Y233494D01*
X1158776Y233587D01*
X1158754Y233680D01*
X1158725Y233774D01*
X1158686Y233869D01*
X1158640Y233964D01*
X1158584Y234059D01*
X1158521Y234156D01*
X1158449Y234252D01*
X1158368Y234349D01*
X1159879Y234230D01*
X1159789Y234150D01*
X1159708Y234068D01*
X1159637Y233984D01*
X1159576Y233899D01*
X1159524Y233812D01*
X1159481Y233723D01*
X1159448Y233633D01*
X1159424Y233541D01*
X1159410Y233447D01*
X1159405Y233351D01*
X1158793Y233401D01*
D02*
G37*
G36*
X1159405Y236770D02*
X1159410Y236674D01*
X1159424Y236580D01*
X1159448Y236488D01*
X1159481Y236398D01*
X1159524Y236309D01*
X1159576Y236222D01*
X1159637Y236137D01*
X1159708Y236053D01*
X1159789Y235971D01*
X1159879Y235891D01*
X1158368Y235771D01*
X1158449Y235869D01*
X1158584Y236062D01*
X1158640Y236157D01*
X1158686Y236252D01*
X1158725Y236347D01*
X1158754Y236441D01*
X1158776Y236534D01*
X1158788Y236627D01*
X1158793Y236719D01*
X1159405Y236770D01*
D02*
G37*
G36*
X1153033Y239809D02*
X1153029Y239903D01*
X1153015Y239996D01*
X1152993Y240089D01*
X1152962Y240182D01*
X1152921Y240274D01*
X1152872Y240366D01*
X1152814Y240458D01*
X1152747Y240549D01*
X1152671Y240640D01*
X1152586Y240730D01*
X1154101Y240709D01*
X1154015Y240621D01*
X1153937Y240533D01*
X1153869Y240444D01*
X1153810Y240355D01*
X1153760Y240264D01*
X1153718Y240173D01*
X1153687Y240081D01*
X1153664Y239988D01*
X1153650Y239895D01*
X1153646Y239800D01*
X1153033Y239809D01*
D02*
G37*
G36*
X1153646Y243185D02*
X1153650Y243091D01*
X1153664Y242997D01*
X1153687Y242904D01*
X1153718Y242812D01*
X1153760Y242721D01*
X1153810Y242630D01*
X1153869Y242541D01*
X1153937Y242452D01*
X1154015Y242364D01*
X1154101Y242276D01*
X1152586Y242255D01*
X1152671Y242345D01*
X1152747Y242436D01*
X1152814Y242527D01*
X1152872Y242619D01*
X1152921Y242711D01*
X1152962Y242803D01*
X1152993Y242896D01*
X1153015Y242989D01*
X1153029Y243082D01*
X1153033Y243176D01*
X1153646Y243185D01*
D02*
G37*
G36*
X1122866Y675529D02*
X1122870Y675431D01*
X1122884Y675342D01*
X1122906Y675261D01*
X1122937Y675188D01*
X1122977Y675123D01*
X1123026Y675066D01*
X1123083Y675017D01*
X1123150Y674976D01*
X1123226Y674943D01*
X1123310Y674919D01*
X1122056D01*
X1122140Y674943D01*
X1122215Y674976D01*
X1122282Y675017D01*
X1122340Y675066D01*
X1122389Y675123D01*
X1122429Y675188D01*
X1122460Y675261D01*
X1122482Y675342D01*
X1122495Y675431D01*
X1122500Y675529D01*
X1122866D01*
D02*
G37*
G36*
X1122500Y676934D02*
X1122495Y677031D01*
X1122482Y677120D01*
X1122460Y677201D01*
X1122429Y677274D01*
X1122389Y677339D01*
X1122340Y677396D01*
X1122282Y677445D01*
X1122215Y677486D01*
X1122140Y677519D01*
X1122056Y677544D01*
X1123310D01*
X1123226Y677519D01*
X1123150Y677486D01*
X1123083Y677445D01*
X1123026Y677396D01*
X1122977Y677339D01*
X1122937Y677274D01*
X1122906Y677201D01*
X1122884Y677120D01*
X1122870Y677031D01*
X1122866Y676934D01*
X1122500D01*
D02*
G37*
G36*
X1130371Y679888D02*
X1130439Y679840D01*
X1130561Y679779D01*
X1130736Y679707D01*
X1131577Y679417D01*
X1133438Y678862D01*
X1130048Y677020D01*
X1130161Y677415D01*
X1130310Y678121D01*
X1130347Y678432D01*
X1130359Y678714D01*
X1130344Y678969D01*
X1130305Y679195D01*
X1130240Y679394D01*
X1130150Y679564D01*
X1130035Y679706D01*
X1130371Y679888D01*
D02*
G37*
G36*
X1128279Y684373D02*
X1128434Y684391D01*
X1128609Y684443D01*
X1128803Y684531D01*
X1129016Y684653D01*
X1129249Y684811D01*
X1129502Y685003D01*
X1130065Y685493D01*
X1130705Y686123D01*
X1130724Y682265D01*
X1130389Y682596D01*
X1129505Y683380D01*
X1129251Y683572D01*
X1129017Y683728D01*
X1128802Y683850D01*
X1128608Y683938D01*
X1128434Y683990D01*
X1128280Y684007D01*
X1128279Y684373D01*
D02*
G37*
G36*
X1122866Y699466D02*
X1122870Y699368D01*
X1122884Y699279D01*
X1122906Y699198D01*
X1122937Y699125D01*
X1122977Y699060D01*
X1123026Y699003D01*
X1123083Y698954D01*
X1123150Y698913D01*
X1123226Y698880D01*
X1123310Y698856D01*
X1122056D01*
X1122140Y698880D01*
X1122215Y698913D01*
X1122282Y698954D01*
X1122340Y699003D01*
X1122389Y699060D01*
X1122429Y699125D01*
X1122460Y699198D01*
X1122482Y699279D01*
X1122495Y699368D01*
X1122500Y699466D01*
X1122866D01*
D02*
G37*
G36*
X1122500Y700871D02*
X1122495Y700968D01*
X1122482Y701057D01*
X1122460Y701138D01*
X1122429Y701211D01*
X1122389Y701276D01*
X1122340Y701333D01*
X1122282Y701382D01*
X1122215Y701423D01*
X1122140Y701456D01*
X1122056Y701481D01*
X1123310D01*
X1123226Y701456D01*
X1123150Y701423D01*
X1123083Y701382D01*
X1123026Y701333D01*
X1122977Y701276D01*
X1122937Y701211D01*
X1122906Y701138D01*
X1122884Y701057D01*
X1122870Y700968D01*
X1122866Y700871D01*
X1122500D01*
D02*
G37*
G36*
X1132866Y695489D02*
X1132870Y695392D01*
X1132884Y695303D01*
X1132906Y695222D01*
X1132937Y695149D01*
X1132977Y695084D01*
X1133026Y695027D01*
X1133084Y694978D01*
X1133150Y694937D01*
X1133226Y694904D01*
X1133310Y694879D01*
X1132055D01*
X1132140Y694904D01*
X1132215Y694937D01*
X1132282Y694978D01*
X1132340Y695027D01*
X1132389Y695084D01*
X1132429Y695149D01*
X1132460Y695222D01*
X1132482Y695303D01*
X1132495Y695392D01*
X1132500Y695489D01*
X1132866D01*
D02*
G37*
G36*
X1132500Y696894D02*
X1132495Y696991D01*
X1132482Y697081D01*
X1132460Y697162D01*
X1132429Y697235D01*
X1132389Y697300D01*
X1132340Y697357D01*
X1132282Y697406D01*
X1132215Y697447D01*
X1132140Y697479D01*
X1132055Y697504D01*
X1133310D01*
X1133226Y697479D01*
X1133150Y697447D01*
X1133084Y697406D01*
X1133026Y697357D01*
X1132977Y697300D01*
X1132937Y697235D01*
X1132906Y697162D01*
X1132884Y697081D01*
X1132870Y696991D01*
X1132866Y696894D01*
X1132500D01*
D02*
G37*
D13*
X332667Y364324D02*
X334143Y365800D01*
X311208Y364324D02*
X332667D01*
X294306Y381226D02*
X311208Y364324D01*
X334143Y365800D02*
X344500D01*
X331917Y368702D02*
X341788D01*
X330532Y367316D02*
X331917Y368702D01*
X313804Y367316D02*
X330532D01*
X295714Y385406D02*
X313804Y367316D01*
X262411Y385406D02*
X295714D01*
X256614Y391204D02*
X262411Y385406D01*
X256614Y402569D02*
X256614Y391204D01*
X256614Y402569D02*
X260234Y406189D01*
Y423494D01*
X255866Y408099D02*
Y423494D01*
X251555Y403789D02*
X255866Y408099D01*
X251555Y403789D02*
X251555Y389832D01*
X260161Y381226D01*
X294306D01*
D242*
X274882Y284070D02*
X287058Y271894D01*
X118792Y348434D02*
X183156Y284070D01*
X274882D01*
X324162Y271937D02*
X345387D01*
X190898Y554919D02*
Y568358D01*
X180196Y544217D02*
X190898Y554919D01*
X171979Y544217D02*
X180196D01*
X115136Y487375D02*
X171979Y544217D01*
X355454Y270726D02*
X359858D01*
X354243Y271937D02*
X355454Y270726D01*
X352571Y271937D02*
X354243D01*
X361330Y272199D02*
Y274221D01*
X359858Y270726D02*
X361330Y272199D01*
X345387Y271937D02*
X352571D01*
X323059Y270833D02*
X324162Y271937D01*
X118792Y348434D02*
Y383505D01*
X115136Y387161D02*
X118792Y383505D01*
X115136Y387161D02*
Y487375D01*
X287058Y271894D02*
X294422D01*
X315509Y270833D02*
X323059D01*
X307805D02*
X315509D01*
X304049D02*
X307805D01*
X300641Y271894D02*
X300737Y271989D01*
X294422Y271894D02*
X300641D01*
X300737Y271989D02*
X302893D01*
X304049Y270833D01*
D251*
X542947Y467823D02*
X542970Y467799D01*
X453513Y515929D02*
Y573101D01*
X402901Y392989D02*
Y415000D01*
X424866Y390000D02*
Y488286D01*
Y380387D02*
Y390000D01*
X420588Y395000D02*
Y486652D01*
Y382982D02*
Y395000D01*
X416311Y400000D02*
Y484330D01*
Y383455D02*
Y400000D01*
X411812Y405000D02*
Y482220D01*
Y384109D02*
Y405000D01*
X353186Y344212D02*
X356386D01*
X407321Y410000D02*
Y480360D01*
Y389808D02*
Y410000D01*
X377716Y355752D02*
Y360203D01*
X402901Y415000D02*
Y477388D01*
X352264Y351232D02*
X361143D01*
X397539Y426500D02*
Y475874D01*
Y398127D02*
Y426500D01*
X393311Y429500D02*
X393311Y472814D01*
X393311Y400209D02*
X393311Y429500D01*
X161468Y480107D02*
X197361Y516000D01*
X161468Y382686D02*
Y480107D01*
X197361Y516000D02*
X198436Y517075D01*
X256653Y517075D01*
X191812Y516000D02*
X196644Y520831D01*
X158053Y482241D02*
X191812Y516000D01*
X185495D02*
X194216Y524721D01*
X153950Y484455D02*
X185495Y516000D01*
X179006D02*
X191180Y528173D01*
X150113Y487107D02*
X179006Y516000D01*
X190000Y337500D02*
X212700D01*
X150775Y337500D02*
X190000Y337500D01*
X200000Y344663D02*
X217405D01*
X157056Y344663D02*
X200000Y344663D01*
X195000Y341095D02*
X215541D01*
X154053Y341095D02*
X195000Y341095D01*
X212700Y337500D02*
X237702Y312497D01*
X1153339Y225745D02*
Y309433D01*
X1159099Y224240D02*
Y311183D01*
X1063656Y208300D02*
X1127451D01*
X1063577Y208221D02*
X1063656Y208300D01*
X1127451D02*
X1132347Y213196D01*
X1126132Y211506D02*
X1131022Y216395D01*
X1055412Y211506D02*
X1126132D01*
X1055412Y211506D02*
X1055412Y211506D01*
X1132347Y213196D02*
X1142362D01*
X1148055D01*
X1134139Y216395D02*
X1143990D01*
X1131022D02*
X1134139D01*
X377000Y602124D02*
Y614900D01*
X434118Y672018D02*
X468161D01*
X377000Y614900D02*
X434118Y672018D01*
X503258Y177471D02*
X518101D01*
X475177Y335319D02*
X502091Y362233D01*
X475177Y306692D02*
Y335319D01*
X466583Y298098D02*
X475177Y306692D01*
X480363Y333962D02*
X510232Y363831D01*
X480363Y306768D02*
Y333962D01*
X470525Y296930D02*
X480363Y306768D01*
X266529Y179990D02*
X276083Y170435D01*
X266529Y179990D02*
Y210023D01*
X163997Y179781D02*
X173296Y170482D01*
X163997Y179781D02*
Y194515D01*
X780527Y262123D02*
X802936Y239714D01*
X785152Y264039D02*
X804438Y244753D01*
X780527Y262123D02*
Y312424D01*
X785152Y264039D02*
Y314340D01*
X754144Y338807D02*
X780527Y312424D01*
X758770Y340723D02*
X785152Y314340D01*
X754144Y338807D02*
X754144Y455971D01*
X758770Y340723D02*
X758770Y457887D01*
X751149Y465508D02*
X758770Y457887D01*
X749233Y460882D02*
X754144Y455971D01*
X278962Y355422D02*
X282023Y352361D01*
X174364Y355422D02*
X278962D01*
X153950Y375836D02*
X174364Y355422D01*
X282023Y352361D02*
X294700D01*
X295510Y353170D02*
Y354712D01*
X294700Y352361D02*
X295510Y353170D01*
X288520Y364012D02*
X293654Y358878D01*
X295433D01*
X283081Y356647D02*
X291457D01*
X280350Y359379D02*
X283081Y356647D01*
X176338Y359379D02*
X280350D01*
X291457Y356647D02*
X291614Y356805D01*
X180142Y364012D02*
X288520D01*
X271488Y351544D02*
X275492D01*
X270397Y350453D02*
X271488Y351544D01*
X172875Y350453D02*
X270397D01*
X295433Y358878D02*
X295492Y358818D01*
X535955Y516334D02*
X549971Y502318D01*
X528365Y516334D02*
X535955D01*
X503042Y541657D02*
X528365Y516334D01*
X497132Y555158D02*
X503042Y549248D01*
Y541657D02*
Y549248D01*
X494208Y551786D02*
X499048Y546946D01*
Y538803D02*
Y546946D01*
Y538803D02*
X525084Y512767D01*
X533227D02*
X546233Y499761D01*
X525084Y512767D02*
X533227D01*
X494208Y551786D02*
Y593869D01*
X546233Y479325D02*
Y499761D01*
X549971Y463319D02*
Y502318D01*
X497132Y555158D02*
Y557774D01*
X995975Y244753D02*
X1004913Y235815D01*
X804438Y244753D02*
X995975D01*
X557583Y465508D02*
X751149Y465508D01*
X552921Y465508D02*
X557583D01*
X1004913Y227289D02*
Y235815D01*
X368307Y669628D02*
Y688189D01*
X405131Y260424D02*
Y303518D01*
X407187Y305574D01*
X490017Y676628D02*
Y685400D01*
X487696Y687722D02*
X490017Y685400D01*
X487696Y687722D02*
Y691195D01*
X472936Y659547D02*
X490017Y676628D01*
X484045Y676651D02*
Y693317D01*
X471928Y664535D02*
X484045Y676651D01*
X436698Y664535D02*
X471928D01*
X466165Y608895D02*
X466167D01*
X464611D02*
X466165D01*
X545351Y463302D02*
Y473581D01*
X545683Y473912D01*
X547764Y467134D02*
Y477794D01*
X524548Y495047D02*
X545683Y473912D01*
X546233Y479325D02*
X547764Y477794D01*
X120458Y229684D02*
X147844Y257070D01*
X120458Y173106D02*
Y229684D01*
Y173106D02*
X123202Y170363D01*
X283581Y177114D02*
X302614D01*
X277639Y183056D02*
X283581Y177114D01*
X277639Y183056D02*
Y213317D01*
X464264Y356557D02*
Y361913D01*
X445128Y337421D02*
X464264Y356557D01*
X443784Y337421D02*
X445128D01*
X505705Y367937D02*
Y369890D01*
X502091Y364324D02*
X505705Y367937D01*
X502091Y362233D02*
Y364324D01*
X474854Y345574D02*
X504771Y375491D01*
X474854Y342317D02*
Y345574D01*
X468798Y336261D02*
X474854Y342317D01*
X504771Y375491D02*
X543229D01*
X546980Y371740D01*
X161468Y382686D02*
X180142Y364012D01*
X337309Y165651D02*
Y168885D01*
X361143Y351232D02*
X402901Y392989D01*
X500821Y427881D02*
X502440D01*
X495349Y433354D02*
X500821Y427881D01*
X502440D02*
X512370Y427881D01*
X142049Y373938D02*
Y489802D01*
X140504Y372393D02*
X142049Y373938D01*
X140504Y362366D02*
Y372393D01*
X142049Y353099D02*
Y360821D01*
X140504Y362366D02*
X142049Y360821D01*
Y353099D02*
X154053Y341095D01*
X142049Y489802D02*
X188104Y535857D01*
X533394Y360952D02*
Y369890D01*
X514917Y342476D02*
X533394Y360952D01*
X514917Y238610D02*
Y342476D01*
X528866Y363034D02*
Y369890D01*
X505169Y339337D02*
X528866Y363034D01*
X505169Y273657D02*
Y339337D01*
X511119Y438870D02*
X514252Y435736D01*
X472830Y438870D02*
X511119D01*
X514252Y430707D02*
Y435736D01*
X446724Y412764D02*
X472830Y438870D01*
X446724Y394318D02*
Y412764D01*
X387052Y334647D02*
X446724Y394318D01*
X384922Y334647D02*
X387052D01*
X378066Y327791D02*
X384922Y334647D01*
X378066Y326121D02*
Y327791D01*
X365479Y313533D02*
X378066Y326121D01*
X390405Y331787D02*
X450446Y391828D01*
X387900Y331787D02*
X390405D01*
X381606Y325492D02*
X387900Y331787D01*
X381606Y323170D02*
Y325492D01*
X369244Y310809D02*
X381606Y323170D01*
X373798Y309395D02*
X385797Y321394D01*
X373798Y270290D02*
Y309395D01*
X385797Y321394D02*
Y324709D01*
X369244Y270732D02*
Y310809D01*
X450446Y391828D02*
Y410937D01*
X392380Y327664D02*
X453950Y389234D01*
X388752Y327664D02*
X392380D01*
X385797Y324709D02*
X388752Y327664D01*
X404381Y319978D02*
X409156Y324752D01*
X400544Y319978D02*
X404381D01*
X385077Y304511D02*
X400544Y319978D01*
X453950Y389234D02*
Y409613D01*
X377699Y307529D02*
X457767Y387597D01*
X377699Y268546D02*
Y307529D01*
X457767Y387597D02*
Y408240D01*
X461436Y386214D02*
Y406359D01*
X381420Y306199D02*
X461436Y386214D01*
X381420Y266606D02*
Y306199D01*
X385077Y264817D02*
Y304511D01*
X409156Y324752D02*
Y327943D01*
X406190Y316158D02*
X412695Y322662D01*
X402264Y316158D02*
X406190D01*
X388678Y302572D02*
X402264Y316158D01*
X388678Y262849D02*
Y302572D01*
X412695Y326014D02*
X418638Y331957D01*
X412695Y322662D02*
Y326014D01*
X421959Y331957D02*
X445753Y355751D01*
X418638Y331957D02*
X421959D01*
X398305Y306517D02*
X404919Y313131D01*
X398305Y281358D02*
Y306517D01*
X404919Y313131D02*
X408757D01*
X416031Y320405D01*
Y324243D02*
X419250Y327463D01*
X416031Y320405D02*
Y324243D01*
X419250Y327463D02*
X422664D01*
X411937Y305574D02*
X443784Y337421D01*
X407187Y305574D02*
X411937D01*
X455122Y357323D02*
Y362709D01*
X449108Y351309D02*
X455122Y357323D01*
X446510Y351309D02*
X449108D01*
X459625Y356471D02*
Y362158D01*
X449556Y346402D02*
X459625Y356471D01*
X447617Y346402D02*
X449556D01*
X410796Y309581D02*
X447617Y346402D01*
X406584Y309581D02*
X410796D01*
X402034Y305031D02*
X406584Y309581D01*
X409156Y327943D02*
X464970Y383758D01*
Y405930D01*
X459625Y362158D02*
X479613Y382146D01*
X464264Y361913D02*
X482528Y380176D01*
X472840Y380428D02*
Y402712D01*
X455122Y362709D02*
X472840Y380428D01*
X445753Y355751D02*
Y359072D01*
X469330Y382648D01*
X422664Y327463D02*
X446510Y351309D01*
X402034Y280530D02*
Y305031D01*
X397736Y276232D02*
X402034Y280530D01*
X392803Y275856D02*
X398305Y281358D01*
X348156Y356468D02*
X349569Y356468D01*
X348129Y356441D02*
X348156Y356468D01*
X349569Y356468D02*
X393311Y400209D01*
X158053Y377663D02*
X176338Y359379D01*
X150113Y373215D02*
X172875Y350453D01*
X472651Y653704D02*
X495831Y676884D01*
X435816Y653704D02*
X472651D01*
X391282Y609170D02*
X435816Y653704D01*
X473934Y649927D02*
X498193Y674186D01*
X436444Y649927D02*
X473934D01*
X395765Y609248D02*
X436444Y649927D01*
X437081Y659547D02*
X472936D01*
X387546Y610012D02*
X437081Y659547D01*
X383590Y611427D02*
X436698Y664535D01*
X471725Y668812D02*
X479297Y676384D01*
X435931Y668812D02*
X471725D01*
X380472Y613353D02*
X435931Y668812D01*
X468161Y672018D02*
X476935Y680792D01*
X466523Y676008D02*
X472211Y681696D01*
X429272Y676008D02*
X466523D01*
X355252Y601988D02*
X429272Y676008D01*
X502739Y672675D02*
Y691339D01*
X476363Y646299D02*
X502739Y672675D01*
X453923Y646299D02*
X476363D01*
X498193Y674186D02*
Y688189D01*
X495831Y676884D02*
Y691339D01*
X476935Y680792D02*
Y691339D01*
X479297Y676384D02*
Y688189D01*
X472211Y681696D02*
Y687895D01*
X153950Y375836D02*
Y484455D01*
X136907Y351395D02*
X150775Y337526D01*
X136907Y490634D02*
X136907Y351395D01*
X146294Y355425D02*
X157056Y344663D01*
X146294Y355425D02*
Y488410D01*
X469205Y192961D02*
X474133Y197889D01*
X469205Y170708D02*
Y192961D01*
X458965Y160468D02*
X469205Y170708D01*
X360577Y257070D02*
X373798Y270290D01*
X147844Y257070D02*
X360577Y257070D01*
X360030Y261518D02*
X369244Y270732D01*
X186992Y261518D02*
X360030Y261518D01*
X365479Y272001D02*
Y313533D01*
X358366Y264889D02*
X365479Y272001D01*
X190446Y264889D02*
X358366Y264889D01*
X461436Y406359D02*
X476005Y420929D01*
X457767Y408240D02*
X474983Y425456D01*
X395765Y586419D02*
Y609248D01*
X377699Y334820D02*
X379298D01*
X173296Y170482D02*
X188998D01*
X368003Y202608D02*
X419909Y254514D01*
X368003Y178267D02*
Y202608D01*
X419909Y254514D02*
X441567D01*
X842119Y654164D02*
X993956D01*
X837543Y658740D02*
X842119Y654164D01*
X824705Y658740D02*
X837543D01*
X993956Y654164D02*
X1099181Y548939D01*
X1093429Y369342D02*
X1093429Y545910D01*
X989566Y649773D02*
X1093429Y545910D01*
X841243Y649773D02*
X989566D01*
X1099181Y371101D02*
X1099181Y548939D01*
X1099181Y371101D02*
X1159099Y311183D01*
X1148055Y213196D02*
X1159099Y224240D01*
X121735Y333599D02*
X190446Y264889D01*
X68988Y333599D02*
X121735D01*
X119299Y329211D02*
X186992Y261518D01*
X70742Y329211D02*
X119299D01*
X60157Y318627D02*
X70742Y329211D01*
X60157Y242133D02*
Y318627D01*
X55886Y320498D02*
X68988Y333599D01*
X55886Y244672D02*
Y320498D01*
X54835Y243620D02*
X55886Y244672D01*
X35346Y243620D02*
X54835D01*
X31051Y239325D02*
X35346Y243620D01*
X237702Y312497D02*
X279324D01*
X290196Y323369D01*
X150113Y373215D02*
Y487107D01*
X370644Y664673D02*
Y691339D01*
X241829Y535857D02*
X370644Y664673D01*
X188104Y535857D02*
X241829D01*
X238633Y539954D02*
X368307Y669628D01*
X186227Y539954D02*
X238633D01*
X123202Y170363D02*
X139689D01*
X163997Y194515D02*
X171647Y202165D01*
Y241892D02*
X179103Y249348D01*
X171647Y202165D02*
Y241892D01*
X182718Y245639D02*
X365899Y245639D01*
X177276Y240197D02*
X182718Y245639D01*
X177276Y181761D02*
Y240197D01*
X231692Y242804D02*
X368633Y242804D01*
X219681Y230793D02*
X231692Y242804D01*
X219681Y197753D02*
Y230793D01*
X368633Y242804D02*
X388678Y262849D01*
X364162Y249348D02*
X381420Y266606D01*
X179103Y249348D02*
X364162Y249348D01*
X365899Y245639D02*
X385077Y264817D01*
X392803Y261033D02*
Y275856D01*
X371294Y239524D02*
X392803Y261033D01*
X235169Y239524D02*
X371294Y239524D01*
X217405Y344663D02*
X242591Y319476D01*
X215541Y341095D02*
X240527Y316109D01*
X359291Y347117D02*
X374819D01*
X356386Y344212D02*
X359291Y347117D01*
X379298Y334820D02*
X424866Y380387D01*
X380118Y520522D02*
X416311Y484330D01*
X375427Y342572D02*
X416311Y383455D01*
X384174Y523066D02*
X420588Y486652D01*
X376397Y338791D02*
X420588Y382982D01*
X388559Y524593D02*
X424866Y488286D01*
X380118Y520522D02*
Y576508D01*
X384174Y523066D02*
Y574828D01*
X388559Y524593D02*
Y573012D01*
X367613Y512675D02*
X402901Y477388D01*
X367613Y512675D02*
Y586012D01*
X362252Y511161D02*
X397539Y475874D01*
X362252Y511161D02*
Y587376D01*
X355252Y510873D02*
X393311Y472814D01*
X355252Y510873D02*
Y601988D01*
X387546Y591426D02*
Y610012D01*
X376524Y580405D02*
X387546Y591426D01*
X391282Y587672D02*
Y609170D01*
X380118Y576508D02*
X391282Y587672D01*
X384174Y574828D02*
X395765Y586419D01*
X400677Y593052D02*
X453923Y646299D01*
X400677Y585129D02*
Y593052D01*
X388559Y573012D02*
X400677Y585129D01*
X376524Y517507D02*
Y580405D01*
X383590Y594089D02*
Y611427D01*
X372034Y582533D02*
X383590Y594089D01*
X372034Y515647D02*
Y582533D01*
X380472Y598871D02*
Y613353D01*
X367613Y586012D02*
X380472Y598871D01*
X362252Y587376D02*
X377000Y602124D01*
X273924Y316109D02*
X289023Y331209D01*
X240527Y316109D02*
X273924D01*
X289023Y331209D02*
X290894D01*
X290196Y323369D02*
Y326975D01*
X242591Y319476D02*
X273063D01*
X158053Y377663D02*
Y482241D01*
X136907Y490634D02*
X186227Y539954D01*
X196644Y520831D02*
X254355D01*
X194216Y524721D02*
X251588Y524721D01*
X191180Y528173D02*
X248893D01*
X189643Y531759D02*
X245478D01*
X146294Y488410D02*
X189643Y531759D01*
X254355Y520831D02*
X384816Y651293D01*
X248893Y528173D02*
X377730Y657011D01*
X245478Y531759D02*
X375368Y661650D01*
X256653Y517075D02*
X389540Y649962D01*
X384816Y651293D02*
Y691339D01*
X382454Y655588D02*
Y688189D01*
X251588Y524721D02*
X382454Y655588D01*
X375368Y661650D02*
Y688189D01*
X377730Y657011D02*
Y691339D01*
X448558Y306594D02*
X453124D01*
X453218Y306500D01*
X422180Y203427D02*
Y212015D01*
X404860Y186107D02*
X422180Y203427D01*
X404860Y180145D02*
Y186107D01*
X436663Y164231D02*
Y169323D01*
Y164231D02*
X440426Y160468D01*
X458965D01*
X542947Y467823D02*
Y471575D01*
X522874Y491648D02*
X542947Y471575D01*
X477794Y491648D02*
X522874D01*
X479028Y495047D02*
X524548D01*
X562029Y460882D02*
X749233Y460882D01*
X560522Y462390D02*
X562029Y460882D01*
X555638Y462390D02*
X560522D01*
X802936Y239714D02*
X995503D01*
X999913Y227191D02*
Y235303D01*
X995503Y239714D02*
X999913Y235303D01*
X389540Y649962D02*
Y688189D01*
X495831Y691339D02*
Y691532D01*
X466583Y279530D02*
Y298098D01*
X441567Y254514D02*
X466583Y279530D01*
X470525Y277635D02*
Y296930D01*
X443444Y250554D02*
X470525Y277635D01*
X474133Y197889D02*
Y242621D01*
X469562Y202018D02*
Y244741D01*
X452441Y184897D02*
X469562Y202018D01*
X452441Y177032D02*
Y184897D01*
X366768Y177032D02*
X368003Y178267D01*
X552158Y381988D02*
X556629Y377517D01*
Y367981D02*
Y377517D01*
X554400Y365752D02*
X556629Y367981D01*
X472863Y433354D02*
X495349D01*
X450446Y410937D02*
X472863Y433354D01*
X368079Y223372D02*
X405131Y260424D01*
X469330Y382648D02*
Y405097D01*
X482528Y380176D02*
Y393091D01*
X479613Y382146D02*
Y396277D01*
X397736Y259587D02*
Y276232D01*
X368425Y230277D02*
X397736Y259587D01*
X362400Y253248D02*
X377699Y268546D01*
X487752Y165408D02*
Y170413D01*
X492413Y282248D02*
Y341779D01*
X422180Y212015D02*
X492413Y282248D01*
X496130Y279092D02*
Y341453D01*
X427917Y210879D02*
X496130Y279092D01*
X427917Y180476D02*
Y210879D01*
X388434Y167628D02*
Y170466D01*
X396794Y159268D02*
X406709D01*
X388434Y167628D02*
X396794Y159268D01*
X287693Y223372D02*
X368079Y223372D01*
X286782Y230277D02*
X368425Y230277D01*
X224923Y229278D02*
X235169Y239524D01*
X276083Y170435D02*
X287256D01*
X266529Y210023D02*
X286782Y230277D01*
X277639Y213317D02*
X287693Y223372D01*
X236926Y168802D02*
Y180508D01*
X219681Y197753D02*
X236926Y180508D01*
X246575Y177641D02*
X252621D01*
X236436Y187779D02*
X246575Y177641D01*
X236436Y187779D02*
Y197011D01*
X224923Y208524D02*
X236436Y197011D01*
X224923Y208524D02*
Y229278D01*
X453513Y515929D02*
X477794Y491648D01*
X491621Y596457D02*
X494208Y593869D01*
X482118Y596457D02*
X491621D01*
X463024Y596279D02*
Y607307D01*
X464611Y608895D01*
X462669Y511406D02*
X479028Y495047D01*
X462669Y511406D02*
Y547957D01*
X458697Y551929D02*
X462669Y547957D01*
X458697Y551929D02*
Y591953D01*
X463024Y596279D01*
X474895Y430557D02*
X482528D01*
X453950Y409613D02*
X474895Y430557D01*
X474983Y425456D02*
X482528D01*
X476005Y420929D02*
X482528D01*
X476026Y416986D02*
X482528D01*
X464970Y405930D02*
X476026Y416986D01*
X373583Y342572D02*
X375427D01*
X354394Y338791D02*
X376397D01*
X355812Y356399D02*
X397539Y398127D01*
X353129Y356399D02*
X355812D01*
X374819Y347117D02*
X411812Y384109D01*
X347970Y356282D02*
X348129Y356441D01*
X347627D02*
X348129D01*
X493251Y159909D02*
X508320D01*
X487752Y165408D02*
X493251Y159909D01*
X136166Y177362D02*
X151725D01*
X476806Y406677D02*
X482528D01*
X475437Y411205D02*
X482528D01*
X472840Y402712D02*
X476806Y406677D01*
X469330Y405097D02*
X475437Y411205D01*
X20833Y239325D02*
X31051D01*
X57690Y239666D02*
X60157Y242133D01*
X36801Y239666D02*
X57690D01*
X130862Y182666D02*
X136166Y177362D01*
X130862Y182666D02*
Y234683D01*
X149427Y253248D01*
X181673Y177364D02*
X201673D01*
X177276Y181761D02*
X181673Y177364D01*
X149427Y253248D02*
X362400Y253248D01*
X377716Y360203D02*
X407321Y389808D01*
X479613Y396277D02*
X480958Y397622D01*
X482528D01*
X519811Y242247D02*
X528753Y233305D01*
X528753Y180343D02*
X528753Y233305D01*
X508320Y159909D02*
X528753Y180343D01*
X514917Y238610D02*
X522023Y231504D01*
X522023Y181393D02*
X522023Y231504D01*
X518101Y177471D02*
X522023Y181393D01*
X463167Y341201D02*
X503955Y381988D01*
X463167Y316450D02*
Y341201D01*
X542449Y369890D02*
X546586Y365752D01*
X453218Y306500D02*
X463167Y316450D01*
X503955Y381988D02*
X552158D01*
X546586Y365752D02*
X554400D01*
X468798Y305661D02*
Y336261D01*
X456979Y293841D02*
X468798Y305661D01*
X546980Y369890D02*
Y371740D01*
X456979Y292267D02*
Y293841D01*
X352500Y177032D02*
X352618D01*
X366768D01*
X420895Y250554D02*
X443444D01*
X337309Y165651D02*
X343362Y159599D01*
X510232Y363831D02*
Y369890D01*
X343362Y159599D02*
X360237Y159598D01*
X377130Y176491D02*
Y206789D01*
X420895Y250554D01*
X360237Y159598D02*
X377130Y176491D01*
X519811Y340697D02*
X537921Y358807D01*
Y369890D01*
X519811Y242247D02*
X519811Y340697D01*
X496130Y341453D02*
X519610Y364933D01*
Y369890D01*
X406709Y159268D02*
X427917Y180476D01*
X474133Y242621D02*
X505169Y273657D01*
X500689Y340531D02*
X524295Y364138D01*
X500689Y275868D02*
Y340531D01*
X524295Y364138D02*
Y369890D01*
X469562Y244741D02*
X500689Y275868D01*
X514803Y364169D02*
Y369890D01*
X492413Y341779D02*
X514803Y364169D01*
X288425Y334839D02*
X290894D01*
X273063Y319476D02*
X288425Y334839D01*
X376524Y517507D02*
X411812Y482220D01*
X372034Y515647D02*
X407321Y480360D01*
X835530Y655486D02*
X841243Y649773D01*
X821918Y655486D02*
X835530D01*
X1143990Y216395D02*
X1153339Y225745D01*
X1093429Y369342D02*
X1153339Y309433D01*
D265*
X60000Y814961D02*
D03*
D266*
X70000D02*
D03*
X80000D02*
D03*
X90000D02*
D03*
X100000D02*
D03*
X110000D02*
D03*
X120000D02*
D03*
X130000D02*
D03*
X140000D02*
D03*
X150000D02*
D03*
X160000D02*
D03*
X170000D02*
D03*
X180000D02*
D03*
X190000D02*
D03*
X200000D02*
D03*
X210000D02*
D03*
D269*
X1122683Y696172D02*
D03*
Y704164D02*
D03*
X1132683Y700188D02*
D03*
Y692196D02*
D03*
X1122683Y680227D02*
D03*
X1132683Y676212D02*
D03*
Y684204D02*
D03*
X1122683Y672235D02*
D03*
D279*
X489076Y722953D02*
D03*
X476935Y691339D02*
D03*
X377730D02*
D03*
X517815Y707382D02*
D03*
X587500Y693755D02*
D03*
X500886Y722953D02*
D03*
X375368Y688189D02*
D03*
X384816Y691339D02*
D03*
X368307Y688189D02*
D03*
X570750Y690945D02*
D03*
X382454Y688189D02*
D03*
X591125Y693755D02*
D03*
X565000Y693767D02*
D03*
X506843Y709842D02*
D03*
X509665Y726575D02*
D03*
X561375Y693767D02*
D03*
X574375Y690945D02*
D03*
X370644Y691339D02*
D03*
X581500Y688976D02*
D03*
X577875D02*
D03*
X497835Y726575D02*
D03*
X389540Y688189D02*
D03*
X487696Y691195D02*
D03*
X510772Y709842D02*
D03*
X495831Y691339D02*
D03*
X498193Y688189D02*
D03*
X486054Y726575D02*
D03*
X513779Y707382D02*
D03*
X502739Y691339D02*
D03*
X505630Y726575D02*
D03*
X522638Y711614D02*
D03*
X482019Y726575D02*
D03*
X472211Y688189D02*
D03*
X479297D02*
D03*
X484045Y693317D02*
D03*
X493799Y726575D02*
D03*
X493111Y722953D02*
D03*
X504921D02*
D03*
X518602Y711614D02*
D03*
X453513Y573101D02*
D03*
X275492Y351544D02*
D03*
X176043Y778138D02*
D03*
X171054Y788835D02*
D03*
X160648Y774979D02*
D03*
X154913Y785634D02*
D03*
X139172Y788175D02*
D03*
X144466Y778172D02*
D03*
X128608Y775440D02*
D03*
X123626Y785653D02*
D03*
X113801Y778161D02*
D03*
X108450Y788175D02*
D03*
X97615Y774803D02*
D03*
X92327Y785653D02*
D03*
X81190Y778146D02*
D03*
X76560Y788374D02*
D03*
X60783Y785626D02*
D03*
X65982Y775252D02*
D03*
X1063577Y208221D02*
D03*
X1055412Y211506D02*
D03*
X1134139Y216395D02*
D03*
X1142362Y213196D02*
D03*
X1159184Y235061D02*
D03*
X1153355Y241493D02*
D03*
X295510Y354712D02*
D03*
X295492Y358818D02*
D03*
X260234Y423494D02*
D03*
X255866D02*
D03*
X341788Y368702D02*
D03*
X344500Y365800D02*
D03*
X549971Y463319D02*
D03*
X497132Y557776D02*
D03*
X552921Y465508D02*
D03*
X1004913Y227289D02*
D03*
X545351Y463302D02*
D03*
X547764Y467134D02*
D03*
X352264Y351236D02*
D03*
X377699Y334820D02*
D03*
X188998Y170482D02*
D03*
X361330Y274221D02*
D03*
X330158Y270882D02*
D03*
X345387Y271937D02*
D03*
X352571D02*
D03*
X448558Y306594D02*
D03*
X404860Y180145D02*
D03*
X436663Y169323D02*
D03*
X542947Y467823D02*
D03*
X487752Y170413D02*
D03*
X388434Y170466D02*
D03*
X337309Y168885D02*
D03*
X287256Y170435D02*
D03*
X236926Y168802D02*
D03*
X377675Y355752D02*
D03*
X353129Y356399D02*
D03*
X353186Y344307D02*
D03*
X354394Y338791D02*
D03*
X373583Y342572D02*
D03*
X347627Y356441D02*
D03*
X302614Y177114D02*
D03*
X252621Y177641D02*
D03*
X151725Y177362D02*
D03*
X139689Y170363D02*
D03*
X482528Y430557D02*
D03*
Y425456D02*
D03*
Y416986D02*
D03*
Y406677D02*
D03*
Y420929D02*
D03*
Y411205D02*
D03*
X512370Y427881D02*
D03*
X307805Y270833D02*
D03*
X300641Y271894D02*
D03*
X456979Y292267D02*
D03*
X290196Y326975D02*
D03*
X323059Y270833D02*
D03*
X315509D02*
D03*
X294422Y271894D02*
D03*
X824705Y658740D02*
D03*
X290894Y334839D02*
D03*
Y331209D02*
D03*
X452441Y177032D02*
D03*
X352618D02*
D03*
X999913Y227191D02*
D03*
X821918Y655486D02*
D03*
X482118Y596457D02*
D03*
X466165Y608895D02*
D03*
X514252Y430707D02*
D03*
X36801Y239666D02*
D03*
X20833Y239325D02*
D03*
X503258Y177258D02*
D03*
X201673Y177364D02*
D03*
X482528Y393091D02*
D03*
Y397622D02*
D03*
X190898Y568358D02*
D03*
X546980Y369890D02*
D03*
X542449D02*
D03*
X537921D02*
D03*
X533394D02*
D03*
X528866D02*
D03*
X514803D02*
D03*
X519610D02*
D03*
X524295D02*
D03*
X291614Y356805D02*
D03*
X555638Y462390D02*
D03*
X505705Y369890D02*
D03*
X510232D02*
D03*
D282*
X402901Y415000D02*
D03*
X195000Y341095D02*
D03*
X179006Y516000D02*
D03*
X185495D02*
D03*
X191812D02*
D03*
X197361D02*
D03*
X200000Y344663D02*
D03*
X190000Y337500D02*
D03*
X420588Y395000D02*
D03*
X407321Y410000D02*
D03*
X424866Y390000D02*
D03*
X416311Y400000D02*
D03*
X411812Y405000D02*
D03*
X393311Y429500D02*
D03*
X397539Y426500D02*
D03*
D283*
X1087598Y699393D02*
D03*
Y695083D02*
D03*
X1085236Y693500D02*
D03*
Y689000D02*
D03*
X1087598Y682000D02*
D03*
Y677500D02*
D03*
X1085236Y672000D02*
D03*
Y676212D02*
D03*
D290*
X1114287Y678566D02*
X1117110Y675743D01*
X1122468D01*
X1117515Y676719D02*
X1122468D01*
X1103085Y678566D02*
X1114287D01*
X1098136Y673618D02*
X1103085Y678566D01*
X1097732Y674594D02*
X1102680Y679542D01*
X1114692D01*
X1117515Y676719D01*
X1122468Y700656D02*
X1122683Y700871D01*
Y704164D01*
X1118062Y700656D02*
X1122468D01*
X1115132Y697726D02*
X1118062Y700656D01*
X1087813Y697726D02*
X1115132D01*
X1087598Y697941D02*
Y699393D01*
Y697941D02*
X1087813Y697726D01*
X1087384D02*
X1087598Y697941D01*
X1057368Y697726D02*
X1087384D01*
X846785Y686976D02*
X848559D01*
X831247D02*
X833022D01*
X848559D02*
X849131Y686404D01*
X846213D02*
X846785Y686976D01*
X839016D02*
X840791D01*
X835132D02*
X836906D01*
X850669Y686440D02*
X852444D01*
X842900Y686976D02*
X844675D01*
X830676Y686404D02*
X831247Y686976D01*
X829138D02*
X829710Y686404D01*
X834560D02*
X835132Y686976D01*
X852444Y686440D02*
X853015Y685868D01*
X850097D02*
X850669Y686440D01*
X1045118Y685476D02*
X1057368Y697726D01*
X849131Y684952D02*
Y686404D01*
X844675Y686976D02*
X845247Y686404D01*
X842328D02*
X842900Y686976D01*
X846213Y684952D02*
Y686404D01*
X845247Y684952D02*
Y686404D01*
X854800Y685476D02*
X1045118D01*
X853015Y685690D02*
Y685868D01*
X853230Y685476D02*
X854800D01*
X853015Y685690D02*
X853230Y685476D01*
X845247Y684952D02*
X846213D01*
X842328D02*
Y686404D01*
X850097Y684952D02*
Y685868D01*
X849131Y684952D02*
X850097D01*
X840791Y686976D02*
X841362Y686404D01*
X838444D02*
X839016Y686976D01*
X841362Y684952D02*
Y686404D01*
X838444Y684952D02*
Y686404D01*
X836906Y686976D02*
X837478Y686404D01*
X833022Y686976D02*
X833594Y686404D01*
X837478Y684952D02*
Y686404D01*
X829710Y684952D02*
Y686404D01*
X834560Y684952D02*
Y686404D01*
X833594Y684952D02*
Y686404D01*
X841362Y684952D02*
X842328D01*
X837478D02*
X838444D01*
X830676D02*
Y686404D01*
X829710Y684952D02*
X830676D01*
X833594D02*
X834560D01*
X817485Y686976D02*
X818056Y686404D01*
X815710Y686976D02*
X817485D01*
X815138Y686404D02*
X815710Y686976D01*
X813601D02*
X814172Y686404D01*
X811826Y686976D02*
X813601D01*
X807941D02*
X809716D01*
X811254Y686404D02*
X811826Y686976D01*
X809716D02*
X810288Y686404D01*
X827363Y686976D02*
X829138D01*
X823479D02*
X825253D01*
X826791Y686404D02*
X827363Y686976D01*
X825253D02*
X825825Y686404D01*
X822907D02*
X823479Y686976D01*
X819594D02*
X821369D01*
X821941Y686404D01*
X819023D02*
X819594Y686976D01*
X803485Y686404D02*
X804057Y686976D01*
X627932Y687200D02*
X653734D01*
X589801Y692430D02*
X591125Y693755D01*
X807370Y686404D02*
X807941Y686976D01*
X804057D02*
X805832D01*
X806404Y686404D01*
X801947Y686976D02*
X802519Y686404D01*
X800173Y686976D02*
X801947D01*
X799601Y686404D02*
X800173Y686976D01*
X799601Y685690D02*
Y686404D01*
X822907Y684952D02*
Y686404D01*
X821941Y684952D02*
Y686404D01*
X826791Y684952D02*
Y686404D01*
X825825Y684952D02*
Y686404D01*
X815138Y684952D02*
Y686404D01*
X810288Y684952D02*
Y686404D01*
X819023Y684952D02*
Y686404D01*
X818056Y684952D02*
Y686404D01*
Y684952D02*
X819023D01*
X814172D02*
X815138D01*
X825825D02*
X826791D01*
X821941D02*
X822907D01*
X810288D02*
X811254D01*
X806404D02*
X807370D01*
X814172D02*
Y686404D01*
X811254Y684952D02*
Y686404D01*
X803485Y684952D02*
Y686404D01*
X802519Y684952D02*
Y686404D01*
X807370Y684952D02*
Y686404D01*
X806404Y684952D02*
Y686404D01*
X799387Y685476D02*
X799601Y685690D01*
X589801Y685100D02*
Y692430D01*
X653734Y687200D02*
X660091Y680844D01*
X622551Y681820D02*
X627932Y687200D01*
X798918Y685476D02*
X799387D01*
X703276D02*
X798918D01*
X802519Y684952D02*
X803485D01*
X698644Y680844D02*
X703276Y685476D01*
X593080Y681820D02*
X622551D01*
X589801Y685100D02*
X593080Y681820D01*
X660091Y680844D02*
X698644D01*
X1122468Y699680D02*
X1122683Y699466D01*
Y696172D02*
Y699466D01*
X1118466Y699680D02*
X1122468D01*
X1115536Y696750D02*
X1118466Y699680D01*
X1087813Y696750D02*
X1115536D01*
X1087598Y696536D02*
X1087813Y696750D01*
X1087598Y695083D02*
Y696536D01*
X1087384Y696750D02*
X1087598Y696536D01*
X1057772Y696750D02*
X1087384D01*
X847189Y686000D02*
X848155D01*
X835536D02*
X836502D01*
X848155Y684548D02*
Y686000D01*
X836502Y684548D02*
Y686000D01*
X851073Y685464D02*
X852039D01*
X843305Y686000D02*
X844271D01*
X852039Y685286D02*
Y685464D01*
X851073Y684548D02*
Y685464D01*
X839420Y686000D02*
X840386D01*
X831652D02*
X832618D01*
X839420Y684548D02*
Y686000D01*
X1045522Y684500D02*
X1057772Y696750D01*
X852039Y685286D02*
X852826Y684500D01*
X850502Y683976D02*
X851073Y684548D01*
X848155D02*
X848727Y683976D01*
X847189Y684548D02*
Y686000D01*
X844271Y684548D02*
Y686000D01*
X846617Y683976D02*
X847189Y684548D01*
X843305D02*
Y686000D01*
X854800Y684500D02*
X1045522D01*
X852826D02*
X854800D01*
X848727Y683976D02*
X850502D01*
X844843D02*
X846617D01*
X842733D02*
X843305Y684548D01*
X840958Y683976D02*
X842733D01*
X844271Y684548D02*
X844843Y683976D01*
X840386Y684548D02*
Y686000D01*
X835536Y684548D02*
Y686000D01*
X838848Y683976D02*
X839420Y684548D01*
X836502D02*
X837074Y683976D01*
X831652Y684548D02*
Y686000D01*
X828733Y684548D02*
Y686000D01*
X834964Y683976D02*
X835536Y684548D01*
X832618D02*
Y686000D01*
X833189Y683976D02*
X834964D01*
X832618Y684548D02*
X833189Y683976D01*
X840386Y684548D02*
X840958Y683976D01*
X837074D02*
X838848D01*
X829305D02*
X831080D01*
X828733Y684548D02*
X829305Y683976D01*
X831080D02*
X831652Y684548D01*
X817080D02*
Y686000D01*
X816114D02*
X817080D01*
X816114Y684548D02*
Y686000D01*
X813196Y684548D02*
Y686000D01*
X812230D02*
X813196D01*
X808346D02*
X809312D01*
X812230Y684548D02*
Y686000D01*
X809312Y684548D02*
Y686000D01*
X827767D02*
X828733D01*
X823883D02*
X824849D01*
X827767Y684548D02*
Y686000D01*
X824849Y684548D02*
Y686000D01*
X823883Y684548D02*
Y686000D01*
X819999D02*
X820965D01*
Y684548D02*
Y686000D01*
X819999Y684548D02*
Y686000D01*
X628336Y686224D02*
X653330D01*
X588825Y684695D02*
Y692430D01*
X587500Y693755D02*
X588825Y692430D01*
X808346Y684548D02*
Y686000D01*
X804461D02*
X805427D01*
Y684548D02*
Y686000D01*
X804461Y684548D02*
Y686000D01*
X800577D02*
X801543D01*
X800577Y685286D02*
Y686000D01*
X801543Y684548D02*
Y686000D01*
X823311Y683976D02*
X823883Y684548D01*
X820965D02*
X821537Y683976D01*
X827196D02*
X827767Y684548D01*
X824849D02*
X825421Y683976D01*
X815543D02*
X816114Y684548D01*
X809312D02*
X809884Y683976D01*
X819427D02*
X819999Y684548D01*
X817080D02*
X817652Y683976D01*
X819427D01*
X813768D02*
X815543D01*
X825421D02*
X827196D01*
X821537D02*
X823311D01*
X811658D02*
X812230Y684548D01*
X809884Y683976D02*
X811658D01*
X813196Y684548D02*
X813768Y683976D01*
X803890D02*
X804461Y684548D01*
X801543D02*
X802115Y683976D01*
X807774D02*
X808346Y684548D01*
X805427D02*
X805999Y683976D01*
X799791Y684500D02*
X800577Y685286D01*
X622956Y680844D02*
X628336Y686224D01*
X653330D02*
X659686Y679868D01*
X588825Y684695D02*
X592676Y680844D01*
X798918Y684500D02*
X799791D01*
X703680D02*
X798918D01*
X805999Y683976D02*
X807774D01*
X802115D02*
X803890D01*
X659686Y679868D02*
X699048D01*
X592676Y680844D02*
X622956D01*
X699048Y679868D02*
X703680Y684500D01*
X1132683Y696894D02*
Y700188D01*
X1132468Y696680D02*
X1132683Y696894D01*
X1129680Y696680D02*
X1132468D01*
X1124738Y691738D02*
X1129680Y696680D01*
X1085451Y691738D02*
X1124738D01*
X1085236Y691953D02*
Y693500D01*
Y691953D02*
X1085451Y691738D01*
X1085022D02*
X1085236Y691953D01*
X1059788Y691738D02*
X1085022D01*
X886137Y682679D02*
X887911D01*
X878368Y683090D02*
X880143D01*
X882252D02*
X884027D01*
X892367Y681805D02*
Y681805D01*
X891796Y682376D02*
X892367Y681805D01*
X1049640Y681590D02*
X1059788Y691738D01*
X890021Y682376D02*
X891796D01*
X889449Y681805D02*
X890021Y682376D01*
X888483Y681304D02*
Y682107D01*
X892582Y681590D02*
X894229D01*
X892367Y681805D02*
X892582Y681590D01*
X894229D02*
X1049640D01*
X888483Y681304D02*
X889449D01*
Y681805D01*
X887911Y682679D02*
X888483Y682107D01*
X885565D02*
X886137Y682679D01*
X884599Y681066D02*
Y682518D01*
X881681D02*
X882252Y683090D01*
X880143D02*
X880715Y682518D01*
X884027Y683090D02*
X884599Y682518D01*
Y681066D02*
X885565D01*
X881681D02*
Y682518D01*
X885565Y681066D02*
Y682107D01*
X880715Y681066D02*
X881681D01*
X880715D02*
Y682518D01*
X868490Y683090D02*
X869061Y682518D01*
X866715Y683090D02*
X868490D01*
X870028Y682518D02*
X870599Y683090D01*
X864605D02*
X865177Y682518D01*
X862831Y683090D02*
X864605D01*
X866143Y682518D02*
X866715Y683090D01*
X876258D02*
X876830Y682518D01*
X874484Y683090D02*
X876258D01*
X877796Y682518D02*
X878368Y683090D01*
X872374D02*
X872946Y682518D01*
X870599Y683090D02*
X872374D01*
X873912Y682518D02*
X874484Y683090D01*
X580175Y687652D02*
X581500Y688976D01*
X862259Y682518D02*
X862831Y683090D01*
X734086Y682286D02*
X764189D01*
X862259Y681805D02*
Y682518D01*
X631376Y684076D02*
X651204D01*
X580175Y681757D02*
Y687652D01*
X876830Y681066D02*
Y682518D01*
X873912Y681066D02*
Y682518D01*
X877796Y681066D02*
Y682518D01*
X869061Y681066D02*
Y682518D01*
X866143Y681066D02*
Y682518D01*
X872946Y681066D02*
Y682518D01*
Y681066D02*
X873912D01*
X870028D02*
Y682518D01*
X876830Y681066D02*
X877796D01*
X865177D02*
X866143D01*
X869061D02*
X870028D01*
X862045Y681590D02*
X862259Y681805D01*
X764189Y682286D02*
X764885Y681590D01*
X865177Y681066D02*
Y682518D01*
X651204Y684076D02*
X657895Y677386D01*
X626496Y679196D02*
X631376Y684076D01*
X729186Y677386D02*
X734086Y682286D01*
X861576Y681590D02*
X862045D01*
X764885D02*
X861576D01*
X657895Y677386D02*
X729186D01*
X580175Y681757D02*
X582737Y679196D01*
X626496D01*
X1132468Y695704D02*
X1132683Y695489D01*
Y692196D02*
Y695489D01*
X1130084Y695704D02*
X1132468D01*
X1125142Y690762D02*
X1130084Y695704D01*
X1085451Y690762D02*
X1125142D01*
X1085236Y690548D02*
X1085451Y690762D01*
X1085022D02*
X1085236Y690548D01*
X1060192Y690762D02*
X1085022D01*
X1085236Y689000D02*
Y690548D01*
X878772Y682114D02*
X879738D01*
X882657D02*
X883623D01*
X1050044Y680614D02*
X1060192Y690762D01*
X891391Y681400D02*
Y681400D01*
Y681400D02*
X892178Y680614D01*
X890425Y681400D02*
X891391D01*
X886541Y681703D02*
X887507D01*
X890425Y680900D02*
Y681400D01*
X894229Y680614D02*
X1050044D01*
X892178D02*
X894229D01*
X889853Y680328D02*
X890425Y680900D01*
X887507D02*
X888079Y680328D01*
X889853D01*
X887507Y680900D02*
Y681703D01*
X886541Y680662D02*
Y681703D01*
X885969Y680090D02*
X886541Y680662D01*
X882657D02*
Y682114D01*
X879738Y680662D02*
Y682114D01*
X883623Y680662D02*
Y682114D01*
Y680662D02*
X884194Y680090D01*
X882085D02*
X882657Y680662D01*
X884194Y680090D02*
X885969D01*
X879738Y680662D02*
X880310Y680090D01*
X882085D01*
X871004Y680662D02*
Y682114D01*
X868085Y680662D02*
Y682114D01*
X871970Y680662D02*
Y682114D01*
X867119D02*
X868085D01*
X863235D02*
X864201D01*
X867119Y680662D02*
Y682114D01*
X875854Y680662D02*
Y682114D01*
X874888D02*
X875854D01*
X878772Y680662D02*
Y682114D01*
X871004D02*
X871970D01*
X874888Y680662D02*
Y682114D01*
X577875Y688976D02*
X579200Y687652D01*
X863235Y681400D02*
Y682114D01*
X734490Y681310D02*
X763785D01*
X864201Y680662D02*
Y682114D01*
X631780Y683100D02*
X650800D01*
X579200Y681353D02*
Y687652D01*
X875854Y680662D02*
X876426Y680090D01*
X874316D02*
X874888Y680662D01*
X878201Y680090D02*
X878772Y680662D01*
X870432Y680090D02*
X871004Y680662D01*
X868085D02*
X868657Y680090D01*
X871970Y680662D02*
X872542Y680090D01*
X874316D01*
X868657D02*
X870432D01*
X876426D02*
X878201D01*
X864773D02*
X866548D01*
X867119Y680662D01*
X862449Y680614D02*
X863235Y681400D01*
X763785Y681310D02*
X764480Y680614D01*
X729590Y676410D02*
X734490Y681310D01*
X626900Y678220D02*
X631780Y683100D01*
X579200Y681353D02*
X582333Y678220D01*
X650800Y683100D02*
X657490Y676410D01*
X861576Y680614D02*
X862449D01*
X764480D02*
X861576D01*
X864201Y680662D02*
X864773Y680090D01*
X582333Y678220D02*
X626900D01*
X657490Y676410D02*
X729590D01*
X1125604Y685776D02*
X1127190Y684190D01*
X1119296Y685776D02*
X1125604D01*
X1116206Y682686D02*
X1119296Y685776D01*
X1132669Y684190D02*
X1132683Y684204D01*
X1127190Y684190D02*
X1132669D01*
X1097586Y682686D02*
X1116206D01*
X1087813Y680238D02*
X1095138D01*
X1087598Y680452D02*
Y682000D01*
X1087384Y680238D02*
X1087598Y680452D01*
X1095138Y680238D02*
X1097586Y682686D01*
X1087598Y680452D02*
X1087813Y680238D01*
X1054298D02*
X1087384D01*
X1051836Y677776D02*
X1054298Y680238D01*
X806813Y677776D02*
X1051836D01*
X805567Y677990D02*
X805781Y677776D01*
X806813D01*
X804995Y678562D02*
X805567Y677991D01*
X803220Y678562D02*
X804995D01*
X802648Y677991D02*
X803220Y678562D01*
X799336Y679081D02*
X801110D01*
X801682Y678510D01*
X805567Y677990D02*
Y677991D01*
X802648Y677490D02*
Y677991D01*
X801682Y677490D02*
X802648D01*
X801682D02*
Y678510D01*
X791567Y679276D02*
X793342D01*
X790995Y678704D02*
X791567Y679276D01*
X789458D02*
X790029Y678704D01*
X787683Y679276D02*
X789458D01*
X787111Y678704D02*
X787683Y679276D01*
X797226D02*
X797798Y678704D01*
X795451Y679276D02*
X797226D01*
X798764Y678510D02*
X799336Y679081D01*
X793342Y679276D02*
X793914Y678704D01*
X794880D02*
X795451Y679276D01*
X573050Y689620D02*
X574375Y690945D01*
X787111Y677990D02*
Y678704D01*
X786428Y677776D02*
X786897D01*
X764180D02*
X786428D01*
X794880Y677252D02*
Y678704D01*
X793914Y677252D02*
Y678704D01*
X797798Y677252D02*
Y678704D01*
X790029Y677252D02*
Y678704D01*
X790995Y677252D02*
Y678704D01*
X797798Y677252D02*
X798764D01*
Y678510D01*
X790029Y677252D02*
X790995D01*
X793914D02*
X794880D01*
X786897Y677776D02*
X787111Y677990D01*
X760880Y674476D02*
X764180Y677776D01*
X640404Y677276D02*
X643204Y674476D01*
X630476Y677276D02*
X640404D01*
X573050Y675654D02*
Y689620D01*
X643204Y674476D02*
X760880D01*
X627386Y674186D02*
X630476Y677276D01*
X573050Y675654D02*
X574518Y674186D01*
X627386D01*
X1119700Y684800D02*
X1125200D01*
X1116610Y681710D02*
X1119700Y684800D01*
X1097990Y681710D02*
X1116610D01*
X1087813Y679262D02*
X1095542D01*
X1097990Y681710D01*
X1087384Y679262D02*
X1087598Y679047D01*
X1087813Y679262D01*
X1054702D02*
X1087384D01*
X803625Y677586D02*
X804591D01*
Y677586D02*
Y677586D01*
X1125200Y684800D02*
X1132683Y677317D01*
X1087598Y677500D02*
Y679047D01*
X1052240Y676800D02*
X1054702Y679262D01*
X1132683Y676212D02*
Y677317D01*
X804591Y677586D02*
X805377Y676800D01*
X803625Y677086D02*
Y677586D01*
X803053Y676514D02*
X803625Y677086D01*
X800706D02*
Y678105D01*
X799740Y676848D02*
Y678105D01*
X805377Y676800D02*
X806813D01*
X1052240D01*
X800706Y677086D02*
X801278Y676514D01*
X803053D01*
X791971Y678300D02*
X792938D01*
X791971Y676848D02*
Y678300D01*
X792938Y676848D02*
Y678300D01*
X788087D02*
X789053D01*
Y676848D02*
Y678300D01*
X799740Y678105D02*
X800706D01*
X796822Y676848D02*
Y678300D01*
X795856D02*
X796822D01*
X795856Y676848D02*
Y678300D01*
X570750Y690945D02*
X572075Y689620D01*
X788087Y677586D02*
Y678300D01*
X786428Y676800D02*
X787301D01*
X764585D02*
X786428D01*
X796822Y676848D02*
X797394Y676276D01*
X795284D02*
X795856Y676848D01*
X799168Y676276D02*
X799740Y676848D01*
X789053D02*
X789625Y676276D01*
X792938Y676848D02*
X793509Y676276D01*
X795284D01*
X797394D02*
X799168D01*
X789625D02*
X791400D01*
X791971Y676848D01*
X787301Y676800D02*
X788087Y677586D01*
X761285Y673500D02*
X764585Y676800D01*
X640000Y676300D02*
X642800Y673500D01*
X630880Y676300D02*
X640000D01*
X572075Y675250D02*
Y689620D01*
X642800Y673500D02*
X761285D01*
X627791Y673210D02*
X630880Y676300D01*
X572075Y675250D02*
X574114Y673210D01*
X627791D01*
X1122468Y675743D02*
X1122683Y675529D01*
X1085451Y673618D02*
X1098136D01*
X1085236Y673403D02*
X1085451Y673618D01*
X1085022D02*
X1085236Y673403D01*
X844964Y673624D02*
X845930D01*
X973501Y673618D02*
X1085022D01*
X848848Y672910D02*
X849815D01*
Y672910D02*
Y672910D01*
X1122683Y672235D02*
Y675529D01*
X1085236Y672000D02*
Y673403D01*
X972007Y672124D02*
X973501Y673618D01*
X852039Y672124D02*
X972007D01*
X849815Y672910D02*
X850601Y672124D01*
X852039D01*
X848848Y672272D02*
Y672910D01*
X845930Y672272D02*
Y673624D01*
Y672272D02*
X846502Y671700D01*
X842046Y672172D02*
Y673624D01*
X844964Y672172D02*
Y673624D01*
X848277Y671700D02*
X848848Y672272D01*
X846502Y671700D02*
X848277D01*
X844392Y671600D02*
X844964Y672172D01*
X842046D02*
X842618Y671600D01*
X844392D01*
X833311Y673624D02*
X834277D01*
X833311Y672172D02*
Y673624D01*
X834277Y672172D02*
Y673624D01*
X829427D02*
X830393D01*
Y672172D02*
Y673624D01*
X841080D02*
X842046D01*
X841080Y672172D02*
Y673624D01*
X838162Y672172D02*
Y673624D01*
X837195D02*
X838162D01*
X837195Y672172D02*
Y673624D01*
X561375Y693767D02*
X562700Y692442D01*
X825543Y673624D02*
X826509D01*
X825543Y672910D02*
Y673624D01*
X829427Y672172D02*
Y673624D01*
X562700Y679196D02*
Y692442D01*
X836624Y671600D02*
X837195Y672172D01*
X834277D02*
X834849Y671600D01*
X838162Y672172D02*
X838733Y671600D01*
X830393Y672172D02*
X830965Y671600D01*
X832739D02*
X833311Y672172D01*
X838733Y671600D02*
X840508D01*
X834849D02*
X836624D01*
X840508D02*
X841080Y672172D01*
X828855Y671600D02*
X829427Y672172D01*
X830965Y671600D02*
X832739D01*
X826509Y672172D02*
Y673624D01*
X824756Y672124D02*
X825543Y672910D01*
X826509Y672172D02*
X827080Y671600D01*
X823883Y672124D02*
X824756D01*
X562700Y679196D02*
X572271Y669624D01*
X766004Y672124D02*
X823883D01*
X827080Y671600D02*
X828855D01*
X572271Y669624D02*
X763504D01*
X766004Y672124D01*
X1122683Y676934D02*
Y680227D01*
X1122468Y676719D02*
X1122683Y676934D01*
X1085451Y674594D02*
X1097732D01*
X1085236Y674808D02*
Y676212D01*
Y674808D02*
X1085451Y674594D01*
X1085022D02*
X1085236Y674808D01*
X844560Y674600D02*
X846334D01*
X973097Y674594D02*
X1085022D01*
X848444Y673886D02*
X850219D01*
X971603Y673100D02*
X973097Y674594D01*
X851005Y673100D02*
X852039D01*
X850791Y673314D02*
X851005Y673100D01*
X852039D02*
X971603D01*
X850219Y673886D02*
X850791Y673315D01*
Y673314D02*
Y673315D01*
X846334Y674600D02*
X846906Y674028D01*
X843988D02*
X844560Y674600D01*
X846906Y672676D02*
Y674028D01*
X842450Y674600D02*
X843022Y674028D01*
Y672576D02*
Y674028D01*
X847872Y673315D02*
X848444Y673886D01*
X847872Y672676D02*
Y673315D01*
X846906Y672676D02*
X847872D01*
X843022Y672576D02*
X843988D01*
Y674028D01*
X834682Y674600D02*
X835253Y674028D01*
X832907Y674600D02*
X834682D01*
X832335Y674028D02*
X832907Y674600D01*
X829023D02*
X830797D01*
X831369Y674028D01*
X840676Y674600D02*
X842450D01*
X840104Y674028D02*
X840676Y674600D01*
X838566D02*
X839138Y674028D01*
X836791Y674600D02*
X838566D01*
X836219Y674028D02*
X836791Y674600D01*
X563675Y692442D02*
X565000Y693767D01*
X828451Y674028D02*
X829023Y674600D01*
X825138D02*
X826913D01*
X824566Y674028D02*
X825138Y674600D01*
X563675Y679600D02*
Y692442D01*
X839138Y672576D02*
Y674028D01*
X836219Y672576D02*
Y674028D01*
X840104Y672576D02*
Y674028D01*
X831369Y672576D02*
Y674028D01*
X835253Y672576D02*
Y674028D01*
Y672576D02*
X836219D01*
X832335D02*
Y674028D01*
X839138Y672576D02*
X840104D01*
X828451D02*
Y674028D01*
X831369Y672576D02*
X832335D01*
X826913Y674600D02*
X827485Y674028D01*
X824566Y673314D02*
Y674028D01*
X827485Y672576D02*
Y674028D01*
X824352Y673100D02*
X824566Y673314D01*
X563675Y679600D02*
X572676Y670600D01*
X823883Y673100D02*
X824352D01*
X765600D02*
X823883D01*
X827485Y672576D02*
X828451D01*
X572676Y670600D02*
X763100D01*
X765600Y673100D01*
D291*
X126673Y790964D02*
Y794017D01*
X125685Y758960D02*
Y790964D01*
X126685Y775373D02*
Y790952D01*
X126673Y794017D02*
X130579Y797924D01*
X126699Y775373D02*
X128608D01*
X125685Y794410D02*
X130175Y798900D01*
X125685Y790964D02*
Y794410D01*
X126685Y759374D02*
Y775373D01*
X173943Y778165D02*
X176043D01*
X173929Y766711D02*
Y792348D01*
X171034Y788821D02*
X172915D01*
X286378Y758302D02*
X313039Y784963D01*
X483318D02*
X508148Y760134D01*
X313039Y784963D02*
X483318D01*
X508148Y728092D02*
X509665Y726575D01*
X508148Y728092D02*
Y760134D01*
X182338Y758302D02*
X286378D01*
X173929Y766711D02*
X182338Y758302D01*
X482904Y783963D02*
X507148Y759720D01*
X286792Y757302D02*
X313453Y783963D01*
X482904D01*
X507148Y728092D02*
Y759720D01*
X505630Y726575D02*
X507148Y728092D01*
X172929Y792348D02*
X172929Y792348D01*
X181631Y757595D02*
X181631D01*
X172929Y766297D02*
X181631Y757595D01*
X181923Y757302D02*
X286792D01*
X181631Y757595D02*
X181923Y757302D01*
X172929Y766297D02*
Y792348D01*
X203195Y806086D02*
X204512Y807403D01*
Y814746D01*
X204297Y814961D02*
X204512Y814746D01*
X200000Y814961D02*
X204297D01*
X203599Y805110D02*
X205488Y806999D01*
Y814746D01*
X205702Y814961D01*
X210000D01*
X189976Y800576D02*
X195486Y806086D01*
X203195D01*
X195890Y805110D02*
X203599D01*
X177310Y800576D02*
X189976D01*
X190380Y799600D02*
X195890Y805110D01*
X172941Y792360D02*
Y796206D01*
X177310Y800576D01*
X173917Y795802D02*
X177715Y799600D01*
X190380D01*
X173917Y792360D02*
Y795802D01*
Y792360D02*
X173929Y792348D01*
X172929D02*
X172941Y792360D01*
X158195Y774959D02*
X160648D01*
X321219Y777979D02*
X478897D01*
X296763Y753524D02*
X321219Y777979D01*
X478897D02*
X503404Y753472D01*
Y724471D02*
X504921Y722953D01*
X503404Y724471D02*
Y753472D01*
X158181Y769053D02*
X173710Y753524D01*
X296763D01*
X158181Y769053D02*
Y790300D01*
X478482Y776979D02*
X502403Y753058D01*
X297178Y752524D02*
X321633Y776979D01*
X478482D01*
X502403Y724471D02*
Y753058D01*
X500886Y722953D02*
X502403Y724471D01*
X155285Y785724D02*
X157167D01*
X173003Y752817D02*
X173003D01*
X157181Y768639D02*
X173003Y752817D01*
X173296Y752524D02*
X297178D01*
X173003Y752817D02*
X173296Y752524D01*
X157181Y768639D02*
Y790300D01*
X184298Y814961D02*
X184512Y814746D01*
X180000Y814961D02*
X184298D01*
X184512Y808243D02*
Y814746D01*
X182474Y804824D02*
X185488Y807839D01*
Y814746D01*
X185703Y814961D02*
X190000D01*
X182069Y805800D02*
X184512Y808243D01*
X175700Y805800D02*
X182069D01*
X185488Y814746D02*
X185703Y814961D01*
X165702Y795802D02*
X175700Y805800D01*
X160233Y794826D02*
X166107D01*
X176105Y804824D01*
X182474D01*
X157193Y790312D02*
Y793166D01*
X159828Y795802D01*
X165702D01*
X158169Y792762D02*
X160233Y794826D01*
X158169Y790312D02*
Y792762D01*
Y790312D02*
X158181Y790300D01*
X157181D02*
X157193Y790312D01*
X473781Y771548D02*
X495317Y750011D01*
X331407Y771548D02*
X473781Y771548D01*
X307473Y747614D02*
X331407Y771548D01*
X495317Y728092D02*
Y750011D01*
X493799Y726575D02*
X495317Y728092D01*
X147095Y800476D02*
X159076D01*
X141445Y792360D02*
Y794826D01*
X147095Y800476D01*
X141433Y792348D02*
X141445Y792360D01*
X139537Y788162D02*
X141419D01*
X141433Y760007D02*
Y792348D01*
X153826Y747614D02*
X307473Y747614D01*
X141433Y760007D02*
X153826Y747614D01*
X474195Y772548D02*
X496317Y750426D01*
X330993Y772548D02*
X474195Y772548D01*
X307059Y748614D02*
X330993Y772548D01*
X496317Y728092D02*
X497835Y726575D01*
X496317Y728092D02*
Y750426D01*
X147499Y799500D02*
X159480D01*
X142421Y794422D02*
X147499Y799500D01*
X142421Y792360D02*
X142433Y792348D01*
X142421Y792360D02*
Y794422D01*
X142446Y778152D02*
X144328D01*
X154240Y748614D02*
X307059Y748614D01*
X142433Y760421D02*
X154240Y748614D01*
X142433Y760421D02*
Y792348D01*
X159076Y800476D02*
X164512Y805912D01*
Y814746D01*
X164297Y814961D02*
X164512Y814746D01*
X160000Y814961D02*
X164297D01*
X159480Y799500D02*
X165488Y805508D01*
Y814746D01*
X165702Y814961D01*
X170000D01*
X123626Y785598D02*
X125671D01*
X346933Y767243D02*
X470082D01*
X323496Y743806D02*
X346933Y767243D01*
X470082D02*
X491594Y745731D01*
Y724471D02*
X493111Y722953D01*
X491594Y724471D02*
Y745731D01*
X126685Y759374D02*
X142253Y743806D01*
X323496D01*
X469667Y766243D02*
X490593Y745317D01*
X347347Y766243D02*
X347347D01*
X323910Y742806D02*
X347347Y766243D01*
X347347D02*
X469667Y766243D01*
X490593Y724471D02*
Y745317D01*
X489076Y722953D02*
X490593Y724471D01*
X141839Y742806D02*
X142253D01*
X125685Y758960D02*
X141839Y742806D01*
X142253Y742806D02*
X323910D01*
X142253Y742806D02*
X142253Y742806D01*
X145488Y806508D02*
Y814746D01*
X140000Y814961D02*
X144298D01*
X144512Y814746D01*
X136500Y798900D02*
X144512Y806912D01*
X145488Y814746D02*
X145703Y814961D01*
X136904Y797924D02*
X145488Y806508D01*
X130579Y797924D02*
X136904D01*
X144512Y806912D02*
Y814746D01*
X145703Y814961D02*
X150000D01*
X130175Y798900D02*
X136500D01*
X110951Y778175D02*
X113801D01*
X475748Y745408D02*
X480979D01*
X484536Y741851D01*
X461170Y759986D02*
X475748Y745408D01*
X365676Y759986D02*
X461170Y759986D01*
X344879Y739188D02*
X365676Y759986D01*
X126673Y739188D02*
X344879Y739188D01*
X484536Y728092D02*
X486054Y726575D01*
X484536Y728092D02*
Y741851D01*
X110937Y793389D02*
Y796600D01*
X110937Y770818D02*
Y771381D01*
Y770818D02*
X110937Y770818D01*
X110937Y771381D02*
X110937Y771381D01*
X110937Y754925D02*
X126673Y739188D01*
X110937Y754925D02*
Y770818D01*
X110937Y771796D02*
Y793389D01*
X110937Y771381D02*
Y771795D01*
X110937Y771796D02*
X110937Y771795D01*
X460756Y758986D02*
X475334Y744408D01*
X480565D02*
X483536Y741437D01*
X366090Y758986D02*
X460756Y758986D01*
X475334Y744408D02*
X480565D01*
X345293Y738188D02*
X366090Y758986D01*
X110230Y754218D02*
Y754218D01*
X126259Y738188D02*
X345293Y738188D01*
X126259Y738188D02*
X126259D01*
X483536Y728092D02*
Y741437D01*
X482019Y726575D02*
X483536Y728092D01*
X109937Y792975D02*
Y796600D01*
X109937Y788175D02*
Y792975D01*
X108450Y788175D02*
X109937D01*
X109937Y770404D02*
X109937Y770404D01*
Y754511D02*
Y770404D01*
X110230Y754218D02*
X126259Y738188D01*
X109937Y754511D02*
X110230Y754218D01*
X109937Y771381D02*
X109937Y771381D01*
Y770967D02*
Y771381D01*
X109937Y771381D02*
Y788175D01*
X109937Y770404D02*
Y770967D01*
X109937Y770967D02*
X109937Y770967D01*
X124297Y814961D02*
X124512Y814746D01*
X116616Y805376D02*
X123548D01*
X124512Y806340D02*
Y814746D01*
X120000Y814961D02*
X124297D01*
X117020Y804400D02*
X123952D01*
X125488Y814746D02*
X125703Y814961D01*
X130000D01*
X123548Y805376D02*
X124512Y806340D01*
X123952Y804400D02*
X125488Y805936D01*
Y814746D01*
X109949Y796612D02*
Y798709D01*
X116616Y805376D01*
X110925Y798304D02*
X117020Y804400D01*
X110925Y796612D02*
Y798304D01*
X92293Y785612D02*
X94175D01*
X521120Y713132D02*
Y715825D01*
X517150Y719795D02*
X521120Y715825D01*
Y713132D02*
X522638Y711614D01*
X478746Y720088D02*
X516857D01*
X474630Y724204D02*
X478746Y720088D01*
X517150Y719795D02*
X517150D01*
X516857Y720088D02*
X517150Y719795D01*
X95189Y792065D02*
Y797900D01*
Y792065D02*
X95189Y792065D01*
X114867Y724204D02*
X474630Y724204D01*
X95189Y743883D02*
X114867Y724204D01*
X95189Y743883D02*
Y792065D01*
X95202Y774817D02*
X97084D01*
X516442Y719088D02*
X520120Y715411D01*
Y713132D02*
Y715411D01*
X478332Y719088D02*
X516442D01*
X518602Y711614D02*
X520120Y713132D01*
X474216Y723205D02*
X478039Y719381D01*
X114453Y723205D02*
X474216Y723205D01*
X478039Y719381D02*
X478332Y719088D01*
X478039Y719381D02*
X478039D01*
X94189Y791650D02*
X94189Y791650D01*
X94189Y791650D02*
Y797900D01*
X94189Y743469D02*
X114453Y723205D01*
X94189Y743469D02*
Y791650D01*
X105488Y805587D02*
Y814746D01*
X105702Y814961D01*
X100000D02*
X104297D01*
X103802Y803900D02*
X105488Y805587D01*
X105702Y814961D02*
X110000D01*
X102141Y804876D02*
X103397D01*
X101677Y803900D02*
X103802D01*
X104512Y805991D02*
Y814746D01*
X103397Y804876D02*
X104512Y805991D01*
X104297Y814961D02*
X104512Y814746D01*
X101165Y804876D02*
X102141D01*
X94213Y798304D02*
X100784Y804876D01*
X94213Y797924D02*
Y798304D01*
X94189Y797900D02*
X94213Y797924D01*
X101189Y803900D02*
X101677D01*
X101677Y803900D01*
X102141Y804876D02*
X102141Y804876D01*
X101165Y804876D02*
X101165Y804876D01*
X100784Y804876D02*
X101165D01*
X95189Y797900D02*
X101189Y803900D01*
X79429Y800329D02*
X85488Y806388D01*
X516500Y707642D02*
X517555D01*
X516285Y707857D02*
X516500Y707642D01*
X517555D02*
X517815Y707382D01*
X362997Y716801D02*
X508048D01*
X516285Y708564D01*
X361100Y714904D02*
X362997Y716801D01*
X516285Y707857D02*
Y708564D01*
X361100Y708300D02*
Y714904D01*
X359200Y706400D02*
X361100Y708300D01*
X283180Y706400D02*
X359200D01*
X81182Y778138D02*
X81190Y778146D01*
X79429Y781318D02*
X79429Y781318D01*
X79429Y781318D02*
Y800329D01*
X79429Y778138D02*
X81182D01*
X79429D02*
Y781318D01*
Y746700D02*
X108929Y717200D01*
X272380D02*
X283180Y706400D01*
X108929Y717200D02*
X272380D01*
X79429Y746700D02*
Y778138D01*
X515309Y707857D02*
Y708160D01*
X515095Y707642D02*
X515309Y707857D01*
X507644Y715825D02*
X515309Y708160D01*
X514040Y707642D02*
X515095D01*
X363401Y715825D02*
X507644D01*
X362076Y714500D02*
X363401Y715825D01*
X362076Y707896D02*
Y714500D01*
X513779Y707382D02*
X514040Y707642D01*
X359604Y705424D02*
X362076Y707896D01*
X271976Y716224D02*
X282776Y705424D01*
X359604D01*
X78453Y788374D02*
Y800733D01*
X76560Y788374D02*
X78453D01*
Y780914D02*
X78453Y780914D01*
Y746296D02*
Y780914D01*
X78453Y780914D02*
Y788374D01*
X108524Y716224D02*
X271976D01*
X78453Y746296D02*
X108524Y716224D01*
X78453Y800733D02*
X84512Y806792D01*
Y814746D01*
X84298Y814961D02*
X84512Y814746D01*
X80000Y814961D02*
X84298D01*
X85488Y806388D02*
Y814746D01*
X85703Y814961D01*
X90000D01*
X508308Y710427D02*
Y710758D01*
X508061Y710180D02*
X508308Y710427D01*
X506934Y712132D02*
X508308Y710758D01*
X507181Y710180D02*
X508061D01*
X376246Y712132D02*
X506934D01*
X506843Y709842D02*
X507181Y710180D01*
X366114Y702000D02*
X376246Y712132D01*
X275654Y704646D02*
Y704646D01*
X278300Y702000D02*
X366114D01*
X275654Y704646D02*
X278300Y702000D01*
X62693Y806300D02*
X62704Y806312D01*
X60811Y785653D02*
X62693D01*
Y806300D01*
X60783Y785626D02*
X60811Y785653D01*
X208714Y711200D02*
X269100D01*
X275654Y704646D01*
X62693Y748986D02*
X103478Y708200D01*
X205714D02*
X208714Y711200D01*
X103478Y708200D02*
X205714D01*
X62693Y748986D02*
Y785653D01*
X509307Y710427D02*
Y711172D01*
Y710427D02*
X509554Y710180D01*
X507348Y713132D02*
X509307Y711172D01*
X510434Y710180D02*
X510772Y709842D01*
X509554Y710180D02*
X510434D01*
X375832Y713132D02*
X507348D01*
X208300Y712200D02*
X269514D01*
X205300Y709200D02*
X208300Y712200D01*
X103893Y709200D02*
X205300D01*
X365700Y703000D02*
X375832Y713132D01*
X269514Y712200D02*
X276007Y705707D01*
X278714Y703000D02*
X365700D01*
X276007Y705707D02*
X278714Y703000D01*
X63693Y775252D02*
Y806300D01*
X63681Y806312D02*
X63693Y806300D01*
Y775252D02*
X65982D01*
X63693Y749400D02*
Y775252D01*
Y749400D02*
X103893Y709200D01*
X60000Y814961D02*
X64297D01*
X64512Y814746D01*
Y811456D02*
Y814746D01*
X62704Y809649D02*
X64512Y811456D01*
X62704Y806312D02*
Y809649D01*
X65488Y811052D02*
Y814746D01*
X65702Y814961D02*
X70000D01*
X65488Y814746D02*
X65702Y814961D01*
X63681Y809245D02*
X65488Y811052D01*
X63681Y806312D02*
Y809245D01*
M02*
