G04*
G04 #@! TF.GenerationSoftware,Altium Limited,Altium Designer,20.2.6 (244)*
G04*
G04 Layer_Color=8388736*
%FSLAX25Y25*%
%MOIN*%
G70*
G04*
G04 #@! TF.SameCoordinates,7BFF7E2D-F564-4378-804B-9DD5228BFDDE*
G04*
G04*
G04 #@! TF.FilePolarity,Negative*
G04*
G01*
G75*
%ADD25C,0.00945*%
%ADD44R,0.03543X0.02953*%
%ADD45R,0.00984X0.01968*%
%ADD46R,0.00984X0.00591*%
%ADD47R,0.03850X0.02200*%
%ADD50R,0.05709X0.07874*%
%ADD51R,0.03150X0.05906*%
%ADD53R,0.01400X0.07900*%
%ADD60R,0.02600X0.00900*%
%ADD61R,0.06299X0.19291*%
%ADD62R,0.05906X0.20472*%
%ADD64R,0.02300X0.05200*%
%ADD66R,0.01772X0.05118*%
%ADD68R,0.02047X0.02047*%
%ADD75R,0.02165X0.01772*%
%ADD80R,0.01968X0.01968*%
%ADD85R,0.04375X0.02365*%
%ADD90R,0.03956X0.01535*%
%ADD91R,0.01535X0.03956*%
%ADD96R,0.01968X0.01968*%
%ADD101R,0.02953X0.03543*%
%ADD106R,0.00100X0.00100*%
%ADD107R,0.01200X0.03200*%
%ADD108R,0.03200X0.01200*%
%ADD111R,0.00100X0.00100*%
%ADD121R,0.02362X0.03150*%
%ADD122R,0.03150X0.02362*%
%ADD126R,0.01787X0.02642*%
%ADD127R,0.12524X0.12492*%
%ADD128R,0.04540X0.02965*%
%ADD129R,0.03398X0.03241*%
%ADD130R,0.03241X0.03398*%
%ADD131R,0.02965X0.04540*%
%ADD132R,0.05131X0.03162*%
%ADD133R,0.05328X0.06509*%
%ADD134R,0.01883X0.01784*%
%ADD135R,0.01784X0.01883*%
%ADD136R,0.08280X0.05131*%
%ADD137R,0.04343X0.03556*%
%ADD138R,0.04540X0.03950*%
%ADD139R,0.18500X0.18900*%
%ADD140R,0.06312X0.01981*%
%ADD141R,0.03950X0.04540*%
G04:AMPARAMS|DCode=142|XSize=29.65mil|YSize=39.5mil|CornerRadius=5.95mil|HoleSize=0mil|Usage=FLASHONLY|Rotation=0.000|XOffset=0mil|YOffset=0mil|HoleType=Round|Shape=RoundedRectangle|*
%AMROUNDEDRECTD142*
21,1,0.02965,0.02760,0,0,0.0*
21,1,0.01776,0.03950,0,0,0.0*
1,1,0.01190,0.00888,-0.01380*
1,1,0.01190,-0.00888,-0.01380*
1,1,0.01190,-0.00888,0.01380*
1,1,0.01190,0.00888,0.01380*
%
%ADD142ROUNDEDRECTD142*%
%ADD143R,0.04737X0.11824*%
%ADD144R,0.03162X0.02965*%
G04:AMPARAMS|DCode=145|XSize=29.65mil|YSize=39.5mil|CornerRadius=5.95mil|HoleSize=0mil|Usage=FLASHONLY|Rotation=270.000|XOffset=0mil|YOffset=0mil|HoleType=Round|Shape=RoundedRectangle|*
%AMROUNDEDRECTD145*
21,1,0.02965,0.02760,0,0,270.0*
21,1,0.01776,0.03950,0,0,270.0*
1,1,0.01190,-0.01380,-0.00888*
1,1,0.01190,-0.01380,0.00888*
1,1,0.01190,0.01380,0.00888*
1,1,0.01190,0.01380,-0.00888*
%
%ADD145ROUNDEDRECTD145*%
%ADD146R,0.01981X0.03556*%
%ADD147R,0.04540X0.04147*%
%ADD148R,0.05328X0.06312*%
%ADD149O,0.01654X0.05787*%
%ADD150R,0.04737X0.04934*%
%ADD151R,0.11627X0.04737*%
%ADD152R,0.02847X0.03635*%
%ADD153R,0.02572X0.02965*%
%ADD154R,0.05906X0.02165*%
%ADD155R,0.02965X0.02572*%
%ADD156R,0.04737X0.05524*%
%ADD157R,0.02965X0.02965*%
%ADD158R,0.03084X0.03398*%
%ADD159R,0.03123X0.03241*%
%ADD160R,0.06312X0.05721*%
%ADD161R,0.05721X0.06312*%
%ADD162O,0.01784X0.04343*%
%ADD163O,0.04343X0.01784*%
%ADD164R,0.21272X0.21272*%
%ADD165R,0.10839X0.10839*%
%ADD166O,0.01784X0.03950*%
%ADD167O,0.03950X0.01784*%
%ADD168R,0.09068X0.09068*%
%ADD169R,0.02178X0.02769*%
%ADD170R,0.02769X0.02178*%
%ADD171R,0.09449X0.09449*%
%ADD172R,0.09449X0.09449*%
%ADD173O,0.01587X0.04343*%
%ADD174O,0.04343X0.01587*%
%ADD175R,0.22453X0.22453*%
%ADD176R,0.03241X0.03123*%
%ADD177R,0.03635X0.02847*%
%ADD178R,0.03398X0.03084*%
%ADD179R,0.06706X0.01981*%
%ADD180R,0.01981X0.06706*%
%ADD181R,0.04540X0.03162*%
%ADD182R,0.05131X0.04737*%
G04:AMPARAMS|DCode=183|XSize=15.87mil|YSize=25.72mil|CornerRadius=5.97mil|HoleSize=0mil|Usage=FLASHONLY|Rotation=180.000|XOffset=0mil|YOffset=0mil|HoleType=Round|Shape=RoundedRectangle|*
%AMROUNDEDRECTD183*
21,1,0.01587,0.01378,0,0,180.0*
21,1,0.00394,0.02572,0,0,180.0*
1,1,0.01194,-0.00197,0.00689*
1,1,0.01194,0.00197,0.00689*
1,1,0.01194,0.00197,-0.00689*
1,1,0.01194,-0.00197,-0.00689*
%
%ADD183ROUNDEDRECTD183*%
%ADD184R,0.06312X0.05328*%
%ADD185R,0.03556X0.02178*%
%ADD186R,0.12800X0.12800*%
%ADD187R,0.04737X0.04343*%
%ADD188R,0.03556X0.01981*%
%ADD189R,0.01968X0.02362*%
%ADD190R,0.03556X0.04343*%
%ADD191R,0.02965X0.03162*%
%ADD192R,0.03753X0.02572*%
%ADD193R,0.02965X0.04540*%
%ADD194R,0.03162X0.04934*%
%ADD195R,0.04343X0.04737*%
%ADD196R,0.03162X0.04540*%
%ADD197R,0.05721X0.07690*%
%ADD198R,0.04147X0.04343*%
%ADD199R,0.04147X0.04540*%
%ADD200R,0.04540X0.02965*%
G04:AMPARAMS|DCode=201|XSize=15.87mil|YSize=25.72mil|CornerRadius=5.97mil|HoleSize=0mil|Usage=FLASHONLY|Rotation=90.000|XOffset=0mil|YOffset=0mil|HoleType=Round|Shape=RoundedRectangle|*
%AMROUNDEDRECTD201*
21,1,0.01587,0.01378,0,0,90.0*
21,1,0.00394,0.02572,0,0,90.0*
1,1,0.01194,0.00689,0.00197*
1,1,0.01194,0.00689,-0.00197*
1,1,0.01194,-0.00689,-0.00197*
1,1,0.01194,-0.00689,0.00197*
%
%ADD201ROUNDEDRECTD201*%
%ADD202C,0.01030*%
%ADD203C,0.06300*%
%ADD204C,0.09100*%
%ADD205C,0.03654*%
G04:AMPARAMS|DCode=206|XSize=70.99mil|YSize=128.08mil|CornerRadius=19.75mil|HoleSize=0mil|Usage=FLASHONLY|Rotation=90.000|XOffset=0mil|YOffset=0mil|HoleType=Round|Shape=RoundedRectangle|*
%AMROUNDEDRECTD206*
21,1,0.07099,0.08858,0,0,90.0*
21,1,0.03150,0.12808,0,0,90.0*
1,1,0.03950,0.04429,0.01575*
1,1,0.03950,0.04429,-0.01575*
1,1,0.03950,-0.04429,-0.01575*
1,1,0.03950,-0.04429,0.01575*
%
%ADD206ROUNDEDRECTD206*%
%ADD207C,0.10249*%
%ADD208R,0.07296X0.07296*%
%ADD209C,0.07296*%
%ADD210R,0.07001X0.07001*%
%ADD211C,0.07001*%
G04:AMPARAMS|DCode=212|XSize=45.28mil|YSize=70.87mil|CornerRadius=22.64mil|HoleSize=0mil|Usage=FLASHONLY|Rotation=180.000|XOffset=0mil|YOffset=0mil|HoleType=Round|Shape=RoundedRectangle|*
%AMROUNDEDRECTD212*
21,1,0.04528,0.02559,0,0,180.0*
21,1,0.00000,0.07087,0,0,180.0*
1,1,0.04528,0.00000,0.01280*
1,1,0.04528,0.00000,0.01280*
1,1,0.04528,0.00000,-0.01280*
1,1,0.04528,0.00000,-0.01280*
%
%ADD212ROUNDEDRECTD212*%
G04:AMPARAMS|DCode=213|XSize=57.09mil|YSize=78.74mil|CornerRadius=28.54mil|HoleSize=0mil|Usage=FLASHONLY|Rotation=180.000|XOffset=0mil|YOffset=0mil|HoleType=Round|Shape=RoundedRectangle|*
%AMROUNDEDRECTD213*
21,1,0.05709,0.02165,0,0,180.0*
21,1,0.00000,0.07874,0,0,180.0*
1,1,0.05709,0.00000,0.01083*
1,1,0.05709,0.00000,0.01083*
1,1,0.05709,0.00000,-0.01083*
1,1,0.05709,0.00000,-0.01083*
%
%ADD213ROUNDEDRECTD213*%
%ADD214C,0.03150*%
%ADD215C,0.11800*%
%ADD216C,0.05052*%
%ADD217C,0.06312*%
%ADD218C,0.32296*%
%ADD219C,0.06800*%
%ADD220C,0.08674*%
%ADD221R,0.06312X0.06312*%
%ADD222C,0.06824*%
%ADD223C,0.13398*%
%ADD224C,0.02800*%
%ADD225C,0.04737*%
%ADD226C,0.08280*%
%ADD227C,0.02965*%
%ADD228C,0.04800*%
%ADD229C,0.03800*%
%ADD230C,0.03300*%
%ADD231C,0.02700*%
%ADD232C,0.03556*%
%ADD233C,0.02965*%
%ADD234C,0.02600*%
G36*
X1229493Y838671D02*
X1229500Y638600D01*
X1225065D01*
X1225065Y833842D01*
X839192Y833938D01*
X839192Y838671D01*
X1229493Y838671D01*
D02*
G37*
G36*
X660174Y647369D02*
X660174Y635335D01*
X651911Y635335D01*
Y647708D01*
X659820Y647722D01*
X660174Y647369D01*
D02*
G37*
G36*
X564345Y568335D02*
X564345Y556301D01*
X556081Y556301D01*
Y568674D01*
X563991Y568688D01*
X564345Y568335D01*
D02*
G37*
G36*
X399740Y554256D02*
X391830Y554242D01*
X391476Y554595D01*
X391476Y566630D01*
X399740Y566630D01*
Y554256D01*
D02*
G37*
G36*
X92847Y486183D02*
X84938Y486169D01*
X84584Y486522D01*
X84584Y498557D01*
X92847Y498557D01*
Y486183D01*
D02*
G37*
G36*
X388327Y442660D02*
X380417Y442646D01*
X380063Y442999D01*
X380063Y455033D01*
X388327Y455033D01*
Y442660D01*
D02*
G37*
G36*
X130999Y360638D02*
X123089Y360624D01*
X122735Y360977D01*
X122735Y373011D01*
X130999Y373011D01*
Y360638D01*
D02*
G37*
G36*
X597169Y324912D02*
X589260Y324898D01*
X588906Y325251D01*
X588906Y337286D01*
X597169Y337286D01*
Y324912D01*
D02*
G37*
G36*
X425563Y302775D02*
Y301200D01*
Y299675D01*
Y296938D01*
X418563D01*
Y298100D01*
Y299675D01*
Y301200D01*
Y302775D01*
Y303938D01*
X425563D01*
Y302775D01*
D02*
G37*
G36*
X580707Y290774D02*
X573752Y290761D01*
X573398Y291115D01*
Y300583D01*
X580707D01*
X580707Y290774D01*
D02*
G37*
G36*
X37004Y241911D02*
X37006Y241911D01*
X37014Y241909D01*
X37022Y241908D01*
X37024Y241907D01*
X37026Y241907D01*
X37034Y241903D01*
X37041Y241900D01*
X37043Y241899D01*
X37045Y241898D01*
X37051Y241893D01*
X37058Y241888D01*
X37059Y241886D01*
X37061Y241884D01*
X37066Y241878D01*
X37071Y241871D01*
X37071Y241869D01*
X37073Y241867D01*
X37075Y241860D01*
X37078Y241852D01*
X37079Y241850D01*
X37079Y241848D01*
X37080Y241840D01*
X37081Y241832D01*
X37081Y241829D01*
X37081Y241827D01*
X37080Y241819D01*
X37078Y241811D01*
X37078Y241809D01*
X37077Y241807D01*
X37074Y241799D01*
X37071Y241792D01*
X37069Y241790D01*
X37068Y241788D01*
X37063Y241782D01*
X37058Y241775D01*
X37056Y241774D01*
X37055Y241772D01*
X37048Y241768D01*
X37041Y241763D01*
X37039Y241762D01*
X37038Y241761D01*
X37030Y241758D01*
X37022Y241755D01*
X37020Y241755D01*
X37018Y241754D01*
X37008Y241752D01*
X37001Y241742D01*
X36989Y241716D01*
X36977Y241676D01*
X36966Y241623D01*
X36957Y241558D01*
X36946Y241390D01*
X36945Y241289D01*
X36944Y241279D01*
X36942Y241269D01*
X36942Y241269D01*
X36942Y241268D01*
X36938Y241259D01*
X36934Y241250D01*
X36934Y241250D01*
X36934Y241249D01*
X36928Y241241D01*
X36922Y241233D01*
X36921Y241233D01*
X36921Y241233D01*
X36913Y241227D01*
X36905Y241221D01*
X36905Y241221D01*
X36904Y241220D01*
X36895Y241217D01*
X36886Y241213D01*
X36886Y241213D01*
X36885Y241213D01*
X36875Y241212D01*
X36865Y241210D01*
X36078D01*
X36068Y241212D01*
X36059Y241213D01*
X36058Y241213D01*
X36057Y241213D01*
X36048Y241217D01*
X36039Y241220D01*
X36039Y241221D01*
X36038Y241221D01*
X36031Y241227D01*
X36023Y241233D01*
X36022Y241233D01*
X36022Y241233D01*
X36016Y241242D01*
X36010Y241249D01*
X36010Y241250D01*
X36009Y241250D01*
X36005Y241259D01*
X36002Y241268D01*
X36002Y241269D01*
X36001Y241269D01*
X36000Y241279D01*
X35999Y241289D01*
X35997Y241389D01*
X35978Y241625D01*
X35967Y241676D01*
X35955Y241716D01*
X35943Y241742D01*
X35935Y241752D01*
X35926Y241754D01*
X35924Y241755D01*
X35921Y241755D01*
X35914Y241758D01*
X35906Y241761D01*
X35904Y241762D01*
X35902Y241763D01*
X35896Y241768D01*
X35889Y241772D01*
X35888Y241774D01*
X35886Y241775D01*
X35881Y241782D01*
X35875Y241788D01*
X35875Y241790D01*
X35873Y241792D01*
X35870Y241799D01*
X35866Y241807D01*
X35866Y241809D01*
X35865Y241811D01*
X35864Y241819D01*
X35863Y241827D01*
X35863Y241829D01*
X35862Y241832D01*
X35864Y241840D01*
X35864Y241848D01*
X35865Y241850D01*
X35865Y241852D01*
X35868Y241860D01*
X35871Y241867D01*
X35872Y241869D01*
X35873Y241871D01*
X35878Y241878D01*
X35883Y241884D01*
X35884Y241886D01*
X35886Y241888D01*
X35892Y241893D01*
X35899Y241898D01*
X35901Y241899D01*
X35902Y241900D01*
X35910Y241903D01*
X35917Y241907D01*
X35919Y241907D01*
X35921Y241908D01*
X35930Y241909D01*
X35938Y241911D01*
X35940Y241911D01*
X35942Y241911D01*
X37002D01*
X37004Y241911D01*
D02*
G37*
G36*
X606494Y241956D02*
X571619Y241894D01*
X571265Y242247D01*
X571265Y277783D01*
X606494Y277783D01*
X606494Y241956D01*
D02*
G37*
G36*
X500606Y207578D02*
Y206003D01*
Y204478D01*
Y201740D01*
X493606D01*
Y202903D01*
Y204478D01*
Y206003D01*
Y207578D01*
Y208740D01*
X500606D01*
Y207578D01*
D02*
G37*
G36*
X449854D02*
Y206003D01*
Y204478D01*
Y201740D01*
X442854D01*
Y202903D01*
Y204478D01*
Y206003D01*
Y207578D01*
Y208740D01*
X449854D01*
Y207578D01*
D02*
G37*
G36*
X400374D02*
Y206003D01*
Y204478D01*
Y201740D01*
X393374D01*
Y202903D01*
Y204478D01*
Y206003D01*
Y207578D01*
Y208740D01*
X400374D01*
Y207578D01*
D02*
G37*
G36*
X350067D02*
Y206003D01*
Y204478D01*
Y201740D01*
X343067D01*
Y202903D01*
Y204478D01*
Y206003D01*
Y207578D01*
Y208740D01*
X350067D01*
Y207578D01*
D02*
G37*
G36*
X299976D02*
Y206003D01*
Y204478D01*
Y201740D01*
X292976D01*
Y202903D01*
Y204478D01*
Y206003D01*
Y207578D01*
Y208740D01*
X299976D01*
Y207578D01*
D02*
G37*
G36*
X249961D02*
Y206003D01*
Y204478D01*
Y201740D01*
X242961D01*
Y202903D01*
Y204478D01*
Y206003D01*
Y207578D01*
Y208740D01*
X249961D01*
Y207578D01*
D02*
G37*
G36*
X199016D02*
Y206003D01*
Y204478D01*
Y201740D01*
X192016D01*
Y202903D01*
Y204478D01*
Y206003D01*
Y207578D01*
Y208740D01*
X199016D01*
Y207578D01*
D02*
G37*
G36*
X149141D02*
Y206003D01*
Y204478D01*
Y201740D01*
X142141D01*
Y204478D01*
Y206003D01*
Y207578D01*
Y208740D01*
X149141D01*
Y207578D01*
D02*
G37*
G36*
X494241Y131575D02*
X494245Y131575D01*
X494251Y131574D01*
X494257Y131573D01*
X494261Y131571D01*
X494265Y131570D01*
X494271Y131567D01*
X494277Y131565D01*
X494280Y131562D01*
X494283Y131560D01*
X494288Y131556D01*
X494293Y131552D01*
X494296Y131549D01*
X494299Y131546D01*
X494302Y131541D01*
X494306Y131536D01*
X494307Y131532D01*
X494309Y131528D01*
X494311Y131522D01*
X494313Y131517D01*
X494314Y131512D01*
X494315Y131508D01*
X494315Y131502D01*
X494316Y131496D01*
Y131183D01*
X494362Y131182D01*
X494370Y131180D01*
X494379Y131179D01*
X494381Y131178D01*
X494382Y131178D01*
X494390Y131175D01*
X494399Y131171D01*
X494400Y131170D01*
X494401Y131170D01*
X494408Y131164D01*
X494415Y131159D01*
X494416Y131157D01*
X494417Y131157D01*
X494422Y131149D01*
X494428Y131142D01*
X494428Y131141D01*
X494429Y131140D01*
X494432Y131131D01*
X494436Y131123D01*
X494436Y131122D01*
X494436Y131120D01*
X494437Y131111D01*
X494438Y131103D01*
X494440Y130315D01*
X494439Y130306D01*
X494438Y130297D01*
X494437Y130296D01*
X494437Y130295D01*
X494434Y130286D01*
X494430Y130278D01*
X494430Y130277D01*
X494429Y130275D01*
X494424Y130268D01*
X494418Y130261D01*
X494417Y130260D01*
X494417Y130259D01*
X494409Y130253D01*
X494402Y130248D01*
X494401Y130247D01*
X494400Y130246D01*
X494392Y130243D01*
X494384Y130239D01*
X494382Y130239D01*
X494381Y130238D01*
X494372Y130237D01*
X494363Y130236D01*
X494316Y130234D01*
Y129921D01*
X494315Y129915D01*
X494315Y129909D01*
X494314Y129905D01*
X494313Y129901D01*
X494311Y129895D01*
X494309Y129889D01*
X494307Y129885D01*
X494306Y129882D01*
X494302Y129877D01*
X494299Y129871D01*
X494296Y129868D01*
X494293Y129865D01*
X494288Y129861D01*
X494283Y129857D01*
X494280Y129855D01*
X494277Y129852D01*
X494271Y129850D01*
X494265Y129847D01*
X494261Y129846D01*
X494257Y129845D01*
X494251Y129844D01*
X494245Y129842D01*
X494241Y129842D01*
X494237Y129842D01*
X494231Y129843D01*
X494224Y129843D01*
X494220Y129844D01*
X494216Y129845D01*
X494210Y129847D01*
X494205Y129849D01*
X494201Y129851D01*
X494197Y129852D01*
X494192Y129856D01*
X494187Y129859D01*
X494184Y129862D01*
X494181Y129865D01*
X494177Y129870D01*
X494173Y129875D01*
X494171Y129878D01*
X494168Y129882D01*
X494166Y129887D01*
X494163Y129893D01*
X494162Y129897D01*
X494160Y129901D01*
X494159Y129907D01*
X494158Y129913D01*
X494151Y129978D01*
X494133Y130027D01*
X494104Y130070D01*
X494061Y130109D01*
X494001Y130145D01*
X493949Y130166D01*
X493905Y130150D01*
X493825Y130113D01*
X493747Y130069D01*
X493673Y130018D01*
X493601Y129960D01*
X493531Y129893D01*
X493523Y129887D01*
X493516Y129882D01*
X493515Y129881D01*
X493514Y129880D01*
X493505Y129877D01*
X493497Y129874D01*
X493496Y129874D01*
X493494Y129873D01*
X493485Y129872D01*
X493476Y129871D01*
X493475Y129871D01*
X493474Y129871D01*
X493465Y129872D01*
X493456Y129874D01*
X493454Y129874D01*
X493453Y129874D01*
X493445Y129878D01*
X493436Y129881D01*
X493435Y129882D01*
X493434Y129883D01*
X493427Y129888D01*
X493420Y129894D01*
X493419Y129895D01*
X493418Y129896D01*
X493413Y129903D01*
X493407Y129911D01*
X493407Y129912D01*
X493406Y129912D01*
X493403Y129921D01*
X493399Y129930D01*
X493399Y129931D01*
X493399Y129932D01*
X493398Y129941D01*
X493397Y129950D01*
X493396Y130247D01*
X493396Y130247D01*
X493389Y130253D01*
X493381Y130259D01*
X493381Y130260D01*
X493380Y130260D01*
X493374Y130268D01*
X493369Y130275D01*
X493368Y130276D01*
X493368Y130277D01*
X493364Y130286D01*
X493361Y130294D01*
X493361Y130295D01*
X493360Y130296D01*
X493359Y130306D01*
X493358Y130315D01*
Y131102D01*
X493359Y131112D01*
X493360Y131121D01*
X493361Y131122D01*
X493361Y131123D01*
X493364Y131131D01*
X493368Y131140D01*
X493368Y131141D01*
X493369Y131142D01*
X493374Y131149D01*
X493380Y131157D01*
X493381Y131158D01*
X493381Y131158D01*
X493389Y131164D01*
X493395Y131169D01*
X493394Y131466D01*
X493395Y131475D01*
X493396Y131484D01*
X493397Y131485D01*
X493397Y131486D01*
X493400Y131495D01*
X493404Y131504D01*
X493404Y131505D01*
X493405Y131506D01*
X493410Y131513D01*
X493416Y131521D01*
X493417Y131521D01*
X493417Y131522D01*
X493425Y131528D01*
X493432Y131534D01*
X493433Y131534D01*
X493434Y131535D01*
X493442Y131538D01*
X493451Y131542D01*
X493452Y131542D01*
X493453Y131543D01*
X493462Y131544D01*
X493471Y131545D01*
X493472Y131545D01*
X493473Y131545D01*
X493482Y131544D01*
X493492Y131543D01*
X493493Y131543D01*
X493494Y131543D01*
X493503Y131539D01*
X493511Y131536D01*
X493512Y131535D01*
X493513Y131535D01*
X493520Y131529D01*
X493528Y131524D01*
X493599Y131457D01*
X493671Y131399D01*
X493745Y131348D01*
X493823Y131304D01*
X493904Y131267D01*
X493948Y131251D01*
X494001Y131272D01*
X494061Y131308D01*
X494104Y131348D01*
X494133Y131391D01*
X494151Y131439D01*
X494158Y131504D01*
X494159Y131510D01*
X494160Y131517D01*
X494162Y131520D01*
X494163Y131525D01*
X494166Y131530D01*
X494168Y131536D01*
X494171Y131539D01*
X494173Y131543D01*
X494177Y131547D01*
X494181Y131552D01*
X494184Y131555D01*
X494187Y131558D01*
X494192Y131561D01*
X494197Y131565D01*
X494201Y131567D01*
X494205Y131569D01*
X494210Y131570D01*
X494216Y131573D01*
X494220Y131573D01*
X494224Y131574D01*
X494231Y131575D01*
X494237Y131576D01*
X494241Y131575D01*
D02*
G37*
G36*
X443142D02*
X443147Y131575D01*
X443153Y131574D01*
X443159Y131573D01*
X443163Y131571D01*
X443167Y131570D01*
X443172Y131567D01*
X443178Y131565D01*
X443181Y131562D01*
X443185Y131560D01*
X443189Y131556D01*
X443194Y131552D01*
X443197Y131549D01*
X443200Y131546D01*
X443203Y131541D01*
X443207Y131536D01*
X443209Y131532D01*
X443211Y131528D01*
X443213Y131522D01*
X443215Y131517D01*
X443215Y131512D01*
X443217Y131508D01*
X443217Y131502D01*
X443218Y131496D01*
Y131183D01*
X443263Y131182D01*
X443272Y131180D01*
X443281Y131179D01*
X443282Y131178D01*
X443284Y131178D01*
X443292Y131175D01*
X443300Y131171D01*
X443301Y131170D01*
X443302Y131170D01*
X443309Y131164D01*
X443317Y131159D01*
X443317Y131157D01*
X443319Y131157D01*
X443324Y131149D01*
X443329Y131142D01*
X443330Y131141D01*
X443330Y131140D01*
X443334Y131131D01*
X443337Y131123D01*
X443337Y131122D01*
X443338Y131120D01*
X443339Y131111D01*
X443340Y131103D01*
X443341Y130315D01*
X443340Y130306D01*
X443339Y130297D01*
X443339Y130296D01*
X443338Y130295D01*
X443335Y130286D01*
X443332Y130278D01*
X443331Y130277D01*
X443331Y130275D01*
X443325Y130268D01*
X443320Y130261D01*
X443319Y130260D01*
X443318Y130259D01*
X443311Y130253D01*
X443304Y130248D01*
X443303Y130247D01*
X443302Y130246D01*
X443293Y130243D01*
X443285Y130239D01*
X443284Y130239D01*
X443282Y130238D01*
X443273Y130237D01*
X443264Y130236D01*
X443218Y130234D01*
Y129921D01*
X443217Y129915D01*
X443217Y129909D01*
X443215Y129905D01*
X443215Y129901D01*
X443213Y129895D01*
X443211Y129889D01*
X443209Y129885D01*
X443207Y129882D01*
X443203Y129877D01*
X443200Y129871D01*
X443197Y129868D01*
X443194Y129865D01*
X443189Y129861D01*
X443185Y129857D01*
X443181Y129855D01*
X443178Y129852D01*
X443172Y129850D01*
X443167Y129847D01*
X443163Y129846D01*
X443159Y129845D01*
X443153Y129844D01*
X443147Y129842D01*
X443142Y129842D01*
X443138Y129842D01*
X443132Y129843D01*
X443126Y129843D01*
X443122Y129844D01*
X443118Y129845D01*
X443112Y129847D01*
X443106Y129849D01*
X443102Y129851D01*
X443098Y129852D01*
X443094Y129856D01*
X443088Y129859D01*
X443085Y129862D01*
X443082Y129865D01*
X443078Y129870D01*
X443074Y129875D01*
X443072Y129878D01*
X443069Y129882D01*
X443067Y129887D01*
X443064Y129893D01*
X443063Y129897D01*
X443061Y129901D01*
X443061Y129907D01*
X443059Y129913D01*
X443052Y129978D01*
X443035Y130027D01*
X443006Y130070D01*
X442963Y130109D01*
X442903Y130145D01*
X442851Y130166D01*
X442807Y130150D01*
X442726Y130113D01*
X442649Y130069D01*
X442574Y130018D01*
X442503Y129960D01*
X442432Y129893D01*
X442425Y129887D01*
X442417Y129882D01*
X442416Y129881D01*
X442415Y129880D01*
X442407Y129877D01*
X442398Y129874D01*
X442397Y129874D01*
X442396Y129873D01*
X442387Y129872D01*
X442377Y129871D01*
X442376Y129871D01*
X442375Y129871D01*
X442366Y129872D01*
X442357Y129874D01*
X442356Y129874D01*
X442355Y129874D01*
X442346Y129878D01*
X442338Y129881D01*
X442337Y129882D01*
X442336Y129883D01*
X442329Y129888D01*
X442321Y129894D01*
X442321Y129895D01*
X442320Y129896D01*
X442314Y129903D01*
X442309Y129911D01*
X442308Y129912D01*
X442308Y129912D01*
X442304Y129921D01*
X442301Y129930D01*
X442301Y129931D01*
X442300Y129932D01*
X442299Y129941D01*
X442298Y129950D01*
X442297Y130247D01*
X442297Y130247D01*
X442290Y130253D01*
X442283Y130259D01*
X442282Y130260D01*
X442281Y130260D01*
X442276Y130268D01*
X442270Y130275D01*
X442270Y130276D01*
X442269Y130277D01*
X442266Y130286D01*
X442262Y130294D01*
X442262Y130295D01*
X442262Y130296D01*
X442261Y130306D01*
X442259Y130315D01*
Y131102D01*
X442261Y131112D01*
X442262Y131121D01*
X442262Y131122D01*
X442262Y131123D01*
X442266Y131131D01*
X442269Y131140D01*
X442270Y131141D01*
X442270Y131142D01*
X442276Y131149D01*
X442281Y131157D01*
X442282Y131158D01*
X442283Y131158D01*
X442290Y131164D01*
X442296Y131169D01*
X442296Y131466D01*
X442297Y131475D01*
X442298Y131484D01*
X442298Y131485D01*
X442298Y131486D01*
X442302Y131495D01*
X442305Y131504D01*
X442306Y131505D01*
X442306Y131506D01*
X442312Y131513D01*
X442317Y131521D01*
X442318Y131521D01*
X442319Y131522D01*
X442326Y131528D01*
X442333Y131534D01*
X442334Y131534D01*
X442335Y131535D01*
X442344Y131538D01*
X442352Y131542D01*
X442353Y131542D01*
X442354Y131543D01*
X442363Y131544D01*
X442373Y131545D01*
X442374Y131545D01*
X442375Y131545D01*
X442384Y131544D01*
X442393Y131543D01*
X442394Y131543D01*
X442395Y131543D01*
X442404Y131539D01*
X442413Y131536D01*
X442414Y131535D01*
X442415Y131535D01*
X442422Y131529D01*
X442429Y131524D01*
X442500Y131457D01*
X442572Y131399D01*
X442647Y131348D01*
X442725Y131304D01*
X442805Y131267D01*
X442850Y131251D01*
X442903Y131272D01*
X442963Y131308D01*
X443006Y131348D01*
X443035Y131391D01*
X443052Y131439D01*
X443059Y131504D01*
X443061Y131510D01*
X443061Y131517D01*
X443063Y131520D01*
X443064Y131525D01*
X443067Y131530D01*
X443069Y131536D01*
X443072Y131539D01*
X443074Y131543D01*
X443078Y131547D01*
X443082Y131552D01*
X443085Y131555D01*
X443088Y131558D01*
X443094Y131561D01*
X443098Y131565D01*
X443102Y131567D01*
X443106Y131569D01*
X443112Y131570D01*
X443118Y131573D01*
X443122Y131573D01*
X443126Y131574D01*
X443132Y131575D01*
X443138Y131576D01*
X443142Y131575D01*
D02*
G37*
G36*
X393931D02*
X393935Y131575D01*
X393941Y131574D01*
X393947Y131573D01*
X393951Y131571D01*
X393955Y131570D01*
X393961Y131567D01*
X393967Y131565D01*
X393970Y131562D01*
X393974Y131560D01*
X393978Y131556D01*
X393983Y131552D01*
X393986Y131549D01*
X393989Y131546D01*
X393992Y131541D01*
X393996Y131536D01*
X393997Y131532D01*
X394000Y131528D01*
X394001Y131522D01*
X394004Y131517D01*
X394004Y131512D01*
X394005Y131508D01*
X394005Y131502D01*
X394006Y131496D01*
Y131183D01*
X394052Y131182D01*
X394060Y131180D01*
X394070Y131179D01*
X394071Y131178D01*
X394072Y131178D01*
X394080Y131175D01*
X394089Y131171D01*
X394090Y131170D01*
X394091Y131170D01*
X394098Y131164D01*
X394105Y131159D01*
X394106Y131157D01*
X394107Y131157D01*
X394112Y131149D01*
X394118Y131142D01*
X394118Y131141D01*
X394119Y131140D01*
X394122Y131131D01*
X394126Y131123D01*
X394126Y131122D01*
X394127Y131120D01*
X394127Y131111D01*
X394128Y131103D01*
X394130Y130315D01*
X394129Y130306D01*
X394128Y130297D01*
X394127Y130296D01*
X394127Y130295D01*
X394124Y130286D01*
X394121Y130278D01*
X394120Y130277D01*
X394119Y130275D01*
X394114Y130268D01*
X394109Y130261D01*
X394108Y130260D01*
X394107Y130259D01*
X394099Y130253D01*
X394092Y130248D01*
X394091Y130247D01*
X394090Y130246D01*
X394082Y130243D01*
X394074Y130239D01*
X394072Y130239D01*
X394071Y130238D01*
X394062Y130237D01*
X394053Y130236D01*
X394006Y130234D01*
Y129921D01*
X394005Y129915D01*
X394005Y129909D01*
X394004Y129905D01*
X394004Y129901D01*
X394001Y129895D01*
X394000Y129889D01*
X393997Y129885D01*
X393996Y129882D01*
X393992Y129877D01*
X393989Y129871D01*
X393986Y129868D01*
X393983Y129865D01*
X393978Y129861D01*
X393974Y129857D01*
X393970Y129855D01*
X393967Y129852D01*
X393961Y129850D01*
X393955Y129847D01*
X393951Y129846D01*
X393947Y129845D01*
X393941Y129844D01*
X393935Y129842D01*
X393931Y129842D01*
X393927Y129842D01*
X393921Y129843D01*
X393915Y129843D01*
X393911Y129844D01*
X393906Y129845D01*
X393901Y129847D01*
X393895Y129849D01*
X393891Y129851D01*
X393887Y129852D01*
X393882Y129856D01*
X393877Y129859D01*
X393874Y129862D01*
X393871Y129865D01*
X393867Y129870D01*
X393863Y129875D01*
X393861Y129878D01*
X393858Y129882D01*
X393856Y129887D01*
X393853Y129893D01*
X393852Y129897D01*
X393850Y129901D01*
X393849Y129907D01*
X393848Y129913D01*
X393841Y129978D01*
X393824Y130027D01*
X393794Y130070D01*
X393751Y130109D01*
X393691Y130145D01*
X393639Y130166D01*
X393596Y130150D01*
X393515Y130113D01*
X393437Y130069D01*
X393363Y130018D01*
X393291Y129960D01*
X393221Y129893D01*
X393213Y129887D01*
X393206Y129882D01*
X393205Y129881D01*
X393204Y129880D01*
X393195Y129877D01*
X393187Y129874D01*
X393186Y129874D01*
X393184Y129873D01*
X393175Y129872D01*
X393166Y129871D01*
X393165Y129871D01*
X393164Y129871D01*
X393155Y129872D01*
X393146Y129874D01*
X393144Y129874D01*
X393144Y129874D01*
X393135Y129878D01*
X393126Y129881D01*
X393126Y129882D01*
X393125Y129883D01*
X393117Y129888D01*
X393110Y129894D01*
X393109Y129895D01*
X393108Y129896D01*
X393103Y129903D01*
X393097Y129911D01*
X393097Y129912D01*
X393096Y129912D01*
X393093Y129921D01*
X393089Y129930D01*
X393089Y129931D01*
X393089Y129932D01*
X393088Y129941D01*
X393087Y129950D01*
X393086Y130247D01*
X393086Y130247D01*
X393079Y130253D01*
X393071Y130259D01*
X393071Y130260D01*
X393070Y130260D01*
X393064Y130268D01*
X393059Y130275D01*
X393058Y130276D01*
X393058Y130277D01*
X393054Y130286D01*
X393051Y130294D01*
X393051Y130295D01*
X393050Y130296D01*
X393049Y130306D01*
X393048Y130315D01*
Y131102D01*
X393049Y131112D01*
X393050Y131121D01*
X393051Y131122D01*
X393051Y131123D01*
X393054Y131131D01*
X393058Y131140D01*
X393058Y131141D01*
X393059Y131142D01*
X393064Y131149D01*
X393070Y131157D01*
X393071Y131158D01*
X393071Y131158D01*
X393079Y131164D01*
X393085Y131169D01*
X393084Y131466D01*
X393085Y131475D01*
X393086Y131484D01*
X393087Y131485D01*
X393087Y131486D01*
X393090Y131495D01*
X393094Y131504D01*
X393094Y131505D01*
X393095Y131506D01*
X393100Y131513D01*
X393106Y131521D01*
X393107Y131521D01*
X393107Y131522D01*
X393115Y131528D01*
X393122Y131534D01*
X393123Y131534D01*
X393124Y131535D01*
X393132Y131538D01*
X393141Y131542D01*
X393142Y131542D01*
X393143Y131543D01*
X393152Y131544D01*
X393161Y131545D01*
X393162Y131545D01*
X393163Y131545D01*
X393173Y131544D01*
X393182Y131543D01*
X393183Y131543D01*
X393184Y131543D01*
X393193Y131539D01*
X393201Y131536D01*
X393202Y131535D01*
X393203Y131535D01*
X393211Y131529D01*
X393218Y131524D01*
X393289Y131457D01*
X393361Y131399D01*
X393436Y131348D01*
X393513Y131304D01*
X393594Y131267D01*
X393638Y131251D01*
X393691Y131272D01*
X393751Y131308D01*
X393794Y131348D01*
X393824Y131391D01*
X393841Y131439D01*
X393848Y131504D01*
X393849Y131510D01*
X393850Y131517D01*
X393852Y131520D01*
X393853Y131525D01*
X393856Y131530D01*
X393858Y131536D01*
X393861Y131539D01*
X393863Y131543D01*
X393867Y131547D01*
X393871Y131552D01*
X393874Y131555D01*
X393877Y131558D01*
X393882Y131561D01*
X393887Y131565D01*
X393891Y131567D01*
X393895Y131569D01*
X393901Y131570D01*
X393906Y131573D01*
X393911Y131573D01*
X393915Y131574D01*
X393921Y131575D01*
X393927Y131576D01*
X393931Y131575D01*
D02*
G37*
G36*
X343705D02*
X343710Y131575D01*
X343716Y131574D01*
X343722Y131573D01*
X343726Y131571D01*
X343730Y131570D01*
X343735Y131567D01*
X343741Y131565D01*
X343744Y131562D01*
X343748Y131560D01*
X343753Y131556D01*
X343757Y131552D01*
X343760Y131549D01*
X343763Y131546D01*
X343766Y131541D01*
X343770Y131536D01*
X343772Y131532D01*
X343774Y131528D01*
X343776Y131522D01*
X343778Y131517D01*
X343778Y131512D01*
X343780Y131508D01*
X343780Y131502D01*
X343781Y131496D01*
Y131183D01*
X343826Y131182D01*
X343835Y131180D01*
X343844Y131179D01*
X343845Y131178D01*
X343847Y131178D01*
X343855Y131175D01*
X343863Y131171D01*
X343864Y131170D01*
X343865Y131170D01*
X343872Y131164D01*
X343880Y131159D01*
X343880Y131157D01*
X343882Y131157D01*
X343887Y131149D01*
X343892Y131142D01*
X343893Y131141D01*
X343894Y131140D01*
X343897Y131131D01*
X343900Y131123D01*
X343900Y131122D01*
X343901Y131120D01*
X343902Y131111D01*
X343903Y131103D01*
X343904Y130315D01*
X343903Y130306D01*
X343902Y130297D01*
X343902Y130296D01*
X343901Y130295D01*
X343898Y130286D01*
X343895Y130278D01*
X343894Y130277D01*
X343894Y130275D01*
X343888Y130268D01*
X343883Y130261D01*
X343882Y130260D01*
X343881Y130259D01*
X343874Y130253D01*
X343867Y130248D01*
X343866Y130247D01*
X343865Y130246D01*
X343856Y130243D01*
X343848Y130239D01*
X343847Y130239D01*
X343845Y130238D01*
X343836Y130237D01*
X343828Y130236D01*
X343781Y130234D01*
Y129921D01*
X343780Y129915D01*
X343780Y129909D01*
X343778Y129905D01*
X343778Y129901D01*
X343776Y129895D01*
X343774Y129889D01*
X343772Y129885D01*
X343770Y129882D01*
X343766Y129877D01*
X343763Y129871D01*
X343760Y129868D01*
X343757Y129865D01*
X343752Y129861D01*
X343748Y129857D01*
X343744Y129855D01*
X343741Y129852D01*
X343735Y129850D01*
X343730Y129847D01*
X343726Y129846D01*
X343722Y129845D01*
X343716Y129844D01*
X343710Y129842D01*
X343705Y129842D01*
X343701Y129842D01*
X343695Y129843D01*
X343689Y129843D01*
X343685Y129844D01*
X343681Y129845D01*
X343675Y129847D01*
X343669Y129849D01*
X343665Y129851D01*
X343661Y129852D01*
X343657Y129856D01*
X343651Y129859D01*
X343648Y129862D01*
X343645Y129865D01*
X343641Y129870D01*
X343637Y129875D01*
X343635Y129878D01*
X343632Y129882D01*
X343630Y129887D01*
X343627Y129893D01*
X343626Y129897D01*
X343624Y129901D01*
X343624Y129907D01*
X343622Y129913D01*
X343615Y129978D01*
X343598Y130027D01*
X343569Y130070D01*
X343526Y130109D01*
X343466Y130145D01*
X343414Y130166D01*
X343370Y130150D01*
X343289Y130113D01*
X343212Y130069D01*
X343137Y130018D01*
X343066Y129960D01*
X342995Y129893D01*
X342988Y129887D01*
X342980Y129882D01*
X342979Y129881D01*
X342978Y129880D01*
X342970Y129877D01*
X342961Y129874D01*
X342960Y129874D01*
X342959Y129873D01*
X342950Y129872D01*
X342940Y129871D01*
X342939Y129871D01*
X342938Y129871D01*
X342929Y129872D01*
X342920Y129874D01*
X342919Y129874D01*
X342918Y129874D01*
X342909Y129878D01*
X342901Y129881D01*
X342900Y129882D01*
X342899Y129883D01*
X342892Y129888D01*
X342884Y129894D01*
X342884Y129895D01*
X342883Y129896D01*
X342878Y129903D01*
X342872Y129911D01*
X342871Y129912D01*
X342870Y129912D01*
X342867Y129921D01*
X342864Y129930D01*
X342863Y129931D01*
X342863Y129932D01*
X342862Y129941D01*
X342861Y129950D01*
X342860Y130247D01*
X342860Y130247D01*
X342853Y130253D01*
X342846Y130259D01*
X342845Y130260D01*
X342844Y130260D01*
X342839Y130268D01*
X342833Y130275D01*
X342833Y130276D01*
X342832Y130277D01*
X342829Y130286D01*
X342825Y130294D01*
X342825Y130295D01*
X342825Y130296D01*
X342824Y130306D01*
X342822Y130315D01*
Y131102D01*
X342824Y131112D01*
X342825Y131121D01*
X342825Y131122D01*
X342825Y131123D01*
X342829Y131131D01*
X342832Y131140D01*
X342833Y131141D01*
X342833Y131142D01*
X342839Y131149D01*
X342844Y131157D01*
X342845Y131158D01*
X342846Y131158D01*
X342853Y131164D01*
X342859Y131169D01*
X342859Y131466D01*
X342860Y131475D01*
X342861Y131484D01*
X342861Y131485D01*
X342861Y131486D01*
X342865Y131495D01*
X342868Y131504D01*
X342869Y131505D01*
X342869Y131506D01*
X342875Y131513D01*
X342880Y131521D01*
X342881Y131521D01*
X342882Y131522D01*
X342889Y131528D01*
X342896Y131534D01*
X342897Y131534D01*
X342898Y131535D01*
X342906Y131538D01*
X342915Y131542D01*
X342916Y131542D01*
X342917Y131543D01*
X342926Y131544D01*
X342936Y131545D01*
X342937Y131545D01*
X342938Y131545D01*
X342947Y131544D01*
X342956Y131543D01*
X342957Y131543D01*
X342958Y131543D01*
X342967Y131539D01*
X342976Y131536D01*
X342976Y131535D01*
X342977Y131535D01*
X342985Y131529D01*
X342992Y131524D01*
X343063Y131457D01*
X343135Y131399D01*
X343210Y131348D01*
X343287Y131304D01*
X343368Y131267D01*
X343413Y131251D01*
X343466Y131272D01*
X343526Y131308D01*
X343569Y131348D01*
X343598Y131391D01*
X343615Y131439D01*
X343622Y131504D01*
X343624Y131510D01*
X343624Y131517D01*
X343626Y131520D01*
X343627Y131525D01*
X343630Y131530D01*
X343632Y131536D01*
X343635Y131539D01*
X343637Y131543D01*
X343641Y131547D01*
X343645Y131552D01*
X343648Y131555D01*
X343651Y131558D01*
X343657Y131561D01*
X343661Y131565D01*
X343665Y131567D01*
X343669Y131569D01*
X343675Y131570D01*
X343681Y131573D01*
X343685Y131573D01*
X343689Y131574D01*
X343695Y131575D01*
X343701Y131576D01*
X343705Y131575D01*
D02*
G37*
G36*
X293632D02*
X293637Y131575D01*
X293643Y131574D01*
X293649Y131573D01*
X293653Y131571D01*
X293657Y131570D01*
X293662Y131567D01*
X293668Y131565D01*
X293671Y131562D01*
X293675Y131560D01*
X293679Y131556D01*
X293684Y131552D01*
X293687Y131549D01*
X293690Y131546D01*
X293693Y131541D01*
X293697Y131536D01*
X293699Y131532D01*
X293701Y131528D01*
X293703Y131522D01*
X293705Y131517D01*
X293706Y131512D01*
X293707Y131508D01*
X293707Y131502D01*
X293708Y131496D01*
Y131183D01*
X293753Y131182D01*
X293762Y131180D01*
X293771Y131179D01*
X293772Y131178D01*
X293774Y131178D01*
X293782Y131175D01*
X293790Y131171D01*
X293791Y131170D01*
X293793Y131170D01*
X293799Y131164D01*
X293807Y131159D01*
X293807Y131157D01*
X293809Y131157D01*
X293814Y131149D01*
X293819Y131142D01*
X293820Y131141D01*
X293821Y131140D01*
X293824Y131131D01*
X293827Y131123D01*
X293827Y131122D01*
X293828Y131120D01*
X293829Y131111D01*
X293830Y131103D01*
X293831Y130315D01*
X293830Y130306D01*
X293829Y130297D01*
X293829Y130296D01*
X293829Y130295D01*
X293825Y130286D01*
X293822Y130278D01*
X293821Y130277D01*
X293821Y130275D01*
X293815Y130268D01*
X293810Y130261D01*
X293809Y130260D01*
X293808Y130259D01*
X293801Y130253D01*
X293794Y130248D01*
X293793Y130247D01*
X293792Y130246D01*
X293783Y130243D01*
X293775Y130239D01*
X293774Y130239D01*
X293773Y130238D01*
X293763Y130237D01*
X293755Y130236D01*
X293708Y130234D01*
Y129921D01*
X293707Y129915D01*
X293707Y129909D01*
X293706Y129905D01*
X293705Y129901D01*
X293703Y129895D01*
X293701Y129889D01*
X293699Y129885D01*
X293697Y129882D01*
X293693Y129877D01*
X293690Y129871D01*
X293687Y129868D01*
X293684Y129865D01*
X293679Y129861D01*
X293675Y129857D01*
X293671Y129855D01*
X293668Y129852D01*
X293662Y129850D01*
X293657Y129847D01*
X293653Y129846D01*
X293649Y129845D01*
X293643Y129844D01*
X293637Y129842D01*
X293632Y129842D01*
X293628Y129842D01*
X293622Y129843D01*
X293616Y129843D01*
X293612Y129844D01*
X293608Y129845D01*
X293602Y129847D01*
X293596Y129849D01*
X293592Y129851D01*
X293588Y129852D01*
X293584Y129856D01*
X293578Y129859D01*
X293575Y129862D01*
X293572Y129865D01*
X293568Y129870D01*
X293564Y129875D01*
X293562Y129878D01*
X293559Y129882D01*
X293557Y129887D01*
X293554Y129893D01*
X293553Y129897D01*
X293551Y129901D01*
X293551Y129907D01*
X293549Y129913D01*
X293542Y129978D01*
X293525Y130027D01*
X293496Y130070D01*
X293453Y130109D01*
X293393Y130145D01*
X293341Y130166D01*
X293297Y130150D01*
X293216Y130113D01*
X293139Y130069D01*
X293064Y130018D01*
X292993Y129960D01*
X292922Y129893D01*
X292915Y129887D01*
X292907Y129882D01*
X292906Y129881D01*
X292905Y129880D01*
X292897Y129877D01*
X292888Y129874D01*
X292887Y129874D01*
X292886Y129873D01*
X292877Y129872D01*
X292867Y129871D01*
X292866Y129871D01*
X292865Y129871D01*
X292856Y129872D01*
X292847Y129874D01*
X292846Y129874D01*
X292845Y129874D01*
X292836Y129878D01*
X292828Y129881D01*
X292827Y129882D01*
X292826Y129883D01*
X292819Y129888D01*
X292811Y129894D01*
X292811Y129895D01*
X292810Y129896D01*
X292805Y129903D01*
X292799Y129911D01*
X292798Y129912D01*
X292798Y129912D01*
X292794Y129921D01*
X292791Y129930D01*
X292791Y129931D01*
X292790Y129932D01*
X292789Y129941D01*
X292788Y129950D01*
X292787Y130247D01*
X292787Y130247D01*
X292780Y130253D01*
X292773Y130259D01*
X292772Y130260D01*
X292771Y130260D01*
X292766Y130268D01*
X292760Y130275D01*
X292760Y130276D01*
X292759Y130277D01*
X292756Y130286D01*
X292752Y130294D01*
X292752Y130295D01*
X292752Y130296D01*
X292751Y130306D01*
X292749Y130315D01*
Y131102D01*
X292751Y131112D01*
X292752Y131121D01*
X292752Y131122D01*
X292752Y131123D01*
X292756Y131131D01*
X292759Y131140D01*
X292760Y131141D01*
X292760Y131142D01*
X292766Y131149D01*
X292771Y131157D01*
X292772Y131158D01*
X292773Y131158D01*
X292780Y131164D01*
X292786Y131169D01*
X292786Y131466D01*
X292787Y131475D01*
X292788Y131484D01*
X292788Y131485D01*
X292788Y131486D01*
X292792Y131495D01*
X292795Y131504D01*
X292796Y131505D01*
X292796Y131506D01*
X292802Y131513D01*
X292807Y131521D01*
X292808Y131521D01*
X292809Y131522D01*
X292816Y131528D01*
X292823Y131534D01*
X292824Y131534D01*
X292825Y131535D01*
X292833Y131538D01*
X292842Y131542D01*
X292843Y131542D01*
X292844Y131543D01*
X292853Y131544D01*
X292863Y131545D01*
X292864Y131545D01*
X292865Y131545D01*
X292874Y131544D01*
X292883Y131543D01*
X292884Y131543D01*
X292885Y131543D01*
X292894Y131539D01*
X292903Y131536D01*
X292903Y131535D01*
X292904Y131535D01*
X292912Y131529D01*
X292919Y131524D01*
X292990Y131457D01*
X293062Y131399D01*
X293137Y131348D01*
X293215Y131304D01*
X293295Y131267D01*
X293340Y131251D01*
X293393Y131272D01*
X293453Y131308D01*
X293496Y131348D01*
X293525Y131391D01*
X293542Y131439D01*
X293549Y131504D01*
X293551Y131510D01*
X293551Y131517D01*
X293553Y131520D01*
X293554Y131525D01*
X293557Y131530D01*
X293559Y131536D01*
X293562Y131539D01*
X293564Y131543D01*
X293568Y131547D01*
X293572Y131552D01*
X293575Y131555D01*
X293578Y131558D01*
X293584Y131561D01*
X293588Y131565D01*
X293592Y131567D01*
X293596Y131569D01*
X293602Y131570D01*
X293608Y131573D01*
X293612Y131573D01*
X293616Y131574D01*
X293622Y131575D01*
X293628Y131576D01*
X293632Y131575D01*
D02*
G37*
G36*
X243422D02*
X243426Y131575D01*
X243432Y131574D01*
X243438Y131573D01*
X243442Y131571D01*
X243446Y131570D01*
X243452Y131567D01*
X243457Y131565D01*
X243461Y131562D01*
X243464Y131560D01*
X243469Y131556D01*
X243474Y131552D01*
X243476Y131549D01*
X243479Y131546D01*
X243483Y131541D01*
X243486Y131536D01*
X243488Y131532D01*
X243490Y131528D01*
X243492Y131522D01*
X243494Y131517D01*
X243495Y131512D01*
X243496Y131508D01*
X243496Y131502D01*
X243497Y131496D01*
Y131183D01*
X243543Y131182D01*
X243551Y131180D01*
X243560Y131179D01*
X243562Y131178D01*
X243563Y131178D01*
X243571Y131175D01*
X243580Y131171D01*
X243581Y131170D01*
X243582Y131170D01*
X243589Y131164D01*
X243596Y131159D01*
X243597Y131157D01*
X243598Y131157D01*
X243603Y131149D01*
X243609Y131142D01*
X243609Y131141D01*
X243610Y131140D01*
X243613Y131131D01*
X243617Y131123D01*
X243617Y131122D01*
X243617Y131120D01*
X243618Y131111D01*
X243619Y131103D01*
X243621Y130315D01*
X243619Y130306D01*
X243619Y130297D01*
X243618Y130296D01*
X243618Y130295D01*
X243615Y130286D01*
X243611Y130278D01*
X243611Y130277D01*
X243610Y130275D01*
X243605Y130268D01*
X243599Y130261D01*
X243598Y130260D01*
X243598Y130259D01*
X243590Y130253D01*
X243583Y130248D01*
X243582Y130247D01*
X243581Y130246D01*
X243573Y130243D01*
X243565Y130239D01*
X243563Y130239D01*
X243562Y130238D01*
X243553Y130237D01*
X243544Y130236D01*
X243497Y130234D01*
Y129921D01*
X243496Y129915D01*
X243496Y129909D01*
X243495Y129905D01*
X243494Y129901D01*
X243492Y129895D01*
X243490Y129889D01*
X243488Y129885D01*
X243486Y129882D01*
X243483Y129877D01*
X243479Y129871D01*
X243476Y129868D01*
X243474Y129865D01*
X243469Y129861D01*
X243464Y129857D01*
X243461Y129855D01*
X243457Y129852D01*
X243452Y129850D01*
X243446Y129847D01*
X243442Y129846D01*
X243438Y129845D01*
X243432Y129844D01*
X243426Y129842D01*
X243422Y129842D01*
X243418Y129842D01*
X243412Y129843D01*
X243405Y129843D01*
X243401Y129844D01*
X243397Y129845D01*
X243391Y129847D01*
X243386Y129849D01*
X243382Y129851D01*
X243378Y129852D01*
X243373Y129856D01*
X243368Y129859D01*
X243365Y129862D01*
X243361Y129865D01*
X243358Y129870D01*
X243354Y129875D01*
X243352Y129878D01*
X243349Y129882D01*
X243347Y129887D01*
X243344Y129893D01*
X243343Y129897D01*
X243341Y129901D01*
X243340Y129907D01*
X243339Y129913D01*
X243332Y129978D01*
X243314Y130027D01*
X243285Y130070D01*
X243242Y130109D01*
X243182Y130145D01*
X243130Y130166D01*
X243086Y130150D01*
X243006Y130113D01*
X242928Y130069D01*
X242854Y130018D01*
X242782Y129960D01*
X242711Y129893D01*
X242704Y129887D01*
X242697Y129882D01*
X242696Y129881D01*
X242695Y129880D01*
X242686Y129877D01*
X242677Y129874D01*
X242676Y129874D01*
X242675Y129873D01*
X242666Y129872D01*
X242657Y129871D01*
X242656Y129871D01*
X242655Y129871D01*
X242646Y129872D01*
X242636Y129874D01*
X242635Y129874D01*
X242634Y129874D01*
X242626Y129878D01*
X242617Y129881D01*
X242616Y129882D01*
X242615Y129883D01*
X242608Y129888D01*
X242601Y129894D01*
X242600Y129895D01*
X242599Y129896D01*
X242594Y129903D01*
X242588Y129911D01*
X242588Y129912D01*
X242587Y129912D01*
X242584Y129921D01*
X242580Y129930D01*
X242580Y129931D01*
X242580Y129932D01*
X242579Y129941D01*
X242577Y129950D01*
X242577Y130247D01*
X242577Y130247D01*
X242569Y130253D01*
X242562Y130259D01*
X242562Y130260D01*
X242561Y130260D01*
X242555Y130268D01*
X242549Y130275D01*
X242549Y130276D01*
X242548Y130277D01*
X242545Y130286D01*
X242542Y130294D01*
X242542Y130295D01*
X242541Y130296D01*
X242540Y130306D01*
X242539Y130315D01*
Y131102D01*
X242540Y131112D01*
X242541Y131121D01*
X242542Y131122D01*
X242542Y131123D01*
X242545Y131131D01*
X242548Y131140D01*
X242549Y131141D01*
X242549Y131142D01*
X242555Y131149D01*
X242561Y131157D01*
X242562Y131158D01*
X242562Y131158D01*
X242569Y131164D01*
X242576Y131169D01*
X242575Y131466D01*
X242576Y131475D01*
X242577Y131484D01*
X242578Y131485D01*
X242578Y131486D01*
X242581Y131495D01*
X242584Y131504D01*
X242585Y131505D01*
X242586Y131506D01*
X242591Y131513D01*
X242597Y131521D01*
X242598Y131521D01*
X242598Y131522D01*
X242606Y131528D01*
X242613Y131534D01*
X242614Y131534D01*
X242615Y131535D01*
X242623Y131538D01*
X242632Y131542D01*
X242633Y131542D01*
X242634Y131543D01*
X242643Y131544D01*
X242652Y131545D01*
X242653Y131545D01*
X242654Y131545D01*
X242663Y131544D01*
X242673Y131543D01*
X242674Y131543D01*
X242675Y131543D01*
X242683Y131539D01*
X242692Y131536D01*
X242693Y131535D01*
X242694Y131535D01*
X242702Y131529D01*
X242709Y131524D01*
X242780Y131457D01*
X242852Y131399D01*
X242926Y131348D01*
X243004Y131304D01*
X243085Y131267D01*
X243129Y131251D01*
X243182Y131272D01*
X243242Y131308D01*
X243285Y131348D01*
X243314Y131391D01*
X243332Y131439D01*
X243339Y131504D01*
X243340Y131510D01*
X243341Y131517D01*
X243343Y131520D01*
X243344Y131525D01*
X243347Y131530D01*
X243349Y131536D01*
X243352Y131539D01*
X243354Y131543D01*
X243358Y131547D01*
X243361Y131552D01*
X243365Y131555D01*
X243368Y131558D01*
X243373Y131561D01*
X243378Y131565D01*
X243382Y131567D01*
X243386Y131569D01*
X243391Y131570D01*
X243397Y131573D01*
X243401Y131573D01*
X243405Y131574D01*
X243412Y131575D01*
X243418Y131576D01*
X243422Y131575D01*
D02*
G37*
G36*
X192225D02*
X192229Y131575D01*
X192235Y131574D01*
X192241Y131573D01*
X192245Y131571D01*
X192249Y131570D01*
X192255Y131567D01*
X192261Y131565D01*
X192264Y131562D01*
X192268Y131560D01*
X192272Y131556D01*
X192277Y131552D01*
X192280Y131549D01*
X192283Y131546D01*
X192286Y131541D01*
X192290Y131536D01*
X192291Y131532D01*
X192294Y131528D01*
X192295Y131522D01*
X192298Y131517D01*
X192298Y131512D01*
X192299Y131508D01*
X192299Y131502D01*
X192300Y131496D01*
Y131183D01*
X192346Y131182D01*
X192355Y131180D01*
X192364Y131179D01*
X192365Y131178D01*
X192366Y131178D01*
X192374Y131175D01*
X192383Y131171D01*
X192384Y131170D01*
X192385Y131170D01*
X192392Y131164D01*
X192399Y131159D01*
X192400Y131157D01*
X192401Y131157D01*
X192406Y131149D01*
X192412Y131142D01*
X192412Y131141D01*
X192413Y131140D01*
X192416Y131131D01*
X192420Y131123D01*
X192420Y131122D01*
X192420Y131120D01*
X192421Y131111D01*
X192422Y131103D01*
X192424Y130315D01*
X192423Y130306D01*
X192422Y130297D01*
X192421Y130296D01*
X192421Y130295D01*
X192418Y130286D01*
X192415Y130278D01*
X192414Y130277D01*
X192413Y130275D01*
X192408Y130268D01*
X192403Y130261D01*
X192402Y130260D01*
X192401Y130259D01*
X192394Y130253D01*
X192386Y130248D01*
X192385Y130247D01*
X192384Y130246D01*
X192376Y130243D01*
X192368Y130239D01*
X192366Y130239D01*
X192365Y130238D01*
X192356Y130237D01*
X192347Y130236D01*
X192300Y130234D01*
Y129921D01*
X192299Y129915D01*
X192299Y129909D01*
X192298Y129905D01*
X192298Y129901D01*
X192295Y129895D01*
X192294Y129889D01*
X192291Y129885D01*
X192290Y129882D01*
X192286Y129877D01*
X192283Y129871D01*
X192280Y129868D01*
X192277Y129865D01*
X192272Y129861D01*
X192268Y129857D01*
X192264Y129855D01*
X192261Y129852D01*
X192255Y129850D01*
X192249Y129847D01*
X192245Y129846D01*
X192241Y129845D01*
X192235Y129844D01*
X192229Y129842D01*
X192225Y129842D01*
X192221Y129842D01*
X192215Y129843D01*
X192209Y129843D01*
X192204Y129844D01*
X192200Y129845D01*
X192195Y129847D01*
X192189Y129849D01*
X192185Y129851D01*
X192181Y129852D01*
X192176Y129856D01*
X192171Y129859D01*
X192168Y129862D01*
X192165Y129865D01*
X192161Y129870D01*
X192157Y129875D01*
X192155Y129878D01*
X192152Y129882D01*
X192150Y129887D01*
X192147Y129893D01*
X192146Y129897D01*
X192144Y129901D01*
X192143Y129907D01*
X192142Y129913D01*
X192135Y129978D01*
X192118Y130027D01*
X192088Y130070D01*
X192045Y130109D01*
X191985Y130145D01*
X191933Y130166D01*
X191890Y130150D01*
X191809Y130113D01*
X191731Y130069D01*
X191657Y130018D01*
X191585Y129960D01*
X191515Y129893D01*
X191507Y129887D01*
X191500Y129882D01*
X191499Y129881D01*
X191498Y129880D01*
X191489Y129877D01*
X191481Y129874D01*
X191480Y129874D01*
X191479Y129873D01*
X191469Y129872D01*
X191460Y129871D01*
X191459Y129871D01*
X191458Y129871D01*
X191449Y129872D01*
X191440Y129874D01*
X191438Y129874D01*
X191437Y129874D01*
X191429Y129878D01*
X191420Y129881D01*
X191419Y129882D01*
X191419Y129883D01*
X191411Y129888D01*
X191404Y129894D01*
X191403Y129895D01*
X191402Y129896D01*
X191397Y129903D01*
X191391Y129911D01*
X191391Y129912D01*
X191390Y129912D01*
X191387Y129921D01*
X191383Y129930D01*
X191383Y129931D01*
X191383Y129932D01*
X191382Y129941D01*
X191381Y129950D01*
X191380Y130247D01*
X191380Y130247D01*
X191373Y130253D01*
X191365Y130259D01*
X191365Y130260D01*
X191364Y130260D01*
X191358Y130268D01*
X191353Y130275D01*
X191352Y130276D01*
X191352Y130277D01*
X191348Y130286D01*
X191345Y130294D01*
X191345Y130295D01*
X191344Y130296D01*
X191343Y130306D01*
X191342Y130315D01*
Y131102D01*
X191343Y131112D01*
X191344Y131121D01*
X191345Y131122D01*
X191345Y131123D01*
X191348Y131131D01*
X191352Y131140D01*
X191352Y131141D01*
X191353Y131142D01*
X191358Y131149D01*
X191364Y131157D01*
X191365Y131158D01*
X191365Y131158D01*
X191373Y131164D01*
X191379Y131169D01*
X191378Y131466D01*
X191379Y131475D01*
X191380Y131484D01*
X191381Y131485D01*
X191381Y131486D01*
X191384Y131495D01*
X191388Y131504D01*
X191388Y131505D01*
X191389Y131506D01*
X191394Y131513D01*
X191400Y131521D01*
X191401Y131521D01*
X191401Y131522D01*
X191409Y131528D01*
X191416Y131534D01*
X191417Y131534D01*
X191418Y131535D01*
X191426Y131538D01*
X191435Y131542D01*
X191436Y131542D01*
X191437Y131543D01*
X191446Y131544D01*
X191455Y131545D01*
X191456Y131545D01*
X191457Y131545D01*
X191466Y131544D01*
X191476Y131543D01*
X191477Y131543D01*
X191478Y131543D01*
X191487Y131539D01*
X191495Y131536D01*
X191496Y131535D01*
X191497Y131535D01*
X191505Y131529D01*
X191512Y131524D01*
X191583Y131457D01*
X191655Y131399D01*
X191729Y131348D01*
X191807Y131304D01*
X191888Y131267D01*
X191932Y131251D01*
X191985Y131272D01*
X192045Y131308D01*
X192088Y131348D01*
X192118Y131391D01*
X192135Y131439D01*
X192142Y131504D01*
X192143Y131510D01*
X192144Y131517D01*
X192146Y131520D01*
X192147Y131525D01*
X192150Y131530D01*
X192152Y131536D01*
X192155Y131539D01*
X192157Y131543D01*
X192161Y131547D01*
X192165Y131552D01*
X192168Y131555D01*
X192171Y131558D01*
X192176Y131561D01*
X192181Y131565D01*
X192185Y131567D01*
X192189Y131569D01*
X192195Y131570D01*
X192200Y131573D01*
X192204Y131573D01*
X192209Y131574D01*
X192215Y131575D01*
X192221Y131576D01*
X192225Y131575D01*
D02*
G37*
G36*
X142843D02*
X142847Y131575D01*
X142853Y131574D01*
X142859Y131573D01*
X142863Y131571D01*
X142868Y131570D01*
X142873Y131567D01*
X142879Y131565D01*
X142882Y131562D01*
X142886Y131560D01*
X142890Y131556D01*
X142895Y131552D01*
X142898Y131549D01*
X142901Y131546D01*
X142904Y131541D01*
X142908Y131536D01*
X142909Y131532D01*
X142912Y131528D01*
X142913Y131522D01*
X142916Y131517D01*
X142916Y131512D01*
X142917Y131508D01*
X142918Y131502D01*
X142918Y131496D01*
Y131183D01*
X142964Y131182D01*
X142973Y131180D01*
X142982Y131179D01*
X142983Y131178D01*
X142984Y131178D01*
X142992Y131175D01*
X143001Y131171D01*
X143002Y131170D01*
X143003Y131170D01*
X143010Y131164D01*
X143017Y131159D01*
X143018Y131157D01*
X143019Y131157D01*
X143024Y131149D01*
X143030Y131142D01*
X143031Y131141D01*
X143031Y131140D01*
X143034Y131131D01*
X143038Y131123D01*
X143038Y131122D01*
X143039Y131120D01*
X143039Y131111D01*
X143041Y131103D01*
X143042Y130315D01*
X143041Y130306D01*
X143040Y130297D01*
X143040Y130296D01*
X143039Y130295D01*
X143036Y130286D01*
X143033Y130278D01*
X143032Y130277D01*
X143031Y130275D01*
X143026Y130268D01*
X143021Y130261D01*
X143020Y130260D01*
X143019Y130259D01*
X143012Y130253D01*
X143005Y130248D01*
X143003Y130247D01*
X143002Y130246D01*
X142994Y130243D01*
X142986Y130239D01*
X142984Y130239D01*
X142983Y130238D01*
X142974Y130237D01*
X142965Y130236D01*
X142918Y130234D01*
Y129921D01*
X142918Y129915D01*
X142917Y129909D01*
X142916Y129905D01*
X142916Y129901D01*
X142913Y129895D01*
X142912Y129889D01*
X142909Y129885D01*
X142908Y129882D01*
X142904Y129877D01*
X142901Y129871D01*
X142898Y129868D01*
X142895Y129865D01*
X142890Y129861D01*
X142886Y129857D01*
X142882Y129855D01*
X142879Y129852D01*
X142873Y129850D01*
X142868Y129847D01*
X142863Y129846D01*
X142859Y129845D01*
X142853Y129844D01*
X142847Y129842D01*
X142843Y129842D01*
X142839Y129842D01*
X142833Y129843D01*
X142827Y129843D01*
X142823Y129844D01*
X142818Y129845D01*
X142813Y129847D01*
X142807Y129849D01*
X142803Y129851D01*
X142799Y129852D01*
X142794Y129856D01*
X142789Y129859D01*
X142786Y129862D01*
X142783Y129865D01*
X142779Y129870D01*
X142775Y129875D01*
X142773Y129878D01*
X142770Y129882D01*
X142768Y129887D01*
X142765Y129893D01*
X142764Y129897D01*
X142762Y129901D01*
X142761Y129907D01*
X142760Y129913D01*
X142753Y129978D01*
X142736Y130027D01*
X142707Y130070D01*
X142663Y130109D01*
X142604Y130145D01*
X142551Y130166D01*
X142508Y130150D01*
X142427Y130113D01*
X142350Y130069D01*
X142275Y130018D01*
X142203Y129960D01*
X142133Y129893D01*
X142125Y129887D01*
X142118Y129882D01*
X142117Y129881D01*
X142116Y129880D01*
X142107Y129877D01*
X142099Y129874D01*
X142098Y129874D01*
X142097Y129873D01*
X142087Y129872D01*
X142078Y129871D01*
X142077Y129871D01*
X142076Y129871D01*
X142067Y129872D01*
X142058Y129874D01*
X142057Y129874D01*
X142056Y129874D01*
X142047Y129878D01*
X142039Y129881D01*
X142038Y129882D01*
X142037Y129883D01*
X142030Y129888D01*
X142022Y129894D01*
X142021Y129895D01*
X142020Y129896D01*
X142015Y129903D01*
X142009Y129911D01*
X142009Y129912D01*
X142008Y129912D01*
X142005Y129921D01*
X142001Y129930D01*
X142001Y129931D01*
X142001Y129932D01*
X142000Y129941D01*
X141999Y129950D01*
X141998Y130247D01*
X141998Y130247D01*
X141991Y130253D01*
X141983Y130259D01*
X141983Y130260D01*
X141982Y130260D01*
X141976Y130268D01*
X141971Y130275D01*
X141970Y130276D01*
X141970Y130277D01*
X141966Y130286D01*
X141963Y130294D01*
X141963Y130295D01*
X141962Y130296D01*
X141961Y130306D01*
X141960Y130315D01*
Y131102D01*
X141961Y131112D01*
X141962Y131121D01*
X141963Y131122D01*
X141963Y131123D01*
X141966Y131131D01*
X141970Y131140D01*
X141970Y131141D01*
X141971Y131142D01*
X141976Y131149D01*
X141982Y131157D01*
X141983Y131158D01*
X141983Y131158D01*
X141991Y131164D01*
X141997Y131169D01*
X141996Y131466D01*
X141997Y131475D01*
X141998Y131484D01*
X141999Y131485D01*
X141999Y131486D01*
X142002Y131495D01*
X142006Y131504D01*
X142006Y131505D01*
X142007Y131506D01*
X142013Y131513D01*
X142018Y131521D01*
X142019Y131521D01*
X142019Y131522D01*
X142027Y131528D01*
X142034Y131534D01*
X142035Y131534D01*
X142036Y131535D01*
X142044Y131538D01*
X142053Y131542D01*
X142054Y131542D01*
X142055Y131543D01*
X142064Y131544D01*
X142073Y131545D01*
X142075Y131545D01*
X142076Y131545D01*
X142085Y131544D01*
X142094Y131543D01*
X142095Y131543D01*
X142096Y131543D01*
X142105Y131539D01*
X142113Y131536D01*
X142114Y131535D01*
X142115Y131535D01*
X142123Y131529D01*
X142130Y131524D01*
X142201Y131457D01*
X142273Y131399D01*
X142348Y131348D01*
X142425Y131304D01*
X142506Y131267D01*
X142551Y131251D01*
X142604Y131272D01*
X142663Y131308D01*
X142707Y131348D01*
X142736Y131391D01*
X142753Y131439D01*
X142760Y131504D01*
X142761Y131510D01*
X142762Y131517D01*
X142764Y131520D01*
X142765Y131525D01*
X142768Y131530D01*
X142770Y131536D01*
X142773Y131539D01*
X142775Y131543D01*
X142779Y131547D01*
X142783Y131552D01*
X142786Y131555D01*
X142789Y131558D01*
X142794Y131561D01*
X142799Y131565D01*
X142803Y131567D01*
X142807Y131569D01*
X142813Y131570D01*
X142818Y131573D01*
X142823Y131573D01*
X142827Y131574D01*
X142833Y131575D01*
X142839Y131576D01*
X142843Y131575D01*
D02*
G37*
%LPC*%
G36*
X424400Y302775D02*
X422826D01*
Y301200D01*
X424400D01*
Y302775D01*
D02*
G37*
G36*
X421300D02*
X419726D01*
Y301200D01*
X421300D01*
Y302775D01*
D02*
G37*
G36*
X424400Y299675D02*
X422826D01*
Y298100D01*
X424400D01*
Y299675D01*
D02*
G37*
G36*
X421300D02*
X419726D01*
Y298100D01*
X421300D01*
Y299675D01*
D02*
G37*
G36*
X499444Y207578D02*
X497869D01*
Y206003D01*
X499444D01*
Y207578D01*
D02*
G37*
G36*
X496344D02*
X494769D01*
Y206003D01*
X496344D01*
Y207578D01*
D02*
G37*
G36*
X499444Y204478D02*
X497869D01*
Y202903D01*
X499444D01*
Y204478D01*
D02*
G37*
G36*
X496344D02*
X494769D01*
Y202903D01*
X496344D01*
Y204478D01*
D02*
G37*
G36*
X448692Y207578D02*
X447117D01*
Y206003D01*
X448692D01*
Y207578D01*
D02*
G37*
G36*
X445592D02*
X444017D01*
Y206003D01*
X445592D01*
Y207578D01*
D02*
G37*
G36*
X448692Y204478D02*
X447117D01*
Y202903D01*
X448692D01*
Y204478D01*
D02*
G37*
G36*
X445592D02*
X444017D01*
Y202903D01*
X445592D01*
Y204478D01*
D02*
G37*
G36*
X399211Y207578D02*
X397637D01*
Y206003D01*
X399211D01*
Y207578D01*
D02*
G37*
G36*
X396111D02*
X394537D01*
Y206003D01*
X396111D01*
Y207578D01*
D02*
G37*
G36*
X399211Y204478D02*
X397637D01*
Y202903D01*
X399211D01*
Y204478D01*
D02*
G37*
G36*
X396111D02*
X394537D01*
Y202903D01*
X396111D01*
Y204478D01*
D02*
G37*
G36*
X348904Y207578D02*
X347329D01*
Y206003D01*
X348904D01*
Y207578D01*
D02*
G37*
G36*
X345804D02*
X344230D01*
Y206003D01*
X345804D01*
Y207578D01*
D02*
G37*
G36*
X348904Y204478D02*
X347329D01*
Y202903D01*
X348904D01*
Y204478D01*
D02*
G37*
G36*
X345804D02*
X344230D01*
Y202903D01*
X345804D01*
Y204478D01*
D02*
G37*
G36*
X298814Y207578D02*
X297239D01*
Y206003D01*
X298814D01*
Y207578D01*
D02*
G37*
G36*
X295714D02*
X294139D01*
Y206003D01*
X295714D01*
Y207578D01*
D02*
G37*
G36*
X298814Y204478D02*
X297239D01*
Y202903D01*
X298814D01*
Y204478D01*
D02*
G37*
G36*
X295714D02*
X294139D01*
Y202903D01*
X295714D01*
Y204478D01*
D02*
G37*
G36*
X248798Y207578D02*
X247223D01*
Y206003D01*
X248798D01*
Y207578D01*
D02*
G37*
G36*
X245698D02*
X244123D01*
Y206003D01*
X245698D01*
Y207578D01*
D02*
G37*
G36*
X248798Y204478D02*
X247223D01*
Y202903D01*
X248798D01*
Y204478D01*
D02*
G37*
G36*
X245698D02*
X244123D01*
Y202903D01*
X245698D01*
Y204478D01*
D02*
G37*
G36*
X197853Y207578D02*
X196278D01*
Y206003D01*
X197853D01*
Y207578D01*
D02*
G37*
G36*
X194753D02*
X193178D01*
Y206003D01*
X194753D01*
Y207578D01*
D02*
G37*
G36*
X197853Y204478D02*
X196278D01*
Y202903D01*
X197853D01*
Y204478D01*
D02*
G37*
G36*
X194753D02*
X193178D01*
Y202903D01*
X194753D01*
Y204478D01*
D02*
G37*
G36*
X147978Y207578D02*
X146403D01*
Y206003D01*
X147978D01*
Y207578D01*
D02*
G37*
G36*
X144878D02*
X143303D01*
Y206003D01*
X144878D01*
Y207578D01*
D02*
G37*
G36*
X147978Y204478D02*
X146403D01*
Y202903D01*
X147978D01*
Y204478D01*
D02*
G37*
G36*
X144878D02*
X143303D01*
Y202903D01*
X144878D01*
Y204478D01*
D02*
G37*
%LPD*%
D25*
X20940Y240673D02*
X21708Y241441D01*
Y242309D01*
X36472Y241290D02*
X36801Y240961D01*
X36472Y241290D02*
Y242309D01*
X20940Y239432D02*
Y240673D01*
X36801Y239666D02*
Y240961D01*
D44*
X769300Y771762D02*
D03*
Y767038D02*
D03*
X327304Y762469D02*
D03*
Y767194D02*
D03*
X279128Y762645D02*
D03*
Y767370D02*
D03*
X823270Y717354D02*
D03*
Y712630D02*
D03*
X487448Y639701D02*
D03*
X487449Y644425D02*
D03*
X506182Y639701D02*
D03*
Y644425D02*
D03*
X984112Y755538D02*
D03*
Y750814D02*
D03*
D45*
X760882Y743808D02*
D03*
D46*
X758323Y743119D02*
D03*
Y744497D02*
D03*
D47*
X766397Y752560D02*
D03*
Y756300D02*
D03*
Y760040D02*
D03*
X777147D02*
D03*
Y756300D02*
D03*
Y752560D02*
D03*
D50*
X699724Y765138D02*
D03*
Y797815D02*
D03*
X753858D02*
D03*
Y765138D02*
D03*
D51*
X739409Y775374D02*
D03*
X735079D02*
D03*
X730748D02*
D03*
X726417D02*
D03*
X722087D02*
D03*
X717756D02*
D03*
X713425D02*
D03*
X709094D02*
D03*
D53*
X598577Y733112D02*
D03*
X597396Y700812D02*
D03*
X596215Y733112D02*
D03*
X595034Y700812D02*
D03*
X593853Y733112D02*
D03*
X592672Y700812D02*
D03*
X591491Y733112D02*
D03*
X590310Y700812D02*
D03*
X589129Y733112D02*
D03*
X587948Y700812D02*
D03*
X586767Y733112D02*
D03*
X585586Y700812D02*
D03*
X584405Y733112D02*
D03*
X583224Y700812D02*
D03*
X582043Y733112D02*
D03*
X580862Y700812D02*
D03*
X579681Y733112D02*
D03*
X578500Y700812D02*
D03*
X577319Y733112D02*
D03*
X576138Y700812D02*
D03*
X574957Y733112D02*
D03*
X573776Y700812D02*
D03*
X572595Y733112D02*
D03*
X571414Y700812D02*
D03*
X570233Y733112D02*
D03*
X569052Y700812D02*
D03*
X567871Y733112D02*
D03*
X566690Y700812D02*
D03*
X565509Y733112D02*
D03*
X564328Y700812D02*
D03*
X563147Y733112D02*
D03*
X561966Y700812D02*
D03*
X560785Y733112D02*
D03*
X559604Y700812D02*
D03*
X558423Y733112D02*
D03*
X557242Y700812D02*
D03*
X556061Y733112D02*
D03*
X554880Y700812D02*
D03*
X553699Y733112D02*
D03*
X552518Y700812D02*
D03*
X551337Y733112D02*
D03*
X550156Y700812D02*
D03*
X548975Y733112D02*
D03*
X547794Y700812D02*
D03*
X546613Y733112D02*
D03*
X545432Y700812D02*
D03*
X544251Y733112D02*
D03*
X543070Y700812D02*
D03*
X541889Y733112D02*
D03*
X540708Y700812D02*
D03*
X539527Y733112D02*
D03*
X538346Y700812D02*
D03*
X537165Y733112D02*
D03*
X535984Y700812D02*
D03*
X534803Y733112D02*
D03*
X533622Y700812D02*
D03*
X532441Y733112D02*
D03*
X531260Y700812D02*
D03*
X530079Y733112D02*
D03*
X528898Y700812D02*
D03*
X527717Y733112D02*
D03*
X526536Y700812D02*
D03*
X525355Y733112D02*
D03*
X524174Y700812D02*
D03*
X522993Y733112D02*
D03*
X521812Y700812D02*
D03*
X520631Y733112D02*
D03*
X519450Y700812D02*
D03*
X518269Y733112D02*
D03*
X517088Y700812D02*
D03*
X515907Y733112D02*
D03*
X514726Y700812D02*
D03*
X513545Y733112D02*
D03*
X512364Y700812D02*
D03*
X511183Y733112D02*
D03*
X510002Y700812D02*
D03*
X508821Y733112D02*
D03*
X507640Y700812D02*
D03*
X506459Y733112D02*
D03*
X505278Y700812D02*
D03*
X504097Y733112D02*
D03*
X502916Y700812D02*
D03*
X501735Y733112D02*
D03*
X500554Y700812D02*
D03*
X499373Y733112D02*
D03*
X498192Y700812D02*
D03*
X497011Y733112D02*
D03*
X495830Y700812D02*
D03*
X494649Y733112D02*
D03*
X493468Y700812D02*
D03*
X492287Y733112D02*
D03*
X491106Y700812D02*
D03*
X489925Y733112D02*
D03*
X488744Y700812D02*
D03*
X487563Y733112D02*
D03*
X486382Y700812D02*
D03*
X485201Y733112D02*
D03*
X484020Y700812D02*
D03*
X482839Y733112D02*
D03*
X481658Y700812D02*
D03*
X480477Y733112D02*
D03*
X479296Y700812D02*
D03*
X478115Y733112D02*
D03*
X476934Y700812D02*
D03*
X475753Y733112D02*
D03*
X474572Y700812D02*
D03*
X473391Y733112D02*
D03*
X472210Y700812D02*
D03*
X471029Y733112D02*
D03*
X469848Y700812D02*
D03*
X468667Y733112D02*
D03*
X467486Y700812D02*
D03*
X466305Y733112D02*
D03*
X465124Y700812D02*
D03*
X463943Y733112D02*
D03*
X462762Y700812D02*
D03*
X461581Y733112D02*
D03*
X460400Y700812D02*
D03*
X459219Y733112D02*
D03*
X458038Y700812D02*
D03*
X456857Y733112D02*
D03*
X455676Y700812D02*
D03*
X454495Y733112D02*
D03*
X453314Y700812D02*
D03*
X452133Y733112D02*
D03*
X450952Y700812D02*
D03*
X449771Y733112D02*
D03*
X448590Y700812D02*
D03*
X447409Y733112D02*
D03*
X446228Y700812D02*
D03*
X445047Y733112D02*
D03*
X443866Y700812D02*
D03*
X442685Y733112D02*
D03*
X441504Y700812D02*
D03*
X440323Y733112D02*
D03*
X439142Y700812D02*
D03*
X437961Y733112D02*
D03*
X436780Y700812D02*
D03*
X435599Y733112D02*
D03*
X434418Y700812D02*
D03*
X433237Y733112D02*
D03*
X432056Y700812D02*
D03*
X430875Y733112D02*
D03*
X429694Y700812D02*
D03*
X428513Y733112D02*
D03*
X427332Y700812D02*
D03*
X426151Y733112D02*
D03*
X424970Y700812D02*
D03*
X423789Y733112D02*
D03*
X422608Y700812D02*
D03*
X421427Y733112D02*
D03*
X420246Y700812D02*
D03*
X419065Y733112D02*
D03*
X417884Y700812D02*
D03*
X416703Y733112D02*
D03*
X415522Y700812D02*
D03*
X414341Y733112D02*
D03*
X413160Y700812D02*
D03*
X411979Y733112D02*
D03*
X410798Y700812D02*
D03*
X395444Y733112D02*
D03*
X394263Y700812D02*
D03*
X393082Y733112D02*
D03*
X391901Y700812D02*
D03*
X390720Y733112D02*
D03*
X389539Y700812D02*
D03*
X388358Y733112D02*
D03*
X387177Y700812D02*
D03*
X385996Y733112D02*
D03*
X384815Y700812D02*
D03*
X383634Y733112D02*
D03*
X382453Y700812D02*
D03*
X381272Y733112D02*
D03*
X380091Y700812D02*
D03*
X378910Y733112D02*
D03*
X377729Y700812D02*
D03*
X376548Y733112D02*
D03*
X375367Y700812D02*
D03*
X374186Y733112D02*
D03*
X373005Y700812D02*
D03*
X371824Y733112D02*
D03*
X370643Y700812D02*
D03*
X369462Y733112D02*
D03*
X368281Y700812D02*
D03*
X367100Y733112D02*
D03*
X365919Y700812D02*
D03*
X364738Y733112D02*
D03*
X363557Y700812D02*
D03*
X362376Y733112D02*
D03*
X361195Y700812D02*
D03*
X360014Y733112D02*
D03*
X358833Y700812D02*
D03*
X357652Y733112D02*
D03*
X356471Y700812D02*
D03*
X355290Y733112D02*
D03*
X354109Y700812D02*
D03*
X352928Y733112D02*
D03*
X351747Y700812D02*
D03*
X350566Y733112D02*
D03*
X349385Y700812D02*
D03*
D60*
X202550Y752568D02*
D03*
Y750600D02*
D03*
Y748631D02*
D03*
X209050D02*
D03*
Y750600D02*
D03*
Y752568D02*
D03*
X1097274Y754370D02*
D03*
Y752402D02*
D03*
Y750433D02*
D03*
X1103774D02*
D03*
Y752402D02*
D03*
Y754370D02*
D03*
D61*
X522432Y111876D02*
D03*
X488968D02*
D03*
X471732D02*
D03*
X438268D02*
D03*
X422232D02*
D03*
X388768D02*
D03*
X371832D02*
D03*
X338368D02*
D03*
X321932D02*
D03*
X288468D02*
D03*
X271732D02*
D03*
X238268D02*
D03*
X220732D02*
D03*
X187268D02*
D03*
X171248D02*
D03*
X137784D02*
D03*
D62*
X505700Y111286D02*
D03*
X455000D02*
D03*
X405500D02*
D03*
X355100D02*
D03*
X305200D02*
D03*
X255000D02*
D03*
X204000D02*
D03*
X154516D02*
D03*
D64*
X921800Y701800D02*
D03*
X925540Y693800D02*
D03*
X918060D02*
D03*
D66*
X896882Y819983D02*
D03*
X899441D02*
D03*
X902000D02*
D03*
X904559D02*
D03*
X907118D02*
D03*
D68*
X287167Y355976D02*
D03*
Y352827D02*
D03*
D75*
X486146Y203417D02*
D03*
D80*
X445913Y506464D02*
D03*
Y510007D02*
D03*
Y515834D02*
D03*
Y519377D02*
D03*
Y525294D02*
D03*
Y528838D02*
D03*
D85*
X1087201Y732492D02*
D03*
X1100783D02*
D03*
X1087201Y642134D02*
D03*
X1100784D02*
D03*
D90*
X453465Y309113D02*
D03*
Y306554D02*
D03*
Y303995D02*
D03*
Y301436D02*
D03*
X468050D02*
D03*
Y303995D02*
D03*
Y306554D02*
D03*
Y309113D02*
D03*
X193101Y170307D02*
D03*
Y167748D02*
D03*
Y165189D02*
D03*
Y162630D02*
D03*
X207687D02*
D03*
Y165189D02*
D03*
Y167748D02*
D03*
Y170307D02*
D03*
X344046D02*
D03*
Y167748D02*
D03*
Y165189D02*
D03*
Y162630D02*
D03*
X358632D02*
D03*
Y165189D02*
D03*
Y167748D02*
D03*
Y170307D02*
D03*
X394417D02*
D03*
Y167748D02*
D03*
Y165189D02*
D03*
Y162630D02*
D03*
X409003D02*
D03*
Y165189D02*
D03*
Y167748D02*
D03*
Y170307D02*
D03*
X443868D02*
D03*
Y167748D02*
D03*
Y165189D02*
D03*
Y162630D02*
D03*
X458454D02*
D03*
Y165189D02*
D03*
Y167748D02*
D03*
Y170307D02*
D03*
X494621D02*
D03*
Y167748D02*
D03*
Y165189D02*
D03*
Y162630D02*
D03*
X509207D02*
D03*
Y165189D02*
D03*
Y167748D02*
D03*
Y170307D02*
D03*
X244065D02*
D03*
Y167748D02*
D03*
Y165189D02*
D03*
Y162630D02*
D03*
X258651D02*
D03*
Y165189D02*
D03*
Y167748D02*
D03*
Y170307D02*
D03*
X294061D02*
D03*
Y167748D02*
D03*
Y165189D02*
D03*
Y162630D02*
D03*
X308647D02*
D03*
Y165189D02*
D03*
Y167748D02*
D03*
Y170307D02*
D03*
X143231D02*
D03*
Y167748D02*
D03*
Y165189D02*
D03*
Y162630D02*
D03*
X157817D02*
D03*
Y165189D02*
D03*
Y167748D02*
D03*
Y170307D02*
D03*
D91*
X456919Y297982D02*
D03*
X459478D02*
D03*
X462037D02*
D03*
X464596D02*
D03*
Y312567D02*
D03*
X462037D02*
D03*
X459478D02*
D03*
X456919D02*
D03*
X204232Y173761D02*
D03*
X201673D02*
D03*
X199114D02*
D03*
X196555D02*
D03*
Y159176D02*
D03*
X199114D02*
D03*
X201673D02*
D03*
X204232D02*
D03*
X355178Y173761D02*
D03*
X352619D02*
D03*
X350060D02*
D03*
X347501D02*
D03*
Y159176D02*
D03*
X350060D02*
D03*
X352619D02*
D03*
X355178D02*
D03*
X405548Y173761D02*
D03*
X402989D02*
D03*
X400430D02*
D03*
X397871D02*
D03*
Y159176D02*
D03*
X400430D02*
D03*
X402989D02*
D03*
X405548D02*
D03*
X455000Y173761D02*
D03*
X452441D02*
D03*
X449882D02*
D03*
X447323D02*
D03*
Y159176D02*
D03*
X449882D02*
D03*
X452441D02*
D03*
X455000D02*
D03*
X505753Y173761D02*
D03*
X503194D02*
D03*
X500634D02*
D03*
X498075D02*
D03*
Y159176D02*
D03*
X500634D02*
D03*
X503194D02*
D03*
X505753D02*
D03*
X255197Y173761D02*
D03*
X252638D02*
D03*
X250079D02*
D03*
X247520D02*
D03*
Y159176D02*
D03*
X250079D02*
D03*
X252638D02*
D03*
X255197D02*
D03*
X305193Y173761D02*
D03*
X302634D02*
D03*
X300075D02*
D03*
X297516D02*
D03*
Y159176D02*
D03*
X300075D02*
D03*
X302634D02*
D03*
X305193D02*
D03*
X154362Y173761D02*
D03*
X151803D02*
D03*
X149244D02*
D03*
X146685D02*
D03*
Y159176D02*
D03*
X149244D02*
D03*
X151803D02*
D03*
X154362D02*
D03*
D96*
X95079Y245299D02*
D03*
X91535D02*
D03*
X86008D02*
D03*
X82465D02*
D03*
X76345D02*
D03*
X72801D02*
D03*
X95079Y321402D02*
D03*
X91535D02*
D03*
X86008D02*
D03*
X82465D02*
D03*
X76345D02*
D03*
X72801D02*
D03*
X95079Y263409D02*
D03*
X91535D02*
D03*
X86008D02*
D03*
X82465D02*
D03*
X76345D02*
D03*
X72801D02*
D03*
X95079Y227976D02*
D03*
X91535D02*
D03*
X86008D02*
D03*
X82465D02*
D03*
X76345D02*
D03*
X72801D02*
D03*
X95079Y302780D02*
D03*
X91535D02*
D03*
X86008D02*
D03*
X82465D02*
D03*
X76345D02*
D03*
X72801D02*
D03*
X95079Y211000D02*
D03*
X91535D02*
D03*
X86008D02*
D03*
X82465D02*
D03*
X76345D02*
D03*
X72801D02*
D03*
X95079Y283095D02*
D03*
X91535D02*
D03*
X86008D02*
D03*
X82465D02*
D03*
X76345D02*
D03*
X72801D02*
D03*
X95079Y192543D02*
D03*
X91535D02*
D03*
X86008D02*
D03*
X82465D02*
D03*
X76345D02*
D03*
X72801D02*
D03*
X95079Y175228D02*
D03*
X91535D02*
D03*
X86008D02*
D03*
X82465D02*
D03*
X76345D02*
D03*
X72801D02*
D03*
D101*
X503208Y617805D02*
D03*
X507932D02*
D03*
D106*
X497106Y205240D02*
D03*
X396874D02*
D03*
X446354D02*
D03*
X346567D02*
D03*
X296476D02*
D03*
X246461D02*
D03*
X195516D02*
D03*
X145641D02*
D03*
D107*
X260161Y462223D02*
D03*
X258193D02*
D03*
X256224D02*
D03*
X254256D02*
D03*
X252287D02*
D03*
X250319D02*
D03*
X248350D02*
D03*
X246382D02*
D03*
Y481123D02*
D03*
X248350D02*
D03*
X250319D02*
D03*
X252287D02*
D03*
X254256D02*
D03*
X256224D02*
D03*
X258193D02*
D03*
X260161D02*
D03*
X425016Y294638D02*
D03*
X423047D02*
D03*
X421079D02*
D03*
X419110D02*
D03*
Y306238D02*
D03*
X421079D02*
D03*
X423047D02*
D03*
X425016D02*
D03*
X500059Y199440D02*
D03*
X498091D02*
D03*
X496122D02*
D03*
X494153D02*
D03*
Y211040D02*
D03*
X496122D02*
D03*
X498091D02*
D03*
X500059D02*
D03*
X399827Y199440D02*
D03*
X397858D02*
D03*
X395890D02*
D03*
X393921D02*
D03*
Y211040D02*
D03*
X395890D02*
D03*
X397858D02*
D03*
X399827D02*
D03*
X449307Y199440D02*
D03*
X447339D02*
D03*
X445370D02*
D03*
X443402D02*
D03*
Y211040D02*
D03*
X445370D02*
D03*
X447339D02*
D03*
X449307D02*
D03*
X349520Y199440D02*
D03*
X347551D02*
D03*
X345583D02*
D03*
X343614D02*
D03*
Y211040D02*
D03*
X345583D02*
D03*
X347551D02*
D03*
X349520D02*
D03*
X299429Y199440D02*
D03*
X297461D02*
D03*
X295492D02*
D03*
X293524D02*
D03*
Y211040D02*
D03*
X295492D02*
D03*
X297461D02*
D03*
X299429D02*
D03*
X249413Y199440D02*
D03*
X247445D02*
D03*
X245476D02*
D03*
X243508D02*
D03*
Y211040D02*
D03*
X245476D02*
D03*
X247445D02*
D03*
X249413D02*
D03*
X198468Y199440D02*
D03*
X196500D02*
D03*
X194532D02*
D03*
X192563D02*
D03*
Y211040D02*
D03*
X194532D02*
D03*
X196500D02*
D03*
X198468D02*
D03*
X148594Y199440D02*
D03*
X146625D02*
D03*
X144657D02*
D03*
X142688D02*
D03*
Y211040D02*
D03*
X144657D02*
D03*
X146625D02*
D03*
X148594D02*
D03*
D108*
X243822Y464783D02*
D03*
Y466751D02*
D03*
Y468720D02*
D03*
Y470688D02*
D03*
Y472657D02*
D03*
Y474625D02*
D03*
Y476594D02*
D03*
Y478562D02*
D03*
X262722D02*
D03*
Y476594D02*
D03*
Y474625D02*
D03*
Y472657D02*
D03*
Y470688D02*
D03*
Y468720D02*
D03*
Y466751D02*
D03*
Y464783D02*
D03*
X427863Y303391D02*
D03*
Y301422D02*
D03*
Y299453D02*
D03*
Y297485D02*
D03*
X416263D02*
D03*
Y299453D02*
D03*
Y301422D02*
D03*
Y303391D02*
D03*
X491306Y202287D02*
D03*
Y204256D02*
D03*
Y206224D02*
D03*
Y208193D02*
D03*
X502906D02*
D03*
Y206224D02*
D03*
Y204256D02*
D03*
Y202287D02*
D03*
X391074D02*
D03*
Y204256D02*
D03*
Y206224D02*
D03*
Y208193D02*
D03*
X402674D02*
D03*
Y206224D02*
D03*
Y204256D02*
D03*
Y202287D02*
D03*
X440554D02*
D03*
Y204256D02*
D03*
Y206224D02*
D03*
Y208193D02*
D03*
X452154D02*
D03*
Y206224D02*
D03*
Y204256D02*
D03*
Y202287D02*
D03*
X340767D02*
D03*
Y204256D02*
D03*
Y206224D02*
D03*
Y208193D02*
D03*
X352367D02*
D03*
Y206224D02*
D03*
Y204256D02*
D03*
Y202287D02*
D03*
X290676D02*
D03*
Y204256D02*
D03*
Y206224D02*
D03*
Y208193D02*
D03*
X302276D02*
D03*
Y206224D02*
D03*
Y204256D02*
D03*
Y202287D02*
D03*
X240661D02*
D03*
Y204256D02*
D03*
Y206224D02*
D03*
Y208193D02*
D03*
X252261D02*
D03*
Y206224D02*
D03*
Y204256D02*
D03*
Y202287D02*
D03*
X189716D02*
D03*
Y204256D02*
D03*
Y206224D02*
D03*
Y208193D02*
D03*
X201316D02*
D03*
Y206224D02*
D03*
Y204256D02*
D03*
Y202287D02*
D03*
X139841D02*
D03*
Y204256D02*
D03*
Y206224D02*
D03*
Y208193D02*
D03*
X151441D02*
D03*
Y206224D02*
D03*
Y204256D02*
D03*
Y202287D02*
D03*
D111*
X422063Y300438D02*
D03*
D121*
X499571Y639504D02*
D03*
X494059D02*
D03*
D122*
X34664Y324789D02*
D03*
Y319277D02*
D03*
D126*
X466383Y555220D02*
D03*
D127*
X902880Y718260D02*
D03*
D128*
X244636Y444800D02*
D03*
X249164D02*
D03*
D129*
X248632Y450200D02*
D03*
X245168D02*
D03*
X248632Y454332D02*
D03*
X245168D02*
D03*
X783837Y709382D02*
D03*
X780372D02*
D03*
X365932Y344300D02*
D03*
X362468D02*
D03*
X35873Y297721D02*
D03*
X39337D02*
D03*
X718715Y686700D02*
D03*
X715250D02*
D03*
X506856Y611485D02*
D03*
X503392D02*
D03*
X457515Y324525D02*
D03*
X454050D02*
D03*
X457485Y319997D02*
D03*
X454021D02*
D03*
X491335Y217547D02*
D03*
X494799D02*
D03*
X440496D02*
D03*
X443961D02*
D03*
X391016D02*
D03*
X394480D02*
D03*
X352339D02*
D03*
X348875D02*
D03*
X290618D02*
D03*
X294083D02*
D03*
X252233D02*
D03*
X248768D02*
D03*
X201288D02*
D03*
X197823D02*
D03*
X151386D02*
D03*
X147921D02*
D03*
X503053D02*
D03*
X499588D02*
D03*
X452127D02*
D03*
X448662D02*
D03*
X402646D02*
D03*
X399182D02*
D03*
X340709D02*
D03*
X344173D02*
D03*
X302249D02*
D03*
X298784D02*
D03*
X240602D02*
D03*
X244067D02*
D03*
X189657D02*
D03*
X193122D02*
D03*
X139823D02*
D03*
X143287D02*
D03*
X234905Y458639D02*
D03*
X231440D02*
D03*
X1125060Y733397D02*
D03*
X1128525D02*
D03*
X1139982D02*
D03*
X1143446D02*
D03*
X1155021D02*
D03*
X1158486D02*
D03*
X1170061D02*
D03*
X1173525D02*
D03*
X513941Y583306D02*
D03*
X510476D02*
D03*
X515017Y596668D02*
D03*
X511552D02*
D03*
X513941Y587547D02*
D03*
X510476D02*
D03*
X515017Y592140D02*
D03*
X511552D02*
D03*
X259783Y433859D02*
D03*
X256318D02*
D03*
X264116Y438260D02*
D03*
X260651Y438258D02*
D03*
X252629Y438260D02*
D03*
X256093D02*
D03*
D130*
X240600Y454032D02*
D03*
Y450568D02*
D03*
X769442Y695444D02*
D03*
Y698908D02*
D03*
X761143Y788816D02*
D03*
Y785352D02*
D03*
X766142Y788816D02*
D03*
Y785352D02*
D03*
X770671Y788816D02*
D03*
Y785352D02*
D03*
X733357Y708194D02*
D03*
Y704729D02*
D03*
X829570Y717394D02*
D03*
Y713930D02*
D03*
X408108Y294187D02*
D03*
Y297652D02*
D03*
X408136Y307007D02*
D03*
Y303542D02*
D03*
X237200Y450532D02*
D03*
Y447068D02*
D03*
X330448Y375484D02*
D03*
Y372020D02*
D03*
X334977Y375484D02*
D03*
Y372020D02*
D03*
X362280Y353965D02*
D03*
Y350500D02*
D03*
X358321Y353965D02*
D03*
Y350500D02*
D03*
X574996Y418913D02*
D03*
Y415449D02*
D03*
X579524Y418913D02*
D03*
Y415449D02*
D03*
X584287Y418913D02*
D03*
Y415449D02*
D03*
X496914Y440370D02*
D03*
Y436905D02*
D03*
X1114216Y755645D02*
D03*
Y752180D02*
D03*
X490946Y618131D02*
D03*
Y614666D02*
D03*
X478181Y603435D02*
D03*
Y599970D02*
D03*
X473653Y603435D02*
D03*
Y599970D02*
D03*
X472551Y610561D02*
D03*
Y614026D02*
D03*
D131*
X233300Y445036D02*
D03*
Y449564D02*
D03*
D132*
X732200Y672980D02*
D03*
Y665500D02*
D03*
X722751D02*
D03*
Y669240D02*
D03*
Y672980D02*
D03*
D133*
X762700Y700028D02*
D03*
Y690972D02*
D03*
D134*
X779532Y699341D02*
D03*
Y701310D02*
D03*
Y703278D02*
D03*
Y705247D02*
D03*
X773528D02*
D03*
Y703278D02*
D03*
Y701310D02*
D03*
Y699341D02*
D03*
D135*
X777515Y705296D02*
D03*
X775546D02*
D03*
Y699292D02*
D03*
X777515D02*
D03*
D136*
X930100Y482600D02*
D03*
X190898Y563200D02*
D03*
Y628500D02*
D03*
X188207Y615717D02*
D03*
X110514Y622095D02*
D03*
X134327Y484236D02*
D03*
X1118561Y523324D02*
D03*
X178701Y360265D02*
D03*
X164723Y626371D02*
D03*
X425576Y603968D02*
D03*
X1122047Y302045D02*
D03*
X1126978Y446850D02*
D03*
X1120558Y377953D02*
D03*
X778583Y423228D02*
D03*
X544732Y334660D02*
D03*
X563096Y294202D02*
D03*
X532104Y268833D02*
D03*
X337224Y453543D02*
D03*
X166142Y567354D02*
D03*
X142370Y604331D02*
D03*
X177394Y566142D02*
D03*
X185827Y588000D02*
D03*
X177425Y623161D02*
D03*
X603150Y644095D02*
D03*
X438366Y548090D02*
D03*
X519186Y562062D02*
D03*
X524022Y640836D02*
D03*
X934931Y526552D02*
D03*
X937154Y383980D02*
D03*
X941650Y304423D02*
D03*
X932898Y449608D02*
D03*
D137*
X788700Y758156D02*
D03*
Y752644D02*
D03*
X788480Y770256D02*
D03*
Y764744D02*
D03*
X231787Y680834D02*
D03*
Y686344D02*
D03*
X908514Y701784D02*
D03*
X908516Y696272D02*
D03*
X244998Y685912D02*
D03*
X244998Y680399D02*
D03*
X643643Y818091D02*
D03*
Y812579D02*
D03*
X629975Y818091D02*
D03*
Y812579D02*
D03*
X623052Y818091D02*
D03*
Y812579D02*
D03*
X252100Y680723D02*
D03*
X252100Y686236D02*
D03*
X112461Y681189D02*
D03*
Y686701D02*
D03*
X222492Y465305D02*
D03*
Y459793D02*
D03*
X198158Y459808D02*
D03*
X198158Y465319D02*
D03*
X28954Y319438D02*
D03*
Y324950D02*
D03*
X1091465Y749933D02*
D03*
Y755446D02*
D03*
X37864Y664457D02*
D03*
Y658945D02*
D03*
X63977Y681189D02*
D03*
Y686701D02*
D03*
X75052Y664457D02*
D03*
Y658945D02*
D03*
X75102Y681189D02*
D03*
Y686701D02*
D03*
X176847Y658945D02*
D03*
Y664457D02*
D03*
X176783Y681190D02*
D03*
Y686702D02*
D03*
X154748Y658945D02*
D03*
Y664457D02*
D03*
X147268Y664457D02*
D03*
Y658945D02*
D03*
X147248Y681189D02*
D03*
Y686701D02*
D03*
X128965Y664457D02*
D03*
Y658945D02*
D03*
X119941Y686701D02*
D03*
Y681189D02*
D03*
X265567Y664457D02*
D03*
Y658945D02*
D03*
X265382Y680894D02*
D03*
Y686406D02*
D03*
X188244Y680923D02*
D03*
Y686435D02*
D03*
X46165Y681146D02*
D03*
Y686657D02*
D03*
X64171Y658945D02*
D03*
Y664457D02*
D03*
X56096Y664457D02*
D03*
Y658945D02*
D03*
X38645Y681191D02*
D03*
Y686702D02*
D03*
X56497Y681189D02*
D03*
Y686701D02*
D03*
X82882Y658945D02*
D03*
Y664457D02*
D03*
X101339Y658945D02*
D03*
Y664457D02*
D03*
X93858Y664457D02*
D03*
Y658945D02*
D03*
X82583Y681189D02*
D03*
Y686701D02*
D03*
X101339Y681189D02*
D03*
Y686701D02*
D03*
X93858Y681189D02*
D03*
Y686701D02*
D03*
X169367Y664457D02*
D03*
Y658945D02*
D03*
X169303Y681190D02*
D03*
Y686702D02*
D03*
X154728Y681189D02*
D03*
Y686701D02*
D03*
X136445Y658945D02*
D03*
Y664457D02*
D03*
X119495Y664452D02*
D03*
Y658940D02*
D03*
X136496Y681189D02*
D03*
Y686701D02*
D03*
X129016Y681189D02*
D03*
Y686701D02*
D03*
X111531Y658945D02*
D03*
Y664457D02*
D03*
X273047Y658945D02*
D03*
Y664457D02*
D03*
X272882Y681141D02*
D03*
Y686653D02*
D03*
X195346Y680923D02*
D03*
Y686435D02*
D03*
X45987Y658945D02*
D03*
Y664457D02*
D03*
X775592Y790902D02*
D03*
X775593Y785391D02*
D03*
X297807Y729418D02*
D03*
X297805Y723906D02*
D03*
X1101541Y702502D02*
D03*
X1101541Y708014D02*
D03*
X1099902Y663999D02*
D03*
X1099902Y658487D02*
D03*
X1109293Y752337D02*
D03*
Y757849D02*
D03*
X510069Y540265D02*
D03*
Y534753D02*
D03*
X429230Y618361D02*
D03*
Y612849D02*
D03*
X969151Y760830D02*
D03*
Y755318D02*
D03*
X271844Y400489D02*
D03*
Y406001D02*
D03*
X230672Y664173D02*
D03*
X230672Y658661D02*
D03*
X245220Y664173D02*
D03*
X245218Y658661D02*
D03*
X188079Y658945D02*
D03*
X188079Y664457D02*
D03*
X250750Y658661D02*
D03*
X250748Y664173D02*
D03*
X195559Y664457D02*
D03*
X195559Y658945D02*
D03*
X636809Y812579D02*
D03*
Y818091D02*
D03*
D138*
X174828Y745852D02*
D03*
Y752348D02*
D03*
X96899Y741252D02*
D03*
Y747748D02*
D03*
X478489Y614963D02*
D03*
Y609648D02*
D03*
X42434Y267523D02*
D03*
Y261027D02*
D03*
X717384Y672106D02*
D03*
Y678602D02*
D03*
X198158Y447704D02*
D03*
Y454200D02*
D03*
X278370Y400462D02*
D03*
Y393966D02*
D03*
X429213Y623027D02*
D03*
Y629523D02*
D03*
X966208Y790428D02*
D03*
Y796924D02*
D03*
D139*
X601550Y764206D02*
D03*
X345251D02*
D03*
D140*
X1190370Y620275D02*
D03*
Y618306D02*
D03*
Y616338D02*
D03*
Y614369D02*
D03*
Y612401D02*
D03*
Y592125D02*
D03*
Y594094D02*
D03*
Y596062D02*
D03*
Y598031D02*
D03*
Y599999D02*
D03*
D141*
X490737Y609148D02*
D03*
X485423D02*
D03*
X77367Y750522D02*
D03*
X70871D02*
D03*
X727904Y678712D02*
D03*
X734400D02*
D03*
X561163Y643118D02*
D03*
X554667D02*
D03*
X305668Y692449D02*
D03*
X299172D02*
D03*
X305677Y698213D02*
D03*
X299181D02*
D03*
X1188197Y326441D02*
D03*
X1181701Y326439D02*
D03*
Y302330D02*
D03*
X1188197Y302331D02*
D03*
X1181701Y310367D02*
D03*
X1188197Y310366D02*
D03*
X517785Y506996D02*
D03*
X524281D02*
D03*
X225268Y435893D02*
D03*
X218772Y435895D02*
D03*
X78676Y548969D02*
D03*
X85173Y548970D02*
D03*
X129886Y419358D02*
D03*
X123390D02*
D03*
X252941Y348125D02*
D03*
X246445D02*
D03*
X756333Y270943D02*
D03*
X749837D02*
D03*
D142*
X1063240Y135780D02*
D03*
X1055760D02*
D03*
Y145820D02*
D03*
X1059500D02*
D03*
X1063240D02*
D03*
X1141940Y135780D02*
D03*
X1134460D02*
D03*
Y145820D02*
D03*
X1138200D02*
D03*
X1141940D02*
D03*
D143*
X265124Y788575D02*
D03*
X249376D02*
D03*
X265124Y765740D02*
D03*
X249376D02*
D03*
X1009108Y777927D02*
D03*
X993360D02*
D03*
X1009108Y755092D02*
D03*
X993360D02*
D03*
X296644Y765929D02*
D03*
X312392D02*
D03*
X296644Y788763D02*
D03*
X312392D02*
D03*
D144*
X649559Y736557D02*
D03*
X646212D02*
D03*
X649559Y729274D02*
D03*
X646212D02*
D03*
X1097177Y743724D02*
D03*
X1100524Y743724D02*
D03*
X487315Y402149D02*
D03*
X490661D02*
D03*
X974367Y755318D02*
D03*
X977713D02*
D03*
X226632Y471846D02*
D03*
X223286D02*
D03*
X226632Y476374D02*
D03*
X223286D02*
D03*
X226632Y480903D02*
D03*
X223286D02*
D03*
X226632Y485431D02*
D03*
X223286D02*
D03*
X272578Y482859D02*
D03*
X275925D02*
D03*
X272578Y478330D02*
D03*
X275925D02*
D03*
X272578Y473802D02*
D03*
X275925D02*
D03*
X272578Y469273D02*
D03*
X275925D02*
D03*
X287697Y338968D02*
D03*
X291043Y338969D02*
D03*
X490661Y393092D02*
D03*
X487315D02*
D03*
X490661Y397620D02*
D03*
X487315D02*
D03*
X490661Y406677D02*
D03*
X487315D02*
D03*
X490661Y411206D02*
D03*
X487315D02*
D03*
X490661Y416862D02*
D03*
X487315D02*
D03*
X490661Y420928D02*
D03*
X487315D02*
D03*
X490661Y425456D02*
D03*
X487315D02*
D03*
X490661Y430614D02*
D03*
X487315D02*
D03*
X1079213Y642153D02*
D03*
X1075866D02*
D03*
X1079213Y732492D02*
D03*
X1075866D02*
D03*
D145*
X629077Y729433D02*
D03*
Y733173D02*
D03*
Y736913D02*
D03*
X619038D02*
D03*
Y729433D02*
D03*
D146*
X192787Y130709D02*
D03*
X195346D02*
D03*
X197906D02*
D03*
Y137008D02*
D03*
X195346D02*
D03*
X192787D02*
D03*
X143405Y130709D02*
D03*
X145965D02*
D03*
X148524D02*
D03*
Y137008D02*
D03*
X145965D02*
D03*
X143405D02*
D03*
X344268Y130709D02*
D03*
X346827D02*
D03*
X349386D02*
D03*
Y137008D02*
D03*
X346827D02*
D03*
X344268D02*
D03*
X494803D02*
D03*
X497362D02*
D03*
X499921D02*
D03*
Y130709D02*
D03*
X497362D02*
D03*
X494803D02*
D03*
X443705Y137008D02*
D03*
X446264D02*
D03*
X448823D02*
D03*
Y130709D02*
D03*
X446264D02*
D03*
X443705D02*
D03*
X394493Y137008D02*
D03*
X397051D02*
D03*
X399611D02*
D03*
Y130709D02*
D03*
X397053D02*
D03*
X394493D02*
D03*
X294195Y137008D02*
D03*
X296754D02*
D03*
X299313D02*
D03*
Y130709D02*
D03*
X296754D02*
D03*
X294195D02*
D03*
X243984Y137008D02*
D03*
X246543D02*
D03*
X249102D02*
D03*
Y130709D02*
D03*
X246543D02*
D03*
X243984D02*
D03*
D147*
X231787Y699031D02*
D03*
Y692732D02*
D03*
X244998Y692866D02*
D03*
Y699165D02*
D03*
X252100Y692831D02*
D03*
Y699130D02*
D03*
X195346Y693356D02*
D03*
Y699656D02*
D03*
X188244Y693356D02*
D03*
Y699656D02*
D03*
X265382Y693358D02*
D03*
Y699657D02*
D03*
X272882Y693358D02*
D03*
Y699657D02*
D03*
X45881Y693408D02*
D03*
Y699708D02*
D03*
X37608Y693262D02*
D03*
Y699561D02*
D03*
X63842Y693417D02*
D03*
Y699717D02*
D03*
X56398Y693406D02*
D03*
Y699706D02*
D03*
X82583Y693417D02*
D03*
Y699717D02*
D03*
X75102Y693417D02*
D03*
Y699717D02*
D03*
X101339Y693417D02*
D03*
Y699717D02*
D03*
X93858Y693417D02*
D03*
Y699717D02*
D03*
X169303Y693417D02*
D03*
Y699717D02*
D03*
X176784Y693417D02*
D03*
Y699717D02*
D03*
X147248Y693417D02*
D03*
Y699717D02*
D03*
X154728Y693417D02*
D03*
Y699717D02*
D03*
X136496Y693417D02*
D03*
Y699717D02*
D03*
X129016Y693417D02*
D03*
Y699717D02*
D03*
X119941D02*
D03*
Y693417D02*
D03*
X112461Y699717D02*
D03*
Y693417D02*
D03*
D148*
X148618Y754468D02*
D03*
X141925D02*
D03*
X41357Y304218D02*
D03*
X34664Y304217D02*
D03*
D149*
X895807Y746384D02*
D03*
X897775D02*
D03*
X899743D02*
D03*
X901712D02*
D03*
X903681D02*
D03*
X895807Y763903D02*
D03*
X897775D02*
D03*
X899743D02*
D03*
X901712D02*
D03*
X903681D02*
D03*
D150*
X88717Y741179D02*
D03*
Y747085D02*
D03*
X165274Y751642D02*
D03*
Y745736D02*
D03*
D151*
X674318Y814052D02*
D03*
Y806178D02*
D03*
Y798304D02*
D03*
Y790430D02*
D03*
Y782556D02*
D03*
Y774682D02*
D03*
Y766808D02*
D03*
X657546D02*
D03*
Y774682D02*
D03*
Y782556D02*
D03*
Y790430D02*
D03*
Y798304D02*
D03*
Y806178D02*
D03*
Y814052D02*
D03*
D152*
X247443Y152943D02*
D03*
X243112D02*
D03*
X408323Y311385D02*
D03*
X412654D02*
D03*
X441311Y304078D02*
D03*
X445642D02*
D03*
X447673Y289477D02*
D03*
X443342D02*
D03*
X408323Y289475D02*
D03*
X412654D02*
D03*
X476925Y188638D02*
D03*
X481256D02*
D03*
X498061Y152945D02*
D03*
X493731D02*
D03*
X426173Y188850D02*
D03*
X430504D02*
D03*
X447323Y152945D02*
D03*
X442992D02*
D03*
X397870Y152943D02*
D03*
X393539D02*
D03*
X376693Y188850D02*
D03*
X381024D02*
D03*
X326343D02*
D03*
X330673D02*
D03*
X347500Y152945D02*
D03*
X343169D02*
D03*
X276295Y188850D02*
D03*
X280626D02*
D03*
X297516Y152943D02*
D03*
X293185D02*
D03*
X226279Y188850D02*
D03*
X230610D02*
D03*
X175335D02*
D03*
X179665D02*
D03*
X196476Y152941D02*
D03*
X192146D02*
D03*
X473059Y309114D02*
D03*
X477391D02*
D03*
X146682Y152941D02*
D03*
X142351D02*
D03*
X126475Y188878D02*
D03*
X130806D02*
D03*
D153*
X283183Y352539D02*
D03*
X279640D02*
D03*
X442449Y501768D02*
D03*
X445992D02*
D03*
X442449Y489921D02*
D03*
X445992D02*
D03*
X1162448Y235059D02*
D03*
X1165991D02*
D03*
X1156549Y241492D02*
D03*
X1160092D02*
D03*
X420342Y311385D02*
D03*
X423886D02*
D03*
X438651Y295932D02*
D03*
X435107D02*
D03*
X438453Y289477D02*
D03*
X434909D02*
D03*
X427626D02*
D03*
X431169D02*
D03*
X420342Y289475D02*
D03*
X423886D02*
D03*
X504480Y222913D02*
D03*
X508024D02*
D03*
Y191983D02*
D03*
X504480Y191984D02*
D03*
X489689Y222913D02*
D03*
X486146D02*
D03*
X438937D02*
D03*
X435394D02*
D03*
X453728D02*
D03*
X457272D02*
D03*
Y192168D02*
D03*
X453728Y192169D02*
D03*
X404248Y222913D02*
D03*
X407791D02*
D03*
X389457D02*
D03*
X385913D02*
D03*
X407791Y192083D02*
D03*
X404248D02*
D03*
X353941Y222913D02*
D03*
X357484D02*
D03*
X339106D02*
D03*
X335563D02*
D03*
X357484Y192083D02*
D03*
X353941D02*
D03*
X307437D02*
D03*
X303894D02*
D03*
X304075Y222913D02*
D03*
X307618D02*
D03*
X289059D02*
D03*
X285516D02*
D03*
X257421Y192083D02*
D03*
X253878D02*
D03*
Y222941D02*
D03*
X257421D02*
D03*
X239043Y222913D02*
D03*
X235500D02*
D03*
X202961D02*
D03*
X206504D02*
D03*
Y192168D02*
D03*
X202961D02*
D03*
X188098Y222913D02*
D03*
X184555D02*
D03*
X349977Y307221D02*
D03*
X346433D02*
D03*
X342764D02*
D03*
X339220D02*
D03*
X335551D02*
D03*
X332008D02*
D03*
X328318D02*
D03*
X324775D02*
D03*
X320741D02*
D03*
X317198D02*
D03*
X313452D02*
D03*
X309909D02*
D03*
X306307D02*
D03*
X302764D02*
D03*
X299060D02*
D03*
X295517D02*
D03*
X44548Y253326D02*
D03*
X48092D02*
D03*
X44548Y248979D02*
D03*
X48092D02*
D03*
X44548Y244631D02*
D03*
X48092D02*
D03*
X43740Y240279D02*
D03*
X47283D02*
D03*
X110278Y175131D02*
D03*
X106734D02*
D03*
X110278Y192671D02*
D03*
X106734D02*
D03*
X110278Y210994D02*
D03*
X106734D02*
D03*
X110278Y228064D02*
D03*
X106734D02*
D03*
X110278Y245308D02*
D03*
X106734D02*
D03*
X110278Y263242D02*
D03*
X106734D02*
D03*
X110278Y302887D02*
D03*
X106734D02*
D03*
X357942Y310266D02*
D03*
X361486D02*
D03*
X808228Y655864D02*
D03*
X804685D02*
D03*
X850933Y643957D02*
D03*
X847390D02*
D03*
X850933Y631551D02*
D03*
X847390D02*
D03*
X850933Y635685D02*
D03*
X847390D02*
D03*
X850933Y639819D02*
D03*
X847390D02*
D03*
X850933Y648091D02*
D03*
X847390D02*
D03*
X792480Y635961D02*
D03*
X796024D02*
D03*
X792480Y644232D02*
D03*
X796024D02*
D03*
X792480Y640098D02*
D03*
X796024D02*
D03*
X792480Y648366D02*
D03*
X796024D02*
D03*
X792480Y652504D02*
D03*
X796024D02*
D03*
X783693Y631194D02*
D03*
X780150D02*
D03*
X783693Y639464D02*
D03*
X780150D02*
D03*
X783693Y635329D02*
D03*
X780150D02*
D03*
X783693Y643598D02*
D03*
X780150D02*
D03*
X783693Y647733D02*
D03*
X780150D02*
D03*
X723992Y652024D02*
D03*
X727535D02*
D03*
X723992Y647890D02*
D03*
X727535D02*
D03*
X723992Y643752D02*
D03*
X727535D02*
D03*
X723992Y639619D02*
D03*
X727535D02*
D03*
X723992Y635484D02*
D03*
X727535D02*
D03*
X723992Y631350D02*
D03*
X727535D02*
D03*
X110278Y283084D02*
D03*
X106734D02*
D03*
X110278Y321352D02*
D03*
X106734D02*
D03*
X427626Y311385D02*
D03*
X431169D02*
D03*
X359024Y344262D02*
D03*
X286929Y334594D02*
D03*
X283386D02*
D03*
X286984Y331209D02*
D03*
X283441D02*
D03*
X153079Y222913D02*
D03*
X156622D02*
D03*
X138224D02*
D03*
X134681D02*
D03*
X156646Y192032D02*
D03*
X153102D02*
D03*
X621117Y795553D02*
D03*
X617573D02*
D03*
X621117Y807709D02*
D03*
X617573D02*
D03*
X451028Y568525D02*
D03*
X454572D02*
D03*
X617573Y801387D02*
D03*
X621117D02*
D03*
X617131Y789241D02*
D03*
X620674D02*
D03*
D154*
X155817Y736063D02*
D03*
Y738622D02*
D03*
Y741181D02*
D03*
Y743740D02*
D03*
X132588Y736063D02*
D03*
Y738622D02*
D03*
Y741181D02*
D03*
Y743740D02*
D03*
X81258Y736063D02*
D03*
Y738622D02*
D03*
Y741181D02*
D03*
Y743740D02*
D03*
X58031Y736063D02*
D03*
X58030Y738622D02*
D03*
Y741181D02*
D03*
Y743740D02*
D03*
D155*
X255866Y429815D02*
D03*
Y426272D02*
D03*
X445913Y497614D02*
D03*
Y494071D02*
D03*
X403563Y307810D02*
D03*
Y311353D02*
D03*
Y293117D02*
D03*
Y289573D02*
D03*
X508024Y199677D02*
D03*
Y196134D02*
D03*
Y206961D02*
D03*
Y203417D02*
D03*
X486146Y206961D02*
D03*
Y199677D02*
D03*
Y196134D02*
D03*
X490280Y188850D02*
D03*
Y192394D02*
D03*
X486146Y188850D02*
D03*
Y192394D02*
D03*
X435394Y199677D02*
D03*
Y196134D02*
D03*
Y206961D02*
D03*
Y203417D02*
D03*
X457272Y206961D02*
D03*
Y203417D02*
D03*
X439529Y188850D02*
D03*
Y192394D02*
D03*
X435394Y188850D02*
D03*
Y192394D02*
D03*
X407791Y199677D02*
D03*
Y196134D02*
D03*
Y206961D02*
D03*
Y203417D02*
D03*
X385913Y206961D02*
D03*
Y203417D02*
D03*
Y199677D02*
D03*
Y196134D02*
D03*
X390048Y188850D02*
D03*
Y192394D02*
D03*
X385913Y188850D02*
D03*
Y192394D02*
D03*
X357484Y199677D02*
D03*
Y196134D02*
D03*
Y206961D02*
D03*
Y203417D02*
D03*
X335563Y206961D02*
D03*
Y203417D02*
D03*
Y199677D02*
D03*
Y196134D02*
D03*
Y188850D02*
D03*
Y192394D02*
D03*
X339698Y188850D02*
D03*
Y192394D02*
D03*
X307618Y199677D02*
D03*
Y196134D02*
D03*
Y206961D02*
D03*
Y203417D02*
D03*
X285516Y206961D02*
D03*
Y203417D02*
D03*
Y199677D02*
D03*
Y196134D02*
D03*
X289651Y188850D02*
D03*
Y192394D02*
D03*
X285516Y188850D02*
D03*
Y192394D02*
D03*
X257421Y199677D02*
D03*
Y196134D02*
D03*
Y206961D02*
D03*
Y203417D02*
D03*
X235500Y206961D02*
D03*
Y203417D02*
D03*
Y199677D02*
D03*
Y196134D02*
D03*
X239635Y188850D02*
D03*
Y192394D02*
D03*
X235500Y188850D02*
D03*
Y192394D02*
D03*
X206504Y206961D02*
D03*
Y203417D02*
D03*
X184555Y206961D02*
D03*
Y203417D02*
D03*
Y199677D02*
D03*
Y196134D02*
D03*
X188690Y188850D02*
D03*
Y192394D02*
D03*
X35679Y231016D02*
D03*
Y227472D02*
D03*
X31332Y231016D02*
D03*
Y227472D02*
D03*
X26984Y231016D02*
D03*
Y227472D02*
D03*
X22637Y231016D02*
D03*
Y227472D02*
D03*
X15477Y240782D02*
D03*
Y237239D02*
D03*
X114258Y175133D02*
D03*
Y171590D02*
D03*
X102797Y175133D02*
D03*
Y171590D02*
D03*
X114258Y192671D02*
D03*
Y189127D02*
D03*
X102797Y192671D02*
D03*
Y189127D02*
D03*
X114258Y210994D02*
D03*
Y207450D02*
D03*
X102797Y210994D02*
D03*
Y207450D02*
D03*
X114258Y228064D02*
D03*
Y224521D02*
D03*
X102797Y228064D02*
D03*
Y224521D02*
D03*
X114258Y245308D02*
D03*
Y241765D02*
D03*
X102797Y245309D02*
D03*
Y241765D02*
D03*
Y263240D02*
D03*
Y259697D02*
D03*
X114258Y283088D02*
D03*
Y279545D02*
D03*
X102799Y302887D02*
D03*
Y299344D02*
D03*
X830267Y615976D02*
D03*
Y619520D02*
D03*
X825936Y615976D02*
D03*
Y619520D02*
D03*
X821802Y615976D02*
D03*
Y619520D02*
D03*
X817666Y615976D02*
D03*
Y619520D02*
D03*
X813531Y615976D02*
D03*
Y619520D02*
D03*
X765443Y615976D02*
D03*
Y619520D02*
D03*
X761096Y615975D02*
D03*
Y619518D02*
D03*
X756748Y615975D02*
D03*
Y619518D02*
D03*
X752251Y615975D02*
D03*
Y619518D02*
D03*
X748053Y615975D02*
D03*
Y619518D02*
D03*
X114258Y263242D02*
D03*
Y259697D02*
D03*
X102797Y283082D02*
D03*
Y279545D02*
D03*
X114258Y302887D02*
D03*
Y299344D02*
D03*
X102797Y321352D02*
D03*
Y317809D02*
D03*
X114258Y321352D02*
D03*
Y317809D02*
D03*
X435304Y311385D02*
D03*
Y314929D02*
D03*
X457272Y199677D02*
D03*
Y196134D02*
D03*
X206504Y199650D02*
D03*
Y196106D02*
D03*
X184555Y188850D02*
D03*
Y192394D02*
D03*
X134681Y206961D02*
D03*
Y203417D02*
D03*
X156622Y206961D02*
D03*
Y203417D02*
D03*
X138816Y188850D02*
D03*
Y192394D02*
D03*
X134681Y188850D02*
D03*
Y192394D02*
D03*
Y199677D02*
D03*
Y196134D02*
D03*
X156622Y199650D02*
D03*
Y196106D02*
D03*
X466370Y549535D02*
D03*
Y553079D02*
D03*
X506082Y583602D02*
D03*
Y587145D02*
D03*
X507169Y596014D02*
D03*
Y592471D02*
D03*
X33999Y259619D02*
D03*
Y263162D02*
D03*
X260234Y426272D02*
D03*
Y429815D02*
D03*
X294075Y349488D02*
D03*
Y345945D02*
D03*
X353165Y364266D02*
D03*
X353164Y360723D02*
D03*
X357298Y364198D02*
D03*
Y360655D02*
D03*
X501661Y445520D02*
D03*
Y441976D02*
D03*
D156*
X33999Y290244D02*
D03*
X18644D02*
D03*
Y270244D02*
D03*
X33999D02*
D03*
D157*
X524398Y690550D02*
D03*
Y687006D02*
D03*
D158*
X441162Y528838D02*
D03*
X437146D02*
D03*
X440637Y506464D02*
D03*
X436621D02*
D03*
D159*
X436838Y522354D02*
D03*
X440420Y522354D02*
D03*
X436838Y512913D02*
D03*
X440420Y512913D02*
D03*
X937049Y804343D02*
D03*
X940632D02*
D03*
X816188Y717354D02*
D03*
X812605D02*
D03*
X500868Y623527D02*
D03*
X497285Y623528D02*
D03*
X784690Y783537D02*
D03*
X781108D02*
D03*
X363266Y370074D02*
D03*
X366849D02*
D03*
D160*
X357383D02*
D03*
Y376570D02*
D03*
D161*
X34762Y331666D02*
D03*
X41258D02*
D03*
X34705Y312913D02*
D03*
X41201D02*
D03*
D162*
X491960Y592647D02*
D03*
X489991D02*
D03*
X488023D02*
D03*
X486054D02*
D03*
X484086D02*
D03*
X482117D02*
D03*
X480149D02*
D03*
X478180D02*
D03*
X476212D02*
D03*
X474243D02*
D03*
X472275D02*
D03*
X470306D02*
D03*
X468338D02*
D03*
X466369D02*
D03*
X464401D02*
D03*
X462432D02*
D03*
Y558198D02*
D03*
X464401D02*
D03*
X466369D02*
D03*
X468338D02*
D03*
X470306D02*
D03*
X472275D02*
D03*
X474243D02*
D03*
X476212D02*
D03*
X478180D02*
D03*
X480149D02*
D03*
X482117D02*
D03*
X484086D02*
D03*
X486054D02*
D03*
X488023D02*
D03*
X489991D02*
D03*
X491960D02*
D03*
D163*
X459971Y590186D02*
D03*
Y588217D02*
D03*
Y586249D02*
D03*
Y584280D02*
D03*
Y582312D02*
D03*
Y580343D02*
D03*
Y578375D02*
D03*
Y576406D02*
D03*
Y574438D02*
D03*
Y572470D02*
D03*
Y570501D02*
D03*
Y568533D02*
D03*
Y566564D02*
D03*
Y564596D02*
D03*
Y562627D02*
D03*
Y560659D02*
D03*
X494420D02*
D03*
Y562627D02*
D03*
Y564596D02*
D03*
Y566564D02*
D03*
Y568533D02*
D03*
Y570501D02*
D03*
Y572470D02*
D03*
Y574438D02*
D03*
Y576406D02*
D03*
Y578375D02*
D03*
Y580343D02*
D03*
Y582312D02*
D03*
Y584280D02*
D03*
Y586249D02*
D03*
Y588217D02*
D03*
Y590186D02*
D03*
D164*
X477196Y575422D02*
D03*
D165*
X29090Y247230D02*
D03*
D166*
X34011Y239848D02*
D03*
X32043D02*
D03*
X30074D02*
D03*
X28106D02*
D03*
X26137D02*
D03*
X24169D02*
D03*
Y254612D02*
D03*
X26137D02*
D03*
X28106D02*
D03*
X30074D02*
D03*
X32043D02*
D03*
X34011D02*
D03*
D167*
X21708Y242309D02*
D03*
Y244278D02*
D03*
Y246246D02*
D03*
Y248215D02*
D03*
Y250183D02*
D03*
Y252153D02*
D03*
X36472Y252152D02*
D03*
Y250183D02*
D03*
Y248215D02*
D03*
Y246246D02*
D03*
Y244278D02*
D03*
Y242309D02*
D03*
D168*
X756515Y641780D02*
D03*
X821161Y641886D02*
D03*
D169*
X751594Y648866D02*
D03*
X753563D02*
D03*
X755531D02*
D03*
X757500D02*
D03*
X759468D02*
D03*
X761437D02*
D03*
Y634693D02*
D03*
X759468D02*
D03*
X757500D02*
D03*
X755531D02*
D03*
X753563D02*
D03*
X751594D02*
D03*
X816240Y648972D02*
D03*
X818209D02*
D03*
X820177D02*
D03*
X822146D02*
D03*
X824114D02*
D03*
X826083D02*
D03*
Y634799D02*
D03*
X824114D02*
D03*
X822146D02*
D03*
X820177D02*
D03*
X818209D02*
D03*
X816240D02*
D03*
D170*
X763602Y646701D02*
D03*
Y644732D02*
D03*
Y642764D02*
D03*
Y640795D02*
D03*
Y638827D02*
D03*
Y636858D02*
D03*
X749429D02*
D03*
Y638827D02*
D03*
Y640795D02*
D03*
Y642764D02*
D03*
Y644732D02*
D03*
Y646701D02*
D03*
X828248Y646807D02*
D03*
Y644839D02*
D03*
Y642870D02*
D03*
Y640902D02*
D03*
Y638933D02*
D03*
Y636965D02*
D03*
X814075D02*
D03*
Y638933D02*
D03*
Y640902D02*
D03*
Y642870D02*
D03*
Y644839D02*
D03*
Y646807D02*
D03*
X835059Y722360D02*
D03*
Y719801D02*
D03*
Y717242D02*
D03*
Y714683D02*
D03*
X843059D02*
D03*
Y717242D02*
D03*
Y719801D02*
D03*
Y722358D02*
D03*
D171*
X460757Y305275D02*
D03*
D172*
X200394Y166469D02*
D03*
X351339D02*
D03*
X401710D02*
D03*
X451161D02*
D03*
X501914D02*
D03*
X251358D02*
D03*
X301354D02*
D03*
X150524D02*
D03*
D173*
X308080Y329655D02*
D03*
X309653D02*
D03*
X311229D02*
D03*
X312804D02*
D03*
X314379D02*
D03*
X315954D02*
D03*
X317528D02*
D03*
X319103D02*
D03*
X320678D02*
D03*
X322253D02*
D03*
X323828D02*
D03*
X325402D02*
D03*
X326977D02*
D03*
X328552D02*
D03*
X330127D02*
D03*
X331702D02*
D03*
X333276D02*
D03*
X334851D02*
D03*
X336426Y329654D02*
D03*
X336425Y364104D02*
D03*
X334851D02*
D03*
X333276D02*
D03*
X331702D02*
D03*
X330127D02*
D03*
X328552D02*
D03*
X326977D02*
D03*
X325402D02*
D03*
X323828D02*
D03*
X322253D02*
D03*
X320678D02*
D03*
X319103D02*
D03*
X317528D02*
D03*
X315954D02*
D03*
X314378D02*
D03*
X312804D02*
D03*
X311229D02*
D03*
X309654D02*
D03*
X308080D02*
D03*
D174*
X339477Y332706D02*
D03*
Y334281D02*
D03*
Y335854D02*
D03*
Y337430D02*
D03*
Y339005D02*
D03*
Y340580D02*
D03*
Y342155D02*
D03*
Y343729D02*
D03*
Y345304D02*
D03*
Y346879D02*
D03*
Y348454D02*
D03*
Y350029D02*
D03*
Y351604D02*
D03*
Y353178D02*
D03*
Y354753D02*
D03*
Y356328D02*
D03*
Y357903D02*
D03*
Y359477D02*
D03*
Y361052D02*
D03*
X305028D02*
D03*
Y359477D02*
D03*
Y357903D02*
D03*
Y356328D02*
D03*
Y354753D02*
D03*
Y353178D02*
D03*
Y351602D02*
D03*
Y350029D02*
D03*
Y348454D02*
D03*
Y346879D02*
D03*
Y345304D02*
D03*
Y343729D02*
D03*
Y342154D02*
D03*
Y340580D02*
D03*
Y339005D02*
D03*
Y337430D02*
D03*
Y335856D02*
D03*
Y334281D02*
D03*
Y332706D02*
D03*
D175*
X322253Y346879D02*
D03*
D176*
X48380Y260935D02*
D03*
Y264517D02*
D03*
X451085Y349694D02*
D03*
X451087Y353276D02*
D03*
X769300Y713067D02*
D03*
Y716651D02*
D03*
X88726Y187053D02*
D03*
Y183470D02*
D03*
X79286Y187053D02*
D03*
Y183470D02*
D03*
X88726Y205505D02*
D03*
Y201923D02*
D03*
X79286Y205505D02*
D03*
Y201923D02*
D03*
X88726Y222483D02*
D03*
Y218900D02*
D03*
X79286Y222483D02*
D03*
Y218900D02*
D03*
X88726Y239505D02*
D03*
Y235923D02*
D03*
X79286Y239505D02*
D03*
Y235923D02*
D03*
X88726Y257919D02*
D03*
Y254336D02*
D03*
X79286Y257919D02*
D03*
Y254336D02*
D03*
Y315907D02*
D03*
Y312324D02*
D03*
X88726Y277604D02*
D03*
Y274021D02*
D03*
X79286Y277604D02*
D03*
Y274021D02*
D03*
Y297289D02*
D03*
Y293706D02*
D03*
X88726Y297289D02*
D03*
Y293706D02*
D03*
Y315907D02*
D03*
Y312324D02*
D03*
X88726Y169728D02*
D03*
Y166146D02*
D03*
X79286Y169728D02*
D03*
Y166146D02*
D03*
D177*
X508024Y218850D02*
D03*
Y214520D02*
D03*
X486146Y218850D02*
D03*
Y214520D02*
D03*
X500634Y184535D02*
D03*
Y180205D02*
D03*
X505753Y149339D02*
D03*
Y145008D02*
D03*
X435394Y218850D02*
D03*
Y214520D02*
D03*
X457272Y218850D02*
D03*
Y214520D02*
D03*
X449882Y184535D02*
D03*
Y180205D02*
D03*
X455000Y149339D02*
D03*
Y145008D02*
D03*
X407791Y218850D02*
D03*
Y214520D02*
D03*
X385913Y218850D02*
D03*
Y214520D02*
D03*
X400429Y184535D02*
D03*
Y180205D02*
D03*
X405548Y149339D02*
D03*
Y145008D02*
D03*
X357484Y218850D02*
D03*
Y214520D02*
D03*
X335563Y218850D02*
D03*
Y214520D02*
D03*
X350122Y184535D02*
D03*
Y180205D02*
D03*
X355178Y149339D02*
D03*
Y145008D02*
D03*
X250059Y184535D02*
D03*
Y180205D02*
D03*
X300075Y184535D02*
D03*
Y180205D02*
D03*
X307618Y218850D02*
D03*
Y214520D02*
D03*
X285516Y218850D02*
D03*
Y214520D02*
D03*
X305193Y149339D02*
D03*
Y145008D02*
D03*
X257421Y218850D02*
D03*
Y214520D02*
D03*
X235500Y218850D02*
D03*
Y214520D02*
D03*
X255177Y149339D02*
D03*
Y145008D02*
D03*
X206504Y218850D02*
D03*
Y214520D02*
D03*
X184555Y218850D02*
D03*
Y214520D02*
D03*
X199114Y184535D02*
D03*
Y180205D02*
D03*
X204232Y149339D02*
D03*
Y145008D02*
D03*
X474579Y301436D02*
D03*
Y297105D02*
D03*
X156622Y218779D02*
D03*
Y214449D02*
D03*
X134681Y218850D02*
D03*
Y214520D02*
D03*
X149240Y185074D02*
D03*
Y180743D02*
D03*
X154362Y149339D02*
D03*
Y145008D02*
D03*
D178*
X95175Y183253D02*
D03*
Y187269D02*
D03*
Y201706D02*
D03*
Y205722D02*
D03*
Y218684D02*
D03*
Y222699D02*
D03*
Y235706D02*
D03*
Y239722D02*
D03*
Y293490D02*
D03*
Y297505D02*
D03*
Y254120D02*
D03*
Y258135D02*
D03*
Y273805D02*
D03*
Y277820D02*
D03*
Y312108D02*
D03*
Y316124D02*
D03*
X72801Y293490D02*
D03*
Y297505D02*
D03*
Y312108D02*
D03*
Y316124D02*
D03*
Y273805D02*
D03*
Y277820D02*
D03*
Y254120D02*
D03*
Y258135D02*
D03*
Y235706D02*
D03*
Y239722D02*
D03*
X72798Y218684D02*
D03*
Y222699D02*
D03*
X72801Y201706D02*
D03*
Y205722D02*
D03*
Y183253D02*
D03*
Y187269D02*
D03*
X95175Y165929D02*
D03*
Y169945D02*
D03*
X72793Y165929D02*
D03*
Y169945D02*
D03*
D179*
X568433Y449535D02*
D03*
Y447567D02*
D03*
Y445598D02*
D03*
Y443630D02*
D03*
Y441661D02*
D03*
Y439692D02*
D03*
Y437724D02*
D03*
Y435755D02*
D03*
Y433787D02*
D03*
Y431818D02*
D03*
Y429850D02*
D03*
Y427881D02*
D03*
Y425913D02*
D03*
Y423945D02*
D03*
Y421976D02*
D03*
Y420008D02*
D03*
Y418039D02*
D03*
Y416070D02*
D03*
Y414102D02*
D03*
Y412133D02*
D03*
Y410165D02*
D03*
Y408196D02*
D03*
Y406228D02*
D03*
Y404259D02*
D03*
Y402291D02*
D03*
X507409D02*
D03*
Y404259D02*
D03*
Y406228D02*
D03*
Y408196D02*
D03*
Y410165D02*
D03*
Y412133D02*
D03*
Y414102D02*
D03*
Y416070D02*
D03*
Y418039D02*
D03*
Y420008D02*
D03*
Y421976D02*
D03*
Y423945D02*
D03*
Y425913D02*
D03*
Y427881D02*
D03*
Y429850D02*
D03*
Y431818D02*
D03*
Y433787D02*
D03*
Y435755D02*
D03*
Y437724D02*
D03*
Y439692D02*
D03*
Y441661D02*
D03*
Y443630D02*
D03*
Y445598D02*
D03*
Y447567D02*
D03*
Y449535D02*
D03*
D180*
X561543Y395401D02*
D03*
X559575D02*
D03*
X557606D02*
D03*
X555638D02*
D03*
X553669D02*
D03*
X551701D02*
D03*
X549732D02*
D03*
X547764D02*
D03*
X545795D02*
D03*
X543827D02*
D03*
X541858D02*
D03*
X539890D02*
D03*
X537921D02*
D03*
X535953D02*
D03*
X533984D02*
D03*
X532016D02*
D03*
X530047D02*
D03*
X528079D02*
D03*
X526110D02*
D03*
X524142D02*
D03*
X522173D02*
D03*
X520205D02*
D03*
X518236D02*
D03*
X516268D02*
D03*
X514299D02*
D03*
Y456425D02*
D03*
X516268D02*
D03*
X518236D02*
D03*
X520205D02*
D03*
X522173D02*
D03*
X524142D02*
D03*
X526110D02*
D03*
X528079D02*
D03*
X530047D02*
D03*
X532016D02*
D03*
X533984D02*
D03*
X535953D02*
D03*
X537921D02*
D03*
X539890D02*
D03*
X541858D02*
D03*
X543827D02*
D03*
X545795D02*
D03*
X547764D02*
D03*
X549732D02*
D03*
X551701D02*
D03*
X553669D02*
D03*
X555638D02*
D03*
X557606D02*
D03*
X559575D02*
D03*
X561543D02*
D03*
D181*
X576912Y639551D02*
D03*
Y647031D02*
D03*
X567660Y643291D02*
D03*
X444200Y609148D02*
D03*
Y616629D02*
D03*
X434948Y612888D02*
D03*
X215350Y453552D02*
D03*
Y446071D02*
D03*
X224602Y449812D02*
D03*
D182*
X460814Y330234D02*
D03*
X455105D02*
D03*
X460814Y337123D02*
D03*
X455105D02*
D03*
D183*
X500597Y600651D02*
D03*
X502565D02*
D03*
X504534D02*
D03*
Y607541D02*
D03*
X502565D02*
D03*
X500597D02*
D03*
X236762Y462549D02*
D03*
X234793D02*
D03*
X232825D02*
D03*
Y469438D02*
D03*
X234793D02*
D03*
X236762D02*
D03*
D184*
X491165Y435992D02*
D03*
Y442685D02*
D03*
X958317Y796156D02*
D03*
Y789465D02*
D03*
X368051Y350632D02*
D03*
X368051Y357323D02*
D03*
D185*
X230666Y673353D02*
D03*
Y671384D02*
D03*
Y669416D02*
D03*
X224957D02*
D03*
Y671384D02*
D03*
X224957Y673353D02*
D03*
X251214Y670084D02*
D03*
X251213Y672053D02*
D03*
Y674021D02*
D03*
X245504D02*
D03*
X245505Y672053D02*
D03*
Y670084D02*
D03*
D186*
X253272Y471673D02*
D03*
D187*
X208480Y453395D02*
D03*
Y447094D02*
D03*
X583704Y639693D02*
D03*
Y645992D02*
D03*
X449695Y609050D02*
D03*
Y615350D02*
D03*
D188*
X480984Y297622D02*
D03*
Y300181D02*
D03*
Y302740D02*
D03*
X487284D02*
D03*
Y300181D02*
D03*
Y297622D02*
D03*
D189*
X355481Y344262D02*
D03*
D190*
X316787Y692449D02*
D03*
X311275D02*
D03*
X311284Y698213D02*
D03*
X316796D02*
D03*
X1193803Y302331D02*
D03*
X1199315D02*
D03*
X1193803Y326441D02*
D03*
X1199315D02*
D03*
X1193803Y310366D02*
D03*
X1199315D02*
D03*
X549162Y643156D02*
D03*
X543650D02*
D03*
X594925Y639747D02*
D03*
X589414D02*
D03*
X511874Y506996D02*
D03*
X506362D02*
D03*
X460917Y608732D02*
D03*
X455405D02*
D03*
X214029Y435952D02*
D03*
X208517Y435952D02*
D03*
X91486Y548970D02*
D03*
X96998Y548969D02*
D03*
X117570Y419300D02*
D03*
X112058D02*
D03*
X264163Y342897D02*
D03*
X258651D02*
D03*
X264163Y348212D02*
D03*
X258651D02*
D03*
X742946Y270943D02*
D03*
X737434Y270943D02*
D03*
D191*
X244033Y493212D02*
D03*
Y496558D02*
D03*
X248561Y493212D02*
D03*
Y496558D02*
D03*
X253100Y493212D02*
D03*
Y496558D02*
D03*
X257709Y493212D02*
D03*
Y496558D02*
D03*
X262344Y493212D02*
D03*
Y496558D02*
D03*
X266872Y493212D02*
D03*
Y496558D02*
D03*
X531989Y468950D02*
D03*
X531988Y465603D02*
D03*
X542450Y378724D02*
D03*
X542449Y375378D02*
D03*
X546979Y378724D02*
D03*
X546980Y375378D02*
D03*
X533393Y378724D02*
D03*
X533394Y375378D02*
D03*
X537922Y378724D02*
D03*
X537921Y375378D02*
D03*
X524294Y378724D02*
D03*
X524295Y375378D02*
D03*
X528865Y378724D02*
D03*
X528866Y375378D02*
D03*
X514802Y378724D02*
D03*
X514803Y375378D02*
D03*
X519612Y378724D02*
D03*
X519610Y375378D02*
D03*
X505705Y378724D02*
D03*
X505705Y375378D02*
D03*
X510234Y378724D02*
D03*
X510232Y375378D02*
D03*
D192*
X56485Y671150D02*
D03*
Y673709D02*
D03*
X56486Y676268D02*
D03*
X63967D02*
D03*
X63965Y673709D02*
D03*
Y671150D02*
D03*
X75104D02*
D03*
Y673709D02*
D03*
X75102Y676268D02*
D03*
X82583D02*
D03*
X82584Y673709D02*
D03*
Y671150D02*
D03*
X147250D02*
D03*
Y673709D02*
D03*
X147248Y676268D02*
D03*
X154728D02*
D03*
X154730Y673709D02*
D03*
Y671150D02*
D03*
X129017D02*
D03*
Y673709D02*
D03*
X129016Y676268D02*
D03*
X136496D02*
D03*
X136497Y673709D02*
D03*
Y671150D02*
D03*
X265567Y670066D02*
D03*
X265565Y672625D02*
D03*
Y675185D02*
D03*
X273046D02*
D03*
Y672625D02*
D03*
X273047Y670066D02*
D03*
X188079Y670528D02*
D03*
X188078Y673087D02*
D03*
Y675646D02*
D03*
X195558D02*
D03*
X195559Y673087D02*
D03*
X195558Y670528D02*
D03*
X38461Y671150D02*
D03*
Y673709D02*
D03*
Y676267D02*
D03*
X45941Y676268D02*
D03*
Y673709D02*
D03*
Y671149D02*
D03*
X93858Y671150D02*
D03*
X93859Y673709D02*
D03*
X93858Y676268D02*
D03*
X101339D02*
D03*
X101340Y673709D02*
D03*
X101339Y671150D02*
D03*
X169304D02*
D03*
Y673709D02*
D03*
X169303Y676268D02*
D03*
X176784D02*
D03*
X176784Y673709D02*
D03*
Y671150D02*
D03*
X119943D02*
D03*
Y673709D02*
D03*
X119941Y676268D02*
D03*
X112461D02*
D03*
X112462Y673709D02*
D03*
Y671150D02*
D03*
D193*
X310324Y733591D02*
D03*
X316033Y733591D02*
D03*
X321365D02*
D03*
X327073Y733591D02*
D03*
D194*
X1121066Y738968D02*
D03*
X1128547D02*
D03*
X1124806Y749401D02*
D03*
X1135937Y738968D02*
D03*
X1143418D02*
D03*
X1139678Y749401D02*
D03*
X1150809Y738968D02*
D03*
X1158289D02*
D03*
X1154549Y749401D02*
D03*
X1165966Y738968D02*
D03*
X1173446Y738968D02*
D03*
X1169706Y749401D02*
D03*
D195*
X509968Y529043D02*
D03*
X503668D02*
D03*
D196*
X509910Y522251D02*
D03*
X502429D02*
D03*
X506169Y512999D02*
D03*
D197*
X468804Y638148D02*
D03*
X478489D02*
D03*
X468803Y622004D02*
D03*
X478489Y622006D02*
D03*
D198*
X493719Y633152D02*
D03*
X499822D02*
D03*
D199*
X878049Y762953D02*
D03*
X871750D02*
D03*
X878049Y770718D02*
D03*
X871750Y770716D02*
D03*
D200*
X1048999Y728506D02*
D03*
Y722797D02*
D03*
X1042108Y728506D02*
D03*
Y722797D02*
D03*
D201*
X319011Y373823D02*
D03*
Y371854D02*
D03*
Y369886D02*
D03*
X325901Y369886D02*
D03*
Y371854D02*
D03*
Y373823D02*
D03*
D202*
X20833Y239325D02*
X20940Y239432D01*
D203*
X604897Y716962D02*
D03*
D204*
X341897D02*
D03*
D205*
X1202575Y614468D02*
D03*
Y597932D02*
D03*
D206*
X1201000Y623900D02*
D03*
Y588500D02*
D03*
X1218500Y585700D02*
D03*
Y626700D02*
D03*
D207*
X433400Y397700D02*
D03*
X207100Y561800D02*
D03*
X91360Y345079D02*
D03*
X178142Y637269D02*
D03*
X141682Y591366D02*
D03*
X177790Y557027D02*
D03*
X182149Y323063D02*
D03*
X91665Y621253D02*
D03*
X545560Y350029D02*
D03*
X546943Y305318D02*
D03*
X532147Y282295D02*
D03*
X804682Y380464D02*
D03*
X919713Y526475D02*
D03*
X336538Y463083D02*
D03*
X129467Y472724D02*
D03*
X524242Y651005D02*
D03*
X518821Y539966D02*
D03*
X437945Y538061D02*
D03*
X428190Y593297D02*
D03*
X915836Y449698D02*
D03*
X958787Y297583D02*
D03*
X911238Y361504D02*
D03*
X1205202Y656015D02*
D03*
Y720385D02*
D03*
D208*
X1074500Y126000D02*
D03*
X1153100D02*
D03*
D209*
X1064500D02*
D03*
X1054500D02*
D03*
X1044500D02*
D03*
X1034500D02*
D03*
X1024500D02*
D03*
X1014500D02*
D03*
X1143100D02*
D03*
X1133100D02*
D03*
X1123100D02*
D03*
X1113100D02*
D03*
X1103100D02*
D03*
D210*
X60000Y814961D02*
D03*
D211*
Y824961D02*
D03*
X70000Y814961D02*
D03*
Y824961D02*
D03*
X80000Y814961D02*
D03*
Y824961D02*
D03*
X90000Y814961D02*
D03*
Y824961D02*
D03*
X100000Y814961D02*
D03*
Y824961D02*
D03*
X110000Y814961D02*
D03*
Y824961D02*
D03*
X120000Y814961D02*
D03*
Y824961D02*
D03*
X130000Y814961D02*
D03*
Y824961D02*
D03*
X140000Y814961D02*
D03*
Y824961D02*
D03*
X150000Y814961D02*
D03*
Y824961D02*
D03*
X160000Y814961D02*
D03*
Y824961D02*
D03*
X170000Y814961D02*
D03*
Y824961D02*
D03*
X180000Y814961D02*
D03*
Y824961D02*
D03*
X190000Y814961D02*
D03*
Y824961D02*
D03*
X200000Y814961D02*
D03*
Y824961D02*
D03*
X210000Y814961D02*
D03*
Y824961D02*
D03*
X220000Y814961D02*
D03*
Y824961D02*
D03*
X230000Y814961D02*
D03*
Y824961D02*
D03*
X240000Y814961D02*
D03*
Y824961D02*
D03*
X250000Y814961D02*
D03*
Y824961D02*
D03*
X260000Y814961D02*
D03*
Y824961D02*
D03*
X270000Y814961D02*
D03*
Y824961D02*
D03*
D212*
X886744Y834943D02*
D03*
X917256D02*
D03*
D213*
X887335Y819983D02*
D03*
X916665D02*
D03*
D214*
X911843Y824117D02*
D03*
X892157D02*
D03*
D215*
X1179322Y412395D02*
D03*
Y428931D02*
D03*
Y445466D02*
D03*
Y462002D02*
D03*
X1157669Y462002D02*
D03*
Y445466D02*
D03*
Y428931D02*
D03*
Y412395D02*
D03*
D216*
X665932Y810115D02*
D03*
Y770745D02*
D03*
D217*
X1122683Y696172D02*
D03*
Y704164D02*
D03*
X1132683Y700188D02*
D03*
Y692196D02*
D03*
X1122683Y680227D02*
D03*
X1132683Y668219D02*
D03*
Y676212D02*
D03*
Y684204D02*
D03*
X1122683Y664243D02*
D03*
Y712156D02*
D03*
Y672235D02*
D03*
D218*
X1156440Y773766D02*
D03*
X1209870Y129472D02*
D03*
X27372D02*
D03*
X27516Y790665D02*
D03*
X1211780Y788624D02*
D03*
D219*
X1175798Y246044D02*
D03*
X1175357Y231440D02*
D03*
X1185200D02*
D03*
X1185641Y245822D02*
D03*
D220*
X678324Y326588D02*
D03*
X668324D02*
D03*
X678248Y295909D02*
D03*
X668248D02*
D03*
X678236Y310559D02*
D03*
X668236D02*
D03*
X1050275Y761548D02*
D03*
X1040275D02*
D03*
X1030812Y761636D02*
D03*
X1020812D02*
D03*
D221*
X1132683Y708180D02*
D03*
D222*
X1112683Y664105D02*
D03*
Y712294D02*
D03*
Y674105D02*
D03*
Y702294D02*
D03*
D223*
X1192683Y663200D02*
D03*
Y713200D02*
D03*
D224*
X423613Y298888D02*
D03*
X420513D02*
D03*
X423613Y301988D02*
D03*
X420513D02*
D03*
X495556Y203690D02*
D03*
Y206790D02*
D03*
X498656Y203690D02*
D03*
Y206790D02*
D03*
X395324Y203690D02*
D03*
Y206790D02*
D03*
X398424Y203690D02*
D03*
Y206790D02*
D03*
X444804Y203690D02*
D03*
Y206790D02*
D03*
X447904Y203690D02*
D03*
Y206790D02*
D03*
X345017Y203690D02*
D03*
Y206790D02*
D03*
X348117Y203690D02*
D03*
Y206790D02*
D03*
X294926Y203690D02*
D03*
Y206790D02*
D03*
X298026Y203690D02*
D03*
Y206790D02*
D03*
X244911Y203690D02*
D03*
Y206790D02*
D03*
X248011Y203690D02*
D03*
Y206790D02*
D03*
X193966Y203690D02*
D03*
Y206790D02*
D03*
X197066Y203690D02*
D03*
Y206790D02*
D03*
X144091Y203690D02*
D03*
Y206790D02*
D03*
X147191Y203690D02*
D03*
Y206790D02*
D03*
D225*
X21503Y708467D02*
D03*
Y713467D02*
D03*
D226*
X297805Y716512D02*
D03*
X307803D02*
D03*
X317803D02*
D03*
D227*
X240750Y446968D02*
D03*
X237200Y443099D02*
D03*
X238154Y458624D02*
D03*
X247000Y413933D02*
D03*
Y417269D02*
D03*
X276913Y417269D02*
D03*
Y413933D02*
D03*
X233300Y441000D02*
D03*
X251900Y454332D02*
D03*
X249487Y457758D02*
D03*
X252287Y458745D02*
D03*
X443200Y572000D02*
D03*
Y567800D02*
D03*
X453159Y575422D02*
D03*
X449847Y572000D02*
D03*
X320500Y462100D02*
D03*
Y467800D02*
D03*
X282200Y462100D02*
D03*
X291300D02*
D03*
Y469800D02*
D03*
X310300Y467800D02*
D03*
Y462100D02*
D03*
X303800D02*
D03*
Y467800D02*
D03*
X259000Y458551D02*
D03*
X727500Y662400D02*
D03*
X721741Y661559D02*
D03*
X772787Y691000D02*
D03*
X769000D02*
D03*
X769300Y721400D02*
D03*
X931900Y488200D02*
D03*
X908100Y489000D02*
D03*
X912000Y491900D02*
D03*
X915500D02*
D03*
X913300Y486866D02*
D03*
X915200Y509600D02*
D03*
X918600D02*
D03*
X915200Y498700D02*
D03*
X918700Y497331D02*
D03*
X936100Y478700D02*
D03*
X937219Y464700D02*
D03*
X939100Y468200D02*
D03*
X978400Y467600D02*
D03*
X954000Y492300D02*
D03*
X990700Y489800D02*
D03*
X991800Y485819D02*
D03*
X949300Y464900D02*
D03*
X772500Y756300D02*
D03*
X788480Y773900D02*
D03*
X776900Y772100D02*
D03*
X730202Y714739D02*
D03*
X739878Y702091D02*
D03*
X759468Y750200D02*
D03*
X754868D02*
D03*
X751500Y781400D02*
D03*
X578700Y626400D02*
D03*
X574375D02*
D03*
X544336Y627926D02*
D03*
X506213Y647705D02*
D03*
X501673Y644425D02*
D03*
X369600Y344260D02*
D03*
X713386Y770866D02*
D03*
X694108Y797815D02*
D03*
X717717Y770866D02*
D03*
X748151Y765047D02*
D03*
X739370Y770866D02*
D03*
X699795Y758816D02*
D03*
X709055Y770866D02*
D03*
X759150Y797890D02*
D03*
X753838Y758726D02*
D03*
X722047Y770866D02*
D03*
X699795Y791494D02*
D03*
X759060Y765122D02*
D03*
X705017Y797890D02*
D03*
X730709Y770866D02*
D03*
X705017Y765212D02*
D03*
X735039Y770866D02*
D03*
X694108Y765138D02*
D03*
X748242Y797815D02*
D03*
X753929Y791494D02*
D03*
X529021Y691346D02*
D03*
X593878Y740256D02*
D03*
X568828Y685958D02*
D03*
X350590Y739292D02*
D03*
X489076Y722953D02*
D03*
X459244Y738795D02*
D03*
X476935Y691339D02*
D03*
X538370Y694500D02*
D03*
X576138Y694787D02*
D03*
X377730Y691339D02*
D03*
X517815Y707382D02*
D03*
X587500Y693755D02*
D03*
X500886Y722953D02*
D03*
X523016Y739292D02*
D03*
X375368Y688189D02*
D03*
X586791Y739045D02*
D03*
X363583Y694648D02*
D03*
X453315Y691339D02*
D03*
X524197Y706495D02*
D03*
X534827Y738795D02*
D03*
X384816Y691339D02*
D03*
X368307Y688189D02*
D03*
X500557Y694736D02*
D03*
X365945Y707695D02*
D03*
X511209Y738795D02*
D03*
X371850Y739292D02*
D03*
X441504Y691339D02*
D03*
X565535Y739292D02*
D03*
X505369Y694736D02*
D03*
X364764Y739292D02*
D03*
X570750Y690945D02*
D03*
X357677Y739292D02*
D03*
X382454Y688189D02*
D03*
X591125Y693755D02*
D03*
X549000Y745253D02*
D03*
X481681Y707294D02*
D03*
X380114Y694744D02*
D03*
X424996Y694736D02*
D03*
X378933Y739292D02*
D03*
X487587Y738795D02*
D03*
X521098Y727100D02*
D03*
X480500Y739292D02*
D03*
X432059Y688189D02*
D03*
X565000Y693767D02*
D03*
X427335Y688189D02*
D03*
X506843Y709842D02*
D03*
X509665Y726575D02*
D03*
X561375Y693767D02*
D03*
X574375Y690945D02*
D03*
X370644Y691339D02*
D03*
X581500Y688976D02*
D03*
X373028Y694744D02*
D03*
X577875Y688976D02*
D03*
X447433Y739292D02*
D03*
X386020D02*
D03*
X517815Y727100D02*
D03*
X497835Y726575D02*
D03*
X387201Y694744D02*
D03*
X389540Y688189D02*
D03*
X391989Y691339D02*
D03*
X393106Y739292D02*
D03*
X394287Y694744D02*
D03*
X395485Y726989D02*
D03*
X487696Y691195D02*
D03*
X417909Y706952D02*
D03*
X423815Y739292D02*
D03*
X510772Y709842D02*
D03*
X495831Y691339D02*
D03*
X512390Y694986D02*
D03*
X559630Y706733D02*
D03*
X460425Y706635D02*
D03*
X429697Y691339D02*
D03*
X524400Y723927D02*
D03*
X443866Y688189D02*
D03*
X458039Y691339D02*
D03*
X446228D02*
D03*
X540732Y691374D02*
D03*
X466331Y739292D02*
D03*
X434441Y691339D02*
D03*
X531284Y694500D02*
D03*
X435622Y738795D02*
D03*
X436803Y706544D02*
D03*
X498193Y688189D02*
D03*
X439142D02*
D03*
X469850Y691339D02*
D03*
X486054Y726575D02*
D03*
X531800Y727300D02*
D03*
X513779Y707382D02*
D03*
X502739Y691339D02*
D03*
X533646Y691374D02*
D03*
X543094Y694500D02*
D03*
X448614Y706913D02*
D03*
X450953Y688189D02*
D03*
X488768Y706635D02*
D03*
X545457Y691374D02*
D03*
X473417Y738795D02*
D03*
X455677Y688189D02*
D03*
X499398Y739292D02*
D03*
X505630Y726575D02*
D03*
X522638Y711614D02*
D03*
X589153Y741933D02*
D03*
X482019Y726575D02*
D03*
X546638Y739292D02*
D03*
X472211Y688189D02*
D03*
X547819Y694500D02*
D03*
X474598Y706634D02*
D03*
X479297Y688189D02*
D03*
X484045Y693317D02*
D03*
X493799Y726575D02*
D03*
X526600Y725900D02*
D03*
X493111Y722953D02*
D03*
X593862Y691293D02*
D03*
X504921Y722953D02*
D03*
X518602Y711614D02*
D03*
X574980Y739292D02*
D03*
X591496Y727715D02*
D03*
X566675Y688917D02*
D03*
X536008Y706292D02*
D03*
X531008Y724644D02*
D03*
X727500Y688600D02*
D03*
X194043Y760800D02*
D03*
X1156111Y628800D02*
D03*
X1156100Y625300D02*
D03*
X1156111Y621100D02*
D03*
Y617900D02*
D03*
X1144100Y592800D02*
D03*
Y589700D02*
D03*
X1170406Y581827D02*
D03*
X1169940Y584700D02*
D03*
X426329Y545508D02*
D03*
X429580Y548481D02*
D03*
X275492Y351544D02*
D03*
X974214Y716487D02*
D03*
X1064645Y596231D02*
D03*
X899625Y768533D02*
D03*
X984164Y747997D02*
D03*
X864837Y826161D02*
D03*
X964820Y755318D02*
D03*
X1086179Y625743D02*
D03*
X1071425Y642259D02*
D03*
X1099831Y653794D02*
D03*
X1133507Y617900D02*
D03*
X1114700Y588200D02*
D03*
X1133507Y588175D02*
D03*
X529397Y578539D02*
D03*
X545058Y580044D02*
D03*
X526146Y575566D02*
D03*
X1039872Y565826D02*
D03*
X1086179D02*
D03*
X1114700Y617900D02*
D03*
X868143Y609962D02*
D03*
X835354Y612720D02*
D03*
X928060Y609962D02*
D03*
X1139100Y441714D02*
D03*
X125400Y749100D02*
D03*
X52900Y747900D02*
D03*
X1059600Y149536D02*
D03*
X1138200Y150000D02*
D03*
X176043Y778138D02*
D03*
X171054Y788835D02*
D03*
X160648Y774979D02*
D03*
X154913Y785634D02*
D03*
X139172Y788175D02*
D03*
X144466Y778172D02*
D03*
X128608Y775440D02*
D03*
X123626Y785653D02*
D03*
X113801Y778161D02*
D03*
X108450Y788175D02*
D03*
X97615Y774803D02*
D03*
X92327Y785653D02*
D03*
X81190Y778146D02*
D03*
X76560Y788374D02*
D03*
X60783Y785626D02*
D03*
X65982Y775252D02*
D03*
X682905Y686400D02*
D03*
X711659Y689681D02*
D03*
X542000Y653148D02*
D03*
X559630D02*
D03*
X579258Y653340D02*
D03*
X664936Y689681D02*
D03*
X645150Y679300D02*
D03*
X584700Y684000D02*
D03*
X553800D02*
D03*
X545030Y673415D02*
D03*
Y678315D02*
D03*
X559630D02*
D03*
Y673415D02*
D03*
X648100Y659093D02*
D03*
Y663993D02*
D03*
X662700D02*
D03*
Y659093D02*
D03*
X579258Y659293D02*
D03*
Y664193D02*
D03*
X599634Y663993D02*
D03*
Y659093D02*
D03*
X559630Y659100D02*
D03*
Y664000D02*
D03*
X542000D02*
D03*
Y659100D02*
D03*
X489953Y152950D02*
D03*
X671400Y699546D02*
D03*
X675200Y696400D02*
D03*
X709055Y702716D02*
D03*
X239335Y152948D02*
D03*
X743227Y743808D02*
D03*
X739200Y740800D02*
D03*
X741552Y759283D02*
D03*
X737268D02*
D03*
X741552Y766808D02*
D03*
X739200Y720176D02*
D03*
X732900Y766808D02*
D03*
X737268D02*
D03*
X710800Y767500D02*
D03*
X709055Y751660D02*
D03*
X717096Y727268D02*
D03*
X725266Y720176D02*
D03*
X717717D02*
D03*
X714146Y717354D02*
D03*
X717717Y760023D02*
D03*
X728900Y723206D02*
D03*
X726417Y728452D02*
D03*
X734000Y721400D02*
D03*
X731434Y728452D02*
D03*
X726500Y760007D02*
D03*
X727739Y716146D02*
D03*
X733217Y711843D02*
D03*
X735969Y747244D02*
D03*
X735189Y739764D02*
D03*
X740122Y707594D02*
D03*
X716457Y747244D02*
D03*
Y739764D02*
D03*
X737402Y709673D02*
D03*
X624058Y733079D02*
D03*
X1063577Y208221D02*
D03*
X349744Y675479D02*
D03*
X345950Y682171D02*
D03*
X195345Y139921D02*
D03*
X917300Y707300D02*
D03*
X930500Y698700D02*
D03*
Y694300D02*
D03*
X293594Y188776D02*
D03*
X180400Y591273D02*
D03*
X176936Y594700D02*
D03*
X175802Y588194D02*
D03*
X183900Y594661D02*
D03*
X235693Y699326D02*
D03*
X231801Y702736D02*
D03*
X221700Y563200D02*
D03*
X226912D02*
D03*
X232416D02*
D03*
X180400Y594700D02*
D03*
X181889Y610979D02*
D03*
X1055412Y211506D02*
D03*
X1134139Y216395D02*
D03*
X1142362Y213196D02*
D03*
X264542Y634713D02*
D03*
X236700Y617477D02*
D03*
X232900D02*
D03*
X229101D02*
D03*
X224632Y611398D02*
D03*
X276552Y669955D02*
D03*
X244144Y611398D02*
D03*
X240577Y617477D02*
D03*
X250750Y651440D02*
D03*
X905237Y731102D02*
D03*
X908780D02*
D03*
X899677Y758203D02*
D03*
X790946Y692344D02*
D03*
X718909Y690299D02*
D03*
X908516Y693141D02*
D03*
X777167Y694621D02*
D03*
X781174Y694660D02*
D03*
X731224Y696235D02*
D03*
X904575Y696325D02*
D03*
X737953Y678712D02*
D03*
X82590Y750522D02*
D03*
X424377Y706976D02*
D03*
X295826Y698213D02*
D03*
X321900D02*
D03*
X295826Y692500D02*
D03*
X439747Y490578D02*
D03*
X255997Y699326D02*
D03*
X241044D02*
D03*
X433606Y506586D02*
D03*
X439090Y501768D02*
D03*
X252066Y702736D02*
D03*
X244970D02*
D03*
X206953Y184979D02*
D03*
X145963Y139921D02*
D03*
X353227Y709334D02*
D03*
X317265Y767132D02*
D03*
X301352Y766276D02*
D03*
X269143Y767052D02*
D03*
X291612Y781952D02*
D03*
X283207Y767638D02*
D03*
X301352Y781922D02*
D03*
X290432Y767557D02*
D03*
X118646Y610979D02*
D03*
X649873Y774702D02*
D03*
X899809Y752084D02*
D03*
X708193Y681200D02*
D03*
X712900D02*
D03*
X343229Y188776D02*
D03*
X623623Y658893D02*
D03*
X621415Y653340D02*
D03*
X715043Y661559D02*
D03*
X604911Y707279D02*
D03*
X597723Y707382D02*
D03*
X896881Y814507D02*
D03*
X1159184Y235061D02*
D03*
X1153355Y241493D02*
D03*
X681991Y766808D02*
D03*
Y774682D02*
D03*
X538724Y748256D02*
D03*
X603904Y749535D02*
D03*
X609875D02*
D03*
X624058Y807709D02*
D03*
X637882Y784284D02*
D03*
X612453Y707279D02*
D03*
X509047Y661995D02*
D03*
X521098Y677939D02*
D03*
X616615Y685552D02*
D03*
X634178Y673944D02*
D03*
X324737Y636197D02*
D03*
X489248Y548086D02*
D03*
X430475Y175857D02*
D03*
X219749Y323445D02*
D03*
X213386Y473802D02*
D03*
Y483091D02*
D03*
Y478950D02*
D03*
X254165Y766276D02*
D03*
X442110Y188890D02*
D03*
X393213Y188850D02*
D03*
X490958Y621145D02*
D03*
X344966Y752425D02*
D03*
X352396D02*
D03*
X338620D02*
D03*
X170205Y745736D02*
D03*
X165274Y755582D02*
D03*
X156196Y754468D02*
D03*
X132588Y733287D02*
D03*
X119753Y739683D02*
D03*
X88717Y750801D02*
D03*
X91994Y741068D02*
D03*
X58031Y733286D02*
D03*
X45194Y739681D02*
D03*
X295510Y354712D02*
D03*
X287106Y358889D02*
D03*
X255556Y342897D02*
D03*
X242282Y348125D02*
D03*
X284998Y339009D02*
D03*
X295492Y358818D02*
D03*
X107458Y626242D02*
D03*
X104285Y622464D02*
D03*
X297370Y431106D02*
D03*
X260234Y423494D02*
D03*
X255866D02*
D03*
X267171Y438260D02*
D03*
X249487D02*
D03*
X267885Y446416D02*
D03*
X341788Y368702D02*
D03*
X344500Y365800D02*
D03*
X488700Y124700D02*
D03*
X522700D02*
D03*
X438000D02*
D03*
X472000D02*
D03*
X388500D02*
D03*
X422500D02*
D03*
X338100D02*
D03*
X372100D02*
D03*
X288200D02*
D03*
X322200D02*
D03*
X238000D02*
D03*
X272000D02*
D03*
X187500D02*
D03*
X221000D02*
D03*
X335590Y442722D02*
D03*
X339013Y445492D02*
D03*
X283521Y433340D02*
D03*
X334862Y378827D02*
D03*
X350693Y426206D02*
D03*
X240167Y333518D02*
D03*
X345972Y711008D02*
D03*
X337992D02*
D03*
X366011Y684957D02*
D03*
X408136Y300468D02*
D03*
X141304Y130707D02*
D03*
X190686D02*
D03*
X241882D02*
D03*
X246542Y139921D02*
D03*
X292093Y130707D02*
D03*
X296753Y139921D02*
D03*
X342166Y130707D02*
D03*
X346826Y139921D02*
D03*
X492701Y130707D02*
D03*
X497361Y139921D02*
D03*
X441603Y130707D02*
D03*
X446263Y139921D02*
D03*
X392392Y130707D02*
D03*
X397051Y139921D02*
D03*
X171100Y124700D02*
D03*
X172824Y405553D02*
D03*
X335815Y360890D02*
D03*
X831767Y649254D02*
D03*
X767460Y649029D02*
D03*
X903942Y288954D02*
D03*
X908818Y289280D02*
D03*
X904376Y295565D02*
D03*
X906002Y312578D02*
D03*
X906219Y319622D02*
D03*
X1063598Y263520D02*
D03*
X913262Y309761D02*
D03*
X919094Y299946D02*
D03*
X918810Y304498D02*
D03*
X919094Y309476D02*
D03*
X1053598Y339796D02*
D03*
X1075547Y498550D02*
D03*
X1055978Y488787D02*
D03*
X1059697Y484838D02*
D03*
X909609Y734130D02*
D03*
X903650D02*
D03*
X923645Y296341D02*
D03*
Y309333D02*
D03*
Y300278D02*
D03*
Y304699D02*
D03*
X929577Y296297D02*
D03*
Y309289D02*
D03*
Y300234D02*
D03*
Y304656D02*
D03*
X470074Y548900D02*
D03*
X483651Y599234D02*
D03*
X466165Y612305D02*
D03*
X500557Y557776D02*
D03*
X545731Y448242D02*
D03*
X553605Y450857D02*
D03*
X547699Y450779D02*
D03*
X543762Y450827D02*
D03*
X945250Y553177D02*
D03*
X937326Y558421D02*
D03*
X914485Y553316D02*
D03*
X922408Y558348D02*
D03*
X769413Y390145D02*
D03*
X781252Y387528D02*
D03*
X796122D02*
D03*
X928996Y419574D02*
D03*
X943950D02*
D03*
X951873Y424605D02*
D03*
X921072Y424818D02*
D03*
X938830Y416135D02*
D03*
X923876D02*
D03*
X915953Y411104D02*
D03*
X946754Y410891D02*
D03*
X940457Y329331D02*
D03*
X909655Y329543D02*
D03*
X917579Y334575D02*
D03*
X433606Y528806D02*
D03*
X342085Y556694D02*
D03*
X347776Y565535D02*
D03*
X335886D02*
D03*
X156319Y601850D02*
D03*
X153579Y591110D02*
D03*
Y606087D02*
D03*
X355169Y328449D02*
D03*
X269213Y374753D02*
D03*
X259925Y377429D02*
D03*
X276913Y374209D02*
D03*
X283803D02*
D03*
X308831Y338606D02*
D03*
Y357039D02*
D03*
Y342154D02*
D03*
X265669Y470634D02*
D03*
X248350Y484094D02*
D03*
X449847Y561776D02*
D03*
X445820Y580228D02*
D03*
X638867Y641421D02*
D03*
X543097Y561887D02*
D03*
X413269Y560910D02*
D03*
X1012732Y781930D02*
D03*
X354977Y353804D02*
D03*
X336008Y335854D02*
D03*
X17795Y252153D02*
D03*
X815136Y655219D02*
D03*
X750167Y655260D02*
D03*
X755133Y630878D02*
D03*
X763957Y625839D02*
D03*
X808311Y612720D02*
D03*
X819878Y631190D02*
D03*
X711807Y707064D02*
D03*
X914873Y719169D02*
D03*
X914162Y711417D02*
D03*
X912453Y701784D02*
D03*
X907827Y707051D02*
D03*
X891168Y717315D02*
D03*
X915216Y726202D02*
D03*
X539347Y260633D02*
D03*
X557166Y259677D02*
D03*
X575360Y331244D02*
D03*
X366549Y449031D02*
D03*
X143374Y366709D02*
D03*
X106097Y492410D02*
D03*
X124511Y480350D02*
D03*
X1055040Y738706D02*
D03*
X502034Y191984D02*
D03*
X450770Y192169D02*
D03*
X401290Y192083D02*
D03*
X557287Y311417D02*
D03*
X584808Y296665D02*
D03*
X389366Y323929D02*
D03*
X404492D02*
D03*
X419614D02*
D03*
X449862Y323943D02*
D03*
X434740Y323929D02*
D03*
X368476Y322776D02*
D03*
X359591Y323166D02*
D03*
X345075Y323251D02*
D03*
X486958Y589613D02*
D03*
X455847Y590868D02*
D03*
X463349Y586248D02*
D03*
X541858Y399753D02*
D03*
X563761Y420008D02*
D03*
X163912Y353380D02*
D03*
X801669Y215904D02*
D03*
X755053Y197845D02*
D03*
X746279Y295693D02*
D03*
Y288967D02*
D03*
Y325174D02*
D03*
X737374Y325355D02*
D03*
X738764Y295693D02*
D03*
X746279Y302976D02*
D03*
X737374D02*
D03*
X728154D02*
D03*
X746279Y311496D02*
D03*
X737374D02*
D03*
X728154D02*
D03*
X718047Y318425D02*
D03*
X737374D02*
D03*
X746279D02*
D03*
X728154D02*
D03*
X114465Y583306D02*
D03*
X114055Y599134D02*
D03*
X100737Y592306D02*
D03*
X89526Y599387D02*
D03*
X73257Y592223D02*
D03*
X59350Y600314D02*
D03*
X48323Y592087D02*
D03*
X34475Y600201D02*
D03*
X119071Y638254D02*
D03*
X105668Y633064D02*
D03*
X90292Y638584D02*
D03*
X77479Y632341D02*
D03*
X61775Y638912D02*
D03*
X50736Y632210D02*
D03*
X36279Y639305D02*
D03*
X278516Y300158D02*
D03*
X223756Y318155D02*
D03*
X233893Y339294D02*
D03*
X431028Y183429D02*
D03*
X320905Y159480D02*
D03*
X160929Y185161D02*
D03*
X231831Y192166D02*
D03*
X127988Y196661D02*
D03*
X499647Y220574D02*
D03*
X494740D02*
D03*
X448721D02*
D03*
X443902D02*
D03*
X399241D02*
D03*
X394421D02*
D03*
X348934D02*
D03*
X344114D02*
D03*
X298843D02*
D03*
X294024D02*
D03*
X248827D02*
D03*
X244008D02*
D03*
X197882D02*
D03*
X193063D02*
D03*
X147980D02*
D03*
X143228D02*
D03*
X1109293Y760999D02*
D03*
X487307Y295282D02*
D03*
X300693Y192172D02*
D03*
X150497Y192183D02*
D03*
X351305Y192111D02*
D03*
X251555Y192083D02*
D03*
X200638Y192168D02*
D03*
X314378Y360835D02*
D03*
X328476D02*
D03*
X335756Y347930D02*
D03*
Y342393D02*
D03*
Y353667D02*
D03*
X338907Y329654D02*
D03*
X737651Y521587D02*
D03*
X732969Y335419D02*
D03*
X701801Y360192D02*
D03*
X771459Y447664D02*
D03*
X779591Y447662D02*
D03*
X560520Y308491D02*
D03*
X414997Y219414D02*
D03*
X357890Y185913D02*
D03*
X313799Y159480D02*
D03*
X844611Y473862D02*
D03*
X652799Y364035D02*
D03*
X595194Y326715D02*
D03*
X590509D02*
D03*
X1004439Y263390D02*
D03*
X784694Y520169D02*
D03*
X780803Y609362D02*
D03*
X780798Y612999D02*
D03*
X178801Y347595D02*
D03*
X124339Y371550D02*
D03*
Y367472D02*
D03*
X129025Y371550D02*
D03*
Y362442D02*
D03*
Y367472D02*
D03*
X124339Y362442D02*
D03*
X160908Y347672D02*
D03*
X293017Y310484D02*
D03*
X284336Y477865D02*
D03*
X528965Y507008D02*
D03*
X346992Y461309D02*
D03*
X516232Y694133D02*
D03*
X466110Y706885D02*
D03*
X525871Y186131D02*
D03*
X471854Y189537D02*
D03*
X362630Y185913D02*
D03*
X371746Y185884D02*
D03*
X408878Y186307D02*
D03*
X413560D02*
D03*
X423110Y184912D02*
D03*
X415697Y159677D02*
D03*
X422799D02*
D03*
X371957Y159098D02*
D03*
X364905D02*
D03*
X320984Y185991D02*
D03*
X269197Y188776D02*
D03*
X217728Y190192D02*
D03*
X504247Y169456D02*
D03*
X499700D02*
D03*
Y164346D02*
D03*
X504247D02*
D03*
X453495Y169456D02*
D03*
X448948D02*
D03*
Y164346D02*
D03*
X453495D02*
D03*
X404042Y169456D02*
D03*
X399495D02*
D03*
Y164346D02*
D03*
X404042D02*
D03*
X353672Y169456D02*
D03*
X349125D02*
D03*
Y164346D02*
D03*
X353672D02*
D03*
X303688Y169456D02*
D03*
X299141D02*
D03*
Y164346D02*
D03*
X303688D02*
D03*
X253672Y169456D02*
D03*
X249125D02*
D03*
Y164346D02*
D03*
X253672D02*
D03*
X152854D02*
D03*
X148306D02*
D03*
Y169456D02*
D03*
X152854D02*
D03*
X170113Y162535D02*
D03*
X168003Y186174D02*
D03*
X351226Y310619D02*
D03*
X395241Y297125D02*
D03*
X451087Y356953D02*
D03*
X391732Y290152D02*
D03*
Y283351D02*
D03*
X808621Y717354D02*
D03*
X997781Y490106D02*
D03*
X846341Y722436D02*
D03*
X45181Y235658D02*
D03*
X40467Y225480D02*
D03*
X9404Y232016D02*
D03*
X17979Y225480D02*
D03*
X353364Y299654D02*
D03*
X344933Y310484D02*
D03*
X337393D02*
D03*
X330120D02*
D03*
X322778D02*
D03*
X315421D02*
D03*
X308361D02*
D03*
X300872D02*
D03*
X330955Y733510D02*
D03*
X114334Y185729D02*
D03*
X114275Y167902D02*
D03*
X204809Y435964D02*
D03*
X271824Y409628D02*
D03*
X940933Y715016D02*
D03*
X1067926Y259235D02*
D03*
X1085890Y269746D02*
D03*
X1082175Y265017D02*
D03*
X477968Y748062D02*
D03*
X487672Y754108D02*
D03*
X482066Y749703D02*
D03*
X534784Y752437D02*
D03*
X515697Y748317D02*
D03*
X511118Y752437D02*
D03*
X103279Y473924D02*
D03*
X106888Y470273D02*
D03*
X171646Y188850D02*
D03*
X352367Y367468D02*
D03*
X72783Y289894D02*
D03*
X88649Y270390D02*
D03*
X72807Y270350D02*
D03*
X72819Y179681D02*
D03*
X88761Y250772D02*
D03*
X95193D02*
D03*
X79287Y250641D02*
D03*
X72772Y250700D02*
D03*
X88714Y162628D02*
D03*
X95193Y162569D02*
D03*
X79219Y162357D02*
D03*
X72752Y162356D02*
D03*
X1012287Y482132D02*
D03*
X1008568Y485591D02*
D03*
X924738Y725833D02*
D03*
X928754Y722457D02*
D03*
X123214Y188823D02*
D03*
X234780Y455675D02*
D03*
X357298Y380900D02*
D03*
X485107Y443622D02*
D03*
X422709Y578626D02*
D03*
X904575Y701784D02*
D03*
X626861Y792248D02*
D03*
Y798299D02*
D03*
Y804802D02*
D03*
X549000Y764041D02*
D03*
X331589Y767638D02*
D03*
X167866Y615207D02*
D03*
X198158Y468222D02*
D03*
X189936Y500402D02*
D03*
X197080D02*
D03*
X222615D02*
D03*
X226912D02*
D03*
X231405D02*
D03*
X236457D02*
D03*
X280734Y444294D02*
D03*
X262315Y396067D02*
D03*
X234881Y466270D02*
D03*
X373529Y357323D02*
D03*
X477910Y300181D02*
D03*
X450664Y289465D02*
D03*
X492774Y188901D02*
D03*
X423709Y188843D02*
D03*
X242104Y188902D02*
D03*
X191790Y188872D02*
D03*
X211827Y160764D02*
D03*
X141827Y188835D02*
D03*
X102787Y314606D02*
D03*
X102855Y276748D02*
D03*
X114271Y256811D02*
D03*
X102779D02*
D03*
X102872Y238779D02*
D03*
X102752Y221941D02*
D03*
X102788Y204807D02*
D03*
X79270Y198571D02*
D03*
X72688D02*
D03*
X102773Y186251D02*
D03*
X102853Y169027D02*
D03*
X53682Y334921D02*
D03*
X726938Y743608D02*
D03*
X485067Y436162D02*
D03*
X501661Y448520D02*
D03*
X788620Y628399D02*
D03*
X340427Y580663D02*
D03*
X597147Y749535D02*
D03*
X465606Y347532D02*
D03*
X777146Y115457D02*
D03*
X916712Y181832D02*
D03*
X895903Y169992D02*
D03*
X879039Y128014D02*
D03*
X830246Y156358D02*
D03*
X830964Y117610D02*
D03*
X758132Y149183D02*
D03*
X642964Y170709D02*
D03*
X672025Y152412D02*
D03*
X669155Y115099D02*
D03*
X609598Y122633D02*
D03*
X580178Y143801D02*
D03*
X598117Y168198D02*
D03*
X737322Y136266D02*
D03*
X172257Y644988D02*
D03*
X150694D02*
D03*
X141942D02*
D03*
X132493D02*
D03*
X123804D02*
D03*
X115560D02*
D03*
X106491D02*
D03*
X98056D02*
D03*
X88606D02*
D03*
X79918D02*
D03*
X69517D02*
D03*
X60131D02*
D03*
X51633D02*
D03*
X41830D02*
D03*
X287599Y621926D02*
D03*
Y634413D02*
D03*
X255652Y587509D02*
D03*
X247115Y578037D02*
D03*
X204000Y548032D02*
D03*
X219169D02*
D03*
Y567096D02*
D03*
X238100Y563200D02*
D03*
X29250Y606189D02*
D03*
X80750D02*
D03*
X54621D02*
D03*
X32745Y570843D02*
D03*
X84245D02*
D03*
X58116D02*
D03*
X50291Y479112D02*
D03*
Y530611D02*
D03*
Y504483D02*
D03*
X28846Y483738D02*
D03*
Y535238D02*
D03*
Y509109D02*
D03*
Y453043D02*
D03*
X80347D02*
D03*
X50291D02*
D03*
X28846Y425290D02*
D03*
X80347D02*
D03*
X50291D02*
D03*
X28846Y399391D02*
D03*
X80347D02*
D03*
X50291D02*
D03*
X28846Y376486D02*
D03*
X80179Y376484D02*
D03*
X50291D02*
D03*
Y354248D02*
D03*
X79189Y339469D02*
D03*
X28846Y354248D02*
D03*
X118226Y269692D02*
D03*
X161103Y333209D02*
D03*
X266146Y294016D02*
D03*
Y303146D02*
D03*
X250185Y294016D02*
D03*
X235551D02*
D03*
Y303146D02*
D03*
X250185D02*
D03*
X490776Y382098D02*
D03*
X504776Y392845D02*
D03*
X565646Y374905D02*
D03*
X576649Y388162D02*
D03*
X581025Y405133D02*
D03*
X669555Y651488D02*
D03*
X678354Y640589D02*
D03*
X908661Y208451D02*
D03*
X924603Y129055D02*
D03*
X961799Y214389D02*
D03*
X431000Y409300D02*
D03*
X431244Y388100D02*
D03*
X443200Y399200D02*
D03*
X459779Y445704D02*
D03*
X736602Y568943D02*
D03*
X676685D02*
D03*
X802095Y525981D02*
D03*
X755788D02*
D03*
X861576Y762214D02*
D03*
X883109Y731047D02*
D03*
X797586Y748800D02*
D03*
X1020520Y656570D02*
D03*
X974214D02*
D03*
X1039872Y625743D02*
D03*
X868143Y563655D02*
D03*
X815861Y495396D02*
D03*
X844611Y520169D02*
D03*
X651699Y526010D02*
D03*
X682867Y501236D02*
D03*
X711617Y526010D02*
D03*
X802951Y265585D02*
D03*
Y311892D02*
D03*
X834119Y287119D02*
D03*
X862869Y311892D02*
D03*
X793974Y179744D02*
D03*
Y226051D02*
D03*
X825142Y201278D02*
D03*
X853892Y226051D02*
D03*
Y179744D02*
D03*
X766363Y360198D02*
D03*
X761719Y313885D02*
D03*
X763941Y231835D02*
D03*
Y278142D02*
D03*
X735191Y253369D02*
D03*
X597133Y312882D02*
D03*
X618035Y328276D02*
D03*
Y345961D02*
D03*
Y364035D02*
D03*
X601958D02*
D03*
X618035Y377878D02*
D03*
X633307Y396315D02*
D03*
Y377878D02*
D03*
Y364035D02*
D03*
Y345961D02*
D03*
Y328276D02*
D03*
Y312146D02*
D03*
Y233437D02*
D03*
Y248984D02*
D03*
X652799Y233437D02*
D03*
Y248984D02*
D03*
Y312146D02*
D03*
Y328276D02*
D03*
Y345961D02*
D03*
Y377878D02*
D03*
Y396315D02*
D03*
Y409008D02*
D03*
X667031Y233437D02*
D03*
Y248984D02*
D03*
X641873Y409008D02*
D03*
X549666Y372470D02*
D03*
X540001Y365912D02*
D03*
X535473D02*
D03*
X530946D02*
D03*
X526571Y365912D02*
D03*
X521690Y365912D02*
D03*
X516883D02*
D03*
X512312D02*
D03*
X507784D02*
D03*
X485483Y389755D02*
D03*
X478430Y404299D02*
D03*
X478657Y413891D02*
D03*
X478520Y423195D02*
D03*
X478670Y427980D02*
D03*
X138710Y149194D02*
D03*
X188366Y149114D02*
D03*
X239335Y156620D02*
D03*
X289405Y156481D02*
D03*
X339390Y156482D02*
D03*
X389760Y156481D02*
D03*
X439213Y156480D02*
D03*
X489953Y156482D02*
D03*
X478118Y289970D02*
D03*
X43098Y297721D02*
D03*
X46106Y304217D02*
D03*
Y312681D02*
D03*
X1143670Y461859D02*
D03*
Y445324D02*
D03*
Y428788D02*
D03*
Y412253D02*
D03*
X114312Y296963D02*
D03*
X102758Y296719D02*
D03*
X654181Y637338D02*
D03*
X912783Y737716D02*
D03*
X933006Y718692D02*
D03*
X576600Y623100D02*
D03*
X582300Y618300D02*
D03*
X580900Y622700D02*
D03*
X578100Y619300D02*
D03*
X492853Y694705D02*
D03*
X376965Y618931D02*
D03*
X431073Y633279D02*
D03*
X48276Y267642D02*
D03*
X788480Y781044D02*
D03*
X452104Y273389D02*
D03*
X446441Y273446D02*
D03*
X443646Y284757D02*
D03*
X465606Y324197D02*
D03*
Y337438D02*
D03*
X461231Y349640D02*
D03*
X454039Y615350D02*
D03*
X529437Y539308D02*
D03*
X503972Y560305D02*
D03*
X507688D02*
D03*
X503972Y556100D02*
D03*
X507688D02*
D03*
X511578Y560305D02*
D03*
Y556100D02*
D03*
X347877Y429142D02*
D03*
X393080Y561090D02*
D03*
X397765D02*
D03*
X533984Y461381D02*
D03*
X462713Y303299D02*
D03*
X458437D02*
D03*
Y307531D02*
D03*
X108669Y419370D02*
D03*
X608252Y652650D02*
D03*
X567106Y234602D02*
D03*
X561646D02*
D03*
X281087Y331209D02*
D03*
Y334594D02*
D03*
X440008Y314929D02*
D03*
X440842Y295874D02*
D03*
X462713Y307520D02*
D03*
X584287Y422354D02*
D03*
X579524Y422555D02*
D03*
X574996Y422382D02*
D03*
X784290Y430111D02*
D03*
X810480Y655847D02*
D03*
X821760Y651844D02*
D03*
X757289Y652004D02*
D03*
X855760Y632469D02*
D03*
Y647543D02*
D03*
X788472Y652504D02*
D03*
X719146Y647890D02*
D03*
Y652024D02*
D03*
X167473Y781894D02*
D03*
X588354Y646045D02*
D03*
X540458Y643156D02*
D03*
X462975Y748051D02*
D03*
X524987Y158904D02*
D03*
X518154Y158990D02*
D03*
X517483Y184020D02*
D03*
X512828D02*
D03*
X374295Y188850D02*
D03*
X323945D02*
D03*
X273898D02*
D03*
X465417Y234315D02*
D03*
Y225850D02*
D03*
X463413Y218976D02*
D03*
Y214370D02*
D03*
X514122Y213898D02*
D03*
Y219035D02*
D03*
X482913Y192520D02*
D03*
Y196598D02*
D03*
X482776Y174937D02*
D03*
Y183396D02*
D03*
X516213Y233988D02*
D03*
Y225524D02*
D03*
X476909Y191398D02*
D03*
X473374Y159169D02*
D03*
X466272D02*
D03*
X466917Y185663D02*
D03*
X462390Y185610D02*
D03*
X432366Y193252D02*
D03*
X432186Y197205D02*
D03*
X414997Y214777D02*
D03*
X416265Y225970D02*
D03*
Y234438D02*
D03*
X382705Y192472D02*
D03*
X382661Y196409D02*
D03*
X381657Y183736D02*
D03*
X381140Y176347D02*
D03*
X330740Y175776D02*
D03*
Y183492D02*
D03*
X331972Y195339D02*
D03*
Y192392D02*
D03*
X366095Y234438D02*
D03*
X366482Y225946D02*
D03*
X364828Y219414D02*
D03*
Y214777D02*
D03*
X309024Y185430D02*
D03*
X313689Y185344D02*
D03*
X314043Y215634D02*
D03*
Y220272D02*
D03*
X315311Y226827D02*
D03*
X282213Y192481D02*
D03*
Y195551D02*
D03*
X281193Y183496D02*
D03*
Y175779D02*
D03*
X263110Y184367D02*
D03*
X258583Y184441D02*
D03*
X262720Y158666D02*
D03*
X269823Y158760D02*
D03*
X158402Y157951D02*
D03*
X264611Y214535D02*
D03*
Y219063D02*
D03*
X265170Y234028D02*
D03*
Y225563D02*
D03*
X231831Y195551D02*
D03*
X228504Y183346D02*
D03*
Y174882D02*
D03*
X222590Y188850D02*
D03*
X211543Y185129D02*
D03*
X218894Y160790D02*
D03*
X214098Y225563D02*
D03*
X156185Y185161D02*
D03*
X178684Y174882D02*
D03*
X179863Y183346D02*
D03*
X179787Y192378D02*
D03*
X181186Y195583D02*
D03*
X214098Y234028D02*
D03*
X213539Y219063D02*
D03*
Y214535D02*
D03*
X167953Y234028D02*
D03*
X168224Y225563D02*
D03*
X164866Y219002D02*
D03*
X164894Y214494D02*
D03*
X123947Y174134D02*
D03*
X123914Y182602D02*
D03*
X127988Y192776D02*
D03*
X45835Y337106D02*
D03*
X40802D02*
D03*
X28921Y331386D02*
D03*
Y337106D02*
D03*
X34764D02*
D03*
X14854Y267130D02*
D03*
Y271814D02*
D03*
X114258Y204807D02*
D03*
Y221941D02*
D03*
Y238779D02*
D03*
Y276748D02*
D03*
Y314606D02*
D03*
X433606Y522354D02*
D03*
Y512913D02*
D03*
X502429Y518840D02*
D03*
X793373Y447662D02*
D03*
X786482D02*
D03*
X598000Y652650D02*
D03*
X297159Y435526D02*
D03*
X234606Y427315D02*
D03*
X414378Y669596D02*
D03*
X418200Y684382D02*
D03*
X418508Y694736D02*
D03*
X473390Y752437D02*
D03*
X473602Y606922D02*
D03*
X457785Y596508D02*
D03*
X681991Y782556D02*
D03*
Y790430D02*
D03*
Y798304D02*
D03*
Y806178D02*
D03*
Y814052D02*
D03*
X445416Y595744D02*
D03*
X1037064Y268315D02*
D03*
X1027169Y343383D02*
D03*
X130375Y538307D02*
D03*
Y542283D02*
D03*
X126525Y538307D02*
D03*
Y542283D02*
D03*
X195721Y412831D02*
D03*
Y408856D02*
D03*
X435591Y752437D02*
D03*
X439322Y748051D02*
D03*
X459221Y752437D02*
D03*
X782467Y703179D02*
D03*
X783779Y712574D02*
D03*
X787283Y709382D02*
D03*
X775592Y794497D02*
D03*
X779609Y790902D02*
D03*
X629437Y624638D02*
D03*
X513026Y680861D02*
D03*
X79286Y179681D02*
D03*
X88726Y180600D02*
D03*
X95175Y180383D02*
D03*
X88726Y198571D02*
D03*
X95175D02*
D03*
X72801Y215490D02*
D03*
X79286Y215706D02*
D03*
X88726D02*
D03*
X95175Y215490D02*
D03*
X72801Y232836D02*
D03*
X79286Y233053D02*
D03*
X88726D02*
D03*
X95175Y232836D02*
D03*
X79286Y270350D02*
D03*
X95175Y270390D02*
D03*
X79286Y289894D02*
D03*
X88726Y290836D02*
D03*
X95175Y290620D02*
D03*
Y309238D02*
D03*
X88726Y309454D02*
D03*
X79286D02*
D03*
X72801Y309238D02*
D03*
X254165Y781922D02*
D03*
X244425Y781952D02*
D03*
Y766377D02*
D03*
X483799Y644425D02*
D03*
X487449Y647465D02*
D03*
X510370Y623374D02*
D03*
X507091D02*
D03*
X493583Y623528D02*
D03*
X203010Y447094D02*
D03*
X228332Y458624D02*
D03*
X231496Y456157D02*
D03*
X734121Y270943D02*
D03*
X730640Y190753D02*
D03*
Y195150D02*
D03*
X734612Y190741D02*
D03*
Y195045D02*
D03*
X279249Y428101D02*
D03*
X120994Y477139D02*
D03*
X164667Y385610D02*
D03*
X115878Y339469D02*
D03*
X164276Y400808D02*
D03*
X107503Y535039D02*
D03*
X89536Y528935D02*
D03*
X68673Y522191D02*
D03*
X100130Y548969D02*
D03*
X338028Y375425D02*
D03*
Y372079D02*
D03*
X269070Y675073D02*
D03*
X198786Y670528D02*
D03*
X191306Y675646D02*
D03*
X202728Y169456D02*
D03*
X198180D02*
D03*
Y164346D02*
D03*
X202728D02*
D03*
X557252Y288248D02*
D03*
X582308Y267198D02*
D03*
X574302D02*
D03*
X603065D02*
D03*
X595957D02*
D03*
X588783D02*
D03*
X582308Y244887D02*
D03*
X574302D02*
D03*
X603065D02*
D03*
X595957D02*
D03*
X588783D02*
D03*
X582308Y252324D02*
D03*
X574302D02*
D03*
X603065D02*
D03*
X595957D02*
D03*
X588783D02*
D03*
X582308Y259761D02*
D03*
X574302D02*
D03*
X603065D02*
D03*
X595957D02*
D03*
X588783D02*
D03*
X574302Y274635D02*
D03*
X582308D02*
D03*
X588783D02*
D03*
X595957D02*
D03*
X603065D02*
D03*
X593792Y286461D02*
D03*
X588370Y282803D02*
D03*
X565772Y307038D02*
D03*
X652799Y424862D02*
D03*
X561131Y283295D02*
D03*
X151661Y781350D02*
D03*
X151661Y778004D02*
D03*
X135119Y781912D02*
D03*
X104454Y781901D02*
D03*
X119292Y778693D02*
D03*
X119307Y782039D02*
D03*
X89151Y781669D02*
D03*
Y778323D02*
D03*
X72584Y781886D02*
D03*
X58264Y778311D02*
D03*
Y781610D02*
D03*
X180012Y671150D02*
D03*
X172863Y676268D02*
D03*
X150810D02*
D03*
X157957Y671148D02*
D03*
X139724Y671150D02*
D03*
X132577Y676270D02*
D03*
X123169Y671150D02*
D03*
X116022Y676270D02*
D03*
X97420D02*
D03*
X104566Y671150D02*
D03*
X85812D02*
D03*
X78664Y676268D02*
D03*
X67193Y671150D02*
D03*
X60047Y676268D02*
D03*
X42138Y676385D02*
D03*
X49169Y671150D02*
D03*
X511872Y433787D02*
D03*
X587910Y415091D02*
D03*
X596213D02*
D03*
X592244D02*
D03*
X42502Y271491D02*
D03*
X491165Y447743D02*
D03*
X144364Y626528D02*
D03*
Y631213D02*
D03*
X144225Y617178D02*
D03*
Y621863D02*
D03*
X163730Y562382D02*
D03*
X168415D02*
D03*
X112901Y615717D02*
D03*
X153179Y577630D02*
D03*
X224200Y628500D02*
D03*
X220795D02*
D03*
X217491D02*
D03*
X224200Y625378D02*
D03*
X163028Y595447D02*
D03*
X159622D02*
D03*
X156319D02*
D03*
X163028Y598729D02*
D03*
X159622D02*
D03*
X156319D02*
D03*
X159622Y601850D02*
D03*
X163028D02*
D03*
X464136Y622004D02*
D03*
X468803Y616300D02*
D03*
X544404Y620507D02*
D03*
X544335Y624456D02*
D03*
X558405Y609548D02*
D03*
X530244Y611824D02*
D03*
X558366Y638437D02*
D03*
X554117Y634244D02*
D03*
X531008Y638437D02*
D03*
X535080Y634559D02*
D03*
X417312Y619187D02*
D03*
X401805Y603965D02*
D03*
X401587Y611428D02*
D03*
X367277Y602222D02*
D03*
X371193Y606249D02*
D03*
Y602222D02*
D03*
X367277Y606249D02*
D03*
X362929D02*
D03*
X362974Y602222D02*
D03*
X542085Y583295D02*
D03*
X558056Y561840D02*
D03*
X562741D02*
D03*
X558056Y566872D02*
D03*
X562741D02*
D03*
X558056Y557762D02*
D03*
X562741D02*
D03*
X440281Y561990D02*
D03*
X435893Y562181D02*
D03*
X430368Y578626D02*
D03*
X393080Y565168D02*
D03*
X397765D02*
D03*
X393080Y556059D02*
D03*
X397765D02*
D03*
X413070Y539705D02*
D03*
X410097Y542956D02*
D03*
X509165Y576244D02*
D03*
X504810Y566480D02*
D03*
X505374Y576193D02*
D03*
X449302Y587251D02*
D03*
X449357Y580228D02*
D03*
X448982Y550074D02*
D03*
X482749Y547687D02*
D03*
X475096Y547654D02*
D03*
X458673Y543472D02*
D03*
X309021Y333106D02*
D03*
X304977Y363882D02*
D03*
X308831Y351602D02*
D03*
X112906Y376484D02*
D03*
X290693Y374209D02*
D03*
X120999Y515376D02*
D03*
X123814Y512440D02*
D03*
X386352Y449494D02*
D03*
X381667D02*
D03*
X386352Y444462D02*
D03*
X381667D02*
D03*
X386352Y453572D02*
D03*
X381667D02*
D03*
X90872Y493017D02*
D03*
X86187D02*
D03*
X90872Y487986D02*
D03*
X86187D02*
D03*
X90872Y497095D02*
D03*
X86187D02*
D03*
X590509Y335824D02*
D03*
X595194D02*
D03*
X590509Y331746D02*
D03*
X595194D02*
D03*
X344590Y445492D02*
D03*
X346795Y466607D02*
D03*
X293340Y446968D02*
D03*
X288852Y442631D02*
D03*
X273669Y445126D02*
D03*
X557150Y343525D02*
D03*
X560520Y346497D02*
D03*
X575013Y352706D02*
D03*
X578427Y349253D02*
D03*
X839258Y445461D02*
D03*
X836024Y449886D02*
D03*
X625280Y621799D02*
D03*
X622085Y624709D02*
D03*
X1029299Y493434D02*
D03*
X1046594Y499280D02*
D03*
X1011182Y332783D02*
D03*
X1007567Y335735D02*
D03*
X958800Y492300D02*
D03*
X1034169Y347366D02*
D03*
X1039727Y351814D02*
D03*
X1044327Y349335D02*
D03*
X1054450Y274220D02*
D03*
X1097164Y708014D02*
D03*
X1101477Y712155D02*
D03*
X368051Y362252D02*
D03*
X179477Y652303D02*
D03*
X157745Y652566D02*
D03*
X139331D02*
D03*
X121832Y652566D02*
D03*
X103832D02*
D03*
X66902Y652565D02*
D03*
X48655Y652816D02*
D03*
X166406Y652344D02*
D03*
X144211Y652566D02*
D03*
X126261D02*
D03*
X108761D02*
D03*
X90761D02*
D03*
X35783Y652769D02*
D03*
X53832Y652644D02*
D03*
X837502Y719832D02*
D03*
X819666Y712630D02*
D03*
X823270Y709375D02*
D03*
X872256Y778264D02*
D03*
Y783464D02*
D03*
X1018995Y749923D02*
D03*
X1018733Y734888D02*
D03*
X1057967Y741577D02*
D03*
X1012732Y773786D02*
D03*
X953706Y789465D02*
D03*
X958317Y784955D02*
D03*
X878081Y708614D02*
D03*
X1094055Y658487D02*
D03*
X653886Y640874D02*
D03*
X658571D02*
D03*
X653886Y645905D02*
D03*
X658571D02*
D03*
X1020050Y507087D02*
D03*
X1016732Y504300D02*
D03*
X1071742Y342197D02*
D03*
X953600Y464900D02*
D03*
X946754Y472473D02*
D03*
X943310D02*
D03*
X1016500Y361417D02*
D03*
X1019685Y358500D02*
D03*
X1011182Y341964D02*
D03*
X1049850Y276700D02*
D03*
X932533Y334575D02*
D03*
X1016658Y280316D02*
D03*
X1020677Y283886D02*
D03*
X1044291Y272250D02*
D03*
X1015748Y258858D02*
D03*
X1019362Y255523D02*
D03*
X445687Y562054D02*
D03*
X1203645Y302331D02*
D03*
Y310369D02*
D03*
Y326440D02*
D03*
X1074982Y345936D02*
D03*
X1057309Y336054D02*
D03*
X1007835Y338983D02*
D03*
X135562Y499358D02*
D03*
X132614Y496764D02*
D03*
X170999Y369338D02*
D03*
X133827Y398781D02*
D03*
X788480Y785974D02*
D03*
X512185Y673415D02*
D03*
X257780Y467687D02*
D03*
X249165D02*
D03*
X253429D02*
D03*
X257780Y471842D02*
D03*
X249165D02*
D03*
X253429D02*
D03*
Y476158D02*
D03*
X249165D02*
D03*
X257780D02*
D03*
X935854Y304597D02*
D03*
X948059D02*
D03*
X941968Y309231D02*
D03*
Y300176D02*
D03*
X935854D02*
D03*
X948059D02*
D03*
X935854Y309231D02*
D03*
Y313168D02*
D03*
X941968D02*
D03*
Y296239D02*
D03*
X935854D02*
D03*
X442012Y706913D02*
D03*
X429102Y706976D02*
D03*
X455794Y706635D02*
D03*
X283351Y471589D02*
D03*
X284153Y484399D02*
D03*
X278288Y487260D02*
D03*
X269171Y504814D02*
D03*
X264527D02*
D03*
X259892D02*
D03*
X255283D02*
D03*
X250676Y504843D02*
D03*
X246216Y504814D02*
D03*
X72860Y652644D02*
D03*
X85931Y652566D02*
D03*
X347664Y337441D02*
D03*
X343936Y338200D02*
D03*
X743327Y451686D02*
D03*
X549971Y463319D02*
D03*
X343515Y455514D02*
D03*
X432713Y603835D02*
D03*
X1091327Y759275D02*
D03*
X1087278Y755400D02*
D03*
X1140028Y730126D02*
D03*
X1136751Y733397D02*
D03*
X1121702Y733307D02*
D03*
X1125232Y730126D02*
D03*
X1151709Y733460D02*
D03*
X1155117Y730126D02*
D03*
X1166537Y733397D02*
D03*
X1170105Y730126D02*
D03*
X497132Y557776D02*
D03*
X695767Y471579D02*
D03*
X695238Y428993D02*
D03*
X784694Y473862D02*
D03*
X651699Y479703D02*
D03*
X711617D02*
D03*
X516661Y632692D02*
D03*
X512635Y632646D02*
D03*
Y636995D02*
D03*
X516661Y640911D02*
D03*
X512635D02*
D03*
X516661Y636995D02*
D03*
X600142Y631406D02*
D03*
X600097Y635433D02*
D03*
X604445D02*
D03*
X608361Y631406D02*
D03*
Y635433D02*
D03*
X604445Y631406D02*
D03*
X373571Y370073D02*
D03*
X766819Y634047D02*
D03*
X552921Y465508D02*
D03*
X773592Y410995D02*
D03*
X767478D02*
D03*
Y414932D02*
D03*
X773592D02*
D03*
X773539Y418855D02*
D03*
X767425D02*
D03*
X785797Y410995D02*
D03*
X779683D02*
D03*
Y414932D02*
D03*
X785797D02*
D03*
X785744Y418855D02*
D03*
X779630D02*
D03*
X137800Y124700D02*
D03*
X1004913Y227289D02*
D03*
X1104063Y748432D02*
D03*
X188836Y652303D02*
D03*
X331516Y575957D02*
D03*
X482304Y402149D02*
D03*
X271681Y427908D02*
D03*
X271632Y431201D02*
D03*
X539043Y334685D02*
D03*
X526011Y268897D02*
D03*
X557252Y294697D02*
D03*
X1105560Y757849D02*
D03*
X343510Y353988D02*
D03*
X791835Y418855D02*
D03*
X797949D02*
D03*
X804039D02*
D03*
X804092Y414932D02*
D03*
X798002D02*
D03*
X791888D02*
D03*
Y410995D02*
D03*
X804092D02*
D03*
X798002D02*
D03*
X278370Y389175D02*
D03*
X349315Y690645D02*
D03*
X608230Y688992D02*
D03*
X330260Y690031D02*
D03*
X360413Y691957D02*
D03*
X341579Y690031D02*
D03*
X524398Y682875D02*
D03*
X545351Y463302D02*
D03*
X547764Y467134D02*
D03*
X1119985Y364586D02*
D03*
X1112055Y364431D02*
D03*
X1080000Y483489D02*
D03*
X168292Y571488D02*
D03*
X113587Y625928D02*
D03*
X922915Y517804D02*
D03*
X916824D02*
D03*
X923366Y535160D02*
D03*
X917276D02*
D03*
X950600Y456337D02*
D03*
Y452400D02*
D03*
Y443345D02*
D03*
Y447766D02*
D03*
X944934Y441431D02*
D03*
Y458360D02*
D03*
Y454423D02*
D03*
Y445368D02*
D03*
Y449789D02*
D03*
X924994Y375464D02*
D03*
Y392393D02*
D03*
Y388456D02*
D03*
Y379401D02*
D03*
Y383822D02*
D03*
X531988Y474762D02*
D03*
X147868Y600567D02*
D03*
X485857Y584084D02*
D03*
Y579753D02*
D03*
Y575422D02*
D03*
Y571092D02*
D03*
Y566761D02*
D03*
X481527Y584084D02*
D03*
Y579753D02*
D03*
Y575422D02*
D03*
Y571092D02*
D03*
Y566761D02*
D03*
X477196Y584084D02*
D03*
Y579753D02*
D03*
Y575422D02*
D03*
Y571092D02*
D03*
Y566761D02*
D03*
X472865Y584084D02*
D03*
Y579753D02*
D03*
Y575422D02*
D03*
Y571092D02*
D03*
Y566761D02*
D03*
X468534Y584084D02*
D03*
Y579753D02*
D03*
Y575422D02*
D03*
Y571092D02*
D03*
Y566761D02*
D03*
X352264Y351236D02*
D03*
X836975Y647512D02*
D03*
X813680Y625713D02*
D03*
X817175Y627425D02*
D03*
X822919Y625713D02*
D03*
X829681D02*
D03*
X826331Y627425D02*
D03*
X749710Y624969D02*
D03*
X752251Y627359D02*
D03*
X757315Y625839D02*
D03*
X760559Y627425D02*
D03*
X757138Y655910D02*
D03*
X498530Y600651D02*
D03*
X441760Y592494D02*
D03*
X538901Y247882D02*
D03*
Y255794D02*
D03*
X529196D02*
D03*
X608670Y300454D02*
D03*
X613702Y292542D02*
D03*
Y300454D02*
D03*
X541866Y316449D02*
D03*
X533954D02*
D03*
X541866Y321480D02*
D03*
X1212668Y834054D02*
D03*
X1200026Y754465D02*
D03*
X1221382Y678910D02*
D03*
X377699Y334820D02*
D03*
X224957Y675859D02*
D03*
X245504Y676221D02*
D03*
X1093043Y743724D02*
D03*
X1071425Y732492D02*
D03*
X188998Y170482D02*
D03*
X356196Y274487D02*
D03*
X361330Y274221D02*
D03*
X330158Y270882D02*
D03*
X345387Y271937D02*
D03*
X352571D02*
D03*
X347851Y274941D02*
D03*
X330061Y275031D02*
D03*
X361360Y306101D02*
D03*
X358017D02*
D03*
X297706Y733591D02*
D03*
X337424Y585308D02*
D03*
X437477Y236161D02*
D03*
X402587Y211142D02*
D03*
X448558Y306594D02*
D03*
X305440Y733591D02*
D03*
X404860Y180145D02*
D03*
X436663Y169323D02*
D03*
X542947Y467823D02*
D03*
X634142Y794740D02*
D03*
X634049Y783385D02*
D03*
X328193Y302362D02*
D03*
X324846D02*
D03*
X320697D02*
D03*
X317311D02*
D03*
X332047D02*
D03*
X335433D02*
D03*
X310071D02*
D03*
X313457D02*
D03*
X401035Y272239D02*
D03*
X419411Y272843D02*
D03*
X487332Y235578D02*
D03*
X484084Y165114D02*
D03*
X487752Y170413D02*
D03*
X432720Y164788D02*
D03*
X388434Y170466D02*
D03*
X399429Y195739D02*
D03*
X394842Y195598D02*
D03*
X384394Y166967D02*
D03*
X330944Y164492D02*
D03*
X387954Y236161D02*
D03*
X337912D02*
D03*
X279896Y166034D02*
D03*
X337309Y168885D02*
D03*
X286399Y236160D02*
D03*
X287256Y170435D02*
D03*
X238120Y164589D02*
D03*
X236926Y168802D02*
D03*
X236996Y234059D02*
D03*
X193630Y157318D02*
D03*
X183246Y234060D02*
D03*
X920835Y795742D02*
D03*
X920768Y800808D02*
D03*
X349913Y302362D02*
D03*
X346528D02*
D03*
X342673D02*
D03*
X339287D02*
D03*
X306217D02*
D03*
X302831D02*
D03*
X295590D02*
D03*
X298976D02*
D03*
X135165Y157318D02*
D03*
X141825Y232063D02*
D03*
X175680Y364168D02*
D03*
X72067Y548969D02*
D03*
X138571Y152946D02*
D03*
X188366D02*
D03*
X289405Y152948D02*
D03*
X339390Y152950D02*
D03*
X389760Y152948D02*
D03*
X439213Y152950D02*
D03*
X408799Y688756D02*
D03*
X641622Y804075D02*
D03*
Y793419D02*
D03*
X443709Y588411D02*
D03*
X330260Y695272D02*
D03*
X176627Y619195D02*
D03*
X177790Y570147D02*
D03*
X230653Y489512D02*
D03*
X221030D02*
D03*
X218140Y471846D02*
D03*
Y476374D02*
D03*
Y480903D02*
D03*
Y485431D02*
D03*
X288815Y458512D02*
D03*
X280562D02*
D03*
X273802D02*
D03*
X264156Y461185D02*
D03*
X239052Y469598D02*
D03*
X377675Y355752D02*
D03*
X298328Y363022D02*
D03*
X373687Y350513D02*
D03*
X353129Y356399D02*
D03*
X353186Y344307D02*
D03*
X354394Y338791D02*
D03*
X373583Y342572D02*
D03*
X347627Y356441D02*
D03*
X300693Y326747D02*
D03*
X300869Y341276D02*
D03*
X302614Y177114D02*
D03*
X252621Y177641D02*
D03*
X151725Y177362D02*
D03*
X139689Y170363D02*
D03*
X482528Y430557D02*
D03*
Y425456D02*
D03*
Y416986D02*
D03*
Y406677D02*
D03*
Y420929D02*
D03*
Y411205D02*
D03*
X512537Y445598D02*
D03*
X516386Y450220D02*
D03*
X512370Y427881D02*
D03*
X1134200Y451109D02*
D03*
Y441714D02*
D03*
X1105988Y408831D02*
D03*
X1133630D02*
D03*
X1119622Y422022D02*
D03*
X1133253Y421784D02*
D03*
X1133630Y434927D02*
D03*
X1137770Y291303D02*
D03*
X1164088Y299054D02*
D03*
X1125498Y278094D02*
D03*
X1144212D02*
D03*
X1147713Y333678D02*
D03*
X1166425D02*
D03*
X1147713Y351912D02*
D03*
X1166425D02*
D03*
X1133630Y368280D02*
D03*
X1147713Y368280D02*
D03*
X1166425D02*
D03*
X1133630Y383547D02*
D03*
X1147713Y383549D02*
D03*
X1166425D02*
D03*
X1133630Y396921D02*
D03*
X1147713Y399367D02*
D03*
X1166425D02*
D03*
X1134474Y525917D02*
D03*
X1143098Y541123D02*
D03*
X1127182Y509023D02*
D03*
X1145730Y517344D02*
D03*
X1160886Y528083D02*
D03*
X1130802Y497694D02*
D03*
X1147713D02*
D03*
X1166425D02*
D03*
X1131144Y482220D02*
D03*
X1148054D02*
D03*
X1166768D02*
D03*
X1166691Y469307D02*
D03*
X1147977D02*
D03*
X1131067D02*
D03*
X1201941Y664191D02*
D03*
X1221382Y726482D02*
D03*
Y772727D02*
D03*
X1193169Y826161D02*
D03*
X1169937Y833570D02*
D03*
X1149529Y826161D02*
D03*
X1126782Y832253D02*
D03*
X1104652Y826161D02*
D03*
X1085254Y832069D02*
D03*
X1059956Y826161D02*
D03*
X1037232Y832525D02*
D03*
X1015569Y826161D02*
D03*
X995876Y833434D02*
D03*
X974941Y826161D02*
D03*
X955276Y832676D02*
D03*
X936997Y826161D02*
D03*
X850900Y832979D02*
D03*
X579082Y297649D02*
D03*
X575145D02*
D03*
X579082Y293712D02*
D03*
X575145D02*
D03*
X117510Y210996D02*
D03*
X307805Y270833D02*
D03*
X300641Y271894D02*
D03*
X172048Y598842D02*
D03*
X612453Y692293D02*
D03*
X604910D02*
D03*
X456979Y292267D02*
D03*
X620607Y822773D02*
D03*
X646319Y822776D02*
D03*
X290196Y326975D02*
D03*
X323059Y270833D02*
D03*
X315509D02*
D03*
X294422Y271894D02*
D03*
X337774Y275031D02*
D03*
X322792D02*
D03*
X315657D02*
D03*
X307777D02*
D03*
X297935D02*
D03*
X290459D02*
D03*
X514869Y570593D02*
D03*
X518585D02*
D03*
X514869Y566389D02*
D03*
X518585D02*
D03*
X522475Y570593D02*
D03*
Y566389D02*
D03*
X412783Y302209D02*
D03*
Y298326D02*
D03*
X474736Y291961D02*
D03*
X133721Y419358D02*
D03*
X775744Y642764D02*
D03*
X229744Y462291D02*
D03*
X240106Y461748D02*
D03*
X1036508Y494012D02*
D03*
X737268Y699327D02*
D03*
X839988Y635685D02*
D03*
X836917Y631551D02*
D03*
Y639819D02*
D03*
X839618Y643957D02*
D03*
X824705Y658740D02*
D03*
X802740Y640425D02*
D03*
X801524Y634721D02*
D03*
X804823Y643744D02*
D03*
X805516Y637405D02*
D03*
X769587Y645402D02*
D03*
X768051Y640063D02*
D03*
X771902Y637118D02*
D03*
X739783Y645480D02*
D03*
X737165Y637783D02*
D03*
X740071Y635268D02*
D03*
X740039Y640213D02*
D03*
X736842Y647626D02*
D03*
X290894Y334839D02*
D03*
Y331209D02*
D03*
X724728Y714858D02*
D03*
X431244Y302385D02*
D03*
Y298253D02*
D03*
X416553Y306325D02*
D03*
Y294725D02*
D03*
X128608Y484187D02*
D03*
X637882Y804513D02*
D03*
X337992Y695638D02*
D03*
X345972Y695272D02*
D03*
X759378Y658328D02*
D03*
X502994Y211142D02*
D03*
X491394D02*
D03*
X494526Y214281D02*
D03*
X499591Y214281D02*
D03*
X500332Y195819D02*
D03*
X495026Y195818D02*
D03*
X513218Y173980D02*
D03*
X508839Y173699D02*
D03*
X458562Y173790D02*
D03*
X462311D02*
D03*
X452068Y211142D02*
D03*
X440555D02*
D03*
X444260Y195437D02*
D03*
X449148Y195585D02*
D03*
X448126Y214291D02*
D03*
X444242D02*
D03*
X452441Y177032D02*
D03*
X412724Y174844D02*
D03*
X394762Y214291D02*
D03*
X398646D02*
D03*
X391075Y211142D02*
D03*
X352280D02*
D03*
X340768D02*
D03*
X344478Y196035D02*
D03*
X348331D02*
D03*
X348339Y214291D02*
D03*
X344455D02*
D03*
X358128Y173938D02*
D03*
X362209Y174744D02*
D03*
X352618Y177032D02*
D03*
X294364Y214291D02*
D03*
X298248D02*
D03*
X298240Y195508D02*
D03*
X294388D02*
D03*
X290677Y211142D02*
D03*
X302190D02*
D03*
X312910Y174667D02*
D03*
X262135Y174582D02*
D03*
X252174Y211142D02*
D03*
X244463Y195494D02*
D03*
X248389Y195508D02*
D03*
X248315Y214291D02*
D03*
X244439D02*
D03*
X240661Y211142D02*
D03*
X189716D02*
D03*
X193494Y214291D02*
D03*
X197371D02*
D03*
X197394Y196035D02*
D03*
X193518D02*
D03*
X201229Y211142D02*
D03*
X143643Y196035D02*
D03*
X147519D02*
D03*
X147496Y214291D02*
D03*
X143619D02*
D03*
X139947Y211142D02*
D03*
X151354D02*
D03*
X316759Y369886D02*
D03*
X999913Y227191D02*
D03*
X821918Y655486D02*
D03*
X321971Y692449D02*
D03*
X413424Y679008D02*
D03*
X194836Y652303D02*
D03*
X482118Y596457D02*
D03*
X245218Y651440D02*
D03*
X466165Y608895D02*
D03*
X335326Y659567D02*
D03*
X332323Y657291D02*
D03*
X649873Y798304D02*
D03*
Y790430D02*
D03*
Y782556D02*
D03*
X624058Y789241D02*
D03*
Y795508D02*
D03*
Y801387D02*
D03*
X466853Y597129D02*
D03*
X404849Y671724D02*
D03*
X506770Y607586D02*
D03*
X498367Y607678D02*
D03*
X737048Y704615D02*
D03*
X514252Y430707D02*
D03*
X736744Y642764D02*
D03*
X159208Y587542D02*
D03*
X159378Y609838D02*
D03*
X100135Y537886D02*
D03*
X100154Y534488D02*
D03*
X164867Y408471D02*
D03*
X164924Y405231D02*
D03*
X762525Y204887D02*
D03*
Y201525D02*
D03*
X1033850Y340274D02*
D03*
Y344029D02*
D03*
X890129Y704266D02*
D03*
X760280Y270943D02*
D03*
X235286Y435772D02*
D03*
X318834Y375553D02*
D03*
X326055Y375757D02*
D03*
X164307Y621871D02*
D03*
X230650Y667296D02*
D03*
X230672Y647706D02*
D03*
X288433Y653806D02*
D03*
Y649669D02*
D03*
X251214Y667631D02*
D03*
X353221Y695272D02*
D03*
X36801Y239666D02*
D03*
X20833Y239325D02*
D03*
X503258Y177258D02*
D03*
X44883Y652855D02*
D03*
X57603Y652604D02*
D03*
X63131D02*
D03*
X39555Y652730D02*
D03*
X153973Y652605D02*
D03*
X147982Y652566D02*
D03*
X135560Y652605D02*
D03*
X130032Y652566D02*
D03*
X201673Y177364D02*
D03*
X94532Y652566D02*
D03*
X100060D02*
D03*
X112532D02*
D03*
X118060D02*
D03*
X482528Y393091D02*
D03*
Y397622D02*
D03*
X190898Y568358D02*
D03*
Y622193D02*
D03*
X159459Y612821D02*
D03*
X546980Y369890D02*
D03*
X542449D02*
D03*
X537921D02*
D03*
X533394D02*
D03*
X528866D02*
D03*
X514803D02*
D03*
X519610D02*
D03*
X524295D02*
D03*
X462489Y554393D02*
D03*
X409110Y173790D02*
D03*
X308390Y174609D02*
D03*
X258256Y174000D02*
D03*
X211415Y175236D02*
D03*
X207290Y174000D02*
D03*
X157342Y173998D02*
D03*
X300853Y360326D02*
D03*
X301600Y330161D02*
D03*
X296888Y341139D02*
D03*
X299843Y350510D02*
D03*
X291614Y356805D02*
D03*
X35618Y236209D02*
D03*
X117510Y175133D02*
D03*
Y192671D02*
D03*
Y228064D02*
D03*
Y245308D02*
D03*
Y263242D02*
D03*
Y283088D02*
D03*
Y302887D02*
D03*
Y321352D02*
D03*
X1139100Y451109D02*
D03*
X1134200Y446500D02*
D03*
X1044291Y265400D02*
D03*
X1117360Y287590D02*
D03*
Y317539D02*
D03*
X1125710Y287590D02*
D03*
Y296538D02*
D03*
Y308388D02*
D03*
X1125612Y317539D02*
D03*
X1125710Y292288D02*
D03*
Y313038D02*
D03*
X1105988Y396921D02*
D03*
X1119622Y357491D02*
D03*
Y408831D02*
D03*
X1133630Y358182D02*
D03*
X1119622Y396921D02*
D03*
X1117098Y533850D02*
D03*
Y513100D02*
D03*
X1117000Y538350D02*
D03*
X1117098Y529200D02*
D03*
Y517350D02*
D03*
Y508402D02*
D03*
X1108748Y538350D02*
D03*
Y508402D02*
D03*
X955097Y717984D02*
D03*
Y712668D02*
D03*
X881300Y713050D02*
D03*
X746900Y781400D02*
D03*
X1087732Y750040D02*
D03*
X1117803Y738968D02*
D03*
X1132674D02*
D03*
X1147545D02*
D03*
X1162702Y738968D02*
D03*
X868228Y762953D02*
D03*
Y770716D02*
D03*
X978289Y808321D02*
D03*
Y803853D02*
D03*
X974344Y808321D02*
D03*
Y803853D02*
D03*
X555638Y462390D02*
D03*
X175706Y652303D02*
D03*
X170178D02*
D03*
X505705Y369890D02*
D03*
X510232D02*
D03*
X597724Y692293D02*
D03*
X601633Y688992D02*
D03*
X881734Y770718D02*
D03*
Y762953D02*
D03*
X921353Y725129D02*
D03*
X1050936Y749904D02*
D03*
X1040220Y734943D02*
D03*
X948581Y792239D02*
D03*
X944841D02*
D03*
X970222Y803894D02*
D03*
Y808321D02*
D03*
X958226D02*
D03*
X962163D02*
D03*
X966207D02*
D03*
Y803894D02*
D03*
X962163Y803853D02*
D03*
X958226Y803894D02*
D03*
X1057917Y744923D02*
D03*
X1055066Y747977D02*
D03*
X953075Y801392D02*
D03*
X889053Y708583D02*
D03*
X1036826Y497265D02*
D03*
X1044291Y268701D02*
D03*
X464700Y562700D02*
D03*
X440713Y552665D02*
D03*
X435807D02*
D03*
X440713Y556382D02*
D03*
X435807D02*
D03*
X430538Y552665D02*
D03*
X430772Y556382D02*
D03*
X1078470Y256067D02*
D03*
X1067979Y332331D02*
D03*
X1177370Y302330D02*
D03*
Y310367D02*
D03*
Y326440D02*
D03*
X22593Y236249D02*
D03*
X610435Y647453D02*
D03*
Y642315D02*
D03*
X615287Y647453D02*
D03*
X615398Y642315D02*
D03*
X619702D02*
D03*
X624991D02*
D03*
X619702Y647453D02*
D03*
X243454Y481163D02*
D03*
X236419Y485293D02*
D03*
X262609Y458551D02*
D03*
X463831Y580299D02*
D03*
X490571Y582255D02*
D03*
X490541Y576374D02*
D03*
X490666Y566566D02*
D03*
X488080Y561936D02*
D03*
X476242Y562132D02*
D03*
X482183Y562023D02*
D03*
X463955Y572510D02*
D03*
X931105Y383985D02*
D03*
X943310D02*
D03*
X937219Y388619D02*
D03*
Y379564D02*
D03*
X931105D02*
D03*
X943310D02*
D03*
Y388619D02*
D03*
X931105D02*
D03*
Y392556D02*
D03*
X937219D02*
D03*
X943310D02*
D03*
Y375627D02*
D03*
X937219D02*
D03*
X931105D02*
D03*
X928757Y526613D02*
D03*
X940962D02*
D03*
X934871Y531247D02*
D03*
Y522191D02*
D03*
X928757D02*
D03*
X940962D02*
D03*
Y531247D02*
D03*
X928757D02*
D03*
Y535184D02*
D03*
X934871D02*
D03*
X940962D02*
D03*
Y518254D02*
D03*
X934871D02*
D03*
X928757D02*
D03*
X926784Y441250D02*
D03*
X932898D02*
D03*
X938989D02*
D03*
Y458179D02*
D03*
X932898D02*
D03*
X926784D02*
D03*
Y454242D02*
D03*
X938989D02*
D03*
Y445187D02*
D03*
X926784D02*
D03*
X932898Y454242D02*
D03*
X938989Y449608D02*
D03*
X926784D02*
D03*
X280558Y473802D02*
D03*
Y478330D02*
D03*
Y482859D02*
D03*
X266988Y501704D02*
D03*
X262344D02*
D03*
X244033D02*
D03*
X248561D02*
D03*
X253100D02*
D03*
X280558Y469273D02*
D03*
X257709Y501704D02*
D03*
X76632Y652604D02*
D03*
X82159D02*
D03*
D228*
X380000Y398400D02*
D03*
X384300Y404300D02*
D03*
X376100D02*
D03*
D229*
X1184800Y584400D02*
D03*
X1180900Y609400D02*
D03*
D230*
X402901Y415000D02*
D03*
X195000Y341095D02*
D03*
X179006Y516000D02*
D03*
X185495D02*
D03*
X191812D02*
D03*
X197361D02*
D03*
X200000Y344663D02*
D03*
X190000Y337500D02*
D03*
X420588Y395000D02*
D03*
X407321Y410000D02*
D03*
X424866Y390000D02*
D03*
X416311Y400000D02*
D03*
X411812Y405000D02*
D03*
X393311Y429500D02*
D03*
X397539Y426500D02*
D03*
X387052Y429535D02*
D03*
D231*
X1087598Y699393D02*
D03*
Y695083D02*
D03*
X1085236Y693500D02*
D03*
Y689000D02*
D03*
X1087598Y682000D02*
D03*
Y677500D02*
D03*
X1085236Y672000D02*
D03*
Y676212D02*
D03*
X1058872Y694114D02*
D03*
X1076363D02*
D03*
Y676970D02*
D03*
X1058872D02*
D03*
D232*
X645150Y769201D02*
D03*
D233*
X26925Y249396D02*
D03*
X31255D02*
D03*
X26925Y245065D02*
D03*
X31255D02*
D03*
X758681Y639614D02*
D03*
X754350D02*
D03*
X758681Y643945D02*
D03*
X754350D02*
D03*
X823327Y639720D02*
D03*
X818996D02*
D03*
X823327Y644051D02*
D03*
X818996D02*
D03*
X721579Y705865D02*
D03*
Y701534D02*
D03*
X725910Y705865D02*
D03*
Y701534D02*
D03*
X907236Y722638D02*
D03*
X902905D02*
D03*
X898575D02*
D03*
X907236Y718307D02*
D03*
X902905D02*
D03*
X898575D02*
D03*
X907236Y713976D02*
D03*
X902905D02*
D03*
X898575D02*
D03*
X313591Y338218D02*
D03*
Y342548D02*
D03*
Y346879D02*
D03*
Y351210D02*
D03*
Y355540D02*
D03*
X317922Y338218D02*
D03*
Y342548D02*
D03*
Y346879D02*
D03*
Y351210D02*
D03*
Y355540D02*
D03*
X322253Y338218D02*
D03*
Y342548D02*
D03*
Y346879D02*
D03*
Y351210D02*
D03*
Y355540D02*
D03*
X326584Y338218D02*
D03*
Y342548D02*
D03*
Y346879D02*
D03*
Y351210D02*
D03*
Y355540D02*
D03*
X330914Y338218D02*
D03*
Y342548D02*
D03*
Y346879D02*
D03*
Y351210D02*
D03*
Y355540D02*
D03*
X529196Y247959D02*
D03*
X533870D02*
D03*
X603997Y292619D02*
D03*
X608670D02*
D03*
X603997Y300454D02*
D03*
X541866Y326153D02*
D03*
X534031Y321480D02*
D03*
Y326153D02*
D03*
D234*
X410928Y674440D02*
D03*
M02*
