G04*
G04 #@! TF.GenerationSoftware,Altium Limited,Altium Designer,20.2.6 (244)*
G04*
G04 Layer_Color=16711935*
%FSLAX25Y25*%
%MOIN*%
G70*
G04*
G04 #@! TF.SameCoordinates,C0FDDEC0-252B-4CE6-8BE1-5BCEE630C73E*
G04*
G04*
G04 #@! TF.FilePolarity,Negative*
G04*
G01*
G75*
%ADD42R,0.03543X0.02953*%
%ADD58R,0.02600X0.00900*%
%ADD59R,0.06299X0.19291*%
%ADD99R,0.02953X0.03543*%
%ADD130R,0.03398X0.03241*%
%ADD131R,0.03241X0.03398*%
%ADD133R,0.04343X0.03556*%
%ADD134R,0.04540X0.03950*%
%ADD137R,0.03950X0.04540*%
%ADD140R,0.03162X0.02965*%
%ADD144R,0.05328X0.06312*%
%ADD146R,0.04737X0.04934*%
%ADD151R,0.02965X0.02572*%
%ADD155R,0.03123X0.03241*%
%ADD172R,0.03241X0.03123*%
%ADD177R,0.04540X0.03162*%
%ADD180R,0.06312X0.05328*%
%ADD183R,0.04737X0.04343*%
%ADD186R,0.03556X0.04343*%
%ADD187R,0.02965X0.03162*%
%ADD191R,0.04343X0.04737*%
%ADD192R,0.03162X0.04540*%
%ADD199C,0.06300*%
%ADD200C,0.09100*%
%ADD201C,0.03654*%
G04:AMPARAMS|DCode=202|XSize=70.99mil|YSize=128.08mil|CornerRadius=19.75mil|HoleSize=0mil|Usage=FLASHONLY|Rotation=90.000|XOffset=0mil|YOffset=0mil|HoleType=Round|Shape=RoundedRectangle|*
%AMROUNDEDRECTD202*
21,1,0.07099,0.08858,0,0,90.0*
21,1,0.03150,0.12808,0,0,90.0*
1,1,0.03950,0.04429,0.01575*
1,1,0.03950,0.04429,-0.01575*
1,1,0.03950,-0.04429,-0.01575*
1,1,0.03950,-0.04429,0.01575*
%
%ADD202ROUNDEDRECTD202*%
%ADD203C,0.10249*%
%ADD204R,0.07296X0.07296*%
%ADD205C,0.07296*%
%ADD206R,0.07001X0.07001*%
%ADD207C,0.07001*%
G04:AMPARAMS|DCode=208|XSize=45.28mil|YSize=70.87mil|CornerRadius=22.64mil|HoleSize=0mil|Usage=FLASHONLY|Rotation=180.000|XOffset=0mil|YOffset=0mil|HoleType=Round|Shape=RoundedRectangle|*
%AMROUNDEDRECTD208*
21,1,0.04528,0.02559,0,0,180.0*
21,1,0.00000,0.07087,0,0,180.0*
1,1,0.04528,0.00000,0.01280*
1,1,0.04528,0.00000,0.01280*
1,1,0.04528,0.00000,-0.01280*
1,1,0.04528,0.00000,-0.01280*
%
%ADD208ROUNDEDRECTD208*%
G04:AMPARAMS|DCode=209|XSize=57.09mil|YSize=78.74mil|CornerRadius=28.54mil|HoleSize=0mil|Usage=FLASHONLY|Rotation=180.000|XOffset=0mil|YOffset=0mil|HoleType=Round|Shape=RoundedRectangle|*
%AMROUNDEDRECTD209*
21,1,0.05709,0.02165,0,0,180.0*
21,1,0.00000,0.07874,0,0,180.0*
1,1,0.05709,0.00000,0.01083*
1,1,0.05709,0.00000,0.01083*
1,1,0.05709,0.00000,-0.01083*
1,1,0.05709,0.00000,-0.01083*
%
%ADD209ROUNDEDRECTD209*%
%ADD210C,0.03150*%
%ADD211C,0.11800*%
%ADD212C,0.05052*%
%ADD213C,0.06312*%
%ADD214C,0.32296*%
%ADD215C,0.06800*%
%ADD216C,0.08674*%
%ADD217R,0.06312X0.06312*%
%ADD218C,0.06824*%
%ADD219C,0.13398*%
%ADD220C,0.02800*%
%ADD221C,0.04737*%
%ADD222C,0.08280*%
%ADD223C,0.02965*%
%ADD224C,0.04800*%
%ADD225C,0.03800*%
%ADD226C,0.03300*%
%ADD227C,0.02700*%
%ADD228C,0.03556*%
%ADD229C,0.02965*%
%ADD230C,0.02600*%
G04:AMPARAMS|DCode=296|XSize=43.31mil|YSize=23.62mil|CornerRadius=2.01mil|HoleSize=0mil|Usage=FLASHONLY|Rotation=90.000|XOffset=0mil|YOffset=0mil|HoleType=Round|Shape=RoundedRectangle|*
%AMROUNDEDRECTD296*
21,1,0.04331,0.01961,0,0,90.0*
21,1,0.03929,0.02362,0,0,90.0*
1,1,0.00402,0.00980,0.01965*
1,1,0.00402,0.00980,-0.01965*
1,1,0.00402,-0.00980,-0.01965*
1,1,0.00402,-0.00980,0.01965*
%
%ADD296ROUNDEDRECTD296*%
%ADD297R,0.10000X0.06100*%
%ADD299R,0.05315X0.01575*%
%ADD301R,0.12800X0.07500*%
%ADD303R,0.07008X0.13780*%
%ADD305R,0.00900X0.02600*%
%ADD311R,0.09000X0.02400*%
%ADD318R,0.09055X0.22047*%
%ADD319R,0.02365X0.04375*%
%ADD344R,0.01181X0.03562*%
%ADD345R,0.03562X0.01181*%
%ADD346R,0.10236X0.10236*%
%ADD352R,0.12894X0.12674*%
%ADD353R,0.08600X0.03000*%
%ADD354R,0.04343X0.04934*%
%ADD355O,0.05787X0.01654*%
%ADD356R,0.02769X0.04737*%
%ADD357R,0.04540X0.03753*%
%ADD358R,0.03359X0.02965*%
%ADD359R,0.03359X0.02965*%
%ADD360R,0.03359X0.02965*%
%ADD361R,0.03359X0.02965*%
%ADD362R,0.15367X0.07690*%
%ADD363R,0.04934X0.04343*%
%ADD364R,0.05131X0.05131*%
%ADD365R,0.33477X0.42532*%
%ADD366R,0.09461X0.04934*%
%ADD367R,0.12611X0.07296*%
%ADD368R,0.02217X0.01784*%
%ADD369R,0.10052X0.04343*%
%ADD370R,0.35839X0.37217*%
%ADD371R,0.10642X0.10642*%
%ADD372O,0.04540X0.01784*%
%ADD373O,0.01784X0.04540*%
%ADD374R,0.13398X0.13398*%
%ADD375R,0.01981X0.02572*%
%ADD376R,0.02572X0.01981*%
%ADD377R,0.06509X0.03359*%
%ADD378R,0.07690X0.15367*%
G04:AMPARAMS|DCode=379|XSize=19.81mil|YSize=61.15mil|CornerRadius=5.95mil|HoleSize=0mil|Usage=FLASHONLY|Rotation=90.000|XOffset=0mil|YOffset=0mil|HoleType=Round|Shape=RoundedRectangle|*
%AMROUNDEDRECTD379*
21,1,0.01981,0.04925,0,0,90.0*
21,1,0.00791,0.06115,0,0,90.0*
1,1,0.01190,0.02463,0.00396*
1,1,0.01190,0.02463,-0.00396*
1,1,0.01190,-0.02463,-0.00396*
1,1,0.01190,-0.02463,0.00396*
%
%ADD379ROUNDEDRECTD379*%
G04:AMPARAMS|DCode=380|XSize=33.59mil|YSize=55.24mil|CornerRadius=5.92mil|HoleSize=0mil|Usage=FLASHONLY|Rotation=270.000|XOffset=0mil|YOffset=0mil|HoleType=Round|Shape=RoundedRectangle|*
%AMROUNDEDRECTD380*
21,1,0.03359,0.04341,0,0,270.0*
21,1,0.02175,0.05524,0,0,270.0*
1,1,0.01184,-0.02170,-0.01088*
1,1,0.01184,-0.02170,0.01088*
1,1,0.01184,0.02170,0.01088*
1,1,0.01184,0.02170,-0.01088*
%
%ADD380ROUNDEDRECTD380*%
G04:AMPARAMS|DCode=381|XSize=132.02mil|YSize=78.87mil|CornerRadius=6.13mil|HoleSize=0mil|Usage=FLASHONLY|Rotation=90.000|XOffset=0mil|YOffset=0mil|HoleType=Round|Shape=RoundedRectangle|*
%AMROUNDEDRECTD381*
21,1,0.13202,0.06661,0,0,90.0*
21,1,0.11976,0.07887,0,0,90.0*
1,1,0.01225,0.03331,0.05988*
1,1,0.01225,0.03331,-0.05988*
1,1,0.01225,-0.03331,-0.05988*
1,1,0.01225,-0.03331,0.05988*
%
%ADD381ROUNDEDRECTD381*%
G04:AMPARAMS|DCode=382|XSize=31.62mil|YSize=78.87mil|CornerRadius=6.01mil|HoleSize=0mil|Usage=FLASHONLY|Rotation=90.000|XOffset=0mil|YOffset=0mil|HoleType=Round|Shape=RoundedRectangle|*
%AMROUNDEDRECTD382*
21,1,0.03162,0.06685,0,0,90.0*
21,1,0.01961,0.07887,0,0,90.0*
1,1,0.01202,0.03343,0.00980*
1,1,0.01202,0.03343,-0.00980*
1,1,0.01202,-0.03343,-0.00980*
1,1,0.01202,-0.03343,0.00980*
%
%ADD382ROUNDEDRECTD382*%
%ADD383R,0.02375X0.02965*%
G04:AMPARAMS|DCode=384|XSize=31.62mil|YSize=90.68mil|CornerRadius=6.01mil|HoleSize=0mil|Usage=FLASHONLY|Rotation=90.000|XOffset=0mil|YOffset=0mil|HoleType=Round|Shape=RoundedRectangle|*
%AMROUNDEDRECTD384*
21,1,0.03162,0.07866,0,0,90.0*
21,1,0.01961,0.09068,0,0,90.0*
1,1,0.01202,0.03933,0.00980*
1,1,0.01202,0.03933,-0.00980*
1,1,0.01202,-0.03933,-0.00980*
1,1,0.01202,-0.03933,0.00980*
%
%ADD384ROUNDEDRECTD384*%
G04:AMPARAMS|DCode=385|XSize=133.98mil|YSize=90.68mil|CornerRadius=6.07mil|HoleSize=0mil|Usage=FLASHONLY|Rotation=90.000|XOffset=0mil|YOffset=0mil|HoleType=Round|Shape=RoundedRectangle|*
%AMROUNDEDRECTD385*
21,1,0.13398,0.07854,0,0,90.0*
21,1,0.12185,0.09068,0,0,90.0*
1,1,0.01213,0.03927,0.06093*
1,1,0.01213,0.03927,-0.06093*
1,1,0.01213,-0.03927,-0.06093*
1,1,0.01213,-0.03927,0.06093*
%
%ADD385ROUNDEDRECTD385*%
%ADD386R,0.04737X0.02769*%
%ADD387R,0.07178X0.10170*%
%ADD388R,0.02965X0.02178*%
%ADD389R,0.04737X0.05131*%
%ADD390R,0.02572X0.03753*%
%ADD391O,0.10642X0.03556*%
%ADD392R,0.09265X0.13398*%
%ADD393R,0.09265X0.03556*%
%ADD394R,0.07690X0.05328*%
G36*
X333080Y357697D02*
X333122Y357655D01*
X333122Y335669D01*
X311431D01*
X311346Y357343D01*
X311699Y357697D01*
X333080Y357697D01*
D02*
G37*
D42*
X238100Y575162D02*
D03*
Y570438D02*
D03*
X1012390Y485425D02*
D03*
Y490146D02*
D03*
X1019362Y258760D02*
D03*
Y263484D02*
D03*
X530244Y615116D02*
D03*
Y619840D02*
D03*
X416132Y616083D02*
D03*
Y611358D02*
D03*
D58*
X349971Y682161D02*
D03*
Y680193D02*
D03*
Y678224D02*
D03*
X356470D02*
D03*
Y680193D02*
D03*
Y682161D02*
D03*
D59*
X522432Y111876D02*
D03*
X488968D02*
D03*
X471732D02*
D03*
X438268D02*
D03*
X422232D02*
D03*
X388768D02*
D03*
X371832D02*
D03*
X338368D02*
D03*
X321932D02*
D03*
X288468D02*
D03*
X271732D02*
D03*
X238268D02*
D03*
X220732D02*
D03*
X187268D02*
D03*
X171248D02*
D03*
X137784D02*
D03*
D99*
X575044Y349361D02*
D03*
X570320D02*
D03*
X106880Y473906D02*
D03*
X111605D02*
D03*
X352688Y468631D02*
D03*
X357412Y468629D02*
D03*
X157442Y347893D02*
D03*
X152717D02*
D03*
X627075Y659142D02*
D03*
X631799D02*
D03*
X417745Y542996D02*
D03*
X413021D02*
D03*
X537410Y580005D02*
D03*
X542134D02*
D03*
D130*
X932532Y463000D02*
D03*
X929068D02*
D03*
X167926Y611655D02*
D03*
X164462D02*
D03*
X159426Y584347D02*
D03*
X162891D02*
D03*
X924758Y722504D02*
D03*
X921294D02*
D03*
X882039Y708584D02*
D03*
X885503D02*
D03*
X358471Y288603D02*
D03*
X361935D02*
D03*
X435941Y284634D02*
D03*
X439405D02*
D03*
X403240Y297228D02*
D03*
X399775D02*
D03*
X435831Y280972D02*
D03*
X439296D02*
D03*
X403313Y300995D02*
D03*
X399849D02*
D03*
X348834Y287575D02*
D03*
X352299D02*
D03*
X340186Y287600D02*
D03*
X343650D02*
D03*
X331733Y287616D02*
D03*
X335197D02*
D03*
X323302Y287680D02*
D03*
X326766D02*
D03*
X314893D02*
D03*
X318358D02*
D03*
X306457Y287764D02*
D03*
X309922D02*
D03*
X297990Y287719D02*
D03*
X301455D02*
D03*
X289731Y287968D02*
D03*
X293195D02*
D03*
X491733Y195771D02*
D03*
X488269D02*
D03*
X440365Y193251D02*
D03*
X436901D02*
D03*
X391377Y192471D02*
D03*
X387912D02*
D03*
X340429Y195339D02*
D03*
X336965D02*
D03*
X290484Y195551D02*
D03*
X287020D02*
D03*
X239094Y191012D02*
D03*
X235630D02*
D03*
X188428Y191055D02*
D03*
X184964D02*
D03*
X135201Y196661D02*
D03*
X131736D02*
D03*
X507287Y219028D02*
D03*
X510752D02*
D03*
X456866Y218976D02*
D03*
X460331D02*
D03*
X407224Y219098D02*
D03*
X410689D02*
D03*
X356913Y214571D02*
D03*
X360378D02*
D03*
X306594Y215634D02*
D03*
X310059D02*
D03*
X257169Y219063D02*
D03*
X260634D02*
D03*
X206098Y214535D02*
D03*
X209562D02*
D03*
X158276D02*
D03*
X161740D02*
D03*
X491684Y191957D02*
D03*
X488220D02*
D03*
X440404Y197204D02*
D03*
X436939D02*
D03*
X391469Y196351D02*
D03*
X388005D02*
D03*
X340429Y190681D02*
D03*
X336965D02*
D03*
X290577Y191485D02*
D03*
X287112D02*
D03*
X239094Y195551D02*
D03*
X235630D02*
D03*
X188428Y195583D02*
D03*
X184964D02*
D03*
X135248Y192133D02*
D03*
X131783D02*
D03*
X507287Y213898D02*
D03*
X510752D02*
D03*
X456866Y214370D02*
D03*
X460331D02*
D03*
X407224Y214398D02*
D03*
X410689D02*
D03*
X356913Y219098D02*
D03*
X360378D02*
D03*
X306594Y220272D02*
D03*
X310059D02*
D03*
X257169Y214535D02*
D03*
X260634D02*
D03*
X206098Y219063D02*
D03*
X209562D02*
D03*
X158276D02*
D03*
X161740D02*
D03*
X335650Y345043D02*
D03*
X339114D02*
D03*
X335697Y350994D02*
D03*
X339161D02*
D03*
X335697Y356345D02*
D03*
X339161D02*
D03*
X335619Y333034D02*
D03*
X339084D02*
D03*
X335650Y339776D02*
D03*
X339114D02*
D03*
X305193Y353131D02*
D03*
X301728D02*
D03*
X304953Y333293D02*
D03*
X301489D02*
D03*
X304985Y338606D02*
D03*
X301520D02*
D03*
X305116Y347614D02*
D03*
X301651D02*
D03*
X305193Y357038D02*
D03*
X301728D02*
D03*
D131*
X918300Y505432D02*
D03*
Y501968D02*
D03*
X937467Y472130D02*
D03*
Y475595D02*
D03*
X987800Y473568D02*
D03*
Y477032D02*
D03*
X953600Y496968D02*
D03*
Y500432D02*
D03*
X753352Y655257D02*
D03*
Y651792D02*
D03*
X818321Y655219D02*
D03*
Y651755D02*
D03*
X225600Y571068D02*
D03*
Y574532D02*
D03*
X125038Y617983D02*
D03*
Y621448D02*
D03*
X155036Y777947D02*
D03*
Y781411D02*
D03*
X122673Y778634D02*
D03*
Y782099D02*
D03*
X92107Y778265D02*
D03*
Y781730D02*
D03*
X61386Y778312D02*
D03*
Y781777D02*
D03*
X951600Y468768D02*
D03*
Y472232D02*
D03*
X1018228Y487136D02*
D03*
Y490600D02*
D03*
X1025767Y260490D02*
D03*
Y263955D02*
D03*
X1025931Y274982D02*
D03*
Y271518D02*
D03*
X1017589Y500177D02*
D03*
Y496713D02*
D03*
X1055156Y741518D02*
D03*
Y744982D02*
D03*
X912753Y734821D02*
D03*
Y731356D02*
D03*
X899678Y761230D02*
D03*
Y764695D02*
D03*
X512972Y181087D02*
D03*
Y177622D02*
D03*
X466917Y181805D02*
D03*
Y178340D02*
D03*
X413619Y182709D02*
D03*
Y179244D02*
D03*
X362631Y182727D02*
D03*
Y179262D02*
D03*
X313687Y181953D02*
D03*
Y178488D02*
D03*
X258583Y181091D02*
D03*
Y177626D02*
D03*
X206952Y181972D02*
D03*
Y178508D02*
D03*
X156186Y181937D02*
D03*
Y178472D02*
D03*
X517583Y181087D02*
D03*
Y177622D02*
D03*
X462388Y181818D02*
D03*
Y178354D02*
D03*
X408878Y182709D02*
D03*
Y179244D02*
D03*
X357890Y182757D02*
D03*
Y179292D02*
D03*
X309025Y181953D02*
D03*
Y178488D02*
D03*
X263110Y181091D02*
D03*
Y177626D02*
D03*
X211544Y181972D02*
D03*
Y178508D02*
D03*
X160927Y181937D02*
D03*
Y178472D02*
D03*
X220593Y493182D02*
D03*
Y496647D02*
D03*
X225121Y493182D02*
D03*
Y496647D02*
D03*
X229650Y493182D02*
D03*
Y496647D02*
D03*
X234178Y493182D02*
D03*
Y496647D02*
D03*
X238785Y493182D02*
D03*
Y496647D02*
D03*
X265120Y453032D02*
D03*
Y449568D02*
D03*
X268800Y452932D02*
D03*
Y449468D02*
D03*
X118659Y541575D02*
D03*
Y538110D02*
D03*
X123188Y541516D02*
D03*
Y538052D02*
D03*
X289424Y434726D02*
D03*
Y431262D02*
D03*
X293953Y434726D02*
D03*
Y431262D02*
D03*
X118659Y528585D02*
D03*
Y532049D02*
D03*
X290010Y421283D02*
D03*
Y424747D02*
D03*
X739064Y191359D02*
D03*
Y194824D02*
D03*
X743593Y191344D02*
D03*
Y194808D02*
D03*
X744105Y204715D02*
D03*
Y201251D02*
D03*
X182520Y412006D02*
D03*
Y408542D02*
D03*
X186510Y411996D02*
D03*
Y408532D02*
D03*
X183608Y399064D02*
D03*
Y402529D02*
D03*
X462527Y597995D02*
D03*
Y601460D02*
D03*
X1011182Y335578D02*
D03*
Y339042D02*
D03*
X1015809Y335578D02*
D03*
Y339042D02*
D03*
X1016270Y350217D02*
D03*
Y346752D02*
D03*
X873474Y396348D02*
D03*
Y392884D02*
D03*
X565772Y304071D02*
D03*
Y300607D02*
D03*
X549000Y760599D02*
D03*
Y757135D02*
D03*
D133*
X914451Y479356D02*
D03*
Y473844D02*
D03*
Y467756D02*
D03*
Y462244D02*
D03*
X987300Y486856D02*
D03*
Y481344D02*
D03*
X337241Y677801D02*
D03*
Y683313D02*
D03*
X127119Y505026D02*
D03*
Y499514D02*
D03*
X362278Y684838D02*
D03*
X362279Y679325D02*
D03*
X556938Y269239D02*
D03*
Y274751D02*
D03*
X557230Y246693D02*
D03*
Y252205D02*
D03*
X618715Y636271D02*
D03*
Y630759D02*
D03*
X863997Y424912D02*
D03*
X863997Y419400D02*
D03*
X1016732Y507087D02*
D03*
Y512598D02*
D03*
X1019685Y361417D02*
D03*
X1019685Y366929D02*
D03*
X1016658Y283886D02*
D03*
X1016658Y289397D02*
D03*
X165445Y372676D02*
D03*
Y378188D02*
D03*
X554622Y324586D02*
D03*
Y319074D02*
D03*
X344590Y441867D02*
D03*
X344589Y436355D02*
D03*
X878415Y398179D02*
D03*
Y392667D02*
D03*
D134*
X922408Y507048D02*
D03*
Y500552D02*
D03*
X625079Y653461D02*
D03*
X625079Y646963D02*
D03*
X597723Y702437D02*
D03*
Y695941D02*
D03*
X353221Y705762D02*
D03*
Y699266D02*
D03*
X35695Y231976D02*
D03*
Y225480D02*
D03*
X22439Y231976D02*
D03*
Y225482D02*
D03*
X459221Y741760D02*
D03*
Y748256D02*
D03*
X771459Y444754D02*
D03*
Y438258D02*
D03*
X448812Y602241D02*
D03*
Y595744D02*
D03*
X561131Y288248D02*
D03*
X561132Y294743D02*
D03*
X550835Y260893D02*
D03*
Y267389D02*
D03*
X543944Y259973D02*
D03*
Y253477D02*
D03*
X556189Y234815D02*
D03*
Y241311D02*
D03*
X159373Y360017D02*
D03*
Y353521D02*
D03*
X120999Y486847D02*
D03*
Y480350D02*
D03*
X588370Y292956D02*
D03*
Y286461D02*
D03*
X625278Y631206D02*
D03*
X625280Y624709D02*
D03*
X534850Y748256D02*
D03*
Y741760D02*
D03*
X435598Y748256D02*
D03*
Y741760D02*
D03*
X793373Y444752D02*
D03*
Y438256D02*
D03*
X786482Y444752D02*
D03*
Y438256D02*
D03*
X473390Y748256D02*
D03*
Y741760D02*
D03*
X779591Y444752D02*
D03*
Y438256D02*
D03*
X511193Y748257D02*
D03*
X511194Y741760D02*
D03*
X426290Y554927D02*
D03*
Y548431D02*
D03*
X529436Y569120D02*
D03*
Y575616D02*
D03*
X350693Y441938D02*
D03*
Y448434D02*
D03*
X120999Y499644D02*
D03*
Y493148D02*
D03*
X159248Y372814D02*
D03*
Y366318D02*
D03*
X560521Y324213D02*
D03*
Y330709D02*
D03*
X159313Y379114D02*
D03*
Y385610D02*
D03*
X560521Y337009D02*
D03*
X560520Y343505D02*
D03*
X560521Y317913D02*
D03*
X560520Y311417D02*
D03*
X558405Y634244D02*
D03*
Y627750D02*
D03*
X558405Y619522D02*
D03*
Y613026D02*
D03*
X387587Y604016D02*
D03*
Y597520D02*
D03*
X387410Y610827D02*
D03*
Y617323D02*
D03*
X350809Y454735D02*
D03*
Y461231D02*
D03*
X350693Y435638D02*
D03*
Y429142D02*
D03*
X426415Y567134D02*
D03*
Y560638D02*
D03*
X529388Y556323D02*
D03*
Y562819D02*
D03*
X426524Y572132D02*
D03*
Y578626D02*
D03*
X529437Y549557D02*
D03*
Y543061D02*
D03*
X120999Y505944D02*
D03*
Y512440D02*
D03*
X531008Y634721D02*
D03*
X531008Y628225D02*
D03*
X415544Y603779D02*
D03*
Y597283D02*
D03*
X453053Y550123D02*
D03*
X453051Y556619D02*
D03*
X489248Y551090D02*
D03*
Y557587D02*
D03*
X482125Y551090D02*
D03*
Y557587D02*
D03*
X462590Y543472D02*
D03*
X462590Y549968D02*
D03*
X475234Y551099D02*
D03*
Y557595D02*
D03*
D137*
X495323Y575761D02*
D03*
X501819Y575760D02*
D03*
X488106Y700382D02*
D03*
X481610D02*
D03*
X418508Y700410D02*
D03*
X425006D02*
D03*
X442012D02*
D03*
X448508D02*
D03*
X493985Y700382D02*
D03*
X500481D02*
D03*
X501559Y566480D02*
D03*
X495063Y566482D02*
D03*
X501819Y582704D02*
D03*
X495323D02*
D03*
X453050Y587356D02*
D03*
X459546D02*
D03*
X452881Y580368D02*
D03*
X459377D02*
D03*
X453738Y568463D02*
D03*
X460234D02*
D03*
D140*
X995291Y477445D02*
D03*
X991944D02*
D03*
X995291Y472917D02*
D03*
X991944D02*
D03*
X126633Y528016D02*
D03*
Y532545D02*
D03*
X297428Y421057D02*
D03*
X297455Y425142D02*
D03*
X736096Y200681D02*
D03*
X735928Y205210D02*
D03*
X739443Y200681D02*
D03*
X739274Y205210D02*
D03*
X885192Y713112D02*
D03*
X888539D02*
D03*
X893266Y704437D02*
D03*
X896613Y704438D02*
D03*
X1013110Y500581D02*
D03*
X1009764D02*
D03*
X1021304Y275529D02*
D03*
X1017957D02*
D03*
X1013110Y496585D02*
D03*
X1009764D02*
D03*
X1021304Y271000D02*
D03*
X1017957D02*
D03*
X294082Y421057D02*
D03*
X294109Y425142D02*
D03*
X123286Y528016D02*
D03*
Y532545D02*
D03*
X191472Y398449D02*
D03*
X188125D02*
D03*
X191512Y402983D02*
D03*
X188165D02*
D03*
X1008604Y350546D02*
D03*
X1011950D02*
D03*
X1008593Y346624D02*
D03*
X1011940D02*
D03*
D144*
X304381Y226827D02*
D03*
X311074D02*
D03*
X434488Y268878D02*
D03*
X441181D02*
D03*
X434604Y275354D02*
D03*
X441297D02*
D03*
X403559Y281840D02*
D03*
X396866D02*
D03*
X403559Y290518D02*
D03*
X396866D02*
D03*
X511661Y233988D02*
D03*
X504968D02*
D03*
X511661Y225524D02*
D03*
X504968D02*
D03*
X486657Y183417D02*
D03*
X493350D02*
D03*
X486657Y174937D02*
D03*
X493350D02*
D03*
X461390Y225850D02*
D03*
X454697D02*
D03*
X435280Y183429D02*
D03*
X441972D02*
D03*
X435502Y175386D02*
D03*
X442195Y175385D02*
D03*
X461390Y234315D02*
D03*
X454697D02*
D03*
X385961Y176347D02*
D03*
X392653Y176347D02*
D03*
X412028Y225972D02*
D03*
X405335D02*
D03*
X412028Y234437D02*
D03*
X405335D02*
D03*
X385961Y183736D02*
D03*
X392653D02*
D03*
X334972Y175776D02*
D03*
X341665D02*
D03*
X361858Y234437D02*
D03*
X355165D02*
D03*
X334980Y183492D02*
D03*
X341673D02*
D03*
X362075Y225972D02*
D03*
X355382D02*
D03*
X311074Y235295D02*
D03*
X304381D02*
D03*
X285130Y183496D02*
D03*
X291823D02*
D03*
X285130Y175779D02*
D03*
X291823Y175778D02*
D03*
X232720Y183346D02*
D03*
X239413D02*
D03*
X260547Y234028D02*
D03*
X253854D02*
D03*
X232720Y174882D02*
D03*
X239413D02*
D03*
X260673Y225563D02*
D03*
X253980D02*
D03*
X128472Y174134D02*
D03*
X135165D02*
D03*
X128557Y182602D02*
D03*
X135249Y182601D02*
D03*
X163610Y225563D02*
D03*
X156917D02*
D03*
X163488Y234028D02*
D03*
X156795D02*
D03*
X209646D02*
D03*
X202953D02*
D03*
X183543Y183346D02*
D03*
X190236D02*
D03*
X209646Y225563D02*
D03*
X202953D02*
D03*
X183330Y175932D02*
D03*
X190023D02*
D03*
X466110Y700410D02*
D03*
X459417D02*
D03*
X516232Y700622D02*
D03*
X509540D02*
D03*
X157800Y577630D02*
D03*
X164492D02*
D03*
D146*
X214608Y496232D02*
D03*
Y490327D02*
D03*
X207718Y496232D02*
D03*
X207717Y490327D02*
D03*
X200825Y496232D02*
D03*
X200826Y490327D02*
D03*
X193722Y496232D02*
D03*
X193723Y490327D02*
D03*
X186832Y496232D02*
D03*
Y490327D02*
D03*
X273806Y448651D02*
D03*
X273807Y454556D02*
D03*
X280574Y448341D02*
D03*
X280572Y454247D02*
D03*
X276913Y370064D02*
D03*
X276913Y364159D02*
D03*
X290697Y370064D02*
D03*
X290693Y364159D02*
D03*
X283804Y370064D02*
D03*
X283803Y364159D02*
D03*
X345078Y327466D02*
D03*
X345075Y333370D02*
D03*
X351701Y328449D02*
D03*
X351699Y334354D02*
D03*
D151*
X549000Y749968D02*
D03*
Y753512D02*
D03*
X361401Y302969D02*
D03*
Y299426D02*
D03*
X357840Y302969D02*
D03*
Y299426D02*
D03*
D155*
X16537Y232017D02*
D03*
X12954Y232016D02*
D03*
X111598Y622409D02*
D03*
X108015D02*
D03*
X427663Y272844D02*
D03*
X424081Y272843D02*
D03*
X1005534Y490106D02*
D03*
X1001951D02*
D03*
X488828Y165114D02*
D03*
X492410D02*
D03*
X492076Y235578D02*
D03*
X495659D02*
D03*
X437464Y164788D02*
D03*
X441047D02*
D03*
X440910Y236161D02*
D03*
X444493D02*
D03*
X387900Y166998D02*
D03*
X391482D02*
D03*
X391388Y236161D02*
D03*
X394970D02*
D03*
X334449Y164523D02*
D03*
X338032D02*
D03*
X341346Y236161D02*
D03*
X344928D02*
D03*
X284640Y166034D02*
D03*
X288223D02*
D03*
X289833Y236161D02*
D03*
X293415D02*
D03*
X240430Y234059D02*
D03*
X244013D02*
D03*
X186680D02*
D03*
X190263D02*
D03*
X1008359Y263390D02*
D03*
X1011942Y263391D02*
D03*
X45181Y231729D02*
D03*
X41597D02*
D03*
X148842Y232061D02*
D03*
X145259Y232063D02*
D03*
X294465Y454515D02*
D03*
X298048D02*
D03*
X176318Y484617D02*
D03*
X172736D02*
D03*
X408224Y272240D02*
D03*
X404641Y272239D02*
D03*
X454436Y602578D02*
D03*
X458018D02*
D03*
D172*
X362666Y281134D02*
D03*
Y284717D02*
D03*
X357531D02*
D03*
Y281134D02*
D03*
X352573Y280232D02*
D03*
Y283815D02*
D03*
X327027Y280336D02*
D03*
Y283919D02*
D03*
X318631Y280336D02*
D03*
Y283919D02*
D03*
X310199Y280420D02*
D03*
Y284003D02*
D03*
X293369Y280624D02*
D03*
Y284207D02*
D03*
X348399Y283815D02*
D03*
Y280232D02*
D03*
X339850Y283837D02*
D03*
Y280254D02*
D03*
X331417Y283855D02*
D03*
Y280273D02*
D03*
X322853Y283919D02*
D03*
Y280336D02*
D03*
X314456Y283919D02*
D03*
Y280336D02*
D03*
X306025Y284003D02*
D03*
Y280420D02*
D03*
X297614Y283958D02*
D03*
Y280376D02*
D03*
X289194Y284207D02*
D03*
Y280624D02*
D03*
X164492Y571007D02*
D03*
Y567424D02*
D03*
X525871Y181637D02*
D03*
Y178055D02*
D03*
X471854Y185947D02*
D03*
X471854Y182364D02*
D03*
X371804Y182181D02*
D03*
Y178599D02*
D03*
X423110Y181058D02*
D03*
X423112Y177475D02*
D03*
X320984Y182297D02*
D03*
X320984Y178714D02*
D03*
X269197Y185176D02*
D03*
X269197Y181593D02*
D03*
X217730Y182889D02*
D03*
X217728Y186472D02*
D03*
X167976Y182568D02*
D03*
X167975Y178985D02*
D03*
X242884Y164609D02*
D03*
Y168192D02*
D03*
X193630Y160898D02*
D03*
Y164480D02*
D03*
X135165D02*
D03*
Y160898D02*
D03*
X344024Y280254D02*
D03*
Y283837D02*
D03*
X335591Y280273D02*
D03*
Y283855D02*
D03*
X301789Y280376D02*
D03*
Y283958D02*
D03*
D177*
X271568Y389377D02*
D03*
X262315Y393117D02*
D03*
X262316Y385637D02*
D03*
D180*
X231405Y576147D02*
D03*
Y569455D02*
D03*
X604911Y703594D02*
D03*
Y696902D02*
D03*
X612453Y703594D02*
D03*
Y696902D02*
D03*
X345972Y706575D02*
D03*
Y699882D02*
D03*
X337993Y706575D02*
D03*
Y699882D02*
D03*
X487563Y742838D02*
D03*
Y749532D02*
D03*
X769412Y394901D02*
D03*
X769413Y401594D02*
D03*
X118646Y615717D02*
D03*
X118645Y622409D02*
D03*
X179155Y497031D02*
D03*
X179154Y490338D02*
D03*
X288630Y447181D02*
D03*
X288629Y453873D02*
D03*
X269211Y370742D02*
D03*
X269213Y364049D02*
D03*
X359591Y327803D02*
D03*
Y334496D02*
D03*
D183*
X1067982Y263281D02*
D03*
X1067983Y269580D02*
D03*
X1059614Y488787D02*
D03*
X1059614Y495086D02*
D03*
X1057309Y345853D02*
D03*
Y339554D02*
D03*
X255524Y393687D02*
D03*
Y387387D02*
D03*
D186*
X969644Y463900D02*
D03*
X975156D02*
D03*
X959144D02*
D03*
X964656D02*
D03*
X246878Y426530D02*
D03*
X252390D02*
D03*
X946290Y717984D02*
D03*
X951801Y717984D02*
D03*
X776777Y200130D02*
D03*
X782289D02*
D03*
X946290Y712668D02*
D03*
X951801Y712668D02*
D03*
X922035Y717570D02*
D03*
X927547D02*
D03*
X927547Y712058D02*
D03*
X922035D02*
D03*
X1051674Y345397D02*
D03*
X1046162D02*
D03*
X1053905Y495422D02*
D03*
X1048393D02*
D03*
X1061760Y270163D02*
D03*
X1056248D02*
D03*
X408866Y666410D02*
D03*
X414378D02*
D03*
X408866Y684383D02*
D03*
X414378Y684382D02*
D03*
X306826Y369886D02*
D03*
X312338D02*
D03*
X82797Y533067D02*
D03*
X88309D02*
D03*
X145355Y403784D02*
D03*
X150867D02*
D03*
D187*
X556876Y282724D02*
D03*
Y279378D02*
D03*
D191*
X795387Y210964D02*
D03*
X801687D02*
D03*
X68673Y526589D02*
D03*
X74974D02*
D03*
X235142Y416890D02*
D03*
X241441D02*
D03*
X133878Y403666D02*
D03*
X140177D02*
D03*
D192*
X1071817Y485819D02*
D03*
X1075547Y495071D02*
D03*
X1068077D02*
D03*
X794217Y204159D02*
D03*
X801697D02*
D03*
X797957Y194907D02*
D03*
X1074728Y269682D02*
D03*
X1082210Y269681D02*
D03*
X1078470Y260430D02*
D03*
X1068002Y336684D02*
D03*
X1071742Y345936D02*
D03*
X1064262D02*
D03*
X72067Y542633D02*
D03*
X68328Y533381D02*
D03*
X75808D02*
D03*
X238289Y432935D02*
D03*
X234549Y423683D02*
D03*
X242029D02*
D03*
X137520Y419253D02*
D03*
X133779Y410001D02*
D03*
X141260D02*
D03*
D199*
X604897Y716962D02*
D03*
D200*
X341897D02*
D03*
D201*
X1202575Y614468D02*
D03*
Y597932D02*
D03*
D202*
X1201000Y623900D02*
D03*
Y588500D02*
D03*
X1218500Y585700D02*
D03*
Y626700D02*
D03*
D203*
X433400Y397700D02*
D03*
X207100Y561800D02*
D03*
X91360Y345079D02*
D03*
X178142Y637269D02*
D03*
X141682Y591366D02*
D03*
X177790Y557027D02*
D03*
X182149Y323063D02*
D03*
X91665Y621253D02*
D03*
X545560Y350029D02*
D03*
X546943Y305318D02*
D03*
X532147Y282295D02*
D03*
X804682Y380464D02*
D03*
X919713Y526475D02*
D03*
X336538Y463083D02*
D03*
X129467Y472724D02*
D03*
X524242Y651005D02*
D03*
X518821Y539966D02*
D03*
X437945Y538061D02*
D03*
X428190Y593297D02*
D03*
X915836Y449698D02*
D03*
X958787Y297583D02*
D03*
X911238Y361504D02*
D03*
X1205202Y656015D02*
D03*
Y720385D02*
D03*
D204*
X1074500Y126000D02*
D03*
X1153100D02*
D03*
D205*
X1064500D02*
D03*
X1054500D02*
D03*
X1044500D02*
D03*
X1034500D02*
D03*
X1024500D02*
D03*
X1014500D02*
D03*
X1143100D02*
D03*
X1133100D02*
D03*
X1123100D02*
D03*
X1113100D02*
D03*
X1103100D02*
D03*
D206*
X60000Y814961D02*
D03*
D207*
Y824961D02*
D03*
X70000Y814961D02*
D03*
Y824961D02*
D03*
X80000Y814961D02*
D03*
Y824961D02*
D03*
X90000Y814961D02*
D03*
Y824961D02*
D03*
X100000Y814961D02*
D03*
Y824961D02*
D03*
X110000Y814961D02*
D03*
Y824961D02*
D03*
X120000Y814961D02*
D03*
Y824961D02*
D03*
X130000Y814961D02*
D03*
Y824961D02*
D03*
X140000Y814961D02*
D03*
Y824961D02*
D03*
X150000Y814961D02*
D03*
Y824961D02*
D03*
X160000Y814961D02*
D03*
Y824961D02*
D03*
X170000Y814961D02*
D03*
Y824961D02*
D03*
X180000Y814961D02*
D03*
Y824961D02*
D03*
X190000Y814961D02*
D03*
Y824961D02*
D03*
X200000Y814961D02*
D03*
Y824961D02*
D03*
X210000Y814961D02*
D03*
Y824961D02*
D03*
X220000Y814961D02*
D03*
Y824961D02*
D03*
X230000Y814961D02*
D03*
Y824961D02*
D03*
X240000Y814961D02*
D03*
Y824961D02*
D03*
X250000Y814961D02*
D03*
Y824961D02*
D03*
X260000Y814961D02*
D03*
Y824961D02*
D03*
X270000Y814961D02*
D03*
Y824961D02*
D03*
D208*
X886744Y834943D02*
D03*
X917256D02*
D03*
D209*
X887335Y819983D02*
D03*
X916665D02*
D03*
D210*
X911843Y824117D02*
D03*
X892157D02*
D03*
D211*
X1179322Y412395D02*
D03*
Y428931D02*
D03*
Y445466D02*
D03*
Y462002D02*
D03*
X1157669Y462002D02*
D03*
Y445466D02*
D03*
Y428931D02*
D03*
Y412395D02*
D03*
D212*
X665932Y810115D02*
D03*
Y770745D02*
D03*
D213*
X1122683Y696172D02*
D03*
Y704164D02*
D03*
X1132683Y700188D02*
D03*
Y692196D02*
D03*
X1122683Y680227D02*
D03*
X1132683Y668219D02*
D03*
Y676212D02*
D03*
Y684204D02*
D03*
X1122683Y664243D02*
D03*
Y712156D02*
D03*
Y672235D02*
D03*
D214*
X1156440Y773766D02*
D03*
X1209870Y129472D02*
D03*
X27372D02*
D03*
X27516Y790665D02*
D03*
X1211780Y788624D02*
D03*
D215*
X1175798Y246044D02*
D03*
X1175357Y231440D02*
D03*
X1185200D02*
D03*
X1185641Y245822D02*
D03*
D216*
X678324Y326588D02*
D03*
X668324D02*
D03*
X678248Y295909D02*
D03*
X668248D02*
D03*
X678236Y310559D02*
D03*
X668236D02*
D03*
X1050275Y761548D02*
D03*
X1040275D02*
D03*
X1030812Y761636D02*
D03*
X1020812D02*
D03*
D217*
X1132683Y708180D02*
D03*
D218*
X1112683Y664105D02*
D03*
Y712294D02*
D03*
Y674105D02*
D03*
Y702294D02*
D03*
D219*
X1192683Y663200D02*
D03*
Y713200D02*
D03*
D220*
X423613Y298888D02*
D03*
X420513D02*
D03*
X423613Y301988D02*
D03*
X420513D02*
D03*
X495556Y203690D02*
D03*
Y206790D02*
D03*
X498656Y203690D02*
D03*
Y206790D02*
D03*
X395324Y203690D02*
D03*
Y206790D02*
D03*
X398424Y203690D02*
D03*
Y206790D02*
D03*
X444804Y203690D02*
D03*
Y206790D02*
D03*
X447904Y203690D02*
D03*
Y206790D02*
D03*
X345017Y203690D02*
D03*
Y206790D02*
D03*
X348117Y203690D02*
D03*
Y206790D02*
D03*
X294926Y203690D02*
D03*
Y206790D02*
D03*
X298026Y203690D02*
D03*
Y206790D02*
D03*
X244911Y203690D02*
D03*
Y206790D02*
D03*
X248011Y203690D02*
D03*
Y206790D02*
D03*
X193966Y203690D02*
D03*
Y206790D02*
D03*
X197066Y203690D02*
D03*
Y206790D02*
D03*
X144091Y203690D02*
D03*
Y206790D02*
D03*
X147191Y203690D02*
D03*
Y206790D02*
D03*
D221*
X21503Y708467D02*
D03*
Y713467D02*
D03*
D222*
X297805Y716512D02*
D03*
X307803D02*
D03*
X317803D02*
D03*
D223*
X727500Y662400D02*
D03*
X721741Y661559D02*
D03*
X772787Y691000D02*
D03*
X769000D02*
D03*
X769300Y721400D02*
D03*
X931900Y488200D02*
D03*
X908100Y489000D02*
D03*
X912000Y491900D02*
D03*
X915500D02*
D03*
X913300Y486866D02*
D03*
X915200Y509600D02*
D03*
X918600D02*
D03*
X915200Y498700D02*
D03*
X918700Y497331D02*
D03*
X936100Y478700D02*
D03*
X937219Y464700D02*
D03*
X939100Y468200D02*
D03*
X978400Y467600D02*
D03*
X954000Y492300D02*
D03*
X990700Y489800D02*
D03*
X991800Y485819D02*
D03*
X949300Y464900D02*
D03*
X772500Y756300D02*
D03*
X788480Y773900D02*
D03*
X776900Y772100D02*
D03*
X730202Y714739D02*
D03*
X739878Y702091D02*
D03*
X759468Y750200D02*
D03*
X754868D02*
D03*
X751500Y781400D02*
D03*
X578700Y626400D02*
D03*
X574375D02*
D03*
X544336Y627926D02*
D03*
X506213Y647705D02*
D03*
X501673Y644425D02*
D03*
X369600Y344260D02*
D03*
X713386Y770866D02*
D03*
X694108Y797815D02*
D03*
X717717Y770866D02*
D03*
X748151Y765047D02*
D03*
X739370Y770866D02*
D03*
X699795Y758816D02*
D03*
X709055Y770866D02*
D03*
X759150Y797890D02*
D03*
X753838Y758726D02*
D03*
X722047Y770866D02*
D03*
X699795Y791494D02*
D03*
X759060Y765122D02*
D03*
X705017Y797890D02*
D03*
X730709Y770866D02*
D03*
X705017Y765212D02*
D03*
X735039Y770866D02*
D03*
X694108Y765138D02*
D03*
X748242Y797815D02*
D03*
X753929Y791494D02*
D03*
X529021Y691346D02*
D03*
X593878Y740256D02*
D03*
X568828Y685958D02*
D03*
X350590Y739292D02*
D03*
X489076Y722953D02*
D03*
X459244Y738795D02*
D03*
X476935Y691339D02*
D03*
X538370Y694500D02*
D03*
X576138Y694787D02*
D03*
X377730Y691339D02*
D03*
X517815Y707382D02*
D03*
X587500Y693755D02*
D03*
X500886Y722953D02*
D03*
X523016Y739292D02*
D03*
X375368Y688189D02*
D03*
X586791Y739045D02*
D03*
X363583Y694648D02*
D03*
X453315Y691339D02*
D03*
X524197Y706495D02*
D03*
X534827Y738795D02*
D03*
X384816Y691339D02*
D03*
X368307Y688189D02*
D03*
X500557Y694736D02*
D03*
X365945Y707695D02*
D03*
X511209Y738795D02*
D03*
X371850Y739292D02*
D03*
X441504Y691339D02*
D03*
X565535Y739292D02*
D03*
X505369Y694736D02*
D03*
X364764Y739292D02*
D03*
X570750Y690945D02*
D03*
X357677Y739292D02*
D03*
X382454Y688189D02*
D03*
X591125Y693755D02*
D03*
X549000Y745253D02*
D03*
X481681Y707294D02*
D03*
X380114Y694744D02*
D03*
X424996Y694736D02*
D03*
X378933Y739292D02*
D03*
X487587Y738795D02*
D03*
X521098Y727100D02*
D03*
X480500Y739292D02*
D03*
X432059Y688189D02*
D03*
X565000Y693767D02*
D03*
X427335Y688189D02*
D03*
X506843Y709842D02*
D03*
X509665Y726575D02*
D03*
X561375Y693767D02*
D03*
X574375Y690945D02*
D03*
X370644Y691339D02*
D03*
X581500Y688976D02*
D03*
X373028Y694744D02*
D03*
X577875Y688976D02*
D03*
X447433Y739292D02*
D03*
X386020D02*
D03*
X517815Y727100D02*
D03*
X497835Y726575D02*
D03*
X387201Y694744D02*
D03*
X389540Y688189D02*
D03*
X391989Y691339D02*
D03*
X393106Y739292D02*
D03*
X394287Y694744D02*
D03*
X395485Y726989D02*
D03*
X487696Y691195D02*
D03*
X417909Y706952D02*
D03*
X423815Y739292D02*
D03*
X510772Y709842D02*
D03*
X495831Y691339D02*
D03*
X512390Y694986D02*
D03*
X559630Y706733D02*
D03*
X460425Y706635D02*
D03*
X429697Y691339D02*
D03*
X524400Y723927D02*
D03*
X443866Y688189D02*
D03*
X458039Y691339D02*
D03*
X446228D02*
D03*
X540732Y691374D02*
D03*
X466331Y739292D02*
D03*
X434441Y691339D02*
D03*
X531284Y694500D02*
D03*
X435622Y738795D02*
D03*
X436803Y706544D02*
D03*
X498193Y688189D02*
D03*
X439142D02*
D03*
X469850Y691339D02*
D03*
X486054Y726575D02*
D03*
X531800Y727300D02*
D03*
X513779Y707382D02*
D03*
X502739Y691339D02*
D03*
X533646Y691374D02*
D03*
X543094Y694500D02*
D03*
X448614Y706913D02*
D03*
X450953Y688189D02*
D03*
X488768Y706635D02*
D03*
X545457Y691374D02*
D03*
X473417Y738795D02*
D03*
X455677Y688189D02*
D03*
X499398Y739292D02*
D03*
X505630Y726575D02*
D03*
X522638Y711614D02*
D03*
X589153Y741933D02*
D03*
X482019Y726575D02*
D03*
X546638Y739292D02*
D03*
X472211Y688189D02*
D03*
X547819Y694500D02*
D03*
X474598Y706634D02*
D03*
X479297Y688189D02*
D03*
X484045Y693317D02*
D03*
X493799Y726575D02*
D03*
X526600Y725900D02*
D03*
X493111Y722953D02*
D03*
X593862Y691293D02*
D03*
X504921Y722953D02*
D03*
X518602Y711614D02*
D03*
X574980Y739292D02*
D03*
X591496Y727715D02*
D03*
X566675Y688917D02*
D03*
X536008Y706292D02*
D03*
X531008Y724644D02*
D03*
X727500Y688600D02*
D03*
X251842Y456804D02*
D03*
X194043Y760800D02*
D03*
X1156111Y628800D02*
D03*
X1156100Y625300D02*
D03*
X1156111Y621100D02*
D03*
Y617900D02*
D03*
X1144100Y592800D02*
D03*
Y589700D02*
D03*
X1170406Y581827D02*
D03*
X1169940Y584700D02*
D03*
X449847Y566746D02*
D03*
X443080D02*
D03*
X453513Y573101D02*
D03*
X426329Y545508D02*
D03*
X429580Y548481D02*
D03*
X275492Y351544D02*
D03*
X974214Y716487D02*
D03*
X1064645Y596231D02*
D03*
X899625Y768533D02*
D03*
X984164Y747997D02*
D03*
X864837Y826161D02*
D03*
X964820Y755318D02*
D03*
X1086179Y625743D02*
D03*
X1071425Y642259D02*
D03*
X1099831Y653794D02*
D03*
X1133507Y617900D02*
D03*
X1114700Y588200D02*
D03*
X1133507Y588175D02*
D03*
X529397Y578539D02*
D03*
X545058Y580044D02*
D03*
X526146Y575566D02*
D03*
X1039872Y565826D02*
D03*
X1086179D02*
D03*
X1114700Y617900D02*
D03*
X1126600Y637900D02*
D03*
X1135500Y638300D02*
D03*
X1141200Y638100D02*
D03*
Y631600D02*
D03*
X868143Y609962D02*
D03*
X835354Y612720D02*
D03*
X928060Y609962D02*
D03*
X1139100Y441714D02*
D03*
X125400Y749100D02*
D03*
X52900Y747900D02*
D03*
X1059600Y149536D02*
D03*
X1138200Y150000D02*
D03*
X176043Y778138D02*
D03*
X171054Y788835D02*
D03*
X160648Y774979D02*
D03*
X154913Y785634D02*
D03*
X139172Y788175D02*
D03*
X144466Y778172D02*
D03*
X128608Y775440D02*
D03*
X123626Y785653D02*
D03*
X113801Y778161D02*
D03*
X108450Y788175D02*
D03*
X97615Y774803D02*
D03*
X92327Y785653D02*
D03*
X81190Y778146D02*
D03*
X76560Y788374D02*
D03*
X60783Y785626D02*
D03*
X65982Y775252D02*
D03*
X682905Y686400D02*
D03*
X711659Y689681D02*
D03*
X542000Y653148D02*
D03*
X559630D02*
D03*
X579258Y653340D02*
D03*
X664936Y689681D02*
D03*
X645150Y679300D02*
D03*
X584700Y684000D02*
D03*
X553800D02*
D03*
X545030Y673415D02*
D03*
Y678315D02*
D03*
X559630D02*
D03*
Y673415D02*
D03*
X648100Y659093D02*
D03*
Y663993D02*
D03*
X662700D02*
D03*
Y659093D02*
D03*
X579258Y659293D02*
D03*
Y664193D02*
D03*
X599634Y663993D02*
D03*
Y659093D02*
D03*
X559630Y659100D02*
D03*
Y664000D02*
D03*
X542000D02*
D03*
Y659100D02*
D03*
X489953Y152950D02*
D03*
X671400Y699546D02*
D03*
X675200Y696400D02*
D03*
X709055Y702716D02*
D03*
X239335Y152948D02*
D03*
X743227Y743808D02*
D03*
X739200Y740800D02*
D03*
X741552Y759283D02*
D03*
X737268D02*
D03*
X741552Y766808D02*
D03*
X739200Y720176D02*
D03*
X732900Y766808D02*
D03*
X737268D02*
D03*
X710800Y767500D02*
D03*
X709055Y751660D02*
D03*
X717096Y727268D02*
D03*
X725266Y720176D02*
D03*
X717717D02*
D03*
X714146Y717354D02*
D03*
X717717Y760023D02*
D03*
X728900Y723206D02*
D03*
X726417Y728452D02*
D03*
X734000Y721400D02*
D03*
X731434Y728452D02*
D03*
X726500Y760007D02*
D03*
X727739Y716146D02*
D03*
X733217Y711843D02*
D03*
X735969Y747244D02*
D03*
X735189Y739764D02*
D03*
X740122Y707594D02*
D03*
X716457Y747244D02*
D03*
Y739764D02*
D03*
X737402Y709673D02*
D03*
X624058Y733079D02*
D03*
X1063577Y208221D02*
D03*
X349744Y675479D02*
D03*
X345950Y682171D02*
D03*
X195345Y139921D02*
D03*
X917300Y707300D02*
D03*
X930500Y698700D02*
D03*
Y694300D02*
D03*
X293594Y188776D02*
D03*
X180400Y591273D02*
D03*
X176936Y594700D02*
D03*
X175802Y588194D02*
D03*
X183900Y594661D02*
D03*
X235693Y699326D02*
D03*
X231801Y702736D02*
D03*
X221700Y563200D02*
D03*
X226912D02*
D03*
X232416D02*
D03*
X180400Y594700D02*
D03*
X181889Y610979D02*
D03*
X1055412Y211506D02*
D03*
X1134139Y216395D02*
D03*
X1142362Y213196D02*
D03*
X264542Y634713D02*
D03*
X236700Y617477D02*
D03*
X232900D02*
D03*
X229101D02*
D03*
X224632Y611398D02*
D03*
X276552Y669955D02*
D03*
X244144Y611398D02*
D03*
X240577Y617477D02*
D03*
X250750Y651440D02*
D03*
X905237Y731102D02*
D03*
X908780D02*
D03*
X899677Y758203D02*
D03*
X790946Y692344D02*
D03*
X718909Y690299D02*
D03*
X908516Y693141D02*
D03*
X777167Y694621D02*
D03*
X781174Y694660D02*
D03*
X731224Y696235D02*
D03*
X904575Y696325D02*
D03*
X737953Y678712D02*
D03*
X82590Y750522D02*
D03*
X424377Y706976D02*
D03*
X295826Y698213D02*
D03*
X321900D02*
D03*
X295826Y692500D02*
D03*
X439747Y490578D02*
D03*
X255997Y699326D02*
D03*
X241044D02*
D03*
X433606Y506586D02*
D03*
X439090Y501768D02*
D03*
X252066Y702736D02*
D03*
X244970D02*
D03*
X206953Y184979D02*
D03*
X145963Y139921D02*
D03*
X353227Y709334D02*
D03*
X317265Y767132D02*
D03*
X301352Y766276D02*
D03*
X269143Y767052D02*
D03*
X291612Y781952D02*
D03*
X283207Y767638D02*
D03*
X301352Y781922D02*
D03*
X290432Y767557D02*
D03*
X118646Y610979D02*
D03*
X649873Y774702D02*
D03*
X899809Y752084D02*
D03*
X708193Y681200D02*
D03*
X712900D02*
D03*
X343229Y188776D02*
D03*
X623623Y658893D02*
D03*
X621415Y653340D02*
D03*
X715043Y661559D02*
D03*
X604911Y707279D02*
D03*
X597723Y707382D02*
D03*
X896881Y814507D02*
D03*
X1159184Y235061D02*
D03*
X1153355Y241493D02*
D03*
X681991Y766808D02*
D03*
Y774682D02*
D03*
X538724Y748256D02*
D03*
X603904Y749535D02*
D03*
X609875D02*
D03*
X624058Y807709D02*
D03*
X637882Y784284D02*
D03*
X612453Y707279D02*
D03*
X509047Y661995D02*
D03*
X521098Y677939D02*
D03*
X616615Y685552D02*
D03*
X634178Y673944D02*
D03*
X324737Y636197D02*
D03*
X489248Y548086D02*
D03*
X430475Y175857D02*
D03*
X219749Y323445D02*
D03*
X213386Y473802D02*
D03*
Y483091D02*
D03*
Y478950D02*
D03*
X254165Y766276D02*
D03*
X442110Y188890D02*
D03*
X393213Y188850D02*
D03*
X490958Y621145D02*
D03*
X344966Y752425D02*
D03*
X352396D02*
D03*
X338620D02*
D03*
X170205Y745736D02*
D03*
X165274Y755582D02*
D03*
X156196Y754468D02*
D03*
X132588Y733287D02*
D03*
X119753Y739683D02*
D03*
X88717Y750801D02*
D03*
X91994Y741068D02*
D03*
X58031Y733286D02*
D03*
X45194Y739681D02*
D03*
X295510Y354712D02*
D03*
X287106Y358889D02*
D03*
X255556Y342897D02*
D03*
X242282Y348125D02*
D03*
X284998Y339009D02*
D03*
X295492Y358818D02*
D03*
X107458Y626242D02*
D03*
X104285Y622464D02*
D03*
X297370Y431106D02*
D03*
X260234Y423494D02*
D03*
X255866D02*
D03*
X267171Y438260D02*
D03*
X249487D02*
D03*
X242338Y439649D02*
D03*
X247078Y439694D02*
D03*
X267885Y446416D02*
D03*
X259223Y457819D02*
D03*
X341788Y368702D02*
D03*
X344500Y365800D02*
D03*
X488700Y124700D02*
D03*
X522700D02*
D03*
X438000D02*
D03*
X472000D02*
D03*
X388500D02*
D03*
X422500D02*
D03*
X338100D02*
D03*
X372100D02*
D03*
X288200D02*
D03*
X322200D02*
D03*
X238000D02*
D03*
X272000D02*
D03*
X187500D02*
D03*
X221000D02*
D03*
X335590Y442722D02*
D03*
X339013Y445492D02*
D03*
X283521Y433340D02*
D03*
X334862Y378827D02*
D03*
X350693Y426206D02*
D03*
X240167Y333518D02*
D03*
X345972Y711008D02*
D03*
X337992D02*
D03*
X366011Y684957D02*
D03*
X408136Y300468D02*
D03*
X141304Y130707D02*
D03*
X190686D02*
D03*
X241882D02*
D03*
X246542Y139921D02*
D03*
X292093Y130707D02*
D03*
X296753Y139921D02*
D03*
X342166Y130707D02*
D03*
X346826Y139921D02*
D03*
X492701Y130707D02*
D03*
X497361Y139921D02*
D03*
X441603Y130707D02*
D03*
X446263Y139921D02*
D03*
X392392Y130707D02*
D03*
X397051Y139921D02*
D03*
X171100Y124700D02*
D03*
X172824Y405553D02*
D03*
X335815Y360890D02*
D03*
X831767Y649254D02*
D03*
X767460Y649029D02*
D03*
X903942Y288954D02*
D03*
X908818Y289280D02*
D03*
X904376Y295565D02*
D03*
X906002Y312578D02*
D03*
X906219Y319622D02*
D03*
X1063598Y263520D02*
D03*
X913262Y309761D02*
D03*
X919094Y299946D02*
D03*
X918810Y304498D02*
D03*
X919094Y309476D02*
D03*
X1053598Y339796D02*
D03*
X1075547Y498550D02*
D03*
X1055978Y488787D02*
D03*
X1059697Y484838D02*
D03*
X909609Y734130D02*
D03*
X903650D02*
D03*
X923645Y296341D02*
D03*
Y309333D02*
D03*
Y300278D02*
D03*
Y304699D02*
D03*
X929577Y296297D02*
D03*
Y309289D02*
D03*
Y300234D02*
D03*
Y304656D02*
D03*
X470074Y548900D02*
D03*
X483651Y599234D02*
D03*
X466165Y612305D02*
D03*
X500557Y557776D02*
D03*
X545731Y448242D02*
D03*
X553605Y450857D02*
D03*
X547699Y450779D02*
D03*
X543762Y450827D02*
D03*
X945250Y553177D02*
D03*
X937326Y558421D02*
D03*
X914485Y553316D02*
D03*
X922408Y558348D02*
D03*
X769413Y390145D02*
D03*
X781252Y387528D02*
D03*
X796122D02*
D03*
X928996Y419574D02*
D03*
X943950D02*
D03*
X951873Y424605D02*
D03*
X921072Y424818D02*
D03*
X938830Y416135D02*
D03*
X923876D02*
D03*
X915953Y411104D02*
D03*
X946754Y410891D02*
D03*
X940457Y329331D02*
D03*
X909655Y329543D02*
D03*
X917579Y334575D02*
D03*
X433606Y528806D02*
D03*
X342085Y556694D02*
D03*
X347776Y565535D02*
D03*
X335886D02*
D03*
X156319Y601850D02*
D03*
X153579Y591110D02*
D03*
Y606087D02*
D03*
X355169Y328449D02*
D03*
X269213Y374753D02*
D03*
X259925Y377429D02*
D03*
X276913Y374209D02*
D03*
X283803D02*
D03*
X308831Y338606D02*
D03*
Y357039D02*
D03*
Y342154D02*
D03*
X265669Y470634D02*
D03*
X248350Y484094D02*
D03*
X449847Y561776D02*
D03*
X445820Y580228D02*
D03*
X638867Y641421D02*
D03*
X543097Y561887D02*
D03*
X413269Y560910D02*
D03*
X1012732Y781930D02*
D03*
X354977Y353804D02*
D03*
X336008Y335854D02*
D03*
X17795Y252153D02*
D03*
X815136Y655219D02*
D03*
X750167Y655260D02*
D03*
X755133Y630878D02*
D03*
X763957Y625839D02*
D03*
X808311Y612720D02*
D03*
X819878Y631190D02*
D03*
X711807Y707064D02*
D03*
X914873Y719169D02*
D03*
X914162Y711417D02*
D03*
X912453Y701784D02*
D03*
X907827Y707051D02*
D03*
X891168Y717315D02*
D03*
X915216Y726202D02*
D03*
X539347Y260633D02*
D03*
X557166Y259677D02*
D03*
X575360Y331244D02*
D03*
X366549Y449031D02*
D03*
X143374Y366709D02*
D03*
X106097Y492410D02*
D03*
X124511Y480350D02*
D03*
X1055040Y738706D02*
D03*
X502034Y191984D02*
D03*
X450770Y192169D02*
D03*
X401290Y192083D02*
D03*
X557287Y311417D02*
D03*
X584808Y296665D02*
D03*
X389366Y323929D02*
D03*
X404492D02*
D03*
X419614D02*
D03*
X449862Y323943D02*
D03*
X434740Y323929D02*
D03*
X368476Y322776D02*
D03*
X359591Y323166D02*
D03*
X345075Y323251D02*
D03*
X486958Y589613D02*
D03*
X455847Y590868D02*
D03*
X463349Y586248D02*
D03*
X541858Y399753D02*
D03*
X563761Y420008D02*
D03*
X163912Y353380D02*
D03*
X801669Y215904D02*
D03*
X755053Y197845D02*
D03*
X746279Y295693D02*
D03*
Y288967D02*
D03*
Y325174D02*
D03*
X737374Y325355D02*
D03*
X738764Y295693D02*
D03*
X746279Y302976D02*
D03*
X737374D02*
D03*
X728154D02*
D03*
X746279Y311496D02*
D03*
X737374D02*
D03*
X728154D02*
D03*
X718047Y318425D02*
D03*
X737374D02*
D03*
X746279D02*
D03*
X728154D02*
D03*
X114465Y583306D02*
D03*
X114055Y599134D02*
D03*
X100737Y592306D02*
D03*
X89526Y599387D02*
D03*
X73257Y592223D02*
D03*
X59350Y600314D02*
D03*
X48323Y592087D02*
D03*
X34475Y600201D02*
D03*
X119071Y638254D02*
D03*
X105668Y633064D02*
D03*
X90292Y638584D02*
D03*
X77479Y632341D02*
D03*
X61775Y638912D02*
D03*
X50736Y632210D02*
D03*
X36279Y639305D02*
D03*
X278516Y300158D02*
D03*
X223756Y318155D02*
D03*
X233893Y339294D02*
D03*
X431028Y183429D02*
D03*
X320905Y159480D02*
D03*
X160929Y185161D02*
D03*
X231831Y192166D02*
D03*
X127988Y196661D02*
D03*
X499647Y220574D02*
D03*
X494740D02*
D03*
X448721D02*
D03*
X443902D02*
D03*
X399241D02*
D03*
X394421D02*
D03*
X348934D02*
D03*
X344114D02*
D03*
X298843D02*
D03*
X294024D02*
D03*
X248827D02*
D03*
X244008D02*
D03*
X197882D02*
D03*
X193063D02*
D03*
X147980D02*
D03*
X143228D02*
D03*
X1109293Y760999D02*
D03*
X487307Y295282D02*
D03*
X300693Y192172D02*
D03*
X150497Y192183D02*
D03*
X351305Y192111D02*
D03*
X251555Y192083D02*
D03*
X200638Y192168D02*
D03*
X314378Y360835D02*
D03*
X328476D02*
D03*
X335756Y347930D02*
D03*
Y342393D02*
D03*
Y353667D02*
D03*
X338907Y329654D02*
D03*
X737651Y521587D02*
D03*
X732969Y335419D02*
D03*
X701801Y360192D02*
D03*
X771459Y447664D02*
D03*
X779591Y447662D02*
D03*
X560520Y308491D02*
D03*
X414997Y219414D02*
D03*
X357890Y185913D02*
D03*
X313799Y159480D02*
D03*
X844611Y473862D02*
D03*
X652799Y364035D02*
D03*
X595194Y326715D02*
D03*
X590509D02*
D03*
X1004439Y263390D02*
D03*
X784694Y520169D02*
D03*
X780803Y609362D02*
D03*
X780798Y612999D02*
D03*
X178801Y347595D02*
D03*
X124339Y371550D02*
D03*
Y367472D02*
D03*
X129025Y371550D02*
D03*
Y362442D02*
D03*
Y367472D02*
D03*
X124339Y362442D02*
D03*
X160908Y347672D02*
D03*
X293017Y310484D02*
D03*
X284336Y477865D02*
D03*
X528965Y507008D02*
D03*
X346992Y461309D02*
D03*
X516232Y694133D02*
D03*
X466110Y706885D02*
D03*
X525871Y186131D02*
D03*
X471854Y189537D02*
D03*
X362630Y185913D02*
D03*
X371746Y185884D02*
D03*
X408878Y186307D02*
D03*
X413560D02*
D03*
X423110Y184912D02*
D03*
X415697Y159677D02*
D03*
X422799D02*
D03*
X371957Y159098D02*
D03*
X364905D02*
D03*
X320984Y185991D02*
D03*
X269197Y188776D02*
D03*
X217728Y190192D02*
D03*
X504247Y169456D02*
D03*
X499700D02*
D03*
Y164346D02*
D03*
X504247D02*
D03*
X453495Y169456D02*
D03*
X448948D02*
D03*
Y164346D02*
D03*
X453495D02*
D03*
X404042Y169456D02*
D03*
X399495D02*
D03*
Y164346D02*
D03*
X404042D02*
D03*
X353672Y169456D02*
D03*
X349125D02*
D03*
Y164346D02*
D03*
X353672D02*
D03*
X303688Y169456D02*
D03*
X299141D02*
D03*
Y164346D02*
D03*
X303688D02*
D03*
X253672Y169456D02*
D03*
X249125D02*
D03*
Y164346D02*
D03*
X253672D02*
D03*
X152854D02*
D03*
X148306D02*
D03*
Y169456D02*
D03*
X152854D02*
D03*
X170113Y162535D02*
D03*
X168003Y186174D02*
D03*
X351226Y310619D02*
D03*
X395241Y297125D02*
D03*
X451087Y356953D02*
D03*
X391732Y290152D02*
D03*
Y283351D02*
D03*
X808621Y717354D02*
D03*
X997781Y490106D02*
D03*
X846341Y722436D02*
D03*
X45181Y235658D02*
D03*
X40467Y225480D02*
D03*
X9404Y232016D02*
D03*
X17979Y225480D02*
D03*
X353364Y299654D02*
D03*
X344933Y310484D02*
D03*
X337393D02*
D03*
X330120D02*
D03*
X322778D02*
D03*
X315421D02*
D03*
X308361D02*
D03*
X300872D02*
D03*
X330955Y733510D02*
D03*
X114334Y185729D02*
D03*
X114275Y167902D02*
D03*
X211438Y435842D02*
D03*
X271824Y409628D02*
D03*
X940933Y715016D02*
D03*
X1067926Y259235D02*
D03*
X1085890Y269746D02*
D03*
X1082175Y265017D02*
D03*
X477968Y748062D02*
D03*
X487672Y754108D02*
D03*
X482066Y749703D02*
D03*
X534784Y752437D02*
D03*
X515697Y748317D02*
D03*
X511118Y752437D02*
D03*
X103279Y473924D02*
D03*
X106888Y470273D02*
D03*
X171646Y188850D02*
D03*
X280547Y461552D02*
D03*
X352367Y367468D02*
D03*
X72783Y289894D02*
D03*
X88649Y270390D02*
D03*
X72807Y270350D02*
D03*
X72819Y179681D02*
D03*
X88761Y250772D02*
D03*
X95193D02*
D03*
X79287Y250641D02*
D03*
X72772Y250700D02*
D03*
X88714Y162628D02*
D03*
X95193Y162569D02*
D03*
X79219Y162357D02*
D03*
X72752Y162356D02*
D03*
X1012287Y482132D02*
D03*
X1008568Y485591D02*
D03*
X924738Y725833D02*
D03*
X928754Y722457D02*
D03*
X123214Y188823D02*
D03*
X238357Y458624D02*
D03*
X234780Y455675D02*
D03*
X357298Y380900D02*
D03*
X485107Y443622D02*
D03*
X422709Y578626D02*
D03*
X904575Y701784D02*
D03*
X626861Y792248D02*
D03*
Y798299D02*
D03*
Y804802D02*
D03*
X549000Y764041D02*
D03*
X331589Y767638D02*
D03*
X167866Y615207D02*
D03*
X198158Y468222D02*
D03*
X189936Y500402D02*
D03*
X197080D02*
D03*
X222615D02*
D03*
X226912D02*
D03*
X231405D02*
D03*
X236457D02*
D03*
X280734Y444294D02*
D03*
X262315Y396067D02*
D03*
X234881Y466270D02*
D03*
X373529Y357323D02*
D03*
X477910Y300181D02*
D03*
X450664Y289465D02*
D03*
X492774Y188901D02*
D03*
X423709Y188843D02*
D03*
X242104Y188902D02*
D03*
X191790Y188872D02*
D03*
X211827Y160764D02*
D03*
X141827Y188835D02*
D03*
X102787Y314606D02*
D03*
X102855Y276748D02*
D03*
X114271Y256811D02*
D03*
X102779D02*
D03*
X102872Y238779D02*
D03*
X102752Y221941D02*
D03*
X102788Y204807D02*
D03*
X79270Y198571D02*
D03*
X72688D02*
D03*
X102773Y186251D02*
D03*
X102853Y169027D02*
D03*
X53682Y334921D02*
D03*
X726938Y743608D02*
D03*
X485067Y436162D02*
D03*
X501661Y448520D02*
D03*
X788620Y628399D02*
D03*
X340427Y580663D02*
D03*
X597147Y749535D02*
D03*
X465606Y347532D02*
D03*
X777146Y115457D02*
D03*
X916712Y181832D02*
D03*
X895903Y169992D02*
D03*
X879039Y128014D02*
D03*
X830246Y156358D02*
D03*
X830964Y117610D02*
D03*
X758132Y149183D02*
D03*
X642964Y170709D02*
D03*
X672025Y152412D02*
D03*
X669155Y115099D02*
D03*
X609598Y122633D02*
D03*
X580178Y143801D02*
D03*
X598117Y168198D02*
D03*
X737322Y136266D02*
D03*
X172257Y644988D02*
D03*
X150694D02*
D03*
X141942D02*
D03*
X132493D02*
D03*
X123804D02*
D03*
X115560D02*
D03*
X106491D02*
D03*
X98056D02*
D03*
X88606D02*
D03*
X79918D02*
D03*
X69517D02*
D03*
X60131D02*
D03*
X51633D02*
D03*
X41830D02*
D03*
X287599Y621926D02*
D03*
Y634413D02*
D03*
X255652Y587509D02*
D03*
X247115Y578037D02*
D03*
X204000Y548032D02*
D03*
X219169D02*
D03*
Y567096D02*
D03*
X238100Y563200D02*
D03*
X29250Y606189D02*
D03*
X80750D02*
D03*
X54621D02*
D03*
X32745Y570843D02*
D03*
X84245D02*
D03*
X58116D02*
D03*
X50291Y479112D02*
D03*
Y530611D02*
D03*
Y504483D02*
D03*
X28846Y483738D02*
D03*
Y535238D02*
D03*
Y509109D02*
D03*
Y453043D02*
D03*
X80347D02*
D03*
X50291D02*
D03*
X28846Y425290D02*
D03*
X80347D02*
D03*
X50291D02*
D03*
X28846Y399391D02*
D03*
X80347D02*
D03*
X50291D02*
D03*
X28846Y376486D02*
D03*
X80179Y376484D02*
D03*
X50291D02*
D03*
Y354248D02*
D03*
X79189Y339469D02*
D03*
X28846Y354248D02*
D03*
X118226Y269692D02*
D03*
X161103Y333209D02*
D03*
X266146Y294016D02*
D03*
Y303146D02*
D03*
X250185Y294016D02*
D03*
X235551D02*
D03*
Y303146D02*
D03*
X250185D02*
D03*
X490776Y382098D02*
D03*
X504776Y392845D02*
D03*
X565646Y374905D02*
D03*
X576649Y388162D02*
D03*
X581025Y405133D02*
D03*
X669555Y651488D02*
D03*
X678354Y640589D02*
D03*
X908661Y208451D02*
D03*
X924603Y129055D02*
D03*
X961799Y214389D02*
D03*
X431000Y409300D02*
D03*
X431244Y388100D02*
D03*
X443200Y399200D02*
D03*
X459779Y445704D02*
D03*
X736602Y568943D02*
D03*
X676685D02*
D03*
X802095Y525981D02*
D03*
X755788D02*
D03*
X861576Y762214D02*
D03*
X883109Y731047D02*
D03*
X797586Y748800D02*
D03*
X1020520Y656570D02*
D03*
X974214D02*
D03*
X1039872Y625743D02*
D03*
X868143Y563655D02*
D03*
X815861Y495396D02*
D03*
X844611Y520169D02*
D03*
X651699Y526010D02*
D03*
X682867Y501236D02*
D03*
X711617Y526010D02*
D03*
X802951Y265585D02*
D03*
Y311892D02*
D03*
X834119Y287119D02*
D03*
X862869Y311892D02*
D03*
X793974Y179744D02*
D03*
Y226051D02*
D03*
X825142Y201278D02*
D03*
X853892Y226051D02*
D03*
Y179744D02*
D03*
X766363Y360198D02*
D03*
X761719Y313885D02*
D03*
X763941Y231835D02*
D03*
Y278142D02*
D03*
X735191Y253369D02*
D03*
X597133Y312882D02*
D03*
X618035Y328276D02*
D03*
Y345961D02*
D03*
Y364035D02*
D03*
X601958D02*
D03*
X618035Y377878D02*
D03*
X633307Y396315D02*
D03*
Y377878D02*
D03*
Y364035D02*
D03*
Y345961D02*
D03*
Y328276D02*
D03*
Y312146D02*
D03*
Y233437D02*
D03*
Y248984D02*
D03*
X652799Y233437D02*
D03*
Y248984D02*
D03*
Y312146D02*
D03*
Y328276D02*
D03*
Y345961D02*
D03*
Y377878D02*
D03*
Y396315D02*
D03*
Y409008D02*
D03*
X667031Y233437D02*
D03*
Y248984D02*
D03*
X641873Y409008D02*
D03*
X549666Y372470D02*
D03*
X540001Y365912D02*
D03*
X535473D02*
D03*
X530946D02*
D03*
X526571Y365912D02*
D03*
X521690Y365912D02*
D03*
X516883D02*
D03*
X512312D02*
D03*
X507784D02*
D03*
X485483Y389755D02*
D03*
X478430Y404299D02*
D03*
X478657Y413891D02*
D03*
X478520Y423195D02*
D03*
X478670Y427980D02*
D03*
X138710Y149194D02*
D03*
X188366Y149114D02*
D03*
X239335Y156620D02*
D03*
X289405Y156481D02*
D03*
X339390Y156482D02*
D03*
X389760Y156481D02*
D03*
X439213Y156480D02*
D03*
X489953Y156482D02*
D03*
X478118Y289970D02*
D03*
X43098Y297721D02*
D03*
X46106Y304217D02*
D03*
Y312681D02*
D03*
X1143670Y461859D02*
D03*
Y445324D02*
D03*
Y428788D02*
D03*
Y412253D02*
D03*
X114312Y296963D02*
D03*
X102758Y296719D02*
D03*
X654181Y637338D02*
D03*
X912783Y737716D02*
D03*
X933006Y718692D02*
D03*
X576600Y623100D02*
D03*
X582300Y618300D02*
D03*
X580900Y622700D02*
D03*
X578100Y619300D02*
D03*
X492853Y694705D02*
D03*
X376965Y618931D02*
D03*
X431073Y633279D02*
D03*
X48276Y267642D02*
D03*
X788480Y781044D02*
D03*
X452104Y273389D02*
D03*
X446441Y273446D02*
D03*
X443646Y284757D02*
D03*
X465606Y324197D02*
D03*
Y337438D02*
D03*
X461231Y349640D02*
D03*
X454039Y615350D02*
D03*
X529437Y539308D02*
D03*
X503972Y560305D02*
D03*
X507688D02*
D03*
X503972Y556100D02*
D03*
X507688D02*
D03*
X511578Y560305D02*
D03*
Y556100D02*
D03*
X347877Y429142D02*
D03*
X393080Y561090D02*
D03*
X397765D02*
D03*
X533984Y461381D02*
D03*
X462713Y303299D02*
D03*
X458437D02*
D03*
Y307531D02*
D03*
X108669Y419370D02*
D03*
X608252Y652650D02*
D03*
X567106Y234602D02*
D03*
X561646D02*
D03*
X281087Y331209D02*
D03*
Y334594D02*
D03*
X440008Y314929D02*
D03*
X440842Y295874D02*
D03*
X462713Y307520D02*
D03*
X584287Y422354D02*
D03*
X579524Y422555D02*
D03*
X574996Y422382D02*
D03*
X784290Y430111D02*
D03*
X810480Y655847D02*
D03*
X821760Y651844D02*
D03*
X757289Y652004D02*
D03*
X855760Y632469D02*
D03*
Y647543D02*
D03*
X788472Y652504D02*
D03*
X719146Y647890D02*
D03*
Y652024D02*
D03*
X167473Y781894D02*
D03*
X588354Y646045D02*
D03*
X540458Y643156D02*
D03*
X462975Y748051D02*
D03*
X524987Y158904D02*
D03*
X518154Y158990D02*
D03*
X517483Y184020D02*
D03*
X512828D02*
D03*
X374295Y188850D02*
D03*
X323945D02*
D03*
X273898D02*
D03*
X465417Y234315D02*
D03*
Y225850D02*
D03*
X463413Y218976D02*
D03*
Y214370D02*
D03*
X514122Y213898D02*
D03*
Y219035D02*
D03*
X482913Y192520D02*
D03*
Y196598D02*
D03*
X482776Y174937D02*
D03*
Y183396D02*
D03*
X516213Y233988D02*
D03*
Y225524D02*
D03*
X476909Y191398D02*
D03*
X473374Y159169D02*
D03*
X466272D02*
D03*
X466917Y185663D02*
D03*
X462390Y185610D02*
D03*
X432366Y193252D02*
D03*
X432186Y197205D02*
D03*
X414997Y214777D02*
D03*
X416265Y225970D02*
D03*
Y234438D02*
D03*
X382705Y192472D02*
D03*
X382661Y196409D02*
D03*
X381657Y183736D02*
D03*
X381140Y176347D02*
D03*
X330740Y175776D02*
D03*
Y183492D02*
D03*
X331972Y195339D02*
D03*
Y192392D02*
D03*
X366095Y234438D02*
D03*
X366482Y225946D02*
D03*
X364828Y219414D02*
D03*
Y214777D02*
D03*
X309024Y185430D02*
D03*
X313689Y185344D02*
D03*
X314043Y215634D02*
D03*
Y220272D02*
D03*
X315311Y226827D02*
D03*
X282213Y192481D02*
D03*
Y195551D02*
D03*
X281193Y183496D02*
D03*
Y175779D02*
D03*
X263110Y184367D02*
D03*
X258583Y184441D02*
D03*
X262720Y158666D02*
D03*
X269823Y158760D02*
D03*
X158402Y157951D02*
D03*
X264611Y214535D02*
D03*
Y219063D02*
D03*
X265170Y234028D02*
D03*
Y225563D02*
D03*
X231831Y195551D02*
D03*
X228504Y183346D02*
D03*
Y174882D02*
D03*
X222590Y188850D02*
D03*
X211543Y185129D02*
D03*
X218894Y160790D02*
D03*
X214098Y225563D02*
D03*
X156185Y185161D02*
D03*
X178684Y174882D02*
D03*
X179863Y183346D02*
D03*
X179787Y192378D02*
D03*
X181186Y195583D02*
D03*
X214098Y234028D02*
D03*
X213539Y219063D02*
D03*
Y214535D02*
D03*
X167953Y234028D02*
D03*
X168224Y225563D02*
D03*
X164866Y219002D02*
D03*
X164894Y214494D02*
D03*
X123947Y174134D02*
D03*
X123914Y182602D02*
D03*
X127988Y192776D02*
D03*
X45835Y337106D02*
D03*
X40802D02*
D03*
X28921Y331386D02*
D03*
Y337106D02*
D03*
X34764D02*
D03*
X14854Y267130D02*
D03*
Y271814D02*
D03*
X114258Y204807D02*
D03*
Y221941D02*
D03*
Y238779D02*
D03*
Y276748D02*
D03*
Y314606D02*
D03*
X433606Y522354D02*
D03*
Y512913D02*
D03*
X502429Y518840D02*
D03*
X793373Y447662D02*
D03*
X786482D02*
D03*
X598000Y652650D02*
D03*
X297159Y435526D02*
D03*
X234606Y427315D02*
D03*
X414378Y669596D02*
D03*
X418200Y684382D02*
D03*
X418508Y694736D02*
D03*
X473390Y752437D02*
D03*
X473602Y606922D02*
D03*
X457785Y596508D02*
D03*
X681991Y782556D02*
D03*
Y790430D02*
D03*
Y798304D02*
D03*
Y806178D02*
D03*
Y814052D02*
D03*
X445416Y595744D02*
D03*
X1037064Y268315D02*
D03*
X1027169Y343383D02*
D03*
X130375Y538307D02*
D03*
Y542283D02*
D03*
X126525Y538307D02*
D03*
Y542283D02*
D03*
X195721Y412831D02*
D03*
Y408856D02*
D03*
X435591Y752437D02*
D03*
X439322Y748051D02*
D03*
X459221Y752437D02*
D03*
X782467Y703179D02*
D03*
X783779Y712574D02*
D03*
X787283Y709382D02*
D03*
X775592Y794497D02*
D03*
X779609Y790902D02*
D03*
X629437Y624638D02*
D03*
X513026Y680861D02*
D03*
X79286Y179681D02*
D03*
X88726Y180600D02*
D03*
X95175Y180383D02*
D03*
X88726Y198571D02*
D03*
X95175D02*
D03*
X72801Y215490D02*
D03*
X79286Y215706D02*
D03*
X88726D02*
D03*
X95175Y215490D02*
D03*
X72801Y232836D02*
D03*
X79286Y233053D02*
D03*
X88726D02*
D03*
X95175Y232836D02*
D03*
X79286Y270350D02*
D03*
X95175Y270390D02*
D03*
X79286Y289894D02*
D03*
X88726Y290836D02*
D03*
X95175Y290620D02*
D03*
Y309238D02*
D03*
X88726Y309454D02*
D03*
X79286D02*
D03*
X72801Y309238D02*
D03*
X254165Y781922D02*
D03*
X244425Y781952D02*
D03*
Y766377D02*
D03*
X483799Y644425D02*
D03*
X487449Y647465D02*
D03*
X510370Y623374D02*
D03*
X507091D02*
D03*
X493583Y623528D02*
D03*
X203010Y447094D02*
D03*
X228332Y458624D02*
D03*
X231496Y456157D02*
D03*
X235362Y445176D02*
D03*
X230830D02*
D03*
X734121Y270943D02*
D03*
X730640Y190753D02*
D03*
Y195150D02*
D03*
X734612Y190741D02*
D03*
Y195045D02*
D03*
X279249Y428101D02*
D03*
X120994Y477139D02*
D03*
X164667Y385610D02*
D03*
X115878Y339469D02*
D03*
X164276Y400808D02*
D03*
X107503Y535039D02*
D03*
X89536Y528935D02*
D03*
X68673Y522191D02*
D03*
X100130Y548969D02*
D03*
X338028Y375425D02*
D03*
Y372079D02*
D03*
X269070Y675073D02*
D03*
X198786Y670528D02*
D03*
X191306Y675646D02*
D03*
X202728Y169456D02*
D03*
X198180D02*
D03*
Y164346D02*
D03*
X202728D02*
D03*
X557252Y288248D02*
D03*
X582308Y267198D02*
D03*
X574302D02*
D03*
X603065D02*
D03*
X595957D02*
D03*
X588783D02*
D03*
X582308Y244887D02*
D03*
X574302D02*
D03*
X603065D02*
D03*
X595957D02*
D03*
X588783D02*
D03*
X582308Y252324D02*
D03*
X574302D02*
D03*
X603065D02*
D03*
X595957D02*
D03*
X588783D02*
D03*
X582308Y259761D02*
D03*
X574302D02*
D03*
X603065D02*
D03*
X595957D02*
D03*
X588783D02*
D03*
X574302Y274635D02*
D03*
X582308D02*
D03*
X588783D02*
D03*
X595957D02*
D03*
X603065D02*
D03*
X593792Y286461D02*
D03*
X588370Y282803D02*
D03*
X565772Y307038D02*
D03*
X652799Y424862D02*
D03*
X561131Y283295D02*
D03*
X151661Y781350D02*
D03*
X151661Y778004D02*
D03*
X135119Y781912D02*
D03*
X104454Y781901D02*
D03*
X119292Y778693D02*
D03*
X119307Y782039D02*
D03*
X89151Y781669D02*
D03*
Y778323D02*
D03*
X72584Y781886D02*
D03*
X58264Y778311D02*
D03*
Y781610D02*
D03*
X180012Y671150D02*
D03*
X172863Y676268D02*
D03*
X150810D02*
D03*
X157957Y671148D02*
D03*
X139724Y671150D02*
D03*
X132577Y676270D02*
D03*
X123169Y671150D02*
D03*
X116022Y676270D02*
D03*
X97420D02*
D03*
X104566Y671150D02*
D03*
X85812D02*
D03*
X78664Y676268D02*
D03*
X67193Y671150D02*
D03*
X60047Y676268D02*
D03*
X42138Y676385D02*
D03*
X49169Y671150D02*
D03*
X511872Y433787D02*
D03*
X587910Y415091D02*
D03*
X596213D02*
D03*
X592244D02*
D03*
X42502Y271491D02*
D03*
X491165Y447743D02*
D03*
X144364Y626528D02*
D03*
Y631213D02*
D03*
X144225Y617178D02*
D03*
Y621863D02*
D03*
X163730Y562382D02*
D03*
X168415D02*
D03*
X112901Y615717D02*
D03*
X153179Y577630D02*
D03*
X224200Y628500D02*
D03*
X220795D02*
D03*
X217491D02*
D03*
X224200Y625378D02*
D03*
X163028Y595447D02*
D03*
X159622D02*
D03*
X156319D02*
D03*
X163028Y598729D02*
D03*
X159622D02*
D03*
X156319D02*
D03*
X159622Y601850D02*
D03*
X163028D02*
D03*
X464136Y622004D02*
D03*
X468803Y616300D02*
D03*
X544404Y620507D02*
D03*
X544335Y624456D02*
D03*
X558405Y609548D02*
D03*
X530244Y611824D02*
D03*
X558366Y638437D02*
D03*
X554117Y634244D02*
D03*
X531008Y638437D02*
D03*
X535080Y634559D02*
D03*
X417312Y619187D02*
D03*
X401805Y603965D02*
D03*
X401587Y611428D02*
D03*
X367277Y602222D02*
D03*
X371193Y606249D02*
D03*
Y602222D02*
D03*
X367277Y606249D02*
D03*
X362929D02*
D03*
X362974Y602222D02*
D03*
X542085Y583295D02*
D03*
X558056Y561840D02*
D03*
X562741D02*
D03*
X558056Y566872D02*
D03*
X562741D02*
D03*
X558056Y557762D02*
D03*
X562741D02*
D03*
X440281Y561990D02*
D03*
X435893Y562181D02*
D03*
X430368Y578626D02*
D03*
X393080Y565168D02*
D03*
X397765D02*
D03*
X393080Y556059D02*
D03*
X397765D02*
D03*
X413070Y539705D02*
D03*
X410097Y542956D02*
D03*
X509165Y576244D02*
D03*
X504810Y566480D02*
D03*
X505374Y576193D02*
D03*
X449302Y587251D02*
D03*
X449357Y580228D02*
D03*
X448982Y550074D02*
D03*
X482749Y547687D02*
D03*
X475096Y547654D02*
D03*
X458673Y543472D02*
D03*
X309021Y333106D02*
D03*
X304977Y363882D02*
D03*
X308831Y351602D02*
D03*
X112906Y376484D02*
D03*
X290693Y374209D02*
D03*
X120999Y515376D02*
D03*
X123814Y512440D02*
D03*
X386352Y449494D02*
D03*
X381667D02*
D03*
X386352Y444462D02*
D03*
X381667D02*
D03*
X386352Y453572D02*
D03*
X381667D02*
D03*
X90872Y493017D02*
D03*
X86187D02*
D03*
X90872Y487986D02*
D03*
X86187D02*
D03*
X90872Y497095D02*
D03*
X86187D02*
D03*
X590509Y335824D02*
D03*
X595194D02*
D03*
X590509Y331746D02*
D03*
X595194D02*
D03*
X344590Y445492D02*
D03*
X346795Y466607D02*
D03*
X293340Y446968D02*
D03*
X288852Y442631D02*
D03*
X273669Y445126D02*
D03*
X557150Y343525D02*
D03*
X560520Y346497D02*
D03*
X575013Y352706D02*
D03*
X578427Y349253D02*
D03*
X839258Y445461D02*
D03*
X836024Y449886D02*
D03*
X625280Y621799D02*
D03*
X622085Y624709D02*
D03*
X1029299Y493434D02*
D03*
X1046594Y499280D02*
D03*
X1011182Y332783D02*
D03*
X1007567Y335735D02*
D03*
X958800Y492300D02*
D03*
X1034169Y347366D02*
D03*
X1039727Y351814D02*
D03*
X1044327Y349335D02*
D03*
X1054450Y274220D02*
D03*
X1097164Y708014D02*
D03*
X1101477Y712155D02*
D03*
X368051Y362252D02*
D03*
X179477Y652303D02*
D03*
X157745Y652566D02*
D03*
X139331D02*
D03*
X121832Y652566D02*
D03*
X103832D02*
D03*
X66902Y652565D02*
D03*
X48655Y652816D02*
D03*
X166406Y652344D02*
D03*
X144211Y652566D02*
D03*
X126261D02*
D03*
X108761D02*
D03*
X90761D02*
D03*
X35783Y652769D02*
D03*
X53832Y652644D02*
D03*
X837502Y719832D02*
D03*
X819666Y712630D02*
D03*
X823270Y709375D02*
D03*
X872256Y778264D02*
D03*
Y783464D02*
D03*
X1018995Y749923D02*
D03*
X1018733Y734888D02*
D03*
X1057967Y741577D02*
D03*
X1012732Y773786D02*
D03*
X953706Y789465D02*
D03*
X958317Y784955D02*
D03*
X878081Y708614D02*
D03*
X1094055Y658487D02*
D03*
X653886Y640874D02*
D03*
X658571D02*
D03*
X653886Y645905D02*
D03*
X658571D02*
D03*
X1020050Y507087D02*
D03*
X1016732Y504300D02*
D03*
X1071742Y342197D02*
D03*
X953600Y464900D02*
D03*
X946754Y472473D02*
D03*
X943310D02*
D03*
X1016500Y361417D02*
D03*
X1019685Y358500D02*
D03*
X1011182Y341964D02*
D03*
X1049850Y276700D02*
D03*
X932533Y334575D02*
D03*
X1016658Y280316D02*
D03*
X1020677Y283886D02*
D03*
X1044291Y272250D02*
D03*
X1015748Y258858D02*
D03*
X1019362Y255523D02*
D03*
X445687Y562054D02*
D03*
X1203645Y302331D02*
D03*
Y310369D02*
D03*
Y326440D02*
D03*
X1074982Y345936D02*
D03*
X1057309Y336054D02*
D03*
X1007835Y338983D02*
D03*
X135562Y499358D02*
D03*
X132614Y496764D02*
D03*
X170999Y369338D02*
D03*
X133827Y398781D02*
D03*
X788480Y785974D02*
D03*
X512185Y673415D02*
D03*
X257780Y467687D02*
D03*
X249165D02*
D03*
X253429D02*
D03*
X257780Y471842D02*
D03*
X249165D02*
D03*
X253429D02*
D03*
Y476158D02*
D03*
X249165D02*
D03*
X257780D02*
D03*
X935854Y304597D02*
D03*
X948059D02*
D03*
X941968Y309231D02*
D03*
Y300176D02*
D03*
X935854D02*
D03*
X948059D02*
D03*
X935854Y309231D02*
D03*
Y313168D02*
D03*
X941968D02*
D03*
Y296239D02*
D03*
X935854D02*
D03*
X442012Y706913D02*
D03*
X429102Y706976D02*
D03*
X455794Y706635D02*
D03*
X283351Y471589D02*
D03*
X284153Y484399D02*
D03*
X278288Y487260D02*
D03*
X269171Y504814D02*
D03*
X264527D02*
D03*
X259892D02*
D03*
X255283D02*
D03*
X250676Y504843D02*
D03*
X246216Y504814D02*
D03*
X72860Y652644D02*
D03*
X85931Y652566D02*
D03*
X347664Y337441D02*
D03*
X343936Y338200D02*
D03*
X743327Y451686D02*
D03*
X549971Y463319D02*
D03*
X343515Y455514D02*
D03*
X432713Y603835D02*
D03*
X1091327Y759275D02*
D03*
X1087278Y755400D02*
D03*
X1140028Y730126D02*
D03*
X1136751Y733397D02*
D03*
X1121702Y733307D02*
D03*
X1125232Y730126D02*
D03*
X1151709Y733460D02*
D03*
X1155117Y730126D02*
D03*
X1166537Y733397D02*
D03*
X1170105Y730126D02*
D03*
X497132Y557776D02*
D03*
X695767Y471579D02*
D03*
X695238Y428993D02*
D03*
X784694Y473862D02*
D03*
X651699Y479703D02*
D03*
X711617D02*
D03*
X516661Y632692D02*
D03*
X512635Y632646D02*
D03*
Y636995D02*
D03*
X516661Y640911D02*
D03*
X512635D02*
D03*
X516661Y636995D02*
D03*
X600142Y631406D02*
D03*
X600097Y635433D02*
D03*
X604445D02*
D03*
X608361Y631406D02*
D03*
Y635433D02*
D03*
X604445Y631406D02*
D03*
X373571Y370073D02*
D03*
X766819Y634047D02*
D03*
X552921Y465508D02*
D03*
X773592Y410995D02*
D03*
X767478D02*
D03*
Y414932D02*
D03*
X773592D02*
D03*
X773539Y418855D02*
D03*
X767425D02*
D03*
X785797Y410995D02*
D03*
X779683D02*
D03*
Y414932D02*
D03*
X785797D02*
D03*
X785744Y418855D02*
D03*
X779630D02*
D03*
X137800Y124700D02*
D03*
X1004913Y227289D02*
D03*
X1104063Y748432D02*
D03*
X188836Y652303D02*
D03*
X331516Y575957D02*
D03*
X482304Y402149D02*
D03*
X271681Y427908D02*
D03*
X271632Y431201D02*
D03*
X539043Y334685D02*
D03*
X526011Y268897D02*
D03*
X557252Y294697D02*
D03*
X1105560Y757849D02*
D03*
X343510Y353988D02*
D03*
X791835Y418855D02*
D03*
X797949D02*
D03*
X804039D02*
D03*
X804092Y414932D02*
D03*
X798002D02*
D03*
X791888D02*
D03*
Y410995D02*
D03*
X804092D02*
D03*
X798002D02*
D03*
X248933Y456599D02*
D03*
X278370Y389175D02*
D03*
X349315Y690645D02*
D03*
X608230Y688992D02*
D03*
X330260Y690031D02*
D03*
X360413Y691957D02*
D03*
X341579Y690031D02*
D03*
X524398Y682875D02*
D03*
X545351Y463302D02*
D03*
X547764Y467134D02*
D03*
X1119985Y364586D02*
D03*
X1112055Y364431D02*
D03*
X1080000Y483489D02*
D03*
X168292Y571488D02*
D03*
X113587Y625928D02*
D03*
X922915Y517804D02*
D03*
X916824D02*
D03*
X923366Y535160D02*
D03*
X917276D02*
D03*
X950600Y456337D02*
D03*
Y452400D02*
D03*
Y443345D02*
D03*
Y447766D02*
D03*
X944934Y441431D02*
D03*
Y458360D02*
D03*
Y454423D02*
D03*
Y445368D02*
D03*
Y449789D02*
D03*
X924994Y375464D02*
D03*
Y392393D02*
D03*
Y388456D02*
D03*
Y379401D02*
D03*
Y383822D02*
D03*
X531988Y474762D02*
D03*
X147868Y600567D02*
D03*
X485857Y584084D02*
D03*
Y579753D02*
D03*
Y575422D02*
D03*
Y571092D02*
D03*
Y566761D02*
D03*
X481527Y584084D02*
D03*
Y579753D02*
D03*
Y575422D02*
D03*
Y571092D02*
D03*
Y566761D02*
D03*
X477196Y584084D02*
D03*
Y579753D02*
D03*
Y575422D02*
D03*
Y571092D02*
D03*
Y566761D02*
D03*
X472865Y584084D02*
D03*
Y579753D02*
D03*
Y575422D02*
D03*
Y571092D02*
D03*
Y566761D02*
D03*
X468534Y584084D02*
D03*
Y579753D02*
D03*
Y575422D02*
D03*
Y571092D02*
D03*
Y566761D02*
D03*
X352264Y351236D02*
D03*
X836975Y647512D02*
D03*
X813680Y625713D02*
D03*
X817175Y627425D02*
D03*
X822919Y625713D02*
D03*
X829681D02*
D03*
X826331Y627425D02*
D03*
X749710Y624969D02*
D03*
X752251Y627359D02*
D03*
X757315Y625839D02*
D03*
X760559Y627425D02*
D03*
X757138Y655910D02*
D03*
X498530Y600651D02*
D03*
X441760Y592494D02*
D03*
X538901Y247882D02*
D03*
Y255794D02*
D03*
X529196D02*
D03*
X608670Y300454D02*
D03*
X613702Y292542D02*
D03*
Y300454D02*
D03*
X541866Y316449D02*
D03*
X533954D02*
D03*
X541866Y321480D02*
D03*
X1212668Y834054D02*
D03*
X1200026Y754465D02*
D03*
X1221382Y678910D02*
D03*
X377699Y334820D02*
D03*
X224957Y675859D02*
D03*
X245504Y676221D02*
D03*
X1093043Y743724D02*
D03*
X1071425Y732492D02*
D03*
X188998Y170482D02*
D03*
X356196Y274487D02*
D03*
X361330Y274221D02*
D03*
X330158Y270882D02*
D03*
X345387Y271937D02*
D03*
X352571D02*
D03*
X347851Y274941D02*
D03*
X330061Y275031D02*
D03*
X361360Y306101D02*
D03*
X358017D02*
D03*
X297706Y733591D02*
D03*
X337424Y585308D02*
D03*
X437477Y236161D02*
D03*
X402587Y211142D02*
D03*
X448558Y306594D02*
D03*
X305440Y733591D02*
D03*
X404860Y180145D02*
D03*
X436663Y169323D02*
D03*
X542947Y467823D02*
D03*
X634142Y794740D02*
D03*
X634049Y783385D02*
D03*
X328193Y302362D02*
D03*
X324846D02*
D03*
X320697D02*
D03*
X317311D02*
D03*
X332047D02*
D03*
X335433D02*
D03*
X310071D02*
D03*
X313457D02*
D03*
X401035Y272239D02*
D03*
X419411Y272843D02*
D03*
X487332Y235578D02*
D03*
X484084Y165114D02*
D03*
X487752Y170413D02*
D03*
X432720Y164788D02*
D03*
X388434Y170466D02*
D03*
X399429Y195739D02*
D03*
X394842Y195598D02*
D03*
X384394Y166967D02*
D03*
X330944Y164492D02*
D03*
X387954Y236161D02*
D03*
X337912D02*
D03*
X279896Y166034D02*
D03*
X337309Y168885D02*
D03*
X286399Y236160D02*
D03*
X287256Y170435D02*
D03*
X238120Y164589D02*
D03*
X236926Y168802D02*
D03*
X236996Y234059D02*
D03*
X193630Y157318D02*
D03*
X183246Y234060D02*
D03*
X920835Y795742D02*
D03*
X920768Y800808D02*
D03*
X349913Y302362D02*
D03*
X346528D02*
D03*
X342673D02*
D03*
X339287D02*
D03*
X306217D02*
D03*
X302831D02*
D03*
X295590D02*
D03*
X298976D02*
D03*
X135165Y157318D02*
D03*
X141825Y232063D02*
D03*
X175680Y364168D02*
D03*
X72067Y548969D02*
D03*
X138571Y152946D02*
D03*
X188366D02*
D03*
X289405Y152948D02*
D03*
X339390Y152950D02*
D03*
X389760Y152948D02*
D03*
X439213Y152950D02*
D03*
X408799Y688756D02*
D03*
X641622Y804075D02*
D03*
Y793419D02*
D03*
X443709Y588411D02*
D03*
X330260Y695272D02*
D03*
X176627Y619195D02*
D03*
X177790Y570147D02*
D03*
X230653Y489512D02*
D03*
X221030D02*
D03*
X218140Y471846D02*
D03*
Y476374D02*
D03*
Y480903D02*
D03*
Y485431D02*
D03*
X288815Y458512D02*
D03*
X280562D02*
D03*
X273802D02*
D03*
X264156Y461185D02*
D03*
X239052Y469598D02*
D03*
X377675Y355752D02*
D03*
X298328Y363022D02*
D03*
X373687Y350513D02*
D03*
X353129Y356399D02*
D03*
X353186Y344307D02*
D03*
X354394Y338791D02*
D03*
X373583Y342572D02*
D03*
X347627Y356441D02*
D03*
X300693Y326747D02*
D03*
X300869Y341276D02*
D03*
X302614Y177114D02*
D03*
X252621Y177641D02*
D03*
X151725Y177362D02*
D03*
X139689Y170363D02*
D03*
X482528Y430557D02*
D03*
Y425456D02*
D03*
Y416986D02*
D03*
Y406677D02*
D03*
Y420929D02*
D03*
Y411205D02*
D03*
X512537Y445598D02*
D03*
X516386Y450220D02*
D03*
X512370Y427881D02*
D03*
X1134200Y451109D02*
D03*
Y441714D02*
D03*
X1105988Y408831D02*
D03*
X1133630D02*
D03*
X1119622Y422022D02*
D03*
X1133253Y421784D02*
D03*
X1133630Y434927D02*
D03*
X1137770Y291303D02*
D03*
X1164088Y299054D02*
D03*
X1125498Y278094D02*
D03*
X1144212D02*
D03*
X1147713Y333678D02*
D03*
X1166425D02*
D03*
X1147713Y351912D02*
D03*
X1166425D02*
D03*
X1133630Y368280D02*
D03*
X1147713Y368280D02*
D03*
X1166425D02*
D03*
X1133630Y383547D02*
D03*
X1147713Y383549D02*
D03*
X1166425D02*
D03*
X1133630Y396921D02*
D03*
X1147713Y399367D02*
D03*
X1166425D02*
D03*
X1134474Y525917D02*
D03*
X1143098Y541123D02*
D03*
X1127182Y509023D02*
D03*
X1145730Y517344D02*
D03*
X1160886Y528083D02*
D03*
X1130802Y497694D02*
D03*
X1147713D02*
D03*
X1166425D02*
D03*
X1131144Y482220D02*
D03*
X1148054D02*
D03*
X1166768D02*
D03*
X1166691Y469307D02*
D03*
X1147977D02*
D03*
X1131067D02*
D03*
X1201941Y664191D02*
D03*
X1221382Y726482D02*
D03*
Y772727D02*
D03*
X1193169Y826161D02*
D03*
X1169937Y833570D02*
D03*
X1149529Y826161D02*
D03*
X1126782Y832253D02*
D03*
X1104652Y826161D02*
D03*
X1085254Y832069D02*
D03*
X1059956Y826161D02*
D03*
X1037232Y832525D02*
D03*
X1015569Y826161D02*
D03*
X995876Y833434D02*
D03*
X974941Y826161D02*
D03*
X955276Y832676D02*
D03*
X936997Y826161D02*
D03*
X850900Y832979D02*
D03*
X579082Y297649D02*
D03*
X575145D02*
D03*
X579082Y293712D02*
D03*
X575145D02*
D03*
X117510Y210996D02*
D03*
X307805Y270833D02*
D03*
X300641Y271894D02*
D03*
X172048Y598842D02*
D03*
X612453Y692293D02*
D03*
X604910D02*
D03*
X456979Y292267D02*
D03*
X620607Y822773D02*
D03*
X646319Y822776D02*
D03*
X290196Y326975D02*
D03*
X323059Y270833D02*
D03*
X315509D02*
D03*
X294422Y271894D02*
D03*
X337774Y275031D02*
D03*
X322792D02*
D03*
X315657D02*
D03*
X307777D02*
D03*
X297935D02*
D03*
X290459D02*
D03*
X514869Y570593D02*
D03*
X518585D02*
D03*
X514869Y566389D02*
D03*
X518585D02*
D03*
X522475Y570593D02*
D03*
Y566389D02*
D03*
X412783Y302209D02*
D03*
Y298326D02*
D03*
X474736Y291961D02*
D03*
X133721Y419358D02*
D03*
X775744Y642764D02*
D03*
X229744Y462291D02*
D03*
X240106Y461748D02*
D03*
X1036508Y494012D02*
D03*
X737268Y699327D02*
D03*
X839988Y635685D02*
D03*
X836917Y631551D02*
D03*
Y639819D02*
D03*
X839618Y643957D02*
D03*
X824705Y658740D02*
D03*
X802740Y640425D02*
D03*
X801524Y634721D02*
D03*
X804823Y643744D02*
D03*
X805516Y637405D02*
D03*
X769587Y645402D02*
D03*
X768051Y640063D02*
D03*
X771902Y637118D02*
D03*
X739783Y645480D02*
D03*
X737165Y637783D02*
D03*
X740071Y635268D02*
D03*
X740039Y640213D02*
D03*
X736842Y647626D02*
D03*
X290894Y334839D02*
D03*
Y331209D02*
D03*
X724728Y714858D02*
D03*
X431244Y302385D02*
D03*
Y298253D02*
D03*
X416553Y306325D02*
D03*
Y294725D02*
D03*
X128608Y484187D02*
D03*
X637882Y804513D02*
D03*
X337992Y695638D02*
D03*
X345972Y695272D02*
D03*
X759378Y658328D02*
D03*
X502994Y211142D02*
D03*
X491394D02*
D03*
X494526Y214281D02*
D03*
X499591Y214281D02*
D03*
X500332Y195819D02*
D03*
X495026Y195818D02*
D03*
X513218Y173980D02*
D03*
X508839Y173699D02*
D03*
X458562Y173790D02*
D03*
X462311D02*
D03*
X452068Y211142D02*
D03*
X440555D02*
D03*
X444260Y195437D02*
D03*
X449148Y195585D02*
D03*
X448126Y214291D02*
D03*
X444242D02*
D03*
X452441Y177032D02*
D03*
X412724Y174844D02*
D03*
X394762Y214291D02*
D03*
X398646D02*
D03*
X391075Y211142D02*
D03*
X352280D02*
D03*
X340768D02*
D03*
X344478Y196035D02*
D03*
X348331D02*
D03*
X348339Y214291D02*
D03*
X344455D02*
D03*
X358128Y173938D02*
D03*
X362209Y174744D02*
D03*
X352618Y177032D02*
D03*
X294364Y214291D02*
D03*
X298248D02*
D03*
X298240Y195508D02*
D03*
X294388D02*
D03*
X290677Y211142D02*
D03*
X302190D02*
D03*
X312910Y174667D02*
D03*
X262135Y174582D02*
D03*
X252174Y211142D02*
D03*
X244463Y195494D02*
D03*
X248389Y195508D02*
D03*
X248315Y214291D02*
D03*
X244439D02*
D03*
X240661Y211142D02*
D03*
X189716D02*
D03*
X193494Y214291D02*
D03*
X197371D02*
D03*
X197394Y196035D02*
D03*
X193518D02*
D03*
X201229Y211142D02*
D03*
X143643Y196035D02*
D03*
X147519D02*
D03*
X147496Y214291D02*
D03*
X143619D02*
D03*
X139947Y211142D02*
D03*
X151354D02*
D03*
X316759Y369886D02*
D03*
X999913Y227191D02*
D03*
X821918Y655486D02*
D03*
X321971Y692449D02*
D03*
X413424Y679008D02*
D03*
X194836Y652303D02*
D03*
X482118Y596457D02*
D03*
X245218Y651440D02*
D03*
X466165Y608895D02*
D03*
X335326Y659567D02*
D03*
X332323Y657291D02*
D03*
X649873Y798304D02*
D03*
Y790430D02*
D03*
Y782556D02*
D03*
X624058Y789241D02*
D03*
Y795508D02*
D03*
Y801387D02*
D03*
X466853Y597129D02*
D03*
X404849Y671724D02*
D03*
X506770Y607586D02*
D03*
X498367Y607678D02*
D03*
X737048Y704615D02*
D03*
X514252Y430707D02*
D03*
X736744Y642764D02*
D03*
X159208Y587542D02*
D03*
X159378Y609838D02*
D03*
X100135Y537886D02*
D03*
X100154Y534488D02*
D03*
X164867Y408471D02*
D03*
X164924Y405231D02*
D03*
X762525Y204887D02*
D03*
Y201525D02*
D03*
X1033850Y340274D02*
D03*
Y344029D02*
D03*
X890129Y704266D02*
D03*
X760280Y270943D02*
D03*
X235286Y435772D02*
D03*
X318834Y375553D02*
D03*
X326055Y375757D02*
D03*
X164307Y621871D02*
D03*
X230650Y667296D02*
D03*
X230672Y647706D02*
D03*
X288433Y653806D02*
D03*
Y649669D02*
D03*
X251214Y667631D02*
D03*
X353221Y695272D02*
D03*
X36801Y239666D02*
D03*
X20833Y239325D02*
D03*
X503258Y177258D02*
D03*
X44883Y652855D02*
D03*
X57603Y652604D02*
D03*
X63131D02*
D03*
X39555Y652730D02*
D03*
X153973Y652605D02*
D03*
X147982Y652566D02*
D03*
X135560Y652605D02*
D03*
X130032Y652566D02*
D03*
X201673Y177364D02*
D03*
X94532Y652566D02*
D03*
X100060D02*
D03*
X112532D02*
D03*
X118060D02*
D03*
X482528Y393091D02*
D03*
Y397622D02*
D03*
X190898Y568358D02*
D03*
Y622193D02*
D03*
X159459Y612821D02*
D03*
X546980Y369890D02*
D03*
X542449D02*
D03*
X537921D02*
D03*
X533394D02*
D03*
X528866D02*
D03*
X514803D02*
D03*
X519610D02*
D03*
X524295D02*
D03*
X462489Y554393D02*
D03*
X409110Y173790D02*
D03*
X308390Y174609D02*
D03*
X258256Y174000D02*
D03*
X211415Y175236D02*
D03*
X207290Y174000D02*
D03*
X157342Y173998D02*
D03*
X300853Y360326D02*
D03*
X301600Y330161D02*
D03*
X296888Y341139D02*
D03*
X299843Y350510D02*
D03*
X291614Y356805D02*
D03*
X35618Y236209D02*
D03*
X117510Y175133D02*
D03*
Y192671D02*
D03*
Y228064D02*
D03*
Y245308D02*
D03*
Y263242D02*
D03*
Y283088D02*
D03*
Y302887D02*
D03*
Y321352D02*
D03*
X1139100Y451109D02*
D03*
X1134200Y446500D02*
D03*
X1044291Y265400D02*
D03*
X1117360Y287590D02*
D03*
Y317539D02*
D03*
X1125710Y287590D02*
D03*
Y296538D02*
D03*
Y308388D02*
D03*
X1125612Y317539D02*
D03*
X1125710Y292288D02*
D03*
Y313038D02*
D03*
X1105988Y396921D02*
D03*
X1119622Y357491D02*
D03*
Y408831D02*
D03*
X1133630Y358182D02*
D03*
X1119622Y396921D02*
D03*
X1117098Y533850D02*
D03*
Y513100D02*
D03*
X1117000Y538350D02*
D03*
X1117098Y529200D02*
D03*
Y517350D02*
D03*
Y508402D02*
D03*
X1108748Y538350D02*
D03*
Y508402D02*
D03*
X955097Y717984D02*
D03*
Y712668D02*
D03*
X881300Y713050D02*
D03*
X746900Y781400D02*
D03*
X1087732Y750040D02*
D03*
X1117803Y738968D02*
D03*
X1132674D02*
D03*
X1147545D02*
D03*
X1162702Y738968D02*
D03*
X868228Y762953D02*
D03*
Y770716D02*
D03*
X978289Y808321D02*
D03*
Y803853D02*
D03*
X974344Y808321D02*
D03*
Y803853D02*
D03*
X555638Y462390D02*
D03*
X175706Y652303D02*
D03*
X170178D02*
D03*
X505705Y369890D02*
D03*
X510232D02*
D03*
X597724Y692293D02*
D03*
X601633Y688992D02*
D03*
X881734Y770718D02*
D03*
Y762953D02*
D03*
X921353Y725129D02*
D03*
X1050936Y749904D02*
D03*
X1040220Y734943D02*
D03*
X948581Y792239D02*
D03*
X944841D02*
D03*
X970222Y803894D02*
D03*
Y808321D02*
D03*
X958226D02*
D03*
X962163D02*
D03*
X966207D02*
D03*
Y803894D02*
D03*
X962163Y803853D02*
D03*
X958226Y803894D02*
D03*
X1057917Y744923D02*
D03*
X1055066Y747977D02*
D03*
X953075Y801392D02*
D03*
X889053Y708583D02*
D03*
X1036826Y497265D02*
D03*
X1044291Y268701D02*
D03*
X455784Y561245D02*
D03*
X440713Y552665D02*
D03*
X435807D02*
D03*
X440713Y556382D02*
D03*
X435807D02*
D03*
X430538Y552665D02*
D03*
X430772Y556382D02*
D03*
X1078470Y256067D02*
D03*
X1067979Y332331D02*
D03*
X1177370Y302330D02*
D03*
Y310367D02*
D03*
Y326440D02*
D03*
X22593Y236249D02*
D03*
X610435Y647453D02*
D03*
Y642315D02*
D03*
X615287Y647453D02*
D03*
X615398Y642315D02*
D03*
X619702D02*
D03*
X624991D02*
D03*
X619702Y647453D02*
D03*
X243454Y481163D02*
D03*
X236419Y485293D02*
D03*
X262609Y458551D02*
D03*
X463831Y580299D02*
D03*
X490571Y582255D02*
D03*
X490541Y576374D02*
D03*
X490666Y566566D02*
D03*
X488080Y561936D02*
D03*
X476242Y562132D02*
D03*
X482183Y562023D02*
D03*
X463955Y572510D02*
D03*
X931105Y383985D02*
D03*
X943310D02*
D03*
X937219Y388619D02*
D03*
Y379564D02*
D03*
X931105D02*
D03*
X943310D02*
D03*
Y388619D02*
D03*
X931105D02*
D03*
Y392556D02*
D03*
X937219D02*
D03*
X943310D02*
D03*
Y375627D02*
D03*
X937219D02*
D03*
X931105D02*
D03*
X928757Y526613D02*
D03*
X940962D02*
D03*
X934871Y531247D02*
D03*
Y522191D02*
D03*
X928757D02*
D03*
X940962D02*
D03*
Y531247D02*
D03*
X928757D02*
D03*
Y535184D02*
D03*
X934871D02*
D03*
X940962D02*
D03*
Y518254D02*
D03*
X934871D02*
D03*
X928757D02*
D03*
X926784Y441250D02*
D03*
X932898D02*
D03*
X938989D02*
D03*
Y458179D02*
D03*
X932898D02*
D03*
X926784D02*
D03*
Y454242D02*
D03*
X938989D02*
D03*
Y445187D02*
D03*
X926784D02*
D03*
X932898Y454242D02*
D03*
X938989Y449608D02*
D03*
X926784D02*
D03*
X280558Y473802D02*
D03*
Y478330D02*
D03*
Y482859D02*
D03*
X266988Y501704D02*
D03*
X262344D02*
D03*
X244033D02*
D03*
X248561D02*
D03*
X253100D02*
D03*
X280558Y469273D02*
D03*
X257709Y501704D02*
D03*
X76632Y652604D02*
D03*
X82159D02*
D03*
D224*
X380000Y398400D02*
D03*
X384300Y404300D02*
D03*
X376100D02*
D03*
D225*
X1184800Y584400D02*
D03*
X1180900Y609400D02*
D03*
D226*
X402901Y415000D02*
D03*
X195000Y341095D02*
D03*
X179006Y516000D02*
D03*
X185495D02*
D03*
X191812D02*
D03*
X197361D02*
D03*
X200000Y344663D02*
D03*
X190000Y337500D02*
D03*
X420588Y395000D02*
D03*
X407321Y410000D02*
D03*
X424866Y390000D02*
D03*
X416311Y400000D02*
D03*
X411812Y405000D02*
D03*
X393311Y429500D02*
D03*
X397539Y426500D02*
D03*
X387052Y429535D02*
D03*
D227*
X1087598Y699393D02*
D03*
Y695083D02*
D03*
X1085236Y693500D02*
D03*
Y689000D02*
D03*
X1087598Y682000D02*
D03*
Y677500D02*
D03*
X1085236Y672000D02*
D03*
Y676212D02*
D03*
X1058872Y694114D02*
D03*
X1076363D02*
D03*
Y676970D02*
D03*
X1058872D02*
D03*
D228*
X645150Y769201D02*
D03*
D229*
X26925Y249396D02*
D03*
X31255D02*
D03*
X26925Y245065D02*
D03*
X31255D02*
D03*
X758681Y639614D02*
D03*
X754350D02*
D03*
X758681Y643945D02*
D03*
X754350D02*
D03*
X823327Y639720D02*
D03*
X818996D02*
D03*
X823327Y644051D02*
D03*
X818996D02*
D03*
X721579Y705865D02*
D03*
Y701534D02*
D03*
X725910Y705865D02*
D03*
Y701534D02*
D03*
X907236Y722638D02*
D03*
X902905D02*
D03*
X898575D02*
D03*
X907236Y718307D02*
D03*
X902905D02*
D03*
X898575D02*
D03*
X907236Y713976D02*
D03*
X902905D02*
D03*
X898575D02*
D03*
X313591Y338218D02*
D03*
Y342548D02*
D03*
Y346879D02*
D03*
Y351210D02*
D03*
Y355540D02*
D03*
X317922Y338218D02*
D03*
Y342548D02*
D03*
Y346879D02*
D03*
Y351210D02*
D03*
Y355540D02*
D03*
X322253Y338218D02*
D03*
Y342548D02*
D03*
Y346879D02*
D03*
Y351210D02*
D03*
Y355540D02*
D03*
X326584Y338218D02*
D03*
Y342548D02*
D03*
Y346879D02*
D03*
Y351210D02*
D03*
Y355540D02*
D03*
X330914Y338218D02*
D03*
Y342548D02*
D03*
Y346879D02*
D03*
Y351210D02*
D03*
Y355540D02*
D03*
X529196Y247959D02*
D03*
X533870D02*
D03*
X603997Y292619D02*
D03*
X608670D02*
D03*
X603997Y300454D02*
D03*
X541866Y326153D02*
D03*
X534031Y321480D02*
D03*
Y326153D02*
D03*
D230*
X410928Y674440D02*
D03*
D296*
X932595Y478035D02*
D03*
X925115D02*
D03*
Y467799D02*
D03*
X928855D02*
D03*
X932595D02*
D03*
D297*
X196236Y366550D02*
D03*
Y375450D02*
D03*
X211836D02*
D03*
Y366550D02*
D03*
X718633Y295450D02*
D03*
Y286550D02*
D03*
X703032D02*
D03*
Y295450D02*
D03*
X146700Y498550D02*
D03*
Y507450D02*
D03*
X162300D02*
D03*
Y498550D02*
D03*
X324072Y441750D02*
D03*
Y432850D02*
D03*
X308472D02*
D03*
Y441750D02*
D03*
D299*
X921935Y494539D02*
D03*
Y491980D02*
D03*
Y489421D02*
D03*
Y486861D02*
D03*
X938865D02*
D03*
Y489421D02*
D03*
Y491980D02*
D03*
Y494539D02*
D03*
D301*
X992650Y439650D02*
D03*
Y449550D02*
D03*
X1013350D02*
D03*
Y439650D02*
D03*
X982750Y293450D02*
D03*
Y303350D02*
D03*
X1003450D02*
D03*
Y293450D02*
D03*
X985450Y367650D02*
D03*
Y377550D02*
D03*
X1006150D02*
D03*
Y367650D02*
D03*
X983050Y515050D02*
D03*
Y524950D02*
D03*
X1003750D02*
D03*
Y515050D02*
D03*
D303*
X1126695Y446500D02*
D03*
X1106105D02*
D03*
D305*
X406894Y677690D02*
D03*
X408862D02*
D03*
X410831D02*
D03*
Y671190D02*
D03*
X408862D02*
D03*
X406894D02*
D03*
D311*
X192242Y610447D02*
D03*
Y605447D02*
D03*
Y600447D02*
D03*
Y595447D02*
D03*
Y590447D02*
D03*
Y585447D02*
D03*
Y580447D02*
D03*
X212042D02*
D03*
Y585447D02*
D03*
Y590447D02*
D03*
Y595447D02*
D03*
Y600447D02*
D03*
Y605447D02*
D03*
Y610447D02*
D03*
D318*
X915601Y383131D02*
D03*
X886467D02*
D03*
X1088130Y302330D02*
D03*
X1117264D02*
D03*
X1088130Y522803D02*
D03*
X1117264D02*
D03*
Y379780D02*
D03*
X1088130D02*
D03*
D319*
X1016658Y309234D02*
D03*
Y295651D02*
D03*
X1019232Y387356D02*
D03*
Y373773D02*
D03*
X1016658Y531903D02*
D03*
Y518320D02*
D03*
X836024Y431870D02*
D03*
Y445453D02*
D03*
D344*
X163565Y591109D02*
D03*
X161596D02*
D03*
X159628D02*
D03*
X157659D02*
D03*
X155691D02*
D03*
Y606088D02*
D03*
X157659D02*
D03*
X159628D02*
D03*
X161596D02*
D03*
X163565D02*
D03*
D345*
X152138Y594661D02*
D03*
Y596630D02*
D03*
Y598598D02*
D03*
Y600567D02*
D03*
Y602535D02*
D03*
X167118D02*
D03*
Y600567D02*
D03*
Y598598D02*
D03*
Y596630D02*
D03*
Y594661D02*
D03*
D346*
X159628Y598598D02*
D03*
D352*
X253351Y471553D02*
D03*
D353*
X977700Y472500D02*
D03*
Y477500D02*
D03*
Y482500D02*
D03*
Y487500D02*
D03*
X958300D02*
D03*
Y482500D02*
D03*
Y477500D02*
D03*
Y472500D02*
D03*
D354*
X942080Y500581D02*
D03*
X947788D02*
D03*
X198344Y570147D02*
D03*
X203856D02*
D03*
X204898Y619195D02*
D03*
X199386D02*
D03*
D355*
X1121540Y613963D02*
D03*
Y615932D02*
D03*
Y617900D02*
D03*
Y619869D02*
D03*
Y621837D02*
D03*
X1139060Y613963D02*
D03*
Y615932D02*
D03*
Y617900D02*
D03*
Y619869D02*
D03*
Y621837D02*
D03*
X1121040Y584263D02*
D03*
Y586232D02*
D03*
Y588200D02*
D03*
Y590169D02*
D03*
Y592137D02*
D03*
X1138560Y584263D02*
D03*
Y586232D02*
D03*
Y588200D02*
D03*
Y590169D02*
D03*
Y592137D02*
D03*
X1063059Y673033D02*
D03*
Y675001D02*
D03*
Y676970D02*
D03*
Y678938D02*
D03*
Y680907D02*
D03*
X1080579Y673033D02*
D03*
Y675001D02*
D03*
Y676970D02*
D03*
Y678938D02*
D03*
Y680907D02*
D03*
X1063059Y690177D02*
D03*
Y692146D02*
D03*
Y694114D02*
D03*
Y696083D02*
D03*
Y698051D02*
D03*
X1080579Y690177D02*
D03*
Y692146D02*
D03*
Y694114D02*
D03*
Y696083D02*
D03*
Y698051D02*
D03*
D356*
X722760Y765315D02*
D03*
X726500D02*
D03*
X730240D02*
D03*
Y754685D02*
D03*
X726500D02*
D03*
X722760D02*
D03*
X641622Y788711D02*
D03*
X637882D02*
D03*
X634143D02*
D03*
X634142Y799341D02*
D03*
X637882D02*
D03*
X641622D02*
D03*
D357*
X220200Y594959D02*
D03*
Y589841D02*
D03*
Y570941D02*
D03*
Y576059D02*
D03*
D358*
X349913Y295782D02*
D03*
Y299720D02*
D03*
X328192Y295782D02*
D03*
Y299720D02*
D03*
X320696Y295877D02*
D03*
Y299814D02*
D03*
X313456Y295877D02*
D03*
Y299814D02*
D03*
X298975Y295908D02*
D03*
Y299846D02*
D03*
X346527Y295782D02*
D03*
Y299720D02*
D03*
X324846Y295783D02*
D03*
Y299720D02*
D03*
X317310Y295877D02*
D03*
Y299814D02*
D03*
X310070Y295877D02*
D03*
Y299814D02*
D03*
X295590Y295899D02*
D03*
Y299836D02*
D03*
D359*
X342672Y295782D02*
D03*
Y299720D02*
D03*
X339286Y295782D02*
D03*
Y299720D02*
D03*
D360*
X335432Y295782D02*
D03*
Y299720D02*
D03*
X332046Y295782D02*
D03*
Y299720D02*
D03*
D361*
X306216Y295877D02*
D03*
Y299814D02*
D03*
X302830Y295877D02*
D03*
Y299814D02*
D03*
D362*
X234400Y583465D02*
D03*
Y604135D02*
D03*
D363*
X181889Y607156D02*
D03*
Y601644D02*
D03*
D364*
X564235Y628208D02*
D03*
Y621121D02*
D03*
X381306Y610568D02*
D03*
Y603481D02*
D03*
X521887Y550873D02*
D03*
Y557959D02*
D03*
X432670Y573112D02*
D03*
Y566025D02*
D03*
D365*
X1063933Y380170D02*
D03*
X829558Y392570D02*
D03*
X1063274Y524018D02*
D03*
X1063933Y302476D02*
D03*
D366*
X1028894Y390170D02*
D03*
Y370170D02*
D03*
X864597Y382570D02*
D03*
Y402570D02*
D03*
X1028234Y534018D02*
D03*
Y514018D02*
D03*
X1028894Y312476D02*
D03*
Y292476D02*
D03*
D367*
X922408Y553221D02*
D03*
Y542394D02*
D03*
X923736Y411102D02*
D03*
Y400276D02*
D03*
X917439Y329449D02*
D03*
Y318622D02*
D03*
X781252Y392996D02*
D03*
Y403823D02*
D03*
X417361Y330365D02*
D03*
Y341192D02*
D03*
X447316Y330365D02*
D03*
Y341192D02*
D03*
X937467Y553177D02*
D03*
Y542350D02*
D03*
X938854Y411008D02*
D03*
Y400181D02*
D03*
X932556Y329449D02*
D03*
Y318622D02*
D03*
X387406Y330365D02*
D03*
Y341192D02*
D03*
X402384Y330365D02*
D03*
Y341192D02*
D03*
X796122Y392996D02*
D03*
Y403823D02*
D03*
X432339Y330365D02*
D03*
Y341192D02*
D03*
X928855Y435644D02*
D03*
Y424818D02*
D03*
X943950Y435527D02*
D03*
Y424700D02*
D03*
D368*
X1146410Y462002D02*
D03*
X1149717D02*
D03*
Y445466D02*
D03*
X1146410D02*
D03*
X1149717Y428931D02*
D03*
X1146410D02*
D03*
X1149717Y412395D02*
D03*
X1146410D02*
D03*
D369*
X565813Y244434D02*
D03*
Y249434D02*
D03*
Y254434D02*
D03*
Y259435D02*
D03*
Y264435D02*
D03*
Y269434D02*
D03*
Y274434D02*
D03*
D370*
X588648Y259435D02*
D03*
D371*
X723744Y703700D02*
D03*
D372*
X731224Y698778D02*
D03*
Y700747D02*
D03*
Y702715D02*
D03*
Y704684D02*
D03*
Y706652D02*
D03*
Y708621D02*
D03*
X716264D02*
D03*
Y706652D02*
D03*
Y704684D02*
D03*
Y702715D02*
D03*
Y700747D02*
D03*
Y698778D02*
D03*
D373*
X728665Y711180D02*
D03*
X726697D02*
D03*
X724728D02*
D03*
X722760D02*
D03*
X720791D02*
D03*
X718823D02*
D03*
Y696219D02*
D03*
X720791D02*
D03*
X722760D02*
D03*
X724728D02*
D03*
X726697D02*
D03*
X728665D02*
D03*
D374*
X902905Y718307D02*
D03*
D375*
X896016Y709547D02*
D03*
X897984D02*
D03*
X899953D02*
D03*
X901921D02*
D03*
X903890D02*
D03*
X905858D02*
D03*
X907827D02*
D03*
X909795D02*
D03*
Y727067D02*
D03*
X907827D02*
D03*
X905858D02*
D03*
X903890D02*
D03*
X901921D02*
D03*
X899953D02*
D03*
X897984D02*
D03*
X896016D02*
D03*
D376*
X911665Y711417D02*
D03*
Y713386D02*
D03*
Y715354D02*
D03*
Y717323D02*
D03*
Y719291D02*
D03*
Y721260D02*
D03*
Y723228D02*
D03*
Y725197D02*
D03*
X894146D02*
D03*
Y723228D02*
D03*
Y721260D02*
D03*
Y719291D02*
D03*
Y717323D02*
D03*
Y715354D02*
D03*
Y713386D02*
D03*
Y711417D02*
D03*
D377*
X1024103Y734923D02*
D03*
Y739923D02*
D03*
Y744923D02*
D03*
Y749923D02*
D03*
X1045560Y734923D02*
D03*
Y739923D02*
D03*
Y744923D02*
D03*
Y749923D02*
D03*
D378*
X969677Y531355D02*
D03*
X949008D02*
D03*
X969530Y314233D02*
D03*
X948860D02*
D03*
X822010Y430924D02*
D03*
X801341D02*
D03*
X959165Y449000D02*
D03*
X979835D02*
D03*
X972285Y386350D02*
D03*
X951615D02*
D03*
D379*
X1041994Y491406D02*
D03*
Y493375D02*
D03*
Y495343D02*
D03*
Y497312D02*
D03*
X1024475Y491406D02*
D03*
Y493375D02*
D03*
Y495343D02*
D03*
Y497312D02*
D03*
X1041994Y499280D02*
D03*
X1024475D02*
D03*
X750578Y204069D02*
D03*
X768098D02*
D03*
X750578Y202100D02*
D03*
Y200132D02*
D03*
Y198163D02*
D03*
Y196195D02*
D03*
X768098Y202100D02*
D03*
Y200130D02*
D03*
Y198163D02*
D03*
Y196195D02*
D03*
X1039727Y341460D02*
D03*
Y343429D02*
D03*
Y345397D02*
D03*
Y347366D02*
D03*
X1022207Y341460D02*
D03*
Y343429D02*
D03*
Y345397D02*
D03*
Y347366D02*
D03*
X1039727Y349335D02*
D03*
X1022207D02*
D03*
X1049849Y266344D02*
D03*
Y268313D02*
D03*
Y270282D02*
D03*
Y272250D02*
D03*
X1032330Y266344D02*
D03*
Y268313D02*
D03*
Y270282D02*
D03*
Y272250D02*
D03*
X1049850Y274220D02*
D03*
X1032330Y274219D02*
D03*
X112261Y529134D02*
D03*
X94741D02*
D03*
X112261Y531102D02*
D03*
Y533071D02*
D03*
Y535039D02*
D03*
Y537008D02*
D03*
X94741Y531102D02*
D03*
Y533071D02*
D03*
Y535039D02*
D03*
Y537008D02*
D03*
X283914Y422184D02*
D03*
X266394D02*
D03*
X283914Y424153D02*
D03*
Y426121D02*
D03*
Y428090D02*
D03*
Y430058D02*
D03*
X266394Y424153D02*
D03*
Y426121D02*
D03*
Y428090D02*
D03*
Y430058D02*
D03*
X159690Y407619D02*
D03*
Y405651D02*
D03*
Y403682D02*
D03*
Y401714D02*
D03*
X177209Y407619D02*
D03*
Y405651D02*
D03*
Y403682D02*
D03*
Y401714D02*
D03*
X159690Y399745D02*
D03*
X177209D02*
D03*
D380*
X407371Y604086D02*
D03*
Y611567D02*
D03*
X395757D02*
D03*
Y607827D02*
D03*
Y604086D02*
D03*
X538621Y627848D02*
D03*
Y620368D02*
D03*
X550235D02*
D03*
Y624108D02*
D03*
Y627848D02*
D03*
D381*
X395540Y560910D02*
D03*
X656185Y641423D02*
D03*
X560343Y562091D02*
D03*
D382*
X418572Y550910D02*
D03*
Y555910D02*
D03*
Y560910D02*
D03*
Y565910D02*
D03*
Y570910D02*
D03*
X633153Y631423D02*
D03*
Y636423D02*
D03*
Y641421D02*
D03*
Y646423D02*
D03*
Y651423D02*
D03*
X537312Y552091D02*
D03*
Y557091D02*
D03*
Y562091D02*
D03*
Y567091D02*
D03*
Y572091D02*
D03*
D383*
X551717Y252178D02*
D03*
Y245879D02*
D03*
X613202Y630237D02*
D03*
Y636536D02*
D03*
X569640Y621452D02*
D03*
Y627751D02*
D03*
X375270Y610242D02*
D03*
Y603942D02*
D03*
X516603Y550958D02*
D03*
Y557257D02*
D03*
X438183Y573110D02*
D03*
Y566811D02*
D03*
X132615Y505656D02*
D03*
X132614Y499358D02*
D03*
X339076Y435598D02*
D03*
Y441897D02*
D03*
X549109Y317046D02*
D03*
X549107Y323346D02*
D03*
X170958Y378718D02*
D03*
Y372419D02*
D03*
D384*
X150273Y376750D02*
D03*
Y371750D02*
D03*
Y366750D02*
D03*
Y361750D02*
D03*
Y356750D02*
D03*
X112041Y502411D02*
D03*
Y497411D02*
D03*
Y492410D02*
D03*
Y487411D02*
D03*
Y482411D02*
D03*
X569479Y341150D02*
D03*
Y336150D02*
D03*
Y331150D02*
D03*
Y326150D02*
D03*
Y321150D02*
D03*
D385*
X126848Y366750D02*
D03*
X88616Y492411D02*
D03*
X592904Y331150D02*
D03*
D386*
X65952Y785626D02*
D03*
Y781886D02*
D03*
Y778146D02*
D03*
X76581Y778146D02*
D03*
Y781886D02*
D03*
Y785626D02*
D03*
X108450Y785641D02*
D03*
Y781901D02*
D03*
Y778161D02*
D03*
X97821D02*
D03*
Y781901D02*
D03*
Y785641D02*
D03*
X139116Y785652D02*
D03*
Y781912D02*
D03*
Y778172D02*
D03*
X128486Y778173D02*
D03*
Y781912D02*
D03*
Y785653D02*
D03*
X171470Y785634D02*
D03*
Y781894D02*
D03*
Y778154D02*
D03*
X160840D02*
D03*
Y781894D02*
D03*
Y785634D02*
D03*
X731244Y747244D02*
D03*
Y743504D02*
D03*
Y739764D02*
D03*
X720614D02*
D03*
Y743504D02*
D03*
Y747244D02*
D03*
D387*
X577113Y295680D02*
D03*
D388*
X582172Y298633D02*
D03*
Y296665D02*
D03*
Y294696D02*
D03*
Y292728D02*
D03*
X572054Y298633D02*
D03*
Y296665D02*
D03*
Y294696D02*
D03*
Y292728D02*
D03*
D389*
X525087Y163209D02*
D03*
Y168917D02*
D03*
X518180Y163514D02*
D03*
Y169223D02*
D03*
X466272Y163858D02*
D03*
Y169567D02*
D03*
X473374Y163858D02*
D03*
X473375Y169567D02*
D03*
X415697Y163858D02*
D03*
X415696Y169567D02*
D03*
X422799Y163858D02*
D03*
Y169567D02*
D03*
X364854Y163858D02*
D03*
X364853Y169567D02*
D03*
X371957Y163858D02*
D03*
Y169567D02*
D03*
X320905Y163858D02*
D03*
X320906Y169567D02*
D03*
X313803Y163608D02*
D03*
X313802Y169316D02*
D03*
X269823Y163811D02*
D03*
Y169520D02*
D03*
X262720Y163811D02*
D03*
Y169520D02*
D03*
X158401Y168294D02*
D03*
X158402Y162587D02*
D03*
X165504Y168295D02*
D03*
Y162587D02*
D03*
X211827Y164830D02*
D03*
X211828Y170539D02*
D03*
X218894Y164941D02*
D03*
Y170650D02*
D03*
D390*
X935814Y711152D02*
D03*
X938373D02*
D03*
X940933D02*
D03*
X940932Y718632D02*
D03*
X938373D02*
D03*
X935814D02*
D03*
D391*
X134685Y617067D02*
D03*
Y622067D02*
D03*
Y627067D02*
D03*
Y632067D02*
D03*
X153976Y617067D02*
D03*
Y622067D02*
D03*
Y627067D02*
D03*
Y632067D02*
D03*
D392*
X383919Y449033D02*
D03*
D393*
X360100Y459033D02*
D03*
Y454033D02*
D03*
Y449031D02*
D03*
Y444033D02*
D03*
Y439033D02*
D03*
D394*
X259925Y361863D02*
D03*
Y373279D02*
D03*
X368476Y338144D02*
D03*
X368476Y326727D02*
D03*
M02*
